<?xml version="1.0" encoding="UTF-8" standalone="no"?>
<!DOCTYPE svg PUBLIC "-//W3C//DTD SVG 1.1//EN"
 "http://www.w3.org/Graphics/SVG/1.1/DTD/svg11.dtd">
<!-- Generated by graphviz version 2.44.0 ()
 -->
<!-- Title: automaton::core::network::http_session::socket Pages: 1 -->
<svg width="467pt" height="61pt"
 viewBox="0.00 0.00 467.00 61.00" xmlns="http://www.w3.org/2000/svg" xmlns:xlink="http://www.w3.org/1999/xlink">
<g id="graph0" class="graph" transform="scale(1 1) rotate(0) translate(4 57)">
<title>automaton::core::network::http_session::socket</title>
<polygon fill="white" stroke="transparent" points="-4,4 -4,-57 463,-57 463,4 -4,4"/>
<!-- Node1 -->
<g id="node1" class="node">
<title>Node1</title>
<g id="a_node1"><a xlink:title=" ">
<polygon fill="#bfbfbf" stroke="black" points="334,-22.5 334,-52.5 459,-52.5 459,-22.5 334,-22.5"/>
<text text-anchor="start" x="342" y="-40.5" font-family="Helvetica,sans-Serif" font-size="10.00">automaton::core::network</text>
<text text-anchor="middle" x="396.5" y="-29.5" font-family="Helvetica,sans-Serif" font-size="10.00">::http_session::socket</text>
</a>
</g>
</g>
<!-- Node2 -->
<g id="node2" class="node">
<title>Node2</title>
<g id="a_node2"><a xlink:href="../../d9/d1d/classautomaton_1_1core_1_1network_1_1http__server.html#afc7d40088d5a24974d046c2488a10d28" target="_top" xlink:title=" ">
<polygon fill="white" stroke="black" points="0,-22.5 0,-52.5 125,-52.5 125,-22.5 0,-22.5"/>
<text text-anchor="start" x="8" y="-40.5" font-family="Helvetica,sans-Serif" font-size="10.00">automaton::core::network</text>
<text text-anchor="middle" x="62.5" y="-29.5" font-family="Helvetica,sans-Serif" font-size="10.00">::http_server::http_server</text>
</a>
</g>
</g>
<!-- Node1&#45;&gt;Node2 -->
<g id="edge1" class="edge">
<title>Node1&#45;&gt;Node2</title>
<path fill="none" stroke="midnightblue" d="M323.75,-39.96C315.07,-40.18 306.34,-40.37 298,-40.5 237.12,-41.44 221.88,-41.44 161,-40.5 149.4,-40.32 137.03,-40.02 125.13,-39.68"/>
<polygon fill="midnightblue" stroke="midnightblue" points="323.97,-43.45 333.87,-39.68 323.78,-36.46 323.97,-43.45"/>
</g>
<!-- Node3 -->
<g id="node3" class="node">
<title>Node3</title>
<g id="a_node3"><a xlink:href="../../d9/d1d/classautomaton_1_1core_1_1network_1_1http__server.html#a71bb3df29d9874e6ee841aaac849f733" target="_top" xlink:title=" ">
<polygon fill="white" stroke="black" points="161,-0.5 161,-30.5 298,-30.5 298,-0.5 161,-0.5"/>
<text text-anchor="start" x="169" y="-18.5" font-family="Helvetica,sans-Serif" font-size="10.00">automaton::core::network</text>
<text text-anchor="middle" x="229.5" y="-7.5" font-family="Helvetica,sans-Serif" font-size="10.00">::http_server::handle_accept</text>
</a>
</g>
</g>
<!-- Node1&#45;&gt;Node3 -->
<g id="edge2" class="edge">
<title>Node1&#45;&gt;Node3</title>
<path fill="none" stroke="midnightblue" d="M323.68,-27.92C315.15,-26.79 306.47,-25.63 298.01,-24.5"/>
<polygon fill="midnightblue" stroke="midnightblue" points="323.22,-31.39 333.59,-29.25 324.14,-24.45 323.22,-31.39"/>
</g>
<!-- Node3&#45;&gt;Node2 -->
<g id="edge3" class="edge">
<title>Node3&#45;&gt;Node2</title>
<path fill="none" stroke="midnightblue" d="M150.85,-25.85C142.23,-27 133.53,-28.16 125.15,-29.28"/>
<polygon fill="midnightblue" stroke="midnightblue" points="151.46,-29.3 160.91,-24.51 150.54,-22.36 151.46,-29.3"/>
</g>
</g>
</svg>
