<?xml version="1.0" encoding="UTF-8" standalone="no"?>
<!DOCTYPE svg PUBLIC "-//W3C//DTD SVG 1.1//EN"
 "http://www.w3.org/Graphics/SVG/1.1/DTD/svg11.dtd">
<!-- Generated by graphviz version 2.42.3 ()
 -->
<!-- Title: automaton::core::network::http_session::socket Pages: 1 -->
<svg width="467pt" height="61pt"
 viewBox="0.00 0.00 467.00 61.00" xmlns="http://www.w3.org/2000/svg" xmlns:xlink="http://www.w3.org/1999/xlink">
<g id="graph0" class="graph" transform="scale(1 1) rotate(0) translate(4 57)">
<title>automaton::core::network::http_session::socket</title>
<polygon fill="white" stroke="transparent" points="-4,4 -4,-57 463,-57 463,4 -4,4"/>
<!-- Node1 -->
<g id="node1" class="node">
<title>Node1</title>
<g id="a_node1"><a xlink:title=" ">
<polygon fill="#bfbfbf" stroke="black" points="334,-0.5 334,-30.5 459,-30.5 459,-0.5 334,-0.5"/>
<text text-anchor="start" x="342" y="-18.5" font-family="Helvetica,sans-Serif" font-size="10.00">automaton::core::network</text>
<text text-anchor="middle" x="396.5" y="-7.5" font-family="Helvetica,sans-Serif" font-size="10.00">::http_session::socket</text>
</a>
</g>
</g>
<!-- Node2 -->
<g id="node2" class="node">
<title>Node2</title>
<g id="a_node2"><a xlink:href="../../d9/d1d/classautomaton_1_1core_1_1network_1_1http__server.html#a71bb3df29d9874e6ee841aaac849f733" target="_top" xlink:title=" ">
<polygon fill="white" stroke="black" points="161,-22.5 161,-52.5 298,-52.5 298,-22.5 161,-22.5"/>
<text text-anchor="start" x="169" y="-40.5" font-family="Helvetica,sans-Serif" font-size="10.00">automaton::core::network</text>
<text text-anchor="middle" x="229.5" y="-29.5" font-family="Helvetica,sans-Serif" font-size="10.00">::http_server::handle_accept</text>
</a>
</g>
</g>
<!-- Node1&#45;&gt;Node2 -->
<g id="edge1" class="edge">
<title>Node1&#45;&gt;Node2</title>
<path fill="none" stroke="midnightblue" d="M323.68,-25.08C315.15,-26.21 306.47,-27.37 298.01,-28.5"/>
<polygon fill="midnightblue" stroke="midnightblue" points="324.14,-28.55 333.59,-23.75 323.22,-21.61 324.14,-28.55"/>
</g>
<!-- Node3 -->
<g id="node3" class="node">
<title>Node3</title>
<g id="a_node3"><a xlink:href="../../d9/d1d/classautomaton_1_1core_1_1network_1_1http__server.html#afc7d40088d5a24974d046c2488a10d28" target="_top" xlink:title=" ">
<polygon fill="white" stroke="black" points="0,-0.5 0,-30.5 125,-30.5 125,-0.5 0,-0.5"/>
<text text-anchor="start" x="8" y="-18.5" font-family="Helvetica,sans-Serif" font-size="10.00">automaton::core::network</text>
<text text-anchor="middle" x="62.5" y="-7.5" font-family="Helvetica,sans-Serif" font-size="10.00">::http_server::http_server</text>
</a>
</g>
</g>
<!-- Node1&#45;&gt;Node3 -->
<g id="edge3" class="edge">
<title>Node1&#45;&gt;Node3</title>
<path fill="none" stroke="midnightblue" d="M323.74,-13.86C315.07,-13.71 306.34,-13.59 298,-13.5 237.11,-12.88 221.89,-12.88 161,-13.5 149.4,-13.62 137.03,-13.82 125.13,-14.04"/>
<polygon fill="midnightblue" stroke="midnightblue" points="323.81,-17.36 333.87,-14.04 323.93,-10.36 323.81,-17.36"/>
</g>
<!-- Node2&#45;&gt;Node3 -->
<g id="edge2" class="edge">
<title>Node2&#45;&gt;Node3</title>
<path fill="none" stroke="midnightblue" d="M150.85,-27.15C142.23,-26 133.53,-24.84 125.15,-23.72"/>
<polygon fill="midnightblue" stroke="midnightblue" points="150.54,-30.64 160.91,-28.49 151.46,-23.7 150.54,-30.64"/>
</g>
</g>
</svg>
