<?xml version="1.0" encoding="UTF-8" standalone="no"?>
<!DOCTYPE svg PUBLIC "-//W3C//DTD SVG 1.1//EN"
 "http://www.w3.org/Graphics/SVG/1.1/DTD/svg11.dtd">
<!-- Generated by graphviz version 2.42.3 ()
 -->
<!-- Title: protobuf_factory.h Pages: 1 -->
<svg width="671pt" height="84pt"
 viewBox="0.00 0.00 671.00 84.00" xmlns="http://www.w3.org/2000/svg" xmlns:xlink="http://www.w3.org/1999/xlink">
<g id="graph0" class="graph" transform="scale(1 1) rotate(0) translate(4 80)">
<title>protobuf_factory.h</title>
<polygon fill="white" stroke="transparent" points="-4,4 -4,-80 667,-80 667,4 -4,4"/>
<!-- Node1 -->
<g id="node1" class="node">
<title>Node1</title>
<g id="a_node1"><a xlink:title=" ">
<polygon fill="#bfbfbf" stroke="black" points="296,-56.5 296,-75.5 390,-75.5 390,-56.5 296,-56.5"/>
<text text-anchor="middle" x="343" y="-63.5" font-family="Helvetica,sans-Serif" font-size="10.00">protobuf_factory.h</text>
</a>
</g>
</g>
<!-- Node2 -->
<g id="node2" class="node">
<title>Node2</title>
<g id="a_node2"><a xlink:href="../../dd/de7/core_8cc.html" target="_top" xlink:title=" ">
<polygon fill="white" stroke="black" points="0,-0.5 0,-19.5 48,-19.5 48,-0.5 0,-0.5"/>
<text text-anchor="middle" x="24" y="-7.5" font-family="Helvetica,sans-Serif" font-size="10.00">core.cc</text>
</a>
</g>
</g>
<!-- Node1&#45;&gt;Node2 -->
<g id="edge1" class="edge">
<title>Node1&#45;&gt;Node2</title>
<path fill="none" stroke="midnightblue" d="M285.83,-57.89C227.85,-50.24 135.7,-36.87 57,-20 54.1,-19.38 51.07,-18.66 48.08,-17.9"/>
<polygon fill="midnightblue" stroke="midnightblue" points="285.52,-61.38 295.89,-59.21 286.43,-54.44 285.52,-61.38"/>
</g>
<!-- Node3 -->
<g id="node3" class="node">
<title>Node3</title>
<g id="a_node3"><a xlink:href="../../d0/dcc/protobuf__factory_8cc.html" target="_top" xlink:title=" ">
<polygon fill="white" stroke="black" points="66.5,-0.5 66.5,-19.5 165.5,-19.5 165.5,-0.5 66.5,-0.5"/>
<text text-anchor="middle" x="116" y="-7.5" font-family="Helvetica,sans-Serif" font-size="10.00">protobuf_factory.cc</text>
</a>
</g>
</g>
<!-- Node1&#45;&gt;Node3 -->
<g id="edge2" class="edge">
<title>Node1&#45;&gt;Node3</title>
<path fill="none" stroke="midnightblue" d="M297.13,-54.09C254.25,-43.89 191.08,-28.86 151.8,-19.52"/>
<polygon fill="midnightblue" stroke="midnightblue" points="296.49,-57.53 307.03,-56.44 298.11,-50.72 296.49,-57.53"/>
</g>
<!-- Node4 -->
<g id="node4" class="node">
<title>Node4</title>
<g id="a_node4"><a xlink:href="../../da/d58/protobuf__msg_8cc.html" target="_top" xlink:title=" ">
<polygon fill="white" stroke="black" points="183.5,-0.5 183.5,-19.5 272.5,-19.5 272.5,-0.5 183.5,-0.5"/>
<text text-anchor="middle" x="228" y="-7.5" font-family="Helvetica,sans-Serif" font-size="10.00">protobuf_msg.cc</text>
</a>
</g>
</g>
<!-- Node1&#45;&gt;Node4 -->
<g id="edge3" class="edge">
<title>Node1&#45;&gt;Node4</title>
<path fill="none" stroke="midnightblue" d="M315.52,-52.1C294.03,-42.01 264.78,-28.27 246.14,-19.52"/>
<polygon fill="midnightblue" stroke="midnightblue" points="314.24,-55.36 324.78,-56.44 317.21,-49.02 314.24,-55.36"/>
</g>
<!-- Node5 -->
<g id="node5" class="node">
<title>Node5</title>
<g id="a_node5"><a xlink:href="../../dc/d05/protobuf__schema_8cc.html" target="_top" xlink:title=" ">
<polygon fill="white" stroke="black" points="291,-0.5 291,-19.5 395,-19.5 395,-0.5 291,-0.5"/>
<text text-anchor="middle" x="343" y="-7.5" font-family="Helvetica,sans-Serif" font-size="10.00">protobuf_schema.cc</text>
</a>
</g>
</g>
<!-- Node1&#45;&gt;Node5 -->
<g id="edge4" class="edge">
<title>Node1&#45;&gt;Node5</title>
<path fill="none" stroke="midnightblue" d="M343,-45.8C343,-36.91 343,-26.78 343,-19.75"/>
<polygon fill="midnightblue" stroke="midnightblue" points="339.5,-46.08 343,-56.08 346.5,-46.08 339.5,-46.08"/>
</g>
<!-- Node6 -->
<g id="node6" class="node">
<title>Node6</title>
<g id="a_node6"><a xlink:href="../../db/d7f/engine_8cc.html" target="_top" xlink:title=" ">
<polygon fill="white" stroke="black" points="413,-0.5 413,-19.5 471,-19.5 471,-0.5 413,-0.5"/>
<text text-anchor="middle" x="442" y="-7.5" font-family="Helvetica,sans-Serif" font-size="10.00">engine.cc</text>
</a>
</g>
</g>
<!-- Node1&#45;&gt;Node6 -->
<g id="edge5" class="edge">
<title>Node1&#45;&gt;Node6</title>
<path fill="none" stroke="midnightblue" d="M367.84,-51.45C386.11,-41.48 410.42,-28.23 426.13,-19.65"/>
<polygon fill="midnightblue" stroke="midnightblue" points="366.01,-48.46 358.91,-56.32 369.36,-54.61 366.01,-48.46"/>
</g>
<!-- Node7 -->
<g id="node7" class="node">
<title>Node7</title>
<g id="a_node7"><a xlink:href="../../d5/d9f/registry_8cc.html" target="_top" xlink:title=" ">
<polygon fill="white" stroke="black" points="489.5,-0.5 489.5,-19.5 550.5,-19.5 550.5,-0.5 489.5,-0.5"/>
<text text-anchor="middle" x="520" y="-7.5" font-family="Helvetica,sans-Serif" font-size="10.00">registry.cc</text>
</a>
</g>
</g>
<!-- Node1&#45;&gt;Node7 -->
<g id="edge6" class="edge">
<title>Node1&#45;&gt;Node7</title>
<path fill="none" stroke="midnightblue" d="M380.9,-53.44C414.28,-43.26 462.1,-28.66 492.09,-19.52"/>
<polygon fill="midnightblue" stroke="midnightblue" points="379.59,-50.18 371.05,-56.44 381.63,-56.87 379.59,-50.18"/>
</g>
<!-- Node8 -->
<g id="node8" class="node">
<title>Node8</title>
<g id="a_node8"><a xlink:href="../../d0/dee/smart__protocol_8cc.html" target="_top" xlink:title=" ">
<polygon fill="white" stroke="black" points="569,-0.5 569,-19.5 663,-19.5 663,-0.5 569,-0.5"/>
<text text-anchor="middle" x="616" y="-7.5" font-family="Helvetica,sans-Serif" font-size="10.00">smart_protocol.cc</text>
</a>
</g>
</g>
<!-- Node1&#45;&gt;Node8 -->
<g id="edge7" class="edge">
<title>Node1&#45;&gt;Node8</title>
<path fill="none" stroke="midnightblue" d="M396.22,-54.47C447.81,-44.27 525.1,-28.98 572.94,-19.52"/>
<polygon fill="midnightblue" stroke="midnightblue" points="395.39,-51.07 386.26,-56.44 396.75,-57.94 395.39,-51.07"/>
</g>
</g>
</svg>
