<?xml version="1.0" encoding="UTF-8" standalone="no"?>
<!DOCTYPE svg PUBLIC "-//W3C//DTD SVG 1.1//EN"
 "http://www.w3.org/Graphics/SVG/1.1/DTD/svg11.dtd">
<!-- Generated by graphviz version 2.42.3 ()
 -->
<!-- Title: eth_helper_functions.h Pages: 1 -->
<svg width="1152pt" height="151pt"
 viewBox="0.00 0.00 1152.00 151.00" xmlns="http://www.w3.org/2000/svg" xmlns:xlink="http://www.w3.org/1999/xlink">
<g id="graph0" class="graph" transform="scale(1 1) rotate(0) translate(4 147)">
<title>eth_helper_functions.h</title>
<polygon fill="white" stroke="transparent" points="-4,4 -4,-147 1148,-147 1148,4 -4,4"/>
<!-- Node1 -->
<g id="node1" class="node">
<title>Node1</title>
<g id="a_node1"><a xlink:title=" ">
<polygon fill="#bfbfbf" stroke="black" points="434.5,-123.5 434.5,-142.5 548.5,-142.5 548.5,-123.5 434.5,-123.5"/>
<text text-anchor="middle" x="491.5" y="-130.5" font-family="Helvetica,sans-Serif" font-size="10.00">eth_helper_functions.h</text>
</a>
</g>
</g>
<!-- Node2 -->
<g id="node2" class="node">
<title>Node2</title>
<g id="a_node2"><a xlink:title=" ">
<polygon fill="white" stroke="#bfbfbf" points="0,-62 0,-81 93,-81 93,-62 0,-62"/>
<text text-anchor="middle" x="46.5" y="-69" font-family="Helvetica,sans-Serif" font-size="10.00">cryptopp/integer.h</text>
</a>
</g>
</g>
<!-- Node1&#45;&gt;Node2 -->
<g id="edge1" class="edge">
<title>Node1&#45;&gt;Node2</title>
<path fill="none" stroke="midnightblue" d="M434.28,-127.97C357.92,-122.01 218.71,-109.1 101.5,-87 96.36,-86.03 90.98,-84.84 85.7,-83.56"/>
<polygon fill="midnightblue" stroke="midnightblue" points="86.28,-80.1 75.72,-81.03 84.56,-86.88 86.28,-80.1"/>
</g>
<!-- Node3 -->
<g id="node3" class="node">
<title>Node3</title>
<g id="a_node3"><a xlink:title=" ">
<polygon fill="white" stroke="#bfbfbf" points="111,-62 111,-81 170,-81 170,-62 111,-62"/>
<text text-anchor="middle" x="140.5" y="-69" font-family="Helvetica,sans-Serif" font-size="10.00">curl/curl.h</text>
</a>
</g>
</g>
<!-- Node1&#45;&gt;Node3 -->
<g id="edge2" class="edge">
<title>Node1&#45;&gt;Node3</title>
<path fill="none" stroke="midnightblue" d="M434.43,-127.44C371.32,-121.55 267,-109.31 179.5,-87 176.52,-86.24 173.45,-85.33 170.4,-84.34"/>
<polygon fill="midnightblue" stroke="midnightblue" points="171.48,-81.01 160.88,-81.01 169.16,-87.62 171.48,-81.01"/>
</g>
<!-- Node4 -->
<g id="node4" class="node">
<title>Node4</title>
<g id="a_node4"><a xlink:title=" ">
<polygon fill="white" stroke="#bfbfbf" points="188.5,-62 188.5,-81 232.5,-81 232.5,-62 188.5,-62"/>
<text text-anchor="middle" x="210.5" y="-69" font-family="Helvetica,sans-Serif" font-size="10.00">cmath</text>
</a>
</g>
</g>
<!-- Node1&#45;&gt;Node4 -->
<g id="edge3" class="edge">
<title>Node1&#45;&gt;Node4</title>
<path fill="none" stroke="midnightblue" d="M434.39,-126C383.04,-119.6 306.01,-107.51 241.5,-87 239.83,-86.47 238.13,-85.87 236.43,-85.22"/>
<polygon fill="midnightblue" stroke="midnightblue" points="237.48,-81.86 226.91,-81.14 234.73,-88.3 237.48,-81.86"/>
</g>
<!-- Node5 -->
<g id="node5" class="node">
<title>Node5</title>
<g id="a_node5"><a xlink:title=" ">
<polygon fill="white" stroke="#bfbfbf" points="250.5,-62 250.5,-81 290.5,-81 290.5,-62 250.5,-62"/>
<text text-anchor="middle" x="270.5" y="-69" font-family="Helvetica,sans-Serif" font-size="10.00">regex</text>
</a>
</g>
</g>
<!-- Node1&#45;&gt;Node5 -->
<g id="edge4" class="edge">
<title>Node1&#45;&gt;Node5</title>
<path fill="none" stroke="midnightblue" d="M440.84,-123.48C401.58,-116.07 346.19,-103.88 299.5,-87 298.08,-86.49 296.63,-85.92 295.19,-85.32"/>
<polygon fill="midnightblue" stroke="midnightblue" points="296.4,-82.02 285.86,-81.01 293.47,-88.38 296.4,-82.02"/>
</g>
<!-- Node6 -->
<g id="node6" class="node">
<title>Node6</title>
<g id="a_node6"><a xlink:title=" ">
<polygon fill="white" stroke="#bfbfbf" points="308.5,-62 308.5,-81 360.5,-81 360.5,-62 308.5,-62"/>
<text text-anchor="middle" x="334.5" y="-69" font-family="Helvetica,sans-Serif" font-size="10.00">sstream</text>
</a>
</g>
</g>
<!-- Node1&#45;&gt;Node6 -->
<g id="edge5" class="edge">
<title>Node1&#45;&gt;Node6</title>
<path fill="none" stroke="midnightblue" d="M467.55,-123.48C442.87,-114.63 403.35,-100.25 369.5,-87 367.86,-86.36 366.18,-85.69 364.48,-85.01"/>
<polygon fill="midnightblue" stroke="midnightblue" points="365.38,-81.6 354.8,-81.07 362.74,-88.08 365.38,-81.6"/>
</g>
<!-- Node7 -->
<g id="node7" class="node">
<title>Node7</title>
<g id="a_node7"><a xlink:title=" ">
<polygon fill="white" stroke="#bfbfbf" points="698,-0.5 698,-19.5 739,-19.5 739,-0.5 698,-0.5"/>
<text text-anchor="middle" x="718.5" y="-7.5" font-family="Helvetica,sans-Serif" font-size="10.00">string</text>
</a>
</g>
</g>
<!-- Node1&#45;&gt;Node7 -->
<g id="edge6" class="edge">
<title>Node1&#45;&gt;Node7</title>
<path fill="none" stroke="midnightblue" d="M548.76,-131.95C627.15,-130.53 761.68,-122.78 792.5,-87 801.49,-76.56 799.25,-68.01 792.5,-56 783.16,-39.39 764.94,-28.2 748.92,-21.13"/>
<polygon fill="midnightblue" stroke="midnightblue" points="749.91,-17.76 739.32,-17.25 747.28,-24.25 749.91,-17.76"/>
</g>
<!-- Node8 -->
<g id="node8" class="node">
<title>Node8</title>
<g id="a_node8"><a xlink:title=" ">
<polygon fill="white" stroke="#bfbfbf" points="522,-62 522,-81 561,-81 561,-62 522,-62"/>
<text text-anchor="middle" x="541.5" y="-69" font-family="Helvetica,sans-Serif" font-size="10.00">utility</text>
</a>
</g>
</g>
<!-- Node1&#45;&gt;Node8 -->
<g id="edge7" class="edge">
<title>Node1&#45;&gt;Node8</title>
<path fill="none" stroke="midnightblue" d="M498.66,-123.48C506.24,-114.46 518.37,-100.02 527.79,-88.81"/>
<polygon fill="midnightblue" stroke="midnightblue" points="530.6,-90.92 534.35,-81.01 525.24,-86.41 530.6,-90.92"/>
</g>
<!-- Node9 -->
<g id="node9" class="node">
<title>Node9</title>
<g id="a_node9"><a xlink:title=" ">
<polygon fill="white" stroke="#bfbfbf" points="579.5,-62 579.5,-81 623.5,-81 623.5,-62 579.5,-62"/>
<text text-anchor="middle" x="601.5" y="-69" font-family="Helvetica,sans-Serif" font-size="10.00">vector</text>
</a>
</g>
</g>
<!-- Node1&#45;&gt;Node9 -->
<g id="edge8" class="edge">
<title>Node1&#45;&gt;Node9</title>
<path fill="none" stroke="midnightblue" d="M507.26,-123.48C525.48,-113.62 555.67,-97.29 576.97,-85.77"/>
<polygon fill="midnightblue" stroke="midnightblue" points="578.64,-88.85 585.77,-81.01 575.31,-82.69 578.64,-88.85"/>
</g>
<!-- Node10 -->
<g id="node10" class="node">
<title>Node10</title>
<g id="a_node10"><a xlink:title=" ">
<polygon fill="white" stroke="#bfbfbf" points="642,-62 642,-81 695,-81 695,-62 642,-62"/>
<text text-anchor="middle" x="668.5" y="-69" font-family="Helvetica,sans-Serif" font-size="10.00">json.hpp</text>
</a>
</g>
</g>
<!-- Node1&#45;&gt;Node10 -->
<g id="edge9" class="edge">
<title>Node1&#45;&gt;Node10</title>
<path fill="none" stroke="midnightblue" d="M520.33,-123.48C548.98,-114.86 594.06,-100.85 632.5,-87 634.4,-86.31 636.35,-85.59 638.31,-84.85"/>
<polygon fill="midnightblue" stroke="midnightblue" points="640,-87.95 648.04,-81.05 637.45,-81.43 640,-87.95"/>
</g>
<!-- Node11 -->
<g id="node11" class="node">
<title>Node11</title>
<g id="a_node11"><a xlink:title=" ">
<polygon fill="white" stroke="#bfbfbf" points="713,-62 713,-81 784,-81 784,-62 713,-62"/>
<text text-anchor="middle" x="748.5" y="-69" font-family="Helvetica,sans-Serif" font-size="10.00">gtest/gtest.h</text>
</a>
</g>
</g>
<!-- Node1&#45;&gt;Node11 -->
<g id="edge10" class="edge">
<title>Node1&#45;&gt;Node11</title>
<path fill="none" stroke="midnightblue" d="M538.56,-123.45C581.74,-115.26 647.33,-101.97 703.5,-87 706.85,-86.11 710.33,-85.11 713.79,-84.08"/>
<polygon fill="midnightblue" stroke="midnightblue" points="714.9,-87.4 723.41,-81.09 712.82,-80.71 714.9,-87.4"/>
</g>
<!-- Node12 -->
<g id="node12" class="node">
<title>Node12</title>
<g id="a_node12"><a xlink:href="../../d1/d13/status_8h.html" target="_top" xlink:title=" ">
<polygon fill="white" stroke="black" points="379,-56.5 379,-86.5 504,-86.5 504,-56.5 379,-56.5"/>
<text text-anchor="start" x="387" y="-74.5" font-family="Helvetica,sans-Serif" font-size="10.00">automaton/core/common</text>
<text text-anchor="middle" x="441.5" y="-63.5" font-family="Helvetica,sans-Serif" font-size="10.00">/status.h</text>
</a>
</g>
</g>
<!-- Node1&#45;&gt;Node12 -->
<g id="edge11" class="edge">
<title>Node1&#45;&gt;Node12</title>
<path fill="none" stroke="midnightblue" d="M484.34,-123.48C477.94,-115.87 468.31,-104.4 459.79,-94.26"/>
<polygon fill="midnightblue" stroke="midnightblue" points="462.4,-91.93 453.28,-86.52 457.04,-96.43 462.4,-91.93"/>
</g>
<!-- Node15 -->
<g id="node15" class="node">
<title>Node15</title>
<g id="a_node15"><a xlink:href="../../dc/dac/io_8h.html" target="_top" xlink:title=" ">
<polygon fill="white" stroke="black" points="841,-62 841,-81 954,-81 954,-62 841,-62"/>
<text text-anchor="middle" x="897.5" y="-69" font-family="Helvetica,sans-Serif" font-size="10.00">automaton/core/io/io.h</text>
</a>
</g>
</g>
<!-- Node1&#45;&gt;Node15 -->
<g id="edge15" class="edge">
<title>Node1&#45;&gt;Node15</title>
<path fill="none" stroke="midnightblue" d="M548.58,-125.53C615.4,-117.68 729.29,-103.44 826.5,-87 833.58,-85.8 841.03,-84.42 848.33,-82.99"/>
<polygon fill="midnightblue" stroke="midnightblue" points="849.04,-86.42 858.16,-81.03 847.66,-79.56 849.04,-86.42"/>
</g>
<!-- Node12&#45;&gt;Node7 -->
<g id="edge13" class="edge">
<title>Node12&#45;&gt;Node7</title>
<path fill="none" stroke="midnightblue" d="M504.01,-57.07C561.33,-44.76 643.79,-27.05 687.91,-17.57"/>
<polygon fill="midnightblue" stroke="midnightblue" points="688.7,-20.98 697.75,-15.46 687.23,-14.14 688.7,-20.98"/>
</g>
<!-- Node13 -->
<g id="node13" class="node">
<title>Node13</title>
<g id="a_node13"><a xlink:title=" ">
<polygon fill="white" stroke="#bfbfbf" points="380.5,-0.5 380.5,-19.5 432.5,-19.5 432.5,-0.5 380.5,-0.5"/>
<text text-anchor="middle" x="406.5" y="-7.5" font-family="Helvetica,sans-Serif" font-size="10.00">ostream</text>
</a>
</g>
</g>
<!-- Node12&#45;&gt;Node13 -->
<g id="edge12" class="edge">
<title>Node12&#45;&gt;Node13</title>
<path fill="none" stroke="midnightblue" d="M433.21,-56.4C428.28,-48.02 421.99,-37.33 416.75,-28.42"/>
<polygon fill="midnightblue" stroke="midnightblue" points="419.68,-26.5 411.59,-19.66 413.65,-30.05 419.68,-26.5"/>
</g>
<!-- Node14 -->
<g id="node14" class="node">
<title>Node14</title>
<g id="a_node14"><a xlink:title=" ">
<polygon fill="white" stroke="#bfbfbf" points="450.5,-0.5 450.5,-19.5 504.5,-19.5 504.5,-0.5 450.5,-0.5"/>
<text text-anchor="middle" x="477.5" y="-7.5" font-family="Helvetica,sans-Serif" font-size="10.00">iostream</text>
</a>
</g>
</g>
<!-- Node12&#45;&gt;Node14 -->
<g id="edge14" class="edge">
<title>Node12&#45;&gt;Node14</title>
<path fill="none" stroke="midnightblue" d="M450.03,-56.4C455.1,-48.02 461.57,-37.33 466.96,-28.42"/>
<polygon fill="midnightblue" stroke="midnightblue" points="470.08,-30.03 472.26,-19.66 464.09,-26.4 470.08,-30.03"/>
</g>
<!-- Node15&#45;&gt;Node7 -->
<g id="edge17" class="edge">
<title>Node15&#45;&gt;Node7</title>
<path fill="none" stroke="midnightblue" d="M871.85,-61.98C839.3,-51.15 783.23,-32.52 748.66,-21.02"/>
<polygon fill="midnightblue" stroke="midnightblue" points="749.68,-17.68 739.09,-17.84 747.48,-24.32 749.68,-17.68"/>
</g>
<!-- Node16 -->
<g id="node16" class="node">
<title>Node16</title>
<g id="a_node16"><a xlink:title=" ">
<polygon fill="white" stroke="#bfbfbf" points="874.5,-0.5 874.5,-19.5 920.5,-19.5 920.5,-0.5 874.5,-0.5"/>
<text text-anchor="middle" x="897.5" y="-7.5" font-family="Helvetica,sans-Serif" font-size="10.00">chrono</text>
</a>
</g>
</g>
<!-- Node15&#45;&gt;Node16 -->
<g id="edge16" class="edge">
<title>Node15&#45;&gt;Node16</title>
<path fill="none" stroke="midnightblue" d="M897.5,-61.98C897.5,-53.58 897.5,-40.48 897.5,-29.66"/>
<polygon fill="midnightblue" stroke="midnightblue" points="901,-29.51 897.5,-19.51 894,-29.51 901,-29.51"/>
</g>
<!-- Node17 -->
<g id="node17" class="node">
<title>Node17</title>
<g id="a_node17"><a xlink:title=" ">
<polygon fill="white" stroke="#bfbfbf" points="938.5,-0.5 938.5,-19.5 1022.5,-19.5 1022.5,-0.5 938.5,-0.5"/>
<text text-anchor="middle" x="980.5" y="-7.5" font-family="Helvetica,sans-Serif" font-size="10.00">g3log/g3log.hpp</text>
</a>
</g>
</g>
<!-- Node15&#45;&gt;Node17 -->
<g id="edge18" class="edge">
<title>Node15&#45;&gt;Node17</title>
<path fill="none" stroke="midnightblue" d="M909.39,-61.98C922.7,-52.43 944.5,-36.81 960.46,-25.37"/>
<polygon fill="midnightblue" stroke="midnightblue" points="962.54,-28.18 968.63,-19.51 958.46,-22.49 962.54,-28.18"/>
</g>
<!-- Node18 -->
<g id="node18" class="node">
<title>Node18</title>
<g id="a_node18"><a xlink:title=" ">
<polygon fill="white" stroke="#bfbfbf" points="1041,-0.5 1041,-19.5 1144,-19.5 1144,-0.5 1041,-0.5"/>
<text text-anchor="middle" x="1092.5" y="-7.5" font-family="Helvetica,sans-Serif" font-size="10.00">g3log/logworker.hpp</text>
</a>
</g>
</g>
<!-- Node15&#45;&gt;Node18 -->
<g id="edge19" class="edge">
<title>Node15&#45;&gt;Node18</title>
<path fill="none" stroke="midnightblue" d="M925.44,-61.98C959.47,-51.59 1017.08,-34.01 1054.96,-22.45"/>
<polygon fill="midnightblue" stroke="midnightblue" points="1056.07,-25.78 1064.61,-19.51 1054.03,-19.08 1056.07,-25.78"/>
</g>
<!-- Node19 -->
<g id="node19" class="node">
<title>Node19</title>
<g id="a_node19"><a xlink:title=" ">
<polygon fill="white" stroke="#bfbfbf" points="757,-0.5 757,-19.5 856,-19.5 856,-0.5 757,-0.5"/>
<text text-anchor="middle" x="806.5" y="-7.5" font-family="Helvetica,sans-Serif" font-size="10.00">g3log/loglevels.hpp</text>
</a>
</g>
</g>
<!-- Node15&#45;&gt;Node19 -->
<g id="edge20" class="edge">
<title>Node15&#45;&gt;Node19</title>
<path fill="none" stroke="midnightblue" d="M884.46,-61.98C869.73,-52.34 845.53,-36.52 827.99,-25.05"/>
<polygon fill="midnightblue" stroke="midnightblue" points="829.8,-22.05 819.51,-19.51 825.97,-27.91 829.8,-22.05"/>
</g>
</g>
</svg>
