<?xml version="1.0" encoding="UTF-8" standalone="no"?>
<!DOCTYPE svg PUBLIC "-//W3C//DTD SVG 1.1//EN"
 "http://www.w3.org/Graphics/SVG/1.1/DTD/svg11.dtd">
<!-- Generated by graphviz version 2.42.3 ()
 -->
<!-- Title: eth_helper_functions.h Pages: 1 -->
<!--zoomable 229 -->
<svg id="main" version="1.1" xmlns="http://www.w3.org/2000/svg" xmlns:xlink="http://www.w3.org/1999/xlink" xml:space="preserve" onload="init(evt)">
<style type="text/css"><![CDATA[
.edge:hover path { stroke: red; }
.edge:hover polygon { stroke: red; fill: red; }
]]></style>
<script type="text/javascript"><![CDATA[
var edges = document.getElementsByTagName('g');
if (edges && edges.length) {
  for (var i=0;i<edges.length;i++) {
    if (edges[i].id.substr(0,4)=='edge') {
      edges[i].setAttribute('class','edge');
    }
  }
}
]]></script>
        <defs>
                <circle id="rim" cx="0" cy="0" r="7"/>
                <circle id="rim2" cx="0" cy="0" r="3.5"/>
                <g id="zoomPlus">
                        <use xlink:href="#rim" fill="#404040">
                                <set attributeName="fill" to="#808080" begin="zoomplus.mouseover" end="zoomplus.mouseout"/>
                        </use>
                        <path d="M-4,0h8M0,-4v8" fill="none" stroke="white" stroke-width="1.5" pointer-events="none"/>
                </g>
                <g id="zoomMin">
                        <use xlink:href="#rim" fill="#404040">
                                <set attributeName="fill" to="#808080" begin="zoomminus.mouseover" end="zoomminus.mouseout"/>
                        </use>
                        <path d="M-4,0h8" fill="none" stroke="white" stroke-width="1.5" pointer-events="none"/>
                </g>
                <g id="dirArrow">
                        <path fill="none" stroke="white" stroke-width="1.5" d="M0,-3.0v7 M-2.5,-0.5L0,-3.0L2.5,-0.5"/>
                </g>
               <g id="resetDef">
                       <use xlink:href="#rim2" fill="#404040">
                               <set attributeName="fill" to="#808080" begin="reset.mouseover" end="reset.mouseout"/>
                       </use>
               </g>
        </defs>

<script type="text/javascript">
var viewWidth = 1519;
var viewHeight = 229;
var sectionId = 'dynsection-0';
</script>
<script xlink:href="../../svgpan.js"/>
<svg id="graph" class="graph">
<g id="viewport">
<title>eth_helper_functions.h</title>
<polygon fill="white" stroke="transparent" points="-4,4 -4,-225 1515,-225 1515,4 -4,4"/>
<!-- Node1 -->
<g id="node1" class="node">
<title>Node1</title>
<g id="a_node1"><a xlink:title=" ">
<polygon fill="#bfbfbf" stroke="black" points="439.5,-201.5 439.5,-220.5 553.5,-220.5 553.5,-201.5 439.5,-201.5"/>
<text text-anchor="middle" x="496.5" y="-208.5" font-family="Helvetica,sans-Serif" font-size="10.00">eth_helper_functions.h</text>
</a>
</g>
</g>
<!-- Node2 -->
<g id="node2" class="node">
<title>Node2</title>
<g id="a_node2"><a xlink:title=" ">
<polygon fill="white" stroke="#bfbfbf" points="0,-134.5 0,-153.5 93,-153.5 93,-134.5 0,-134.5"/>
<text text-anchor="middle" x="46.5" y="-141.5" font-family="Helvetica,sans-Serif" font-size="10.00">cryptopp/integer.h</text>
</a>
</g>
</g>
<!-- Node1&#45;&gt;Node2 -->
<g id="edge1" class="edge">
<title>Node1&#45;&gt;Node2</title>
<path fill="none" stroke="midnightblue" d="M439.2,-207.7C361.7,-203.63 219.58,-192.78 101.5,-165 93.06,-163.01 84.14,-160.13 75.99,-157.17"/>
<polygon fill="midnightblue" stroke="midnightblue" points="77.12,-153.85 66.53,-153.57 74.63,-160.4 77.12,-153.85"/>
</g>
<!-- Node3 -->
<g id="node3" class="node">
<title>Node3</title>
<g id="a_node3"><a xlink:title=" ">
<polygon fill="white" stroke="#bfbfbf" points="111,-134.5 111,-153.5 170,-153.5 170,-134.5 111,-134.5"/>
<text text-anchor="middle" x="140.5" y="-141.5" font-family="Helvetica,sans-Serif" font-size="10.00">curl/curl.h</text>
</a>
</g>
</g>
<!-- Node1&#45;&gt;Node3 -->
<g id="edge2" class="edge">
<title>Node1&#45;&gt;Node3</title>
<path fill="none" stroke="midnightblue" d="M439.41,-207.6C374.95,-203.59 267.58,-192.97 179.5,-165 174.2,-163.32 168.74,-160.96 163.65,-158.46"/>
<polygon fill="midnightblue" stroke="midnightblue" points="164.93,-155.18 154.46,-153.6 161.66,-161.37 164.93,-155.18"/>
</g>
<!-- Node4 -->
<g id="node4" class="node">
<title>Node4</title>
<g id="a_node4"><a xlink:title=" ">
<polygon fill="white" stroke="#bfbfbf" points="188.5,-134.5 188.5,-153.5 232.5,-153.5 232.5,-134.5 188.5,-134.5"/>
<text text-anchor="middle" x="210.5" y="-141.5" font-family="Helvetica,sans-Serif" font-size="10.00">cmath</text>
</a>
</g>
</g>
<!-- Node1&#45;&gt;Node4 -->
<g id="edge3" class="edge">
<title>Node1&#45;&gt;Node4</title>
<path fill="none" stroke="midnightblue" d="M439.29,-206.42C386.42,-201.61 306.47,-190.49 241.5,-165 237.59,-163.47 233.64,-161.4 229.94,-159.18"/>
<polygon fill="midnightblue" stroke="midnightblue" points="231.67,-156.13 221.39,-153.56 227.82,-161.98 231.67,-156.13"/>
</g>
<!-- Node5 -->
<g id="node5" class="node">
<title>Node5</title>
<g id="a_node5"><a xlink:title=" ">
<polygon fill="white" stroke="#bfbfbf" points="250.5,-134.5 250.5,-153.5 290.5,-153.5 290.5,-134.5 250.5,-134.5"/>
<text text-anchor="middle" x="270.5" y="-141.5" font-family="Helvetica,sans-Serif" font-size="10.00">regex</text>
</a>
</g>
</g>
<!-- Node1&#45;&gt;Node5 -->
<g id="edge4" class="edge">
<title>Node1&#45;&gt;Node5</title>
<path fill="none" stroke="midnightblue" d="M439.07,-202.76C398.77,-196.29 344.3,-184.69 299.5,-165 296.09,-163.5 292.67,-161.59 289.43,-159.54"/>
<polygon fill="midnightblue" stroke="midnightblue" points="291.15,-156.47 280.94,-153.64 287.15,-162.22 291.15,-156.47"/>
</g>
<!-- Node6 -->
<g id="node6" class="node">
<title>Node6</title>
<g id="a_node6"><a xlink:title=" ">
<polygon fill="white" stroke="#bfbfbf" points="308.5,-134.5 308.5,-153.5 360.5,-153.5 360.5,-134.5 308.5,-134.5"/>
<text text-anchor="middle" x="334.5" y="-141.5" font-family="Helvetica,sans-Serif" font-size="10.00">sstream</text>
</a>
</g>
</g>
<!-- Node1&#45;&gt;Node6 -->
<g id="edge5" class="edge">
<title>Node1&#45;&gt;Node6</title>
<path fill="none" stroke="midnightblue" d="M470.94,-201.49C446.03,-192.99 407.23,-179.17 374.5,-165 369.64,-162.9 364.52,-160.49 359.64,-158.1"/>
<polygon fill="midnightblue" stroke="midnightblue" points="361.16,-154.95 350.66,-153.59 358.02,-161.2 361.16,-154.95"/>
</g>
<!-- Node7 -->
<g id="node7" class="node">
<title>Node7</title>
<g id="a_node7"><a xlink:title=" ">
<polygon fill="white" stroke="#bfbfbf" points="909,-0.5 909,-19.5 950,-19.5 950,-0.5 909,-0.5"/>
<text text-anchor="middle" x="929.5" y="-7.5" font-family="Helvetica,sans-Serif" font-size="10.00">string</text>
</a>
</g>
</g>
<!-- Node1&#45;&gt;Node7 -->
<g id="edge6" class="edge">
<title>Node1&#45;&gt;Node7</title>
<path fill="none" stroke="midnightblue" d="M553.87,-209.53C686.63,-207.84 1006.17,-200.13 1038.5,-165 1071.31,-129.36 1065.44,-96.26 1038.5,-56 1021.19,-30.13 985.99,-19.11 960.26,-14.44"/>
<polygon fill="midnightblue" stroke="midnightblue" points="960.66,-10.96 950.23,-12.84 959.56,-17.87 960.66,-10.96"/>
</g>
<!-- Node8 -->
<g id="node8" class="node">
<title>Node8</title>
<g id="a_node8"><a xlink:title=" ">
<polygon fill="white" stroke="#bfbfbf" points="417,-134.5 417,-153.5 456,-153.5 456,-134.5 417,-134.5"/>
<text text-anchor="middle" x="436.5" y="-141.5" font-family="Helvetica,sans-Serif" font-size="10.00">utility</text>
</a>
</g>
</g>
<!-- Node1&#45;&gt;Node8 -->
<g id="edge7" class="edge">
<title>Node1&#45;&gt;Node8</title>
<path fill="none" stroke="midnightblue" d="M488.41,-201.23C478.96,-191 463.14,-173.86 451.45,-161.19"/>
<polygon fill="midnightblue" stroke="midnightblue" points="453.82,-158.6 444.46,-153.63 448.67,-163.35 453.82,-158.6"/>
</g>
<!-- Node9 -->
<g id="node9" class="node">
<title>Node9</title>
<g id="a_node9"><a xlink:title=" ">
<polygon fill="white" stroke="#bfbfbf" points="474.5,-134.5 474.5,-153.5 518.5,-153.5 518.5,-134.5 474.5,-134.5"/>
<text text-anchor="middle" x="496.5" y="-141.5" font-family="Helvetica,sans-Serif" font-size="10.00">vector</text>
</a>
</g>
</g>
<!-- Node1&#45;&gt;Node9 -->
<g id="edge8" class="edge">
<title>Node1&#45;&gt;Node9</title>
<path fill="none" stroke="midnightblue" d="M496.5,-201.23C496.5,-191.68 496.5,-176.12 496.5,-163.78"/>
<polygon fill="midnightblue" stroke="midnightblue" points="500,-163.63 496.5,-153.63 493,-163.63 500,-163.63"/>
</g>
<!-- Node10 -->
<g id="node10" class="node">
<title>Node10</title>
<g id="a_node10"><a xlink:title=" ">
<polygon fill="white" stroke="#bfbfbf" points="537,-134.5 537,-153.5 590,-153.5 590,-134.5 537,-134.5"/>
<text text-anchor="middle" x="563.5" y="-141.5" font-family="Helvetica,sans-Serif" font-size="10.00">json.hpp</text>
</a>
</g>
</g>
<!-- Node1&#45;&gt;Node10 -->
<g id="edge9" class="edge">
<title>Node1&#45;&gt;Node10</title>
<path fill="none" stroke="midnightblue" d="M505.54,-201.23C516.18,-190.9 534.08,-173.54 547.18,-160.83"/>
<polygon fill="midnightblue" stroke="midnightblue" points="549.87,-163.1 554.61,-153.63 544.99,-158.08 549.87,-163.1"/>
</g>
<!-- Node11 -->
<g id="node11" class="node">
<title>Node11</title>
<g id="a_node11"><a xlink:title=" ">
<polygon fill="white" stroke="#bfbfbf" points="608,-134.5 608,-153.5 679,-153.5 679,-134.5 608,-134.5"/>
<text text-anchor="middle" x="643.5" y="-141.5" font-family="Helvetica,sans-Serif" font-size="10.00">secp256k1.h</text>
</a>
</g>
</g>
<!-- Node1&#45;&gt;Node11 -->
<g id="edge10" class="edge">
<title>Node1&#45;&gt;Node11</title>
<path fill="none" stroke="midnightblue" d="M516.06,-201.39C536.6,-192.34 569.83,-177.7 598.5,-165 603.78,-162.66 609.4,-160.17 614.82,-157.76"/>
<polygon fill="midnightblue" stroke="midnightblue" points="616.52,-160.84 624.23,-153.58 613.68,-154.44 616.52,-160.84"/>
</g>
<!-- Node12 -->
<g id="node12" class="node">
<title>Node12</title>
<g id="a_node12"><a xlink:title=" ">
<polygon fill="white" stroke="#bfbfbf" points="697,-134.5 697,-153.5 810,-153.5 810,-134.5 697,-134.5"/>
<text text-anchor="middle" x="753.5" y="-141.5" font-family="Helvetica,sans-Serif" font-size="10.00">secp256k1_recovery.h</text>
</a>
</g>
</g>
<!-- Node1&#45;&gt;Node12 -->
<g id="edge11" class="edge">
<title>Node1&#45;&gt;Node12</title>
<path fill="none" stroke="midnightblue" d="M535.82,-201.49C574.56,-192.94 635.36,-179.03 687.5,-165 697.11,-162.41 707.44,-159.4 717.01,-156.51"/>
<polygon fill="midnightblue" stroke="midnightblue" points="718.1,-159.83 726.64,-153.56 716.05,-153.14 718.1,-159.83"/>
</g>
<!-- Node13 -->
<g id="node13" class="node">
<title>Node13</title>
<g id="a_node13"><a xlink:title=" ">
<polygon fill="white" stroke="#bfbfbf" points="828,-134.5 828,-153.5 899,-153.5 899,-134.5 828,-134.5"/>
<text text-anchor="middle" x="863.5" y="-141.5" font-family="Helvetica,sans-Serif" font-size="10.00">gtest/gtest.h</text>
</a>
</g>
</g>
<!-- Node1&#45;&gt;Node13 -->
<g id="edge12" class="edge">
<title>Node1&#45;&gt;Node13</title>
<path fill="none" stroke="midnightblue" d="M553.63,-206.84C618.78,-202.14 728,-190.88 818.5,-165 824.97,-163.15 831.72,-160.54 837.96,-157.82"/>
<polygon fill="midnightblue" stroke="midnightblue" points="839.63,-160.91 847.24,-153.55 836.7,-154.55 839.63,-160.91"/>
</g>
<!-- Node14 -->
<g id="node14" class="node">
<title>Node14</title>
<g id="a_node14"><a xlink:href="../../d1/d13/status_8h.html" target="_top" xlink:title=" ">
<polygon fill="white" stroke="black" points="544,-56.5 544,-86.5 669,-86.5 669,-56.5 544,-56.5"/>
<text text-anchor="start" x="552" y="-74.5" font-family="Helvetica,sans-Serif" font-size="10.00">automaton/core/common</text>
<text text-anchor="middle" x="606.5" y="-63.5" font-family="Helvetica,sans-Serif" font-size="10.00">/status.h</text>
</a>
</g>
</g>
<!-- Node1&#45;&gt;Node14 -->
<g id="edge13" class="edge">
<title>Node1&#45;&gt;Node14</title>
<path fill="none" stroke="midnightblue" d="M459.8,-201.35C440.67,-194.77 418.93,-183.58 407.5,-165 397.72,-149.1 396.04,-137.73 407.5,-123 423.2,-102.82 483.78,-89.4 534.02,-81.5"/>
<polygon fill="midnightblue" stroke="midnightblue" points="534.55,-84.96 543.91,-79.99 533.5,-78.04 534.55,-84.96"/>
</g>
<!-- Node17 -->
<g id="node17" class="node">
<title>Node17</title>
<g id="a_node17"><a xlink:href="../../da/d44/_keccak__256__cryptopp_8h.html" target="_top" xlink:title=" ">
<polygon fill="white" stroke="black" points="917,-123.5 917,-164.5 1030,-164.5 1030,-123.5 917,-123.5"/>
<text text-anchor="start" x="925" y="-152.5" font-family="Helvetica,sans-Serif" font-size="10.00">automaton/core/crypto</text>
<text text-anchor="start" x="925" y="-141.5" font-family="Helvetica,sans-Serif" font-size="10.00">/cryptopp/Keccak_256</text>
<text text-anchor="middle" x="973.5" y="-130.5" font-family="Helvetica,sans-Serif" font-size="10.00">_cryptopp.h</text>
</a>
</g>
</g>
<!-- Node1&#45;&gt;Node17 -->
<g id="edge17" class="edge">
<title>Node1&#45;&gt;Node17</title>
<path fill="none" stroke="midnightblue" d="M553.52,-207.1C631.41,-202.4 775.42,-191.09 906.94,-164.91"/>
<polygon fill="midnightblue" stroke="midnightblue" points="907.68,-168.33 916.79,-162.91 906.29,-161.47 907.68,-168.33"/>
</g>
<!-- Node22 -->
<g id="node22" class="node">
<title>Node22</title>
<g id="a_node22"><a xlink:href="../../dc/dac/io_8h.html" target="_top" xlink:title=" ">
<polygon fill="white" stroke="black" points="1133,-134.5 1133,-153.5 1246,-153.5 1246,-134.5 1133,-134.5"/>
<text text-anchor="middle" x="1189.5" y="-141.5" font-family="Helvetica,sans-Serif" font-size="10.00">automaton/core/io/io.h</text>
</a>
</g>
</g>
<!-- Node1&#45;&gt;Node22 -->
<g id="edge24" class="edge">
<title>Node1&#45;&gt;Node22</title>
<path fill="none" stroke="midnightblue" d="M553.9,-207.26C657.7,-201.91 883.38,-188.5 1072.5,-165 1093.14,-162.44 1115.68,-158.79 1135.43,-155.3"/>
<polygon fill="midnightblue" stroke="midnightblue" points="1136.25,-158.71 1145.47,-153.5 1135.01,-151.82 1136.25,-158.71"/>
</g>
<!-- Node14&#45;&gt;Node7 -->
<g id="edge15" class="edge">
<title>Node14&#45;&gt;Node7</title>
<path fill="none" stroke="midnightblue" d="M669.31,-57.77C672.42,-57.16 675.49,-56.57 678.5,-56 757.95,-40.88 851.83,-24.42 899.08,-16.24"/>
<polygon fill="midnightblue" stroke="midnightblue" points="899.72,-19.68 908.98,-14.53 898.53,-12.78 899.72,-19.68"/>
</g>
<!-- Node15 -->
<g id="node15" class="node">
<title>Node15</title>
<g id="a_node15"><a xlink:title=" ">
<polygon fill="white" stroke="#bfbfbf" points="580.5,-0.5 580.5,-19.5 632.5,-19.5 632.5,-0.5 580.5,-0.5"/>
<text text-anchor="middle" x="606.5" y="-7.5" font-family="Helvetica,sans-Serif" font-size="10.00">ostream</text>
</a>
</g>
</g>
<!-- Node14&#45;&gt;Node15 -->
<g id="edge14" class="edge">
<title>Node14&#45;&gt;Node15</title>
<path fill="none" stroke="midnightblue" d="M606.5,-56.4C606.5,-48.47 606.5,-38.46 606.5,-29.86"/>
<polygon fill="midnightblue" stroke="midnightblue" points="610,-29.66 606.5,-19.66 603,-29.66 610,-29.66"/>
</g>
<!-- Node16 -->
<g id="node16" class="node">
<title>Node16</title>
<g id="a_node16"><a xlink:title=" ">
<polygon fill="white" stroke="#bfbfbf" points="653.5,-0.5 653.5,-19.5 707.5,-19.5 707.5,-0.5 653.5,-0.5"/>
<text text-anchor="middle" x="680.5" y="-7.5" font-family="Helvetica,sans-Serif" font-size="10.00">iostream</text>
</a>
</g>
</g>
<!-- Node14&#45;&gt;Node16 -->
<g id="edge16" class="edge">
<title>Node14&#45;&gt;Node16</title>
<path fill="none" stroke="midnightblue" d="M624.04,-56.4C635.34,-47.31 650.04,-35.49 661.61,-26.19"/>
<polygon fill="midnightblue" stroke="midnightblue" points="664.13,-28.65 669.73,-19.66 659.75,-23.2 664.13,-28.65"/>
</g>
<!-- Node18 -->
<g id="node18" class="node">
<title>Node18</title>
<g id="a_node18"><a xlink:title=" ">
<polygon fill="white" stroke="#bfbfbf" points="935,-62 935,-81 1030,-81 1030,-62 935,-62"/>
<text text-anchor="middle" x="982.5" y="-69" font-family="Helvetica,sans-Serif" font-size="10.00">cryptopp/cryptlib.h</text>
</a>
</g>
</g>
<!-- Node17&#45;&gt;Node18 -->
<g id="edge18" class="edge">
<title>Node17&#45;&gt;Node18</title>
<path fill="none" stroke="midnightblue" d="M976.01,-123.36C977.29,-113.3 978.85,-101.1 980.12,-91.18"/>
<polygon fill="midnightblue" stroke="midnightblue" points="983.6,-91.54 981.39,-81.17 976.65,-90.65 983.6,-91.54"/>
</g>
<!-- Node19 -->
<g id="node19" class="node">
<title>Node19</title>
<g id="a_node19"><a xlink:title=" ">
<polygon fill="white" stroke="#bfbfbf" points="822,-62 822,-81 917,-81 917,-62 822,-62"/>
<text text-anchor="middle" x="869.5" y="-69" font-family="Helvetica,sans-Serif" font-size="10.00">cryptopp/keccak.h</text>
</a>
</g>
</g>
<!-- Node17&#45;&gt;Node19 -->
<g id="edge19" class="edge">
<title>Node17&#45;&gt;Node19</title>
<path fill="none" stroke="midnightblue" d="M944.53,-123.36C927.45,-111.78 906.21,-97.39 890.69,-86.87"/>
<polygon fill="midnightblue" stroke="midnightblue" points="892.54,-83.89 882.29,-81.17 888.61,-89.68 892.54,-83.89"/>
</g>
<!-- Node20 -->
<g id="node20" class="node">
<title>Node20</title>
<g id="a_node20"><a xlink:href="../../d2/dab/hash__transformation_8h.html" target="_top" xlink:title=" ">
<polygon fill="white" stroke="black" points="687.5,-56.5 687.5,-86.5 803.5,-86.5 803.5,-56.5 687.5,-56.5"/>
<text text-anchor="start" x="695.5" y="-74.5" font-family="Helvetica,sans-Serif" font-size="10.00">automaton/core/crypto</text>
<text text-anchor="middle" x="745.5" y="-63.5" font-family="Helvetica,sans-Serif" font-size="10.00">/hash_transformation.h</text>
</a>
</g>
</g>
<!-- Node17&#45;&gt;Node20 -->
<g id="edge20" class="edge">
<title>Node17&#45;&gt;Node20</title>
<path fill="none" stroke="midnightblue" d="M916.85,-125.48C881.28,-114.49 835.65,-100.38 800.43,-89.48"/>
<polygon fill="midnightblue" stroke="midnightblue" points="801.37,-86.11 790.78,-86.5 799.3,-92.8 801.37,-86.11"/>
</g>
<!-- Node20&#45;&gt;Node7 -->
<g id="edge23" class="edge">
<title>Node20&#45;&gt;Node7</title>
<path fill="none" stroke="midnightblue" d="M789.11,-56.4C822.95,-45.46 869,-30.56 898.99,-20.87"/>
<polygon fill="midnightblue" stroke="midnightblue" points="900.44,-24.08 908.88,-17.67 898.29,-17.42 900.44,-24.08"/>
</g>
<!-- Node20&#45;&gt;Node16 -->
<g id="edge21" class="edge">
<title>Node20&#45;&gt;Node16</title>
<path fill="none" stroke="midnightblue" d="M730.1,-56.4C720.26,-47.4 707.51,-35.72 697.39,-26.47"/>
<polygon fill="midnightblue" stroke="midnightblue" points="699.7,-23.83 689.96,-19.66 694.97,-28.99 699.7,-23.83"/>
</g>
<!-- Node21 -->
<g id="node21" class="node">
<title>Node21</title>
<g id="a_node21"><a xlink:title=" ">
<polygon fill="white" stroke="#bfbfbf" points="728,-0.5 728,-19.5 763,-19.5 763,-0.5 728,-0.5"/>
<text text-anchor="middle" x="745.5" y="-7.5" font-family="Helvetica,sans-Serif" font-size="10.00">map</text>
</a>
</g>
</g>
<!-- Node20&#45;&gt;Node21 -->
<g id="edge22" class="edge">
<title>Node20&#45;&gt;Node21</title>
<path fill="none" stroke="midnightblue" d="M745.5,-56.4C745.5,-48.47 745.5,-38.46 745.5,-29.86"/>
<polygon fill="midnightblue" stroke="midnightblue" points="749,-29.66 745.5,-19.66 742,-29.66 749,-29.66"/>
</g>
<!-- Node22&#45;&gt;Node7 -->
<g id="edge26" class="edge">
<title>Node22&#45;&gt;Node7</title>
<path fill="none" stroke="midnightblue" d="M1178.11,-134.37C1149.83,-112.96 1078.28,-58.95 1072.5,-56 1035.8,-37.26 989.8,-24.49 960.04,-17.47"/>
<polygon fill="midnightblue" stroke="midnightblue" points="960.76,-14.04 950.23,-15.23 959.2,-20.87 960.76,-14.04"/>
</g>
<!-- Node23 -->
<g id="node23" class="node">
<title>Node23</title>
<g id="a_node23"><a xlink:title=" ">
<polygon fill="white" stroke="#bfbfbf" points="1124.5,-62 1124.5,-81 1170.5,-81 1170.5,-62 1124.5,-62"/>
<text text-anchor="middle" x="1147.5" y="-69" font-family="Helvetica,sans-Serif" font-size="10.00">chrono</text>
</a>
</g>
</g>
<!-- Node22&#45;&gt;Node23 -->
<g id="edge25" class="edge">
<title>Node22&#45;&gt;Node23</title>
<path fill="none" stroke="midnightblue" d="M1184.35,-134.36C1177.8,-123.36 1166.33,-104.11 1157.93,-90"/>
<polygon fill="midnightblue" stroke="midnightblue" points="1160.82,-88.02 1152.69,-81.22 1154.8,-91.6 1160.82,-88.02"/>
</g>
<!-- Node24 -->
<g id="node24" class="node">
<title>Node24</title>
<g id="a_node24"><a xlink:title=" ">
<polygon fill="white" stroke="#bfbfbf" points="1188.5,-62 1188.5,-81 1272.5,-81 1272.5,-62 1188.5,-62"/>
<text text-anchor="middle" x="1230.5" y="-69" font-family="Helvetica,sans-Serif" font-size="10.00">g3log/g3log.hpp</text>
</a>
</g>
</g>
<!-- Node22&#45;&gt;Node24 -->
<g id="edge27" class="edge">
<title>Node22&#45;&gt;Node24</title>
<path fill="none" stroke="midnightblue" d="M1194.53,-134.36C1200.92,-123.36 1212.12,-104.11 1220.32,-90"/>
<polygon fill="midnightblue" stroke="midnightblue" points="1223.43,-91.62 1225.43,-81.22 1217.38,-88.1 1223.43,-91.62"/>
</g>
<!-- Node25 -->
<g id="node25" class="node">
<title>Node25</title>
<g id="a_node25"><a xlink:title=" ">
<polygon fill="white" stroke="#bfbfbf" points="1291,-62 1291,-81 1394,-81 1394,-62 1291,-62"/>
<text text-anchor="middle" x="1342.5" y="-69" font-family="Helvetica,sans-Serif" font-size="10.00">g3log/logworker.hpp</text>
</a>
</g>
</g>
<!-- Node22&#45;&gt;Node25 -->
<g id="edge28" class="edge">
<title>Node22&#45;&gt;Node25</title>
<path fill="none" stroke="midnightblue" d="M1207.96,-134.5C1234.49,-122.27 1283.63,-99.63 1314.61,-85.35"/>
<polygon fill="midnightblue" stroke="midnightblue" points="1316.36,-88.4 1323.98,-81.03 1313.43,-82.04 1316.36,-88.4"/>
</g>
<!-- Node26 -->
<g id="node26" class="node">
<title>Node26</title>
<g id="a_node26"><a xlink:title=" ">
<polygon fill="white" stroke="#bfbfbf" points="1412,-62 1412,-81 1511,-81 1511,-62 1412,-62"/>
<text text-anchor="middle" x="1461.5" y="-69" font-family="Helvetica,sans-Serif" font-size="10.00">g3log/loglevels.hpp</text>
</a>
</g>
</g>
<!-- Node22&#45;&gt;Node26 -->
<g id="edge29" class="edge">
<title>Node22&#45;&gt;Node26</title>
<path fill="none" stroke="midnightblue" d="M1222.31,-134.5C1271.53,-121.74 1364.48,-97.65 1418.88,-83.55"/>
<polygon fill="midnightblue" stroke="midnightblue" points="1419.77,-86.93 1428.57,-81.03 1418.02,-80.16 1419.77,-86.93"/>
</g>
</g>
</svg>
        <g id="navigator" transform="translate(0 0)" fill="#404254">
                <rect fill="#f2f5e9" fill-opacity="0.5" stroke="#606060" stroke-width=".5" x="0" y="0" width="60" height="60"/>
                <use id="zoomplus" xlink:href="#zoomPlus" x="17" y="9" onmousedown="handleZoom(evt,'in')"/>
                <use id="zoomminus" xlink:href="#zoomMin" x="42" y="9" onmousedown="handleZoom(evt,'out')"/>
                <use id="reset" xlink:href="#resetDef" x="30" y="36" onmousedown="handleReset()"/>
                <g id="arrowUp" xlink:href="#dirArrow" transform="translate(30 24)" onmousedown="handlePan(0,-1)">
                  <use xlink:href="#rim" fill="#404040">
                        <set attributeName="fill" to="#808080" begin="arrowUp.mouseover" end="arrowUp.mouseout"/>
                  </use>
                  <path fill="none" stroke="white" stroke-width="1.5" d="M0,-3.0v7 M-2.5,-0.5L0,-3.0L2.5,-0.5"/>
                </g>
                <g id="arrowRight" xlink:href="#dirArrow" transform="rotate(90) translate(36 -43)" onmousedown="handlePan(1,0)">
                  <use xlink:href="#rim" fill="#404040">
                        <set attributeName="fill" to="#808080" begin="arrowRight.mouseover" end="arrowRight.mouseout"/>
                  </use>
                  <path fill="none" stroke="white" stroke-width="1.5" d="M0,-3.0v7 M-2.5,-0.5L0,-3.0L2.5,-0.5"/>
                </g>
                <g id="arrowDown" xlink:href="#dirArrow" transform="rotate(180) translate(-30 -48)" onmousedown="handlePan(0,1)">
                  <use xlink:href="#rim" fill="#404040">
                        <set attributeName="fill" to="#808080" begin="arrowDown.mouseover" end="arrowDown.mouseout"/>
                  </use>
                  <path fill="none" stroke="white" stroke-width="1.5" d="M0,-3.0v7 M-2.5,-0.5L0,-3.0L2.5,-0.5"/>
                </g>
                <g id="arrowLeft" xlink:href="#dirArrow" transform="rotate(270) translate(-36 17)" onmousedown="handlePan(-1,0)">
                  <use xlink:href="#rim" fill="#404040">
                        <set attributeName="fill" to="#808080" begin="arrowLeft.mouseover" end="arrowLeft.mouseout"/>
                  </use>
                  <path fill="none" stroke="white" stroke-width="1.5" d="M0,-3.0v7 M-2.5,-0.5L0,-3.0L2.5,-0.5"/>
                </g>
        </g>
        <svg viewBox="0 0 15 15" width="100%" height="30px" preserveAspectRatio="xMaxYMin meet">
         <g id="arrow_out" transform="scale(0.3 0.3)">
          <a xlink:href="eth__helper__functions_8h__incl_org.svg" target="_base">
           <rect id="button" ry="5" rx="5" y="6" x="6" height="38" width="38"
                fill="#f2f5e9" fill-opacity="0.5" stroke="#606060" stroke-width="1.0"/>
           <path id="arrow"
             d="M 11.500037,31.436501 C 11.940474,20.09759 22.043105,11.32322 32.158766,21.979434 L 37.068811,17.246167 C 37.068811,17.246167 37.088388,32 37.088388,32 L 22.160133,31.978069 C 22.160133,31.978069 26.997745,27.140456 26.997745,27.140456 C 18.528582,18.264221 13.291696,25.230495 11.500037,31.436501 z"
             style="fill:#404040;"/>
          </a>
         </g>
        </svg>
</svg>
