<?xml version="1.0" encoding="UTF-8" standalone="no"?>
<!DOCTYPE svg PUBLIC "-//W3C//DTD SVG 1.1//EN"
 "http://www.w3.org/Graphics/SVG/1.1/DTD/svg11.dtd">
<!-- Generated by graphviz version 2.44.0 ()
 -->
<!-- Title: simulated_connection.h Pages: 1 -->
<svg width="198pt" height="84pt"
 viewBox="0.00 0.00 198.00 84.00" xmlns="http://www.w3.org/2000/svg" xmlns:xlink="http://www.w3.org/1999/xlink">
<g id="graph0" class="graph" transform="scale(1 1) rotate(0) translate(4 80)">
<title>simulated_connection.h</title>
<polygon fill="white" stroke="transparent" points="-4,4 -4,-80 194,-80 194,4 -4,4"/>
<!-- Node1 -->
<g id="node1" class="node">
<title>Node1</title>
<g id="a_node1"><a xlink:title=" ">
<polygon fill="#bfbfbf" stroke="black" points="16.5,-56.5 16.5,-75.5 135.5,-75.5 135.5,-56.5 16.5,-56.5"/>
<text text-anchor="middle" x="76" y="-63.5" font-family="Helvetica,sans-Serif" font-size="10.00">simulated_connection.h</text>
</a>
</g>
</g>
<!-- Node2 -->
<g id="node2" class="node">
<title>Node2</title>
<g id="a_node2"><a xlink:href="../../dd/de7/core_8cc.html" target="_top" xlink:title=" ">
<polygon fill="white" stroke="black" points="0,-0.5 0,-19.5 48,-19.5 48,-0.5 0,-0.5"/>
<text text-anchor="middle" x="24" y="-7.5" font-family="Helvetica,sans-Serif" font-size="10.00">core.cc</text>
</a>
</g>
</g>
<!-- Node1&#45;&gt;Node2 -->
<g id="edge1" class="edge">
<title>Node1&#45;&gt;Node2</title>
<path fill="none" stroke="midnightblue" d="M60.32,-48.72C51.16,-39.2 39.95,-27.56 32.43,-19.75"/>
<polygon fill="midnightblue" stroke="midnightblue" points="57.96,-51.31 67.41,-56.08 63,-46.45 57.96,-51.31"/>
</g>
<!-- Node3 -->
<g id="node3" class="node">
<title>Node3</title>
<g id="a_node3"><a xlink:href="../../d6/d86/simulated__connection_8cc.html" target="_top" xlink:title=" ">
<polygon fill="white" stroke="black" points="66,-0.5 66,-19.5 190,-19.5 190,-0.5 66,-0.5"/>
<text text-anchor="middle" x="128" y="-7.5" font-family="Helvetica,sans-Serif" font-size="10.00">simulated_connection.cc</text>
</a>
</g>
</g>
<!-- Node1&#45;&gt;Node3 -->
<g id="edge2" class="edge">
<title>Node1&#45;&gt;Node3</title>
<path fill="none" stroke="midnightblue" d="M91.68,-48.72C100.84,-39.2 112.05,-27.56 119.57,-19.75"/>
<polygon fill="midnightblue" stroke="midnightblue" points="89,-46.45 84.59,-56.08 94.04,-51.31 89,-46.45"/>
</g>
</g>
</svg>
