<?xml version="1.0" encoding="UTF-8" standalone="no"?>
<!DOCTYPE svg PUBLIC "-//W3C//DTD SVG 1.1//EN"
 "http://www.w3.org/Graphics/SVG/1.1/DTD/svg11.dtd">
<!-- Generated by graphviz version 2.42.3 ()
 -->
<!-- Title: automaton::core::crypto::cryptopp::secp256k1_cryptopp::sign Pages: 1 -->
<svg width="295pt" height="110pt"
 viewBox="0.00 0.00 295.00 110.00" xmlns="http://www.w3.org/2000/svg" xmlns:xlink="http://www.w3.org/1999/xlink">
<g id="graph0" class="graph" transform="scale(1 1) rotate(0) translate(4 106)">
<title>automaton::core::crypto::cryptopp::secp256k1_cryptopp::sign</title>
<polygon fill="white" stroke="transparent" points="-4,4 -4,-106 291,-106 291,4 -4,4"/>
<!-- Node1 -->
<g id="node1" class="node">
<title>Node1</title>
<g id="a_node1"><a xlink:title=" ">
<polygon fill="#bfbfbf" stroke="black" points="0,-30.5 0,-71.5 116,-71.5 116,-30.5 0,-30.5"/>
<text text-anchor="start" x="8" y="-59.5" font-family="Helvetica,sans-Serif" font-size="10.00">automaton::core::crypto</text>
<text text-anchor="start" x="8" y="-48.5" font-family="Helvetica,sans-Serif" font-size="10.00">::cryptopp::secp256k1</text>
<text text-anchor="middle" x="58" y="-37.5" font-family="Helvetica,sans-Serif" font-size="10.00">_cryptopp::sign</text>
</a>
</g>
</g>
<!-- Node2 -->
<g id="node2" class="node">
<title>Node2</title>
<g id="a_node2"><a xlink:href="../../d0/d6d/classautomaton_1_1core_1_1crypto_1_1cryptopp_1_1secp256k1__cryptopp.html#afb4645bbd045ffb56f9607eed1483c1a" target="_top" xlink:title=" ">
<polygon fill="white" stroke="black" points="152,-60.5 152,-101.5 287,-101.5 287,-60.5 152,-60.5"/>
<text text-anchor="start" x="160" y="-89.5" font-family="Helvetica,sans-Serif" font-size="10.00">automaton::core::crypto</text>
<text text-anchor="start" x="160" y="-78.5" font-family="Helvetica,sans-Serif" font-size="10.00">::cryptopp::secp256k1</text>
<text text-anchor="middle" x="219.5" y="-67.5" font-family="Helvetica,sans-Serif" font-size="10.00">_cryptopp::private_key_size</text>
</a>
</g>
</g>
<!-- Node1&#45;&gt;Node2 -->
<g id="edge1" class="edge">
<title>Node1&#45;&gt;Node2</title>
<path fill="none" stroke="midnightblue" d="M116.13,-61.75C124.58,-63.33 133.39,-64.99 142.14,-66.64"/>
<polygon fill="midnightblue" stroke="midnightblue" points="141.51,-70.08 151.99,-68.49 142.8,-63.2 141.51,-70.08"/>
</g>
<!-- Node3 -->
<g id="node3" class="node">
<title>Node3</title>
<g id="a_node3"><a xlink:href="../../d0/d6d/classautomaton_1_1core_1_1crypto_1_1cryptopp_1_1secp256k1__cryptopp.html#a83a433b88291693422d6ebaa8725d318" target="_top" xlink:title=" ">
<polygon fill="white" stroke="black" points="157,-0.5 157,-41.5 282,-41.5 282,-0.5 157,-0.5"/>
<text text-anchor="start" x="165" y="-29.5" font-family="Helvetica,sans-Serif" font-size="10.00">automaton::core::crypto</text>
<text text-anchor="start" x="165" y="-18.5" font-family="Helvetica,sans-Serif" font-size="10.00">::cryptopp::secp256k1</text>
<text text-anchor="middle" x="219.5" y="-7.5" font-family="Helvetica,sans-Serif" font-size="10.00">_cryptopp::signature_size</text>
</a>
</g>
</g>
<!-- Node1&#45;&gt;Node3 -->
<g id="edge2" class="edge">
<title>Node1&#45;&gt;Node3</title>
<path fill="none" stroke="midnightblue" d="M116.13,-40.25C126.16,-38.37 136.7,-36.38 147.06,-34.44"/>
<polygon fill="midnightblue" stroke="midnightblue" points="147.73,-37.87 156.91,-32.58 146.43,-30.99 147.73,-37.87"/>
</g>
</g>
</svg>
