<?xml version="1.0" encoding="UTF-8" standalone="no"?>
<!DOCTYPE svg PUBLIC "-//W3C//DTD SVG 1.1//EN"
 "http://www.w3.org/Graphics/SVG/1.1/DTD/svg11.dtd">
<!-- Generated by graphviz version 2.42.3 ()
 -->
<!-- Title: automaton::core::crypto::cryptopp::secp256k1_cryptopp::gen_public_key Pages: 1 -->
<svg width="309pt" height="50pt"
 viewBox="0.00 0.00 309.00 50.00" xmlns="http://www.w3.org/2000/svg" xmlns:xlink="http://www.w3.org/1999/xlink">
<g id="graph0" class="graph" transform="scale(1 1) rotate(0) translate(4 46)">
<title>automaton::core::crypto::cryptopp::secp256k1_cryptopp::gen_public_key</title>
<polygon fill="white" stroke="transparent" points="-4,4 -4,-46 305,-46 305,4 -4,4"/>
<!-- Node1 -->
<g id="node1" class="node">
<title>Node1</title>
<g id="a_node1"><a xlink:title=" ">
<polygon fill="#bfbfbf" stroke="black" points="0,-0.5 0,-41.5 130,-41.5 130,-0.5 0,-0.5"/>
<text text-anchor="start" x="8" y="-29.5" font-family="Helvetica,sans-Serif" font-size="10.00">automaton::core::crypto</text>
<text text-anchor="start" x="8" y="-18.5" font-family="Helvetica,sans-Serif" font-size="10.00">::cryptopp::secp256k1</text>
<text text-anchor="middle" x="65" y="-7.5" font-family="Helvetica,sans-Serif" font-size="10.00">_cryptopp::gen_public_key</text>
</a>
</g>
</g>
<!-- Node2 -->
<g id="node2" class="node">
<title>Node2</title>
<g id="a_node2"><a xlink:href="../../d0/d6d/classautomaton_1_1core_1_1crypto_1_1cryptopp_1_1secp256k1__cryptopp.html#afb4645bbd045ffb56f9607eed1483c1a" target="_top" xlink:title=" ">
<polygon fill="white" stroke="black" points="166,-0.5 166,-41.5 301,-41.5 301,-0.5 166,-0.5"/>
<text text-anchor="start" x="174" y="-29.5" font-family="Helvetica,sans-Serif" font-size="10.00">automaton::core::crypto</text>
<text text-anchor="start" x="174" y="-18.5" font-family="Helvetica,sans-Serif" font-size="10.00">::cryptopp::secp256k1</text>
<text text-anchor="middle" x="233.5" y="-7.5" font-family="Helvetica,sans-Serif" font-size="10.00">_cryptopp::private_key_size</text>
</a>
</g>
</g>
<!-- Node1&#45;&gt;Node2 -->
<g id="edge1" class="edge">
<title>Node1&#45;&gt;Node2</title>
<path fill="none" stroke="midnightblue" d="M130.37,-21C138.64,-21 147.16,-21 155.6,-21"/>
<polygon fill="midnightblue" stroke="midnightblue" points="155.82,-24.5 165.82,-21 155.82,-17.5 155.82,-24.5"/>
</g>
</g>
</svg>
