<?xml version="1.0" encoding="UTF-8" standalone="no"?>
<!DOCTYPE svg PUBLIC "-//W3C//DTD SVG 1.1//EN"
 "http://www.w3.org/Graphics/SVG/1.1/DTD/svg11.dtd">
<!-- Generated by graphviz version 2.44.0 ()
 -->
<!-- Title: automaton::core::crypto::cryptopp::secp256k1_cryptopp::verify Pages: 1 -->
<svg width="291pt" height="110pt"
 viewBox="0.00 0.00 291.00 110.00" xmlns="http://www.w3.org/2000/svg" xmlns:xlink="http://www.w3.org/1999/xlink">
<g id="graph0" class="graph" transform="scale(1 1) rotate(0) translate(4 106)">
<title>automaton::core::crypto::cryptopp::secp256k1_cryptopp::verify</title>
<polygon fill="white" stroke="transparent" points="-4,4 -4,-106 287,-106 287,4 -4,4"/>
<!-- Node1 -->
<g id="node1" class="node">
<title>Node1</title>
<g id="a_node1"><a xlink:title=" ">
<polygon fill="#bfbfbf" stroke="black" points="0,-30.5 0,-71.5 116,-71.5 116,-30.5 0,-30.5"/>
<text text-anchor="start" x="8" y="-59.5" font-family="Helvetica,sans-Serif" font-size="10.00">automaton::core::crypto</text>
<text text-anchor="start" x="8" y="-48.5" font-family="Helvetica,sans-Serif" font-size="10.00">::cryptopp::secp256k1</text>
<text text-anchor="middle" x="58" y="-37.5" font-family="Helvetica,sans-Serif" font-size="10.00">_cryptopp::verify</text>
</a>
</g>
</g>
<!-- Node2 -->
<g id="node2" class="node">
<title>Node2</title>
<g id="a_node2"><a xlink:href="../../d0/d6d/classautomaton_1_1core_1_1crypto_1_1cryptopp_1_1secp256k1__cryptopp.html#a2cbbb0c604bb29bbf2bed1b9660e27d6" target="_top" xlink:title=" ">
<polygon fill="white" stroke="black" points="152,-60.5 152,-101.5 283,-101.5 283,-60.5 152,-60.5"/>
<text text-anchor="start" x="160" y="-89.5" font-family="Helvetica,sans-Serif" font-size="10.00">automaton::core::crypto</text>
<text text-anchor="start" x="160" y="-78.5" font-family="Helvetica,sans-Serif" font-size="10.00">::cryptopp::secp256k1</text>
<text text-anchor="middle" x="217.5" y="-67.5" font-family="Helvetica,sans-Serif" font-size="10.00">_cryptopp::public_key_size</text>
</a>
</g>
</g>
<!-- Node1&#45;&gt;Node2 -->
<g id="edge1" class="edge">
<title>Node1&#45;&gt;Node2</title>
<path fill="none" stroke="midnightblue" d="M116.31,-61.92C124.59,-63.49 133.21,-65.14 141.77,-66.77"/>
<polygon fill="midnightblue" stroke="midnightblue" points="141.29,-70.24 151.77,-68.67 142.6,-63.36 141.29,-70.24"/>
</g>
<!-- Node3 -->
<g id="node3" class="node">
<title>Node3</title>
<g id="a_node3"><a xlink:href="../../d0/d6d/classautomaton_1_1core_1_1crypto_1_1cryptopp_1_1secp256k1__cryptopp.html#a83a433b88291693422d6ebaa8725d318" target="_top" xlink:title=" ">
<polygon fill="white" stroke="black" points="155,-0.5 155,-41.5 280,-41.5 280,-0.5 155,-0.5"/>
<text text-anchor="start" x="163" y="-29.5" font-family="Helvetica,sans-Serif" font-size="10.00">automaton::core::crypto</text>
<text text-anchor="start" x="163" y="-18.5" font-family="Helvetica,sans-Serif" font-size="10.00">::cryptopp::secp256k1</text>
<text text-anchor="middle" x="217.5" y="-7.5" font-family="Helvetica,sans-Serif" font-size="10.00">_cryptopp::signature_size</text>
</a>
</g>
</g>
<!-- Node1&#45;&gt;Node3 -->
<g id="edge2" class="edge">
<title>Node1&#45;&gt;Node3</title>
<path fill="none" stroke="midnightblue" d="M116.31,-40.08C125.64,-38.31 135.41,-36.45 145.04,-34.61"/>
<polygon fill="midnightblue" stroke="midnightblue" points="145.82,-38.03 154.99,-32.72 144.51,-31.15 145.82,-38.03"/>
</g>
</g>
</svg>
