<?xml version="1.0" encoding="UTF-8" standalone="no"?>
<!DOCTYPE svg PUBLIC "-//W3C//DTD SVG 1.1//EN"
 "http://www.w3.org/Graphics/SVG/1.1/DTD/svg11.dtd">
<!-- Generated by graphviz version 2.44.0 ()
 -->
<!-- Title: SHA256_cryptopp.h Pages: 1 -->
<svg width="214pt" height="84pt"
 viewBox="0.00 0.00 213.50 84.00" xmlns="http://www.w3.org/2000/svg" xmlns:xlink="http://www.w3.org/1999/xlink">
<g id="graph0" class="graph" transform="scale(1 1) rotate(0) translate(4 80)">
<title>SHA256_cryptopp.h</title>
<polygon fill="white" stroke="transparent" points="-4,4 -4,-80 209.5,-80 209.5,4 -4,4"/>
<!-- Node1 -->
<g id="node1" class="node">
<title>Node1</title>
<g id="a_node1"><a xlink:title=" ">
<polygon fill="#bfbfbf" stroke="black" points="58.5,-56.5 58.5,-75.5 161.5,-75.5 161.5,-56.5 58.5,-56.5"/>
<text text-anchor="middle" x="110" y="-63.5" font-family="Helvetica,sans-Serif" font-size="10.00">SHA256_cryptopp.h</text>
</a>
</g>
</g>
<!-- Node2 -->
<g id="node2" class="node">
<title>Node2</title>
<g id="a_node2"><a xlink:href="../../d1/d60/_s_h_a256__cryptopp_8cc.html" target="_top" xlink:title=" ">
<polygon fill="white" stroke="black" points="0,-0.5 0,-19.5 108,-19.5 108,-0.5 0,-0.5"/>
<text text-anchor="middle" x="54" y="-7.5" font-family="Helvetica,sans-Serif" font-size="10.00">SHA256_cryptopp.cc</text>
</a>
</g>
</g>
<!-- Node1&#45;&gt;Node2 -->
<g id="edge1" class="edge">
<title>Node1&#45;&gt;Node2</title>
<path fill="none" stroke="midnightblue" d="M93.67,-49.25C83.74,-39.67 71.41,-27.79 63.16,-19.83"/>
<polygon fill="midnightblue" stroke="midnightblue" points="91.37,-51.9 101,-56.32 96.23,-46.86 91.37,-51.9"/>
</g>
<!-- Node3 -->
<g id="node3" class="node">
<title>Node3</title>
<g id="a_node3"><a xlink:href="../../df/de4/bind__crypto_8cc.html" target="_top" xlink:title=" ">
<polygon fill="white" stroke="black" points="126.5,-0.5 126.5,-19.5 205.5,-19.5 205.5,-0.5 126.5,-0.5"/>
<text text-anchor="middle" x="166" y="-7.5" font-family="Helvetica,sans-Serif" font-size="10.00">bind_crypto.cc</text>
</a>
</g>
</g>
<!-- Node1&#45;&gt;Node3 -->
<g id="edge2" class="edge">
<title>Node1&#45;&gt;Node3</title>
<path fill="none" stroke="midnightblue" d="M126.33,-49.25C136.26,-39.67 148.59,-27.79 156.84,-19.83"/>
<polygon fill="midnightblue" stroke="midnightblue" points="123.77,-46.86 119,-56.32 128.63,-51.9 123.77,-46.86"/>
</g>
</g>
</svg>
