<?xml version="1.0" encoding="UTF-8" standalone="no"?>
<!DOCTYPE svg PUBLIC "-//W3C//DTD SVG 1.1//EN"
 "http://www.w3.org/Graphics/SVG/1.1/DTD/svg11.dtd">
<!-- Generated by graphviz version 2.44.0 ()
 -->
<!-- Title: factory.cc Pages: 1 -->
<svg width="369pt" height="285pt"
 viewBox="0.00 0.00 369.00 285.00" xmlns="http://www.w3.org/2000/svg" xmlns:xlink="http://www.w3.org/1999/xlink">
<g id="graph0" class="graph" transform="scale(1 1) rotate(0) translate(4 281)">
<title>factory.cc</title>
<polygon fill="white" stroke="transparent" points="-4,4 -4,-281 365,-281 365,4 -4,4"/>
<!-- Node1 -->
<g id="node1" class="node">
<title>Node1</title>
<g id="a_node1"><a xlink:title=" ">
<polygon fill="#bfbfbf" stroke="black" points="145,-257.5 145,-276.5 204,-276.5 204,-257.5 145,-257.5"/>
<text text-anchor="middle" x="174.5" y="-264.5" font-family="Helvetica,sans-Serif" font-size="10.00">factory.cc</text>
</a>
</g>
</g>
<!-- Node2 -->
<g id="node2" class="node">
<title>Node2</title>
<g id="a_node2"><a xlink:href="../../de/d06/factory_8h.html" target="_top" xlink:title=" ">
<polygon fill="white" stroke="black" points="121.5,-190.5 121.5,-220.5 227.5,-220.5 227.5,-190.5 121.5,-190.5"/>
<text text-anchor="start" x="129.5" y="-208.5" font-family="Helvetica,sans-Serif" font-size="10.00">automaton/core/data</text>
<text text-anchor="middle" x="174.5" y="-197.5" font-family="Helvetica,sans-Serif" font-size="10.00">/factory.h</text>
</a>
</g>
</g>
<!-- Node1&#45;&gt;Node2 -->
<g id="edge1" class="edge">
<title>Node1&#45;&gt;Node2</title>
<path fill="none" stroke="midnightblue" d="M174.5,-257.48C174.5,-250.47 174.5,-240.19 174.5,-230.7"/>
<polygon fill="midnightblue" stroke="midnightblue" points="178,-230.52 174.5,-220.52 171,-230.52 178,-230.52"/>
</g>
<!-- Node3 -->
<g id="node3" class="node">
<title>Node3</title>
<g id="a_node3"><a xlink:title=" ">
<polygon fill="white" stroke="#bfbfbf" points="0,-0.5 0,-19.5 35,-19.5 35,-0.5 0,-0.5"/>
<text text-anchor="middle" x="17.5" y="-7.5" font-family="Helvetica,sans-Serif" font-size="10.00">map</text>
</a>
</g>
</g>
<!-- Node2&#45;&gt;Node3 -->
<g id="edge2" class="edge">
<title>Node2&#45;&gt;Node3</title>
<path fill="none" stroke="midnightblue" d="M121.31,-190.66C100.09,-182.87 76.86,-171.15 60.5,-154 27.33,-119.24 19.65,-59.87 17.94,-29.73"/>
<polygon fill="midnightblue" stroke="midnightblue" points="21.44,-29.58 17.53,-19.73 14.44,-29.86 21.44,-29.58"/>
</g>
<!-- Node4 -->
<g id="node4" class="node">
<title>Node4</title>
<g id="a_node4"><a xlink:title=" ">
<polygon fill="white" stroke="#bfbfbf" points="214,-62 214,-81 265,-81 265,-62 214,-62"/>
<text text-anchor="middle" x="239.5" y="-69" font-family="Helvetica,sans-Serif" font-size="10.00">memory</text>
</a>
</g>
</g>
<!-- Node2&#45;&gt;Node4 -->
<g id="edge3" class="edge">
<title>Node2&#45;&gt;Node4</title>
<path fill="none" stroke="midnightblue" d="M200.83,-190.36C214.04,-181.74 228.83,-169.41 236.5,-154 246.34,-134.25 245.31,-108.34 243,-91.09"/>
<polygon fill="midnightblue" stroke="midnightblue" points="246.44,-90.47 241.4,-81.16 239.53,-91.59 246.44,-90.47"/>
</g>
<!-- Node5 -->
<g id="node5" class="node">
<title>Node5</title>
<g id="a_node5"><a xlink:title=" ">
<polygon fill="white" stroke="#bfbfbf" points="84,-0.5 84,-19.5 125,-19.5 125,-0.5 84,-0.5"/>
<text text-anchor="middle" x="104.5" y="-7.5" font-family="Helvetica,sans-Serif" font-size="10.00">string</text>
</a>
</g>
</g>
<!-- Node2&#45;&gt;Node5 -->
<g id="edge4" class="edge">
<title>Node2&#45;&gt;Node5</title>
<path fill="none" stroke="midnightblue" d="M146.21,-190.36C113.11,-171.91 60.56,-136.09 42.5,-87 37.74,-74.07 36.24,-68.27 42.5,-56 49.5,-42.27 62.87,-31.75 75.4,-24.35"/>
<polygon fill="midnightblue" stroke="midnightblue" points="77.17,-27.37 84.28,-19.51 73.82,-21.22 77.17,-27.37"/>
</g>
<!-- Node6 -->
<g id="node6" class="node">
<title>Node6</title>
<g id="a_node6"><a xlink:title=" ">
<polygon fill="white" stroke="#bfbfbf" points="322,-129 322,-148 361,-148 361,-129 322,-129"/>
<text text-anchor="middle" x="341.5" y="-136" font-family="Helvetica,sans-Serif" font-size="10.00">utility</text>
</a>
</g>
</g>
<!-- Node2&#45;&gt;Node6 -->
<g id="edge5" class="edge">
<title>Node2&#45;&gt;Node6</title>
<path fill="none" stroke="midnightblue" d="M212.78,-190.43C239.44,-180.52 275.77,-166.78 307.5,-154 309.1,-153.36 310.73,-152.69 312.38,-152.01"/>
<polygon fill="midnightblue" stroke="midnightblue" points="313.91,-155.16 321.78,-148.07 311.2,-148.71 313.91,-155.16"/>
</g>
<!-- Node7 -->
<g id="node7" class="node">
<title>Node7</title>
<g id="a_node7"><a xlink:title=" ">
<polygon fill="white" stroke="#bfbfbf" points="207.5,-0.5 207.5,-19.5 251.5,-19.5 251.5,-0.5 207.5,-0.5"/>
<text text-anchor="middle" x="229.5" y="-7.5" font-family="Helvetica,sans-Serif" font-size="10.00">vector</text>
</a>
</g>
</g>
<!-- Node2&#45;&gt;Node7 -->
<g id="edge6" class="edge">
<title>Node2&#45;&gt;Node7</title>
<path fill="none" stroke="midnightblue" d="M207.85,-190.46C224.08,-182.07 242.6,-169.92 254.5,-154 281.07,-118.47 290.25,-97.08 273.5,-56 268.7,-44.23 259.17,-33.86 250.21,-26.05"/>
<polygon fill="midnightblue" stroke="midnightblue" points="252.25,-23.2 242.28,-19.63 247.85,-28.64 252.25,-23.2"/>
</g>
<!-- Node8 -->
<g id="node8" class="node">
<title>Node8</title>
<g id="a_node8"><a xlink:href="../../d1/d71/msg_8h.html" target="_top" xlink:title=" ">
<polygon fill="white" stroke="black" points="121.5,-123.5 121.5,-153.5 227.5,-153.5 227.5,-123.5 121.5,-123.5"/>
<text text-anchor="start" x="129.5" y="-141.5" font-family="Helvetica,sans-Serif" font-size="10.00">automaton/core/data</text>
<text text-anchor="middle" x="174.5" y="-130.5" font-family="Helvetica,sans-Serif" font-size="10.00">/msg.h</text>
</a>
</g>
</g>
<!-- Node2&#45;&gt;Node8 -->
<g id="edge7" class="edge">
<title>Node2&#45;&gt;Node8</title>
<path fill="none" stroke="midnightblue" d="M174.5,-190.4C174.5,-182.64 174.5,-172.81 174.5,-163.86"/>
<polygon fill="midnightblue" stroke="midnightblue" points="178,-163.58 174.5,-153.58 171,-163.58 178,-163.58"/>
</g>
<!-- Node9 -->
<g id="node9" class="node">
<title>Node9</title>
<g id="a_node9"><a xlink:href="../../d7/de3/schema_8h.html" target="_top" xlink:title=" ">
<polygon fill="white" stroke="black" points="51.5,-56.5 51.5,-86.5 157.5,-86.5 157.5,-56.5 51.5,-56.5"/>
<text text-anchor="start" x="59.5" y="-74.5" font-family="Helvetica,sans-Serif" font-size="10.00">automaton/core/data</text>
<text text-anchor="middle" x="104.5" y="-63.5" font-family="Helvetica,sans-Serif" font-size="10.00">/schema.h</text>
</a>
</g>
</g>
<!-- Node2&#45;&gt;Node9 -->
<g id="edge14" class="edge">
<title>Node2&#45;&gt;Node9</title>
<path fill="none" stroke="midnightblue" d="M148.86,-190.37C135.68,-181.69 120.71,-169.29 112.5,-154 103.12,-136.53 101.59,-113.91 102.13,-96.93"/>
<polygon fill="midnightblue" stroke="midnightblue" points="105.64,-96.89 102.73,-86.7 98.66,-96.48 105.64,-96.89"/>
</g>
<!-- Node8&#45;&gt;Node4 -->
<g id="edge8" class="edge">
<title>Node8&#45;&gt;Node4</title>
<path fill="none" stroke="midnightblue" d="M188.6,-123.4C198.94,-113.06 212.98,-99.02 223.69,-88.31"/>
<polygon fill="midnightblue" stroke="midnightblue" points="226.21,-90.74 230.81,-81.19 221.26,-85.79 226.21,-90.74"/>
</g>
<!-- Node8&#45;&gt;Node5 -->
<g id="edge9" class="edge">
<title>Node8&#45;&gt;Node5</title>
<path fill="none" stroke="midnightblue" d="M176.44,-123.49C178.1,-106.37 178.59,-77.09 166.5,-56 158.78,-42.54 145.22,-32 132.75,-24.51"/>
<polygon fill="midnightblue" stroke="midnightblue" points="134.39,-21.42 123.95,-19.61 130.98,-27.54 134.39,-21.42"/>
</g>
<!-- Node8&#45;&gt;Node9 -->
<g id="edge10" class="edge">
<title>Node8&#45;&gt;Node9</title>
<path fill="none" stroke="midnightblue" d="M159.31,-123.4C149.95,-114.71 137.78,-103.4 127.29,-93.66"/>
<polygon fill="midnightblue" stroke="midnightblue" points="129.37,-90.82 119.66,-86.58 124.61,-95.95 129.37,-90.82"/>
</g>
<!-- Node9&#45;&gt;Node3 -->
<g id="edge11" class="edge">
<title>Node9&#45;&gt;Node3</title>
<path fill="none" stroke="midnightblue" d="M83.88,-56.4C70.2,-47.04 52.29,-34.79 38.52,-25.38"/>
<polygon fill="midnightblue" stroke="midnightblue" points="40.39,-22.41 30.16,-19.66 36.44,-28.19 40.39,-22.41"/>
</g>
<!-- Node9&#45;&gt;Node5 -->
<g id="edge12" class="edge">
<title>Node9&#45;&gt;Node5</title>
<path fill="none" stroke="midnightblue" d="M104.5,-56.4C104.5,-48.47 104.5,-38.46 104.5,-29.86"/>
<polygon fill="midnightblue" stroke="midnightblue" points="108,-29.66 104.5,-19.66 101,-29.66 108,-29.66"/>
</g>
<!-- Node9&#45;&gt;Node7 -->
<g id="edge13" class="edge">
<title>Node9&#45;&gt;Node7</title>
<path fill="none" stroke="midnightblue" d="M134.12,-56.4C154.72,-46.59 181.98,-33.62 202.08,-24.05"/>
<polygon fill="midnightblue" stroke="midnightblue" points="203.79,-27.12 211.31,-19.66 200.78,-20.8 203.79,-27.12"/>
</g>
</g>
</svg>
