<?xml version="1.0" encoding="UTF-8" standalone="no"?>
<!DOCTYPE svg PUBLIC "-//W3C//DTD SVG 1.1//EN"
 "http://www.w3.org/Graphics/SVG/1.1/DTD/svg11.dtd">
<!-- Generated by graphviz version 2.42.3 ()
 -->
<!-- Title: automaton::core::network::simulated_connection Pages: 1 -->
<!--zoomable 453 -->
<svg id="main" version="1.1" xmlns="http://www.w3.org/2000/svg" xmlns:xlink="http://www.w3.org/1999/xlink" xml:space="preserve" onload="init(evt)">
<style type="text/css"><![CDATA[
.edge:hover path { stroke: red; }
.edge:hover polygon { stroke: red; fill: red; }
]]></style>
<script type="text/javascript"><![CDATA[
var edges = document.getElementsByTagName('g');
if (edges && edges.length) {
  for (var i=0;i<edges.length;i++) {
    if (edges[i].id.substr(0,4)=='edge') {
      edges[i].setAttribute('class','edge');
    }
  }
}
]]></script>
        <defs>
                <circle id="rim" cx="0" cy="0" r="7"/>
                <circle id="rim2" cx="0" cy="0" r="3.5"/>
                <g id="zoomPlus">
                        <use xlink:href="#rim" fill="#404040">
                                <set attributeName="fill" to="#808080" begin="zoomplus.mouseover" end="zoomplus.mouseout"/>
                        </use>
                        <path d="M-4,0h8M0,-4v8" fill="none" stroke="white" stroke-width="1.5" pointer-events="none"/>
                </g>
                <g id="zoomMin">
                        <use xlink:href="#rim" fill="#404040">
                                <set attributeName="fill" to="#808080" begin="zoomminus.mouseover" end="zoomminus.mouseout"/>
                        </use>
                        <path d="M-4,0h8" fill="none" stroke="white" stroke-width="1.5" pointer-events="none"/>
                </g>
                <g id="dirArrow">
                        <path fill="none" stroke="white" stroke-width="1.5" d="M0,-3.0v7 M-2.5,-0.5L0,-3.0L2.5,-0.5"/>
                </g>
               <g id="resetDef">
                       <use xlink:href="#rim2" fill="#404040">
                               <set attributeName="fill" to="#808080" begin="reset.mouseover" end="reset.mouseout"/>
                       </use>
               </g>
        </defs>

<script type="text/javascript">
var viewWidth = 1101;
var viewHeight = 453;
var sectionId = 'dynsection-1';
</script>
<script xlink:href="../../svgpan.js"/>
<svg id="graph" class="graph">
<g id="viewport">
<title>automaton::core::network::simulated_connection</title>
<polygon fill="white" stroke="transparent" points="-4,4 -4,-448.86 1097,-448.86 1097,4 -4,4"/>
<!-- Node1 -->
<g id="node1" class="node">
<title>Node1</title>
<g id="a_node1"><a xlink:title=" ">
<polygon fill="#bfbfbf" stroke="black" points="968,-163.86 968,-193.86 1093,-193.86 1093,-163.86 968,-163.86"/>
<text text-anchor="start" x="976" y="-181.86" font-family="Helvetica,sans-Serif" font-size="10.00">automaton::core::network</text>
<text text-anchor="middle" x="1030.5" y="-170.86" font-family="Helvetica,sans-Serif" font-size="10.00">::simulated_connection</text>
</a>
</g>
</g>
<!-- Node2 -->
<g id="node2" class="node">
<title>Node2</title>
<g id="a_node2"><a xlink:href="../../d9/dfe/classautomaton_1_1core_1_1network_1_1connection.html" target="_top" xlink:title=" ">
<polygon fill="white" stroke="black" points="412,-344.86 412,-374.86 537,-374.86 537,-344.86 412,-344.86"/>
<text text-anchor="start" x="420" y="-362.86" font-family="Helvetica,sans-Serif" font-size="10.00">automaton::core::network</text>
<text text-anchor="middle" x="474.5" y="-351.86" font-family="Helvetica,sans-Serif" font-size="10.00">::connection</text>
</a>
</g>
</g>
<!-- Node2&#45;&gt;Node1 -->
<g id="edge1" class="edge">
<title>Node2&#45;&gt;Node1</title>
<path fill="none" stroke="midnightblue" d="M547.06,-375.78C646.19,-393.63 826.96,-410.59 950,-330.86 999.23,-298.96 1019.77,-226.14 1026.62,-194.28"/>
<polygon fill="midnightblue" stroke="midnightblue" points="547.61,-372.32 537.14,-373.94 546.33,-379.21 547.61,-372.32"/>
</g>
<!-- Node3 -->
<g id="node3" class="node">
<title>Node3</title>
<g id="a_node3"><a xlink:title=" ">
<polygon fill="white" stroke="#bfbfbf" points="175,-403.36 175,-444.36 309,-444.36 309,-403.36 175,-403.36"/>
<text text-anchor="start" x="183" y="-432.36" font-family="Helvetica,sans-Serif" font-size="10.00">std::shared_ptr&lt; automaton</text>
<text text-anchor="start" x="183" y="-421.36" font-family="Helvetica,sans-Serif" font-size="10.00">::core::network::connection</text>
<text text-anchor="middle" x="242" y="-410.36" font-family="Helvetica,sans-Serif" font-size="10.00">::connection_handler &gt;</text>
</a>
</g>
</g>
<!-- Node3&#45;&gt;Node2 -->
<g id="edge2" class="edge">
<title>Node3&#45;&gt;Node2</title>
<path fill="none" stroke="#9a32cd" stroke-dasharray="5,2" d="M319.01,-411.95C343.24,-407.31 369.99,-401.29 394,-393.86 410.35,-388.8 427.9,-381.51 442.34,-374.97"/>
<polygon fill="#9a32cd" stroke="#9a32cd" points="318.34,-408.52 309.15,-413.8 319.62,-415.4 318.34,-408.52"/>
<text text-anchor="middle" x="360.5" y="-412.86" font-family="Helvetica,sans-Serif" font-size="10.00"> handler</text>
</g>
<!-- Node4 -->
<g id="node4" class="node">
<title>Node4</title>
<g id="a_node4"><a xlink:href="../../d6/d94/classautomaton_1_1core_1_1network_1_1connection_1_1connection__handler.html" target="_top" xlink:title=" ">
<polygon fill="white" stroke="black" points="0,-403.36 0,-444.36 125,-444.36 125,-403.36 0,-403.36"/>
<text text-anchor="start" x="8" y="-432.36" font-family="Helvetica,sans-Serif" font-size="10.00">automaton::core::network</text>
<text text-anchor="start" x="8" y="-421.36" font-family="Helvetica,sans-Serif" font-size="10.00">::connection::connection</text>
<text text-anchor="middle" x="62.5" y="-410.36" font-family="Helvetica,sans-Serif" font-size="10.00">_handler</text>
</a>
</g>
</g>
<!-- Node4&#45;&gt;Node3 -->
<g id="edge3" class="edge">
<title>Node4&#45;&gt;Node3</title>
<path fill="none" stroke="#9a32cd" stroke-dasharray="5,2" d="M135.44,-423.86C148.51,-423.86 162.09,-423.86 174.99,-423.86"/>
<polygon fill="#9a32cd" stroke="#9a32cd" points="135.08,-420.36 125.08,-423.86 135.08,-427.36 135.08,-420.36"/>
<text text-anchor="middle" x="150" y="-426.86" font-family="Helvetica,sans-Serif" font-size="10.00"> ptr</text>
</g>
<!-- Node5 -->
<g id="node5" class="node">
<title>Node5</title>
<g id="a_node5"><a xlink:title=" ">
<polygon fill="white" stroke="#bfbfbf" points="216.5,-240.36 216.5,-259.36 267.5,-259.36 267.5,-240.36 216.5,-240.36"/>
<text text-anchor="middle" x="242" y="-247.36" font-family="Helvetica,sans-Serif" font-size="10.00">uint32_t</text>
</a>
</g>
</g>
<!-- Node5&#45;&gt;Node1 -->
<g id="edge19" class="edge">
<title>Node5&#45;&gt;Node1</title>
<path fill="none" stroke="#9a32cd" stroke-dasharray="5,2" d="M263.08,-265.35C279.32,-276.85 303.3,-291.57 327,-297.86 439.97,-327.86 740.57,-329.82 853,-297.86 920.9,-278.56 985.73,-221.82 1014.27,-194.25"/>
<polygon fill="#9a32cd" stroke="#9a32cd" points="265.05,-262.45 254.91,-259.37 260.91,-268.1 265.05,-262.45"/>
<text text-anchor="middle" x="617.5" y="-345.86" font-family="Helvetica,sans-Serif" font-size="10.00"> remote_connection_id</text>
<text text-anchor="middle" x="617.5" y="-334.86" font-family="Helvetica,sans-Serif" font-size="10.00">remote_address</text>
<text text-anchor="middle" x="617.5" y="-323.86" font-family="Helvetica,sans-Serif" font-size="10.00">local_connection_id</text>
</g>
<!-- Node5&#45;&gt;Node2 -->
<g id="edge4" class="edge">
<title>Node5&#45;&gt;Node2</title>
<path fill="none" stroke="#9a32cd" stroke-dasharray="5,2" d="M258.06,-266.97C273.69,-283.66 299.63,-308.56 327,-322.86 341.94,-330.67 378.79,-339.96 411.8,-347.28"/>
<polygon fill="#9a32cd" stroke="#9a32cd" points="260.59,-264.54 251.26,-259.52 255.42,-269.26 260.59,-264.54"/>
<text text-anchor="middle" x="360.5" y="-344.86" font-family="Helvetica,sans-Serif" font-size="10.00"> id</text>
</g>
<!-- Node8 -->
<g id="node8" class="node">
<title>Node8</title>
<g id="a_node8"><a xlink:href="../../df/dfc/structautomaton_1_1core_1_1network_1_1simulated__connection_1_1incoming__packet.html" target="_top" xlink:title=" ">
<polygon fill="white" stroke="black" points="412,-229.36 412,-270.36 537,-270.36 537,-229.36 412,-229.36"/>
<text text-anchor="start" x="420" y="-258.36" font-family="Helvetica,sans-Serif" font-size="10.00">automaton::core::network</text>
<text text-anchor="start" x="420" y="-247.36" font-family="Helvetica,sans-Serif" font-size="10.00">::simulated_connection</text>
<text text-anchor="middle" x="474.5" y="-236.36" font-family="Helvetica,sans-Serif" font-size="10.00">::incoming_packet</text>
</a>
</g>
</g>
<!-- Node5&#45;&gt;Node8 -->
<g id="edge8" class="edge">
<title>Node5&#45;&gt;Node8</title>
<path fill="none" stroke="#9a32cd" stroke-dasharray="5,2" d="M277.99,-249.86C313.45,-249.86 369.05,-249.86 411.9,-249.86"/>
<polygon fill="#9a32cd" stroke="#9a32cd" points="277.67,-246.36 267.67,-249.86 277.67,-253.36 277.67,-246.36"/>
<text text-anchor="middle" x="360.5" y="-285.86" font-family="Helvetica,sans-Serif" font-size="10.00"> bytes_read</text>
<text text-anchor="middle" x="360.5" y="-274.86" font-family="Helvetica,sans-Serif" font-size="10.00">buffer_size</text>
<text text-anchor="middle" x="360.5" y="-263.86" font-family="Helvetica,sans-Serif" font-size="10.00">id</text>
<text text-anchor="middle" x="360.5" y="-252.86" font-family="Helvetica,sans-Serif" font-size="10.00">expect_to_read</text>
</g>
<!-- Node12 -->
<g id="node12" class="node">
<title>Node12</title>
<g id="a_node12"><a xlink:href="../../d2/dbd/structautomaton_1_1core_1_1network_1_1simulated__connection_1_1outgoing__packet.html" target="_top" xlink:title=" ">
<polygon fill="white" stroke="black" points="412,-80.36 412,-121.36 537,-121.36 537,-80.36 412,-80.36"/>
<text text-anchor="start" x="420" y="-109.36" font-family="Helvetica,sans-Serif" font-size="10.00">automaton::core::network</text>
<text text-anchor="start" x="420" y="-98.36" font-family="Helvetica,sans-Serif" font-size="10.00">::simulated_connection</text>
<text text-anchor="middle" x="474.5" y="-87.36" font-family="Helvetica,sans-Serif" font-size="10.00">::outgoing_packet</text>
</a>
</g>
</g>
<!-- Node5&#45;&gt;Node12 -->
<g id="edge13" class="edge">
<title>Node5&#45;&gt;Node12</title>
<path fill="none" stroke="#9a32cd" stroke-dasharray="5,2" d="M252.88,-231.28C266.45,-207.52 293.1,-166.71 327,-143.86 352.17,-126.9 384.13,-116.51 411.77,-110.2"/>
<polygon fill="#9a32cd" stroke="#9a32cd" points="249.65,-229.88 247.88,-240.32 255.78,-233.26 249.65,-229.88"/>
<text text-anchor="middle" x="360.5" y="-157.86" font-family="Helvetica,sans-Serif" font-size="10.00"> bytes_send</text>
<text text-anchor="middle" x="360.5" y="-146.86" font-family="Helvetica,sans-Serif" font-size="10.00">id</text>
</g>
<!-- Node17 -->
<g id="node17" class="node">
<title>Node17</title>
<g id="a_node17"><a xlink:href="../../d6/de8/structautomaton_1_1core_1_1network_1_1connection__params.html" target="_top" xlink:title=" ">
<polygon fill="white" stroke="black" points="555,-160.86 555,-190.86 680,-190.86 680,-160.86 555,-160.86"/>
<text text-anchor="start" x="563" y="-178.86" font-family="Helvetica,sans-Serif" font-size="10.00">automaton::core::network</text>
<text text-anchor="middle" x="617.5" y="-167.86" font-family="Helvetica,sans-Serif" font-size="10.00">::connection_params</text>
</a>
</g>
</g>
<!-- Node5&#45;&gt;Node17 -->
<g id="edge21" class="edge">
<title>Node5&#45;&gt;Node17</title>
<path fill="none" stroke="#9a32cd" stroke-dasharray="5,2" d="M270.13,-235.52C286.23,-227.62 307.29,-218.34 327,-212.86 403.77,-191.53 495.46,-182.44 554.77,-178.61"/>
<polygon fill="#9a32cd" stroke="#9a32cd" points="268.16,-232.6 260.8,-240.22 271.3,-238.85 268.16,-232.6"/>
<text text-anchor="middle" x="360.5" y="-237.86" font-family="Helvetica,sans-Serif" font-size="10.00"> bandwidth</text>
<text text-anchor="middle" x="360.5" y="-226.86" font-family="Helvetica,sans-Serif" font-size="10.00">min_lag</text>
<text text-anchor="middle" x="360.5" y="-215.86" font-family="Helvetica,sans-Serif" font-size="10.00">max_lag</text>
</g>
<!-- Node6 -->
<g id="node6" class="node">
<title>Node6</title>
<g id="a_node6"><a xlink:title=" ">
<polygon fill="white" stroke="#bfbfbf" points="719,-247.36 719,-288.36 832,-288.36 832,-247.36 719,-247.36"/>
<text text-anchor="start" x="727" y="-276.36" font-family="Helvetica,sans-Serif" font-size="10.00">std::enable_shared</text>
<text text-anchor="start" x="727" y="-265.36" font-family="Helvetica,sans-Serif" font-size="10.00">_from_this&lt; simulated</text>
<text text-anchor="middle" x="775.5" y="-254.36" font-family="Helvetica,sans-Serif" font-size="10.00">_connection &gt;</text>
</a>
</g>
</g>
<!-- Node6&#45;&gt;Node1 -->
<g id="edge5" class="edge">
<title>Node6&#45;&gt;Node1</title>
<path fill="none" stroke="midnightblue" d="M842.17,-247.4C874.77,-236.96 914.64,-223.77 950,-210.86 964.26,-205.66 979.77,-199.52 993.28,-194.02"/>
<polygon fill="midnightblue" stroke="midnightblue" points="840.76,-244.18 832.29,-250.55 842.89,-250.85 840.76,-244.18"/>
</g>
<!-- Node7 -->
<g id="node7" class="node">
<title>Node7</title>
<g id="a_node7"><a xlink:title=" ">
<polygon fill="white" stroke="#bfbfbf" points="698,-187.36 698,-228.36 853,-228.36 853,-187.36 698,-187.36"/>
<text text-anchor="start" x="706" y="-216.36" font-family="Helvetica,sans-Serif" font-size="10.00">std::queue&lt; automaton</text>
<text text-anchor="start" x="706" y="-205.36" font-family="Helvetica,sans-Serif" font-size="10.00">::core::network::simulated</text>
<text text-anchor="middle" x="775.5" y="-194.36" font-family="Helvetica,sans-Serif" font-size="10.00">_connection::incoming_packet &gt;</text>
</a>
</g>
</g>
<!-- Node7&#45;&gt;Node1 -->
<g id="edge6" class="edge">
<title>Node7&#45;&gt;Node1</title>
<path fill="none" stroke="#9a32cd" stroke-dasharray="5,2" d="M863.16,-197.93C897.64,-193.98 936.5,-189.52 967.99,-185.91"/>
<polygon fill="#9a32cd" stroke="#9a32cd" points="862.63,-194.47 853.09,-199.08 863.43,-201.42 862.63,-194.47"/>
<text text-anchor="middle" x="910.5" y="-198.86" font-family="Helvetica,sans-Serif" font-size="10.00"> reading</text>
</g>
<!-- Node8&#45;&gt;Node7 -->
<g id="edge7" class="edge">
<title>Node8&#45;&gt;Node7</title>
<path fill="none" stroke="#9a32cd" stroke-dasharray="5,2" d="M547.17,-239.79C592.64,-233.41 651.43,-225.15 697.84,-218.63"/>
<polygon fill="#9a32cd" stroke="#9a32cd" points="546.51,-236.35 537.09,-241.21 547.48,-243.28 546.51,-236.35"/>
<text text-anchor="middle" x="617.5" y="-240.86" font-family="Helvetica,sans-Serif" font-size="10.00"> elements</text>
</g>
<!-- Node9 -->
<g id="node9" class="node">
<title>Node9</title>
<g id="a_node9"><a xlink:title=" ">
<polygon fill="white" stroke="#bfbfbf" points="184,-365.36 184,-384.36 300,-384.36 300,-365.36 184,-365.36"/>
<text text-anchor="middle" x="242" y="-372.36" font-family="Helvetica,sans-Serif" font-size="10.00">std::shared_ptr&lt; char &gt;</text>
</a>
</g>
</g>
<!-- Node9&#45;&gt;Node8 -->
<g id="edge9" class="edge">
<title>Node9&#45;&gt;Node8</title>
<path fill="none" stroke="#9a32cd" stroke-dasharray="5,2" d="M310.51,-378.15C337.99,-376.7 369.09,-371.3 394,-356.86 398.56,-354.22 436.82,-301.25 458.55,-270.85"/>
<polygon fill="#9a32cd" stroke="#9a32cd" points="310.04,-374.66 300.17,-378.52 310.29,-381.66 310.04,-374.66"/>
<text text-anchor="middle" x="360.5" y="-378.86" font-family="Helvetica,sans-Serif" font-size="10.00"> buffer</text>
</g>
<!-- Node10 -->
<g id="node10" class="node">
<title>Node10</title>
<g id="a_node10"><a xlink:title=" ">
<polygon fill="white" stroke="#bfbfbf" points="45,-365.36 45,-384.36 80,-384.36 80,-365.36 45,-365.36"/>
<text text-anchor="middle" x="62.5" y="-372.36" font-family="Helvetica,sans-Serif" font-size="10.00">char</text>
</a>
</g>
</g>
<!-- Node10&#45;&gt;Node9 -->
<g id="edge10" class="edge">
<title>Node10&#45;&gt;Node9</title>
<path fill="none" stroke="#9a32cd" stroke-dasharray="5,2" d="M90.28,-374.86C115.01,-374.86 152.56,-374.86 184,-374.86"/>
<polygon fill="#9a32cd" stroke="#9a32cd" points="90.2,-371.36 80.2,-374.86 90.2,-378.36 90.2,-371.36"/>
<text text-anchor="middle" x="150" y="-377.86" font-family="Helvetica,sans-Serif" font-size="10.00"> ptr</text>
</g>
<!-- Node11 -->
<g id="node11" class="node">
<title>Node11</title>
<g id="a_node11"><a xlink:title=" ">
<polygon fill="white" stroke="#bfbfbf" points="699,-80.36 699,-121.36 852,-121.36 852,-80.36 699,-80.36"/>
<text text-anchor="start" x="707" y="-109.36" font-family="Helvetica,sans-Serif" font-size="10.00">std::queue&lt; automaton</text>
<text text-anchor="start" x="707" y="-98.36" font-family="Helvetica,sans-Serif" font-size="10.00">::core::network::simulated</text>
<text text-anchor="middle" x="775.5" y="-87.36" font-family="Helvetica,sans-Serif" font-size="10.00">_connection::outgoing_packet &gt;</text>
</a>
</g>
</g>
<!-- Node11&#45;&gt;Node1 -->
<g id="edge11" class="edge">
<title>Node11&#45;&gt;Node1</title>
<path fill="none" stroke="#9a32cd" stroke-dasharray="5,2" d="M862.24,-110.72C890.72,-115.55 922.24,-122.62 950,-132.86 970.94,-140.59 992.76,-153.62 1008.22,-163.85"/>
<polygon fill="#9a32cd" stroke="#9a32cd" points="862.73,-107.25 852.3,-109.1 861.61,-114.16 862.73,-107.25"/>
<text text-anchor="middle" x="910.5" y="-135.86" font-family="Helvetica,sans-Serif" font-size="10.00"> sending</text>
</g>
<!-- Node12&#45;&gt;Node11 -->
<g id="edge12" class="edge">
<title>Node12&#45;&gt;Node11</title>
<path fill="none" stroke="#9a32cd" stroke-dasharray="5,2" d="M547.24,-100.86C593.06,-100.86 652.39,-100.86 698.93,-100.86"/>
<polygon fill="#9a32cd" stroke="#9a32cd" points="547.09,-97.36 537.09,-100.86 547.09,-104.36 547.09,-97.36"/>
<text text-anchor="middle" x="617.5" y="-103.86" font-family="Helvetica,sans-Serif" font-size="10.00"> elements</text>
</g>
<!-- Node13 -->
<g id="node13" class="node">
<title>Node13</title>
<g id="a_node13"><a xlink:title="STL class.">
<polygon fill="white" stroke="#bfbfbf" points="212.5,-60.36 212.5,-79.36 271.5,-79.36 271.5,-60.36 212.5,-60.36"/>
<text text-anchor="middle" x="242" y="-67.36" font-family="Helvetica,sans-Serif" font-size="10.00">std::string</text>
</a>
</g>
</g>
<!-- Node13&#45;&gt;Node12 -->
<g id="edge14" class="edge">
<title>Node13&#45;&gt;Node12</title>
<path fill="none" stroke="#9a32cd" stroke-dasharray="5,2" d="M281.7,-75.07C317.23,-79.84 370.48,-87.01 411.86,-92.57"/>
<polygon fill="#9a32cd" stroke="#9a32cd" points="282.1,-71.59 271.73,-73.72 281.17,-78.53 282.1,-71.59"/>
<text text-anchor="middle" x="360.5" y="-92.86" font-family="Helvetica,sans-Serif" font-size="10.00"> message</text>
</g>
<!-- Node15 -->
<g id="node15" class="node">
<title>Node15</title>
<g id="a_node15"><a xlink:title=" ">
<polygon fill="white" stroke="#bfbfbf" points="558,-13.36 558,-32.36 677,-32.36 677,-13.36 558,-13.36"/>
<text text-anchor="middle" x="617.5" y="-20.36" font-family="Helvetica,sans-Serif" font-size="10.00">std::queue&lt; std::string &gt;</text>
</a>
</g>
</g>
<!-- Node13&#45;&gt;Node15 -->
<g id="edge17" class="edge">
<title>Node13&#45;&gt;Node15</title>
<path fill="none" stroke="#9a32cd" stroke-dasharray="5,2" d="M281.61,-65C347.21,-56.75 480.78,-39.94 557.94,-30.23"/>
<polygon fill="#9a32cd" stroke="#9a32cd" points="281.17,-61.53 271.69,-66.25 282.05,-68.47 281.17,-61.53"/>
<text text-anchor="middle" x="360.5" y="-60.86" font-family="Helvetica,sans-Serif" font-size="10.00"> elements</text>
</g>
<!-- Node14 -->
<g id="node14" class="node">
<title>Node14</title>
<g id="a_node14"><a xlink:title="STL class.">
<polygon fill="white" stroke="#bfbfbf" points="16,-54.86 16,-84.86 109,-84.86 109,-54.86 16,-54.86"/>
<text text-anchor="start" x="24" y="-72.86" font-family="Helvetica,sans-Serif" font-size="10.00">std::basic_string&lt;</text>
<text text-anchor="middle" x="62.5" y="-61.86" font-family="Helvetica,sans-Serif" font-size="10.00"> char &gt;</text>
</a>
</g>
</g>
<!-- Node14&#45;&gt;Node13 -->
<g id="edge15" class="edge">
<title>Node14&#45;&gt;Node13</title>
<path fill="none" stroke="midnightblue" d="M119.42,-69.86C150.3,-69.86 187.36,-69.86 212.38,-69.86"/>
<polygon fill="midnightblue" stroke="midnightblue" points="119.21,-66.36 109.21,-69.86 119.21,-73.36 119.21,-66.36"/>
</g>
<!-- Node15&#45;&gt;Node1 -->
<g id="edge16" class="edge">
<title>Node15&#45;&gt;Node1</title>
<path fill="none" stroke="#9a32cd" stroke-dasharray="5,2" d="M668.34,-11.4C738.63,1.7 867.49,14.03 950,-47.86 990.65,-78.35 1014.9,-136.27 1024.59,-163.71"/>
<polygon fill="#9a32cd" stroke="#9a32cd" points="667.56,-7.98 658.41,-13.32 668.89,-14.85 667.56,-7.98"/>
<text text-anchor="middle" x="775.5" y="-10.86" font-family="Helvetica,sans-Serif" font-size="10.00"> receive_buffer</text>
</g>
<!-- Node16 -->
<g id="node16" class="node">
<title>Node16</title>
<g id="a_node16"><a xlink:title="STL class.">
<polygon fill="white" stroke="#bfbfbf" points="745,-42.36 745,-61.36 806,-61.36 806,-42.36 745,-42.36"/>
<text text-anchor="middle" x="775.5" y="-49.36" font-family="Helvetica,sans-Serif" font-size="10.00">std::mutex</text>
</a>
</g>
</g>
<!-- Node16&#45;&gt;Node1 -->
<g id="edge18" class="edge">
<title>Node16&#45;&gt;Node1</title>
<path fill="none" stroke="#9a32cd" stroke-dasharray="5,2" d="M816.71,-49.09C853.77,-48.38 909.06,-52.12 950,-75.86 985.76,-96.6 1011.02,-140.32 1022.52,-163.57"/>
<polygon fill="#9a32cd" stroke="#9a32cd" points="816.19,-45.6 806.3,-49.41 816.41,-52.6 816.19,-45.6"/>
<text text-anchor="middle" x="910.5" y="-100.86" font-family="Helvetica,sans-Serif" font-size="10.00"> sending_q_mutex</text>
<text text-anchor="middle" x="910.5" y="-89.86" font-family="Helvetica,sans-Serif" font-size="10.00">recv_buf_mutex</text>
<text text-anchor="middle" x="910.5" y="-78.86" font-family="Helvetica,sans-Serif" font-size="10.00">reading_q_mutex</text>
</g>
<!-- Node17&#45;&gt;Node1 -->
<g id="edge20" class="edge">
<title>Node17&#45;&gt;Node1</title>
<path fill="none" stroke="#9a32cd" stroke-dasharray="5,2" d="M690.24,-167.36C692.86,-167.17 695.45,-167 698,-166.86 792.01,-161.56 901.16,-167.92 967.76,-173.22"/>
<polygon fill="#9a32cd" stroke="#9a32cd" points="689.75,-163.89 680.07,-168.2 690.32,-170.87 689.75,-163.89"/>
<text text-anchor="middle" x="775.5" y="-169.86" font-family="Helvetica,sans-Serif" font-size="10.00"> parameters</text>
</g>
</g>
</svg>
        <g id="navigator" transform="translate(0 0)" fill="#404254">
                <rect fill="#f2f5e9" fill-opacity="0.5" stroke="#606060" stroke-width=".5" x="0" y="0" width="60" height="60"/>
                <use id="zoomplus" xlink:href="#zoomPlus" x="17" y="9" onmousedown="handleZoom(evt,'in')"/>
                <use id="zoomminus" xlink:href="#zoomMin" x="42" y="9" onmousedown="handleZoom(evt,'out')"/>
                <use id="reset" xlink:href="#resetDef" x="30" y="36" onmousedown="handleReset()"/>
                <g id="arrowUp" xlink:href="#dirArrow" transform="translate(30 24)" onmousedown="handlePan(0,-1)">
                  <use xlink:href="#rim" fill="#404040">
                        <set attributeName="fill" to="#808080" begin="arrowUp.mouseover" end="arrowUp.mouseout"/>
                  </use>
                  <path fill="none" stroke="white" stroke-width="1.5" d="M0,-3.0v7 M-2.5,-0.5L0,-3.0L2.5,-0.5"/>
                </g>
                <g id="arrowRight" xlink:href="#dirArrow" transform="rotate(90) translate(36 -43)" onmousedown="handlePan(1,0)">
                  <use xlink:href="#rim" fill="#404040">
                        <set attributeName="fill" to="#808080" begin="arrowRight.mouseover" end="arrowRight.mouseout"/>
                  </use>
                  <path fill="none" stroke="white" stroke-width="1.5" d="M0,-3.0v7 M-2.5,-0.5L0,-3.0L2.5,-0.5"/>
                </g>
                <g id="arrowDown" xlink:href="#dirArrow" transform="rotate(180) translate(-30 -48)" onmousedown="handlePan(0,1)">
                  <use xlink:href="#rim" fill="#404040">
                        <set attributeName="fill" to="#808080" begin="arrowDown.mouseover" end="arrowDown.mouseout"/>
                  </use>
                  <path fill="none" stroke="white" stroke-width="1.5" d="M0,-3.0v7 M-2.5,-0.5L0,-3.0L2.5,-0.5"/>
                </g>
                <g id="arrowLeft" xlink:href="#dirArrow" transform="rotate(270) translate(-36 17)" onmousedown="handlePan(-1,0)">
                  <use xlink:href="#rim" fill="#404040">
                        <set attributeName="fill" to="#808080" begin="arrowLeft.mouseover" end="arrowLeft.mouseout"/>
                  </use>
                  <path fill="none" stroke="white" stroke-width="1.5" d="M0,-3.0v7 M-2.5,-0.5L0,-3.0L2.5,-0.5"/>
                </g>
        </g>
        <svg viewBox="0 0 15 15" width="100%" height="30px" preserveAspectRatio="xMaxYMin meet">
         <g id="arrow_out" transform="scale(0.3 0.3)">
          <a xlink:href="classautomaton_1_1core_1_1network_1_1simulated__connection__coll__graph_org.svg" target="_base">
           <rect id="button" ry="5" rx="5" y="6" x="6" height="38" width="38"
                fill="#f2f5e9" fill-opacity="0.5" stroke="#606060" stroke-width="1.0"/>
           <path id="arrow"
             d="M 11.500037,31.436501 C 11.940474,20.09759 22.043105,11.32322 32.158766,21.979434 L 37.068811,17.246167 C 37.068811,17.246167 37.088388,32 37.088388,32 L 22.160133,31.978069 C 22.160133,31.978069 26.997745,27.140456 26.997745,27.140456 C 18.528582,18.264221 13.291696,25.230495 11.500037,31.436501 z"
             style="fill:#404040;"/>
          </a>
         </g>
        </svg>
</svg>
