<?xml version="1.0" encoding="UTF-8" standalone="no"?>
<!DOCTYPE svg PUBLIC "-//W3C//DTD SVG 1.1//EN"
 "http://www.w3.org/Graphics/SVG/1.1/DTD/svg11.dtd">
<!-- Generated by graphviz version 2.44.0 ()
 -->
<!-- Title: automaton::core::network::simulated_connection Pages: 1 -->
<svg width="1098pt" height="453pt"
 viewBox="0.00 0.00 1098.00 452.71" xmlns="http://www.w3.org/2000/svg" xmlns:xlink="http://www.w3.org/1999/xlink">
<g id="graph0" class="graph" transform="scale(1 1) rotate(0) translate(4 448.71)">
<title>automaton::core::network::simulated_connection</title>
<polygon fill="white" stroke="transparent" points="-4,4 -4,-448.71 1094,-448.71 1094,4 -4,4"/>
<!-- Node1 -->
<g id="node1" class="node">
<title>Node1</title>
<g id="a_node1"><a xlink:title=" ">
<polygon fill="#bfbfbf" stroke="black" points="965,-163.71 965,-193.71 1090,-193.71 1090,-163.71 965,-163.71"/>
<text text-anchor="start" x="973" y="-181.71" font-family="Helvetica,sans-Serif" font-size="10.00">automaton::core::network</text>
<text text-anchor="middle" x="1027.5" y="-170.71" font-family="Helvetica,sans-Serif" font-size="10.00">::simulated_connection</text>
</a>
</g>
</g>
<!-- Node2 -->
<g id="node2" class="node">
<title>Node2</title>
<g id="a_node2"><a xlink:href="../../d9/dfe/classautomaton_1_1core_1_1network_1_1connection.html" target="_top" xlink:title=" ">
<polygon fill="white" stroke="black" points="412,-344.71 412,-374.71 537,-374.71 537,-344.71 412,-344.71"/>
<text text-anchor="start" x="420" y="-362.71" font-family="Helvetica,sans-Serif" font-size="10.00">automaton::core::network</text>
<text text-anchor="middle" x="474.5" y="-351.71" font-family="Helvetica,sans-Serif" font-size="10.00">::connection</text>
</a>
</g>
</g>
<!-- Node2&#45;&gt;Node1 -->
<g id="edge1" class="edge">
<title>Node2&#45;&gt;Node1</title>
<path fill="none" stroke="midnightblue" d="M547.01,-375.57C645.6,-393.24 824.91,-409.86 947,-330.71 996.23,-298.8 1016.77,-225.99 1023.62,-194.13"/>
<polygon fill="midnightblue" stroke="midnightblue" points="547.61,-372.12 537.15,-373.75 546.34,-379.01 547.61,-372.12"/>
</g>
<!-- Node3 -->
<g id="node3" class="node">
<title>Node3</title>
<g id="a_node3"><a xlink:title=" ">
<polygon fill="white" stroke="#bfbfbf" points="175,-403.21 175,-444.21 309,-444.21 309,-403.21 175,-403.21"/>
<text text-anchor="start" x="183" y="-432.21" font-family="Helvetica,sans-Serif" font-size="10.00">std::shared_ptr&lt; automaton</text>
<text text-anchor="start" x="183" y="-421.21" font-family="Helvetica,sans-Serif" font-size="10.00">::core::network::connection</text>
<text text-anchor="middle" x="242" y="-410.21" font-family="Helvetica,sans-Serif" font-size="10.00">::connection_handler &gt;</text>
</a>
</g>
</g>
<!-- Node3&#45;&gt;Node2 -->
<g id="edge2" class="edge">
<title>Node3&#45;&gt;Node2</title>
<path fill="none" stroke="#9a32cd" stroke-dasharray="5,2" d="M319.01,-411.81C343.24,-407.16 369.99,-401.14 394,-393.71 410.35,-388.65 427.9,-381.36 442.34,-374.82"/>
<polygon fill="#9a32cd" stroke="#9a32cd" points="318.34,-408.37 309.15,-413.65 319.62,-415.25 318.34,-408.37"/>
<text text-anchor="middle" x="360.5" y="-412.71" font-family="Helvetica,sans-Serif" font-size="10.00"> handler</text>
</g>
<!-- Node4 -->
<g id="node4" class="node">
<title>Node4</title>
<g id="a_node4"><a xlink:href="../../d6/d94/classautomaton_1_1core_1_1network_1_1connection_1_1connection__handler.html" target="_top" xlink:title=" ">
<polygon fill="white" stroke="black" points="0,-403.21 0,-444.21 125,-444.21 125,-403.21 0,-403.21"/>
<text text-anchor="start" x="8" y="-432.21" font-family="Helvetica,sans-Serif" font-size="10.00">automaton::core::network</text>
<text text-anchor="start" x="8" y="-421.21" font-family="Helvetica,sans-Serif" font-size="10.00">::connection::connection</text>
<text text-anchor="middle" x="62.5" y="-410.21" font-family="Helvetica,sans-Serif" font-size="10.00">_handler</text>
</a>
</g>
</g>
<!-- Node4&#45;&gt;Node3 -->
<g id="edge3" class="edge">
<title>Node4&#45;&gt;Node3</title>
<path fill="none" stroke="#9a32cd" stroke-dasharray="5,2" d="M135.44,-423.71C148.51,-423.71 162.09,-423.71 174.99,-423.71"/>
<polygon fill="#9a32cd" stroke="#9a32cd" points="135.08,-420.21 125.08,-423.71 135.08,-427.21 135.08,-420.21"/>
<text text-anchor="middle" x="150" y="-426.71" font-family="Helvetica,sans-Serif" font-size="10.00"> ptr</text>
</g>
<!-- Node5 -->
<g id="node5" class="node">
<title>Node5</title>
<g id="a_node5"><a xlink:title=" ">
<polygon fill="white" stroke="#bfbfbf" points="216.5,-240.21 216.5,-259.21 267.5,-259.21 267.5,-240.21 216.5,-240.21"/>
<text text-anchor="middle" x="242" y="-247.21" font-family="Helvetica,sans-Serif" font-size="10.00">uint32_t</text>
</a>
</g>
</g>
<!-- Node5&#45;&gt;Node1 -->
<g id="edge19" class="edge">
<title>Node5&#45;&gt;Node1</title>
<path fill="none" stroke="#9a32cd" stroke-dasharray="5,2" d="M263.08,-265.21C279.32,-276.7 303.3,-291.42 327,-297.71 439.97,-327.72 740.8,-330.47 853,-297.71 919.97,-278.16 983.59,-221.54 1011.58,-194.05"/>
<polygon fill="#9a32cd" stroke="#9a32cd" points="265.05,-262.31 254.91,-259.23 260.91,-267.96 265.05,-262.31"/>
<text text-anchor="middle" x="617.5" y="-345.71" font-family="Helvetica,sans-Serif" font-size="10.00"> local_connection_id</text>
<text text-anchor="middle" x="617.5" y="-334.71" font-family="Helvetica,sans-Serif" font-size="10.00">remote_address</text>
<text text-anchor="middle" x="617.5" y="-323.71" font-family="Helvetica,sans-Serif" font-size="10.00">remote_connection_id</text>
</g>
<!-- Node5&#45;&gt;Node2 -->
<g id="edge4" class="edge">
<title>Node5&#45;&gt;Node2</title>
<path fill="none" stroke="#9a32cd" stroke-dasharray="5,2" d="M258.06,-266.82C273.69,-283.51 299.63,-308.41 327,-322.71 341.94,-330.52 378.79,-339.81 411.8,-347.13"/>
<polygon fill="#9a32cd" stroke="#9a32cd" points="260.59,-264.4 251.26,-259.37 255.42,-269.12 260.59,-264.4"/>
<text text-anchor="middle" x="360.5" y="-344.71" font-family="Helvetica,sans-Serif" font-size="10.00"> id</text>
</g>
<!-- Node8 -->
<g id="node8" class="node">
<title>Node8</title>
<g id="a_node8"><a xlink:href="../../df/dfc/structautomaton_1_1core_1_1network_1_1simulated__connection_1_1incoming__packet.html" target="_top" xlink:title=" ">
<polygon fill="white" stroke="black" points="412,-229.21 412,-270.21 537,-270.21 537,-229.21 412,-229.21"/>
<text text-anchor="start" x="420" y="-258.21" font-family="Helvetica,sans-Serif" font-size="10.00">automaton::core::network</text>
<text text-anchor="start" x="420" y="-247.21" font-family="Helvetica,sans-Serif" font-size="10.00">::simulated_connection</text>
<text text-anchor="middle" x="474.5" y="-236.21" font-family="Helvetica,sans-Serif" font-size="10.00">::incoming_packet</text>
</a>
</g>
</g>
<!-- Node5&#45;&gt;Node8 -->
<g id="edge8" class="edge">
<title>Node5&#45;&gt;Node8</title>
<path fill="none" stroke="#9a32cd" stroke-dasharray="5,2" d="M277.99,-249.71C313.45,-249.71 369.05,-249.71 411.9,-249.71"/>
<polygon fill="#9a32cd" stroke="#9a32cd" points="277.67,-246.21 267.67,-249.71 277.67,-253.21 277.67,-246.21"/>
<text text-anchor="middle" x="360.5" y="-285.71" font-family="Helvetica,sans-Serif" font-size="10.00"> buffer_size</text>
<text text-anchor="middle" x="360.5" y="-274.71" font-family="Helvetica,sans-Serif" font-size="10.00">bytes_read</text>
<text text-anchor="middle" x="360.5" y="-263.71" font-family="Helvetica,sans-Serif" font-size="10.00">expect_to_read</text>
<text text-anchor="middle" x="360.5" y="-252.71" font-family="Helvetica,sans-Serif" font-size="10.00">id</text>
</g>
<!-- Node12 -->
<g id="node12" class="node">
<title>Node12</title>
<g id="a_node12"><a xlink:href="../../d2/dbd/structautomaton_1_1core_1_1network_1_1simulated__connection_1_1outgoing__packet.html" target="_top" xlink:title=" ">
<polygon fill="white" stroke="black" points="412,-80.21 412,-121.21 537,-121.21 537,-80.21 412,-80.21"/>
<text text-anchor="start" x="420" y="-109.21" font-family="Helvetica,sans-Serif" font-size="10.00">automaton::core::network</text>
<text text-anchor="start" x="420" y="-98.21" font-family="Helvetica,sans-Serif" font-size="10.00">::simulated_connection</text>
<text text-anchor="middle" x="474.5" y="-87.21" font-family="Helvetica,sans-Serif" font-size="10.00">::outgoing_packet</text>
</a>
</g>
</g>
<!-- Node5&#45;&gt;Node12 -->
<g id="edge13" class="edge">
<title>Node5&#45;&gt;Node12</title>
<path fill="none" stroke="#9a32cd" stroke-dasharray="5,2" d="M252.88,-231.13C266.45,-207.37 293.1,-166.57 327,-143.71 352.17,-126.75 384.13,-116.36 411.77,-110.05"/>
<polygon fill="#9a32cd" stroke="#9a32cd" points="249.65,-229.73 247.88,-240.17 255.78,-233.12 249.65,-229.73"/>
<text text-anchor="middle" x="360.5" y="-157.71" font-family="Helvetica,sans-Serif" font-size="10.00"> bytes_send</text>
<text text-anchor="middle" x="360.5" y="-146.71" font-family="Helvetica,sans-Serif" font-size="10.00">id</text>
</g>
<!-- Node17 -->
<g id="node17" class="node">
<title>Node17</title>
<g id="a_node17"><a xlink:href="../../d6/de8/structautomaton_1_1core_1_1network_1_1connection__params.html" target="_top" xlink:title=" ">
<polygon fill="white" stroke="black" points="555,-160.71 555,-190.71 680,-190.71 680,-160.71 555,-160.71"/>
<text text-anchor="start" x="563" y="-178.71" font-family="Helvetica,sans-Serif" font-size="10.00">automaton::core::network</text>
<text text-anchor="middle" x="617.5" y="-167.71" font-family="Helvetica,sans-Serif" font-size="10.00">::connection_params</text>
</a>
</g>
</g>
<!-- Node5&#45;&gt;Node17 -->
<g id="edge21" class="edge">
<title>Node5&#45;&gt;Node17</title>
<path fill="none" stroke="#9a32cd" stroke-dasharray="5,2" d="M270.13,-235.38C286.23,-227.48 307.29,-218.19 327,-212.71 403.77,-191.38 495.46,-182.3 554.77,-178.46"/>
<polygon fill="#9a32cd" stroke="#9a32cd" points="268.16,-232.45 260.8,-240.07 271.3,-238.7 268.16,-232.45"/>
<text text-anchor="middle" x="360.5" y="-237.71" font-family="Helvetica,sans-Serif" font-size="10.00"> bandwidth</text>
<text text-anchor="middle" x="360.5" y="-226.71" font-family="Helvetica,sans-Serif" font-size="10.00">max_lag</text>
<text text-anchor="middle" x="360.5" y="-215.71" font-family="Helvetica,sans-Serif" font-size="10.00">min_lag</text>
</g>
<!-- Node6 -->
<g id="node6" class="node">
<title>Node6</title>
<g id="a_node6"><a xlink:title=" ">
<polygon fill="white" stroke="#bfbfbf" points="719,-247.21 719,-288.21 832,-288.21 832,-247.21 719,-247.21"/>
<text text-anchor="start" x="727" y="-276.21" font-family="Helvetica,sans-Serif" font-size="10.00">std::enable_shared</text>
<text text-anchor="start" x="727" y="-265.21" font-family="Helvetica,sans-Serif" font-size="10.00">_from_this&lt; simulated</text>
<text text-anchor="middle" x="775.5" y="-254.21" font-family="Helvetica,sans-Serif" font-size="10.00">_connection &gt;</text>
</a>
</g>
</g>
<!-- Node6&#45;&gt;Node1 -->
<g id="edge5" class="edge">
<title>Node6&#45;&gt;Node1</title>
<path fill="none" stroke="midnightblue" d="M841.74,-246.92C873.64,-236.5 912.49,-223.41 947,-210.71 961.24,-205.47 976.76,-199.33 990.27,-193.83"/>
<polygon fill="midnightblue" stroke="midnightblue" points="840.5,-243.64 832.08,-250.07 842.67,-250.3 840.5,-243.64"/>
</g>
<!-- Node7 -->
<g id="node7" class="node">
<title>Node7</title>
<g id="a_node7"><a xlink:title=" ">
<polygon fill="white" stroke="#bfbfbf" points="698,-187.21 698,-228.21 853,-228.21 853,-187.21 698,-187.21"/>
<text text-anchor="start" x="706" y="-216.21" font-family="Helvetica,sans-Serif" font-size="10.00">std::queue&lt; automaton</text>
<text text-anchor="start" x="706" y="-205.21" font-family="Helvetica,sans-Serif" font-size="10.00">::core::network::simulated</text>
<text text-anchor="middle" x="775.5" y="-194.21" font-family="Helvetica,sans-Serif" font-size="10.00">_connection::incoming_packet &gt;</text>
</a>
</g>
</g>
<!-- Node7&#45;&gt;Node1 -->
<g id="edge6" class="edge">
<title>Node7&#45;&gt;Node1</title>
<path fill="none" stroke="#9a32cd" stroke-dasharray="5,2" d="M863.45,-197.63C896.92,-193.74 934.41,-189.4 965,-185.85"/>
<polygon fill="#9a32cd" stroke="#9a32cd" points="862.74,-194.19 853.21,-198.82 863.54,-201.14 862.74,-194.19"/>
<text text-anchor="middle" x="909" y="-198.71" font-family="Helvetica,sans-Serif" font-size="10.00"> reading</text>
</g>
<!-- Node8&#45;&gt;Node7 -->
<g id="edge7" class="edge">
<title>Node8&#45;&gt;Node7</title>
<path fill="none" stroke="#9a32cd" stroke-dasharray="5,2" d="M547.17,-239.65C592.64,-233.26 651.43,-225 697.84,-218.48"/>
<polygon fill="#9a32cd" stroke="#9a32cd" points="546.51,-236.2 537.09,-241.06 547.48,-243.14 546.51,-236.2"/>
<text text-anchor="middle" x="617.5" y="-240.71" font-family="Helvetica,sans-Serif" font-size="10.00"> elements</text>
</g>
<!-- Node9 -->
<g id="node9" class="node">
<title>Node9</title>
<g id="a_node9"><a xlink:title=" ">
<polygon fill="white" stroke="#bfbfbf" points="184,-365.21 184,-384.21 300,-384.21 300,-365.21 184,-365.21"/>
<text text-anchor="middle" x="242" y="-372.21" font-family="Helvetica,sans-Serif" font-size="10.00">std::shared_ptr&lt; char &gt;</text>
</a>
</g>
</g>
<!-- Node9&#45;&gt;Node8 -->
<g id="edge9" class="edge">
<title>Node9&#45;&gt;Node8</title>
<path fill="none" stroke="#9a32cd" stroke-dasharray="5,2" d="M310.51,-378C337.99,-376.55 369.09,-371.15 394,-356.71 398.56,-354.07 436.82,-301.11 458.55,-270.7"/>
<polygon fill="#9a32cd" stroke="#9a32cd" points="310.04,-374.51 300.17,-378.37 310.29,-381.51 310.04,-374.51"/>
<text text-anchor="middle" x="360.5" y="-378.71" font-family="Helvetica,sans-Serif" font-size="10.00"> buffer</text>
</g>
<!-- Node10 -->
<g id="node10" class="node">
<title>Node10</title>
<g id="a_node10"><a xlink:title=" ">
<polygon fill="white" stroke="#bfbfbf" points="45,-365.21 45,-384.21 80,-384.21 80,-365.21 45,-365.21"/>
<text text-anchor="middle" x="62.5" y="-372.21" font-family="Helvetica,sans-Serif" font-size="10.00">char</text>
</a>
</g>
</g>
<!-- Node10&#45;&gt;Node9 -->
<g id="edge10" class="edge">
<title>Node10&#45;&gt;Node9</title>
<path fill="none" stroke="#9a32cd" stroke-dasharray="5,2" d="M90.28,-374.71C115.01,-374.71 152.56,-374.71 184,-374.71"/>
<polygon fill="#9a32cd" stroke="#9a32cd" points="90.2,-371.21 80.2,-374.71 90.2,-378.21 90.2,-371.21"/>
<text text-anchor="middle" x="150" y="-377.71" font-family="Helvetica,sans-Serif" font-size="10.00"> ptr</text>
</g>
<!-- Node11 -->
<g id="node11" class="node">
<title>Node11</title>
<g id="a_node11"><a xlink:title=" ">
<polygon fill="white" stroke="#bfbfbf" points="699,-80.21 699,-121.21 852,-121.21 852,-80.21 699,-80.21"/>
<text text-anchor="start" x="707" y="-109.21" font-family="Helvetica,sans-Serif" font-size="10.00">std::queue&lt; automaton</text>
<text text-anchor="start" x="707" y="-98.21" font-family="Helvetica,sans-Serif" font-size="10.00">::core::network::simulated</text>
<text text-anchor="middle" x="775.5" y="-87.21" font-family="Helvetica,sans-Serif" font-size="10.00">_connection::outgoing_packet &gt;</text>
</a>
</g>
</g>
<!-- Node11&#45;&gt;Node1 -->
<g id="edge11" class="edge">
<title>Node11&#45;&gt;Node1</title>
<path fill="none" stroke="#9a32cd" stroke-dasharray="5,2" d="M862.28,-110.98C889.87,-115.82 920.21,-122.78 947,-132.71 967.78,-140.42 989.43,-153.32 1004.88,-163.5"/>
<polygon fill="#9a32cd" stroke="#9a32cd" points="862.7,-107.51 852.26,-109.3 861.54,-114.41 862.7,-107.51"/>
<text text-anchor="middle" x="909" y="-135.71" font-family="Helvetica,sans-Serif" font-size="10.00"> sending</text>
</g>
<!-- Node12&#45;&gt;Node11 -->
<g id="edge12" class="edge">
<title>Node12&#45;&gt;Node11</title>
<path fill="none" stroke="#9a32cd" stroke-dasharray="5,2" d="M547.24,-100.71C593.06,-100.71 652.39,-100.71 698.93,-100.71"/>
<polygon fill="#9a32cd" stroke="#9a32cd" points="547.09,-97.21 537.09,-100.71 547.09,-104.21 547.09,-97.21"/>
<text text-anchor="middle" x="617.5" y="-103.71" font-family="Helvetica,sans-Serif" font-size="10.00"> elements</text>
</g>
<!-- Node13 -->
<g id="node13" class="node">
<title>Node13</title>
<g id="a_node13"><a xlink:title="STL class.">
<polygon fill="white" stroke="#bfbfbf" points="212.5,-60.21 212.5,-79.21 271.5,-79.21 271.5,-60.21 212.5,-60.21"/>
<text text-anchor="middle" x="242" y="-67.21" font-family="Helvetica,sans-Serif" font-size="10.00">std::string</text>
</a>
</g>
</g>
<!-- Node13&#45;&gt;Node12 -->
<g id="edge14" class="edge">
<title>Node13&#45;&gt;Node12</title>
<path fill="none" stroke="#9a32cd" stroke-dasharray="5,2" d="M281.7,-74.92C317.23,-79.7 370.48,-86.86 411.86,-92.42"/>
<polygon fill="#9a32cd" stroke="#9a32cd" points="282.1,-71.44 271.73,-73.58 281.17,-78.38 282.1,-71.44"/>
<text text-anchor="middle" x="360.5" y="-92.71" font-family="Helvetica,sans-Serif" font-size="10.00"> message</text>
</g>
<!-- Node15 -->
<g id="node15" class="node">
<title>Node15</title>
<g id="a_node15"><a xlink:title=" ">
<polygon fill="white" stroke="#bfbfbf" points="558,-13.21 558,-32.21 677,-32.21 677,-13.21 558,-13.21"/>
<text text-anchor="middle" x="617.5" y="-20.21" font-family="Helvetica,sans-Serif" font-size="10.00">std::queue&lt; std::string &gt;</text>
</a>
</g>
</g>
<!-- Node13&#45;&gt;Node15 -->
<g id="edge17" class="edge">
<title>Node13&#45;&gt;Node15</title>
<path fill="none" stroke="#9a32cd" stroke-dasharray="5,2" d="M281.61,-64.85C347.21,-56.6 480.78,-39.79 557.94,-30.08"/>
<polygon fill="#9a32cd" stroke="#9a32cd" points="281.17,-61.38 271.69,-66.1 282.05,-68.33 281.17,-61.38"/>
<text text-anchor="middle" x="360.5" y="-60.71" font-family="Helvetica,sans-Serif" font-size="10.00"> elements</text>
</g>
<!-- Node14 -->
<g id="node14" class="node">
<title>Node14</title>
<g id="a_node14"><a xlink:title="STL class.">
<polygon fill="white" stroke="#bfbfbf" points="16,-54.71 16,-84.71 109,-84.71 109,-54.71 16,-54.71"/>
<text text-anchor="start" x="24" y="-72.71" font-family="Helvetica,sans-Serif" font-size="10.00">std::basic_string&lt;</text>
<text text-anchor="middle" x="62.5" y="-61.71" font-family="Helvetica,sans-Serif" font-size="10.00"> char &gt;</text>
</a>
</g>
</g>
<!-- Node14&#45;&gt;Node13 -->
<g id="edge15" class="edge">
<title>Node14&#45;&gt;Node13</title>
<path fill="none" stroke="midnightblue" d="M119.42,-69.71C150.3,-69.71 187.36,-69.71 212.38,-69.71"/>
<polygon fill="midnightblue" stroke="midnightblue" points="119.21,-66.21 109.21,-69.71 119.21,-73.21 119.21,-66.21"/>
</g>
<!-- Node15&#45;&gt;Node1 -->
<g id="edge16" class="edge">
<title>Node15&#45;&gt;Node1</title>
<path fill="none" stroke="#9a32cd" stroke-dasharray="5,2" d="M668.24,-11.26C738.03,1.74 865.59,13.87 947,-47.71 987.52,-78.37 1011.83,-136.2 1021.56,-163.59"/>
<polygon fill="#9a32cd" stroke="#9a32cd" points="667.52,-7.83 658.37,-13.17 668.85,-14.71 667.52,-7.83"/>
<text text-anchor="middle" x="775.5" y="-10.71" font-family="Helvetica,sans-Serif" font-size="10.00"> receive_buffer</text>
</g>
<!-- Node16 -->
<g id="node16" class="node">
<title>Node16</title>
<g id="a_node16"><a xlink:title="STL class.">
<polygon fill="white" stroke="#bfbfbf" points="745,-42.21 745,-61.21 806,-61.21 806,-42.21 745,-42.21"/>
<text text-anchor="middle" x="775.5" y="-49.21" font-family="Helvetica,sans-Serif" font-size="10.00">std::mutex</text>
</a>
</g>
</g>
<!-- Node16&#45;&gt;Node1 -->
<g id="edge18" class="edge">
<title>Node16&#45;&gt;Node1</title>
<path fill="none" stroke="#9a32cd" stroke-dasharray="5,2" d="M816.34,-49.1C852.76,-48.53 906.9,-52.4 947,-75.71 982.74,-96.49 1008.01,-140.2 1019.51,-163.43"/>
<polygon fill="#9a32cd" stroke="#9a32cd" points="816.01,-45.61 806.11,-49.38 816.2,-52.6 816.01,-45.61"/>
<text text-anchor="middle" x="909" y="-100.71" font-family="Helvetica,sans-Serif" font-size="10.00"> reading_q_mutex</text>
<text text-anchor="middle" x="909" y="-89.71" font-family="Helvetica,sans-Serif" font-size="10.00">recv_buf_mutex</text>
<text text-anchor="middle" x="909" y="-78.71" font-family="Helvetica,sans-Serif" font-size="10.00">sending_q_mutex</text>
</g>
<!-- Node17&#45;&gt;Node1 -->
<g id="edge20" class="edge">
<title>Node17&#45;&gt;Node1</title>
<path fill="none" stroke="#9a32cd" stroke-dasharray="5,2" d="M690.24,-167.22C692.86,-167.03 695.45,-166.86 698,-166.71 790.88,-161.47 898.66,-167.77 964.71,-173.04"/>
<polygon fill="#9a32cd" stroke="#9a32cd" points="689.75,-163.75 680.07,-168.05 690.32,-170.72 689.75,-163.75"/>
<text text-anchor="middle" x="775.5" y="-169.71" font-family="Helvetica,sans-Serif" font-size="10.00"> parameters</text>
</g>
</g>
</svg>
