<?xml version="1.0" encoding="UTF-8" standalone="no"?>
<!DOCTYPE svg PUBLIC "-//W3C//DTD SVG 1.1//EN"
 "http://www.w3.org/Graphics/SVG/1.1/DTD/svg11.dtd">
<!-- Generated by graphviz version 2.42.3 ()
 -->
<!-- Title: automaton::core::node::peer_info Pages: 1 -->
<svg width="898pt" height="161pt"
 viewBox="0.00 0.00 898.00 161.00" xmlns="http://www.w3.org/2000/svg" xmlns:xlink="http://www.w3.org/1999/xlink">
<g id="graph0" class="graph" transform="scale(1 1) rotate(0) translate(4 157)">
<title>automaton::core::node::peer_info</title>
<polygon fill="white" stroke="transparent" points="-4,4 -4,-157 894,-157 894,4 -4,4"/>
<!-- Node1 -->
<g id="node1" class="node">
<title>Node1</title>
<g id="a_node1"><a xlink:title=" ">
<polygon fill="#bfbfbf" stroke="black" points="779,-66 779,-96 890,-96 890,-66 779,-66"/>
<text text-anchor="start" x="787" y="-84" font-family="Helvetica,sans-Serif" font-size="10.00">automaton::core::node</text>
<text text-anchor="middle" x="834.5" y="-73" font-family="Helvetica,sans-Serif" font-size="10.00">::peer_info</text>
</a>
</g>
</g>
<!-- Node2 -->
<g id="node2" class="node">
<title>Node2</title>
<g id="a_node2"><a xlink:title=" ">
<polygon fill="white" stroke="#bfbfbf" points="216.5,-131.5 216.5,-150.5 267.5,-150.5 267.5,-131.5 216.5,-131.5"/>
<text text-anchor="middle" x="242" y="-138.5" font-family="Helvetica,sans-Serif" font-size="10.00">uint32_t</text>
</a>
</g>
</g>
<!-- Node2&#45;&gt;Node1 -->
<g id="edge1" class="edge">
<title>Node2&#45;&gt;Node1</title>
<path fill="none" stroke="#9a32cd" stroke-dasharray="5,2" d="M277.99,-142.66C354.03,-145.64 539.84,-149.6 693,-126 729.45,-120.38 769.35,-106.85 797.28,-96.08"/>
<polygon fill="#9a32cd" stroke="#9a32cd" points="277.72,-139.14 267.58,-142.23 277.43,-146.14 277.72,-139.14"/>
<text text-anchor="middle" x="529" y="-145" font-family="Helvetica,sans-Serif" font-size="10.00"> id</text>
</g>
<!-- Node4 -->
<g id="node4" class="node">
<title>Node4</title>
<g id="a_node4"><a xlink:href="../../d9/dfe/classautomaton_1_1core_1_1network_1_1connection.html" target="_top" xlink:title=" ">
<polygon fill="white" stroke="black" points="379,-88 379,-118 504,-118 504,-88 379,-88"/>
<text text-anchor="start" x="387" y="-106" font-family="Helvetica,sans-Serif" font-size="10.00">automaton::core::network</text>
<text text-anchor="middle" x="441.5" y="-95" font-family="Helvetica,sans-Serif" font-size="10.00">::connection</text>
</a>
</g>
</g>
<!-- Node2&#45;&gt;Node4 -->
<g id="edge6" class="edge">
<title>Node2&#45;&gt;Node4</title>
<path fill="none" stroke="#9a32cd" stroke-dasharray="5,2" d="M277.52,-132.73C292.66,-129.22 310.67,-125.21 327,-122 343.76,-118.7 361.99,-115.49 378.83,-112.67"/>
<polygon fill="#9a32cd" stroke="#9a32cd" points="276.49,-129.38 267.55,-135.06 278.08,-136.19 276.49,-129.38"/>
<text text-anchor="middle" x="344" y="-125" font-family="Helvetica,sans-Serif" font-size="10.00"> id</text>
</g>
<!-- Node3 -->
<g id="node3" class="node">
<title>Node3</title>
<g id="a_node3"><a xlink:title=" ">
<polygon fill="white" stroke="#bfbfbf" points="554,-86 554,-116 693,-116 693,-86 554,-86"/>
<text text-anchor="start" x="562" y="-104" font-family="Helvetica,sans-Serif" font-size="10.00">std::shared_ptr&lt; automaton</text>
<text text-anchor="middle" x="623.5" y="-93" font-family="Helvetica,sans-Serif" font-size="10.00">::core::network::connection &gt;</text>
</a>
</g>
</g>
<!-- Node3&#45;&gt;Node1 -->
<g id="edge2" class="edge">
<title>Node3&#45;&gt;Node1</title>
<path fill="none" stroke="#9a32cd" stroke-dasharray="5,2" d="M703.49,-93.44C728.66,-91.03 755.93,-88.42 778.97,-86.22"/>
<polygon fill="#9a32cd" stroke="#9a32cd" points="702.84,-89.99 693.22,-94.42 703.51,-96.95 702.84,-89.99"/>
<text text-anchor="middle" x="736" y="-95" font-family="Helvetica,sans-Serif" font-size="10.00"> connection</text>
</g>
<!-- Node4&#45;&gt;Node3 -->
<g id="edge3" class="edge">
<title>Node4&#45;&gt;Node3</title>
<path fill="none" stroke="#9a32cd" stroke-dasharray="5,2" d="M514.46,-102.2C527.43,-102.06 540.92,-101.91 553.79,-101.76"/>
<polygon fill="#9a32cd" stroke="#9a32cd" points="514.15,-98.7 504.19,-102.31 514.23,-105.7 514.15,-98.7"/>
<text text-anchor="middle" x="529" y="-105" font-family="Helvetica,sans-Serif" font-size="10.00"> ptr</text>
</g>
<!-- Node5 -->
<g id="node5" class="node">
<title>Node5</title>
<g id="a_node5"><a xlink:title=" ">
<polygon fill="white" stroke="#bfbfbf" points="175,-66.5 175,-107.5 309,-107.5 309,-66.5 175,-66.5"/>
<text text-anchor="start" x="183" y="-95.5" font-family="Helvetica,sans-Serif" font-size="10.00">std::shared_ptr&lt; automaton</text>
<text text-anchor="start" x="183" y="-84.5" font-family="Helvetica,sans-Serif" font-size="10.00">::core::network::connection</text>
<text text-anchor="middle" x="242" y="-73.5" font-family="Helvetica,sans-Serif" font-size="10.00">::connection_handler &gt;</text>
</a>
</g>
</g>
<!-- Node5&#45;&gt;Node4 -->
<g id="edge4" class="edge">
<title>Node5&#45;&gt;Node4</title>
<path fill="none" stroke="#9a32cd" stroke-dasharray="5,2" d="M319.29,-85.66C333.19,-85.98 347.55,-86.68 361,-88 366.73,-88.56 372.67,-89.33 378.59,-90.22"/>
<polygon fill="#9a32cd" stroke="#9a32cd" points="319.32,-82.16 309.26,-85.49 319.2,-89.16 319.32,-82.16"/>
<text text-anchor="middle" x="344" y="-91" font-family="Helvetica,sans-Serif" font-size="10.00"> handler</text>
</g>
<!-- Node6 -->
<g id="node6" class="node">
<title>Node6</title>
<g id="a_node6"><a xlink:href="../../d6/d94/classautomaton_1_1core_1_1network_1_1connection_1_1connection__handler.html" target="_top" xlink:title=" ">
<polygon fill="white" stroke="black" points="0,-66.5 0,-107.5 125,-107.5 125,-66.5 0,-66.5"/>
<text text-anchor="start" x="8" y="-95.5" font-family="Helvetica,sans-Serif" font-size="10.00">automaton::core::network</text>
<text text-anchor="start" x="8" y="-84.5" font-family="Helvetica,sans-Serif" font-size="10.00">::connection::connection</text>
<text text-anchor="middle" x="62.5" y="-73.5" font-family="Helvetica,sans-Serif" font-size="10.00">_handler</text>
</a>
</g>
</g>
<!-- Node6&#45;&gt;Node5 -->
<g id="edge5" class="edge">
<title>Node6&#45;&gt;Node5</title>
<path fill="none" stroke="#9a32cd" stroke-dasharray="5,2" d="M135.44,-87C148.51,-87 162.09,-87 174.99,-87"/>
<polygon fill="#9a32cd" stroke="#9a32cd" points="135.08,-83.5 125.08,-87 135.08,-90.5 135.08,-83.5"/>
<text text-anchor="middle" x="150" y="-90" font-family="Helvetica,sans-Serif" font-size="10.00"> ptr</text>
</g>
<!-- Node7 -->
<g id="node7" class="node">
<title>Node7</title>
<g id="a_node7"><a xlink:title="STL class.">
<polygon fill="white" stroke="#bfbfbf" points="594,-45.5 594,-64.5 653,-64.5 653,-45.5 594,-45.5"/>
<text text-anchor="middle" x="623.5" y="-52.5" font-family="Helvetica,sans-Serif" font-size="10.00">std::string</text>
</a>
</g>
</g>
<!-- Node7&#45;&gt;Node1 -->
<g id="edge7" class="edge">
<title>Node7&#45;&gt;Node1</title>
<path fill="none" stroke="#9a32cd" stroke-dasharray="5,2" d="M663.12,-59.8C695.56,-63.84 742.3,-69.65 778.62,-74.17"/>
<polygon fill="#9a32cd" stroke="#9a32cd" points="663.48,-56.32 653.12,-58.56 662.61,-63.27 663.48,-56.32"/>
<text text-anchor="middle" x="736" y="-74" font-family="Helvetica,sans-Serif" font-size="10.00"> address</text>
</g>
<!-- Node8 -->
<g id="node8" class="node">
<title>Node8</title>
<g id="a_node8"><a xlink:title="STL class.">
<polygon fill="white" stroke="#bfbfbf" points="395,-39 395,-69 488,-69 488,-39 395,-39"/>
<text text-anchor="start" x="403" y="-57" font-family="Helvetica,sans-Serif" font-size="10.00">std::basic_string&lt;</text>
<text text-anchor="middle" x="441.5" y="-46" font-family="Helvetica,sans-Serif" font-size="10.00"> char &gt;</text>
</a>
</g>
</g>
<!-- Node8&#45;&gt;Node7 -->
<g id="edge8" class="edge">
<title>Node8&#45;&gt;Node7</title>
<path fill="none" stroke="midnightblue" d="M498.4,-54.31C530.04,-54.49 568.27,-54.7 593.86,-54.84"/>
<polygon fill="midnightblue" stroke="midnightblue" points="498.41,-50.81 488.39,-54.25 498.37,-57.81 498.41,-50.81"/>
</g>
<!-- Node9 -->
<g id="node9" class="node">
<title>Node9</title>
<g id="a_node9"><a xlink:title=" ">
<polygon fill="white" stroke="#bfbfbf" points="565.5,-4.5 565.5,-23.5 681.5,-23.5 681.5,-4.5 565.5,-4.5"/>
<text text-anchor="middle" x="623.5" y="-11.5" font-family="Helvetica,sans-Serif" font-size="10.00">std::shared_ptr&lt; char &gt;</text>
</a>
</g>
</g>
<!-- Node9&#45;&gt;Node1 -->
<g id="edge9" class="edge">
<title>Node9&#45;&gt;Node1</title>
<path fill="none" stroke="#9a32cd" stroke-dasharray="5,2" d="M674.92,-26.03C700.88,-32.63 732.89,-41.42 761,-51 773.76,-55.35 787.5,-60.82 799.54,-65.9"/>
<polygon fill="#9a32cd" stroke="#9a32cd" points="675.48,-22.56 664.92,-23.52 673.77,-29.35 675.48,-22.56"/>
<text text-anchor="middle" x="736" y="-54" font-family="Helvetica,sans-Serif" font-size="10.00"> buffer</text>
</g>
<!-- Node10 -->
<g id="node10" class="node">
<title>Node10</title>
<g id="a_node10"><a xlink:title=" ">
<polygon fill="white" stroke="#bfbfbf" points="424,-0.5 424,-19.5 459,-19.5 459,-0.5 424,-0.5"/>
<text text-anchor="middle" x="441.5" y="-7.5" font-family="Helvetica,sans-Serif" font-size="10.00">char</text>
</a>
</g>
</g>
<!-- Node10&#45;&gt;Node9 -->
<g id="edge10" class="edge">
<title>Node10&#45;&gt;Node9</title>
<path fill="none" stroke="#9a32cd" stroke-dasharray="5,2" d="M469.37,-10.6C494.6,-11.16 533.16,-12.01 565.27,-12.73"/>
<polygon fill="#9a32cd" stroke="#9a32cd" points="469.19,-7.09 459.11,-10.37 469.03,-14.09 469.19,-7.09"/>
<text text-anchor="middle" x="529" y="-15" font-family="Helvetica,sans-Serif" font-size="10.00"> ptr</text>
</g>
</g>
</svg>
