<?xml version="1.0" encoding="UTF-8" standalone="no"?>
<!DOCTYPE svg PUBLIC "-//W3C//DTD SVG 1.1//EN"
 "http://www.w3.org/Graphics/SVG/1.1/DTD/svg11.dtd">
<!-- Generated by graphviz version 2.42.3 ()
 -->
<!-- Title: miner.h Pages: 1 -->
<svg width="418pt" height="84pt"
 viewBox="0.00 0.00 418.00 84.00" xmlns="http://www.w3.org/2000/svg" xmlns:xlink="http://www.w3.org/1999/xlink">
<g id="graph0" class="graph" transform="scale(1 1) rotate(0) translate(4 80)">
<title>miner.h</title>
<polygon fill="white" stroke="transparent" points="-4,4 -4,-80 414,-80 414,4 -4,4"/>
<!-- Node1 -->
<g id="node1" class="node">
<title>Node1</title>
<g id="a_node1"><a xlink:title=" ">
<polygon fill="#bfbfbf" stroke="black" points="214,-56.5 214,-75.5 262,-75.5 262,-56.5 214,-56.5"/>
<text text-anchor="middle" x="238" y="-63.5" font-family="Helvetica,sans-Serif" font-size="10.00">miner.h</text>
</a>
</g>
</g>
<!-- Node2 -->
<g id="node2" class="node">
<title>Node2</title>
<g id="a_node2"><a xlink:href="../../d4/d57/eth__contract__curl__test_8cc.html" target="_top" xlink:title=" ">
<polygon fill="white" stroke="black" points="0,-0.5 0,-19.5 126,-19.5 126,-0.5 0,-0.5"/>
<text text-anchor="middle" x="63" y="-7.5" font-family="Helvetica,sans-Serif" font-size="10.00">eth_contract_curl_test.cc</text>
</a>
</g>
</g>
<!-- Node1&#45;&gt;Node2 -->
<g id="edge1" class="edge">
<title>Node1&#45;&gt;Node2</title>
<path fill="none" stroke="midnightblue" d="M203.97,-54.5C170.89,-44.29 121.28,-28.98 90.58,-19.51"/>
<polygon fill="midnightblue" stroke="midnightblue" points="203.08,-57.89 213.67,-57.49 205.14,-51.2 203.08,-57.89"/>
</g>
<!-- Node3 -->
<g id="node3" class="node">
<title>Node3</title>
<g id="a_node3"><a xlink:href="../../da/d5c/eth__transaction_8cc.html" target="_top" xlink:title=" ">
<polygon fill="white" stroke="black" points="144,-0.5 144,-19.5 240,-19.5 240,-0.5 144,-0.5"/>
<text text-anchor="middle" x="192" y="-7.5" font-family="Helvetica,sans-Serif" font-size="10.00">eth_transaction.cc</text>
</a>
</g>
</g>
<!-- Node1&#45;&gt;Node3 -->
<g id="edge2" class="edge">
<title>Node1&#45;&gt;Node3</title>
<path fill="none" stroke="midnightblue" d="M223.89,-48.43C215.82,-38.97 206.04,-27.48 199.45,-19.75"/>
<polygon fill="midnightblue" stroke="midnightblue" points="221.25,-50.74 230.4,-56.08 226.58,-46.2 221.25,-50.74"/>
</g>
<!-- Node4 -->
<g id="node4" class="node">
<title>Node4</title>
<g id="a_node4"><a xlink:href="../../d3/d5d/miner_8cc.html" target="_top" xlink:title=" ">
<polygon fill="white" stroke="black" points="258.5,-0.5 258.5,-19.5 311.5,-19.5 311.5,-0.5 258.5,-0.5"/>
<text text-anchor="middle" x="285" y="-7.5" font-family="Helvetica,sans-Serif" font-size="10.00">miner.cc</text>
</a>
</g>
</g>
<!-- Node1&#45;&gt;Node4 -->
<g id="edge3" class="edge">
<title>Node1&#45;&gt;Node4</title>
<path fill="none" stroke="midnightblue" d="M252.42,-48.43C260.66,-38.97 270.65,-27.48 277.38,-19.75"/>
<polygon fill="midnightblue" stroke="midnightblue" points="249.69,-46.24 245.76,-56.08 254.97,-50.84 249.69,-46.24"/>
</g>
<!-- Node5 -->
<g id="node5" class="node">
<title>Node5</title>
<g id="a_node5"><a xlink:href="../../d4/dd8/miner__main_8cc.html" target="_top" xlink:title=" ">
<polygon fill="white" stroke="black" points="330,-0.5 330,-19.5 410,-19.5 410,-0.5 330,-0.5"/>
<text text-anchor="middle" x="370" y="-7.5" font-family="Helvetica,sans-Serif" font-size="10.00">miner_main.cc</text>
</a>
</g>
</g>
<!-- Node1&#45;&gt;Node5 -->
<g id="edge4" class="edge">
<title>Node1&#45;&gt;Node5</title>
<path fill="none" stroke="midnightblue" d="M268.22,-52.64C292.99,-42.5 327.4,-28.43 349.18,-19.52"/>
<polygon fill="midnightblue" stroke="midnightblue" points="266.85,-49.42 258.92,-56.44 269.5,-55.9 266.85,-49.42"/>
</g>
</g>
</svg>
