<?xml version="1.0" encoding="UTF-8" standalone="no"?>
<!DOCTYPE svg PUBLIC "-//W3C//DTD SVG 1.1//EN"
 "http://www.w3.org/Graphics/SVG/1.1/DTD/svg11.dtd">
<!-- Generated by graphviz version 2.42.3 ()
 -->
<!-- Title: automaton::core::interop::ethereum::eth_contract::call Pages: 1 -->
<svg width="1014pt" height="337pt"
 viewBox="0.00 0.00 1014.00 337.04" xmlns="http://www.w3.org/2000/svg" xmlns:xlink="http://www.w3.org/1999/xlink">
<g id="graph0" class="graph" transform="scale(1 1) rotate(0) translate(4 333.04)">
<title>automaton::core::interop::ethereum::eth_contract::call</title>
<polygon fill="white" stroke="transparent" points="-4,4 -4,-333.04 1010,-333.04 1010,4 -4,4"/>
<!-- Node1 -->
<g id="node1" class="node">
<title>Node1</title>
<g id="a_node1"><a xlink:title=" ">
<polygon fill="#bfbfbf" stroke="black" points="0,-259.5 0,-289.5 140,-289.5 140,-259.5 0,-259.5"/>
<text text-anchor="start" x="8" y="-277.5" font-family="Helvetica,sans-Serif" font-size="10.00">automaton::core::interop</text>
<text text-anchor="middle" x="70" y="-266.5" font-family="Helvetica,sans-Serif" font-size="10.00">::ethereum::eth_contract::call</text>
</a>
</g>
</g>
<!-- Node2 -->
<g id="node2" class="node">
<title>Node2</title>
<g id="a_node2"><a xlink:href="../../da/dd5/namespaceautomaton_1_1core_1_1io.html#ab19202c80dffefe2cd1a87a60d06a0b3" target="_top" xlink:title=" ">
<polygon fill="white" stroke="black" points="186.5,-284.5 186.5,-314.5 284.5,-314.5 284.5,-284.5 186.5,-284.5"/>
<text text-anchor="start" x="194.5" y="-302.5" font-family="Helvetica,sans-Serif" font-size="10.00">automaton::core::io</text>
<text text-anchor="middle" x="235.5" y="-291.5" font-family="Helvetica,sans-Serif" font-size="10.00">::bin2hex</text>
</a>
</g>
</g>
<!-- Node1&#45;&gt;Node2 -->
<g id="edge1" class="edge">
<title>Node1&#45;&gt;Node2</title>
<path fill="none" stroke="midnightblue" d="M140.34,-285.1C152.32,-286.93 164.67,-288.82 176.32,-290.6"/>
<polygon fill="midnightblue" stroke="midnightblue" points="175.93,-294.09 186.35,-292.14 176.99,-287.17 175.93,-294.09"/>
</g>
<!-- Node3 -->
<g id="node3" class="node">
<title>Node3</title>
<g id="a_node3"><a xlink:href="../../d2/d91/namespaceautomaton_1_1core_1_1interop_1_1ethereum.html#a47ab7911ff4d29153e849da3691c26b6" target="_top" xlink:title=" ">
<polygon fill="white" stroke="black" points="176,-235.5 176,-265.5 295,-265.5 295,-235.5 176,-235.5"/>
<text text-anchor="start" x="184" y="-253.5" font-family="Helvetica,sans-Serif" font-size="10.00">automaton::core::interop</text>
<text text-anchor="middle" x="235.5" y="-242.5" font-family="Helvetica,sans-Serif" font-size="10.00">::ethereum::encode</text>
</a>
</g>
</g>
<!-- Node1&#45;&gt;Node3 -->
<g id="edge2" class="edge">
<title>Node1&#45;&gt;Node3</title>
<path fill="none" stroke="midnightblue" d="M140.34,-264.32C148.75,-263.09 157.35,-261.82 165.76,-260.59"/>
<polygon fill="midnightblue" stroke="midnightblue" points="166.51,-264.02 175.89,-259.1 165.49,-257.09 166.51,-264.02"/>
</g>
<!-- Node4 -->
<g id="node4" class="node">
<title>Node4</title>
<g id="a_node4"><a xlink:href="../../d2/d91/namespaceautomaton_1_1core_1_1interop_1_1ethereum.html#aa50eed459424657a958f1de0e7668bea" target="_top" xlink:title=" ">
<polygon fill="white" stroke="black" points="516.5,-235.5 516.5,-265.5 650.5,-265.5 650.5,-235.5 516.5,-235.5"/>
<text text-anchor="start" x="524.5" y="-253.5" font-family="Helvetica,sans-Serif" font-size="10.00">automaton::core::interop</text>
<text text-anchor="middle" x="583.5" y="-242.5" font-family="Helvetica,sans-Serif" font-size="10.00">::ethereum::calculate_offset</text>
</a>
</g>
</g>
<!-- Node3&#45;&gt;Node4 -->
<g id="edge3" class="edge">
<title>Node3&#45;&gt;Node4</title>
<path fill="none" stroke="midnightblue" d="M295.19,-250.5C353.27,-250.5 442.46,-250.5 506.05,-250.5"/>
<polygon fill="midnightblue" stroke="midnightblue" points="506.42,-254 516.42,-250.5 506.42,-247 506.42,-254"/>
</g>
<!-- Node6 -->
<g id="node6" class="node">
<title>Node6</title>
<g id="a_node6"><a xlink:href="../../d2/d91/namespaceautomaton_1_1core_1_1interop_1_1ethereum.html#a08f65881a82ec8e34c694e2fc677bc31" target="_top" xlink:title=" ">
<polygon fill="white" stroke="black" points="887,-260.5 887,-290.5 1006,-290.5 1006,-260.5 887,-260.5"/>
<text text-anchor="start" x="895" y="-278.5" font-family="Helvetica,sans-Serif" font-size="10.00">automaton::core::interop</text>
<text text-anchor="middle" x="946.5" y="-267.5" font-family="Helvetica,sans-Serif" font-size="10.00">::ethereum::get_type</text>
</a>
</g>
</g>
<!-- Node3&#45;&gt;Node6 -->
<g id="edge18" class="edge">
<title>Node3&#45;&gt;Node6</title>
<path fill="none" stroke="midnightblue" d="M272.44,-265.54C289.92,-272.51 311.34,-280.54 331,-286.5 403.43,-308.47 421.79,-316 497,-324.5 631.52,-339.7 788.84,-312.04 876.85,-292.47"/>
<polygon fill="midnightblue" stroke="midnightblue" points="877.73,-295.86 886.71,-290.24 876.19,-289.03 877.73,-295.86"/>
</g>
<!-- Node7 -->
<g id="node7" class="node">
<title>Node7</title>
<g id="a_node7"><a xlink:href="../../d2/d91/namespaceautomaton_1_1core_1_1interop_1_1ethereum.html#a414060673c883b4f153cd1a613df435f" target="_top" xlink:title=" ">
<polygon fill="white" stroke="black" points="497,-284.5 497,-314.5 670,-314.5 670,-284.5 497,-284.5"/>
<text text-anchor="start" x="505" y="-302.5" font-family="Helvetica,sans-Serif" font-size="10.00">automaton::core::interop</text>
<text text-anchor="middle" x="583.5" y="-291.5" font-family="Helvetica,sans-Serif" font-size="10.00">::ethereum::check_and_resize_buffer</text>
</a>
</g>
</g>
<!-- Node3&#45;&gt;Node7 -->
<g id="edge7" class="edge">
<title>Node3&#45;&gt;Node7</title>
<path fill="none" stroke="midnightblue" d="M295.22,-259.28C307.06,-261.03 319.43,-262.84 331,-264.5 382.43,-271.89 439.8,-279.89 486.76,-286.38"/>
<polygon fill="midnightblue" stroke="midnightblue" points="486.53,-289.88 496.92,-287.78 487.49,-282.95 486.53,-289.88"/>
</g>
<!-- Node8 -->
<g id="node8" class="node">
<title>Node8</title>
<g id="a_node8"><a xlink:href="../../d2/d91/namespaceautomaton_1_1core_1_1interop_1_1ethereum.html#a1785a882c65e47ef40d0587235f82275" target="_top" xlink:title=" ">
<polygon fill="white" stroke="black" points="331,-169.5 331,-199.5 461,-199.5 461,-169.5 331,-169.5"/>
<text text-anchor="start" x="339" y="-187.5" font-family="Helvetica,sans-Serif" font-size="10.00">automaton::core::interop</text>
<text text-anchor="middle" x="396" y="-176.5" font-family="Helvetica,sans-Serif" font-size="10.00">::ethereum::encode_param</text>
</a>
</g>
</g>
<!-- Node3&#45;&gt;Node8 -->
<g id="edge8" class="edge">
<title>Node3&#45;&gt;Node8</title>
<path fill="none" stroke="midnightblue" d="M272.86,-235.36C295.62,-225.88 325.12,-213.6 349.43,-203.48"/>
<polygon fill="midnightblue" stroke="midnightblue" points="350.92,-206.65 358.81,-199.57 348.23,-200.18 350.92,-206.65"/>
</g>
<!-- Node14 -->
<g id="node14" class="node">
<title>Node14</title>
<g id="a_node14"><a xlink:href="../../d2/d91/namespaceautomaton_1_1core_1_1interop_1_1ethereum.html#a1775b0bab9738d2aa1c8ec382a41b5ed" target="_top" xlink:title=" ">
<polygon fill="white" stroke="black" points="522.5,-0.5 522.5,-30.5 644.5,-30.5 644.5,-0.5 522.5,-0.5"/>
<text text-anchor="start" x="530.5" y="-18.5" font-family="Helvetica,sans-Serif" font-size="10.00">automaton::core::interop</text>
<text text-anchor="middle" x="583.5" y="-7.5" font-family="Helvetica,sans-Serif" font-size="10.00">::ethereum::u64_to_u256</text>
</a>
</g>
</g>
<!-- Node3&#45;&gt;Node14 -->
<g id="edge19" class="edge">
<title>Node3&#45;&gt;Node14</title>
<path fill="none" stroke="midnightblue" d="M250.09,-235.49C286.19,-196.57 389.14,-91.84 497,-39.5 501.94,-37.1 507.16,-34.91 512.49,-32.9"/>
<polygon fill="midnightblue" stroke="midnightblue" points="513.89,-36.12 522.16,-29.51 511.57,-29.52 513.89,-36.12"/>
</g>
<!-- Node5 -->
<g id="node5" class="node">
<title>Node5</title>
<g id="a_node5"><a xlink:href="../../d2/d91/namespaceautomaton_1_1core_1_1interop_1_1ethereum.html#ac04f9dc4ef42981618e61f6bc2196156" target="_top" xlink:title=" ">
<polygon fill="white" stroke="black" points="706,-216.5 706,-246.5 851,-246.5 851,-216.5 706,-216.5"/>
<text text-anchor="start" x="714" y="-234.5" font-family="Helvetica,sans-Serif" font-size="10.00">automaton::core::interop</text>
<text text-anchor="middle" x="778.5" y="-223.5" font-family="Helvetica,sans-Serif" font-size="10.00">::ethereum::extract_array_type</text>
</a>
</g>
</g>
<!-- Node4&#45;&gt;Node5 -->
<g id="edge4" class="edge">
<title>Node4&#45;&gt;Node5</title>
<path fill="none" stroke="midnightblue" d="M650.65,-243.99C665.1,-242.57 680.56,-241.04 695.55,-239.57"/>
<polygon fill="midnightblue" stroke="midnightblue" points="696.22,-243.02 705.83,-238.56 695.53,-236.05 696.22,-243.02"/>
</g>
<!-- Node4&#45;&gt;Node6 -->
<g id="edge6" class="edge">
<title>Node4&#45;&gt;Node6</title>
<path fill="none" stroke="midnightblue" d="M650.71,-255.09C714.86,-259.53 811.72,-266.24 876.72,-270.74"/>
<polygon fill="midnightblue" stroke="midnightblue" points="876.65,-274.24 886.87,-271.44 877.14,-267.26 876.65,-274.24"/>
</g>
<!-- Node5&#45;&gt;Node6 -->
<g id="edge5" class="edge">
<title>Node5&#45;&gt;Node6</title>
<path fill="none" stroke="midnightblue" d="M836.16,-246.52C849.98,-250.18 864.87,-254.13 879.1,-257.9"/>
<polygon fill="midnightblue" stroke="midnightblue" points="878.25,-261.29 888.81,-260.47 880.04,-254.53 878.25,-261.29"/>
</g>
<!-- Node8&#45;&gt;Node4 -->
<g id="edge9" class="edge">
<title>Node8&#45;&gt;Node4</title>
<path fill="none" stroke="midnightblue" d="M438.82,-199.64C456.72,-206.1 477.88,-213.7 497,-220.5 507.55,-224.25 518.85,-228.24 529.66,-232.04"/>
<polygon fill="midnightblue" stroke="midnightblue" points="528.82,-235.45 539.42,-235.46 531.14,-228.85 528.82,-235.45"/>
</g>
<!-- Node8&#45;&gt;Node5 -->
<g id="edge14" class="edge">
<title>Node8&#45;&gt;Node5</title>
<path fill="none" stroke="midnightblue" d="M461.12,-192.42C525.71,-200.4 625.62,-212.74 695.85,-221.41"/>
<polygon fill="midnightblue" stroke="midnightblue" points="695.63,-224.91 705.99,-222.67 696.49,-217.97 695.63,-224.91"/>
</g>
<!-- Node8&#45;&gt;Node7 -->
<g id="edge10" class="edge">
<title>Node8&#45;&gt;Node7</title>
<path fill="none" stroke="midnightblue" d="M409.61,-199.74C427.15,-219.97 460.86,-255.48 497,-275.5 500.3,-277.33 503.74,-279.02 507.28,-280.6"/>
<polygon fill="midnightblue" stroke="midnightblue" points="506.23,-283.95 516.81,-284.49 508.87,-277.47 506.23,-283.95"/>
</g>
<!-- Node9 -->
<g id="node9" class="node">
<title>Node9</title>
<g id="a_node9"><a xlink:href="../../d2/d91/namespaceautomaton_1_1core_1_1interop_1_1ethereum.html#a617d29f4e99dd3dcb5e2a670dcaf1d69" target="_top" xlink:title=" ">
<polygon fill="white" stroke="black" points="524,-147.5 524,-177.5 643,-177.5 643,-147.5 524,-147.5"/>
<text text-anchor="start" x="532" y="-165.5" font-family="Helvetica,sans-Serif" font-size="10.00">automaton::core::interop</text>
<text text-anchor="middle" x="583.5" y="-154.5" font-family="Helvetica,sans-Serif" font-size="10.00">::ethereum::dec_to_i256</text>
</a>
</g>
</g>
<!-- Node8&#45;&gt;Node9 -->
<g id="edge11" class="edge">
<title>Node8&#45;&gt;Node9</title>
<path fill="none" stroke="midnightblue" d="M461.1,-176.9C478.17,-174.87 496.68,-172.68 513.97,-170.63"/>
<polygon fill="midnightblue" stroke="midnightblue" points="514.48,-174.09 524,-169.44 513.66,-167.14 514.48,-174.09"/>
</g>
<!-- Node11 -->
<g id="node11" class="node">
<title>Node11</title>
<g id="a_node11"><a xlink:href="../../d2/d91/namespaceautomaton_1_1core_1_1interop_1_1ethereum.html#a1776518e83508cdbecdf21f16d916d46" target="_top" xlink:title=" ">
<polygon fill="white" stroke="black" points="520,-98.5 520,-128.5 647,-128.5 647,-98.5 520,-98.5"/>
<text text-anchor="start" x="528" y="-116.5" font-family="Helvetica,sans-Serif" font-size="10.00">automaton::core::interop</text>
<text text-anchor="middle" x="583.5" y="-105.5" font-family="Helvetica,sans-Serif" font-size="10.00">::ethereum::encode_string</text>
</a>
</g>
</g>
<!-- Node8&#45;&gt;Node11 -->
<g id="edge13" class="edge">
<title>Node8&#45;&gt;Node11</title>
<path fill="none" stroke="midnightblue" d="M426.71,-169.44C446.35,-159.83 472.84,-147.54 497,-138.5 503.33,-136.13 509.98,-133.85 516.67,-131.68"/>
<polygon fill="midnightblue" stroke="midnightblue" points="517.97,-134.94 526.46,-128.6 515.87,-128.27 517.97,-134.94"/>
</g>
<!-- Node12 -->
<g id="node12" class="node">
<title>Node12</title>
<g id="a_node12"><a xlink:href="../../da/dd5/namespaceautomaton_1_1core_1_1io.html#a6e93384a5c0d6481352d0ec3211a3d2d" target="_top" xlink:title=" ">
<polygon fill="white" stroke="black" points="534.5,-49.5 534.5,-79.5 632.5,-79.5 632.5,-49.5 534.5,-49.5"/>
<text text-anchor="start" x="542.5" y="-67.5" font-family="Helvetica,sans-Serif" font-size="10.00">automaton::core::io</text>
<text text-anchor="middle" x="583.5" y="-56.5" font-family="Helvetica,sans-Serif" font-size="10.00">::hex2bin</text>
</a>
</g>
</g>
<!-- Node8&#45;&gt;Node12 -->
<g id="edge15" class="edge">
<title>Node8&#45;&gt;Node12</title>
<path fill="none" stroke="midnightblue" d="M408.9,-169.34C426.14,-148.38 460.05,-110.76 497,-89.5 505.55,-84.58 515.14,-80.56 524.72,-77.3"/>
<polygon fill="midnightblue" stroke="midnightblue" points="525.79,-80.64 534.27,-74.29 523.68,-73.96 525.79,-80.64"/>
</g>
<!-- Node8&#45;&gt;Node14 -->
<g id="edge17" class="edge">
<title>Node8&#45;&gt;Node14</title>
<path fill="none" stroke="midnightblue" d="M406.63,-169.33C429.16,-133.99 484.4,-48.5 497,-39.5 501.82,-36.06 507.12,-33.1 512.65,-30.57"/>
<polygon fill="midnightblue" stroke="midnightblue" points="514.19,-33.73 522.12,-26.71 511.54,-27.25 514.19,-33.73"/>
</g>
<!-- Node10 -->
<g id="node10" class="node">
<title>Node10</title>
<g id="a_node10"><a xlink:href="../../d0/d6e/namespaceautomaton_1_1tools_1_1miner.html#a05909e124eb3ea47b74479125c710527" target="_top" xlink:title=" ">
<polygon fill="white" stroke="black" points="720.5,-147.5 720.5,-177.5 836.5,-177.5 836.5,-147.5 720.5,-147.5"/>
<text text-anchor="start" x="728.5" y="-165.5" font-family="Helvetica,sans-Serif" font-size="10.00">automaton::tools::miner</text>
<text text-anchor="middle" x="778.5" y="-154.5" font-family="Helvetica,sans-Serif" font-size="10.00">::sign</text>
</a>
</g>
</g>
<!-- Node9&#45;&gt;Node10 -->
<g id="edge12" class="edge">
<title>Node9&#45;&gt;Node10</title>
<path fill="none" stroke="midnightblue" d="M643.19,-162.5C664.35,-162.5 688.39,-162.5 710.22,-162.5"/>
<polygon fill="midnightblue" stroke="midnightblue" points="710.41,-166 720.41,-162.5 710.41,-159 710.41,-166"/>
</g>
<!-- Node13 -->
<g id="node13" class="node">
<title>Node13</title>
<g id="a_node13"><a xlink:href="../../da/dd5/namespaceautomaton_1_1core_1_1io.html#abe415d62b91abcbae08337eb7a6c65de" target="_top" xlink:title=" ">
<polygon fill="white" stroke="black" points="729.5,-49.5 729.5,-79.5 827.5,-79.5 827.5,-49.5 729.5,-49.5"/>
<text text-anchor="start" x="737.5" y="-67.5" font-family="Helvetica,sans-Serif" font-size="10.00">automaton::core::io</text>
<text text-anchor="middle" x="778.5" y="-56.5" font-family="Helvetica,sans-Serif" font-size="10.00">::hex2nibble</text>
</a>
</g>
</g>
<!-- Node12&#45;&gt;Node13 -->
<g id="edge16" class="edge">
<title>Node12&#45;&gt;Node13</title>
<path fill="none" stroke="midnightblue" d="M632.7,-64.5C658.84,-64.5 691.35,-64.5 718.93,-64.5"/>
<polygon fill="midnightblue" stroke="midnightblue" points="719.24,-68 729.24,-64.5 719.24,-61 719.24,-68"/>
</g>
</g>
</svg>
