<?xml version="1.0" encoding="UTF-8" standalone="no"?>
<!DOCTYPE svg PUBLIC "-//W3C//DTD SVG 1.1//EN"
 "http://www.w3.org/Graphics/SVG/1.1/DTD/svg11.dtd">
<!-- Generated by graphviz version 2.42.3 ()
 -->
<!-- Title: automaton::core::interop::ethereum::eth_contract::register_contract Pages: 1 -->
<svg width="942pt" height="148pt"
 viewBox="0.00 0.00 942.00 147.50" xmlns="http://www.w3.org/2000/svg" xmlns:xlink="http://www.w3.org/1999/xlink">
<g id="graph0" class="graph" transform="scale(1 1) rotate(0) translate(4 143.5)">
<title>automaton::core::interop::ethereum::eth_contract::register_contract</title>
<polygon fill="white" stroke="transparent" points="-4,4 -4,-143.5 938,-143.5 938,4 -4,4"/>
<!-- Node1 -->
<g id="node1" class="node">
<title>Node1</title>
<g id="a_node1"><a xlink:title=" ">
<polygon fill="#bfbfbf" stroke="black" points="0,-44 0,-85 120,-85 120,-44 0,-44"/>
<text text-anchor="start" x="8" y="-73" font-family="Helvetica,sans-Serif" font-size="10.00">automaton::core::interop</text>
<text text-anchor="start" x="8" y="-62" font-family="Helvetica,sans-Serif" font-size="10.00">::ethereum::eth_contract</text>
<text text-anchor="middle" x="60" y="-51" font-family="Helvetica,sans-Serif" font-size="10.00">::register_contract</text>
</a>
</g>
</g>
<!-- Node2 -->
<g id="node2" class="node">
<title>Node2</title>
<g id="a_node2"><a xlink:href="../../d4/de7/classautomaton_1_1core_1_1interop_1_1ethereum_1_1eth__contract.html#a81d2a34e602ffd01b8a9ffae5223fc96" target="_top" xlink:title=" ">
<polygon fill="white" stroke="black" points="156,-44 156,-85 276,-85 276,-44 156,-44"/>
<text text-anchor="start" x="164" y="-73" font-family="Helvetica,sans-Serif" font-size="10.00">automaton::core::interop</text>
<text text-anchor="start" x="164" y="-62" font-family="Helvetica,sans-Serif" font-size="10.00">::ethereum::eth_contract</text>
<text text-anchor="middle" x="216" y="-51" font-family="Helvetica,sans-Serif" font-size="10.00">::eth_contract</text>
</a>
</g>
</g>
<!-- Node1&#45;&gt;Node2 -->
<g id="edge1" class="edge">
<title>Node1&#45;&gt;Node2</title>
<path fill="none" stroke="midnightblue" d="M120.1,-64.5C128.42,-64.5 137.04,-64.5 145.53,-64.5"/>
<polygon fill="midnightblue" stroke="midnightblue" points="145.8,-68 155.8,-64.5 145.8,-61 145.8,-68"/>
</g>
<!-- Node3 -->
<g id="node3" class="node">
<title>Node3</title>
<g id="a_node3"><a xlink:href="../../d2/d91/namespaceautomaton_1_1core_1_1interop_1_1ethereum.html#af94c20cb01294d2784980377da7684c1" target="_top" xlink:title=" ">
<polygon fill="white" stroke="black" points="312,-49.5 312,-79.5 435,-79.5 435,-49.5 312,-49.5"/>
<text text-anchor="start" x="320" y="-67.5" font-family="Helvetica,sans-Serif" font-size="10.00">automaton::core::interop</text>
<text text-anchor="middle" x="373.5" y="-56.5" font-family="Helvetica,sans-Serif" font-size="10.00">::ethereum::eth_gasPrice</text>
</a>
</g>
</g>
<!-- Node2&#45;&gt;Node3 -->
<g id="edge2" class="edge">
<title>Node2&#45;&gt;Node3</title>
<path fill="none" stroke="midnightblue" d="M276.23,-64.5C284.53,-64.5 293.13,-64.5 301.61,-64.5"/>
<polygon fill="midnightblue" stroke="midnightblue" points="301.89,-68 311.89,-64.5 301.89,-61 301.89,-68"/>
</g>
<!-- Node4 -->
<g id="node4" class="node">
<title>Node4</title>
<g id="a_node4"><a xlink:href="../../d2/d91/namespaceautomaton_1_1core_1_1interop_1_1ethereum.html#ac9333e6d163be21216a871b3e71d207e" target="_top" xlink:title=" ">
<polygon fill="white" stroke="black" points="471,-49.5 471,-79.5 590,-79.5 590,-49.5 471,-49.5"/>
<text text-anchor="start" x="479" y="-67.5" font-family="Helvetica,sans-Serif" font-size="10.00">automaton::core::interop</text>
<text text-anchor="middle" x="530.5" y="-56.5" font-family="Helvetica,sans-Serif" font-size="10.00">::ethereum::curl_post</text>
</a>
</g>
</g>
<!-- Node3&#45;&gt;Node4 -->
<g id="edge3" class="edge">
<title>Node3&#45;&gt;Node4</title>
<path fill="none" stroke="midnightblue" d="M435.32,-64.5C443.64,-64.5 452.23,-64.5 460.68,-64.5"/>
<polygon fill="midnightblue" stroke="midnightblue" points="460.89,-68 470.89,-64.5 460.89,-61 460.89,-68"/>
</g>
<!-- Node5 -->
<g id="node5" class="node">
<title>Node5</title>
<g id="a_node5"><a xlink:href="../../d2/d91/namespaceautomaton_1_1core_1_1interop_1_1ethereum.html#a02017dd8cf8adba262ceb26e0163a64f" target="_top" xlink:title=" ">
<polygon fill="white" stroke="black" points="641,-98 641,-139 760,-139 760,-98 641,-98"/>
<text text-anchor="start" x="649" y="-127" font-family="Helvetica,sans-Serif" font-size="10.00">automaton::core::interop</text>
<text text-anchor="start" x="649" y="-116" font-family="Helvetica,sans-Serif" font-size="10.00">::ethereum::create_new</text>
<text text-anchor="middle" x="700.5" y="-105" font-family="Helvetica,sans-Serif" font-size="10.00">_curl_struct</text>
</a>
</g>
</g>
<!-- Node4&#45;&gt;Node5 -->
<g id="edge4" class="edge">
<title>Node4&#45;&gt;Node5</title>
<path fill="none" stroke="midnightblue" d="M578.3,-79.54C594.68,-84.81 613.43,-90.84 631.21,-96.55"/>
<polygon fill="midnightblue" stroke="midnightblue" points="630.37,-99.96 640.96,-99.68 632.51,-93.29 630.37,-99.96"/>
</g>
<!-- Node7 -->
<g id="node7" class="node">
<title>Node7</title>
<g id="a_node7"><a xlink:href="../../d2/d91/namespaceautomaton_1_1core_1_1interop_1_1ethereum.html#ae95b2c75f0c9cacbf478ae3043f12aa6" target="_top" xlink:title=" ">
<polygon fill="white" stroke="black" points="626,-49.5 626,-79.5 775,-79.5 775,-49.5 626,-49.5"/>
<text text-anchor="start" x="634" y="-67.5" font-family="Helvetica,sans-Serif" font-size="10.00">automaton::core::interop</text>
<text text-anchor="middle" x="700.5" y="-56.5" font-family="Helvetica,sans-Serif" font-size="10.00">::ethereum::destroy_curl_struct</text>
</a>
</g>
</g>
<!-- Node4&#45;&gt;Node7 -->
<g id="edge6" class="edge">
<title>Node4&#45;&gt;Node7</title>
<path fill="none" stroke="midnightblue" d="M590.26,-64.5C598.49,-64.5 607.07,-64.5 615.66,-64.5"/>
<polygon fill="midnightblue" stroke="midnightblue" points="615.71,-68 625.71,-64.5 615.71,-61 615.71,-68"/>
</g>
<!-- Node8 -->
<g id="node8" class="node">
<title>Node8</title>
<g id="a_node8"><a xlink:href="../../d2/d91/namespaceautomaton_1_1core_1_1interop_1_1ethereum.html#aa85f9628d62873487fe0171a1554a1e4" target="_top" xlink:title=" ">
<polygon fill="white" stroke="black" points="638.5,-0.5 638.5,-30.5 762.5,-30.5 762.5,-0.5 638.5,-0.5"/>
<text text-anchor="start" x="646.5" y="-18.5" font-family="Helvetica,sans-Serif" font-size="10.00">automaton::core::interop</text>
<text text-anchor="middle" x="700.5" y="-7.5" font-family="Helvetica,sans-Serif" font-size="10.00">::ethereum::handle_result</text>
</a>
</g>
</g>
<!-- Node4&#45;&gt;Node8 -->
<g id="edge7" class="edge">
<title>Node4&#45;&gt;Node8</title>
<path fill="none" stroke="midnightblue" d="M583.28,-49.4C600.6,-44.34 620.09,-38.66 638.08,-33.42"/>
<polygon fill="midnightblue" stroke="midnightblue" points="639.27,-36.71 647.89,-30.55 637.31,-29.99 639.27,-36.71"/>
</g>
<!-- Node6 -->
<g id="node6" class="node">
<title>Node6</title>
<g id="a_node6"><a xlink:href="../../d2/d91/namespaceautomaton_1_1core_1_1interop_1_1ethereum.html#aa0f8322feba45dd6e4110c92397b2732" target="_top" xlink:title=" ">
<polygon fill="white" stroke="black" points="811,-103.5 811,-133.5 934,-133.5 934,-103.5 811,-103.5"/>
<text text-anchor="start" x="819" y="-121.5" font-family="Helvetica,sans-Serif" font-size="10.00">automaton::core::interop</text>
<text text-anchor="middle" x="872.5" y="-110.5" font-family="Helvetica,sans-Serif" font-size="10.00">::ethereum::curl_callback</text>
</a>
</g>
</g>
<!-- Node5&#45;&gt;Node6 -->
<g id="edge5" class="edge">
<title>Node5&#45;&gt;Node6</title>
<path fill="none" stroke="midnightblue" d="M760,-118.5C773.09,-118.5 787.11,-118.5 800.64,-118.5"/>
<polygon fill="midnightblue" stroke="midnightblue" points="800.86,-122 810.86,-118.5 800.86,-115 800.86,-122"/>
</g>
</g>
</svg>
