<?xml version="1.0" encoding="UTF-8" standalone="no"?>
<!DOCTYPE svg PUBLIC "-//W3C//DTD SVG 1.1//EN"
 "http://www.w3.org/Graphics/SVG/1.1/DTD/svg11.dtd">
<!-- Generated by graphviz version 2.42.3 ()
 -->
<!-- Title: automaton::tools::miner::sign Pages: 1 -->
<svg width="797pt" height="263pt"
 viewBox="0.00 0.00 797.00 262.50" xmlns="http://www.w3.org/2000/svg" xmlns:xlink="http://www.w3.org/1999/xlink">
<g id="graph0" class="graph" transform="scale(1 1) rotate(0) translate(4 258.5)">
<title>automaton::tools::miner::sign</title>
<polygon fill="white" stroke="transparent" points="-4,4 -4,-258.5 793,-258.5 793,4 -4,4"/>
<!-- Node1 -->
<g id="node1" class="node">
<title>Node1</title>
<g id="a_node1"><a xlink:title=" ">
<polygon fill="#bfbfbf" stroke="black" points="673,-131.5 673,-161.5 789,-161.5 789,-131.5 673,-131.5"/>
<text text-anchor="start" x="681" y="-149.5" font-family="Helvetica,sans-Serif" font-size="10.00">automaton::tools::miner</text>
<text text-anchor="middle" x="731" y="-138.5" font-family="Helvetica,sans-Serif" font-size="10.00">::sign</text>
</a>
</g>
</g>
<!-- Node2 -->
<g id="node2" class="node">
<title>Node2</title>
<g id="a_node2"><a xlink:href="../../d4/dd8/miner__main_8cc.html#a9d75bf2c716740369baf0c7dd1de1635" target="_top" xlink:title=" ">
<polygon fill="white" stroke="black" points="525,-231 525,-250 612,-250 612,-231 525,-231"/>
<text text-anchor="middle" x="568.5" y="-238" font-family="Helvetica,sans-Serif" font-size="10.00">check_and_sign</text>
</a>
</g>
</g>
<!-- Node1&#45;&gt;Node2 -->
<g id="edge1" class="edge">
<title>Node1&#45;&gt;Node2</title>
<path fill="none" stroke="midnightblue" d="M705.99,-168.33C688.04,-183.75 662.33,-203.98 637,-217.5 626.84,-222.92 615.16,-227.44 604.39,-230.99"/>
<polygon fill="midnightblue" stroke="midnightblue" points="708.43,-170.85 713.66,-161.63 703.83,-165.57 708.43,-170.85"/>
</g>
<!-- Node4 -->
<g id="node4" class="node">
<title>Node4</title>
<g id="a_node4"><a xlink:href="../../d2/d91/namespaceautomaton_1_1core_1_1interop_1_1ethereum.html#a4e999f5f941e39170753893811249a18" target="_top" xlink:title=" ">
<polygon fill="white" stroke="black" points="500,-177.5 500,-207.5 637,-207.5 637,-177.5 500,-177.5"/>
<text text-anchor="start" x="508" y="-195.5" font-family="Helvetica,sans-Serif" font-size="10.00">automaton::core::interop</text>
<text text-anchor="middle" x="568.5" y="-184.5" font-family="Helvetica,sans-Serif" font-size="10.00">::ethereum::check_and_sign</text>
</a>
</g>
</g>
<!-- Node1&#45;&gt;Node4 -->
<g id="edge3" class="edge">
<title>Node1&#45;&gt;Node4</title>
<path fill="none" stroke="midnightblue" d="M667.66,-164.37C652.53,-168.7 636.51,-173.29 621.9,-177.48"/>
<polygon fill="midnightblue" stroke="midnightblue" points="668.8,-167.68 677.45,-161.56 666.87,-160.95 668.8,-167.68"/>
</g>
<!-- Node6 -->
<g id="node6" class="node">
<title>Node6</title>
<g id="a_node6"><a xlink:href="../../d4/d57/eth__contract__curl__test_8cc.html#ae66f6b31b5ad750f1fe042a706a4e3d4" target="_top" xlink:title=" ">
<polygon fill="white" stroke="black" points="216.5,-137 216.5,-156 254.5,-156 254.5,-137 216.5,-137"/>
<text text-anchor="middle" x="235.5" y="-144" font-family="Helvetica,sans-Serif" font-size="10.00">main</text>
</a>
</g>
</g>
<!-- Node1&#45;&gt;Node6 -->
<g id="edge14" class="edge">
<title>Node1&#45;&gt;Node6</title>
<path fill="none" stroke="midnightblue" d="M662.84,-146.5C548.14,-146.5 320.52,-146.5 254.71,-146.5"/>
<polygon fill="midnightblue" stroke="midnightblue" points="662.91,-150 672.91,-146.5 662.91,-143 662.91,-150"/>
</g>
<!-- Node7 -->
<g id="node7" class="node">
<title>Node7</title>
<g id="a_node7"><a xlink:href="../../d2/d91/namespaceautomaton_1_1core_1_1interop_1_1ethereum.html#a617d29f4e99dd3dcb5e2a670dcaf1d69" target="_top" xlink:title=" ">
<polygon fill="white" stroke="black" points="509,-87.5 509,-117.5 628,-117.5 628,-87.5 509,-87.5"/>
<text text-anchor="start" x="517" y="-105.5" font-family="Helvetica,sans-Serif" font-size="10.00">automaton::core::interop</text>
<text text-anchor="middle" x="568.5" y="-94.5" font-family="Helvetica,sans-Serif" font-size="10.00">::ethereum::dec_to_i256</text>
</a>
</g>
</g>
<!-- Node1&#45;&gt;Node7 -->
<g id="edge6" class="edge">
<title>Node1&#45;&gt;Node7</title>
<path fill="none" stroke="midnightblue" d="M665.42,-128.8C651.8,-125.06 637.54,-121.15 624.31,-117.53"/>
<polygon fill="midnightblue" stroke="midnightblue" points="664.64,-132.21 675.21,-131.48 666.5,-125.46 664.64,-132.21"/>
</g>
<!-- Node11 -->
<g id="node11" class="node">
<title>Node11</title>
<g id="a_node11"><a xlink:href="../../d2/d91/namespaceautomaton_1_1core_1_1interop_1_1ethereum.html#a230e663c3b3dc90dd03e4cdd31a349bb" target="_top" xlink:title=" ">
<polygon fill="white" stroke="black" points="509,-19.5 509,-49.5 628,-49.5 628,-19.5 509,-19.5"/>
<text text-anchor="start" x="517" y="-37.5" font-family="Helvetica,sans-Serif" font-size="10.00">automaton::core::interop</text>
<text text-anchor="middle" x="568.5" y="-26.5" font-family="Helvetica,sans-Serif" font-size="10.00">::ethereum::i256_to_dec</text>
</a>
</g>
</g>
<!-- Node1&#45;&gt;Node11 -->
<g id="edge11" class="edge">
<title>Node1&#45;&gt;Node11</title>
<path fill="none" stroke="midnightblue" d="M701.47,-125.02C683.21,-111.44 658.92,-93.64 637,-78.5 622.73,-68.64 606.45,-58.01 593.45,-49.67"/>
<polygon fill="midnightblue" stroke="midnightblue" points="699.8,-128.15 709.91,-131.33 703.99,-122.54 699.8,-128.15"/>
</g>
<!-- Node3 -->
<g id="node3" class="node">
<title>Node3</title>
<g id="a_node3"><a xlink:href="../../d4/dd8/miner__main_8cc.html#a0ddf1224851353fc92bfbff6f499fa97" target="_top" xlink:title=" ">
<polygon fill="white" stroke="black" points="378.5,-235 378.5,-254 416.5,-254 416.5,-235 378.5,-235"/>
<text text-anchor="middle" x="397.5" y="-242" font-family="Helvetica,sans-Serif" font-size="10.00">main</text>
</a>
</g>
</g>
<!-- Node2&#45;&gt;Node3 -->
<g id="edge2" class="edge">
<title>Node2&#45;&gt;Node3</title>
<path fill="none" stroke="midnightblue" d="M514.76,-241.75C481.33,-242.54 440.14,-243.51 416.85,-244.07"/>
<polygon fill="midnightblue" stroke="midnightblue" points="514.94,-245.25 524.85,-241.51 514.77,-238.25 514.94,-245.25"/>
</g>
<!-- Node5 -->
<g id="node5" class="node">
<title>Node5</title>
<g id="a_node5"><a xlink:href="../../dd/da0/classautomaton_1_1core_1_1interop_1_1ethereum_1_1eth__transaction.html#abe1d02f403b67b699353c9a180c0cb2e" target="_top" xlink:title=" ">
<polygon fill="white" stroke="black" points="331,-175 331,-216 464,-216 464,-175 331,-175"/>
<text text-anchor="start" x="339" y="-204" font-family="Helvetica,sans-Serif" font-size="10.00">automaton::core::interop</text>
<text text-anchor="start" x="339" y="-193" font-family="Helvetica,sans-Serif" font-size="10.00">::ethereum::eth_transaction</text>
<text text-anchor="middle" x="397.5" y="-182" font-family="Helvetica,sans-Serif" font-size="10.00">::sign_tx</text>
</a>
</g>
</g>
<!-- Node4&#45;&gt;Node5 -->
<g id="edge4" class="edge">
<title>Node4&#45;&gt;Node5</title>
<path fill="none" stroke="midnightblue" d="M489.73,-193.88C481.16,-194.03 472.49,-194.19 464.08,-194.34"/>
<polygon fill="midnightblue" stroke="midnightblue" points="489.8,-197.38 499.74,-193.7 489.67,-190.38 489.8,-197.38"/>
</g>
<!-- Node5&#45;&gt;Node6 -->
<g id="edge5" class="edge">
<title>Node5&#45;&gt;Node6</title>
<path fill="none" stroke="midnightblue" d="M321.18,-172.43C296.47,-164.87 271.17,-157.12 254.74,-152.09"/>
<polygon fill="midnightblue" stroke="midnightblue" points="320.37,-175.85 330.96,-175.43 322.42,-169.15 320.37,-175.85"/>
</g>
<!-- Node7&#45;&gt;Node6 -->
<g id="edge10" class="edge">
<title>Node7&#45;&gt;Node6</title>
<path fill="none" stroke="midnightblue" d="M498.54,-110.86C451.34,-116.68 387.34,-124.75 331,-132.5 304.38,-136.16 273.61,-140.79 254.6,-143.7"/>
<polygon fill="midnightblue" stroke="midnightblue" points="499.16,-114.31 508.65,-109.62 498.3,-107.36 499.16,-114.31"/>
</g>
<!-- Node8 -->
<g id="node8" class="node">
<title>Node8</title>
<g id="a_node8"><a xlink:href="../../d2/d91/namespaceautomaton_1_1core_1_1interop_1_1ethereum.html#a1785a882c65e47ef40d0587235f82275" target="_top" xlink:title=" ">
<polygon fill="white" stroke="black" points="332.5,-49.5 332.5,-79.5 462.5,-79.5 462.5,-49.5 332.5,-49.5"/>
<text text-anchor="start" x="340.5" y="-67.5" font-family="Helvetica,sans-Serif" font-size="10.00">automaton::core::interop</text>
<text text-anchor="middle" x="397.5" y="-56.5" font-family="Helvetica,sans-Serif" font-size="10.00">::ethereum::encode_param</text>
</a>
</g>
</g>
<!-- Node7&#45;&gt;Node8 -->
<g id="edge7" class="edge">
<title>Node7&#45;&gt;Node8</title>
<path fill="none" stroke="midnightblue" d="M498.89,-87.07C486.87,-84.37 474.4,-81.57 462.51,-78.89"/>
<polygon fill="midnightblue" stroke="midnightblue" points="498.34,-90.54 508.87,-89.32 499.88,-83.71 498.34,-90.54"/>
</g>
<!-- Node9 -->
<g id="node9" class="node">
<title>Node9</title>
<g id="a_node9"><a xlink:href="../../d2/d91/namespaceautomaton_1_1core_1_1interop_1_1ethereum.html#a47ab7911ff4d29153e849da3691c26b6" target="_top" xlink:title=" ">
<polygon fill="white" stroke="black" points="176,-49.5 176,-79.5 295,-79.5 295,-49.5 176,-49.5"/>
<text text-anchor="start" x="184" y="-67.5" font-family="Helvetica,sans-Serif" font-size="10.00">automaton::core::interop</text>
<text text-anchor="middle" x="235.5" y="-56.5" font-family="Helvetica,sans-Serif" font-size="10.00">::ethereum::encode</text>
</a>
</g>
</g>
<!-- Node8&#45;&gt;Node9 -->
<g id="edge8" class="edge">
<title>Node8&#45;&gt;Node9</title>
<path fill="none" stroke="midnightblue" d="M322.2,-64.5C313.15,-64.5 304.01,-64.5 295.23,-64.5"/>
<polygon fill="midnightblue" stroke="midnightblue" points="322.34,-68 332.34,-64.5 322.34,-61 322.34,-68"/>
</g>
<!-- Node10 -->
<g id="node10" class="node">
<title>Node10</title>
<g id="a_node10"><a xlink:href="../../d4/de7/classautomaton_1_1core_1_1interop_1_1ethereum_1_1eth__contract.html#adfdba68e86eb54b19df0a9d60bf98131" target="_top" xlink:title=" ">
<polygon fill="white" stroke="black" points="0,-49.5 0,-79.5 140,-79.5 140,-49.5 0,-49.5"/>
<text text-anchor="start" x="8" y="-67.5" font-family="Helvetica,sans-Serif" font-size="10.00">automaton::core::interop</text>
<text text-anchor="middle" x="70" y="-56.5" font-family="Helvetica,sans-Serif" font-size="10.00">::ethereum::eth_contract::call</text>
</a>
</g>
</g>
<!-- Node9&#45;&gt;Node10 -->
<g id="edge9" class="edge">
<title>Node9&#45;&gt;Node10</title>
<path fill="none" stroke="midnightblue" d="M165.7,-64.5C157.21,-64.5 148.52,-64.5 140.03,-64.5"/>
<polygon fill="midnightblue" stroke="midnightblue" points="165.93,-68 175.93,-64.5 165.93,-61 165.93,-68"/>
</g>
<!-- Node12 -->
<g id="node12" class="node">
<title>Node12</title>
<g id="a_node12"><a xlink:href="../../d2/d91/namespaceautomaton_1_1core_1_1interop_1_1ethereum.html#a55009f57edd69b295860a7b8b685ab2b" target="_top" xlink:title=" ">
<polygon fill="white" stroke="black" points="332.5,-0.5 332.5,-30.5 462.5,-30.5 462.5,-0.5 332.5,-0.5"/>
<text text-anchor="start" x="340.5" y="-18.5" font-family="Helvetica,sans-Serif" font-size="10.00">automaton::core::interop</text>
<text text-anchor="middle" x="397.5" y="-7.5" font-family="Helvetica,sans-Serif" font-size="10.00">::ethereum::decode_param</text>
</a>
</g>
</g>
<!-- Node11&#45;&gt;Node12 -->
<g id="edge12" class="edge">
<title>Node11&#45;&gt;Node12</title>
<path fill="none" stroke="midnightblue" d="M498.89,-26.79C486.87,-25.44 474.4,-24.03 462.51,-22.7"/>
<polygon fill="midnightblue" stroke="midnightblue" points="498.54,-30.27 508.87,-27.91 499.32,-23.31 498.54,-30.27"/>
</g>
<!-- Node13 -->
<g id="node13" class="node">
<title>Node13</title>
<g id="a_node13"><a xlink:href="../../d2/d91/namespaceautomaton_1_1core_1_1interop_1_1ethereum.html#abbec3fe45e7b6c13c5d534e5dfc4543b" target="_top" xlink:title=" ">
<polygon fill="white" stroke="black" points="176,-0.5 176,-30.5 295,-30.5 295,-0.5 176,-0.5"/>
<text text-anchor="start" x="184" y="-18.5" font-family="Helvetica,sans-Serif" font-size="10.00">automaton::core::interop</text>
<text text-anchor="middle" x="235.5" y="-7.5" font-family="Helvetica,sans-Serif" font-size="10.00">::ethereum::decode</text>
</a>
</g>
</g>
<!-- Node12&#45;&gt;Node13 -->
<g id="edge13" class="edge">
<title>Node12&#45;&gt;Node13</title>
<path fill="none" stroke="midnightblue" d="M322.2,-15.5C313.15,-15.5 304.01,-15.5 295.23,-15.5"/>
<polygon fill="midnightblue" stroke="midnightblue" points="322.34,-19 332.34,-15.5 322.34,-12 322.34,-19"/>
</g>
</g>
</svg>
