<?xml version="1.0" encoding="UTF-8" standalone="no"?>
<!DOCTYPE svg PUBLIC "-//W3C//DTD SVG 1.1//EN"
 "http://www.w3.org/Graphics/SVG/1.1/DTD/svg11.dtd">
<!-- Generated by graphviz version 2.44.0 ()
 -->
<!-- Title: automaton::tools::miner::sign Pages: 1 -->
<svg width="776pt" height="166pt"
 viewBox="0.00 0.00 776.00 165.50" xmlns="http://www.w3.org/2000/svg" xmlns:xlink="http://www.w3.org/1999/xlink">
<g id="graph0" class="graph" transform="scale(1 1) rotate(0) translate(4 161.5)">
<title>automaton::tools::miner::sign</title>
<polygon fill="white" stroke="transparent" points="-4,4 -4,-161.5 772,-161.5 772,4 -4,4"/>
<!-- Node1 -->
<g id="node1" class="node">
<title>Node1</title>
<g id="a_node1"><a xlink:title=" ">
<polygon fill="#bfbfbf" stroke="black" points="652,-66.5 652,-96.5 768,-96.5 768,-66.5 652,-66.5"/>
<text text-anchor="start" x="660" y="-84.5" font-family="Helvetica,sans-Serif" font-size="10.00">automaton::tools::miner</text>
<text text-anchor="middle" x="710" y="-73.5" font-family="Helvetica,sans-Serif" font-size="10.00">::sign</text>
</a>
</g>
</g>
<!-- Node2 -->
<g id="node2" class="node">
<title>Node2</title>
<g id="a_node2"><a xlink:href="../../d4/dd8/miner__main_8cc.html#a9d75bf2c716740369baf0c7dd1de1635" target="_top" xlink:title=" ">
<polygon fill="white" stroke="black" points="513,-138 513,-157 600,-157 600,-138 513,-138"/>
<text text-anchor="middle" x="556.5" y="-145" font-family="Helvetica,sans-Serif" font-size="10.00">check_and_sign</text>
</a>
</g>
</g>
<!-- Node1&#45;&gt;Node2 -->
<g id="edge1" class="edge">
<title>Node1&#45;&gt;Node2</title>
<path fill="none" stroke="midnightblue" d="M672.83,-101.41C655.86,-110.33 635.19,-120.59 616,-128.5 607.71,-131.92 598.56,-135.14 590.01,-137.92"/>
<polygon fill="midnightblue" stroke="midnightblue" points="674.66,-104.4 681.85,-96.62 671.37,-98.22 674.66,-104.4"/>
</g>
<!-- Node4 -->
<g id="node4" class="node">
<title>Node4</title>
<g id="a_node4"><a xlink:href="../../d2/d91/namespaceautomaton_1_1core_1_1interop_1_1ethereum.html#a617d29f4e99dd3dcb5e2a670dcaf1d69" target="_top" xlink:title=" ">
<polygon fill="white" stroke="black" points="497,-88.5 497,-118.5 616,-118.5 616,-88.5 497,-88.5"/>
<text text-anchor="start" x="505" y="-106.5" font-family="Helvetica,sans-Serif" font-size="10.00">automaton::core::interop</text>
<text text-anchor="middle" x="556.5" y="-95.5" font-family="Helvetica,sans-Serif" font-size="10.00">::ethereum::dec_to_i256</text>
</a>
</g>
</g>
<!-- Node1&#45;&gt;Node4 -->
<g id="edge3" class="edge">
<title>Node1&#45;&gt;Node4</title>
<path fill="none" stroke="midnightblue" d="M641.78,-91.26C633.22,-92.5 624.52,-93.77 616.12,-94.99"/>
<polygon fill="midnightblue" stroke="midnightblue" points="642.33,-94.72 651.72,-89.82 641.33,-87.79 642.33,-94.72"/>
</g>
<!-- Node8 -->
<g id="node8" class="node">
<title>Node8</title>
<g id="a_node8"><a xlink:href="../../d4/d57/eth__contract__curl__test_8cc.html#ae66f6b31b5ad750f1fe042a706a4e3d4" target="_top" xlink:title=" ">
<polygon fill="white" stroke="black" points="377,-50 377,-69 415,-69 415,-50 377,-50"/>
<text text-anchor="middle" x="396" y="-57" font-family="Helvetica,sans-Serif" font-size="10.00">main</text>
</a>
</g>
</g>
<!-- Node1&#45;&gt;Node8 -->
<g id="edge11" class="edge">
<title>Node1&#45;&gt;Node8</title>
<path fill="none" stroke="midnightblue" d="M641.35,-76.73C568.78,-71.61 458.13,-63.81 415.05,-60.77"/>
<polygon fill="midnightblue" stroke="midnightblue" points="641.55,-80.25 651.77,-77.46 642.05,-73.27 641.55,-80.25"/>
</g>
<!-- Node9 -->
<g id="node9" class="node">
<title>Node9</title>
<g id="a_node9"><a xlink:href="../../d2/d91/namespaceautomaton_1_1core_1_1interop_1_1ethereum.html#a230e663c3b3dc90dd03e4cdd31a349bb" target="_top" xlink:title=" ">
<polygon fill="white" stroke="black" points="497,-0.5 497,-30.5 616,-30.5 616,-0.5 497,-0.5"/>
<text text-anchor="start" x="505" y="-18.5" font-family="Helvetica,sans-Serif" font-size="10.00">automaton::core::interop</text>
<text text-anchor="middle" x="556.5" y="-7.5" font-family="Helvetica,sans-Serif" font-size="10.00">::ethereum::i256_to_dec</text>
</a>
</g>
</g>
<!-- Node1&#45;&gt;Node9 -->
<g id="edge8" class="edge">
<title>Node1&#45;&gt;Node9</title>
<path fill="none" stroke="midnightblue" d="M664.96,-62.31C641.76,-52.21 613.72,-39.99 592.1,-30.57"/>
<polygon fill="midnightblue" stroke="midnightblue" points="663.68,-65.57 674.24,-66.36 666.47,-59.16 663.68,-65.57"/>
</g>
<!-- Node3 -->
<g id="node3" class="node">
<title>Node3</title>
<g id="a_node3"><a xlink:href="../../d4/dd8/miner__main_8cc.html#a0ddf1224851353fc92bfbff6f499fa97" target="_top" xlink:title=" ">
<polygon fill="white" stroke="black" points="377,-138 377,-157 415,-157 415,-138 377,-138"/>
<text text-anchor="middle" x="396" y="-145" font-family="Helvetica,sans-Serif" font-size="10.00">main</text>
</a>
</g>
</g>
<!-- Node2&#45;&gt;Node3 -->
<g id="edge2" class="edge">
<title>Node2&#45;&gt;Node3</title>
<path fill="none" stroke="midnightblue" d="M502.61,-147.5C472.37,-147.5 436.36,-147.5 415.17,-147.5"/>
<polygon fill="midnightblue" stroke="midnightblue" points="502.61,-151 512.61,-147.5 502.61,-144 502.61,-151"/>
</g>
<!-- Node5 -->
<g id="node5" class="node">
<title>Node5</title>
<g id="a_node5"><a xlink:href="../../d2/d91/namespaceautomaton_1_1core_1_1interop_1_1ethereum.html#a1785a882c65e47ef40d0587235f82275" target="_top" xlink:title=" ">
<polygon fill="white" stroke="black" points="331,-88.5 331,-118.5 461,-118.5 461,-88.5 331,-88.5"/>
<text text-anchor="start" x="339" y="-106.5" font-family="Helvetica,sans-Serif" font-size="10.00">automaton::core::interop</text>
<text text-anchor="middle" x="396" y="-95.5" font-family="Helvetica,sans-Serif" font-size="10.00">::ethereum::encode_param</text>
</a>
</g>
</g>
<!-- Node4&#45;&gt;Node5 -->
<g id="edge4" class="edge">
<title>Node4&#45;&gt;Node5</title>
<path fill="none" stroke="midnightblue" d="M486.7,-103.5C478.23,-103.5 469.59,-103.5 461.19,-103.5"/>
<polygon fill="midnightblue" stroke="midnightblue" points="486.93,-107 496.93,-103.5 486.93,-100 486.93,-107"/>
</g>
<!-- Node4&#45;&gt;Node8 -->
<g id="edge7" class="edge">
<title>Node4&#45;&gt;Node8</title>
<path fill="none" stroke="midnightblue" d="M491.4,-85.71C463.89,-78.07 433.85,-69.73 415.22,-64.56"/>
<polygon fill="midnightblue" stroke="midnightblue" points="490.82,-89.18 501.4,-88.48 492.7,-82.43 490.82,-89.18"/>
</g>
<!-- Node6 -->
<g id="node6" class="node">
<title>Node6</title>
<g id="a_node6"><a xlink:href="../../d2/d91/namespaceautomaton_1_1core_1_1interop_1_1ethereum.html#a47ab7911ff4d29153e849da3691c26b6" target="_top" xlink:title=" ">
<polygon fill="white" stroke="black" points="176,-88.5 176,-118.5 295,-118.5 295,-88.5 176,-88.5"/>
<text text-anchor="start" x="184" y="-106.5" font-family="Helvetica,sans-Serif" font-size="10.00">automaton::core::interop</text>
<text text-anchor="middle" x="235.5" y="-95.5" font-family="Helvetica,sans-Serif" font-size="10.00">::ethereum::encode</text>
</a>
</g>
</g>
<!-- Node5&#45;&gt;Node6 -->
<g id="edge5" class="edge">
<title>Node5&#45;&gt;Node6</title>
<path fill="none" stroke="midnightblue" d="M320.9,-103.5C312.25,-103.5 303.52,-103.5 295.12,-103.5"/>
<polygon fill="midnightblue" stroke="midnightblue" points="320.99,-107 330.99,-103.5 320.99,-100 320.99,-107"/>
</g>
<!-- Node7 -->
<g id="node7" class="node">
<title>Node7</title>
<g id="a_node7"><a xlink:href="../../d4/de7/classautomaton_1_1core_1_1interop_1_1ethereum_1_1eth__contract.html#a06c060597ef2f9c3255fa00e8b716460" target="_top" xlink:title=" ">
<polygon fill="white" stroke="black" points="0,-88.5 0,-118.5 140,-118.5 140,-88.5 0,-88.5"/>
<text text-anchor="start" x="8" y="-106.5" font-family="Helvetica,sans-Serif" font-size="10.00">automaton::core::interop</text>
<text text-anchor="middle" x="70" y="-95.5" font-family="Helvetica,sans-Serif" font-size="10.00">::ethereum::eth_contract::call</text>
</a>
</g>
</g>
<!-- Node6&#45;&gt;Node7 -->
<g id="edge6" class="edge">
<title>Node6&#45;&gt;Node7</title>
<path fill="none" stroke="midnightblue" d="M165.7,-103.5C157.21,-103.5 148.52,-103.5 140.03,-103.5"/>
<polygon fill="midnightblue" stroke="midnightblue" points="165.93,-107 175.93,-103.5 165.93,-100 165.93,-107"/>
</g>
<!-- Node10 -->
<g id="node10" class="node">
<title>Node10</title>
<g id="a_node10"><a xlink:href="../../d2/d91/namespaceautomaton_1_1core_1_1interop_1_1ethereum.html#a55009f57edd69b295860a7b8b685ab2b" target="_top" xlink:title=" ">
<polygon fill="white" stroke="black" points="331,-0.5 331,-30.5 461,-30.5 461,-0.5 331,-0.5"/>
<text text-anchor="start" x="339" y="-18.5" font-family="Helvetica,sans-Serif" font-size="10.00">automaton::core::interop</text>
<text text-anchor="middle" x="396" y="-7.5" font-family="Helvetica,sans-Serif" font-size="10.00">::ethereum::decode_param</text>
</a>
</g>
</g>
<!-- Node9&#45;&gt;Node10 -->
<g id="edge9" class="edge">
<title>Node9&#45;&gt;Node10</title>
<path fill="none" stroke="midnightblue" d="M486.7,-15.5C478.23,-15.5 469.59,-15.5 461.19,-15.5"/>
<polygon fill="midnightblue" stroke="midnightblue" points="486.93,-19 496.93,-15.5 486.93,-12 486.93,-19"/>
</g>
<!-- Node11 -->
<g id="node11" class="node">
<title>Node11</title>
<g id="a_node11"><a xlink:href="../../d2/d91/namespaceautomaton_1_1core_1_1interop_1_1ethereum.html#abbec3fe45e7b6c13c5d534e5dfc4543b" target="_top" xlink:title=" ">
<polygon fill="white" stroke="black" points="176,-0.5 176,-30.5 295,-30.5 295,-0.5 176,-0.5"/>
<text text-anchor="start" x="184" y="-18.5" font-family="Helvetica,sans-Serif" font-size="10.00">automaton::core::interop</text>
<text text-anchor="middle" x="235.5" y="-7.5" font-family="Helvetica,sans-Serif" font-size="10.00">::ethereum::decode</text>
</a>
</g>
</g>
<!-- Node10&#45;&gt;Node11 -->
<g id="edge10" class="edge">
<title>Node10&#45;&gt;Node11</title>
<path fill="none" stroke="midnightblue" d="M320.9,-15.5C312.25,-15.5 303.52,-15.5 295.12,-15.5"/>
<polygon fill="midnightblue" stroke="midnightblue" points="320.99,-19 330.99,-15.5 320.99,-12 320.99,-19"/>
</g>
</g>
</svg>
