<?xml version="1.0" encoding="UTF-8" standalone="no"?>
<!DOCTYPE svg PUBLIC "-//W3C//DTD SVG 1.1//EN"
 "http://www.w3.org/Graphics/SVG/1.1/DTD/svg11.dtd">
<!-- Generated by graphviz version 2.44.0 ()
 -->
<!-- Title: protobuf_schema.cc Pages: 1 -->
<svg width="2233pt" height="419pt"
 viewBox="0.00 0.00 2233.00 419.00" xmlns="http://www.w3.org/2000/svg" xmlns:xlink="http://www.w3.org/1999/xlink">
<g id="graph0" class="graph" transform="scale(1 1) rotate(0) translate(4 415)">
<title>protobuf_schema.cc</title>
<polygon fill="white" stroke="transparent" points="-4,4 -4,-415 2229,-415 2229,4 -4,4"/>
<!-- Node1 -->
<g id="node1" class="node">
<title>Node1</title>
<g id="a_node1"><a xlink:title=" ">
<polygon fill="#bfbfbf" stroke="black" points="730.5,-391.5 730.5,-410.5 834.5,-410.5 834.5,-391.5 730.5,-391.5"/>
<text text-anchor="middle" x="782.5" y="-398.5" font-family="Helvetica,sans-Serif" font-size="10.00">protobuf_schema.cc</text>
</a>
</g>
</g>
<!-- Node2 -->
<g id="node2" class="node">
<title>Node2</title>
<g id="a_node2"><a xlink:href="../../d0/dd3/protobuf__schema_8h.html" target="_top" xlink:title=" ">
<polygon fill="white" stroke="black" points="512.5,-257.5 512.5,-287.5 652.5,-287.5 652.5,-257.5 512.5,-257.5"/>
<text text-anchor="start" x="520.5" y="-275.5" font-family="Helvetica,sans-Serif" font-size="10.00">automaton/core/data</text>
<text text-anchor="middle" x="582.5" y="-264.5" font-family="Helvetica,sans-Serif" font-size="10.00">/protobuf/protobuf_schema.h</text>
</a>
</g>
</g>
<!-- Node1&#45;&gt;Node2 -->
<g id="edge1" class="edge">
<title>Node1&#45;&gt;Node2</title>
<path fill="none" stroke="midnightblue" d="M768.76,-391.31C736.97,-371.2 657.73,-321.08 613.53,-293.13"/>
<polygon fill="midnightblue" stroke="midnightblue" points="615.25,-290.07 604.93,-287.68 611.51,-295.99 615.25,-290.07"/>
</g>
<!-- Node3 -->
<g id="node3" class="node">
<title>Node3</title>
<g id="a_node3"><a xlink:title=" ">
<polygon fill="white" stroke="#bfbfbf" points="257,-190.5 257,-220.5 380,-220.5 380,-190.5 257,-190.5"/>
<text text-anchor="start" x="265" y="-208.5" font-family="Helvetica,sans-Serif" font-size="10.00">google/protobuf/compiler</text>
<text text-anchor="middle" x="318.5" y="-197.5" font-family="Helvetica,sans-Serif" font-size="10.00">/parser.h</text>
</a>
</g>
</g>
<!-- Node1&#45;&gt;Node3 -->
<g id="edge17" class="edge">
<title>Node1&#45;&gt;Node3</title>
<path fill="none" stroke="midnightblue" d="M758.28,-391.35C733.76,-382.52 694.83,-368.25 661.5,-355 550.82,-310.97 422.5,-253.73 358.75,-224.86"/>
<polygon fill="midnightblue" stroke="midnightblue" points="360.01,-221.59 349.46,-220.64 357.12,-227.96 360.01,-221.59"/>
</g>
<!-- Node16 -->
<g id="node16" class="node">
<title>Node16</title>
<g id="a_node16"><a xlink:title=" ">
<polygon fill="white" stroke="#bfbfbf" points="733,-324.5 733,-354.5 832,-354.5 832,-324.5 733,-324.5"/>
<text text-anchor="start" x="741" y="-342.5" font-family="Helvetica,sans-Serif" font-size="10.00">google/protobuf/util</text>
<text text-anchor="middle" x="782.5" y="-331.5" font-family="Helvetica,sans-Serif" font-size="10.00">/json_util.h</text>
</a>
</g>
</g>
<!-- Node1&#45;&gt;Node16 -->
<g id="edge18" class="edge">
<title>Node1&#45;&gt;Node16</title>
<path fill="none" stroke="midnightblue" d="M782.5,-391.48C782.5,-384.47 782.5,-374.19 782.5,-364.7"/>
<polygon fill="midnightblue" stroke="midnightblue" points="786,-364.52 782.5,-354.52 779,-364.52 786,-364.52"/>
</g>
<!-- Node17 -->
<g id="node17" class="node">
<title>Node17</title>
<g id="a_node17"><a xlink:href="../../dc/dd5/protobuf__factory_8h.html" target="_top" xlink:title=" ">
<polygon fill="white" stroke="black" points="891,-324.5 891,-354.5 1026,-354.5 1026,-324.5 891,-324.5"/>
<text text-anchor="start" x="899" y="-342.5" font-family="Helvetica,sans-Serif" font-size="10.00">automaton/core/data</text>
<text text-anchor="middle" x="958.5" y="-331.5" font-family="Helvetica,sans-Serif" font-size="10.00">/protobuf/protobuf_factory.h</text>
</a>
</g>
</g>
<!-- Node1&#45;&gt;Node17 -->
<g id="edge19" class="edge">
<title>Node1&#45;&gt;Node17</title>
<path fill="none" stroke="midnightblue" d="M807.72,-391.48C833.56,-382.74 874.48,-368.91 907.17,-357.86"/>
<polygon fill="midnightblue" stroke="midnightblue" points="908.67,-361.04 917.02,-354.52 906.43,-354.41 908.67,-361.04"/>
</g>
<!-- Node25 -->
<g id="node25" class="node">
<title>Node25</title>
<g id="a_node25"><a xlink:href="../../dc/dac/io_8h.html" target="_top" xlink:title=" ">
<polygon fill="white" stroke="black" points="1846,-330 1846,-349 1959,-349 1959,-330 1846,-330"/>
<text text-anchor="middle" x="1902.5" y="-337" font-family="Helvetica,sans-Serif" font-size="10.00">automaton/core/io/io.h</text>
</a>
</g>
</g>
<!-- Node1&#45;&gt;Node25 -->
<g id="edge61" class="edge">
<title>Node1&#45;&gt;Node25</title>
<path fill="none" stroke="midnightblue" d="M834.65,-397.23C1017.79,-387.5 1631.53,-354.9 1835.76,-344.05"/>
<polygon fill="midnightblue" stroke="midnightblue" points="1835.95,-347.54 1845.75,-343.51 1835.58,-340.55 1835.95,-347.54"/>
</g>
<!-- Node2&#45;&gt;Node3 -->
<g id="edge2" class="edge">
<title>Node2&#45;&gt;Node3</title>
<path fill="none" stroke="midnightblue" d="M525.54,-257.48C484.48,-247.37 428.91,-233.68 385.68,-223.04"/>
<polygon fill="midnightblue" stroke="midnightblue" points="386.36,-219.6 375.82,-220.61 384.69,-226.4 386.36,-219.6"/>
</g>
<!-- Node4 -->
<g id="node4" class="node">
<title>Node4</title>
<g id="a_node4"><a xlink:title=" ">
<polygon fill="white" stroke="#bfbfbf" points="539,-196 539,-215 676,-215 676,-196 539,-196"/>
<text text-anchor="middle" x="607.5" y="-203" font-family="Helvetica,sans-Serif" font-size="10.00">google/protobuf/descriptor.h</text>
</a>
</g>
</g>
<!-- Node2&#45;&gt;Node4 -->
<g id="edge3" class="edge">
<title>Node2&#45;&gt;Node4</title>
<path fill="none" stroke="midnightblue" d="M587.93,-257.4C591.63,-247.76 596.58,-234.91 600.57,-224.54"/>
<polygon fill="midnightblue" stroke="midnightblue" points="603.84,-225.78 604.16,-215.19 597.3,-223.27 603.84,-225.78"/>
</g>
<!-- Node5 -->
<g id="node5" class="node">
<title>Node5</title>
<g id="a_node5"><a xlink:title=" ">
<polygon fill="white" stroke="#bfbfbf" points="807,-196 807,-215 956,-215 956,-196 807,-196"/>
<text text-anchor="middle" x="881.5" y="-203" font-family="Helvetica,sans-Serif" font-size="10.00">google/protobuf/descriptor.pb.h</text>
</a>
</g>
</g>
<!-- Node2&#45;&gt;Node5 -->
<g id="edge4" class="edge">
<title>Node2&#45;&gt;Node5</title>
<path fill="none" stroke="midnightblue" d="M647.01,-257.48C702.59,-245.4 781.62,-228.21 832.23,-217.21"/>
<polygon fill="midnightblue" stroke="midnightblue" points="833.24,-220.57 842.27,-215.03 831.76,-213.73 833.24,-220.57"/>
</g>
<!-- Node6 -->
<g id="node6" class="node">
<title>Node6</title>
<g id="a_node6"><a xlink:title=" ">
<polygon fill="white" stroke="#bfbfbf" points="398.5,-190.5 398.5,-220.5 520.5,-220.5 520.5,-190.5 398.5,-190.5"/>
<text text-anchor="start" x="406.5" y="-208.5" font-family="Helvetica,sans-Serif" font-size="10.00">google/protobuf/dynamic</text>
<text text-anchor="middle" x="459.5" y="-197.5" font-family="Helvetica,sans-Serif" font-size="10.00">_message.h</text>
</a>
</g>
</g>
<!-- Node2&#45;&gt;Node6 -->
<g id="edge5" class="edge">
<title>Node2&#45;&gt;Node6</title>
<path fill="none" stroke="midnightblue" d="M555.81,-257.4C538,-247.98 514.39,-235.5 495,-225.26"/>
<polygon fill="midnightblue" stroke="midnightblue" points="496.62,-222.15 486.14,-220.58 493.35,-228.34 496.62,-222.15"/>
</g>
<!-- Node7 -->
<g id="node7" class="node">
<title>Node7</title>
<g id="a_node7"><a xlink:title=" ">
<polygon fill="white" stroke="#bfbfbf" points="694.5,-190.5 694.5,-220.5 788.5,-220.5 788.5,-190.5 694.5,-190.5"/>
<text text-anchor="start" x="702.5" y="-208.5" font-family="Helvetica,sans-Serif" font-size="10.00">google/protobuf/io</text>
<text text-anchor="middle" x="741.5" y="-197.5" font-family="Helvetica,sans-Serif" font-size="10.00">/tokenizer.h</text>
</a>
</g>
</g>
<!-- Node2&#45;&gt;Node7 -->
<g id="edge6" class="edge">
<title>Node2&#45;&gt;Node7</title>
<path fill="none" stroke="midnightblue" d="M617,-257.4C640.65,-247.73 672.22,-234.82 697.65,-224.43"/>
<polygon fill="midnightblue" stroke="midnightblue" points="699.14,-227.6 707.07,-220.58 696.49,-221.12 699.14,-227.6"/>
</g>
<!-- Node8 -->
<g id="node8" class="node">
<title>Node8</title>
<g id="a_node8"><a xlink:title=" ">
<polygon fill="white" stroke="#bfbfbf" points="974,-190.5 974,-220.5 1103,-220.5 1103,-190.5 974,-190.5"/>
<text text-anchor="start" x="982" y="-208.5" font-family="Helvetica,sans-Serif" font-size="10.00">google/protobuf/io</text>
<text text-anchor="middle" x="1038.5" y="-197.5" font-family="Helvetica,sans-Serif" font-size="10.00">/zero_copy_stream_impl.h</text>
</a>
</g>
</g>
<!-- Node2&#45;&gt;Node8 -->
<g id="edge7" class="edge">
<title>Node2&#45;&gt;Node8</title>
<path fill="none" stroke="midnightblue" d="M652.75,-263.54C727.36,-254.78 848.95,-239.66 963.94,-221.03"/>
<polygon fill="midnightblue" stroke="midnightblue" points="964.67,-224.45 973.97,-219.39 963.54,-217.55 964.67,-224.45"/>
</g>
<!-- Node9 -->
<g id="node9" class="node">
<title>Node9</title>
<g id="a_node9"><a xlink:title=" ">
<polygon fill="white" stroke="#bfbfbf" points="1160,-196 1160,-215 1273,-215 1273,-196 1160,-196"/>
<text text-anchor="middle" x="1216.5" y="-203" font-family="Helvetica,sans-Serif" font-size="10.00">google/protobuf/map.h</text>
</a>
</g>
</g>
<!-- Node2&#45;&gt;Node9 -->
<g id="edge8" class="edge">
<title>Node2&#45;&gt;Node9</title>
<path fill="none" stroke="midnightblue" d="M652.76,-264.89C791.67,-251.8 1090.03,-223.64 1112.5,-221 1124.53,-219.59 1137.31,-217.94 1149.65,-216.26"/>
<polygon fill="midnightblue" stroke="midnightblue" points="1150.46,-219.68 1159.89,-214.85 1149.5,-212.75 1150.46,-219.68"/>
</g>
<!-- Node10 -->
<g id="node10" class="node">
<title>Node10</title>
<g id="a_node10"><a xlink:title=" ">
<polygon fill="white" stroke="#bfbfbf" points="1291.5,-196 1291.5,-215 1425.5,-215 1425.5,-196 1291.5,-196"/>
<text text-anchor="middle" x="1358.5" y="-203" font-family="Helvetica,sans-Serif" font-size="10.00">google/protobuf/message.h</text>
</a>
</g>
</g>
<!-- Node2&#45;&gt;Node10 -->
<g id="edge9" class="edge">
<title>Node2&#45;&gt;Node10</title>
<path fill="none" stroke="midnightblue" d="M652.68,-264.53C679.24,-261.99 709.75,-259.21 737.5,-257 979.48,-237.69 1041.72,-251.8 1282.5,-221 1291.03,-219.91 1300.04,-218.46 1308.76,-216.9"/>
<polygon fill="midnightblue" stroke="midnightblue" points="1309.62,-220.29 1318.81,-215.02 1308.34,-213.41 1309.62,-220.29"/>
</g>
<!-- Node11 -->
<g id="node11" class="node">
<title>Node11</title>
<g id="a_node11"><a xlink:title=" ">
<polygon fill="white" stroke="#bfbfbf" points="1106,-62 1106,-81 1157,-81 1157,-62 1106,-62"/>
<text text-anchor="middle" x="1131.5" y="-69" font-family="Helvetica,sans-Serif" font-size="10.00">memory</text>
</a>
</g>
</g>
<!-- Node2&#45;&gt;Node11 -->
<g id="edge10" class="edge">
<title>Node2&#45;&gt;Node11</title>
<path fill="none" stroke="midnightblue" d="M512.15,-272.34C416.32,-271.81 252.33,-264.38 214.5,-221 205.45,-210.62 205.4,-200.34 214.5,-190 273.91,-122.5 932.02,-83.14 1095.11,-74.37"/>
<polygon fill="midnightblue" stroke="midnightblue" points="1095.75,-77.84 1105.55,-73.82 1095.38,-70.85 1095.75,-77.84"/>
</g>
<!-- Node12 -->
<g id="node12" class="node">
<title>Node12</title>
<g id="a_node12"><a xlink:title=" ">
<polygon fill="white" stroke="#bfbfbf" points="1418,-0.5 1418,-19.5 1459,-19.5 1459,-0.5 1418,-0.5"/>
<text text-anchor="middle" x="1438.5" y="-7.5" font-family="Helvetica,sans-Serif" font-size="10.00">string</text>
</a>
</g>
</g>
<!-- Node2&#45;&gt;Node12 -->
<g id="edge11" class="edge">
<title>Node2&#45;&gt;Node12</title>
<path fill="none" stroke="midnightblue" d="M512.26,-267.05C408.54,-259.76 224.43,-243.76 204.5,-221 195.43,-210.63 197.96,-202.13 204.5,-190 230.26,-142.27 255.37,-141.08 306.5,-123 518.54,-48.02 1249.35,-17.8 1407.97,-12.05"/>
<polygon fill="midnightblue" stroke="midnightblue" points="1408.12,-15.55 1417.99,-11.69 1407.87,-8.55 1408.12,-15.55"/>
</g>
<!-- Node13 -->
<g id="node13" class="node">
<title>Node13</title>
<g id="a_node13"><a xlink:title=" ">
<polygon fill="white" stroke="#bfbfbf" points="686.5,-0.5 686.5,-19.5 730.5,-19.5 730.5,-0.5 686.5,-0.5"/>
<text text-anchor="middle" x="708.5" y="-7.5" font-family="Helvetica,sans-Serif" font-size="10.00">vector</text>
</a>
</g>
</g>
<!-- Node2&#45;&gt;Node13 -->
<g id="edge12" class="edge">
<title>Node2&#45;&gt;Node13</title>
<path fill="none" stroke="midnightblue" d="M512.2,-268.55C393.29,-262.84 162.92,-248.35 138.5,-221 89.67,-166.29 88.73,-109.86 138.5,-56 175.14,-16.36 560.91,-11.6 676.17,-11.06"/>
<polygon fill="midnightblue" stroke="midnightblue" points="676.47,-14.56 686.45,-11.02 676.44,-7.56 676.47,-14.56"/>
</g>
<!-- Node14 -->
<g id="node14" class="node">
<title>Node14</title>
<g id="a_node14"><a xlink:href="../../d7/de3/schema_8h.html" target="_top" xlink:title=" ">
<polygon fill="white" stroke="black" points="1466.5,-56.5 1466.5,-86.5 1572.5,-86.5 1572.5,-56.5 1466.5,-56.5"/>
<text text-anchor="start" x="1474.5" y="-74.5" font-family="Helvetica,sans-Serif" font-size="10.00">automaton/core/data</text>
<text text-anchor="middle" x="1519.5" y="-63.5" font-family="Helvetica,sans-Serif" font-size="10.00">/schema.h</text>
</a>
</g>
</g>
<!-- Node2&#45;&gt;Node14 -->
<g id="edge13" class="edge">
<title>Node2&#45;&gt;Node14</title>
<path fill="none" stroke="midnightblue" d="M512.44,-271.23C424.47,-269.23 280.98,-259.9 247.5,-221 238.52,-210.56 238.22,-200.18 247.5,-190 288.75,-144.77 1205.21,-90.15 1456.36,-75.99"/>
<polygon fill="midnightblue" stroke="midnightblue" points="1456.63,-79.48 1466.41,-75.42 1456.23,-72.49 1456.63,-79.48"/>
</g>
<!-- Node14&#45;&gt;Node12 -->
<g id="edge15" class="edge">
<title>Node14&#45;&gt;Node12</title>
<path fill="none" stroke="midnightblue" d="M1500.31,-56.4C1487.69,-47.13 1471.21,-35.03 1458.44,-25.65"/>
<polygon fill="midnightblue" stroke="midnightblue" points="1460.42,-22.76 1450.29,-19.66 1456.28,-28.4 1460.42,-22.76"/>
</g>
<!-- Node14&#45;&gt;Node13 -->
<g id="edge16" class="edge">
<title>Node14&#45;&gt;Node13</title>
<path fill="none" stroke="midnightblue" d="M1466.45,-62.4C1449.85,-60.07 1431.44,-57.71 1414.5,-56 1155.12,-29.86 840.5,-16.13 740.57,-12.2"/>
<polygon fill="midnightblue" stroke="midnightblue" points="740.64,-8.7 730.51,-11.81 740.37,-15.7 740.64,-8.7"/>
</g>
<!-- Node15 -->
<g id="node15" class="node">
<title>Node15</title>
<g id="a_node15"><a xlink:title=" ">
<polygon fill="white" stroke="#bfbfbf" points="1659,-0.5 1659,-19.5 1694,-19.5 1694,-0.5 1659,-0.5"/>
<text text-anchor="middle" x="1676.5" y="-7.5" font-family="Helvetica,sans-Serif" font-size="10.00">map</text>
</a>
</g>
</g>
<!-- Node14&#45;&gt;Node15 -->
<g id="edge14" class="edge">
<title>Node14&#45;&gt;Node15</title>
<path fill="none" stroke="midnightblue" d="M1556.71,-56.4C1585.21,-45.6 1623.86,-30.95 1649.46,-21.25"/>
<polygon fill="midnightblue" stroke="midnightblue" points="1650.8,-24.49 1658.91,-17.67 1648.32,-17.94 1650.8,-24.49"/>
</g>
<!-- Node17&#45;&gt;Node4 -->
<g id="edge20" class="edge">
<title>Node17&#45;&gt;Node4</title>
<path fill="none" stroke="midnightblue" d="M890.99,-330.23C846.04,-323.02 786.45,-310.13 737.5,-288 716.04,-278.29 714.27,-269.82 694.5,-257 674.1,-243.77 650.16,-230 632.56,-220.18"/>
<polygon fill="midnightblue" stroke="midnightblue" points="633.95,-216.95 623.5,-215.16 630.56,-223.07 633.95,-216.95"/>
</g>
<!-- Node17&#45;&gt;Node5 -->
<g id="edge21" class="edge">
<title>Node17&#45;&gt;Node5</title>
<path fill="none" stroke="midnightblue" d="M966.37,-324.21C974.65,-307.07 984.89,-278.03 972.5,-257 961.73,-238.7 941.67,-226.56 923.12,-218.78"/>
<polygon fill="midnightblue" stroke="midnightblue" points="924.21,-215.45 913.62,-215.1 921.68,-221.98 924.21,-215.45"/>
</g>
<!-- Node17&#45;&gt;Node6 -->
<g id="edge22" class="edge">
<title>Node17&#45;&gt;Node6</title>
<path fill="none" stroke="midnightblue" d="M890.86,-329.93C824.35,-320.74 728.07,-305.12 694.5,-288 676.58,-278.86 679.17,-266.64 661.5,-257 649.74,-250.58 583.84,-234.66 530.46,-222.39"/>
<polygon fill="midnightblue" stroke="midnightblue" points="531.19,-218.97 520.66,-220.15 529.62,-225.79 531.19,-218.97"/>
</g>
<!-- Node17&#45;&gt;Node7 -->
<g id="edge23" class="edge">
<title>Node17&#45;&gt;Node7</title>
<path fill="none" stroke="midnightblue" d="M959.15,-324.31C959.17,-306.19 956.35,-275.01 938.5,-257 895.12,-213.21 863.25,-234.82 798.37,-221"/>
<polygon fill="midnightblue" stroke="midnightblue" points="799.09,-217.58 788.55,-218.7 797.49,-224.39 799.09,-217.58"/>
</g>
<!-- Node17&#45;&gt;Node8 -->
<g id="edge24" class="edge">
<title>Node17&#45;&gt;Node8</title>
<path fill="none" stroke="midnightblue" d="M967.22,-324.37C973.46,-314.26 982.03,-300.31 989.5,-288 1001.47,-268.3 1014.96,-245.85 1024.75,-229.51"/>
<polygon fill="midnightblue" stroke="midnightblue" points="1027.91,-231.04 1030.05,-220.66 1021.91,-227.44 1027.91,-231.04"/>
</g>
<!-- Node17&#45;&gt;Node9 -->
<g id="edge25" class="edge">
<title>Node17&#45;&gt;Node9</title>
<path fill="none" stroke="midnightblue" d="M1026.24,-332.27C1088.14,-325.18 1173.57,-311.44 1197.5,-288 1214.18,-271.67 1217.41,-243.74 1217.5,-225.2"/>
<polygon fill="midnightblue" stroke="midnightblue" points="1220.99,-224.96 1217.24,-215.06 1214,-225.14 1220.99,-224.96"/>
</g>
<!-- Node17&#45;&gt;Node10 -->
<g id="edge26" class="edge">
<title>Node17&#45;&gt;Node10</title>
<path fill="none" stroke="midnightblue" d="M1026.18,-331.66C1079.67,-324.77 1155.55,-311.66 1218.5,-288 1264.19,-270.83 1312.27,-239.49 1338.5,-221.08"/>
<polygon fill="midnightblue" stroke="midnightblue" points="1340.72,-223.8 1346.83,-215.15 1336.66,-218.1 1340.72,-223.8"/>
</g>
<!-- Node17&#45;&gt;Node11 -->
<g id="edge29" class="edge">
<title>Node17&#45;&gt;Node11</title>
<path fill="none" stroke="midnightblue" d="M890.82,-330C874.36,-327.98 856.81,-325.87 840.5,-324 697.01,-307.52 135.92,-317.11 204.5,-190 230.26,-142.27 255.04,-140.12 306.5,-123 456.13,-73.22 956.88,-71.69 1095.61,-72.26"/>
<polygon fill="midnightblue" stroke="midnightblue" points="1095.68,-75.76 1105.7,-72.3 1095.72,-68.76 1095.68,-75.76"/>
</g>
<!-- Node17&#45;&gt;Node12 -->
<g id="edge32" class="edge">
<title>Node17&#45;&gt;Node12</title>
<path fill="none" stroke="midnightblue" d="M890.88,-329.46C874.42,-327.46 856.84,-325.49 840.5,-324 774.22,-317.94 300.61,-320.47 242.5,-288 200.34,-264.44 184.27,-236.98 195.5,-190 227.04,-58.16 335.66,-77.51 469.5,-56 656.48,-25.96 1262.75,-13.97 1407.34,-11.5"/>
<polygon fill="midnightblue" stroke="midnightblue" points="1407.74,-14.99 1417.68,-11.33 1407.62,-8 1407.74,-14.99"/>
</g>
<!-- Node17&#45;&gt;Node13 -->
<g id="edge34" class="edge">
<title>Node17&#45;&gt;Node13</title>
<path fill="none" stroke="midnightblue" d="M890.89,-329.27C874.43,-327.28 856.86,-325.36 840.5,-324 795.28,-320.23 60.23,-315.97 24.5,-288 -5.23,-264.72 0.5,-244.26 0.5,-206.5 0.5,-206.5 0.5,-206.5 0.5,-137.5 0.5,-75.94 54.72,-77.24 112.5,-56 217.38,-17.46 567.57,-11.92 676.13,-11.13"/>
<polygon fill="midnightblue" stroke="midnightblue" points="676.47,-14.63 686.44,-11.06 676.42,-7.63 676.47,-14.63"/>
</g>
<!-- Node17&#45;&gt;Node14 -->
<g id="edge60" class="edge">
<title>Node17&#45;&gt;Node14</title>
<path fill="none" stroke="midnightblue" d="M1026.09,-336.72C1164.61,-332.48 1476.19,-319.63 1577.5,-288 1634.34,-270.26 1655.97,-267.21 1693.5,-221 1721.65,-186.35 1742.85,-158.28 1715.5,-123 1699.21,-101.97 1633.63,-88.15 1582.76,-80.37"/>
<polygon fill="midnightblue" stroke="midnightblue" points="1583.21,-76.9 1572.8,-78.9 1582.18,-83.82 1583.21,-76.9"/>
</g>
<!-- Node17&#45;&gt;Node15 -->
<g id="edge28" class="edge">
<title>Node17&#45;&gt;Node15</title>
<path fill="none" stroke="midnightblue" d="M1026.03,-338.26C1173.8,-336.96 1521.33,-329.45 1630.5,-288 1676.46,-270.55 1691.39,-262 1718.5,-221 1735.45,-195.37 1731.7,-184.48 1735.5,-154 1737.21,-140.33 1738.81,-136.37 1735.5,-123 1726.5,-86.57 1703.26,-48.92 1688.78,-27.87"/>
<polygon fill="midnightblue" stroke="midnightblue" points="1691.63,-25.84 1683,-19.68 1685.91,-29.87 1691.63,-25.84"/>
</g>
<!-- Node18 -->
<g id="node18" class="node">
<title>Node18</title>
<g id="a_node18"><a xlink:title=" ">
<polygon fill="white" stroke="#bfbfbf" points="746.5,-263 746.5,-282 800.5,-282 800.5,-263 746.5,-263"/>
<text text-anchor="middle" x="773.5" y="-270" font-family="Helvetica,sans-Serif" font-size="10.00">iostream</text>
</a>
</g>
</g>
<!-- Node17&#45;&gt;Node18 -->
<g id="edge27" class="edge">
<title>Node17&#45;&gt;Node18</title>
<path fill="none" stroke="midnightblue" d="M914.92,-324.44C885.09,-314.65 844.72,-301.05 809.5,-288 807.66,-287.32 805.76,-286.6 803.85,-285.86"/>
<polygon fill="midnightblue" stroke="midnightblue" points="804.95,-282.54 794.37,-282.13 802.39,-289.05 804.95,-282.54"/>
</g>
<!-- Node19 -->
<g id="node19" class="node">
<title>Node19</title>
<g id="a_node19"><a xlink:title=" ">
<polygon fill="white" stroke="#bfbfbf" points="818.5,-263 818.5,-282 870.5,-282 870.5,-263 818.5,-263"/>
<text text-anchor="middle" x="844.5" y="-270" font-family="Helvetica,sans-Serif" font-size="10.00">sstream</text>
</a>
</g>
</g>
<!-- Node17&#45;&gt;Node19 -->
<g id="edge30" class="edge">
<title>Node17&#45;&gt;Node19</title>
<path fill="none" stroke="midnightblue" d="M933.77,-324.4C914.3,-313.29 887.33,-297.92 868.15,-286.98"/>
<polygon fill="midnightblue" stroke="midnightblue" points="869.84,-283.92 859.42,-282.01 866.38,-290 869.84,-283.92"/>
</g>
<!-- Node20 -->
<g id="node20" class="node">
<title>Node20</title>
<g id="a_node20"><a xlink:title=" ">
<polygon fill="white" stroke="#bfbfbf" points="889,-263 889,-282 930,-282 930,-263 889,-263"/>
<text text-anchor="middle" x="909.5" y="-270" font-family="Helvetica,sans-Serif" font-size="10.00">stack</text>
</a>
</g>
</g>
<!-- Node17&#45;&gt;Node20 -->
<g id="edge31" class="edge">
<title>Node17&#45;&gt;Node20</title>
<path fill="none" stroke="midnightblue" d="M947.87,-324.4C940.31,-314.36 930.11,-300.84 922.13,-290.25"/>
<polygon fill="midnightblue" stroke="midnightblue" points="924.87,-288.07 916.06,-282.19 919.28,-292.29 924.87,-288.07"/>
</g>
<!-- Node21 -->
<g id="node21" class="node">
<title>Node21</title>
<g id="a_node21"><a xlink:title=" ">
<polygon fill="white" stroke="#bfbfbf" points="1667,-129 1667,-148 1706,-148 1706,-129 1667,-129"/>
<text text-anchor="middle" x="1686.5" y="-136" font-family="Helvetica,sans-Serif" font-size="10.00">utility</text>
</a>
</g>
</g>
<!-- Node17&#45;&gt;Node21 -->
<g id="edge33" class="edge">
<title>Node17&#45;&gt;Node21</title>
<path fill="none" stroke="midnightblue" d="M1026.23,-337.25C1186.8,-332.8 1583.77,-312.57 1672.5,-221 1688.56,-204.44 1689.97,-176.57 1688.8,-158.1"/>
<polygon fill="midnightblue" stroke="midnightblue" points="1692.28,-157.63 1687.85,-148.01 1685.31,-158.29 1692.28,-157.63"/>
</g>
<!-- Node22 -->
<g id="node22" class="node">
<title>Node22</title>
<g id="a_node22"><a xlink:href="../../de/d06/factory_8h.html" target="_top" xlink:title=" ">
<polygon fill="white" stroke="black" points="1557.5,-190.5 1557.5,-220.5 1663.5,-220.5 1663.5,-190.5 1557.5,-190.5"/>
<text text-anchor="start" x="1565.5" y="-208.5" font-family="Helvetica,sans-Serif" font-size="10.00">automaton/core/data</text>
<text text-anchor="middle" x="1610.5" y="-197.5" font-family="Helvetica,sans-Serif" font-size="10.00">/factory.h</text>
</a>
</g>
</g>
<!-- Node17&#45;&gt;Node22 -->
<g id="edge35" class="edge">
<title>Node17&#45;&gt;Node22</title>
<path fill="none" stroke="midnightblue" d="M1026.28,-328.6C1088.24,-319.24 1182.32,-304.24 1263.5,-288 1363.27,-268.05 1478.02,-240.11 1547.35,-222.67"/>
<polygon fill="midnightblue" stroke="midnightblue" points="1548.4,-226.01 1557.24,-220.17 1546.69,-219.23 1548.4,-226.01"/>
</g>
<!-- Node24 -->
<g id="node24" class="node">
<title>Node24</title>
<g id="a_node24"><a xlink:href="../../d5/de1/protobuf__msg_8h.html" target="_top" xlink:title=" ">
<polygon fill="white" stroke="black" points="1063,-257.5 1063,-287.5 1188,-287.5 1188,-257.5 1063,-257.5"/>
<text text-anchor="start" x="1071" y="-275.5" font-family="Helvetica,sans-Serif" font-size="10.00">automaton/core/data</text>
<text text-anchor="middle" x="1125.5" y="-264.5" font-family="Helvetica,sans-Serif" font-size="10.00">/protobuf/protobuf_msg.h</text>
</a>
</g>
</g>
<!-- Node17&#45;&gt;Node24 -->
<g id="edge46" class="edge">
<title>Node17&#45;&gt;Node24</title>
<path fill="none" stroke="midnightblue" d="M994.74,-324.4C1019.69,-314.69 1053.03,-301.71 1079.8,-291.29"/>
<polygon fill="midnightblue" stroke="midnightblue" points="1081.29,-294.47 1089.34,-287.58 1078.75,-287.94 1081.29,-294.47"/>
</g>
<!-- Node22&#45;&gt;Node11 -->
<g id="edge37" class="edge">
<title>Node22&#45;&gt;Node11</title>
<path fill="none" stroke="midnightblue" d="M1557.42,-197.34C1503.06,-189.34 1416.45,-174.74 1343.5,-154 1275.88,-134.78 1199.61,-102.8 1159.55,-85.15"/>
<polygon fill="midnightblue" stroke="midnightblue" points="1160.96,-81.95 1150.4,-81.1 1158.12,-88.35 1160.96,-81.95"/>
</g>
<!-- Node22&#45;&gt;Node12 -->
<g id="edge38" class="edge">
<title>Node22&#45;&gt;Node12</title>
<path fill="none" stroke="midnightblue" d="M1612.13,-190.18C1614.59,-161.04 1615.81,-94.39 1581.5,-56 1552.99,-24.1 1502.12,-14.61 1469.37,-11.91"/>
<polygon fill="midnightblue" stroke="midnightblue" points="1469.22,-8.39 1459.01,-11.23 1468.76,-15.38 1469.22,-8.39"/>
</g>
<!-- Node22&#45;&gt;Node13 -->
<g id="edge40" class="edge">
<title>Node22&#45;&gt;Node13</title>
<path fill="none" stroke="midnightblue" d="M1590.16,-190.28C1563.28,-172.13 1513.89,-140.91 1467.5,-123 1200.82,-20.02 847.8,-10.99 740.67,-10.76"/>
<polygon fill="midnightblue" stroke="midnightblue" points="740.51,-7.26 730.51,-10.77 740.52,-14.26 740.51,-7.26"/>
</g>
<!-- Node22&#45;&gt;Node14 -->
<g id="edge45" class="edge">
<title>Node22&#45;&gt;Node14</title>
<path fill="none" stroke="midnightblue" d="M1600.77,-190.37C1585.03,-167.55 1553.88,-122.36 1535.05,-95.04"/>
<polygon fill="midnightblue" stroke="midnightblue" points="1537.73,-92.77 1529.17,-86.52 1531.97,-96.74 1537.73,-92.77"/>
</g>
<!-- Node22&#45;&gt;Node15 -->
<g id="edge36" class="edge">
<title>Node22&#45;&gt;Node15</title>
<path fill="none" stroke="midnightblue" d="M1615.36,-190.27C1627.12,-155.8 1657.13,-67.81 1670.23,-29.4"/>
<polygon fill="midnightblue" stroke="midnightblue" points="1673.66,-30.17 1673.58,-19.58 1667.04,-27.91 1673.66,-30.17"/>
</g>
<!-- Node22&#45;&gt;Node21 -->
<g id="edge39" class="edge">
<title>Node22&#45;&gt;Node21</title>
<path fill="none" stroke="midnightblue" d="M1626.99,-190.4C1639.2,-179.96 1655.81,-165.75 1668.38,-155"/>
<polygon fill="midnightblue" stroke="midnightblue" points="1671.01,-157.35 1676.34,-148.19 1666.46,-152.03 1671.01,-157.35"/>
</g>
<!-- Node23 -->
<g id="node23" class="node">
<title>Node23</title>
<g id="a_node23"><a xlink:href="../../d1/d71/msg_8h.html" target="_top" xlink:title=" ">
<polygon fill="white" stroke="black" points="1352.5,-123.5 1352.5,-153.5 1458.5,-153.5 1458.5,-123.5 1352.5,-123.5"/>
<text text-anchor="start" x="1360.5" y="-141.5" font-family="Helvetica,sans-Serif" font-size="10.00">automaton/core/data</text>
<text text-anchor="middle" x="1405.5" y="-130.5" font-family="Helvetica,sans-Serif" font-size="10.00">/msg.h</text>
</a>
</g>
</g>
<!-- Node22&#45;&gt;Node23 -->
<g id="edge41" class="edge">
<title>Node22&#45;&gt;Node23</title>
<path fill="none" stroke="midnightblue" d="M1566.27,-190.48C1534.99,-180.56 1492.87,-167.2 1459.59,-156.65"/>
<polygon fill="midnightblue" stroke="midnightblue" points="1460.6,-153.3 1450.01,-153.61 1458.48,-159.97 1460.6,-153.3"/>
</g>
<!-- Node23&#45;&gt;Node11 -->
<g id="edge42" class="edge">
<title>Node23&#45;&gt;Node11</title>
<path fill="none" stroke="midnightblue" d="M1352.35,-124.89C1297.69,-111.92 1214.09,-92.09 1166.99,-80.92"/>
<polygon fill="midnightblue" stroke="midnightblue" points="1167.77,-77.51 1157.23,-78.6 1166.15,-84.32 1167.77,-77.51"/>
</g>
<!-- Node23&#45;&gt;Node12 -->
<g id="edge43" class="edge">
<title>Node23&#45;&gt;Node12</title>
<path fill="none" stroke="midnightblue" d="M1409.16,-123.48C1415.13,-100.62 1426.95,-55.3 1433.62,-29.71"/>
<polygon fill="midnightblue" stroke="midnightblue" points="1437.07,-30.35 1436.21,-19.79 1430.3,-28.58 1437.07,-30.35"/>
</g>
<!-- Node23&#45;&gt;Node14 -->
<g id="edge44" class="edge">
<title>Node23&#45;&gt;Node14</title>
<path fill="none" stroke="midnightblue" d="M1430.24,-123.4C1446.52,-114.11 1468.04,-101.84 1485.88,-91.67"/>
<polygon fill="midnightblue" stroke="midnightblue" points="1487.86,-94.57 1494.82,-86.58 1484.39,-88.49 1487.86,-94.57"/>
</g>
<!-- Node24&#45;&gt;Node3 -->
<g id="edge47" class="edge">
<title>Node24&#45;&gt;Node3</title>
<path fill="none" stroke="midnightblue" d="M1062.76,-266.45C1026.46,-263.57 979.92,-259.96 938.5,-257 697.94,-239.79 633.6,-253.16 390.59,-221.01"/>
<polygon fill="midnightblue" stroke="midnightblue" points="390.75,-217.51 380.38,-219.65 389.82,-224.44 390.75,-217.51"/>
</g>
<!-- Node24&#45;&gt;Node4 -->
<g id="edge48" class="edge">
<title>Node24&#45;&gt;Node4</title>
<path fill="none" stroke="midnightblue" d="M1062.66,-265.67C977.11,-257.43 819.33,-241.09 685.5,-221 677.37,-219.78 668.79,-218.34 660.4,-216.85"/>
<polygon fill="midnightblue" stroke="midnightblue" points="660.79,-213.36 650.33,-215.01 659.54,-220.25 660.79,-213.36"/>
</g>
<!-- Node24&#45;&gt;Node5 -->
<g id="edge49" class="edge">
<title>Node24&#45;&gt;Node5</title>
<path fill="none" stroke="midnightblue" d="M1072.86,-257.48C1028.08,-245.55 964.63,-228.64 923.27,-217.63"/>
<polygon fill="midnightblue" stroke="midnightblue" points="924.08,-214.22 913.52,-215.03 922.28,-220.98 924.08,-214.22"/>
</g>
<!-- Node24&#45;&gt;Node6 -->
<g id="edge50" class="edge">
<title>Node24&#45;&gt;Node6</title>
<path fill="none" stroke="midnightblue" d="M1062.74,-266.61C927.04,-255.98 612.6,-231.01 530.84,-220.96"/>
<polygon fill="midnightblue" stroke="midnightblue" points="530.88,-217.43 520.51,-219.59 529.96,-224.37 530.88,-217.43"/>
</g>
<!-- Node24&#45;&gt;Node7 -->
<g id="edge51" class="edge">
<title>Node24&#45;&gt;Node7</title>
<path fill="none" stroke="midnightblue" d="M1062.9,-263.77C998.85,-255.43 896.29,-240.89 798.81,-221.15"/>
<polygon fill="midnightblue" stroke="midnightblue" points="799.28,-217.67 788.78,-219.1 797.88,-224.53 799.28,-217.67"/>
</g>
<!-- Node24&#45;&gt;Node8 -->
<g id="edge52" class="edge">
<title>Node24&#45;&gt;Node8</title>
<path fill="none" stroke="midnightblue" d="M1106.63,-257.4C1094.66,-248.45 1078.98,-236.74 1065.68,-226.8"/>
<polygon fill="midnightblue" stroke="midnightblue" points="1067.45,-223.76 1057.34,-220.58 1063.26,-229.37 1067.45,-223.76"/>
</g>
<!-- Node24&#45;&gt;Node9 -->
<g id="edge53" class="edge">
<title>Node24&#45;&gt;Node9</title>
<path fill="none" stroke="midnightblue" d="M1145.25,-257.4C1160.37,-246.6 1181.14,-231.76 1196.36,-220.89"/>
<polygon fill="midnightblue" stroke="midnightblue" points="1198.49,-223.67 1204.59,-215.01 1194.42,-217.97 1198.49,-223.67"/>
</g>
<!-- Node24&#45;&gt;Node10 -->
<g id="edge54" class="edge">
<title>Node24&#45;&gt;Node10</title>
<path fill="none" stroke="midnightblue" d="M1175.77,-257.48C1218.36,-245.6 1278.61,-228.79 1318.11,-217.77"/>
<polygon fill="midnightblue" stroke="midnightblue" points="1319.24,-221.09 1327.93,-215.03 1317.36,-214.34 1319.24,-221.09"/>
</g>
<!-- Node24&#45;&gt;Node11 -->
<g id="edge55" class="edge">
<title>Node24&#45;&gt;Node11</title>
<path fill="none" stroke="midnightblue" d="M1125.94,-257.19C1127,-221.99 1129.73,-131.17 1130.93,-91.51"/>
<polygon fill="midnightblue" stroke="midnightblue" points="1134.43,-91.46 1131.24,-81.36 1127.44,-91.25 1134.43,-91.46"/>
</g>
<!-- Node24&#45;&gt;Node12 -->
<g id="edge56" class="edge">
<title>Node24&#45;&gt;Node12</title>
<path fill="none" stroke="midnightblue" d="M1188.21,-263.35C1276.2,-251.62 1426.56,-230.35 1434.5,-221 1483.8,-162.99 1364.98,-185.6 1343.5,-154 1311.84,-107.42 1378.7,-51.68 1415.87,-25.69"/>
<polygon fill="midnightblue" stroke="midnightblue" points="1418.31,-28.27 1424.6,-19.75 1414.37,-22.48 1418.31,-28.27"/>
</g>
<!-- Node24&#45;&gt;Node14 -->
<g id="edge59" class="edge">
<title>Node24&#45;&gt;Node14</title>
<path fill="none" stroke="midnightblue" d="M1188.34,-264.48C1288.11,-253.08 1472.68,-230.82 1483.5,-221 1518.29,-189.46 1522.18,-130.55 1521.27,-97.19"/>
<polygon fill="midnightblue" stroke="midnightblue" points="1524.76,-96.77 1520.82,-86.93 1517.76,-97.08 1524.76,-96.77"/>
</g>
<!-- Node24&#45;&gt;Node22 -->
<g id="edge57" class="edge">
<title>Node24&#45;&gt;Node22</title>
<path fill="none" stroke="midnightblue" d="M1188.08,-265.77C1270.05,-257.85 1418.08,-242.1 1543.5,-221 1544.76,-220.79 1546.02,-220.57 1547.3,-220.34"/>
<polygon fill="midnightblue" stroke="midnightblue" points="1548.01,-223.77 1557.2,-218.5 1546.72,-216.89 1548.01,-223.77"/>
</g>
<!-- Node24&#45;&gt;Node23 -->
<g id="edge58" class="edge">
<title>Node24&#45;&gt;Node23</title>
<path fill="none" stroke="midnightblue" d="M1188.33,-271.61C1277.04,-270.27 1432.16,-261.95 1467.5,-221 1484.89,-200.86 1460.77,-176.42 1437.73,-159.59"/>
<polygon fill="midnightblue" stroke="midnightblue" points="1439.57,-156.61 1429.36,-153.76 1435.56,-162.35 1439.57,-156.61"/>
</g>
<!-- Node25&#45;&gt;Node12 -->
<g id="edge63" class="edge">
<title>Node25&#45;&gt;Node12</title>
<path fill="none" stroke="midnightblue" d="M1885.83,-329.86C1869.9,-320.98 1845.95,-305.95 1829.5,-288 1772.49,-225.77 1796.51,-181.32 1735.5,-123 1658.44,-49.33 1528.24,-23.05 1469.22,-14.6"/>
<polygon fill="midnightblue" stroke="midnightblue" points="1469.44,-11.1 1459.06,-13.22 1468.5,-18.03 1469.44,-11.1"/>
</g>
<!-- Node26 -->
<g id="node26" class="node">
<title>Node26</title>
<g id="a_node26"><a xlink:title=" ">
<polygon fill="white" stroke="#bfbfbf" points="1838.5,-263 1838.5,-282 1884.5,-282 1884.5,-263 1838.5,-263"/>
<text text-anchor="middle" x="1861.5" y="-270" font-family="Helvetica,sans-Serif" font-size="10.00">chrono</text>
</a>
</g>
</g>
<!-- Node25&#45;&gt;Node26 -->
<g id="edge62" class="edge">
<title>Node25&#45;&gt;Node26</title>
<path fill="none" stroke="midnightblue" d="M1896.97,-329.73C1890.7,-319.79 1880.32,-303.34 1872.41,-290.79"/>
<polygon fill="midnightblue" stroke="midnightblue" points="1875.24,-288.72 1866.95,-282.13 1869.32,-292.45 1875.24,-288.72"/>
</g>
<!-- Node27 -->
<g id="node27" class="node">
<title>Node27</title>
<g id="a_node27"><a xlink:title=" ">
<polygon fill="white" stroke="#bfbfbf" points="1902.5,-263 1902.5,-282 1986.5,-282 1986.5,-263 1902.5,-263"/>
<text text-anchor="middle" x="1944.5" y="-270" font-family="Helvetica,sans-Serif" font-size="10.00">g3log/g3log.hpp</text>
</a>
</g>
</g>
<!-- Node25&#45;&gt;Node27 -->
<g id="edge64" class="edge">
<title>Node25&#45;&gt;Node27</title>
<path fill="none" stroke="midnightblue" d="M1908.17,-329.73C1914.59,-319.79 1925.22,-303.34 1933.33,-290.79"/>
<polygon fill="midnightblue" stroke="midnightblue" points="1936.44,-292.43 1938.93,-282.13 1930.56,-288.63 1936.44,-292.43"/>
</g>
<!-- Node28 -->
<g id="node28" class="node">
<title>Node28</title>
<g id="a_node28"><a xlink:title=" ">
<polygon fill="white" stroke="#bfbfbf" points="2005,-263 2005,-282 2108,-282 2108,-263 2005,-263"/>
<text text-anchor="middle" x="2056.5" y="-270" font-family="Helvetica,sans-Serif" font-size="10.00">g3log/logworker.hpp</text>
</a>
</g>
</g>
<!-- Node25&#45;&gt;Node28 -->
<g id="edge65" class="edge">
<title>Node25&#45;&gt;Node28</title>
<path fill="none" stroke="midnightblue" d="M1922.95,-329.87C1949.53,-318.65 1996.14,-298.98 2026.67,-286.09"/>
<polygon fill="midnightblue" stroke="midnightblue" points="2028.12,-289.28 2035.97,-282.17 2025.4,-282.83 2028.12,-289.28"/>
</g>
<!-- Node29 -->
<g id="node29" class="node">
<title>Node29</title>
<g id="a_node29"><a xlink:title=" ">
<polygon fill="white" stroke="#bfbfbf" points="2126,-263 2126,-282 2225,-282 2225,-263 2126,-263"/>
<text text-anchor="middle" x="2175.5" y="-270" font-family="Helvetica,sans-Serif" font-size="10.00">g3log/loglevels.hpp</text>
</a>
</g>
</g>
<!-- Node25&#45;&gt;Node29 -->
<g id="edge66" class="edge">
<title>Node25&#45;&gt;Node29</title>
<path fill="none" stroke="midnightblue" d="M1939.44,-329.99C1982.31,-320.08 2055.09,-303.13 2117.5,-288 2122.18,-286.87 2127.05,-285.67 2131.91,-284.47"/>
<polygon fill="midnightblue" stroke="midnightblue" points="2132.93,-287.82 2141.79,-282.02 2131.24,-281.03 2132.93,-287.82"/>
</g>
</g>
</svg>
