<?xml version="1.0" encoding="UTF-8" standalone="no"?>
<!DOCTYPE svg PUBLIC "-//W3C//DTD SVG 1.1//EN"
 "http://www.w3.org/Graphics/SVG/1.1/DTD/svg11.dtd">
<!-- Generated by graphviz version 2.42.3 ()
 -->
<!-- Title: Keccak_256_cryptopp.h Pages: 1 -->
<svg width="485pt" height="140pt"
 viewBox="0.00 0.00 485.00 140.00" xmlns="http://www.w3.org/2000/svg" xmlns:xlink="http://www.w3.org/1999/xlink">
<g id="graph0" class="graph" transform="scale(1 1) rotate(0) translate(4 136)">
<title>Keccak_256_cryptopp.h</title>
<polygon fill="white" stroke="transparent" points="-4,4 -4,-136 481,-136 481,4 -4,4"/>
<!-- Node1 -->
<g id="node1" class="node">
<title>Node1</title>
<g id="a_node1"><a xlink:title=" ">
<polygon fill="#bfbfbf" stroke="black" points="203.5,-112.5 203.5,-131.5 323.5,-131.5 323.5,-112.5 203.5,-112.5"/>
<text text-anchor="middle" x="263.5" y="-119.5" font-family="Helvetica,sans-Serif" font-size="10.00">Keccak_256_cryptopp.h</text>
</a>
</g>
</g>
<!-- Node2 -->
<g id="node2" class="node">
<title>Node2</title>
<g id="a_node2"><a xlink:href="../../d5/dc4/_keccak__256__cryptopp_8cc.html" target="_top" xlink:title=" ">
<polygon fill="white" stroke="black" points="0,-56.5 0,-75.5 125,-75.5 125,-56.5 0,-56.5"/>
<text text-anchor="middle" x="62.5" y="-63.5" font-family="Helvetica,sans-Serif" font-size="10.00">Keccak_256_cryptopp.cc</text>
</a>
</g>
</g>
<!-- Node1&#45;&gt;Node2 -->
<g id="edge1" class="edge">
<title>Node1&#45;&gt;Node2</title>
<path fill="none" stroke="midnightblue" d="M221.92,-109.83C183.97,-99.63 128.69,-84.78 94.2,-75.52"/>
<polygon fill="midnightblue" stroke="midnightblue" points="221.09,-113.23 231.65,-112.44 222.9,-106.47 221.09,-113.23"/>
</g>
<!-- Node3 -->
<g id="node3" class="node">
<title>Node3</title>
<g id="a_node3"><a xlink:href="../../dc/dbc/eth__helper__functions_8h.html" target="_top" xlink:title=" ">
<polygon fill="white" stroke="black" points="143.5,-56.5 143.5,-75.5 257.5,-75.5 257.5,-56.5 143.5,-56.5"/>
<text text-anchor="middle" x="200.5" y="-63.5" font-family="Helvetica,sans-Serif" font-size="10.00">eth_helper_functions.h</text>
</a>
</g>
</g>
<!-- Node1&#45;&gt;Node3 -->
<g id="edge2" class="edge">
<title>Node1&#45;&gt;Node3</title>
<path fill="none" stroke="midnightblue" d="M245.46,-105.54C234.23,-95.91 220.18,-83.87 210.81,-75.83"/>
<polygon fill="midnightblue" stroke="midnightblue" points="243.51,-108.47 253.38,-112.32 248.06,-103.16 243.51,-108.47"/>
</g>
<!-- Node7 -->
<g id="node7" class="node">
<title>Node7</title>
<g id="a_node7"><a xlink:href="../../d2/d4b/eth__contract__raw_8cc.html" target="_top" xlink:title=" ">
<polygon fill="white" stroke="black" points="275.5,-56.5 275.5,-75.5 379.5,-75.5 379.5,-56.5 275.5,-56.5"/>
<text text-anchor="middle" x="327.5" y="-63.5" font-family="Helvetica,sans-Serif" font-size="10.00">eth_contract_raw.cc</text>
</a>
</g>
</g>
<!-- Node1&#45;&gt;Node7 -->
<g id="edge6" class="edge">
<title>Node1&#45;&gt;Node7</title>
<path fill="none" stroke="midnightblue" d="M281.49,-105.82C292.96,-96.15 307.41,-83.95 317.03,-75.83"/>
<polygon fill="midnightblue" stroke="midnightblue" points="279.17,-103.2 273.78,-112.32 283.68,-108.55 279.17,-103.2"/>
</g>
<!-- Node8 -->
<g id="node8" class="node">
<title>Node8</title>
<g id="a_node8"><a xlink:href="../../df/de4/bind__crypto_8cc.html" target="_top" xlink:title=" ">
<polygon fill="white" stroke="black" points="398,-56.5 398,-75.5 477,-75.5 477,-56.5 398,-56.5"/>
<text text-anchor="middle" x="437.5" y="-63.5" font-family="Helvetica,sans-Serif" font-size="10.00">bind_crypto.cc</text>
</a>
</g>
</g>
<!-- Node1&#45;&gt;Node8 -->
<g id="edge7" class="edge">
<title>Node1&#45;&gt;Node8</title>
<path fill="none" stroke="midnightblue" d="M300.76,-109.44C333.57,-99.26 380.58,-84.66 410.06,-75.52"/>
<polygon fill="midnightblue" stroke="midnightblue" points="299.58,-106.14 291.07,-112.44 301.66,-112.82 299.58,-106.14"/>
</g>
<!-- Node4 -->
<g id="node4" class="node">
<title>Node4</title>
<g id="a_node4"><a xlink:href="../../d8/da6/eth__contract__curl_8cc.html" target="_top" xlink:title=" ">
<polygon fill="white" stroke="black" points="15.5,-0.5 15.5,-19.5 119.5,-19.5 119.5,-0.5 15.5,-0.5"/>
<text text-anchor="middle" x="67.5" y="-7.5" font-family="Helvetica,sans-Serif" font-size="10.00">eth_contract_curl.cc</text>
</a>
</g>
</g>
<!-- Node3&#45;&gt;Node4 -->
<g id="edge3" class="edge">
<title>Node3&#45;&gt;Node4</title>
<path fill="none" stroke="midnightblue" d="M170.05,-52.64C145.09,-42.5 110.42,-28.43 88.48,-19.52"/>
<polygon fill="midnightblue" stroke="midnightblue" points="168.84,-55.92 179.43,-56.44 171.48,-49.44 168.84,-55.92"/>
</g>
<!-- Node5 -->
<g id="node5" class="node">
<title>Node5</title>
<g id="a_node5"><a xlink:href="../../d4/d57/eth__contract__curl__test_8cc.html" target="_top" xlink:title=" ">
<polygon fill="white" stroke="black" points="137.5,-0.5 137.5,-19.5 263.5,-19.5 263.5,-0.5 137.5,-0.5"/>
<text text-anchor="middle" x="200.5" y="-7.5" font-family="Helvetica,sans-Serif" font-size="10.00">eth_contract_curl_test.cc</text>
</a>
</g>
</g>
<!-- Node3&#45;&gt;Node5 -->
<g id="edge4" class="edge">
<title>Node3&#45;&gt;Node5</title>
<path fill="none" stroke="midnightblue" d="M200.5,-45.8C200.5,-36.91 200.5,-26.78 200.5,-19.75"/>
<polygon fill="midnightblue" stroke="midnightblue" points="197,-46.08 200.5,-56.08 204,-46.08 197,-46.08"/>
</g>
<!-- Node6 -->
<g id="node6" class="node">
<title>Node6</title>
<g id="a_node6"><a xlink:href="../../da/d5c/eth__transaction_8cc.html" target="_top" xlink:title=" ">
<polygon fill="white" stroke="black" points="281.5,-0.5 281.5,-19.5 377.5,-19.5 377.5,-0.5 281.5,-0.5"/>
<text text-anchor="middle" x="329.5" y="-7.5" font-family="Helvetica,sans-Serif" font-size="10.00">eth_transaction.cc</text>
</a>
</g>
</g>
<!-- Node3&#45;&gt;Node6 -->
<g id="edge5" class="edge">
<title>Node3&#45;&gt;Node6</title>
<path fill="none" stroke="midnightblue" d="M230.35,-52.5C254.54,-42.38 287.96,-28.39 309.16,-19.52"/>
<polygon fill="midnightblue" stroke="midnightblue" points="228.81,-49.35 220.94,-56.44 231.52,-55.81 228.81,-49.35"/>
</g>
</g>
</svg>
