<?xml version="1.0" encoding="UTF-8" standalone="no"?>
<!DOCTYPE svg PUBLIC "-//W3C//DTD SVG 1.1//EN"
 "http://www.w3.org/Graphics/SVG/1.1/DTD/svg11.dtd">
<!-- Generated by graphviz version 2.44.0 ()
 -->
<!-- Title: ed25519_orlp.cc Pages: 1 -->
<svg width="316pt" height="229pt"
 viewBox="0.00 0.00 315.50 229.00" xmlns="http://www.w3.org/2000/svg" xmlns:xlink="http://www.w3.org/1999/xlink">
<g id="graph0" class="graph" transform="scale(1 1) rotate(0) translate(4 225)">
<title>ed25519_orlp.cc</title>
<polygon fill="white" stroke="transparent" points="-4,4 -4,-225 311.5,-225 311.5,4 -4,4"/>
<!-- Node1 -->
<g id="node1" class="node">
<title>Node1</title>
<g id="a_node1"><a xlink:title=" ">
<polygon fill="#bfbfbf" stroke="black" points="131,-201.5 131,-220.5 218,-220.5 218,-201.5 131,-201.5"/>
<text text-anchor="middle" x="174.5" y="-208.5" font-family="Helvetica,sans-Serif" font-size="10.00">ed25519_orlp.cc</text>
</a>
</g>
</g>
<!-- Node2 -->
<g id="node2" class="node">
<title>Node2</title>
<g id="a_node2"><a xlink:href="../../da/d84/ed25519__orlp_8h.html" target="_top" xlink:title=" ">
<polygon fill="white" stroke="black" points="0,-123.5 0,-164.5 117,-164.5 117,-123.5 0,-123.5"/>
<text text-anchor="start" x="8" y="-152.5" font-family="Helvetica,sans-Serif" font-size="10.00">automaton/core/crypto</text>
<text text-anchor="start" x="8" y="-141.5" font-family="Helvetica,sans-Serif" font-size="10.00">/ed25519_orlp/ed25519</text>
<text text-anchor="middle" x="58.5" y="-130.5" font-family="Helvetica,sans-Serif" font-size="10.00">_orlp.h</text>
</a>
</g>
</g>
<!-- Node1&#45;&gt;Node2 -->
<g id="edge1" class="edge">
<title>Node1&#45;&gt;Node2</title>
<path fill="none" stroke="midnightblue" d="M158.86,-201.23C144.38,-193.12 122.15,-180.67 102.3,-169.54"/>
<polygon fill="midnightblue" stroke="midnightblue" points="103.81,-166.38 93.38,-164.54 100.39,-172.48 103.81,-166.38"/>
</g>
<!-- Node4 -->
<g id="node4" class="node">
<title>Node4</title>
<g id="a_node4"><a xlink:title=" ">
<polygon fill="white" stroke="#bfbfbf" points="110,-0.5 110,-19.5 151,-19.5 151,-0.5 110,-0.5"/>
<text text-anchor="middle" x="130.5" y="-7.5" font-family="Helvetica,sans-Serif" font-size="10.00">string</text>
</a>
</g>
</g>
<!-- Node1&#45;&gt;Node4 -->
<g id="edge6" class="edge">
<title>Node1&#45;&gt;Node4</title>
<path fill="none" stroke="midnightblue" d="M172.61,-201.45C166.01,-171.6 143.9,-71.58 134.63,-29.7"/>
<polygon fill="midnightblue" stroke="midnightblue" points="138.01,-28.75 132.43,-19.74 131.17,-30.26 138.01,-28.75"/>
</g>
<!-- Node6 -->
<g id="node6" class="node">
<title>Node6</title>
<g id="a_node6"><a xlink:title=" ">
<polygon fill="white" stroke="#bfbfbf" points="174,-134.5 174,-153.5 235,-153.5 235,-134.5 174,-134.5"/>
<text text-anchor="middle" x="204.5" y="-141.5" font-family="Helvetica,sans-Serif" font-size="10.00">ed25519.h</text>
</a>
</g>
</g>
<!-- Node1&#45;&gt;Node6 -->
<g id="edge5" class="edge">
<title>Node1&#45;&gt;Node6</title>
<path fill="none" stroke="midnightblue" d="M178.55,-201.23C183.04,-191.49 190.43,-175.48 196.18,-163.03"/>
<polygon fill="midnightblue" stroke="midnightblue" points="199.51,-164.17 200.52,-153.63 193.15,-161.24 199.51,-164.17"/>
</g>
<!-- Node7 -->
<g id="node7" class="node">
<title>Node7</title>
<g id="a_node7"><a xlink:title=" ">
<polygon fill="white" stroke="#bfbfbf" points="253.5,-134.5 253.5,-153.5 307.5,-153.5 307.5,-134.5 253.5,-134.5"/>
<text text-anchor="middle" x="280.5" y="-141.5" font-family="Helvetica,sans-Serif" font-size="10.00">iostream</text>
</a>
</g>
</g>
<!-- Node1&#45;&gt;Node7 -->
<g id="edge7" class="edge">
<title>Node1&#45;&gt;Node7</title>
<path fill="none" stroke="midnightblue" d="M188.8,-201.23C206.52,-190.37 236.93,-171.72 257.84,-158.89"/>
<polygon fill="midnightblue" stroke="midnightblue" points="259.74,-161.84 266.43,-153.63 256.08,-155.87 259.74,-161.84"/>
</g>
<!-- Node3 -->
<g id="node3" class="node">
<title>Node3</title>
<g id="a_node3"><a xlink:href="../../dd/de2/digital__signature_8h.html" target="_top" xlink:title=" ">
<polygon fill="white" stroke="black" points="3,-56.5 3,-86.5 116,-86.5 116,-56.5 3,-56.5"/>
<text text-anchor="start" x="11" y="-74.5" font-family="Helvetica,sans-Serif" font-size="10.00">automaton/core/crypto</text>
<text text-anchor="middle" x="59.5" y="-63.5" font-family="Helvetica,sans-Serif" font-size="10.00">/digital_signature.h</text>
</a>
</g>
</g>
<!-- Node2&#45;&gt;Node3 -->
<g id="edge2" class="edge">
<title>Node2&#45;&gt;Node3</title>
<path fill="none" stroke="midnightblue" d="M58.78,-123.36C58.89,-115.23 59.03,-105.7 59.15,-97.11"/>
<polygon fill="midnightblue" stroke="midnightblue" points="62.65,-96.94 59.3,-86.89 55.65,-96.84 62.65,-96.94"/>
</g>
<!-- Node3&#45;&gt;Node4 -->
<g id="edge3" class="edge">
<title>Node3&#45;&gt;Node4</title>
<path fill="none" stroke="midnightblue" d="M76.33,-56.4C87.17,-47.31 101.28,-35.49 112.37,-26.19"/>
<polygon fill="midnightblue" stroke="midnightblue" points="114.75,-28.76 120.17,-19.66 110.26,-23.4 114.75,-28.76"/>
</g>
<!-- Node5 -->
<g id="node5" class="node">
<title>Node5</title>
<g id="a_node5"><a xlink:title=" ">
<polygon fill="white" stroke="#bfbfbf" points="42,-0.5 42,-19.5 77,-19.5 77,-0.5 42,-0.5"/>
<text text-anchor="middle" x="59.5" y="-7.5" font-family="Helvetica,sans-Serif" font-size="10.00">map</text>
</a>
</g>
</g>
<!-- Node3&#45;&gt;Node5 -->
<g id="edge4" class="edge">
<title>Node3&#45;&gt;Node5</title>
<path fill="none" stroke="midnightblue" d="M59.5,-56.4C59.5,-48.47 59.5,-38.46 59.5,-29.86"/>
<polygon fill="midnightblue" stroke="midnightblue" points="63,-29.66 59.5,-19.66 56,-29.66 63,-29.66"/>
</g>
</g>
</svg>
