<?xml version="1.0" encoding="UTF-8" standalone="no"?>
<!DOCTYPE svg PUBLIC "-//W3C//DTD SVG 1.1//EN"
 "http://www.w3.org/Graphics/SVG/1.1/DTD/svg11.dtd">
<!-- Generated by graphviz version 2.44.0 ()
 -->
<!-- Title: automaton::core::script::module::concept_info Pages: 1 -->
<svg width="204pt" height="352pt"
 viewBox="0.00 0.00 204.00 352.00" xmlns="http://www.w3.org/2000/svg" xmlns:xlink="http://www.w3.org/1999/xlink">
<g id="graph0" class="graph" transform="scale(1 1) rotate(0) translate(4 348)">
<title>automaton::core::script::module::concept_info</title>
<polygon fill="white" stroke="transparent" points="-4,4 -4,-348 200,-348 200,4 -4,4"/>
<!-- Node1 -->
<g id="node1" class="node">
<title>Node1</title>
<g id="a_node1"><a xlink:title=" ">
<polygon fill="#bfbfbf" stroke="black" points="70.5,-0.5 70.5,-30.5 184.5,-30.5 184.5,-0.5 70.5,-0.5"/>
<text text-anchor="start" x="78.5" y="-18.5" font-family="Helvetica,sans-Serif" font-size="10.00">automaton::core::script</text>
<text text-anchor="middle" x="127.5" y="-7.5" font-family="Helvetica,sans-Serif" font-size="10.00">::module::concept_info</text>
</a>
</g>
</g>
<!-- Node2 -->
<g id="node2" class="node">
<title>Node2</title>
<g id="a_node2"><a xlink:title=" ">
<polygon fill="white" stroke="#bfbfbf" points="26.5,-78.5 26.5,-119.5 142.5,-119.5 142.5,-78.5 26.5,-78.5"/>
<text text-anchor="start" x="34.5" y="-107.5" font-family="Helvetica,sans-Serif" font-size="10.00">std::vector&lt; automaton</text>
<text text-anchor="start" x="34.5" y="-96.5" font-family="Helvetica,sans-Serif" font-size="10.00">::core::script::module</text>
<text text-anchor="middle" x="84.5" y="-85.5" font-family="Helvetica,sans-Serif" font-size="10.00">::method_info &gt;</text>
</a>
</g>
</g>
<!-- Node2&#45;&gt;Node1 -->
<g id="edge1" class="edge">
<title>Node2&#45;&gt;Node1</title>
<path fill="none" stroke="#9a32cd" stroke-dasharray="5,2" d="M99.71,-69.17C106.6,-56.12 114.43,-41.28 120.02,-30.68"/>
<polygon fill="#9a32cd" stroke="#9a32cd" points="96.48,-67.79 94.91,-78.27 102.67,-71.06 96.48,-67.79"/>
<text text-anchor="middle" x="129.5" y="-52" font-family="Helvetica,sans-Serif" font-size="10.00"> methods</text>
</g>
<!-- Node3 -->
<g id="node3" class="node">
<title>Node3</title>
<g id="a_node3"><a xlink:href="../../d9/d6f/structautomaton_1_1core_1_1script_1_1module_1_1method__info.html" target="_top" xlink:title=" ">
<polygon fill="white" stroke="black" points="27.5,-167.5 27.5,-197.5 141.5,-197.5 141.5,-167.5 27.5,-167.5"/>
<text text-anchor="start" x="35.5" y="-185.5" font-family="Helvetica,sans-Serif" font-size="10.00">automaton::core::script</text>
<text text-anchor="middle" x="84.5" y="-174.5" font-family="Helvetica,sans-Serif" font-size="10.00">::module::method_info</text>
</a>
</g>
</g>
<!-- Node3&#45;&gt;Node2 -->
<g id="edge2" class="edge">
<title>Node3&#45;&gt;Node2</title>
<path fill="none" stroke="#9a32cd" stroke-dasharray="5,2" d="M84.5,-157.07C84.5,-145.06 84.5,-130.79 84.5,-119.53"/>
<polygon fill="#9a32cd" stroke="#9a32cd" points="81,-157.3 84.5,-167.3 88,-157.3 81,-157.3"/>
<text text-anchor="middle" x="106" y="-141" font-family="Helvetica,sans-Serif" font-size="10.00"> elements</text>
</g>
<!-- Node4 -->
<g id="node4" class="node">
<title>Node4</title>
<g id="a_node4"><a xlink:title=" ">
<polygon fill="white" stroke="#bfbfbf" points="0,-256.5 0,-275.5 51,-275.5 51,-256.5 0,-256.5"/>
<text text-anchor="middle" x="25.5" y="-263.5" font-family="Helvetica,sans-Serif" font-size="10.00">uint32_t</text>
</a>
</g>
</g>
<!-- Node4&#45;&gt;Node3 -->
<g id="edge3" class="edge">
<title>Node4&#45;&gt;Node3</title>
<path fill="none" stroke="#9a32cd" stroke-dasharray="5,2" d="M21.65,-246.14C20.68,-236.48 21.15,-224.92 26.5,-216 31.13,-208.28 38.32,-202.25 46.09,-197.59"/>
<polygon fill="#9a32cd" stroke="#9a32cd" points="18.24,-246.99 23.24,-256.33 25.16,-245.9 18.24,-246.99"/>
<text text-anchor="middle" x="66.5" y="-230" font-family="Helvetica,sans-Serif" font-size="10.00"> input_schema_id</text>
<text text-anchor="middle" x="66.5" y="-219" font-family="Helvetica,sans-Serif" font-size="10.00">output_schema_id</text>
</g>
<!-- Node5 -->
<g id="node5" class="node">
<title>Node5</title>
<g id="a_node5"><a xlink:title="STL class.">
<polygon fill="white" stroke="#bfbfbf" points="120,-256.5 120,-275.5 179,-275.5 179,-256.5 120,-256.5"/>
<text text-anchor="middle" x="149.5" y="-263.5" font-family="Helvetica,sans-Serif" font-size="10.00">std::string</text>
</a>
</g>
</g>
<!-- Node5&#45;&gt;Node1 -->
<g id="edge6" class="edge">
<title>Node5&#45;&gt;Node1</title>
<path fill="none" stroke="#9a32cd" stroke-dasharray="5,2" d="M155.01,-246.24C155.63,-243.5 156.16,-240.69 156.5,-238 157.74,-228.3 156.59,-225.78 156.5,-216 155.83,-141.77 178.7,-118.83 153.5,-49 151.1,-42.34 146.72,-36.02 142.24,-30.75"/>
<polygon fill="#9a32cd" stroke="#9a32cd" points="151.58,-245.55 152.41,-256.11 158.34,-247.33 151.58,-245.55"/>
<text text-anchor="middle" x="176" y="-141" font-family="Helvetica,sans-Serif" font-size="10.00"> name</text>
</g>
<!-- Node5&#45;&gt;Node3 -->
<g id="edge4" class="edge">
<title>Node5&#45;&gt;Node3</title>
<path fill="none" stroke="#9a32cd" stroke-dasharray="5,2" d="M136.23,-248.37C124.31,-233.42 107,-211.71 95.74,-197.6"/>
<polygon fill="#9a32cd" stroke="#9a32cd" points="133.57,-250.64 142.54,-256.28 139.04,-246.28 133.57,-250.64"/>
<text text-anchor="middle" x="140" y="-224.5" font-family="Helvetica,sans-Serif" font-size="10.00"> name</text>
</g>
<!-- Node6 -->
<g id="node6" class="node">
<title>Node6</title>
<g id="a_node6"><a xlink:title="STL class.">
<polygon fill="white" stroke="#bfbfbf" points="103,-313.5 103,-343.5 196,-343.5 196,-313.5 103,-313.5"/>
<text text-anchor="start" x="111" y="-331.5" font-family="Helvetica,sans-Serif" font-size="10.00">std::basic_string&lt;</text>
<text text-anchor="middle" x="149.5" y="-320.5" font-family="Helvetica,sans-Serif" font-size="10.00"> char &gt;</text>
</a>
</g>
</g>
<!-- Node6&#45;&gt;Node5 -->
<g id="edge5" class="edge">
<title>Node6&#45;&gt;Node5</title>
<path fill="none" stroke="midnightblue" d="M149.5,-303.35C149.5,-293.51 149.5,-282.78 149.5,-275.54"/>
<polygon fill="midnightblue" stroke="midnightblue" points="146,-303.47 149.5,-313.47 153,-303.47 146,-303.47"/>
</g>
</g>
</svg>
