<?xml version="1.0" encoding="UTF-8" standalone="no"?>
<!DOCTYPE svg PUBLIC "-//W3C//DTD SVG 1.1//EN"
 "http://www.w3.org/Graphics/SVG/1.1/DTD/svg11.dtd">
<!-- Generated by graphviz version 2.42.3 ()
 -->
<!-- Title: automaton::core::script::module::concept_info Pages: 1 -->
<svg width="206pt" height="352pt"
 viewBox="0.00 0.00 206.00 352.00" xmlns="http://www.w3.org/2000/svg" xmlns:xlink="http://www.w3.org/1999/xlink">
<g id="graph0" class="graph" transform="scale(1 1) rotate(0) translate(4 348)">
<title>automaton::core::script::module::concept_info</title>
<polygon fill="white" stroke="transparent" points="-4,4 -4,-348 202,-348 202,4 -4,4"/>
<!-- Node1 -->
<g id="node1" class="node">
<title>Node1</title>
<g id="a_node1"><a xlink:title=" ">
<polygon fill="#bfbfbf" stroke="black" points="72.5,-0.5 72.5,-30.5 186.5,-30.5 186.5,-0.5 72.5,-0.5"/>
<text text-anchor="start" x="80.5" y="-18.5" font-family="Helvetica,sans-Serif" font-size="10.00">automaton::core::script</text>
<text text-anchor="middle" x="129.5" y="-7.5" font-family="Helvetica,sans-Serif" font-size="10.00">::module::concept_info</text>
</a>
</g>
</g>
<!-- Node2 -->
<g id="node2" class="node">
<title>Node2</title>
<g id="a_node2"><a xlink:title=" ">
<polygon fill="white" stroke="#bfbfbf" points="28.5,-78.5 28.5,-119.5 144.5,-119.5 144.5,-78.5 28.5,-78.5"/>
<text text-anchor="start" x="36.5" y="-107.5" font-family="Helvetica,sans-Serif" font-size="10.00">std::vector&lt; automaton</text>
<text text-anchor="start" x="36.5" y="-96.5" font-family="Helvetica,sans-Serif" font-size="10.00">::core::script::module</text>
<text text-anchor="middle" x="86.5" y="-85.5" font-family="Helvetica,sans-Serif" font-size="10.00">::method_info &gt;</text>
</a>
</g>
</g>
<!-- Node2&#45;&gt;Node1 -->
<g id="edge1" class="edge">
<title>Node2&#45;&gt;Node1</title>
<path fill="none" stroke="#9a32cd" stroke-dasharray="5,2" d="M101.71,-69.17C108.6,-56.12 116.43,-41.28 122.02,-30.68"/>
<polygon fill="#9a32cd" stroke="#9a32cd" points="98.48,-67.79 96.91,-78.27 104.67,-71.06 98.48,-67.79"/>
<text text-anchor="middle" x="131.5" y="-52" font-family="Helvetica,sans-Serif" font-size="10.00"> methods</text>
</g>
<!-- Node3 -->
<g id="node3" class="node">
<title>Node3</title>
<g id="a_node3"><a xlink:href="../../d9/d6f/structautomaton_1_1core_1_1script_1_1module_1_1method__info.html" target="_top" xlink:title=" ">
<polygon fill="white" stroke="black" points="29.5,-167.5 29.5,-197.5 143.5,-197.5 143.5,-167.5 29.5,-167.5"/>
<text text-anchor="start" x="37.5" y="-185.5" font-family="Helvetica,sans-Serif" font-size="10.00">automaton::core::script</text>
<text text-anchor="middle" x="86.5" y="-174.5" font-family="Helvetica,sans-Serif" font-size="10.00">::module::method_info</text>
</a>
</g>
</g>
<!-- Node3&#45;&gt;Node2 -->
<g id="edge2" class="edge">
<title>Node3&#45;&gt;Node2</title>
<path fill="none" stroke="#9a32cd" stroke-dasharray="5,2" d="M86.5,-157.07C86.5,-145.06 86.5,-130.79 86.5,-119.53"/>
<polygon fill="#9a32cd" stroke="#9a32cd" points="83,-157.3 86.5,-167.3 90,-157.3 83,-157.3"/>
<text text-anchor="middle" x="108" y="-141" font-family="Helvetica,sans-Serif" font-size="10.00"> elements</text>
</g>
<!-- Node4 -->
<g id="node4" class="node">
<title>Node4</title>
<g id="a_node4"><a xlink:title=" ">
<polygon fill="white" stroke="#bfbfbf" points="0,-256.5 0,-275.5 51,-275.5 51,-256.5 0,-256.5"/>
<text text-anchor="middle" x="25.5" y="-263.5" font-family="Helvetica,sans-Serif" font-size="10.00">uint32_t</text>
</a>
</g>
</g>
<!-- Node4&#45;&gt;Node3 -->
<g id="edge3" class="edge">
<title>Node4&#45;&gt;Node3</title>
<path fill="none" stroke="#9a32cd" stroke-dasharray="5,2" d="M21.63,-246.42C20.61,-236.7 21.03,-224.97 26.5,-216 31.25,-208.21 38.57,-202.17 46.48,-197.52"/>
<polygon fill="#9a32cd" stroke="#9a32cd" points="18.18,-246.99 23.21,-256.31 25.09,-245.88 18.18,-246.99"/>
<text text-anchor="middle" x="67.5" y="-230" font-family="Helvetica,sans-Serif" font-size="10.00"> output_schema_id</text>
<text text-anchor="middle" x="67.5" y="-219" font-family="Helvetica,sans-Serif" font-size="10.00">input_schema_id</text>
</g>
<!-- Node5 -->
<g id="node5" class="node">
<title>Node5</title>
<g id="a_node5"><a xlink:title="STL class.">
<polygon fill="white" stroke="#bfbfbf" points="122,-256.5 122,-275.5 181,-275.5 181,-256.5 122,-256.5"/>
<text text-anchor="middle" x="151.5" y="-263.5" font-family="Helvetica,sans-Serif" font-size="10.00">std::string</text>
</a>
</g>
</g>
<!-- Node5&#45;&gt;Node1 -->
<g id="edge6" class="edge">
<title>Node5&#45;&gt;Node1</title>
<path fill="none" stroke="#9a32cd" stroke-dasharray="5,2" d="M157.01,-246.24C157.63,-243.5 158.16,-240.69 158.5,-238 159.74,-228.3 158.59,-225.78 158.5,-216 157.83,-141.77 180.7,-118.83 155.5,-49 153.1,-42.34 148.72,-36.02 144.24,-30.75"/>
<polygon fill="#9a32cd" stroke="#9a32cd" points="153.58,-245.55 154.41,-256.11 160.34,-247.33 153.58,-245.55"/>
<text text-anchor="middle" x="178" y="-141" font-family="Helvetica,sans-Serif" font-size="10.00"> name</text>
</g>
<!-- Node5&#45;&gt;Node3 -->
<g id="edge4" class="edge">
<title>Node5&#45;&gt;Node3</title>
<path fill="none" stroke="#9a32cd" stroke-dasharray="5,2" d="M138.23,-248.37C126.31,-233.42 109,-211.71 97.74,-197.6"/>
<polygon fill="#9a32cd" stroke="#9a32cd" points="135.57,-250.64 144.54,-256.28 141.04,-246.28 135.57,-250.64"/>
<text text-anchor="middle" x="142" y="-224.5" font-family="Helvetica,sans-Serif" font-size="10.00"> name</text>
</g>
<!-- Node6 -->
<g id="node6" class="node">
<title>Node6</title>
<g id="a_node6"><a xlink:title="STL class.">
<polygon fill="white" stroke="#bfbfbf" points="105,-313.5 105,-343.5 198,-343.5 198,-313.5 105,-313.5"/>
<text text-anchor="start" x="113" y="-331.5" font-family="Helvetica,sans-Serif" font-size="10.00">std::basic_string&lt;</text>
<text text-anchor="middle" x="151.5" y="-320.5" font-family="Helvetica,sans-Serif" font-size="10.00"> char &gt;</text>
</a>
</g>
</g>
<!-- Node6&#45;&gt;Node5 -->
<g id="edge5" class="edge">
<title>Node6&#45;&gt;Node5</title>
<path fill="none" stroke="midnightblue" d="M151.5,-303.35C151.5,-293.51 151.5,-282.78 151.5,-275.54"/>
<polygon fill="midnightblue" stroke="midnightblue" points="148,-303.47 151.5,-313.47 155,-303.47 148,-303.47"/>
</g>
</g>
</svg>
