<?xml version="1.0" encoding="UTF-8" standalone="no"?>
<!DOCTYPE svg PUBLIC "-//W3C//DTD SVG 1.1//EN"
 "http://www.w3.org/Graphics/SVG/1.1/DTD/svg11.dtd">
<!-- Generated by graphviz version 2.44.0 ()
 -->
<!-- Title: SHA3_256_cryptopp.cc Pages: 1 -->
<svg width="359pt" height="218pt"
 viewBox="0.00 0.00 359.00 218.00" xmlns="http://www.w3.org/2000/svg" xmlns:xlink="http://www.w3.org/1999/xlink">
<g id="graph0" class="graph" transform="scale(1 1) rotate(0) translate(4 214)">
<title>SHA3_256_cryptopp.cc</title>
<polygon fill="white" stroke="transparent" points="-4,4 -4,-214 355,-214 355,4 -4,4"/>
<!-- Node1 -->
<g id="node1" class="node">
<title>Node1</title>
<g id="a_node1"><a xlink:title=" ">
<polygon fill="#bfbfbf" stroke="black" points="155,-190.5 155,-209.5 274,-209.5 274,-190.5 155,-190.5"/>
<text text-anchor="middle" x="214.5" y="-197.5" font-family="Helvetica,sans-Serif" font-size="10.00">SHA3_256_cryptopp.cc</text>
</a>
</g>
</g>
<!-- Node2 -->
<g id="node2" class="node">
<title>Node2</title>
<g id="a_node2"><a xlink:href="../../d3/d0d/_s_h_a3__256__cryptopp_8h.html" target="_top" xlink:title=" ">
<polygon fill="white" stroke="black" points="83.5,-123.5 83.5,-153.5 239.5,-153.5 239.5,-123.5 83.5,-123.5"/>
<text text-anchor="start" x="91.5" y="-141.5" font-family="Helvetica,sans-Serif" font-size="10.00">automaton/core/crypto</text>
<text text-anchor="middle" x="161.5" y="-130.5" font-family="Helvetica,sans-Serif" font-size="10.00">/cryptopp/SHA3_256_cryptopp.h</text>
</a>
</g>
</g>
<!-- Node1&#45;&gt;Node2 -->
<g id="edge1" class="edge">
<title>Node1&#45;&gt;Node2</title>
<path fill="none" stroke="midnightblue" d="M206.91,-190.48C200.13,-182.87 189.91,-171.4 180.89,-161.26"/>
<polygon fill="midnightblue" stroke="midnightblue" points="183.26,-158.66 173.99,-153.52 178.03,-163.32 183.26,-158.66"/>
</g>
<!-- Node5 -->
<g id="node5" class="node">
<title>Node5</title>
<g id="a_node5"><a xlink:href="../../d2/dab/hash__transformation_8h.html" target="_top" xlink:title=" ">
<polygon fill="white" stroke="black" points="216.5,-56.5 216.5,-86.5 332.5,-86.5 332.5,-56.5 216.5,-56.5"/>
<text text-anchor="start" x="224.5" y="-74.5" font-family="Helvetica,sans-Serif" font-size="10.00">automaton/core/crypto</text>
<text text-anchor="middle" x="274.5" y="-63.5" font-family="Helvetica,sans-Serif" font-size="10.00">/hash_transformation.h</text>
</a>
</g>
</g>
<!-- Node1&#45;&gt;Node5 -->
<g id="edge8" class="edge">
<title>Node1&#45;&gt;Node5</title>
<path fill="none" stroke="midnightblue" d="M222.5,-190.3C230.1,-181.66 241.38,-167.74 248.5,-154 257.97,-135.72 264.81,-113.34 269.09,-96.66"/>
<polygon fill="midnightblue" stroke="midnightblue" points="272.57,-97.16 271.53,-86.62 265.77,-95.51 272.57,-97.16"/>
</g>
<!-- Node3 -->
<g id="node3" class="node">
<title>Node3</title>
<g id="a_node3"><a xlink:title=" ">
<polygon fill="white" stroke="#bfbfbf" points="0,-62 0,-81 95,-81 95,-62 0,-62"/>
<text text-anchor="middle" x="47.5" y="-69" font-family="Helvetica,sans-Serif" font-size="10.00">cryptopp/cryptlib.h</text>
</a>
</g>
</g>
<!-- Node2&#45;&gt;Node3 -->
<g id="edge2" class="edge">
<title>Node2&#45;&gt;Node3</title>
<path fill="none" stroke="midnightblue" d="M136.76,-123.4C117.29,-112.29 90.33,-96.92 71.15,-85.98"/>
<polygon fill="midnightblue" stroke="midnightblue" points="72.84,-82.92 62.42,-81.01 69.37,-89 72.84,-82.92"/>
</g>
<!-- Node4 -->
<g id="node4" class="node">
<title>Node4</title>
<g id="a_node4"><a xlink:title=" ">
<polygon fill="white" stroke="#bfbfbf" points="113,-62 113,-81 198,-81 198,-62 113,-62"/>
<text text-anchor="middle" x="155.5" y="-69" font-family="Helvetica,sans-Serif" font-size="10.00">cryptopp/sha3.h</text>
</a>
</g>
</g>
<!-- Node2&#45;&gt;Node4 -->
<g id="edge3" class="edge">
<title>Node2&#45;&gt;Node4</title>
<path fill="none" stroke="midnightblue" d="M160.2,-123.4C159.33,-113.96 158.17,-101.45 157.23,-91.19"/>
<polygon fill="midnightblue" stroke="midnightblue" points="160.71,-90.83 156.3,-81.19 153.74,-91.47 160.71,-90.83"/>
</g>
<!-- Node2&#45;&gt;Node5 -->
<g id="edge4" class="edge">
<title>Node2&#45;&gt;Node5</title>
<path fill="none" stroke="midnightblue" d="M186.02,-123.4C202.16,-114.11 223.49,-101.84 241.17,-91.67"/>
<polygon fill="midnightblue" stroke="midnightblue" points="243.11,-94.6 250.03,-86.58 239.62,-88.53 243.11,-94.6"/>
</g>
<!-- Node6 -->
<g id="node6" class="node">
<title>Node6</title>
<g id="a_node6"><a xlink:title=" ">
<polygon fill="white" stroke="#bfbfbf" points="184.5,-0.5 184.5,-19.5 238.5,-19.5 238.5,-0.5 184.5,-0.5"/>
<text text-anchor="middle" x="211.5" y="-7.5" font-family="Helvetica,sans-Serif" font-size="10.00">iostream</text>
</a>
</g>
</g>
<!-- Node5&#45;&gt;Node6 -->
<g id="edge5" class="edge">
<title>Node5&#45;&gt;Node6</title>
<path fill="none" stroke="midnightblue" d="M259.57,-56.4C250.13,-47.49 237.92,-35.95 228.17,-26.74"/>
<polygon fill="midnightblue" stroke="midnightblue" points="230.34,-23.98 220.67,-19.66 225.53,-29.07 230.34,-23.98"/>
</g>
<!-- Node7 -->
<g id="node7" class="node">
<title>Node7</title>
<g id="a_node7"><a xlink:title=" ">
<polygon fill="white" stroke="#bfbfbf" points="257,-0.5 257,-19.5 292,-19.5 292,-0.5 257,-0.5"/>
<text text-anchor="middle" x="274.5" y="-7.5" font-family="Helvetica,sans-Serif" font-size="10.00">map</text>
</a>
</g>
</g>
<!-- Node5&#45;&gt;Node7 -->
<g id="edge6" class="edge">
<title>Node5&#45;&gt;Node7</title>
<path fill="none" stroke="midnightblue" d="M274.5,-56.4C274.5,-48.47 274.5,-38.46 274.5,-29.86"/>
<polygon fill="midnightblue" stroke="midnightblue" points="278,-29.66 274.5,-19.66 271,-29.66 278,-29.66"/>
</g>
<!-- Node8 -->
<g id="node8" class="node">
<title>Node8</title>
<g id="a_node8"><a xlink:title=" ">
<polygon fill="white" stroke="#bfbfbf" points="310,-0.5 310,-19.5 351,-19.5 351,-0.5 310,-0.5"/>
<text text-anchor="middle" x="330.5" y="-7.5" font-family="Helvetica,sans-Serif" font-size="10.00">string</text>
</a>
</g>
</g>
<!-- Node5&#45;&gt;Node8 -->
<g id="edge7" class="edge">
<title>Node5&#45;&gt;Node8</title>
<path fill="none" stroke="midnightblue" d="M287.77,-56.4C296.08,-47.58 306.8,-36.18 315.42,-27.02"/>
<polygon fill="midnightblue" stroke="midnightblue" points="318.05,-29.34 322.35,-19.66 312.95,-24.54 318.05,-29.34"/>
</g>
</g>
</svg>
