<?xml version="1.0" encoding="UTF-8" standalone="no"?>
<!DOCTYPE svg PUBLIC "-//W3C//DTD SVG 1.1//EN"
 "http://www.w3.org/Graphics/SVG/1.1/DTD/svg11.dtd">
<!-- Generated by graphviz version 2.42.3 ()
 -->
<!-- Title: persistent_storage.h Pages: 1 -->
<svg width="236pt" height="196pt"
 viewBox="0.00 0.00 235.50 196.00" xmlns="http://www.w3.org/2000/svg" xmlns:xlink="http://www.w3.org/1999/xlink">
<g id="graph0" class="graph" transform="scale(1 1) rotate(0) translate(4 192)">
<title>persistent_storage.h</title>
<polygon fill="white" stroke="transparent" points="-4,4 -4,-192 231.5,-192 231.5,4 -4,4"/>
<!-- Node1 -->
<g id="node1" class="node">
<title>Node1</title>
<g id="a_node1"><a xlink:title=" ">
<polygon fill="#bfbfbf" stroke="black" points="58.5,-168.5 58.5,-187.5 162.5,-187.5 162.5,-168.5 58.5,-168.5"/>
<text text-anchor="middle" x="110.5" y="-175.5" font-family="Helvetica,sans-Serif" font-size="10.00">persistent_storage.h</text>
</a>
</g>
</g>
<!-- Node2 -->
<g id="node2" class="node">
<title>Node2</title>
<g id="a_node2"><a xlink:href="../../da/dcd/persistent__vector_8h.html" target="_top" xlink:title=" ">
<polygon fill="white" stroke="black" points="0,-112.5 0,-131.5 99,-131.5 99,-112.5 0,-112.5"/>
<text text-anchor="middle" x="49.5" y="-119.5" font-family="Helvetica,sans-Serif" font-size="10.00">persistent_vector.h</text>
</a>
</g>
</g>
<!-- Node1&#45;&gt;Node2 -->
<g id="edge1" class="edge">
<title>Node1&#45;&gt;Node2</title>
<path fill="none" stroke="midnightblue" d="M93.03,-161.54C82.16,-151.91 68.56,-139.87 59.48,-131.83"/>
<polygon fill="midnightblue" stroke="midnightblue" points="90.89,-164.32 100.7,-168.32 95.53,-159.07 90.89,-164.32"/>
</g>
<!-- Node5 -->
<g id="node5" class="node">
<title>Node5</title>
<g id="a_node5"><a xlink:href="../../d1/d15/persistent__storage_8cc.html" target="_top" xlink:title=" ">
<polygon fill="white" stroke="black" points="117.5,-112.5 117.5,-131.5 227.5,-131.5 227.5,-112.5 117.5,-112.5"/>
<text text-anchor="middle" x="172.5" y="-119.5" font-family="Helvetica,sans-Serif" font-size="10.00">persistent_storage.cc</text>
</a>
</g>
</g>
<!-- Node1&#45;&gt;Node5 -->
<g id="edge4" class="edge">
<title>Node1&#45;&gt;Node5</title>
<path fill="none" stroke="midnightblue" d="M128.25,-161.54C139.31,-151.91 153.13,-139.87 162.36,-131.83"/>
<polygon fill="midnightblue" stroke="midnightblue" points="125.7,-159.12 120.46,-168.32 130.3,-164.4 125.7,-159.12"/>
</g>
<!-- Node3 -->
<g id="node3" class="node">
<title>Node3</title>
<g id="a_node3"><a xlink:href="../../da/db5/state__persistent_8h.html" target="_top" xlink:title=" ">
<polygon fill="white" stroke="black" points="2.5,-56.5 2.5,-75.5 96.5,-75.5 96.5,-56.5 2.5,-56.5"/>
<text text-anchor="middle" x="49.5" y="-63.5" font-family="Helvetica,sans-Serif" font-size="10.00">state_persistent.h</text>
</a>
</g>
</g>
<!-- Node2&#45;&gt;Node3 -->
<g id="edge2" class="edge">
<title>Node2&#45;&gt;Node3</title>
<path fill="none" stroke="midnightblue" d="M49.5,-101.8C49.5,-92.91 49.5,-82.78 49.5,-75.75"/>
<polygon fill="midnightblue" stroke="midnightblue" points="46,-102.08 49.5,-112.08 53,-102.08 46,-102.08"/>
</g>
<!-- Node4 -->
<g id="node4" class="node">
<title>Node4</title>
<g id="a_node4"><a xlink:href="../../d1/d67/state__persistent_8cc.html" target="_top" xlink:title=" ">
<polygon fill="white" stroke="black" points="0,-0.5 0,-19.5 99,-19.5 99,-0.5 0,-0.5"/>
<text text-anchor="middle" x="49.5" y="-7.5" font-family="Helvetica,sans-Serif" font-size="10.00">state_persistent.cc</text>
</a>
</g>
</g>
<!-- Node3&#45;&gt;Node4 -->
<g id="edge3" class="edge">
<title>Node3&#45;&gt;Node4</title>
<path fill="none" stroke="midnightblue" d="M49.5,-45.8C49.5,-36.91 49.5,-26.78 49.5,-19.75"/>
<polygon fill="midnightblue" stroke="midnightblue" points="46,-46.08 49.5,-56.08 53,-46.08 46,-46.08"/>
</g>
</g>
</svg>
