<?xml version="1.0" encoding="UTF-8" standalone="no"?>
<!DOCTYPE svg PUBLIC "-//W3C//DTD SVG 1.1//EN"
 "http://www.w3.org/Graphics/SVG/1.1/DTD/svg11.dtd">
<!-- Generated by graphviz version 2.42.3 ()
 -->
<!-- Title: io.h Pages: 1 -->
<!--zoomable 140 -->
<svg id="main" version="1.1" xmlns="http://www.w3.org/2000/svg" xmlns:xlink="http://www.w3.org/1999/xlink" xml:space="preserve" onload="init(evt)">
<style type="text/css"><![CDATA[
.edge:hover path { stroke: red; }
.edge:hover polygon { stroke: red; fill: red; }
]]></style>
<script type="text/javascript"><![CDATA[
var edges = document.getElementsByTagName('g');
if (edges && edges.length) {
  for (var i=0;i<edges.length;i++) {
    if (edges[i].id.substr(0,4)=='edge') {
      edges[i].setAttribute('class','edge');
    }
  }
}
]]></script>
        <defs>
                <circle id="rim" cx="0" cy="0" r="7"/>
                <circle id="rim2" cx="0" cy="0" r="3.5"/>
                <g id="zoomPlus">
                        <use xlink:href="#rim" fill="#404040">
                                <set attributeName="fill" to="#808080" begin="zoomplus.mouseover" end="zoomplus.mouseout"/>
                        </use>
                        <path d="M-4,0h8M0,-4v8" fill="none" stroke="white" stroke-width="1.5" pointer-events="none"/>
                </g>
                <g id="zoomMin">
                        <use xlink:href="#rim" fill="#404040">
                                <set attributeName="fill" to="#808080" begin="zoomminus.mouseover" end="zoomminus.mouseout"/>
                        </use>
                        <path d="M-4,0h8" fill="none" stroke="white" stroke-width="1.5" pointer-events="none"/>
                </g>
                <g id="dirArrow">
                        <path fill="none" stroke="white" stroke-width="1.5" d="M0,-3.0v7 M-2.5,-0.5L0,-3.0L2.5,-0.5"/>
                </g>
               <g id="resetDef">
                       <use xlink:href="#rim2" fill="#404040">
                               <set attributeName="fill" to="#808080" begin="reset.mouseover" end="reset.mouseout"/>
                       </use>
               </g>
        </defs>

<script type="text/javascript">
var viewWidth = 2949;
var viewHeight = 140;
var sectionId = 'dynsection-1';
</script>
<script xlink:href="../../svgpan.js"/>
<svg id="graph" class="graph">
<g id="viewport">
<title>io.h</title>
<polygon fill="white" stroke="transparent" points="-4,4 -4,-136 2945,-136 2945,4 -4,4"/>
<!-- Node1 -->
<g id="node1" class="node">
<title>Node1</title>
<g id="a_node1"><a xlink:title=" ">
<polygon fill="#bfbfbf" stroke="black" points="1506,-112.5 1506,-131.5 1538,-131.5 1538,-112.5 1506,-112.5"/>
<text text-anchor="middle" x="1522" y="-119.5" font-family="Helvetica,sans-Serif" font-size="10.00">io.h</text>
</a>
</g>
</g>
<!-- Node2 -->
<g id="node2" class="node">
<title>Node2</title>
<g id="a_node2"><a xlink:href="../../dd/d95/http__server_8h.html" target="_top" xlink:title=" ">
<polygon fill="white" stroke="black" points="39.5,-56.5 39.5,-75.5 112.5,-75.5 112.5,-56.5 39.5,-56.5"/>
<text text-anchor="middle" x="76" y="-63.5" font-family="Helvetica,sans-Serif" font-size="10.00">http_server.h</text>
</a>
</g>
</g>
<!-- Node1&#45;&gt;Node2 -->
<g id="edge1" class="edge">
<title>Node1&#45;&gt;Node2</title>
<path fill="none" stroke="midnightblue" d="M1495.5,-120.66C1327.35,-118.43 406.92,-105.06 127,-76 122.35,-75.52 117.48,-74.86 112.68,-74.12"/>
<polygon fill="midnightblue" stroke="midnightblue" points="1495.64,-124.16 1505.68,-120.79 1495.73,-117.16 1495.64,-124.16"/>
</g>
<!-- Node3 -->
<g id="node3" class="node">
<title>Node3</title>
<g id="a_node3"><a xlink:href="../../dd/de7/core_8cc.html" target="_top" xlink:title=" ">
<polygon fill="white" stroke="black" points="0,-0.5 0,-19.5 48,-19.5 48,-0.5 0,-0.5"/>
<text text-anchor="middle" x="24" y="-7.5" font-family="Helvetica,sans-Serif" font-size="10.00">core.cc</text>
</a>
</g>
</g>
<!-- Node1&#45;&gt;Node3 -->
<g id="edge4" class="edge">
<title>Node1&#45;&gt;Node3</title>
<path fill="none" stroke="midnightblue" d="M1495.48,-120.68C1297.56,-118.27 57.8,-102.13 30,-76 14.64,-61.56 18.43,-33.79 21.66,-19.68"/>
<polygon fill="midnightblue" stroke="midnightblue" points="1495.53,-124.19 1505.58,-120.81 1495.62,-117.19 1495.53,-124.19"/>
</g>
<!-- Node4 -->
<g id="node4" class="node">
<title>Node4</title>
<g id="a_node4"><a xlink:href="../../d6/d61/http__server_8cc.html" target="_top" xlink:title=" ">
<polygon fill="white" stroke="black" points="78,-0.5 78,-19.5 156,-19.5 156,-0.5 78,-0.5"/>
<text text-anchor="middle" x="117" y="-7.5" font-family="Helvetica,sans-Serif" font-size="10.00">http_server.cc</text>
</a>
</g>
</g>
<!-- Node1&#45;&gt;Node4 -->
<g id="edge22" class="edge">
<title>Node1&#45;&gt;Node4</title>
<path fill="none" stroke="midnightblue" d="M1495.4,-120.81C1310.35,-119.42 220.46,-109.8 160,-76 137.8,-63.59 125.01,-34.35 119.79,-19.7"/>
<polygon fill="midnightblue" stroke="midnightblue" points="1495.57,-124.31 1505.6,-120.89 1495.62,-117.31 1495.57,-124.31"/>
</g>
<!-- Node5 -->
<g id="node5" class="node">
<title>Node5</title>
<g id="a_node5"><a xlink:href="../../d0/dd2/digital__signature_8cc.html" target="_top" xlink:title=" ">
<polygon fill="white" stroke="black" points="169,-56.5 169,-75.5 269,-75.5 269,-56.5 169,-56.5"/>
<text text-anchor="middle" x="219" y="-63.5" font-family="Helvetica,sans-Serif" font-size="10.00">digital_signature.cc</text>
</a>
</g>
</g>
<!-- Node1&#45;&gt;Node5 -->
<g id="edge5" class="edge">
<title>Node1&#45;&gt;Node5</title>
<path fill="none" stroke="midnightblue" d="M1495.49,-121.17C1363.61,-121.79 765.13,-121.81 278,-76 275.11,-75.73 272.15,-75.41 269.16,-75.05"/>
<polygon fill="midnightblue" stroke="midnightblue" points="1495.84,-124.67 1505.82,-121.12 1495.8,-117.67 1495.84,-124.67"/>
</g>
<!-- Node6 -->
<g id="node6" class="node">
<title>Node6</title>
<g id="a_node6"><a xlink:href="../../d8/d0d/hash__transformation_8cc.html" target="_top" xlink:title=" ">
<polygon fill="white" stroke="black" points="287,-56.5 287,-75.5 405,-75.5 405,-56.5 287,-56.5"/>
<text text-anchor="middle" x="346" y="-63.5" font-family="Helvetica,sans-Serif" font-size="10.00">hash_transformation.cc</text>
</a>
</g>
</g>
<!-- Node1&#45;&gt;Node6 -->
<g id="edge6" class="edge">
<title>Node1&#45;&gt;Node6</title>
<path fill="none" stroke="midnightblue" d="M1495.35,-120.81C1372.03,-119.75 844.59,-113.16 414,-76 411.15,-75.75 408.24,-75.48 405.3,-75.17"/>
<polygon fill="midnightblue" stroke="midnightblue" points="1495.67,-124.31 1505.7,-120.9 1495.73,-117.31 1495.67,-124.31"/>
</g>
<!-- Node7 -->
<g id="node7" class="node">
<title>Node7</title>
<g id="a_node7"><a xlink:href="../../dd/ded/secure__random_8cc.html" target="_top" xlink:title=" ">
<polygon fill="white" stroke="black" points="423,-56.5 423,-75.5 519,-75.5 519,-56.5 423,-56.5"/>
<text text-anchor="middle" x="471" y="-63.5" font-family="Helvetica,sans-Serif" font-size="10.00">secure_random.cc</text>
</a>
</g>
</g>
<!-- Node1&#45;&gt;Node7 -->
<g id="edge7" class="edge">
<title>Node1&#45;&gt;Node7</title>
<path fill="none" stroke="midnightblue" d="M1495.55,-120.88C1380.34,-120.14 910.97,-114.78 528,-76 525.11,-75.71 522.14,-75.37 519.15,-74.99"/>
<polygon fill="midnightblue" stroke="midnightblue" points="1495.84,-124.38 1505.86,-120.94 1495.88,-117.38 1495.84,-124.38"/>
</g>
<!-- Node8 -->
<g id="node8" class="node">
<title>Node8</title>
<g id="a_node8"><a xlink:href="../../d0/dcc/protobuf__factory_8cc.html" target="_top" xlink:title=" ">
<polygon fill="white" stroke="black" points="537.5,-56.5 537.5,-75.5 636.5,-75.5 636.5,-56.5 537.5,-56.5"/>
<text text-anchor="middle" x="587" y="-63.5" font-family="Helvetica,sans-Serif" font-size="10.00">protobuf_factory.cc</text>
</a>
</g>
</g>
<!-- Node1&#45;&gt;Node8 -->
<g id="edge8" class="edge">
<title>Node1&#45;&gt;Node8</title>
<path fill="none" stroke="midnightblue" d="M1495.65,-120.63C1389.08,-118.95 979.69,-110.46 645,-76 642.26,-75.72 639.46,-75.4 636.63,-75.04"/>
<polygon fill="midnightblue" stroke="midnightblue" points="1495.76,-124.14 1505.81,-120.79 1495.86,-117.14 1495.76,-124.14"/>
</g>
<!-- Node9 -->
<g id="node9" class="node">
<title>Node9</title>
<g id="a_node9"><a xlink:href="../../da/d58/protobuf__msg_8cc.html" target="_top" xlink:title=" ">
<polygon fill="white" stroke="black" points="654.5,-56.5 654.5,-75.5 743.5,-75.5 743.5,-56.5 654.5,-56.5"/>
<text text-anchor="middle" x="699" y="-63.5" font-family="Helvetica,sans-Serif" font-size="10.00">protobuf_msg.cc</text>
</a>
</g>
</g>
<!-- Node1&#45;&gt;Node9 -->
<g id="edge9" class="edge">
<title>Node1&#45;&gt;Node9</title>
<path fill="none" stroke="midnightblue" d="M1495.8,-120.48C1397.75,-118.32 1043.17,-108.58 753,-76 749.98,-75.66 746.87,-75.27 743.74,-74.83"/>
<polygon fill="midnightblue" stroke="midnightblue" points="1495.91,-123.98 1505.98,-120.7 1496.06,-116.98 1495.91,-123.98"/>
</g>
<!-- Node10 -->
<g id="node10" class="node">
<title>Node10</title>
<g id="a_node10"><a xlink:href="../../dc/d05/protobuf__schema_8cc.html" target="_top" xlink:title=" ">
<polygon fill="white" stroke="black" points="762,-56.5 762,-75.5 866,-75.5 866,-56.5 762,-56.5"/>
<text text-anchor="middle" x="814" y="-63.5" font-family="Helvetica,sans-Serif" font-size="10.00">protobuf_schema.cc</text>
</a>
</g>
</g>
<!-- Node1&#45;&gt;Node10 -->
<g id="edge10" class="edge">
<title>Node1&#45;&gt;Node10</title>
<path fill="none" stroke="midnightblue" d="M1495.45,-119.76C1407.57,-115.54 1118.22,-100.56 880,-76 875.51,-75.54 870.86,-75.01 866.2,-74.44"/>
<polygon fill="midnightblue" stroke="midnightblue" points="1495.44,-123.27 1505.6,-120.25 1495.77,-116.28 1495.44,-123.27"/>
</g>
<!-- Node11 -->
<g id="node11" class="node">
<title>Node11</title>
<g id="a_node11"><a xlink:href="../../dc/dbc/eth__helper__functions_8h.html" target="_top" xlink:title=" ">
<polygon fill="white" stroke="black" points="922,-56.5 922,-75.5 1036,-75.5 1036,-56.5 922,-56.5"/>
<text text-anchor="middle" x="979" y="-63.5" font-family="Helvetica,sans-Serif" font-size="10.00">eth_helper_functions.h</text>
</a>
</g>
</g>
<!-- Node1&#45;&gt;Node11 -->
<g id="edge11" class="edge">
<title>Node1&#45;&gt;Node11</title>
<path fill="none" stroke="midnightblue" d="M1495.28,-118.75C1423.3,-112.61 1219.3,-94.8 1050,-76 1045.55,-75.51 1040.95,-74.97 1036.33,-74.42"/>
<polygon fill="midnightblue" stroke="midnightblue" points="1495.42,-122.27 1505.68,-119.63 1496.01,-115.29 1495.42,-122.27"/>
</g>
<!-- Node12 -->
<g id="node12" class="node">
<title>Node12</title>
<g id="a_node12"><a xlink:href="../../d8/da6/eth__contract__curl_8cc.html" target="_top" xlink:title=" ">
<polygon fill="white" stroke="black" points="851,-0.5 851,-19.5 955,-19.5 955,-0.5 851,-0.5"/>
<text text-anchor="middle" x="903" y="-7.5" font-family="Helvetica,sans-Serif" font-size="10.00">eth_contract_curl.cc</text>
</a>
</g>
</g>
<!-- Node1&#45;&gt;Node12 -->
<g id="edge14" class="edge">
<title>Node1&#45;&gt;Node12</title>
<path fill="none" stroke="midnightblue" d="M1495.8,-120.95C1384.72,-120.47 956.33,-116.04 913,-76 897.4,-61.59 899.19,-33.81 901.34,-19.69"/>
<polygon fill="midnightblue" stroke="midnightblue" points="1495.8,-124.45 1505.82,-120.98 1495.83,-117.45 1495.8,-124.45"/>
</g>
<!-- Node13 -->
<g id="node13" class="node">
<title>Node13</title>
<g id="a_node13"><a xlink:href="../../d4/d57/eth__contract__curl__test_8cc.html" target="_top" xlink:title=" ">
<polygon fill="white" stroke="black" points="983,-0.5 983,-19.5 1109,-19.5 1109,-0.5 983,-0.5"/>
<text text-anchor="middle" x="1046" y="-7.5" font-family="Helvetica,sans-Serif" font-size="10.00">eth_contract_curl_test.cc</text>
</a>
</g>
</g>
<!-- Node1&#45;&gt;Node13 -->
<g id="edge15" class="edge">
<title>Node1&#45;&gt;Node13</title>
<path fill="none" stroke="midnightblue" d="M1495.54,-121.38C1411.42,-122.13 1151.56,-120.69 1083,-76 1062.55,-62.67 1052.18,-33.86 1048.12,-19.5"/>
<polygon fill="midnightblue" stroke="midnightblue" points="1495.6,-124.88 1505.56,-121.28 1495.53,-117.88 1495.6,-124.88"/>
</g>
<!-- Node14 -->
<g id="node14" class="node">
<title>Node14</title>
<g id="a_node14"><a xlink:href="../../d2/d4b/eth__contract__raw_8cc.html" target="_top" xlink:title=" ">
<polygon fill="white" stroke="black" points="1092,-56.5 1092,-75.5 1196,-75.5 1196,-56.5 1092,-56.5"/>
<text text-anchor="middle" x="1144" y="-63.5" font-family="Helvetica,sans-Serif" font-size="10.00">eth_contract_raw.cc</text>
</a>
</g>
</g>
<!-- Node1&#45;&gt;Node14 -->
<g id="edge16" class="edge">
<title>Node1&#45;&gt;Node14</title>
<path fill="none" stroke="midnightblue" d="M1495.69,-117.31C1441.36,-109.69 1312.82,-91.61 1205,-76 1202.14,-75.59 1199.2,-75.16 1196.24,-74.73"/>
<polygon fill="midnightblue" stroke="midnightblue" points="1495.44,-120.81 1505.83,-118.74 1496.41,-113.88 1495.44,-120.81"/>
</g>
<!-- Node15 -->
<g id="node15" class="node">
<title>Node15</title>
<g id="a_node15"><a xlink:href="../../df/d01/eth__contract__raw__test_8cc.html" target="_top" xlink:title=" ">
<polygon fill="white" stroke="black" points="1214,-56.5 1214,-75.5 1340,-75.5 1340,-56.5 1214,-56.5"/>
<text text-anchor="middle" x="1277" y="-63.5" font-family="Helvetica,sans-Serif" font-size="10.00">eth_contract_raw_test.cc</text>
</a>
</g>
</g>
<!-- Node1&#45;&gt;Node15 -->
<g id="edge17" class="edge">
<title>Node1&#45;&gt;Node15</title>
<path fill="none" stroke="midnightblue" d="M1495.94,-115.26C1452.78,-105.74 1366.26,-86.67 1315.87,-75.57"/>
<polygon fill="midnightblue" stroke="midnightblue" points="1495.41,-118.72 1505.92,-117.46 1496.91,-111.89 1495.41,-118.72"/>
</g>
<!-- Node16 -->
<g id="node16" class="node">
<title>Node16</title>
<g id="a_node16"><a xlink:href="../../da/d5c/eth__transaction_8cc.html" target="_top" xlink:title=" ">
<polygon fill="white" stroke="black" points="1358,-56.5 1358,-75.5 1454,-75.5 1454,-56.5 1358,-56.5"/>
<text text-anchor="middle" x="1406" y="-63.5" font-family="Helvetica,sans-Serif" font-size="10.00">eth_transaction.cc</text>
</a>
</g>
</g>
<!-- Node1&#45;&gt;Node16 -->
<g id="edge18" class="edge">
<title>Node1&#45;&gt;Node16</title>
<path fill="none" stroke="midnightblue" d="M1496.55,-109.15C1474.71,-98.98 1443.75,-84.57 1424.28,-75.51"/>
<polygon fill="midnightblue" stroke="midnightblue" points="1495.33,-112.44 1505.87,-113.49 1498.28,-106.1 1495.33,-112.44"/>
</g>
<!-- Node17 -->
<g id="node17" class="node">
<title>Node17</title>
<g id="a_node17"><a xlink:href="../../d8/d3c/blob_8h.html" target="_top" xlink:title=" ">
<polygon fill="white" stroke="black" points="1472,-56.5 1472,-75.5 1514,-75.5 1514,-56.5 1472,-56.5"/>
<text text-anchor="middle" x="1493" y="-63.5" font-family="Helvetica,sans-Serif" font-size="10.00">blob.h</text>
</a>
</g>
</g>
<!-- Node1&#45;&gt;Node17 -->
<g id="edge19" class="edge">
<title>Node1&#45;&gt;Node17</title>
<path fill="none" stroke="midnightblue" d="M1512.32,-102.98C1507.4,-93.82 1501.64,-83.09 1497.7,-75.75"/>
<polygon fill="midnightblue" stroke="midnightblue" points="1509.4,-104.93 1517.21,-112.08 1515.56,-101.62 1509.4,-104.93"/>
</g>
<!-- Node19 -->
<g id="node19" class="node">
<title>Node19</title>
<g id="a_node19"><a xlink:href="../../db/dd3/io_8cc.html" target="_top" xlink:title=" ">
<polygon fill="white" stroke="black" points="1532.5,-56.5 1532.5,-75.5 1569.5,-75.5 1569.5,-56.5 1532.5,-56.5"/>
<text text-anchor="middle" x="1551" y="-63.5" font-family="Helvetica,sans-Serif" font-size="10.00">io.cc</text>
</a>
</g>
</g>
<!-- Node1&#45;&gt;Node19 -->
<g id="edge21" class="edge">
<title>Node1&#45;&gt;Node19</title>
<path fill="none" stroke="midnightblue" d="M1531.68,-102.98C1536.6,-93.82 1542.36,-83.09 1546.3,-75.75"/>
<polygon fill="midnightblue" stroke="midnightblue" points="1528.44,-101.62 1526.79,-112.08 1534.6,-104.93 1528.44,-101.62"/>
</g>
<!-- Node20 -->
<g id="node20" class="node">
<title>Node20</title>
<g id="a_node20"><a xlink:href="../../d6/d86/simulated__connection_8cc.html" target="_top" xlink:title=" ">
<polygon fill="white" stroke="black" points="1588,-56.5 1588,-75.5 1712,-75.5 1712,-56.5 1588,-56.5"/>
<text text-anchor="middle" x="1650" y="-63.5" font-family="Helvetica,sans-Serif" font-size="10.00">simulated_connection.cc</text>
</a>
</g>
</g>
<!-- Node1&#45;&gt;Node20 -->
<g id="edge23" class="edge">
<title>Node1&#45;&gt;Node20</title>
<path fill="none" stroke="midnightblue" d="M1547.46,-110.26C1571.61,-100.07 1607.43,-84.96 1629.71,-75.56"/>
<polygon fill="midnightblue" stroke="midnightblue" points="1546.06,-107.05 1538.21,-114.16 1548.79,-113.5 1546.06,-107.05"/>
</g>
<!-- Node21 -->
<g id="node21" class="node">
<title>Node21</title>
<g id="a_node21"><a xlink:href="../../d5/dc9/tcp__implementation_8cc.html" target="_top" xlink:title=" ">
<polygon fill="white" stroke="black" points="1730,-56.5 1730,-75.5 1844,-75.5 1844,-56.5 1730,-56.5"/>
<text text-anchor="middle" x="1787" y="-63.5" font-family="Helvetica,sans-Serif" font-size="10.00">tcp_implementation.cc</text>
</a>
</g>
</g>
<!-- Node1&#45;&gt;Node21 -->
<g id="edge24" class="edge">
<title>Node1&#45;&gt;Node21</title>
<path fill="none" stroke="midnightblue" d="M1548.23,-115.65C1594.19,-106.29 1689.64,-86.84 1744.93,-75.57"/>
<polygon fill="midnightblue" stroke="midnightblue" points="1547.28,-112.28 1538.18,-117.7 1548.68,-119.14 1547.28,-112.28"/>
</g>
<!-- Node22 -->
<g id="node22" class="node">
<title>Node22</title>
<g id="a_node22"><a xlink:href="../../db/d7e/lua__node_8cc.html" target="_top" xlink:title=" ">
<polygon fill="white" stroke="black" points="1862,-56.5 1862,-75.5 1930,-75.5 1930,-56.5 1862,-56.5"/>
<text text-anchor="middle" x="1896" y="-63.5" font-family="Helvetica,sans-Serif" font-size="10.00">lua_node.cc</text>
</a>
</g>
</g>
<!-- Node1&#45;&gt;Node22 -->
<g id="edge25" class="edge">
<title>Node1&#45;&gt;Node22</title>
<path fill="none" stroke="midnightblue" d="M1548.41,-118.06C1604.62,-111.65 1740.22,-95.44 1853,-76 1855.86,-75.51 1858.81,-74.96 1861.77,-74.39"/>
<polygon fill="midnightblue" stroke="midnightblue" points="1547.79,-114.6 1538.25,-119.21 1548.58,-121.56 1547.79,-114.6"/>
</g>
<!-- Node23 -->
<g id="node23" class="node">
<title>Node23</title>
<g id="a_node23"><a xlink:href="../../dc/dfd/node_8cc.html" target="_top" xlink:title=" ">
<polygon fill="white" stroke="black" points="1948,-56.5 1948,-75.5 1998,-75.5 1998,-56.5 1948,-56.5"/>
<text text-anchor="middle" x="1973" y="-63.5" font-family="Helvetica,sans-Serif" font-size="10.00">node.cc</text>
</a>
</g>
</g>
<!-- Node1&#45;&gt;Node23 -->
<g id="edge26" class="edge">
<title>Node1&#45;&gt;Node23</title>
<path fill="none" stroke="midnightblue" d="M1548.36,-119.54C1614.54,-115.59 1792.8,-103.08 1939,-76 1941.88,-75.47 1944.88,-74.82 1947.85,-74.11"/>
<polygon fill="midnightblue" stroke="midnightblue" points="1547.81,-116.07 1538.03,-120.15 1548.22,-123.06 1547.81,-116.07"/>
</g>
<!-- Node24 -->
<g id="node24" class="node">
<title>Node24</title>
<g id="a_node24"><a xlink:href="../../df/de4/bind__crypto_8cc.html" target="_top" xlink:title=" ">
<polygon fill="white" stroke="black" points="2016.5,-56.5 2016.5,-75.5 2095.5,-75.5 2095.5,-56.5 2016.5,-56.5"/>
<text text-anchor="middle" x="2056" y="-63.5" font-family="Helvetica,sans-Serif" font-size="10.00">bind_crypto.cc</text>
</a>
</g>
</g>
<!-- Node1&#45;&gt;Node24 -->
<g id="edge27" class="edge">
<title>Node1&#45;&gt;Node24</title>
<path fill="none" stroke="midnightblue" d="M1548.56,-119.37C1621.83,-114.7 1832.9,-100.02 2007,-76 2010.08,-75.57 2013.27,-75.09 2016.47,-74.57"/>
<polygon fill="midnightblue" stroke="midnightblue" points="1548.15,-115.89 1538.39,-120.01 1548.59,-122.88 1548.15,-115.89"/>
</g>
<!-- Node25 -->
<g id="node25" class="node">
<title>Node25</title>
<g id="a_node25"><a xlink:href="../../d8/dd3/bind__data_8cc.html" target="_top" xlink:title=" ">
<polygon fill="white" stroke="black" points="2113.5,-56.5 2113.5,-75.5 2184.5,-75.5 2184.5,-56.5 2113.5,-56.5"/>
<text text-anchor="middle" x="2149" y="-63.5" font-family="Helvetica,sans-Serif" font-size="10.00">bind_data.cc</text>
</a>
</g>
</g>
<!-- Node1&#45;&gt;Node25 -->
<g id="edge28" class="edge">
<title>Node1&#45;&gt;Node25</title>
<path fill="none" stroke="midnightblue" d="M1548.52,-120.09C1631.11,-116.99 1890.93,-105.44 2104,-76 2107,-75.59 2110.1,-75.1 2113.2,-74.56"/>
<polygon fill="midnightblue" stroke="midnightblue" points="1548.14,-116.6 1538.28,-120.46 1548.4,-123.59 1548.14,-116.6"/>
</g>
<!-- Node26 -->
<g id="node26" class="node">
<title>Node26</title>
<g id="a_node26"><a xlink:href="../../db/d7f/engine_8cc.html" target="_top" xlink:title=" ">
<polygon fill="white" stroke="black" points="2203,-56.5 2203,-75.5 2261,-75.5 2261,-56.5 2203,-56.5"/>
<text text-anchor="middle" x="2232" y="-63.5" font-family="Helvetica,sans-Serif" font-size="10.00">engine.cc</text>
</a>
</g>
</g>
<!-- Node1&#45;&gt;Node26 -->
<g id="edge29" class="edge">
<title>Node1&#45;&gt;Node26</title>
<path fill="none" stroke="midnightblue" d="M1548.37,-120.74C1638.73,-119.54 1944.09,-112.83 2193,-76 2196.16,-75.53 2199.45,-74.94 2202.71,-74.29"/>
<polygon fill="midnightblue" stroke="midnightblue" points="1548.16,-117.24 1538.2,-120.87 1548.24,-124.24 1548.16,-117.24"/>
</g>
<!-- Node27 -->
<g id="node27" class="node">
<title>Node27</title>
<g id="a_node27"><a xlink:href="../../dc/d27/registry_8h.html" target="_top" xlink:title=" ">
<polygon fill="white" stroke="black" points="2279,-56.5 2279,-75.5 2335,-75.5 2335,-56.5 2279,-56.5"/>
<text text-anchor="middle" x="2307" y="-63.5" font-family="Helvetica,sans-Serif" font-size="10.00">registry.h</text>
</a>
</g>
</g>
<!-- Node1&#45;&gt;Node27 -->
<g id="edge30" class="edge">
<title>Node1&#45;&gt;Node27</title>
<path fill="none" stroke="midnightblue" d="M1548.21,-121.11C1644.78,-121.16 1989.74,-118.17 2270,-76 2272.88,-75.57 2275.86,-75.02 2278.82,-74.4"/>
<polygon fill="midnightblue" stroke="midnightblue" points="1548.17,-117.61 1538.16,-121.09 1548.16,-124.61 1548.17,-117.61"/>
</g>
<!-- Node28 -->
<g id="node28" class="node">
<title>Node28</title>
<g id="a_node28"><a xlink:href="../../d5/d9f/registry_8cc.html" target="_top" xlink:title=" ">
<polygon fill="white" stroke="black" points="2304.5,-0.5 2304.5,-19.5 2365.5,-19.5 2365.5,-0.5 2304.5,-0.5"/>
<text text-anchor="middle" x="2335" y="-7.5" font-family="Helvetica,sans-Serif" font-size="10.00">registry.cc</text>
</a>
</g>
</g>
<!-- Node1&#45;&gt;Node28 -->
<g id="edge32" class="edge">
<title>Node1&#45;&gt;Node28</title>
<path fill="none" stroke="midnightblue" d="M1548.21,-120.57C1685.45,-118.17 2315.99,-105.59 2344,-76 2358.41,-60.78 2347.46,-33.86 2340.16,-19.92"/>
<polygon fill="midnightblue" stroke="midnightblue" points="1548.11,-117.07 1538.17,-120.74 1548.23,-124.07 1548.11,-117.07"/>
</g>
<!-- Node29 -->
<g id="node29" class="node">
<title>Node29</title>
<g id="a_node29"><a xlink:href="../../d0/dee/smart__protocol_8cc.html" target="_top" xlink:title=" ">
<polygon fill="white" stroke="black" points="2391,-56.5 2391,-75.5 2485,-75.5 2485,-56.5 2391,-56.5"/>
<text text-anchor="middle" x="2438" y="-63.5" font-family="Helvetica,sans-Serif" font-size="10.00">smart_protocol.cc</text>
</a>
</g>
</g>
<!-- Node1&#45;&gt;Node29 -->
<g id="edge33" class="edge">
<title>Node1&#45;&gt;Node29</title>
<path fill="none" stroke="midnightblue" d="M1548.34,-120.51C1653.23,-118.39 2051.27,-108.53 2377,-76 2381.47,-75.55 2386.12,-75.01 2390.77,-74.42"/>
<polygon fill="midnightblue" stroke="midnightblue" points="1547.99,-117.02 1538.06,-120.72 1548.13,-124.02 1547.99,-117.02"/>
</g>
<!-- Node30 -->
<g id="node30" class="node">
<title>Node30</title>
<g id="a_node30"><a xlink:href="../../da/dd0/state__impl_8cc.html" target="_top" xlink:title=" ">
<polygon fill="white" stroke="black" points="2503,-56.5 2503,-75.5 2577,-75.5 2577,-56.5 2503,-56.5"/>
<text text-anchor="middle" x="2540" y="-63.5" font-family="Helvetica,sans-Serif" font-size="10.00">state_impl.cc</text>
</a>
</g>
</g>
<!-- Node1&#45;&gt;Node30 -->
<g id="edge34" class="edge">
<title>Node1&#45;&gt;Node30</title>
<path fill="none" stroke="midnightblue" d="M1548.27,-121.2C1661.72,-121.74 2120.67,-120.92 2494,-76 2496.91,-75.65 2499.91,-75.22 2502.92,-74.74"/>
<polygon fill="midnightblue" stroke="midnightblue" points="1548.12,-117.7 1538.1,-121.14 1548.08,-124.69 1548.12,-117.7"/>
</g>
<!-- Node31 -->
<g id="node31" class="node">
<title>Node31</title>
<g id="a_node31"><a xlink:href="../../d1/d67/state__persistent_8cc.html" target="_top" xlink:title=" ">
<polygon fill="white" stroke="black" points="2595.5,-56.5 2595.5,-75.5 2694.5,-75.5 2694.5,-56.5 2595.5,-56.5"/>
<text text-anchor="middle" x="2645" y="-63.5" font-family="Helvetica,sans-Serif" font-size="10.00">state_persistent.cc</text>
</a>
</g>
</g>
<!-- Node1&#45;&gt;Node31 -->
<g id="edge35" class="edge">
<title>Node1&#45;&gt;Node31</title>
<path fill="none" stroke="midnightblue" d="M1548.39,-120.94C1668.29,-120.46 2173.78,-116.04 2586,-76 2589.09,-75.7 2592.27,-75.35 2595.47,-74.96"/>
<polygon fill="midnightblue" stroke="midnightblue" points="1548.29,-117.44 1538.3,-120.98 1548.31,-124.44 1548.29,-117.44"/>
</g>
<!-- Node32 -->
<g id="node32" class="node">
<title>Node32</title>
<g id="a_node32"><a xlink:href="../../df/dd2/testnet_8cc.html" target="_top" xlink:title=" ">
<polygon fill="white" stroke="black" points="2712.5,-56.5 2712.5,-75.5 2771.5,-75.5 2771.5,-56.5 2712.5,-56.5"/>
<text text-anchor="middle" x="2742" y="-63.5" font-family="Helvetica,sans-Serif" font-size="10.00">testnet.cc</text>
</a>
</g>
</g>
<!-- Node1&#45;&gt;Node32 -->
<g id="edge36" class="edge">
<title>Node1&#45;&gt;Node32</title>
<path fill="none" stroke="midnightblue" d="M1548.38,-120.69C1700.78,-118.82 2469.76,-107.89 2704,-76 2706.69,-75.63 2709.46,-75.16 2712.23,-74.63"/>
<polygon fill="midnightblue" stroke="midnightblue" points="1548.08,-117.2 1538.12,-120.82 1548.16,-124.2 1548.08,-117.2"/>
</g>
<!-- Node33 -->
<g id="node33" class="node">
<title>Node33</title>
<g id="a_node33"><a xlink:href="../../d3/d5d/miner_8cc.html" target="_top" xlink:title=" ">
<polygon fill="white" stroke="black" points="2789.5,-56.5 2789.5,-75.5 2842.5,-75.5 2842.5,-56.5 2789.5,-56.5"/>
<text text-anchor="middle" x="2816" y="-63.5" font-family="Helvetica,sans-Serif" font-size="10.00">miner.cc</text>
</a>
</g>
</g>
<!-- Node1&#45;&gt;Node33 -->
<g id="edge37" class="edge">
<title>Node1&#45;&gt;Node33</title>
<path fill="none" stroke="midnightblue" d="M1548.61,-120.83C1707.37,-119.7 2531.03,-112.17 2781,-76 2783.73,-75.6 2786.56,-75.08 2789.37,-74.48"/>
<polygon fill="midnightblue" stroke="midnightblue" points="1548.32,-117.33 1538.35,-120.9 1548.37,-124.33 1548.32,-117.33"/>
</g>
<!-- Node34 -->
<g id="node34" class="node">
<title>Node34</title>
<g id="a_node34"><a xlink:href="../../d4/dd8/miner__main_8cc.html" target="_top" xlink:title=" ">
<polygon fill="white" stroke="black" points="2861,-56.5 2861,-75.5 2941,-75.5 2941,-56.5 2861,-56.5"/>
<text text-anchor="middle" x="2901" y="-63.5" font-family="Helvetica,sans-Serif" font-size="10.00">miner_main.cc</text>
</a>
</g>
</g>
<!-- Node1&#45;&gt;Node34 -->
<g id="edge38" class="edge">
<title>Node1&#45;&gt;Node34</title>
<path fill="none" stroke="midnightblue" d="M1548.53,-120.64C1712.17,-118.32 2585.92,-104.78 2852,-76 2854.92,-75.68 2857.94,-75.29 2860.96,-74.85"/>
<polygon fill="midnightblue" stroke="midnightblue" points="1548.34,-117.14 1538.39,-120.78 1548.44,-124.14 1548.34,-117.14"/>
</g>
<!-- Node2&#45;&gt;Node3 -->
<g id="edge2" class="edge">
<title>Node2&#45;&gt;Node3</title>
<path fill="none" stroke="midnightblue" d="M60.32,-48.72C51.16,-39.2 39.95,-27.56 32.43,-19.75"/>
<polygon fill="midnightblue" stroke="midnightblue" points="57.96,-51.31 67.41,-56.08 63,-46.45 57.96,-51.31"/>
</g>
<!-- Node2&#45;&gt;Node4 -->
<g id="edge3" class="edge">
<title>Node2&#45;&gt;Node4</title>
<path fill="none" stroke="midnightblue" d="M89.02,-47.86C96.12,-38.5 104.6,-27.33 110.36,-19.75"/>
<polygon fill="midnightblue" stroke="midnightblue" points="86.03,-46 82.77,-56.08 91.61,-50.24 86.03,-46"/>
</g>
<!-- Node11&#45;&gt;Node12 -->
<g id="edge12" class="edge">
<title>Node11&#45;&gt;Node12</title>
<path fill="none" stroke="midnightblue" d="M958.42,-50.38C944.69,-40.62 927.07,-28.11 915.43,-19.83"/>
<polygon fill="midnightblue" stroke="midnightblue" points="956.61,-53.38 966.79,-56.32 960.66,-47.68 956.61,-53.38"/>
</g>
<!-- Node11&#45;&gt;Node13 -->
<g id="edge13" class="edge">
<title>Node11&#45;&gt;Node13</title>
<path fill="none" stroke="midnightblue" d="M997.83,-49.82C1009.84,-40.15 1024.97,-27.95 1035.04,-19.83"/>
<polygon fill="midnightblue" stroke="midnightblue" points="995.35,-47.32 989.76,-56.32 999.75,-52.77 995.35,-47.32"/>
</g>
<!-- Node18 -->
<g id="node18" class="node">
<title>Node18</title>
<g id="a_node18"><a xlink:href="../../de/d12/blob_8cc.html" target="_top" xlink:title=" ">
<polygon fill="white" stroke="black" points="1469.5,-0.5 1469.5,-19.5 1516.5,-19.5 1516.5,-0.5 1469.5,-0.5"/>
<text text-anchor="middle" x="1493" y="-7.5" font-family="Helvetica,sans-Serif" font-size="10.00">blob.cc</text>
</a>
</g>
</g>
<!-- Node17&#45;&gt;Node18 -->
<g id="edge20" class="edge">
<title>Node17&#45;&gt;Node18</title>
<path fill="none" stroke="midnightblue" d="M1493,-45.8C1493,-36.91 1493,-26.78 1493,-19.75"/>
<polygon fill="midnightblue" stroke="midnightblue" points="1489.5,-46.08 1493,-56.08 1496.5,-46.08 1489.5,-46.08"/>
</g>
<!-- Node27&#45;&gt;Node28 -->
<g id="edge31" class="edge">
<title>Node27&#45;&gt;Node28</title>
<path fill="none" stroke="midnightblue" d="M2316.34,-46.98C2321.09,-37.82 2326.66,-27.09 2330.46,-19.75"/>
<polygon fill="midnightblue" stroke="midnightblue" points="2313.12,-45.59 2311.62,-56.08 2319.33,-48.82 2313.12,-45.59"/>
</g>
</g>
</svg>
        <g id="navigator" transform="translate(0 0)" fill="#404254">
                <rect fill="#f2f5e9" fill-opacity="0.5" stroke="#606060" stroke-width=".5" x="0" y="0" width="60" height="60"/>
                <use id="zoomplus" xlink:href="#zoomPlus" x="17" y="9" onmousedown="handleZoom(evt,'in')"/>
                <use id="zoomminus" xlink:href="#zoomMin" x="42" y="9" onmousedown="handleZoom(evt,'out')"/>
                <use id="reset" xlink:href="#resetDef" x="30" y="36" onmousedown="handleReset()"/>
                <g id="arrowUp" xlink:href="#dirArrow" transform="translate(30 24)" onmousedown="handlePan(0,-1)">
                  <use xlink:href="#rim" fill="#404040">
                        <set attributeName="fill" to="#808080" begin="arrowUp.mouseover" end="arrowUp.mouseout"/>
                  </use>
                  <path fill="none" stroke="white" stroke-width="1.5" d="M0,-3.0v7 M-2.5,-0.5L0,-3.0L2.5,-0.5"/>
                </g>
                <g id="arrowRight" xlink:href="#dirArrow" transform="rotate(90) translate(36 -43)" onmousedown="handlePan(1,0)">
                  <use xlink:href="#rim" fill="#404040">
                        <set attributeName="fill" to="#808080" begin="arrowRight.mouseover" end="arrowRight.mouseout"/>
                  </use>
                  <path fill="none" stroke="white" stroke-width="1.5" d="M0,-3.0v7 M-2.5,-0.5L0,-3.0L2.5,-0.5"/>
                </g>
                <g id="arrowDown" xlink:href="#dirArrow" transform="rotate(180) translate(-30 -48)" onmousedown="handlePan(0,1)">
                  <use xlink:href="#rim" fill="#404040">
                        <set attributeName="fill" to="#808080" begin="arrowDown.mouseover" end="arrowDown.mouseout"/>
                  </use>
                  <path fill="none" stroke="white" stroke-width="1.5" d="M0,-3.0v7 M-2.5,-0.5L0,-3.0L2.5,-0.5"/>
                </g>
                <g id="arrowLeft" xlink:href="#dirArrow" transform="rotate(270) translate(-36 17)" onmousedown="handlePan(-1,0)">
                  <use xlink:href="#rim" fill="#404040">
                        <set attributeName="fill" to="#808080" begin="arrowLeft.mouseover" end="arrowLeft.mouseout"/>
                  </use>
                  <path fill="none" stroke="white" stroke-width="1.5" d="M0,-3.0v7 M-2.5,-0.5L0,-3.0L2.5,-0.5"/>
                </g>
        </g>
        <svg viewBox="0 0 15 15" width="100%" height="30px" preserveAspectRatio="xMaxYMin meet">
         <g id="arrow_out" transform="scale(0.3 0.3)">
          <a xlink:href="io_8h__dep__incl_org.svg" target="_base">
           <rect id="button" ry="5" rx="5" y="6" x="6" height="38" width="38"
                fill="#f2f5e9" fill-opacity="0.5" stroke="#606060" stroke-width="1.0"/>
           <path id="arrow"
             d="M 11.500037,31.436501 C 11.940474,20.09759 22.043105,11.32322 32.158766,21.979434 L 37.068811,17.246167 C 37.068811,17.246167 37.088388,32 37.088388,32 L 22.160133,31.978069 C 22.160133,31.978069 26.997745,27.140456 26.997745,27.140456 C 18.528582,18.264221 13.291696,25.230495 11.500037,31.436501 z"
             style="fill:#404040;"/>
          </a>
         </g>
        </svg>
</svg>
