<?xml version="1.0" encoding="UTF-8" standalone="no"?>
<!DOCTYPE svg PUBLIC "-//W3C//DTD SVG 1.1//EN"
 "http://www.w3.org/Graphics/SVG/1.1/DTD/svg11.dtd">
<!-- Generated by graphviz version 2.42.3 ()
 -->
<!-- Title: io.h Pages: 1 -->
<svg width="2873pt" height="140pt"
 viewBox="0.00 0.00 2873.00 140.00" xmlns="http://www.w3.org/2000/svg" xmlns:xlink="http://www.w3.org/1999/xlink">
<g id="graph0" class="graph" transform="scale(1 1) rotate(0) translate(4 136)">
<title>io.h</title>
<polygon fill="white" stroke="transparent" points="-4,4 -4,-136 2869,-136 2869,4 -4,4"/>
<!-- Node1 -->
<g id="node1" class="node">
<title>Node1</title>
<g id="a_node1"><a xlink:title=" ">
<polygon fill="#bfbfbf" stroke="black" points="1430,-112.5 1430,-131.5 1462,-131.5 1462,-112.5 1430,-112.5"/>
<text text-anchor="middle" x="1446" y="-119.5" font-family="Helvetica,sans-Serif" font-size="10.00">io.h</text>
</a>
</g>
</g>
<!-- Node2 -->
<g id="node2" class="node">
<title>Node2</title>
<g id="a_node2"><a xlink:href="../../dd/d95/http__server_8h.html" target="_top" xlink:title=" ">
<polygon fill="white" stroke="black" points="39.5,-56.5 39.5,-75.5 112.5,-75.5 112.5,-56.5 39.5,-56.5"/>
<text text-anchor="middle" x="76" y="-63.5" font-family="Helvetica,sans-Serif" font-size="10.00">http_server.h</text>
</a>
</g>
</g>
<!-- Node1&#45;&gt;Node2 -->
<g id="edge1" class="edge">
<title>Node1&#45;&gt;Node2</title>
<path fill="none" stroke="midnightblue" d="M1419.69,-120.61C1257.42,-118.11 390.97,-103.66 127,-76 122.35,-75.51 117.49,-74.85 112.68,-74.11"/>
<polygon fill="midnightblue" stroke="midnightblue" points="1419.69,-124.11 1429.74,-120.76 1419.8,-117.11 1419.69,-124.11"/>
</g>
<!-- Node3 -->
<g id="node3" class="node">
<title>Node3</title>
<g id="a_node3"><a xlink:href="../../dd/de7/core_8cc.html" target="_top" xlink:title=" ">
<polygon fill="white" stroke="black" points="0,-0.5 0,-19.5 48,-19.5 48,-0.5 0,-0.5"/>
<text text-anchor="middle" x="24" y="-7.5" font-family="Helvetica,sans-Serif" font-size="10.00">core.cc</text>
</a>
</g>
</g>
<!-- Node1&#45;&gt;Node3 -->
<g id="edge4" class="edge">
<title>Node1&#45;&gt;Node3</title>
<path fill="none" stroke="midnightblue" d="M1419.61,-121.14C1230.11,-122.05 82.56,-125.49 30,-76 14.65,-61.55 18.44,-33.79 21.66,-19.68"/>
<polygon fill="midnightblue" stroke="midnightblue" points="1419.8,-124.64 1429.78,-121.09 1419.76,-117.64 1419.8,-124.64"/>
</g>
<!-- Node4 -->
<g id="node4" class="node">
<title>Node4</title>
<g id="a_node4"><a xlink:href="../../d6/d61/http__server_8cc.html" target="_top" xlink:title=" ">
<polygon fill="white" stroke="black" points="78,-0.5 78,-19.5 156,-19.5 156,-0.5 78,-0.5"/>
<text text-anchor="middle" x="117" y="-7.5" font-family="Helvetica,sans-Serif" font-size="10.00">http_server.cc</text>
</a>
</g>
</g>
<!-- Node1&#45;&gt;Node4 -->
<g id="edge23" class="edge">
<title>Node1&#45;&gt;Node4</title>
<path fill="none" stroke="midnightblue" d="M1419.51,-120.76C1240.83,-119.05 216.91,-107.88 160,-76 137.81,-63.57 125.02,-34.34 119.79,-19.69"/>
<polygon fill="midnightblue" stroke="midnightblue" points="1419.58,-124.26 1429.61,-120.85 1419.64,-117.26 1419.58,-124.26"/>
</g>
<!-- Node5 -->
<g id="node5" class="node">
<title>Node5</title>
<g id="a_node5"><a xlink:href="../../d0/dd2/digital__signature_8cc.html" target="_top" xlink:title=" ">
<polygon fill="white" stroke="black" points="169,-56.5 169,-75.5 269,-75.5 269,-56.5 169,-56.5"/>
<text text-anchor="middle" x="219" y="-63.5" font-family="Helvetica,sans-Serif" font-size="10.00">digital_signature.cc</text>
</a>
</g>
</g>
<!-- Node1&#45;&gt;Node5 -->
<g id="edge5" class="edge">
<title>Node1&#45;&gt;Node5</title>
<path fill="none" stroke="midnightblue" d="M1419.52,-121.08C1292.55,-121.25 733.43,-119.37 278,-76 275.11,-75.72 272.15,-75.4 269.16,-75.05"/>
<polygon fill="midnightblue" stroke="midnightblue" points="1419.83,-124.58 1429.82,-121.06 1419.81,-117.58 1419.83,-124.58"/>
</g>
<!-- Node6 -->
<g id="node6" class="node">
<title>Node6</title>
<g id="a_node6"><a xlink:href="../../d8/d0d/hash__transformation_8cc.html" target="_top" xlink:title=" ">
<polygon fill="white" stroke="black" points="287,-56.5 287,-75.5 405,-75.5 405,-56.5 287,-56.5"/>
<text text-anchor="middle" x="346" y="-63.5" font-family="Helvetica,sans-Serif" font-size="10.00">hash_transformation.cc</text>
</a>
</g>
</g>
<!-- Node1&#45;&gt;Node6 -->
<g id="edge6" class="edge">
<title>Node1&#45;&gt;Node6</title>
<path fill="none" stroke="midnightblue" d="M1419.69,-120.7C1302.15,-119.2 813.35,-111.07 414,-76 411.15,-75.75 408.24,-75.47 405.3,-75.16"/>
<polygon fill="midnightblue" stroke="midnightblue" points="1419.85,-124.21 1429.89,-120.83 1419.94,-117.21 1419.85,-124.21"/>
</g>
<!-- Node7 -->
<g id="node7" class="node">
<title>Node7</title>
<g id="a_node7"><a xlink:href="../../dd/ded/secure__random_8cc.html" target="_top" xlink:title=" ">
<polygon fill="white" stroke="black" points="423,-56.5 423,-75.5 519,-75.5 519,-56.5 423,-56.5"/>
<text text-anchor="middle" x="471" y="-63.5" font-family="Helvetica,sans-Serif" font-size="10.00">secure_random.cc</text>
</a>
</g>
</g>
<!-- Node1&#45;&gt;Node7 -->
<g id="edge7" class="edge">
<title>Node1&#45;&gt;Node7</title>
<path fill="none" stroke="midnightblue" d="M1419.84,-120.75C1310.54,-119.47 879.79,-112.29 528,-76 525.11,-75.7 522.14,-75.36 519.15,-74.98"/>
<polygon fill="midnightblue" stroke="midnightblue" points="1419.91,-124.25 1429.94,-120.86 1419.98,-117.25 1419.91,-124.25"/>
</g>
<!-- Node8 -->
<g id="node8" class="node">
<title>Node8</title>
<g id="a_node8"><a xlink:href="../../d0/dcc/protobuf__factory_8cc.html" target="_top" xlink:title=" ">
<polygon fill="white" stroke="black" points="537.5,-56.5 537.5,-75.5 636.5,-75.5 636.5,-56.5 537.5,-56.5"/>
<text text-anchor="middle" x="587" y="-63.5" font-family="Helvetica,sans-Serif" font-size="10.00">protobuf_factory.cc</text>
</a>
</g>
</g>
<!-- Node1&#45;&gt;Node8 -->
<g id="edge8" class="edge">
<title>Node1&#45;&gt;Node8</title>
<path fill="none" stroke="midnightblue" d="M1419.7,-120.46C1319.01,-118.18 948.4,-107.98 645,-76 642.26,-75.71 639.46,-75.38 636.63,-75.03"/>
<polygon fill="midnightblue" stroke="midnightblue" points="1419.8,-123.96 1429.87,-120.68 1419.95,-116.96 1419.8,-123.96"/>
</g>
<!-- Node9 -->
<g id="node9" class="node">
<title>Node9</title>
<g id="a_node9"><a xlink:href="../../da/d58/protobuf__msg_8cc.html" target="_top" xlink:title=" ">
<polygon fill="white" stroke="black" points="654.5,-56.5 654.5,-75.5 743.5,-75.5 743.5,-56.5 654.5,-56.5"/>
<text text-anchor="middle" x="699" y="-63.5" font-family="Helvetica,sans-Serif" font-size="10.00">protobuf_msg.cc</text>
</a>
</g>
</g>
<!-- Node1&#45;&gt;Node9 -->
<g id="edge9" class="edge">
<title>Node1&#45;&gt;Node9</title>
<path fill="none" stroke="midnightblue" d="M1419.75,-120.24C1327.82,-117.4 1011.95,-105.91 753,-76 749.98,-75.65 746.87,-75.25 743.74,-74.81"/>
<polygon fill="midnightblue" stroke="midnightblue" points="1419.73,-123.75 1429.83,-120.55 1419.94,-116.75 1419.73,-123.75"/>
</g>
<!-- Node10 -->
<g id="node10" class="node">
<title>Node10</title>
<g id="a_node10"><a xlink:href="../../dc/d05/protobuf__schema_8cc.html" target="_top" xlink:title=" ">
<polygon fill="white" stroke="black" points="762,-56.5 762,-75.5 866,-75.5 866,-56.5 762,-56.5"/>
<text text-anchor="middle" x="814" y="-63.5" font-family="Helvetica,sans-Serif" font-size="10.00">protobuf_schema.cc</text>
</a>
</g>
</g>
<!-- Node1&#45;&gt;Node10 -->
<g id="edge10" class="edge">
<title>Node1&#45;&gt;Node10</title>
<path fill="none" stroke="midnightblue" d="M1419.49,-119.42C1338.51,-114.49 1087.33,-98.36 880,-76 875.52,-75.52 870.87,-74.97 866.21,-74.39"/>
<polygon fill="midnightblue" stroke="midnightblue" points="1419.57,-122.93 1429.76,-120.04 1419.99,-115.95 1419.57,-122.93"/>
</g>
<!-- Node11 -->
<g id="node11" class="node">
<title>Node11</title>
<g id="a_node11"><a xlink:href="../../dc/dbc/eth__helper__functions_8h.html" target="_top" xlink:title=" ">
<polygon fill="white" stroke="black" points="922,-56.5 922,-75.5 1036,-75.5 1036,-56.5 922,-56.5"/>
<text text-anchor="middle" x="979" y="-63.5" font-family="Helvetica,sans-Serif" font-size="10.00">eth_helper_functions.h</text>
</a>
</g>
</g>
<!-- Node1&#45;&gt;Node11 -->
<g id="edge11" class="edge">
<title>Node1&#45;&gt;Node11</title>
<path fill="none" stroke="midnightblue" d="M1419.82,-118.14C1356.37,-111.19 1189.3,-92.74 1050,-76 1045.56,-75.47 1040.96,-74.9 1036.34,-74.33"/>
<polygon fill="midnightblue" stroke="midnightblue" points="1419.45,-121.62 1429.77,-119.23 1420.21,-114.67 1419.45,-121.62"/>
</g>
<!-- Node12 -->
<g id="node12" class="node">
<title>Node12</title>
<g id="a_node12"><a xlink:href="../../d8/da6/eth__contract__curl_8cc.html" target="_top" xlink:title=" ">
<polygon fill="white" stroke="black" points="818,-0.5 818,-19.5 922,-19.5 922,-0.5 818,-0.5"/>
<text text-anchor="middle" x="870" y="-7.5" font-family="Helvetica,sans-Serif" font-size="10.00">eth_contract_curl.cc</text>
</a>
</g>
</g>
<!-- Node1&#45;&gt;Node12 -->
<g id="edge15" class="edge">
<title>Node1&#45;&gt;Node12</title>
<path fill="none" stroke="midnightblue" d="M1419.62,-120.11C1318.21,-116.53 956.88,-102.02 913,-76 891.12,-63.02 878.19,-34.05 872.86,-19.58"/>
<polygon fill="midnightblue" stroke="midnightblue" points="1419.78,-123.62 1429.9,-120.47 1420.03,-116.63 1419.78,-123.62"/>
</g>
<!-- Node13 -->
<g id="node13" class="node">
<title>Node13</title>
<g id="a_node13"><a xlink:href="../../d4/d57/eth__contract__curl__test_8cc.html" target="_top" xlink:title=" ">
<polygon fill="white" stroke="black" points="940,-0.5 940,-19.5 1066,-19.5 1066,-0.5 940,-0.5"/>
<text text-anchor="middle" x="1003" y="-7.5" font-family="Helvetica,sans-Serif" font-size="10.00">eth_contract_curl_test.cc</text>
</a>
</g>
</g>
<!-- Node1&#45;&gt;Node13 -->
<g id="edge16" class="edge">
<title>Node1&#45;&gt;Node13</title>
<path fill="none" stroke="midnightblue" d="M1419.69,-121.05C1362.06,-120.4 1221.01,-114.63 1111,-76 1072.39,-62.44 1032.56,-34.01 1013.89,-19.67"/>
<polygon fill="midnightblue" stroke="midnightblue" points="1419.74,-124.55 1429.77,-121.12 1419.79,-117.55 1419.74,-124.55"/>
</g>
<!-- Node14 -->
<g id="node14" class="node">
<title>Node14</title>
<g id="a_node14"><a xlink:href="../../da/d5c/eth__transaction_8cc.html" target="_top" xlink:title=" ">
<polygon fill="white" stroke="black" points="1084,-0.5 1084,-19.5 1180,-19.5 1180,-0.5 1084,-0.5"/>
<text text-anchor="middle" x="1132" y="-7.5" font-family="Helvetica,sans-Serif" font-size="10.00">eth_transaction.cc</text>
</a>
</g>
</g>
<!-- Node1&#45;&gt;Node14 -->
<g id="edge19" class="edge">
<title>Node1&#45;&gt;Node14</title>
<path fill="none" stroke="midnightblue" d="M1419.51,-121.57C1349.05,-122.45 1159.8,-120.54 1121,-76 1107.17,-60.12 1118.9,-33.49 1126.6,-19.76"/>
<polygon fill="midnightblue" stroke="midnightblue" points="1419.81,-125.06 1429.75,-121.41 1419.7,-118.06 1419.81,-125.06"/>
</g>
<!-- Node15 -->
<g id="node15" class="node">
<title>Node15</title>
<g id="a_node15"><a xlink:href="../../d2/d4b/eth__contract__raw_8cc.html" target="_top" xlink:title=" ">
<polygon fill="white" stroke="black" points="1130,-56.5 1130,-75.5 1234,-75.5 1234,-56.5 1130,-56.5"/>
<text text-anchor="middle" x="1182" y="-63.5" font-family="Helvetica,sans-Serif" font-size="10.00">eth_contract_raw.cc</text>
</a>
</g>
</g>
<!-- Node1&#45;&gt;Node15 -->
<g id="edge17" class="edge">
<title>Node1&#45;&gt;Node15</title>
<path fill="none" stroke="midnightblue" d="M1419.87,-115.65C1374.08,-106.29 1278.99,-86.84 1223.91,-75.57"/>
<polygon fill="midnightblue" stroke="midnightblue" points="1419.38,-119.13 1429.88,-117.7 1420.79,-112.27 1419.38,-119.13"/>
</g>
<!-- Node16 -->
<g id="node16" class="node">
<title>Node16</title>
<g id="a_node16"><a xlink:href="../../df/d01/eth__contract__raw__test_8cc.html" target="_top" xlink:title=" ">
<polygon fill="white" stroke="black" points="1252,-56.5 1252,-75.5 1378,-75.5 1378,-56.5 1252,-56.5"/>
<text text-anchor="middle" x="1315" y="-63.5" font-family="Helvetica,sans-Serif" font-size="10.00">eth_contract_raw_test.cc</text>
</a>
</g>
</g>
<!-- Node1&#45;&gt;Node16 -->
<g id="edge18" class="edge">
<title>Node1&#45;&gt;Node16</title>
<path fill="none" stroke="midnightblue" d="M1420.51,-110.49C1395.86,-100.33 1358.95,-85.12 1335.96,-75.64"/>
<polygon fill="midnightblue" stroke="midnightblue" points="1419.36,-113.8 1429.94,-114.38 1422.03,-107.33 1419.36,-113.8"/>
</g>
<!-- Node17 -->
<g id="node17" class="node">
<title>Node17</title>
<g id="a_node17"><a xlink:href="../../d8/d3c/blob_8h.html" target="_top" xlink:title=" ">
<polygon fill="white" stroke="black" points="1396,-56.5 1396,-75.5 1438,-75.5 1438,-56.5 1396,-56.5"/>
<text text-anchor="middle" x="1417" y="-63.5" font-family="Helvetica,sans-Serif" font-size="10.00">blob.h</text>
</a>
</g>
</g>
<!-- Node1&#45;&gt;Node17 -->
<g id="edge20" class="edge">
<title>Node1&#45;&gt;Node17</title>
<path fill="none" stroke="midnightblue" d="M1436.32,-102.98C1431.4,-93.82 1425.64,-83.09 1421.7,-75.75"/>
<polygon fill="midnightblue" stroke="midnightblue" points="1433.4,-104.93 1441.21,-112.08 1439.56,-101.62 1433.4,-104.93"/>
</g>
<!-- Node19 -->
<g id="node19" class="node">
<title>Node19</title>
<g id="a_node19"><a xlink:href="../../db/dd3/io_8cc.html" target="_top" xlink:title=" ">
<polygon fill="white" stroke="black" points="1456.5,-56.5 1456.5,-75.5 1493.5,-75.5 1493.5,-56.5 1456.5,-56.5"/>
<text text-anchor="middle" x="1475" y="-63.5" font-family="Helvetica,sans-Serif" font-size="10.00">io.cc</text>
</a>
</g>
</g>
<!-- Node1&#45;&gt;Node19 -->
<g id="edge22" class="edge">
<title>Node1&#45;&gt;Node19</title>
<path fill="none" stroke="midnightblue" d="M1455.68,-102.98C1460.6,-93.82 1466.36,-83.09 1470.3,-75.75"/>
<polygon fill="midnightblue" stroke="midnightblue" points="1452.44,-101.62 1450.79,-112.08 1458.6,-104.93 1452.44,-101.62"/>
</g>
<!-- Node20 -->
<g id="node20" class="node">
<title>Node20</title>
<g id="a_node20"><a xlink:href="../../d6/d86/simulated__connection_8cc.html" target="_top" xlink:title=" ">
<polygon fill="white" stroke="black" points="1512,-56.5 1512,-75.5 1636,-75.5 1636,-56.5 1512,-56.5"/>
<text text-anchor="middle" x="1574" y="-63.5" font-family="Helvetica,sans-Serif" font-size="10.00">simulated_connection.cc</text>
</a>
</g>
</g>
<!-- Node1&#45;&gt;Node20 -->
<g id="edge24" class="edge">
<title>Node1&#45;&gt;Node20</title>
<path fill="none" stroke="midnightblue" d="M1471.46,-110.26C1495.61,-100.07 1531.43,-84.96 1553.71,-75.56"/>
<polygon fill="midnightblue" stroke="midnightblue" points="1470.06,-107.05 1462.21,-114.16 1472.79,-113.5 1470.06,-107.05"/>
</g>
<!-- Node21 -->
<g id="node21" class="node">
<title>Node21</title>
<g id="a_node21"><a xlink:href="../../d5/dc9/tcp__implementation_8cc.html" target="_top" xlink:title=" ">
<polygon fill="white" stroke="black" points="1654,-56.5 1654,-75.5 1768,-75.5 1768,-56.5 1654,-56.5"/>
<text text-anchor="middle" x="1711" y="-63.5" font-family="Helvetica,sans-Serif" font-size="10.00">tcp_implementation.cc</text>
</a>
</g>
</g>
<!-- Node1&#45;&gt;Node21 -->
<g id="edge25" class="edge">
<title>Node1&#45;&gt;Node21</title>
<path fill="none" stroke="midnightblue" d="M1472.23,-115.65C1518.19,-106.29 1613.64,-86.84 1668.93,-75.57"/>
<polygon fill="midnightblue" stroke="midnightblue" points="1471.28,-112.28 1462.18,-117.7 1472.68,-119.14 1471.28,-112.28"/>
</g>
<!-- Node22 -->
<g id="node22" class="node">
<title>Node22</title>
<g id="a_node22"><a xlink:href="../../db/d7e/lua__node_8cc.html" target="_top" xlink:title=" ">
<polygon fill="white" stroke="black" points="1786,-56.5 1786,-75.5 1854,-75.5 1854,-56.5 1786,-56.5"/>
<text text-anchor="middle" x="1820" y="-63.5" font-family="Helvetica,sans-Serif" font-size="10.00">lua_node.cc</text>
</a>
</g>
</g>
<!-- Node1&#45;&gt;Node22 -->
<g id="edge26" class="edge">
<title>Node1&#45;&gt;Node22</title>
<path fill="none" stroke="midnightblue" d="M1472.41,-118.06C1528.62,-111.65 1664.22,-95.44 1777,-76 1779.86,-75.51 1782.81,-74.96 1785.77,-74.39"/>
<polygon fill="midnightblue" stroke="midnightblue" points="1471.79,-114.6 1462.25,-119.21 1472.58,-121.56 1471.79,-114.6"/>
</g>
<!-- Node23 -->
<g id="node23" class="node">
<title>Node23</title>
<g id="a_node23"><a xlink:href="../../dc/dfd/node_8cc.html" target="_top" xlink:title=" ">
<polygon fill="white" stroke="black" points="1872,-56.5 1872,-75.5 1922,-75.5 1922,-56.5 1872,-56.5"/>
<text text-anchor="middle" x="1897" y="-63.5" font-family="Helvetica,sans-Serif" font-size="10.00">node.cc</text>
</a>
</g>
</g>
<!-- Node1&#45;&gt;Node23 -->
<g id="edge27" class="edge">
<title>Node1&#45;&gt;Node23</title>
<path fill="none" stroke="midnightblue" d="M1472.36,-119.54C1538.54,-115.59 1716.8,-103.08 1863,-76 1865.88,-75.47 1868.88,-74.82 1871.85,-74.11"/>
<polygon fill="midnightblue" stroke="midnightblue" points="1471.81,-116.07 1462.03,-120.15 1472.22,-123.06 1471.81,-116.07"/>
</g>
<!-- Node24 -->
<g id="node24" class="node">
<title>Node24</title>
<g id="a_node24"><a xlink:href="../../df/de4/bind__crypto_8cc.html" target="_top" xlink:title=" ">
<polygon fill="white" stroke="black" points="1940.5,-56.5 1940.5,-75.5 2019.5,-75.5 2019.5,-56.5 1940.5,-56.5"/>
<text text-anchor="middle" x="1980" y="-63.5" font-family="Helvetica,sans-Serif" font-size="10.00">bind_crypto.cc</text>
</a>
</g>
</g>
<!-- Node1&#45;&gt;Node24 -->
<g id="edge28" class="edge">
<title>Node1&#45;&gt;Node24</title>
<path fill="none" stroke="midnightblue" d="M1472.56,-119.37C1545.83,-114.7 1756.9,-100.02 1931,-76 1934.08,-75.57 1937.27,-75.09 1940.47,-74.57"/>
<polygon fill="midnightblue" stroke="midnightblue" points="1472.15,-115.89 1462.39,-120.01 1472.59,-122.88 1472.15,-115.89"/>
</g>
<!-- Node25 -->
<g id="node25" class="node">
<title>Node25</title>
<g id="a_node25"><a xlink:href="../../d8/dd3/bind__data_8cc.html" target="_top" xlink:title=" ">
<polygon fill="white" stroke="black" points="2037.5,-56.5 2037.5,-75.5 2108.5,-75.5 2108.5,-56.5 2037.5,-56.5"/>
<text text-anchor="middle" x="2073" y="-63.5" font-family="Helvetica,sans-Serif" font-size="10.00">bind_data.cc</text>
</a>
</g>
</g>
<!-- Node1&#45;&gt;Node25 -->
<g id="edge29" class="edge">
<title>Node1&#45;&gt;Node25</title>
<path fill="none" stroke="midnightblue" d="M1472.52,-120.09C1555.11,-116.99 1814.93,-105.44 2028,-76 2031,-75.59 2034.1,-75.1 2037.2,-74.56"/>
<polygon fill="midnightblue" stroke="midnightblue" points="1472.14,-116.6 1462.28,-120.46 1472.4,-123.59 1472.14,-116.6"/>
</g>
<!-- Node26 -->
<g id="node26" class="node">
<title>Node26</title>
<g id="a_node26"><a xlink:href="../../db/d7f/engine_8cc.html" target="_top" xlink:title=" ">
<polygon fill="white" stroke="black" points="2127,-56.5 2127,-75.5 2185,-75.5 2185,-56.5 2127,-56.5"/>
<text text-anchor="middle" x="2156" y="-63.5" font-family="Helvetica,sans-Serif" font-size="10.00">engine.cc</text>
</a>
</g>
</g>
<!-- Node1&#45;&gt;Node26 -->
<g id="edge30" class="edge">
<title>Node1&#45;&gt;Node26</title>
<path fill="none" stroke="midnightblue" d="M1472.37,-120.74C1562.73,-119.54 1868.09,-112.83 2117,-76 2120.16,-75.53 2123.45,-74.94 2126.71,-74.29"/>
<polygon fill="midnightblue" stroke="midnightblue" points="1472.16,-117.24 1462.2,-120.87 1472.24,-124.24 1472.16,-117.24"/>
</g>
<!-- Node27 -->
<g id="node27" class="node">
<title>Node27</title>
<g id="a_node27"><a xlink:href="../../dc/d27/registry_8h.html" target="_top" xlink:title=" ">
<polygon fill="white" stroke="black" points="2241,-56.5 2241,-75.5 2297,-75.5 2297,-56.5 2241,-56.5"/>
<text text-anchor="middle" x="2269" y="-63.5" font-family="Helvetica,sans-Serif" font-size="10.00">registry.h</text>
</a>
</g>
</g>
<!-- Node1&#45;&gt;Node27 -->
<g id="edge31" class="edge">
<title>Node1&#45;&gt;Node27</title>
<path fill="none" stroke="midnightblue" d="M1472.33,-120.94C1571.64,-120.43 1932.81,-115.76 2227,-76 2231.43,-75.4 2236.1,-74.59 2240.64,-73.69"/>
<polygon fill="midnightblue" stroke="midnightblue" points="1472.02,-117.45 1462.03,-120.99 1472.05,-124.45 1472.02,-117.45"/>
</g>
<!-- Node28 -->
<g id="node28" class="node">
<title>Node28</title>
<g id="a_node28"><a xlink:href="../../d5/d9f/registry_8cc.html" target="_top" xlink:title=" ">
<polygon fill="white" stroke="black" points="2210.5,-0.5 2210.5,-19.5 2271.5,-19.5 2271.5,-0.5 2210.5,-0.5"/>
<text text-anchor="middle" x="2241" y="-7.5" font-family="Helvetica,sans-Serif" font-size="10.00">registry.cc</text>
</a>
</g>
</g>
<!-- Node1&#45;&gt;Node28 -->
<g id="edge33" class="edge">
<title>Node1&#45;&gt;Node28</title>
<path fill="none" stroke="midnightblue" d="M1472.27,-120.74C1597.41,-119.34 2129.67,-111.35 2194,-76 2216.95,-63.39 2231.54,-34.25 2237.67,-19.65"/>
<polygon fill="midnightblue" stroke="midnightblue" points="1472.04,-117.25 1462.08,-120.85 1472.11,-124.25 1472.04,-117.25"/>
</g>
<!-- Node29 -->
<g id="node29" class="node">
<title>Node29</title>
<g id="a_node29"><a xlink:href="../../d0/dee/smart__protocol_8cc.html" target="_top" xlink:title=" ">
<polygon fill="white" stroke="black" points="2315,-56.5 2315,-75.5 2409,-75.5 2409,-56.5 2315,-56.5"/>
<text text-anchor="middle" x="2362" y="-63.5" font-family="Helvetica,sans-Serif" font-size="10.00">smart_protocol.cc</text>
</a>
</g>
</g>
<!-- Node1&#45;&gt;Node29 -->
<g id="edge34" class="edge">
<title>Node1&#45;&gt;Node29</title>
<path fill="none" stroke="midnightblue" d="M1472.19,-120.65C1577.25,-119.04 1978.25,-110.81 2306,-76 2308.94,-75.69 2311.96,-75.33 2315,-74.93"/>
<polygon fill="midnightblue" stroke="midnightblue" points="1472.11,-117.15 1462.16,-120.8 1472.21,-124.15 1472.11,-117.15"/>
</g>
<!-- Node30 -->
<g id="node30" class="node">
<title>Node30</title>
<g id="a_node30"><a xlink:href="../../da/dd0/state__impl_8cc.html" target="_top" xlink:title=" ">
<polygon fill="white" stroke="black" points="2427,-56.5 2427,-75.5 2501,-75.5 2501,-56.5 2427,-56.5"/>
<text text-anchor="middle" x="2464" y="-63.5" font-family="Helvetica,sans-Serif" font-size="10.00">state_impl.cc</text>
</a>
</g>
</g>
<!-- Node1&#45;&gt;Node30 -->
<g id="edge35" class="edge">
<title>Node1&#45;&gt;Node30</title>
<path fill="none" stroke="midnightblue" d="M1472.27,-121.2C1585.72,-121.74 2044.67,-120.92 2418,-76 2420.91,-75.65 2423.91,-75.22 2426.92,-74.74"/>
<polygon fill="midnightblue" stroke="midnightblue" points="1472.12,-117.7 1462.1,-121.14 1472.08,-124.69 1472.12,-117.7"/>
</g>
<!-- Node31 -->
<g id="node31" class="node">
<title>Node31</title>
<g id="a_node31"><a xlink:href="../../d1/d67/state__persistent_8cc.html" target="_top" xlink:title=" ">
<polygon fill="white" stroke="black" points="2519.5,-56.5 2519.5,-75.5 2618.5,-75.5 2618.5,-56.5 2519.5,-56.5"/>
<text text-anchor="middle" x="2569" y="-63.5" font-family="Helvetica,sans-Serif" font-size="10.00">state_persistent.cc</text>
</a>
</g>
</g>
<!-- Node1&#45;&gt;Node31 -->
<g id="edge36" class="edge">
<title>Node1&#45;&gt;Node31</title>
<path fill="none" stroke="midnightblue" d="M1472.39,-120.94C1592.29,-120.46 2097.78,-116.04 2510,-76 2513.09,-75.7 2516.27,-75.35 2519.47,-74.96"/>
<polygon fill="midnightblue" stroke="midnightblue" points="1472.29,-117.44 1462.3,-120.98 1472.31,-124.44 1472.29,-117.44"/>
</g>
<!-- Node32 -->
<g id="node32" class="node">
<title>Node32</title>
<g id="a_node32"><a xlink:href="../../df/dd2/testnet_8cc.html" target="_top" xlink:title=" ">
<polygon fill="white" stroke="black" points="2636.5,-56.5 2636.5,-75.5 2695.5,-75.5 2695.5,-56.5 2636.5,-56.5"/>
<text text-anchor="middle" x="2666" y="-63.5" font-family="Helvetica,sans-Serif" font-size="10.00">testnet.cc</text>
</a>
</g>
</g>
<!-- Node1&#45;&gt;Node32 -->
<g id="edge37" class="edge">
<title>Node1&#45;&gt;Node32</title>
<path fill="none" stroke="midnightblue" d="M1472.38,-120.69C1624.78,-118.82 2393.76,-107.89 2628,-76 2630.69,-75.63 2633.46,-75.16 2636.23,-74.63"/>
<polygon fill="midnightblue" stroke="midnightblue" points="1472.08,-117.2 1462.12,-120.82 1472.16,-124.2 1472.08,-117.2"/>
</g>
<!-- Node33 -->
<g id="node33" class="node">
<title>Node33</title>
<g id="a_node33"><a xlink:href="../../d3/d5d/miner_8cc.html" target="_top" xlink:title=" ">
<polygon fill="white" stroke="black" points="2713.5,-56.5 2713.5,-75.5 2766.5,-75.5 2766.5,-56.5 2713.5,-56.5"/>
<text text-anchor="middle" x="2740" y="-63.5" font-family="Helvetica,sans-Serif" font-size="10.00">miner.cc</text>
</a>
</g>
</g>
<!-- Node1&#45;&gt;Node33 -->
<g id="edge38" class="edge">
<title>Node1&#45;&gt;Node33</title>
<path fill="none" stroke="midnightblue" d="M1472.61,-120.83C1631.37,-119.7 2455.03,-112.17 2705,-76 2707.73,-75.6 2710.56,-75.08 2713.37,-74.48"/>
<polygon fill="midnightblue" stroke="midnightblue" points="1472.32,-117.33 1462.35,-120.9 1472.37,-124.33 1472.32,-117.33"/>
</g>
<!-- Node34 -->
<g id="node34" class="node">
<title>Node34</title>
<g id="a_node34"><a xlink:href="../../d4/dd8/miner__main_8cc.html" target="_top" xlink:title=" ">
<polygon fill="white" stroke="black" points="2785,-56.5 2785,-75.5 2865,-75.5 2865,-56.5 2785,-56.5"/>
<text text-anchor="middle" x="2825" y="-63.5" font-family="Helvetica,sans-Serif" font-size="10.00">miner_main.cc</text>
</a>
</g>
</g>
<!-- Node1&#45;&gt;Node34 -->
<g id="edge39" class="edge">
<title>Node1&#45;&gt;Node34</title>
<path fill="none" stroke="midnightblue" d="M1472.53,-120.64C1636.17,-118.32 2509.92,-104.78 2776,-76 2778.92,-75.68 2781.94,-75.29 2784.96,-74.85"/>
<polygon fill="midnightblue" stroke="midnightblue" points="1472.34,-117.14 1462.39,-120.78 1472.44,-124.14 1472.34,-117.14"/>
</g>
<!-- Node2&#45;&gt;Node3 -->
<g id="edge2" class="edge">
<title>Node2&#45;&gt;Node3</title>
<path fill="none" stroke="midnightblue" d="M60.32,-48.72C51.16,-39.2 39.95,-27.56 32.43,-19.75"/>
<polygon fill="midnightblue" stroke="midnightblue" points="57.96,-51.31 67.41,-56.08 63,-46.45 57.96,-51.31"/>
</g>
<!-- Node2&#45;&gt;Node4 -->
<g id="edge3" class="edge">
<title>Node2&#45;&gt;Node4</title>
<path fill="none" stroke="midnightblue" d="M89.02,-47.86C96.12,-38.5 104.6,-27.33 110.36,-19.75"/>
<polygon fill="midnightblue" stroke="midnightblue" points="86.03,-46 82.77,-56.08 91.61,-50.24 86.03,-46"/>
</g>
<!-- Node11&#45;&gt;Node12 -->
<g id="edge12" class="edge">
<title>Node11&#45;&gt;Node12</title>
<path fill="none" stroke="midnightblue" d="M952.48,-51.86C932.27,-41.85 905.01,-28.35 887.47,-19.65"/>
<polygon fill="midnightblue" stroke="midnightblue" points="950.97,-55.02 961.49,-56.32 954.08,-48.75 950.97,-55.02"/>
</g>
<!-- Node11&#45;&gt;Node13 -->
<g id="edge13" class="edge">
<title>Node11&#45;&gt;Node13</title>
<path fill="none" stroke="midnightblue" d="M987.14,-46.69C991.18,-37.59 995.88,-27.01 999.11,-19.75"/>
<polygon fill="midnightblue" stroke="midnightblue" points="983.83,-45.52 982.96,-56.08 990.22,-48.37 983.83,-45.52"/>
</g>
<!-- Node11&#45;&gt;Node14 -->
<g id="edge14" class="edge">
<title>Node11&#45;&gt;Node14</title>
<path fill="none" stroke="midnightblue" d="M1012.89,-53.04C1041.68,-42.88 1082.29,-28.55 1107.87,-19.52"/>
<polygon fill="midnightblue" stroke="midnightblue" points="1011.51,-49.81 1003.24,-56.44 1013.84,-56.42 1011.51,-49.81"/>
</g>
<!-- Node18 -->
<g id="node18" class="node">
<title>Node18</title>
<g id="a_node18"><a xlink:href="../../de/d12/blob_8cc.html" target="_top" xlink:title=" ">
<polygon fill="white" stroke="black" points="1393.5,-0.5 1393.5,-19.5 1440.5,-19.5 1440.5,-0.5 1393.5,-0.5"/>
<text text-anchor="middle" x="1417" y="-7.5" font-family="Helvetica,sans-Serif" font-size="10.00">blob.cc</text>
</a>
</g>
</g>
<!-- Node17&#45;&gt;Node18 -->
<g id="edge21" class="edge">
<title>Node17&#45;&gt;Node18</title>
<path fill="none" stroke="midnightblue" d="M1417,-45.8C1417,-36.91 1417,-26.78 1417,-19.75"/>
<polygon fill="midnightblue" stroke="midnightblue" points="1413.5,-46.08 1417,-56.08 1420.5,-46.08 1413.5,-46.08"/>
</g>
<!-- Node27&#45;&gt;Node28 -->
<g id="edge32" class="edge">
<title>Node27&#45;&gt;Node28</title>
<path fill="none" stroke="midnightblue" d="M2259.66,-46.98C2254.91,-37.82 2249.34,-27.09 2245.54,-19.75"/>
<polygon fill="midnightblue" stroke="midnightblue" points="2256.67,-48.82 2264.38,-56.08 2262.88,-45.59 2256.67,-48.82"/>
</g>
</g>
</svg>
