<?xml version="1.0" encoding="UTF-8" standalone="no"?>
<!DOCTYPE svg PUBLIC "-//W3C//DTD SVG 1.1//EN"
 "http://www.w3.org/Graphics/SVG/1.1/DTD/svg11.dtd">
<!-- Generated by graphviz version 2.42.3 ()
 -->
<!-- Title: msg.h Pages: 1 -->
<!--zoomable 308 -->
<svg id="main" version="1.1" xmlns="http://www.w3.org/2000/svg" xmlns:xlink="http://www.w3.org/1999/xlink" xml:space="preserve" onload="init(evt)">
<style type="text/css"><![CDATA[
.edge:hover path { stroke: red; }
.edge:hover polygon { stroke: red; fill: red; }
]]></style>
<script type="text/javascript"><![CDATA[
var edges = document.getElementsByTagName('g');
if (edges && edges.length) {
  for (var i=0;i<edges.length;i++) {
    if (edges[i].id.substr(0,4)=='edge') {
      edges[i].setAttribute('class','edge');
    }
  }
}
]]></script>
        <defs>
                <circle id="rim" cx="0" cy="0" r="7"/>
                <circle id="rim2" cx="0" cy="0" r="3.5"/>
                <g id="zoomPlus">
                        <use xlink:href="#rim" fill="#404040">
                                <set attributeName="fill" to="#808080" begin="zoomplus.mouseover" end="zoomplus.mouseout"/>
                        </use>
                        <path d="M-4,0h8M0,-4v8" fill="none" stroke="white" stroke-width="1.5" pointer-events="none"/>
                </g>
                <g id="zoomMin">
                        <use xlink:href="#rim" fill="#404040">
                                <set attributeName="fill" to="#808080" begin="zoomminus.mouseover" end="zoomminus.mouseout"/>
                        </use>
                        <path d="M-4,0h8" fill="none" stroke="white" stroke-width="1.5" pointer-events="none"/>
                </g>
                <g id="dirArrow">
                        <path fill="none" stroke="white" stroke-width="1.5" d="M0,-3.0v7 M-2.5,-0.5L0,-3.0L2.5,-0.5"/>
                </g>
               <g id="resetDef">
                       <use xlink:href="#rim2" fill="#404040">
                               <set attributeName="fill" to="#808080" begin="reset.mouseover" end="reset.mouseout"/>
                       </use>
               </g>
        </defs>

<script type="text/javascript">
var viewWidth = 1470;
var viewHeight = 308;
var sectionId = 'dynsection-1';
</script>
<script xlink:href="../../svgpan.js"/>
<svg id="graph" class="graph">
<g id="viewport">
<title>msg.h</title>
<polygon fill="white" stroke="transparent" points="-4,4 -4,-304 1465.5,-304 1465.5,4 -4,4"/>
<!-- Node1 -->
<g id="node1" class="node">
<title>Node1</title>
<g id="a_node1"><a xlink:title=" ">
<polygon fill="#bfbfbf" stroke="black" points="958,-280.5 958,-299.5 1001,-299.5 1001,-280.5 958,-280.5"/>
<text text-anchor="middle" x="979.5" y="-287.5" font-family="Helvetica,sans-Serif" font-size="10.00">msg.h</text>
</a>
</g>
</g>
<!-- Node2 -->
<g id="node2" class="node">
<title>Node2</title>
<g id="a_node2"><a xlink:href="../../de/d06/factory_8h.html" target="_top" xlink:title=" ">
<polygon fill="white" stroke="black" points="512,-224.5 512,-243.5 565,-243.5 565,-224.5 512,-224.5"/>
<text text-anchor="middle" x="538.5" y="-231.5" font-family="Helvetica,sans-Serif" font-size="10.00">factory.h</text>
</a>
</g>
</g>
<!-- Node1&#45;&gt;Node2 -->
<g id="edge1" class="edge">
<title>Node1&#45;&gt;Node2</title>
<path fill="none" stroke="midnightblue" d="M947.85,-285.12C864.9,-274.97 642.27,-247.71 565.2,-238.27"/>
<polygon fill="midnightblue" stroke="midnightblue" points="947.58,-288.62 957.93,-286.36 948.43,-281.67 947.58,-288.62"/>
</g>
<!-- Node8 -->
<g id="node8" class="node">
<title>Node8</title>
<g id="a_node8"><a xlink:href="../../db/d7f/engine_8cc.html" target="_top" xlink:title=" ">
<polygon fill="white" stroke="black" points="707.5,-56.5 707.5,-75.5 765.5,-75.5 765.5,-56.5 707.5,-56.5"/>
<text text-anchor="middle" x="736.5" y="-63.5" font-family="Helvetica,sans-Serif" font-size="10.00">engine.cc</text>
</a>
</g>
</g>
<!-- Node1&#45;&gt;Node8 -->
<g id="edge48" class="edge">
<title>Node1&#45;&gt;Node8</title>
<path fill="none" stroke="midnightblue" d="M958.6,-274.3C932.58,-255.57 887.32,-221.6 852.5,-188 820.52,-157.14 818.69,-143.67 787.5,-112 774.24,-98.54 757.64,-84.33 747.04,-75.56"/>
<polygon fill="midnightblue" stroke="midnightblue" points="956.78,-277.3 966.95,-280.26 960.85,-271.6 956.78,-277.3"/>
</g>
<!-- Node11 -->
<g id="node11" class="node">
<title>Node11</title>
<g id="a_node11"><a xlink:href="../../d5/de1/protobuf__msg_8h.html" target="_top" xlink:title=" ">
<polygon fill="white" stroke="black" points="180,-168.5 180,-187.5 263,-187.5 263,-168.5 180,-168.5"/>
<text text-anchor="middle" x="221.5" y="-175.5" font-family="Helvetica,sans-Serif" font-size="10.00">protobuf_msg.h</text>
</a>
</g>
</g>
<!-- Node1&#45;&gt;Node11 -->
<g id="edge40" class="edge">
<title>Node1&#45;&gt;Node11</title>
<path fill="none" stroke="midnightblue" d="M947.98,-288.87C863.17,-287.99 623.4,-282.06 428.5,-244 359.18,-230.46 280.36,-201.89 243.14,-187.56"/>
<polygon fill="midnightblue" stroke="midnightblue" points="947.96,-292.37 957.99,-288.96 948.02,-285.37 947.96,-292.37"/>
</g>
<!-- Node13 -->
<g id="node13" class="node">
<title>Node13</title>
<g id="a_node13"><a xlink:href="../../d9/d5a/lua__node_8h.html" target="_top" xlink:title=" ">
<polygon fill="white" stroke="black" points="912,-56.5 912,-75.5 975,-75.5 975,-56.5 912,-56.5"/>
<text text-anchor="middle" x="943.5" y="-63.5" font-family="Helvetica,sans-Serif" font-size="10.00">lua_node.h</text>
</a>
</g>
</g>
<!-- Node1&#45;&gt;Node13 -->
<g id="edge41" class="edge">
<title>Node1&#45;&gt;Node13</title>
<path fill="none" stroke="midnightblue" d="M976.47,-270.3C969.06,-224.64 950.29,-108.85 944.94,-75.88"/>
<polygon fill="midnightblue" stroke="midnightblue" points="973.03,-270.99 978.09,-280.3 979.94,-269.87 973.03,-270.99"/>
</g>
<!-- Node16 -->
<g id="node16" class="node">
<title>Node16</title>
<g id="a_node16"><a xlink:href="../../d8/dd3/bind__data_8cc.html" target="_top" xlink:title=" ">
<polygon fill="white" stroke="black" points="692,-112.5 692,-131.5 763,-131.5 763,-112.5 692,-112.5"/>
<text text-anchor="middle" x="727.5" y="-119.5" font-family="Helvetica,sans-Serif" font-size="10.00">bind_data.cc</text>
</a>
</g>
</g>
<!-- Node1&#45;&gt;Node16 -->
<g id="edge47" class="edge">
<title>Node1&#45;&gt;Node16</title>
<path fill="none" stroke="midnightblue" d="M947.73,-286.43C912.84,-282.27 856.49,-271.54 816.5,-244 772.25,-213.54 741.59,-153.75 731.3,-131.56"/>
<polygon fill="midnightblue" stroke="midnightblue" points="947.5,-289.92 957.82,-287.52 948.25,-282.96 947.5,-289.92"/>
</g>
<!-- Node18 -->
<g id="node18" class="node">
<title>Node18</title>
<g id="a_node18"><a xlink:href="../../d1/d77/node_8h.html" target="_top" xlink:title=" ">
<polygon fill="white" stroke="black" points="1010,-112.5 1010,-131.5 1055,-131.5 1055,-112.5 1010,-112.5"/>
<text text-anchor="middle" x="1032.5" y="-119.5" font-family="Helvetica,sans-Serif" font-size="10.00">node.h</text>
</a>
</g>
</g>
<!-- Node1&#45;&gt;Node18 -->
<g id="edge42" class="edge">
<title>Node1&#45;&gt;Node18</title>
<path fill="none" stroke="midnightblue" d="M985.44,-270.39C996.87,-234.59 1021.54,-157.34 1029.76,-131.57"/>
<polygon fill="midnightblue" stroke="midnightblue" points="982.06,-269.48 982.35,-280.08 988.73,-271.61 982.06,-269.48"/>
</g>
<!-- Node24 -->
<g id="node24" class="node">
<title>Node24</title>
<g id="a_node24"><a xlink:href="../../dc/d27/registry_8h.html" target="_top" xlink:title=" ">
<polygon fill="white" stroke="black" points="281.5,-168.5 281.5,-187.5 337.5,-187.5 337.5,-168.5 281.5,-168.5"/>
<text text-anchor="middle" x="309.5" y="-175.5" font-family="Helvetica,sans-Serif" font-size="10.00">registry.h</text>
</a>
</g>
</g>
<!-- Node1&#45;&gt;Node24 -->
<g id="edge49" class="edge">
<title>Node1&#45;&gt;Node24</title>
<path fill="none" stroke="midnightblue" d="M947.89,-288.5C870.97,-286.75 668.31,-278.92 503.5,-244 438.34,-230.2 364.56,-201.74 329.74,-187.51"/>
<polygon fill="midnightblue" stroke="midnightblue" points="947.82,-292 957.89,-288.71 947.96,-285 947.82,-292"/>
</g>
<!-- Node25 -->
<g id="node25" class="node">
<title>Node25</title>
<g id="a_node25"><a xlink:href="../../d0/dd2/digital__signature_8cc.html" target="_top" xlink:title=" ">
<polygon fill="white" stroke="black" points="1045.5,-224.5 1045.5,-243.5 1145.5,-243.5 1145.5,-224.5 1045.5,-224.5"/>
<text text-anchor="middle" x="1095.5" y="-231.5" font-family="Helvetica,sans-Serif" font-size="10.00">digital_signature.cc</text>
</a>
</g>
</g>
<!-- Node1&#45;&gt;Node25 -->
<g id="edge43" class="edge">
<title>Node1&#45;&gt;Node25</title>
<path fill="none" stroke="midnightblue" d="M1007.22,-276.1C1028.89,-266.01 1058.4,-252.27 1077.21,-243.52"/>
<polygon fill="midnightblue" stroke="midnightblue" points="1005.47,-273.05 997.88,-280.44 1008.42,-279.4 1005.47,-273.05"/>
</g>
<!-- Node26 -->
<g id="node26" class="node">
<title>Node26</title>
<g id="a_node26"><a xlink:href="../../d8/d0d/hash__transformation_8cc.html" target="_top" xlink:title=" ">
<polygon fill="white" stroke="black" points="1163.5,-224.5 1163.5,-243.5 1281.5,-243.5 1281.5,-224.5 1163.5,-224.5"/>
<text text-anchor="middle" x="1222.5" y="-231.5" font-family="Helvetica,sans-Serif" font-size="10.00">hash_transformation.cc</text>
</a>
</g>
</g>
<!-- Node1&#45;&gt;Node26 -->
<g id="edge44" class="edge">
<title>Node1&#45;&gt;Node26</title>
<path fill="none" stroke="midnightblue" d="M1010.99,-282C1055.35,-272.14 1136.14,-254.19 1184,-243.56"/>
<polygon fill="midnightblue" stroke="midnightblue" points="1010.07,-278.62 1001.06,-284.21 1011.59,-285.46 1010.07,-278.62"/>
</g>
<!-- Node27 -->
<g id="node27" class="node">
<title>Node27</title>
<g id="a_node27"><a xlink:href="../../dd/ded/secure__random_8cc.html" target="_top" xlink:title=" ">
<polygon fill="white" stroke="black" points="1299.5,-224.5 1299.5,-243.5 1395.5,-243.5 1395.5,-224.5 1299.5,-224.5"/>
<text text-anchor="middle" x="1347.5" y="-231.5" font-family="Helvetica,sans-Serif" font-size="10.00">secure_random.cc</text>
</a>
</g>
</g>
<!-- Node1&#45;&gt;Node27 -->
<g id="edge45" class="edge">
<title>Node1&#45;&gt;Node27</title>
<path fill="none" stroke="midnightblue" d="M1011.04,-284.57C1067.24,-276.66 1188.39,-259.45 1290.5,-244 1293.37,-243.57 1296.33,-243.11 1299.3,-242.65"/>
<polygon fill="midnightblue" stroke="midnightblue" points="1010.42,-281.13 1001.01,-285.99 1011.4,-288.06 1010.42,-281.13"/>
</g>
<!-- Node28 -->
<g id="node28" class="node">
<title>Node28</title>
<g id="a_node28"><a xlink:href="../../de/d80/msg_8cc.html" target="_top" xlink:title=" ">
<polygon fill="white" stroke="black" points="1413.5,-224.5 1413.5,-243.5 1461.5,-243.5 1461.5,-224.5 1413.5,-224.5"/>
<text text-anchor="middle" x="1437.5" y="-231.5" font-family="Helvetica,sans-Serif" font-size="10.00">msg.cc</text>
</a>
</g>
</g>
<!-- Node1&#45;&gt;Node28 -->
<g id="edge46" class="edge">
<title>Node1&#45;&gt;Node28</title>
<path fill="none" stroke="midnightblue" d="M1011.45,-287.38C1082.59,-283.38 1259.19,-271.32 1404.5,-244 1407.42,-243.45 1410.46,-242.77 1413.45,-242.04"/>
<polygon fill="midnightblue" stroke="midnightblue" points="1011.15,-283.89 1001.35,-287.93 1011.53,-290.88 1011.15,-283.89"/>
</g>
<!-- Node3 -->
<g id="node3" class="node">
<title>Node3</title>
<g id="a_node3"><a xlink:href="../../dd/de7/core_8cc.html" target="_top" xlink:title=" ">
<polygon fill="white" stroke="black" points="851.5,-0.5 851.5,-19.5 899.5,-19.5 899.5,-0.5 851.5,-0.5"/>
<text text-anchor="middle" x="875.5" y="-7.5" font-family="Helvetica,sans-Serif" font-size="10.00">core.cc</text>
</a>
</g>
</g>
<!-- Node2&#45;&gt;Node3 -->
<g id="edge2" class="edge">
<title>Node2&#45;&gt;Node3</title>
<path fill="none" stroke="midnightblue" d="M525.46,-216.29C500.3,-181.91 451.05,-102.61 492.5,-56 516.44,-29.08 770.9,-15.62 851.3,-12.01"/>
<polygon fill="midnightblue" stroke="midnightblue" points="522.74,-218.49 531.55,-224.37 528.33,-214.28 522.74,-218.49"/>
</g>
<!-- Node4 -->
<g id="node4" class="node">
<title>Node4</title>
<g id="a_node4"><a xlink:href="../../dc/dd5/protobuf__factory_8h.html" target="_top" xlink:title=" ">
<polygon fill="white" stroke="black" points="308.5,-112.5 308.5,-131.5 402.5,-131.5 402.5,-112.5 308.5,-112.5"/>
<text text-anchor="middle" x="355.5" y="-119.5" font-family="Helvetica,sans-Serif" font-size="10.00">protobuf_factory.h</text>
</a>
</g>
</g>
<!-- Node2&#45;&gt;Node4 -->
<g id="edge3" class="edge">
<title>Node2&#45;&gt;Node4</title>
<path fill="none" stroke="midnightblue" d="M515.22,-219.01C476.81,-195.92 401.27,-150.51 369.79,-131.59"/>
<polygon fill="midnightblue" stroke="midnightblue" points="513.77,-222.22 524.14,-224.37 517.37,-216.22 513.77,-222.22"/>
</g>
<!-- Node2&#45;&gt;Node8 -->
<g id="edge37" class="edge">
<title>Node2&#45;&gt;Node8</title>
<path fill="none" stroke="midnightblue" d="M575.32,-229.7C629.82,-222.58 730.07,-200.38 772.5,-132 784.74,-112.27 761.97,-88.15 747.37,-75.57"/>
<polygon fill="midnightblue" stroke="midnightblue" points="574.57,-226.26 565.06,-230.93 575.41,-233.21 574.57,-226.26"/>
</g>
<!-- Node2&#45;&gt;Node11 -->
<g id="edge11" class="edge">
<title>Node2&#45;&gt;Node11</title>
<path fill="none" stroke="midnightblue" d="M501.73,-226.86C450.39,-218.28 354.32,-202.14 272.5,-188 269.49,-187.48 266.38,-186.94 263.24,-186.39"/>
<polygon fill="midnightblue" stroke="midnightblue" points="501.24,-230.33 511.68,-228.53 502.4,-223.43 501.24,-230.33"/>
</g>
<!-- Node12 -->
<g id="node12" class="node">
<title>Node12</title>
<g id="a_node12"><a xlink:href="../../d1/d55/engine_8h.html" target="_top" xlink:title=" ">
<polygon fill="white" stroke="black" points="569,-168.5 569,-187.5 622,-187.5 622,-168.5 569,-168.5"/>
<text text-anchor="middle" x="595.5" y="-175.5" font-family="Helvetica,sans-Serif" font-size="10.00">engine.h</text>
</a>
</g>
</g>
<!-- Node2&#45;&gt;Node12 -->
<g id="edge15" class="edge">
<title>Node2&#45;&gt;Node12</title>
<path fill="none" stroke="midnightblue" d="M555.12,-217.25C565.23,-207.67 577.78,-195.79 586.18,-187.83"/>
<polygon fill="midnightblue" stroke="midnightblue" points="552.51,-214.91 547.66,-224.32 557.32,-219.99 552.51,-214.91"/>
</g>
<!-- Node2&#45;&gt;Node16 -->
<g id="edge36" class="edge">
<title>Node2&#45;&gt;Node16</title>
<path fill="none" stroke="midnightblue" d="M567.32,-220.36C585.97,-211.87 610.59,-200.05 631.5,-188 663.24,-169.71 698.37,-144.57 716.03,-131.57"/>
<polygon fill="midnightblue" stroke="midnightblue" points="565.84,-217.19 558.16,-224.49 568.71,-223.57 565.84,-217.19"/>
</g>
<!-- Node17 -->
<g id="node17" class="node">
<title>Node17</title>
<g id="a_node17"><a xlink:href="../../d5/dab/smart__protocol_8h.html" target="_top" xlink:title=" ">
<polygon fill="white" stroke="black" points="861,-168.5 861,-187.5 950,-187.5 950,-168.5 861,-168.5"/>
<text text-anchor="middle" x="905.5" y="-175.5" font-family="Helvetica,sans-Serif" font-size="10.00">smart_protocol.h</text>
</a>
</g>
</g>
<!-- Node2&#45;&gt;Node17 -->
<g id="edge23" class="edge">
<title>Node2&#45;&gt;Node17</title>
<path fill="none" stroke="midnightblue" d="M575.4,-227.57C643.27,-217.58 787.65,-196.34 860.89,-185.56"/>
<polygon fill="midnightblue" stroke="midnightblue" points="574.57,-224.15 565.19,-229.07 575.59,-231.08 574.57,-224.15"/>
</g>
<!-- Node23 -->
<g id="node23" class="node">
<title>Node23</title>
<g id="a_node23"><a xlink:href="../../d1/d4e/factory_8cc.html" target="_top" xlink:title=" ">
<polygon fill="white" stroke="black" points="356,-168.5 356,-187.5 415,-187.5 415,-168.5 356,-168.5"/>
<text text-anchor="middle" x="385.5" y="-175.5" font-family="Helvetica,sans-Serif" font-size="10.00">factory.cc</text>
</a>
</g>
</g>
<!-- Node2&#45;&gt;Node23 -->
<g id="edge35" class="edge">
<title>Node2&#45;&gt;Node23</title>
<path fill="none" stroke="midnightblue" d="M504.61,-221.04C475.82,-210.88 435.21,-196.55 409.63,-187.52"/>
<polygon fill="midnightblue" stroke="midnightblue" points="503.66,-224.42 514.26,-224.44 505.99,-217.81 503.66,-224.42"/>
</g>
<!-- Node2&#45;&gt;Node24 -->
<g id="edge38" class="edge">
<title>Node2&#45;&gt;Node24</title>
<path fill="none" stroke="midnightblue" d="M501.73,-224.35C463.27,-215.3 401.14,-200.67 347.5,-188 344.33,-187.25 341.02,-186.47 337.72,-185.69"/>
<polygon fill="midnightblue" stroke="midnightblue" points="501.39,-227.87 511.92,-226.75 502.99,-221.05 501.39,-227.87"/>
</g>
<!-- Node4&#45;&gt;Node3 -->
<g id="edge4" class="edge">
<title>Node4&#45;&gt;Node3</title>
<path fill="none" stroke="midnightblue" d="M373.44,-106.21C393.2,-90.82 426.55,-67.4 459.5,-56 532.87,-30.61 773.74,-16.25 851.24,-12.2"/>
<polygon fill="midnightblue" stroke="midnightblue" points="371.25,-103.48 365.61,-112.45 375.61,-108.95 371.25,-103.48"/>
</g>
<!-- Node5 -->
<g id="node5" class="node">
<title>Node5</title>
<g id="a_node5"><a xlink:href="../../d0/dcc/protobuf__factory_8cc.html" target="_top" xlink:title=" ">
<polygon fill="white" stroke="black" points="0,-56.5 0,-75.5 99,-75.5 99,-56.5 0,-56.5"/>
<text text-anchor="middle" x="49.5" y="-63.5" font-family="Helvetica,sans-Serif" font-size="10.00">protobuf_factory.cc</text>
</a>
</g>
</g>
<!-- Node4&#45;&gt;Node5 -->
<g id="edge5" class="edge">
<title>Node4&#45;&gt;Node5</title>
<path fill="none" stroke="midnightblue" d="M298.29,-110.9C240.46,-100.7 152.08,-85.1 97.71,-75.51"/>
<polygon fill="midnightblue" stroke="midnightblue" points="297.9,-114.39 308.36,-112.68 299.12,-107.5 297.9,-114.39"/>
</g>
<!-- Node6 -->
<g id="node6" class="node">
<title>Node6</title>
<g id="a_node6"><a xlink:href="../../da/d58/protobuf__msg_8cc.html" target="_top" xlink:title=" ">
<polygon fill="white" stroke="black" points="117,-56.5 117,-75.5 206,-75.5 206,-56.5 117,-56.5"/>
<text text-anchor="middle" x="161.5" y="-63.5" font-family="Helvetica,sans-Serif" font-size="10.00">protobuf_msg.cc</text>
</a>
</g>
</g>
<!-- Node4&#45;&gt;Node6 -->
<g id="edge6" class="edge">
<title>Node4&#45;&gt;Node6</title>
<path fill="none" stroke="midnightblue" d="M314.9,-109.7C278.28,-99.51 225.24,-84.74 192.1,-75.52"/>
<polygon fill="midnightblue" stroke="midnightblue" points="314.19,-113.13 324.76,-112.44 316.06,-106.39 314.19,-113.13"/>
</g>
<!-- Node7 -->
<g id="node7" class="node">
<title>Node7</title>
<g id="a_node7"><a xlink:href="../../dc/d05/protobuf__schema_8cc.html" target="_top" xlink:title=" ">
<polygon fill="white" stroke="black" points="303.5,-56.5 303.5,-75.5 407.5,-75.5 407.5,-56.5 303.5,-56.5"/>
<text text-anchor="middle" x="355.5" y="-63.5" font-family="Helvetica,sans-Serif" font-size="10.00">protobuf_schema.cc</text>
</a>
</g>
</g>
<!-- Node4&#45;&gt;Node7 -->
<g id="edge7" class="edge">
<title>Node4&#45;&gt;Node7</title>
<path fill="none" stroke="midnightblue" d="M355.5,-101.8C355.5,-92.91 355.5,-82.78 355.5,-75.75"/>
<polygon fill="midnightblue" stroke="midnightblue" points="352,-102.08 355.5,-112.08 359,-102.08 352,-102.08"/>
</g>
<!-- Node4&#45;&gt;Node8 -->
<g id="edge8" class="edge">
<title>Node4&#45;&gt;Node8</title>
<path fill="none" stroke="midnightblue" d="M412.56,-112.91C495.07,-101.22 644.65,-80.02 707.48,-71.11"/>
<polygon fill="midnightblue" stroke="midnightblue" points="412.01,-109.46 402.6,-114.32 412.99,-116.39 412.01,-109.46"/>
</g>
<!-- Node9 -->
<g id="node9" class="node">
<title>Node9</title>
<g id="a_node9"><a xlink:href="../../d5/d9f/registry_8cc.html" target="_top" xlink:title=" ">
<polygon fill="white" stroke="black" points="224,-56.5 224,-75.5 285,-75.5 285,-56.5 224,-56.5"/>
<text text-anchor="middle" x="254.5" y="-63.5" font-family="Helvetica,sans-Serif" font-size="10.00">registry.cc</text>
</a>
</g>
</g>
<!-- Node4&#45;&gt;Node9 -->
<g id="edge9" class="edge">
<title>Node4&#45;&gt;Node9</title>
<path fill="none" stroke="midnightblue" d="M330.42,-107.59C311.74,-97.61 286.8,-84.27 270.69,-75.65"/>
<polygon fill="midnightblue" stroke="midnightblue" points="328.8,-110.7 339.27,-112.32 332.1,-104.52 328.8,-110.7"/>
</g>
<!-- Node10 -->
<g id="node10" class="node">
<title>Node10</title>
<g id="a_node10"><a xlink:href="../../d0/dee/smart__protocol_8cc.html" target="_top" xlink:title=" ">
<polygon fill="white" stroke="black" points="501.5,-56.5 501.5,-75.5 595.5,-75.5 595.5,-56.5 501.5,-56.5"/>
<text text-anchor="middle" x="548.5" y="-63.5" font-family="Helvetica,sans-Serif" font-size="10.00">smart_protocol.cc</text>
</a>
</g>
</g>
<!-- Node4&#45;&gt;Node10 -->
<g id="edge10" class="edge">
<title>Node4&#45;&gt;Node10</title>
<path fill="none" stroke="midnightblue" d="M395.89,-109.7C432.32,-99.51 485.09,-84.74 518.06,-75.52"/>
<polygon fill="midnightblue" stroke="midnightblue" points="394.77,-106.38 386.08,-112.44 396.65,-113.12 394.77,-106.38"/>
</g>
<!-- Node11&#45;&gt;Node4 -->
<g id="edge12" class="edge">
<title>Node11&#45;&gt;Node4</title>
<path fill="none" stroke="midnightblue" d="M252.18,-164.64C277.32,-154.5 312.25,-140.43 334.37,-131.52"/>
<polygon fill="midnightblue" stroke="midnightblue" points="250.7,-161.46 242.73,-168.44 253.32,-167.95 250.7,-161.46"/>
</g>
<!-- Node11&#45;&gt;Node5 -->
<g id="edge13" class="edge">
<title>Node11&#45;&gt;Node5</title>
<path fill="none" stroke="midnightblue" d="M199.16,-162.71C162.92,-139.53 92.39,-94.43 62.93,-75.59"/>
<polygon fill="midnightblue" stroke="midnightblue" points="197.69,-165.93 208,-168.37 201.46,-160.03 197.69,-165.93"/>
</g>
<!-- Node11&#45;&gt;Node6 -->
<g id="edge14" class="edge">
<title>Node11&#45;&gt;Node6</title>
<path fill="none" stroke="midnightblue" d="M211.86,-159.32C198.79,-135.37 175.98,-93.55 166.19,-75.59"/>
<polygon fill="midnightblue" stroke="midnightblue" points="208.93,-161.27 216.79,-168.37 215.08,-157.91 208.93,-161.27"/>
</g>
<!-- Node12&#45;&gt;Node3 -->
<g id="edge19" class="edge">
<title>Node12&#45;&gt;Node3</title>
<path fill="none" stroke="midnightblue" d="M559.25,-166.02C528.46,-154.77 491.87,-135.61 509.5,-112 520.11,-97.79 771.63,-36.07 851.44,-16.78"/>
<polygon fill="midnightblue" stroke="midnightblue" points="558.36,-169.42 568.96,-169.39 560.66,-162.8 558.36,-169.42"/>
</g>
<!-- Node12&#45;&gt;Node8 -->
<g id="edge22" class="edge">
<title>Node12&#45;&gt;Node8</title>
<path fill="none" stroke="midnightblue" d="M606.6,-160.16C616.57,-145.99 632.25,-125.88 649.5,-112 669.37,-96.01 695.83,-83.31 714.33,-75.53"/>
<polygon fill="midnightblue" stroke="midnightblue" points="603.67,-158.25 600.92,-168.48 609.45,-162.2 603.67,-158.25"/>
</g>
<!-- Node12&#45;&gt;Node13 -->
<g id="edge16" class="edge">
<title>Node12&#45;&gt;Node13</title>
<path fill="none" stroke="midnightblue" d="M613.73,-161.96C634.87,-144.81 668.69,-118.33 683.5,-112 761.01,-78.88 861.42,-70.12 911.76,-67.82"/>
<polygon fill="midnightblue" stroke="midnightblue" points="611.33,-159.4 605.8,-168.44 615.76,-164.82 611.33,-159.4"/>
</g>
<!-- Node15 -->
<g id="node15" class="node">
<title>Node15</title>
<g id="a_node15"><a xlink:href="../../df/de4/bind__crypto_8cc.html" target="_top" xlink:title=" ">
<polygon fill="white" stroke="black" points="518,-112.5 518,-131.5 597,-131.5 597,-112.5 518,-112.5"/>
<text text-anchor="middle" x="557.5" y="-119.5" font-family="Helvetica,sans-Serif" font-size="10.00">bind_crypto.cc</text>
</a>
</g>
</g>
<!-- Node12&#45;&gt;Node15 -->
<g id="edge20" class="edge">
<title>Node12&#45;&gt;Node15</title>
<path fill="none" stroke="midnightblue" d="M583.44,-159.86C576.86,-150.5 568.99,-139.33 563.66,-131.75"/>
<polygon fill="midnightblue" stroke="midnightblue" points="580.61,-161.92 589.23,-168.08 586.33,-157.89 580.61,-161.92"/>
</g>
<!-- Node12&#45;&gt;Node16 -->
<g id="edge21" class="edge">
<title>Node12&#45;&gt;Node16</title>
<path fill="none" stroke="midnightblue" d="M625.72,-164.64C650.49,-154.5 684.9,-140.43 706.68,-131.52"/>
<polygon fill="midnightblue" stroke="midnightblue" points="624.35,-161.42 616.42,-168.44 627,-167.9 624.35,-161.42"/>
</g>
<!-- Node13&#45;&gt;Node3 -->
<g id="edge17" class="edge">
<title>Node13&#45;&gt;Node3</title>
<path fill="none" stroke="midnightblue" d="M924.74,-50.1C912.5,-40.38 896.94,-28.03 886.62,-19.83"/>
<polygon fill="midnightblue" stroke="midnightblue" points="922.57,-52.85 932.57,-56.32 926.92,-47.36 922.57,-52.85"/>
</g>
<!-- Node14 -->
<g id="node14" class="node">
<title>Node14</title>
<g id="a_node14"><a xlink:href="../../db/d7e/lua__node_8cc.html" target="_top" xlink:title=" ">
<polygon fill="white" stroke="black" points="917.5,-0.5 917.5,-19.5 985.5,-19.5 985.5,-0.5 917.5,-0.5"/>
<text text-anchor="middle" x="951.5" y="-7.5" font-family="Helvetica,sans-Serif" font-size="10.00">lua_node.cc</text>
</a>
</g>
</g>
<!-- Node13&#45;&gt;Node14 -->
<g id="edge18" class="edge">
<title>Node13&#45;&gt;Node14</title>
<path fill="none" stroke="midnightblue" d="M946.3,-46.1C947.63,-37.14 949.15,-26.86 950.2,-19.75"/>
<polygon fill="midnightblue" stroke="midnightblue" points="942.82,-45.68 944.82,-56.08 949.75,-46.7 942.82,-45.68"/>
</g>
<!-- Node17&#45;&gt;Node3 -->
<g id="edge33" class="edge">
<title>Node17&#45;&gt;Node3</title>
<path fill="none" stroke="midnightblue" d="M902.05,-157.93C895.55,-121.92 881.69,-45.23 877.05,-19.57"/>
<polygon fill="midnightblue" stroke="midnightblue" points="898.66,-158.86 903.89,-168.08 905.55,-157.61 898.66,-158.86"/>
</g>
<!-- Node17&#45;&gt;Node10 -->
<g id="edge34" class="edge">
<title>Node17&#45;&gt;Node10</title>
<path fill="none" stroke="midnightblue" d="M882.15,-163.29C856.18,-148.6 812.61,-125.58 772.5,-112 713.14,-91.9 641.72,-79.47 595.75,-72.9"/>
<polygon fill="midnightblue" stroke="midnightblue" points="880.46,-166.36 890.88,-168.29 883.94,-160.28 880.46,-166.36"/>
</g>
<!-- Node17&#45;&gt;Node13 -->
<g id="edge24" class="edge">
<title>Node17&#45;&gt;Node13</title>
<path fill="none" stroke="midnightblue" d="M911.83,-158.67C920.14,-134.62 934.38,-93.39 940.53,-75.59"/>
<polygon fill="midnightblue" stroke="midnightblue" points="908.44,-157.77 908.48,-168.37 915.06,-160.06 908.44,-157.77"/>
</g>
<!-- Node17&#45;&gt;Node18 -->
<g id="edge25" class="edge">
<title>Node17&#45;&gt;Node18</title>
<path fill="none" stroke="midnightblue" d="M934.89,-164.5C958.7,-154.38 991.61,-140.39 1012.47,-131.52"/>
<polygon fill="midnightblue" stroke="midnightblue" points="933.46,-161.31 925.62,-168.44 936.2,-167.75 933.46,-161.31"/>
</g>
<!-- Node18&#45;&gt;Node3 -->
<g id="edge30" class="edge">
<title>Node18&#45;&gt;Node3</title>
<path fill="none" stroke="midnightblue" d="M1023.07,-103.31C1014.62,-88.91 1001.03,-68.91 984.5,-56 970.87,-45.35 927.73,-29.15 899.99,-19.37"/>
<polygon fill="midnightblue" stroke="midnightblue" points="1020.13,-105.23 1028.07,-112.24 1026.24,-101.8 1020.13,-105.23"/>
</g>
<!-- Node18&#45;&gt;Node13 -->
<g id="edge26" class="edge">
<title>Node18&#45;&gt;Node13</title>
<path fill="none" stroke="midnightblue" d="M1009.26,-106.9C992.94,-97 971.63,-84.07 957.76,-75.65"/>
<polygon fill="midnightblue" stroke="midnightblue" points="1007.84,-110.13 1018.2,-112.32 1011.47,-104.14 1007.84,-110.13"/>
</g>
<!-- Node19 -->
<g id="node19" class="node">
<title>Node19</title>
<g id="a_node19"><a xlink:href="../../dc/d32/node__updater_8h.html" target="_top" xlink:title=" ">
<polygon fill="white" stroke="black" points="1109,-56.5 1109,-75.5 1192,-75.5 1192,-56.5 1109,-56.5"/>
<text text-anchor="middle" x="1150.5" y="-63.5" font-family="Helvetica,sans-Serif" font-size="10.00">node_updater.h</text>
</a>
</g>
</g>
<!-- Node18&#45;&gt;Node19 -->
<g id="edge27" class="edge">
<title>Node18&#45;&gt;Node19</title>
<path fill="none" stroke="midnightblue" d="M1060.4,-108.23C1082.47,-98.13 1112.68,-84.31 1131.89,-75.52"/>
<polygon fill="midnightblue" stroke="midnightblue" points="1058.83,-105.1 1051.2,-112.44 1061.75,-111.46 1058.83,-105.1"/>
</g>
<!-- Node21 -->
<g id="node21" class="node">
<title>Node21</title>
<g id="a_node21"><a xlink:href="../../dc/dfd/node_8cc.html" target="_top" xlink:title=" ">
<polygon fill="white" stroke="black" points="1210.5,-56.5 1210.5,-75.5 1260.5,-75.5 1260.5,-56.5 1210.5,-56.5"/>
<text text-anchor="middle" x="1235.5" y="-63.5" font-family="Helvetica,sans-Serif" font-size="10.00">node.cc</text>
</a>
</g>
</g>
<!-- Node18&#45;&gt;Node21 -->
<g id="edge31" class="edge">
<title>Node18&#45;&gt;Node21</title>
<path fill="none" stroke="midnightblue" d="M1064.89,-112.38C1105.33,-101.63 1173.65,-83.45 1210.36,-73.69"/>
<polygon fill="midnightblue" stroke="midnightblue" points="1063.76,-109.06 1055,-115.01 1065.56,-115.83 1063.76,-109.06"/>
</g>
<!-- Node22 -->
<g id="node22" class="node">
<title>Node22</title>
<g id="a_node22"><a xlink:href="../../df/dd2/testnet_8cc.html" target="_top" xlink:title=" ">
<polygon fill="white" stroke="black" points="1032,-56.5 1032,-75.5 1091,-75.5 1091,-56.5 1032,-56.5"/>
<text text-anchor="middle" x="1061.5" y="-63.5" font-family="Helvetica,sans-Serif" font-size="10.00">testnet.cc</text>
</a>
</g>
</g>
<!-- Node18&#45;&gt;Node22 -->
<g id="edge32" class="edge">
<title>Node18&#45;&gt;Node22</title>
<path fill="none" stroke="midnightblue" d="M1042.18,-102.98C1047.1,-93.82 1052.86,-83.09 1056.8,-75.75"/>
<polygon fill="midnightblue" stroke="midnightblue" points="1038.94,-101.62 1037.29,-112.08 1045.1,-104.93 1038.94,-101.62"/>
</g>
<!-- Node19&#45;&gt;Node3 -->
<g id="edge28" class="edge">
<title>Node19&#45;&gt;Node3</title>
<path fill="none" stroke="midnightblue" d="M1098.77,-55.62C1033.28,-43.7 926.74,-24.18 908.5,-20 905.61,-19.34 902.58,-18.59 899.59,-17.82"/>
<polygon fill="midnightblue" stroke="midnightblue" points="1098.44,-59.11 1108.91,-57.46 1099.7,-52.23 1098.44,-59.11"/>
</g>
<!-- Node20 -->
<g id="node20" class="node">
<title>Node20</title>
<g id="a_node20"><a xlink:href="../../d1/d13/node__updater_8cc.html" target="_top" xlink:title=" ">
<polygon fill="white" stroke="black" points="1106.5,-0.5 1106.5,-19.5 1194.5,-19.5 1194.5,-0.5 1106.5,-0.5"/>
<text text-anchor="middle" x="1150.5" y="-7.5" font-family="Helvetica,sans-Serif" font-size="10.00">node_updater.cc</text>
</a>
</g>
</g>
<!-- Node19&#45;&gt;Node20 -->
<g id="edge29" class="edge">
<title>Node19&#45;&gt;Node20</title>
<path fill="none" stroke="midnightblue" d="M1150.5,-45.8C1150.5,-36.91 1150.5,-26.78 1150.5,-19.75"/>
<polygon fill="midnightblue" stroke="midnightblue" points="1147,-46.08 1150.5,-56.08 1154,-46.08 1147,-46.08"/>
</g>
<!-- Node24&#45;&gt;Node9 -->
<g id="edge39" class="edge">
<title>Node24&#45;&gt;Node9</title>
<path fill="none" stroke="midnightblue" d="M300.66,-159.32C288.68,-135.37 267.77,-93.55 258.8,-75.59"/>
<polygon fill="midnightblue" stroke="midnightblue" points="297.58,-160.99 305.18,-168.37 303.84,-157.86 297.58,-160.99"/>
</g>
</g>
</svg>
        <g id="navigator" transform="translate(0 0)" fill="#404254">
                <rect fill="#f2f5e9" fill-opacity="0.5" stroke="#606060" stroke-width=".5" x="0" y="0" width="60" height="60"/>
                <use id="zoomplus" xlink:href="#zoomPlus" x="17" y="9" onmousedown="handleZoom(evt,'in')"/>
                <use id="zoomminus" xlink:href="#zoomMin" x="42" y="9" onmousedown="handleZoom(evt,'out')"/>
                <use id="reset" xlink:href="#resetDef" x="30" y="36" onmousedown="handleReset()"/>
                <g id="arrowUp" xlink:href="#dirArrow" transform="translate(30 24)" onmousedown="handlePan(0,-1)">
                  <use xlink:href="#rim" fill="#404040">
                        <set attributeName="fill" to="#808080" begin="arrowUp.mouseover" end="arrowUp.mouseout"/>
                  </use>
                  <path fill="none" stroke="white" stroke-width="1.5" d="M0,-3.0v7 M-2.5,-0.5L0,-3.0L2.5,-0.5"/>
                </g>
                <g id="arrowRight" xlink:href="#dirArrow" transform="rotate(90) translate(36 -43)" onmousedown="handlePan(1,0)">
                  <use xlink:href="#rim" fill="#404040">
                        <set attributeName="fill" to="#808080" begin="arrowRight.mouseover" end="arrowRight.mouseout"/>
                  </use>
                  <path fill="none" stroke="white" stroke-width="1.5" d="M0,-3.0v7 M-2.5,-0.5L0,-3.0L2.5,-0.5"/>
                </g>
                <g id="arrowDown" xlink:href="#dirArrow" transform="rotate(180) translate(-30 -48)" onmousedown="handlePan(0,1)">
                  <use xlink:href="#rim" fill="#404040">
                        <set attributeName="fill" to="#808080" begin="arrowDown.mouseover" end="arrowDown.mouseout"/>
                  </use>
                  <path fill="none" stroke="white" stroke-width="1.5" d="M0,-3.0v7 M-2.5,-0.5L0,-3.0L2.5,-0.5"/>
                </g>
                <g id="arrowLeft" xlink:href="#dirArrow" transform="rotate(270) translate(-36 17)" onmousedown="handlePan(-1,0)">
                  <use xlink:href="#rim" fill="#404040">
                        <set attributeName="fill" to="#808080" begin="arrowLeft.mouseover" end="arrowLeft.mouseout"/>
                  </use>
                  <path fill="none" stroke="white" stroke-width="1.5" d="M0,-3.0v7 M-2.5,-0.5L0,-3.0L2.5,-0.5"/>
                </g>
        </g>
        <svg viewBox="0 0 15 15" width="100%" height="30px" preserveAspectRatio="xMaxYMin meet">
         <g id="arrow_out" transform="scale(0.3 0.3)">
          <a xlink:href="msg_8h__dep__incl_org.svg" target="_base">
           <rect id="button" ry="5" rx="5" y="6" x="6" height="38" width="38"
                fill="#f2f5e9" fill-opacity="0.5" stroke="#606060" stroke-width="1.0"/>
           <path id="arrow"
             d="M 11.500037,31.436501 C 11.940474,20.09759 22.043105,11.32322 32.158766,21.979434 L 37.068811,17.246167 C 37.068811,17.246167 37.088388,32 37.088388,32 L 22.160133,31.978069 C 22.160133,31.978069 26.997745,27.140456 26.997745,27.140456 C 18.528582,18.264221 13.291696,25.230495 11.500037,31.436501 z"
             style="fill:#404040;"/>
          </a>
         </g>
        </svg>
</svg>
