<?xml version="1.0" encoding="UTF-8" standalone="no"?>
<!DOCTYPE svg PUBLIC "-//W3C//DTD SVG 1.1//EN"
 "http://www.w3.org/Graphics/SVG/1.1/DTD/svg11.dtd">
<!-- Generated by graphviz version 2.44.0 ()
 -->
<!-- Title: msg.h Pages: 1 -->
<!--zoomable 308 -->
<svg id="main" version="1.1" xmlns="http://www.w3.org/2000/svg" xmlns:xlink="http://www.w3.org/1999/xlink" xml:space="preserve" onload="init(evt)">
<style type="text/css"><![CDATA[
.edge:hover path { stroke: red; }
.edge:hover polygon { stroke: red; fill: red; }
]]></style>
<script type="text/javascript"><![CDATA[
var edges = document.getElementsByTagName('g');
if (edges && edges.length) {
  for (var i=0;i<edges.length;i++) {
    if (edges[i].id.substr(0,4)=='edge') {
      edges[i].setAttribute('class','edge');
    }
  }
}
]]></script>
        <defs>
                <circle id="rim" cx="0" cy="0" r="7"/>
                <circle id="rim2" cx="0" cy="0" r="3.5"/>
                <g id="zoomPlus">
                        <use xlink:href="#rim" fill="#404040">
                                <set attributeName="fill" to="#808080" begin="zoomplus.mouseover" end="zoomplus.mouseout"/>
                        </use>
                        <path d="M-4,0h8M0,-4v8" fill="none" stroke="white" stroke-width="1.5" pointer-events="none"/>
                </g>
                <g id="zoomMin">
                        <use xlink:href="#rim" fill="#404040">
                                <set attributeName="fill" to="#808080" begin="zoomminus.mouseover" end="zoomminus.mouseout"/>
                        </use>
                        <path d="M-4,0h8" fill="none" stroke="white" stroke-width="1.5" pointer-events="none"/>
                </g>
                <g id="dirArrow">
                        <path fill="none" stroke="white" stroke-width="1.5" d="M0,-3.0v7 M-2.5,-0.5L0,-3.0L2.5,-0.5"/>
                </g>
               <g id="resetDef">
                       <use xlink:href="#rim2" fill="#404040">
                               <set attributeName="fill" to="#808080" begin="reset.mouseover" end="reset.mouseout"/>
                       </use>
               </g>
        </defs>

<script type="text/javascript">
var viewWidth = 1587;
var viewHeight = 308;
var sectionId = 'dynsection-1';
</script>
<script xlink:href="../../svgpan.js"/>
<svg id="graph" class="graph">
<g id="viewport">
<title>msg.h</title>
<polygon fill="white" stroke="transparent" points="-4,4 -4,-304 1583,-304 1583,4 -4,4"/>
<!-- Node1 -->
<g id="node1" class="node">
<title>Node1</title>
<g id="a_node1"><a xlink:title=" ">
<polygon fill="#bfbfbf" stroke="black" points="685.5,-280.5 685.5,-299.5 728.5,-299.5 728.5,-280.5 685.5,-280.5"/>
<text text-anchor="middle" x="707" y="-287.5" font-family="Helvetica,sans-Serif" font-size="10.00">msg.h</text>
</a>
</g>
</g>
<!-- Node2 -->
<g id="node2" class="node">
<title>Node2</title>
<g id="a_node2"><a xlink:href="../../d0/dd2/digital__signature_8cc.html" target="_top" xlink:title=" ">
<polygon fill="white" stroke="black" points="0,-224.5 0,-243.5 100,-243.5 100,-224.5 0,-224.5"/>
<text text-anchor="middle" x="50" y="-231.5" font-family="Helvetica,sans-Serif" font-size="10.00">digital_signature.cc</text>
</a>
</g>
</g>
<!-- Node1&#45;&gt;Node2 -->
<g id="edge1" class="edge">
<title>Node1&#45;&gt;Node2</title>
<path fill="none" stroke="midnightblue" d="M675.49,-287.48C586.37,-282.99 324.96,-268.56 109,-244 106.12,-243.67 103.16,-243.31 100.18,-242.92"/>
<polygon fill="midnightblue" stroke="midnightblue" points="675.33,-290.97 685.49,-287.98 675.68,-283.98 675.33,-290.97"/>
</g>
<!-- Node3 -->
<g id="node3" class="node">
<title>Node3</title>
<g id="a_node3"><a xlink:href="../../d8/d0d/hash__transformation_8cc.html" target="_top" xlink:title=" ">
<polygon fill="white" stroke="black" points="118,-224.5 118,-243.5 236,-243.5 236,-224.5 118,-224.5"/>
<text text-anchor="middle" x="177" y="-231.5" font-family="Helvetica,sans-Serif" font-size="10.00">hash_transformation.cc</text>
</a>
</g>
</g>
<!-- Node1&#45;&gt;Node3 -->
<g id="edge2" class="edge">
<title>Node1&#45;&gt;Node3</title>
<path fill="none" stroke="midnightblue" d="M675.13,-286.28C600.08,-279.78 406.39,-262.53 245,-244 242.16,-243.67 239.26,-243.33 236.32,-242.97"/>
<polygon fill="midnightblue" stroke="midnightblue" points="675.06,-289.78 685.32,-287.16 675.66,-282.81 675.06,-289.78"/>
</g>
<!-- Node4 -->
<g id="node4" class="node">
<title>Node4</title>
<g id="a_node4"><a xlink:href="../../dd/ded/secure__random_8cc.html" target="_top" xlink:title=" ">
<polygon fill="white" stroke="black" points="254,-224.5 254,-243.5 350,-243.5 350,-224.5 254,-224.5"/>
<text text-anchor="middle" x="302" y="-231.5" font-family="Helvetica,sans-Serif" font-size="10.00">secure_random.cc</text>
</a>
</g>
</g>
<!-- Node1&#45;&gt;Node4 -->
<g id="edge3" class="edge">
<title>Node1&#45;&gt;Node4</title>
<path fill="none" stroke="midnightblue" d="M675.25,-284.98C614.68,-277.28 478.49,-259.82 364,-244 359.47,-243.37 354.77,-242.71 350.05,-242.04"/>
<polygon fill="midnightblue" stroke="midnightblue" points="674.95,-288.47 685.32,-286.26 675.84,-281.53 674.95,-288.47"/>
</g>
<!-- Node5 -->
<g id="node5" class="node">
<title>Node5</title>
<g id="a_node5"><a xlink:href="../../de/d06/factory_8h.html" target="_top" xlink:title=" ">
<polygon fill="white" stroke="black" points="680.5,-224.5 680.5,-243.5 733.5,-243.5 733.5,-224.5 680.5,-224.5"/>
<text text-anchor="middle" x="707" y="-231.5" font-family="Helvetica,sans-Serif" font-size="10.00">factory.h</text>
</a>
</g>
</g>
<!-- Node1&#45;&gt;Node5 -->
<g id="edge4" class="edge">
<title>Node1&#45;&gt;Node5</title>
<path fill="none" stroke="midnightblue" d="M707,-269.8C707,-260.91 707,-250.78 707,-243.75"/>
<polygon fill="midnightblue" stroke="midnightblue" points="703.5,-270.08 707,-280.08 710.5,-270.08 703.5,-270.08"/>
</g>
<!-- Node12 -->
<g id="node12" class="node">
<title>Node12</title>
<g id="a_node12"><a xlink:href="../../db/d7f/engine_8cc.html" target="_top" xlink:title=" ">
<polygon fill="white" stroke="black" points="499,-56.5 499,-75.5 557,-75.5 557,-56.5 499,-56.5"/>
<text text-anchor="middle" x="528" y="-63.5" font-family="Helvetica,sans-Serif" font-size="10.00">engine.cc</text>
</a>
</g>
</g>
<!-- Node1&#45;&gt;Node12 -->
<g id="edge48" class="edge">
<title>Node1&#45;&gt;Node12</title>
<path fill="none" stroke="midnightblue" d="M675.29,-287.09C633.49,-283.47 558.63,-273.15 502,-244 438.28,-211.2 412.82,-198.46 386,-132 366.97,-84.86 451.99,-71.9 498.85,-68.35"/>
<polygon fill="midnightblue" stroke="midnightblue" points="675.18,-290.59 685.42,-287.89 675.73,-283.61 675.18,-290.59"/>
</g>
<!-- Node15 -->
<g id="node15" class="node">
<title>Node15</title>
<g id="a_node15"><a xlink:href="../../d5/de1/protobuf__msg_8h.html" target="_top" xlink:title=" ">
<polygon fill="white" stroke="black" points="773.5,-168.5 773.5,-187.5 856.5,-187.5 856.5,-168.5 773.5,-168.5"/>
<text text-anchor="middle" x="815" y="-175.5" font-family="Helvetica,sans-Serif" font-size="10.00">protobuf_msg.h</text>
</a>
</g>
</g>
<!-- Node1&#45;&gt;Node15 -->
<g id="edge44" class="edge">
<title>Node1&#45;&gt;Node15</title>
<path fill="none" stroke="midnightblue" d="M722.51,-273.21C745.66,-249.63 788.46,-206.03 806.56,-187.59"/>
<polygon fill="midnightblue" stroke="midnightblue" points="719.98,-270.78 715.47,-280.37 724.98,-275.68 719.98,-270.78"/>
</g>
<!-- Node16 -->
<g id="node16" class="node">
<title>Node16</title>
<g id="a_node16"><a xlink:href="../../d8/dd3/bind__data_8cc.html" target="_top" xlink:title=" ">
<polygon fill="white" stroke="black" points="395.5,-112.5 395.5,-131.5 466.5,-131.5 466.5,-112.5 395.5,-112.5"/>
<text text-anchor="middle" x="431" y="-119.5" font-family="Helvetica,sans-Serif" font-size="10.00">bind_data.cc</text>
</a>
</g>
</g>
<!-- Node1&#45;&gt;Node16 -->
<g id="edge47" class="edge">
<title>Node1&#45;&gt;Node16</title>
<path fill="none" stroke="midnightblue" d="M675.26,-284.53C622.75,-275.53 517.51,-250.47 456,-188 440.39,-172.15 434.3,-145.5 432.12,-131.77"/>
<polygon fill="midnightblue" stroke="midnightblue" points="674.89,-288.02 685.33,-286.17 676.02,-281.11 674.89,-288.02"/>
</g>
<!-- Node18 -->
<g id="node18" class="node">
<title>Node18</title>
<g id="a_node18"><a xlink:href="../../d9/d5a/lua__node_8h.html" target="_top" xlink:title=" ">
<polygon fill="white" stroke="black" points="1227.5,-56.5 1227.5,-75.5 1290.5,-75.5 1290.5,-56.5 1227.5,-56.5"/>
<text text-anchor="middle" x="1259" y="-63.5" font-family="Helvetica,sans-Serif" font-size="10.00">lua_node.h</text>
</a>
</g>
</g>
<!-- Node1&#45;&gt;Node18 -->
<g id="edge45" class="edge">
<title>Node1&#45;&gt;Node18</title>
<path fill="none" stroke="midnightblue" d="M738.78,-287.94C844.27,-283.72 1180,-264.4 1249,-188 1277.96,-155.93 1266.95,-97.63 1261.42,-75.68"/>
<polygon fill="midnightblue" stroke="midnightblue" points="738.61,-284.44 728.75,-288.32 738.87,-291.44 738.61,-284.44"/>
</g>
<!-- Node21 -->
<g id="node21" class="node">
<title>Node21</title>
<g id="a_node21"><a xlink:href="../../dc/d27/registry_8h.html" target="_top" xlink:title=" ">
<polygon fill="white" stroke="black" points="875,-168.5 875,-187.5 931,-187.5 931,-168.5 875,-168.5"/>
<text text-anchor="middle" x="903" y="-175.5" font-family="Helvetica,sans-Serif" font-size="10.00">registry.h</text>
</a>
</g>
</g>
<!-- Node1&#45;&gt;Node21 -->
<g id="edge49" class="edge">
<title>Node1&#45;&gt;Node21</title>
<path fill="none" stroke="midnightblue" d="M731.15,-275.45C772.04,-252.5 853.77,-206.63 887.69,-187.59"/>
<polygon fill="midnightblue" stroke="midnightblue" points="729.39,-272.42 722.38,-280.37 732.81,-278.53 729.39,-272.42"/>
</g>
<!-- Node23 -->
<g id="node23" class="node">
<title>Node23</title>
<g id="a_node23"><a xlink:href="../../d1/d77/node_8h.html" target="_top" xlink:title=" ">
<polygon fill="white" stroke="black" points="1299.5,-112.5 1299.5,-131.5 1344.5,-131.5 1344.5,-112.5 1299.5,-112.5"/>
<text text-anchor="middle" x="1322" y="-119.5" font-family="Helvetica,sans-Serif" font-size="10.00">node.h</text>
</a>
</g>
</g>
<!-- Node1&#45;&gt;Node23 -->
<g id="edge46" class="edge">
<title>Node1&#45;&gt;Node23</title>
<path fill="none" stroke="midnightblue" d="M739.03,-288.58C854.13,-286.8 1242.26,-278.27 1285,-244 1320.3,-215.69 1322.75,-154.59 1322.36,-131.8"/>
<polygon fill="midnightblue" stroke="midnightblue" points="738.71,-285.09 728.76,-288.73 738.81,-292.08 738.71,-285.09"/>
</g>
<!-- Node28 -->
<g id="node28" class="node">
<title>Node28</title>
<g id="a_node28"><a xlink:href="../../de/d80/msg_8cc.html" target="_top" xlink:title=" ">
<polygon fill="white" stroke="black" points="1337,-224.5 1337,-243.5 1385,-243.5 1385,-224.5 1337,-224.5"/>
<text text-anchor="middle" x="1361" y="-231.5" font-family="Helvetica,sans-Serif" font-size="10.00">msg.cc</text>
</a>
</g>
</g>
<!-- Node1&#45;&gt;Node28 -->
<g id="edge43" class="edge">
<title>Node1&#45;&gt;Node28</title>
<path fill="none" stroke="midnightblue" d="M738.95,-288.46C830.46,-286.53 1101.24,-278.14 1323,-244 1327.56,-243.3 1332.37,-242.33 1336.99,-241.3"/>
<polygon fill="midnightblue" stroke="midnightblue" points="738.62,-284.97 728.69,-288.67 738.76,-291.97 738.62,-284.97"/>
</g>
<!-- Node6 -->
<g id="node6" class="node">
<title>Node6</title>
<g id="a_node6"><a xlink:href="../../dd/de7/core_8cc.html" target="_top" xlink:title=" ">
<polygon fill="white" stroke="black" points="1167,-0.5 1167,-19.5 1215,-19.5 1215,-0.5 1167,-0.5"/>
<text text-anchor="middle" x="1191" y="-7.5" font-family="Helvetica,sans-Serif" font-size="10.00">core.cc</text>
</a>
</g>
</g>
<!-- Node5&#45;&gt;Node6 -->
<g id="edge5" class="edge">
<title>Node5&#45;&gt;Node6</title>
<path fill="none" stroke="midnightblue" d="M702.04,-214.39C698.44,-201.31 693.29,-183.47 688,-168 679.35,-142.7 680.16,-134.68 666,-112 654.5,-93.59 640.87,-96.23 633,-76 629.78,-67.72 626.97,-62.53 633,-56 669.66,-16.27 1064.11,-11.61 1166.72,-11.07"/>
<polygon fill="midnightblue" stroke="midnightblue" points="698.67,-215.35 704.67,-224.09 705.43,-213.52 698.67,-215.35"/>
</g>
<!-- Node7 -->
<g id="node7" class="node">
<title>Node7</title>
<g id="a_node7"><a xlink:href="../../d1/d4e/factory_8cc.html" target="_top" xlink:title=" ">
<polygon fill="white" stroke="black" points="548.5,-168.5 548.5,-187.5 607.5,-187.5 607.5,-168.5 548.5,-168.5"/>
<text text-anchor="middle" x="578" y="-175.5" font-family="Helvetica,sans-Serif" font-size="10.00">factory.cc</text>
</a>
</g>
</g>
<!-- Node5&#45;&gt;Node7 -->
<g id="edge6" class="edge">
<title>Node5&#45;&gt;Node7</title>
<path fill="none" stroke="midnightblue" d="M677.15,-220.5C652.96,-210.38 619.54,-196.39 598.34,-187.52"/>
<polygon fill="midnightblue" stroke="midnightblue" points="675.98,-223.81 686.56,-224.44 678.69,-217.35 675.98,-223.81"/>
</g>
<!-- Node8 -->
<g id="node8" class="node">
<title>Node8</title>
<g id="a_node8"><a xlink:href="../../dc/dd5/protobuf__factory_8h.html" target="_top" xlink:title=" ">
<polygon fill="white" stroke="black" points="735,-112.5 735,-131.5 829,-131.5 829,-112.5 735,-112.5"/>
<text text-anchor="middle" x="782" y="-119.5" font-family="Helvetica,sans-Serif" font-size="10.00">protobuf_factory.h</text>
</a>
</g>
</g>
<!-- Node5&#45;&gt;Node8 -->
<g id="edge7" class="edge">
<title>Node5&#45;&gt;Node8</title>
<path fill="none" stroke="midnightblue" d="M718.62,-215.96C734.87,-192.12 763.79,-149.71 776.14,-131.59"/>
<polygon fill="midnightblue" stroke="midnightblue" points="715.63,-214.13 712.89,-224.37 721.41,-218.08 715.63,-214.13"/>
</g>
<!-- Node5&#45;&gt;Node12 -->
<g id="edge20" class="edge">
<title>Node5&#45;&gt;Node12</title>
<path fill="none" stroke="midnightblue" d="M670.16,-228.08C625.97,-221.38 555.75,-207.89 539,-188 511.15,-154.92 520.85,-97.23 525.82,-75.56"/>
<polygon fill="midnightblue" stroke="midnightblue" points="669.84,-231.57 680.24,-229.56 670.86,-224.65 669.84,-231.57"/>
</g>
<!-- Node5&#45;&gt;Node15 -->
<g id="edge15" class="edge">
<title>Node5&#45;&gt;Node15</title>
<path fill="none" stroke="midnightblue" d="M733.55,-219.73C753.55,-209.73 780.39,-196.31 797.69,-187.65"/>
<polygon fill="midnightblue" stroke="midnightblue" points="731.73,-216.72 724.35,-224.32 734.86,-222.98 731.73,-216.72"/>
</g>
<!-- Node5&#45;&gt;Node16 -->
<g id="edge19" class="edge">
<title>Node5&#45;&gt;Node16</title>
<path fill="none" stroke="midnightblue" d="M670.37,-233.41C623.15,-232.31 540.08,-224.7 481,-188 458.51,-174.03 442.3,-146.05 435.13,-131.79"/>
<polygon fill="midnightblue" stroke="midnightblue" points="670.4,-236.91 680.45,-233.56 670.5,-229.91 670.4,-236.91"/>
</g>
<!-- Node17 -->
<g id="node17" class="node">
<title>Node17</title>
<g id="a_node17"><a xlink:href="../../d1/d55/engine_8h.html" target="_top" xlink:title=" ">
<polygon fill="white" stroke="black" points="625.5,-168.5 625.5,-187.5 678.5,-187.5 678.5,-168.5 625.5,-168.5"/>
<text text-anchor="middle" x="652" y="-175.5" font-family="Helvetica,sans-Serif" font-size="10.00">engine.h</text>
</a>
</g>
</g>
<!-- Node5&#45;&gt;Node17 -->
<g id="edge21" class="edge">
<title>Node5&#45;&gt;Node17</title>
<path fill="none" stroke="midnightblue" d="M690.71,-217C680.96,-207.43 668.95,-195.64 660.91,-187.75"/>
<polygon fill="midnightblue" stroke="midnightblue" points="688.33,-219.57 697.92,-224.08 693.23,-214.58 688.33,-219.57"/>
</g>
<!-- Node5&#45;&gt;Node21 -->
<g id="edge29" class="edge">
<title>Node5&#45;&gt;Node21</title>
<path fill="none" stroke="midnightblue" d="M743.51,-222.94C781.55,-212.46 840.33,-196.27 874.9,-186.74"/>
<polygon fill="midnightblue" stroke="midnightblue" points="742.55,-219.57 733.84,-225.6 744.41,-226.32 742.55,-219.57"/>
</g>
<!-- Node22 -->
<g id="node22" class="node">
<title>Node22</title>
<g id="a_node22"><a xlink:href="../../d5/dab/smart__protocol_8h.html" target="_top" xlink:title=" ">
<polygon fill="white" stroke="black" points="1150.5,-168.5 1150.5,-187.5 1239.5,-187.5 1239.5,-168.5 1150.5,-168.5"/>
<text text-anchor="middle" x="1195" y="-175.5" font-family="Helvetica,sans-Serif" font-size="10.00">smart_protocol.h</text>
</a>
</g>
</g>
<!-- Node5&#45;&gt;Node22 -->
<g id="edge31" class="edge">
<title>Node5&#45;&gt;Node22</title>
<path fill="none" stroke="midnightblue" d="M743.62,-228.95C831.58,-219.22 1054.5,-194.55 1150.22,-183.96"/>
<polygon fill="midnightblue" stroke="midnightblue" points="743.14,-225.48 733.58,-230.06 743.91,-232.44 743.14,-225.48"/>
</g>
<!-- Node8&#45;&gt;Node6 -->
<g id="edge8" class="edge">
<title>Node8&#45;&gt;Node6</title>
<path fill="none" stroke="midnightblue" d="M726.72,-110.19C692.18,-102.18 652.37,-90.22 642,-76 636.76,-68.82 635.98,-62.54 642,-56 678.01,-16.92 1065.28,-11.78 1166.77,-11.1"/>
<polygon fill="midnightblue" stroke="midnightblue" points="726.23,-113.66 736.76,-112.44 727.76,-106.83 726.23,-113.66"/>
</g>
<!-- Node9 -->
<g id="node9" class="node">
<title>Node9</title>
<g id="a_node9"><a xlink:href="../../d0/dcc/protobuf__factory_8cc.html" target="_top" xlink:title=" ">
<polygon fill="white" stroke="black" points="773.5,-56.5 773.5,-75.5 872.5,-75.5 872.5,-56.5 773.5,-56.5"/>
<text text-anchor="middle" x="823" y="-63.5" font-family="Helvetica,sans-Serif" font-size="10.00">protobuf_factory.cc</text>
</a>
</g>
</g>
<!-- Node8&#45;&gt;Node9 -->
<g id="edge9" class="edge">
<title>Node8&#45;&gt;Node9</title>
<path fill="none" stroke="midnightblue" d="M795.02,-103.86C802.12,-94.5 810.6,-83.33 816.36,-75.75"/>
<polygon fill="midnightblue" stroke="midnightblue" points="792.03,-102 788.77,-112.08 797.61,-106.24 792.03,-102"/>
</g>
<!-- Node10 -->
<g id="node10" class="node">
<title>Node10</title>
<g id="a_node10"><a xlink:href="../../da/d58/protobuf__msg_8cc.html" target="_top" xlink:title=" ">
<polygon fill="white" stroke="black" points="890.5,-56.5 890.5,-75.5 979.5,-75.5 979.5,-56.5 890.5,-56.5"/>
<text text-anchor="middle" x="935" y="-63.5" font-family="Helvetica,sans-Serif" font-size="10.00">protobuf_msg.cc</text>
</a>
</g>
</g>
<!-- Node8&#45;&gt;Node10 -->
<g id="edge10" class="edge">
<title>Node8&#45;&gt;Node10</title>
<path fill="none" stroke="midnightblue" d="M815.89,-109.04C844.68,-98.88 885.29,-84.55 910.87,-75.52"/>
<polygon fill="midnightblue" stroke="midnightblue" points="814.51,-105.81 806.24,-112.44 816.84,-112.42 814.51,-105.81"/>
</g>
<!-- Node11 -->
<g id="node11" class="node">
<title>Node11</title>
<g id="a_node11"><a xlink:href="../../dc/d05/protobuf__schema_8cc.html" target="_top" xlink:title=" ">
<polygon fill="white" stroke="black" points="651,-56.5 651,-75.5 755,-75.5 755,-56.5 651,-56.5"/>
<text text-anchor="middle" x="703" y="-63.5" font-family="Helvetica,sans-Serif" font-size="10.00">protobuf_schema.cc</text>
</a>
</g>
</g>
<!-- Node8&#45;&gt;Node11 -->
<g id="edge11" class="edge">
<title>Node8&#45;&gt;Node11</title>
<path fill="none" stroke="midnightblue" d="M760.97,-106.62C746.53,-96.76 727.86,-83.99 715.66,-75.65"/>
<polygon fill="midnightblue" stroke="midnightblue" points="759.08,-109.57 769.31,-112.32 763.03,-103.79 759.08,-109.57"/>
</g>
<!-- Node8&#45;&gt;Node12 -->
<g id="edge12" class="edge">
<title>Node8&#45;&gt;Node12</title>
<path fill="none" stroke="midnightblue" d="M731.72,-110.31C679.63,-99.24 600.01,-82.31 557.37,-73.24"/>
<polygon fill="midnightblue" stroke="midnightblue" points="731.24,-113.79 741.75,-112.44 732.7,-106.94 731.24,-113.79"/>
</g>
<!-- Node13 -->
<g id="node13" class="node">
<title>Node13</title>
<g id="a_node13"><a xlink:href="../../d5/d9f/registry_8cc.html" target="_top" xlink:title=" ">
<polygon fill="white" stroke="black" points="997.5,-56.5 997.5,-75.5 1058.5,-75.5 1058.5,-56.5 997.5,-56.5"/>
<text text-anchor="middle" x="1028" y="-63.5" font-family="Helvetica,sans-Serif" font-size="10.00">registry.cc</text>
</a>
</g>
</g>
<!-- Node8&#45;&gt;Node13 -->
<g id="edge13" class="edge">
<title>Node8&#45;&gt;Node13</title>
<path fill="none" stroke="midnightblue" d="M832.07,-110.3C874.01,-101.3 935.46,-88 989,-76 991.71,-75.39 994.53,-74.75 997.35,-74.11"/>
<polygon fill="midnightblue" stroke="midnightblue" points="831.15,-106.92 822.1,-112.44 832.61,-113.76 831.15,-106.92"/>
</g>
<!-- Node14 -->
<g id="node14" class="node">
<title>Node14</title>
<g id="a_node14"><a xlink:href="../../d0/dee/smart__protocol_8cc.html" target="_top" xlink:title=" ">
<polygon fill="white" stroke="black" points="1077,-56.5 1077,-75.5 1171,-75.5 1171,-56.5 1077,-56.5"/>
<text text-anchor="middle" x="1124" y="-63.5" font-family="Helvetica,sans-Serif" font-size="10.00">smart_protocol.cc</text>
</a>
</g>
</g>
<!-- Node8&#45;&gt;Node14 -->
<g id="edge14" class="edge">
<title>Node8&#45;&gt;Node14</title>
<path fill="none" stroke="midnightblue" d="M839.09,-112.07C896.83,-103.03 988.63,-88.62 1068,-76 1070.92,-75.54 1073.92,-75.06 1076.95,-74.57"/>
<polygon fill="midnightblue" stroke="midnightblue" points="838.41,-108.64 829.07,-113.64 839.49,-115.55 838.41,-108.64"/>
</g>
<!-- Node15&#45;&gt;Node8 -->
<g id="edge17" class="edge">
<title>Node15&#45;&gt;Node8</title>
<path fill="none" stroke="midnightblue" d="M804.17,-159.27C798.53,-150.05 791.88,-139.17 787.35,-131.75"/>
<polygon fill="midnightblue" stroke="midnightblue" points="801.35,-161.38 809.55,-168.08 807.32,-157.73 801.35,-161.38"/>
</g>
<!-- Node15&#45;&gt;Node9 -->
<g id="edge16" class="edge">
<title>Node15&#45;&gt;Node9</title>
<path fill="none" stroke="midnightblue" d="M826.42,-159.44C830.98,-151.42 835.69,-141.58 838,-132 842.83,-111.96 833.69,-88.36 827.67,-75.84"/>
<polygon fill="midnightblue" stroke="midnightblue" points="823.31,-157.83 821.1,-168.19 829.29,-161.46 823.31,-157.83"/>
</g>
<!-- Node15&#45;&gt;Node10 -->
<g id="edge18" class="edge">
<title>Node15&#45;&gt;Node10</title>
<path fill="none" stroke="midnightblue" d="M831.9,-161.51C857.54,-138.01 905.43,-94.11 925.63,-75.59"/>
<polygon fill="midnightblue" stroke="midnightblue" points="829.42,-159.03 824.42,-168.37 834.15,-164.19 829.42,-159.03"/>
</g>
<!-- Node17&#45;&gt;Node6 -->
<g id="edge22" class="edge">
<title>Node17&#45;&gt;Node6</title>
<path fill="none" stroke="midnightblue" d="M615.63,-166.56C555.07,-147.49 444.5,-104.51 490,-56 513.67,-30.76 1046.54,-14.9 1166.96,-11.63"/>
<polygon fill="midnightblue" stroke="midnightblue" points="614.65,-169.92 625.24,-169.51 616.71,-163.23 614.65,-169.92"/>
</g>
<!-- Node17&#45;&gt;Node12 -->
<g id="edge28" class="edge">
<title>Node17&#45;&gt;Node12</title>
<path fill="none" stroke="midnightblue" d="M656.24,-158.45C658.34,-144.38 658.67,-125.25 649,-112 637.9,-96.79 589.26,-82.16 557.13,-73.91"/>
<polygon fill="midnightblue" stroke="midnightblue" points="652.76,-157.97 654.33,-168.45 659.64,-159.28 652.76,-157.97"/>
</g>
<!-- Node17&#45;&gt;Node16 -->
<g id="edge27" class="edge">
<title>Node17&#45;&gt;Node16</title>
<path fill="none" stroke="midnightblue" d="M615.34,-167.61C558.22,-153.39 502.12,-139.92 466.69,-131.48"/>
<polygon fill="midnightblue" stroke="midnightblue" points="614.71,-171.06 625.26,-170.08 616.4,-164.27 614.71,-171.06"/>
</g>
<!-- Node17&#45;&gt;Node18 -->
<g id="edge23" class="edge">
<title>Node17&#45;&gt;Node18</title>
<path fill="none" stroke="midnightblue" d="M688.84,-170.32C798.99,-150.36 1124.57,-91.36 1227.46,-72.72"/>
<polygon fill="midnightblue" stroke="midnightblue" points="688.08,-166.9 678.87,-172.13 689.33,-173.79 688.08,-166.9"/>
</g>
<!-- Node20 -->
<g id="node20" class="node">
<title>Node20</title>
<g id="a_node20"><a xlink:href="../../df/de4/bind__crypto_8cc.html" target="_top" xlink:title=" ">
<polygon fill="white" stroke="black" points="561.5,-112.5 561.5,-131.5 640.5,-131.5 640.5,-112.5 561.5,-112.5"/>
<text text-anchor="middle" x="601" y="-119.5" font-family="Helvetica,sans-Serif" font-size="10.00">bind_crypto.cc</text>
</a>
</g>
</g>
<!-- Node17&#45;&gt;Node20 -->
<g id="edge26" class="edge">
<title>Node17&#45;&gt;Node20</title>
<path fill="none" stroke="midnightblue" d="M636.62,-160.72C627.63,-151.2 616.64,-139.56 609.26,-131.75"/>
<polygon fill="midnightblue" stroke="midnightblue" points="634.17,-163.22 643.58,-168.08 639.26,-158.41 634.17,-163.22"/>
</g>
<!-- Node18&#45;&gt;Node6 -->
<g id="edge24" class="edge">
<title>Node18&#45;&gt;Node6</title>
<path fill="none" stroke="midnightblue" d="M1240.24,-50.1C1228,-40.38 1212.44,-28.03 1202.12,-19.83"/>
<polygon fill="midnightblue" stroke="midnightblue" points="1238.07,-52.85 1248.07,-56.32 1242.42,-47.36 1238.07,-52.85"/>
</g>
<!-- Node19 -->
<g id="node19" class="node">
<title>Node19</title>
<g id="a_node19"><a xlink:href="../../db/d7e/lua__node_8cc.html" target="_top" xlink:title=" ">
<polygon fill="white" stroke="black" points="1233,-0.5 1233,-19.5 1301,-19.5 1301,-0.5 1233,-0.5"/>
<text text-anchor="middle" x="1267" y="-7.5" font-family="Helvetica,sans-Serif" font-size="10.00">lua_node.cc</text>
</a>
</g>
</g>
<!-- Node18&#45;&gt;Node19 -->
<g id="edge25" class="edge">
<title>Node18&#45;&gt;Node19</title>
<path fill="none" stroke="midnightblue" d="M1261.8,-46.1C1263.13,-37.14 1264.65,-26.86 1265.7,-19.75"/>
<polygon fill="midnightblue" stroke="midnightblue" points="1258.32,-45.68 1260.32,-56.08 1265.25,-46.7 1258.32,-45.68"/>
</g>
<!-- Node21&#45;&gt;Node13 -->
<g id="edge30" class="edge">
<title>Node21&#45;&gt;Node13</title>
<path fill="none" stroke="midnightblue" d="M920.6,-161.51C947.31,-138.01 997.19,-94.11 1018.24,-75.59"/>
<polygon fill="midnightblue" stroke="midnightblue" points="918,-159.13 912.81,-168.37 922.63,-164.39 918,-159.13"/>
</g>
<!-- Node22&#45;&gt;Node6 -->
<g id="edge32" class="edge">
<title>Node22&#45;&gt;Node6</title>
<path fill="none" stroke="midnightblue" d="M1194.54,-157.93C1193.67,-121.92 1191.82,-45.23 1191.21,-19.57"/>
<polygon fill="midnightblue" stroke="midnightblue" points="1191.04,-158.16 1194.78,-168.08 1198.04,-157.99 1191.04,-158.16"/>
</g>
<!-- Node22&#45;&gt;Node14 -->
<g id="edge42" class="edge">
<title>Node22&#45;&gt;Node14</title>
<path fill="none" stroke="midnightblue" d="M1184,-159.96C1168.61,-136.12 1141.24,-93.71 1129.55,-75.59"/>
<polygon fill="midnightblue" stroke="midnightblue" points="1181.07,-161.86 1189.43,-168.37 1186.95,-158.07 1181.07,-161.86"/>
</g>
<!-- Node22&#45;&gt;Node18 -->
<g id="edge33" class="edge">
<title>Node22&#45;&gt;Node18</title>
<path fill="none" stroke="midnightblue" d="M1205.1,-159.64C1219,-135.74 1243.51,-93.63 1254,-75.59"/>
<polygon fill="midnightblue" stroke="midnightblue" points="1202.03,-157.96 1200.02,-168.37 1208.08,-161.49 1202.03,-157.96"/>
</g>
<!-- Node22&#45;&gt;Node23 -->
<g id="edge34" class="edge">
<title>Node22&#45;&gt;Node23</title>
<path fill="none" stroke="midnightblue" d="M1224.39,-164.5C1248.2,-154.38 1281.11,-140.39 1301.97,-131.52"/>
<polygon fill="midnightblue" stroke="midnightblue" points="1222.96,-161.31 1215.12,-168.44 1225.7,-167.75 1222.96,-161.31"/>
</g>
<!-- Node23&#45;&gt;Node6 -->
<g id="edge35" class="edge">
<title>Node23&#45;&gt;Node6</title>
<path fill="none" stroke="midnightblue" d="M1319.85,-102.1C1317.31,-87.83 1311.83,-68.62 1300,-56 1288.03,-43.23 1243.42,-27.44 1215.11,-18.36"/>
<polygon fill="midnightblue" stroke="midnightblue" points="1316.42,-102.87 1321.31,-112.26 1323.35,-101.87 1316.42,-102.87"/>
</g>
<!-- Node23&#45;&gt;Node18 -->
<g id="edge36" class="edge">
<title>Node23&#45;&gt;Node18</title>
<path fill="none" stroke="midnightblue" d="M1303.96,-105.54C1292.73,-95.91 1278.68,-83.87 1269.31,-75.83"/>
<polygon fill="midnightblue" stroke="midnightblue" points="1302.01,-108.47 1311.88,-112.32 1306.56,-103.16 1302.01,-108.47"/>
</g>
<!-- Node24 -->
<g id="node24" class="node">
<title>Node24</title>
<g id="a_node24"><a xlink:href="../../dc/dfd/node_8cc.html" target="_top" xlink:title=" ">
<polygon fill="white" stroke="black" points="1425,-56.5 1425,-75.5 1475,-75.5 1475,-56.5 1425,-56.5"/>
<text text-anchor="middle" x="1450" y="-63.5" font-family="Helvetica,sans-Serif" font-size="10.00">node.cc</text>
</a>
</g>
</g>
<!-- Node23&#45;&gt;Node24 -->
<g id="edge37" class="edge">
<title>Node23&#45;&gt;Node24</title>
<path fill="none" stroke="midnightblue" d="M1351.62,-108.5C1375.62,-98.38 1408.78,-84.39 1429.81,-75.52"/>
<polygon fill="midnightblue" stroke="midnightblue" points="1350.14,-105.33 1342.28,-112.44 1352.86,-111.78 1350.14,-105.33"/>
</g>
<!-- Node25 -->
<g id="node25" class="node">
<title>Node25</title>
<g id="a_node25"><a xlink:href="../../dc/d32/node__updater_8h.html" target="_top" xlink:title=" ">
<polygon fill="white" stroke="black" points="1493.5,-56.5 1493.5,-75.5 1576.5,-75.5 1576.5,-56.5 1493.5,-56.5"/>
<text text-anchor="middle" x="1535" y="-63.5" font-family="Helvetica,sans-Serif" font-size="10.00">node_updater.h</text>
</a>
</g>
</g>
<!-- Node23&#45;&gt;Node25 -->
<g id="edge38" class="edge">
<title>Node23&#45;&gt;Node25</title>
<path fill="none" stroke="midnightblue" d="M1354.51,-112.76C1394.18,-102.7 1460.95,-85.77 1501.21,-75.57"/>
<polygon fill="midnightblue" stroke="midnightblue" points="1353.63,-109.37 1344.79,-115.22 1355.35,-116.16 1353.63,-109.37"/>
</g>
<!-- Node27 -->
<g id="node27" class="node">
<title>Node27</title>
<g id="a_node27"><a xlink:href="../../df/dd2/testnet_8cc.html" target="_top" xlink:title=" ">
<polygon fill="white" stroke="black" points="1347.5,-56.5 1347.5,-75.5 1406.5,-75.5 1406.5,-56.5 1347.5,-56.5"/>
<text text-anchor="middle" x="1377" y="-63.5" font-family="Helvetica,sans-Serif" font-size="10.00">testnet.cc</text>
</a>
</g>
</g>
<!-- Node23&#45;&gt;Node27 -->
<g id="edge41" class="edge">
<title>Node23&#45;&gt;Node27</title>
<path fill="none" stroke="midnightblue" d="M1338.29,-105C1348.04,-95.43 1360.05,-83.64 1368.09,-75.75"/>
<polygon fill="midnightblue" stroke="midnightblue" points="1335.77,-102.58 1331.08,-112.08 1340.67,-107.57 1335.77,-102.58"/>
</g>
<!-- Node25&#45;&gt;Node6 -->
<g id="edge39" class="edge">
<title>Node25&#45;&gt;Node6</title>
<path fill="none" stroke="midnightblue" d="M1483.27,-55.95C1367.03,-38.14 1335.16,-42.76 1224,-20 1221.09,-19.4 1218.06,-18.7 1215.06,-17.95"/>
<polygon fill="midnightblue" stroke="midnightblue" points="1482.85,-59.43 1493.27,-57.51 1483.93,-52.51 1482.85,-59.43"/>
</g>
<!-- Node26 -->
<g id="node26" class="node">
<title>Node26</title>
<g id="a_node26"><a xlink:href="../../d1/d13/node__updater_8cc.html" target="_top" xlink:title=" ">
<polygon fill="white" stroke="black" points="1491,-0.5 1491,-19.5 1579,-19.5 1579,-0.5 1491,-0.5"/>
<text text-anchor="middle" x="1535" y="-7.5" font-family="Helvetica,sans-Serif" font-size="10.00">node_updater.cc</text>
</a>
</g>
</g>
<!-- Node25&#45;&gt;Node26 -->
<g id="edge40" class="edge">
<title>Node25&#45;&gt;Node26</title>
<path fill="none" stroke="midnightblue" d="M1535,-45.8C1535,-36.91 1535,-26.78 1535,-19.75"/>
<polygon fill="midnightblue" stroke="midnightblue" points="1531.5,-46.08 1535,-56.08 1538.5,-46.08 1531.5,-46.08"/>
</g>
</g>
</svg>
        <g id="navigator" transform="translate(0 0)" fill="#404254">
                <rect fill="#f2f5e9" fill-opacity="0.5" stroke="#606060" stroke-width=".5" x="0" y="0" width="60" height="60"/>
                <use id="zoomplus" xlink:href="#zoomPlus" x="17" y="9" onmousedown="handleZoom(evt,'in')"/>
                <use id="zoomminus" xlink:href="#zoomMin" x="42" y="9" onmousedown="handleZoom(evt,'out')"/>
                <use id="reset" xlink:href="#resetDef" x="30" y="36" onmousedown="handleReset()"/>
                <g id="arrowUp" xlink:href="#dirArrow" transform="translate(30 24)" onmousedown="handlePan(0,-1)">
                  <use xlink:href="#rim" fill="#404040">
                        <set attributeName="fill" to="#808080" begin="arrowUp.mouseover" end="arrowUp.mouseout"/>
                  </use>
                  <path fill="none" stroke="white" stroke-width="1.5" d="M0,-3.0v7 M-2.5,-0.5L0,-3.0L2.5,-0.5"/>
                </g>
                <g id="arrowRight" xlink:href="#dirArrow" transform="rotate(90) translate(36 -43)" onmousedown="handlePan(1,0)">
                  <use xlink:href="#rim" fill="#404040">
                        <set attributeName="fill" to="#808080" begin="arrowRight.mouseover" end="arrowRight.mouseout"/>
                  </use>
                  <path fill="none" stroke="white" stroke-width="1.5" d="M0,-3.0v7 M-2.5,-0.5L0,-3.0L2.5,-0.5"/>
                </g>
                <g id="arrowDown" xlink:href="#dirArrow" transform="rotate(180) translate(-30 -48)" onmousedown="handlePan(0,1)">
                  <use xlink:href="#rim" fill="#404040">
                        <set attributeName="fill" to="#808080" begin="arrowDown.mouseover" end="arrowDown.mouseout"/>
                  </use>
                  <path fill="none" stroke="white" stroke-width="1.5" d="M0,-3.0v7 M-2.5,-0.5L0,-3.0L2.5,-0.5"/>
                </g>
                <g id="arrowLeft" xlink:href="#dirArrow" transform="rotate(270) translate(-36 17)" onmousedown="handlePan(-1,0)">
                  <use xlink:href="#rim" fill="#404040">
                        <set attributeName="fill" to="#808080" begin="arrowLeft.mouseover" end="arrowLeft.mouseout"/>
                  </use>
                  <path fill="none" stroke="white" stroke-width="1.5" d="M0,-3.0v7 M-2.5,-0.5L0,-3.0L2.5,-0.5"/>
                </g>
        </g>
        <svg viewBox="0 0 15 15" width="100%" height="30px" preserveAspectRatio="xMaxYMin meet">
         <g id="arrow_out" transform="scale(0.3 0.3)">
          <a xlink:href="msg_8h__dep__incl_org.svg" target="_base">
           <rect id="button" ry="5" rx="5" y="6" x="6" height="38" width="38"
                fill="#f2f5e9" fill-opacity="0.5" stroke="#606060" stroke-width="1.0"/>
           <path id="arrow"
             d="M 11.500037,31.436501 C 11.940474,20.09759 22.043105,11.32322 32.158766,21.979434 L 37.068811,17.246167 C 37.068811,17.246167 37.088388,32 37.088388,32 L 22.160133,31.978069 C 22.160133,31.978069 26.997745,27.140456 26.997745,27.140456 C 18.528582,18.264221 13.291696,25.230495 11.500037,31.436501 z"
             style="fill:#404040;"/>
          </a>
         </g>
        </svg>
</svg>
