<?xml version="1.0" encoding="UTF-8" standalone="no"?>
<!DOCTYPE svg PUBLIC "-//W3C//DTD SVG 1.1//EN"
 "http://www.w3.org/Graphics/SVG/1.1/DTD/svg11.dtd">
<!-- Generated by graphviz version 2.44.0 ()
 -->
<!-- Title: automaton::core::script::module::method_info Pages: 1 -->
<svg width="183pt" height="185pt"
 viewBox="0.00 0.00 183.00 185.00" xmlns="http://www.w3.org/2000/svg" xmlns:xlink="http://www.w3.org/1999/xlink">
<g id="graph0" class="graph" transform="scale(1 1) rotate(0) translate(4 181)">
<title>automaton::core::script::module::method_info</title>
<polygon fill="white" stroke="transparent" points="-4,4 -4,-181 179,-181 179,4 -4,4"/>
<!-- Node1 -->
<g id="node1" class="node">
<title>Node1</title>
<g id="a_node1"><a xlink:title=" ">
<polygon fill="#bfbfbf" stroke="black" points="19.5,-0.5 19.5,-30.5 133.5,-30.5 133.5,-0.5 19.5,-0.5"/>
<text text-anchor="start" x="27.5" y="-18.5" font-family="Helvetica,sans-Serif" font-size="10.00">automaton::core::script</text>
<text text-anchor="middle" x="76.5" y="-7.5" font-family="Helvetica,sans-Serif" font-size="10.00">::module::method_info</text>
</a>
</g>
</g>
<!-- Node2 -->
<g id="node2" class="node">
<title>Node2</title>
<g id="a_node2"><a xlink:title=" ">
<polygon fill="white" stroke="#bfbfbf" points="0,-89.5 0,-108.5 51,-108.5 51,-89.5 0,-89.5"/>
<text text-anchor="middle" x="25.5" y="-96.5" font-family="Helvetica,sans-Serif" font-size="10.00">uint32_t</text>
</a>
</g>
</g>
<!-- Node2&#45;&gt;Node1 -->
<g id="edge1" class="edge">
<title>Node2&#45;&gt;Node1</title>
<path fill="none" stroke="#9a32cd" stroke-dasharray="5,2" d="M21.89,-79.28C20.99,-69.66 21.45,-58.09 26.5,-49 30.73,-41.4 37.56,-35.29 44.84,-30.51"/>
<polygon fill="#9a32cd" stroke="#9a32cd" points="18.46,-80.02 23.38,-89.41 25.39,-79 18.46,-80.02"/>
<text text-anchor="middle" x="66.5" y="-63" font-family="Helvetica,sans-Serif" font-size="10.00"> input_schema_id</text>
<text text-anchor="middle" x="66.5" y="-52" font-family="Helvetica,sans-Serif" font-size="10.00">output_schema_id</text>
</g>
<!-- Node3 -->
<g id="node3" class="node">
<title>Node3</title>
<g id="a_node3"><a xlink:title="STL class.">
<polygon fill="white" stroke="#bfbfbf" points="99,-89.5 99,-108.5 158,-108.5 158,-89.5 99,-89.5"/>
<text text-anchor="middle" x="128.5" y="-96.5" font-family="Helvetica,sans-Serif" font-size="10.00">std::string</text>
</a>
</g>
</g>
<!-- Node3&#45;&gt;Node1 -->
<g id="edge2" class="edge">
<title>Node3&#45;&gt;Node1</title>
<path fill="none" stroke="#9a32cd" stroke-dasharray="5,2" d="M121.89,-79.6C118.07,-70.08 112.77,-58.5 106.5,-49 102.18,-42.46 96.54,-35.98 91.32,-30.54"/>
<polygon fill="#9a32cd" stroke="#9a32cd" points="118.73,-81.14 125.55,-89.24 125.27,-78.65 118.73,-81.14"/>
<text text-anchor="middle" x="131" y="-57.5" font-family="Helvetica,sans-Serif" font-size="10.00"> name</text>
</g>
<!-- Node4 -->
<g id="node4" class="node">
<title>Node4</title>
<g id="a_node4"><a xlink:title="STL class.">
<polygon fill="white" stroke="#bfbfbf" points="82,-146.5 82,-176.5 175,-176.5 175,-146.5 82,-146.5"/>
<text text-anchor="start" x="90" y="-164.5" font-family="Helvetica,sans-Serif" font-size="10.00">std::basic_string&lt;</text>
<text text-anchor="middle" x="128.5" y="-153.5" font-family="Helvetica,sans-Serif" font-size="10.00"> char &gt;</text>
</a>
</g>
</g>
<!-- Node4&#45;&gt;Node3 -->
<g id="edge3" class="edge">
<title>Node4&#45;&gt;Node3</title>
<path fill="none" stroke="midnightblue" d="M128.5,-136.35C128.5,-126.51 128.5,-115.78 128.5,-108.54"/>
<polygon fill="midnightblue" stroke="midnightblue" points="125,-136.47 128.5,-146.47 132,-136.47 125,-136.47"/>
</g>
</g>
</svg>
