<?xml version="1.0" encoding="UTF-8" standalone="no"?>
<!DOCTYPE svg PUBLIC "-//W3C//DTD SVG 1.1//EN"
 "http://www.w3.org/Graphics/SVG/1.1/DTD/svg11.dtd">
<!-- Generated by graphviz version 2.44.0 ()
 -->
<!-- Title: tcp_implementation.h Pages: 1 -->
<svg width="1474pt" height="285pt"
 viewBox="0.00 0.00 1474.00 285.00" xmlns="http://www.w3.org/2000/svg" xmlns:xlink="http://www.w3.org/1999/xlink">
<g id="graph0" class="graph" transform="scale(1 1) rotate(0) translate(4 281)">
<title>tcp_implementation.h</title>
<polygon fill="white" stroke="transparent" points="-4,4 -4,-281 1470,-281 1470,4 -4,4"/>
<!-- Node1 -->
<g id="node1" class="node">
<title>Node1</title>
<g id="a_node1"><a xlink:title=" ">
<polygon fill="#bfbfbf" stroke="black" points="486.5,-257.5 486.5,-276.5 595.5,-276.5 595.5,-257.5 486.5,-257.5"/>
<text text-anchor="middle" x="541" y="-264.5" font-family="Helvetica,sans-Serif" font-size="10.00">tcp_implementation.h</text>
</a>
</g>
</g>
<!-- Node2 -->
<g id="node2" class="node">
<title>Node2</title>
<g id="a_node2"><a xlink:title=" ">
<polygon fill="white" stroke="#bfbfbf" points="0,-0.5 0,-19.5 54,-19.5 54,-0.5 0,-0.5"/>
<text text-anchor="middle" x="27" y="-7.5" font-family="Helvetica,sans-Serif" font-size="10.00">iostream</text>
</a>
</g>
</g>
<!-- Node1&#45;&gt;Node2 -->
<g id="edge1" class="edge">
<title>Node1&#45;&gt;Node2</title>
<path fill="none" stroke="midnightblue" d="M486.22,-265.81C382.6,-264.6 162.4,-257.63 97,-221 29.29,-183.07 24.85,-74.3 25.99,-30.06"/>
<polygon fill="midnightblue" stroke="midnightblue" points="29.49,-29.97 26.39,-19.84 22.5,-29.7 29.49,-29.97"/>
</g>
<!-- Node3 -->
<g id="node3" class="node">
<title>Node3</title>
<g id="a_node3"><a xlink:title=" ">
<polygon fill="white" stroke="#bfbfbf" points="353.5,-62 353.5,-81 404.5,-81 404.5,-62 353.5,-62"/>
<text text-anchor="middle" x="379" y="-69" font-family="Helvetica,sans-Serif" font-size="10.00">memory</text>
</a>
</g>
</g>
<!-- Node1&#45;&gt;Node3 -->
<g id="edge2" class="edge">
<title>Node1&#45;&gt;Node3</title>
<path fill="none" stroke="midnightblue" d="M486.19,-264.09C453.7,-259.86 414.58,-248.79 392,-221 361.61,-183.6 368.55,-122.04 374.6,-91.25"/>
<polygon fill="midnightblue" stroke="midnightblue" points="378.1,-91.59 376.79,-81.08 371.26,-90.11 378.1,-91.59"/>
</g>
<!-- Node4 -->
<g id="node4" class="node">
<title>Node4</title>
<g id="a_node4"><a xlink:title=" ">
<polygon fill="white" stroke="#bfbfbf" points="400.5,-196 400.5,-215 443.5,-215 443.5,-196 400.5,-196"/>
<text text-anchor="middle" x="422" y="-203" font-family="Helvetica,sans-Serif" font-size="10.00">mutex</text>
</a>
</g>
</g>
<!-- Node1&#45;&gt;Node4 -->
<g id="edge3" class="edge">
<title>Node1&#45;&gt;Node4</title>
<path fill="none" stroke="midnightblue" d="M523.95,-257.48C504.16,-247.58 471.28,-231.14 448.23,-219.62"/>
<polygon fill="midnightblue" stroke="midnightblue" points="449.53,-216.35 439.02,-215.01 446.4,-222.61 449.53,-216.35"/>
</g>
<!-- Node5 -->
<g id="node5" class="node">
<title>Node5</title>
<g id="a_node5"><a xlink:title=" ">
<polygon fill="white" stroke="#bfbfbf" points="77.5,-0.5 77.5,-19.5 118.5,-19.5 118.5,-0.5 77.5,-0.5"/>
<text text-anchor="middle" x="98" y="-7.5" font-family="Helvetica,sans-Serif" font-size="10.00">string</text>
</a>
</g>
</g>
<!-- Node1&#45;&gt;Node5 -->
<g id="edge4" class="edge">
<title>Node1&#45;&gt;Node5</title>
<path fill="none" stroke="midnightblue" d="M486.15,-262.74C396.21,-256.84 221.59,-242.95 164,-221 87.89,-192 55.52,-166.75 39,-87 36.21,-73.51 32.89,-68.35 39,-56 45.6,-42.66 58.26,-32.19 70.17,-24.73"/>
<polygon fill="midnightblue" stroke="midnightblue" points="72.12,-27.64 79.02,-19.6 68.61,-21.59 72.12,-27.64"/>
</g>
<!-- Node6 -->
<g id="node6" class="node">
<title>Node6</title>
<g id="a_node6"><a xlink:title=" ">
<polygon fill="white" stroke="#bfbfbf" points="461.5,-196 461.5,-215 500.5,-215 500.5,-196 461.5,-196"/>
<text text-anchor="middle" x="481" y="-203" font-family="Helvetica,sans-Serif" font-size="10.00">utility</text>
</a>
</g>
</g>
<!-- Node1&#45;&gt;Node6 -->
<g id="edge5" class="edge">
<title>Node1&#45;&gt;Node6</title>
<path fill="none" stroke="midnightblue" d="M532.4,-257.48C523.14,-248.28 508.18,-233.46 496.79,-222.16"/>
<polygon fill="midnightblue" stroke="midnightblue" points="499.15,-219.57 489.58,-215.01 494.22,-224.54 499.15,-219.57"/>
</g>
<!-- Node7 -->
<g id="node7" class="node">
<title>Node7</title>
<g id="a_node7"><a xlink:title=" ">
<polygon fill="white" stroke="#bfbfbf" points="519,-196 519,-215 563,-215 563,-196 519,-196"/>
<text text-anchor="middle" x="541" y="-203" font-family="Helvetica,sans-Serif" font-size="10.00">vector</text>
</a>
</g>
</g>
<!-- Node1&#45;&gt;Node7 -->
<g id="edge6" class="edge">
<title>Node1&#45;&gt;Node7</title>
<path fill="none" stroke="midnightblue" d="M541,-257.48C541,-249.08 541,-235.98 541,-225.16"/>
<polygon fill="midnightblue" stroke="midnightblue" points="544.5,-225.01 541,-215.01 537.5,-225.01 544.5,-225.01"/>
</g>
<!-- Node8 -->
<g id="node8" class="node">
<title>Node8</title>
<g id="a_node8"><a xlink:title=" ">
<polygon fill="white" stroke="#bfbfbf" points="581,-190.5 581,-220.5 687,-220.5 687,-190.5 581,-190.5"/>
<text text-anchor="start" x="589" y="-208.5" font-family="Helvetica,sans-Serif" font-size="10.00">boost/config/warning</text>
<text text-anchor="middle" x="634" y="-197.5" font-family="Helvetica,sans-Serif" font-size="10.00">_disable.hpp</text>
</a>
</g>
</g>
<!-- Node1&#45;&gt;Node8 -->
<g id="edge7" class="edge">
<title>Node1&#45;&gt;Node8</title>
<path fill="none" stroke="midnightblue" d="M554.32,-257.48C567.04,-249.34 586.65,-236.79 603.24,-226.18"/>
<polygon fill="midnightblue" stroke="midnightblue" points="605.54,-228.86 612.08,-220.52 601.77,-222.96 605.54,-228.86"/>
</g>
<!-- Node9 -->
<g id="node9" class="node">
<title>Node9</title>
<g id="a_node9"><a xlink:title=" ">
<polygon fill="white" stroke="#bfbfbf" points="705.5,-190.5 705.5,-220.5 828.5,-220.5 828.5,-190.5 705.5,-190.5"/>
<text text-anchor="start" x="713.5" y="-208.5" font-family="Helvetica,sans-Serif" font-size="10.00">boost/asio/basic_stream</text>
<text text-anchor="middle" x="767" y="-197.5" font-family="Helvetica,sans-Serif" font-size="10.00">_socket.hpp</text>
</a>
</g>
</g>
<!-- Node1&#45;&gt;Node9 -->
<g id="edge8" class="edge">
<title>Node1&#45;&gt;Node9</title>
<path fill="none" stroke="midnightblue" d="M573.38,-257.48C607.35,-248.53 661.6,-234.25 704.05,-223.07"/>
<polygon fill="midnightblue" stroke="midnightblue" points="704.96,-226.45 713.74,-220.52 703.17,-219.68 704.96,-226.45"/>
</g>
<!-- Node10 -->
<g id="node10" class="node">
<title>Node10</title>
<g id="a_node10"><a xlink:title=" ">
<polygon fill="white" stroke="#bfbfbf" points="846.5,-196 846.5,-215 953.5,-215 953.5,-196 846.5,-196"/>
<text text-anchor="middle" x="900" y="-203" font-family="Helvetica,sans-Serif" font-size="10.00">boost/asio/buffer.hpp</text>
</a>
</g>
</g>
<!-- Node1&#45;&gt;Node10 -->
<g id="edge9" class="edge">
<title>Node1&#45;&gt;Node10</title>
<path fill="none" stroke="midnightblue" d="M595.69,-259.04C655.45,-251.12 753.88,-237.18 838,-221 843.77,-219.89 849.82,-218.61 855.78,-217.29"/>
<polygon fill="midnightblue" stroke="midnightblue" points="856.7,-220.67 865.67,-215.04 855.14,-213.85 856.7,-220.67"/>
</g>
<!-- Node11 -->
<g id="node11" class="node">
<title>Node11</title>
<g id="a_node11"><a xlink:title=" ">
<polygon fill="white" stroke="#bfbfbf" points="971,-196 971,-215 1073,-215 1073,-196 971,-196"/>
<text text-anchor="middle" x="1022" y="-203" font-family="Helvetica,sans-Serif" font-size="10.00">boost/asio/error.hpp</text>
</a>
</g>
</g>
<!-- Node1&#45;&gt;Node11 -->
<g id="edge10" class="edge">
<title>Node1&#45;&gt;Node11</title>
<path fill="none" stroke="midnightblue" d="M595.62,-262.54C676.38,-256.89 832.19,-243.94 963,-221 968.79,-219.98 974.86,-218.72 980.8,-217.37"/>
<polygon fill="midnightblue" stroke="midnightblue" points="981.71,-220.76 990.63,-215.04 980.09,-213.94 981.71,-220.76"/>
</g>
<!-- Node12 -->
<g id="node12" class="node">
<title>Node12</title>
<g id="a_node12"><a xlink:title=" ">
<polygon fill="white" stroke="#bfbfbf" points="1091.5,-196 1091.5,-215 1218.5,-215 1218.5,-196 1091.5,-196"/>
<text text-anchor="middle" x="1155" y="-203" font-family="Helvetica,sans-Serif" font-size="10.00">boost/asio/io_service.hpp</text>
</a>
</g>
</g>
<!-- Node1&#45;&gt;Node12 -->
<g id="edge11" class="edge">
<title>Node1&#45;&gt;Node12</title>
<path fill="none" stroke="midnightblue" d="M595.75,-263.5C693.67,-258.56 905.14,-245.84 1082,-221 1089.83,-219.9 1098.08,-218.5 1106.11,-217"/>
<polygon fill="midnightblue" stroke="midnightblue" points="1106.96,-220.4 1116.12,-215.07 1105.63,-213.53 1106.96,-220.4"/>
</g>
<!-- Node13 -->
<g id="node13" class="node">
<title>Node13</title>
<g id="a_node13"><a xlink:title=" ">
<polygon fill="white" stroke="#bfbfbf" points="1236.5,-196 1236.5,-215 1343.5,-215 1343.5,-196 1236.5,-196"/>
<text text-anchor="middle" x="1290" y="-203" font-family="Helvetica,sans-Serif" font-size="10.00">boost/asio/ip/tcp.hpp</text>
</a>
</g>
</g>
<!-- Node1&#45;&gt;Node13 -->
<g id="edge12" class="edge">
<title>Node1&#45;&gt;Node13</title>
<path fill="none" stroke="midnightblue" d="M595.65,-265.46C712.39,-263.65 994.5,-255.71 1228,-221 1234.46,-220.04 1241.24,-218.75 1247.84,-217.34"/>
<polygon fill="midnightblue" stroke="midnightblue" points="1249.03,-220.66 1258.01,-215.04 1247.49,-213.83 1249.03,-220.66"/>
</g>
<!-- Node14 -->
<g id="node14" class="node">
<title>Node14</title>
<g id="a_node14"><a xlink:title=" ">
<polygon fill="white" stroke="#bfbfbf" points="1362,-196 1362,-215 1466,-215 1466,-196 1362,-196"/>
<text text-anchor="middle" x="1414" y="-203" font-family="Helvetica,sans-Serif" font-size="10.00">boost/asio/write.hpp</text>
</a>
</g>
</g>
<!-- Node1&#45;&gt;Node14 -->
<g id="edge13" class="edge">
<title>Node1&#45;&gt;Node14</title>
<path fill="none" stroke="midnightblue" d="M595.98,-266.31C727.52,-266.34 1070.42,-262.08 1353,-221 1359.43,-220.06 1366.18,-218.78 1372.75,-217.35"/>
<polygon fill="midnightblue" stroke="midnightblue" points="1373.9,-220.68 1382.86,-215.03 1372.33,-213.86 1373.9,-220.68"/>
</g>
<!-- Node15 -->
<g id="node15" class="node">
<title>Node15</title>
<g id="a_node15"><a xlink:href="../../d1/d31/acceptor_8h.html" target="_top" xlink:title=" ">
<polygon fill="white" stroke="black" points="210,-190.5 210,-220.5 332,-220.5 332,-190.5 210,-190.5"/>
<text text-anchor="start" x="218" y="-208.5" font-family="Helvetica,sans-Serif" font-size="10.00">automaton/core/network</text>
<text text-anchor="middle" x="271" y="-197.5" font-family="Helvetica,sans-Serif" font-size="10.00">/acceptor.h</text>
</a>
</g>
</g>
<!-- Node1&#45;&gt;Node15 -->
<g id="edge14" class="edge">
<title>Node1&#45;&gt;Node15</title>
<path fill="none" stroke="midnightblue" d="M502.32,-257.48C460.62,-248.29 393.35,-233.46 342.08,-222.16"/>
<polygon fill="midnightblue" stroke="midnightblue" points="342.57,-218.69 332.05,-219.95 341.06,-225.52 342.57,-218.69"/>
</g>
<!-- Node19 -->
<g id="node19" class="node">
<title>Node19</title>
<g id="a_node19"><a xlink:href="../../d4/d67/connection_8h.html" target="_top" xlink:title=" ">
<polygon fill="white" stroke="black" points="77,-123.5 77,-153.5 199,-153.5 199,-123.5 77,-123.5"/>
<text text-anchor="start" x="85" y="-141.5" font-family="Helvetica,sans-Serif" font-size="10.00">automaton/core/network</text>
<text text-anchor="middle" x="138" y="-130.5" font-family="Helvetica,sans-Serif" font-size="10.00">/connection.h</text>
</a>
</g>
</g>
<!-- Node1&#45;&gt;Node19 -->
<g id="edge28" class="edge">
<title>Node1&#45;&gt;Node19</title>
<path fill="none" stroke="midnightblue" d="M486.37,-263.79C402.93,-259.58 248.41,-248.28 201,-221 177.66,-207.57 159.98,-181.75 149.38,-162.75"/>
<polygon fill="midnightblue" stroke="midnightblue" points="152.41,-160.99 144.62,-153.8 146.23,-164.28 152.41,-160.99"/>
</g>
<!-- Node15&#45;&gt;Node3 -->
<g id="edge16" class="edge">
<title>Node15&#45;&gt;Node3</title>
<path fill="none" stroke="midnightblue" d="M284.63,-190.22C293.98,-180.27 306.52,-166.57 317,-154 335.05,-132.33 354.54,-106.23 366.75,-89.5"/>
<polygon fill="midnightblue" stroke="midnightblue" points="369.69,-91.41 372.73,-81.26 364.02,-87.3 369.69,-91.41"/>
</g>
<!-- Node15&#45;&gt;Node5 -->
<g id="edge17" class="edge">
<title>Node15&#45;&gt;Node5</title>
<path fill="none" stroke="midnightblue" d="M281.54,-190.07C301.15,-161.32 338.43,-96.2 306,-56 284.08,-28.83 181.17,-17.25 128.8,-13.05"/>
<polygon fill="midnightblue" stroke="midnightblue" points="128.97,-9.55 118.73,-12.29 128.44,-16.53 128.97,-9.55"/>
</g>
<!-- Node16 -->
<g id="node16" class="node">
<title>Node16</title>
<g id="a_node16"><a xlink:title=" ">
<polygon fill="white" stroke="#bfbfbf" points="118.5,-62 118.5,-81 153.5,-81 153.5,-62 118.5,-62"/>
<text text-anchor="middle" x="136" y="-69" font-family="Helvetica,sans-Serif" font-size="10.00">map</text>
</a>
</g>
</g>
<!-- Node15&#45;&gt;Node16 -->
<g id="edge15" class="edge">
<title>Node15&#45;&gt;Node16</title>
<path fill="none" stroke="midnightblue" d="M262.09,-190.5C250.8,-173.39 230.12,-144.12 208,-123 193.18,-108.86 174.12,-95.67 159.34,-86.32"/>
<polygon fill="midnightblue" stroke="midnightblue" points="161.1,-83.3 150.76,-81.02 157.43,-89.25 161.1,-83.3"/>
</g>
<!-- Node17 -->
<g id="node17" class="node">
<title>Node17</title>
<g id="a_node17"><a xlink:href="../../d1/d13/status_8h.html" target="_top" xlink:title=" ">
<polygon fill="white" stroke="black" points="171.5,-56.5 171.5,-86.5 296.5,-86.5 296.5,-56.5 171.5,-56.5"/>
<text text-anchor="start" x="179.5" y="-74.5" font-family="Helvetica,sans-Serif" font-size="10.00">automaton/core/common</text>
<text text-anchor="middle" x="234" y="-63.5" font-family="Helvetica,sans-Serif" font-size="10.00">/status.h</text>
</a>
</g>
</g>
<!-- Node15&#45;&gt;Node17 -->
<g id="edge18" class="edge">
<title>Node15&#45;&gt;Node17</title>
<path fill="none" stroke="midnightblue" d="M267.04,-190.37C260.75,-167.94 248.41,-123.92 240.72,-96.49"/>
<polygon fill="midnightblue" stroke="midnightblue" points="244,-95.21 237.93,-86.52 237.26,-97.1 244,-95.21"/>
</g>
<!-- Node15&#45;&gt;Node19 -->
<g id="edge22" class="edge">
<title>Node15&#45;&gt;Node19</title>
<path fill="none" stroke="midnightblue" d="M242.14,-190.4C222.71,-180.9 196.88,-168.28 175.81,-157.98"/>
<polygon fill="midnightblue" stroke="midnightblue" points="177.32,-154.82 166.8,-153.58 174.25,-161.11 177.32,-154.82"/>
</g>
<!-- Node17&#45;&gt;Node2 -->
<g id="edge21" class="edge">
<title>Node17&#45;&gt;Node2</title>
<path fill="none" stroke="midnightblue" d="M185.21,-56.47C148.16,-45.83 97.99,-31.41 64.16,-21.68"/>
<polygon fill="midnightblue" stroke="midnightblue" points="64.8,-18.22 54.22,-18.82 62.87,-24.95 64.8,-18.22"/>
</g>
<!-- Node17&#45;&gt;Node5 -->
<g id="edge20" class="edge">
<title>Node17&#45;&gt;Node5</title>
<path fill="none" stroke="midnightblue" d="M201.77,-56.4C179.16,-46.51 149.16,-33.38 127.24,-23.79"/>
<polygon fill="midnightblue" stroke="midnightblue" points="128.35,-20.46 117.79,-19.66 125.55,-26.87 128.35,-20.46"/>
</g>
<!-- Node18 -->
<g id="node18" class="node">
<title>Node18</title>
<g id="a_node18"><a xlink:title=" ">
<polygon fill="white" stroke="#bfbfbf" points="208,-0.5 208,-19.5 260,-19.5 260,-0.5 208,-0.5"/>
<text text-anchor="middle" x="234" y="-7.5" font-family="Helvetica,sans-Serif" font-size="10.00">ostream</text>
</a>
</g>
</g>
<!-- Node17&#45;&gt;Node18 -->
<g id="edge19" class="edge">
<title>Node17&#45;&gt;Node18</title>
<path fill="none" stroke="midnightblue" d="M234,-56.4C234,-48.47 234,-38.46 234,-29.86"/>
<polygon fill="midnightblue" stroke="midnightblue" points="237.5,-29.66 234,-19.66 230.5,-29.66 237.5,-29.66"/>
</g>
<!-- Node19&#45;&gt;Node3 -->
<g id="edge24" class="edge">
<title>Node19&#45;&gt;Node3</title>
<path fill="none" stroke="midnightblue" d="M190,-123.48C236.43,-110.95 303.18,-92.95 343.68,-82.03"/>
<polygon fill="midnightblue" stroke="midnightblue" points="344.63,-85.39 353.38,-79.41 342.81,-78.64 344.63,-85.39"/>
</g>
<!-- Node19&#45;&gt;Node5 -->
<g id="edge25" class="edge">
<title>Node19&#45;&gt;Node5</title>
<path fill="none" stroke="midnightblue" d="M92.33,-123.46C74.97,-115.65 56.99,-103.97 47,-87 40.01,-75.13 41.33,-68.56 47,-56 52.62,-43.56 63.56,-33.17 73.88,-25.53"/>
<polygon fill="midnightblue" stroke="midnightblue" points="76.01,-28.31 82.27,-19.76 72.04,-22.54 76.01,-28.31"/>
</g>
<!-- Node19&#45;&gt;Node16 -->
<g id="edge23" class="edge">
<title>Node19&#45;&gt;Node16</title>
<path fill="none" stroke="midnightblue" d="M137.57,-123.4C137.28,-114.06 136.9,-101.71 136.59,-91.52"/>
<polygon fill="midnightblue" stroke="midnightblue" points="140.07,-91.08 136.27,-81.19 133.08,-91.3 140.07,-91.08"/>
</g>
<!-- Node19&#45;&gt;Node17 -->
<g id="edge27" class="edge">
<title>Node19&#45;&gt;Node17</title>
<path fill="none" stroke="midnightblue" d="M158.83,-123.4C172.29,-114.28 190,-102.29 204.85,-92.24"/>
<polygon fill="midnightblue" stroke="midnightblue" points="206.89,-95.08 213.21,-86.58 202.97,-89.28 206.89,-95.08"/>
</g>
<!-- Node20 -->
<g id="node20" class="node">
<title>Node20</title>
<g id="a_node20"><a xlink:title=" ">
<polygon fill="white" stroke="#bfbfbf" points="56,-62 56,-81 100,-81 100,-62 56,-62"/>
<text text-anchor="middle" x="78" y="-69" font-family="Helvetica,sans-Serif" font-size="10.00">thread</text>
</a>
</g>
</g>
<!-- Node19&#45;&gt;Node20 -->
<g id="edge26" class="edge">
<title>Node19&#45;&gt;Node20</title>
<path fill="none" stroke="midnightblue" d="M124.98,-123.4C115.53,-113.16 102.73,-99.3 92.88,-88.62"/>
<polygon fill="midnightblue" stroke="midnightblue" points="95.38,-86.17 86.03,-81.19 90.24,-90.92 95.38,-86.17"/>
</g>
</g>
</svg>
