<?xml version="1.0" encoding="UTF-8" standalone="no"?>
<!DOCTYPE svg PUBLIC "-//W3C//DTD SVG 1.1//EN"
 "http://www.w3.org/Graphics/SVG/1.1/DTD/svg11.dtd">
<!-- Generated by graphviz version 2.42.3 ()
 -->
<!-- Title: automaton::core::network::connection::connection_handler Pages: 1 -->
<svg width="432pt" height="127pt"
 viewBox="0.00 0.00 432.00 126.50" xmlns="http://www.w3.org/2000/svg" xmlns:xlink="http://www.w3.org/1999/xlink">
<g id="graph0" class="graph" transform="scale(1 1) rotate(0) translate(4 122.5)">
<title>automaton::core::network::connection::connection_handler</title>
<polygon fill="white" stroke="transparent" points="-4,4 -4,-122.5 428,-122.5 428,4 -4,4"/>
<!-- Node1 -->
<g id="node1" class="node">
<title>Node1</title>
<g id="a_node1"><a xlink:title=" ">
<polygon fill="#bfbfbf" stroke="black" points="0,-33.5 0,-74.5 125,-74.5 125,-33.5 0,-33.5"/>
<text text-anchor="start" x="8" y="-62.5" font-family="Helvetica,sans-Serif" font-size="10.00">automaton::core::network</text>
<text text-anchor="start" x="8" y="-51.5" font-family="Helvetica,sans-Serif" font-size="10.00">::connection::connection</text>
<text text-anchor="middle" x="62.5" y="-40.5" font-family="Helvetica,sans-Serif" font-size="10.00">_handler</text>
</a>
</g>
</g>
<!-- Node2 -->
<g id="node2" class="node">
<title>Node2</title>
<g id="a_node2"><a xlink:href="../../d2/d04/classautomaton_1_1core_1_1eth__contract_1_1eth__contract.html" target="_top" xlink:title=" ">
<polygon fill="white" stroke="black" points="161,-88 161,-118 277,-118 277,-88 161,-88"/>
<text text-anchor="start" x="169" y="-106" font-family="Helvetica,sans-Serif" font-size="10.00">automaton::core::eth</text>
<text text-anchor="middle" x="219" y="-95" font-family="Helvetica,sans-Serif" font-size="10.00">_contract::eth_contract</text>
</a>
</g>
</g>
<!-- Node1&#45;&gt;Node2 -->
<g id="edge1" class="edge">
<title>Node1&#45;&gt;Node2</title>
<path fill="none" stroke="midnightblue" d="M134.68,-76.58C146.83,-80.43 159.17,-84.34 170.51,-87.94"/>
<polygon fill="midnightblue" stroke="midnightblue" points="135.6,-73.19 125.01,-73.51 133.48,-79.87 135.6,-73.19"/>
</g>
<!-- Node3 -->
<g id="node3" class="node">
<title>Node3</title>
<g id="a_node3"><a xlink:href="../../da/d77/classautomaton_1_1core_1_1node_1_1node.html" target="_top" xlink:title=" ">
<polygon fill="white" stroke="black" points="163.5,-39 163.5,-69 274.5,-69 274.5,-39 163.5,-39"/>
<text text-anchor="start" x="171.5" y="-57" font-family="Helvetica,sans-Serif" font-size="10.00">automaton::core::node</text>
<text text-anchor="middle" x="219" y="-46" font-family="Helvetica,sans-Serif" font-size="10.00">::node</text>
</a>
</g>
</g>
<!-- Node1&#45;&gt;Node3 -->
<g id="edge2" class="edge">
<title>Node1&#45;&gt;Node3</title>
<path fill="none" stroke="midnightblue" d="M135.16,-54C144.59,-54 154.12,-54 163.2,-54"/>
<polygon fill="midnightblue" stroke="midnightblue" points="135.01,-50.5 125.01,-54 135.01,-57.5 135.01,-50.5"/>
</g>
<!-- Node5 -->
<g id="node5" class="node">
<title>Node5</title>
<g id="a_node5"><a xlink:href="../../d7/d06/classclient__handler.html" target="_top" xlink:title=" ">
<polygon fill="white" stroke="black" points="180.5,-0.5 180.5,-19.5 257.5,-19.5 257.5,-0.5 180.5,-0.5"/>
<text text-anchor="middle" x="219" y="-7.5" font-family="Helvetica,sans-Serif" font-size="10.00">client_handler</text>
</a>
</g>
</g>
<!-- Node1&#45;&gt;Node5 -->
<g id="edge4" class="edge">
<title>Node1&#45;&gt;Node5</title>
<path fill="none" stroke="midnightblue" d="M135.04,-33.63C152.2,-28.74 169.74,-23.74 184.25,-19.61"/>
<polygon fill="midnightblue" stroke="midnightblue" points="133.67,-30.38 125.01,-36.48 135.58,-37.11 133.67,-30.38"/>
</g>
<!-- Node4 -->
<g id="node4" class="node">
<title>Node4</title>
<g id="a_node4"><a xlink:href="../../d3/d27/classautomaton_1_1core_1_1node_1_1luanode_1_1lua__node.html" target="_top" xlink:title=" ">
<polygon fill="white" stroke="black" points="313,-39 313,-69 424,-69 424,-39 313,-39"/>
<text text-anchor="start" x="321" y="-57" font-family="Helvetica,sans-Serif" font-size="10.00">automaton::core::node</text>
<text text-anchor="middle" x="368.5" y="-46" font-family="Helvetica,sans-Serif" font-size="10.00">::luanode::lua_node</text>
</a>
</g>
</g>
<!-- Node3&#45;&gt;Node4 -->
<g id="edge3" class="edge">
<title>Node3&#45;&gt;Node4</title>
<path fill="none" stroke="midnightblue" d="M284.58,-54C293.97,-54 303.56,-54 312.73,-54"/>
<polygon fill="midnightblue" stroke="midnightblue" points="284.5,-50.5 274.5,-54 284.5,-57.5 284.5,-50.5"/>
</g>
</g>
</svg>
