<?xml version="1.0" encoding="UTF-8" standalone="no"?>
<!DOCTYPE svg PUBLIC "-//W3C//DTD SVG 1.1//EN"
 "http://www.w3.org/Graphics/SVG/1.1/DTD/svg11.dtd">
<!-- Generated by graphviz version 2.44.0 ()
 -->
<!-- Title: automaton::core::data::factory::get_schema_id Pages: 1 -->
<svg width="320pt" height="208pt"
 viewBox="0.00 0.00 320.00 207.50" xmlns="http://www.w3.org/2000/svg" xmlns:xlink="http://www.w3.org/1999/xlink">
<g id="graph0" class="graph" transform="scale(1 1) rotate(0) translate(4 203.5)">
<title>automaton::core::data::factory::get_schema_id</title>
<polygon fill="white" stroke="transparent" points="-4,4 -4,-203.5 316,-203.5 316,4 -4,4"/>
<!-- Node1 -->
<g id="node1" class="node">
<title>Node1</title>
<g id="a_node1"><a xlink:title=" ">
<polygon fill="#bfbfbf" stroke="black" points="191,-93 191,-123 312,-123 312,-93 191,-93"/>
<text text-anchor="start" x="199" y="-111" font-family="Helvetica,sans-Serif" font-size="10.00">automaton::core::data</text>
<text text-anchor="middle" x="251.5" y="-100" font-family="Helvetica,sans-Serif" font-size="10.00">::factory::get_schema_id</text>
</a>
</g>
</g>
<!-- Node2 -->
<g id="node2" class="node">
<title>Node2</title>
<g id="a_node2"><a xlink:href="../../db/d61/classautomaton_1_1core_1_1script_1_1module.html#a1e8c6382f79518c7903084c64304f316" target="_top" xlink:title=" ">
<polygon fill="white" stroke="black" points="17.5,-169 17.5,-199 137.5,-199 137.5,-169 17.5,-169"/>
<text text-anchor="start" x="25.5" y="-187" font-family="Helvetica,sans-Serif" font-size="10.00">automaton::core::script</text>
<text text-anchor="middle" x="77.5" y="-176" font-family="Helvetica,sans-Serif" font-size="10.00">::module::bind_schemas</text>
</a>
</g>
</g>
<!-- Node1&#45;&gt;Node2 -->
<g id="edge1" class="edge">
<title>Node1&#45;&gt;Node2</title>
<path fill="none" stroke="midnightblue" d="M217.1,-128.27C199.12,-138.65 176.31,-150.96 155,-160 147.44,-163.21 139.3,-166.21 131.25,-168.94"/>
<polygon fill="midnightblue" stroke="midnightblue" points="219.16,-131.12 226.03,-123.05 215.63,-125.08 219.16,-131.12"/>
</g>
<!-- Node3 -->
<g id="node3" class="node">
<title>Node3</title>
<g id="a_node3"><a xlink:href="../../db/d61/classautomaton_1_1core_1_1script_1_1module.html#a4989dd95f323d389ee5040453090b386" target="_top" xlink:title=" ">
<polygon fill="white" stroke="black" points="0,-120 0,-150 155,-150 155,-120 0,-120"/>
<text text-anchor="start" x="8" y="-138" font-family="Helvetica,sans-Serif" font-size="10.00">automaton::core::script</text>
<text text-anchor="middle" x="77.5" y="-127" font-family="Helvetica,sans-Serif" font-size="10.00">::module::check_implementation</text>
</a>
</g>
</g>
<!-- Node1&#45;&gt;Node3 -->
<g id="edge2" class="edge">
<title>Node1&#45;&gt;Node3</title>
<path fill="none" stroke="midnightblue" d="M180.94,-118.92C172.41,-120.26 163.66,-121.63 155.03,-122.99"/>
<polygon fill="midnightblue" stroke="midnightblue" points="181.49,-122.38 190.83,-117.37 180.4,-115.46 181.49,-122.38"/>
</g>
<!-- Node4 -->
<g id="node4" class="node">
<title>Node4</title>
<g id="a_node4"><a xlink:href="../../d5/d36/classautomaton_1_1core_1_1data_1_1protobuf_1_1protobuf__msg.html#ad5d455dcae10bde4ec57af8d67390190" target="_top" xlink:title=" ">
<polygon fill="white" stroke="black" points="23,-60.5 23,-101.5 132,-101.5 132,-60.5 23,-60.5"/>
<text text-anchor="start" x="31" y="-89.5" font-family="Helvetica,sans-Serif" font-size="10.00">automaton::core::data</text>
<text text-anchor="start" x="31" y="-78.5" font-family="Helvetica,sans-Serif" font-size="10.00">::protobuf::protobuf</text>
<text text-anchor="middle" x="77.5" y="-67.5" font-family="Helvetica,sans-Serif" font-size="10.00">_msg::get_message</text>
</a>
</g>
</g>
<!-- Node1&#45;&gt;Node4 -->
<g id="edge3" class="edge">
<title>Node1&#45;&gt;Node4</title>
<path fill="none" stroke="midnightblue" d="M180.82,-97.06C164.55,-94.51 147.47,-91.83 132.03,-89.4"/>
<polygon fill="midnightblue" stroke="midnightblue" points="180.4,-100.54 190.83,-98.63 181.49,-93.62 180.4,-100.54"/>
</g>
<!-- Node5 -->
<g id="node5" class="node">
<title>Node5</title>
<g id="a_node5"><a xlink:href="../../d5/d36/classautomaton_1_1core_1_1data_1_1protobuf_1_1protobuf__msg.html#a79d0d6f0423fb0612f53946a9908ba77" target="_top" xlink:title=" ">
<polygon fill="white" stroke="black" points="4.5,-0.5 4.5,-41.5 150.5,-41.5 150.5,-0.5 4.5,-0.5"/>
<text text-anchor="start" x="12.5" y="-29.5" font-family="Helvetica,sans-Serif" font-size="10.00">automaton::core::data</text>
<text text-anchor="start" x="12.5" y="-18.5" font-family="Helvetica,sans-Serif" font-size="10.00">::protobuf::protobuf</text>
<text text-anchor="middle" x="77.5" y="-7.5" font-family="Helvetica,sans-Serif" font-size="10.00">_msg::get_repeated_message</text>
</a>
</g>
</g>
<!-- Node1&#45;&gt;Node5 -->
<g id="edge4" class="edge">
<title>Node1&#45;&gt;Node5</title>
<path fill="none" stroke="midnightblue" d="M219.04,-87.44C200.76,-75.95 177.05,-61.81 155,-51 148.34,-47.73 141.23,-44.56 134.12,-41.57"/>
<polygon fill="midnightblue" stroke="midnightblue" points="217.23,-90.44 227.55,-92.84 220.98,-84.53 217.23,-90.44"/>
</g>
</g>
</svg>
