<?xml version="1.0" encoding="UTF-8" standalone="no"?>
<!DOCTYPE svg PUBLIC "-//W3C//DTD SVG 1.1//EN"
 "http://www.w3.org/Graphics/SVG/1.1/DTD/svg11.dtd">
<!-- Generated by graphviz version 2.42.3 ()
 -->
<!-- Title: eth_transaction.cc Pages: 1 -->
<!--zoomable 229 -->
<svg id="main" version="1.1" xmlns="http://www.w3.org/2000/svg" xmlns:xlink="http://www.w3.org/1999/xlink" xml:space="preserve" onload="init(evt)">
<style type="text/css"><![CDATA[
.edge:hover path { stroke: red; }
.edge:hover polygon { stroke: red; fill: red; }
]]></style>
<script type="text/javascript"><![CDATA[
var edges = document.getElementsByTagName('g');
if (edges && edges.length) {
  for (var i=0;i<edges.length;i++) {
    if (edges[i].id.substr(0,4)=='edge') {
      edges[i].setAttribute('class','edge');
    }
  }
}
]]></script>
        <defs>
                <circle id="rim" cx="0" cy="0" r="7"/>
                <circle id="rim2" cx="0" cy="0" r="3.5"/>
                <g id="zoomPlus">
                        <use xlink:href="#rim" fill="#404040">
                                <set attributeName="fill" to="#808080" begin="zoomplus.mouseover" end="zoomplus.mouseout"/>
                        </use>
                        <path d="M-4,0h8M0,-4v8" fill="none" stroke="white" stroke-width="1.5" pointer-events="none"/>
                </g>
                <g id="zoomMin">
                        <use xlink:href="#rim" fill="#404040">
                                <set attributeName="fill" to="#808080" begin="zoomminus.mouseover" end="zoomminus.mouseout"/>
                        </use>
                        <path d="M-4,0h8" fill="none" stroke="white" stroke-width="1.5" pointer-events="none"/>
                </g>
                <g id="dirArrow">
                        <path fill="none" stroke="white" stroke-width="1.5" d="M0,-3.0v7 M-2.5,-0.5L0,-3.0L2.5,-0.5"/>
                </g>
               <g id="resetDef">
                       <use xlink:href="#rim2" fill="#404040">
                               <set attributeName="fill" to="#808080" begin="reset.mouseover" end="reset.mouseout"/>
                       </use>
               </g>
        </defs>

<script type="text/javascript">
var viewWidth = 1403;
var viewHeight = 229;
var sectionId = 'dynsection-0';
</script>
<script xlink:href="../../svgpan.js"/>
<svg id="graph" class="graph">
<g id="viewport">
<title>eth_transaction.cc</title>
<polygon fill="white" stroke="transparent" points="-4,4 -4,-225 1399.28,-225 1399.28,4 -4,4"/>
<!-- Node1 -->
<g id="node1" class="node">
<title>Node1</title>
<g id="a_node1"><a xlink:title=" ">
<polygon fill="#bfbfbf" stroke="black" points="467,-201.5 467,-220.5 563,-220.5 563,-201.5 467,-201.5"/>
<text text-anchor="middle" x="515" y="-208.5" font-family="Helvetica,sans-Serif" font-size="10.00">eth_transaction.cc</text>
</a>
</g>
</g>
<!-- Node2 -->
<g id="node2" class="node">
<title>Node2</title>
<g id="a_node2"><a xlink:href="../../d3/d9c/eth__transaction_8h.html" target="_top" xlink:title=" ">
<polygon fill="white" stroke="black" points="838.5,-129 838.5,-159 975.5,-159 975.5,-129 838.5,-129"/>
<text text-anchor="start" x="846.5" y="-147" font-family="Helvetica,sans-Serif" font-size="10.00">automaton/core/interop</text>
<text text-anchor="middle" x="907" y="-136" font-family="Helvetica,sans-Serif" font-size="10.00">/ethereum/eth_transaction.h</text>
</a>
</g>
</g>
<!-- Node1&#45;&gt;Node2 -->
<g id="edge1" class="edge">
<title>Node1&#45;&gt;Node2</title>
<path fill="none" stroke="midnightblue" d="M563.07,-202.03C629.24,-191.06 749.19,-171.17 828.48,-158.02"/>
<polygon fill="midnightblue" stroke="midnightblue" points="829.13,-161.46 838.42,-156.37 827.99,-154.55 829.13,-161.46"/>
</g>
<!-- Node4 -->
<g id="node4" class="node">
<title>Node4</title>
<g id="a_node4"><a xlink:title=" ">
<polygon fill="white" stroke="#bfbfbf" points="369.5,-62 369.5,-81 440.5,-81 440.5,-62 369.5,-62"/>
<text text-anchor="middle" x="405" y="-69" font-family="Helvetica,sans-Serif" font-size="10.00">secp256k1.h</text>
</a>
</g>
</g>
<!-- Node1&#45;&gt;Node4 -->
<g id="edge3" class="edge">
<title>Node1&#45;&gt;Node4</title>
<path fill="none" stroke="midnightblue" d="M508.12,-201.4C490.22,-179.02 441.94,-118.68 418.35,-89.18"/>
<polygon fill="midnightblue" stroke="midnightblue" points="420.86,-86.72 411.88,-81.1 415.39,-91.09 420.86,-86.72"/>
</g>
<!-- Node5 -->
<g id="node5" class="node">
<title>Node5</title>
<g id="a_node5"><a xlink:title=" ">
<polygon fill="white" stroke="#bfbfbf" points="458.5,-62 458.5,-81 571.5,-81 571.5,-62 458.5,-62"/>
<text text-anchor="middle" x="515" y="-69" font-family="Helvetica,sans-Serif" font-size="10.00">secp256k1_recovery.h</text>
</a>
</g>
</g>
<!-- Node1&#45;&gt;Node5 -->
<g id="edge4" class="edge">
<title>Node1&#45;&gt;Node5</title>
<path fill="none" stroke="midnightblue" d="M515,-201.4C515,-179.5 515,-121.26 515,-91.13"/>
<polygon fill="midnightblue" stroke="midnightblue" points="518.5,-91.1 515,-81.1 511.5,-91.1 518.5,-91.1"/>
</g>
<!-- Node6 -->
<g id="node6" class="node">
<title>Node6</title>
<g id="a_node6"><a xlink:title=" ">
<polygon fill="white" stroke="#bfbfbf" points="0,-0.5 0,-19.5 54,-19.5 54,-0.5 0,-0.5"/>
<text text-anchor="middle" x="27" y="-7.5" font-family="Helvetica,sans-Serif" font-size="10.00">iostream</text>
</a>
</g>
</g>
<!-- Node1&#45;&gt;Node6 -->
<g id="edge5" class="edge">
<title>Node1&#45;&gt;Node6</title>
<path fill="none" stroke="midnightblue" d="M466.85,-206C408.21,-200.36 306.53,-188.07 222,-165 131.95,-140.42 79.33,-164.29 27,-87 15.7,-70.31 17.89,-46.48 21.49,-29.97"/>
<polygon fill="midnightblue" stroke="midnightblue" points="24.98,-30.45 24.06,-19.89 18.19,-28.72 24.98,-30.45"/>
</g>
<!-- Node7 -->
<g id="node7" class="node">
<title>Node7</title>
<g id="a_node7"><a xlink:href="../../da/d44/_keccak__256__cryptopp_8h.html" target="_top" xlink:title=" ">
<polygon fill="white" stroke="black" points="653.5,-123.5 653.5,-164.5 766.5,-164.5 766.5,-123.5 653.5,-123.5"/>
<text text-anchor="start" x="661.5" y="-152.5" font-family="Helvetica,sans-Serif" font-size="10.00">automaton/core/crypto</text>
<text text-anchor="start" x="661.5" y="-141.5" font-family="Helvetica,sans-Serif" font-size="10.00">/cryptopp/Keccak_256</text>
<text text-anchor="middle" x="710" y="-130.5" font-family="Helvetica,sans-Serif" font-size="10.00">_cryptopp.h</text>
</a>
</g>
</g>
<!-- Node1&#45;&gt;Node7 -->
<g id="edge6" class="edge">
<title>Node1&#45;&gt;Node7</title>
<path fill="none" stroke="midnightblue" d="M540.89,-201.37C566.94,-192.69 608.17,-178.94 643.4,-167.2"/>
<polygon fill="midnightblue" stroke="midnightblue" points="644.78,-170.43 653.16,-163.95 642.56,-163.79 644.78,-170.43"/>
</g>
<!-- Node12 -->
<g id="node12" class="node">
<title>Node12</title>
<g id="a_node12"><a xlink:href="../../dc/dac/io_8h.html" target="_top" xlink:title=" ">
<polygon fill="white" stroke="black" points="1148.5,-134.5 1148.5,-153.5 1261.5,-153.5 1261.5,-134.5 1148.5,-134.5"/>
<text text-anchor="middle" x="1205" y="-141.5" font-family="Helvetica,sans-Serif" font-size="10.00">automaton/core/io/io.h</text>
</a>
</g>
</g>
<!-- Node1&#45;&gt;Node12 -->
<g id="edge13" class="edge">
<title>Node1&#45;&gt;Node12</title>
<path fill="none" stroke="midnightblue" d="M563.25,-205.46C684.07,-194.07 999.88,-164.32 1138.33,-151.28"/>
<polygon fill="midnightblue" stroke="midnightblue" points="1138.76,-154.76 1148.39,-150.33 1138.1,-147.79 1138.76,-154.76"/>
</g>
<!-- Node17 -->
<g id="node17" class="node">
<title>Node17</title>
<g id="a_node17"><a xlink:href="../../de/d13/miner_8h.html" target="_top" xlink:title=" ">
<polygon fill="white" stroke="black" points="231.5,-129 231.5,-159 344.5,-159 344.5,-129 231.5,-129"/>
<text text-anchor="start" x="239.5" y="-147" font-family="Helvetica,sans-Serif" font-size="10.00">automaton/tools/miner</text>
<text text-anchor="middle" x="288" y="-136" font-family="Helvetica,sans-Serif" font-size="10.00">/miner.h</text>
</a>
</g>
</g>
<!-- Node1&#45;&gt;Node17 -->
<g id="edge19" class="edge">
<title>Node1&#45;&gt;Node17</title>
<path fill="none" stroke="midnightblue" d="M484.86,-201.37C449.76,-191.32 390.97,-174.49 346.76,-161.82"/>
<polygon fill="midnightblue" stroke="midnightblue" points="347.57,-158.42 336.99,-159.03 345.64,-165.15 347.57,-158.42"/>
</g>
<!-- Node3 -->
<g id="node3" class="node">
<title>Node3</title>
<g id="a_node3"><a xlink:title=" ">
<polygon fill="white" stroke="#bfbfbf" points="811.5,-0.5 811.5,-19.5 852.5,-19.5 852.5,-0.5 811.5,-0.5"/>
<text text-anchor="middle" x="832" y="-7.5" font-family="Helvetica,sans-Serif" font-size="10.00">string</text>
</a>
</g>
</g>
<!-- Node2&#45;&gt;Node3 -->
<g id="edge2" class="edge">
<title>Node2&#45;&gt;Node3</title>
<path fill="none" stroke="midnightblue" d="M920.32,-128.85C935.59,-110.85 956.6,-79.32 941,-56 923.69,-30.13 888.49,-19.11 862.76,-14.44"/>
<polygon fill="midnightblue" stroke="midnightblue" points="863.16,-10.96 852.73,-12.84 862.06,-17.87 863.16,-10.96"/>
</g>
<!-- Node8 -->
<g id="node8" class="node">
<title>Node8</title>
<g id="a_node8"><a xlink:title=" ">
<polygon fill="white" stroke="#bfbfbf" points="837.5,-62 837.5,-81 932.5,-81 932.5,-62 837.5,-62"/>
<text text-anchor="middle" x="885" y="-69" font-family="Helvetica,sans-Serif" font-size="10.00">cryptopp/cryptlib.h</text>
</a>
</g>
</g>
<!-- Node7&#45;&gt;Node8 -->
<g id="edge7" class="edge">
<title>Node7&#45;&gt;Node8</title>
<path fill="none" stroke="midnightblue" d="M758.75,-123.36C789.24,-111.08 827.6,-95.63 853.98,-84.99"/>
<polygon fill="midnightblue" stroke="midnightblue" points="855.5,-88.16 863.47,-81.17 852.89,-81.66 855.5,-88.16"/>
</g>
<!-- Node9 -->
<g id="node9" class="node">
<title>Node9</title>
<g id="a_node9"><a xlink:title=" ">
<polygon fill="white" stroke="#bfbfbf" points="724.5,-62 724.5,-81 819.5,-81 819.5,-62 724.5,-62"/>
<text text-anchor="middle" x="772" y="-69" font-family="Helvetica,sans-Serif" font-size="10.00">cryptopp/keccak.h</text>
</a>
</g>
</g>
<!-- Node7&#45;&gt;Node9 -->
<g id="edge8" class="edge">
<title>Node7&#45;&gt;Node9</title>
<path fill="none" stroke="midnightblue" d="M727.27,-123.36C736.79,-112.54 748.47,-99.26 757.51,-88.98"/>
<polygon fill="midnightblue" stroke="midnightblue" points="760.4,-90.99 764.37,-81.17 755.14,-86.37 760.4,-90.99"/>
</g>
<!-- Node10 -->
<g id="node10" class="node">
<title>Node10</title>
<g id="a_node10"><a xlink:href="../../d2/dab/hash__transformation_8h.html" target="_top" xlink:title=" ">
<polygon fill="white" stroke="black" points="590,-56.5 590,-86.5 706,-86.5 706,-56.5 590,-56.5"/>
<text text-anchor="start" x="598" y="-74.5" font-family="Helvetica,sans-Serif" font-size="10.00">automaton/core/crypto</text>
<text text-anchor="middle" x="648" y="-63.5" font-family="Helvetica,sans-Serif" font-size="10.00">/hash_transformation.h</text>
</a>
</g>
</g>
<!-- Node7&#45;&gt;Node10 -->
<g id="edge9" class="edge">
<title>Node7&#45;&gt;Node10</title>
<path fill="none" stroke="midnightblue" d="M692.73,-123.36C684.86,-114.41 675.51,-103.78 667.4,-94.56"/>
<polygon fill="midnightblue" stroke="midnightblue" points="669.89,-92.09 660.66,-86.89 664.63,-96.71 669.89,-92.09"/>
</g>
<!-- Node10&#45;&gt;Node3 -->
<g id="edge12" class="edge">
<title>Node10&#45;&gt;Node3</title>
<path fill="none" stroke="midnightblue" d="M691.61,-56.4C725.45,-45.46 771.5,-30.56 801.49,-20.87"/>
<polygon fill="midnightblue" stroke="midnightblue" points="802.94,-24.08 811.38,-17.67 800.79,-17.42 802.94,-24.08"/>
</g>
<!-- Node10&#45;&gt;Node6 -->
<g id="edge10" class="edge">
<title>Node10&#45;&gt;Node6</title>
<path fill="none" stroke="midnightblue" d="M589.85,-57.59C586.53,-57.01 583.22,-56.47 580,-56 387.22,-27.72 153.83,-16.04 64.37,-12.38"/>
<polygon fill="midnightblue" stroke="midnightblue" points="64.32,-8.87 54.19,-11.97 64.04,-15.87 64.32,-8.87"/>
</g>
<!-- Node11 -->
<g id="node11" class="node">
<title>Node11</title>
<g id="a_node11"><a xlink:title=" ">
<polygon fill="white" stroke="#bfbfbf" points="630.5,-0.5 630.5,-19.5 665.5,-19.5 665.5,-0.5 630.5,-0.5"/>
<text text-anchor="middle" x="648" y="-7.5" font-family="Helvetica,sans-Serif" font-size="10.00">map</text>
</a>
</g>
</g>
<!-- Node10&#45;&gt;Node11 -->
<g id="edge11" class="edge">
<title>Node10&#45;&gt;Node11</title>
<path fill="none" stroke="midnightblue" d="M648,-56.4C648,-48.47 648,-38.46 648,-29.86"/>
<polygon fill="midnightblue" stroke="midnightblue" points="651.5,-29.66 648,-19.66 644.5,-29.66 651.5,-29.66"/>
</g>
<!-- Node12&#45;&gt;Node3 -->
<g id="edge15" class="edge">
<title>Node12&#45;&gt;Node3</title>
<path fill="none" stroke="midnightblue" d="M1261.75,-135.51C1328.63,-124.5 1425.82,-100.27 1385,-56 1349.46,-17.45 974.29,-11.92 862.97,-11.13"/>
<polygon fill="midnightblue" stroke="midnightblue" points="862.77,-7.63 852.75,-11.07 862.73,-14.63 862.77,-7.63"/>
</g>
<!-- Node13 -->
<g id="node13" class="node">
<title>Node13</title>
<g id="a_node13"><a xlink:title=" ">
<polygon fill="white" stroke="#bfbfbf" points="1228,-62 1228,-81 1274,-81 1274,-62 1228,-62"/>
<text text-anchor="middle" x="1251" y="-69" font-family="Helvetica,sans-Serif" font-size="10.00">chrono</text>
</a>
</g>
</g>
<!-- Node12&#45;&gt;Node13 -->
<g id="edge14" class="edge">
<title>Node12&#45;&gt;Node13</title>
<path fill="none" stroke="midnightblue" d="M1210.64,-134.36C1217.88,-123.26 1230.62,-103.74 1239.85,-89.59"/>
<polygon fill="midnightblue" stroke="midnightblue" points="1242.78,-91.5 1245.31,-81.22 1236.92,-87.68 1242.78,-91.5"/>
</g>
<!-- Node14 -->
<g id="node14" class="node">
<title>Node14</title>
<g id="a_node14"><a xlink:title=" ">
<polygon fill="white" stroke="#bfbfbf" points="1292,-62 1292,-81 1376,-81 1376,-62 1292,-62"/>
<text text-anchor="middle" x="1334" y="-69" font-family="Helvetica,sans-Serif" font-size="10.00">g3log/g3log.hpp</text>
</a>
</g>
</g>
<!-- Node12&#45;&gt;Node14 -->
<g id="edge16" class="edge">
<title>Node12&#45;&gt;Node14</title>
<path fill="none" stroke="midnightblue" d="M1220.56,-134.5C1242.64,-122.43 1283.29,-100.21 1309.46,-85.91"/>
<polygon fill="midnightblue" stroke="midnightblue" points="1311.29,-88.9 1318.38,-81.03 1307.93,-82.76 1311.29,-88.9"/>
</g>
<!-- Node15 -->
<g id="node15" class="node">
<title>Node15</title>
<g id="a_node15"><a xlink:title=" ">
<polygon fill="white" stroke="#bfbfbf" points="989.5,-62 989.5,-81 1092.5,-81 1092.5,-62 989.5,-62"/>
<text text-anchor="middle" x="1041" y="-69" font-family="Helvetica,sans-Serif" font-size="10.00">g3log/logworker.hpp</text>
</a>
</g>
</g>
<!-- Node12&#45;&gt;Node15 -->
<g id="edge17" class="edge">
<title>Node12&#45;&gt;Node15</title>
<path fill="none" stroke="midnightblue" d="M1185.22,-134.5C1156.65,-122.22 1103.65,-99.43 1070.46,-85.17"/>
<polygon fill="midnightblue" stroke="midnightblue" points="1071.42,-81.77 1060.85,-81.03 1068.66,-88.2 1071.42,-81.77"/>
</g>
<!-- Node16 -->
<g id="node16" class="node">
<title>Node16</title>
<g id="a_node16"><a xlink:title=" ">
<polygon fill="white" stroke="#bfbfbf" points="1110.5,-62 1110.5,-81 1209.5,-81 1209.5,-62 1110.5,-62"/>
<text text-anchor="middle" x="1160" y="-69" font-family="Helvetica,sans-Serif" font-size="10.00">g3log/loglevels.hpp</text>
</a>
</g>
</g>
<!-- Node12&#45;&gt;Node16 -->
<g id="edge18" class="edge">
<title>Node12&#45;&gt;Node16</title>
<path fill="none" stroke="midnightblue" d="M1199.48,-134.36C1192.46,-123.36 1180.18,-104.11 1171.17,-90"/>
<polygon fill="midnightblue" stroke="midnightblue" points="1173.89,-87.76 1165.56,-81.22 1167.99,-91.53 1173.89,-87.76"/>
</g>
<!-- Node17&#45;&gt;Node3 -->
<g id="edge27" class="edge">
<title>Node17&#45;&gt;Node3</title>
<path fill="none" stroke="midnightblue" d="M295.02,-128.92C305.89,-108.82 328.82,-72.52 360,-56 398.91,-35.38 702.54,-17.79 801.17,-12.57"/>
<polygon fill="midnightblue" stroke="midnightblue" points="801.57,-16.06 811.37,-12.04 801.2,-9.07 801.57,-16.06"/>
</g>
<!-- Node17&#45;&gt;Node4 -->
<g id="edge21" class="edge">
<title>Node17&#45;&gt;Node4</title>
<path fill="none" stroke="midnightblue" d="M311.4,-128.9C331.98,-116.5 361.77,-98.55 382.19,-86.25"/>
<polygon fill="midnightblue" stroke="midnightblue" points="384.08,-89.19 390.84,-81.03 380.47,-83.2 384.08,-89.19"/>
</g>
<!-- Node17&#45;&gt;Node5 -->
<g id="edge22" class="edge">
<title>Node17&#45;&gt;Node5</title>
<path fill="none" stroke="midnightblue" d="M333.12,-128.99C375.46,-115.84 438.05,-96.4 477.66,-84.1"/>
<polygon fill="midnightblue" stroke="midnightblue" points="478.94,-87.36 487.45,-81.05 476.87,-80.68 478.94,-87.36"/>
</g>
<!-- Node17&#45;&gt;Node6 -->
<g id="edge24" class="edge">
<title>Node17&#45;&gt;Node6</title>
<path fill="none" stroke="midnightblue" d="M231.31,-136.73C168.27,-128.62 71.88,-112.43 46,-87 30.8,-72.07 27.09,-46.94 26.5,-29.7"/>
<polygon fill="midnightblue" stroke="midnightblue" points="30,-29.68 26.47,-19.69 23,-29.7 30,-29.68"/>
</g>
<!-- Node18 -->
<g id="node18" class="node">
<title>Node18</title>
<g id="a_node18"><a xlink:title=" ">
<polygon fill="white" stroke="#bfbfbf" points="193.5,-62 193.5,-81 244.5,-81 244.5,-62 193.5,-62"/>
<text text-anchor="middle" x="219" y="-69" font-family="Helvetica,sans-Serif" font-size="10.00">assert.h</text>
</a>
</g>
</g>
<!-- Node17&#45;&gt;Node18 -->
<g id="edge20" class="edge">
<title>Node17&#45;&gt;Node18</title>
<path fill="none" stroke="midnightblue" d="M274.04,-128.73C262.67,-117.12 246.62,-100.72 234.78,-88.62"/>
<polygon fill="midnightblue" stroke="midnightblue" points="237.2,-86.09 227.7,-81.39 232.2,-90.99 237.2,-86.09"/>
</g>
<!-- Node19 -->
<g id="node19" class="node">
<title>Node19</title>
<g id="a_node19"><a xlink:title=" ">
<polygon fill="white" stroke="#bfbfbf" points="263,-62 263,-81 313,-81 313,-62 263,-62"/>
<text text-anchor="middle" x="288" y="-69" font-family="Helvetica,sans-Serif" font-size="10.00">iomanip</text>
</a>
</g>
</g>
<!-- Node17&#45;&gt;Node19 -->
<g id="edge23" class="edge">
<title>Node17&#45;&gt;Node19</title>
<path fill="none" stroke="midnightblue" d="M288,-128.73C288,-118 288,-103.19 288,-91.46"/>
<polygon fill="midnightblue" stroke="midnightblue" points="291.5,-91.39 288,-81.39 284.5,-91.39 291.5,-91.39"/>
</g>
<!-- Node20 -->
<g id="node20" class="node">
<title>Node20</title>
<g id="a_node20"><a xlink:title=" ">
<polygon fill="white" stroke="#bfbfbf" points="55.5,-62 55.5,-81 104.5,-81 104.5,-62 55.5,-62"/>
<text text-anchor="middle" x="80" y="-69" font-family="Helvetica,sans-Serif" font-size="10.00">random</text>
</a>
</g>
</g>
<!-- Node17&#45;&gt;Node20 -->
<g id="edge25" class="edge">
<title>Node17&#45;&gt;Node20</title>
<path fill="none" stroke="midnightblue" d="M240.33,-128.95C205.14,-118.26 156.22,-102.76 114,-87 112.35,-86.38 110.66,-85.73 108.96,-85.06"/>
<polygon fill="midnightblue" stroke="midnightblue" points="109.87,-81.65 99.29,-81.09 107.22,-88.13 109.87,-81.65"/>
</g>
<!-- Node21 -->
<g id="node21" class="node">
<title>Node21</title>
<g id="a_node21"><a xlink:title=" ">
<polygon fill="white" stroke="#bfbfbf" points="123,-62 123,-81 175,-81 175,-62 123,-62"/>
<text text-anchor="middle" x="149" y="-69" font-family="Helvetica,sans-Serif" font-size="10.00">sstream</text>
</a>
</g>
</g>
<!-- Node17&#45;&gt;Node21 -->
<g id="edge26" class="edge">
<title>Node17&#45;&gt;Node21</title>
<path fill="none" stroke="midnightblue" d="M260.21,-128.9C235.31,-116.27 199.07,-97.9 174.8,-85.59"/>
<polygon fill="midnightblue" stroke="midnightblue" points="176.33,-82.44 165.83,-81.03 173.16,-88.68 176.33,-82.44"/>
</g>
</g>
</svg>
        <g id="navigator" transform="translate(0 0)" fill="#404254">
                <rect fill="#f2f5e9" fill-opacity="0.5" stroke="#606060" stroke-width=".5" x="0" y="0" width="60" height="60"/>
                <use id="zoomplus" xlink:href="#zoomPlus" x="17" y="9" onmousedown="handleZoom(evt,'in')"/>
                <use id="zoomminus" xlink:href="#zoomMin" x="42" y="9" onmousedown="handleZoom(evt,'out')"/>
                <use id="reset" xlink:href="#resetDef" x="30" y="36" onmousedown="handleReset()"/>
                <g id="arrowUp" xlink:href="#dirArrow" transform="translate(30 24)" onmousedown="handlePan(0,-1)">
                  <use xlink:href="#rim" fill="#404040">
                        <set attributeName="fill" to="#808080" begin="arrowUp.mouseover" end="arrowUp.mouseout"/>
                  </use>
                  <path fill="none" stroke="white" stroke-width="1.5" d="M0,-3.0v7 M-2.5,-0.5L0,-3.0L2.5,-0.5"/>
                </g>
                <g id="arrowRight" xlink:href="#dirArrow" transform="rotate(90) translate(36 -43)" onmousedown="handlePan(1,0)">
                  <use xlink:href="#rim" fill="#404040">
                        <set attributeName="fill" to="#808080" begin="arrowRight.mouseover" end="arrowRight.mouseout"/>
                  </use>
                  <path fill="none" stroke="white" stroke-width="1.5" d="M0,-3.0v7 M-2.5,-0.5L0,-3.0L2.5,-0.5"/>
                </g>
                <g id="arrowDown" xlink:href="#dirArrow" transform="rotate(180) translate(-30 -48)" onmousedown="handlePan(0,1)">
                  <use xlink:href="#rim" fill="#404040">
                        <set attributeName="fill" to="#808080" begin="arrowDown.mouseover" end="arrowDown.mouseout"/>
                  </use>
                  <path fill="none" stroke="white" stroke-width="1.5" d="M0,-3.0v7 M-2.5,-0.5L0,-3.0L2.5,-0.5"/>
                </g>
                <g id="arrowLeft" xlink:href="#dirArrow" transform="rotate(270) translate(-36 17)" onmousedown="handlePan(-1,0)">
                  <use xlink:href="#rim" fill="#404040">
                        <set attributeName="fill" to="#808080" begin="arrowLeft.mouseover" end="arrowLeft.mouseout"/>
                  </use>
                  <path fill="none" stroke="white" stroke-width="1.5" d="M0,-3.0v7 M-2.5,-0.5L0,-3.0L2.5,-0.5"/>
                </g>
        </g>
        <svg viewBox="0 0 15 15" width="100%" height="30px" preserveAspectRatio="xMaxYMin meet">
         <g id="arrow_out" transform="scale(0.3 0.3)">
          <a xlink:href="eth__transaction_8cc__incl_org.svg" target="_base">
           <rect id="button" ry="5" rx="5" y="6" x="6" height="38" width="38"
                fill="#f2f5e9" fill-opacity="0.5" stroke="#606060" stroke-width="1.0"/>
           <path id="arrow"
             d="M 11.500037,31.436501 C 11.940474,20.09759 22.043105,11.32322 32.158766,21.979434 L 37.068811,17.246167 C 37.068811,17.246167 37.088388,32 37.088388,32 L 22.160133,31.978069 C 22.160133,31.978069 26.997745,27.140456 26.997745,27.140456 C 18.528582,18.264221 13.291696,25.230495 11.500037,31.436501 z"
             style="fill:#404040;"/>
          </a>
         </g>
        </svg>
</svg>
