<?xml version="1.0" encoding="UTF-8" standalone="no"?>
<!DOCTYPE svg PUBLIC "-//W3C//DTD SVG 1.1//EN"
 "http://www.w3.org/Graphics/SVG/1.1/DTD/svg11.dtd">
<!-- Generated by graphviz version 2.44.0 ()
 -->
<!-- Title: eth_transaction.cc Pages: 1 -->
<!--zoomable 296 -->
<svg id="main" version="1.1" xmlns="http://www.w3.org/2000/svg" xmlns:xlink="http://www.w3.org/1999/xlink" xml:space="preserve" onload="init(evt)">
<style type="text/css"><![CDATA[
.edge:hover path { stroke: red; }
.edge:hover polygon { stroke: red; fill: red; }
]]></style>
<script type="text/javascript"><![CDATA[
var edges = document.getElementsByTagName('g');
if (edges && edges.length) {
  for (var i=0;i<edges.length;i++) {
    if (edges[i].id.substr(0,4)=='edge') {
      edges[i].setAttribute('class','edge');
    }
  }
}
]]></script>
        <defs>
                <circle id="rim" cx="0" cy="0" r="7"/>
                <circle id="rim2" cx="0" cy="0" r="3.5"/>
                <g id="zoomPlus">
                        <use xlink:href="#rim" fill="#404040">
                                <set attributeName="fill" to="#808080" begin="zoomplus.mouseover" end="zoomplus.mouseout"/>
                        </use>
                        <path d="M-4,0h8M0,-4v8" fill="none" stroke="white" stroke-width="1.5" pointer-events="none"/>
                </g>
                <g id="zoomMin">
                        <use xlink:href="#rim" fill="#404040">
                                <set attributeName="fill" to="#808080" begin="zoomminus.mouseover" end="zoomminus.mouseout"/>
                        </use>
                        <path d="M-4,0h8" fill="none" stroke="white" stroke-width="1.5" pointer-events="none"/>
                </g>
                <g id="dirArrow">
                        <path fill="none" stroke="white" stroke-width="1.5" d="M0,-3.0v7 M-2.5,-0.5L0,-3.0L2.5,-0.5"/>
                </g>
               <g id="resetDef">
                       <use xlink:href="#rim2" fill="#404040">
                               <set attributeName="fill" to="#808080" begin="reset.mouseover" end="reset.mouseout"/>
                       </use>
               </g>
        </defs>

<script type="text/javascript">
var viewWidth = 1296;
var viewHeight = 296;
var sectionId = 'dynsection-0';
</script>
<script xlink:href="../../svgpan.js"/>
<svg id="graph" class="graph">
<g id="viewport">
<title>eth_transaction.cc</title>
<polygon fill="white" stroke="transparent" points="-4,4 -4,-292 1291.54,-292 1291.54,4 -4,4"/>
<!-- Node1 -->
<g id="node1" class="node">
<title>Node1</title>
<g id="a_node1"><a xlink:title=" ">
<polygon fill="#bfbfbf" stroke="black" points="447.9,-268.5 447.9,-287.5 543.9,-287.5 543.9,-268.5 447.9,-268.5"/>
<text text-anchor="middle" x="495.9" y="-275.5" font-family="Helvetica,sans-Serif" font-size="10.00">eth_transaction.cc</text>
</a>
</g>
</g>
<!-- Node2 -->
<g id="node2" class="node">
<title>Node2</title>
<g id="a_node2"><a xlink:href="../../d3/d9c/eth__transaction_8h.html" target="_top" xlink:title=" ">
<polygon fill="white" stroke="black" points="73.4,-201.5 73.4,-231.5 210.4,-231.5 210.4,-201.5 73.4,-201.5"/>
<text text-anchor="start" x="81.4" y="-219.5" font-family="Helvetica,sans-Serif" font-size="10.00">automaton/core/interop</text>
<text text-anchor="middle" x="141.9" y="-208.5" font-family="Helvetica,sans-Serif" font-size="10.00">/ethereum/eth_transaction.h</text>
</a>
</g>
</g>
<!-- Node1&#45;&gt;Node2 -->
<g id="edge1" class="edge">
<title>Node1&#45;&gt;Node2</title>
<path fill="none" stroke="midnightblue" d="M447.79,-268.91C389.42,-259.1 290.18,-242.42 220.61,-230.73"/>
<polygon fill="midnightblue" stroke="midnightblue" points="221.01,-227.25 210.57,-229.04 219.85,-234.15 221.01,-227.25"/>
</g>
<!-- Node4 -->
<g id="node4" class="node">
<title>Node4</title>
<g id="a_node4"><a xlink:title=" ">
<polygon fill="white" stroke="#bfbfbf" points="751.9,-0.5 751.9,-19.5 805.9,-19.5 805.9,-0.5 751.9,-0.5"/>
<text text-anchor="middle" x="778.9" y="-7.5" font-family="Helvetica,sans-Serif" font-size="10.00">iostream</text>
</a>
</g>
</g>
<!-- Node1&#45;&gt;Node4 -->
<g id="edge3" class="edge">
<title>Node1&#45;&gt;Node4</title>
<path fill="none" stroke="midnightblue" d="M544.02,-277.7C696.64,-278.82 1165.42,-273.21 1258.9,-165 1343.91,-66.6 1222.38,-88.15 1104.9,-56 980.06,-21.83 943.22,-43.33 815.9,-20 815.8,-19.98 815.7,-19.96 815.6,-19.94"/>
<polygon fill="midnightblue" stroke="midnightblue" points="816.41,-16.54 805.91,-17.95 814.99,-23.39 816.41,-16.54"/>
</g>
<!-- Node5 -->
<g id="node5" class="node">
<title>Node5</title>
<g id="a_node5"><a xlink:href="../../dc/dbc/eth__helper__functions_8h.html" target="_top" xlink:title=" ">
<polygon fill="white" stroke="black" points="572.4,-201.5 572.4,-231.5 733.4,-231.5 733.4,-201.5 572.4,-201.5"/>
<text text-anchor="start" x="580.4" y="-219.5" font-family="Helvetica,sans-Serif" font-size="10.00">automaton/core/interop</text>
<text text-anchor="middle" x="652.9" y="-208.5" font-family="Helvetica,sans-Serif" font-size="10.00">/ethereum/eth_helper_functions.h</text>
</a>
</g>
</g>
<!-- Node1&#45;&gt;Node5 -->
<g id="edge4" class="edge">
<title>Node1&#45;&gt;Node5</title>
<path fill="none" stroke="midnightblue" d="M518.4,-268.48C541.25,-259.81 577.32,-246.15 606.36,-235.14"/>
<polygon fill="midnightblue" stroke="midnightblue" points="607.79,-238.34 615.9,-231.52 605.31,-231.79 607.79,-238.34"/>
</g>
<!-- Node24 -->
<g id="node24" class="node">
<title>Node24</title>
<g id="a_node24"><a xlink:href="../../dc/dac/io_8h.html" target="_top" xlink:title=" ">
<polygon fill="white" stroke="black" points="49.4,-134.5 49.4,-153.5 162.4,-153.5 162.4,-134.5 49.4,-134.5"/>
<text text-anchor="middle" x="105.9" y="-141.5" font-family="Helvetica,sans-Serif" font-size="10.00">automaton/core/io/io.h</text>
</a>
</g>
</g>
<!-- Node1&#45;&gt;Node24 -->
<g id="edge34" class="edge">
<title>Node1&#45;&gt;Node24</title>
<path fill="none" stroke="midnightblue" d="M470.62,-268.44C403.09,-245.59 218.44,-183.09 140.91,-156.85"/>
<polygon fill="midnightblue" stroke="midnightblue" points="141.73,-153.43 131.14,-153.54 139.49,-160.06 141.73,-153.43"/>
</g>
<!-- Node3 -->
<g id="node3" class="node">
<title>Node3</title>
<g id="a_node3"><a xlink:title=" ">
<polygon fill="white" stroke="#bfbfbf" points="560.4,-0.5 560.4,-19.5 601.4,-19.5 601.4,-0.5 560.4,-0.5"/>
<text text-anchor="middle" x="580.9" y="-7.5" font-family="Helvetica,sans-Serif" font-size="10.00">string</text>
</a>
</g>
</g>
<!-- Node2&#45;&gt;Node3 -->
<g id="edge2" class="edge">
<title>Node2&#45;&gt;Node3</title>
<path fill="none" stroke="midnightblue" d="M95.81,-201.47C76.5,-193.53 55.26,-181.74 40.9,-165 8.56,-127.26 -17.82,-92.51 15.9,-56 52.33,-16.56 437.24,-11.66 550.02,-11.07"/>
<polygon fill="midnightblue" stroke="midnightblue" points="550.37,-14.57 560.36,-11.03 550.34,-7.57 550.37,-14.57"/>
</g>
<!-- Node5&#45;&gt;Node3 -->
<g id="edge10" class="edge">
<title>Node5&#45;&gt;Node3</title>
<path fill="none" stroke="midnightblue" d="M647.07,-201.38C634.3,-170.43 604.7,-98.42 600.9,-87 594.46,-67.62 588.72,-44.92 585.06,-29.41"/>
<polygon fill="midnightblue" stroke="midnightblue" points="588.44,-28.5 582.78,-19.54 581.62,-30.07 588.44,-28.5"/>
</g>
<!-- Node6 -->
<g id="node6" class="node">
<title>Node6</title>
<g id="a_node6"><a xlink:title=" ">
<polygon fill="white" stroke="#bfbfbf" points="831.4,-134.5 831.4,-153.5 924.4,-153.5 924.4,-134.5 831.4,-134.5"/>
<text text-anchor="middle" x="877.9" y="-141.5" font-family="Helvetica,sans-Serif" font-size="10.00">cryptopp/integer.h</text>
</a>
</g>
</g>
<!-- Node5&#45;&gt;Node6 -->
<g id="edge5" class="edge">
<title>Node5&#45;&gt;Node6</title>
<path fill="none" stroke="midnightblue" d="M702.99,-201.48C736.98,-191.75 782.85,-178.22 822.9,-165 830.35,-162.54 838.31,-159.75 845.79,-157.05"/>
<polygon fill="midnightblue" stroke="midnightblue" points="847.08,-160.3 855.27,-153.58 844.67,-153.73 847.08,-160.3"/>
</g>
<!-- Node7 -->
<g id="node7" class="node">
<title>Node7</title>
<g id="a_node7"><a xlink:title=" ">
<polygon fill="white" stroke="#bfbfbf" points="942.4,-134.5 942.4,-153.5 1001.4,-153.5 1001.4,-134.5 942.4,-134.5"/>
<text text-anchor="middle" x="971.9" y="-141.5" font-family="Helvetica,sans-Serif" font-size="10.00">curl/curl.h</text>
</a>
</g>
</g>
<!-- Node5&#45;&gt;Node7 -->
<g id="edge6" class="edge">
<title>Node5&#45;&gt;Node7</title>
<path fill="none" stroke="midnightblue" d="M733.59,-207.65C790.67,-200.5 868.4,-187.52 933.9,-165 938.97,-163.26 944.19,-160.92 949.08,-158.45"/>
<polygon fill="midnightblue" stroke="midnightblue" points="950.79,-161.5 957.94,-153.68 947.47,-155.34 950.79,-161.5"/>
</g>
<!-- Node8 -->
<g id="node8" class="node">
<title>Node8</title>
<g id="a_node8"><a xlink:title=" ">
<polygon fill="white" stroke="#bfbfbf" points="1019.9,-134.5 1019.9,-153.5 1063.9,-153.5 1063.9,-134.5 1019.9,-134.5"/>
<text text-anchor="middle" x="1041.9" y="-141.5" font-family="Helvetica,sans-Serif" font-size="10.00">cmath</text>
</a>
</g>
</g>
<!-- Node5&#45;&gt;Node8 -->
<g id="edge7" class="edge">
<title>Node5&#45;&gt;Node8</title>
<path fill="none" stroke="midnightblue" d="M733.53,-213.98C807.72,-210.31 919.73,-198.96 1010.9,-165 1014.84,-163.53 1018.8,-161.5 1022.51,-159.3"/>
<polygon fill="midnightblue" stroke="midnightblue" points="1024.63,-162.09 1031.05,-153.66 1020.78,-156.25 1024.63,-162.09"/>
</g>
<!-- Node9 -->
<g id="node9" class="node">
<title>Node9</title>
<g id="a_node9"><a xlink:title=" ">
<polygon fill="white" stroke="#bfbfbf" points="1081.9,-134.5 1081.9,-153.5 1121.9,-153.5 1121.9,-134.5 1081.9,-134.5"/>
<text text-anchor="middle" x="1101.9" y="-141.5" font-family="Helvetica,sans-Serif" font-size="10.00">regex</text>
</a>
</g>
</g>
<!-- Node5&#45;&gt;Node9 -->
<g id="edge8" class="edge">
<title>Node5&#45;&gt;Node9</title>
<path fill="none" stroke="midnightblue" d="M733.5,-210.43C837.61,-203.08 1012.63,-187.81 1072.9,-165 1076.61,-163.6 1080.3,-161.62 1083.74,-159.46"/>
<polygon fill="midnightblue" stroke="midnightblue" points="1085.98,-162.16 1092.12,-153.53 1081.94,-156.45 1085.98,-162.16"/>
</g>
<!-- Node10 -->
<g id="node10" class="node">
<title>Node10</title>
<g id="a_node10"><a xlink:title=" ">
<polygon fill="white" stroke="#bfbfbf" points="1139.9,-134.5 1139.9,-153.5 1191.9,-153.5 1191.9,-134.5 1139.9,-134.5"/>
<text text-anchor="middle" x="1165.9" y="-141.5" font-family="Helvetica,sans-Serif" font-size="10.00">sstream</text>
</a>
</g>
</g>
<!-- Node5&#45;&gt;Node10 -->
<g id="edge9" class="edge">
<title>Node5&#45;&gt;Node10</title>
<path fill="none" stroke="midnightblue" d="M733.44,-211.01C849.84,-203.84 1059.04,-188.2 1130.9,-165 1135.73,-163.44 1140.63,-161.17 1145.17,-158.7"/>
<polygon fill="midnightblue" stroke="midnightblue" points="1147.04,-161.66 1153.85,-153.55 1143.47,-155.64 1147.04,-161.66"/>
</g>
<!-- Node11 -->
<g id="node11" class="node">
<title>Node11</title>
<g id="a_node11"><a xlink:title=" ">
<polygon fill="white" stroke="#bfbfbf" points="1210.4,-134.5 1210.4,-153.5 1249.4,-153.5 1249.4,-134.5 1210.4,-134.5"/>
<text text-anchor="middle" x="1229.9" y="-141.5" font-family="Helvetica,sans-Serif" font-size="10.00">utility</text>
</a>
</g>
</g>
<!-- Node5&#45;&gt;Node11 -->
<g id="edge11" class="edge">
<title>Node5&#45;&gt;Node11</title>
<path fill="none" stroke="midnightblue" d="M733.62,-213.07C864.58,-208.29 1117.15,-195.37 1200.9,-165 1204.63,-163.65 1208.33,-161.7 1211.78,-159.54"/>
<polygon fill="midnightblue" stroke="midnightblue" points="1214.01,-162.25 1220.15,-153.61 1209.97,-156.53 1214.01,-162.25"/>
</g>
<!-- Node12 -->
<g id="node12" class="node">
<title>Node12</title>
<g id="a_node12"><a xlink:title=" ">
<polygon fill="white" stroke="#bfbfbf" points="180.9,-134.5 180.9,-153.5 224.9,-153.5 224.9,-134.5 180.9,-134.5"/>
<text text-anchor="middle" x="202.9" y="-141.5" font-family="Helvetica,sans-Serif" font-size="10.00">vector</text>
</a>
</g>
</g>
<!-- Node5&#45;&gt;Node12 -->
<g id="edge12" class="edge">
<title>Node5&#45;&gt;Node12</title>
<path fill="none" stroke="midnightblue" d="M572.4,-209.96C468.9,-202.12 295.3,-186.32 234.9,-165 230.67,-163.5 226.4,-161.37 222.43,-159.05"/>
<polygon fill="midnightblue" stroke="midnightblue" points="224.14,-155.99 213.83,-153.52 220.34,-161.88 224.14,-155.99"/>
</g>
<!-- Node13 -->
<g id="node13" class="node">
<title>Node13</title>
<g id="a_node13"><a xlink:title=" ">
<polygon fill="white" stroke="#bfbfbf" points="243.4,-134.5 243.4,-153.5 296.4,-153.5 296.4,-134.5 243.4,-134.5"/>
<text text-anchor="middle" x="269.9" y="-141.5" font-family="Helvetica,sans-Serif" font-size="10.00">json.hpp</text>
</a>
</g>
</g>
<!-- Node5&#45;&gt;Node13 -->
<g id="edge13" class="edge">
<title>Node5&#45;&gt;Node13</title>
<path fill="none" stroke="midnightblue" d="M572.09,-212.01C500.51,-206.99 394,-194.76 305.9,-165 301.08,-163.37 296.15,-161.1 291.55,-158.67"/>
<polygon fill="midnightblue" stroke="midnightblue" points="293.13,-155.54 282.71,-153.61 289.65,-161.61 293.13,-155.54"/>
</g>
<!-- Node14 -->
<g id="node14" class="node">
<title>Node14</title>
<g id="a_node14"><a xlink:title=" ">
<polygon fill="white" stroke="#bfbfbf" points="314.4,-134.5 314.4,-153.5 385.4,-153.5 385.4,-134.5 314.4,-134.5"/>
<text text-anchor="middle" x="349.9" y="-141.5" font-family="Helvetica,sans-Serif" font-size="10.00">secp256k1.h</text>
</a>
</g>
</g>
<!-- Node5&#45;&gt;Node14 -->
<g id="edge14" class="edge">
<title>Node5&#45;&gt;Node14</title>
<path fill="none" stroke="midnightblue" d="M572.13,-204.48C520.68,-196.29 453.01,-183.34 394.9,-165 388.59,-163.01 381.98,-160.39 375.83,-157.71"/>
<polygon fill="midnightblue" stroke="midnightblue" points="377.2,-154.49 366.65,-153.52 374.3,-160.86 377.2,-154.49"/>
</g>
<!-- Node15 -->
<g id="node15" class="node">
<title>Node15</title>
<g id="a_node15"><a xlink:title=" ">
<polygon fill="white" stroke="#bfbfbf" points="403.4,-134.5 403.4,-153.5 516.4,-153.5 516.4,-134.5 403.4,-134.5"/>
<text text-anchor="middle" x="459.9" y="-141.5" font-family="Helvetica,sans-Serif" font-size="10.00">secp256k1_recovery.h</text>
</a>
</g>
</g>
<!-- Node5&#45;&gt;Node15 -->
<g id="edge15" class="edge">
<title>Node5&#45;&gt;Node15</title>
<path fill="none" stroke="midnightblue" d="M614.31,-201.4C578.82,-188.44 526.75,-169.42 493.08,-157.12"/>
<polygon fill="midnightblue" stroke="midnightblue" points="493.86,-153.68 483.27,-153.53 491.46,-160.25 493.86,-153.68"/>
</g>
<!-- Node16 -->
<g id="node16" class="node">
<title>Node16</title>
<g id="a_node16"><a xlink:title=" ">
<polygon fill="white" stroke="#bfbfbf" points="534.4,-134.5 534.4,-153.5 605.4,-153.5 605.4,-134.5 534.4,-134.5"/>
<text text-anchor="middle" x="569.9" y="-141.5" font-family="Helvetica,sans-Serif" font-size="10.00">gtest/gtest.h</text>
</a>
</g>
</g>
<!-- Node5&#45;&gt;Node16 -->
<g id="edge16" class="edge">
<title>Node5&#45;&gt;Node16</title>
<path fill="none" stroke="midnightblue" d="M636.11,-201.23C622.17,-189.39 602.39,-172.59 588.08,-160.44"/>
<polygon fill="midnightblue" stroke="midnightblue" points="590.26,-157.7 580.37,-153.89 585.73,-163.03 590.26,-157.7"/>
</g>
<!-- Node17 -->
<g id="node17" class="node">
<title>Node17</title>
<g id="a_node17"><a xlink:href="../../d1/d13/status_8h.html" target="_top" xlink:title=" ">
<polygon fill="white" stroke="black" points="609.4,-56.5 609.4,-86.5 734.4,-86.5 734.4,-56.5 609.4,-56.5"/>
<text text-anchor="start" x="617.4" y="-74.5" font-family="Helvetica,sans-Serif" font-size="10.00">automaton/core/common</text>
<text text-anchor="middle" x="671.9" y="-63.5" font-family="Helvetica,sans-Serif" font-size="10.00">/status.h</text>
</a>
</g>
</g>
<!-- Node5&#45;&gt;Node17 -->
<g id="edge17" class="edge">
<title>Node5&#45;&gt;Node17</title>
<path fill="none" stroke="midnightblue" d="M654.8,-201.27C658.04,-176.85 664.7,-126.74 668.68,-96.74"/>
<polygon fill="midnightblue" stroke="midnightblue" points="672.17,-97.05 670.02,-86.68 665.23,-96.13 672.17,-97.05"/>
</g>
<!-- Node19 -->
<g id="node19" class="node">
<title>Node19</title>
<g id="a_node19"><a xlink:href="../../da/d44/_keccak__256__cryptopp_8h.html" target="_top" xlink:title=" ">
<polygon fill="white" stroke="black" points="700.4,-123.5 700.4,-164.5 813.4,-164.5 813.4,-123.5 700.4,-123.5"/>
<text text-anchor="start" x="708.4" y="-152.5" font-family="Helvetica,sans-Serif" font-size="10.00">automaton/core/crypto</text>
<text text-anchor="start" x="708.4" y="-141.5" font-family="Helvetica,sans-Serif" font-size="10.00">/cryptopp/Keccak_256</text>
<text text-anchor="middle" x="756.9" y="-130.5" font-family="Helvetica,sans-Serif" font-size="10.00">_cryptopp.h</text>
</a>
</g>
</g>
<!-- Node5&#45;&gt;Node19 -->
<g id="edge21" class="edge">
<title>Node5&#45;&gt;Node19</title>
<path fill="none" stroke="midnightblue" d="M673.95,-201.23C687.07,-192.34 704.33,-180.64 719.7,-170.22"/>
<polygon fill="midnightblue" stroke="midnightblue" points="721.7,-173.1 728.01,-164.59 717.77,-167.3 721.7,-173.1"/>
</g>
<!-- Node5&#45;&gt;Node24 -->
<g id="edge28" class="edge">
<title>Node5&#45;&gt;Node24</title>
<path fill="none" stroke="midnightblue" d="M571.94,-208.87C455.42,-199.01 246.29,-180.03 171.9,-165 161.34,-162.87 150.05,-159.76 139.85,-156.63"/>
<polygon fill="midnightblue" stroke="midnightblue" points="140.66,-153.22 130.07,-153.53 138.54,-159.89 140.66,-153.22"/>
</g>
<!-- Node17&#45;&gt;Node3 -->
<g id="edge19" class="edge">
<title>Node17&#45;&gt;Node3</title>
<path fill="none" stroke="midnightblue" d="M650.34,-56.4C636.03,-47.04 617.29,-34.79 602.89,-25.38"/>
<polygon fill="midnightblue" stroke="midnightblue" points="604.43,-22.2 594.15,-19.66 600.6,-28.06 604.43,-22.2"/>
</g>
<!-- Node17&#45;&gt;Node4 -->
<g id="edge20" class="edge">
<title>Node17&#45;&gt;Node4</title>
<path fill="none" stroke="midnightblue" d="M697.26,-56.4C714.57,-46.77 737.38,-34.09 754.49,-24.58"/>
<polygon fill="midnightblue" stroke="midnightblue" points="756.3,-27.58 763.34,-19.66 752.89,-21.46 756.3,-27.58"/>
</g>
<!-- Node18 -->
<g id="node18" class="node">
<title>Node18</title>
<g id="a_node18"><a xlink:title=" ">
<polygon fill="white" stroke="#bfbfbf" points="645.9,-0.5 645.9,-19.5 697.9,-19.5 697.9,-0.5 645.9,-0.5"/>
<text text-anchor="middle" x="671.9" y="-7.5" font-family="Helvetica,sans-Serif" font-size="10.00">ostream</text>
</a>
</g>
</g>
<!-- Node17&#45;&gt;Node18 -->
<g id="edge18" class="edge">
<title>Node17&#45;&gt;Node18</title>
<path fill="none" stroke="midnightblue" d="M671.9,-56.4C671.9,-48.47 671.9,-38.46 671.9,-29.86"/>
<polygon fill="midnightblue" stroke="midnightblue" points="675.41,-29.66 671.9,-19.66 668.41,-29.66 675.41,-29.66"/>
</g>
<!-- Node20 -->
<g id="node20" class="node">
<title>Node20</title>
<g id="a_node20"><a xlink:title=" ">
<polygon fill="white" stroke="#bfbfbf" points="887.4,-62 887.4,-81 982.4,-81 982.4,-62 887.4,-62"/>
<text text-anchor="middle" x="934.9" y="-69" font-family="Helvetica,sans-Serif" font-size="10.00">cryptopp/cryptlib.h</text>
</a>
</g>
</g>
<!-- Node19&#45;&gt;Node20 -->
<g id="edge22" class="edge">
<title>Node19&#45;&gt;Node20</title>
<path fill="none" stroke="midnightblue" d="M806.49,-123.36C837.5,-111.08 876.52,-95.63 903.36,-84.99"/>
<polygon fill="midnightblue" stroke="midnightblue" points="905,-88.11 913.01,-81.17 902.42,-81.6 905,-88.11"/>
</g>
<!-- Node21 -->
<g id="node21" class="node">
<title>Node21</title>
<g id="a_node21"><a xlink:title=" ">
<polygon fill="white" stroke="#bfbfbf" points="1000.4,-62 1000.4,-81 1095.4,-81 1095.4,-62 1000.4,-62"/>
<text text-anchor="middle" x="1047.9" y="-69" font-family="Helvetica,sans-Serif" font-size="10.00">cryptopp/keccak.h</text>
</a>
</g>
</g>
<!-- Node19&#45;&gt;Node21 -->
<g id="edge23" class="edge">
<title>Node19&#45;&gt;Node21</title>
<path fill="none" stroke="midnightblue" d="M813.7,-125.46C816.81,-124.6 819.89,-123.78 822.9,-123 897.27,-103.85 917.16,-104.63 991.9,-87 996.55,-85.9 1001.4,-84.72 1006.21,-83.51"/>
<polygon fill="midnightblue" stroke="midnightblue" points="1007.15,-86.88 1015.98,-81.02 1005.43,-80.1 1007.15,-86.88"/>
</g>
<!-- Node22 -->
<g id="node22" class="node">
<title>Node22</title>
<g id="a_node22"><a xlink:href="../../d2/dab/hash__transformation_8h.html" target="_top" xlink:title=" ">
<polygon fill="white" stroke="black" points="752.9,-56.5 752.9,-86.5 868.9,-86.5 868.9,-56.5 752.9,-56.5"/>
<text text-anchor="start" x="760.9" y="-74.5" font-family="Helvetica,sans-Serif" font-size="10.00">automaton/core/crypto</text>
<text text-anchor="middle" x="810.9" y="-63.5" font-family="Helvetica,sans-Serif" font-size="10.00">/hash_transformation.h</text>
</a>
</g>
</g>
<!-- Node19&#45;&gt;Node22 -->
<g id="edge24" class="edge">
<title>Node19&#45;&gt;Node22</title>
<path fill="none" stroke="midnightblue" d="M771.95,-123.36C778.73,-114.5 786.78,-104 793.8,-94.84"/>
<polygon fill="midnightblue" stroke="midnightblue" points="796.58,-96.96 799.88,-86.89 791.02,-92.7 796.58,-96.96"/>
</g>
<!-- Node22&#45;&gt;Node3 -->
<g id="edge27" class="edge">
<title>Node22&#45;&gt;Node3</title>
<path fill="none" stroke="midnightblue" d="M756.69,-56.47C711.29,-44.73 648.15,-28.4 611.2,-18.84"/>
<polygon fill="midnightblue" stroke="midnightblue" points="612.06,-15.45 601.51,-16.33 610.31,-22.22 612.06,-15.45"/>
</g>
<!-- Node22&#45;&gt;Node4 -->
<g id="edge25" class="edge">
<title>Node22&#45;&gt;Node4</title>
<path fill="none" stroke="midnightblue" d="M803.32,-56.4C798.86,-48.11 793.19,-37.55 788.43,-28.71"/>
<polygon fill="midnightblue" stroke="midnightblue" points="791.38,-26.81 783.56,-19.66 785.22,-30.12 791.38,-26.81"/>
</g>
<!-- Node23 -->
<g id="node23" class="node">
<title>Node23</title>
<g id="a_node23"><a xlink:title=" ">
<polygon fill="white" stroke="#bfbfbf" points="824.4,-0.5 824.4,-19.5 859.4,-19.5 859.4,-0.5 824.4,-0.5"/>
<text text-anchor="middle" x="841.9" y="-7.5" font-family="Helvetica,sans-Serif" font-size="10.00">map</text>
</a>
</g>
</g>
<!-- Node22&#45;&gt;Node23 -->
<g id="edge26" class="edge">
<title>Node22&#45;&gt;Node23</title>
<path fill="none" stroke="midnightblue" d="M818.25,-56.4C822.57,-48.11 828.07,-37.55 832.68,-28.71"/>
<polygon fill="midnightblue" stroke="midnightblue" points="835.88,-30.14 837.39,-19.66 829.67,-26.91 835.88,-30.14"/>
</g>
<!-- Node24&#45;&gt;Node3 -->
<g id="edge30" class="edge">
<title>Node24&#45;&gt;Node3</title>
<path fill="none" stroke="midnightblue" d="M131.05,-134.4C143.27,-130.48 158.23,-126.04 171.9,-123 281.05,-98.72 313.87,-119.35 420.9,-87 471.9,-71.59 527.16,-42.23 557.55,-24.86"/>
<polygon fill="midnightblue" stroke="midnightblue" points="559.6,-27.71 566.5,-19.67 556.09,-21.65 559.6,-27.71"/>
</g>
<!-- Node25 -->
<g id="node25" class="node">
<title>Node25</title>
<g id="a_node25"><a xlink:title=" ">
<polygon fill="white" stroke="#bfbfbf" points="24.9,-62 24.9,-81 70.9,-81 70.9,-62 24.9,-62"/>
<text text-anchor="middle" x="47.9" y="-69" font-family="Helvetica,sans-Serif" font-size="10.00">chrono</text>
</a>
</g>
</g>
<!-- Node24&#45;&gt;Node25 -->
<g id="edge29" class="edge">
<title>Node24&#45;&gt;Node25</title>
<path fill="none" stroke="midnightblue" d="M98.79,-134.36C89.57,-123.15 73.3,-103.37 61.64,-89.19"/>
<polygon fill="midnightblue" stroke="midnightblue" points="64.13,-86.71 55.08,-81.22 58.73,-91.16 64.13,-86.71"/>
</g>
<!-- Node26 -->
<g id="node26" class="node">
<title>Node26</title>
<g id="a_node26"><a xlink:title=" ">
<polygon fill="white" stroke="#bfbfbf" points="88.9,-62 88.9,-81 172.9,-81 172.9,-62 88.9,-62"/>
<text text-anchor="middle" x="130.9" y="-69" font-family="Helvetica,sans-Serif" font-size="10.00">g3log/g3log.hpp</text>
</a>
</g>
</g>
<!-- Node24&#45;&gt;Node26 -->
<g id="edge31" class="edge">
<title>Node24&#45;&gt;Node26</title>
<path fill="none" stroke="midnightblue" d="M108.97,-134.36C112.79,-123.57 119.43,-104.85 124.41,-90.82"/>
<polygon fill="midnightblue" stroke="midnightblue" points="127.77,-91.81 127.81,-81.22 121.17,-89.47 127.77,-91.81"/>
</g>
<!-- Node27 -->
<g id="node27" class="node">
<title>Node27</title>
<g id="a_node27"><a xlink:title=" ">
<polygon fill="white" stroke="#bfbfbf" points="191.4,-62 191.4,-81 294.4,-81 294.4,-62 191.4,-62"/>
<text text-anchor="middle" x="242.9" y="-69" font-family="Helvetica,sans-Serif" font-size="10.00">g3log/logworker.hpp</text>
</a>
</g>
</g>
<!-- Node24&#45;&gt;Node27 -->
<g id="edge32" class="edge">
<title>Node24&#45;&gt;Node27</title>
<path fill="none" stroke="midnightblue" d="M122.43,-134.5C145.99,-122.37 189.43,-100.02 217.21,-85.72"/>
<polygon fill="midnightblue" stroke="midnightblue" points="219.03,-88.72 226.32,-81.03 215.83,-82.5 219.03,-88.72"/>
</g>
<!-- Node28 -->
<g id="node28" class="node">
<title>Node28</title>
<g id="a_node28"><a xlink:title=" ">
<polygon fill="white" stroke="#bfbfbf" points="312.4,-62 312.4,-81 411.4,-81 411.4,-62 312.4,-62"/>
<text text-anchor="middle" x="361.9" y="-69" font-family="Helvetica,sans-Serif" font-size="10.00">g3log/loglevels.hpp</text>
</a>
</g>
</g>
<!-- Node24&#45;&gt;Node28 -->
<g id="edge33" class="edge">
<title>Node24&#45;&gt;Node28</title>
<path fill="none" stroke="midnightblue" d="M133.46,-134.42C145.27,-130.8 159.24,-126.6 171.9,-123 222.08,-108.73 280.07,-93.5 318.66,-83.54"/>
<polygon fill="midnightblue" stroke="midnightblue" points="319.71,-86.89 328.52,-81 317.96,-80.11 319.71,-86.89"/>
</g>
</g>
</svg>
        <g id="navigator" transform="translate(0 0)" fill="#404254">
                <rect fill="#f2f5e9" fill-opacity="0.5" stroke="#606060" stroke-width=".5" x="0" y="0" width="60" height="60"/>
                <use id="zoomplus" xlink:href="#zoomPlus" x="17" y="9" onmousedown="handleZoom(evt,'in')"/>
                <use id="zoomminus" xlink:href="#zoomMin" x="42" y="9" onmousedown="handleZoom(evt,'out')"/>
                <use id="reset" xlink:href="#resetDef" x="30" y="36" onmousedown="handleReset()"/>
                <g id="arrowUp" xlink:href="#dirArrow" transform="translate(30 24)" onmousedown="handlePan(0,-1)">
                  <use xlink:href="#rim" fill="#404040">
                        <set attributeName="fill" to="#808080" begin="arrowUp.mouseover" end="arrowUp.mouseout"/>
                  </use>
                  <path fill="none" stroke="white" stroke-width="1.5" d="M0,-3.0v7 M-2.5,-0.5L0,-3.0L2.5,-0.5"/>
                </g>
                <g id="arrowRight" xlink:href="#dirArrow" transform="rotate(90) translate(36 -43)" onmousedown="handlePan(1,0)">
                  <use xlink:href="#rim" fill="#404040">
                        <set attributeName="fill" to="#808080" begin="arrowRight.mouseover" end="arrowRight.mouseout"/>
                  </use>
                  <path fill="none" stroke="white" stroke-width="1.5" d="M0,-3.0v7 M-2.5,-0.5L0,-3.0L2.5,-0.5"/>
                </g>
                <g id="arrowDown" xlink:href="#dirArrow" transform="rotate(180) translate(-30 -48)" onmousedown="handlePan(0,1)">
                  <use xlink:href="#rim" fill="#404040">
                        <set attributeName="fill" to="#808080" begin="arrowDown.mouseover" end="arrowDown.mouseout"/>
                  </use>
                  <path fill="none" stroke="white" stroke-width="1.5" d="M0,-3.0v7 M-2.5,-0.5L0,-3.0L2.5,-0.5"/>
                </g>
                <g id="arrowLeft" xlink:href="#dirArrow" transform="rotate(270) translate(-36 17)" onmousedown="handlePan(-1,0)">
                  <use xlink:href="#rim" fill="#404040">
                        <set attributeName="fill" to="#808080" begin="arrowLeft.mouseover" end="arrowLeft.mouseout"/>
                  </use>
                  <path fill="none" stroke="white" stroke-width="1.5" d="M0,-3.0v7 M-2.5,-0.5L0,-3.0L2.5,-0.5"/>
                </g>
        </g>
        <svg viewBox="0 0 15 15" width="100%" height="30px" preserveAspectRatio="xMaxYMin meet">
         <g id="arrow_out" transform="scale(0.3 0.3)">
          <a xlink:href="eth__transaction_8cc__incl_org.svg" target="_base">
           <rect id="button" ry="5" rx="5" y="6" x="6" height="38" width="38"
                fill="#f2f5e9" fill-opacity="0.5" stroke="#606060" stroke-width="1.0"/>
           <path id="arrow"
             d="M 11.500037,31.436501 C 11.940474,20.09759 22.043105,11.32322 32.158766,21.979434 L 37.068811,17.246167 C 37.068811,17.246167 37.088388,32 37.088388,32 L 22.160133,31.978069 C 22.160133,31.978069 26.997745,27.140456 26.997745,27.140456 C 18.528582,18.264221 13.291696,25.230495 11.500037,31.436501 z"
             style="fill:#404040;"/>
          </a>
         </g>
        </svg>
</svg>
