<?xml version="1.0" encoding="UTF-8" standalone="no"?>
<!DOCTYPE svg PUBLIC "-//W3C//DTD SVG 1.1//EN"
 "http://www.w3.org/Graphics/SVG/1.1/DTD/svg11.dtd">
<!-- Generated by graphviz version 2.44.0 ()
 -->
<!-- Title: automaton::core::network::http_server Pages: 1 -->
<svg width="258pt" height="252pt"
 viewBox="0.00 0.00 258.00 252.00" xmlns="http://www.w3.org/2000/svg" xmlns:xlink="http://www.w3.org/1999/xlink">
<g id="graph0" class="graph" transform="scale(1 1) rotate(0) translate(4 248)">
<title>automaton::core::network::http_server</title>
<polygon fill="white" stroke="transparent" points="-4,4 -4,-248 254,-248 254,4 -4,4"/>
<!-- Node1 -->
<g id="node1" class="node">
<title>Node1</title>
<g id="a_node1"><a xlink:title=" ">
<polygon fill="#bfbfbf" stroke="black" points="0,-0.5 0,-30.5 125,-30.5 125,-0.5 0,-0.5"/>
<text text-anchor="start" x="8" y="-18.5" font-family="Helvetica,sans-Serif" font-size="10.00">automaton::core::network</text>
<text text-anchor="middle" x="62.5" y="-7.5" font-family="Helvetica,sans-Serif" font-size="10.00">::http_server</text>
</a>
</g>
</g>
<!-- Node2 -->
<g id="node2" class="node">
<title>Node2</title>
<g id="a_node2"><a xlink:title=" ">
<polygon fill="white" stroke="#bfbfbf" points="51,-224.5 51,-243.5 86,-243.5 86,-224.5 51,-224.5"/>
<text text-anchor="middle" x="68.5" y="-231.5" font-family="Helvetica,sans-Serif" font-size="10.00">char</text>
</a>
</g>
</g>
<!-- Node2&#45;&gt;Node1 -->
<g id="edge1" class="edge">
<title>Node2&#45;&gt;Node1</title>
<path fill="none" stroke="#9a32cd" stroke-dasharray="5,2" d="M63.07,-214.43C60.19,-203.62 56.95,-189.66 55.5,-177 49.34,-123.24 56.54,-58.79 60.38,-30.72"/>
<polygon fill="#9a32cd" stroke="#9a32cd" points="59.78,-215.69 65.85,-224.38 66.53,-213.8 59.78,-215.69"/>
<text text-anchor="middle" x="98.5" y="-169" font-family="Helvetica,sans-Serif" font-size="10.00"> bad_request</text>
<text text-anchor="middle" x="98.5" y="-158" font-family="Helvetica,sans-Serif" font-size="10.00">forbidden</text>
<text text-anchor="start" x="55.5" y="-147" font-family="Helvetica,sans-Serif" font-size="10.00">internal_server</text>
<text text-anchor="middle" x="98.5" y="-136" font-family="Helvetica,sans-Serif" font-size="10.00">_error</text>
<text text-anchor="middle" x="98.5" y="-125" font-family="Helvetica,sans-Serif" font-size="10.00">no_content</text>
<text text-anchor="middle" x="98.5" y="-114" font-family="Helvetica,sans-Serif" font-size="10.00">not_implemented</text>
<text text-anchor="middle" x="98.5" y="-103" font-family="Helvetica,sans-Serif" font-size="10.00">ok</text>
<text text-anchor="middle" x="98.5" y="-92" font-family="Helvetica,sans-Serif" font-size="10.00">service_unavailable</text>
<text text-anchor="middle" x="98.5" y="-81" font-family="Helvetica,sans-Serif" font-size="10.00">unauthorized</text>
</g>
<!-- Node3 -->
<g id="node3" class="node">
<title>Node3</title>
<g id="a_node3"><a xlink:title=" ">
<polygon fill="white" stroke="#bfbfbf" points="151,-112.5 151,-142.5 250,-142.5 250,-112.5 151,-112.5"/>
<text text-anchor="start" x="159" y="-130.5" font-family="Helvetica,sans-Serif" font-size="10.00">std::map&lt; uint32_t,</text>
<text text-anchor="middle" x="200.5" y="-119.5" font-family="Helvetica,sans-Serif" font-size="10.00"> const char * &gt;</text>
</a>
</g>
</g>
<!-- Node2&#45;&gt;Node3 -->
<g id="edge3" class="edge">
<title>Node2&#45;&gt;Node3</title>
<path fill="none" stroke="#9a32cd" stroke-dasharray="5,2" d="M87.41,-218.03C112.8,-197.93 157.6,-162.47 182.51,-142.74"/>
<polygon fill="#9a32cd" stroke="#9a32cd" points="84.97,-215.5 79.3,-224.45 89.32,-220.99 84.97,-215.5"/>
<text text-anchor="middle" x="137" y="-198" font-family="Helvetica,sans-Serif" font-size="10.00"> elements</text>
</g>
<!-- Node3&#45;&gt;Node1 -->
<g id="edge2" class="edge">
<title>Node3&#45;&gt;Node1</title>
<path fill="none" stroke="#9a32cd" stroke-dasharray="5,2" d="M174.72,-105.95C147.15,-83.97 104.17,-49.71 80.19,-30.6"/>
<polygon fill="#9a32cd" stroke="#9a32cd" points="172.74,-108.85 182.74,-112.34 177.1,-103.37 172.74,-108.85"/>
<text text-anchor="middle" x="152" y="-52" font-family="Helvetica,sans-Serif" font-size="10.00"> status_to_string</text>
</g>
<!-- Node4 -->
<g id="node4" class="node">
<title>Node4</title>
<g id="a_node4"><a xlink:title=" ">
<polygon fill="white" stroke="#bfbfbf" points="175,-224.5 175,-243.5 226,-243.5 226,-224.5 175,-224.5"/>
<text text-anchor="middle" x="200.5" y="-231.5" font-family="Helvetica,sans-Serif" font-size="10.00">uint32_t</text>
</a>
</g>
</g>
<!-- Node4&#45;&gt;Node3 -->
<g id="edge4" class="edge">
<title>Node4&#45;&gt;Node3</title>
<path fill="none" stroke="#9a32cd" stroke-dasharray="5,2" d="M200.5,-214.18C200.5,-193.65 200.5,-161.26 200.5,-142.74"/>
<polygon fill="#9a32cd" stroke="#9a32cd" points="197,-214.45 200.5,-224.45 204,-214.45 197,-214.45"/>
<text text-anchor="middle" x="212" y="-198" font-family="Helvetica,sans-Serif" font-size="10.00"> keys</text>
</g>
</g>
</svg>
