<?xml version="1.0" encoding="UTF-8" standalone="no"?>
<!DOCTYPE svg PUBLIC "-//W3C//DTD SVG 1.1//EN"
 "http://www.w3.org/Graphics/SVG/1.1/DTD/svg11.dtd">
<!-- Generated by graphviz version 2.42.3 ()
 -->
<!-- Title: automaton::core::network::http_server Pages: 1 -->
<svg width="263pt" height="241pt"
 viewBox="0.00 0.00 263.00 241.00" xmlns="http://www.w3.org/2000/svg" xmlns:xlink="http://www.w3.org/1999/xlink">
<g id="graph0" class="graph" transform="scale(1 1) rotate(0) translate(4 237)">
<title>automaton::core::network::http_server</title>
<polygon fill="white" stroke="transparent" points="-4,4 -4,-237 259,-237 259,4 -4,4"/>
<!-- Node1 -->
<g id="node1" class="node">
<title>Node1</title>
<g id="a_node1"><a xlink:title=" ">
<polygon fill="#bfbfbf" stroke="black" points="0,-0.5 0,-30.5 125,-30.5 125,-0.5 0,-0.5"/>
<text text-anchor="start" x="8" y="-18.5" font-family="Helvetica,sans-Serif" font-size="10.00">automaton::core::network</text>
<text text-anchor="middle" x="62.5" y="-7.5" font-family="Helvetica,sans-Serif" font-size="10.00">::http_server</text>
</a>
</g>
</g>
<!-- Node2 -->
<g id="node2" class="node">
<title>Node2</title>
<g id="a_node2"><a xlink:title=" ">
<polygon fill="white" stroke="#bfbfbf" points="53,-213.5 53,-232.5 88,-232.5 88,-213.5 53,-213.5"/>
<text text-anchor="middle" x="70.5" y="-220.5" font-family="Helvetica,sans-Serif" font-size="10.00">char</text>
</a>
</g>
</g>
<!-- Node2&#45;&gt;Node1 -->
<g id="edge1" class="edge">
<title>Node2&#45;&gt;Node1</title>
<path fill="none" stroke="#9a32cd" stroke-dasharray="5,2" d="M64.34,-203.83C60.99,-192.99 57.19,-178.87 55.5,-166 48.99,-116.54 56.18,-57.18 60.19,-30.59"/>
<polygon fill="#9a32cd" stroke="#9a32cd" points="61.03,-204.98 67.44,-213.41 67.69,-202.82 61.03,-204.98"/>
<text text-anchor="middle" x="101" y="-158" font-family="Helvetica,sans-Serif" font-size="10.00"> internal_server_error</text>
<text text-anchor="middle" x="101" y="-147" font-family="Helvetica,sans-Serif" font-size="10.00">bad_request</text>
<text text-anchor="middle" x="101" y="-136" font-family="Helvetica,sans-Serif" font-size="10.00">unauthorized</text>
<text text-anchor="middle" x="101" y="-125" font-family="Helvetica,sans-Serif" font-size="10.00">service_unavailable</text>
<text text-anchor="middle" x="101" y="-114" font-family="Helvetica,sans-Serif" font-size="10.00">not_implemented</text>
<text text-anchor="middle" x="101" y="-103" font-family="Helvetica,sans-Serif" font-size="10.00">no_content</text>
<text text-anchor="middle" x="101" y="-92" font-family="Helvetica,sans-Serif" font-size="10.00">forbidden</text>
<text text-anchor="middle" x="101" y="-81" font-family="Helvetica,sans-Serif" font-size="10.00">ok</text>
</g>
<!-- Node3 -->
<g id="node3" class="node">
<title>Node3</title>
<g id="a_node3"><a xlink:title=" ">
<polygon fill="white" stroke="#bfbfbf" points="156,-107 156,-137 255,-137 255,-107 156,-107"/>
<text text-anchor="start" x="164" y="-125" font-family="Helvetica,sans-Serif" font-size="10.00">std::map&lt; uint32_t,</text>
<text text-anchor="middle" x="205.5" y="-114" font-family="Helvetica,sans-Serif" font-size="10.00"> const char * &gt;</text>
</a>
</g>
</g>
<!-- Node2&#45;&gt;Node3 -->
<g id="edge3" class="edge">
<title>Node2&#45;&gt;Node3</title>
<path fill="none" stroke="#9a32cd" stroke-dasharray="5,2" d="M90.76,-207.14C116.51,-188.26 160.66,-155.89 186.03,-137.28"/>
<polygon fill="#9a32cd" stroke="#9a32cd" points="88.47,-204.48 82.48,-213.21 92.61,-210.12 88.47,-204.48"/>
<text text-anchor="middle" x="144" y="-187" font-family="Helvetica,sans-Serif" font-size="10.00"> elements</text>
</g>
<!-- Node3&#45;&gt;Node1 -->
<g id="edge2" class="edge">
<title>Node3&#45;&gt;Node1</title>
<path fill="none" stroke="#9a32cd" stroke-dasharray="5,2" d="M177.99,-100.89C149.82,-80.31 106.75,-48.83 81.94,-30.7"/>
<polygon fill="#9a32cd" stroke="#9a32cd" points="176.08,-103.83 186.21,-106.91 180.21,-98.18 176.08,-103.83"/>
<text text-anchor="middle" x="158" y="-52" font-family="Helvetica,sans-Serif" font-size="10.00"> status_to_string</text>
</g>
<!-- Node4 -->
<g id="node4" class="node">
<title>Node4</title>
<g id="a_node4"><a xlink:title=" ">
<polygon fill="white" stroke="#bfbfbf" points="180,-213.5 180,-232.5 231,-232.5 231,-213.5 180,-213.5"/>
<text text-anchor="middle" x="205.5" y="-220.5" font-family="Helvetica,sans-Serif" font-size="10.00">uint32_t</text>
</a>
</g>
</g>
<!-- Node4&#45;&gt;Node3 -->
<g id="edge4" class="edge">
<title>Node4&#45;&gt;Node3</title>
<path fill="none" stroke="#9a32cd" stroke-dasharray="5,2" d="M205.5,-203C205.5,-183.8 205.5,-154.59 205.5,-137.28"/>
<polygon fill="#9a32cd" stroke="#9a32cd" points="202,-203.21 205.5,-213.21 209,-203.21 202,-203.21"/>
<text text-anchor="middle" x="217" y="-187" font-family="Helvetica,sans-Serif" font-size="10.00"> keys</text>
</g>
</g>
</svg>
