<?xml version="1.0" encoding="UTF-8" standalone="no"?>
<!DOCTYPE svg PUBLIC "-//W3C//DTD SVG 1.1//EN"
 "http://www.w3.org/Graphics/SVG/1.1/DTD/svg11.dtd">
<!-- Generated by graphviz version 2.42.3 ()
 -->
<!-- Title: status.h Pages: 1 -->
<svg width="1230pt" height="308pt"
 viewBox="0.00 0.00 1229.50 308.00" xmlns="http://www.w3.org/2000/svg" xmlns:xlink="http://www.w3.org/1999/xlink">
<g id="graph0" class="graph" transform="scale(1 1) rotate(0) translate(4 304)">
<title>status.h</title>
<polygon fill="white" stroke="transparent" points="-4,4 -4,-304 1225.5,-304 1225.5,4 -4,4"/>
<!-- Node1 -->
<g id="node1" class="node">
<title>Node1</title>
<g id="a_node1"><a xlink:title=" ">
<polygon fill="#bfbfbf" stroke="black" points="603,-280.5 603,-299.5 654,-299.5 654,-280.5 603,-280.5"/>
<text text-anchor="middle" x="628.5" y="-287.5" font-family="Helvetica,sans-Serif" font-size="10.00">status.h</text>
</a>
</g>
</g>
<!-- Node2 -->
<g id="node2" class="node">
<title>Node2</title>
<g id="a_node2"><a xlink:href="../../da/dc3/status_8cc.html" target="_top" xlink:title=" ">
<polygon fill="white" stroke="black" points="512.5,-224.5 512.5,-243.5 568.5,-243.5 568.5,-224.5 512.5,-224.5"/>
<text text-anchor="middle" x="540.5" y="-231.5" font-family="Helvetica,sans-Serif" font-size="10.00">status.cc</text>
</a>
</g>
</g>
<!-- Node1&#45;&gt;Node2 -->
<g id="edge1" class="edge">
<title>Node1&#45;&gt;Node2</title>
<path fill="none" stroke="midnightblue" d="M605.52,-274.9C589.39,-265 568.32,-252.07 554.6,-243.65"/>
<polygon fill="midnightblue" stroke="midnightblue" points="604.01,-278.08 614.36,-280.32 607.67,-272.11 604.01,-278.08"/>
</g>
<!-- Node3 -->
<g id="node3" class="node">
<title>Node3</title>
<g id="a_node3"><a xlink:href="../../d1/d31/acceptor_8h.html" target="_top" xlink:title=" ">
<polygon fill="white" stroke="black" points="455.5,-168.5 455.5,-187.5 517.5,-187.5 517.5,-168.5 455.5,-168.5"/>
<text text-anchor="middle" x="486.5" y="-175.5" font-family="Helvetica,sans-Serif" font-size="10.00">acceptor.h</text>
</a>
</g>
</g>
<!-- Node1&#45;&gt;Node3 -->
<g id="edge2" class="edge">
<title>Node1&#45;&gt;Node3</title>
<path fill="none" stroke="midnightblue" d="M618.01,-271.63C608.74,-257.42 594.14,-237.52 577.5,-224 557.39,-207.66 530.37,-195.25 511.01,-187.64"/>
<polygon fill="midnightblue" stroke="midnightblue" points="615.24,-273.81 623.53,-280.42 621.17,-270.09 615.24,-273.81"/>
</g>
<!-- Node22 -->
<g id="node22" class="node">
<title>Node22</title>
<g id="a_node22"><a xlink:href="../../d4/d67/connection_8h.html" target="_top" xlink:title=" ">
<polygon fill="white" stroke="black" points="625,-224.5 625,-243.5 696,-243.5 696,-224.5 625,-224.5"/>
<text text-anchor="middle" x="660.5" y="-231.5" font-family="Helvetica,sans-Serif" font-size="10.00">connection.h</text>
</a>
</g>
</g>
<!-- Node1&#45;&gt;Node22 -->
<g id="edge25" class="edge">
<title>Node1&#45;&gt;Node22</title>
<path fill="none" stroke="midnightblue" d="M639,-271.27C644.47,-262.05 650.92,-251.17 655.31,-243.75"/>
<polygon fill="midnightblue" stroke="midnightblue" points="635.87,-269.7 633.78,-280.08 641.89,-273.26 635.87,-269.7"/>
</g>
<!-- Node28 -->
<g id="node28" class="node">
<title>Node28</title>
<g id="a_node28"><a xlink:href="../../dc/dbc/eth__helper__functions_8h.html" target="_top" xlink:title=" ">
<polygon fill="white" stroke="black" points="977.5,-168.5 977.5,-187.5 1091.5,-187.5 1091.5,-168.5 977.5,-168.5"/>
<text text-anchor="middle" x="1034.5" y="-175.5" font-family="Helvetica,sans-Serif" font-size="10.00">eth_helper_functions.h</text>
</a>
</g>
</g>
<!-- Node1&#45;&gt;Node28 -->
<g id="edge38" class="edge">
<title>Node1&#45;&gt;Node28</title>
<path fill="none" stroke="midnightblue" d="M664.08,-279.36C742.34,-258.16 928.42,-207.74 1002.89,-187.56"/>
<polygon fill="midnightblue" stroke="midnightblue" points="662.94,-276.04 654.21,-282.04 664.77,-282.8 662.94,-276.04"/>
</g>
<!-- Node4 -->
<g id="node4" class="node">
<title>Node4</title>
<g id="a_node4"><a xlink:href="../../d3/ddf/simulated__connection_8h.html" target="_top" xlink:title=" ">
<polygon fill="white" stroke="black" points="535,-112.5 535,-131.5 654,-131.5 654,-112.5 535,-112.5"/>
<text text-anchor="middle" x="594.5" y="-119.5" font-family="Helvetica,sans-Serif" font-size="10.00">simulated_connection.h</text>
</a>
</g>
</g>
<!-- Node3&#45;&gt;Node4 -->
<g id="edge3" class="edge">
<title>Node3&#45;&gt;Node4</title>
<path fill="none" stroke="midnightblue" d="M513.05,-163.73C533.05,-153.73 559.89,-140.31 577.19,-131.65"/>
<polygon fill="midnightblue" stroke="midnightblue" points="511.23,-160.72 503.85,-168.32 514.36,-166.98 511.23,-160.72"/>
</g>
<!-- Node7 -->
<g id="node7" class="node">
<title>Node7</title>
<g id="a_node7"><a xlink:href="../../d8/d3f/tcp__implementation_8h.html" target="_top" xlink:title=" ">
<polygon fill="white" stroke="black" points="693,-112.5 693,-131.5 802,-131.5 802,-112.5 693,-112.5"/>
<text text-anchor="middle" x="747.5" y="-119.5" font-family="Helvetica,sans-Serif" font-size="10.00">tcp_implementation.h</text>
</a>
</g>
</g>
<!-- Node3&#45;&gt;Node7 -->
<g id="edge6" class="edge">
<title>Node3&#45;&gt;Node7</title>
<path fill="none" stroke="midnightblue" d="M527.81,-167.75C594.79,-153.45 661.75,-139.98 704.25,-131.53"/>
<polygon fill="midnightblue" stroke="midnightblue" points="526.98,-164.35 517.93,-169.86 528.44,-171.19 526.98,-164.35"/>
</g>
<!-- Node12 -->
<g id="node12" class="node">
<title>Node12</title>
<g id="a_node12"><a xlink:href="../../d1/d77/node_8h.html" target="_top" xlink:title=" ">
<polygon fill="white" stroke="black" points="262,-112.5 262,-131.5 307,-131.5 307,-112.5 262,-112.5"/>
<text text-anchor="middle" x="284.5" y="-119.5" font-family="Helvetica,sans-Serif" font-size="10.00">node.h</text>
</a>
</g>
</g>
<!-- Node3&#45;&gt;Node12 -->
<g id="edge12" class="edge">
<title>Node3&#45;&gt;Node12</title>
<path fill="none" stroke="midnightblue" d="M445.53,-166.05C403.82,-154.9 340.67,-138.02 307.19,-129.07"/>
<polygon fill="midnightblue" stroke="midnightblue" points="444.82,-169.48 455.38,-168.68 446.62,-162.72 444.82,-169.48"/>
</g>
<!-- Node19 -->
<g id="node19" class="node">
<title>Node19</title>
<g id="a_node19"><a xlink:href="../../d5/d4e/acceptor_8cc.html" target="_top" xlink:title=" ">
<polygon fill="white" stroke="black" points="337,-112.5 337,-131.5 404,-131.5 404,-112.5 337,-112.5"/>
<text text-anchor="middle" x="370.5" y="-119.5" font-family="Helvetica,sans-Serif" font-size="10.00">acceptor.cc</text>
</a>
</g>
</g>
<!-- Node3&#45;&gt;Node19 -->
<g id="edge22" class="edge">
<title>Node3&#45;&gt;Node19</title>
<path fill="none" stroke="midnightblue" d="M458.78,-164.1C437.11,-154.01 407.6,-140.27 388.79,-131.52"/>
<polygon fill="midnightblue" stroke="midnightblue" points="457.58,-167.4 468.12,-168.44 460.53,-161.05 457.58,-167.4"/>
</g>
<!-- Node20 -->
<g id="node20" class="node">
<title>Node20</title>
<g id="a_node20"><a xlink:href="../../d5/dcb/zmq__connection_8h.html" target="_top" xlink:title=" ">
<polygon fill="white" stroke="black" points="422,-112.5 422,-131.5 517,-131.5 517,-112.5 422,-112.5"/>
<text text-anchor="middle" x="469.5" y="-119.5" font-family="Helvetica,sans-Serif" font-size="10.00">zmq_connection.h</text>
</a>
</g>
</g>
<!-- Node3&#45;&gt;Node20 -->
<g id="edge23" class="edge">
<title>Node3&#45;&gt;Node20</title>
<path fill="none" stroke="midnightblue" d="M480.64,-158.4C477.8,-149.36 474.52,-138.94 472.25,-131.75"/>
<polygon fill="midnightblue" stroke="midnightblue" points="477.35,-159.6 483.69,-168.08 484.03,-157.49 477.35,-159.6"/>
</g>
<!-- Node5 -->
<g id="node5" class="node">
<title>Node5</title>
<g id="a_node5"><a xlink:href="../../dd/de7/core_8cc.html" target="_top" xlink:title=" ">
<polygon fill="white" stroke="black" points="313.5,-0.5 313.5,-19.5 361.5,-19.5 361.5,-0.5 313.5,-0.5"/>
<text text-anchor="middle" x="337.5" y="-7.5" font-family="Helvetica,sans-Serif" font-size="10.00">core.cc</text>
</a>
</g>
</g>
<!-- Node4&#45;&gt;Node5 -->
<g id="edge4" class="edge">
<title>Node4&#45;&gt;Node5</title>
<path fill="none" stroke="midnightblue" d="M569.87,-107.51C536.2,-89.1 479.37,-58.1 474.5,-56 436.11,-39.45 389.5,-25.35 361.74,-17.54"/>
<polygon fill="midnightblue" stroke="midnightblue" points="568.24,-110.61 578.69,-112.34 571.6,-104.47 568.24,-110.61"/>
</g>
<!-- Node6 -->
<g id="node6" class="node">
<title>Node6</title>
<g id="a_node6"><a xlink:href="../../d6/d86/simulated__connection_8cc.html" target="_top" xlink:title=" ">
<polygon fill="white" stroke="black" points="521.5,-56.5 521.5,-75.5 645.5,-75.5 645.5,-56.5 521.5,-56.5"/>
<text text-anchor="middle" x="583.5" y="-63.5" font-family="Helvetica,sans-Serif" font-size="10.00">simulated_connection.cc</text>
</a>
</g>
</g>
<!-- Node4&#45;&gt;Node6 -->
<g id="edge5" class="edge">
<title>Node4&#45;&gt;Node6</title>
<path fill="none" stroke="midnightblue" d="M590.65,-102.1C588.82,-93.14 586.73,-82.86 585.28,-75.75"/>
<polygon fill="midnightblue" stroke="midnightblue" points="587.26,-102.98 592.68,-112.08 594.12,-101.59 587.26,-102.98"/>
</g>
<!-- Node7&#45;&gt;Node5 -->
<g id="edge7" class="edge">
<title>Node7&#45;&gt;Node5</title>
<path fill="none" stroke="midnightblue" d="M730.68,-105.51C713.07,-90.26 683.95,-67.61 654.5,-56 551.07,-15.23 415.77,-10.7 361.52,-10.66"/>
<polygon fill="midnightblue" stroke="midnightblue" points="728.54,-108.3 738.34,-112.32 733.19,-103.06 728.54,-108.3"/>
</g>
<!-- Node8 -->
<g id="node8" class="node">
<title>Node8</title>
<g id="a_node8"><a xlink:href="../../d2/d4b/eth__contract__raw_8cc.html" target="_top" xlink:title=" ">
<polygon fill="white" stroke="black" points="973.5,-56.5 973.5,-75.5 1077.5,-75.5 1077.5,-56.5 973.5,-56.5"/>
<text text-anchor="middle" x="1025.5" y="-63.5" font-family="Helvetica,sans-Serif" font-size="10.00">eth_contract_raw.cc</text>
</a>
</g>
</g>
<!-- Node7&#45;&gt;Node8 -->
<g id="edge8" class="edge">
<title>Node7&#45;&gt;Node8</title>
<path fill="none" stroke="midnightblue" d="M801.69,-110.47C854.23,-100.27 932.94,-84.98 981.66,-75.52"/>
<polygon fill="midnightblue" stroke="midnightblue" points="800.7,-107.1 791.55,-112.44 802.03,-113.97 800.7,-107.1"/>
</g>
<!-- Node9 -->
<g id="node9" class="node">
<title>Node9</title>
<g id="a_node9"><a xlink:href="../../df/d01/eth__contract__raw__test_8cc.html" target="_top" xlink:title=" ">
<polygon fill="white" stroke="black" points="1095.5,-56.5 1095.5,-75.5 1221.5,-75.5 1221.5,-56.5 1095.5,-56.5"/>
<text text-anchor="middle" x="1158.5" y="-63.5" font-family="Helvetica,sans-Serif" font-size="10.00">eth_contract_raw_test.cc</text>
</a>
</g>
</g>
<!-- Node7&#45;&gt;Node9 -->
<g id="edge9" class="edge">
<title>Node7&#45;&gt;Node9</title>
<path fill="none" stroke="midnightblue" d="M812.26,-111.77C917.13,-97.55 1027.7,-83.44 1095.28,-74.92"/>
<polygon fill="midnightblue" stroke="midnightblue" points="811.57,-108.34 802.13,-113.15 812.51,-115.27 811.57,-108.34"/>
</g>
<!-- Node10 -->
<g id="node10" class="node">
<title>Node10</title>
<g id="a_node10"><a xlink:href="../../d5/dc9/tcp__implementation_8cc.html" target="_top" xlink:title=" ">
<polygon fill="white" stroke="black" points="701.5,-56.5 701.5,-75.5 815.5,-75.5 815.5,-56.5 701.5,-56.5"/>
<text text-anchor="middle" x="758.5" y="-63.5" font-family="Helvetica,sans-Serif" font-size="10.00">tcp_implementation.cc</text>
</a>
</g>
</g>
<!-- Node7&#45;&gt;Node10 -->
<g id="edge10" class="edge">
<title>Node7&#45;&gt;Node10</title>
<path fill="none" stroke="midnightblue" d="M751.35,-102.1C753.18,-93.14 755.27,-82.86 756.72,-75.75"/>
<polygon fill="midnightblue" stroke="midnightblue" points="747.88,-101.59 749.32,-112.08 754.74,-102.98 747.88,-101.59"/>
</g>
<!-- Node11 -->
<g id="node11" class="node">
<title>Node11</title>
<g id="a_node11"><a xlink:href="../../d8/d4a/rpc__server__core__test_8cc.html" target="_top" xlink:title=" ">
<polygon fill="white" stroke="black" points="834,-56.5 834,-75.5 955,-75.5 955,-56.5 834,-56.5"/>
<text text-anchor="middle" x="894.5" y="-63.5" font-family="Helvetica,sans-Serif" font-size="10.00">rpc_server_core_test.cc</text>
</a>
</g>
</g>
<!-- Node7&#45;&gt;Node11 -->
<g id="edge11" class="edge">
<title>Node7&#45;&gt;Node11</title>
<path fill="none" stroke="midnightblue" d="M780.42,-108.91C808.06,-98.75 846.84,-84.51 871.32,-75.52"/>
<polygon fill="midnightblue" stroke="midnightblue" points="778.97,-105.71 770.79,-112.44 781.39,-112.28 778.97,-105.71"/>
</g>
<!-- Node12&#45;&gt;Node5 -->
<g id="edge19" class="edge">
<title>Node12&#45;&gt;Node5</title>
<path fill="none" stroke="midnightblue" d="M299.09,-104.72C305.78,-96.56 313.34,-86.26 318.5,-76 328,-57.09 333.54,-32.64 335.98,-19.79"/>
<polygon fill="midnightblue" stroke="midnightblue" points="296.41,-102.46 292.58,-112.34 301.73,-107.01 296.41,-102.46"/>
</g>
<!-- Node13 -->
<g id="node13" class="node">
<title>Node13</title>
<g id="a_node13"><a xlink:href="../../d9/d5a/lua__node_8h.html" target="_top" xlink:title=" ">
<polygon fill="white" stroke="black" points="77,-56.5 77,-75.5 140,-75.5 140,-56.5 77,-56.5"/>
<text text-anchor="middle" x="108.5" y="-63.5" font-family="Helvetica,sans-Serif" font-size="10.00">lua_node.h</text>
</a>
</g>
</g>
<!-- Node12&#45;&gt;Node13 -->
<g id="edge13" class="edge">
<title>Node12&#45;&gt;Node13</title>
<path fill="none" stroke="midnightblue" d="M252.16,-111.08C218.93,-100.88 167.73,-85.17 136.28,-75.52"/>
<polygon fill="midnightblue" stroke="midnightblue" points="251.26,-114.46 261.85,-114.05 253.32,-107.77 251.26,-114.46"/>
</g>
<!-- Node15 -->
<g id="node15" class="node">
<title>Node15</title>
<g id="a_node15"><a xlink:href="../../dc/d32/node__updater_8h.html" target="_top" xlink:title=" ">
<polygon fill="white" stroke="black" points="158,-56.5 158,-75.5 241,-75.5 241,-56.5 158,-56.5"/>
<text text-anchor="middle" x="199.5" y="-63.5" font-family="Helvetica,sans-Serif" font-size="10.00">node_updater.h</text>
</a>
</g>
</g>
<!-- Node12&#45;&gt;Node15 -->
<g id="edge16" class="edge">
<title>Node12&#45;&gt;Node15</title>
<path fill="none" stroke="midnightblue" d="M262.31,-106.9C246.72,-97 226.37,-84.07 213.12,-75.65"/>
<polygon fill="midnightblue" stroke="midnightblue" points="260.53,-109.92 270.84,-112.32 264.28,-104.01 260.53,-109.92"/>
</g>
<!-- Node17 -->
<g id="node17" class="node">
<title>Node17</title>
<g id="a_node17"><a xlink:href="../../dc/dfd/node_8cc.html" target="_top" xlink:title=" ">
<polygon fill="white" stroke="black" points="259.5,-56.5 259.5,-75.5 309.5,-75.5 309.5,-56.5 259.5,-56.5"/>
<text text-anchor="middle" x="284.5" y="-63.5" font-family="Helvetica,sans-Serif" font-size="10.00">node.cc</text>
</a>
</g>
</g>
<!-- Node12&#45;&gt;Node17 -->
<g id="edge20" class="edge">
<title>Node12&#45;&gt;Node17</title>
<path fill="none" stroke="midnightblue" d="M284.5,-101.8C284.5,-92.91 284.5,-82.78 284.5,-75.75"/>
<polygon fill="midnightblue" stroke="midnightblue" points="281,-102.08 284.5,-112.08 288,-102.08 281,-102.08"/>
</g>
<!-- Node18 -->
<g id="node18" class="node">
<title>Node18</title>
<g id="a_node18"><a xlink:href="../../df/dd2/testnet_8cc.html" target="_top" xlink:title=" ">
<polygon fill="white" stroke="black" points="0,-56.5 0,-75.5 59,-75.5 59,-56.5 0,-56.5"/>
<text text-anchor="middle" x="29.5" y="-63.5" font-family="Helvetica,sans-Serif" font-size="10.00">testnet.cc</text>
</a>
</g>
</g>
<!-- Node12&#45;&gt;Node18 -->
<g id="edge21" class="edge">
<title>Node12&#45;&gt;Node18</title>
<path fill="none" stroke="midnightblue" d="M251.92,-114.54C209.42,-106.05 132.77,-90.49 67.5,-76 64.85,-75.41 62.1,-74.79 59.35,-74.15"/>
<polygon fill="midnightblue" stroke="midnightblue" points="251.47,-118.02 261.96,-116.54 252.84,-111.16 251.47,-118.02"/>
</g>
<!-- Node13&#45;&gt;Node5 -->
<g id="edge14" class="edge">
<title>Node13&#45;&gt;Node5</title>
<path fill="none" stroke="midnightblue" d="M150.36,-55.13C198.09,-43.87 274.51,-25.85 313.27,-16.71"/>
<polygon fill="midnightblue" stroke="midnightblue" points="149.27,-51.79 140.34,-57.49 150.88,-58.6 149.27,-51.79"/>
</g>
<!-- Node14 -->
<g id="node14" class="node">
<title>Node14</title>
<g id="a_node14"><a xlink:href="../../db/d7e/lua__node_8cc.html" target="_top" xlink:title=" ">
<polygon fill="white" stroke="black" points="72.5,-0.5 72.5,-19.5 140.5,-19.5 140.5,-0.5 72.5,-0.5"/>
<text text-anchor="middle" x="106.5" y="-7.5" font-family="Helvetica,sans-Serif" font-size="10.00">lua_node.cc</text>
</a>
</g>
</g>
<!-- Node13&#45;&gt;Node14 -->
<g id="edge15" class="edge">
<title>Node13&#45;&gt;Node14</title>
<path fill="none" stroke="midnightblue" d="M107.79,-45.8C107.46,-36.91 107.08,-26.78 106.82,-19.75"/>
<polygon fill="midnightblue" stroke="midnightblue" points="104.3,-46.22 108.17,-56.08 111.3,-45.96 104.3,-46.22"/>
</g>
<!-- Node15&#45;&gt;Node5 -->
<g id="edge17" class="edge">
<title>Node15&#45;&gt;Node5</title>
<path fill="none" stroke="midnightblue" d="M230.75,-52.77C256.67,-42.63 292.86,-28.47 315.74,-19.52"/>
<polygon fill="midnightblue" stroke="midnightblue" points="229.4,-49.54 221.37,-56.44 231.95,-56.06 229.4,-49.54"/>
</g>
<!-- Node16 -->
<g id="node16" class="node">
<title>Node16</title>
<g id="a_node16"><a xlink:href="../../d1/d13/node__updater_8cc.html" target="_top" xlink:title=" ">
<polygon fill="white" stroke="black" points="158.5,-0.5 158.5,-19.5 246.5,-19.5 246.5,-0.5 158.5,-0.5"/>
<text text-anchor="middle" x="202.5" y="-7.5" font-family="Helvetica,sans-Serif" font-size="10.00">node_updater.cc</text>
</a>
</g>
</g>
<!-- Node15&#45;&gt;Node16 -->
<g id="edge18" class="edge">
<title>Node15&#45;&gt;Node16</title>
<path fill="none" stroke="midnightblue" d="M200.57,-45.8C201.06,-36.91 201.62,-26.78 202.01,-19.75"/>
<polygon fill="midnightblue" stroke="midnightblue" points="197.06,-45.9 200,-56.08 204.04,-46.29 197.06,-45.9"/>
</g>
<!-- Node21 -->
<g id="node21" class="node">
<title>Node21</title>
<g id="a_node21"><a xlink:href="../../d1/d34/zmq__connection_8cc.html" target="_top" xlink:title=" ">
<polygon fill="white" stroke="black" points="365.5,-56.5 365.5,-75.5 465.5,-75.5 465.5,-56.5 365.5,-56.5"/>
<text text-anchor="middle" x="415.5" y="-63.5" font-family="Helvetica,sans-Serif" font-size="10.00">zmq_connection.cc</text>
</a>
</g>
</g>
<!-- Node20&#45;&gt;Node21 -->
<g id="edge24" class="edge">
<title>Node20&#45;&gt;Node21</title>
<path fill="none" stroke="midnightblue" d="M453.5,-105C443.93,-95.43 432.14,-83.64 424.25,-75.75"/>
<polygon fill="midnightblue" stroke="midnightblue" points="451.04,-107.49 460.58,-112.08 455.99,-102.54 451.04,-107.49"/>
</g>
<!-- Node22&#45;&gt;Node3 -->
<g id="edge26" class="edge">
<title>Node22&#45;&gt;Node3</title>
<path fill="none" stroke="midnightblue" d="M623.24,-221.44C590.43,-211.26 543.42,-196.66 513.94,-187.52"/>
<polygon fill="midnightblue" stroke="midnightblue" points="622.34,-224.82 632.93,-224.44 624.42,-218.14 622.34,-224.82"/>
</g>
<!-- Node22&#45;&gt;Node4 -->
<g id="edge27" class="edge">
<title>Node22&#45;&gt;Node4</title>
<path fill="none" stroke="midnightblue" d="M663.04,-214.23C663.98,-200.57 663.3,-182.08 655.5,-168 646.25,-151.31 627.91,-139.09 613.74,-131.63"/>
<polygon fill="midnightblue" stroke="midnightblue" points="659.54,-214.06 661.99,-224.36 666.5,-214.78 659.54,-214.06"/>
</g>
<!-- Node22&#45;&gt;Node7 -->
<g id="edge28" class="edge">
<title>Node22&#45;&gt;Node7</title>
<path fill="none" stroke="midnightblue" d="M673.73,-216.27C692.54,-192.49 726.31,-149.79 740.7,-131.59"/>
<polygon fill="midnightblue" stroke="midnightblue" points="670.78,-214.35 667.33,-224.37 676.28,-218.7 670.78,-214.35"/>
</g>
<!-- Node22&#45;&gt;Node12 -->
<g id="edge29" class="edge">
<title>Node22&#45;&gt;Node12</title>
<path fill="none" stroke="midnightblue" d="M614.77,-225.76C571.04,-218.29 503.51,-205.29 446.5,-188 393.14,-171.82 332.8,-145.32 303.07,-131.69"/>
<polygon fill="midnightblue" stroke="midnightblue" points="614.36,-229.25 624.81,-227.45 615.53,-222.34 614.36,-229.25"/>
</g>
<!-- Node22&#45;&gt;Node20 -->
<g id="edge37" class="edge">
<title>Node22&#45;&gt;Node20</title>
<path fill="none" stroke="midnightblue" d="M653.96,-214.92C647.77,-200.24 637.07,-180.06 621.5,-168 604.09,-154.52 549.07,-140.31 510.25,-131.55"/>
<polygon fill="midnightblue" stroke="midnightblue" points="650.79,-216.4 657.69,-224.44 657.31,-213.85 650.79,-216.4"/>
</g>
<!-- Node23 -->
<g id="node23" class="node">
<title>Node23</title>
<g id="a_node23"><a xlink:href="../../de/de4/eth__contract__curl_8h.html" target="_top" xlink:title=" ">
<polygon fill="white" stroke="black" points="860,-168.5 860,-187.5 959,-187.5 959,-168.5 860,-168.5"/>
<text text-anchor="middle" x="909.5" y="-175.5" font-family="Helvetica,sans-Serif" font-size="10.00">eth_contract_curl.h</text>
</a>
</g>
</g>
<!-- Node22&#45;&gt;Node23 -->
<g id="edge30" class="edge">
<title>Node22&#45;&gt;Node23</title>
<path fill="none" stroke="midnightblue" d="M706.09,-223.11C753.1,-212.92 825.63,-197.19 870.19,-187.52"/>
<polygon fill="midnightblue" stroke="midnightblue" points="705.21,-219.72 696.18,-225.26 706.69,-226.56 705.21,-219.72"/>
</g>
<!-- Node26 -->
<g id="node26" class="node">
<title>Node26</title>
<g id="a_node26"><a xlink:href="../../df/df6/eth__contract__raw_8h.html" target="_top" xlink:title=" ">
<polygon fill="white" stroke="black" points="820,-112.5 820,-131.5 919,-131.5 919,-112.5 820,-112.5"/>
<text text-anchor="middle" x="869.5" y="-119.5" font-family="Helvetica,sans-Serif" font-size="10.00">eth_contract_raw.h</text>
</a>
</g>
</g>
<!-- Node22&#45;&gt;Node26 -->
<g id="edge33" class="edge">
<title>Node22&#45;&gt;Node26</title>
<path fill="none" stroke="midnightblue" d="M685.98,-219.59C729.49,-196.69 816.93,-150.67 853.18,-131.59"/>
<polygon fill="midnightblue" stroke="midnightblue" points="684.12,-216.61 676.9,-224.37 687.38,-222.81 684.12,-216.61"/>
</g>
<!-- Node27 -->
<g id="node27" class="node">
<title>Node27</title>
<g id="a_node27"><a xlink:href="../../da/d98/connection_8cc.html" target="_top" xlink:title=" ">
<polygon fill="white" stroke="black" points="536,-168.5 536,-187.5 613,-187.5 613,-168.5 536,-168.5"/>
<text text-anchor="middle" x="574.5" y="-175.5" font-family="Helvetica,sans-Serif" font-size="10.00">connection.cc</text>
</a>
</g>
</g>
<!-- Node22&#45;&gt;Node27 -->
<g id="edge36" class="edge">
<title>Node22&#45;&gt;Node27</title>
<path fill="none" stroke="midnightblue" d="M638.05,-218.9C622.28,-209 601.69,-196.07 588.28,-187.65"/>
<polygon fill="midnightblue" stroke="midnightblue" points="636.35,-221.97 646.68,-224.32 640.07,-216.04 636.35,-221.97"/>
</g>
<!-- Node24 -->
<g id="node24" class="node">
<title>Node24</title>
<g id="a_node24"><a xlink:href="../../d8/da6/eth__contract__curl_8cc.html" target="_top" xlink:title=" ">
<polygon fill="white" stroke="black" points="937.5,-112.5 937.5,-131.5 1041.5,-131.5 1041.5,-112.5 937.5,-112.5"/>
<text text-anchor="middle" x="989.5" y="-119.5" font-family="Helvetica,sans-Serif" font-size="10.00">eth_contract_curl.cc</text>
</a>
</g>
</g>
<!-- Node23&#45;&gt;Node24 -->
<g id="edge31" class="edge">
<title>Node23&#45;&gt;Node24</title>
<path fill="none" stroke="midnightblue" d="M930.8,-162.62C945.42,-152.76 964.33,-139.99 976.68,-131.65"/>
<polygon fill="midnightblue" stroke="midnightblue" points="928.68,-159.83 922.35,-168.32 932.6,-165.63 928.68,-159.83"/>
</g>
<!-- Node25 -->
<g id="node25" class="node">
<title>Node25</title>
<g id="a_node25"><a xlink:href="../../d4/d57/eth__contract__curl__test_8cc.html" target="_top" xlink:title=" ">
<polygon fill="white" stroke="black" points="1059.5,-112.5 1059.5,-131.5 1185.5,-131.5 1185.5,-112.5 1059.5,-112.5"/>
<text text-anchor="middle" x="1122.5" y="-119.5" font-family="Helvetica,sans-Serif" font-size="10.00">eth_contract_curl_test.cc</text>
</a>
</g>
</g>
<!-- Node23&#45;&gt;Node25 -->
<g id="edge32" class="edge">
<title>Node23&#45;&gt;Node25</title>
<path fill="none" stroke="midnightblue" d="M953.05,-165.96C993.28,-155.76 1052.2,-140.82 1088.91,-131.52"/>
<polygon fill="midnightblue" stroke="midnightblue" points="952.08,-162.59 943.25,-168.44 953.8,-169.38 952.08,-162.59"/>
</g>
<!-- Node26&#45;&gt;Node8 -->
<g id="edge34" class="edge">
<title>Node26&#45;&gt;Node8</title>
<path fill="none" stroke="midnightblue" d="M903.67,-109.17C933.04,-99 974.7,-84.59 1000.9,-75.52"/>
<polygon fill="midnightblue" stroke="midnightblue" points="902.52,-105.86 894.22,-112.44 904.81,-112.48 902.52,-105.86"/>
</g>
<!-- Node26&#45;&gt;Node9 -->
<g id="edge35" class="edge">
<title>Node26&#45;&gt;Node9</title>
<path fill="none" stroke="midnightblue" d="M925.16,-110.6C979.77,-100.4 1062.07,-85.02 1112.92,-75.52"/>
<polygon fill="midnightblue" stroke="midnightblue" points="924.48,-107.17 915.29,-112.44 925.77,-114.05 924.48,-107.17"/>
</g>
<!-- Node28&#45;&gt;Node24 -->
<g id="edge39" class="edge">
<title>Node28&#45;&gt;Node24</title>
<path fill="none" stroke="midnightblue" d="M1020.45,-160.14C1012.61,-150.74 1003.17,-139.4 996.79,-131.75"/>
<polygon fill="midnightblue" stroke="midnightblue" points="1017.98,-162.64 1027.07,-168.08 1023.36,-158.16 1017.98,-162.64"/>
</g>
<!-- Node28&#45;&gt;Node25 -->
<g id="edge40" class="edge">
<title>Node28&#45;&gt;Node25</title>
<path fill="none" stroke="midnightblue" d="M1057.48,-162.9C1073.61,-153 1094.68,-140.07 1108.4,-131.65"/>
<polygon fill="midnightblue" stroke="midnightblue" points="1055.33,-160.11 1048.64,-168.32 1058.99,-166.08 1055.33,-160.11"/>
</g>
</g>
</svg>
