<?xml version="1.0" encoding="UTF-8" standalone="no"?>
<!DOCTYPE svg PUBLIC "-//W3C//DTD SVG 1.1//EN"
 "http://www.w3.org/Graphics/SVG/1.1/DTD/svg11.dtd">
<!-- Generated by graphviz version 2.42.3 ()
 -->
<!-- Title: status.h Pages: 1 -->
<!--zoomable 308 -->
<svg id="main" version="1.1" xmlns="http://www.w3.org/2000/svg" xmlns:xlink="http://www.w3.org/1999/xlink" xml:space="preserve" onload="init(evt)">
<style type="text/css"><![CDATA[
.edge:hover path { stroke: red; }
.edge:hover polygon { stroke: red; fill: red; }
]]></style>
<script type="text/javascript"><![CDATA[
var edges = document.getElementsByTagName('g');
if (edges && edges.length) {
  for (var i=0;i<edges.length;i++) {
    if (edges[i].id.substr(0,4)=='edge') {
      edges[i].setAttribute('class','edge');
    }
  }
}
]]></script>
        <defs>
                <circle id="rim" cx="0" cy="0" r="7"/>
                <circle id="rim2" cx="0" cy="0" r="3.5"/>
                <g id="zoomPlus">
                        <use xlink:href="#rim" fill="#404040">
                                <set attributeName="fill" to="#808080" begin="zoomplus.mouseover" end="zoomplus.mouseout"/>
                        </use>
                        <path d="M-4,0h8M0,-4v8" fill="none" stroke="white" stroke-width="1.5" pointer-events="none"/>
                </g>
                <g id="zoomMin">
                        <use xlink:href="#rim" fill="#404040">
                                <set attributeName="fill" to="#808080" begin="zoomminus.mouseover" end="zoomminus.mouseout"/>
                        </use>
                        <path d="M-4,0h8" fill="none" stroke="white" stroke-width="1.5" pointer-events="none"/>
                </g>
                <g id="dirArrow">
                        <path fill="none" stroke="white" stroke-width="1.5" d="M0,-3.0v7 M-2.5,-0.5L0,-3.0L2.5,-0.5"/>
                </g>
               <g id="resetDef">
                       <use xlink:href="#rim2" fill="#404040">
                               <set attributeName="fill" to="#808080" begin="reset.mouseover" end="reset.mouseout"/>
                       </use>
               </g>
        </defs>

<script type="text/javascript">
var viewWidth = 1274;
var viewHeight = 308;
var sectionId = 'dynsection-1';
</script>
<script xlink:href="../../svgpan.js"/>
<svg id="graph" class="graph">
<g id="viewport">
<title>status.h</title>
<polygon fill="white" stroke="transparent" points="-4,4 -4,-304 1270,-304 1270,4 -4,4"/>
<!-- Node1 -->
<g id="node1" class="node">
<title>Node1</title>
<g id="a_node1"><a xlink:title=" ">
<polygon fill="#bfbfbf" stroke="black" points="793.5,-280.5 793.5,-299.5 844.5,-299.5 844.5,-280.5 793.5,-280.5"/>
<text text-anchor="middle" x="819" y="-287.5" font-family="Helvetica,sans-Serif" font-size="10.00">status.h</text>
</a>
</g>
</g>
<!-- Node2 -->
<g id="node2" class="node">
<title>Node2</title>
<g id="a_node2"><a xlink:href="../../da/dc3/status_8cc.html" target="_top" xlink:title=" ">
<polygon fill="white" stroke="black" points="645,-224.5 645,-243.5 701,-243.5 701,-224.5 645,-224.5"/>
<text text-anchor="middle" x="673" y="-231.5" font-family="Helvetica,sans-Serif" font-size="10.00">status.cc</text>
</a>
</g>
</g>
<!-- Node1&#45;&gt;Node2 -->
<g id="edge1" class="edge">
<title>Node1&#45;&gt;Node2</title>
<path fill="none" stroke="midnightblue" d="M786.3,-276.91C758.85,-266.75 720.33,-252.51 696.03,-243.52"/>
<polygon fill="midnightblue" stroke="midnightblue" points="785.27,-280.26 795.87,-280.44 787.7,-273.69 785.27,-280.26"/>
</g>
<!-- Node3 -->
<g id="node3" class="node">
<title>Node3</title>
<g id="a_node3"><a xlink:href="../../d1/d31/acceptor_8h.html" target="_top" xlink:title=" ">
<polygon fill="white" stroke="black" points="786,-168.5 786,-187.5 848,-187.5 848,-168.5 786,-168.5"/>
<text text-anchor="middle" x="817" y="-175.5" font-family="Helvetica,sans-Serif" font-size="10.00">acceptor.h</text>
</a>
</g>
</g>
<!-- Node1&#45;&gt;Node3 -->
<g id="edge2" class="edge">
<title>Node1&#45;&gt;Node3</title>
<path fill="none" stroke="midnightblue" d="M818.66,-270.35C818.22,-246.25 817.48,-205.31 817.16,-187.59"/>
<polygon fill="midnightblue" stroke="midnightblue" points="815.16,-270.43 818.84,-280.37 822.16,-270.31 815.16,-270.43"/>
</g>
<!-- Node22 -->
<g id="node22" class="node">
<title>Node22</title>
<g id="a_node22"><a xlink:href="../../d4/d67/connection_8h.html" target="_top" xlink:title=" ">
<polygon fill="white" stroke="black" points="719.5,-224.5 719.5,-243.5 790.5,-243.5 790.5,-224.5 719.5,-224.5"/>
<text text-anchor="middle" x="755" y="-231.5" font-family="Helvetica,sans-Serif" font-size="10.00">connection.h</text>
</a>
</g>
</g>
<!-- Node1&#45;&gt;Node22 -->
<g id="edge25" class="edge">
<title>Node1&#45;&gt;Node22</title>
<path fill="none" stroke="midnightblue" d="M801.01,-273.82C789.54,-264.15 775.09,-251.95 765.47,-243.83"/>
<polygon fill="midnightblue" stroke="midnightblue" points="798.82,-276.55 808.72,-280.32 803.33,-271.2 798.82,-276.55"/>
</g>
<!-- Node25 -->
<g id="node25" class="node">
<title>Node25</title>
<g id="a_node25"><a xlink:href="../../de/de4/eth__contract__curl_8h.html" target="_top" xlink:title=" ">
<polygon fill="white" stroke="black" points="917.5,-224.5 917.5,-243.5 1016.5,-243.5 1016.5,-224.5 917.5,-224.5"/>
<text text-anchor="middle" x="967" y="-231.5" font-family="Helvetica,sans-Serif" font-size="10.00">eth_contract_curl.h</text>
</a>
</g>
</g>
<!-- Node1&#45;&gt;Node25 -->
<g id="edge35" class="edge">
<title>Node1&#45;&gt;Node25</title>
<path fill="none" stroke="midnightblue" d="M852.15,-276.91C879.97,-266.75 919.02,-252.51 943.66,-243.52"/>
<polygon fill="midnightblue" stroke="midnightblue" points="850.65,-273.73 842.45,-280.44 853.04,-280.3 850.65,-273.73"/>
</g>
<!-- Node28 -->
<g id="node28" class="node">
<title>Node28</title>
<g id="a_node28"><a xlink:href="../../dc/dbc/eth__helper__functions_8h.html" target="_top" xlink:title=" ">
<polygon fill="white" stroke="black" points="1039,-224.5 1039,-243.5 1153,-243.5 1153,-224.5 1039,-224.5"/>
<text text-anchor="middle" x="1096" y="-231.5" font-family="Helvetica,sans-Serif" font-size="10.00">eth_helper_functions.h</text>
</a>
</g>
</g>
<!-- Node1&#45;&gt;Node28 -->
<g id="edge38" class="edge">
<title>Node1&#45;&gt;Node28</title>
<path fill="none" stroke="midnightblue" d="M854.67,-282.05C905.15,-272.21 997.33,-254.23 1051.99,-243.58"/>
<polygon fill="midnightblue" stroke="midnightblue" points="853.71,-278.67 844.56,-284.02 855.05,-285.54 853.71,-278.67"/>
</g>
<!-- Node4 -->
<g id="node4" class="node">
<title>Node4</title>
<g id="a_node4"><a xlink:href="../../d3/ddf/simulated__connection_8h.html" target="_top" xlink:title=" ">
<polygon fill="white" stroke="black" points="659.5,-112.5 659.5,-131.5 778.5,-131.5 778.5,-112.5 659.5,-112.5"/>
<text text-anchor="middle" x="719" y="-119.5" font-family="Helvetica,sans-Serif" font-size="10.00">simulated_connection.h</text>
</a>
</g>
</g>
<!-- Node3&#45;&gt;Node4 -->
<g id="edge3" class="edge">
<title>Node3&#45;&gt;Node4</title>
<path fill="none" stroke="midnightblue" d="M792.41,-163.45C774.32,-153.48 750.27,-140.23 734.71,-131.65"/>
<polygon fill="midnightblue" stroke="midnightblue" points="790.81,-166.56 801.25,-168.32 794.19,-160.43 790.81,-166.56"/>
</g>
<!-- Node7 -->
<g id="node7" class="node">
<title>Node7</title>
<g id="a_node7"><a xlink:href="../../d8/d3f/tcp__implementation_8h.html" target="_top" xlink:title=" ">
<polygon fill="white" stroke="black" points="306.5,-112.5 306.5,-131.5 415.5,-131.5 415.5,-112.5 306.5,-112.5"/>
<text text-anchor="middle" x="361" y="-119.5" font-family="Helvetica,sans-Serif" font-size="10.00">tcp_implementation.h</text>
</a>
</g>
</g>
<!-- Node3&#45;&gt;Node7 -->
<g id="edge6" class="edge">
<title>Node3&#45;&gt;Node7</title>
<path fill="none" stroke="midnightblue" d="M775.66,-172.1C693.21,-162.34 508.36,-140.45 415.88,-129.5"/>
<polygon fill="midnightblue" stroke="midnightblue" points="775.32,-175.59 785.66,-173.29 776.14,-168.64 775.32,-175.59"/>
</g>
<!-- Node12 -->
<g id="node12" class="node">
<title>Node12</title>
<g id="a_node12"><a xlink:href="../../d1/d77/node_8h.html" target="_top" xlink:title=" ">
<polygon fill="white" stroke="black" points="796.5,-112.5 796.5,-131.5 841.5,-131.5 841.5,-112.5 796.5,-112.5"/>
<text text-anchor="middle" x="819" y="-119.5" font-family="Helvetica,sans-Serif" font-size="10.00">node.h</text>
</a>
</g>
</g>
<!-- Node3&#45;&gt;Node12 -->
<g id="edge12" class="edge">
<title>Node3&#45;&gt;Node12</title>
<path fill="none" stroke="midnightblue" d="M817.71,-157.8C818.04,-148.91 818.42,-138.78 818.68,-131.75"/>
<polygon fill="midnightblue" stroke="midnightblue" points="814.2,-157.96 817.33,-168.08 821.2,-158.22 814.2,-157.96"/>
</g>
<!-- Node19 -->
<g id="node19" class="node">
<title>Node19</title>
<g id="a_node19"><a xlink:href="../../d5/d4e/acceptor_8cc.html" target="_top" xlink:title=" ">
<polygon fill="white" stroke="black" points="859.5,-112.5 859.5,-131.5 926.5,-131.5 926.5,-112.5 859.5,-112.5"/>
<text text-anchor="middle" x="893" y="-119.5" font-family="Helvetica,sans-Serif" font-size="10.00">acceptor.cc</text>
</a>
</g>
</g>
<!-- Node3&#45;&gt;Node19 -->
<g id="edge22" class="edge">
<title>Node3&#45;&gt;Node19</title>
<path fill="none" stroke="midnightblue" d="M837.58,-162.38C851.31,-152.62 868.93,-140.11 880.57,-131.83"/>
<polygon fill="midnightblue" stroke="midnightblue" points="835.34,-159.68 829.21,-168.32 839.39,-165.38 835.34,-159.68"/>
</g>
<!-- Node20 -->
<g id="node20" class="node">
<title>Node20</title>
<g id="a_node20"><a xlink:href="../../d5/dcb/zmq__connection_8h.html" target="_top" xlink:title=" ">
<polygon fill="white" stroke="black" points="944.5,-112.5 944.5,-131.5 1039.5,-131.5 1039.5,-112.5 944.5,-112.5"/>
<text text-anchor="middle" x="992" y="-119.5" font-family="Helvetica,sans-Serif" font-size="10.00">zmq_connection.h</text>
</a>
</g>
</g>
<!-- Node3&#45;&gt;Node20 -->
<g id="edge23" class="edge">
<title>Node3&#45;&gt;Node20</title>
<path fill="none" stroke="midnightblue" d="M854.47,-165.44C887.47,-155.26 934.76,-140.66 964.4,-131.52"/>
<polygon fill="midnightblue" stroke="midnightblue" points="853.25,-162.15 844.73,-168.44 855.32,-168.84 853.25,-162.15"/>
</g>
<!-- Node5 -->
<g id="node5" class="node">
<title>Node5</title>
<g id="a_node5"><a xlink:href="../../dd/de7/core_8cc.html" target="_top" xlink:title=" ">
<polygon fill="white" stroke="black" points="742,-0.5 742,-19.5 790,-19.5 790,-0.5 742,-0.5"/>
<text text-anchor="middle" x="766" y="-7.5" font-family="Helvetica,sans-Serif" font-size="10.00">core.cc</text>
</a>
</g>
</g>
<!-- Node4&#45;&gt;Node5 -->
<g id="edge4" class="edge">
<title>Node4&#45;&gt;Node5</title>
<path fill="none" stroke="midnightblue" d="M726.69,-103C736.95,-79 754.69,-37.47 762.33,-19.59"/>
<polygon fill="midnightblue" stroke="midnightblue" points="723.4,-101.8 722.69,-112.37 729.84,-104.55 723.4,-101.8"/>
</g>
<!-- Node6 -->
<g id="node6" class="node">
<title>Node6</title>
<g id="a_node6"><a xlink:href="../../d6/d86/simulated__connection_8cc.html" target="_top" xlink:title=" ">
<polygon fill="white" stroke="black" points="576,-56.5 576,-75.5 700,-75.5 700,-56.5 576,-56.5"/>
<text text-anchor="middle" x="638" y="-63.5" font-family="Helvetica,sans-Serif" font-size="10.00">simulated_connection.cc</text>
</a>
</g>
</g>
<!-- Node4&#45;&gt;Node6 -->
<g id="edge5" class="edge">
<title>Node4&#45;&gt;Node6</title>
<path fill="none" stroke="midnightblue" d="M697.43,-106.62C682.64,-96.76 663.49,-83.99 650.98,-75.65"/>
<polygon fill="midnightblue" stroke="midnightblue" points="695.72,-109.69 705.99,-112.32 699.61,-103.86 695.72,-109.69"/>
</g>
<!-- Node7&#45;&gt;Node5 -->
<g id="edge7" class="edge">
<title>Node7&#45;&gt;Node5</title>
<path fill="none" stroke="midnightblue" d="M331.8,-107.94C306.99,-95.11 277.93,-74.78 295,-56 325.32,-22.65 649.91,-13.41 741.86,-11.45"/>
<polygon fill="midnightblue" stroke="midnightblue" points="330.47,-111.19 340.99,-112.47 333.57,-104.91 330.47,-111.19"/>
</g>
<!-- Node8 -->
<g id="node8" class="node">
<title>Node8</title>
<g id="a_node8"><a xlink:href="../../d2/d4b/eth__contract__raw_8cc.html" target="_top" xlink:title=" ">
<polygon fill="white" stroke="black" points="144,-56.5 144,-75.5 248,-75.5 248,-56.5 144,-56.5"/>
<text text-anchor="middle" x="196" y="-63.5" font-family="Helvetica,sans-Serif" font-size="10.00">eth_contract_raw.cc</text>
</a>
</g>
</g>
<!-- Node7&#45;&gt;Node8 -->
<g id="edge8" class="edge">
<title>Node7&#45;&gt;Node8</title>
<path fill="none" stroke="midnightblue" d="M325.26,-109.3C294.17,-99.13 249.85,-84.62 222.02,-75.52"/>
<polygon fill="midnightblue" stroke="midnightblue" points="324.26,-112.66 334.86,-112.44 326.44,-106.01 324.26,-112.66"/>
</g>
<!-- Node9 -->
<g id="node9" class="node">
<title>Node9</title>
<g id="a_node9"><a xlink:href="../../df/d01/eth__contract__raw__test_8cc.html" target="_top" xlink:title=" ">
<polygon fill="white" stroke="black" points="0,-56.5 0,-75.5 126,-75.5 126,-56.5 0,-56.5"/>
<text text-anchor="middle" x="63" y="-63.5" font-family="Helvetica,sans-Serif" font-size="10.00">eth_contract_raw_test.cc</text>
</a>
</g>
</g>
<!-- Node7&#45;&gt;Node9 -->
<g id="edge9" class="edge">
<title>Node7&#45;&gt;Node9</title>
<path fill="none" stroke="midnightblue" d="M303.61,-110.6C247.29,-100.4 162.44,-85.02 110,-75.52"/>
<polygon fill="midnightblue" stroke="midnightblue" points="303.32,-114.1 313.78,-112.44 304.57,-107.22 303.32,-114.1"/>
</g>
<!-- Node10 -->
<g id="node10" class="node">
<title>Node10</title>
<g id="a_node10"><a xlink:href="../../d5/dc9/tcp__implementation_8cc.html" target="_top" xlink:title=" ">
<polygon fill="white" stroke="black" points="304,-56.5 304,-75.5 418,-75.5 418,-56.5 304,-56.5"/>
<text text-anchor="middle" x="361" y="-63.5" font-family="Helvetica,sans-Serif" font-size="10.00">tcp_implementation.cc</text>
</a>
</g>
</g>
<!-- Node7&#45;&gt;Node10 -->
<g id="edge10" class="edge">
<title>Node7&#45;&gt;Node10</title>
<path fill="none" stroke="midnightblue" d="M361,-101.8C361,-92.91 361,-82.78 361,-75.75"/>
<polygon fill="midnightblue" stroke="midnightblue" points="357.5,-102.08 361,-112.08 364.5,-102.08 357.5,-102.08"/>
</g>
<!-- Node11 -->
<g id="node11" class="node">
<title>Node11</title>
<g id="a_node11"><a xlink:href="../../d8/d4a/rpc__server__core__test_8cc.html" target="_top" xlink:title=" ">
<polygon fill="white" stroke="black" points="436.5,-56.5 436.5,-75.5 557.5,-75.5 557.5,-56.5 436.5,-56.5"/>
<text text-anchor="middle" x="497" y="-63.5" font-family="Helvetica,sans-Serif" font-size="10.00">rpc_server_core_test.cc</text>
</a>
</g>
</g>
<!-- Node7&#45;&gt;Node11 -->
<g id="edge11" class="edge">
<title>Node7&#45;&gt;Node11</title>
<path fill="none" stroke="midnightblue" d="M392.13,-108.64C417.66,-98.5 453.11,-84.43 475.55,-75.52"/>
<polygon fill="midnightblue" stroke="midnightblue" points="390.55,-105.5 382.55,-112.44 393.14,-112.01 390.55,-105.5"/>
</g>
<!-- Node12&#45;&gt;Node5 -->
<g id="edge19" class="edge">
<title>Node12&#45;&gt;Node5</title>
<path fill="none" stroke="midnightblue" d="M804.41,-104.72C797.72,-96.56 790.16,-86.26 785,-76 775.5,-57.09 769.96,-32.64 767.52,-19.79"/>
<polygon fill="midnightblue" stroke="midnightblue" points="801.77,-107.01 810.92,-112.34 807.09,-102.46 801.77,-107.01"/>
</g>
<!-- Node13 -->
<g id="node13" class="node">
<title>Node13</title>
<g id="a_node13"><a xlink:href="../../d9/d5a/lua__node_8h.html" target="_top" xlink:title=" ">
<polygon fill="white" stroke="black" points="939.5,-56.5 939.5,-75.5 1002.5,-75.5 1002.5,-56.5 939.5,-56.5"/>
<text text-anchor="middle" x="971" y="-63.5" font-family="Helvetica,sans-Serif" font-size="10.00">lua_node.h</text>
</a>
</g>
</g>
<!-- Node12&#45;&gt;Node13 -->
<g id="edge13" class="edge">
<title>Node12&#45;&gt;Node13</title>
<path fill="none" stroke="midnightblue" d="M851.3,-109.52C879.9,-99.36 921,-84.76 946.83,-75.59"/>
<polygon fill="midnightblue" stroke="midnightblue" points="850.01,-106.27 841.76,-112.92 852.35,-112.87 850.01,-106.27"/>
</g>
<!-- Node15 -->
<g id="node15" class="node">
<title>Node15</title>
<g id="a_node15"><a xlink:href="../../dc/d32/node__updater_8h.html" target="_top" xlink:title=" ">
<polygon fill="white" stroke="black" points="1020.5,-56.5 1020.5,-75.5 1103.5,-75.5 1103.5,-56.5 1020.5,-56.5"/>
<text text-anchor="middle" x="1062" y="-63.5" font-family="Helvetica,sans-Serif" font-size="10.00">node_updater.h</text>
</a>
</g>
</g>
<!-- Node12&#45;&gt;Node15 -->
<g id="edge16" class="edge">
<title>Node12&#45;&gt;Node15</title>
<path fill="none" stroke="midnightblue" d="M851.47,-111.76C915.4,-95.9 979.55,-82.85 1020.36,-74.9"/>
<polygon fill="midnightblue" stroke="midnightblue" points="850.49,-108.4 841.63,-114.22 852.19,-115.19 850.49,-108.4"/>
</g>
<!-- Node17 -->
<g id="node17" class="node">
<title>Node17</title>
<g id="a_node17"><a xlink:href="../../dc/dfd/node_8cc.html" target="_top" xlink:title=" ">
<polygon fill="white" stroke="black" points="794,-56.5 794,-75.5 844,-75.5 844,-56.5 794,-56.5"/>
<text text-anchor="middle" x="819" y="-63.5" font-family="Helvetica,sans-Serif" font-size="10.00">node.cc</text>
</a>
</g>
</g>
<!-- Node12&#45;&gt;Node17 -->
<g id="edge20" class="edge">
<title>Node12&#45;&gt;Node17</title>
<path fill="none" stroke="midnightblue" d="M819,-101.8C819,-92.91 819,-82.78 819,-75.75"/>
<polygon fill="midnightblue" stroke="midnightblue" points="815.5,-102.08 819,-112.08 822.5,-102.08 815.5,-102.08"/>
</g>
<!-- Node18 -->
<g id="node18" class="node">
<title>Node18</title>
<g id="a_node18"><a xlink:href="../../df/dd2/testnet_8cc.html" target="_top" xlink:title=" ">
<polygon fill="white" stroke="black" points="862.5,-56.5 862.5,-75.5 921.5,-75.5 921.5,-56.5 862.5,-56.5"/>
<text text-anchor="middle" x="892" y="-63.5" font-family="Helvetica,sans-Serif" font-size="10.00">testnet.cc</text>
</a>
</g>
</g>
<!-- Node12&#45;&gt;Node18 -->
<g id="edge21" class="edge">
<title>Node12&#45;&gt;Node18</title>
<path fill="none" stroke="midnightblue" d="M839.14,-106.1C852.28,-96.38 868.98,-84.03 880.06,-75.83"/>
<polygon fill="midnightblue" stroke="midnightblue" points="836.69,-103.56 830.73,-112.32 840.85,-109.19 836.69,-103.56"/>
</g>
<!-- Node13&#45;&gt;Node5 -->
<g id="edge14" class="edge">
<title>Node13&#45;&gt;Node5</title>
<path fill="none" stroke="midnightblue" d="M929.53,-54.08C887.7,-43.06 824.53,-26.42 790.23,-17.38"/>
<polygon fill="midnightblue" stroke="midnightblue" points="928.86,-57.52 939.42,-56.68 930.64,-50.75 928.86,-57.52"/>
</g>
<!-- Node14 -->
<g id="node14" class="node">
<title>Node14</title>
<g id="a_node14"><a xlink:href="../../db/d7e/lua__node_8cc.html" target="_top" xlink:title=" ">
<polygon fill="white" stroke="black" points="934,-0.5 934,-19.5 1002,-19.5 1002,-0.5 934,-0.5"/>
<text text-anchor="middle" x="968" y="-7.5" font-family="Helvetica,sans-Serif" font-size="10.00">lua_node.cc</text>
</a>
</g>
</g>
<!-- Node13&#45;&gt;Node14 -->
<g id="edge15" class="edge">
<title>Node13&#45;&gt;Node14</title>
<path fill="none" stroke="midnightblue" d="M969.93,-45.8C969.44,-36.91 968.88,-26.78 968.49,-19.75"/>
<polygon fill="midnightblue" stroke="midnightblue" points="966.46,-46.29 970.5,-56.08 973.44,-45.9 966.46,-46.29"/>
</g>
<!-- Node15&#45;&gt;Node5 -->
<g id="edge17" class="edge">
<title>Node15&#45;&gt;Node5</title>
<path fill="none" stroke="midnightblue" d="M1010.25,-55.56C945.75,-43.79 838.17,-24.17 790.28,-15.43"/>
<polygon fill="midnightblue" stroke="midnightblue" points="1009.75,-59.03 1020.22,-57.38 1011.01,-52.14 1009.75,-59.03"/>
</g>
<!-- Node16 -->
<g id="node16" class="node">
<title>Node16</title>
<g id="a_node16"><a xlink:href="../../d1/d13/node__updater_8cc.html" target="_top" xlink:title=" ">
<polygon fill="white" stroke="black" points="1020,-0.5 1020,-19.5 1108,-19.5 1108,-0.5 1020,-0.5"/>
<text text-anchor="middle" x="1064" y="-7.5" font-family="Helvetica,sans-Serif" font-size="10.00">node_updater.cc</text>
</a>
</g>
</g>
<!-- Node15&#45;&gt;Node16 -->
<g id="edge18" class="edge">
<title>Node15&#45;&gt;Node16</title>
<path fill="none" stroke="midnightblue" d="M1062.71,-45.8C1063.04,-36.91 1063.42,-26.78 1063.68,-19.75"/>
<polygon fill="midnightblue" stroke="midnightblue" points="1059.2,-45.96 1062.33,-56.08 1066.2,-46.22 1059.2,-45.96"/>
</g>
<!-- Node21 -->
<g id="node21" class="node">
<title>Node21</title>
<g id="a_node21"><a xlink:href="../../d1/d34/zmq__connection_8cc.html" target="_top" xlink:title=" ">
<polygon fill="white" stroke="black" points="1122,-56.5 1122,-75.5 1222,-75.5 1222,-56.5 1122,-56.5"/>
<text text-anchor="middle" x="1172" y="-63.5" font-family="Helvetica,sans-Serif" font-size="10.00">zmq_connection.cc</text>
</a>
</g>
</g>
<!-- Node20&#45;&gt;Node21 -->
<g id="edge24" class="edge">
<title>Node20&#45;&gt;Node21</title>
<path fill="none" stroke="midnightblue" d="M1030.11,-109.57C1064.06,-99.38 1112.99,-84.7 1143.61,-75.52"/>
<polygon fill="midnightblue" stroke="midnightblue" points="1029.09,-106.22 1020.52,-112.44 1031.11,-112.92 1029.09,-106.22"/>
</g>
<!-- Node22&#45;&gt;Node3 -->
<g id="edge26" class="edge">
<title>Node22&#45;&gt;Node3</title>
<path fill="none" stroke="midnightblue" d="M772.75,-217.54C783.81,-207.91 797.63,-195.87 806.86,-187.83"/>
<polygon fill="midnightblue" stroke="midnightblue" points="770.2,-215.12 764.96,-224.32 774.8,-220.4 770.2,-215.12"/>
</g>
<!-- Node22&#45;&gt;Node4 -->
<g id="edge27" class="edge">
<title>Node22&#45;&gt;Node4</title>
<path fill="none" stroke="midnightblue" d="M749,-214.67C741.13,-190.62 727.64,-149.39 721.81,-131.59"/>
<polygon fill="midnightblue" stroke="midnightblue" points="745.74,-215.95 752.18,-224.37 752.39,-213.78 745.74,-215.95"/>
</g>
<!-- Node22&#45;&gt;Node7 -->
<g id="edge28" class="edge">
<title>Node22&#45;&gt;Node7</title>
<path fill="none" stroke="midnightblue" d="M714.33,-221.65C635.15,-199.54 461.89,-151.17 391.57,-131.53"/>
<polygon fill="midnightblue" stroke="midnightblue" points="713.84,-225.14 724.41,-224.46 715.72,-218.4 713.84,-225.14"/>
</g>
<!-- Node22&#45;&gt;Node12 -->
<g id="edge29" class="edge">
<title>Node22&#45;&gt;Node12</title>
<path fill="none" stroke="midnightblue" d="M759.14,-214.06C762.62,-200.58 768.41,-182.38 777,-168 785.55,-153.69 799.28,-140.11 808.7,-131.68"/>
<polygon fill="midnightblue" stroke="midnightblue" points="755.67,-213.54 756.76,-224.08 762.48,-215.16 755.67,-213.54"/>
</g>
<!-- Node22&#45;&gt;Node20 -->
<g id="edge34" class="edge">
<title>Node22&#45;&gt;Node20</title>
<path fill="none" stroke="midnightblue" d="M784.93,-220.44C805.39,-211.7 833.04,-199.58 857,-188 874.19,-179.7 877.89,-176.46 895,-168 921.79,-154.75 953.25,-140.36 972.91,-131.52"/>
<polygon fill="midnightblue" stroke="midnightblue" points="783.34,-217.31 775.51,-224.44 786.08,-223.75 783.34,-217.31"/>
</g>
<!-- Node23 -->
<g id="node23" class="node">
<title>Node23</title>
<g id="a_node23"><a xlink:href="../../df/df6/eth__contract__raw_8h.html" target="_top" xlink:title=" ">
<polygon fill="white" stroke="black" points="146.5,-112.5 146.5,-131.5 245.5,-131.5 245.5,-112.5 146.5,-112.5"/>
<text text-anchor="middle" x="196" y="-119.5" font-family="Helvetica,sans-Serif" font-size="10.00">eth_contract_raw.h</text>
</a>
</g>
</g>
<!-- Node22&#45;&gt;Node23 -->
<g id="edge30" class="edge">
<title>Node22&#45;&gt;Node23</title>
<path fill="none" stroke="midnightblue" d="M709.24,-223.87C623.57,-207.29 600.73,-203.92 519,-188 417.8,-168.28 298.98,-144.11 237.52,-131.53"/>
<polygon fill="midnightblue" stroke="midnightblue" points="708.66,-227.32 719.15,-225.79 710,-220.45 708.66,-227.32"/>
</g>
<!-- Node24 -->
<g id="node24" class="node">
<title>Node24</title>
<g id="a_node24"><a xlink:href="../../da/d98/connection_8cc.html" target="_top" xlink:title=" ">
<polygon fill="white" stroke="black" points="614.5,-168.5 614.5,-187.5 691.5,-187.5 691.5,-168.5 614.5,-168.5"/>
<text text-anchor="middle" x="653" y="-175.5" font-family="Helvetica,sans-Serif" font-size="10.00">connection.cc</text>
</a>
</g>
</g>
<!-- Node22&#45;&gt;Node24 -->
<g id="edge33" class="edge">
<title>Node22&#45;&gt;Node24</title>
<path fill="none" stroke="midnightblue" d="M729.67,-219.59C710.81,-209.61 685.62,-196.27 669.35,-187.65"/>
<polygon fill="midnightblue" stroke="midnightblue" points="728.14,-222.74 738.61,-224.32 731.41,-216.55 728.14,-222.74"/>
</g>
<!-- Node23&#45;&gt;Node8 -->
<g id="edge31" class="edge">
<title>Node23&#45;&gt;Node8</title>
<path fill="none" stroke="midnightblue" d="M196,-101.8C196,-92.91 196,-82.78 196,-75.75"/>
<polygon fill="midnightblue" stroke="midnightblue" points="192.5,-102.08 196,-112.08 199.5,-102.08 192.5,-102.08"/>
</g>
<!-- Node23&#45;&gt;Node9 -->
<g id="edge32" class="edge">
<title>Node23&#45;&gt;Node9</title>
<path fill="none" stroke="midnightblue" d="M165.55,-108.64C140.59,-98.5 105.92,-84.43 83.98,-75.52"/>
<polygon fill="midnightblue" stroke="midnightblue" points="164.34,-111.92 174.93,-112.44 166.98,-105.44 164.34,-111.92"/>
</g>
<!-- Node26 -->
<g id="node26" class="node">
<title>Node26</title>
<g id="a_node26"><a xlink:href="../../d8/da6/eth__contract__curl_8cc.html" target="_top" xlink:title=" ">
<polygon fill="white" stroke="black" points="1048,-168.5 1048,-187.5 1152,-187.5 1152,-168.5 1048,-168.5"/>
<text text-anchor="middle" x="1100" y="-175.5" font-family="Helvetica,sans-Serif" font-size="10.00">eth_contract_curl.cc</text>
</a>
</g>
</g>
<!-- Node25&#45;&gt;Node26 -->
<g id="edge36" class="edge">
<title>Node25&#45;&gt;Node26</title>
<path fill="none" stroke="midnightblue" d="M997.45,-220.64C1022.41,-210.5 1057.08,-196.43 1079.02,-187.52"/>
<polygon fill="midnightblue" stroke="midnightblue" points="996.02,-217.44 988.07,-224.44 998.66,-223.92 996.02,-217.44"/>
</g>
<!-- Node27 -->
<g id="node27" class="node">
<title>Node27</title>
<g id="a_node27"><a xlink:href="../../d4/d57/eth__contract__curl__test_8cc.html" target="_top" xlink:title=" ">
<polygon fill="white" stroke="black" points="904,-168.5 904,-187.5 1030,-187.5 1030,-168.5 904,-168.5"/>
<text text-anchor="middle" x="967" y="-175.5" font-family="Helvetica,sans-Serif" font-size="10.00">eth_contract_curl_test.cc</text>
</a>
</g>
</g>
<!-- Node25&#45;&gt;Node27 -->
<g id="edge37" class="edge">
<title>Node25&#45;&gt;Node27</title>
<path fill="none" stroke="midnightblue" d="M967,-213.8C967,-204.91 967,-194.78 967,-187.75"/>
<polygon fill="midnightblue" stroke="midnightblue" points="963.5,-214.08 967,-224.08 970.5,-214.08 963.5,-214.08"/>
</g>
<!-- Node28&#45;&gt;Node26 -->
<g id="edge39" class="edge">
<title>Node28&#45;&gt;Node26</title>
<path fill="none" stroke="midnightblue" d="M1097.4,-214.1C1098.06,-205.14 1098.83,-194.86 1099.35,-187.75"/>
<polygon fill="midnightblue" stroke="midnightblue" points="1093.91,-213.85 1096.66,-224.08 1100.89,-214.37 1093.91,-213.85"/>
</g>
<!-- Node28&#45;&gt;Node27 -->
<g id="edge40" class="edge">
<title>Node28&#45;&gt;Node27</title>
<path fill="none" stroke="midnightblue" d="M1066.15,-220.5C1041.96,-210.38 1008.54,-196.39 987.34,-187.52"/>
<polygon fill="midnightblue" stroke="midnightblue" points="1064.98,-223.81 1075.56,-224.44 1067.69,-217.35 1064.98,-223.81"/>
</g>
<!-- Node29 -->
<g id="node29" class="node">
<title>Node29</title>
<g id="a_node29"><a xlink:href="../../da/d5c/eth__transaction_8cc.html" target="_top" xlink:title=" ">
<polygon fill="white" stroke="black" points="1170,-168.5 1170,-187.5 1266,-187.5 1266,-168.5 1170,-168.5"/>
<text text-anchor="middle" x="1218" y="-175.5" font-family="Helvetica,sans-Serif" font-size="10.00">eth_transaction.cc</text>
</a>
</g>
</g>
<!-- Node28&#45;&gt;Node29 -->
<g id="edge41" class="edge">
<title>Node28&#45;&gt;Node29</title>
<path fill="none" stroke="midnightblue" d="M1124.54,-220.37C1147.39,-210.26 1178.81,-196.35 1198.76,-187.52"/>
<polygon fill="midnightblue" stroke="midnightblue" points="1123.06,-217.2 1115.33,-224.44 1125.89,-223.6 1123.06,-217.2"/>
</g>
</g>
</svg>
        <g id="navigator" transform="translate(0 0)" fill="#404254">
                <rect fill="#f2f5e9" fill-opacity="0.5" stroke="#606060" stroke-width=".5" x="0" y="0" width="60" height="60"/>
                <use id="zoomplus" xlink:href="#zoomPlus" x="17" y="9" onmousedown="handleZoom(evt,'in')"/>
                <use id="zoomminus" xlink:href="#zoomMin" x="42" y="9" onmousedown="handleZoom(evt,'out')"/>
                <use id="reset" xlink:href="#resetDef" x="30" y="36" onmousedown="handleReset()"/>
                <g id="arrowUp" xlink:href="#dirArrow" transform="translate(30 24)" onmousedown="handlePan(0,-1)">
                  <use xlink:href="#rim" fill="#404040">
                        <set attributeName="fill" to="#808080" begin="arrowUp.mouseover" end="arrowUp.mouseout"/>
                  </use>
                  <path fill="none" stroke="white" stroke-width="1.5" d="M0,-3.0v7 M-2.5,-0.5L0,-3.0L2.5,-0.5"/>
                </g>
                <g id="arrowRight" xlink:href="#dirArrow" transform="rotate(90) translate(36 -43)" onmousedown="handlePan(1,0)">
                  <use xlink:href="#rim" fill="#404040">
                        <set attributeName="fill" to="#808080" begin="arrowRight.mouseover" end="arrowRight.mouseout"/>
                  </use>
                  <path fill="none" stroke="white" stroke-width="1.5" d="M0,-3.0v7 M-2.5,-0.5L0,-3.0L2.5,-0.5"/>
                </g>
                <g id="arrowDown" xlink:href="#dirArrow" transform="rotate(180) translate(-30 -48)" onmousedown="handlePan(0,1)">
                  <use xlink:href="#rim" fill="#404040">
                        <set attributeName="fill" to="#808080" begin="arrowDown.mouseover" end="arrowDown.mouseout"/>
                  </use>
                  <path fill="none" stroke="white" stroke-width="1.5" d="M0,-3.0v7 M-2.5,-0.5L0,-3.0L2.5,-0.5"/>
                </g>
                <g id="arrowLeft" xlink:href="#dirArrow" transform="rotate(270) translate(-36 17)" onmousedown="handlePan(-1,0)">
                  <use xlink:href="#rim" fill="#404040">
                        <set attributeName="fill" to="#808080" begin="arrowLeft.mouseover" end="arrowLeft.mouseout"/>
                  </use>
                  <path fill="none" stroke="white" stroke-width="1.5" d="M0,-3.0v7 M-2.5,-0.5L0,-3.0L2.5,-0.5"/>
                </g>
        </g>
        <svg viewBox="0 0 15 15" width="100%" height="30px" preserveAspectRatio="xMaxYMin meet">
         <g id="arrow_out" transform="scale(0.3 0.3)">
          <a xlink:href="status_8h__dep__incl_org.svg" target="_base">
           <rect id="button" ry="5" rx="5" y="6" x="6" height="38" width="38"
                fill="#f2f5e9" fill-opacity="0.5" stroke="#606060" stroke-width="1.0"/>
           <path id="arrow"
             d="M 11.500037,31.436501 C 11.940474,20.09759 22.043105,11.32322 32.158766,21.979434 L 37.068811,17.246167 C 37.068811,17.246167 37.088388,32 37.088388,32 L 22.160133,31.978069 C 22.160133,31.978069 26.997745,27.140456 26.997745,27.140456 C 18.528582,18.264221 13.291696,25.230495 11.500037,31.436501 z"
             style="fill:#404040;"/>
          </a>
         </g>
        </svg>
</svg>
