<?xml version="1.0" encoding="UTF-8" standalone="no"?>
<!DOCTYPE svg PUBLIC "-//W3C//DTD SVG 1.1//EN"
 "http://www.w3.org/Graphics/SVG/1.1/DTD/svg11.dtd">
<!-- Generated by graphviz version 2.42.3 ()
 -->
<!-- Title: automaton::core::testnet::testnet::connect Pages: 1 -->
<svg width="609pt" height="137pt"
 viewBox="0.00 0.00 609.00 137.00" xmlns="http://www.w3.org/2000/svg" xmlns:xlink="http://www.w3.org/1999/xlink">
<g id="graph0" class="graph" transform="scale(1 1) rotate(0) translate(4 133)">
<title>automaton::core::testnet::testnet::connect</title>
<polygon fill="white" stroke="transparent" points="-4,4 -4,-133 605,-133 605,4 -4,4"/>
<!-- Node1 -->
<g id="node1" class="node">
<title>Node1</title>
<g id="a_node1"><a xlink:title=" ">
<polygon fill="#bfbfbf" stroke="black" points="0,-49.5 0,-79.5 120,-79.5 120,-49.5 0,-49.5"/>
<text text-anchor="start" x="8" y="-67.5" font-family="Helvetica,sans-Serif" font-size="10.00">automaton::core::testnet</text>
<text text-anchor="middle" x="60" y="-56.5" font-family="Helvetica,sans-Serif" font-size="10.00">::testnet::connect</text>
</a>
</g>
</g>
<!-- Node2 -->
<g id="node2" class="node">
<title>Node2</title>
<g id="a_node2"><a xlink:href="../../da/d77/classautomaton_1_1core_1_1node_1_1node.html#a330e4e4689c4f671ebbbd98e9d16ce7b" target="_top" xlink:title=" ">
<polygon fill="white" stroke="black" points="156,-98.5 156,-128.5 267,-128.5 267,-98.5 156,-98.5"/>
<text text-anchor="start" x="164" y="-116.5" font-family="Helvetica,sans-Serif" font-size="10.00">automaton::core::node</text>
<text text-anchor="middle" x="211.5" y="-105.5" font-family="Helvetica,sans-Serif" font-size="10.00">::node::add_peer</text>
</a>
</g>
</g>
<!-- Node1&#45;&gt;Node2 -->
<g id="edge1" class="edge">
<title>Node1&#45;&gt;Node2</title>
<path fill="none" stroke="midnightblue" d="M107.07,-79.6C122.21,-84.56 139.19,-90.13 154.95,-95.29"/>
<polygon fill="midnightblue" stroke="midnightblue" points="153.98,-98.66 164.58,-98.45 156.16,-92.01 153.98,-98.66"/>
</g>
<!-- Node3 -->
<g id="node3" class="node">
<title>Node3</title>
<g id="a_node3"><a xlink:href="../../da/d77/classautomaton_1_1core_1_1node_1_1node.html#a77a97a5dbe4e5ec2f178d289c17cea4b" target="_top" xlink:title=" ">
<polygon fill="white" stroke="black" points="156,-49.5 156,-79.5 267,-79.5 267,-49.5 156,-49.5"/>
<text text-anchor="start" x="164" y="-67.5" font-family="Helvetica,sans-Serif" font-size="10.00">automaton::core::node</text>
<text text-anchor="middle" x="211.5" y="-56.5" font-family="Helvetica,sans-Serif" font-size="10.00">::node::connect</text>
</a>
</g>
</g>
<!-- Node1&#45;&gt;Node3 -->
<g id="edge2" class="edge">
<title>Node1&#45;&gt;Node3</title>
<path fill="none" stroke="midnightblue" d="M120.09,-64.5C128.44,-64.5 137.07,-64.5 145.53,-64.5"/>
<polygon fill="midnightblue" stroke="midnightblue" points="145.73,-68 155.73,-64.5 145.73,-61 145.73,-68"/>
</g>
<!-- Node7 -->
<g id="node7" class="node">
<title>Node7</title>
<g id="a_node7"><a xlink:href="../../da/d77/classautomaton_1_1core_1_1node_1_1node.html#ae5b38201631f538808e2fe50385613d0" target="_top" xlink:title=" ">
<polygon fill="white" stroke="black" points="156,-0.5 156,-30.5 267,-30.5 267,-0.5 156,-0.5"/>
<text text-anchor="start" x="164" y="-18.5" font-family="Helvetica,sans-Serif" font-size="10.00">automaton::core::node</text>
<text text-anchor="middle" x="211.5" y="-7.5" font-family="Helvetica,sans-Serif" font-size="10.00">::node::get_node</text>
</a>
</g>
</g>
<!-- Node1&#45;&gt;Node7 -->
<g id="edge7" class="edge">
<title>Node1&#45;&gt;Node7</title>
<path fill="none" stroke="midnightblue" d="M107.07,-49.4C122.21,-44.44 139.19,-38.87 154.95,-33.71"/>
<polygon fill="midnightblue" stroke="midnightblue" points="156.16,-36.99 164.58,-30.55 153.98,-30.34 156.16,-36.99"/>
</g>
<!-- Node4 -->
<g id="node4" class="node">
<title>Node4</title>
<g id="a_node4"><a xlink:href="../../da/d6a/structautomaton_1_1core_1_1common_1_1status.html#ac800f84c2b44b50f51806a4ddb11e07d" target="_top" xlink:title=" ">
<polygon fill="white" stroke="black" points="306,-73.5 306,-103.5 434,-103.5 434,-73.5 306,-73.5"/>
<text text-anchor="start" x="314" y="-91.5" font-family="Helvetica,sans-Serif" font-size="10.00">automaton::core::common</text>
<text text-anchor="middle" x="370" y="-80.5" font-family="Helvetica,sans-Serif" font-size="10.00">::status::canceled</text>
</a>
</g>
</g>
<!-- Node3&#45;&gt;Node4 -->
<g id="edge3" class="edge">
<title>Node3&#45;&gt;Node4</title>
<path fill="none" stroke="midnightblue" d="M267.24,-72.89C276.53,-74.32 286.3,-75.82 295.97,-77.3"/>
<polygon fill="midnightblue" stroke="midnightblue" points="295.57,-80.78 305.99,-78.84 296.63,-73.86 295.57,-80.78"/>
</g>
<!-- Node6 -->
<g id="node6" class="node">
<title>Node6</title>
<g id="a_node6"><a xlink:href="../../da/d6a/structautomaton_1_1core_1_1common_1_1status.html#aa35eacdb95167b5db1cff056c0e42522" target="_top" xlink:title=" ">
<polygon fill="white" stroke="black" points="303,-24.5 303,-54.5 437,-54.5 437,-24.5 303,-24.5"/>
<text text-anchor="start" x="311" y="-42.5" font-family="Helvetica,sans-Serif" font-size="10.00">automaton::core::common</text>
<text text-anchor="middle" x="370" y="-31.5" font-family="Helvetica,sans-Serif" font-size="10.00">::status::failed_precondition</text>
</a>
</g>
</g>
<!-- Node3&#45;&gt;Node6 -->
<g id="edge5" class="edge">
<title>Node3&#45;&gt;Node6</title>
<path fill="none" stroke="midnightblue" d="M267.24,-55.76C275.54,-54.43 284.22,-53.04 292.88,-51.66"/>
<polygon fill="midnightblue" stroke="midnightblue" points="293.67,-55.08 302.99,-50.04 292.57,-48.17 293.67,-55.08"/>
</g>
<!-- Node5 -->
<g id="node5" class="node">
<title>Node5</title>
<g id="a_node5"><a xlink:href="../../da/d6a/structautomaton_1_1core_1_1common_1_1status.html#ab1096af0cf8847d8a8f08e25afa5a61b" target="_top" xlink:title=" ">
<polygon fill="white" stroke="black" points="473,-48.5 473,-78.5 601,-78.5 601,-48.5 473,-48.5"/>
<text text-anchor="start" x="481" y="-66.5" font-family="Helvetica,sans-Serif" font-size="10.00">automaton::core::common</text>
<text text-anchor="middle" x="537" y="-55.5" font-family="Helvetica,sans-Serif" font-size="10.00">::status::status</text>
</a>
</g>
</g>
<!-- Node4&#45;&gt;Node5 -->
<g id="edge4" class="edge">
<title>Node4&#45;&gt;Node5</title>
<path fill="none" stroke="midnightblue" d="M434.32,-78.91C443.6,-77.5 453.22,-76.04 462.67,-74.61"/>
<polygon fill="midnightblue" stroke="midnightblue" points="463.49,-78.03 472.85,-73.07 462.44,-71.11 463.49,-78.03"/>
</g>
<!-- Node6&#45;&gt;Node5 -->
<g id="edge6" class="edge">
<title>Node6&#45;&gt;Node5</title>
<path fill="none" stroke="midnightblue" d="M437.16,-49.12C445.6,-50.35 454.28,-51.61 462.83,-52.86"/>
<polygon fill="midnightblue" stroke="midnightblue" points="462.37,-56.33 472.77,-54.3 463.38,-49.4 462.37,-56.33"/>
</g>
</g>
</svg>
