<?xml version="1.0" encoding="UTF-8" standalone="no"?>
<!DOCTYPE svg PUBLIC "-//W3C//DTD SVG 1.1//EN"
 "http://www.w3.org/Graphics/SVG/1.1/DTD/svg11.dtd">
<!-- Generated by graphviz version 2.42.3 ()
 -->
<!-- Title: tools Pages: 1 -->
<svg width="182pt" height="159pt"
 viewBox="0.00 0.00 182.00 159.00" xmlns="http://www.w3.org/2000/svg" xmlns:xlink="http://www.w3.org/1999/xlink">
<g id="graph0" class="graph" transform="scale(1 1) rotate(0) translate(4 155)">
<title>tools</title>
<polygon fill="white" stroke="transparent" points="-4,4 -4,-155 178,-155 178,4 -4,4"/>
<g id="clust1" class="cluster">
<title>clusterdir_52fe700254fc8cfd43c0ea862c137738</title>
<g id="a_clust1"><a xlink:href="dir_52fe700254fc8cfd43c0ea862c137738.html" target="_top" xlink:title="automaton">
<polygon fill="#ddddee" stroke="black" points="8,-56 8,-143 166,-143 166,-56 8,-56"/>
<text text-anchor="middle" x="87" y="-131" font-family="Helvetica,sans-Serif" font-size="10.00">automaton</text>
</a>
</g>
</g>
<g id="clust2" class="cluster">
<title>clusterdir_da36cd6bcc50cd53e2b5b52207fc4c7c</title>
<g id="a_clust2"><a xlink:href="dir_da36cd6bcc50cd53e2b5b52207fc4c7c.html" target="_top">
<polygon fill="#eeeeff" stroke="black" points="16,-64 16,-116 158,-116 158,-64 16,-64"/>
</a>
</g>
</g>
<!-- dir_da36cd6bcc50cd53e2b5b52207fc4c7c -->
<g id="node1" class="node">
<title>dir_da36cd6bcc50cd53e2b5b52207fc4c7c</title>
<text text-anchor="middle" x="123" y="-87.5" font-family="Helvetica,sans-Serif" font-size="10.00">tools</text>
</g>
<!-- dir_1efca3d3def49304d84d35ba7a4ef91d -->
<g id="node2" class="node">
<title>dir_1efca3d3def49304d84d35ba7a4ef91d</title>
<g id="a_node2"><a xlink:href="dir_1efca3d3def49304d84d35ba7a4ef91d.html" target="_top" xlink:title="miner">
<polygon fill="white" stroke="black" points="78,-108 24,-108 24,-72 78,-72 78,-108"/>
<text text-anchor="middle" x="51" y="-87.5" font-family="Helvetica,sans-Serif" font-size="10.00">miner</text>
</a>
</g>
</g>
<!-- dir_8d80aafdcaa0a6af05a7a42a9beaf0b1 -->
<g id="node3" class="node">
<title>dir_8d80aafdcaa0a6af05a7a42a9beaf0b1</title>
<g id="a_node3"><a xlink:href="dir_8d80aafdcaa0a6af05a7a42a9beaf0b1.html" target="_top" xlink:title="core">
<polygon fill="white" stroke="red" points="78,-36 24,-36 24,0 78,0 78,-36"/>
<text text-anchor="middle" x="51" y="-15.5" font-family="Helvetica,sans-Serif" font-size="10.00">core</text>
</a>
</g>
</g>
<!-- dir_1efca3d3def49304d84d35ba7a4ef91d&#45;&gt;dir_8d80aafdcaa0a6af05a7a42a9beaf0b1 -->
<g id="edge1" class="edge">
<title>dir_1efca3d3def49304d84d35ba7a4ef91d&#45;&gt;dir_8d80aafdcaa0a6af05a7a42a9beaf0b1</title>
<path fill="none" stroke="black" d="M45.08,-71.7C44.29,-63.98 44.06,-54.71 44.4,-46.11"/>
<polygon fill="black" stroke="black" points="47.9,-46.32 45.1,-36.1 40.92,-45.84 47.9,-46.32"/>
<g id="a_edge1&#45;headlabel"><a xlink:href="dir_000017_000001.html" target="_top" xlink:title="2">
<text text-anchor="middle" x="50.48" y="-47.61" font-family="Helvetica,sans-Serif" font-size="10.00">2</text>
</a>
</g>
</g>
<!-- dir_8d80aafdcaa0a6af05a7a42a9beaf0b1&#45;&gt;dir_1efca3d3def49304d84d35ba7a4ef91d -->
<g id="edge2" class="edge">
<title>dir_8d80aafdcaa0a6af05a7a42a9beaf0b1&#45;&gt;dir_1efca3d3def49304d84d35ba7a4ef91d</title>
<path fill="none" stroke="black" d="M56.9,-36.1C57.7,-43.79 57.94,-53.05 57.6,-61.67"/>
<polygon fill="black" stroke="black" points="54.11,-61.48 56.92,-71.7 61.09,-61.96 54.11,-61.48"/>
<g id="a_edge2&#45;headlabel"><a xlink:href="dir_000001_000017.html" target="_top" xlink:title="1">
<text text-anchor="middle" x="51.52" y="-55.2" font-family="Helvetica,sans-Serif" font-size="10.00">1</text>
</a>
</g>
</g>
</g>
</svg>
