<?xml version="1.0" encoding="UTF-8" standalone="no"?>
<!DOCTYPE svg PUBLIC "-//W3C//DTD SVG 1.1//EN"
 "http://www.w3.org/Graphics/SVG/1.1/DTD/svg11.dtd">
<!-- Generated by graphviz version 2.42.3 ()
 -->
<!-- Title: smartproto Pages: 1 -->
<svg width="110pt" height="223pt"
 viewBox="0.00 0.00 110.00 223.00" xmlns="http://www.w3.org/2000/svg" xmlns:xlink="http://www.w3.org/1999/xlink">
<g id="graph0" class="graph" transform="scale(1 1) rotate(0) translate(4 219)">
<title>smartproto</title>
<polygon fill="white" stroke="transparent" points="-4,4 -4,-219 106,-219 106,4 -4,4"/>
<g id="clust1" class="cluster">
<title>clusterdir_8d80aafdcaa0a6af05a7a42a9beaf0b1</title>
<g id="a_clust1"><a xlink:href="dir_8d80aafdcaa0a6af05a7a42a9beaf0b1.html" target="_top" xlink:title="core">
<polygon fill="#ddddee" stroke="black" points="8,-136 8,-207 88,-207 88,-136 8,-136"/>
<text text-anchor="middle" x="48" y="-195" font-family="Helvetica,sans-Serif" font-size="10.00">core</text>
</a>
</g>
</g>
<!-- dir_1d510aedf8639b386e427d7e4263a0dc -->
<g id="node1" class="node">
<title>dir_1d510aedf8639b386e427d7e4263a0dc</title>
<g id="a_node1"><a xlink:href="dir_1d510aedf8639b386e427d7e4263a0dc.html" target="_top" xlink:title="smartproto">
<polygon fill="#eeeeff" stroke="black" points="79.5,-180 16.5,-180 16.5,-144 79.5,-144 79.5,-180"/>
<text text-anchor="middle" x="48" y="-159.5" font-family="Helvetica,sans-Serif" font-size="10.00">smartproto</text>
</a>
</g>
</g>
<!-- dir_96fabefd09c3de0255b20d9eb540d6e1 -->
<g id="node2" class="node">
<title>dir_96fabefd09c3de0255b20d9eb540d6e1</title>
<g id="a_node2"><a xlink:href="dir_96fabefd09c3de0255b20d9eb540d6e1.html" target="_top" xlink:title="io">
<polygon fill="none" stroke="black" points="74,-36 20,-36 20,0 74,0 74,-36"/>
<text text-anchor="middle" x="47" y="-15.5" font-family="Helvetica,sans-Serif" font-size="10.00">io</text>
</a>
</g>
</g>
<!-- dir_1d510aedf8639b386e427d7e4263a0dc&#45;&gt;dir_96fabefd09c3de0255b20d9eb540d6e1 -->
<g id="edge2" class="edge">
<title>dir_1d510aedf8639b386e427d7e4263a0dc&#45;&gt;dir_96fabefd09c3de0255b20d9eb540d6e1</title>
<path fill="none" stroke="black" d="M44.35,-143.91C42.32,-133.57 40.02,-120.09 39,-108 37.66,-92.06 37.8,-87.96 39,-72 39.64,-63.52 40.84,-54.34 42.12,-46.04"/>
<polygon fill="black" stroke="black" points="45.58,-46.55 43.75,-36.11 38.68,-45.41 45.58,-46.55"/>
<g id="a_edge2&#45;headlabel"><a xlink:href="dir_000019_000004.html" target="_top" xlink:title="1">
<text text-anchor="middle" x="47.8" y="-48.05" font-family="Helvetica,sans-Serif" font-size="10.00">1</text>
</a>
</g>
</g>
<!-- dir_f4f24c2cddf70a18eacccc8fe1725ace -->
<g id="node3" class="node">
<title>dir_f4f24c2cddf70a18eacccc8fe1725ace</title>
<g id="a_node3"><a xlink:href="dir_f4f24c2cddf70a18eacccc8fe1725ace.html" target="_top" xlink:title="data">
<polygon fill="white" stroke="red" points="102,-108 48,-108 48,-72 102,-72 102,-108"/>
<text text-anchor="middle" x="75" y="-87.5" font-family="Helvetica,sans-Serif" font-size="10.00">data</text>
</a>
</g>
</g>
<!-- dir_1d510aedf8639b386e427d7e4263a0dc&#45;&gt;dir_f4f24c2cddf70a18eacccc8fe1725ace -->
<g id="edge3" class="edge">
<title>dir_1d510aedf8639b386e427d7e4263a0dc&#45;&gt;dir_f4f24c2cddf70a18eacccc8fe1725ace</title>
<path fill="none" stroke="black" d="M54.67,-143.7C57.71,-135.81 61.38,-126.3 64.76,-117.55"/>
<polygon fill="black" stroke="black" points="68.07,-118.69 68.4,-108.1 61.54,-116.17 68.07,-118.69"/>
<g id="a_edge3&#45;headlabel"><a xlink:href="dir_000019_000007.html" target="_top" xlink:title="4">
<text text-anchor="middle" x="69.42" y="-120.57" font-family="Helvetica,sans-Serif" font-size="10.00">4</text>
</a>
</g>
</g>
<!-- dir_f4f24c2cddf70a18eacccc8fe1725ace&#45;&gt;dir_96fabefd09c3de0255b20d9eb540d6e1 -->
<g id="edge1" class="edge">
<title>dir_f4f24c2cddf70a18eacccc8fe1725ace&#45;&gt;dir_96fabefd09c3de0255b20d9eb540d6e1</title>
<path fill="none" stroke="black" d="M68.08,-71.7C64.93,-63.81 61.12,-54.3 57.62,-45.55"/>
<polygon fill="black" stroke="black" points="60.81,-44.09 53.84,-36.1 54.31,-46.69 60.81,-44.09"/>
<g id="a_edge1&#45;headlabel"><a xlink:href="dir_000007_000004.html" target="_top" xlink:title="3">
<text text-anchor="middle" x="64.78" y="-43.87" font-family="Helvetica,sans-Serif" font-size="10.00">3</text>
</a>
</g>
</g>
</g>
</svg>
