<?xml version="1.0" encoding="UTF-8" standalone="no"?>
<!DOCTYPE svg PUBLIC "-//W3C//DTD SVG 1.1//EN"
 "http://www.w3.org/Graphics/SVG/1.1/DTD/svg11.dtd">
<!-- Generated by graphviz version 2.44.0 ()
 -->
<!-- Title: state Pages: 1 -->
<svg width="162pt" height="223pt"
 viewBox="0.00 0.00 162.00 223.00" xmlns="http://www.w3.org/2000/svg" xmlns:xlink="http://www.w3.org/1999/xlink">
<g id="graph0" class="graph" transform="scale(1 1) rotate(0) translate(4 219)">
<title>state</title>
<polygon fill="white" stroke="transparent" points="-4,4 -4,-219 158,-219 158,4 -4,4"/>
<g id="clust1" class="cluster">
<title>clusterdir_8d80aafdcaa0a6af05a7a42a9beaf0b1</title>
<g id="a_clust1"><a xlink:href="dir_8d80aafdcaa0a6af05a7a42a9beaf0b1.html" target="_top" xlink:title="core">
<polygon fill="#ddddee" stroke="black" points="20,-136 20,-207 90,-207 90,-136 20,-136"/>
<text text-anchor="middle" x="55" y="-195" font-family="Helvetica,sans-Serif" font-size="10.00">core</text>
</a>
</g>
</g>
<!-- dir_c44661062b669a5bf58176f80a2c1ac7 -->
<g id="node1" class="node">
<title>dir_c44661062b669a5bf58176f80a2c1ac7</title>
<g id="a_node1"><a xlink:href="dir_c44661062b669a5bf58176f80a2c1ac7.html" target="_top" xlink:title="state">
<polygon fill="#eeeeff" stroke="black" points="82,-180 28,-180 28,-144 82,-144 82,-180"/>
<text text-anchor="middle" x="55" y="-159.5" font-family="Helvetica,sans-Serif" font-size="10.00">state</text>
</a>
</g>
</g>
<!-- dir_96fabefd09c3de0255b20d9eb540d6e1 -->
<g id="node2" class="node">
<title>dir_96fabefd09c3de0255b20d9eb540d6e1</title>
<g id="a_node2"><a xlink:href="dir_96fabefd09c3de0255b20d9eb540d6e1.html" target="_top" xlink:title="io">
<polygon fill="none" stroke="black" points="54,-36 0,-36 0,0 54,0 54,-36"/>
<text text-anchor="middle" x="27" y="-15.5" font-family="Helvetica,sans-Serif" font-size="10.00">io</text>
</a>
</g>
</g>
<!-- dir_c44661062b669a5bf58176f80a2c1ac7&#45;&gt;dir_96fabefd09c3de0255b20d9eb540d6e1 -->
<g id="edge2" class="edge">
<title>dir_c44661062b669a5bf58176f80a2c1ac7&#45;&gt;dir_96fabefd09c3de0255b20d9eb540d6e1</title>
<path fill="none" stroke="black" d="M39.39,-143.77C31.63,-134.03 23.05,-121.18 19,-108 12.79,-87.8 15.45,-63.89 19.31,-45.94"/>
<polygon fill="black" stroke="black" points="22.73,-46.67 21.66,-36.13 15.92,-45.04 22.73,-46.67"/>
<g id="a_edge2&#45;headlabel"><a xlink:href="dir_000009_000004.html" target="_top" xlink:title="2">
<text text-anchor="middle" x="24.66" y="-48.33" font-family="Helvetica,sans-Serif" font-size="10.00">2</text>
</a>
</g>
</g>
<!-- dir_32f1d6ce0500d678e0a2fe6a432ebe8e -->
<g id="node3" class="node">
<title>dir_32f1d6ce0500d678e0a2fe6a432ebe8e</title>
<g id="a_node3"><a xlink:href="dir_32f1d6ce0500d678e0a2fe6a432ebe8e.html" target="_top" xlink:title="crypto">
<polygon fill="white" stroke="red" points="82,-108 28,-108 28,-72 82,-72 82,-108"/>
<text text-anchor="middle" x="55" y="-87.5" font-family="Helvetica,sans-Serif" font-size="10.00">crypto</text>
</a>
</g>
</g>
<!-- dir_c44661062b669a5bf58176f80a2c1ac7&#45;&gt;dir_32f1d6ce0500d678e0a2fe6a432ebe8e -->
<g id="edge3" class="edge">
<title>dir_c44661062b669a5bf58176f80a2c1ac7&#45;&gt;dir_32f1d6ce0500d678e0a2fe6a432ebe8e</title>
<path fill="none" stroke="black" d="M55,-143.7C55,-135.98 55,-126.71 55,-118.11"/>
<polygon fill="black" stroke="black" points="58.5,-118.1 55,-108.1 51.5,-118.1 58.5,-118.1"/>
<g id="a_edge3&#45;headlabel"><a xlink:href="dir_000009_000008.html" target="_top" xlink:title="5">
<text text-anchor="middle" x="61.34" y="-119.2" font-family="Helvetica,sans-Serif" font-size="10.00">5</text>
</a>
</g>
</g>
<!-- dir_6462e373db8c121b2e9263ca689e3fee -->
<g id="node4" class="node">
<title>dir_6462e373db8c121b2e9263ca689e3fee</title>
<g id="a_node4"><a xlink:href="dir_6462e373db8c121b2e9263ca689e3fee.html" target="_top" xlink:title="storage">
<polygon fill="none" stroke="black" points="154,-108 100,-108 100,-72 154,-72 154,-108"/>
<text text-anchor="middle" x="127" y="-87.5" font-family="Helvetica,sans-Serif" font-size="10.00">storage</text>
</a>
</g>
</g>
<!-- dir_c44661062b669a5bf58176f80a2c1ac7&#45;&gt;dir_6462e373db8c121b2e9263ca689e3fee -->
<g id="edge4" class="edge">
<title>dir_c44661062b669a5bf58176f80a2c1ac7&#45;&gt;dir_6462e373db8c121b2e9263ca689e3fee</title>
<path fill="none" stroke="black" d="M72.8,-143.7C81.6,-135.14 92.38,-124.66 102,-115.3"/>
<polygon fill="black" stroke="black" points="104.68,-117.58 109.41,-108.1 99.8,-112.57 104.68,-117.58"/>
<g id="a_edge4&#45;headlabel"><a xlink:href="dir_000009_000005.html" target="_top" xlink:title="2">
<text text-anchor="middle" x="104.08" y="-119.63" font-family="Helvetica,sans-Serif" font-size="10.00">2</text>
</a>
</g>
</g>
<!-- dir_32f1d6ce0500d678e0a2fe6a432ebe8e&#45;&gt;dir_96fabefd09c3de0255b20d9eb540d6e1 -->
<g id="edge1" class="edge">
<title>dir_32f1d6ce0500d678e0a2fe6a432ebe8e&#45;&gt;dir_96fabefd09c3de0255b20d9eb540d6e1</title>
<path fill="none" stroke="black" d="M48.08,-71.7C44.93,-63.81 41.12,-54.3 37.62,-45.55"/>
<polygon fill="black" stroke="black" points="40.81,-44.09 33.84,-36.1 34.31,-46.69 40.81,-44.09"/>
<g id="a_edge1&#45;headlabel"><a xlink:href="dir_000008_000004.html" target="_top" xlink:title="3">
<text text-anchor="middle" x="44.78" y="-43.87" font-family="Helvetica,sans-Serif" font-size="10.00">3</text>
</a>
</g>
</g>
</g>
</svg>
