<?xml version="1.0" encoding="UTF-8" standalone="no"?>
<!DOCTYPE svg PUBLIC "-//W3C//DTD SVG 1.1//EN"
 "http://www.w3.org/Graphics/SVG/1.1/DTD/svg11.dtd">
<!-- Generated by graphviz version 2.42.3 ()
 -->
<!-- Title: core Pages: 1 -->
<!--zoomable 543 -->
<svg id="main" version="1.1" xmlns="http://www.w3.org/2000/svg" xmlns:xlink="http://www.w3.org/1999/xlink" xml:space="preserve" onload="init(evt)">
<style type="text/css"><![CDATA[
.edge:hover path { stroke: red; }
.edge:hover polygon { stroke: red; fill: red; }
]]></style>
<script type="text/javascript"><![CDATA[
var edges = document.getElementsByTagName('g');
if (edges && edges.length) {
  for (var i=0;i<edges.length;i++) {
    if (edges[i].id.substr(0,4)=='edge') {
      edges[i].setAttribute('class','edge');
    }
  }
}
]]></script>
        <defs>
                <circle id="rim" cx="0" cy="0" r="7"/>
                <circle id="rim2" cx="0" cy="0" r="3.5"/>
                <g id="zoomPlus">
                        <use xlink:href="#rim" fill="#404040">
                                <set attributeName="fill" to="#808080" begin="zoomplus.mouseover" end="zoomplus.mouseout"/>
                        </use>
                        <path d="M-4,0h8M0,-4v8" fill="none" stroke="white" stroke-width="1.5" pointer-events="none"/>
                </g>
                <g id="zoomMin">
                        <use xlink:href="#rim" fill="#404040">
                                <set attributeName="fill" to="#808080" begin="zoomminus.mouseover" end="zoomminus.mouseout"/>
                        </use>
                        <path d="M-4,0h8" fill="none" stroke="white" stroke-width="1.5" pointer-events="none"/>
                </g>
                <g id="dirArrow">
                        <path fill="none" stroke="white" stroke-width="1.5" d="M0,-3.0v7 M-2.5,-0.5L0,-3.0L2.5,-0.5"/>
                </g>
               <g id="resetDef">
                       <use xlink:href="#rim2" fill="#404040">
                               <set attributeName="fill" to="#808080" begin="reset.mouseover" end="reset.mouseout"/>
                       </use>
               </g>
        </defs>

<script type="text/javascript">
var viewWidth = 590;
var viewHeight = 543;
var sectionId = 'dynsection-0';
</script>
<script xlink:href="svgpan.js"/>
<svg id="graph" class="graph">
<g id="viewport">
<title>core</title>
<polygon fill="white" stroke="transparent" points="-4,4 -4,-539 586,-539 586,4 -4,4"/>
<g id="clust1" class="cluster">
<title>clusterdir_52fe700254fc8cfd43c0ea862c137738</title>
<g id="a_clust1"><a xlink:href="dir_52fe700254fc8cfd43c0ea862c137738.html" target="_top" xlink:title="automaton">
<polygon fill="#ddddee" stroke="black" points="8,-8 8,-527 520,-527 520,-8 8,-8"/>
<text text-anchor="middle" x="264" y="-515" font-family="Helvetica,sans-Serif" font-size="10.00">automaton</text>
</a>
</g>
</g>
<g id="clust2" class="cluster">
<title>clusterdir_8d80aafdcaa0a6af05a7a42a9beaf0b1</title>
<g id="a_clust2"><a xlink:href="dir_8d80aafdcaa0a6af05a7a42a9beaf0b1.html" target="_top">
<polygon fill="#eeeeff" stroke="black" points="16,-16 16,-500 512,-500 512,-16 16,-16"/>
</a>
</g>
</g>
<!-- dir_8d80aafdcaa0a6af05a7a42a9beaf0b1 -->
<g id="node1" class="node">
<title>dir_8d80aafdcaa0a6af05a7a42a9beaf0b1</title>
<text text-anchor="middle" x="322" y="-471.5" font-family="Helvetica,sans-Serif" font-size="10.00">core</text>
</g>
<!-- dir_cd77cef4f4777ed25ad5200cdac5dccb -->
<g id="node2" class="node">
<title>dir_cd77cef4f4777ed25ad5200cdac5dccb</title>
<g id="a_node2"><a xlink:href="dir_cd77cef4f4777ed25ad5200cdac5dccb.html" target="_top" xlink:title="cli">
<polygon fill="white" stroke="black" points="78,-420 24,-420 24,-384 78,-384 78,-420"/>
<text text-anchor="middle" x="51" y="-399.5" font-family="Helvetica,sans-Serif" font-size="10.00">cli</text>
</a>
</g>
</g>
<!-- dir_8d80aafdcaa0a6af05a7a42a9beaf0b1&#45;&gt;dir_cd77cef4f4777ed25ad5200cdac5dccb -->
<g id="edge33" class="edge">
<title>dir_8d80aafdcaa0a6af05a7a42a9beaf0b1&#45;&gt;dir_cd77cef4f4777ed25ad5200cdac5dccb</title>
<path fill="none" stroke="black" d="M294.69,-468.24C251.21,-460.31 163.81,-442.98 92,-420 90.58,-419.54 89.14,-419.06 87.69,-418.56"/>
<polygon fill="black" stroke="black" points="88.7,-415.2 78.11,-414.98 86.26,-421.76 88.7,-415.2"/>
<g id="a_edge33&#45;headlabel"><a xlink:href="dir_000001_000006.html" target="_top" xlink:title="1">
<text text-anchor="middle" x="93.06" y="-411.3" font-family="Helvetica,sans-Serif" font-size="10.00">1</text>
</a>
</g>
</g>
<!-- dir_bc3783d64b79e6e31311852f439151cc -->
<g id="node3" class="node">
<title>dir_bc3783d64b79e6e31311852f439151cc</title>
<g id="a_node3"><a xlink:href="dir_bc3783d64b79e6e31311852f439151cc.html" target="_top" xlink:title="common">
<polygon fill="white" stroke="black" points="262,-204 208,-204 208,-168 262,-168 262,-204"/>
<text text-anchor="middle" x="235" y="-183.5" font-family="Helvetica,sans-Serif" font-size="10.00">common</text>
</a>
</g>
</g>
<!-- dir_8d80aafdcaa0a6af05a7a42a9beaf0b1&#45;&gt;dir_bc3783d64b79e6e31311852f439151cc -->
<g id="edge31" class="edge">
<title>dir_8d80aafdcaa0a6af05a7a42a9beaf0b1&#45;&gt;dir_bc3783d64b79e6e31311852f439151cc</title>
<path fill="none" stroke="black" d="M294.76,-458.55C260.77,-438.78 204.29,-399.76 181,-348 160.22,-301.8 191.67,-245.08 214.59,-212.78"/>
<polygon fill="black" stroke="black" points="217.69,-214.48 220.78,-204.34 212.04,-210.34 217.69,-214.48"/>
<g id="a_edge31&#45;headlabel"><a xlink:href="dir_000001_000020.html" target="_top" xlink:title="4">
<text text-anchor="middle" x="217.85" y="-216.56" font-family="Helvetica,sans-Serif" font-size="10.00">4</text>
</a>
</g>
</g>
<!-- dir_f4f24c2cddf70a18eacccc8fe1725ace -->
<g id="node5" class="node">
<title>dir_f4f24c2cddf70a18eacccc8fe1725ace</title>
<g id="a_node5"><a xlink:href="dir_f4f24c2cddf70a18eacccc8fe1725ace.html" target="_top" xlink:title="data">
<polygon fill="white" stroke="red" points="394,-132 340,-132 340,-96 394,-96 394,-132"/>
<text text-anchor="middle" x="367" y="-111.5" font-family="Helvetica,sans-Serif" font-size="10.00">data</text>
</a>
</g>
</g>
<!-- dir_8d80aafdcaa0a6af05a7a42a9beaf0b1&#45;&gt;dir_f4f24c2cddf70a18eacccc8fe1725ace -->
<g id="edge32" class="edge">
<title>dir_8d80aafdcaa0a6af05a7a42a9beaf0b1&#45;&gt;dir_f4f24c2cddf70a18eacccc8fe1725ace</title>
<path fill="none" stroke="black" d="M349.13,-467.24C373.5,-460.47 407.84,-446.61 424,-420 452.53,-373.02 399.35,-207.11 376.6,-141.75"/>
<polygon fill="black" stroke="black" points="379.85,-140.43 373.23,-132.16 373.25,-142.75 379.85,-140.43"/>
<g id="a_edge32&#45;headlabel"><a xlink:href="dir_000001_000007.html" target="_top" xlink:title="24">
<text text-anchor="middle" x="383.72" y="-140.38" font-family="Helvetica,sans-Serif" font-size="10.00">24</text>
</a>
</g>
</g>
<!-- dir_96fabefd09c3de0255b20d9eb540d6e1 -->
<g id="node7" class="node">
<title>dir_96fabefd09c3de0255b20d9eb540d6e1</title>
<g id="a_node7"><a xlink:href="dir_96fabefd09c3de0255b20d9eb540d6e1.html" target="_top" xlink:title="io">
<polygon fill="white" stroke="black" points="348,-60 294,-60 294,-24 348,-24 348,-60"/>
<text text-anchor="middle" x="321" y="-39.5" font-family="Helvetica,sans-Serif" font-size="10.00">io</text>
</a>
</g>
</g>
<!-- dir_8d80aafdcaa0a6af05a7a42a9beaf0b1&#45;&gt;dir_96fabefd09c3de0255b20d9eb540d6e1 -->
<g id="edge27" class="edge">
<title>dir_8d80aafdcaa0a6af05a7a42a9beaf0b1&#45;&gt;dir_96fabefd09c3de0255b20d9eb540d6e1</title>
<path fill="none" stroke="black" d="M294.99,-464.83C269.45,-456.27 230.85,-441.12 202,-420 93.59,-340.63 -30.98,-285.04 35,-168 85.42,-78.57 217.85,-53.05 283.29,-45.82"/>
<polygon fill="black" stroke="black" points="283.98,-49.27 293.57,-44.77 283.27,-42.3 283.98,-49.27"/>
<g id="a_edge27&#45;headlabel"><a xlink:href="dir_000001_000004.html" target="_top" xlink:title="28">
<text text-anchor="middle" x="280.69" y="-49.96" font-family="Helvetica,sans-Serif" font-size="10.00">28</text>
</a>
</g>
</g>
<!-- dir_a3c6922b12177c4242bd88d95fff2ca6 -->
<g id="node8" class="node">
<title>dir_a3c6922b12177c4242bd88d95fff2ca6</title>
<g id="a_node8"><a xlink:href="dir_a3c6922b12177c4242bd88d95fff2ca6.html" target="_top" xlink:title="network">
<polygon fill="white" stroke="black" points="290,-276 236,-276 236,-240 290,-240 290,-276"/>
<text text-anchor="middle" x="263" y="-255.5" font-family="Helvetica,sans-Serif" font-size="10.00">network</text>
</a>
</g>
</g>
<!-- dir_8d80aafdcaa0a6af05a7a42a9beaf0b1&#45;&gt;dir_a3c6922b12177c4242bd88d95fff2ca6 -->
<g id="edge30" class="edge">
<title>dir_8d80aafdcaa0a6af05a7a42a9beaf0b1&#45;&gt;dir_a3c6922b12177c4242bd88d95fff2ca6</title>
<path fill="none" stroke="black" d="M317.27,-455.85C307.04,-418.75 282.8,-330.81 270.47,-286.1"/>
<polygon fill="black" stroke="black" points="273.78,-284.94 267.75,-276.23 267.03,-286.8 273.78,-284.94"/>
<g id="a_edge30&#45;headlabel"><a xlink:href="dir_000001_000002.html" target="_top" xlink:title="10">
<text text-anchor="middle" x="277.48" y="-285.15" font-family="Helvetica,sans-Serif" font-size="10.00">10</text>
</a>
</g>
</g>
<!-- dir_0f7e8ab88896c08565e1195e77bf83bb -->
<g id="node9" class="node">
<title>dir_0f7e8ab88896c08565e1195e77bf83bb</title>
<g id="a_node9"><a xlink:href="dir_0f7e8ab88896c08565e1195e77bf83bb.html" target="_top" xlink:title="node">
<polygon fill="white" stroke="red" points="408,-348 354,-348 354,-312 408,-312 408,-348"/>
<text text-anchor="middle" x="381" y="-327.5" font-family="Helvetica,sans-Serif" font-size="10.00">node</text>
</a>
</g>
</g>
<!-- dir_8d80aafdcaa0a6af05a7a42a9beaf0b1&#45;&gt;dir_0f7e8ab88896c08565e1195e77bf83bb -->
<g id="edge29" class="edge">
<title>dir_8d80aafdcaa0a6af05a7a42a9beaf0b1&#45;&gt;dir_0f7e8ab88896c08565e1195e77bf83bb</title>
<path fill="none" stroke="black" d="M326.78,-455.94C332.09,-437.77 341.34,-408.34 352,-384 355.91,-375.07 360.81,-365.63 365.46,-357.23"/>
<polygon fill="black" stroke="black" points="368.65,-358.7 370.54,-348.28 362.56,-355.25 368.65,-358.7"/>
<g id="a_edge29&#45;headlabel"><a xlink:href="dir_000001_000014.html" target="_top" xlink:title="4">
<text text-anchor="middle" x="369.35" y="-360.73" font-family="Helvetica,sans-Serif" font-size="10.00">4</text>
</a>
</g>
</g>
<!-- dir_d31de1fe4d82f83af666ab955afda554 -->
<g id="node10" class="node">
<title>dir_d31de1fe4d82f83af666ab955afda554</title>
<g id="a_node10"><a xlink:href="dir_d31de1fe4d82f83af666ab955afda554.html" target="_top" xlink:title="script">
<polygon fill="white" stroke="black" points="362,-276 308,-276 308,-240 362,-240 362,-276"/>
<text text-anchor="middle" x="335" y="-255.5" font-family="Helvetica,sans-Serif" font-size="10.00">script</text>
</a>
</g>
</g>
<!-- dir_8d80aafdcaa0a6af05a7a42a9beaf0b1&#45;&gt;dir_d31de1fe4d82f83af666ab955afda554 -->
<g id="edge28" class="edge">
<title>dir_8d80aafdcaa0a6af05a7a42a9beaf0b1&#45;&gt;dir_d31de1fe4d82f83af666ab955afda554</title>
<path fill="none" stroke="black" d="M323.04,-455.85C325.29,-418.83 330.62,-331.18 333.34,-286.39"/>
<polygon fill="black" stroke="black" points="336.84,-286.43 333.95,-276.23 329.85,-286 336.84,-286.43"/>
<g id="a_edge28&#45;headlabel"><a xlink:href="dir_000001_000003.html" target="_top" xlink:title="2">
<text text-anchor="middle" x="339.46" y="-287.69" font-family="Helvetica,sans-Serif" font-size="10.00">2</text>
</a>
</g>
</g>
<!-- dir_1d510aedf8639b386e427d7e4263a0dc -->
<g id="node11" class="node">
<title>dir_1d510aedf8639b386e427d7e4263a0dc</title>
<g id="a_node11"><a xlink:href="dir_1d510aedf8639b386e427d7e4263a0dc.html" target="_top" xlink:title="smartproto">
<polygon fill="white" stroke="black" points="483.5,-204 420.5,-204 420.5,-168 483.5,-168 483.5,-204"/>
<text text-anchor="middle" x="452" y="-183.5" font-family="Helvetica,sans-Serif" font-size="10.00">smartproto</text>
</a>
</g>
</g>
<!-- dir_8d80aafdcaa0a6af05a7a42a9beaf0b1&#45;&gt;dir_1d510aedf8639b386e427d7e4263a0dc -->
<g id="edge35" class="edge">
<title>dir_8d80aafdcaa0a6af05a7a42a9beaf0b1&#45;&gt;dir_1d510aedf8639b386e427d7e4263a0dc</title>
<path fill="none" stroke="black" d="M349.11,-469.88C378.52,-464.89 424.17,-452.16 446,-420 488.8,-356.95 471.87,-260.56 459.94,-214.02"/>
<polygon fill="black" stroke="black" points="463.24,-212.84 457.27,-204.09 456.48,-214.65 463.24,-212.84"/>
<g id="a_edge35&#45;headlabel"><a xlink:href="dir_000001_000019.html" target="_top" xlink:title="3">
<text text-anchor="middle" x="466.92" y="-213.07" font-family="Helvetica,sans-Serif" font-size="10.00">3</text>
</a>
</g>
</g>
<!-- dir_6a835736a7d569179847d17e4fbf8e78 -->
<g id="node14" class="node">
<title>dir_6a835736a7d569179847d17e4fbf8e78</title>
<g id="a_node14"><a xlink:href="dir_6a835736a7d569179847d17e4fbf8e78.html" target="_top" xlink:title="testnet">
<polygon fill="white" stroke="black" points="415,-420 361,-420 361,-384 415,-384 415,-420"/>
<text text-anchor="middle" x="388" y="-399.5" font-family="Helvetica,sans-Serif" font-size="10.00">testnet</text>
</a>
</g>
</g>
<!-- dir_8d80aafdcaa0a6af05a7a42a9beaf0b1&#45;&gt;dir_6a835736a7d569179847d17e4fbf8e78 -->
<g id="edge34" class="edge">
<title>dir_8d80aafdcaa0a6af05a7a42a9beaf0b1&#45;&gt;dir_6a835736a7d569179847d17e4fbf8e78</title>
<path fill="none" stroke="black" d="M338.31,-455.7C346.31,-447.22 356.07,-436.86 364.82,-427.58"/>
<polygon fill="black" stroke="black" points="367.56,-429.78 371.87,-420.1 362.47,-424.98 367.56,-429.78"/>
<g id="a_edge34&#45;headlabel"><a xlink:href="dir_000001_000021.html" target="_top" xlink:title="1">
<text text-anchor="middle" x="367.16" y="-431.84" font-family="Helvetica,sans-Serif" font-size="10.00">1</text>
</a>
</g>
</g>
<!-- dir_32f1d6ce0500d678e0a2fe6a432ebe8e -->
<g id="node4" class="node">
<title>dir_32f1d6ce0500d678e0a2fe6a432ebe8e</title>
<g id="a_node4"><a xlink:href="dir_32f1d6ce0500d678e0a2fe6a432ebe8e.html" target="_top" xlink:title="crypto">
<polygon fill="white" stroke="red" points="190,-204 136,-204 136,-168 190,-168 190,-204"/>
<text text-anchor="middle" x="163" y="-183.5" font-family="Helvetica,sans-Serif" font-size="10.00">crypto</text>
</a>
</g>
</g>
<!-- dir_32f1d6ce0500d678e0a2fe6a432ebe8e&#45;&gt;dir_f4f24c2cddf70a18eacccc8fe1725ace -->
<g id="edge5" class="edge">
<title>dir_32f1d6ce0500d678e0a2fe6a432ebe8e&#45;&gt;dir_f4f24c2cddf70a18eacccc8fe1725ace</title>
<path fill="none" stroke="black" d="M190.35,-171.62C193.25,-170.34 196.17,-169.11 199,-168 243.13,-150.71 295.39,-134.93 329.77,-125.17"/>
<polygon fill="black" stroke="black" points="331.16,-128.42 339.84,-122.34 329.27,-121.68 331.16,-128.42"/>
<g id="a_edge5&#45;headlabel"><a xlink:href="dir_000008_000007.html" target="_top" xlink:title="3">
<text text-anchor="middle" x="328.47" y="-129.62" font-family="Helvetica,sans-Serif" font-size="10.00">3</text>
</a>
</g>
</g>
<!-- dir_32f1d6ce0500d678e0a2fe6a432ebe8e&#45;&gt;dir_96fabefd09c3de0255b20d9eb540d6e1 -->
<g id="edge4" class="edge">
<title>dir_32f1d6ce0500d678e0a2fe6a432ebe8e&#45;&gt;dir_96fabefd09c3de0255b20d9eb540d6e1</title>
<path fill="none" stroke="black" d="M182.06,-167.87C210.05,-142.71 262.41,-95.65 294.25,-67.04"/>
<polygon fill="black" stroke="black" points="296.78,-69.48 301.87,-60.19 292.1,-64.27 296.78,-69.48"/>
<g id="a_edge4&#45;headlabel"><a xlink:href="dir_000008_000004.html" target="_top" xlink:title="3">
<text text-anchor="middle" x="296" y="-71.49" font-family="Helvetica,sans-Serif" font-size="10.00">3</text>
</a>
</g>
</g>
<!-- dir_f4f24c2cddf70a18eacccc8fe1725ace&#45;&gt;dir_96fabefd09c3de0255b20d9eb540d6e1 -->
<g id="edge13" class="edge">
<title>dir_f4f24c2cddf70a18eacccc8fe1725ace&#45;&gt;dir_96fabefd09c3de0255b20d9eb540d6e1</title>
<path fill="none" stroke="black" d="M355.63,-95.7C350.28,-87.56 343.8,-77.69 337.89,-68.7"/>
<polygon fill="black" stroke="black" points="340.66,-66.54 332.24,-60.1 334.81,-70.38 340.66,-66.54"/>
<g id="a_edge13&#45;headlabel"><a xlink:href="dir_000007_000004.html" target="_top" xlink:title="3">
<text text-anchor="middle" x="345" y="-65.48" font-family="Helvetica,sans-Serif" font-size="10.00">3</text>
</a>
</g>
</g>
<!-- dir_907af682fd2d2daf754bbea36dad7b70 -->
<g id="node6" class="node">
<title>dir_907af682fd2d2daf754bbea36dad7b70</title>
<g id="a_node6"><a xlink:href="dir_907af682fd2d2daf754bbea36dad7b70.html" target="_top" xlink:title="interop">
<polygon fill="white" stroke="red" points="244,-348 190,-348 190,-312 244,-312 244,-348"/>
<text text-anchor="middle" x="217" y="-327.5" font-family="Helvetica,sans-Serif" font-size="10.00">interop</text>
</a>
</g>
</g>
<!-- dir_907af682fd2d2daf754bbea36dad7b70&#45;&gt;dir_bc3783d64b79e6e31311852f439151cc -->
<g id="edge17" class="edge">
<title>dir_907af682fd2d2daf754bbea36dad7b70&#45;&gt;dir_bc3783d64b79e6e31311852f439151cc</title>
<path fill="none" stroke="black" d="M213.41,-311.74C210.26,-293.67 206.9,-264.55 212,-240 213.88,-230.96 217.37,-221.58 221.09,-213.26"/>
<polygon fill="black" stroke="black" points="224.32,-214.61 225.46,-204.07 218,-211.6 224.32,-214.61"/>
<g id="a_edge17&#45;headlabel"><a xlink:href="dir_000011_000020.html" target="_top" xlink:title="1">
<text text-anchor="middle" x="225.34" y="-216.57" font-family="Helvetica,sans-Serif" font-size="10.00">1</text>
</a>
</g>
</g>
<!-- dir_907af682fd2d2daf754bbea36dad7b70&#45;&gt;dir_32f1d6ce0500d678e0a2fe6a432ebe8e -->
<g id="edge16" class="edge">
<title>dir_907af682fd2d2daf754bbea36dad7b70&#45;&gt;dir_32f1d6ce0500d678e0a2fe6a432ebe8e</title>
<path fill="none" stroke="black" d="M210.49,-311.87C201.2,-287.46 184.08,-242.43 173.13,-213.64"/>
<polygon fill="black" stroke="black" points="176.36,-212.29 169.54,-204.19 169.82,-214.78 176.36,-212.29"/>
<g id="a_edge16&#45;headlabel"><a xlink:href="dir_000011_000008.html" target="_top" xlink:title="3">
<text text-anchor="middle" x="180.29" y="-212.14" font-family="Helvetica,sans-Serif" font-size="10.00">3</text>
</a>
</g>
</g>
<!-- dir_907af682fd2d2daf754bbea36dad7b70&#45;&gt;dir_96fabefd09c3de0255b20d9eb540d6e1 -->
<g id="edge15" class="edge">
<title>dir_907af682fd2d2daf754bbea36dad7b70&#45;&gt;dir_96fabefd09c3de0255b20d9eb540d6e1</title>
<path fill="none" stroke="black" d="M215.24,-311.8C214.13,-292.99 214.73,-262.53 227,-240 239.08,-217.81 257.1,-225.1 271,-204 284.73,-183.15 294.34,-119.76 302,-96 304.77,-87.4 308.02,-78.1 311.04,-69.73"/>
<polygon fill="black" stroke="black" points="314.42,-70.68 314.56,-60.09 307.84,-68.28 314.42,-70.68"/>
<g id="a_edge15&#45;headlabel"><a xlink:href="dir_000011_000004.html" target="_top" xlink:title="6">
<text text-anchor="middle" x="315.85" y="-72.53" font-family="Helvetica,sans-Serif" font-size="10.00">6</text>
</a>
</g>
</g>
<!-- dir_907af682fd2d2daf754bbea36dad7b70&#45;&gt;dir_a3c6922b12177c4242bd88d95fff2ca6 -->
<g id="edge18" class="edge">
<title>dir_907af682fd2d2daf754bbea36dad7b70&#45;&gt;dir_a3c6922b12177c4242bd88d95fff2ca6</title>
<path fill="none" stroke="black" d="M228.37,-311.7C233.72,-303.56 240.2,-293.69 246.11,-284.7"/>
<polygon fill="black" stroke="black" points="249.19,-286.38 251.76,-276.1 243.34,-282.54 249.19,-286.38"/>
<g id="a_edge18&#45;headlabel"><a xlink:href="dir_000011_000002.html" target="_top" xlink:title="4">
<text text-anchor="middle" x="249.59" y="-288.45" font-family="Helvetica,sans-Serif" font-size="10.00">4</text>
</a>
</g>
</g>
<!-- dir_da36cd6bcc50cd53e2b5b52207fc4c7c -->
<g id="node15" class="node">
<title>dir_da36cd6bcc50cd53e2b5b52207fc4c7c</title>
<g id="a_node15"><a xlink:href="dir_da36cd6bcc50cd53e2b5b52207fc4c7c.html" target="_top" xlink:title="tools">
<polygon fill="white" stroke="red" points="582,-132 528,-132 528,-96 582,-96 582,-132"/>
<text text-anchor="middle" x="555" y="-111.5" font-family="Helvetica,sans-Serif" font-size="10.00">tools</text>
</a>
</g>
</g>
<!-- dir_907af682fd2d2daf754bbea36dad7b70&#45;&gt;dir_da36cd6bcc50cd53e2b5b52207fc4c7c -->
<g id="edge19" class="edge">
<title>dir_907af682fd2d2daf754bbea36dad7b70&#45;&gt;dir_da36cd6bcc50cd53e2b5b52207fc4c7c</title>
<path fill="none" stroke="black" d="M244.14,-322.87C297.64,-309.58 417.98,-273.57 493,-204 512.82,-185.62 529.9,-159.88 541.09,-140.8"/>
<polygon fill="black" stroke="black" points="544.17,-142.46 546.09,-132.04 538.09,-138.99 544.17,-142.46"/>
<g id="a_edge19&#45;headlabel"><a xlink:href="dir_000011_000016.html" target="_top" xlink:title="2">
<text text-anchor="middle" x="544.86" y="-144.49" font-family="Helvetica,sans-Serif" font-size="10.00">2</text>
</a>
</g>
</g>
<!-- dir_a3c6922b12177c4242bd88d95fff2ca6&#45;&gt;dir_bc3783d64b79e6e31311852f439151cc -->
<g id="edge12" class="edge">
<title>dir_a3c6922b12177c4242bd88d95fff2ca6&#45;&gt;dir_bc3783d64b79e6e31311852f439151cc</title>
<path fill="none" stroke="black" d="M256.08,-239.7C252.93,-231.81 249.12,-222.3 245.62,-213.55"/>
<polygon fill="black" stroke="black" points="248.81,-212.09 241.84,-204.1 242.31,-214.69 248.81,-212.09"/>
<g id="a_edge12&#45;headlabel"><a xlink:href="dir_000002_000020.html" target="_top" xlink:title="2">
<text text-anchor="middle" x="252.78" y="-211.87" font-family="Helvetica,sans-Serif" font-size="10.00">2</text>
</a>
</g>
</g>
<!-- dir_a3c6922b12177c4242bd88d95fff2ca6&#45;&gt;dir_96fabefd09c3de0255b20d9eb540d6e1 -->
<g id="edge11" class="edge">
<title>dir_a3c6922b12177c4242bd88d95fff2ca6&#45;&gt;dir_96fabefd09c3de0255b20d9eb540d6e1</title>
<path fill="none" stroke="black" d="M271.55,-239.67C276.31,-229.47 282.06,-216.22 286,-204 300.82,-158.01 311.32,-102.62 316.75,-70.26"/>
<polygon fill="black" stroke="black" points="320.23,-70.64 318.39,-60.21 313.32,-69.51 320.23,-70.64"/>
<g id="a_edge11&#45;headlabel"><a xlink:href="dir_000002_000004.html" target="_top" xlink:title="4">
<text text-anchor="middle" x="322.45" y="-72.15" font-family="Helvetica,sans-Serif" font-size="10.00">4</text>
</a>
</g>
</g>
<!-- dir_0f7e8ab88896c08565e1195e77bf83bb&#45;&gt;dir_f4f24c2cddf70a18eacccc8fe1725ace -->
<g id="edge9" class="edge">
<title>dir_0f7e8ab88896c08565e1195e77bf83bb&#45;&gt;dir_f4f24c2cddf70a18eacccc8fe1725ace</title>
<path fill="none" stroke="black" d="M379.88,-311.85C377.46,-274.83 371.72,-187.18 368.79,-142.39"/>
<polygon fill="black" stroke="black" points="372.27,-141.98 368.13,-132.23 365.29,-142.44 372.27,-141.98"/>
<g id="a_edge9&#45;headlabel"><a xlink:href="dir_000014_000007.html" target="_top" xlink:title="3">
<text text-anchor="middle" x="375.34" y="-142.88" font-family="Helvetica,sans-Serif" font-size="10.00">3</text>
</a>
</g>
</g>
<!-- dir_0f7e8ab88896c08565e1195e77bf83bb&#45;&gt;dir_96fabefd09c3de0255b20d9eb540d6e1 -->
<g id="edge6" class="edge">
<title>dir_0f7e8ab88896c08565e1195e77bf83bb&#45;&gt;dir_96fabefd09c3de0255b20d9eb540d6e1</title>
<path fill="none" stroke="black" d="M385.08,-311.75C395.92,-264.36 423.25,-133.2 403,-96 393.22,-78.04 374.45,-65.23 357.33,-56.72"/>
<polygon fill="black" stroke="black" points="358.6,-53.45 348.05,-52.42 355.65,-59.8 358.6,-53.45"/>
<g id="a_edge6&#45;headlabel"><a xlink:href="dir_000014_000004.html" target="_top" xlink:title="2">
<text text-anchor="middle" x="363.05" y="-49.88" font-family="Helvetica,sans-Serif" font-size="10.00">2</text>
</a>
</g>
</g>
<!-- dir_0f7e8ab88896c08565e1195e77bf83bb&#45;&gt;dir_a3c6922b12177c4242bd88d95fff2ca6 -->
<g id="edge8" class="edge">
<title>dir_0f7e8ab88896c08565e1195e77bf83bb&#45;&gt;dir_a3c6922b12177c4242bd88d95fff2ca6</title>
<path fill="none" stroke="black" d="M353.93,-312.94C337.7,-303.32 316.87,-290.96 299.24,-280.5"/>
<polygon fill="black" stroke="black" points="300.74,-277.32 290.35,-275.23 297.17,-283.34 300.74,-277.32"/>
<g id="a_edge8&#45;headlabel"><a xlink:href="dir_000014_000002.html" target="_top" xlink:title="2">
<text text-anchor="middle" x="305.28" y="-274.21" font-family="Helvetica,sans-Serif" font-size="10.00">2</text>
</a>
</g>
</g>
<!-- dir_0f7e8ab88896c08565e1195e77bf83bb&#45;&gt;dir_d31de1fe4d82f83af666ab955afda554 -->
<g id="edge7" class="edge">
<title>dir_0f7e8ab88896c08565e1195e77bf83bb&#45;&gt;dir_d31de1fe4d82f83af666ab955afda554</title>
<path fill="none" stroke="black" d="M369.63,-311.7C364.28,-303.56 357.8,-293.69 351.89,-284.7"/>
<polygon fill="black" stroke="black" points="354.66,-282.54 346.24,-276.1 348.81,-286.38 354.66,-282.54"/>
<g id="a_edge7&#45;headlabel"><a xlink:href="dir_000014_000003.html" target="_top" xlink:title="1">
<text text-anchor="middle" x="359" y="-281.48" font-family="Helvetica,sans-Serif" font-size="10.00">1</text>
</a>
</g>
</g>
<!-- dir_0f7e8ab88896c08565e1195e77bf83bb&#45;&gt;dir_1d510aedf8639b386e427d7e4263a0dc -->
<g id="edge10" class="edge">
<title>dir_0f7e8ab88896c08565e1195e77bf83bb&#45;&gt;dir_1d510aedf8639b386e427d7e4263a0dc</title>
<path fill="none" stroke="black" d="M389.56,-311.87C401.82,-287.35 424.48,-242.03 438.87,-213.26"/>
<polygon fill="black" stroke="black" points="442.06,-214.7 443.41,-204.19 435.8,-211.57 442.06,-214.7"/>
<g id="a_edge10&#45;headlabel"><a xlink:href="dir_000014_000019.html" target="_top" xlink:title="2">
<text text-anchor="middle" x="443" y="-216.68" font-family="Helvetica,sans-Serif" font-size="10.00">2</text>
</a>
</g>
</g>
<!-- dir_d31de1fe4d82f83af666ab955afda554&#45;&gt;dir_32f1d6ce0500d678e0a2fe6a432ebe8e -->
<g id="edge2" class="edge">
<title>dir_d31de1fe4d82f83af666ab955afda554&#45;&gt;dir_32f1d6ce0500d678e0a2fe6a432ebe8e</title>
<path fill="none" stroke="black" d="M308,-243.91C304.98,-242.55 301.94,-241.22 299,-240 258.1,-223.03 244.34,-222.15 199.42,-203.97"/>
<polygon fill="black" stroke="black" points="200.58,-200.66 190,-200.09 197.92,-207.13 200.58,-200.66"/>
<g id="a_edge2&#45;headlabel"><a xlink:href="dir_000003_000008.html" target="_top" xlink:title="11">
<text text-anchor="middle" x="204.99" y="-196.9" font-family="Helvetica,sans-Serif" font-size="10.00">11</text>
</a>
</g>
</g>
<!-- dir_d31de1fe4d82f83af666ab955afda554&#45;&gt;dir_f4f24c2cddf70a18eacccc8fe1725ace -->
<g id="edge3" class="edge">
<title>dir_d31de1fe4d82f83af666ab955afda554&#45;&gt;dir_f4f24c2cddf70a18eacccc8fe1725ace</title>
<path fill="none" stroke="black" d="M338.86,-239.87C344.34,-215.56 354.42,-170.82 360.91,-142.01"/>
<polygon fill="black" stroke="black" points="364.34,-142.71 363.13,-132.19 357.51,-141.18 364.34,-142.71"/>
<g id="a_edge3&#45;headlabel"><a xlink:href="dir_000003_000007.html" target="_top" xlink:title="11">
<text text-anchor="middle" x="366.32" y="-144.34" font-family="Helvetica,sans-Serif" font-size="10.00">11</text>
</a>
</g>
</g>
<!-- dir_d31de1fe4d82f83af666ab955afda554&#45;&gt;dir_96fabefd09c3de0255b20d9eb540d6e1 -->
<g id="edge1" class="edge">
<title>dir_d31de1fe4d82f83af666ab955afda554&#45;&gt;dir_96fabefd09c3de0255b20d9eb540d6e1</title>
<path fill="none" stroke="black" d="M333.88,-239.85C331.46,-202.83 325.72,-115.18 322.79,-70.39"/>
<polygon fill="black" stroke="black" points="326.27,-69.98 322.13,-60.23 319.29,-70.44 326.27,-69.98"/>
<g id="a_edge1&#45;headlabel"><a xlink:href="dir_000003_000004.html" target="_top" xlink:title="5">
<text text-anchor="middle" x="329.34" y="-70.88" font-family="Helvetica,sans-Serif" font-size="10.00">5</text>
</a>
</g>
</g>
<!-- dir_1d510aedf8639b386e427d7e4263a0dc&#45;&gt;dir_f4f24c2cddf70a18eacccc8fe1725ace -->
<g id="edge23" class="edge">
<title>dir_1d510aedf8639b386e427d7e4263a0dc&#45;&gt;dir_f4f24c2cddf70a18eacccc8fe1725ace</title>
<path fill="none" stroke="black" d="M430.99,-167.7C420.28,-158.88 407.11,-148.03 395.5,-138.47"/>
<polygon fill="black" stroke="black" points="397.71,-135.76 387.77,-132.1 393.26,-141.16 397.71,-135.76"/>
<g id="a_edge23&#45;headlabel"><a xlink:href="dir_000019_000007.html" target="_top" xlink:title="4">
<text text-anchor="middle" x="402.29" y="-133.35" font-family="Helvetica,sans-Serif" font-size="10.00">4</text>
</a>
</g>
</g>
<!-- dir_1d510aedf8639b386e427d7e4263a0dc&#45;&gt;dir_96fabefd09c3de0255b20d9eb540d6e1 -->
<g id="edge22" class="edge">
<title>dir_1d510aedf8639b386e427d7e4263a0dc&#45;&gt;dir_96fabefd09c3de0255b20d9eb540d6e1</title>
<path fill="none" stroke="black" d="M449.12,-167.75C445.1,-148.34 436.17,-116.81 418,-96 401.95,-77.62 377.9,-64.42 357.77,-55.79"/>
<polygon fill="black" stroke="black" points="358.83,-52.44 348.25,-51.92 356.2,-58.93 358.83,-52.44"/>
<g id="a_edge22&#45;headlabel"><a xlink:href="dir_000019_000004.html" target="_top" xlink:title="1">
<text text-anchor="middle" x="363.23" y="-48.67" font-family="Helvetica,sans-Serif" font-size="10.00">1</text>
</a>
</g>
</g>
<!-- dir_c44661062b669a5bf58176f80a2c1ac7 -->
<g id="node12" class="node">
<title>dir_c44661062b669a5bf58176f80a2c1ac7</title>
<g id="a_node12"><a xlink:href="dir_c44661062b669a5bf58176f80a2c1ac7.html" target="_top" xlink:title="state">
<polygon fill="white" stroke="black" points="138,-276 84,-276 84,-240 138,-240 138,-276"/>
<text text-anchor="middle" x="111" y="-255.5" font-family="Helvetica,sans-Serif" font-size="10.00">state</text>
</a>
</g>
</g>
<!-- dir_c44661062b669a5bf58176f80a2c1ac7&#45;&gt;dir_32f1d6ce0500d678e0a2fe6a432ebe8e -->
<g id="edge25" class="edge">
<title>dir_c44661062b669a5bf58176f80a2c1ac7&#45;&gt;dir_32f1d6ce0500d678e0a2fe6a432ebe8e</title>
<path fill="none" stroke="black" d="M123.85,-239.7C130.03,-231.39 137.54,-221.28 144.32,-212.14"/>
<polygon fill="black" stroke="black" points="147.14,-214.22 150.29,-204.1 141.52,-210.04 147.14,-214.22"/>
<g id="a_edge25&#45;headlabel"><a xlink:href="dir_000009_000008.html" target="_top" xlink:title="5">
<text text-anchor="middle" x="147.28" y="-216.3" font-family="Helvetica,sans-Serif" font-size="10.00">5</text>
</a>
</g>
</g>
<!-- dir_c44661062b669a5bf58176f80a2c1ac7&#45;&gt;dir_96fabefd09c3de0255b20d9eb540d6e1 -->
<g id="edge24" class="edge">
<title>dir_c44661062b669a5bf58176f80a2c1ac7&#45;&gt;dir_96fabefd09c3de0255b20d9eb540d6e1</title>
<path fill="none" stroke="black" d="M110.53,-240C110.77,-221.09 113.49,-190.29 127,-168 162.89,-108.79 238.74,-72.55 284.23,-55.26"/>
<polygon fill="black" stroke="black" points="285.56,-58.5 293.73,-51.76 283.14,-51.93 285.56,-58.5"/>
<g id="a_edge24&#45;headlabel"><a xlink:href="dir_000009_000004.html" target="_top" xlink:title="2">
<text text-anchor="middle" x="283.17" y="-59.91" font-family="Helvetica,sans-Serif" font-size="10.00">2</text>
</a>
</g>
</g>
<!-- dir_6462e373db8c121b2e9263ca689e3fee -->
<g id="node13" class="node">
<title>dir_6462e373db8c121b2e9263ca689e3fee</title>
<g id="a_node13"><a xlink:href="dir_6462e373db8c121b2e9263ca689e3fee.html" target="_top" xlink:title="storage">
<polygon fill="white" stroke="black" points="98,-204 44,-204 44,-168 98,-168 98,-204"/>
<text text-anchor="middle" x="71" y="-183.5" font-family="Helvetica,sans-Serif" font-size="10.00">storage</text>
</a>
</g>
</g>
<!-- dir_c44661062b669a5bf58176f80a2c1ac7&#45;&gt;dir_6462e373db8c121b2e9263ca689e3fee -->
<g id="edge26" class="edge">
<title>dir_c44661062b669a5bf58176f80a2c1ac7&#45;&gt;dir_6462e373db8c121b2e9263ca689e3fee</title>
<path fill="none" stroke="black" d="M101.11,-239.7C96.51,-231.64 90.94,-221.89 85.85,-212.98"/>
<polygon fill="black" stroke="black" points="88.77,-211.05 80.77,-204.1 82.7,-214.52 88.77,-211.05"/>
<g id="a_edge26&#45;headlabel"><a xlink:href="dir_000009_000005.html" target="_top" xlink:title="2">
<text text-anchor="middle" x="93.02" y="-210.26" font-family="Helvetica,sans-Serif" font-size="10.00">2</text>
</a>
</g>
</g>
<!-- dir_6a835736a7d569179847d17e4fbf8e78&#45;&gt;dir_96fabefd09c3de0255b20d9eb540d6e1 -->
<g id="edge20" class="edge">
<title>dir_6a835736a7d569179847d17e4fbf8e78&#45;&gt;dir_96fabefd09c3de0255b20d9eb540d6e1</title>
<path fill="none" stroke="black" d="M405.72,-383.86C442.78,-345.82 522.71,-251.14 493,-168 471.63,-108.21 401.34,-72.34 357.51,-55.23"/>
<polygon fill="black" stroke="black" points="358.64,-51.92 348.05,-51.67 356.17,-58.47 358.64,-51.92"/>
<g id="a_edge20&#45;headlabel"><a xlink:href="dir_000021_000004.html" target="_top" xlink:title="1">
<text text-anchor="middle" x="363" y="-48.03" font-family="Helvetica,sans-Serif" font-size="10.00">1</text>
</a>
</g>
</g>
<!-- dir_6a835736a7d569179847d17e4fbf8e78&#45;&gt;dir_0f7e8ab88896c08565e1195e77bf83bb -->
<g id="edge21" class="edge">
<title>dir_6a835736a7d569179847d17e4fbf8e78&#45;&gt;dir_0f7e8ab88896c08565e1195e77bf83bb</title>
<path fill="none" stroke="black" d="M386.27,-383.7C385.5,-375.98 384.57,-366.71 383.71,-358.11"/>
<polygon fill="black" stroke="black" points="387.19,-357.71 382.71,-348.1 380.22,-358.4 387.19,-357.71"/>
<g id="a_edge21&#45;headlabel"><a xlink:href="dir_000021_000014.html" target="_top" xlink:title="1">
<text text-anchor="middle" x="390.37" y="-358.5" font-family="Helvetica,sans-Serif" font-size="10.00">1</text>
</a>
</g>
</g>
<!-- dir_da36cd6bcc50cd53e2b5b52207fc4c7c&#45;&gt;dir_96fabefd09c3de0255b20d9eb540d6e1 -->
<g id="edge14" class="edge">
<title>dir_da36cd6bcc50cd53e2b5b52207fc4c7c&#45;&gt;dir_96fabefd09c3de0255b20d9eb540d6e1</title>
<path fill="none" stroke="black" d="M527.93,-100.6C523.96,-98.96 519.9,-97.37 516,-96 461.96,-76.99 397.53,-60.67 357.94,-51.34"/>
<polygon fill="black" stroke="black" points="358.72,-47.93 348.19,-49.07 357.13,-54.75 358.72,-47.93"/>
<g id="a_edge14&#45;headlabel"><a xlink:href="dir_000016_000004.html" target="_top" xlink:title="2">
<text text-anchor="middle" x="362.87" y="-43.48" font-family="Helvetica,sans-Serif" font-size="10.00">2</text>
</a>
</g>
</g>
</g>
</svg>
        <g id="navigator" transform="translate(0 0)" fill="#404254">
                <rect fill="#f2f5e9" fill-opacity="0.5" stroke="#606060" stroke-width=".5" x="0" y="0" width="60" height="60"/>
                <use id="zoomplus" xlink:href="#zoomPlus" x="17" y="9" onmousedown="handleZoom(evt,'in')"/>
                <use id="zoomminus" xlink:href="#zoomMin" x="42" y="9" onmousedown="handleZoom(evt,'out')"/>
                <use id="reset" xlink:href="#resetDef" x="30" y="36" onmousedown="handleReset()"/>
                <g id="arrowUp" xlink:href="#dirArrow" transform="translate(30 24)" onmousedown="handlePan(0,-1)">
                  <use xlink:href="#rim" fill="#404040">
                        <set attributeName="fill" to="#808080" begin="arrowUp.mouseover" end="arrowUp.mouseout"/>
                  </use>
                  <path fill="none" stroke="white" stroke-width="1.5" d="M0,-3.0v7 M-2.5,-0.5L0,-3.0L2.5,-0.5"/>
                </g>
                <g id="arrowRight" xlink:href="#dirArrow" transform="rotate(90) translate(36 -43)" onmousedown="handlePan(1,0)">
                  <use xlink:href="#rim" fill="#404040">
                        <set attributeName="fill" to="#808080" begin="arrowRight.mouseover" end="arrowRight.mouseout"/>
                  </use>
                  <path fill="none" stroke="white" stroke-width="1.5" d="M0,-3.0v7 M-2.5,-0.5L0,-3.0L2.5,-0.5"/>
                </g>
                <g id="arrowDown" xlink:href="#dirArrow" transform="rotate(180) translate(-30 -48)" onmousedown="handlePan(0,1)">
                  <use xlink:href="#rim" fill="#404040">
                        <set attributeName="fill" to="#808080" begin="arrowDown.mouseover" end="arrowDown.mouseout"/>
                  </use>
                  <path fill="none" stroke="white" stroke-width="1.5" d="M0,-3.0v7 M-2.5,-0.5L0,-3.0L2.5,-0.5"/>
                </g>
                <g id="arrowLeft" xlink:href="#dirArrow" transform="rotate(270) translate(-36 17)" onmousedown="handlePan(-1,0)">
                  <use xlink:href="#rim" fill="#404040">
                        <set attributeName="fill" to="#808080" begin="arrowLeft.mouseover" end="arrowLeft.mouseout"/>
                  </use>
                  <path fill="none" stroke="white" stroke-width="1.5" d="M0,-3.0v7 M-2.5,-0.5L0,-3.0L2.5,-0.5"/>
                </g>
        </g>
        <svg viewBox="0 0 15 15" width="100%" height="30px" preserveAspectRatio="xMaxYMin meet">
         <g id="arrow_out" transform="scale(0.3 0.3)">
          <a xlink:href="dir_8d80aafdcaa0a6af05a7a42a9beaf0b1_dep_org.svg" target="_base">
           <rect id="button" ry="5" rx="5" y="6" x="6" height="38" width="38"
                fill="#f2f5e9" fill-opacity="0.5" stroke="#606060" stroke-width="1.0"/>
           <path id="arrow"
             d="M 11.500037,31.436501 C 11.940474,20.09759 22.043105,11.32322 32.158766,21.979434 L 37.068811,17.246167 C 37.068811,17.246167 37.088388,32 37.088388,32 L 22.160133,31.978069 C 22.160133,31.978069 26.997745,27.140456 26.997745,27.140456 C 18.528582,18.264221 13.291696,25.230495 11.500037,31.436501 z"
             style="fill:#404040;"/>
          </a>
         </g>
        </svg>
</svg>
