<?xml version="1.0" encoding="UTF-8" standalone="no"?>
<!DOCTYPE svg PUBLIC "-//W3C//DTD SVG 1.1//EN"
 "http://www.w3.org/Graphics/SVG/1.1/DTD/svg11.dtd">
<!-- Generated by graphviz version 2.42.3 ()
 -->
<!-- Title: node Pages: 1 -->
<svg width="292pt" height="303pt"
 viewBox="0.00 0.00 291.50 303.00" xmlns="http://www.w3.org/2000/svg" xmlns:xlink="http://www.w3.org/1999/xlink">
<g id="graph0" class="graph" transform="scale(1 1) rotate(0) translate(4 299)">
<title>node</title>
<polygon fill="white" stroke="transparent" points="-4,4 -4,-299 287.5,-299 287.5,4 -4,4"/>
<g id="clust1" class="cluster">
<title>clusterdir_8d80aafdcaa0a6af05a7a42a9beaf0b1</title>
<g id="a_clust1"><a xlink:href="dir_8d80aafdcaa0a6af05a7a42a9beaf0b1.html" target="_top" xlink:title="core">
<polygon fill="#ddddee" stroke="black" points="21,-200 21,-287 181,-287 181,-200 21,-200"/>
<text text-anchor="middle" x="101" y="-275" font-family="Helvetica,sans-Serif" font-size="10.00">core</text>
</a>
</g>
</g>
<g id="clust2" class="cluster">
<title>clusterdir_0f7e8ab88896c08565e1195e77bf83bb</title>
<g id="a_clust2"><a xlink:href="dir_0f7e8ab88896c08565e1195e77bf83bb.html" target="_top">
<polygon fill="#eeeeff" stroke="black" points="29,-208 29,-260 173,-260 173,-208 29,-208"/>
</a>
</g>
</g>
<!-- dir_0f7e8ab88896c08565e1195e77bf83bb -->
<g id="node1" class="node">
<title>dir_0f7e8ab88896c08565e1195e77bf83bb</title>
<text text-anchor="middle" x="64" y="-231.5" font-family="Helvetica,sans-Serif" font-size="10.00">node</text>
</g>
<!-- dir_a3c6922b12177c4242bd88d95fff2ca6 -->
<g id="node5" class="node">
<title>dir_a3c6922b12177c4242bd88d95fff2ca6</title>
<g id="a_node5"><a xlink:href="dir_a3c6922b12177c4242bd88d95fff2ca6.html" target="_top" xlink:title="network">
<polygon fill="none" stroke="black" points="54,-180 0,-180 0,-144 54,-144 54,-180"/>
<text text-anchor="middle" x="27" y="-159.5" font-family="Helvetica,sans-Serif" font-size="10.00">network</text>
</a>
</g>
</g>
<!-- dir_0f7e8ab88896c08565e1195e77bf83bb&#45;&gt;dir_a3c6922b12177c4242bd88d95fff2ca6 -->
<g id="edge7" class="edge">
<title>dir_0f7e8ab88896c08565e1195e77bf83bb&#45;&gt;dir_a3c6922b12177c4242bd88d95fff2ca6</title>
<path fill="none" stroke="black" d="M54.85,-215.7C50.6,-207.64 45.44,-197.89 40.73,-188.98"/>
<polygon fill="black" stroke="black" points="43.81,-187.31 36.04,-180.1 37.62,-190.58 43.81,-187.31"/>
<g id="a_edge7&#45;headlabel"><a xlink:href="dir_000014_000002.html" target="_top" xlink:title="2">
<text text-anchor="middle" x="48" y="-186.66" font-family="Helvetica,sans-Serif" font-size="10.00">2</text>
</a>
</g>
</g>
<!-- dir_f94e7fd17f65575ee7cb1e53ddd42ec5 -->
<g id="node2" class="node">
<title>dir_f94e7fd17f65575ee7cb1e53ddd42ec5</title>
<g id="a_node2"><a xlink:href="dir_f94e7fd17f65575ee7cb1e53ddd42ec5.html" target="_top" xlink:title="lua_node">
<polygon fill="white" stroke="black" points="165,-252 109,-252 109,-216 165,-216 165,-252"/>
<text text-anchor="middle" x="137" y="-231.5" font-family="Helvetica,sans-Serif" font-size="10.00">lua_node</text>
</a>
</g>
</g>
<!-- dir_96fabefd09c3de0255b20d9eb540d6e1 -->
<g id="node3" class="node">
<title>dir_96fabefd09c3de0255b20d9eb540d6e1</title>
<g id="a_node3"><a xlink:href="dir_96fabefd09c3de0255b20d9eb540d6e1.html" target="_top" xlink:title="io">
<polygon fill="none" stroke="black" points="164,-36 110,-36 110,0 164,0 164,-36"/>
<text text-anchor="middle" x="137" y="-15.5" font-family="Helvetica,sans-Serif" font-size="10.00">io</text>
</a>
</g>
</g>
<!-- dir_f94e7fd17f65575ee7cb1e53ddd42ec5&#45;&gt;dir_96fabefd09c3de0255b20d9eb540d6e1 -->
<g id="edge3" class="edge">
<title>dir_f94e7fd17f65575ee7cb1e53ddd42ec5&#45;&gt;dir_96fabefd09c3de0255b20d9eb540d6e1</title>
<path fill="none" stroke="black" d="M121.39,-215.77C113.63,-206.03 105.05,-193.18 101,-180 86.66,-133.36 107.35,-77.49 122.8,-45.33"/>
<polygon fill="black" stroke="black" points="126.05,-46.66 127.38,-36.15 119.78,-43.54 126.05,-46.66"/>
<g id="a_edge3&#45;headlabel"><a xlink:href="dir_000015_000004.html" target="_top" xlink:title="1">
<text text-anchor="middle" x="126.98" y="-48.64" font-family="Helvetica,sans-Serif" font-size="10.00">1</text>
</a>
</g>
</g>
<!-- dir_d31de1fe4d82f83af666ab955afda554 -->
<g id="node4" class="node">
<title>dir_d31de1fe4d82f83af666ab955afda554</title>
<g id="a_node4"><a xlink:href="dir_d31de1fe4d82f83af666ab955afda554.html" target="_top" xlink:title="script">
<polygon fill="none" stroke="black" points="164,-180 110,-180 110,-144 164,-144 164,-180"/>
<text text-anchor="middle" x="137" y="-159.5" font-family="Helvetica,sans-Serif" font-size="10.00">script</text>
</a>
</g>
</g>
<!-- dir_f94e7fd17f65575ee7cb1e53ddd42ec5&#45;&gt;dir_d31de1fe4d82f83af666ab955afda554 -->
<g id="edge4" class="edge">
<title>dir_f94e7fd17f65575ee7cb1e53ddd42ec5&#45;&gt;dir_d31de1fe4d82f83af666ab955afda554</title>
<path fill="none" stroke="black" d="M137,-215.7C137,-207.98 137,-198.71 137,-190.11"/>
<polygon fill="black" stroke="black" points="140.5,-190.1 137,-180.1 133.5,-190.1 140.5,-190.1"/>
<g id="a_edge4&#45;headlabel"><a xlink:href="dir_000015_000003.html" target="_top" xlink:title="1">
<text text-anchor="middle" x="143.34" y="-191.2" font-family="Helvetica,sans-Serif" font-size="10.00">1</text>
</a>
</g>
</g>
<!-- dir_f4f24c2cddf70a18eacccc8fe1725ace -->
<g id="node6" class="node">
<title>dir_f4f24c2cddf70a18eacccc8fe1725ace</title>
<g id="a_node6"><a xlink:href="dir_f4f24c2cddf70a18eacccc8fe1725ace.html" target="_top" xlink:title="data">
<polygon fill="white" stroke="red" points="219,-108 165,-108 165,-72 219,-72 219,-108"/>
<text text-anchor="middle" x="192" y="-87.5" font-family="Helvetica,sans-Serif" font-size="10.00">data</text>
</a>
</g>
</g>
<!-- dir_f94e7fd17f65575ee7cb1e53ddd42ec5&#45;&gt;dir_f4f24c2cddf70a18eacccc8fe1725ace -->
<g id="edge5" class="edge">
<title>dir_f94e7fd17f65575ee7cb1e53ddd42ec5&#45;&gt;dir_f4f24c2cddf70a18eacccc8fe1725ace</title>
<path fill="none" stroke="black" d="M151.16,-215.85C158.69,-205.93 167.5,-192.89 173,-180 181.41,-160.29 186.24,-136.49 188.93,-118.46"/>
<polygon fill="black" stroke="black" points="192.43,-118.71 190.3,-108.33 185.49,-117.76 192.43,-118.71"/>
<g id="a_edge5&#45;headlabel"><a xlink:href="dir_000015_000007.html" target="_top" xlink:title="2">
<text text-anchor="middle" x="194.76" y="-120.15" font-family="Helvetica,sans-Serif" font-size="10.00">2</text>
</a>
</g>
</g>
<!-- dir_1d510aedf8639b386e427d7e4263a0dc -->
<g id="node7" class="node">
<title>dir_1d510aedf8639b386e427d7e4263a0dc</title>
<g id="a_node7"><a xlink:href="dir_1d510aedf8639b386e427d7e4263a0dc.html" target="_top" xlink:title="smartproto">
<polygon fill="none" stroke="black" points="283.5,-180 220.5,-180 220.5,-144 283.5,-144 283.5,-180"/>
<text text-anchor="middle" x="252" y="-159.5" font-family="Helvetica,sans-Serif" font-size="10.00">smartproto</text>
</a>
</g>
</g>
<!-- dir_f94e7fd17f65575ee7cb1e53ddd42ec5&#45;&gt;dir_1d510aedf8639b386e427d7e4263a0dc -->
<g id="edge6" class="edge">
<title>dir_f94e7fd17f65575ee7cb1e53ddd42ec5&#45;&gt;dir_1d510aedf8639b386e427d7e4263a0dc</title>
<path fill="none" stroke="black" d="M165.13,-215.88C180.17,-206.72 198.87,-195.34 215.06,-185.48"/>
<polygon fill="black" stroke="black" points="217.04,-188.38 223.76,-180.19 213.4,-182.4 217.04,-188.38"/>
<g id="a_edge6&#45;headlabel"><a xlink:href="dir_000015_000019.html" target="_top" xlink:title="1">
<text text-anchor="middle" x="215.44" y="-190.17" font-family="Helvetica,sans-Serif" font-size="10.00">1</text>
</a>
</g>
</g>
<!-- dir_d31de1fe4d82f83af666ab955afda554&#45;&gt;dir_96fabefd09c3de0255b20d9eb540d6e1 -->
<g id="edge1" class="edge">
<title>dir_d31de1fe4d82f83af666ab955afda554&#45;&gt;dir_96fabefd09c3de0255b20d9eb540d6e1</title>
<path fill="none" stroke="black" d="M137,-143.87C137,-119.67 137,-75.21 137,-46.39"/>
<polygon fill="black" stroke="black" points="140.5,-46.19 137,-36.19 133.5,-46.19 140.5,-46.19"/>
<g id="a_edge1&#45;headlabel"><a xlink:href="dir_000003_000004.html" target="_top" xlink:title="5">
<text text-anchor="middle" x="143.34" y="-47.28" font-family="Helvetica,sans-Serif" font-size="10.00">5</text>
</a>
</g>
</g>
<!-- dir_d31de1fe4d82f83af666ab955afda554&#45;&gt;dir_f4f24c2cddf70a18eacccc8fe1725ace -->
<g id="edge2" class="edge">
<title>dir_d31de1fe4d82f83af666ab955afda554&#45;&gt;dir_f4f24c2cddf70a18eacccc8fe1725ace</title>
<path fill="none" stroke="black" d="M150.6,-143.7C157.12,-135.39 165.07,-125.28 172.25,-116.14"/>
<polygon fill="black" stroke="black" points="175.13,-118.13 178.56,-108.1 169.63,-113.81 175.13,-118.13"/>
<g id="a_edge2&#45;headlabel"><a xlink:href="dir_000003_000007.html" target="_top" xlink:title="11">
<text text-anchor="middle" x="175.15" y="-120.21" font-family="Helvetica,sans-Serif" font-size="10.00">11</text>
</a>
</g>
</g>
<!-- dir_a3c6922b12177c4242bd88d95fff2ca6&#45;&gt;dir_96fabefd09c3de0255b20d9eb540d6e1 -->
<g id="edge8" class="edge">
<title>dir_a3c6922b12177c4242bd88d95fff2ca6&#45;&gt;dir_96fabefd09c3de0255b20d9eb540d6e1</title>
<path fill="none" stroke="black" d="M32.11,-143.92C38.37,-124.94 50.38,-94.07 68,-72 77.33,-60.32 89.76,-49.74 101.5,-41.17"/>
<polygon fill="black" stroke="black" points="103.69,-43.91 109.87,-35.29 99.67,-38.18 103.69,-43.91"/>
<g id="a_edge8&#45;headlabel"><a xlink:href="dir_000002_000004.html" target="_top" xlink:title="4">
<text text-anchor="middle" x="102.38" y="-45.79" font-family="Helvetica,sans-Serif" font-size="10.00">4</text>
</a>
</g>
</g>
<!-- dir_f4f24c2cddf70a18eacccc8fe1725ace&#45;&gt;dir_96fabefd09c3de0255b20d9eb540d6e1 -->
<g id="edge9" class="edge">
<title>dir_f4f24c2cddf70a18eacccc8fe1725ace&#45;&gt;dir_96fabefd09c3de0255b20d9eb540d6e1</title>
<path fill="none" stroke="black" d="M178.4,-71.7C171.88,-63.39 163.93,-53.28 156.75,-44.14"/>
<polygon fill="black" stroke="black" points="159.37,-41.81 150.44,-36.1 153.87,-46.13 159.37,-41.81"/>
<g id="a_edge9&#45;headlabel"><a xlink:href="dir_000007_000004.html" target="_top" xlink:title="3">
<text text-anchor="middle" x="163.82" y="-40.38" font-family="Helvetica,sans-Serif" font-size="10.00">3</text>
</a>
</g>
</g>
<!-- dir_1d510aedf8639b386e427d7e4263a0dc&#45;&gt;dir_96fabefd09c3de0255b20d9eb540d6e1 -->
<g id="edge10" class="edge">
<title>dir_1d510aedf8639b386e427d7e4263a0dc&#45;&gt;dir_96fabefd09c3de0255b20d9eb540d6e1</title>
<path fill="none" stroke="black" d="M251.21,-143.9C249.51,-124.63 244.25,-93.22 228,-72 214.21,-53.99 192.42,-40.99 173.62,-32.38"/>
<polygon fill="black" stroke="black" points="174.97,-29.14 164.4,-28.38 172.18,-35.57 174.97,-29.14"/>
<g id="a_edge10&#45;headlabel"><a xlink:href="dir_000019_000004.html" target="_top" xlink:title="1">
<text text-anchor="middle" x="179.39" y="-25.47" font-family="Helvetica,sans-Serif" font-size="10.00">1</text>
</a>
</g>
</g>
<!-- dir_1d510aedf8639b386e427d7e4263a0dc&#45;&gt;dir_f4f24c2cddf70a18eacccc8fe1725ace -->
<g id="edge11" class="edge">
<title>dir_1d510aedf8639b386e427d7e4263a0dc&#45;&gt;dir_f4f24c2cddf70a18eacccc8fe1725ace</title>
<path fill="none" stroke="black" d="M237.17,-143.7C229.98,-135.3 221.2,-125.07 213.31,-115.86"/>
<polygon fill="black" stroke="black" points="215.83,-113.42 206.66,-108.1 210.51,-117.97 215.83,-113.42"/>
<g id="a_edge11&#45;headlabel"><a xlink:href="dir_000019_000007.html" target="_top" xlink:title="4">
<text text-anchor="middle" x="220.32" y="-111.8" font-family="Helvetica,sans-Serif" font-size="10.00">4</text>
</a>
</g>
</g>
</g>
</svg>
