<?xml version="1.0" encoding="UTF-8" standalone="no"?>
<!DOCTYPE svg PUBLIC "-//W3C//DTD SVG 1.1//EN"
 "http://www.w3.org/Graphics/SVG/1.1/DTD/svg11.dtd">
<!-- Generated by graphviz version 2.44.0 ()
 -->
<!-- Title: crypto Pages: 1 -->
<svg width="277pt" height="231pt"
 viewBox="0.00 0.00 277.00 231.00" xmlns="http://www.w3.org/2000/svg" xmlns:xlink="http://www.w3.org/1999/xlink">
<g id="graph0" class="graph" transform="scale(1 1) rotate(0) translate(4 227)">
<title>crypto</title>
<polygon fill="white" stroke="transparent" points="-4,4 -4,-227 273,-227 273,4 -4,4"/>
<g id="clust1" class="cluster">
<title>clusterdir_8d80aafdcaa0a6af05a7a42a9beaf0b1</title>
<g id="a_clust1"><a xlink:href="dir_8d80aafdcaa0a6af05a7a42a9beaf0b1.html" target="_top" xlink:title="core">
<polygon fill="#ddddee" stroke="black" points="8,-128 8,-215 258,-215 258,-128 8,-128"/>
<text text-anchor="middle" x="133" y="-203" font-family="Helvetica,sans-Serif" font-size="10.00">core</text>
</a>
</g>
</g>
<g id="clust2" class="cluster">
<title>clusterdir_32f1d6ce0500d678e0a2fe6a432ebe8e</title>
<g id="a_clust2"><a xlink:href="dir_32f1d6ce0500d678e0a2fe6a432ebe8e.html" target="_top">
<polygon fill="#eeeeff" stroke="black" points="16,-136 16,-188 250,-188 250,-136 16,-136"/>
</a>
</g>
</g>
<!-- dir_32f1d6ce0500d678e0a2fe6a432ebe8e -->
<g id="node1" class="node">
<title>dir_32f1d6ce0500d678e0a2fe6a432ebe8e</title>
<text text-anchor="middle" x="215" y="-159.5" font-family="Helvetica,sans-Serif" font-size="10.00">crypto</text>
</g>
<!-- dir_96fabefd09c3de0255b20d9eb540d6e1 -->
<g id="node4" class="node">
<title>dir_96fabefd09c3de0255b20d9eb540d6e1</title>
<g id="a_node4"><a xlink:href="dir_96fabefd09c3de0255b20d9eb540d6e1.html" target="_top" xlink:title="io">
<polygon fill="none" stroke="black" points="241,-36 187,-36 187,0 241,0 241,-36"/>
<text text-anchor="middle" x="214" y="-15.5" font-family="Helvetica,sans-Serif" font-size="10.00">io</text>
</a>
</g>
</g>
<!-- dir_32f1d6ce0500d678e0a2fe6a432ebe8e&#45;&gt;dir_96fabefd09c3de0255b20d9eb540d6e1 -->
<g id="edge1" class="edge">
<title>dir_32f1d6ce0500d678e0a2fe6a432ebe8e&#45;&gt;dir_96fabefd09c3de0255b20d9eb540d6e1</title>
<path fill="none" stroke="black" d="M211.35,-143.91C209.32,-133.57 207.02,-120.09 206,-108 204.66,-92.06 204.8,-87.96 206,-72 206.64,-63.52 207.84,-54.34 209.12,-46.04"/>
<polygon fill="black" stroke="black" points="212.58,-46.55 210.75,-36.11 205.68,-45.41 212.58,-46.55"/>
<g id="a_edge1&#45;headlabel"><a xlink:href="dir_000008_000004.html" target="_top" xlink:title="3">
<text text-anchor="middle" x="214.8" y="-48.05" font-family="Helvetica,sans-Serif" font-size="10.00">3</text>
</a>
</g>
</g>
<!-- dir_f4f24c2cddf70a18eacccc8fe1725ace -->
<g id="node5" class="node">
<title>dir_f4f24c2cddf70a18eacccc8fe1725ace</title>
<g id="a_node5"><a xlink:href="dir_f4f24c2cddf70a18eacccc8fe1725ace.html" target="_top" xlink:title="data">
<polygon fill="white" stroke="red" points="269,-108 215,-108 215,-72 269,-72 269,-108"/>
<text text-anchor="middle" x="242" y="-87.5" font-family="Helvetica,sans-Serif" font-size="10.00">data</text>
</a>
</g>
</g>
<!-- dir_32f1d6ce0500d678e0a2fe6a432ebe8e&#45;&gt;dir_f4f24c2cddf70a18eacccc8fe1725ace -->
<g id="edge2" class="edge">
<title>dir_32f1d6ce0500d678e0a2fe6a432ebe8e&#45;&gt;dir_f4f24c2cddf70a18eacccc8fe1725ace</title>
<path fill="none" stroke="black" d="M221.67,-143.7C224.71,-135.81 228.38,-126.3 231.76,-117.55"/>
<polygon fill="black" stroke="black" points="235.07,-118.69 235.4,-108.1 228.54,-116.17 235.07,-118.69"/>
<g id="a_edge2&#45;headlabel"><a xlink:href="dir_000008_000007.html" target="_top" xlink:title="3">
<text text-anchor="middle" x="236.42" y="-120.57" font-family="Helvetica,sans-Serif" font-size="10.00">3</text>
</a>
</g>
</g>
<!-- dir_c4cb8797922c56f98174410ab48e0c39 -->
<g id="node2" class="node">
<title>dir_c4cb8797922c56f98174410ab48e0c39</title>
<g id="a_node2"><a xlink:href="dir_c4cb8797922c56f98174410ab48e0c39.html" target="_top" xlink:title="cryptopp">
<polygon fill="white" stroke="black" points="170,-180 116,-180 116,-144 170,-144 170,-180"/>
<text text-anchor="middle" x="143" y="-159.5" font-family="Helvetica,sans-Serif" font-size="10.00">cryptopp</text>
</a>
</g>
</g>
<!-- dir_02fa0f2f55107c01513e7b4d317e5c7f -->
<g id="node3" class="node">
<title>dir_02fa0f2f55107c01513e7b4d317e5c7f</title>
<g id="a_node3"><a xlink:href="dir_02fa0f2f55107c01513e7b4d317e5c7f.html" target="_top" xlink:title="ed25519_orlp">
<polygon fill="white" stroke="black" points="98,-180 24,-180 24,-144 98,-144 98,-180"/>
<text text-anchor="middle" x="61" y="-159.5" font-family="Helvetica,sans-Serif" font-size="10.00">ed25519_orlp</text>
</a>
</g>
</g>
<!-- dir_f4f24c2cddf70a18eacccc8fe1725ace&#45;&gt;dir_96fabefd09c3de0255b20d9eb540d6e1 -->
<g id="edge3" class="edge">
<title>dir_f4f24c2cddf70a18eacccc8fe1725ace&#45;&gt;dir_96fabefd09c3de0255b20d9eb540d6e1</title>
<path fill="none" stroke="black" d="M235.08,-71.7C231.93,-63.81 228.12,-54.3 224.62,-45.55"/>
<polygon fill="black" stroke="black" points="227.81,-44.09 220.84,-36.1 221.31,-46.69 227.81,-44.09"/>
<g id="a_edge3&#45;headlabel"><a xlink:href="dir_000007_000004.html" target="_top" xlink:title="3">
<text text-anchor="middle" x="231.78" y="-43.87" font-family="Helvetica,sans-Serif" font-size="10.00">3</text>
</a>
</g>
</g>
</g>
</svg>
