<?xml version="1.0" encoding="UTF-8" standalone="no"?>
<!DOCTYPE svg PUBLIC "-//W3C//DTD SVG 1.1//EN"
 "http://www.w3.org/Graphics/SVG/1.1/DTD/svg11.dtd">
<!-- Generated by graphviz version 2.42.3 ()
 -->
<!-- Title: lua_node Pages: 1 -->
<svg width="195pt" height="295pt"
 viewBox="0.00 0.00 194.80 295.00" xmlns="http://www.w3.org/2000/svg" xmlns:xlink="http://www.w3.org/1999/xlink">
<g id="graph0" class="graph" transform="scale(1 1) rotate(0) translate(4 291)">
<title>lua_node</title>
<polygon fill="white" stroke="transparent" points="-4,4 -4,-291 190.8,-291 190.8,4 -4,4"/>
<g id="clust1" class="cluster">
<title>clusterdir_0f7e8ab88896c08565e1195e77bf83bb</title>
<g id="a_clust1"><a xlink:href="dir_0f7e8ab88896c08565e1195e77bf83bb.html" target="_top" xlink:title="node">
<polygon fill="#ddddee" stroke="black" points="31.3,-208 31.3,-279 103.3,-279 103.3,-208 31.3,-208"/>
<text text-anchor="middle" x="67.3" y="-267" font-family="Helvetica,sans-Serif" font-size="10.00">node</text>
</a>
</g>
</g>
<!-- dir_f94e7fd17f65575ee7cb1e53ddd42ec5 -->
<g id="node1" class="node">
<title>dir_f94e7fd17f65575ee7cb1e53ddd42ec5</title>
<g id="a_node1"><a xlink:href="dir_f94e7fd17f65575ee7cb1e53ddd42ec5.html" target="_top" xlink:title="lua_node">
<polygon fill="#eeeeff" stroke="black" points="95.3,-252 39.3,-252 39.3,-216 95.3,-216 95.3,-252"/>
<text text-anchor="middle" x="67.3" y="-231.5" font-family="Helvetica,sans-Serif" font-size="10.00">lua_node</text>
</a>
</g>
</g>
<!-- dir_96fabefd09c3de0255b20d9eb540d6e1 -->
<g id="node2" class="node">
<title>dir_96fabefd09c3de0255b20d9eb540d6e1</title>
<g id="a_node2"><a xlink:href="dir_96fabefd09c3de0255b20d9eb540d6e1.html" target="_top" xlink:title="io">
<polygon fill="none" stroke="black" points="94.3,-36 40.3,-36 40.3,0 94.3,0 94.3,-36"/>
<text text-anchor="middle" x="67.3" y="-15.5" font-family="Helvetica,sans-Serif" font-size="10.00">io</text>
</a>
</g>
</g>
<!-- dir_f94e7fd17f65575ee7cb1e53ddd42ec5&#45;&gt;dir_96fabefd09c3de0255b20d9eb540d6e1 -->
<g id="edge3" class="edge">
<title>dir_f94e7fd17f65575ee7cb1e53ddd42ec5&#45;&gt;dir_96fabefd09c3de0255b20d9eb540d6e1</title>
<path fill="none" stroke="black" d="M38.98,-217.18C25.84,-208.17 11.54,-195.55 4.3,-180 -2.45,-165.49 0.6,-159.57 4.3,-144 13.02,-107.31 34.32,-69.17 49.74,-44.82"/>
<polygon fill="black" stroke="black" points="52.83,-46.49 55.33,-36.2 46.95,-42.69 52.83,-46.49"/>
<g id="a_edge3&#45;headlabel"><a xlink:href="dir_000015_000004.html" target="_top" xlink:title="1">
<text text-anchor="middle" x="53.26" y="-48.55" font-family="Helvetica,sans-Serif" font-size="10.00">1</text>
</a>
</g>
</g>
<!-- dir_d31de1fe4d82f83af666ab955afda554 -->
<g id="node3" class="node">
<title>dir_d31de1fe4d82f83af666ab955afda554</title>
<g id="a_node3"><a xlink:href="dir_d31de1fe4d82f83af666ab955afda554.html" target="_top" xlink:title="script">
<polygon fill="none" stroke="black" points="67.3,-180 13.3,-180 13.3,-144 67.3,-144 67.3,-180"/>
<text text-anchor="middle" x="40.3" y="-159.5" font-family="Helvetica,sans-Serif" font-size="10.00">script</text>
</a>
</g>
</g>
<!-- dir_f94e7fd17f65575ee7cb1e53ddd42ec5&#45;&gt;dir_d31de1fe4d82f83af666ab955afda554 -->
<g id="edge4" class="edge">
<title>dir_f94e7fd17f65575ee7cb1e53ddd42ec5&#45;&gt;dir_d31de1fe4d82f83af666ab955afda554</title>
<path fill="none" stroke="black" d="M60.63,-215.7C57.59,-207.81 53.92,-198.3 50.54,-189.55"/>
<polygon fill="black" stroke="black" points="53.76,-188.17 46.9,-180.1 47.23,-190.69 53.76,-188.17"/>
<g id="a_edge4&#45;headlabel"><a xlink:href="dir_000015_000003.html" target="_top" xlink:title="1">
<text text-anchor="middle" x="57.71" y="-188.01" font-family="Helvetica,sans-Serif" font-size="10.00">1</text>
</a>
</g>
</g>
<!-- dir_f4f24c2cddf70a18eacccc8fe1725ace -->
<g id="node4" class="node">
<title>dir_f4f24c2cddf70a18eacccc8fe1725ace</title>
<g id="a_node4"><a xlink:href="dir_f4f24c2cddf70a18eacccc8fe1725ace.html" target="_top" xlink:title="data">
<polygon fill="white" stroke="red" points="122.3,-108 68.3,-108 68.3,-72 122.3,-72 122.3,-108"/>
<text text-anchor="middle" x="95.3" y="-87.5" font-family="Helvetica,sans-Serif" font-size="10.00">data</text>
</a>
</g>
</g>
<!-- dir_f94e7fd17f65575ee7cb1e53ddd42ec5&#45;&gt;dir_f4f24c2cddf70a18eacccc8fe1725ace -->
<g id="edge5" class="edge">
<title>dir_f94e7fd17f65575ee7cb1e53ddd42ec5&#45;&gt;dir_f4f24c2cddf70a18eacccc8fe1725ace</title>
<path fill="none" stroke="black" d="M70.68,-215.87C75.47,-191.56 84.3,-146.82 89.98,-118.01"/>
<polygon fill="black" stroke="black" points="93.41,-118.68 91.91,-108.19 86.54,-117.32 93.41,-118.68"/>
<g id="a_edge5&#45;headlabel"><a xlink:href="dir_000015_000007.html" target="_top" xlink:title="2">
<text text-anchor="middle" x="95.5" y="-120.25" font-family="Helvetica,sans-Serif" font-size="10.00">2</text>
</a>
</g>
</g>
<!-- dir_1d510aedf8639b386e427d7e4263a0dc -->
<g id="node5" class="node">
<title>dir_1d510aedf8639b386e427d7e4263a0dc</title>
<g id="a_node5"><a xlink:href="dir_1d510aedf8639b386e427d7e4263a0dc.html" target="_top" xlink:title="smartproto">
<polygon fill="none" stroke="black" points="186.8,-180 123.8,-180 123.8,-144 186.8,-144 186.8,-180"/>
<text text-anchor="middle" x="155.3" y="-159.5" font-family="Helvetica,sans-Serif" font-size="10.00">smartproto</text>
</a>
</g>
</g>
<!-- dir_f94e7fd17f65575ee7cb1e53ddd42ec5&#45;&gt;dir_1d510aedf8639b386e427d7e4263a0dc -->
<g id="edge6" class="edge">
<title>dir_f94e7fd17f65575ee7cb1e53ddd42ec5&#45;&gt;dir_1d510aedf8639b386e427d7e4263a0dc</title>
<path fill="none" stroke="black" d="M89.05,-215.7C100.14,-206.88 113.78,-196.03 125.79,-186.47"/>
<polygon fill="black" stroke="black" points="128.15,-189.07 133.8,-180.1 123.79,-183.59 128.15,-189.07"/>
<g id="a_edge6&#45;headlabel"><a xlink:href="dir_000015_000019.html" target="_top" xlink:title="1">
<text text-anchor="middle" x="127.11" y="-191.03" font-family="Helvetica,sans-Serif" font-size="10.00">1</text>
</a>
</g>
</g>
<!-- dir_d31de1fe4d82f83af666ab955afda554&#45;&gt;dir_96fabefd09c3de0255b20d9eb540d6e1 -->
<g id="edge1" class="edge">
<title>dir_d31de1fe4d82f83af666ab955afda554&#45;&gt;dir_96fabefd09c3de0255b20d9eb540d6e1</title>
<path fill="none" stroke="black" d="M43.56,-143.87C48.16,-119.67 56.61,-75.21 62.09,-46.39"/>
<polygon fill="black" stroke="black" points="65.6,-46.67 64.03,-36.19 58.73,-45.36 65.6,-46.67"/>
<g id="a_edge1&#45;headlabel"><a xlink:href="dir_000003_000004.html" target="_top" xlink:title="5">
<text text-anchor="middle" x="67.72" y="-48.23" font-family="Helvetica,sans-Serif" font-size="10.00">5</text>
</a>
</g>
</g>
<!-- dir_d31de1fe4d82f83af666ab955afda554&#45;&gt;dir_f4f24c2cddf70a18eacccc8fe1725ace -->
<g id="edge2" class="edge">
<title>dir_d31de1fe4d82f83af666ab955afda554&#45;&gt;dir_f4f24c2cddf70a18eacccc8fe1725ace</title>
<path fill="none" stroke="black" d="M53.9,-143.7C60.42,-135.39 68.37,-125.28 75.55,-116.14"/>
<polygon fill="black" stroke="black" points="78.44,-118.13 81.86,-108.1 72.93,-113.81 78.44,-118.13"/>
<g id="a_edge2&#45;headlabel"><a xlink:href="dir_000003_000007.html" target="_top" xlink:title="11">
<text text-anchor="middle" x="78.45" y="-120.21" font-family="Helvetica,sans-Serif" font-size="10.00">11</text>
</a>
</g>
</g>
<!-- dir_f4f24c2cddf70a18eacccc8fe1725ace&#45;&gt;dir_96fabefd09c3de0255b20d9eb540d6e1 -->
<g id="edge7" class="edge">
<title>dir_f4f24c2cddf70a18eacccc8fe1725ace&#45;&gt;dir_96fabefd09c3de0255b20d9eb540d6e1</title>
<path fill="none" stroke="black" d="M88.38,-71.7C85.23,-63.81 81.42,-54.3 77.92,-45.55"/>
<polygon fill="black" stroke="black" points="81.11,-44.09 74.14,-36.1 74.61,-46.69 81.11,-44.09"/>
<g id="a_edge7&#45;headlabel"><a xlink:href="dir_000007_000004.html" target="_top" xlink:title="3">
<text text-anchor="middle" x="85.08" y="-43.87" font-family="Helvetica,sans-Serif" font-size="10.00">3</text>
</a>
</g>
</g>
<!-- dir_1d510aedf8639b386e427d7e4263a0dc&#45;&gt;dir_96fabefd09c3de0255b20d9eb540d6e1 -->
<g id="edge8" class="edge">
<title>dir_1d510aedf8639b386e427d7e4263a0dc&#45;&gt;dir_96fabefd09c3de0255b20d9eb540d6e1</title>
<path fill="none" stroke="black" d="M153.77,-143.68C151.42,-124.76 145.58,-94.21 131.3,-72 123.84,-60.4 113.03,-50.06 102.4,-41.68"/>
<polygon fill="black" stroke="black" points="104.47,-38.85 94.37,-35.65 100.27,-44.45 104.47,-38.85"/>
<g id="a_edge8&#45;headlabel"><a xlink:href="dir_000019_000004.html" target="_top" xlink:title="1">
<text text-anchor="middle" x="109.05" y="-36.24" font-family="Helvetica,sans-Serif" font-size="10.00">1</text>
</a>
</g>
</g>
<!-- dir_1d510aedf8639b386e427d7e4263a0dc&#45;&gt;dir_f4f24c2cddf70a18eacccc8fe1725ace -->
<g id="edge9" class="edge">
<title>dir_1d510aedf8639b386e427d7e4263a0dc&#45;&gt;dir_f4f24c2cddf70a18eacccc8fe1725ace</title>
<path fill="none" stroke="black" d="M140.47,-143.7C133.28,-135.3 124.5,-125.07 116.61,-115.86"/>
<polygon fill="black" stroke="black" points="119.13,-113.42 109.96,-108.1 113.81,-117.97 119.13,-113.42"/>
<g id="a_edge9&#45;headlabel"><a xlink:href="dir_000019_000007.html" target="_top" xlink:title="4">
<text text-anchor="middle" x="123.62" y="-111.8" font-family="Helvetica,sans-Serif" font-size="10.00">4</text>
</a>
</g>
</g>
</g>
</svg>
