<?xml version="1.0" encoding="UTF-8" standalone="no"?>
<!DOCTYPE svg PUBLIC "-//W3C//DTD SVG 1.1//EN"
 "http://www.w3.org/Graphics/SVG/1.1/DTD/svg11.dtd">
<!-- Generated by graphviz version 2.42.3 ()
 -->
<!-- Title: Graphical Class Hierarchy Pages: 1 -->
<svg width="453pt" height="421pt"
 viewBox="0.00 0.00 453.00 421.00" xmlns="http://www.w3.org/2000/svg" xmlns:xlink="http://www.w3.org/1999/xlink">
<g id="graph0" class="graph" transform="scale(1 1) rotate(0) translate(4 417)">
<title>Graphical Class Hierarchy</title>
<polygon fill="white" stroke="transparent" points="-4,4 -4,-417 449,-417 449,4 -4,4"/>
<!-- Node80 -->
<g id="node1" class="node">
<title>Node80</title>
<g id="a_node1"><a xlink:href="db/d4c/classautomaton_1_1core_1_1network_1_1acceptor.html" target="_top" xlink:title=" ">
<polygon fill="white" stroke="black" points="6,-357.5 6,-387.5 131,-387.5 131,-357.5 6,-357.5"/>
<text text-anchor="start" x="14" y="-375.5" font-family="Helvetica,sans-Serif" font-size="10.00">automaton::core::network</text>
<text text-anchor="middle" x="68.5" y="-364.5" font-family="Helvetica,sans-Serif" font-size="10.00">::acceptor</text>
</a>
</g>
</g>
<!-- Node57 -->
<g id="node2" class="node">
<title>Node57</title>
<g id="a_node2"><a xlink:href="df/db6/classautomaton_1_1core_1_1network_1_1simulated__acceptor.html" target="_top" xlink:title=" ">
<polygon fill="white" stroke="black" points="173,-333.5 173,-363.5 298,-363.5 298,-333.5 173,-333.5"/>
<text text-anchor="start" x="181" y="-351.5" font-family="Helvetica,sans-Serif" font-size="10.00">automaton::core::network</text>
<text text-anchor="middle" x="235.5" y="-340.5" font-family="Helvetica,sans-Serif" font-size="10.00">::simulated_acceptor</text>
</a>
</g>
</g>
<!-- Node80&#45;&gt;Node57 -->
<g id="edge1" class="edge">
<title>Node80&#45;&gt;Node57</title>
<path fill="none" stroke="midnightblue" d="M141.36,-362.05C151.83,-360.52 162.54,-358.97 172.79,-357.48"/>
<polygon fill="midnightblue" stroke="midnightblue" points="140.8,-358.59 131.41,-363.5 141.81,-365.52 140.8,-358.59"/>
</g>
<!-- Node59 -->
<g id="node3" class="node">
<title>Node59</title>
<g id="a_node3"><a xlink:href="d9/db9/classautomaton_1_1core_1_1network_1_1tcp__acceptor.html" target="_top" xlink:title=" ">
<polygon fill="white" stroke="black" points="173,-382.5 173,-412.5 298,-412.5 298,-382.5 173,-382.5"/>
<text text-anchor="start" x="181" y="-400.5" font-family="Helvetica,sans-Serif" font-size="10.00">automaton::core::network</text>
<text text-anchor="middle" x="235.5" y="-389.5" font-family="Helvetica,sans-Serif" font-size="10.00">::tcp_acceptor</text>
</a>
</g>
</g>
<!-- Node80&#45;&gt;Node59 -->
<g id="edge2" class="edge">
<title>Node80&#45;&gt;Node59</title>
<path fill="none" stroke="midnightblue" d="M141.36,-383.39C151.83,-384.97 162.54,-386.6 172.79,-388.15"/>
<polygon fill="midnightblue" stroke="midnightblue" points="141.82,-379.92 131.41,-381.88 140.77,-386.84 141.82,-379.92"/>
</g>
<!-- Node79 -->
<g id="node4" class="node">
<title>Node79</title>
<g id="a_node4"><a xlink:href="d0/d47/classautomaton_1_1core_1_1network_1_1acceptor_1_1acceptor__handler.html" target="_top" xlink:title=" ">
<polygon fill="white" stroke="black" points="0,-132.5 0,-162.5 137,-162.5 137,-132.5 0,-132.5"/>
<text text-anchor="start" x="8" y="-150.5" font-family="Helvetica,sans-Serif" font-size="10.00">automaton::core::network</text>
<text text-anchor="middle" x="68.5" y="-139.5" font-family="Helvetica,sans-Serif" font-size="10.00">::acceptor::acceptor_handler</text>
</a>
</g>
</g>
<!-- Node61 -->
<g id="node5" class="node">
<title>Node61</title>
<g id="a_node5"><a xlink:href="da/d77/classautomaton_1_1core_1_1node_1_1node.html" target="_top" xlink:title=" ">
<polygon fill="white" stroke="black" points="180,-186.5 180,-216.5 291,-216.5 291,-186.5 180,-186.5"/>
<text text-anchor="start" x="188" y="-204.5" font-family="Helvetica,sans-Serif" font-size="10.00">automaton::core::node</text>
<text text-anchor="middle" x="235.5" y="-193.5" font-family="Helvetica,sans-Serif" font-size="10.00">::node</text>
</a>
</g>
</g>
<!-- Node79&#45;&gt;Node61 -->
<g id="edge3" class="edge">
<title>Node79&#45;&gt;Node61</title>
<path fill="none" stroke="midnightblue" d="M125.05,-165.68C145.67,-172.43 168.82,-180 188.5,-186.45"/>
<polygon fill="midnightblue" stroke="midnightblue" points="126.05,-162.33 115.46,-162.54 123.88,-168.98 126.05,-162.33"/>
</g>
<!-- Node62 -->
<g id="node6" class="node">
<title>Node62</title>
<g id="a_node6"><a xlink:href="d3/d27/classautomaton_1_1core_1_1node_1_1luanode_1_1lua__node.html" target="_top" xlink:title=" ">
<polygon fill="white" stroke="black" points="334,-186.5 334,-216.5 445,-216.5 445,-186.5 334,-186.5"/>
<text text-anchor="start" x="342" y="-204.5" font-family="Helvetica,sans-Serif" font-size="10.00">automaton::core::node</text>
<text text-anchor="middle" x="389.5" y="-193.5" font-family="Helvetica,sans-Serif" font-size="10.00">::luanode::lua_node</text>
</a>
</g>
</g>
<!-- Node61&#45;&gt;Node62 -->
<g id="edge4" class="edge">
<title>Node61&#45;&gt;Node62</title>
<path fill="none" stroke="midnightblue" d="M301.6,-201.5C312.38,-201.5 323.47,-201.5 333.96,-201.5"/>
<polygon fill="midnightblue" stroke="midnightblue" points="301.38,-198 291.38,-201.5 301.38,-205 301.38,-198"/>
</g>
<!-- Node69 -->
<g id="node7" class="node">
<title>Node69</title>
<g id="a_node7"><a xlink:href="d9/dfe/classautomaton_1_1core_1_1network_1_1connection.html" target="_top" xlink:title=" ">
<polygon fill="white" stroke="black" points="6,-49.5 6,-79.5 131,-79.5 131,-49.5 6,-49.5"/>
<text text-anchor="start" x="14" y="-67.5" font-family="Helvetica,sans-Serif" font-size="10.00">automaton::core::network</text>
<text text-anchor="middle" x="68.5" y="-56.5" font-family="Helvetica,sans-Serif" font-size="10.00">::connection</text>
</a>
</g>
</g>
<!-- Node58 -->
<g id="node8" class="node">
<title>Node58</title>
<g id="a_node8"><a xlink:href="db/dd7/classautomaton_1_1core_1_1network_1_1simulated__connection.html" target="_top" xlink:title=" ">
<polygon fill="white" stroke="black" points="173,-137.5 173,-167.5 298,-167.5 298,-137.5 173,-137.5"/>
<text text-anchor="start" x="181" y="-155.5" font-family="Helvetica,sans-Serif" font-size="10.00">automaton::core::network</text>
<text text-anchor="middle" x="235.5" y="-144.5" font-family="Helvetica,sans-Serif" font-size="10.00">::simulated_connection</text>
</a>
</g>
</g>
<!-- Node69&#45;&gt;Node58 -->
<g id="edge5" class="edge">
<title>Node69&#45;&gt;Node58</title>
<path fill="none" stroke="midnightblue" d="M100.39,-85.11C120.59,-98.12 147.8,-114.81 173,-127.5 179.9,-130.97 187.4,-134.34 194.71,-137.42"/>
<polygon fill="midnightblue" stroke="midnightblue" points="102.21,-82.11 91.92,-79.6 98.39,-87.98 102.21,-82.11"/>
</g>
<!-- Node60 -->
<g id="node9" class="node">
<title>Node60</title>
<g id="a_node9"><a xlink:href="d3/d6a/classautomaton_1_1core_1_1network_1_1tcp__connection.html" target="_top" xlink:title=" ">
<polygon fill="white" stroke="black" points="173,-49.5 173,-79.5 298,-79.5 298,-49.5 173,-49.5"/>
<text text-anchor="start" x="181" y="-67.5" font-family="Helvetica,sans-Serif" font-size="10.00">automaton::core::network</text>
<text text-anchor="middle" x="235.5" y="-56.5" font-family="Helvetica,sans-Serif" font-size="10.00">::tcp_connection</text>
</a>
</g>
</g>
<!-- Node69&#45;&gt;Node60 -->
<g id="edge6" class="edge">
<title>Node69&#45;&gt;Node60</title>
<path fill="none" stroke="midnightblue" d="M141.68,-64.5C152.05,-64.5 162.65,-64.5 172.79,-64.5"/>
<polygon fill="midnightblue" stroke="midnightblue" points="141.41,-61 131.41,-64.5 141.41,-68 141.41,-61"/>
</g>
<!-- Node70 -->
<g id="node10" class="node">
<title>Node70</title>
<g id="a_node10"><a xlink:href="d9/d7a/classautomaton_1_1core_1_1network_1_1zmq__connection.html" target="_top" xlink:title=" ">
<polygon fill="white" stroke="black" points="173,-0.5 173,-30.5 298,-30.5 298,-0.5 173,-0.5"/>
<text text-anchor="start" x="181" y="-18.5" font-family="Helvetica,sans-Serif" font-size="10.00">automaton::core::network</text>
<text text-anchor="middle" x="235.5" y="-7.5" font-family="Helvetica,sans-Serif" font-size="10.00">::zmq_connection</text>
</a>
</g>
</g>
<!-- Node69&#45;&gt;Node70 -->
<g id="edge7" class="edge">
<title>Node69&#45;&gt;Node70</title>
<path fill="none" stroke="midnightblue" d="M130,-46.53C147.68,-41.28 166.81,-35.6 183.82,-30.55"/>
<polygon fill="midnightblue" stroke="midnightblue" points="128.94,-43.2 120.35,-49.4 130.93,-49.91 128.94,-43.2"/>
</g>
<!-- Node67 -->
<g id="node11" class="node">
<title>Node67</title>
<g id="a_node11"><a xlink:href="d6/d94/classautomaton_1_1core_1_1network_1_1connection_1_1connection__handler.html" target="_top" xlink:title=" ">
<polygon fill="white" stroke="black" points="6,-181 6,-222 131,-222 131,-181 6,-181"/>
<text text-anchor="start" x="14" y="-210" font-family="Helvetica,sans-Serif" font-size="10.00">automaton::core::network</text>
<text text-anchor="start" x="14" y="-199" font-family="Helvetica,sans-Serif" font-size="10.00">::connection::connection</text>
<text text-anchor="middle" x="68.5" y="-188" font-family="Helvetica,sans-Serif" font-size="10.00">_handler</text>
</a>
</g>
</g>
<!-- Node67&#45;&gt;Node61 -->
<g id="edge9" class="edge">
<title>Node67&#45;&gt;Node61</title>
<path fill="none" stroke="midnightblue" d="M141.6,-201.5C154.43,-201.5 167.6,-201.5 179.84,-201.5"/>
<polygon fill="midnightblue" stroke="midnightblue" points="141.41,-198 131.41,-201.5 141.41,-205 141.41,-198"/>
</g>
<!-- Node0 -->
<g id="node12" class="node">
<title>Node0</title>
<g id="a_node12"><a xlink:href="d2/d04/classautomaton_1_1core_1_1eth__contract_1_1eth__contract.html" target="_top" xlink:title=" ">
<polygon fill="white" stroke="black" points="177.5,-235.5 177.5,-265.5 293.5,-265.5 293.5,-235.5 177.5,-235.5"/>
<text text-anchor="start" x="185.5" y="-253.5" font-family="Helvetica,sans-Serif" font-size="10.00">automaton::core::eth</text>
<text text-anchor="middle" x="235.5" y="-242.5" font-family="Helvetica,sans-Serif" font-size="10.00">_contract::eth_contract</text>
</a>
</g>
</g>
<!-- Node67&#45;&gt;Node0 -->
<g id="edge8" class="edge">
<title>Node67&#45;&gt;Node0</title>
<path fill="none" stroke="midnightblue" d="M141.25,-222.81C155.59,-227.06 170.37,-231.45 183.82,-235.45"/>
<polygon fill="midnightblue" stroke="midnightblue" points="141.99,-219.38 131.41,-219.89 140,-226.09 141.99,-219.38"/>
</g>
<!-- Node68 -->
<g id="node13" class="node">
<title>Node68</title>
<g id="a_node13"><a xlink:href="d7/d06/classclient__handler.html" target="_top" xlink:title=" ">
<polygon fill="white" stroke="black" points="197,-99 197,-118 274,-118 274,-99 197,-99"/>
<text text-anchor="middle" x="235.5" y="-106" font-family="Helvetica,sans-Serif" font-size="10.00">client_handler</text>
</a>
</g>
</g>
<!-- Node67&#45;&gt;Node68 -->
<g id="edge10" class="edge">
<title>Node67&#45;&gt;Node68</title>
<path fill="none" stroke="midnightblue" d="M132.67,-175.58C134.15,-174.58 135.6,-173.55 137,-172.5 157.18,-157.3 152.14,-142.76 173,-128.5 180.14,-123.62 188.54,-119.87 196.81,-117"/>
<polygon fill="midnightblue" stroke="midnightblue" points="130.57,-172.76 123.87,-180.96 134.22,-178.73 130.57,-172.76"/>
</g>
<!-- Node54 -->
<g id="node14" class="node">
<title>Node54</title>
<g id="a_node14"><a xlink:title=" ">
<polygon fill="white" stroke="#bfbfbf" points="6,-241 6,-260 131,-260 131,-241 6,-241"/>
<text text-anchor="middle" x="68.5" y="-248" font-family="Helvetica,sans-Serif" font-size="10.00">enable_shared_from_this</text>
</a>
</g>
</g>
<!-- Node54&#45;&gt;Node57 -->
<g id="edge13" class="edge">
<title>Node54&#45;&gt;Node57</title>
<path fill="none" stroke="midnightblue" d="M88.76,-266.51C108.85,-282.66 141.73,-307.56 173,-324.5 178.95,-327.72 185.42,-330.73 191.86,-333.46"/>
<polygon fill="midnightblue" stroke="midnightblue" points="90.94,-263.77 80.97,-260.17 86.52,-269.2 90.94,-263.77"/>
</g>
<!-- Node54&#45;&gt;Node59 -->
<g id="edge15" class="edge">
<title>Node54&#45;&gt;Node59</title>
<path fill="none" stroke="midnightblue" d="M80.68,-268.89C97.62,-295.37 132.18,-344.26 173,-373.5 177.66,-376.84 182.84,-379.79 188.17,-382.37"/>
<polygon fill="midnightblue" stroke="midnightblue" points="83.53,-266.85 75.26,-260.23 77.59,-270.56 83.53,-266.85"/>
</g>
<!-- Node54&#45;&gt;Node61 -->
<g id="edge17" class="edge">
<title>Node54&#45;&gt;Node61</title>
<path fill="none" stroke="midnightblue" d="M113.59,-238.25C121.4,-236.04 129.45,-233.73 137,-231.5 153.14,-226.75 170.73,-221.39 186.47,-216.53"/>
<polygon fill="midnightblue" stroke="midnightblue" points="112.56,-234.91 103.88,-240.99 114.46,-241.65 112.56,-234.91"/>
</g>
<!-- Node54&#45;&gt;Node58 -->
<g id="edge14" class="edge">
<title>Node54&#45;&gt;Node58</title>
<path fill="none" stroke="midnightblue" d="M128.52,-236.73C131.49,-235.17 134.34,-233.43 137,-231.5 160.33,-214.54 150.65,-195.74 173,-177.5 177.64,-173.71 182.94,-170.43 188.43,-167.61"/>
<polygon fill="midnightblue" stroke="midnightblue" points="126.99,-233.58 119.32,-240.9 129.88,-239.96 126.99,-233.58"/>
</g>
<!-- Node54&#45;&gt;Node60 -->
<g id="edge16" class="edge">
<title>Node54&#45;&gt;Node60</title>
<path fill="none" stroke="midnightblue" d="M132.51,-235.5C134.1,-234.27 135.6,-232.94 137,-231.5 182.43,-184.87 130.24,-138.6 173,-89.5 176.33,-85.68 180.33,-82.43 184.68,-79.67"/>
<polygon fill="midnightblue" stroke="midnightblue" points="130.59,-232.58 124.01,-240.88 134.33,-238.49 130.59,-232.58"/>
</g>
<!-- Node54&#45;&gt;Node0 -->
<g id="edge11" class="edge">
<title>Node54&#45;&gt;Node0</title>
<path fill="none" stroke="midnightblue" d="M141.43,-250.5C153.47,-250.5 165.82,-250.5 177.42,-250.5"/>
<polygon fill="midnightblue" stroke="midnightblue" points="141.41,-247 131.41,-250.5 141.41,-254 141.41,-247"/>
</g>
<!-- Node56 -->
<g id="node15" class="node">
<title>Node56</title>
<g id="a_node15"><a xlink:href="d4/de7/classautomaton_1_1core_1_1interop_1_1ethereum_1_1eth__contract.html" target="_top" xlink:title=" ">
<polygon fill="white" stroke="black" points="175.5,-284.5 175.5,-314.5 295.5,-314.5 295.5,-284.5 175.5,-284.5"/>
<text text-anchor="start" x="183.5" y="-302.5" font-family="Helvetica,sans-Serif" font-size="10.00">automaton::core::interop</text>
<text text-anchor="middle" x="235.5" y="-291.5" font-family="Helvetica,sans-Serif" font-size="10.00">::ethereum::eth_contract</text>
</a>
</g>
</g>
<!-- Node54&#45;&gt;Node56 -->
<g id="edge12" class="edge">
<title>Node54&#45;&gt;Node56</title>
<path fill="none" stroke="midnightblue" d="M111.44,-262.95C133.48,-269.5 160.66,-277.57 183.87,-284.46"/>
<polygon fill="midnightblue" stroke="midnightblue" points="112.29,-259.56 101.71,-260.06 110.3,-266.27 112.29,-259.56"/>
</g>
</g>
</svg>
