<?xml version="1.0" encoding="UTF-8" standalone="no"?>
<!DOCTYPE svg PUBLIC "-//W3C//DTD SVG 1.1//EN"
 "http://www.w3.org/Graphics/SVG/1.1/DTD/svg11.dtd">
<!-- Generated by graphviz version 2.42.3 ()
 -->
<!-- Title: Graphical Class Hierarchy Pages: 1 -->
<svg width="301pt" height="99pt"
 viewBox="0.00 0.00 301.00 98.50" xmlns="http://www.w3.org/2000/svg" xmlns:xlink="http://www.w3.org/1999/xlink">
<g id="graph0" class="graph" transform="scale(1 1) rotate(0) translate(4 94.5)">
<title>Graphical Class Hierarchy</title>
<polygon fill="white" stroke="transparent" points="-4,4 -4,-94.5 297,-94.5 297,4 -4,4"/>
<!-- Node0 -->
<g id="node1" class="node">
<title>Node0</title>
<g id="a_node1"><a xlink:href="db/dcb/classautomaton_1_1core_1_1crypto_1_1digital__signature.html" target="_top" xlink:title=" ">
<polygon fill="white" stroke="black" points="0,-27.5 0,-57.5 116,-57.5 116,-27.5 0,-27.5"/>
<text text-anchor="start" x="8" y="-45.5" font-family="Helvetica,sans-Serif" font-size="10.00">automaton::core::crypto</text>
<text text-anchor="middle" x="58" y="-34.5" font-family="Helvetica,sans-Serif" font-size="10.00">::digital_signature</text>
</a>
</g>
</g>
<!-- Node1 -->
<g id="node2" class="node">
<title>Node1</title>
<g id="a_node2"><a xlink:href="d0/d6d/classautomaton_1_1core_1_1crypto_1_1cryptopp_1_1secp256k1__cryptopp.html" target="_top" xlink:title=" ">
<polygon fill="white" stroke="black" points="164.5,-49 164.5,-90 280.5,-90 280.5,-49 164.5,-49"/>
<text text-anchor="start" x="172.5" y="-78" font-family="Helvetica,sans-Serif" font-size="10.00">automaton::core::crypto</text>
<text text-anchor="start" x="172.5" y="-67" font-family="Helvetica,sans-Serif" font-size="10.00">::cryptopp::secp256k1</text>
<text text-anchor="middle" x="222.5" y="-56" font-family="Helvetica,sans-Serif" font-size="10.00">_cryptopp</text>
</a>
</g>
</g>
<!-- Node0&#45;&gt;Node1 -->
<g id="edge1" class="edge">
<title>Node0&#45;&gt;Node1</title>
<path fill="none" stroke="midnightblue" d="M126.33,-53.69C139,-55.79 152.13,-57.97 164.45,-60.02"/>
<polygon fill="midnightblue" stroke="midnightblue" points="126.73,-50.21 116.29,-52.02 125.58,-57.11 126.73,-50.21"/>
</g>
<!-- Node2 -->
<g id="node3" class="node">
<title>Node2</title>
<g id="a_node3"><a xlink:href="d4/dc1/classautomaton_1_1core_1_1crypto_1_1ed25519__orlp_1_1ed25519__orlp.html" target="_top" xlink:title=" ">
<polygon fill="white" stroke="black" points="152,-0.5 152,-30.5 293,-30.5 293,-0.5 152,-0.5"/>
<text text-anchor="start" x="160" y="-18.5" font-family="Helvetica,sans-Serif" font-size="10.00">automaton::core::crypto</text>
<text text-anchor="middle" x="222.5" y="-7.5" font-family="Helvetica,sans-Serif" font-size="10.00">::ed25519_orlp::ed25519_orlp</text>
</a>
</g>
</g>
<!-- Node0&#45;&gt;Node2 -->
<g id="edge2" class="edge">
<title>Node0&#45;&gt;Node2</title>
<path fill="none" stroke="midnightblue" d="M126.43,-31.3C134.84,-29.9 143.46,-28.47 151.9,-27.06"/>
<polygon fill="midnightblue" stroke="midnightblue" points="125.58,-27.89 116.29,-32.98 126.73,-34.79 125.58,-27.89"/>
</g>
</g>
</svg>
