<?xml version="1.0" encoding="UTF-8" standalone="no"?>
<!DOCTYPE svg PUBLIC "-//W3C//DTD SVG 1.1//EN"
 "http://www.w3.org/Graphics/SVG/1.1/DTD/svg11.dtd">
<!-- Generated by graphviz version 2.42.3 ()
 -->
<!-- Title: state_persistent.cc Pages: 1 -->
<!--zoomable 296 -->
<svg id="main" version="1.1" xmlns="http://www.w3.org/2000/svg" xmlns:xlink="http://www.w3.org/1999/xlink" xml:space="preserve" onload="init(evt)">
<style type="text/css"><![CDATA[
.edge:hover path { stroke: red; }
.edge:hover polygon { stroke: red; fill: red; }
]]></style>
<script type="text/javascript"><![CDATA[
var edges = document.getElementsByTagName('g');
if (edges && edges.length) {
  for (var i=0;i<edges.length;i++) {
    if (edges[i].id.substr(0,4)=='edge') {
      edges[i].setAttribute('class','edge');
    }
  }
}
]]></script>
        <defs>
                <circle id="rim" cx="0" cy="0" r="7"/>
                <circle id="rim2" cx="0" cy="0" r="3.5"/>
                <g id="zoomPlus">
                        <use xlink:href="#rim" fill="#404040">
                                <set attributeName="fill" to="#808080" begin="zoomplus.mouseover" end="zoomplus.mouseout"/>
                        </use>
                        <path d="M-4,0h8M0,-4v8" fill="none" stroke="white" stroke-width="1.5" pointer-events="none"/>
                </g>
                <g id="zoomMin">
                        <use xlink:href="#rim" fill="#404040">
                                <set attributeName="fill" to="#808080" begin="zoomminus.mouseover" end="zoomminus.mouseout"/>
                        </use>
                        <path d="M-4,0h8" fill="none" stroke="white" stroke-width="1.5" pointer-events="none"/>
                </g>
                <g id="dirArrow">
                        <path fill="none" stroke="white" stroke-width="1.5" d="M0,-3.0v7 M-2.5,-0.5L0,-3.0L2.5,-0.5"/>
                </g>
               <g id="resetDef">
                       <use xlink:href="#rim2" fill="#404040">
                               <set attributeName="fill" to="#808080" begin="reset.mouseover" end="reset.mouseout"/>
                       </use>
               </g>
        </defs>

<script type="text/javascript">
var viewWidth = 1291;
var viewHeight = 296;
var sectionId = 'dynsection-0';
</script>
<script xlink:href="../../svgpan.js"/>
<svg id="graph" class="graph">
<g id="viewport">
<title>state_persistent.cc</title>
<polygon fill="white" stroke="transparent" points="-4,4 -4,-292 1287.44,-292 1287.44,4 -4,4"/>
<!-- Node1 -->
<g id="node1" class="node">
<title>Node1</title>
<g id="a_node1"><a xlink:title=" ">
<polygon fill="#bfbfbf" stroke="black" points="780.94,-268.5 780.94,-287.5 879.94,-287.5 879.94,-268.5 780.94,-268.5"/>
<text text-anchor="middle" x="830.44" y="-275.5" font-family="Helvetica,sans-Serif" font-size="10.00">state_persistent.cc</text>
</a>
</g>
</g>
<!-- Node2 -->
<g id="node2" class="node">
<title>Node2</title>
<g id="a_node2"><a xlink:href="../../da/db5/state__persistent_8h.html" target="_top" xlink:title=" ">
<polygon fill="white" stroke="black" points="406.94,-201.5 406.94,-231.5 515.94,-231.5 515.94,-201.5 406.94,-201.5"/>
<text text-anchor="start" x="414.94" y="-219.5" font-family="Helvetica,sans-Serif" font-size="10.00">automaton/core/state</text>
<text text-anchor="middle" x="461.44" y="-208.5" font-family="Helvetica,sans-Serif" font-size="10.00">/state_persistent.h</text>
</a>
</g>
</g>
<!-- Node1&#45;&gt;Node2 -->
<g id="edge1" class="edge">
<title>Node1&#45;&gt;Node2</title>
<path fill="none" stroke="midnightblue" d="M780.68,-268.98C714.82,-258.36 598.62,-239.62 526.05,-227.92"/>
<polygon fill="midnightblue" stroke="midnightblue" points="526.54,-224.45 516.11,-226.32 525.43,-231.36 526.54,-224.45"/>
</g>
<!-- Node4 -->
<g id="node4" class="node">
<title>Node4</title>
<g id="a_node4"><a xlink:title=" ">
<polygon fill="white" stroke="#bfbfbf" points="154.94,-73 154.94,-92 189.94,-92 189.94,-73 154.94,-73"/>
<text text-anchor="middle" x="172.44" y="-80" font-family="Helvetica,sans-Serif" font-size="10.00">map</text>
</a>
</g>
</g>
<!-- Node1&#45;&gt;Node4 -->
<g id="edge26" class="edge">
<title>Node1&#45;&gt;Node4</title>
<path fill="none" stroke="midnightblue" d="M780.87,-275.31C699.85,-271.79 534.34,-261.35 397.44,-232 304.54,-212.09 259.75,-234.01 194.44,-165 178.43,-148.07 173.82,-120.73 172.63,-102.45"/>
<polygon fill="midnightblue" stroke="midnightblue" points="176.12,-102.27 172.25,-92.4 169.13,-102.53 176.12,-102.27"/>
</g>
<!-- Node5 -->
<g id="node5" class="node">
<title>Node5</title>
<g id="a_node5"><a xlink:title=" ">
<polygon fill="white" stroke="#bfbfbf" points="772.44,-140 772.44,-159 802.44,-159 802.44,-140 772.44,-140"/>
<text text-anchor="middle" x="787.44" y="-147" font-family="Helvetica,sans-Serif" font-size="10.00">set</text>
</a>
</g>
</g>
<!-- Node1&#45;&gt;Node5 -->
<g id="edge27" class="edge">
<title>Node1&#45;&gt;Node5</title>
<path fill="none" stroke="midnightblue" d="M827.49,-268.31C820.55,-247.9 803.11,-196.6 793.7,-168.91"/>
<polygon fill="midnightblue" stroke="midnightblue" points="796.95,-167.6 790.42,-159.26 790.32,-169.85 796.95,-167.6"/>
</g>
<!-- Node6 -->
<g id="node6" class="node">
<title>Node6</title>
<g id="a_node6"><a xlink:title=" ">
<polygon fill="white" stroke="#bfbfbf" points="358.94,-6 358.94,-25 399.94,-25 399.94,-6 358.94,-6"/>
<text text-anchor="middle" x="379.44" y="-13" font-family="Helvetica,sans-Serif" font-size="10.00">string</text>
</a>
</g>
</g>
<!-- Node1&#45;&gt;Node6 -->
<g id="edge29" class="edge">
<title>Node1&#45;&gt;Node6</title>
<path fill="none" stroke="midnightblue" d="M780.86,-277.28C639.19,-277.53 234.83,-274.43 110.44,-232 60.16,-214.85 36.35,-211.93 11.44,-165 -9.58,-125.39 0.75,-95.42 35.44,-67 83.07,-27.99 273.18,-19.08 348.49,-17.08"/>
<polygon fill="midnightblue" stroke="midnightblue" points="348.83,-20.57 358.74,-16.83 348.66,-13.57 348.83,-20.57"/>
</g>
<!-- Node7 -->
<g id="node7" class="node">
<title>Node7</title>
<g id="a_node7"><a xlink:title=" ">
<polygon fill="white" stroke="#bfbfbf" points="722.44,-73 722.44,-92 766.44,-92 766.44,-73 722.44,-73"/>
<text text-anchor="middle" x="744.44" y="-80" font-family="Helvetica,sans-Serif" font-size="10.00">vector</text>
</a>
</g>
</g>
<!-- Node1&#45;&gt;Node7 -->
<g id="edge31" class="edge">
<title>Node1&#45;&gt;Node7</title>
<path fill="none" stroke="midnightblue" d="M831.49,-268.21C833.87,-244.63 837.58,-178.77 811.44,-134 802.22,-118.21 785.94,-105.77 771.74,-97.18"/>
<polygon fill="midnightblue" stroke="midnightblue" points="773.22,-94 762.8,-92.1 769.76,-100.08 773.22,-94"/>
</g>
<!-- Node8 -->
<g id="node8" class="node">
<title>Node8</title>
<g id="a_node8"><a xlink:href="../../d2/dab/hash__transformation_8h.html" target="_top" xlink:title=" ">
<polygon fill="white" stroke="black" points="20.44,-134.5 20.44,-164.5 136.44,-164.5 136.44,-134.5 20.44,-134.5"/>
<text text-anchor="start" x="28.44" y="-152.5" font-family="Helvetica,sans-Serif" font-size="10.00">automaton/core/crypto</text>
<text text-anchor="middle" x="78.44" y="-141.5" font-family="Helvetica,sans-Serif" font-size="10.00">/hash_transformation.h</text>
</a>
</g>
</g>
<!-- Node1&#45;&gt;Node8 -->
<g id="edge32" class="edge">
<title>Node1&#45;&gt;Node8</title>
<path fill="none" stroke="midnightblue" d="M780.77,-275.89C633.6,-272.29 206.56,-259.57 150.44,-232 124.55,-219.28 103.92,-192.71 91.49,-173.35"/>
<polygon fill="midnightblue" stroke="midnightblue" points="94.43,-171.46 86.21,-164.78 88.47,-175.13 94.43,-171.46"/>
</g>
<!-- Node16 -->
<g id="node16" class="node">
<title>Node16</title>
<g id="a_node16"><a xlink:title=" ">
<polygon fill="white" stroke="#bfbfbf" points="990.44,-207 990.44,-226 1046.44,-226 1046.44,-207 990.44,-207"/>
<text text-anchor="middle" x="1018.44" y="-214" font-family="Helvetica,sans-Serif" font-size="10.00">algorithm</text>
</a>
</g>
</g>
<!-- Node1&#45;&gt;Node16 -->
<g id="edge24" class="edge">
<title>Node1&#45;&gt;Node16</title>
<path fill="none" stroke="midnightblue" d="M861.92,-268.45C892.64,-259.91 940.58,-246.07 981.44,-232 983.56,-231.27 985.74,-230.49 987.93,-229.69"/>
<polygon fill="midnightblue" stroke="midnightblue" points="989.31,-232.91 997.42,-226.09 986.83,-226.36 989.31,-232.91"/>
</g>
<!-- Node17 -->
<g id="node17" class="node">
<title>Node17</title>
<g id="a_node17"><a xlink:title=" ">
<polygon fill="white" stroke="#bfbfbf" points="1064.44,-207 1064.44,-226 1114.44,-226 1114.44,-207 1064.44,-207"/>
<text text-anchor="middle" x="1089.44" y="-214" font-family="Helvetica,sans-Serif" font-size="10.00">iomanip</text>
</a>
</g>
</g>
<!-- Node1&#45;&gt;Node17 -->
<g id="edge25" class="edge">
<title>Node1&#45;&gt;Node17</title>
<path fill="none" stroke="midnightblue" d="M880.33,-270.04C926.42,-262.91 996.46,-250.26 1055.44,-232 1057.58,-231.34 1059.77,-230.58 1061.96,-229.78"/>
<polygon fill="midnightblue" stroke="midnightblue" points="1063.36,-232.99 1071.35,-226.03 1060.76,-226.49 1063.36,-232.99"/>
</g>
<!-- Node18 -->
<g id="node18" class="node">
<title>Node18</title>
<g id="a_node18"><a xlink:title=" ">
<polygon fill="white" stroke="#bfbfbf" points="1132.44,-207 1132.44,-226 1184.44,-226 1184.44,-207 1132.44,-207"/>
<text text-anchor="middle" x="1158.44" y="-214" font-family="Helvetica,sans-Serif" font-size="10.00">sstream</text>
</a>
</g>
</g>
<!-- Node1&#45;&gt;Node18 -->
<g id="edge28" class="edge">
<title>Node1&#45;&gt;Node18</title>
<path fill="none" stroke="midnightblue" d="M880.2,-273.03C939.12,-267.49 1039.8,-255.38 1123.44,-232 1125.88,-231.32 1128.38,-230.51 1130.86,-229.64"/>
<polygon fill="midnightblue" stroke="midnightblue" points="1132.14,-232.9 1140.21,-226.02 1129.62,-226.37 1132.14,-232.9"/>
</g>
<!-- Node19 -->
<g id="node19" class="node">
<title>Node19</title>
<g id="a_node19"><a xlink:title=" ">
<polygon fill="white" stroke="#bfbfbf" points="1202.94,-207 1202.94,-226 1241.94,-226 1241.94,-207 1202.94,-207"/>
<text text-anchor="middle" x="1222.44" y="-214" font-family="Helvetica,sans-Serif" font-size="10.00">utility</text>
</a>
</g>
</g>
<!-- Node1&#45;&gt;Node19 -->
<g id="edge30" class="edge">
<title>Node1&#45;&gt;Node19</title>
<path fill="none" stroke="midnightblue" d="M879.97,-276.15C950.89,-273.76 1084.78,-264.84 1193.44,-232 1195.11,-231.5 1196.8,-230.9 1198.48,-230.25"/>
<polygon fill="midnightblue" stroke="midnightblue" points="1200.12,-233.34 1207.79,-226.03 1197.24,-226.97 1200.12,-233.34"/>
</g>
<!-- Node20 -->
<g id="node20" class="node">
<title>Node20</title>
<g id="a_node20"><a xlink:href="../../dc/dac/io_8h.html" target="_top" xlink:title=" ">
<polygon fill="white" stroke="black" points="858.94,-207 858.94,-226 971.94,-226 971.94,-207 858.94,-207"/>
<text text-anchor="middle" x="915.44" y="-214" font-family="Helvetica,sans-Serif" font-size="10.00">automaton/core/io/io.h</text>
</a>
</g>
</g>
<!-- Node1&#45;&gt;Node20 -->
<g id="edge33" class="edge">
<title>Node1&#45;&gt;Node20</title>
<path fill="none" stroke="midnightblue" d="M842.62,-268.48C856.25,-258.93 878.57,-243.31 894.92,-231.87"/>
<polygon fill="midnightblue" stroke="midnightblue" points="897.1,-234.61 903.29,-226.01 893.09,-228.88 897.1,-234.61"/>
</g>
<!-- Node3 -->
<g id="node3" class="node">
<title>Node3</title>
<g id="a_node3"><a xlink:title=" ">
<polygon fill="white" stroke="#bfbfbf" points="268.44,-140 268.44,-159 314.44,-159 314.44,-140 268.44,-140"/>
<text text-anchor="middle" x="291.44" y="-147" font-family="Helvetica,sans-Serif" font-size="10.00">cstdint</text>
</a>
</g>
</g>
<!-- Node2&#45;&gt;Node3 -->
<g id="edge2" class="edge">
<title>Node2&#45;&gt;Node3</title>
<path fill="none" stroke="midnightblue" d="M420.68,-201.48C393.04,-191.76 355.79,-178.23 323.44,-165 322.03,-164.42 320.59,-163.82 319.14,-163.2"/>
<polygon fill="midnightblue" stroke="midnightblue" points="320.18,-159.84 309.62,-159.02 317.36,-166.25 320.18,-159.84"/>
</g>
<!-- Node2&#45;&gt;Node4 -->
<g id="edge3" class="edge">
<title>Node2&#45;&gt;Node4</title>
<path fill="none" stroke="midnightblue" d="M406.5,-215.2C355.72,-212.41 280.22,-201.69 226.44,-165 203.49,-149.34 187.81,-120.39 179.49,-101.54"/>
<polygon fill="midnightblue" stroke="midnightblue" points="182.7,-100.15 175.62,-92.26 176.24,-102.84 182.7,-100.15"/>
</g>
<!-- Node2&#45;&gt;Node5 -->
<g id="edge4" class="edge">
<title>Node2&#45;&gt;Node5</title>
<path fill="none" stroke="midnightblue" d="M515.98,-211.09C576.45,-205.09 676.29,-191.86 758.44,-165 760.06,-164.47 761.7,-163.86 763.34,-163.21"/>
<polygon fill="midnightblue" stroke="midnightblue" points="764.8,-166.38 772.45,-159.05 761.9,-160.01 764.8,-166.38"/>
</g>
<!-- Node2&#45;&gt;Node6 -->
<g id="edge5" class="edge">
<title>Node2&#45;&gt;Node6</title>
<path fill="none" stroke="midnightblue" d="M406.53,-209.34C353.1,-202.08 277.41,-188.01 259.44,-165 220.13,-114.65 308.02,-55.95 353.87,-30"/>
<polygon fill="midnightblue" stroke="midnightblue" points="355.63,-33.03 362.69,-25.12 352.24,-26.9 355.63,-33.03"/>
</g>
<!-- Node2&#45;&gt;Node7 -->
<g id="edge6" class="edge">
<title>Node2&#45;&gt;Node7</title>
<path fill="none" stroke="midnightblue" d="M516.04,-211.96C584.41,-206.39 696.12,-193.17 725.44,-165 742.27,-148.83 745.46,-120.86 745.5,-102.26"/>
<polygon fill="midnightblue" stroke="midnightblue" points="749,-101.99 745.22,-92.09 742,-102.18 749,-101.99"/>
</g>
<!-- Node2&#45;&gt;Node8 -->
<g id="edge7" class="edge">
<title>Node2&#45;&gt;Node8</title>
<path fill="none" stroke="midnightblue" d="M406.57,-206.19C338.12,-194.57 221.07,-174.71 146.85,-162.11"/>
<polygon fill="midnightblue" stroke="midnightblue" points="147.11,-158.6 136.67,-160.38 145.94,-165.51 147.11,-158.6"/>
</g>
<!-- Node10 -->
<g id="node10" class="node">
<title>Node10</title>
<g id="a_node10"><a xlink:href="../../db/d3b/state_8h.html" target="_top" xlink:title=" ">
<polygon fill="white" stroke="black" points="606.94,-134.5 606.94,-164.5 715.94,-164.5 715.94,-134.5 606.94,-134.5"/>
<text text-anchor="start" x="614.94" y="-152.5" font-family="Helvetica,sans-Serif" font-size="10.00">automaton/core/state</text>
<text text-anchor="middle" x="661.44" y="-141.5" font-family="Helvetica,sans-Serif" font-size="10.00">/state.h</text>
</a>
</g>
</g>
<!-- Node2&#45;&gt;Node10 -->
<g id="edge11" class="edge">
<title>Node2&#45;&gt;Node10</title>
<path fill="none" stroke="midnightblue" d="M504.84,-201.4C535.24,-191.52 576.05,-178.25 608.39,-167.74"/>
<polygon fill="midnightblue" stroke="midnightblue" points="609.7,-171 618.13,-164.58 607.54,-164.34 609.7,-171"/>
</g>
<!-- Node11 -->
<g id="node11" class="node">
<title>Node11</title>
<g id="a_node11"><a xlink:href="../../df/d22/persistent__blobstore_8h.html" target="_top" xlink:title=" ">
<polygon fill="white" stroke="black" points="469.94,-134.5 469.94,-164.5 588.94,-164.5 588.94,-134.5 469.94,-134.5"/>
<text text-anchor="start" x="477.94" y="-152.5" font-family="Helvetica,sans-Serif" font-size="10.00">automaton/core/storage</text>
<text text-anchor="middle" x="529.44" y="-141.5" font-family="Helvetica,sans-Serif" font-size="10.00">/persistent_blobstore.h</text>
</a>
</g>
</g>
<!-- Node2&#45;&gt;Node11 -->
<g id="edge14" class="edge">
<title>Node2&#45;&gt;Node11</title>
<path fill="none" stroke="midnightblue" d="M476.2,-201.4C485.29,-192.71 497.11,-181.4 507.31,-171.66"/>
<polygon fill="midnightblue" stroke="midnightblue" points="509.91,-174.02 514.72,-164.58 505.07,-168.96 509.91,-174.02"/>
</g>
<!-- Node14 -->
<g id="node14" class="node">
<title>Node14</title>
<g id="a_node14"><a xlink:href="../../da/dcd/persistent__vector_8h.html" target="_top" xlink:title=" ">
<polygon fill="white" stroke="black" points="332.94,-134.5 332.94,-164.5 451.94,-164.5 451.94,-134.5 332.94,-134.5"/>
<text text-anchor="start" x="340.94" y="-152.5" font-family="Helvetica,sans-Serif" font-size="10.00">automaton/core/storage</text>
<text text-anchor="middle" x="392.44" y="-141.5" font-family="Helvetica,sans-Serif" font-size="10.00">/persistent_vector.h</text>
</a>
</g>
</g>
<!-- Node2&#45;&gt;Node14 -->
<g id="edge19" class="edge">
<title>Node2&#45;&gt;Node14</title>
<path fill="none" stroke="midnightblue" d="M446.47,-201.4C437.25,-192.71 425.25,-181.4 414.9,-171.66"/>
<polygon fill="midnightblue" stroke="midnightblue" points="417.06,-168.89 407.39,-164.58 412.26,-173.98 417.06,-168.89"/>
</g>
<!-- Node8&#45;&gt;Node4 -->
<g id="edge9" class="edge">
<title>Node8&#45;&gt;Node4</title>
<path fill="none" stroke="midnightblue" d="M98.84,-134.4C114.46,-123.6 135.92,-108.76 151.64,-97.89"/>
<polygon fill="midnightblue" stroke="midnightblue" points="153.91,-100.57 160.14,-92.01 149.92,-94.82 153.91,-100.57"/>
</g>
<!-- Node8&#45;&gt;Node6 -->
<g id="edge10" class="edge">
<title>Node8&#45;&gt;Node6</title>
<path fill="none" stroke="midnightblue" d="M86.1,-134.2C96.82,-115.65 118.08,-83.69 145.44,-67 210.13,-27.55 301.35,-18.68 348.51,-16.84"/>
<polygon fill="midnightblue" stroke="midnightblue" points="348.81,-20.33 358.7,-16.52 348.59,-13.33 348.81,-20.33"/>
</g>
<!-- Node9 -->
<g id="node9" class="node">
<title>Node9</title>
<g id="a_node9"><a xlink:title=" ">
<polygon fill="white" stroke="#bfbfbf" points="44.44,-73 44.44,-92 98.44,-92 98.44,-73 44.44,-73"/>
<text text-anchor="middle" x="71.44" y="-80" font-family="Helvetica,sans-Serif" font-size="10.00">iostream</text>
</a>
</g>
</g>
<!-- Node8&#45;&gt;Node9 -->
<g id="edge8" class="edge">
<title>Node8&#45;&gt;Node9</title>
<path fill="none" stroke="midnightblue" d="M76.92,-134.4C75.91,-124.96 74.56,-112.45 73.46,-102.19"/>
<polygon fill="midnightblue" stroke="midnightblue" points="76.93,-101.76 72.38,-92.19 69.97,-102.51 76.93,-101.76"/>
</g>
<!-- Node10&#45;&gt;Node6 -->
<g id="edge12" class="edge">
<title>Node10&#45;&gt;Node6</title>
<path fill="none" stroke="midnightblue" d="M654.95,-134.25C645.76,-115.75 627.16,-83.85 601.44,-67 570.12,-46.48 463.58,-28.68 410.3,-20.8"/>
<polygon fill="midnightblue" stroke="midnightblue" points="410.49,-17.3 400.09,-19.32 409.48,-24.22 410.49,-17.3"/>
</g>
<!-- Node10&#45;&gt;Node7 -->
<g id="edge13" class="edge">
<title>Node10&#45;&gt;Node7</title>
<path fill="none" stroke="midnightblue" d="M679.45,-134.4C693.03,-123.76 711.62,-109.2 725.44,-98.38"/>
<polygon fill="midnightblue" stroke="midnightblue" points="727.63,-101.12 733.34,-92.19 723.31,-95.6 727.63,-101.12"/>
</g>
<!-- Node11&#45;&gt;Node6 -->
<g id="edge15" class="edge">
<title>Node11&#45;&gt;Node6</title>
<path fill="none" stroke="midnightblue" d="M551.06,-134.27C573.56,-117.7 603.24,-89.69 585.44,-67 563.97,-39.62 461.94,-25.15 409.99,-19.44"/>
<polygon fill="midnightblue" stroke="midnightblue" points="410.32,-15.96 400.01,-18.39 409.59,-22.92 410.32,-15.96"/>
</g>
<!-- Node12 -->
<g id="node12" class="node">
<title>Node12</title>
<g id="a_node12"><a xlink:title=" ">
<polygon fill="white" stroke="#bfbfbf" points="519.44,-0.5 519.44,-30.5 637.44,-30.5 637.44,-0.5 519.44,-0.5"/>
<text text-anchor="start" x="527.44" y="-18.5" font-family="Helvetica,sans-Serif" font-size="10.00">boost/iostreams/device</text>
<text text-anchor="middle" x="578.44" y="-7.5" font-family="Helvetica,sans-Serif" font-size="10.00">/mapped_file.hpp</text>
</a>
</g>
</g>
<!-- Node11&#45;&gt;Node12 -->
<g id="edge16" class="edge">
<title>Node11&#45;&gt;Node12</title>
<path fill="none" stroke="midnightblue" d="M573.67,-134.44C590.79,-126.59 608.61,-114.89 618.44,-98 629.89,-78.34 615.71,-54.93 601.16,-38.26"/>
<polygon fill="midnightblue" stroke="midnightblue" points="603.47,-35.6 594.1,-30.66 598.34,-40.37 603.47,-35.6"/>
</g>
<!-- Node13 -->
<g id="node13" class="node">
<title>Node13</title>
<g id="a_node13"><a xlink:href="../../dd/d71/blobstore_8h.html" target="_top" xlink:title=" ">
<polygon fill="white" stroke="black" points="456.94,-67.5 456.94,-97.5 575.94,-97.5 575.94,-67.5 456.94,-67.5"/>
<text text-anchor="start" x="464.94" y="-85.5" font-family="Helvetica,sans-Serif" font-size="10.00">automaton/core/storage</text>
<text text-anchor="middle" x="516.44" y="-74.5" font-family="Helvetica,sans-Serif" font-size="10.00">/blobstore.h</text>
</a>
</g>
</g>
<!-- Node11&#45;&gt;Node13 -->
<g id="edge17" class="edge">
<title>Node11&#45;&gt;Node13</title>
<path fill="none" stroke="midnightblue" d="M526.62,-134.4C525.05,-126.56 523.06,-116.6 521.26,-107.57"/>
<polygon fill="midnightblue" stroke="midnightblue" points="524.65,-106.7 519.26,-97.58 517.79,-108.07 524.65,-106.7"/>
</g>
<!-- Node13&#45;&gt;Node6 -->
<g id="edge18" class="edge">
<title>Node13&#45;&gt;Node6</title>
<path fill="none" stroke="midnightblue" d="M486.72,-67.4C462.89,-56.09 429.73,-40.36 406.61,-29.39"/>
<polygon fill="midnightblue" stroke="midnightblue" points="407.91,-26.13 397.37,-25.01 404.91,-32.46 407.91,-26.13"/>
</g>
<!-- Node14&#45;&gt;Node6 -->
<g id="edge20" class="edge">
<title>Node14&#45;&gt;Node6</title>
<path fill="none" stroke="midnightblue" d="M353.32,-134.48C337.01,-126.47 319.74,-114.64 310.44,-98 303.72,-85.97 304.21,-79.29 310.44,-67 318.79,-50.56 335.28,-38.18 350.05,-29.8"/>
<polygon fill="midnightblue" stroke="midnightblue" points="351.73,-32.86 358.93,-25.09 348.46,-26.68 351.73,-32.86"/>
</g>
<!-- Node15 -->
<g id="node15" class="node">
<title>Node15</title>
<g id="a_node15"><a xlink:href="../../d2/d42/persistent__storage_8h.html" target="_top" xlink:title=" ">
<polygon fill="white" stroke="black" points="319.94,-67.5 319.94,-97.5 438.94,-97.5 438.94,-67.5 319.94,-67.5"/>
<text text-anchor="start" x="327.94" y="-85.5" font-family="Helvetica,sans-Serif" font-size="10.00">automaton/core/storage</text>
<text text-anchor="middle" x="379.44" y="-74.5" font-family="Helvetica,sans-Serif" font-size="10.00">/persistent_storage.h</text>
</a>
</g>
</g>
<!-- Node14&#45;&gt;Node15 -->
<g id="edge21" class="edge">
<title>Node14&#45;&gt;Node15</title>
<path fill="none" stroke="midnightblue" d="M389.62,-134.4C388.05,-126.56 386.06,-116.6 384.26,-107.57"/>
<polygon fill="midnightblue" stroke="midnightblue" points="387.65,-106.7 382.26,-97.58 380.79,-108.07 387.65,-106.7"/>
</g>
<!-- Node15&#45;&gt;Node6 -->
<g id="edge22" class="edge">
<title>Node15&#45;&gt;Node6</title>
<path fill="none" stroke="midnightblue" d="M379.44,-67.4C379.44,-58.06 379.44,-45.71 379.44,-35.52"/>
<polygon fill="midnightblue" stroke="midnightblue" points="382.94,-35.19 379.44,-25.19 375.94,-35.19 382.94,-35.19"/>
</g>
<!-- Node15&#45;&gt;Node12 -->
<g id="edge23" class="edge">
<title>Node15&#45;&gt;Node12</title>
<path fill="none" stroke="midnightblue" d="M422.62,-67.4C452.87,-57.52 493.48,-44.25 525.65,-33.74"/>
<polygon fill="midnightblue" stroke="midnightblue" points="526.93,-37.01 535.35,-30.58 524.75,-30.35 526.93,-37.01"/>
</g>
<!-- Node20&#45;&gt;Node6 -->
<g id="edge35" class="edge">
<title>Node20&#45;&gt;Node6</title>
<path fill="none" stroke="midnightblue" d="M910.39,-206.87C894.46,-180.55 842.38,-101.08 775.44,-67 759.14,-58.7 500.29,-29.73 410.13,-19.84"/>
<polygon fill="midnightblue" stroke="midnightblue" points="410.32,-16.34 399.99,-18.73 409.55,-23.3 410.32,-16.34"/>
</g>
<!-- Node21 -->
<g id="node21" class="node">
<title>Node21</title>
<g id="a_node21"><a xlink:title=" ">
<polygon fill="white" stroke="#bfbfbf" points="1237.44,-140 1237.44,-159 1283.44,-159 1283.44,-140 1237.44,-140"/>
<text text-anchor="middle" x="1260.44" y="-147" font-family="Helvetica,sans-Serif" font-size="10.00">chrono</text>
</a>
</g>
</g>
<!-- Node20&#45;&gt;Node21 -->
<g id="edge34" class="edge">
<title>Node20&#45;&gt;Node21</title>
<path fill="none" stroke="midnightblue" d="M952,-206.98C961.56,-204.89 971.86,-202.75 981.44,-201 1090.58,-181.08 1121.98,-196.2 1228.44,-165 1230.37,-164.43 1232.34,-163.77 1234.3,-163.05"/>
<polygon fill="midnightblue" stroke="midnightblue" points="1235.95,-166.16 1243.84,-159.09 1233.26,-159.69 1235.95,-166.16"/>
</g>
<!-- Node22 -->
<g id="node22" class="node">
<title>Node22</title>
<g id="a_node22"><a xlink:title=" ">
<polygon fill="white" stroke="#bfbfbf" points="896.44,-140 896.44,-159 980.44,-159 980.44,-140 896.44,-140"/>
<text text-anchor="middle" x="938.44" y="-147" font-family="Helvetica,sans-Serif" font-size="10.00">g3log/g3log.hpp</text>
</a>
</g>
</g>
<!-- Node20&#45;&gt;Node22 -->
<g id="edge36" class="edge">
<title>Node20&#45;&gt;Node22</title>
<path fill="none" stroke="midnightblue" d="M918.54,-206.73C921.96,-197.09 927.54,-181.3 931.93,-168.91"/>
<polygon fill="midnightblue" stroke="midnightblue" points="935.35,-169.72 935.39,-159.13 928.75,-167.39 935.35,-169.72"/>
</g>
<!-- Node23 -->
<g id="node23" class="node">
<title>Node23</title>
<g id="a_node23"><a xlink:title=" ">
<polygon fill="white" stroke="#bfbfbf" points="998.94,-140 998.94,-159 1101.94,-159 1101.94,-140 998.94,-140"/>
<text text-anchor="middle" x="1050.44" y="-147" font-family="Helvetica,sans-Serif" font-size="10.00">g3log/logworker.hpp</text>
</a>
</g>
</g>
<!-- Node20&#45;&gt;Node23 -->
<g id="edge37" class="edge">
<title>Node20&#45;&gt;Node23</title>
<path fill="none" stroke="midnightblue" d="M933.37,-206.87C956.37,-195.8 996.47,-176.49 1023.24,-163.6"/>
<polygon fill="midnightblue" stroke="midnightblue" points="1024.95,-166.66 1032.44,-159.17 1021.91,-160.35 1024.95,-166.66"/>
</g>
<!-- Node24 -->
<g id="node24" class="node">
<title>Node24</title>
<g id="a_node24"><a xlink:title=" ">
<polygon fill="white" stroke="#bfbfbf" points="1119.94,-140 1119.94,-159 1218.94,-159 1218.94,-140 1119.94,-140"/>
<text text-anchor="middle" x="1169.44" y="-147" font-family="Helvetica,sans-Serif" font-size="10.00">g3log/loglevels.hpp</text>
</a>
</g>
</g>
<!-- Node20&#45;&gt;Node24 -->
<g id="edge38" class="edge">
<title>Node20&#45;&gt;Node24</title>
<path fill="none" stroke="midnightblue" d="M948.91,-206.94C994.41,-195.29 1075.84,-174.45 1126,-161.62"/>
<polygon fill="midnightblue" stroke="midnightblue" points="1127.08,-164.95 1135.9,-159.08 1125.35,-158.17 1127.08,-164.95"/>
</g>
</g>
</svg>
        <g id="navigator" transform="translate(0 0)" fill="#404254">
                <rect fill="#f2f5e9" fill-opacity="0.5" stroke="#606060" stroke-width=".5" x="0" y="0" width="60" height="60"/>
                <use id="zoomplus" xlink:href="#zoomPlus" x="17" y="9" onmousedown="handleZoom(evt,'in')"/>
                <use id="zoomminus" xlink:href="#zoomMin" x="42" y="9" onmousedown="handleZoom(evt,'out')"/>
                <use id="reset" xlink:href="#resetDef" x="30" y="36" onmousedown="handleReset()"/>
                <g id="arrowUp" xlink:href="#dirArrow" transform="translate(30 24)" onmousedown="handlePan(0,-1)">
                  <use xlink:href="#rim" fill="#404040">
                        <set attributeName="fill" to="#808080" begin="arrowUp.mouseover" end="arrowUp.mouseout"/>
                  </use>
                  <path fill="none" stroke="white" stroke-width="1.5" d="M0,-3.0v7 M-2.5,-0.5L0,-3.0L2.5,-0.5"/>
                </g>
                <g id="arrowRight" xlink:href="#dirArrow" transform="rotate(90) translate(36 -43)" onmousedown="handlePan(1,0)">
                  <use xlink:href="#rim" fill="#404040">
                        <set attributeName="fill" to="#808080" begin="arrowRight.mouseover" end="arrowRight.mouseout"/>
                  </use>
                  <path fill="none" stroke="white" stroke-width="1.5" d="M0,-3.0v7 M-2.5,-0.5L0,-3.0L2.5,-0.5"/>
                </g>
                <g id="arrowDown" xlink:href="#dirArrow" transform="rotate(180) translate(-30 -48)" onmousedown="handlePan(0,1)">
                  <use xlink:href="#rim" fill="#404040">
                        <set attributeName="fill" to="#808080" begin="arrowDown.mouseover" end="arrowDown.mouseout"/>
                  </use>
                  <path fill="none" stroke="white" stroke-width="1.5" d="M0,-3.0v7 M-2.5,-0.5L0,-3.0L2.5,-0.5"/>
                </g>
                <g id="arrowLeft" xlink:href="#dirArrow" transform="rotate(270) translate(-36 17)" onmousedown="handlePan(-1,0)">
                  <use xlink:href="#rim" fill="#404040">
                        <set attributeName="fill" to="#808080" begin="arrowLeft.mouseover" end="arrowLeft.mouseout"/>
                  </use>
                  <path fill="none" stroke="white" stroke-width="1.5" d="M0,-3.0v7 M-2.5,-0.5L0,-3.0L2.5,-0.5"/>
                </g>
        </g>
        <svg viewBox="0 0 15 15" width="100%" height="30px" preserveAspectRatio="xMaxYMin meet">
         <g id="arrow_out" transform="scale(0.3 0.3)">
          <a xlink:href="state__persistent_8cc__incl_org.svg" target="_base">
           <rect id="button" ry="5" rx="5" y="6" x="6" height="38" width="38"
                fill="#f2f5e9" fill-opacity="0.5" stroke="#606060" stroke-width="1.0"/>
           <path id="arrow"
             d="M 11.500037,31.436501 C 11.940474,20.09759 22.043105,11.32322 32.158766,21.979434 L 37.068811,17.246167 C 37.068811,17.246167 37.088388,32 37.088388,32 L 22.160133,31.978069 C 22.160133,31.978069 26.997745,27.140456 26.997745,27.140456 C 18.528582,18.264221 13.291696,25.230495 11.500037,31.436501 z"
             style="fill:#404040;"/>
          </a>
         </g>
        </svg>
</svg>
