<?xml version="1.0" encoding="UTF-8" standalone="no"?>
<!DOCTYPE svg PUBLIC "-//W3C//DTD SVG 1.1//EN"
 "http://www.w3.org/Graphics/SVG/1.1/DTD/svg11.dtd">
<!-- Generated by graphviz version 2.44.0 ()
 -->
<!-- Title: protobuf_schema.h Pages: 1 -->
<svg width="408pt" height="84pt"
 viewBox="0.00 0.00 408.00 84.00" xmlns="http://www.w3.org/2000/svg" xmlns:xlink="http://www.w3.org/1999/xlink">
<g id="graph0" class="graph" transform="scale(1 1) rotate(0) translate(4 80)">
<title>protobuf_schema.h</title>
<polygon fill="white" stroke="transparent" points="-4,4 -4,-80 404,-80 404,4 -4,4"/>
<!-- Node1 -->
<g id="node1" class="node">
<title>Node1</title>
<g id="a_node1"><a xlink:title=" ">
<polygon fill="#bfbfbf" stroke="black" points="126.5,-56.5 126.5,-75.5 225.5,-75.5 225.5,-56.5 126.5,-56.5"/>
<text text-anchor="middle" x="176" y="-63.5" font-family="Helvetica,sans-Serif" font-size="10.00">protobuf_schema.h</text>
</a>
</g>
</g>
<!-- Node2 -->
<g id="node2" class="node">
<title>Node2</title>
<g id="a_node2"><a xlink:href="../../dd/de7/core_8cc.html" target="_top" xlink:title=" ">
<polygon fill="white" stroke="black" points="0,-0.5 0,-19.5 48,-19.5 48,-0.5 0,-0.5"/>
<text text-anchor="middle" x="24" y="-7.5" font-family="Helvetica,sans-Serif" font-size="10.00">core.cc</text>
</a>
</g>
</g>
<!-- Node1&#45;&gt;Node2 -->
<g id="edge1" class="edge">
<title>Node1&#45;&gt;Node2</title>
<path fill="none" stroke="midnightblue" d="M142.33,-53.04C113.73,-42.88 73.39,-28.55 47.97,-19.52"/>
<polygon fill="midnightblue" stroke="midnightblue" points="141.32,-56.39 151.92,-56.44 143.66,-49.8 141.32,-56.39"/>
</g>
<!-- Node3 -->
<g id="node3" class="node">
<title>Node3</title>
<g id="a_node3"><a xlink:href="../../d0/dcc/protobuf__factory_8cc.html" target="_top" xlink:title=" ">
<polygon fill="white" stroke="black" points="66.5,-0.5 66.5,-19.5 165.5,-19.5 165.5,-0.5 66.5,-0.5"/>
<text text-anchor="middle" x="116" y="-7.5" font-family="Helvetica,sans-Serif" font-size="10.00">protobuf_factory.cc</text>
</a>
</g>
</g>
<!-- Node1&#45;&gt;Node3 -->
<g id="edge2" class="edge">
<title>Node1&#45;&gt;Node3</title>
<path fill="none" stroke="midnightblue" d="M158.82,-49.54C148.12,-39.91 134.74,-27.87 125.82,-19.83"/>
<polygon fill="midnightblue" stroke="midnightblue" points="156.59,-52.24 166.36,-56.32 161.27,-47.03 156.59,-52.24"/>
</g>
<!-- Node4 -->
<g id="node4" class="node">
<title>Node4</title>
<g id="a_node4"><a xlink:href="../../dc/d05/protobuf__schema_8cc.html" target="_top" xlink:title=" ">
<polygon fill="white" stroke="black" points="184,-0.5 184,-19.5 288,-19.5 288,-0.5 184,-0.5"/>
<text text-anchor="middle" x="236" y="-7.5" font-family="Helvetica,sans-Serif" font-size="10.00">protobuf_schema.cc</text>
</a>
</g>
</g>
<!-- Node1&#45;&gt;Node4 -->
<g id="edge3" class="edge">
<title>Node1&#45;&gt;Node4</title>
<path fill="none" stroke="midnightblue" d="M193.18,-49.54C203.88,-39.91 217.26,-27.87 226.18,-19.83"/>
<polygon fill="midnightblue" stroke="midnightblue" points="190.73,-47.03 185.64,-56.32 195.41,-52.24 190.73,-47.03"/>
</g>
<!-- Node5 -->
<g id="node5" class="node">
<title>Node5</title>
<g id="a_node5"><a xlink:href="../../d0/dee/smart__protocol_8cc.html" target="_top" xlink:title=" ">
<polygon fill="white" stroke="black" points="306,-0.5 306,-19.5 400,-19.5 400,-0.5 306,-0.5"/>
<text text-anchor="middle" x="353" y="-7.5" font-family="Helvetica,sans-Serif" font-size="10.00">smart_protocol.cc</text>
</a>
</g>
</g>
<!-- Node1&#45;&gt;Node5 -->
<g id="edge4" class="edge">
<title>Node1&#45;&gt;Node5</title>
<path fill="none" stroke="midnightblue" d="M213.9,-53.44C247.28,-43.26 295.1,-28.66 325.09,-19.52"/>
<polygon fill="midnightblue" stroke="midnightblue" points="212.59,-50.18 204.05,-56.44 214.63,-56.87 212.59,-50.18"/>
</g>
</g>
</svg>
