<?xml version="1.0" encoding="UTF-8" standalone="no"?>
<!DOCTYPE svg PUBLIC "-//W3C//DTD SVG 1.1//EN"
 "http://www.w3.org/Graphics/SVG/1.1/DTD/svg11.dtd">
<!-- Generated by graphviz version 2.42.3 ()
 -->
<!-- Title: testnet.cc Pages: 1 -->
<svg width="1694pt" height="419pt"
 viewBox="0.00 0.00 1694.00 419.00" xmlns="http://www.w3.org/2000/svg" xmlns:xlink="http://www.w3.org/1999/xlink">
<g id="graph0" class="graph" transform="scale(1 1) rotate(0) translate(4 415)">
<title>testnet.cc</title>
<polygon fill="white" stroke="transparent" points="-4,4 -4,-415 1690,-415 1690,4 -4,4"/>
<!-- Node1 -->
<g id="node1" class="node">
<title>Node1</title>
<g id="a_node1"><a xlink:title=" ">
<polygon fill="#bfbfbf" stroke="black" points="687.5,-391.5 687.5,-410.5 746.5,-410.5 746.5,-391.5 687.5,-391.5"/>
<text text-anchor="middle" x="717" y="-398.5" font-family="Helvetica,sans-Serif" font-size="10.00">testnet.cc</text>
</a>
</g>
</g>
<!-- Node2 -->
<g id="node2" class="node">
<title>Node2</title>
<g id="a_node2"><a xlink:href="../../d0/d25/testnet_8h.html" target="_top" xlink:title=" ">
<polygon fill="white" stroke="black" points="481.5,-190.5 481.5,-220.5 598.5,-220.5 598.5,-190.5 481.5,-190.5"/>
<text text-anchor="start" x="489.5" y="-208.5" font-family="Helvetica,sans-Serif" font-size="10.00">automaton/core/testnet</text>
<text text-anchor="middle" x="540" y="-197.5" font-family="Helvetica,sans-Serif" font-size="10.00">/testnet.h</text>
</a>
</g>
</g>
<!-- Node1&#45;&gt;Node2 -->
<g id="edge1" class="edge">
<title>Node1&#45;&gt;Node2</title>
<path fill="none" stroke="midnightblue" d="M708.86,-391.34C691.26,-372.59 648.4,-326.82 613,-288 594.63,-267.86 573.91,-244.69 559.26,-228.21"/>
<polygon fill="midnightblue" stroke="midnightblue" points="561.84,-225.85 552.58,-220.7 556.61,-230.5 561.84,-225.85"/>
</g>
<!-- Node8 -->
<g id="node8" class="node">
<title>Node8</title>
<g id="a_node8"><a xlink:title=" ">
<polygon fill="white" stroke="#bfbfbf" points="1656,-263 1656,-282 1686,-282 1686,-263 1656,-263"/>
<text text-anchor="middle" x="1671" y="-270" font-family="Helvetica,sans-Serif" font-size="10.00">set</text>
</a>
</g>
</g>
<!-- Node1&#45;&gt;Node8 -->
<g id="edge7" class="edge">
<title>Node1&#45;&gt;Node8</title>
<path fill="none" stroke="midnightblue" d="M746.51,-400.06C863.01,-399.53 1301.19,-390.47 1642,-288 1643.67,-287.5 1645.36,-286.91 1647.04,-286.25"/>
<polygon fill="midnightblue" stroke="midnightblue" points="1648.68,-289.35 1656.35,-282.04 1645.8,-282.97 1648.68,-289.35"/>
</g>
<!-- Node9 -->
<g id="node9" class="node">
<title>Node9</title>
<g id="a_node9"><a xlink:href="../../dc/dac/io_8h.html" target="_top" xlink:title=" ">
<polygon fill="white" stroke="black" points="221.5,-330 221.5,-349 334.5,-349 334.5,-330 221.5,-330"/>
<text text-anchor="middle" x="278" y="-337" font-family="Helvetica,sans-Serif" font-size="10.00">automaton/core/io/io.h</text>
</a>
</g>
</g>
<!-- Node1&#45;&gt;Node9 -->
<g id="edge8" class="edge">
<title>Node1&#45;&gt;Node9</title>
<path fill="none" stroke="midnightblue" d="M687.17,-395.96C617.28,-386.48 441.52,-362.66 344.65,-349.53"/>
<polygon fill="midnightblue" stroke="midnightblue" points="345.04,-346.06 334.67,-348.18 344.1,-352.99 345.04,-346.06"/>
</g>
<!-- Node14 -->
<g id="node14" class="node">
<title>Node14</title>
<g id="a_node14"><a xlink:href="../../d1/d77/node_8h.html" target="_top" xlink:title=" ">
<polygon fill="white" stroke="black" points="927,-324.5 927,-354.5 1035,-354.5 1035,-324.5 927,-324.5"/>
<text text-anchor="start" x="935" y="-342.5" font-family="Helvetica,sans-Serif" font-size="10.00">automaton/core/node</text>
<text text-anchor="middle" x="981" y="-331.5" font-family="Helvetica,sans-Serif" font-size="10.00">/node.h</text>
</a>
</g>
</g>
<!-- Node1&#45;&gt;Node14 -->
<g id="edge14" class="edge">
<title>Node1&#45;&gt;Node14</title>
<path fill="none" stroke="midnightblue" d="M746.52,-393.35C787.49,-384.11 862.68,-367.17 916.89,-354.95"/>
<polygon fill="midnightblue" stroke="midnightblue" points="917.77,-358.34 926.75,-352.73 916.23,-351.51 917.77,-358.34"/>
</g>
<!-- Node3 -->
<g id="node3" class="node">
<title>Node3</title>
<g id="a_node3"><a xlink:title=" ">
<polygon fill="white" stroke="#bfbfbf" points="1131.5,-62 1131.5,-81 1182.5,-81 1182.5,-62 1131.5,-62"/>
<text text-anchor="middle" x="1157" y="-69" font-family="Helvetica,sans-Serif" font-size="10.00">memory</text>
</a>
</g>
</g>
<!-- Node2&#45;&gt;Node3 -->
<g id="edge2" class="edge">
<title>Node2&#45;&gt;Node3</title>
<path fill="none" stroke="midnightblue" d="M537.17,-190.35C534.4,-171.98 532.89,-140.21 551,-123 561.42,-113.1 993.05,-83.47 1121.38,-74.87"/>
<polygon fill="midnightblue" stroke="midnightblue" points="1121.72,-78.35 1131.46,-74.19 1121.25,-71.37 1121.72,-78.35"/>
</g>
<!-- Node4 -->
<g id="node4" class="node">
<title>Node4</title>
<g id="a_node4"><a xlink:title=" ">
<polygon fill="white" stroke="#bfbfbf" points="962.5,-0.5 962.5,-19.5 1003.5,-19.5 1003.5,-0.5 962.5,-0.5"/>
<text text-anchor="middle" x="983" y="-7.5" font-family="Helvetica,sans-Serif" font-size="10.00">string</text>
</a>
</g>
</g>
<!-- Node2&#45;&gt;Node4 -->
<g id="edge3" class="edge">
<title>Node2&#45;&gt;Node4</title>
<path fill="none" stroke="midnightblue" d="M533.54,-190.27C526.62,-172.67 518.46,-142.63 533,-123 583.82,-54.39 859.33,-22.59 952.33,-13.7"/>
<polygon fill="midnightblue" stroke="midnightblue" points="952.86,-17.16 962.49,-12.75 952.21,-10.19 952.86,-17.16"/>
</g>
<!-- Node5 -->
<g id="node5" class="node">
<title>Node5</title>
<g id="a_node5"><a xlink:title=" ">
<polygon fill="white" stroke="#bfbfbf" points="560.5,-129 560.5,-148 643.5,-148 643.5,-129 560.5,-129"/>
<text text-anchor="middle" x="602" y="-136" font-family="Helvetica,sans-Serif" font-size="10.00">unordered_map</text>
</a>
</g>
</g>
<!-- Node2&#45;&gt;Node5 -->
<g id="edge4" class="edge">
<title>Node2&#45;&gt;Node5</title>
<path fill="none" stroke="midnightblue" d="M553.45,-190.4C563.22,-180.16 576.44,-166.3 586.62,-155.62"/>
<polygon fill="midnightblue" stroke="midnightblue" points="589.34,-157.85 593.71,-148.19 584.27,-153.01 589.34,-157.85"/>
</g>
<!-- Node6 -->
<g id="node6" class="node">
<title>Node6</title>
<g id="a_node6"><a xlink:title=" ">
<polygon fill="white" stroke="#bfbfbf" points="661.5,-129 661.5,-148 700.5,-148 700.5,-129 661.5,-129"/>
<text text-anchor="middle" x="681" y="-136" font-family="Helvetica,sans-Serif" font-size="10.00">utility</text>
</a>
</g>
</g>
<!-- Node2&#45;&gt;Node6 -->
<g id="edge5" class="edge">
<title>Node2&#45;&gt;Node6</title>
<path fill="none" stroke="midnightblue" d="M572.02,-190.47C594.5,-180.52 625.22,-166.73 652,-154 652.99,-153.53 654,-153.05 655.02,-152.55"/>
<polygon fill="midnightblue" stroke="midnightblue" points="656.76,-155.6 664.19,-148.05 653.67,-149.32 656.76,-155.6"/>
</g>
<!-- Node7 -->
<g id="node7" class="node">
<title>Node7</title>
<g id="a_node7"><a xlink:title=" ">
<polygon fill="white" stroke="#bfbfbf" points="434,-0.5 434,-19.5 478,-19.5 478,-0.5 434,-0.5"/>
<text text-anchor="middle" x="456" y="-7.5" font-family="Helvetica,sans-Serif" font-size="10.00">vector</text>
</a>
</g>
</g>
<!-- Node2&#45;&gt;Node7 -->
<g id="edge6" class="edge">
<title>Node2&#45;&gt;Node7</title>
<path fill="none" stroke="midnightblue" d="M519.77,-190.37C507.32,-181.01 491.58,-167.92 480,-154 458.12,-127.67 450.73,-120.1 442,-87 436.83,-67.4 442.64,-44.45 448.27,-28.94"/>
<polygon fill="midnightblue" stroke="midnightblue" points="451.57,-30.11 452,-19.53 445.07,-27.53 451.57,-30.11"/>
</g>
<!-- Node9&#45;&gt;Node4 -->
<g id="edge10" class="edge">
<title>Node9&#45;&gt;Node4</title>
<path fill="none" stroke="midnightblue" d="M308.87,-329.96C333.88,-321.98 369.11,-308.22 395,-288 413.18,-273.8 505.94,-140.48 521,-123 548.08,-91.57 548.76,-74.3 586,-56 650.5,-24.31 870.65,-14.44 952.25,-11.83"/>
<polygon fill="midnightblue" stroke="midnightblue" points="952.49,-15.32 962.38,-11.52 952.27,-8.33 952.49,-15.32"/>
</g>
<!-- Node10 -->
<g id="node10" class="node">
<title>Node10</title>
<g id="a_node10"><a xlink:title=" ">
<polygon fill="white" stroke="#bfbfbf" points="0,-263 0,-282 46,-282 46,-263 0,-263"/>
<text text-anchor="middle" x="23" y="-270" font-family="Helvetica,sans-Serif" font-size="10.00">chrono</text>
</a>
</g>
</g>
<!-- Node9&#45;&gt;Node10 -->
<g id="edge9" class="edge">
<title>Node9&#45;&gt;Node10</title>
<path fill="none" stroke="midnightblue" d="M226.71,-329.95C180.98,-321.6 112.57,-307.34 55,-288 53.33,-287.44 51.63,-286.82 49.93,-286.16"/>
<polygon fill="midnightblue" stroke="midnightblue" points="50.92,-282.79 40.35,-282.13 48.21,-289.24 50.92,-282.79"/>
</g>
<!-- Node11 -->
<g id="node11" class="node">
<title>Node11</title>
<g id="a_node11"><a xlink:title=" ">
<polygon fill="white" stroke="#bfbfbf" points="64,-263 64,-282 148,-282 148,-263 64,-263"/>
<text text-anchor="middle" x="106" y="-270" font-family="Helvetica,sans-Serif" font-size="10.00">g3log/g3log.hpp</text>
</a>
</g>
</g>
<!-- Node9&#45;&gt;Node11 -->
<g id="edge11" class="edge">
<title>Node9&#45;&gt;Node11</title>
<path fill="none" stroke="midnightblue" d="M255.16,-329.87C225.13,-318.52 172.22,-298.52 138.16,-285.65"/>
<polygon fill="midnightblue" stroke="midnightblue" points="139.25,-282.32 128.66,-282.06 136.78,-288.87 139.25,-282.32"/>
</g>
<!-- Node12 -->
<g id="node12" class="node">
<title>Node12</title>
<g id="a_node12"><a xlink:title=" ">
<polygon fill="white" stroke="#bfbfbf" points="166.5,-263 166.5,-282 269.5,-282 269.5,-263 166.5,-263"/>
<text text-anchor="middle" x="218" y="-270" font-family="Helvetica,sans-Serif" font-size="10.00">g3log/logworker.hpp</text>
</a>
</g>
</g>
<!-- Node9&#45;&gt;Node12 -->
<g id="edge12" class="edge">
<title>Node9&#45;&gt;Node12</title>
<path fill="none" stroke="midnightblue" d="M269.91,-329.73C260.46,-319.5 244.64,-302.36 232.95,-289.69"/>
<polygon fill="midnightblue" stroke="midnightblue" points="235.32,-287.1 225.96,-282.13 230.17,-291.85 235.32,-287.1"/>
</g>
<!-- Node13 -->
<g id="node13" class="node">
<title>Node13</title>
<g id="a_node13"><a xlink:title=" ">
<polygon fill="white" stroke="#bfbfbf" points="287.5,-263 287.5,-282 386.5,-282 386.5,-263 287.5,-263"/>
<text text-anchor="middle" x="337" y="-270" font-family="Helvetica,sans-Serif" font-size="10.00">g3log/loglevels.hpp</text>
</a>
</g>
</g>
<!-- Node9&#45;&gt;Node13 -->
<g id="edge13" class="edge">
<title>Node9&#45;&gt;Node13</title>
<path fill="none" stroke="midnightblue" d="M285.96,-329.73C295.25,-319.5 310.8,-302.36 322.3,-289.69"/>
<polygon fill="midnightblue" stroke="midnightblue" points="325.04,-291.88 329.17,-282.13 319.86,-287.18 325.04,-291.88"/>
</g>
<!-- Node14&#45;&gt;Node3 -->
<g id="edge19" class="edge">
<title>Node14&#45;&gt;Node3</title>
<path fill="none" stroke="midnightblue" d="M1018.92,-324.37C1037.74,-315.95 1059.85,-303.81 1076,-288 1124.78,-240.27 1131.36,-219.36 1151,-154 1157.24,-133.25 1158.17,-108.24 1157.9,-91.45"/>
<polygon fill="midnightblue" stroke="midnightblue" points="1161.4,-91.17 1157.58,-81.29 1154.4,-91.4 1161.4,-91.17"/>
</g>
<!-- Node14&#45;&gt;Node4 -->
<g id="edge22" class="edge">
<title>Node14&#45;&gt;Node4</title>
<path fill="none" stroke="midnightblue" d="M1033.73,-324.48C1056.99,-316.47 1083.61,-304.64 1104,-288 1189.32,-218.37 1260.15,-141.71 1191,-56 1169.08,-28.83 1066.17,-17.25 1013.8,-13.05"/>
<polygon fill="midnightblue" stroke="midnightblue" points="1013.97,-9.55 1003.73,-12.29 1013.44,-16.53 1013.97,-9.55"/>
</g>
<!-- Node14&#45;&gt;Node5 -->
<g id="edge23" class="edge">
<title>Node14&#45;&gt;Node5</title>
<path fill="none" stroke="midnightblue" d="M926.78,-337.22C842.87,-334.13 686.93,-323.62 646,-288 626.33,-270.88 611.2,-194.42 605.03,-158.4"/>
<polygon fill="midnightblue" stroke="midnightblue" points="608.44,-157.54 603.35,-148.25 601.53,-158.68 608.44,-157.54"/>
</g>
<!-- Node14&#45;&gt;Node7 -->
<g id="edge24" class="edge">
<title>Node14&#45;&gt;Node7</title>
<path fill="none" stroke="midnightblue" d="M926.84,-335.33C856.41,-330.19 730.07,-317.46 626,-288 554.18,-267.67 521.13,-277.2 472,-221 422.6,-164.49 420.42,-129.42 436,-56 438,-46.59 442.1,-36.76 446.07,-28.7"/>
<polygon fill="midnightblue" stroke="midnightblue" points="449.31,-30.07 450.87,-19.59 443.11,-26.81 449.31,-30.07"/>
</g>
<!-- Node14&#45;&gt;Node8 -->
<g id="edge21" class="edge">
<title>Node14&#45;&gt;Node8</title>
<path fill="none" stroke="midnightblue" d="M1035.21,-337.05C1171.97,-332.95 1528.17,-319.5 1642,-288 1643.72,-287.53 1645.45,-286.95 1647.17,-286.3"/>
<polygon fill="midnightblue" stroke="midnightblue" points="1649,-289.31 1656.69,-282.03 1646.13,-282.93 1649,-289.31"/>
</g>
<!-- Node15 -->
<g id="node15" class="node">
<title>Node15</title>
<g id="a_node15"><a xlink:title=" ">
<polygon fill="white" stroke="#bfbfbf" points="655.5,-263 655.5,-282 698.5,-282 698.5,-263 655.5,-263"/>
<text text-anchor="middle" x="677" y="-270" font-family="Helvetica,sans-Serif" font-size="10.00">deque</text>
</a>
</g>
</g>
<!-- Node14&#45;&gt;Node15 -->
<g id="edge15" class="edge">
<title>Node14&#45;&gt;Node15</title>
<path fill="none" stroke="midnightblue" d="M926.91,-332.87C870.86,-326.03 781.24,-312.29 707,-288 705.37,-287.47 703.72,-286.87 702.08,-286.22"/>
<polygon fill="midnightblue" stroke="midnightblue" points="703.42,-282.98 692.86,-282.14 700.59,-289.39 703.42,-282.98"/>
</g>
<!-- Node16 -->
<g id="node16" class="node">
<title>Node16</title>
<g id="a_node16"><a xlink:title=" ">
<polygon fill="white" stroke="#bfbfbf" points="716.5,-263 716.5,-282 775.5,-282 775.5,-263 716.5,-263"/>
<text text-anchor="middle" x="746" y="-270" font-family="Helvetica,sans-Serif" font-size="10.00">functional</text>
</a>
</g>
</g>
<!-- Node14&#45;&gt;Node16 -->
<g id="edge16" class="edge">
<title>Node14&#45;&gt;Node16</title>
<path fill="none" stroke="midnightblue" d="M926.6,-326.31C886.78,-316.97 831.61,-303.13 784,-288 781.59,-287.23 779.1,-286.4 776.62,-285.52"/>
<polygon fill="midnightblue" stroke="midnightblue" points="777.75,-282.21 767.15,-282.06 775.34,-288.78 777.75,-282.21"/>
</g>
<!-- Node17 -->
<g id="node17" class="node">
<title>Node17</title>
<g id="a_node17"><a xlink:title=" ">
<polygon fill="white" stroke="#bfbfbf" points="793.5,-263 793.5,-282 834.5,-282 834.5,-263 793.5,-263"/>
<text text-anchor="middle" x="814" y="-270" font-family="Helvetica,sans-Serif" font-size="10.00">future</text>
</a>
</g>
</g>
<!-- Node14&#45;&gt;Node17 -->
<g id="edge17" class="edge">
<title>Node14&#45;&gt;Node17</title>
<path fill="none" stroke="midnightblue" d="M938.85,-324.46C911.27,-314.94 874.62,-301.64 843,-288 841.84,-287.5 840.65,-286.97 839.46,-286.43"/>
<polygon fill="midnightblue" stroke="midnightblue" points="840.94,-283.26 830.41,-282.11 837.93,-289.58 840.94,-283.26"/>
</g>
<!-- Node18 -->
<g id="node18" class="node">
<title>Node18</title>
<g id="a_node18"><a xlink:title=" ">
<polygon fill="white" stroke="#bfbfbf" points="1329.5,-0.5 1329.5,-19.5 1364.5,-19.5 1364.5,-0.5 1329.5,-0.5"/>
<text text-anchor="middle" x="1347" y="-7.5" font-family="Helvetica,sans-Serif" font-size="10.00">map</text>
</a>
</g>
</g>
<!-- Node14&#45;&gt;Node18 -->
<g id="edge18" class="edge">
<title>Node14&#45;&gt;Node18</title>
<path fill="none" stroke="midnightblue" d="M1035.05,-333.19C1190.55,-317.19 1628,-266.83 1628,-206.5 1628,-206.5 1628,-206.5 1628,-137.5 1628,-97.34 1620.95,-80.33 1589,-56 1516.8,-1.02 1477.01,-37.73 1388,-20 1383.66,-19.13 1379.07,-18.17 1374.59,-17.21"/>
<polygon fill="midnightblue" stroke="midnightblue" points="1375.04,-13.73 1364.53,-15 1373.54,-20.56 1375.04,-13.73"/>
</g>
<!-- Node19 -->
<g id="node19" class="node">
<title>Node19</title>
<g id="a_node19"><a xlink:title=" ">
<polygon fill="white" stroke="#bfbfbf" points="852.5,-263 852.5,-282 895.5,-282 895.5,-263 852.5,-263"/>
<text text-anchor="middle" x="874" y="-270" font-family="Helvetica,sans-Serif" font-size="10.00">mutex</text>
</a>
</g>
</g>
<!-- Node14&#45;&gt;Node19 -->
<g id="edge20" class="edge">
<title>Node14&#45;&gt;Node19</title>
<path fill="none" stroke="midnightblue" d="M957.78,-324.4C939.67,-313.39 914.66,-298.2 896.69,-287.28"/>
<polygon fill="midnightblue" stroke="midnightblue" points="898.37,-284.21 888,-282.01 894.73,-290.19 898.37,-284.21"/>
</g>
<!-- Node20 -->
<g id="node20" class="node">
<title>Node20</title>
<g id="a_node20"><a xlink:href="../../d1/d71/msg_8h.html" target="_top" xlink:title=" ">
<polygon fill="white" stroke="black" points="985,-123.5 985,-153.5 1091,-153.5 1091,-123.5 985,-123.5"/>
<text text-anchor="start" x="993" y="-141.5" font-family="Helvetica,sans-Serif" font-size="10.00">automaton/core/data</text>
<text text-anchor="middle" x="1038" y="-130.5" font-family="Helvetica,sans-Serif" font-size="10.00">/msg.h</text>
</a>
</g>
</g>
<!-- Node14&#45;&gt;Node20 -->
<g id="edge25" class="edge">
<title>Node14&#45;&gt;Node20</title>
<path fill="none" stroke="midnightblue" d="M1016.14,-324.45C1031.61,-316.29 1048.24,-304.34 1057,-288 1078.41,-248.07 1061.86,-193.68 1049.11,-163.02"/>
<polygon fill="midnightblue" stroke="midnightblue" points="1052.2,-161.36 1045,-153.59 1045.79,-164.16 1052.2,-161.36"/>
</g>
<!-- Node22 -->
<g id="node22" class="node">
<title>Node22</title>
<g id="a_node22"><a xlink:href="../../d1/d31/acceptor_8h.html" target="_top" xlink:title=" ">
<polygon fill="white" stroke="black" points="1299,-190.5 1299,-220.5 1421,-220.5 1421,-190.5 1299,-190.5"/>
<text text-anchor="start" x="1307" y="-208.5" font-family="Helvetica,sans-Serif" font-size="10.00">automaton/core/network</text>
<text text-anchor="middle" x="1360" y="-197.5" font-family="Helvetica,sans-Serif" font-size="10.00">/acceptor.h</text>
</a>
</g>
</g>
<!-- Node14&#45;&gt;Node22 -->
<g id="edge32" class="edge">
<title>Node14&#45;&gt;Node22</title>
<path fill="none" stroke="midnightblue" d="M1035.22,-333.76C1110.67,-326.44 1242.82,-310.81 1285,-288 1310.7,-274.1 1332.31,-247.99 1345.64,-229.06"/>
<polygon fill="midnightblue" stroke="midnightblue" points="1348.6,-230.92 1351.33,-220.69 1342.81,-226.99 1348.6,-230.92"/>
</g>
<!-- Node26 -->
<g id="node26" class="node">
<title>Node26</title>
<g id="a_node26"><a xlink:href="../../d4/d67/connection_8h.html" target="_top" xlink:title=" ">
<polygon fill="white" stroke="black" points="1413,-123.5 1413,-153.5 1535,-153.5 1535,-123.5 1413,-123.5"/>
<text text-anchor="start" x="1421" y="-141.5" font-family="Helvetica,sans-Serif" font-size="10.00">automaton/core/network</text>
<text text-anchor="middle" x="1474" y="-130.5" font-family="Helvetica,sans-Serif" font-size="10.00">/connection.h</text>
</a>
</g>
</g>
<!-- Node14&#45;&gt;Node26 -->
<g id="edge46" class="edge">
<title>Node14&#45;&gt;Node26</title>
<path fill="none" stroke="midnightblue" d="M1035.1,-336.84C1103.01,-333.31 1222.2,-322.31 1318,-288 1372.61,-268.44 1389.9,-262.91 1430,-221 1445.98,-204.3 1457.89,-180.65 1465.26,-163.12"/>
<polygon fill="midnightblue" stroke="midnightblue" points="1468.6,-164.2 1469.07,-153.61 1462.1,-161.59 1468.6,-164.2"/>
</g>
<!-- Node28 -->
<g id="node28" class="node">
<title>Node28</title>
<g id="a_node28"><a xlink:href="../../d5/dab/smart__protocol_8h.html" target="_top" xlink:title=" ">
<polygon fill="white" stroke="black" points="914,-257.5 914,-287.5 1048,-287.5 1048,-257.5 914,-257.5"/>
<text text-anchor="start" x="922" y="-275.5" font-family="Helvetica,sans-Serif" font-size="10.00">automaton/core/smartproto</text>
<text text-anchor="middle" x="981" y="-264.5" font-family="Helvetica,sans-Serif" font-size="10.00">/smart_protocol.h</text>
</a>
</g>
</g>
<!-- Node14&#45;&gt;Node28 -->
<g id="edge47" class="edge">
<title>Node14&#45;&gt;Node28</title>
<path fill="none" stroke="midnightblue" d="M981,-324.4C981,-316.64 981,-306.81 981,-297.86"/>
<polygon fill="midnightblue" stroke="midnightblue" points="984.5,-297.58 981,-287.58 977.5,-297.58 984.5,-297.58"/>
</g>
<!-- Node20&#45;&gt;Node3 -->
<g id="edge26" class="edge">
<title>Node20&#45;&gt;Node3</title>
<path fill="none" stroke="midnightblue" d="M1063.82,-123.4C1084.24,-112.24 1112.55,-96.78 1132.59,-85.83"/>
<polygon fill="midnightblue" stroke="midnightblue" points="1134.33,-88.87 1141.43,-81.01 1130.97,-82.73 1134.33,-88.87"/>
</g>
<!-- Node20&#45;&gt;Node4 -->
<g id="edge27" class="edge">
<title>Node20&#45;&gt;Node4</title>
<path fill="none" stroke="midnightblue" d="M1031.9,-123.48C1021.87,-100.41 1001.91,-54.48 990.84,-29.03"/>
<polygon fill="midnightblue" stroke="midnightblue" points="994.02,-27.56 986.82,-19.79 987.6,-30.35 994.02,-27.56"/>
</g>
<!-- Node21 -->
<g id="node21" class="node">
<title>Node21</title>
<g id="a_node21"><a xlink:href="../../d7/de3/schema_8h.html" target="_top" xlink:title=" ">
<polygon fill="white" stroke="black" points="795,-56.5 795,-86.5 901,-86.5 901,-56.5 795,-56.5"/>
<text text-anchor="start" x="803" y="-74.5" font-family="Helvetica,sans-Serif" font-size="10.00">automaton/core/data</text>
<text text-anchor="middle" x="848" y="-63.5" font-family="Helvetica,sans-Serif" font-size="10.00">/schema.h</text>
</a>
</g>
</g>
<!-- Node20&#45;&gt;Node21 -->
<g id="edge28" class="edge">
<title>Node20&#45;&gt;Node21</title>
<path fill="none" stroke="midnightblue" d="M996.77,-123.4C968.02,-113.56 929.46,-100.37 898.8,-89.88"/>
<polygon fill="midnightblue" stroke="midnightblue" points="899.74,-86.5 889.15,-86.58 897.48,-93.13 899.74,-86.5"/>
</g>
<!-- Node21&#45;&gt;Node4 -->
<g id="edge30" class="edge">
<title>Node21&#45;&gt;Node4</title>
<path fill="none" stroke="midnightblue" d="M879.99,-56.4C902.44,-46.51 932.21,-33.38 953.98,-23.79"/>
<polygon fill="midnightblue" stroke="midnightblue" points="955.62,-26.89 963.36,-19.66 952.79,-20.49 955.62,-26.89"/>
</g>
<!-- Node21&#45;&gt;Node7 -->
<g id="edge31" class="edge">
<title>Node21&#45;&gt;Node7</title>
<path fill="none" stroke="midnightblue" d="M794.73,-62.41C712.06,-49.87 555.43,-26.09 488.09,-15.87"/>
<polygon fill="midnightblue" stroke="midnightblue" points="488.49,-12.39 478.07,-14.35 487.44,-19.31 488.49,-12.39"/>
</g>
<!-- Node21&#45;&gt;Node18 -->
<g id="edge29" class="edge">
<title>Node21&#45;&gt;Node18</title>
<path fill="none" stroke="midnightblue" d="M901.11,-62.92C917.72,-60.61 936.11,-58.13 953,-56 1090.21,-38.69 1254.69,-20.84 1319.15,-13.95"/>
<polygon fill="midnightblue" stroke="midnightblue" points="1319.74,-17.41 1329.31,-12.87 1319,-10.45 1319.74,-17.41"/>
</g>
<!-- Node22&#45;&gt;Node3 -->
<g id="edge34" class="edge">
<title>Node22&#45;&gt;Node3</title>
<path fill="none" stroke="midnightblue" d="M1338.28,-190.37C1299.26,-165.01 1217.77,-112.02 1178.75,-86.64"/>
<polygon fill="midnightblue" stroke="midnightblue" points="1180.51,-83.61 1170.22,-81.1 1176.7,-89.48 1180.51,-83.61"/>
</g>
<!-- Node22&#45;&gt;Node4 -->
<g id="edge35" class="edge">
<title>Node22&#45;&gt;Node4</title>
<path fill="none" stroke="midnightblue" d="M1351.25,-190.48C1329.97,-156.84 1275.2,-73.08 1247,-56 1208.17,-32.48 1074.97,-18.66 1013.96,-13.42"/>
<polygon fill="midnightblue" stroke="midnightblue" points="1014.05,-9.92 1003.79,-12.57 1013.46,-16.9 1014.05,-9.92"/>
</g>
<!-- Node22&#45;&gt;Node18 -->
<g id="edge33" class="edge">
<title>Node22&#45;&gt;Node18</title>
<path fill="none" stroke="midnightblue" d="M1359.04,-190.27C1356.74,-155.94 1350.87,-68.57 1348.27,-29.9"/>
<polygon fill="midnightblue" stroke="midnightblue" points="1351.74,-29.32 1347.58,-19.58 1344.75,-29.79 1351.74,-29.32"/>
</g>
<!-- Node23 -->
<g id="node23" class="node">
<title>Node23</title>
<g id="a_node23"><a xlink:href="../../d1/d13/status_8h.html" target="_top" xlink:title=" ">
<polygon fill="white" stroke="black" points="1375.5,-56.5 1375.5,-86.5 1500.5,-86.5 1500.5,-56.5 1375.5,-56.5"/>
<text text-anchor="start" x="1383.5" y="-74.5" font-family="Helvetica,sans-Serif" font-size="10.00">automaton/core/common</text>
<text text-anchor="middle" x="1438" y="-63.5" font-family="Helvetica,sans-Serif" font-size="10.00">/status.h</text>
</a>
</g>
</g>
<!-- Node22&#45;&gt;Node23 -->
<g id="edge36" class="edge">
<title>Node22&#45;&gt;Node23</title>
<path fill="none" stroke="midnightblue" d="M1367.07,-190.42C1375.44,-173.99 1390.02,-146.12 1404,-123 1409.6,-113.74 1416.16,-103.8 1422.02,-95.22"/>
<polygon fill="midnightblue" stroke="midnightblue" points="1425,-97.06 1427.8,-86.84 1419.24,-93.08 1425,-97.06"/>
</g>
<!-- Node22&#45;&gt;Node26 -->
<g id="edge40" class="edge">
<title>Node22&#45;&gt;Node26</title>
<path fill="none" stroke="midnightblue" d="M1384.74,-190.4C1401.02,-181.11 1422.54,-168.84 1440.37,-158.67"/>
<polygon fill="midnightblue" stroke="midnightblue" points="1442.36,-161.57 1449.31,-153.58 1438.89,-155.49 1442.36,-161.57"/>
</g>
<!-- Node23&#45;&gt;Node4 -->
<g id="edge38" class="edge">
<title>Node23&#45;&gt;Node4</title>
<path fill="none" stroke="midnightblue" d="M1375.21,-62.29C1276.23,-49.35 1087.58,-24.68 1013.73,-15.02"/>
<polygon fill="midnightblue" stroke="midnightblue" points="1014.06,-11.53 1003.69,-13.71 1013.15,-18.47 1014.06,-11.53"/>
</g>
<!-- Node24 -->
<g id="node24" class="node">
<title>Node24</title>
<g id="a_node24"><a xlink:title=" ">
<polygon fill="white" stroke="#bfbfbf" points="1397,-0.5 1397,-19.5 1449,-19.5 1449,-0.5 1397,-0.5"/>
<text text-anchor="middle" x="1423" y="-7.5" font-family="Helvetica,sans-Serif" font-size="10.00">ostream</text>
</a>
</g>
</g>
<!-- Node23&#45;&gt;Node24 -->
<g id="edge37" class="edge">
<title>Node23&#45;&gt;Node24</title>
<path fill="none" stroke="midnightblue" d="M1434.45,-56.4C1432.42,-48.38 1429.87,-38.23 1427.68,-29.57"/>
<polygon fill="midnightblue" stroke="midnightblue" points="1431.02,-28.5 1425.18,-19.66 1424.23,-30.21 1431.02,-28.5"/>
</g>
<!-- Node25 -->
<g id="node25" class="node">
<title>Node25</title>
<g id="a_node25"><a xlink:title=" ">
<polygon fill="white" stroke="#bfbfbf" points="1467,-0.5 1467,-19.5 1521,-19.5 1521,-0.5 1467,-0.5"/>
<text text-anchor="middle" x="1494" y="-7.5" font-family="Helvetica,sans-Serif" font-size="10.00">iostream</text>
</a>
</g>
</g>
<!-- Node23&#45;&gt;Node25 -->
<g id="edge39" class="edge">
<title>Node23&#45;&gt;Node25</title>
<path fill="none" stroke="midnightblue" d="M1451.27,-56.4C1459.58,-47.58 1470.3,-36.18 1478.92,-27.02"/>
<polygon fill="midnightblue" stroke="midnightblue" points="1481.55,-29.34 1485.85,-19.66 1476.45,-24.54 1481.55,-29.34"/>
</g>
<!-- Node26&#45;&gt;Node3 -->
<g id="edge42" class="edge">
<title>Node26&#45;&gt;Node3</title>
<path fill="none" stroke="midnightblue" d="M1412.88,-124.97C1347.6,-111.58 1246.35,-90.82 1192.89,-79.86"/>
<polygon fill="midnightblue" stroke="midnightblue" points="1193.36,-76.38 1182.86,-77.8 1191.95,-83.24 1193.36,-76.38"/>
</g>
<!-- Node26&#45;&gt;Node4 -->
<g id="edge43" class="edge">
<title>Node26&#45;&gt;Node4</title>
<path fill="none" stroke="midnightblue" d="M1443.96,-123.41C1399.06,-102.55 1316.36,-64.93 1285,-56 1188.22,-28.43 1068.9,-17 1013.69,-12.94"/>
<polygon fill="midnightblue" stroke="midnightblue" points="1013.75,-9.43 1003.53,-12.22 1013.26,-16.42 1013.75,-9.43"/>
</g>
<!-- Node26&#45;&gt;Node18 -->
<g id="edge41" class="edge">
<title>Node26&#45;&gt;Node18</title>
<path fill="none" stroke="midnightblue" d="M1513.45,-123.46C1549.33,-108.53 1593.49,-83.35 1571,-56 1518.35,8.02 1469.15,-36.89 1388,-20 1383.67,-19.1 1379.08,-18.12 1374.61,-17.15"/>
<polygon fill="midnightblue" stroke="midnightblue" points="1375.06,-13.66 1364.54,-14.94 1373.56,-20.5 1375.06,-13.66"/>
</g>
<!-- Node26&#45;&gt;Node23 -->
<g id="edge45" class="edge">
<title>Node26&#45;&gt;Node23</title>
<path fill="none" stroke="midnightblue" d="M1466.19,-123.4C1461.66,-115.22 1455.85,-104.73 1450.68,-95.39"/>
<polygon fill="midnightblue" stroke="midnightblue" points="1453.7,-93.63 1445.8,-86.58 1447.58,-97.02 1453.7,-93.63"/>
</g>
<!-- Node27 -->
<g id="node27" class="node">
<title>Node27</title>
<g id="a_node27"><a xlink:title=" ">
<polygon fill="white" stroke="#bfbfbf" points="1518,-62 1518,-81 1562,-81 1562,-62 1518,-62"/>
<text text-anchor="middle" x="1540" y="-69" font-family="Helvetica,sans-Serif" font-size="10.00">thread</text>
</a>
</g>
</g>
<!-- Node26&#45;&gt;Node27 -->
<g id="edge44" class="edge">
<title>Node26&#45;&gt;Node27</title>
<path fill="none" stroke="midnightblue" d="M1488.32,-123.4C1498.82,-113.06 1513.07,-99.02 1523.95,-88.31"/>
<polygon fill="midnightblue" stroke="midnightblue" points="1526.5,-90.71 1531.17,-81.19 1521.59,-85.72 1526.5,-90.71"/>
</g>
<!-- Node28&#45;&gt;Node3 -->
<g id="edge48" class="edge">
<title>Node28&#45;&gt;Node3</title>
<path fill="none" stroke="midnightblue" d="M1006.68,-257.4C1039.52,-238.14 1096.05,-200.61 1129,-154 1142.53,-134.86 1149.99,-108.62 1153.74,-91.14"/>
<polygon fill="midnightblue" stroke="midnightblue" points="1157.22,-91.57 1155.69,-81.08 1150.35,-90.23 1157.22,-91.57"/>
</g>
<!-- Node28&#45;&gt;Node4 -->
<g id="edge49" class="edge">
<title>Node28&#45;&gt;Node4</title>
<path fill="none" stroke="midnightblue" d="M922.74,-257.41C899.9,-249.62 874.72,-237.98 856,-221 797,-167.48 736.34,-118.28 786,-56 806.43,-30.38 901.93,-18.19 952.07,-13.47"/>
<polygon fill="midnightblue" stroke="midnightblue" points="952.68,-16.93 962.33,-12.55 952.06,-9.96 952.68,-16.93"/>
</g>
<!-- Node28&#45;&gt;Node5 -->
<g id="edge50" class="edge">
<title>Node28&#45;&gt;Node5</title>
<path fill="none" stroke="midnightblue" d="M913.91,-258.85C835.49,-244.06 716.16,-221.5 715,-221 676.92,-204.62 639.18,-173.64 618.39,-154.96"/>
<polygon fill="midnightblue" stroke="midnightblue" points="620.55,-152.18 610.81,-148 615.81,-157.34 620.55,-152.18"/>
</g>
<!-- Node28&#45;&gt;Node7 -->
<g id="edge51" class="edge">
<title>Node28&#45;&gt;Node7</title>
<path fill="none" stroke="midnightblue" d="M914.98,-257.48C884.81,-249.42 849.34,-237.55 820,-221 762.68,-188.67 767.03,-154.03 709,-123 653.86,-93.52 630.16,-112.35 573,-87 535.66,-70.44 496.75,-42.73 474.54,-25.73"/>
<polygon fill="midnightblue" stroke="midnightblue" points="476.66,-22.95 466.62,-19.58 472.37,-28.48 476.66,-22.95"/>
</g>
<!-- Node28&#45;&gt;Node21 -->
<g id="edge60" class="edge">
<title>Node28&#45;&gt;Node21</title>
<path fill="none" stroke="midnightblue" d="M928.81,-257.43C909.49,-249.7 889.11,-238.09 876,-221 848.14,-184.69 845.25,-128.92 846.23,-97.06"/>
<polygon fill="midnightblue" stroke="midnightblue" points="849.74,-97.01 846.71,-86.86 842.75,-96.69 849.74,-97.01"/>
</g>
<!-- Node29 -->
<g id="node29" class="node">
<title>Node29</title>
<g id="a_node29"><a xlink:href="../../de/d06/factory_8h.html" target="_top" xlink:title=" ">
<polygon fill="white" stroke="black" points="885,-190.5 885,-220.5 991,-220.5 991,-190.5 885,-190.5"/>
<text text-anchor="start" x="893" y="-208.5" font-family="Helvetica,sans-Serif" font-size="10.00">automaton/core/data</text>
<text text-anchor="middle" x="938" y="-197.5" font-family="Helvetica,sans-Serif" font-size="10.00">/factory.h</text>
</a>
</g>
</g>
<!-- Node28&#45;&gt;Node29 -->
<g id="edge52" class="edge">
<title>Node28&#45;&gt;Node29</title>
<path fill="none" stroke="midnightblue" d="M971.67,-257.4C966.2,-249.13 959.17,-238.51 952.95,-229.1"/>
<polygon fill="midnightblue" stroke="midnightblue" points="955.75,-226.99 947.31,-220.58 949.91,-230.85 955.75,-226.99"/>
</g>
<!-- Node29&#45;&gt;Node3 -->
<g id="edge54" class="edge">
<title>Node29&#45;&gt;Node3</title>
<path fill="none" stroke="midnightblue" d="M991.22,-196.98C1024.92,-190.14 1068.01,-177.39 1100,-154 1122.82,-137.32 1139.76,-108.65 1149.01,-90.14"/>
<polygon fill="midnightblue" stroke="midnightblue" points="1152.2,-91.58 1153.35,-81.05 1145.88,-88.57 1152.2,-91.58"/>
</g>
<!-- Node29&#45;&gt;Node4 -->
<g id="edge55" class="edge">
<title>Node29&#45;&gt;Node4</title>
<path fill="none" stroke="midnightblue" d="M937.01,-190.42C935.62,-163.37 935,-102.66 953,-56 956.88,-45.94 963.31,-35.86 969.23,-27.79"/>
<polygon fill="midnightblue" stroke="midnightblue" points="972.17,-29.7 975.52,-19.65 966.64,-25.42 972.17,-29.7"/>
</g>
<!-- Node29&#45;&gt;Node6 -->
<g id="edge56" class="edge">
<title>Node29&#45;&gt;Node6</title>
<path fill="none" stroke="midnightblue" d="M884.75,-191.03C831.91,-177.67 752.87,-157.68 710.44,-146.95"/>
<polygon fill="midnightblue" stroke="midnightblue" points="711.28,-143.55 700.72,-144.49 709.56,-150.33 711.28,-143.55"/>
</g>
<!-- Node29&#45;&gt;Node7 -->
<g id="edge57" class="edge">
<title>Node29&#45;&gt;Node7</title>
<path fill="none" stroke="midnightblue" d="M904.98,-190.42C866.27,-173.97 800.15,-146.09 743,-123 650.52,-85.64 540.48,-43.28 487.54,-23.03"/>
<polygon fill="midnightblue" stroke="midnightblue" points="488.62,-19.69 478.03,-19.39 486.13,-26.23 488.62,-19.69"/>
</g>
<!-- Node29&#45;&gt;Node18 -->
<g id="edge53" class="edge">
<title>Node29&#45;&gt;Node18</title>
<path fill="none" stroke="midnightblue" d="M941.35,-190.36C946.23,-172.57 956.84,-142.04 976,-123 1073.18,-26.4 1250.55,-12.62 1319.01,-11.02"/>
<polygon fill="midnightblue" stroke="midnightblue" points="1319.45,-14.51 1329.39,-10.85 1319.34,-7.51 1319.45,-14.51"/>
</g>
<!-- Node29&#45;&gt;Node20 -->
<g id="edge58" class="edge">
<title>Node29&#45;&gt;Node20</title>
<path fill="none" stroke="midnightblue" d="M959.7,-190.4C973.72,-181.28 992.17,-169.29 1007.64,-159.24"/>
<polygon fill="midnightblue" stroke="midnightblue" points="1009.87,-161.96 1016.34,-153.58 1006.05,-156.09 1009.87,-161.96"/>
</g>
<!-- Node29&#45;&gt;Node21 -->
<g id="edge59" class="edge">
<title>Node29&#45;&gt;Node21</title>
<path fill="none" stroke="midnightblue" d="M928.37,-190.37C912.81,-167.55 881.99,-122.36 863.37,-95.04"/>
<polygon fill="midnightblue" stroke="midnightblue" points="866.09,-92.82 857.56,-86.52 860.3,-96.76 866.09,-92.82"/>
</g>
</g>
</svg>
