<?xml version="1.0" encoding="UTF-8" standalone="no"?>
<!DOCTYPE svg PUBLIC "-//W3C//DTD SVG 1.1//EN"
 "http://www.w3.org/Graphics/SVG/1.1/DTD/svg11.dtd">
<!-- Generated by graphviz version 2.42.3 ()
 -->
<!-- Title: automaton::core::eth_contract::eth_contract Pages: 1 -->
<svg width="673pt" height="144pt"
 viewBox="0.00 0.00 673.00 144.00" xmlns="http://www.w3.org/2000/svg" xmlns:xlink="http://www.w3.org/1999/xlink">
<g id="graph0" class="graph" transform="scale(1 1) rotate(0) translate(4 140)">
<title>automaton::core::eth_contract::eth_contract</title>
<polygon fill="white" stroke="transparent" points="-4,4 -4,-140 669,-140 669,4 -4,4"/>
<!-- Node1 -->
<g id="node1" class="node">
<title>Node1</title>
<g id="a_node1"><a xlink:title=" ">
<polygon fill="#bfbfbf" stroke="black" points="170,-27.5 170,-57.5 286,-57.5 286,-27.5 170,-27.5"/>
<text text-anchor="start" x="178" y="-45.5" font-family="Helvetica,sans-Serif" font-size="10.00">automaton::core::eth</text>
<text text-anchor="middle" x="228" y="-34.5" font-family="Helvetica,sans-Serif" font-size="10.00">_contract::eth_contract</text>
</a>
</g>
</g>
<!-- Node5 -->
<g id="node5" class="node">
<title>Node5</title>
<g id="a_node5"><a xlink:title=" ">
<polygon fill="white" stroke="#bfbfbf" points="336,-51 336,-92 470,-92 470,-51 336,-51"/>
<text text-anchor="start" x="344" y="-80" font-family="Helvetica,sans-Serif" font-size="10.00">std::shared_ptr&lt; automaton</text>
<text text-anchor="start" x="344" y="-69" font-family="Helvetica,sans-Serif" font-size="10.00">::core::eth_contract::eth</text>
<text text-anchor="middle" x="403" y="-58" font-family="Helvetica,sans-Serif" font-size="10.00">_contract &gt;</text>
</a>
</g>
</g>
<!-- Node1&#45;&gt;Node5 -->
<g id="edge5" class="edge">
<title>Node1&#45;&gt;Node5</title>
<path fill="none" stroke="#9a32cd" stroke-dasharray="5,2" d="M296.01,-53.73C309.12,-55.93 322.86,-58.23 335.94,-60.43"/>
<polygon fill="#9a32cd" stroke="#9a32cd" points="296.57,-50.28 286.13,-52.08 295.41,-57.18 296.57,-50.28"/>
<text text-anchor="middle" x="311" y="-59.5" font-family="Helvetica,sans-Serif" font-size="10.00"> ptr</text>
</g>
<!-- Node2 -->
<g id="node2" class="node">
<title>Node2</title>
<g id="a_node2"><a xlink:href="../../d6/d94/classautomaton_1_1core_1_1network_1_1connection_1_1connection__handler.html" target="_top" xlink:title=" ">
<polygon fill="white" stroke="black" points="4,-49 4,-90 129,-90 129,-49 4,-49"/>
<text text-anchor="start" x="12" y="-78" font-family="Helvetica,sans-Serif" font-size="10.00">automaton::core::network</text>
<text text-anchor="start" x="12" y="-67" font-family="Helvetica,sans-Serif" font-size="10.00">::connection::connection</text>
<text text-anchor="middle" x="66.5" y="-56" font-family="Helvetica,sans-Serif" font-size="10.00">_handler</text>
</a>
</g>
</g>
<!-- Node2&#45;&gt;Node1 -->
<g id="edge1" class="edge">
<title>Node2&#45;&gt;Node1</title>
<path fill="none" stroke="midnightblue" d="M139.34,-57.34C149.59,-55.6 160.02,-53.84 169.94,-52.16"/>
<polygon fill="midnightblue" stroke="midnightblue" points="138.44,-53.94 129.17,-59.06 139.61,-60.84 138.44,-53.94"/>
</g>
<!-- Node3 -->
<g id="node3" class="node">
<title>Node3</title>
<g id="a_node3"><a xlink:title=" ">
<polygon fill="white" stroke="#bfbfbf" points="0,-0.5 0,-30.5 133,-30.5 133,-0.5 0,-0.5"/>
<text text-anchor="start" x="8" y="-18.5" font-family="Helvetica,sans-Serif" font-size="10.00">std::enable_shared</text>
<text text-anchor="middle" x="66.5" y="-7.5" font-family="Helvetica,sans-Serif" font-size="10.00">_from_this&lt; eth_contract &gt;</text>
</a>
</g>
</g>
<!-- Node3&#45;&gt;Node1 -->
<g id="edge2" class="edge">
<title>Node3&#45;&gt;Node1</title>
<path fill="none" stroke="midnightblue" d="M143.3,-28.33C152.2,-29.84 161.17,-31.36 169.76,-32.81"/>
<polygon fill="midnightblue" stroke="midnightblue" points="143.74,-24.86 133.3,-26.64 142.57,-31.76 143.74,-24.86"/>
</g>
<!-- Node4 -->
<g id="node4" class="node">
<title>Node4</title>
<g id="a_node4"><a xlink:title=" ">
<polygon fill="white" stroke="#bfbfbf" points="549,-40 549,-103 665,-103 665,-40 549,-40"/>
<text text-anchor="start" x="557" y="-91" font-family="Helvetica,sans-Serif" font-size="10.00">std::unordered_map</text>
<text text-anchor="start" x="557" y="-80" font-family="Helvetica,sans-Serif" font-size="10.00">&lt; std::string, std::</text>
<text text-anchor="start" x="557" y="-69" font-family="Helvetica,sans-Serif" font-size="10.00">shared_ptr&lt; automaton</text>
<text text-anchor="start" x="557" y="-58" font-family="Helvetica,sans-Serif" font-size="10.00">::core::eth_contract::</text>
<text text-anchor="middle" x="607" y="-47" font-family="Helvetica,sans-Serif" font-size="10.00">eth_contract &gt; &gt;</text>
</a>
</g>
</g>
<!-- Node4&#45;&gt;Node1 -->
<g id="edge3" class="edge">
<title>Node4&#45;&gt;Node1</title>
<path fill="none" stroke="#9a32cd" stroke-dasharray="5,2" d="M539.16,-47.11C517.41,-40.32 492.96,-33.88 470,-30.5 411.08,-21.81 395.46,-27.18 336,-30.5 319.76,-31.41 302.2,-33.08 286.1,-34.9"/>
<polygon fill="#9a32cd" stroke="#9a32cd" points="538.35,-50.52 548.94,-50.24 540.49,-43.86 538.35,-50.52"/>
<text text-anchor="middle" x="403" y="-33.5" font-family="Helvetica,sans-Serif" font-size="10.00"> contracts</text>
</g>
<!-- Node5&#45;&gt;Node4 -->
<g id="edge4" class="edge">
<title>Node5&#45;&gt;Node4</title>
<path fill="none" stroke="#9a32cd" stroke-dasharray="5,2" d="M480.43,-71.5C503.14,-71.5 527.62,-71.5 548.87,-71.5"/>
<polygon fill="#9a32cd" stroke="#9a32cd" points="480.14,-68 470.14,-71.5 480.14,-75 480.14,-68"/>
<text text-anchor="middle" x="509.5" y="-74.5" font-family="Helvetica,sans-Serif" font-size="10.00"> elements</text>
</g>
<!-- Node6 -->
<g id="node6" class="node">
<title>Node6</title>
<g id="a_node6"><a xlink:title="STL class.">
<polygon fill="white" stroke="#bfbfbf" points="373.5,-111 373.5,-130 432.5,-130 432.5,-111 373.5,-111"/>
<text text-anchor="middle" x="403" y="-118" font-family="Helvetica,sans-Serif" font-size="10.00">std::string</text>
</a>
</g>
</g>
<!-- Node6&#45;&gt;Node4 -->
<g id="edge6" class="edge">
<title>Node6&#45;&gt;Node4</title>
<path fill="none" stroke="#9a32cd" stroke-dasharray="5,2" d="M442.62,-111.13C472.71,-103.83 514.95,-93.59 548.94,-85.34"/>
<polygon fill="#9a32cd" stroke="#9a32cd" points="441.41,-107.82 432.51,-113.58 443.06,-114.63 441.41,-107.82"/>
<text text-anchor="middle" x="509.5" y="-101.5" font-family="Helvetica,sans-Serif" font-size="10.00"> keys</text>
</g>
<!-- Node7 -->
<g id="node7" class="node">
<title>Node7</title>
<g id="a_node7"><a xlink:title="STL class.">
<polygon fill="white" stroke="#bfbfbf" points="181.5,-105.5 181.5,-135.5 274.5,-135.5 274.5,-105.5 181.5,-105.5"/>
<text text-anchor="start" x="189.5" y="-123.5" font-family="Helvetica,sans-Serif" font-size="10.00">std::basic_string&lt;</text>
<text text-anchor="middle" x="228" y="-112.5" font-family="Helvetica,sans-Serif" font-size="10.00"> char &gt;</text>
</a>
</g>
</g>
<!-- Node7&#45;&gt;Node6 -->
<g id="edge7" class="edge">
<title>Node7&#45;&gt;Node6</title>
<path fill="none" stroke="midnightblue" d="M285.07,-120.5C314.5,-120.5 349.32,-120.5 373.27,-120.5"/>
<polygon fill="midnightblue" stroke="midnightblue" points="284.91,-117 274.91,-120.5 284.91,-124 284.91,-117"/>
</g>
</g>
</svg>
