<?xml version="1.0" encoding="UTF-8" standalone="no"?>
<!DOCTYPE svg PUBLIC "-//W3C//DTD SVG 1.1//EN"
 "http://www.w3.org/Graphics/SVG/1.1/DTD/svg11.dtd">
<!-- Generated by graphviz version 2.44.0 ()
 -->
<!-- Title: schema.h Pages: 1 -->
<!--zoomable 364 -->
<svg id="main" version="1.1" xmlns="http://www.w3.org/2000/svg" xmlns:xlink="http://www.w3.org/1999/xlink" xml:space="preserve" onload="init(evt)">
<style type="text/css"><![CDATA[
.edge:hover path { stroke: red; }
.edge:hover polygon { stroke: red; fill: red; }
]]></style>
<script type="text/javascript"><![CDATA[
var edges = document.getElementsByTagName('g');
if (edges && edges.length) {
  for (var i=0;i<edges.length;i++) {
    if (edges[i].id.substr(0,4)=='edge') {
      edges[i].setAttribute('class','edge');
    }
  }
}
]]></script>
        <defs>
                <circle id="rim" cx="0" cy="0" r="7"/>
                <circle id="rim2" cx="0" cy="0" r="3.5"/>
                <g id="zoomPlus">
                        <use xlink:href="#rim" fill="#404040">
                                <set attributeName="fill" to="#808080" begin="zoomplus.mouseover" end="zoomplus.mouseout"/>
                        </use>
                        <path d="M-4,0h8M0,-4v8" fill="none" stroke="white" stroke-width="1.5" pointer-events="none"/>
                </g>
                <g id="zoomMin">
                        <use xlink:href="#rim" fill="#404040">
                                <set attributeName="fill" to="#808080" begin="zoomminus.mouseover" end="zoomminus.mouseout"/>
                        </use>
                        <path d="M-4,0h8" fill="none" stroke="white" stroke-width="1.5" pointer-events="none"/>
                </g>
                <g id="dirArrow">
                        <path fill="none" stroke="white" stroke-width="1.5" d="M0,-3.0v7 M-2.5,-0.5L0,-3.0L2.5,-0.5"/>
                </g>
               <g id="resetDef">
                       <use xlink:href="#rim2" fill="#404040">
                               <set attributeName="fill" to="#808080" begin="reset.mouseover" end="reset.mouseout"/>
                       </use>
               </g>
        </defs>

<script type="text/javascript">
var viewWidth = 1237;
var viewHeight = 364;
var sectionId = 'dynsection-1';
</script>
<script xlink:href="../../svgpan.js"/>
<svg id="graph" class="graph">
<g id="viewport">
<title>schema.h</title>
<polygon fill="white" stroke="transparent" points="-4,4 -4,-360 1233,-360 1233,4 -4,4"/>
<!-- Node1 -->
<g id="node1" class="node">
<title>Node1</title>
<g id="a_node1"><a xlink:title=" ">
<polygon fill="#bfbfbf" stroke="black" points="399.5,-336.5 399.5,-355.5 458.5,-355.5 458.5,-336.5 399.5,-336.5"/>
<text text-anchor="middle" x="429" y="-343.5" font-family="Helvetica,sans-Serif" font-size="10.00">schema.h</text>
</a>
</g>
</g>
<!-- Node2 -->
<g id="node2" class="node">
<title>Node2</title>
<g id="a_node2"><a xlink:href="../../de/d06/factory_8h.html" target="_top" xlink:title=" ">
<polygon fill="white" stroke="black" points="247.5,-224.5 247.5,-243.5 300.5,-243.5 300.5,-224.5 247.5,-224.5"/>
<text text-anchor="middle" x="274" y="-231.5" font-family="Helvetica,sans-Serif" font-size="10.00">factory.h</text>
</a>
</g>
</g>
<!-- Node1&#45;&gt;Node2 -->
<g id="edge1" class="edge">
<title>Node1&#45;&gt;Node2</title>
<path fill="none" stroke="midnightblue" d="M408.45,-330.42C375.67,-307.15 312.54,-262.35 286.11,-243.59"/>
<polygon fill="midnightblue" stroke="midnightblue" points="406.66,-333.44 416.84,-336.37 410.71,-327.73 406.66,-333.44"/>
</g>
<!-- Node5 -->
<g id="node5" class="node">
<title>Node5</title>
<g id="a_node5"><a xlink:href="../../dc/dd5/protobuf__factory_8h.html" target="_top" xlink:title=" ">
<polygon fill="white" stroke="black" points="219,-112.5 219,-131.5 313,-131.5 313,-112.5 219,-112.5"/>
<text text-anchor="middle" x="266" y="-119.5" font-family="Helvetica,sans-Serif" font-size="10.00">protobuf_factory.h</text>
</a>
</g>
</g>
<!-- Node1&#45;&gt;Node5 -->
<g id="edge52" class="edge">
<title>Node1&#45;&gt;Node5</title>
<path fill="none" stroke="midnightblue" d="M389.06,-342.16C349.03,-337.83 286.8,-327 240,-300 180.64,-265.75 159.35,-251.67 134,-188 118.79,-149.79 174.92,-133.93 218.67,-127.42"/>
<polygon fill="midnightblue" stroke="midnightblue" points="388.93,-345.66 399.23,-343.17 389.63,-338.69 388.93,-345.66"/>
</g>
<!-- Node9 -->
<g id="node9" class="node">
<title>Node9</title>
<g id="a_node9"><a xlink:href="../../db/d7f/engine_8cc.html" target="_top" xlink:title=" ">
<polygon fill="white" stroke="black" points="53,-56.5 53,-75.5 111,-75.5 111,-56.5 53,-56.5"/>
<text text-anchor="middle" x="82" y="-63.5" font-family="Helvetica,sans-Serif" font-size="10.00">engine.cc</text>
</a>
</g>
</g>
<!-- Node1&#45;&gt;Node9 -->
<g id="edge61" class="edge">
<title>Node1&#45;&gt;Node9</title>
<path fill="none" stroke="midnightblue" d="M389.15,-343.27C282.74,-337.57 0,-314.9 0,-235 0,-235 0,-235 0,-177 0,-131.27 46.12,-92.26 69.19,-75.61"/>
<polygon fill="midnightblue" stroke="midnightblue" points="389.01,-346.77 399.17,-343.78 389.37,-339.77 389.01,-346.77"/>
</g>
<!-- Node12 -->
<g id="node12" class="node">
<title>Node12</title>
<g id="a_node12"><a xlink:href="../../d5/de1/protobuf__msg_8h.html" target="_top" xlink:title=" ">
<polygon fill="white" stroke="black" points="142.5,-168.5 142.5,-187.5 225.5,-187.5 225.5,-168.5 142.5,-168.5"/>
<text text-anchor="middle" x="184" y="-175.5" font-family="Helvetica,sans-Serif" font-size="10.00">protobuf_msg.h</text>
</a>
</g>
</g>
<!-- Node1&#45;&gt;Node12 -->
<g id="edge53" class="edge">
<title>Node1&#45;&gt;Node12</title>
<path fill="none" stroke="midnightblue" d="M388.91,-341.74C353.7,-337.16 302.53,-326.21 266,-300 223.52,-269.53 196.31,-209.75 187.3,-187.56"/>
<polygon fill="midnightblue" stroke="midnightblue" points="388.95,-345.27 399.29,-342.96 389.77,-338.31 388.95,-345.27"/>
</g>
<!-- Node15 -->
<g id="node15" class="node">
<title>Node15</title>
<g id="a_node15"><a xlink:href="../../d9/d5a/lua__node_8h.html" target="_top" xlink:title=" ">
<polygon fill="white" stroke="black" points="880.5,-56.5 880.5,-75.5 943.5,-75.5 943.5,-56.5 880.5,-56.5"/>
<text text-anchor="middle" x="912" y="-63.5" font-family="Helvetica,sans-Serif" font-size="10.00">lua_node.h</text>
</a>
</g>
</g>
<!-- Node1&#45;&gt;Node15 -->
<g id="edge60" class="edge">
<title>Node1&#45;&gt;Node15</title>
<path fill="none" stroke="midnightblue" d="M468.77,-345.26C564.8,-345.21 806.35,-340.91 874,-300 925.05,-269.13 930.32,-244.98 948,-188 958.01,-155.74 960.4,-143.8 949,-112 943.75,-97.34 931.42,-84.03 922.44,-75.76"/>
<polygon fill="midnightblue" stroke="midnightblue" points="468.61,-341.76 458.61,-345.25 468.6,-348.76 468.61,-341.76"/>
</g>
<!-- Node18 -->
<g id="node18" class="node">
<title>Node18</title>
<g id="a_node18"><a xlink:href="../../dc/d27/registry_8h.html" target="_top" xlink:title=" ">
<polygon fill="white" stroke="black" points="359,-168.5 359,-187.5 415,-187.5 415,-168.5 359,-168.5"/>
<text text-anchor="middle" x="387" y="-175.5" font-family="Helvetica,sans-Serif" font-size="10.00">registry.h</text>
</a>
</g>
</g>
<!-- Node1&#45;&gt;Node18 -->
<g id="edge62" class="edge">
<title>Node1&#45;&gt;Node18</title>
<path fill="none" stroke="midnightblue" d="M389.43,-337.09C343.58,-325.53 270.32,-299.11 239,-244 234.61,-236.27 233.71,-231.14 239,-224 253.31,-204.69 319.97,-190.38 358.77,-183.52"/>
<polygon fill="midnightblue" stroke="midnightblue" points="388.8,-340.54 399.34,-339.46 390.43,-333.73 388.8,-340.54"/>
</g>
<!-- Node19 -->
<g id="node19" class="node">
<title>Node19</title>
<g id="a_node19"><a xlink:href="../../d5/dab/smart__protocol_8h.html" target="_top" xlink:title=" ">
<polygon fill="white" stroke="black" points="832.5,-168.5 832.5,-187.5 921.5,-187.5 921.5,-168.5 832.5,-168.5"/>
<text text-anchor="middle" x="877" y="-175.5" font-family="Helvetica,sans-Serif" font-size="10.00">smart_protocol.h</text>
</a>
</g>
</g>
<!-- Node1&#45;&gt;Node19 -->
<g id="edge63" class="edge">
<title>Node1&#45;&gt;Node19</title>
<path fill="none" stroke="midnightblue" d="M468.74,-343.43C568.76,-339.12 824.93,-325.65 853,-300 885.57,-270.24 881.26,-210.02 878.34,-187.64"/>
<polygon fill="midnightblue" stroke="midnightblue" points="468.57,-339.94 458.73,-343.85 468.87,-346.93 468.57,-339.94"/>
</g>
<!-- Node25 -->
<g id="node25" class="node">
<title>Node25</title>
<g id="a_node25"><a xlink:href="../../d1/d71/msg_8h.html" target="_top" xlink:title=" ">
<polygon fill="white" stroke="black" points="433.5,-280.5 433.5,-299.5 476.5,-299.5 476.5,-280.5 433.5,-280.5"/>
<text text-anchor="middle" x="455" y="-287.5" font-family="Helvetica,sans-Serif" font-size="10.00">msg.h</text>
</a>
</g>
</g>
<!-- Node1&#45;&gt;Node25 -->
<g id="edge40" class="edge">
<title>Node1&#45;&gt;Node25</title>
<path fill="none" stroke="midnightblue" d="M437.67,-326.98C442.09,-317.82 447.25,-307.09 450.79,-299.75"/>
<polygon fill="midnightblue" stroke="midnightblue" points="434.48,-325.55 433.29,-336.08 440.79,-328.59 434.48,-325.55"/>
</g>
<!-- Node30 -->
<g id="node30" class="node">
<title>Node30</title>
<g id="a_node30"><a xlink:href="../../d0/dd3/protobuf__schema_8h.html" target="_top" xlink:title=" ">
<polygon fill="white" stroke="black" points="670.5,-112.5 670.5,-131.5 769.5,-131.5 769.5,-112.5 670.5,-112.5"/>
<text text-anchor="middle" x="720" y="-119.5" font-family="Helvetica,sans-Serif" font-size="10.00">protobuf_schema.h</text>
</a>
</g>
</g>
<!-- Node1&#45;&gt;Node30 -->
<g id="edge54" class="edge">
<title>Node1&#45;&gt;Node30</title>
<path fill="none" stroke="midnightblue" d="M468.71,-340.81C559.3,-330.36 776.74,-299.85 820,-244 853.46,-200.8 773.17,-151.05 736.78,-131.5"/>
<polygon fill="midnightblue" stroke="midnightblue" points="468.11,-337.36 458.56,-341.96 468.89,-344.31 468.11,-337.36"/>
</g>
<!-- Node31 -->
<g id="node31" class="node">
<title>Node31</title>
<g id="a_node31"><a xlink:href="../../de/d82/schema_8cc.html" target="_top" xlink:title=" ">
<polygon fill="white" stroke="black" points="1019,-280.5 1019,-299.5 1083,-299.5 1083,-280.5 1019,-280.5"/>
<text text-anchor="middle" x="1051" y="-287.5" font-family="Helvetica,sans-Serif" font-size="10.00">schema.cc</text>
</a>
</g>
</g>
<!-- Node1&#45;&gt;Node31 -->
<g id="edge59" class="edge">
<title>Node1&#45;&gt;Node31</title>
<path fill="none" stroke="midnightblue" d="M468.66,-343.48C562.34,-339.54 804.52,-327.35 1005,-300 1009.52,-299.38 1014.26,-298.61 1018.91,-297.77"/>
<polygon fill="midnightblue" stroke="midnightblue" points="468.35,-339.99 458.5,-343.9 468.64,-346.98 468.35,-339.99"/>
</g>
<!-- Node3 -->
<g id="node3" class="node">
<title>Node3</title>
<g id="a_node3"><a xlink:href="../../dd/de7/core_8cc.html" target="_top" xlink:title=" ">
<polygon fill="white" stroke="black" points="801,-0.5 801,-19.5 849,-19.5 849,-0.5 801,-0.5"/>
<text text-anchor="middle" x="825" y="-7.5" font-family="Helvetica,sans-Serif" font-size="10.00">core.cc</text>
</a>
</g>
</g>
<!-- Node2&#45;&gt;Node3 -->
<g id="edge2" class="edge">
<title>Node2&#45;&gt;Node3</title>
<path fill="none" stroke="midnightblue" d="M310.78,-228.23C388.02,-218.11 560.98,-194.85 572,-188 632.74,-150.26 605.69,-97.39 664,-56 706.01,-26.18 767.16,-16.08 800.72,-12.69"/>
<polygon fill="midnightblue" stroke="midnightblue" points="310,-224.81 300.54,-229.57 310.91,-231.75 310,-224.81"/>
</g>
<!-- Node4 -->
<g id="node4" class="node">
<title>Node4</title>
<g id="a_node4"><a xlink:href="../../d1/d4e/factory_8cc.html" target="_top" xlink:title=" ">
<polygon fill="white" stroke="black" points="243.5,-168.5 243.5,-187.5 302.5,-187.5 302.5,-168.5 243.5,-168.5"/>
<text text-anchor="middle" x="273" y="-175.5" font-family="Helvetica,sans-Serif" font-size="10.00">factory.cc</text>
</a>
</g>
</g>
<!-- Node2&#45;&gt;Node4 -->
<g id="edge3" class="edge">
<title>Node2&#45;&gt;Node4</title>
<path fill="none" stroke="midnightblue" d="M273.64,-213.8C273.48,-204.91 273.29,-194.78 273.16,-187.75"/>
<polygon fill="midnightblue" stroke="midnightblue" points="270.15,-214.15 273.83,-224.08 277.15,-214.02 270.15,-214.15"/>
</g>
<!-- Node2&#45;&gt;Node5 -->
<g id="edge4" class="edge">
<title>Node2&#45;&gt;Node5</title>
<path fill="none" stroke="midnightblue" d="M292.82,-217.35C305.79,-204.55 319.46,-185.73 312,-168 305.5,-152.55 290.83,-139.76 279.79,-131.81"/>
<polygon fill="midnightblue" stroke="midnightblue" points="290.43,-214.8 285.43,-224.14 295.16,-219.95 290.43,-214.8"/>
</g>
<!-- Node2&#45;&gt;Node9 -->
<g id="edge17" class="edge">
<title>Node2&#45;&gt;Node9</title>
<path fill="none" stroke="midnightblue" d="M237.3,-229.62C206.33,-224.99 162.59,-214 134,-188 99.32,-156.47 86.84,-97.84 83.24,-75.74"/>
<polygon fill="midnightblue" stroke="midnightblue" points="236.89,-233.1 247.27,-230.97 237.82,-226.16 236.89,-233.1"/>
</g>
<!-- Node2&#45;&gt;Node12 -->
<g id="edge12" class="edge">
<title>Node2&#45;&gt;Node12</title>
<path fill="none" stroke="midnightblue" d="M250.96,-219.18C234.4,-209.24 212.58,-196.15 198.42,-187.65"/>
<polygon fill="midnightblue" stroke="midnightblue" points="249.16,-222.18 259.54,-224.32 252.77,-216.18 249.16,-222.18"/>
</g>
<!-- Node13 -->
<g id="node13" class="node">
<title>Node13</title>
<g id="a_node13"><a xlink:href="../../d8/dd3/bind__data_8cc.html" target="_top" xlink:title=" ">
<polygon fill="white" stroke="black" points="407.5,-112.5 407.5,-131.5 478.5,-131.5 478.5,-112.5 407.5,-112.5"/>
<text text-anchor="middle" x="443" y="-119.5" font-family="Helvetica,sans-Serif" font-size="10.00">bind_data.cc</text>
</a>
</g>
</g>
<!-- Node2&#45;&gt;Node13 -->
<g id="edge16" class="edge">
<title>Node2&#45;&gt;Node13</title>
<path fill="none" stroke="midnightblue" d="M310.58,-226.18C349.64,-218.21 408.09,-204.03 424,-188 439.24,-172.65 442.39,-145.79 442.95,-131.89"/>
<polygon fill="midnightblue" stroke="midnightblue" points="309.74,-222.78 300.62,-228.17 311.11,-229.65 309.74,-222.78"/>
</g>
<!-- Node14 -->
<g id="node14" class="node">
<title>Node14</title>
<g id="a_node14"><a xlink:href="../../d1/d55/engine_8h.html" target="_top" xlink:title=" ">
<polygon fill="white" stroke="black" points="509.5,-168.5 509.5,-187.5 562.5,-187.5 562.5,-168.5 509.5,-168.5"/>
<text text-anchor="middle" x="536" y="-175.5" font-family="Helvetica,sans-Serif" font-size="10.00">engine.h</text>
</a>
</g>
</g>
<!-- Node2&#45;&gt;Node14 -->
<g id="edge18" class="edge">
<title>Node2&#45;&gt;Node14</title>
<path fill="none" stroke="midnightblue" d="M310.63,-225.45C364.09,-214.43 462.24,-194.2 509.37,-184.49"/>
<polygon fill="midnightblue" stroke="midnightblue" points="309.65,-222.08 300.56,-227.53 311.06,-228.93 309.65,-222.08"/>
</g>
<!-- Node2&#45;&gt;Node18 -->
<g id="edge26" class="edge">
<title>Node2&#45;&gt;Node18</title>
<path fill="none" stroke="midnightblue" d="M301,-220.1C322.11,-210.01 350.86,-196.27 369.18,-187.52"/>
<polygon fill="midnightblue" stroke="midnightblue" points="299.42,-216.97 291.91,-224.44 302.44,-223.29 299.42,-216.97"/>
</g>
<!-- Node2&#45;&gt;Node19 -->
<g id="edge28" class="edge">
<title>Node2&#45;&gt;Node19</title>
<path fill="none" stroke="midnightblue" d="M310.72,-228.27C322.61,-226.81 335.85,-225.25 348,-224 527.24,-205.48 741.23,-189 832.36,-182.25"/>
<polygon fill="midnightblue" stroke="midnightblue" points="310.18,-224.81 300.69,-229.52 311.05,-231.75 310.18,-224.81"/>
</g>
<!-- Node5&#45;&gt;Node3 -->
<g id="edge5" class="edge">
<title>Node5&#45;&gt;Node3</title>
<path fill="none" stroke="midnightblue" d="M259.86,-102.2C256.41,-87.71 254.78,-68.16 266,-56 302.73,-16.2 697.88,-11.59 800.67,-11.07"/>
<polygon fill="midnightblue" stroke="midnightblue" points="256.56,-103.42 262.66,-112.09 263.3,-101.51 256.56,-103.42"/>
</g>
<!-- Node6 -->
<g id="node6" class="node">
<title>Node6</title>
<g id="a_node6"><a xlink:href="../../d0/dcc/protobuf__factory_8cc.html" target="_top" xlink:title=" ">
<polygon fill="white" stroke="black" points="476.5,-56.5 476.5,-75.5 575.5,-75.5 575.5,-56.5 476.5,-56.5"/>
<text text-anchor="middle" x="526" y="-63.5" font-family="Helvetica,sans-Serif" font-size="10.00">protobuf_factory.cc</text>
</a>
</g>
</g>
<!-- Node5&#45;&gt;Node6 -->
<g id="edge6" class="edge">
<title>Node5&#45;&gt;Node6</title>
<path fill="none" stroke="midnightblue" d="M316.99,-110.41C366.13,-100.2 439.53,-84.96 484.99,-75.52"/>
<polygon fill="midnightblue" stroke="midnightblue" points="316.28,-106.98 307.2,-112.44 317.7,-113.84 316.28,-106.98"/>
</g>
<!-- Node7 -->
<g id="node7" class="node">
<title>Node7</title>
<g id="a_node7"><a xlink:href="../../da/d58/protobuf__msg_8cc.html" target="_top" xlink:title=" ">
<polygon fill="white" stroke="black" points="128.5,-56.5 128.5,-75.5 217.5,-75.5 217.5,-56.5 128.5,-56.5"/>
<text text-anchor="middle" x="173" y="-63.5" font-family="Helvetica,sans-Serif" font-size="10.00">protobuf_msg.cc</text>
</a>
</g>
</g>
<!-- Node5&#45;&gt;Node7 -->
<g id="edge7" class="edge">
<title>Node5&#45;&gt;Node7</title>
<path fill="none" stroke="midnightblue" d="M242.19,-107.18C225.08,-97.24 202.53,-84.15 187.9,-75.65"/>
<polygon fill="midnightblue" stroke="midnightblue" points="240.65,-110.33 251.06,-112.32 244.17,-104.28 240.65,-110.33"/>
</g>
<!-- Node8 -->
<g id="node8" class="node">
<title>Node8</title>
<g id="a_node8"><a xlink:href="../../dc/d05/protobuf__schema_8cc.html" target="_top" xlink:title=" ">
<polygon fill="white" stroke="black" points="354,-56.5 354,-75.5 458,-75.5 458,-56.5 354,-56.5"/>
<text text-anchor="middle" x="406" y="-63.5" font-family="Helvetica,sans-Serif" font-size="10.00">protobuf_schema.cc</text>
</a>
</g>
</g>
<!-- Node5&#45;&gt;Node8 -->
<g id="edge8" class="edge">
<title>Node5&#45;&gt;Node8</title>
<path fill="none" stroke="midnightblue" d="M297.7,-108.77C324,-98.63 360.72,-84.47 383.92,-75.52"/>
<polygon fill="midnightblue" stroke="midnightblue" points="296.25,-105.58 288.18,-112.44 298.77,-112.11 296.25,-105.58"/>
</g>
<!-- Node5&#45;&gt;Node9 -->
<g id="edge9" class="edge">
<title>Node5&#45;&gt;Node9</title>
<path fill="none" stroke="midnightblue" d="M227.05,-109.57C192.34,-99.38 142.32,-84.7 111.02,-75.52"/>
<polygon fill="midnightblue" stroke="midnightblue" points="226.26,-112.99 236.84,-112.44 228.23,-106.27 226.26,-112.99"/>
</g>
<!-- Node10 -->
<g id="node10" class="node">
<title>Node10</title>
<g id="a_node10"><a xlink:href="../../d5/d9f/registry_8cc.html" target="_top" xlink:title=" ">
<polygon fill="white" stroke="black" points="274.5,-56.5 274.5,-75.5 335.5,-75.5 335.5,-56.5 274.5,-56.5"/>
<text text-anchor="middle" x="305" y="-63.5" font-family="Helvetica,sans-Serif" font-size="10.00">registry.cc</text>
</a>
</g>
</g>
<!-- Node5&#45;&gt;Node10 -->
<g id="edge10" class="edge">
<title>Node5&#45;&gt;Node10</title>
<path fill="none" stroke="midnightblue" d="M278.38,-103.86C285.14,-94.5 293.21,-83.33 298.68,-75.75"/>
<polygon fill="midnightblue" stroke="midnightblue" points="275.46,-101.93 272.44,-112.08 281.13,-106.03 275.46,-101.93"/>
</g>
<!-- Node11 -->
<g id="node11" class="node">
<title>Node11</title>
<g id="a_node11"><a xlink:href="../../d0/dee/smart__protocol_8cc.html" target="_top" xlink:title=" ">
<polygon fill="white" stroke="black" points="673,-56.5 673,-75.5 767,-75.5 767,-56.5 673,-56.5"/>
<text text-anchor="middle" x="720" y="-63.5" font-family="Helvetica,sans-Serif" font-size="10.00">smart_protocol.cc</text>
</a>
</g>
</g>
<!-- Node5&#45;&gt;Node11 -->
<g id="edge11" class="edge">
<title>Node5&#45;&gt;Node11</title>
<path fill="none" stroke="midnightblue" d="M323.4,-114.17C414.12,-103.38 588.91,-82.59 672.81,-72.61"/>
<polygon fill="midnightblue" stroke="midnightblue" points="322.82,-110.72 313.3,-115.37 323.64,-117.67 322.82,-110.72"/>
</g>
<!-- Node12&#45;&gt;Node5 -->
<g id="edge14" class="edge">
<title>Node12&#45;&gt;Node5</title>
<path fill="none" stroke="midnightblue" d="M205.83,-162.62C220.81,-152.76 240.2,-139.99 252.86,-131.65"/>
<polygon fill="midnightblue" stroke="midnightblue" points="203.6,-159.9 197.17,-168.32 207.45,-165.75 203.6,-159.9"/>
</g>
<!-- Node12&#45;&gt;Node6 -->
<g id="edge13" class="edge">
<title>Node12&#45;&gt;Node6</title>
<path fill="none" stroke="midnightblue" d="M220.13,-165.38C289.15,-143.18 438.29,-95.21 499.23,-75.61"/>
<polygon fill="midnightblue" stroke="midnightblue" points="219,-162.07 210.55,-168.46 221.14,-168.73 219,-162.07"/>
</g>
<!-- Node12&#45;&gt;Node7 -->
<g id="edge15" class="edge">
<title>Node12&#45;&gt;Node7</title>
<path fill="none" stroke="midnightblue" d="M182.13,-158.35C179.73,-134.25 175.63,-93.31 173.86,-75.59"/>
<polygon fill="midnightblue" stroke="midnightblue" points="178.66,-158.77 183.14,-168.37 185.62,-158.07 178.66,-158.77"/>
</g>
<!-- Node14&#45;&gt;Node3 -->
<g id="edge19" class="edge">
<title>Node14&#45;&gt;Node3</title>
<path fill="none" stroke="midnightblue" d="M555.34,-161.71C564.95,-153.53 576.33,-142.91 585,-132 609.14,-101.61 596.88,-79.18 628,-56 680.47,-16.91 761.04,-10.89 800.93,-10.51"/>
<polygon fill="midnightblue" stroke="midnightblue" points="552.94,-159.16 547.46,-168.22 557.4,-164.55 552.94,-159.16"/>
</g>
<!-- Node14&#45;&gt;Node9 -->
<g id="edge25" class="edge">
<title>Node14&#45;&gt;Node9</title>
<path fill="none" stroke="midnightblue" d="M499.33,-173.49C425.92,-166.2 263.4,-148.72 210,-132 165.52,-118.07 117.73,-89.81 95.19,-75.58"/>
<polygon fill="midnightblue" stroke="midnightblue" points="499.19,-176.99 509.49,-174.49 499.88,-170.02 499.19,-176.99"/>
</g>
<!-- Node14&#45;&gt;Node13 -->
<g id="edge24" class="edge">
<title>Node14&#45;&gt;Node13</title>
<path fill="none" stroke="midnightblue" d="M512.19,-163.18C495.08,-153.24 472.53,-140.15 457.9,-131.65"/>
<polygon fill="midnightblue" stroke="midnightblue" points="510.65,-166.33 521.06,-168.32 514.17,-160.28 510.65,-166.33"/>
</g>
<!-- Node14&#45;&gt;Node15 -->
<g id="edge20" class="edge">
<title>Node14&#45;&gt;Node15</title>
<path fill="none" stroke="midnightblue" d="M572.82,-173.33C621.11,-167.81 708.02,-155.43 779,-132 824.39,-117.02 874.03,-89.49 897.79,-75.56"/>
<polygon fill="midnightblue" stroke="midnightblue" points="572.39,-169.86 562.84,-174.44 573.16,-176.81 572.39,-169.86"/>
</g>
<!-- Node17 -->
<g id="node17" class="node">
<title>Node17</title>
<g id="a_node17"><a xlink:href="../../df/de4/bind__crypto_8cc.html" target="_top" xlink:title=" ">
<polygon fill="white" stroke="black" points="496.5,-112.5 496.5,-131.5 575.5,-131.5 575.5,-112.5 496.5,-112.5"/>
<text text-anchor="middle" x="536" y="-119.5" font-family="Helvetica,sans-Serif" font-size="10.00">bind_crypto.cc</text>
</a>
</g>
</g>
<!-- Node14&#45;&gt;Node17 -->
<g id="edge23" class="edge">
<title>Node14&#45;&gt;Node17</title>
<path fill="none" stroke="midnightblue" d="M536,-157.8C536,-148.91 536,-138.78 536,-131.75"/>
<polygon fill="midnightblue" stroke="midnightblue" points="532.5,-158.08 536,-168.08 539.5,-158.08 532.5,-158.08"/>
</g>
<!-- Node15&#45;&gt;Node3 -->
<g id="edge21" class="edge">
<title>Node15&#45;&gt;Node3</title>
<path fill="none" stroke="midnightblue" d="M889.28,-50.9C873.33,-41 852.5,-28.07 838.94,-19.65"/>
<polygon fill="midnightblue" stroke="midnightblue" points="887.68,-54.02 898.02,-56.32 891.37,-48.08 887.68,-54.02"/>
</g>
<!-- Node16 -->
<g id="node16" class="node">
<title>Node16</title>
<g id="a_node16"><a xlink:href="../../db/d7e/lua__node_8cc.html" target="_top" xlink:title=" ">
<polygon fill="white" stroke="black" points="878,-0.5 878,-19.5 946,-19.5 946,-0.5 878,-0.5"/>
<text text-anchor="middle" x="912" y="-7.5" font-family="Helvetica,sans-Serif" font-size="10.00">lua_node.cc</text>
</a>
</g>
</g>
<!-- Node15&#45;&gt;Node16 -->
<g id="edge22" class="edge">
<title>Node15&#45;&gt;Node16</title>
<path fill="none" stroke="midnightblue" d="M912,-45.8C912,-36.91 912,-26.78 912,-19.75"/>
<polygon fill="midnightblue" stroke="midnightblue" points="908.5,-46.08 912,-56.08 915.5,-46.08 908.5,-46.08"/>
</g>
<!-- Node18&#45;&gt;Node10 -->
<g id="edge27" class="edge">
<title>Node18&#45;&gt;Node10</title>
<path fill="none" stroke="midnightblue" d="M374.53,-160.27C356.8,-136.49 324.97,-93.79 311.4,-75.59"/>
<polygon fill="midnightblue" stroke="midnightblue" points="371.78,-162.44 380.57,-168.37 377.4,-158.26 371.78,-162.44"/>
</g>
<!-- Node19&#45;&gt;Node3 -->
<g id="edge29" class="edge">
<title>Node19&#45;&gt;Node3</title>
<path fill="none" stroke="midnightblue" d="M871.17,-158.39C859.95,-122.59 835.76,-45.34 827.68,-19.57"/>
<polygon fill="midnightblue" stroke="midnightblue" points="867.87,-159.58 874.2,-168.08 874.55,-157.49 867.87,-159.58"/>
</g>
<!-- Node19&#45;&gt;Node11 -->
<g id="edge39" class="edge">
<title>Node19&#45;&gt;Node11</title>
<path fill="none" stroke="midnightblue" d="M856.19,-162.42C822.98,-139.15 759.04,-94.35 732.26,-75.59"/>
<polygon fill="midnightblue" stroke="midnightblue" points="854.48,-165.5 864.68,-168.37 858.5,-159.76 854.48,-165.5"/>
</g>
<!-- Node19&#45;&gt;Node15 -->
<g id="edge30" class="edge">
<title>Node19&#45;&gt;Node15</title>
<path fill="none" stroke="midnightblue" d="M882.83,-158.67C890.48,-134.62 903.6,-93.39 909.27,-75.59"/>
<polygon fill="midnightblue" stroke="midnightblue" points="879.44,-157.78 879.75,-168.37 886.11,-159.9 879.44,-157.78"/>
</g>
<!-- Node20 -->
<g id="node20" class="node">
<title>Node20</title>
<g id="a_node20"><a xlink:href="../../d1/d77/node_8h.html" target="_top" xlink:title=" ">
<polygon fill="white" stroke="black" points="1016.5,-112.5 1016.5,-131.5 1061.5,-131.5 1061.5,-112.5 1016.5,-112.5"/>
<text text-anchor="middle" x="1039" y="-119.5" font-family="Helvetica,sans-Serif" font-size="10.00">node.h</text>
</a>
</g>
</g>
<!-- Node19&#45;&gt;Node20 -->
<g id="edge31" class="edge">
<title>Node19&#45;&gt;Node20</title>
<path fill="none" stroke="midnightblue" d="M912.41,-165.2C944.01,-154.66 989.35,-139.55 1016.33,-130.56"/>
<polygon fill="midnightblue" stroke="midnightblue" points="911.05,-161.96 902.67,-168.44 913.26,-168.6 911.05,-161.96"/>
</g>
<!-- Node20&#45;&gt;Node3 -->
<g id="edge32" class="edge">
<title>Node20&#45;&gt;Node3</title>
<path fill="none" stroke="midnightblue" d="M1021.88,-105.5C1005.26,-91.11 978.84,-69.87 953,-56 918.76,-37.62 875.48,-24.24 849.04,-17.05"/>
<polygon fill="midnightblue" stroke="midnightblue" points="1019.8,-108.34 1029.62,-112.33 1024.43,-103.09 1019.8,-108.34"/>
</g>
<!-- Node20&#45;&gt;Node15 -->
<g id="edge33" class="edge">
<title>Node20&#45;&gt;Node15</title>
<path fill="none" stroke="midnightblue" d="M1009.61,-108.5C985.8,-98.38 952.89,-84.39 932.03,-75.52"/>
<polygon fill="midnightblue" stroke="midnightblue" points="1008.3,-111.75 1018.88,-112.44 1011.04,-105.31 1008.3,-111.75"/>
</g>
<!-- Node21 -->
<g id="node21" class="node">
<title>Node21</title>
<g id="a_node21"><a xlink:href="../../dc/dfd/node_8cc.html" target="_top" xlink:title=" ">
<polygon fill="white" stroke="black" points="1179,-56.5 1179,-75.5 1229,-75.5 1229,-56.5 1179,-56.5"/>
<text text-anchor="middle" x="1204" y="-63.5" font-family="Helvetica,sans-Serif" font-size="10.00">node.cc</text>
</a>
</g>
</g>
<!-- Node20&#45;&gt;Node21 -->
<g id="edge34" class="edge">
<title>Node20&#45;&gt;Node21</title>
<path fill="none" stroke="midnightblue" d="M1071.24,-110.45C1102.79,-100.12 1150.18,-84.61 1178.98,-75.19"/>
<polygon fill="midnightblue" stroke="midnightblue" points="1070.01,-107.17 1061.6,-113.6 1072.19,-113.82 1070.01,-107.17"/>
</g>
<!-- Node22 -->
<g id="node22" class="node">
<title>Node22</title>
<g id="a_node22"><a xlink:href="../../dc/d32/node__updater_8h.html" target="_top" xlink:title=" ">
<polygon fill="white" stroke="black" points="1000.5,-56.5 1000.5,-75.5 1083.5,-75.5 1083.5,-56.5 1000.5,-56.5"/>
<text text-anchor="middle" x="1042" y="-63.5" font-family="Helvetica,sans-Serif" font-size="10.00">node_updater.h</text>
</a>
</g>
</g>
<!-- Node20&#45;&gt;Node22 -->
<g id="edge35" class="edge">
<title>Node20&#45;&gt;Node22</title>
<path fill="none" stroke="midnightblue" d="M1040.07,-101.8C1040.56,-92.91 1041.12,-82.78 1041.51,-75.75"/>
<polygon fill="midnightblue" stroke="midnightblue" points="1036.56,-101.9 1039.5,-112.08 1043.54,-102.29 1036.56,-101.9"/>
</g>
<!-- Node24 -->
<g id="node24" class="node">
<title>Node24</title>
<g id="a_node24"><a xlink:href="../../df/dd2/testnet_8cc.html" target="_top" xlink:title=" ">
<polygon fill="white" stroke="black" points="1101.5,-56.5 1101.5,-75.5 1160.5,-75.5 1160.5,-56.5 1101.5,-56.5"/>
<text text-anchor="middle" x="1131" y="-63.5" font-family="Helvetica,sans-Serif" font-size="10.00">testnet.cc</text>
</a>
</g>
</g>
<!-- Node20&#45;&gt;Node24 -->
<g id="edge38" class="edge">
<title>Node20&#45;&gt;Node24</title>
<path fill="none" stroke="midnightblue" d="M1062.55,-107.18C1079.48,-97.24 1101.78,-84.15 1116.26,-75.65"/>
<polygon fill="midnightblue" stroke="midnightblue" points="1060.63,-104.24 1053.78,-112.32 1064.18,-110.28 1060.63,-104.24"/>
</g>
<!-- Node22&#45;&gt;Node3 -->
<g id="edge36" class="edge">
<title>Node22&#45;&gt;Node3</title>
<path fill="none" stroke="midnightblue" d="M997.85,-54.01C952.94,-42.84 885.01,-25.93 849.14,-17.01"/>
<polygon fill="midnightblue" stroke="midnightblue" points="997.07,-57.43 1007.62,-56.44 998.76,-50.63 997.07,-57.43"/>
</g>
<!-- Node23 -->
<g id="node23" class="node">
<title>Node23</title>
<g id="a_node23"><a xlink:href="../../d1/d13/node__updater_8cc.html" target="_top" xlink:title=" ">
<polygon fill="white" stroke="black" points="998,-0.5 998,-19.5 1086,-19.5 1086,-0.5 998,-0.5"/>
<text text-anchor="middle" x="1042" y="-7.5" font-family="Helvetica,sans-Serif" font-size="10.00">node_updater.cc</text>
</a>
</g>
</g>
<!-- Node22&#45;&gt;Node23 -->
<g id="edge37" class="edge">
<title>Node22&#45;&gt;Node23</title>
<path fill="none" stroke="midnightblue" d="M1042,-45.8C1042,-36.91 1042,-26.78 1042,-19.75"/>
<polygon fill="midnightblue" stroke="midnightblue" points="1038.5,-46.08 1042,-56.08 1045.5,-46.08 1038.5,-46.08"/>
</g>
<!-- Node25&#45;&gt;Node2 -->
<g id="edge44" class="edge">
<title>Node25&#45;&gt;Node2</title>
<path fill="none" stroke="midnightblue" d="M423.51,-279.61C388.72,-269.23 333.31,-252.69 300.61,-242.94"/>
<polygon fill="midnightblue" stroke="midnightblue" points="422.58,-282.98 433.17,-282.49 424.59,-276.27 422.58,-282.98"/>
</g>
<!-- Node25&#45;&gt;Node9 -->
<g id="edge50" class="edge">
<title>Node25&#45;&gt;Node9</title>
<path fill="none" stroke="midnightblue" d="M423.15,-289.98C354.87,-290.19 194.05,-280.28 113,-188 83.66,-154.6 81.43,-97.1 81.71,-75.52"/>
<polygon fill="midnightblue" stroke="midnightblue" points="423.32,-293.48 433.28,-289.87 423.25,-286.48 423.32,-293.48"/>
</g>
<!-- Node25&#45;&gt;Node12 -->
<g id="edge46" class="edge">
<title>Node25&#45;&gt;Node12</title>
<path fill="none" stroke="midnightblue" d="M423.26,-288.72C378.98,-286.99 297.53,-278.85 239,-244 215.37,-229.94 197.05,-202 188.79,-187.77"/>
<polygon fill="midnightblue" stroke="midnightblue" points="423.32,-292.23 433.42,-289.03 423.53,-285.23 423.32,-292.23"/>
</g>
<!-- Node25&#45;&gt;Node13 -->
<g id="edge49" class="edge">
<title>Node25&#45;&gt;Node13</title>
<path fill="none" stroke="midnightblue" d="M458.53,-270.55C459.91,-262.44 461.32,-252.78 462,-244 465.28,-201.6 451.84,-151.6 445.8,-131.75"/>
<polygon fill="midnightblue" stroke="midnightblue" points="455.08,-269.96 456.74,-280.42 461.97,-271.2 455.08,-269.96"/>
</g>
<!-- Node25&#45;&gt;Node15 -->
<g id="edge47" class="edge">
<title>Node25&#45;&gt;Node15</title>
<path fill="none" stroke="midnightblue" d="M486.8,-288.72C551.13,-287.37 700.75,-280.23 820,-244 846.43,-235.97 916.52,-211.53 931,-188 953.63,-151.24 928.42,-96.69 917.02,-75.68"/>
<polygon fill="midnightblue" stroke="midnightblue" points="486.45,-285.23 476.51,-288.9 486.57,-292.23 486.45,-285.23"/>
</g>
<!-- Node25&#45;&gt;Node18 -->
<g id="edge51" class="edge">
<title>Node25&#45;&gt;Node18</title>
<path fill="none" stroke="midnightblue" d="M423.13,-285.07C398.02,-280.11 364.59,-268.97 348,-244 334.89,-224.27 359.5,-200.15 375.26,-187.57"/>
<polygon fill="midnightblue" stroke="midnightblue" points="422.85,-288.58 433.3,-286.84 424.05,-281.68 422.85,-288.58"/>
</g>
<!-- Node25&#45;&gt;Node20 -->
<g id="edge48" class="edge">
<title>Node25&#45;&gt;Node20</title>
<path fill="none" stroke="midnightblue" d="M486.78,-287.96C574.31,-284.74 817.27,-273.33 891,-244 954.84,-218.61 1012.2,-155.17 1031.83,-131.81"/>
<polygon fill="midnightblue" stroke="midnightblue" points="486.53,-284.46 476.67,-288.32 486.78,-291.46 486.53,-284.46"/>
</g>
<!-- Node26 -->
<g id="node26" class="node">
<title>Node26</title>
<g id="a_node26"><a xlink:href="../../d0/dd2/digital__signature_8cc.html" target="_top" xlink:title=" ">
<polygon fill="white" stroke="black" points="575,-224.5 575,-243.5 675,-243.5 675,-224.5 575,-224.5"/>
<text text-anchor="middle" x="625" y="-231.5" font-family="Helvetica,sans-Serif" font-size="10.00">digital_signature.cc</text>
</a>
</g>
</g>
<!-- Node25&#45;&gt;Node26 -->
<g id="edge41" class="edge">
<title>Node25&#45;&gt;Node26</title>
<path fill="none" stroke="midnightblue" d="M486.29,-279.06C518.34,-268.88 567.67,-253.21 598.05,-243.56"/>
<polygon fill="midnightblue" stroke="midnightblue" points="485,-275.8 476.53,-282.16 487.12,-282.47 485,-275.8"/>
</g>
<!-- Node27 -->
<g id="node27" class="node">
<title>Node27</title>
<g id="a_node27"><a xlink:href="../../d8/d0d/hash__transformation_8cc.html" target="_top" xlink:title=" ">
<polygon fill="white" stroke="black" points="693,-224.5 693,-243.5 811,-243.5 811,-224.5 693,-224.5"/>
<text text-anchor="middle" x="752" y="-231.5" font-family="Helvetica,sans-Serif" font-size="10.00">hash_transformation.cc</text>
</a>
</g>
</g>
<!-- Node25&#45;&gt;Node27 -->
<g id="edge42" class="edge">
<title>Node25&#45;&gt;Node27</title>
<path fill="none" stroke="midnightblue" d="M486.91,-283.2C539.37,-273.66 644.09,-254.62 705.04,-243.54"/>
<polygon fill="midnightblue" stroke="midnightblue" points="486.05,-279.8 476.84,-285.03 487.3,-286.68 486.05,-279.8"/>
</g>
<!-- Node28 -->
<g id="node28" class="node">
<title>Node28</title>
<g id="a_node28"><a xlink:href="../../dd/ded/secure__random_8cc.html" target="_top" xlink:title=" ">
<polygon fill="white" stroke="black" points="357,-224.5 357,-243.5 453,-243.5 453,-224.5 357,-224.5"/>
<text text-anchor="middle" x="405" y="-231.5" font-family="Helvetica,sans-Serif" font-size="10.00">secure_random.cc</text>
</a>
</g>
</g>
<!-- Node25&#45;&gt;Node28 -->
<g id="edge43" class="edge">
<title>Node25&#45;&gt;Node28</title>
<path fill="none" stroke="midnightblue" d="M439.92,-272.72C431.11,-263.2 420.33,-251.56 413.1,-243.75"/>
<polygon fill="midnightblue" stroke="midnightblue" points="437.38,-275.12 446.74,-280.08 442.52,-270.37 437.38,-275.12"/>
</g>
<!-- Node29 -->
<g id="node29" class="node">
<title>Node29</title>
<g id="a_node29"><a xlink:href="../../de/d80/msg_8cc.html" target="_top" xlink:title=" ">
<polygon fill="white" stroke="black" points="509,-224.5 509,-243.5 557,-243.5 557,-224.5 509,-224.5"/>
<text text-anchor="middle" x="533" y="-231.5" font-family="Helvetica,sans-Serif" font-size="10.00">msg.cc</text>
</a>
</g>
</g>
<!-- Node25&#45;&gt;Node29 -->
<g id="edge45" class="edge">
<title>Node25&#45;&gt;Node29</title>
<path fill="none" stroke="midnightblue" d="M475.77,-274.62C490.02,-264.76 508.46,-251.99 520.5,-243.65"/>
<polygon fill="midnightblue" stroke="midnightblue" points="473.76,-271.75 467.53,-280.32 477.75,-277.51 473.76,-271.75"/>
</g>
<!-- Node30&#45;&gt;Node3 -->
<g id="edge55" class="edge">
<title>Node30&#45;&gt;Node3</title>
<path fill="none" stroke="midnightblue" d="M740.55,-106.44C751.61,-98.13 765.18,-87.16 776,-76 793.9,-57.53 811.12,-32.47 819.57,-19.52"/>
<polygon fill="midnightblue" stroke="midnightblue" points="738.3,-103.75 732.31,-112.49 742.44,-109.39 738.3,-103.75"/>
</g>
<!-- Node30&#45;&gt;Node6 -->
<g id="edge56" class="edge">
<title>Node30&#45;&gt;Node6</title>
<path fill="none" stroke="midnightblue" d="M679.4,-109.7C642.78,-99.51 589.74,-84.74 556.6,-75.52"/>
<polygon fill="midnightblue" stroke="midnightblue" points="678.69,-113.13 689.26,-112.44 680.56,-106.39 678.69,-113.13"/>
</g>
<!-- Node30&#45;&gt;Node8 -->
<g id="edge57" class="edge">
<title>Node30&#45;&gt;Node8</title>
<path fill="none" stroke="midnightblue" d="M660.27,-110.73C600.93,-100.52 511.01,-85.06 455.52,-75.52"/>
<polygon fill="midnightblue" stroke="midnightblue" points="659.8,-114.2 670.25,-112.44 660.98,-107.3 659.8,-114.2"/>
</g>
<!-- Node30&#45;&gt;Node11 -->
<g id="edge58" class="edge">
<title>Node30&#45;&gt;Node11</title>
<path fill="none" stroke="midnightblue" d="M720,-101.8C720,-92.91 720,-82.78 720,-75.75"/>
<polygon fill="midnightblue" stroke="midnightblue" points="716.5,-102.08 720,-112.08 723.5,-102.08 716.5,-102.08"/>
</g>
</g>
</svg>
        <g id="navigator" transform="translate(0 0)" fill="#404254">
                <rect fill="#f2f5e9" fill-opacity="0.5" stroke="#606060" stroke-width=".5" x="0" y="0" width="60" height="60"/>
                <use id="zoomplus" xlink:href="#zoomPlus" x="17" y="9" onmousedown="handleZoom(evt,'in')"/>
                <use id="zoomminus" xlink:href="#zoomMin" x="42" y="9" onmousedown="handleZoom(evt,'out')"/>
                <use id="reset" xlink:href="#resetDef" x="30" y="36" onmousedown="handleReset()"/>
                <g id="arrowUp" xlink:href="#dirArrow" transform="translate(30 24)" onmousedown="handlePan(0,-1)">
                  <use xlink:href="#rim" fill="#404040">
                        <set attributeName="fill" to="#808080" begin="arrowUp.mouseover" end="arrowUp.mouseout"/>
                  </use>
                  <path fill="none" stroke="white" stroke-width="1.5" d="M0,-3.0v7 M-2.5,-0.5L0,-3.0L2.5,-0.5"/>
                </g>
                <g id="arrowRight" xlink:href="#dirArrow" transform="rotate(90) translate(36 -43)" onmousedown="handlePan(1,0)">
                  <use xlink:href="#rim" fill="#404040">
                        <set attributeName="fill" to="#808080" begin="arrowRight.mouseover" end="arrowRight.mouseout"/>
                  </use>
                  <path fill="none" stroke="white" stroke-width="1.5" d="M0,-3.0v7 M-2.5,-0.5L0,-3.0L2.5,-0.5"/>
                </g>
                <g id="arrowDown" xlink:href="#dirArrow" transform="rotate(180) translate(-30 -48)" onmousedown="handlePan(0,1)">
                  <use xlink:href="#rim" fill="#404040">
                        <set attributeName="fill" to="#808080" begin="arrowDown.mouseover" end="arrowDown.mouseout"/>
                  </use>
                  <path fill="none" stroke="white" stroke-width="1.5" d="M0,-3.0v7 M-2.5,-0.5L0,-3.0L2.5,-0.5"/>
                </g>
                <g id="arrowLeft" xlink:href="#dirArrow" transform="rotate(270) translate(-36 17)" onmousedown="handlePan(-1,0)">
                  <use xlink:href="#rim" fill="#404040">
                        <set attributeName="fill" to="#808080" begin="arrowLeft.mouseover" end="arrowLeft.mouseout"/>
                  </use>
                  <path fill="none" stroke="white" stroke-width="1.5" d="M0,-3.0v7 M-2.5,-0.5L0,-3.0L2.5,-0.5"/>
                </g>
        </g>
        <svg viewBox="0 0 15 15" width="100%" height="30px" preserveAspectRatio="xMaxYMin meet">
         <g id="arrow_out" transform="scale(0.3 0.3)">
          <a xlink:href="schema_8h__dep__incl_org.svg" target="_base">
           <rect id="button" ry="5" rx="5" y="6" x="6" height="38" width="38"
                fill="#f2f5e9" fill-opacity="0.5" stroke="#606060" stroke-width="1.0"/>
           <path id="arrow"
             d="M 11.500037,31.436501 C 11.940474,20.09759 22.043105,11.32322 32.158766,21.979434 L 37.068811,17.246167 C 37.068811,17.246167 37.088388,32 37.088388,32 L 22.160133,31.978069 C 22.160133,31.978069 26.997745,27.140456 26.997745,27.140456 C 18.528582,18.264221 13.291696,25.230495 11.500037,31.436501 z"
             style="fill:#404040;"/>
          </a>
         </g>
        </svg>
</svg>
