<?xml version="1.0" encoding="UTF-8" standalone="no"?>
<!DOCTYPE svg PUBLIC "-//W3C//DTD SVG 1.1//EN"
 "http://www.w3.org/Graphics/SVG/1.1/DTD/svg11.dtd">
<!-- Generated by graphviz version 2.42.3 ()
 -->
<!-- Title: schema.h Pages: 1 -->
<svg width="1298pt" height="364pt"
 viewBox="0.00 0.00 1298.39 364.00" xmlns="http://www.w3.org/2000/svg" xmlns:xlink="http://www.w3.org/1999/xlink">
<g id="graph0" class="graph" transform="scale(1 1) rotate(0) translate(4 360)">
<title>schema.h</title>
<polygon fill="white" stroke="transparent" points="-4,4 -4,-360 1294.39,-360 1294.39,4 -4,4"/>
<!-- Node1 -->
<g id="node1" class="node">
<title>Node1</title>
<g id="a_node1"><a xlink:title=" ">
<polygon fill="#bfbfbf" stroke="black" points="511.89,-336.5 511.89,-355.5 570.89,-355.5 570.89,-336.5 511.89,-336.5"/>
<text text-anchor="middle" x="541.39" y="-343.5" font-family="Helvetica,sans-Serif" font-size="10.00">schema.h</text>
</a>
</g>
</g>
<!-- Node2 -->
<g id="node2" class="node">
<title>Node2</title>
<g id="a_node2"><a xlink:href="../../d1/d71/msg_8h.html" target="_top" xlink:title=" ">
<polygon fill="white" stroke="black" points="548.89,-280.5 548.89,-299.5 591.89,-299.5 591.89,-280.5 548.89,-280.5"/>
<text text-anchor="middle" x="570.39" y="-287.5" font-family="Helvetica,sans-Serif" font-size="10.00">msg.h</text>
</a>
</g>
</g>
<!-- Node1&#45;&gt;Node2 -->
<g id="edge1" class="edge">
<title>Node1&#45;&gt;Node2</title>
<path fill="none" stroke="midnightblue" d="M551.07,-326.98C555.99,-317.82 561.75,-307.09 565.69,-299.75"/>
<polygon fill="midnightblue" stroke="midnightblue" points="547.83,-325.62 546.18,-336.08 554,-328.93 547.83,-325.62"/>
</g>
<!-- Node3 -->
<g id="node3" class="node">
<title>Node3</title>
<g id="a_node3"><a xlink:href="../../de/d06/factory_8h.html" target="_top" xlink:title=" ">
<polygon fill="white" stroke="black" points="343.89,-224.5 343.89,-243.5 396.89,-243.5 396.89,-224.5 343.89,-224.5"/>
<text text-anchor="middle" x="370.39" y="-231.5" font-family="Helvetica,sans-Serif" font-size="10.00">factory.h</text>
</a>
</g>
</g>
<!-- Node1&#45;&gt;Node3 -->
<g id="edge51" class="edge">
<title>Node1&#45;&gt;Node3</title>
<path fill="none" stroke="midnightblue" d="M519.19,-330.71C483.15,-307.53 413.04,-262.43 383.75,-243.59"/>
<polygon fill="midnightblue" stroke="midnightblue" points="517.67,-333.9 527.98,-336.37 521.46,-328.01 517.67,-333.9"/>
</g>
<!-- Node5 -->
<g id="node5" class="node">
<title>Node5</title>
<g id="a_node5"><a xlink:href="../../dc/dd5/protobuf__factory_8h.html" target="_top" xlink:title=" ">
<polygon fill="white" stroke="black" points="259.39,-112.5 259.39,-131.5 353.39,-131.5 353.39,-112.5 259.39,-112.5"/>
<text text-anchor="middle" x="306.39" y="-119.5" font-family="Helvetica,sans-Serif" font-size="10.00">protobuf_factory.h</text>
</a>
</g>
</g>
<!-- Node1&#45;&gt;Node5 -->
<g id="edge53" class="edge">
<title>Node1&#45;&gt;Node5</title>
<path fill="none" stroke="midnightblue" d="M501.7,-345.31C412.11,-343.54 195.9,-324.68 117.39,-188 86.11,-133.54 193.55,-123.6 259.18,-122.44"/>
<polygon fill="midnightblue" stroke="midnightblue" points="501.69,-348.81 511.73,-345.45 501.78,-341.81 501.69,-348.81"/>
</g>
<!-- Node9 -->
<g id="node9" class="node">
<title>Node9</title>
<g id="a_node9"><a xlink:href="../../db/d7f/engine_8cc.html" target="_top" xlink:title=" ">
<polygon fill="white" stroke="black" points="590.39,-56.5 590.39,-75.5 648.39,-75.5 648.39,-56.5 590.39,-56.5"/>
<text text-anchor="middle" x="619.39" y="-63.5" font-family="Helvetica,sans-Serif" font-size="10.00">engine.cc</text>
</a>
</g>
</g>
<!-- Node1&#45;&gt;Node9 -->
<g id="edge62" class="edge">
<title>Node1&#45;&gt;Node9</title>
<path fill="none" stroke="midnightblue" d="M581.02,-340.36C668.84,-329.17 875.31,-297.61 916.39,-244 921.8,-236.94 920.98,-231.61 916.39,-224 900.18,-197.09 700.8,-104.23 638.12,-75.52"/>
<polygon fill="midnightblue" stroke="midnightblue" points="580.41,-336.91 570.92,-341.62 581.28,-343.85 580.41,-336.91"/>
</g>
<!-- Node12 -->
<g id="node12" class="node">
<title>Node12</title>
<g id="a_node12"><a xlink:href="../../d5/de1/protobuf__msg_8h.html" target="_top" xlink:title=" ">
<polygon fill="white" stroke="black" points="200.89,-168.5 200.89,-187.5 283.89,-187.5 283.89,-168.5 200.89,-168.5"/>
<text text-anchor="middle" x="242.39" y="-175.5" font-family="Helvetica,sans-Serif" font-size="10.00">protobuf_msg.h</text>
</a>
</g>
</g>
<!-- Node1&#45;&gt;Node12 -->
<g id="edge52" class="edge">
<title>Node1&#45;&gt;Node12</title>
<path fill="none" stroke="midnightblue" d="M502.04,-335.37C450.76,-321.44 360.05,-291.96 295.39,-244 273.88,-228.04 255.91,-201.44 247.51,-187.75"/>
<polygon fill="midnightblue" stroke="midnightblue" points="501.18,-338.77 511.74,-337.95 502.98,-332 501.18,-338.77"/>
</g>
<!-- Node14 -->
<g id="node14" class="node">
<title>Node14</title>
<g id="a_node14"><a xlink:href="../../d9/d5a/lua__node_8h.html" target="_top" xlink:title=" ">
<polygon fill="white" stroke="black" points="939.89,-56.5 939.89,-75.5 1002.89,-75.5 1002.89,-56.5 939.89,-56.5"/>
<text text-anchor="middle" x="971.39" y="-63.5" font-family="Helvetica,sans-Serif" font-size="10.00">lua_node.h</text>
</a>
</g>
</g>
<!-- Node1&#45;&gt;Node14 -->
<g id="edge59" class="edge">
<title>Node1&#45;&gt;Node14</title>
<path fill="none" stroke="midnightblue" d="M581.04,-343.44C681.46,-339.13 939.89,-325.63 968.39,-300 1031.26,-243.47 1019.29,-193.66 997.39,-112 993.7,-98.23 984.66,-84.32 978.28,-75.68"/>
<polygon fill="midnightblue" stroke="midnightblue" points="580.83,-339.95 570.99,-343.86 581.13,-346.94 580.83,-339.95"/>
</g>
<!-- Node18 -->
<g id="node18" class="node">
<title>Node18</title>
<g id="a_node18"><a xlink:href="../../d5/dab/smart__protocol_8h.html" target="_top" xlink:title=" ">
<polygon fill="white" stroke="black" points="877.89,-168.5 877.89,-187.5 966.89,-187.5 966.89,-168.5 877.89,-168.5"/>
<text text-anchor="middle" x="922.39" y="-175.5" font-family="Helvetica,sans-Serif" font-size="10.00">smart_protocol.h</text>
</a>
</g>
</g>
<!-- Node1&#45;&gt;Node18 -->
<g id="edge60" class="edge">
<title>Node1&#45;&gt;Node18</title>
<path fill="none" stroke="midnightblue" d="M581.27,-343.57C679.15,-339.64 925.08,-327.14 949.39,-300 978.83,-267.13 943.81,-209.31 928.69,-187.58"/>
<polygon fill="midnightblue" stroke="midnightblue" points="581.03,-340.07 571.18,-343.96 581.31,-347.07 581.03,-340.07"/>
</g>
<!-- Node25 -->
<g id="node25" class="node">
<title>Node25</title>
<g id="a_node25"><a xlink:href="../../dc/d27/registry_8h.html" target="_top" xlink:title=" ">
<polygon fill="white" stroke="black" points="126.39,-168.5 126.39,-187.5 182.39,-187.5 182.39,-168.5 126.39,-168.5"/>
<text text-anchor="middle" x="154.39" y="-175.5" font-family="Helvetica,sans-Serif" font-size="10.00">registry.h</text>
</a>
</g>
</g>
<!-- Node1&#45;&gt;Node25 -->
<g id="edge63" class="edge">
<title>Node1&#45;&gt;Node25</title>
<path fill="none" stroke="midnightblue" d="M501.38,-339.05C462.74,-332.45 403.09,-320.02 354.39,-300 277.45,-268.36 195.49,-209.8 165.88,-187.73"/>
<polygon fill="midnightblue" stroke="midnightblue" points="501.25,-342.57 511.69,-340.75 502.4,-335.67 501.25,-342.57"/>
</g>
<!-- Node30 -->
<g id="node30" class="node">
<title>Node30</title>
<g id="a_node30"><a xlink:href="../../d0/dd3/protobuf__schema_8h.html" target="_top" xlink:title=" ">
<polygon fill="white" stroke="black" points="16.89,-112.5 16.89,-131.5 115.89,-131.5 115.89,-112.5 16.89,-112.5"/>
<text text-anchor="middle" x="66.39" y="-119.5" font-family="Helvetica,sans-Serif" font-size="10.00">protobuf_schema.h</text>
</a>
</g>
</g>
<!-- Node1&#45;&gt;Node30 -->
<g id="edge54" class="edge">
<title>Node1&#45;&gt;Node30</title>
<path fill="none" stroke="midnightblue" d="M501.62,-342.14C426.05,-336.27 264.68,-321.6 213.39,-300 133.51,-266.35 83.43,-162.57 70.03,-131.73"/>
<polygon fill="midnightblue" stroke="midnightblue" points="501.46,-345.63 511.69,-342.91 501.99,-338.65 501.46,-345.63"/>
</g>
<!-- Node31 -->
<g id="node31" class="node">
<title>Node31</title>
<g id="a_node31"><a xlink:href="../../de/d82/schema_8cc.html" target="_top" xlink:title=" ">
<polygon fill="white" stroke="black" points="1115.39,-280.5 1115.39,-299.5 1179.39,-299.5 1179.39,-280.5 1115.39,-280.5"/>
<text text-anchor="middle" x="1147.39" y="-287.5" font-family="Helvetica,sans-Serif" font-size="10.00">schema.cc</text>
</a>
</g>
</g>
<!-- Node1&#45;&gt;Node31 -->
<g id="edge61" class="edge">
<title>Node1&#45;&gt;Node31</title>
<path fill="none" stroke="midnightblue" d="M581.21,-343.35C673.19,-339.2 907.37,-326.69 1101.39,-300 1105.91,-299.38 1110.65,-298.6 1115.3,-297.76"/>
<polygon fill="midnightblue" stroke="midnightblue" points="580.8,-339.86 570.97,-343.8 581.11,-346.86 580.8,-339.86"/>
</g>
<!-- Node2&#45;&gt;Node3 -->
<g id="edge2" class="edge">
<title>Node2&#45;&gt;Node3</title>
<path fill="none" stroke="midnightblue" d="M538.82,-280.48C499.76,-269.93 433.95,-252.16 397.22,-242.24"/>
<polygon fill="midnightblue" stroke="midnightblue" points="538.04,-283.89 548.61,-283.12 539.87,-277.13 538.04,-283.89"/>
</g>
<!-- Node2&#45;&gt;Node9 -->
<g id="edge49" class="edge">
<title>Node2&#45;&gt;Node9</title>
<path fill="none" stroke="midnightblue" d="M538.23,-287.43C508.38,-284.06 465.49,-273.93 444.39,-244 439.27,-236.73 442.81,-232.75 444.39,-224 453.88,-171.69 448.2,-148.98 486.39,-112 494.06,-104.58 553.39,-86.28 590.18,-75.44"/>
<polygon fill="midnightblue" stroke="midnightblue" points="538.29,-290.95 548.57,-288.39 538.93,-283.98 538.29,-290.95"/>
</g>
<!-- Node2&#45;&gt;Node12 -->
<g id="edge41" class="edge">
<title>Node2&#45;&gt;Node12</title>
<path fill="none" stroke="midnightblue" d="M538.6,-287.22C492.08,-283.68 403.49,-273.36 334.39,-244 300.74,-229.7 267.16,-201.61 251.51,-187.5"/>
<polygon fill="midnightblue" stroke="midnightblue" points="538.45,-290.72 548.68,-287.93 538.95,-283.73 538.45,-290.72"/>
</g>
<!-- Node2&#45;&gt;Node14 -->
<g id="edge42" class="edge">
<title>Node2&#45;&gt;Node14</title>
<path fill="none" stroke="midnightblue" d="M602.1,-287.35C676.64,-283.08 860.9,-270.14 916.39,-244 949.39,-228.46 961.86,-221.45 976.39,-188 993.32,-149.05 980.42,-96.23 974.23,-75.68"/>
<polygon fill="midnightblue" stroke="midnightblue" points="601.72,-283.87 591.93,-287.92 602.11,-290.86 601.72,-283.87"/>
</g>
<!-- Node17 -->
<g id="node17" class="node">
<title>Node17</title>
<g id="a_node17"><a xlink:href="../../d8/dd3/bind__data_8cc.html" target="_top" xlink:title=" ">
<polygon fill="white" stroke="black" points="494.89,-112.5 494.89,-131.5 565.89,-131.5 565.89,-112.5 494.89,-112.5"/>
<text text-anchor="middle" x="530.39" y="-119.5" font-family="Helvetica,sans-Serif" font-size="10.00">bind_data.cc</text>
</a>
</g>
</g>
<!-- Node2&#45;&gt;Node17 -->
<g id="edge48" class="edge">
<title>Node2&#45;&gt;Node17</title>
<path fill="none" stroke="midnightblue" d="M577.01,-270.38C580.75,-257.3 584.01,-239.46 580.39,-224 571.79,-187.23 547.74,-148.5 536.42,-131.66"/>
<polygon fill="midnightblue" stroke="midnightblue" points="573.62,-269.49 573.9,-280.09 580.29,-271.63 573.62,-269.49"/>
</g>
<!-- Node19 -->
<g id="node19" class="node">
<title>Node19</title>
<g id="a_node19"><a xlink:href="../../d1/d77/node_8h.html" target="_top" xlink:title=" ">
<polygon fill="white" stroke="black" points="1061.89,-112.5 1061.89,-131.5 1106.89,-131.5 1106.89,-112.5 1061.89,-112.5"/>
<text text-anchor="middle" x="1084.39" y="-119.5" font-family="Helvetica,sans-Serif" font-size="10.00">node.h</text>
</a>
</g>
</g>
<!-- Node2&#45;&gt;Node19 -->
<g id="edge43" class="edge">
<title>Node2&#45;&gt;Node19</title>
<path fill="none" stroke="midnightblue" d="M602.05,-288.68C687.52,-287.34 921.03,-280.37 987.39,-244 1036.27,-217.22 1069.52,-154.63 1080.46,-131.66"/>
<polygon fill="midnightblue" stroke="midnightblue" points="601.86,-285.18 591.91,-288.83 601.96,-292.18 601.86,-285.18"/>
</g>
<!-- Node2&#45;&gt;Node25 -->
<g id="edge50" class="edge">
<title>Node2&#45;&gt;Node25</title>
<path fill="none" stroke="midnightblue" d="M538.29,-286.57C486.31,-282.01 380.9,-270.18 295.39,-244 247.45,-229.32 194.74,-201.66 169.5,-187.63"/>
<polygon fill="midnightblue" stroke="midnightblue" points="538.29,-290.08 548.55,-287.43 538.88,-283.11 538.29,-290.08"/>
</g>
<!-- Node26 -->
<g id="node26" class="node">
<title>Node26</title>
<g id="a_node26"><a xlink:href="../../d0/dd2/digital__signature_8cc.html" target="_top" xlink:title=" ">
<polygon fill="white" stroke="black" points="807.39,-224.5 807.39,-243.5 907.39,-243.5 907.39,-224.5 807.39,-224.5"/>
<text text-anchor="middle" x="857.39" y="-231.5" font-family="Helvetica,sans-Serif" font-size="10.00">digital_signature.cc</text>
</a>
</g>
</g>
<!-- Node2&#45;&gt;Node26 -->
<g id="edge44" class="edge">
<title>Node2&#45;&gt;Node26</title>
<path fill="none" stroke="midnightblue" d="M602.07,-283.04C653.09,-273.44 753.66,-254.52 812.2,-243.5"/>
<polygon fill="midnightblue" stroke="midnightblue" points="601.15,-279.65 591.97,-284.94 602.44,-286.53 601.15,-279.65"/>
</g>
<!-- Node27 -->
<g id="node27" class="node">
<title>Node27</title>
<g id="a_node27"><a xlink:href="../../d8/d0d/hash__transformation_8cc.html" target="_top" xlink:title=" ">
<polygon fill="white" stroke="black" points="453.39,-224.5 453.39,-243.5 571.39,-243.5 571.39,-224.5 453.39,-224.5"/>
<text text-anchor="middle" x="512.39" y="-231.5" font-family="Helvetica,sans-Serif" font-size="10.00">hash_transformation.cc</text>
</a>
</g>
</g>
<!-- Node2&#45;&gt;Node27 -->
<g id="edge45" class="edge">
<title>Node2&#45;&gt;Node27</title>
<path fill="none" stroke="midnightblue" d="M553.48,-273.25C543.19,-263.67 530.43,-251.79 521.88,-243.83"/>
<polygon fill="midnightblue" stroke="midnightblue" points="551.37,-276.07 561.08,-280.32 556.14,-270.95 551.37,-276.07"/>
</g>
<!-- Node28 -->
<g id="node28" class="node">
<title>Node28</title>
<g id="a_node28"><a xlink:href="../../dd/ded/secure__random_8cc.html" target="_top" xlink:title=" ">
<polygon fill="white" stroke="black" points="627.39,-224.5 627.39,-243.5 723.39,-243.5 723.39,-224.5 627.39,-224.5"/>
<text text-anchor="middle" x="675.39" y="-231.5" font-family="Helvetica,sans-Serif" font-size="10.00">secure_random.cc</text>
</a>
</g>
</g>
<!-- Node2&#45;&gt;Node28 -->
<g id="edge46" class="edge">
<title>Node2&#45;&gt;Node28</title>
<path fill="none" stroke="midnightblue" d="M596.2,-275.73C615.65,-265.73 641.74,-252.31 658.57,-243.65"/>
<polygon fill="midnightblue" stroke="midnightblue" points="594.56,-272.64 587.26,-280.32 597.76,-278.86 594.56,-272.64"/>
</g>
<!-- Node29 -->
<g id="node29" class="node">
<title>Node29</title>
<g id="a_node29"><a xlink:href="../../de/d80/msg_8cc.html" target="_top" xlink:title=" ">
<polygon fill="white" stroke="black" points="741.39,-224.5 741.39,-243.5 789.39,-243.5 789.39,-224.5 741.39,-224.5"/>
<text text-anchor="middle" x="765.39" y="-231.5" font-family="Helvetica,sans-Serif" font-size="10.00">msg.cc</text>
</a>
</g>
</g>
<!-- Node2&#45;&gt;Node29 -->
<g id="edge47" class="edge">
<title>Node2&#45;&gt;Node29</title>
<path fill="none" stroke="midnightblue" d="M601.75,-280.32C640.63,-269.55 706.05,-251.43 741.25,-241.69"/>
<polygon fill="midnightblue" stroke="midnightblue" points="600.71,-276.97 592.01,-283.01 602.58,-283.72 600.71,-276.97"/>
</g>
<!-- Node4 -->
<g id="node4" class="node">
<title>Node4</title>
<g id="a_node4"><a xlink:href="../../dd/de7/core_8cc.html" target="_top" xlink:title=" ">
<polygon fill="white" stroke="black" points="845.39,-0.5 845.39,-19.5 893.39,-19.5 893.39,-0.5 845.39,-0.5"/>
<text text-anchor="middle" x="869.39" y="-7.5" font-family="Helvetica,sans-Serif" font-size="10.00">core.cc</text>
</a>
</g>
</g>
<!-- Node3&#45;&gt;Node4 -->
<g id="edge3" class="edge">
<title>Node3&#45;&gt;Node4</title>
<path fill="none" stroke="midnightblue" d="M407.3,-228.45C498.37,-217.2 726.63,-188.95 728.39,-188 803.23,-147.98 852.16,-49.49 865.62,-19.68"/>
<polygon fill="midnightblue" stroke="midnightblue" points="406.64,-225 397.15,-229.7 407.5,-231.95 406.64,-225"/>
</g>
<!-- Node3&#45;&gt;Node5 -->
<g id="edge4" class="edge">
<title>Node3&#45;&gt;Node5</title>
<path fill="none" stroke="midnightblue" d="M354.18,-217.09C346.52,-208.93 337.7,-198.5 331.39,-188 320.19,-169.34 312.38,-144.79 308.73,-131.85"/>
<polygon fill="midnightblue" stroke="midnightblue" points="351.84,-219.7 361.32,-224.42 356.85,-214.81 351.84,-219.7"/>
</g>
<!-- Node3&#45;&gt;Node9 -->
<g id="edge38" class="edge">
<title>Node3&#45;&gt;Node9</title>
<path fill="none" stroke="midnightblue" d="M385.66,-216.98C393.23,-208.66 402.24,-198.14 409.39,-188 431.77,-156.29 421.72,-135.78 452.39,-112 457.93,-107.71 544.03,-85.79 590.37,-74.2"/>
<polygon fill="midnightblue" stroke="midnightblue" points="382.95,-214.75 378.71,-224.46 388.08,-219.52 382.95,-214.75"/>
</g>
<!-- Node3&#45;&gt;Node12 -->
<g id="edge12" class="edge">
<title>Node3&#45;&gt;Node12</title>
<path fill="none" stroke="midnightblue" d="M340.77,-220.5C316.78,-210.38 283.61,-196.39 262.58,-187.52"/>
<polygon fill="midnightblue" stroke="midnightblue" points="339.54,-223.78 350.11,-224.44 342.26,-217.33 339.54,-223.78"/>
</g>
<!-- Node13 -->
<g id="node13" class="node">
<title>Node13</title>
<g id="a_node13"><a xlink:href="../../d1/d55/engine_8h.html" target="_top" xlink:title=" ">
<polygon fill="white" stroke="black" points="665.89,-168.5 665.89,-187.5 718.89,-187.5 718.89,-168.5 665.89,-168.5"/>
<text text-anchor="middle" x="692.39" y="-175.5" font-family="Helvetica,sans-Serif" font-size="10.00">engine.h</text>
</a>
</g>
</g>
<!-- Node3&#45;&gt;Node13 -->
<g id="edge16" class="edge">
<title>Node3&#45;&gt;Node13</title>
<path fill="none" stroke="midnightblue" d="M406.9,-226.88C472.35,-215.9 608.21,-193.12 665.74,-183.47"/>
<polygon fill="midnightblue" stroke="midnightblue" points="406.3,-223.43 397.02,-228.54 407.46,-230.33 406.3,-223.43"/>
</g>
<!-- Node3&#45;&gt;Node17 -->
<g id="edge37" class="edge">
<title>Node3&#45;&gt;Node17</title>
<path fill="none" stroke="midnightblue" d="M393.63,-219.11C407.88,-210.43 426.4,-198.88 442.39,-188 470.66,-168.77 502.68,-144.45 519.21,-131.7"/>
<polygon fill="midnightblue" stroke="midnightblue" points="391.69,-216.19 384.95,-224.36 395.32,-222.18 391.69,-216.19"/>
</g>
<!-- Node3&#45;&gt;Node18 -->
<g id="edge24" class="edge">
<title>Node3&#45;&gt;Node18</title>
<path fill="none" stroke="midnightblue" d="M407.12,-228.33C419.01,-226.88 432.25,-225.31 444.39,-224 465.76,-221.7 762.97,-193.9 877.67,-183.18"/>
<polygon fill="midnightblue" stroke="midnightblue" points="406.58,-224.87 397.09,-229.58 407.44,-231.82 406.58,-224.87"/>
</g>
<!-- Node24 -->
<g id="node24" class="node">
<title>Node24</title>
<g id="a_node24"><a xlink:href="../../d1/d4e/factory_8cc.html" target="_top" xlink:title=" ">
<polygon fill="white" stroke="black" points="340.89,-168.5 340.89,-187.5 399.89,-187.5 399.89,-168.5 340.89,-168.5"/>
<text text-anchor="middle" x="370.39" y="-175.5" font-family="Helvetica,sans-Serif" font-size="10.00">factory.cc</text>
</a>
</g>
</g>
<!-- Node3&#45;&gt;Node24 -->
<g id="edge36" class="edge">
<title>Node3&#45;&gt;Node24</title>
<path fill="none" stroke="midnightblue" d="M370.39,-213.8C370.39,-204.91 370.39,-194.78 370.39,-187.75"/>
<polygon fill="midnightblue" stroke="midnightblue" points="366.89,-214.08 370.39,-224.08 373.89,-214.08 366.89,-214.08"/>
</g>
<!-- Node3&#45;&gt;Node25 -->
<g id="edge39" class="edge">
<title>Node3&#45;&gt;Node25</title>
<path fill="none" stroke="midnightblue" d="M333.75,-223.84C291.06,-213.17 221.43,-195.76 182.68,-186.07"/>
<polygon fill="midnightblue" stroke="midnightblue" points="332.92,-227.24 343.47,-226.27 334.62,-220.45 332.92,-227.24"/>
</g>
<!-- Node5&#45;&gt;Node4 -->
<g id="edge5" class="edge">
<title>Node5&#45;&gt;Node4</title>
<path fill="none" stroke="midnightblue" d="M344.29,-109.44C370.51,-101.07 406.01,-88.97 436.39,-76 454.31,-68.35 456.75,-61.64 475.39,-56 610.81,-15.03 782.71,-10.84 845.26,-10.78"/>
<polygon fill="midnightblue" stroke="midnightblue" points="343.2,-106.11 334.72,-112.46 345.31,-112.79 343.2,-106.11"/>
</g>
<!-- Node6 -->
<g id="node6" class="node">
<title>Node6</title>
<g id="a_node6"><a xlink:href="../../d0/dcc/protobuf__factory_8cc.html" target="_top" xlink:title=" ">
<polygon fill="white" stroke="black" points="136.89,-56.5 136.89,-75.5 235.89,-75.5 235.89,-56.5 136.89,-56.5"/>
<text text-anchor="middle" x="186.39" y="-63.5" font-family="Helvetica,sans-Serif" font-size="10.00">protobuf_factory.cc</text>
</a>
</g>
</g>
<!-- Node5&#45;&gt;Node6 -->
<g id="edge6" class="edge">
<title>Node5&#45;&gt;Node6</title>
<path fill="none" stroke="midnightblue" d="M278.02,-108.23C255.57,-98.13 224.86,-84.31 205.32,-75.52"/>
<polygon fill="midnightblue" stroke="midnightblue" points="276.82,-111.53 287.38,-112.44 279.7,-105.15 276.82,-111.53"/>
</g>
<!-- Node7 -->
<g id="node7" class="node">
<title>Node7</title>
<g id="a_node7"><a xlink:href="../../da/d58/protobuf__msg_8cc.html" target="_top" xlink:title=" ">
<polygon fill="white" stroke="black" points="483.89,-56.5 483.89,-75.5 572.89,-75.5 572.89,-56.5 483.89,-56.5"/>
<text text-anchor="middle" x="528.39" y="-63.5" font-family="Helvetica,sans-Serif" font-size="10.00">protobuf_msg.cc</text>
</a>
</g>
</g>
<!-- Node5&#45;&gt;Node7 -->
<g id="edge7" class="edge">
<title>Node5&#45;&gt;Node7</title>
<path fill="none" stroke="midnightblue" d="M351.52,-110.02C393.45,-99.82 455.05,-84.84 493.38,-75.52"/>
<polygon fill="midnightblue" stroke="midnightblue" points="350.46,-106.68 341.57,-112.44 352.11,-113.48 350.46,-106.68"/>
</g>
<!-- Node8 -->
<g id="node8" class="node">
<title>Node8</title>
<g id="a_node8"><a xlink:href="../../dc/d05/protobuf__schema_8cc.html" target="_top" xlink:title=" ">
<polygon fill="white" stroke="black" points="14.39,-56.5 14.39,-75.5 118.39,-75.5 118.39,-56.5 14.39,-56.5"/>
<text text-anchor="middle" x="66.39" y="-63.5" font-family="Helvetica,sans-Serif" font-size="10.00">protobuf_schema.cc</text>
</a>
</g>
</g>
<!-- Node5&#45;&gt;Node8 -->
<g id="edge8" class="edge">
<title>Node5&#45;&gt;Node8</title>
<path fill="none" stroke="midnightblue" d="M258.47,-110.22C213.12,-100.01 145.95,-84.9 104.24,-75.52"/>
<polygon fill="midnightblue" stroke="midnightblue" points="257.84,-113.66 268.37,-112.44 259.38,-106.83 257.84,-113.66"/>
</g>
<!-- Node5&#45;&gt;Node9 -->
<g id="edge9" class="edge">
<title>Node5&#45;&gt;Node9</title>
<path fill="none" stroke="midnightblue" d="M363.55,-112.99C419.53,-104.84 507.14,-91.26 582.39,-76 584.99,-75.47 587.67,-74.89 590.36,-74.29"/>
<polygon fill="midnightblue" stroke="midnightblue" points="362.87,-109.55 353.48,-114.45 363.87,-116.48 362.87,-109.55"/>
</g>
<!-- Node10 -->
<g id="node10" class="node">
<title>Node10</title>
<g id="a_node10"><a xlink:href="../../d5/d9f/registry_8cc.html" target="_top" xlink:title=" ">
<polygon fill="white" stroke="black" points="253.89,-56.5 253.89,-75.5 314.89,-75.5 314.89,-56.5 253.89,-56.5"/>
<text text-anchor="middle" x="284.39" y="-63.5" font-family="Helvetica,sans-Serif" font-size="10.00">registry.cc</text>
</a>
</g>
</g>
<!-- Node5&#45;&gt;Node10 -->
<g id="edge10" class="edge">
<title>Node5&#45;&gt;Node10</title>
<path fill="none" stroke="midnightblue" d="M298.93,-102.69C295.23,-93.59 290.92,-83.01 287.96,-75.75"/>
<polygon fill="midnightblue" stroke="midnightblue" points="295.75,-104.14 302.76,-112.08 302.23,-101.5 295.75,-104.14"/>
</g>
<!-- Node11 -->
<g id="node11" class="node">
<title>Node11</title>
<g id="a_node11"><a xlink:href="../../d0/dee/smart__protocol_8cc.html" target="_top" xlink:title=" ">
<polygon fill="white" stroke="black" points="333.39,-56.5 333.39,-75.5 427.39,-75.5 427.39,-56.5 333.39,-56.5"/>
<text text-anchor="middle" x="380.39" y="-63.5" font-family="Helvetica,sans-Serif" font-size="10.00">smart_protocol.cc</text>
</a>
</g>
</g>
<!-- Node5&#45;&gt;Node11 -->
<g id="edge11" class="edge">
<title>Node5&#45;&gt;Node11</title>
<path fill="none" stroke="midnightblue" d="M326.43,-106.38C339.8,-96.62 356.95,-84.11 368.29,-75.83"/>
<polygon fill="midnightblue" stroke="midnightblue" points="324.3,-103.6 318.28,-112.32 328.42,-109.26 324.3,-103.6"/>
</g>
<!-- Node12&#45;&gt;Node5 -->
<g id="edge13" class="edge">
<title>Node12&#45;&gt;Node5</title>
<path fill="none" stroke="midnightblue" d="M260.39,-161.82C271.85,-152.15 286.31,-139.95 295.92,-131.83"/>
<polygon fill="midnightblue" stroke="midnightblue" points="258.06,-159.2 252.68,-168.32 262.58,-164.55 258.06,-159.2"/>
</g>
<!-- Node12&#45;&gt;Node6 -->
<g id="edge14" class="edge">
<title>Node12&#45;&gt;Node6</title>
<path fill="none" stroke="midnightblue" d="M233.39,-159.32C221.2,-135.37 199.91,-93.55 190.77,-75.59"/>
<polygon fill="midnightblue" stroke="midnightblue" points="230.34,-161.04 238,-168.37 236.58,-157.87 230.34,-161.04"/>
</g>
<!-- Node12&#45;&gt;Node7 -->
<g id="edge15" class="edge">
<title>Node12&#45;&gt;Node7</title>
<path fill="none" stroke="midnightblue" d="M274.84,-164.98C299.02,-155.98 332.81,-143.34 362.39,-132 414.41,-112.06 475.35,-88.03 506.94,-75.51"/>
<polygon fill="midnightblue" stroke="midnightblue" points="273.59,-161.71 265.44,-168.47 276.03,-168.27 273.59,-161.71"/>
</g>
<!-- Node13&#45;&gt;Node4 -->
<g id="edge20" class="edge">
<title>Node13&#45;&gt;Node4</title>
<path fill="none" stroke="midnightblue" d="M709.36,-161.09C746.12,-126.62 832.07,-46.01 860.26,-19.57"/>
<polygon fill="midnightblue" stroke="midnightblue" points="706.81,-158.68 701.91,-168.08 711.6,-163.79 706.81,-158.68"/>
</g>
<!-- Node13&#45;&gt;Node9 -->
<g id="edge23" class="edge">
<title>Node13&#45;&gt;Node9</title>
<path fill="none" stroke="midnightblue" d="M689.53,-158.19C686.78,-144.52 681.63,-126.02 672.39,-112 662.3,-96.68 645.51,-83.69 633.53,-75.66"/>
<polygon fill="midnightblue" stroke="midnightblue" points="686.13,-159.1 691.31,-168.34 693.03,-157.89 686.13,-159.1"/>
</g>
<!-- Node13&#45;&gt;Node14 -->
<g id="edge17" class="edge">
<title>Node13&#45;&gt;Node14</title>
<path fill="none" stroke="midnightblue" d="M728,-165.06C753.58,-156.32 788.81,-143.94 819.39,-132 867.78,-113.1 923.73,-88.43 952.36,-75.6"/>
<polygon fill="midnightblue" stroke="midnightblue" points="726.7,-161.81 718.35,-168.34 728.95,-168.44 726.7,-161.81"/>
</g>
<!-- Node16 -->
<g id="node16" class="node">
<title>Node16</title>
<g id="a_node16"><a xlink:href="../../df/de4/bind__crypto_8cc.html" target="_top" xlink:title=" ">
<polygon fill="white" stroke="black" points="583.89,-112.5 583.89,-131.5 662.89,-131.5 662.89,-112.5 583.89,-112.5"/>
<text text-anchor="middle" x="623.39" y="-119.5" font-family="Helvetica,sans-Serif" font-size="10.00">bind_crypto.cc</text>
</a>
</g>
</g>
<!-- Node13&#45;&gt;Node16 -->
<g id="edge21" class="edge">
<title>Node13&#45;&gt;Node16</title>
<path fill="none" stroke="midnightblue" d="M673.36,-162.1C660.94,-152.38 645.15,-140.03 634.68,-131.83"/>
<polygon fill="midnightblue" stroke="midnightblue" points="671.28,-164.92 681.31,-168.32 675.59,-159.4 671.28,-164.92"/>
</g>
<!-- Node13&#45;&gt;Node17 -->
<g id="edge22" class="edge">
<title>Node13&#45;&gt;Node17</title>
<path fill="none" stroke="midnightblue" d="M656.91,-165.17C626.41,-155 583.15,-140.59 555.94,-131.52"/>
<polygon fill="midnightblue" stroke="midnightblue" points="656.13,-168.6 666.72,-168.44 658.34,-161.96 656.13,-168.6"/>
</g>
<!-- Node14&#45;&gt;Node4 -->
<g id="edge18" class="edge">
<title>Node14&#45;&gt;Node4</title>
<path fill="none" stroke="midnightblue" d="M946.06,-51.59C927.2,-41.61 902.01,-28.27 885.74,-19.65"/>
<polygon fill="midnightblue" stroke="midnightblue" points="944.53,-54.74 955.01,-56.32 947.81,-48.55 944.53,-54.74"/>
</g>
<!-- Node15 -->
<g id="node15" class="node">
<title>Node15</title>
<g id="a_node15"><a xlink:href="../../db/d7e/lua__node_8cc.html" target="_top" xlink:title=" ">
<polygon fill="white" stroke="black" points="937.39,-0.5 937.39,-19.5 1005.39,-19.5 1005.39,-0.5 937.39,-0.5"/>
<text text-anchor="middle" x="971.39" y="-7.5" font-family="Helvetica,sans-Serif" font-size="10.00">lua_node.cc</text>
</a>
</g>
</g>
<!-- Node14&#45;&gt;Node15 -->
<g id="edge19" class="edge">
<title>Node14&#45;&gt;Node15</title>
<path fill="none" stroke="midnightblue" d="M971.39,-45.8C971.39,-36.91 971.39,-26.78 971.39,-19.75"/>
<polygon fill="midnightblue" stroke="midnightblue" points="967.89,-46.08 971.39,-56.08 974.89,-46.08 967.89,-46.08"/>
</g>
<!-- Node18&#45;&gt;Node4 -->
<g id="edge34" class="edge">
<title>Node18&#45;&gt;Node4</title>
<path fill="none" stroke="midnightblue" d="M916.45,-158.39C905.02,-122.59 880.36,-45.34 872.13,-19.57"/>
<polygon fill="midnightblue" stroke="midnightblue" points="913.17,-159.61 919.54,-168.08 919.84,-157.48 913.17,-159.61"/>
</g>
<!-- Node18&#45;&gt;Node11 -->
<g id="edge35" class="edge">
<title>Node18&#45;&gt;Node11</title>
<path fill="none" stroke="midnightblue" d="M883.52,-165.58C834.6,-151.52 747.84,-127.58 672.39,-112 586.62,-94.29 485.36,-80.18 427.44,-72.75"/>
<polygon fill="midnightblue" stroke="midnightblue" points="882.79,-169.01 893.37,-168.43 884.73,-162.29 882.79,-169.01"/>
</g>
<!-- Node18&#45;&gt;Node14 -->
<g id="edge25" class="edge">
<title>Node18&#45;&gt;Node14</title>
<path fill="none" stroke="midnightblue" d="M930.41,-159C941.1,-135 959.6,-93.47 967.57,-75.59"/>
<polygon fill="midnightblue" stroke="midnightblue" points="927.11,-157.81 926.24,-168.37 933.51,-160.66 927.11,-157.81"/>
</g>
<!-- Node18&#45;&gt;Node19 -->
<g id="edge26" class="edge">
<title>Node18&#45;&gt;Node19</title>
<path fill="none" stroke="midnightblue" d="M957.8,-165.2C989.41,-154.66 1034.75,-139.55 1061.72,-130.56"/>
<polygon fill="midnightblue" stroke="midnightblue" points="956.44,-161.96 948.06,-168.44 958.66,-168.6 956.44,-161.96"/>
</g>
<!-- Node19&#45;&gt;Node4 -->
<g id="edge31" class="edge">
<title>Node19&#45;&gt;Node4</title>
<path fill="none" stroke="midnightblue" d="M1069.88,-104.35C1056.34,-89.73 1034.88,-68.86 1012.39,-56 973.76,-33.9 922.94,-21.25 893.44,-15.28"/>
<polygon fill="midnightblue" stroke="midnightblue" points="1067.6,-107.04 1076.89,-112.12 1072.8,-102.35 1067.6,-107.04"/>
</g>
<!-- Node19&#45;&gt;Node14 -->
<g id="edge27" class="edge">
<title>Node19&#45;&gt;Node14</title>
<path fill="none" stroke="midnightblue" d="M1057.39,-108.1C1036.28,-98.01 1007.53,-84.27 989.22,-75.52"/>
<polygon fill="midnightblue" stroke="midnightblue" points="1055.96,-111.29 1066.49,-112.44 1058.98,-104.97 1055.96,-111.29"/>
</g>
<!-- Node20 -->
<g id="node20" class="node">
<title>Node20</title>
<g id="a_node20"><a xlink:href="../../dc/d32/node__updater_8h.html" target="_top" xlink:title=" ">
<polygon fill="white" stroke="black" points="1204.89,-56.5 1204.89,-75.5 1287.89,-75.5 1287.89,-56.5 1204.89,-56.5"/>
<text text-anchor="middle" x="1246.39" y="-63.5" font-family="Helvetica,sans-Serif" font-size="10.00">node_updater.h</text>
</a>
</g>
</g>
<!-- Node19&#45;&gt;Node20 -->
<g id="edge28" class="edge">
<title>Node19&#45;&gt;Node20</title>
<path fill="none" stroke="midnightblue" d="M1116.69,-110.23C1147.31,-100.03 1192.69,-84.9 1220.86,-75.51"/>
<polygon fill="midnightblue" stroke="midnightblue" points="1115.3,-107.01 1106.92,-113.49 1117.51,-113.65 1115.3,-107.01"/>
</g>
<!-- Node22 -->
<g id="node22" class="node">
<title>Node22</title>
<g id="a_node22"><a xlink:href="../../dc/dfd/node_8cc.html" target="_top" xlink:title=" ">
<polygon fill="white" stroke="black" points="1059.39,-56.5 1059.39,-75.5 1109.39,-75.5 1109.39,-56.5 1059.39,-56.5"/>
<text text-anchor="middle" x="1084.39" y="-63.5" font-family="Helvetica,sans-Serif" font-size="10.00">node.cc</text>
</a>
</g>
</g>
<!-- Node19&#45;&gt;Node22 -->
<g id="edge32" class="edge">
<title>Node19&#45;&gt;Node22</title>
<path fill="none" stroke="midnightblue" d="M1084.39,-101.8C1084.39,-92.91 1084.39,-82.78 1084.39,-75.75"/>
<polygon fill="midnightblue" stroke="midnightblue" points="1080.89,-102.08 1084.39,-112.08 1087.89,-102.08 1080.89,-102.08"/>
</g>
<!-- Node23 -->
<g id="node23" class="node">
<title>Node23</title>
<g id="a_node23"><a xlink:href="../../df/dd2/testnet_8cc.html" target="_top" xlink:title=" ">
<polygon fill="white" stroke="black" points="1127.89,-56.5 1127.89,-75.5 1186.89,-75.5 1186.89,-56.5 1127.89,-56.5"/>
<text text-anchor="middle" x="1157.39" y="-63.5" font-family="Helvetica,sans-Serif" font-size="10.00">testnet.cc</text>
</a>
</g>
</g>
<!-- Node19&#45;&gt;Node23 -->
<g id="edge33" class="edge">
<title>Node19&#45;&gt;Node23</title>
<path fill="none" stroke="midnightblue" d="M1104.54,-106.1C1117.67,-96.38 1134.38,-84.03 1145.45,-75.83"/>
<polygon fill="midnightblue" stroke="midnightblue" points="1102.08,-103.56 1096.12,-112.32 1106.24,-109.19 1102.08,-103.56"/>
</g>
<!-- Node20&#45;&gt;Node4 -->
<g id="edge29" class="edge">
<title>Node20&#45;&gt;Node4</title>
<path fill="none" stroke="midnightblue" d="M1194.47,-55.75C1075.94,-37.32 1044.1,-36.6 928.39,-20 916.91,-18.35 904.18,-16.42 893.49,-14.78"/>
<polygon fill="midnightblue" stroke="midnightblue" points="1194.25,-59.26 1204.68,-57.35 1195.34,-52.34 1194.25,-59.26"/>
</g>
<!-- Node21 -->
<g id="node21" class="node">
<title>Node21</title>
<g id="a_node21"><a xlink:href="../../d1/d13/node__updater_8cc.html" target="_top" xlink:title=" ">
<polygon fill="white" stroke="black" points="1202.39,-0.5 1202.39,-19.5 1290.39,-19.5 1290.39,-0.5 1202.39,-0.5"/>
<text text-anchor="middle" x="1246.39" y="-7.5" font-family="Helvetica,sans-Serif" font-size="10.00">node_updater.cc</text>
</a>
</g>
</g>
<!-- Node20&#45;&gt;Node21 -->
<g id="edge30" class="edge">
<title>Node20&#45;&gt;Node21</title>
<path fill="none" stroke="midnightblue" d="M1246.39,-45.8C1246.39,-36.91 1246.39,-26.78 1246.39,-19.75"/>
<polygon fill="midnightblue" stroke="midnightblue" points="1242.89,-46.08 1246.39,-56.08 1249.89,-46.08 1242.89,-46.08"/>
</g>
<!-- Node25&#45;&gt;Node10 -->
<g id="edge40" class="edge">
<title>Node25&#45;&gt;Node10</title>
<path fill="none" stroke="midnightblue" d="M172.34,-161.82C200.03,-138.39 252.26,-94.19 274.24,-75.59"/>
<polygon fill="midnightblue" stroke="midnightblue" points="169.97,-159.24 164.59,-168.37 174.49,-164.58 169.97,-159.24"/>
</g>
<!-- Node30&#45;&gt;Node4 -->
<g id="edge55" class="edge">
<title>Node30&#45;&gt;Node4</title>
<path fill="none" stroke="midnightblue" d="M39.03,-107.52C15.75,-94.34 -11.44,-73.74 5.39,-56 35.12,-24.68 708.85,-13.31 845.39,-11.33"/>
<polygon fill="midnightblue" stroke="midnightblue" points="37.52,-110.68 47.98,-112.35 40.84,-104.52 37.52,-110.68"/>
</g>
<!-- Node30&#45;&gt;Node6 -->
<g id="edge56" class="edge">
<title>Node30&#45;&gt;Node6</title>
<path fill="none" stroke="midnightblue" d="M94.77,-108.23C117.21,-98.13 147.93,-84.31 167.47,-75.52"/>
<polygon fill="midnightblue" stroke="midnightblue" points="93.09,-105.15 85.41,-112.44 95.96,-111.53 93.09,-105.15"/>
</g>
<!-- Node30&#45;&gt;Node8 -->
<g id="edge57" class="edge">
<title>Node30&#45;&gt;Node8</title>
<path fill="none" stroke="midnightblue" d="M66.39,-101.8C66.39,-92.91 66.39,-82.78 66.39,-75.75"/>
<polygon fill="midnightblue" stroke="midnightblue" points="62.89,-102.08 66.39,-112.08 69.89,-102.08 62.89,-102.08"/>
</g>
<!-- Node30&#45;&gt;Node11 -->
<g id="edge58" class="edge">
<title>Node30&#45;&gt;Node11</title>
<path fill="none" stroke="midnightblue" d="M126.26,-110.7C186.43,-100.36 277.95,-84.62 333.18,-75.12"/>
<polygon fill="midnightblue" stroke="midnightblue" points="125.41,-107.3 116.15,-112.44 126.6,-114.2 125.41,-107.3"/>
</g>
</g>
</svg>
