<?xml version="1.0" encoding="UTF-8" standalone="no"?>
<!DOCTYPE svg PUBLIC "-//W3C//DTD SVG 1.1//EN"
 "http://www.w3.org/Graphics/SVG/1.1/DTD/svg11.dtd">
<!-- Generated by graphviz version 2.44.0 ()
 -->
<!-- Title: zmq_connection.h Pages: 1 -->
<svg width="399pt" height="285pt"
 viewBox="0.00 0.00 398.93 285.00" xmlns="http://www.w3.org/2000/svg" xmlns:xlink="http://www.w3.org/1999/xlink">
<g id="graph0" class="graph" transform="scale(1 1) rotate(0) translate(4 281)">
<title>zmq_connection.h</title>
<polygon fill="white" stroke="transparent" points="-4,4 -4,-281 394.93,-281 394.93,4 -4,4"/>
<!-- Node1 -->
<g id="node1" class="node">
<title>Node1</title>
<g id="a_node1"><a xlink:title=" ">
<polygon fill="#bfbfbf" stroke="black" points="80.43,-257.5 80.43,-276.5 175.43,-276.5 175.43,-257.5 80.43,-257.5"/>
<text text-anchor="middle" x="127.93" y="-264.5" font-family="Helvetica,sans-Serif" font-size="10.00">zmq_connection.h</text>
</a>
</g>
</g>
<!-- Node2 -->
<g id="node2" class="node">
<title>Node2</title>
<g id="a_node2"><a xlink:href="../../d4/d67/connection_8h.html" target="_top" xlink:title=" ">
<polygon fill="white" stroke="black" points="111.93,-123.5 111.93,-153.5 233.93,-153.5 233.93,-123.5 111.93,-123.5"/>
<text text-anchor="start" x="119.93" y="-141.5" font-family="Helvetica,sans-Serif" font-size="10.00">automaton/core/network</text>
<text text-anchor="middle" x="172.93" y="-130.5" font-family="Helvetica,sans-Serif" font-size="10.00">/connection.h</text>
</a>
</g>
</g>
<!-- Node1&#45;&gt;Node2 -->
<g id="edge1" class="edge">
<title>Node1&#45;&gt;Node2</title>
<path fill="none" stroke="midnightblue" d="M133.92,-257.43C139.79,-248.65 148.62,-234.43 153.93,-221 161.29,-202.38 166.23,-180.19 169.23,-163.67"/>
<polygon fill="midnightblue" stroke="midnightblue" points="172.69,-164.17 170.92,-153.72 165.79,-162.99 172.69,-164.17"/>
</g>
<!-- Node10 -->
<g id="node10" class="node">
<title>Node10</title>
<g id="a_node10"><a xlink:href="../../d1/d31/acceptor_8h.html" target="_top" xlink:title=" ">
<polygon fill="white" stroke="black" points="22.93,-190.5 22.93,-220.5 144.93,-220.5 144.93,-190.5 22.93,-190.5"/>
<text text-anchor="start" x="30.93" y="-208.5" font-family="Helvetica,sans-Serif" font-size="10.00">automaton/core/network</text>
<text text-anchor="middle" x="83.93" y="-197.5" font-family="Helvetica,sans-Serif" font-size="10.00">/acceptor.h</text>
</a>
</g>
</g>
<!-- Node1&#45;&gt;Node10 -->
<g id="edge10" class="edge">
<title>Node1&#45;&gt;Node10</title>
<path fill="none" stroke="midnightblue" d="M121.63,-257.48C116.06,-249.94 107.69,-238.63 100.25,-228.57"/>
<polygon fill="midnightblue" stroke="midnightblue" points="103.06,-226.48 94.3,-220.52 97.43,-230.64 103.06,-226.48"/>
</g>
<!-- Node3 -->
<g id="node3" class="node">
<title>Node3</title>
<g id="a_node3"><a xlink:title=" ">
<polygon fill="white" stroke="#bfbfbf" points="89.43,-62 89.43,-81 124.43,-81 124.43,-62 89.43,-62"/>
<text text-anchor="middle" x="106.93" y="-69" font-family="Helvetica,sans-Serif" font-size="10.00">map</text>
</a>
</g>
</g>
<!-- Node2&#45;&gt;Node3 -->
<g id="edge2" class="edge">
<title>Node2&#45;&gt;Node3</title>
<path fill="none" stroke="midnightblue" d="M158.61,-123.4C148.11,-113.06 133.86,-99.02 122.98,-88.31"/>
<polygon fill="midnightblue" stroke="midnightblue" points="125.34,-85.72 115.76,-81.19 120.43,-90.71 125.34,-85.72"/>
</g>
<!-- Node4 -->
<g id="node4" class="node">
<title>Node4</title>
<g id="a_node4"><a xlink:title=" ">
<polygon fill="white" stroke="#bfbfbf" points="20.43,-62 20.43,-81 71.43,-81 71.43,-62 20.43,-62"/>
<text text-anchor="middle" x="45.93" y="-69" font-family="Helvetica,sans-Serif" font-size="10.00">memory</text>
</a>
</g>
</g>
<!-- Node2&#45;&gt;Node4 -->
<g id="edge3" class="edge">
<title>Node2&#45;&gt;Node4</title>
<path fill="none" stroke="midnightblue" d="M145.37,-123.4C123.48,-112.19 93.1,-96.64 71.69,-85.69"/>
<polygon fill="midnightblue" stroke="midnightblue" points="73.05,-82.45 62.55,-81.01 69.86,-88.68 73.05,-82.45"/>
</g>
<!-- Node5 -->
<g id="node5" class="node">
<title>Node5</title>
<g id="a_node5"><a xlink:title=" ">
<polygon fill="white" stroke="#bfbfbf" points="194.43,-0.5 194.43,-19.5 235.43,-19.5 235.43,-0.5 194.43,-0.5"/>
<text text-anchor="middle" x="214.93" y="-7.5" font-family="Helvetica,sans-Serif" font-size="10.00">string</text>
</a>
</g>
</g>
<!-- Node2&#45;&gt;Node5 -->
<g id="edge4" class="edge">
<title>Node2&#45;&gt;Node5</title>
<path fill="none" stroke="midnightblue" d="M180.29,-123.2C185.2,-113.24 191.54,-99.55 195.93,-87 202.64,-67.78 208,-45.06 211.29,-29.5"/>
<polygon fill="midnightblue" stroke="midnightblue" points="214.75,-30.08 213.32,-19.58 207.89,-28.68 214.75,-30.08"/>
</g>
<!-- Node6 -->
<g id="node6" class="node">
<title>Node6</title>
<g id="a_node6"><a xlink:title=" ">
<polygon fill="white" stroke="#bfbfbf" points="142.93,-62 142.93,-81 186.93,-81 186.93,-62 142.93,-62"/>
<text text-anchor="middle" x="164.93" y="-69" font-family="Helvetica,sans-Serif" font-size="10.00">thread</text>
</a>
</g>
</g>
<!-- Node2&#45;&gt;Node6 -->
<g id="edge5" class="edge">
<title>Node2&#45;&gt;Node6</title>
<path fill="none" stroke="midnightblue" d="M171.19,-123.4C170.03,-113.96 168.49,-101.45 167.23,-91.19"/>
<polygon fill="midnightblue" stroke="midnightblue" points="170.7,-90.69 166,-81.19 163.75,-91.55 170.7,-90.69"/>
</g>
<!-- Node7 -->
<g id="node7" class="node">
<title>Node7</title>
<g id="a_node7"><a xlink:href="../../d1/d13/status_8h.html" target="_top" xlink:title=" ">
<polygon fill="white" stroke="black" points="243.43,-56.5 243.43,-86.5 368.43,-86.5 368.43,-56.5 243.43,-56.5"/>
<text text-anchor="start" x="251.43" y="-74.5" font-family="Helvetica,sans-Serif" font-size="10.00">automaton/core/common</text>
<text text-anchor="middle" x="305.93" y="-63.5" font-family="Helvetica,sans-Serif" font-size="10.00">/status.h</text>
</a>
</g>
</g>
<!-- Node2&#45;&gt;Node7 -->
<g id="edge6" class="edge">
<title>Node2&#45;&gt;Node7</title>
<path fill="none" stroke="midnightblue" d="M201.79,-123.4C221.22,-113.9 247.05,-101.28 268.12,-90.98"/>
<polygon fill="midnightblue" stroke="midnightblue" points="269.68,-94.11 277.13,-86.58 266.61,-87.82 269.68,-94.11"/>
</g>
<!-- Node7&#45;&gt;Node5 -->
<g id="edge8" class="edge">
<title>Node7&#45;&gt;Node5</title>
<path fill="none" stroke="midnightblue" d="M284.36,-56.4C270.05,-47.04 251.32,-34.79 236.92,-25.38"/>
<polygon fill="midnightblue" stroke="midnightblue" points="238.46,-22.2 228.17,-19.66 234.63,-28.06 238.46,-22.2"/>
</g>
<!-- Node8 -->
<g id="node8" class="node">
<title>Node8</title>
<g id="a_node8"><a xlink:title=" ">
<polygon fill="white" stroke="#bfbfbf" points="266.93,-0.5 266.93,-19.5 318.93,-19.5 318.93,-0.5 266.93,-0.5"/>
<text text-anchor="middle" x="292.93" y="-7.5" font-family="Helvetica,sans-Serif" font-size="10.00">ostream</text>
</a>
</g>
</g>
<!-- Node7&#45;&gt;Node8 -->
<g id="edge7" class="edge">
<title>Node7&#45;&gt;Node8</title>
<path fill="none" stroke="midnightblue" d="M302.85,-56.4C301.1,-48.38 298.88,-38.23 296.99,-29.57"/>
<polygon fill="midnightblue" stroke="midnightblue" points="300.38,-28.68 294.82,-19.66 293.54,-30.17 300.38,-28.68"/>
</g>
<!-- Node9 -->
<g id="node9" class="node">
<title>Node9</title>
<g id="a_node9"><a xlink:title=" ">
<polygon fill="white" stroke="#bfbfbf" points="336.93,-0.5 336.93,-19.5 390.93,-19.5 390.93,-0.5 336.93,-0.5"/>
<text text-anchor="middle" x="363.93" y="-7.5" font-family="Helvetica,sans-Serif" font-size="10.00">iostream</text>
</a>
</g>
</g>
<!-- Node7&#45;&gt;Node9 -->
<g id="edge9" class="edge">
<title>Node7&#45;&gt;Node9</title>
<path fill="none" stroke="midnightblue" d="M319.67,-56.4C328.28,-47.58 339.38,-36.18 348.32,-27.02"/>
<polygon fill="midnightblue" stroke="midnightblue" points="351.02,-29.26 355.49,-19.66 346,-24.38 351.02,-29.26"/>
</g>
<!-- Node10&#45;&gt;Node2 -->
<g id="edge15" class="edge">
<title>Node10&#45;&gt;Node2</title>
<path fill="none" stroke="midnightblue" d="M103.24,-190.4C115.6,-181.37 131.83,-169.51 145.52,-159.52"/>
<polygon fill="midnightblue" stroke="midnightblue" points="147.64,-162.3 153.66,-153.58 143.52,-156.65 147.64,-162.3"/>
</g>
<!-- Node10&#45;&gt;Node3 -->
<g id="edge11" class="edge">
<title>Node10&#45;&gt;Node3</title>
<path fill="none" stroke="midnightblue" d="M86.39,-190.37C90.57,-166.4 99.05,-117.75 103.7,-91.06"/>
<polygon fill="midnightblue" stroke="midnightblue" points="107.16,-91.55 105.43,-81.1 100.27,-90.35 107.16,-91.55"/>
</g>
<!-- Node10&#45;&gt;Node4 -->
<g id="edge12" class="edge">
<title>Node10&#45;&gt;Node4</title>
<path fill="none" stroke="midnightblue" d="M79.86,-190.37C72.96,-166.4 58.96,-117.75 51.27,-91.06"/>
<polygon fill="midnightblue" stroke="midnightblue" points="54.53,-89.74 48.4,-81.1 47.81,-91.68 54.53,-89.74"/>
</g>
<!-- Node10&#45;&gt;Node5 -->
<g id="edge13" class="edge">
<title>Node10&#45;&gt;Node5</title>
<path fill="none" stroke="midnightblue" d="M67.02,-190.23C35.94,-162.32 -23.98,-99.45 10.93,-56 32.3,-29.41 132.42,-17.6 184.01,-13.2"/>
<polygon fill="midnightblue" stroke="midnightblue" points="184.56,-16.67 194.24,-12.38 183.99,-9.7 184.56,-16.67"/>
</g>
<!-- Node10&#45;&gt;Node7 -->
<g id="edge14" class="edge">
<title>Node10&#45;&gt;Node7</title>
<path fill="none" stroke="midnightblue" d="M145.21,-194.12C176.5,-186.66 213.97,-174.25 242.93,-154 264.65,-138.82 282.33,-113.91 293.37,-95.62"/>
<polygon fill="midnightblue" stroke="midnightblue" points="296.53,-97.15 298.53,-86.74 290.48,-93.63 296.53,-97.15"/>
</g>
</g>
</svg>
