<?xml version="1.0" encoding="UTF-8" standalone="no"?>
<!DOCTYPE svg PUBLIC "-//W3C//DTD SVG 1.1//EN"
 "http://www.w3.org/Graphics/SVG/1.1/DTD/svg11.dtd">
<!-- Generated by graphviz version 2.42.3 ()
 -->
<!-- Title: io.cc Pages: 1 -->
<svg width="898pt" height="140pt"
 viewBox="0.00 0.00 898.00 140.00" xmlns="http://www.w3.org/2000/svg" xmlns:xlink="http://www.w3.org/1999/xlink">
<g id="graph0" class="graph" transform="scale(1 1) rotate(0) translate(4 136)">
<title>io.cc</title>
<polygon fill="white" stroke="transparent" points="-4,4 -4,-136 894,-136 894,4 -4,4"/>
<!-- Node1 -->
<g id="node1" class="node">
<title>Node1</title>
<g id="a_node1"><a xlink:title=" ">
<polygon fill="#bfbfbf" stroke="black" points="441,-112.5 441,-131.5 478,-131.5 478,-112.5 441,-112.5"/>
<text text-anchor="middle" x="459.5" y="-119.5" font-family="Helvetica,sans-Serif" font-size="10.00">io.cc</text>
</a>
</g>
</g>
<!-- Node2 -->
<g id="node2" class="node">
<title>Node2</title>
<g id="a_node2"><a xlink:href="../../dc/dac/io_8h.html" target="_top" xlink:title=" ">
<polygon fill="white" stroke="black" points="94,-56.5 94,-75.5 207,-75.5 207,-56.5 94,-56.5"/>
<text text-anchor="middle" x="150.5" y="-63.5" font-family="Helvetica,sans-Serif" font-size="10.00">automaton/core/io/io.h</text>
</a>
</g>
</g>
<!-- Node1&#45;&gt;Node2 -->
<g id="edge1" class="edge">
<title>Node1&#45;&gt;Node2</title>
<path fill="none" stroke="midnightblue" d="M440.64,-117.7C395.61,-109.84 280.35,-89.69 209.4,-77.29"/>
<polygon fill="midnightblue" stroke="midnightblue" points="209.72,-73.8 199.27,-75.52 208.52,-80.69 209.72,-73.8"/>
</g>
<!-- Node4 -->
<g id="node4" class="node">
<title>Node4</title>
<g id="a_node4"><a xlink:title=" ">
<polygon fill="white" stroke="#bfbfbf" points="0,-0.5 0,-19.5 41,-19.5 41,-0.5 0,-0.5"/>
<text text-anchor="middle" x="20.5" y="-7.5" font-family="Helvetica,sans-Serif" font-size="10.00">string</text>
</a>
</g>
</g>
<!-- Node1&#45;&gt;Node4 -->
<g id="edge15" class="edge">
<title>Node1&#45;&gt;Node4</title>
<path fill="none" stroke="midnightblue" d="M440.95,-120.38C374.44,-117.93 148.51,-107.42 84.5,-76 62.37,-65.14 43.48,-43.45 32.08,-28.12"/>
<polygon fill="midnightblue" stroke="midnightblue" points="34.64,-25.67 25.99,-19.55 28.93,-29.72 34.64,-25.67"/>
</g>
<!-- Node8 -->
<g id="node8" class="node">
<title>Node8</title>
<g id="a_node8"><a xlink:title=" ">
<polygon fill="white" stroke="#bfbfbf" points="225,-56.5 225,-75.5 284,-75.5 284,-56.5 225,-56.5"/>
<text text-anchor="middle" x="254.5" y="-63.5" font-family="Helvetica,sans-Serif" font-size="10.00">sys/stat.h</text>
</a>
</g>
</g>
<!-- Node1&#45;&gt;Node8 -->
<g id="edge7" class="edge">
<title>Node1&#45;&gt;Node8</title>
<path fill="none" stroke="midnightblue" d="M440.95,-116.11C407.94,-107.42 338.34,-89.08 294.14,-77.44"/>
<polygon fill="midnightblue" stroke="midnightblue" points="294.86,-74.01 284.3,-74.85 293.08,-80.78 294.86,-74.01"/>
</g>
<!-- Node9 -->
<g id="node9" class="node">
<title>Node9</title>
<g id="a_node9"><a xlink:title=" ">
<polygon fill="white" stroke="#bfbfbf" points="302,-56.5 302,-75.5 345,-75.5 345,-56.5 302,-56.5"/>
<text text-anchor="middle" x="323.5" y="-63.5" font-family="Helvetica,sans-Serif" font-size="10.00">time.h</text>
</a>
</g>
</g>
<!-- Node1&#45;&gt;Node9 -->
<g id="edge8" class="edge">
<title>Node1&#45;&gt;Node9</title>
<path fill="none" stroke="midnightblue" d="M440.87,-113.6C418.68,-104.79 381.27,-89.94 354.65,-79.37"/>
<polygon fill="midnightblue" stroke="midnightblue" points="355.62,-75.99 345.04,-75.55 353.04,-82.49 355.62,-75.99"/>
</g>
<!-- Node10 -->
<g id="node10" class="node">
<title>Node10</title>
<g id="a_node10"><a xlink:title=" ">
<polygon fill="white" stroke="#bfbfbf" points="363.5,-56.5 363.5,-75.5 419.5,-75.5 419.5,-56.5 363.5,-56.5"/>
<text text-anchor="middle" x="391.5" y="-63.5" font-family="Helvetica,sans-Serif" font-size="10.00">algorithm</text>
</a>
</g>
</g>
<!-- Node1&#45;&gt;Node10 -->
<g id="edge9" class="edge">
<title>Node1&#45;&gt;Node10</title>
<path fill="none" stroke="midnightblue" d="M448.57,-112.32C438.33,-104.18 422.78,-91.84 410.5,-82.09"/>
<polygon fill="midnightblue" stroke="midnightblue" points="412.63,-79.31 402.62,-75.83 408.28,-84.79 412.63,-79.31"/>
</g>
<!-- Node11 -->
<g id="node11" class="node">
<title>Node11</title>
<g id="a_node11"><a xlink:title=" ">
<polygon fill="white" stroke="#bfbfbf" points="437.5,-56.5 437.5,-75.5 481.5,-75.5 481.5,-56.5 437.5,-56.5"/>
<text text-anchor="middle" x="459.5" y="-63.5" font-family="Helvetica,sans-Serif" font-size="10.00">cerrno</text>
</a>
</g>
</g>
<!-- Node1&#45;&gt;Node11 -->
<g id="edge10" class="edge">
<title>Node1&#45;&gt;Node11</title>
<path fill="none" stroke="midnightblue" d="M459.5,-112.08C459.5,-105.01 459.5,-94.86 459.5,-85.99"/>
<polygon fill="midnightblue" stroke="midnightblue" points="463,-85.75 459.5,-75.75 456,-85.75 463,-85.75"/>
</g>
<!-- Node12 -->
<g id="node12" class="node">
<title>Node12</title>
<g id="a_node12"><a xlink:title=" ">
<polygon fill="white" stroke="#bfbfbf" points="499.5,-56.5 499.5,-75.5 549.5,-75.5 549.5,-56.5 499.5,-56.5"/>
<text text-anchor="middle" x="524.5" y="-63.5" font-family="Helvetica,sans-Serif" font-size="10.00">fstream</text>
</a>
</g>
</g>
<!-- Node1&#45;&gt;Node12 -->
<g id="edge11" class="edge">
<title>Node1&#45;&gt;Node12</title>
<path fill="none" stroke="midnightblue" d="M469.94,-112.32C479.65,-104.26 494.32,-92.08 506,-82.37"/>
<polygon fill="midnightblue" stroke="midnightblue" points="508.41,-84.92 513.87,-75.83 503.94,-79.53 508.41,-84.92"/>
</g>
<!-- Node13 -->
<g id="node13" class="node">
<title>Node13</title>
<g id="a_node13"><a xlink:title=" ">
<polygon fill="white" stroke="#bfbfbf" points="567.5,-56.5 567.5,-75.5 617.5,-75.5 617.5,-56.5 567.5,-56.5"/>
<text text-anchor="middle" x="592.5" y="-63.5" font-family="Helvetica,sans-Serif" font-size="10.00">iomanip</text>
</a>
</g>
</g>
<!-- Node1&#45;&gt;Node13 -->
<g id="edge12" class="edge">
<title>Node1&#45;&gt;Node13</title>
<path fill="none" stroke="midnightblue" d="M478.27,-113.38C499.99,-104.56 536.05,-89.92 561.85,-79.44"/>
<polygon fill="midnightblue" stroke="midnightblue" points="563.23,-82.66 571.18,-75.65 560.6,-76.17 563.23,-82.66"/>
</g>
<!-- Node14 -->
<g id="node14" class="node">
<title>Node14</title>
<g id="a_node14"><a xlink:title=" ">
<polygon fill="white" stroke="#bfbfbf" points="635.5,-56.5 635.5,-75.5 689.5,-75.5 689.5,-56.5 635.5,-56.5"/>
<text text-anchor="middle" x="662.5" y="-63.5" font-family="Helvetica,sans-Serif" font-size="10.00">iostream</text>
</a>
</g>
</g>
<!-- Node1&#45;&gt;Node14 -->
<g id="edge13" class="edge">
<title>Node1&#45;&gt;Node14</title>
<path fill="none" stroke="midnightblue" d="M478.23,-116.02C511.58,-107.15 581.81,-88.46 625.29,-76.9"/>
<polygon fill="midnightblue" stroke="midnightblue" points="626.44,-80.21 635.2,-74.26 624.64,-73.45 626.44,-80.21"/>
</g>
<!-- Node15 -->
<g id="node15" class="node">
<title>Node15</title>
<g id="a_node15"><a xlink:title=" ">
<polygon fill="white" stroke="#bfbfbf" points="708,-56.5 708,-75.5 759,-75.5 759,-56.5 708,-56.5"/>
<text text-anchor="middle" x="733.5" y="-63.5" font-family="Helvetica,sans-Serif" font-size="10.00">memory</text>
</a>
</g>
</g>
<!-- Node1&#45;&gt;Node15 -->
<g id="edge14" class="edge">
<title>Node1&#45;&gt;Node15</title>
<path fill="none" stroke="midnightblue" d="M478.18,-117.91C517.09,-111.39 609.86,-95.37 698.04,-75.98"/>
<polygon fill="midnightblue" stroke="midnightblue" points="698.93,-79.36 707.93,-73.78 697.41,-72.53 698.93,-79.36"/>
</g>
<!-- Node16 -->
<g id="node16" class="node">
<title>Node16</title>
<g id="a_node16"><a xlink:title=" ">
<polygon fill="white" stroke="#bfbfbf" points="777,-56.5 777,-75.5 890,-75.5 890,-56.5 777,-56.5"/>
<text text-anchor="middle" x="833.5" y="-63.5" font-family="Helvetica,sans-Serif" font-size="10.00">g3log/logmessage.hpp</text>
</a>
</g>
</g>
<!-- Node1&#45;&gt;Node16 -->
<g id="edge16" class="edge">
<title>Node1&#45;&gt;Node16</title>
<path fill="none" stroke="midnightblue" d="M478.05,-118.32C530.01,-110.82 678.94,-89.32 766.66,-76.65"/>
<polygon fill="midnightblue" stroke="midnightblue" points="767.39,-80.08 776.79,-75.19 766.39,-73.15 767.39,-80.08"/>
</g>
<!-- Node3 -->
<g id="node3" class="node">
<title>Node3</title>
<g id="a_node3"><a xlink:title=" ">
<polygon fill="white" stroke="#bfbfbf" points="59.5,-0.5 59.5,-19.5 105.5,-19.5 105.5,-0.5 59.5,-0.5"/>
<text text-anchor="middle" x="82.5" y="-7.5" font-family="Helvetica,sans-Serif" font-size="10.00">chrono</text>
</a>
</g>
</g>
<!-- Node2&#45;&gt;Node3 -->
<g id="edge2" class="edge">
<title>Node2&#45;&gt;Node3</title>
<path fill="none" stroke="midnightblue" d="M139.57,-56.32C129.33,-48.18 113.78,-35.84 101.5,-26.09"/>
<polygon fill="midnightblue" stroke="midnightblue" points="103.63,-23.31 93.62,-19.83 99.28,-28.79 103.63,-23.31"/>
</g>
<!-- Node2&#45;&gt;Node4 -->
<g id="edge3" class="edge">
<title>Node2&#45;&gt;Node4</title>
<path fill="none" stroke="midnightblue" d="M129.9,-56.44C108.51,-47.56 74.82,-33.56 50.48,-23.45"/>
<polygon fill="midnightblue" stroke="midnightblue" points="51.58,-20.12 41,-19.52 48.89,-26.58 51.58,-20.12"/>
</g>
<!-- Node5 -->
<g id="node5" class="node">
<title>Node5</title>
<g id="a_node5"><a xlink:title=" ">
<polygon fill="white" stroke="#bfbfbf" points="123.5,-0.5 123.5,-19.5 207.5,-19.5 207.5,-0.5 123.5,-0.5"/>
<text text-anchor="middle" x="165.5" y="-7.5" font-family="Helvetica,sans-Serif" font-size="10.00">g3log/g3log.hpp</text>
</a>
</g>
</g>
<!-- Node2&#45;&gt;Node5 -->
<g id="edge4" class="edge">
<title>Node2&#45;&gt;Node5</title>
<path fill="none" stroke="midnightblue" d="M152.98,-56.08C154.99,-48.85 157.89,-38.41 160.39,-29.4"/>
<polygon fill="midnightblue" stroke="midnightblue" points="163.76,-30.32 163.07,-19.75 157.02,-28.45 163.76,-30.32"/>
</g>
<!-- Node6 -->
<g id="node6" class="node">
<title>Node6</title>
<g id="a_node6"><a xlink:title=" ">
<polygon fill="white" stroke="#bfbfbf" points="226,-0.5 226,-19.5 329,-19.5 329,-0.5 226,-0.5"/>
<text text-anchor="middle" x="277.5" y="-7.5" font-family="Helvetica,sans-Serif" font-size="10.00">g3log/logworker.hpp</text>
</a>
</g>
</g>
<!-- Node2&#45;&gt;Node6 -->
<g id="edge5" class="edge">
<title>Node2&#45;&gt;Node6</title>
<path fill="none" stroke="midnightblue" d="M170.62,-56.44C191.52,-47.56 224.43,-33.56 248.22,-23.45"/>
<polygon fill="midnightblue" stroke="midnightblue" points="249.64,-26.65 257.47,-19.52 246.9,-20.21 249.64,-26.65"/>
</g>
<!-- Node7 -->
<g id="node7" class="node">
<title>Node7</title>
<g id="a_node7"><a xlink:title=" ">
<polygon fill="white" stroke="#bfbfbf" points="347,-0.5 347,-19.5 446,-19.5 446,-0.5 347,-0.5"/>
<text text-anchor="middle" x="396.5" y="-7.5" font-family="Helvetica,sans-Serif" font-size="10.00">g3log/loglevels.hpp</text>
</a>
</g>
</g>
<!-- Node2&#45;&gt;Node7 -->
<g id="edge6" class="edge">
<title>Node2&#45;&gt;Node7</title>
<path fill="none" stroke="midnightblue" d="M189.48,-56.44C232.39,-47.02 301.45,-31.87 347.87,-21.68"/>
<polygon fill="midnightblue" stroke="midnightblue" points="348.69,-25.08 357.7,-19.52 347.19,-18.24 348.69,-25.08"/>
</g>
</g>
</svg>
