<?xml version="1.0" encoding="UTF-8" standalone="no"?>
<!DOCTYPE svg PUBLIC "-//W3C//DTD SVG 1.1//EN"
 "http://www.w3.org/Graphics/SVG/1.1/DTD/svg11.dtd">
<!-- Generated by graphviz version 2.44.0 ()
 -->
<!-- Title: automaton::core::network::simulated_acceptor::stop_accepting Pages: 1 -->
<svg width="324pt" height="50pt"
 viewBox="0.00 0.00 324.00 50.00" xmlns="http://www.w3.org/2000/svg" xmlns:xlink="http://www.w3.org/1999/xlink">
<g id="graph0" class="graph" transform="scale(1 1) rotate(0) translate(4 46)">
<title>automaton::core::network::simulated_acceptor::stop_accepting</title>
<polygon fill="white" stroke="transparent" points="-4,4 -4,-46 320,-46 320,4 -4,4"/>
<!-- Node1 -->
<g id="node1" class="node">
<title>Node1</title>
<g id="a_node1"><a xlink:title=" ">
<polygon fill="#bfbfbf" stroke="black" points="0,-0.5 0,-41.5 129,-41.5 129,-0.5 0,-0.5"/>
<text text-anchor="start" x="8" y="-29.5" font-family="Helvetica,sans-Serif" font-size="10.00">automaton::core::network</text>
<text text-anchor="start" x="8" y="-18.5" font-family="Helvetica,sans-Serif" font-size="10.00">::simulated_acceptor::stop</text>
<text text-anchor="middle" x="64.5" y="-7.5" font-family="Helvetica,sans-Serif" font-size="10.00">_accepting</text>
</a>
</g>
</g>
<!-- Node2 -->
<g id="node2" class="node">
<title>Node2</title>
<g id="a_node2"><a xlink:href="../../df/db6/classautomaton_1_1core_1_1network_1_1simulated__acceptor.html#ad828a99bc9e25a1d0a2199f5cf3250a7" target="_top" xlink:title=" ">
<polygon fill="white" stroke="black" points="165,-6 165,-36 316,-36 316,-6 165,-6"/>
<text text-anchor="start" x="173" y="-24" font-family="Helvetica,sans-Serif" font-size="10.00">automaton::core::network</text>
<text text-anchor="middle" x="240.5" y="-13" font-family="Helvetica,sans-Serif" font-size="10.00">::simulated_acceptor::set_state</text>
</a>
</g>
</g>
<!-- Node1&#45;&gt;Node2 -->
<g id="edge1" class="edge">
<title>Node1&#45;&gt;Node2</title>
<path fill="none" stroke="midnightblue" d="M129.3,-21C137.6,-21 146.2,-21 154.77,-21"/>
<polygon fill="midnightblue" stroke="midnightblue" points="154.8,-24.5 164.8,-21 154.8,-17.5 154.8,-24.5"/>
</g>
</g>
</svg>
