<?xml version="1.0" encoding="UTF-8" standalone="no"?>
<!DOCTYPE svg PUBLIC "-//W3C//DTD SVG 1.1//EN"
 "http://www.w3.org/Graphics/SVG/1.1/DTD/svg11.dtd">
<!-- Generated by graphviz version 2.44.0 ()
 -->
<!-- Title: automaton::core::network::simulated_acceptor::set_state Pages: 1 -->
<svg width="325pt" height="159pt"
 viewBox="0.00 0.00 325.00 158.50" xmlns="http://www.w3.org/2000/svg" xmlns:xlink="http://www.w3.org/1999/xlink">
<g id="graph0" class="graph" transform="scale(1 1) rotate(0) translate(4 154.5)">
<title>automaton::core::network::simulated_acceptor::set_state</title>
<polygon fill="white" stroke="transparent" points="-4,4 -4,-154.5 321,-154.5 321,4 -4,4"/>
<!-- Node1 -->
<g id="node1" class="node">
<title>Node1</title>
<g id="a_node1"><a xlink:title=" ">
<polygon fill="#bfbfbf" stroke="black" points="166,-66 166,-96 317,-96 317,-66 166,-66"/>
<text text-anchor="start" x="174" y="-84" font-family="Helvetica,sans-Serif" font-size="10.00">automaton::core::network</text>
<text text-anchor="middle" x="241.5" y="-73" font-family="Helvetica,sans-Serif" font-size="10.00">::simulated_acceptor::set_state</text>
</a>
</g>
</g>
<!-- Node2 -->
<g id="node2" class="node">
<title>Node2</title>
<g id="a_node2"><a xlink:href="../../df/db6/classautomaton_1_1core_1_1network_1_1simulated__acceptor.html#ae563d5c6da0cc1d68a9e19995c9656bf" target="_top" xlink:title=" ">
<polygon fill="white" stroke="black" points="2.5,-120 2.5,-150 127.5,-150 127.5,-120 2.5,-120"/>
<text text-anchor="start" x="10.5" y="-138" font-family="Helvetica,sans-Serif" font-size="10.00">automaton::core::network</text>
<text text-anchor="middle" x="65" y="-127" font-family="Helvetica,sans-Serif" font-size="10.00">::simulated_acceptor::init</text>
</a>
</g>
</g>
<!-- Node1&#45;&gt;Node2 -->
<g id="edge1" class="edge">
<title>Node1&#45;&gt;Node2</title>
<path fill="none" stroke="midnightblue" d="M182.05,-99.09C160.16,-105.86 135.56,-113.48 114.65,-119.95"/>
<polygon fill="midnightblue" stroke="midnightblue" points="183.37,-102.34 191.89,-96.04 181.3,-95.65 183.37,-102.34"/>
</g>
<!-- Node3 -->
<g id="node3" class="node">
<title>Node3</title>
<g id="a_node3"><a xlink:href="../../df/db6/classautomaton_1_1core_1_1network_1_1simulated__acceptor.html#af7311553102d508203947bdb98db41b3" target="_top" xlink:title=" ">
<polygon fill="white" stroke="black" points="0,-60.5 0,-101.5 130,-101.5 130,-60.5 0,-60.5"/>
<text text-anchor="start" x="8" y="-89.5" font-family="Helvetica,sans-Serif" font-size="10.00">automaton::core::network</text>
<text text-anchor="start" x="8" y="-78.5" font-family="Helvetica,sans-Serif" font-size="10.00">::simulated_acceptor::start</text>
<text text-anchor="middle" x="65" y="-67.5" font-family="Helvetica,sans-Serif" font-size="10.00">_accepting</text>
</a>
</g>
</g>
<!-- Node1&#45;&gt;Node3 -->
<g id="edge2" class="edge">
<title>Node1&#45;&gt;Node3</title>
<path fill="none" stroke="midnightblue" d="M155.85,-81C147.18,-81 138.48,-81 130.09,-81"/>
<polygon fill="midnightblue" stroke="midnightblue" points="155.99,-84.5 165.99,-81 155.99,-77.5 155.99,-84.5"/>
</g>
<!-- Node4 -->
<g id="node4" class="node">
<title>Node4</title>
<g id="a_node4"><a xlink:href="../../df/db6/classautomaton_1_1core_1_1network_1_1simulated__acceptor.html#ab7dae5249dd0f6c06a21b7e0c8ce5dc8" target="_top" xlink:title=" ">
<polygon fill="white" stroke="black" points="0.5,-0.5 0.5,-41.5 129.5,-41.5 129.5,-0.5 0.5,-0.5"/>
<text text-anchor="start" x="8.5" y="-29.5" font-family="Helvetica,sans-Serif" font-size="10.00">automaton::core::network</text>
<text text-anchor="start" x="8.5" y="-18.5" font-family="Helvetica,sans-Serif" font-size="10.00">::simulated_acceptor::stop</text>
<text text-anchor="middle" x="65" y="-7.5" font-family="Helvetica,sans-Serif" font-size="10.00">_accepting</text>
</a>
</g>
</g>
<!-- Node1&#45;&gt;Node4 -->
<g id="edge3" class="edge">
<title>Node1&#45;&gt;Node4</title>
<path fill="none" stroke="midnightblue" d="M186.92,-62.58C167.59,-55.93 145.67,-48.39 125.84,-41.58"/>
<polygon fill="midnightblue" stroke="midnightblue" points="185.87,-65.92 196.47,-65.86 188.15,-59.3 185.87,-65.92"/>
</g>
</g>
</svg>
