<?xml version="1.0" encoding="UTF-8" standalone="no"?>
<!DOCTYPE svg PUBLIC "-//W3C//DTD SVG 1.1//EN"
 "http://www.w3.org/Graphics/SVG/1.1/DTD/svg11.dtd">
<!-- Generated by graphviz version 2.44.0 ()
 -->
<!-- Title: automaton::core::network::simulated_acceptor::parse_address Pages: 1 -->
<svg width="303pt" height="50pt"
 viewBox="0.00 0.00 303.00 50.00" xmlns="http://www.w3.org/2000/svg" xmlns:xlink="http://www.w3.org/1999/xlink">
<g id="graph0" class="graph" transform="scale(1 1) rotate(0) translate(4 46)">
<title>automaton::core::network::simulated_acceptor::parse_address</title>
<polygon fill="white" stroke="transparent" points="-4,4 -4,-46 299,-46 299,4 -4,4"/>
<!-- Node1 -->
<g id="node1" class="node">
<title>Node1</title>
<g id="a_node1"><a xlink:title=" ">
<polygon fill="#bfbfbf" stroke="black" points="161,-0.5 161,-41.5 295,-41.5 295,-0.5 161,-0.5"/>
<text text-anchor="start" x="169" y="-29.5" font-family="Helvetica,sans-Serif" font-size="10.00">automaton::core::network</text>
<text text-anchor="start" x="169" y="-18.5" font-family="Helvetica,sans-Serif" font-size="10.00">::simulated_acceptor::parse</text>
<text text-anchor="middle" x="228" y="-7.5" font-family="Helvetica,sans-Serif" font-size="10.00">_address</text>
</a>
</g>
</g>
<!-- Node2 -->
<g id="node2" class="node">
<title>Node2</title>
<g id="a_node2"><a xlink:href="../../df/db6/classautomaton_1_1core_1_1network_1_1simulated__acceptor.html#ae563d5c6da0cc1d68a9e19995c9656bf" target="_top" xlink:title=" ">
<polygon fill="white" stroke="black" points="0,-6 0,-36 125,-36 125,-6 0,-6"/>
<text text-anchor="start" x="8" y="-24" font-family="Helvetica,sans-Serif" font-size="10.00">automaton::core::network</text>
<text text-anchor="middle" x="62.5" y="-13" font-family="Helvetica,sans-Serif" font-size="10.00">::simulated_acceptor::init</text>
</a>
</g>
</g>
<!-- Node1&#45;&gt;Node2 -->
<g id="edge1" class="edge">
<title>Node1&#45;&gt;Node2</title>
<path fill="none" stroke="midnightblue" d="M150.86,-21C142.2,-21 133.46,-21 125.02,-21"/>
<polygon fill="midnightblue" stroke="midnightblue" points="150.97,-24.5 160.97,-21 150.97,-17.5 150.97,-24.5"/>
</g>
</g>
</svg>
