<?xml version="1.0" encoding="UTF-8" standalone="no"?>
<!DOCTYPE svg PUBLIC "-//W3C//DTD SVG 1.1//EN"
 "http://www.w3.org/Graphics/SVG/1.1/DTD/svg11.dtd">
<!-- Generated by graphviz version 2.42.3 ()
 -->
<!-- Title: automaton::core::network::simulated_acceptor::init Pages: 1 -->
<svg width="320pt" height="147pt"
 viewBox="0.00 0.00 320.00 147.00" xmlns="http://www.w3.org/2000/svg" xmlns:xlink="http://www.w3.org/1999/xlink">
<g id="graph0" class="graph" transform="scale(1 1) rotate(0) translate(4 143)">
<title>automaton::core::network::simulated_acceptor::init</title>
<polygon fill="white" stroke="transparent" points="-4,4 -4,-143 316,-143 316,4 -4,4"/>
<!-- Node1 -->
<g id="node1" class="node">
<title>Node1</title>
<g id="a_node1"><a xlink:title=" ">
<polygon fill="#bfbfbf" stroke="black" points="0,-54.5 0,-84.5 125,-84.5 125,-54.5 0,-54.5"/>
<text text-anchor="start" x="8" y="-72.5" font-family="Helvetica,sans-Serif" font-size="10.00">automaton::core::network</text>
<text text-anchor="middle" x="62.5" y="-61.5" font-family="Helvetica,sans-Serif" font-size="10.00">::simulated_acceptor::init</text>
</a>
</g>
</g>
<!-- Node2 -->
<g id="node2" class="node">
<title>Node2</title>
<g id="a_node2"><a xlink:href="../../d7/ded/classautomaton_1_1core_1_1network_1_1simulation.html#ad00c2b3b98e9eb6b251f39549d46baf4" target="_top" xlink:title=" ">
<polygon fill="white" stroke="black" points="172.5,-108.5 172.5,-138.5 300.5,-138.5 300.5,-108.5 172.5,-108.5"/>
<text text-anchor="start" x="180.5" y="-126.5" font-family="Helvetica,sans-Serif" font-size="10.00">automaton::core::network</text>
<text text-anchor="middle" x="236.5" y="-115.5" font-family="Helvetica,sans-Serif" font-size="10.00">::simulation::get_simulator</text>
</a>
</g>
</g>
<!-- Node1&#45;&gt;Node2 -->
<g id="edge1" class="edge">
<title>Node1&#45;&gt;Node2</title>
<path fill="none" stroke="midnightblue" d="M111.41,-84.54C132.01,-91.01 156.27,-98.63 177.85,-105.4"/>
<polygon fill="midnightblue" stroke="midnightblue" points="176.96,-108.79 187.55,-108.45 179.05,-102.11 176.96,-108.79"/>
</g>
<!-- Node3 -->
<g id="node3" class="node">
<title>Node3</title>
<g id="a_node3"><a xlink:href="../../df/db6/classautomaton_1_1core_1_1network_1_1simulated__acceptor.html#a21b01a36cf5902a58d5d8807f31f0658" target="_top" xlink:title=" ">
<polygon fill="white" stroke="black" points="169.5,-49 169.5,-90 303.5,-90 303.5,-49 169.5,-49"/>
<text text-anchor="start" x="177.5" y="-78" font-family="Helvetica,sans-Serif" font-size="10.00">automaton::core::network</text>
<text text-anchor="start" x="177.5" y="-67" font-family="Helvetica,sans-Serif" font-size="10.00">::simulated_acceptor::parse</text>
<text text-anchor="middle" x="236.5" y="-56" font-family="Helvetica,sans-Serif" font-size="10.00">_address</text>
</a>
</g>
</g>
<!-- Node1&#45;&gt;Node3 -->
<g id="edge2" class="edge">
<title>Node1&#45;&gt;Node3</title>
<path fill="none" stroke="midnightblue" d="M125.11,-69.5C136.11,-69.5 147.68,-69.5 159.03,-69.5"/>
<polygon fill="midnightblue" stroke="midnightblue" points="159.37,-73 169.37,-69.5 159.37,-66 159.37,-73"/>
</g>
<!-- Node4 -->
<g id="node4" class="node">
<title>Node4</title>
<g id="a_node4"><a xlink:href="../../df/db6/classautomaton_1_1core_1_1network_1_1simulated__acceptor.html#ad828a99bc9e25a1d0a2199f5cf3250a7" target="_top" xlink:title=" ">
<polygon fill="white" stroke="black" points="161,-0.5 161,-30.5 312,-30.5 312,-0.5 161,-0.5"/>
<text text-anchor="start" x="169" y="-18.5" font-family="Helvetica,sans-Serif" font-size="10.00">automaton::core::network</text>
<text text-anchor="middle" x="236.5" y="-7.5" font-family="Helvetica,sans-Serif" font-size="10.00">::simulated_acceptor::set_state</text>
</a>
</g>
</g>
<!-- Node1&#45;&gt;Node4 -->
<g id="edge3" class="edge">
<title>Node1&#45;&gt;Node4</title>
<path fill="none" stroke="midnightblue" d="M111.41,-54.46C132.01,-47.99 156.27,-40.37 177.85,-33.6"/>
<polygon fill="midnightblue" stroke="midnightblue" points="179.05,-36.89 187.55,-30.55 176.96,-30.21 179.05,-36.89"/>
</g>
</g>
</svg>
