<?xml version="1.0" encoding="UTF-8" standalone="no"?>
<!DOCTYPE svg PUBLIC "-//W3C//DTD SVG 1.1//EN"
 "http://www.w3.org/Graphics/SVG/1.1/DTD/svg11.dtd">
<!-- Generated by graphviz version 2.42.3 ()
 -->
<!-- Title: automaton::core::data::protobuf::protobuf_factory Pages: 1 -->
<svg width="621pt" height="241pt"
 viewBox="0.00 0.00 621.00 240.50" xmlns="http://www.w3.org/2000/svg" xmlns:xlink="http://www.w3.org/1999/xlink">
<g id="graph0" class="graph" transform="scale(1 1) rotate(0) translate(4 236.5)">
<title>automaton::core::data::protobuf::protobuf_factory</title>
<polygon fill="white" stroke="transparent" points="-4,4 -4,-236.5 617,-236.5 617,4 -4,4"/>
<!-- Node1 -->
<g id="node1" class="node">
<title>Node1</title>
<g id="a_node1"><a xlink:title=" ">
<polygon fill="#bfbfbf" stroke="black" points="504,-118.5 504,-159.5 613,-159.5 613,-118.5 504,-118.5"/>
<text text-anchor="start" x="512" y="-147.5" font-family="Helvetica,sans-Serif" font-size="10.00">automaton::core::data</text>
<text text-anchor="start" x="512" y="-136.5" font-family="Helvetica,sans-Serif" font-size="10.00">::protobuf::protobuf</text>
<text text-anchor="middle" x="558.5" y="-125.5" font-family="Helvetica,sans-Serif" font-size="10.00">_factory</text>
</a>
</g>
</g>
<!-- Node2 -->
<g id="node2" class="node">
<title>Node2</title>
<g id="a_node2"><a xlink:href="../../d2/d94/classautomaton_1_1core_1_1data_1_1factory.html" target="_top" xlink:title=" ">
<polygon fill="white" stroke="black" points="227.5,-202 227.5,-232 336.5,-232 336.5,-202 227.5,-202"/>
<text text-anchor="start" x="235.5" y="-220" font-family="Helvetica,sans-Serif" font-size="10.00">automaton::core::data</text>
<text text-anchor="middle" x="282" y="-209" font-family="Helvetica,sans-Serif" font-size="10.00">::factory</text>
</a>
</g>
</g>
<!-- Node2&#45;&gt;Node1 -->
<g id="edge1" class="edge">
<title>Node2&#45;&gt;Node1</title>
<path fill="none" stroke="midnightblue" d="M346.72,-205.34C387.13,-197.19 440.23,-185.08 486,-170 495,-167.04 504.42,-163.38 513.36,-159.62"/>
<polygon fill="midnightblue" stroke="midnightblue" points="345.85,-201.95 336.73,-207.33 347.22,-208.81 345.85,-201.95"/>
</g>
<!-- Node3 -->
<g id="node3" class="node">
<title>Node3</title>
<g id="a_node3"><a xlink:title=" ">
<polygon fill="white" stroke="#bfbfbf" points="217,-142.5 217,-183.5 347,-183.5 347,-142.5 217,-142.5"/>
<text text-anchor="start" x="225" y="-171.5" font-family="Helvetica,sans-Serif" font-size="10.00">std::map&lt; google::protobuf</text>
<text text-anchor="start" x="225" y="-160.5" font-family="Helvetica,sans-Serif" font-size="10.00">::FieldDescriptor::Type,</text>
<text text-anchor="middle" x="282" y="-149.5" font-family="Helvetica,sans-Serif" font-size="10.00"> schema::field_type &gt;</text>
</a>
</g>
</g>
<!-- Node3&#45;&gt;Node1 -->
<g id="edge2" class="edge">
<title>Node3&#45;&gt;Node1</title>
<path fill="none" stroke="#9a32cd" stroke-dasharray="5,2" d="M356.98,-156.53C403.21,-152.49 461.71,-147.38 503.57,-143.72"/>
<polygon fill="#9a32cd" stroke="#9a32cd" points="356.67,-153.05 347.01,-157.4 357.28,-160.02 356.67,-153.05"/>
<text text-anchor="middle" x="429" y="-158" font-family="Helvetica,sans-Serif" font-size="10.00"> protobuf_type_to_type</text>
</g>
<!-- Node4 -->
<g id="node4" class="node">
<title>Node4</title>
<g id="a_node4"><a xlink:title=" ">
<polygon fill="white" stroke="#bfbfbf" points="37,-106.5 37,-125.5 94,-125.5 94,-106.5 37,-106.5"/>
<text text-anchor="middle" x="65.5" y="-113.5" font-family="Helvetica,sans-Serif" font-size="10.00">field_type</text>
</a>
</g>
</g>
<!-- Node4&#45;&gt;Node3 -->
<g id="edge3" class="edge">
<title>Node4&#45;&gt;Node3</title>
<path fill="none" stroke="#9a32cd" stroke-dasharray="5,2" d="M104.07,-124.23C135.1,-131.03 179.86,-140.84 216.59,-148.89"/>
<polygon fill="#9a32cd" stroke="#9a32cd" points="104.62,-120.77 94.1,-122.05 103.12,-127.61 104.62,-120.77"/>
<text text-anchor="middle" x="170.5" y="-146" font-family="Helvetica,sans-Serif" font-size="10.00"> elements</text>
</g>
<!-- Node6 -->
<g id="node6" class="node">
<title>Node6</title>
<g id="a_node6"><a xlink:title=" ">
<polygon fill="white" stroke="#bfbfbf" points="210,-82.5 210,-123.5 354,-123.5 354,-82.5 210,-82.5"/>
<text text-anchor="start" x="218" y="-111.5" font-family="Helvetica,sans-Serif" font-size="10.00">std::map&lt; schema::field</text>
<text text-anchor="start" x="218" y="-100.5" font-family="Helvetica,sans-Serif" font-size="10.00">_type, google::protobuf</text>
<text text-anchor="middle" x="282" y="-89.5" font-family="Helvetica,sans-Serif" font-size="10.00">::FieldDescriptorProto_Type &gt;</text>
</a>
</g>
</g>
<!-- Node4&#45;&gt;Node6 -->
<g id="edge6" class="edge">
<title>Node4&#45;&gt;Node6</title>
<path fill="none" stroke="#9a32cd" stroke-dasharray="5,2" d="M104.25,-113.71C133.37,-111.95 174.49,-109.46 209.74,-107.32"/>
<polygon fill="#9a32cd" stroke="#9a32cd" points="103.87,-110.23 94.1,-114.33 104.3,-117.22 103.87,-110.23"/>
<text text-anchor="middle" x="170.5" y="-114" font-family="Helvetica,sans-Serif" font-size="10.00"> keys</text>
</g>
<!-- Node8 -->
<g id="node8" class="node">
<title>Node8</title>
<g id="a_node8"><a xlink:title=" ">
<polygon fill="white" stroke="#bfbfbf" points="216,-22.5 216,-63.5 348,-63.5 348,-22.5 216,-22.5"/>
<text text-anchor="start" x="224" y="-51.5" font-family="Helvetica,sans-Serif" font-size="10.00">std::map&lt; google::protobuf</text>
<text text-anchor="start" x="224" y="-40.5" font-family="Helvetica,sans-Serif" font-size="10.00">::FieldDescriptor::CppType,</text>
<text text-anchor="middle" x="282" y="-29.5" font-family="Helvetica,sans-Serif" font-size="10.00"> schema::field_type &gt;</text>
</a>
</g>
</g>
<!-- Node4&#45;&gt;Node8 -->
<g id="edge9" class="edge">
<title>Node4&#45;&gt;Node8</title>
<path fill="none" stroke="#9a32cd" stroke-dasharray="5,2" d="M103.58,-103.38C135.77,-92.43 182.98,-76.36 220.61,-63.55"/>
<polygon fill="#9a32cd" stroke="#9a32cd" points="102.44,-100.07 94.1,-106.61 104.7,-106.7 102.44,-100.07"/>
<text text-anchor="middle" x="170.5" y="-90" font-family="Helvetica,sans-Serif" font-size="10.00"> elements</text>
</g>
<!-- Node5 -->
<g id="node5" class="node">
<title>Node5</title>
<g id="a_node5"><a xlink:title=" ">
<polygon fill="white" stroke="#bfbfbf" points="46.5,-174.5 46.5,-193.5 84.5,-193.5 84.5,-174.5 46.5,-174.5"/>
<text text-anchor="middle" x="65.5" y="-181.5" font-family="Helvetica,sans-Serif" font-size="10.00">Type</text>
</a>
</g>
</g>
<!-- Node5&#45;&gt;Node3 -->
<g id="edge4" class="edge">
<title>Node5&#45;&gt;Node3</title>
<path fill="none" stroke="#9a32cd" stroke-dasharray="5,2" d="M94.87,-181.22C125.82,-178.19 176.38,-173.24 217,-169.27"/>
<polygon fill="#9a32cd" stroke="#9a32cd" points="94.4,-177.75 84.79,-182.21 95.08,-184.72 94.4,-177.75"/>
<text text-anchor="middle" x="170.5" y="-179" font-family="Helvetica,sans-Serif" font-size="10.00"> keys</text>
</g>
<!-- Node6&#45;&gt;Node1 -->
<g id="edge5" class="edge">
<title>Node6&#45;&gt;Node1</title>
<path fill="none" stroke="#9a32cd" stroke-dasharray="5,2" d="M364.09,-113.63C409.12,-119.54 463.91,-126.73 503.66,-131.94"/>
<polygon fill="#9a32cd" stroke="#9a32cd" points="364.42,-110.15 354.05,-112.32 363.51,-117.09 364.42,-110.15"/>
<text text-anchor="middle" x="429" y="-133" font-family="Helvetica,sans-Serif" font-size="10.00"> type_to_protobuf_type</text>
</g>
<!-- Node7 -->
<g id="node7" class="node">
<title>Node7</title>
<g id="a_node7"><a xlink:title=" ">
<polygon fill="white" stroke="#bfbfbf" points="0,-38.5 0,-57.5 131,-57.5 131,-38.5 0,-38.5"/>
<text text-anchor="middle" x="65.5" y="-45.5" font-family="Helvetica,sans-Serif" font-size="10.00">FieldDescriptorProto_Type</text>
</a>
</g>
</g>
<!-- Node7&#45;&gt;Node6 -->
<g id="edge7" class="edge">
<title>Node7&#45;&gt;Node6</title>
<path fill="none" stroke="#9a32cd" stroke-dasharray="5,2" d="M126.38,-37.78C148.07,-36.78 172.1,-38.95 192,-49 203.9,-55.01 199.5,-64.79 210,-73 214.43,-76.46 219.31,-79.59 224.39,-82.41"/>
<polygon fill="#9a32cd" stroke="#9a32cd" points="126.01,-34.3 116.28,-38.48 126.49,-41.28 126.01,-34.3"/>
<text text-anchor="middle" x="170.5" y="-52" font-family="Helvetica,sans-Serif" font-size="10.00"> elements</text>
</g>
<!-- Node8&#45;&gt;Node1 -->
<g id="edge8" class="edge">
<title>Node8&#45;&gt;Node1</title>
<path fill="none" stroke="#9a32cd" stroke-dasharray="5,2" d="M358.34,-60.49C397.13,-70.51 444.81,-84.39 486,-101 498.12,-105.89 510.88,-112.24 522.2,-118.35"/>
<polygon fill="#9a32cd" stroke="#9a32cd" points="358.72,-56.98 348.16,-57.9 356.99,-63.76 358.72,-56.98"/>
<text text-anchor="middle" x="429" y="-104" font-family="Helvetica,sans-Serif" font-size="10.00"> protobuf_ccptype_to_type</text>
</g>
<!-- Node9 -->
<g id="node9" class="node">
<title>Node9</title>
<g id="a_node9"><a xlink:title=" ">
<polygon fill="white" stroke="#bfbfbf" points="38,-0.5 38,-19.5 93,-19.5 93,-0.5 38,-0.5"/>
<text text-anchor="middle" x="65.5" y="-7.5" font-family="Helvetica,sans-Serif" font-size="10.00">CppType</text>
</a>
</g>
</g>
<!-- Node9&#45;&gt;Node8 -->
<g id="edge10" class="edge">
<title>Node9&#45;&gt;Node8</title>
<path fill="none" stroke="#9a32cd" stroke-dasharray="5,2" d="M103.36,-8.92C128.51,-8.8 162.49,-9.86 192,-15 202.21,-16.78 212.88,-19.42 223.14,-22.37"/>
<polygon fill="#9a32cd" stroke="#9a32cd" points="103.12,-5.42 93.16,-9.03 103.2,-12.42 103.12,-5.42"/>
<text text-anchor="middle" x="170.5" y="-18" font-family="Helvetica,sans-Serif" font-size="10.00"> keys</text>
</g>
</g>
</svg>
