<?xml version="1.0" encoding="UTF-8" standalone="no"?>
<!DOCTYPE svg PUBLIC "-//W3C//DTD SVG 1.1//EN"
 "http://www.w3.org/Graphics/SVG/1.1/DTD/svg11.dtd">
<!-- Generated by graphviz version 2.42.3 ()
 -->
<!-- Title: automaton::core::data::protobuf::protobuf_factory Pages: 1 -->
<!--zoomable 241 -->
<svg id="main" version="1.1" xmlns="http://www.w3.org/2000/svg" xmlns:xlink="http://www.w3.org/1999/xlink" xml:space="preserve" onload="init(evt)">
<style type="text/css"><![CDATA[
.edge:hover path { stroke: red; }
.edge:hover polygon { stroke: red; fill: red; }
]]></style>
<script type="text/javascript"><![CDATA[
var edges = document.getElementsByTagName('g');
if (edges && edges.length) {
  for (var i=0;i<edges.length;i++) {
    if (edges[i].id.substr(0,4)=='edge') {
      edges[i].setAttribute('class','edge');
    }
  }
}
]]></script>
        <defs>
                <circle id="rim" cx="0" cy="0" r="7"/>
                <circle id="rim2" cx="0" cy="0" r="3.5"/>
                <g id="zoomPlus">
                        <use xlink:href="#rim" fill="#404040">
                                <set attributeName="fill" to="#808080" begin="zoomplus.mouseover" end="zoomplus.mouseout"/>
                        </use>
                        <path d="M-4,0h8M0,-4v8" fill="none" stroke="white" stroke-width="1.5" pointer-events="none"/>
                </g>
                <g id="zoomMin">
                        <use xlink:href="#rim" fill="#404040">
                                <set attributeName="fill" to="#808080" begin="zoomminus.mouseover" end="zoomminus.mouseout"/>
                        </use>
                        <path d="M-4,0h8" fill="none" stroke="white" stroke-width="1.5" pointer-events="none"/>
                </g>
                <g id="dirArrow">
                        <path fill="none" stroke="white" stroke-width="1.5" d="M0,-3.0v7 M-2.5,-0.5L0,-3.0L2.5,-0.5"/>
                </g>
               <g id="resetDef">
                       <use xlink:href="#rim2" fill="#404040">
                               <set attributeName="fill" to="#808080" begin="reset.mouseover" end="reset.mouseout"/>
                       </use>
               </g>
        </defs>

<script type="text/javascript">
var viewWidth = 621;
var viewHeight = 241;
var sectionId = 'dynsection-1';
</script>
<script xlink:href="../../svgpan.js"/>
<svg id="graph" class="graph">
<g id="viewport">
<title>automaton::core::data::protobuf::protobuf_factory</title>
<polygon fill="white" stroke="transparent" points="-4,4 -4,-236.5 617,-236.5 617,4 -4,4"/>
<!-- Node1 -->
<g id="node1" class="node">
<title>Node1</title>
<g id="a_node1"><a xlink:title=" ">
<polygon fill="#bfbfbf" stroke="black" points="504,-118.5 504,-159.5 613,-159.5 613,-118.5 504,-118.5"/>
<text text-anchor="start" x="512" y="-147.5" font-family="Helvetica,sans-Serif" font-size="10.00">automaton::core::data</text>
<text text-anchor="start" x="512" y="-136.5" font-family="Helvetica,sans-Serif" font-size="10.00">::protobuf::protobuf</text>
<text text-anchor="middle" x="558.5" y="-125.5" font-family="Helvetica,sans-Serif" font-size="10.00">_factory</text>
</a>
</g>
</g>
<!-- Node2 -->
<g id="node2" class="node">
<title>Node2</title>
<g id="a_node2"><a xlink:href="../../d2/d94/classautomaton_1_1core_1_1data_1_1factory.html" target="_top" xlink:title=" ">
<polygon fill="white" stroke="black" points="227.5,-202 227.5,-232 336.5,-232 336.5,-202 227.5,-202"/>
<text text-anchor="start" x="235.5" y="-220" font-family="Helvetica,sans-Serif" font-size="10.00">automaton::core::data</text>
<text text-anchor="middle" x="282" y="-209" font-family="Helvetica,sans-Serif" font-size="10.00">::factory</text>
</a>
</g>
</g>
<!-- Node2&#45;&gt;Node1 -->
<g id="edge1" class="edge">
<title>Node2&#45;&gt;Node1</title>
<path fill="none" stroke="midnightblue" d="M346.72,-205.34C387.13,-197.19 440.23,-185.08 486,-170 495,-167.04 504.42,-163.38 513.36,-159.62"/>
<polygon fill="midnightblue" stroke="midnightblue" points="345.85,-201.95 336.73,-207.33 347.22,-208.81 345.85,-201.95"/>
</g>
<!-- Node3 -->
<g id="node3" class="node">
<title>Node3</title>
<g id="a_node3"><a xlink:title=" ">
<polygon fill="white" stroke="#bfbfbf" points="217,-142.5 217,-183.5 347,-183.5 347,-142.5 217,-142.5"/>
<text text-anchor="start" x="225" y="-171.5" font-family="Helvetica,sans-Serif" font-size="10.00">std::map&lt; google::protobuf</text>
<text text-anchor="start" x="225" y="-160.5" font-family="Helvetica,sans-Serif" font-size="10.00">::FieldDescriptor::Type,</text>
<text text-anchor="middle" x="282" y="-149.5" font-family="Helvetica,sans-Serif" font-size="10.00"> schema::field_type &gt;</text>
</a>
</g>
</g>
<!-- Node3&#45;&gt;Node1 -->
<g id="edge2" class="edge">
<title>Node3&#45;&gt;Node1</title>
<path fill="none" stroke="#9a32cd" stroke-dasharray="5,2" d="M356.98,-156.53C403.21,-152.49 461.71,-147.38 503.57,-143.72"/>
<polygon fill="#9a32cd" stroke="#9a32cd" points="356.67,-153.05 347.01,-157.4 357.28,-160.02 356.67,-153.05"/>
<text text-anchor="middle" x="429" y="-158" font-family="Helvetica,sans-Serif" font-size="10.00"> protobuf_type_to_type</text>
</g>
<!-- Node4 -->
<g id="node4" class="node">
<title>Node4</title>
<g id="a_node4"><a xlink:title=" ">
<polygon fill="white" stroke="#bfbfbf" points="37,-106.5 37,-125.5 94,-125.5 94,-106.5 37,-106.5"/>
<text text-anchor="middle" x="65.5" y="-113.5" font-family="Helvetica,sans-Serif" font-size="10.00">field_type</text>
</a>
</g>
</g>
<!-- Node4&#45;&gt;Node3 -->
<g id="edge3" class="edge">
<title>Node4&#45;&gt;Node3</title>
<path fill="none" stroke="#9a32cd" stroke-dasharray="5,2" d="M104.07,-124.23C135.1,-131.03 179.86,-140.84 216.59,-148.89"/>
<polygon fill="#9a32cd" stroke="#9a32cd" points="104.62,-120.77 94.1,-122.05 103.12,-127.61 104.62,-120.77"/>
<text text-anchor="middle" x="170.5" y="-146" font-family="Helvetica,sans-Serif" font-size="10.00"> elements</text>
</g>
<!-- Node6 -->
<g id="node6" class="node">
<title>Node6</title>
<g id="a_node6"><a xlink:title=" ">
<polygon fill="white" stroke="#bfbfbf" points="210,-82.5 210,-123.5 354,-123.5 354,-82.5 210,-82.5"/>
<text text-anchor="start" x="218" y="-111.5" font-family="Helvetica,sans-Serif" font-size="10.00">std::map&lt; schema::field</text>
<text text-anchor="start" x="218" y="-100.5" font-family="Helvetica,sans-Serif" font-size="10.00">_type, google::protobuf</text>
<text text-anchor="middle" x="282" y="-89.5" font-family="Helvetica,sans-Serif" font-size="10.00">::FieldDescriptorProto_Type &gt;</text>
</a>
</g>
</g>
<!-- Node4&#45;&gt;Node6 -->
<g id="edge6" class="edge">
<title>Node4&#45;&gt;Node6</title>
<path fill="none" stroke="#9a32cd" stroke-dasharray="5,2" d="M104.25,-113.71C133.37,-111.95 174.49,-109.46 209.74,-107.32"/>
<polygon fill="#9a32cd" stroke="#9a32cd" points="103.87,-110.23 94.1,-114.33 104.3,-117.22 103.87,-110.23"/>
<text text-anchor="middle" x="170.5" y="-114" font-family="Helvetica,sans-Serif" font-size="10.00"> keys</text>
</g>
<!-- Node8 -->
<g id="node8" class="node">
<title>Node8</title>
<g id="a_node8"><a xlink:title=" ">
<polygon fill="white" stroke="#bfbfbf" points="216,-22.5 216,-63.5 348,-63.5 348,-22.5 216,-22.5"/>
<text text-anchor="start" x="224" y="-51.5" font-family="Helvetica,sans-Serif" font-size="10.00">std::map&lt; google::protobuf</text>
<text text-anchor="start" x="224" y="-40.5" font-family="Helvetica,sans-Serif" font-size="10.00">::FieldDescriptor::CppType,</text>
<text text-anchor="middle" x="282" y="-29.5" font-family="Helvetica,sans-Serif" font-size="10.00"> schema::field_type &gt;</text>
</a>
</g>
</g>
<!-- Node4&#45;&gt;Node8 -->
<g id="edge9" class="edge">
<title>Node4&#45;&gt;Node8</title>
<path fill="none" stroke="#9a32cd" stroke-dasharray="5,2" d="M103.58,-103.38C135.77,-92.43 182.98,-76.36 220.61,-63.55"/>
<polygon fill="#9a32cd" stroke="#9a32cd" points="102.44,-100.07 94.1,-106.61 104.7,-106.7 102.44,-100.07"/>
<text text-anchor="middle" x="170.5" y="-90" font-family="Helvetica,sans-Serif" font-size="10.00"> elements</text>
</g>
<!-- Node5 -->
<g id="node5" class="node">
<title>Node5</title>
<g id="a_node5"><a xlink:title=" ">
<polygon fill="white" stroke="#bfbfbf" points="46.5,-174.5 46.5,-193.5 84.5,-193.5 84.5,-174.5 46.5,-174.5"/>
<text text-anchor="middle" x="65.5" y="-181.5" font-family="Helvetica,sans-Serif" font-size="10.00">Type</text>
</a>
</g>
</g>
<!-- Node5&#45;&gt;Node3 -->
<g id="edge4" class="edge">
<title>Node5&#45;&gt;Node3</title>
<path fill="none" stroke="#9a32cd" stroke-dasharray="5,2" d="M94.87,-181.22C125.82,-178.19 176.38,-173.24 217,-169.27"/>
<polygon fill="#9a32cd" stroke="#9a32cd" points="94.4,-177.75 84.79,-182.21 95.08,-184.72 94.4,-177.75"/>
<text text-anchor="middle" x="170.5" y="-179" font-family="Helvetica,sans-Serif" font-size="10.00"> keys</text>
</g>
<!-- Node6&#45;&gt;Node1 -->
<g id="edge5" class="edge">
<title>Node6&#45;&gt;Node1</title>
<path fill="none" stroke="#9a32cd" stroke-dasharray="5,2" d="M364.09,-113.63C409.12,-119.54 463.91,-126.73 503.66,-131.94"/>
<polygon fill="#9a32cd" stroke="#9a32cd" points="364.42,-110.15 354.05,-112.32 363.51,-117.09 364.42,-110.15"/>
<text text-anchor="middle" x="429" y="-133" font-family="Helvetica,sans-Serif" font-size="10.00"> type_to_protobuf_type</text>
</g>
<!-- Node7 -->
<g id="node7" class="node">
<title>Node7</title>
<g id="a_node7"><a xlink:title=" ">
<polygon fill="white" stroke="#bfbfbf" points="0,-38.5 0,-57.5 131,-57.5 131,-38.5 0,-38.5"/>
<text text-anchor="middle" x="65.5" y="-45.5" font-family="Helvetica,sans-Serif" font-size="10.00">FieldDescriptorProto_Type</text>
</a>
</g>
</g>
<!-- Node7&#45;&gt;Node6 -->
<g id="edge7" class="edge">
<title>Node7&#45;&gt;Node6</title>
<path fill="none" stroke="#9a32cd" stroke-dasharray="5,2" d="M126.38,-37.78C148.07,-36.78 172.1,-38.95 192,-49 203.9,-55.01 199.5,-64.79 210,-73 214.43,-76.46 219.31,-79.59 224.39,-82.41"/>
<polygon fill="#9a32cd" stroke="#9a32cd" points="126.01,-34.3 116.28,-38.48 126.49,-41.28 126.01,-34.3"/>
<text text-anchor="middle" x="170.5" y="-52" font-family="Helvetica,sans-Serif" font-size="10.00"> elements</text>
</g>
<!-- Node8&#45;&gt;Node1 -->
<g id="edge8" class="edge">
<title>Node8&#45;&gt;Node1</title>
<path fill="none" stroke="#9a32cd" stroke-dasharray="5,2" d="M358.34,-60.49C397.13,-70.51 444.81,-84.39 486,-101 498.12,-105.89 510.88,-112.24 522.2,-118.35"/>
<polygon fill="#9a32cd" stroke="#9a32cd" points="358.72,-56.98 348.16,-57.9 356.99,-63.76 358.72,-56.98"/>
<text text-anchor="middle" x="429" y="-104" font-family="Helvetica,sans-Serif" font-size="10.00"> protobuf_ccptype_to_type</text>
</g>
<!-- Node9 -->
<g id="node9" class="node">
<title>Node9</title>
<g id="a_node9"><a xlink:title=" ">
<polygon fill="white" stroke="#bfbfbf" points="38,-0.5 38,-19.5 93,-19.5 93,-0.5 38,-0.5"/>
<text text-anchor="middle" x="65.5" y="-7.5" font-family="Helvetica,sans-Serif" font-size="10.00">CppType</text>
</a>
</g>
</g>
<!-- Node9&#45;&gt;Node8 -->
<g id="edge10" class="edge">
<title>Node9&#45;&gt;Node8</title>
<path fill="none" stroke="#9a32cd" stroke-dasharray="5,2" d="M103.36,-8.92C128.51,-8.8 162.49,-9.86 192,-15 202.21,-16.78 212.88,-19.42 223.14,-22.37"/>
<polygon fill="#9a32cd" stroke="#9a32cd" points="103.12,-5.42 93.16,-9.03 103.2,-12.42 103.12,-5.42"/>
<text text-anchor="middle" x="170.5" y="-18" font-family="Helvetica,sans-Serif" font-size="10.00"> keys</text>
</g>
</g>
</svg>
        <g id="navigator" transform="translate(0 0)" fill="#404254">
                <rect fill="#f2f5e9" fill-opacity="0.5" stroke="#606060" stroke-width=".5" x="0" y="0" width="60" height="60"/>
                <use id="zoomplus" xlink:href="#zoomPlus" x="17" y="9" onmousedown="handleZoom(evt,'in')"/>
                <use id="zoomminus" xlink:href="#zoomMin" x="42" y="9" onmousedown="handleZoom(evt,'out')"/>
                <use id="reset" xlink:href="#resetDef" x="30" y="36" onmousedown="handleReset()"/>
                <g id="arrowUp" xlink:href="#dirArrow" transform="translate(30 24)" onmousedown="handlePan(0,-1)">
                  <use xlink:href="#rim" fill="#404040">
                        <set attributeName="fill" to="#808080" begin="arrowUp.mouseover" end="arrowUp.mouseout"/>
                  </use>
                  <path fill="none" stroke="white" stroke-width="1.5" d="M0,-3.0v7 M-2.5,-0.5L0,-3.0L2.5,-0.5"/>
                </g>
                <g id="arrowRight" xlink:href="#dirArrow" transform="rotate(90) translate(36 -43)" onmousedown="handlePan(1,0)">
                  <use xlink:href="#rim" fill="#404040">
                        <set attributeName="fill" to="#808080" begin="arrowRight.mouseover" end="arrowRight.mouseout"/>
                  </use>
                  <path fill="none" stroke="white" stroke-width="1.5" d="M0,-3.0v7 M-2.5,-0.5L0,-3.0L2.5,-0.5"/>
                </g>
                <g id="arrowDown" xlink:href="#dirArrow" transform="rotate(180) translate(-30 -48)" onmousedown="handlePan(0,1)">
                  <use xlink:href="#rim" fill="#404040">
                        <set attributeName="fill" to="#808080" begin="arrowDown.mouseover" end="arrowDown.mouseout"/>
                  </use>
                  <path fill="none" stroke="white" stroke-width="1.5" d="M0,-3.0v7 M-2.5,-0.5L0,-3.0L2.5,-0.5"/>
                </g>
                <g id="arrowLeft" xlink:href="#dirArrow" transform="rotate(270) translate(-36 17)" onmousedown="handlePan(-1,0)">
                  <use xlink:href="#rim" fill="#404040">
                        <set attributeName="fill" to="#808080" begin="arrowLeft.mouseover" end="arrowLeft.mouseout"/>
                  </use>
                  <path fill="none" stroke="white" stroke-width="1.5" d="M0,-3.0v7 M-2.5,-0.5L0,-3.0L2.5,-0.5"/>
                </g>
        </g>
        <svg viewBox="0 0 15 15" width="100%" height="30px" preserveAspectRatio="xMaxYMin meet">
         <g id="arrow_out" transform="scale(0.3 0.3)">
          <a xlink:href="classautomaton_1_1core_1_1data_1_1protobuf_1_1protobuf__factory__coll__graph_org.svg" target="_base">
           <rect id="button" ry="5" rx="5" y="6" x="6" height="38" width="38"
                fill="#f2f5e9" fill-opacity="0.5" stroke="#606060" stroke-width="1.0"/>
           <path id="arrow"
             d="M 11.500037,31.436501 C 11.940474,20.09759 22.043105,11.32322 32.158766,21.979434 L 37.068811,17.246167 C 37.068811,17.246167 37.088388,32 37.088388,32 L 22.160133,31.978069 C 22.160133,31.978069 26.997745,27.140456 26.997745,27.140456 C 18.528582,18.264221 13.291696,25.230495 11.500037,31.436501 z"
             style="fill:#404040;"/>
          </a>
         </g>
        </svg>
</svg>
