<?xml version="1.0" encoding="UTF-8" standalone="no"?>
<!DOCTYPE svg PUBLIC "-//W3C//DTD SVG 1.1//EN"
 "http://www.w3.org/Graphics/SVG/1.1/DTD/svg11.dtd">
<!-- Generated by graphviz version 2.44.0 ()
 -->
<!-- Title: automaton::core::common::status::status Pages: 1 -->
<!--zoomable 725 -->
<svg id="main" version="1.1" xmlns="http://www.w3.org/2000/svg" xmlns:xlink="http://www.w3.org/1999/xlink" xml:space="preserve" onload="init(evt)">
<style type="text/css"><![CDATA[
.edge:hover path { stroke: red; }
.edge:hover polygon { stroke: red; fill: red; }
]]></style>
<script type="text/javascript"><![CDATA[
var edges = document.getElementsByTagName('g');
if (edges && edges.length) {
  for (var i=0;i<edges.length;i++) {
    if (edges[i].id.substr(0,4)=='edge') {
      edges[i].setAttribute('class','edge');
    }
  }
}
]]></script>
        <defs>
                <circle id="rim" cx="0" cy="0" r="7"/>
                <circle id="rim2" cx="0" cy="0" r="3.5"/>
                <g id="zoomPlus">
                        <use xlink:href="#rim" fill="#404040">
                                <set attributeName="fill" to="#808080" begin="zoomplus.mouseover" end="zoomplus.mouseout"/>
                        </use>
                        <path d="M-4,0h8M0,-4v8" fill="none" stroke="white" stroke-width="1.5" pointer-events="none"/>
                </g>
                <g id="zoomMin">
                        <use xlink:href="#rim" fill="#404040">
                                <set attributeName="fill" to="#808080" begin="zoomminus.mouseover" end="zoomminus.mouseout"/>
                        </use>
                        <path d="M-4,0h8" fill="none" stroke="white" stroke-width="1.5" pointer-events="none"/>
                </g>
                <g id="dirArrow">
                        <path fill="none" stroke="white" stroke-width="1.5" d="M0,-3.0v7 M-2.5,-0.5L0,-3.0L2.5,-0.5"/>
                </g>
               <g id="resetDef">
                       <use xlink:href="#rim2" fill="#404040">
                               <set attributeName="fill" to="#808080" begin="reset.mouseover" end="reset.mouseout"/>
                       </use>
               </g>
        </defs>

<script type="text/javascript">
var viewWidth = 615;
var viewHeight = 725;
var sectionId = 'dynsection-1';
</script>
<script xlink:href="../../svgpan.js"/>
<svg id="graph" class="graph">
<g id="viewport">
<title>automaton::core::common::status::status</title>
<polygon fill="white" stroke="transparent" points="-4,4 -4,-721 611,-721 611,4 -4,4"/>
<!-- Node1 -->
<g id="node1" class="node">
<title>Node1</title>
<g id="a_node1"><a xlink:title=" ">
<polygon fill="#bfbfbf" stroke="black" points="479,-343.5 479,-373.5 607,-373.5 607,-343.5 479,-343.5"/>
<text text-anchor="start" x="487" y="-361.5" font-family="Helvetica,sans-Serif" font-size="10.00">automaton::core::common</text>
<text text-anchor="middle" x="543" y="-350.5" font-family="Helvetica,sans-Serif" font-size="10.00">::status::status</text>
</a>
</g>
</g>
<!-- Node2 -->
<g id="node2" class="node">
<title>Node2</title>
<g id="a_node2"><a xlink:href="../../da/d6a/structautomaton_1_1core_1_1common_1_1status.html#af443d79cd577ca6aa163eabfce97fe1f" target="_top" xlink:title=" ">
<polygon fill="white" stroke="black" points="309,-686.5 309,-716.5 437,-716.5 437,-686.5 309,-686.5"/>
<text text-anchor="start" x="317" y="-704.5" font-family="Helvetica,sans-Serif" font-size="10.00">automaton::core::common</text>
<text text-anchor="middle" x="373" y="-693.5" font-family="Helvetica,sans-Serif" font-size="10.00">::status::aborted</text>
</a>
</g>
</g>
<!-- Node1&#45;&gt;Node2 -->
<g id="edge1" class="edge">
<title>Node1&#45;&gt;Node2</title>
<path fill="none" stroke="midnightblue" d="M541.51,-383.87C538.98,-443.38 524.41,-593.29 443,-677.5 439.65,-680.97 435.77,-683.93 431.6,-686.47"/>
<polygon fill="midnightblue" stroke="midnightblue" points="545.02,-383.64 541.86,-373.53 538.02,-383.4 545.02,-383.64"/>
</g>
<!-- Node3 -->
<g id="node3" class="node">
<title>Node3</title>
<g id="a_node3"><a xlink:href="../../da/d6a/structautomaton_1_1core_1_1common_1_1status.html#ac800f84c2b44b50f51806a4ddb11e07d" target="_top" xlink:title=" ">
<polygon fill="white" stroke="black" points="309,-637.5 309,-667.5 437,-667.5 437,-637.5 309,-637.5"/>
<text text-anchor="start" x="317" y="-655.5" font-family="Helvetica,sans-Serif" font-size="10.00">automaton::core::common</text>
<text text-anchor="middle" x="373" y="-644.5" font-family="Helvetica,sans-Serif" font-size="10.00">::status::canceled</text>
</a>
</g>
</g>
<!-- Node1&#45;&gt;Node3 -->
<g id="edge2" class="edge">
<title>Node1&#45;&gt;Node3</title>
<path fill="none" stroke="midnightblue" d="M539.82,-383.93C533.95,-436.84 513.12,-559.54 443,-628.5 439.47,-631.97 435.42,-634.94 431.08,-637.48"/>
<polygon fill="midnightblue" stroke="midnightblue" points="543.33,-384.05 540.86,-373.75 536.36,-383.34 543.33,-384.05"/>
</g>
<!-- Node6 -->
<g id="node6" class="node">
<title>Node6</title>
<g id="a_node6"><a xlink:href="../../da/d6a/structautomaton_1_1core_1_1common_1_1status.html#a6764b7184b2b3b1b8fd209521e6d1e93" target="_top" xlink:title=" ">
<polygon fill="white" stroke="black" points="309,-588.5 309,-618.5 437,-618.5 437,-588.5 309,-588.5"/>
<text text-anchor="start" x="317" y="-606.5" font-family="Helvetica,sans-Serif" font-size="10.00">automaton::core::common</text>
<text text-anchor="middle" x="373" y="-595.5" font-family="Helvetica,sans-Serif" font-size="10.00">::status::data_loss</text>
</a>
</g>
</g>
<!-- Node1&#45;&gt;Node6 -->
<g id="edge5" class="edge">
<title>Node1&#45;&gt;Node6</title>
<path fill="none" stroke="midnightblue" d="M537.57,-383.39C528.21,-428.74 502.23,-525.18 443,-579.5 439.26,-582.93 435.01,-585.87 430.49,-588.4"/>
<polygon fill="midnightblue" stroke="midnightblue" points="541.01,-384 539.5,-373.51 534.14,-382.65 541.01,-384"/>
</g>
<!-- Node7 -->
<g id="node7" class="node">
<title>Node7</title>
<g id="a_node7"><a xlink:href="../../da/d6a/structautomaton_1_1core_1_1common_1_1status.html#aa35eacdb95167b5db1cff056c0e42522" target="_top" xlink:title=" ">
<polygon fill="white" stroke="black" points="306,-539.5 306,-569.5 440,-569.5 440,-539.5 306,-539.5"/>
<text text-anchor="start" x="314" y="-557.5" font-family="Helvetica,sans-Serif" font-size="10.00">automaton::core::common</text>
<text text-anchor="middle" x="373" y="-546.5" font-family="Helvetica,sans-Serif" font-size="10.00">::status::failed_precondition</text>
</a>
</g>
</g>
<!-- Node1&#45;&gt;Node7 -->
<g id="edge6" class="edge">
<title>Node1&#45;&gt;Node7</title>
<path fill="none" stroke="midnightblue" d="M534.15,-383.06C521.08,-420.17 491.39,-490.43 443,-530.5 438.9,-533.9 434.28,-536.83 429.44,-539.35"/>
<polygon fill="midnightblue" stroke="midnightblue" points="537.49,-384.12 537.4,-373.53 530.86,-381.87 537.49,-384.12"/>
</g>
<!-- Node8 -->
<g id="node8" class="node">
<title>Node8</title>
<g id="a_node8"><a xlink:href="../../da/d6a/structautomaton_1_1core_1_1common_1_1status.html#aae17dae988a8d339352fb67ed2faf9b4" target="_top" xlink:title=" ">
<polygon fill="white" stroke="black" points="309,-490.5 309,-520.5 437,-520.5 437,-490.5 309,-490.5"/>
<text text-anchor="start" x="317" y="-508.5" font-family="Helvetica,sans-Serif" font-size="10.00">automaton::core::common</text>
<text text-anchor="middle" x="373" y="-497.5" font-family="Helvetica,sans-Serif" font-size="10.00">::status::internal</text>
</a>
</g>
</g>
<!-- Node1&#45;&gt;Node8 -->
<g id="edge8" class="edge">
<title>Node1&#45;&gt;Node8</title>
<path fill="none" stroke="midnightblue" d="M528.56,-382.26C511.85,-409.81 480.85,-454.83 443,-481.5 438.13,-484.93 432.72,-487.92 427.13,-490.5"/>
<polygon fill="midnightblue" stroke="midnightblue" points="531.58,-384.03 533.67,-373.64 525.56,-380.46 531.58,-384.03"/>
</g>
<!-- Node9 -->
<g id="node9" class="node">
<title>Node9</title>
<g id="a_node9"><a xlink:href="../../da/d6a/structautomaton_1_1core_1_1common_1_1status.html#a796ac69f85dabad93749ea029f32e49f" target="_top" xlink:title=" ">
<polygon fill="white" stroke="black" points="309,-441.5 309,-471.5 437,-471.5 437,-441.5 309,-441.5"/>
<text text-anchor="start" x="317" y="-459.5" font-family="Helvetica,sans-Serif" font-size="10.00">automaton::core::common</text>
<text text-anchor="middle" x="373" y="-448.5" font-family="Helvetica,sans-Serif" font-size="10.00">::status::invalid_argument</text>
</a>
</g>
</g>
<!-- Node1&#45;&gt;Node9 -->
<g id="edge9" class="edge">
<title>Node1&#45;&gt;Node9</title>
<path fill="none" stroke="midnightblue" d="M517.55,-380.15C498.35,-396.29 470.36,-417.97 443,-432.5 436.84,-435.77 430.14,-438.75 423.42,-441.4"/>
<polygon fill="midnightblue" stroke="midnightblue" points="519.88,-382.76 525.22,-373.61 515.34,-377.44 519.88,-382.76"/>
</g>
<!-- Node10 -->
<g id="node10" class="node">
<title>Node10</title>
<g id="a_node10"><a xlink:href="../../da/d6a/structautomaton_1_1core_1_1common_1_1status.html#a65107e7d035f597114209a9c543e3589" target="_top" xlink:title=" ">
<polygon fill="white" stroke="black" points="309,-392.5 309,-422.5 437,-422.5 437,-392.5 309,-392.5"/>
<text text-anchor="start" x="317" y="-410.5" font-family="Helvetica,sans-Serif" font-size="10.00">automaton::core::common</text>
<text text-anchor="middle" x="373" y="-399.5" font-family="Helvetica,sans-Serif" font-size="10.00">::status::not_found</text>
</a>
</g>
</g>
<!-- Node1&#45;&gt;Node10 -->
<g id="edge10" class="edge">
<title>Node1&#45;&gt;Node10</title>
<path fill="none" stroke="midnightblue" d="M480.4,-376.47C462.4,-381.72 442.92,-387.4 425.61,-392.45"/>
<polygon fill="midnightblue" stroke="midnightblue" points="481.6,-379.76 490.22,-373.6 479.64,-373.04 481.6,-379.76"/>
</g>
<!-- Node11 -->
<g id="node11" class="node">
<title>Node11</title>
<g id="a_node11"><a xlink:href="../../da/d6a/structautomaton_1_1core_1_1common_1_1status.html#a4fbf84d20d1541a4e8805b55d707b5cb" target="_top" xlink:title=" ">
<polygon fill="white" stroke="black" points="309,-343.5 309,-373.5 437,-373.5 437,-343.5 309,-343.5"/>
<text text-anchor="start" x="317" y="-361.5" font-family="Helvetica,sans-Serif" font-size="10.00">automaton::core::common</text>
<text text-anchor="middle" x="373" y="-350.5" font-family="Helvetica,sans-Serif" font-size="10.00">::status::ok</text>
</a>
</g>
</g>
<!-- Node1&#45;&gt;Node11 -->
<g id="edge11" class="edge">
<title>Node1&#45;&gt;Node11</title>
<path fill="none" stroke="midnightblue" d="M468.9,-358.5C458.31,-358.5 447.48,-358.5 437.11,-358.5"/>
<polygon fill="midnightblue" stroke="midnightblue" points="468.97,-362 478.97,-358.5 468.96,-355 468.97,-362"/>
</g>
<!-- Node12 -->
<g id="node12" class="node">
<title>Node12</title>
<g id="a_node12"><a xlink:href="../../da/d6a/structautomaton_1_1core_1_1common_1_1status.html#ae8661decd8e63f5bd5cf9f667777ab6e" target="_top" xlink:title=" ">
<polygon fill="white" stroke="black" points="309,-294.5 309,-324.5 437,-324.5 437,-294.5 309,-294.5"/>
<text text-anchor="start" x="317" y="-312.5" font-family="Helvetica,sans-Serif" font-size="10.00">automaton::core::common</text>
<text text-anchor="middle" x="373" y="-301.5" font-family="Helvetica,sans-Serif" font-size="10.00">::status::out_of_range</text>
</a>
</g>
</g>
<!-- Node1&#45;&gt;Node12 -->
<g id="edge12" class="edge">
<title>Node1&#45;&gt;Node12</title>
<path fill="none" stroke="midnightblue" d="M480.4,-340.53C462.4,-335.28 442.92,-329.6 425.61,-324.55"/>
<polygon fill="midnightblue" stroke="midnightblue" points="479.64,-343.96 490.22,-343.4 481.6,-337.24 479.64,-343.96"/>
</g>
<!-- Node13 -->
<g id="node13" class="node">
<title>Node13</title>
<g id="a_node13"><a xlink:href="../../da/d6a/structautomaton_1_1core_1_1common_1_1status.html#a9d2bbb1120772785cb3c4eccb9f63878" target="_top" xlink:title=" ">
<polygon fill="white" stroke="black" points="306,-245.5 306,-275.5 440,-275.5 440,-245.5 306,-245.5"/>
<text text-anchor="start" x="314" y="-263.5" font-family="Helvetica,sans-Serif" font-size="10.00">automaton::core::common</text>
<text text-anchor="middle" x="373" y="-252.5" font-family="Helvetica,sans-Serif" font-size="10.00">::status::permission_denied</text>
</a>
</g>
</g>
<!-- Node1&#45;&gt;Node13 -->
<g id="edge13" class="edge">
<title>Node1&#45;&gt;Node13</title>
<path fill="none" stroke="midnightblue" d="M517.1,-336.98C497.85,-321.15 470.02,-299.96 443,-285.5 436.15,-281.83 428.64,-278.49 421.19,-275.53"/>
<polygon fill="midnightblue" stroke="midnightblue" points="514.87,-339.68 524.8,-343.4 519.36,-334.3 514.87,-339.68"/>
</g>
<!-- Node14 -->
<g id="node14" class="node">
<title>Node14</title>
<g id="a_node14"><a xlink:href="../../da/d6a/structautomaton_1_1core_1_1common_1_1status.html#a73b7bf3aeafed610db3632fc41948f87" target="_top" xlink:title=" ">
<polygon fill="white" stroke="black" points="303,-196.5 303,-226.5 443,-226.5 443,-196.5 303,-196.5"/>
<text text-anchor="start" x="311" y="-214.5" font-family="Helvetica,sans-Serif" font-size="10.00">automaton::core::common</text>
<text text-anchor="middle" x="373" y="-203.5" font-family="Helvetica,sans-Serif" font-size="10.00">::status::resource_exhausted</text>
</a>
</g>
</g>
<!-- Node1&#45;&gt;Node14 -->
<g id="edge14" class="edge">
<title>Node1&#45;&gt;Node14</title>
<path fill="none" stroke="midnightblue" d="M527.97,-334.23C511.04,-306.92 480.18,-262.95 443,-236.5 437.6,-232.66 431.55,-229.35 425.33,-226.51"/>
<polygon fill="midnightblue" stroke="midnightblue" points="525.19,-336.39 533.36,-343.13 531.17,-332.77 525.19,-336.39"/>
</g>
<!-- Node15 -->
<g id="node15" class="node">
<title>Node15</title>
<g id="a_node15"><a xlink:href="../../da/d6a/structautomaton_1_1core_1_1common_1_1status.html#ad3da3ba8182a63cd833332f3117e9920" target="_top" xlink:title=" ">
<polygon fill="white" stroke="black" points="309,-147.5 309,-177.5 437,-177.5 437,-147.5 309,-147.5"/>
<text text-anchor="start" x="317" y="-165.5" font-family="Helvetica,sans-Serif" font-size="10.00">automaton::core::common</text>
<text text-anchor="middle" x="373" y="-154.5" font-family="Helvetica,sans-Serif" font-size="10.00">::status::to_string</text>
</a>
</g>
</g>
<!-- Node1&#45;&gt;Node15 -->
<g id="edge15" class="edge">
<title>Node1&#45;&gt;Node15</title>
<path fill="none" stroke="midnightblue" d="M533.95,-333.88C520.68,-297.02 490.85,-227.55 443,-187.5 438.41,-183.66 433.18,-180.38 427.69,-177.6"/>
<polygon fill="midnightblue" stroke="midnightblue" points="530.65,-335.07 537.25,-343.36 537.26,-332.76 530.65,-335.07"/>
</g>
<!-- Node16 -->
<g id="node16" class="node">
<title>Node16</title>
<g id="a_node16"><a xlink:href="../../da/d6a/structautomaton_1_1core_1_1common_1_1status.html#a1fef72dd7f8d25ba1c86d537c61ab8e2" target="_top" xlink:title=" ">
<polygon fill="white" stroke="black" points="309,-98.5 309,-128.5 437,-128.5 437,-98.5 309,-98.5"/>
<text text-anchor="start" x="317" y="-116.5" font-family="Helvetica,sans-Serif" font-size="10.00">automaton::core::common</text>
<text text-anchor="middle" x="373" y="-105.5" font-family="Helvetica,sans-Serif" font-size="10.00">::status::unavailable</text>
</a>
</g>
</g>
<!-- Node1&#45;&gt;Node16 -->
<g id="edge16" class="edge">
<title>Node1&#45;&gt;Node16</title>
<path fill="none" stroke="midnightblue" d="M537.39,-333.47C527.81,-288.3 501.57,-192.82 443,-138.5 438.8,-134.6 433.94,-131.3 428.79,-128.51"/>
<polygon fill="midnightblue" stroke="midnightblue" points="533.97,-334.21 539.39,-343.32 540.83,-332.82 533.97,-334.21"/>
</g>
<!-- Node17 -->
<g id="node17" class="node">
<title>Node17</title>
<g id="a_node17"><a xlink:href="../../da/d6a/structautomaton_1_1core_1_1common_1_1status.html#a46a875672d49fc4fb4355632f2d8bcce" target="_top" xlink:title=" ">
<polygon fill="white" stroke="black" points="309,-49.5 309,-79.5 437,-79.5 437,-49.5 309,-49.5"/>
<text text-anchor="start" x="317" y="-67.5" font-family="Helvetica,sans-Serif" font-size="10.00">automaton::core::common</text>
<text text-anchor="middle" x="373" y="-56.5" font-family="Helvetica,sans-Serif" font-size="10.00">::status::unimplemented</text>
</a>
</g>
</g>
<!-- Node1&#45;&gt;Node17 -->
<g id="edge17" class="edge">
<title>Node1&#45;&gt;Node17</title>
<path fill="none" stroke="midnightblue" d="M539.72,-333.23C533.66,-280.65 512.49,-158.64 443,-89.5 439.12,-85.64 434.59,-82.36 429.75,-79.6"/>
<polygon fill="midnightblue" stroke="midnightblue" points="536.26,-333.78 540.8,-343.35 543.22,-333.04 536.26,-333.78"/>
</g>
<!-- Node18 -->
<g id="node18" class="node">
<title>Node18</title>
<g id="a_node18"><a xlink:href="../../da/d6a/structautomaton_1_1core_1_1common_1_1status.html#a70d1f2250a66d90992ae6c6308d22ac3" target="_top" xlink:title=" ">
<polygon fill="white" stroke="black" points="309,-0.5 309,-30.5 437,-30.5 437,-0.5 309,-0.5"/>
<text text-anchor="start" x="317" y="-18.5" font-family="Helvetica,sans-Serif" font-size="10.00">automaton::core::common</text>
<text text-anchor="middle" x="373" y="-7.5" font-family="Helvetica,sans-Serif" font-size="10.00">::status::unknown</text>
</a>
</g>
</g>
<!-- Node1&#45;&gt;Node18 -->
<g id="edge18" class="edge">
<title>Node1&#45;&gt;Node18</title>
<path fill="none" stroke="midnightblue" d="M541.39,-332.87C538.6,-273.41 523.48,-124.76 443,-40.5 439.3,-36.63 434.96,-33.36 430.29,-30.59"/>
<polygon fill="midnightblue" stroke="midnightblue" points="537.91,-333.35 541.79,-343.21 544.9,-333.08 537.91,-333.35"/>
</g>
<!-- Node4 -->
<g id="node4" class="node">
<title>Node4</title>
<g id="a_node4"><a xlink:href="../../da/d77/classautomaton_1_1core_1_1node_1_1node.html#a77a97a5dbe4e5ec2f178d289c17cea4b" target="_top" xlink:title=" ">
<polygon fill="white" stroke="black" points="156,-588.5 156,-618.5 267,-618.5 267,-588.5 156,-588.5"/>
<text text-anchor="start" x="164" y="-606.5" font-family="Helvetica,sans-Serif" font-size="10.00">automaton::core::node</text>
<text text-anchor="middle" x="211.5" y="-595.5" font-family="Helvetica,sans-Serif" font-size="10.00">::node::connect</text>
</a>
</g>
</g>
<!-- Node3&#45;&gt;Node4 -->
<g id="edge3" class="edge">
<title>Node3&#45;&gt;Node4</title>
<path fill="none" stroke="midnightblue" d="M313.04,-634.39C296.08,-629.18 277.78,-623.55 261.49,-618.55"/>
<polygon fill="midnightblue" stroke="midnightblue" points="312.26,-637.81 322.84,-637.4 314.31,-631.12 312.26,-637.81"/>
</g>
<!-- Node5 -->
<g id="node5" class="node">
<title>Node5</title>
<g id="a_node5"><a xlink:href="../../d4/d63/classautomaton_1_1core_1_1testnet_1_1testnet.html#a221db6447f8c5b873f6883bfd069b3dc" target="_top" xlink:title=" ">
<polygon fill="white" stroke="black" points="0,-588.5 0,-618.5 120,-618.5 120,-588.5 0,-588.5"/>
<text text-anchor="start" x="8" y="-606.5" font-family="Helvetica,sans-Serif" font-size="10.00">automaton::core::testnet</text>
<text text-anchor="middle" x="60" y="-595.5" font-family="Helvetica,sans-Serif" font-size="10.00">::testnet::connect</text>
</a>
</g>
</g>
<!-- Node4&#45;&gt;Node5 -->
<g id="edge4" class="edge">
<title>Node4&#45;&gt;Node5</title>
<path fill="none" stroke="midnightblue" d="M145.49,-603.5C137.05,-603.5 128.43,-603.5 120.09,-603.5"/>
<polygon fill="midnightblue" stroke="midnightblue" points="145.68,-607 155.68,-603.5 145.68,-600 145.68,-607"/>
</g>
<!-- Node7&#45;&gt;Node4 -->
<g id="edge7" class="edge">
<title>Node7&#45;&gt;Node4</title>
<path fill="none" stroke="midnightblue" d="M313.04,-572.61C296.08,-577.82 277.78,-583.45 261.49,-588.45"/>
<polygon fill="midnightblue" stroke="midnightblue" points="314.31,-575.88 322.84,-569.6 312.26,-569.19 314.31,-575.88"/>
</g>
</g>
</svg>
        <g id="navigator" transform="translate(0 0)" fill="#404254">
                <rect fill="#f2f5e9" fill-opacity="0.5" stroke="#606060" stroke-width=".5" x="0" y="0" width="60" height="60"/>
                <use id="zoomplus" xlink:href="#zoomPlus" x="17" y="9" onmousedown="handleZoom(evt,'in')"/>
                <use id="zoomminus" xlink:href="#zoomMin" x="42" y="9" onmousedown="handleZoom(evt,'out')"/>
                <use id="reset" xlink:href="#resetDef" x="30" y="36" onmousedown="handleReset()"/>
                <g id="arrowUp" xlink:href="#dirArrow" transform="translate(30 24)" onmousedown="handlePan(0,-1)">
                  <use xlink:href="#rim" fill="#404040">
                        <set attributeName="fill" to="#808080" begin="arrowUp.mouseover" end="arrowUp.mouseout"/>
                  </use>
                  <path fill="none" stroke="white" stroke-width="1.5" d="M0,-3.0v7 M-2.5,-0.5L0,-3.0L2.5,-0.5"/>
                </g>
                <g id="arrowRight" xlink:href="#dirArrow" transform="rotate(90) translate(36 -43)" onmousedown="handlePan(1,0)">
                  <use xlink:href="#rim" fill="#404040">
                        <set attributeName="fill" to="#808080" begin="arrowRight.mouseover" end="arrowRight.mouseout"/>
                  </use>
                  <path fill="none" stroke="white" stroke-width="1.5" d="M0,-3.0v7 M-2.5,-0.5L0,-3.0L2.5,-0.5"/>
                </g>
                <g id="arrowDown" xlink:href="#dirArrow" transform="rotate(180) translate(-30 -48)" onmousedown="handlePan(0,1)">
                  <use xlink:href="#rim" fill="#404040">
                        <set attributeName="fill" to="#808080" begin="arrowDown.mouseover" end="arrowDown.mouseout"/>
                  </use>
                  <path fill="none" stroke="white" stroke-width="1.5" d="M0,-3.0v7 M-2.5,-0.5L0,-3.0L2.5,-0.5"/>
                </g>
                <g id="arrowLeft" xlink:href="#dirArrow" transform="rotate(270) translate(-36 17)" onmousedown="handlePan(-1,0)">
                  <use xlink:href="#rim" fill="#404040">
                        <set attributeName="fill" to="#808080" begin="arrowLeft.mouseover" end="arrowLeft.mouseout"/>
                  </use>
                  <path fill="none" stroke="white" stroke-width="1.5" d="M0,-3.0v7 M-2.5,-0.5L0,-3.0L2.5,-0.5"/>
                </g>
        </g>
        <svg viewBox="0 0 15 15" width="100%" height="30px" preserveAspectRatio="xMaxYMin meet">
         <g id="arrow_out" transform="scale(0.3 0.3)">
          <a xlink:href="structautomaton_1_1core_1_1common_1_1status_ab1096af0cf8847d8a8f08e25afa5a61b_icgraph_org.svg" target="_base">
           <rect id="button" ry="5" rx="5" y="6" x="6" height="38" width="38"
                fill="#f2f5e9" fill-opacity="0.5" stroke="#606060" stroke-width="1.0"/>
           <path id="arrow"
             d="M 11.500037,31.436501 C 11.940474,20.09759 22.043105,11.32322 32.158766,21.979434 L 37.068811,17.246167 C 37.068811,17.246167 37.088388,32 37.088388,32 L 22.160133,31.978069 C 22.160133,31.978069 26.997745,27.140456 26.997745,27.140456 C 18.528582,18.264221 13.291696,25.230495 11.500037,31.436501 z"
             style="fill:#404040;"/>
          </a>
         </g>
        </svg>
</svg>
