<?xml version="1.0" encoding="UTF-8" standalone="no"?>
<!DOCTYPE svg PUBLIC "-//W3C//DTD SVG 1.1//EN"
 "http://www.w3.org/Graphics/SVG/1.1/DTD/svg11.dtd">
<!-- Generated by graphviz version 2.44.0 ()
 -->
<!-- Title: state_impl.cc Pages: 1 -->
<!--zoomable 218 -->
<svg id="main" version="1.1" xmlns="http://www.w3.org/2000/svg" xmlns:xlink="http://www.w3.org/1999/xlink" xml:space="preserve" onload="init(evt)">
<style type="text/css"><![CDATA[
.edge:hover path { stroke: red; }
.edge:hover polygon { stroke: red; fill: red; }
]]></style>
<script type="text/javascript"><![CDATA[
var edges = document.getElementsByTagName('g');
if (edges && edges.length) {
  for (var i=0;i<edges.length;i++) {
    if (edges[i].id.substr(0,4)=='edge') {
      edges[i].setAttribute('class','edge');
    }
  }
}
]]></script>
        <defs>
                <circle id="rim" cx="0" cy="0" r="7"/>
                <circle id="rim2" cx="0" cy="0" r="3.5"/>
                <g id="zoomPlus">
                        <use xlink:href="#rim" fill="#404040">
                                <set attributeName="fill" to="#808080" begin="zoomplus.mouseover" end="zoomplus.mouseout"/>
                        </use>
                        <path d="M-4,0h8M0,-4v8" fill="none" stroke="white" stroke-width="1.5" pointer-events="none"/>
                </g>
                <g id="zoomMin">
                        <use xlink:href="#rim" fill="#404040">
                                <set attributeName="fill" to="#808080" begin="zoomminus.mouseover" end="zoomminus.mouseout"/>
                        </use>
                        <path d="M-4,0h8" fill="none" stroke="white" stroke-width="1.5" pointer-events="none"/>
                </g>
                <g id="dirArrow">
                        <path fill="none" stroke="white" stroke-width="1.5" d="M0,-3.0v7 M-2.5,-0.5L0,-3.0L2.5,-0.5"/>
                </g>
               <g id="resetDef">
                       <use xlink:href="#rim2" fill="#404040">
                               <set attributeName="fill" to="#808080" begin="reset.mouseover" end="reset.mouseout"/>
                       </use>
               </g>
        </defs>

<script type="text/javascript">
var viewWidth = 1009;
var viewHeight = 218;
var sectionId = 'dynsection-0';
</script>
<script xlink:href="../../svgpan.js"/>
<svg id="graph" class="graph">
<g id="viewport">
<title>state_impl.cc</title>
<polygon fill="white" stroke="transparent" points="-4,4 -4,-214 1005.2,-214 1005.2,4 -4,4"/>
<!-- Node1 -->
<g id="node1" class="node">
<title>Node1</title>
<g id="a_node1"><a xlink:title=" ">
<polygon fill="#bfbfbf" stroke="black" points="511.7,-190.5 511.7,-209.5 585.7,-209.5 585.7,-190.5 511.7,-190.5"/>
<text text-anchor="middle" x="548.7" y="-197.5" font-family="Helvetica,sans-Serif" font-size="10.00">state_impl.cc</text>
</a>
</g>
</g>
<!-- Node2 -->
<g id="node2" class="node">
<title>Node2</title>
<g id="a_node2"><a xlink:href="../../d6/d0a/state__impl_8h.html" target="_top" xlink:title=" ">
<polygon fill="white" stroke="black" points="277.2,-123.5 277.2,-153.5 386.2,-153.5 386.2,-123.5 277.2,-123.5"/>
<text text-anchor="start" x="285.2" y="-141.5" font-family="Helvetica,sans-Serif" font-size="10.00">automaton/core/state</text>
<text text-anchor="middle" x="331.7" y="-130.5" font-family="Helvetica,sans-Serif" font-size="10.00">/state_impl.h</text>
</a>
</g>
</g>
<!-- Node1&#45;&gt;Node2 -->
<g id="edge1" class="edge">
<title>Node1&#45;&gt;Node2</title>
<path fill="none" stroke="midnightblue" d="M517.61,-190.48C485.13,-181.57 433.34,-167.37 392.66,-156.22"/>
<polygon fill="midnightblue" stroke="midnightblue" points="393.41,-152.79 382.85,-153.52 391.56,-159.54 393.41,-152.79"/>
</g>
<!-- Node4 -->
<g id="node4" class="node">
<title>Node4</title>
<g id="a_node4"><a xlink:title=" ">
<polygon fill="white" stroke="#bfbfbf" points="21.2,-0.5 21.2,-19.5 56.2,-19.5 56.2,-0.5 21.2,-0.5"/>
<text text-anchor="middle" x="38.7" y="-7.5" font-family="Helvetica,sans-Serif" font-size="10.00">map</text>
</a>
</g>
</g>
<!-- Node1&#45;&gt;Node4 -->
<g id="edge16" class="edge">
<title>Node1&#45;&gt;Node4</title>
<path fill="none" stroke="midnightblue" d="M511.58,-197.59C418.58,-193.69 177.7,-181.18 102.7,-154 52.75,-135.89 28.61,-133.93 3.7,-87 -6.98,-66.86 8.58,-42.85 22.23,-27.29"/>
<polygon fill="midnightblue" stroke="midnightblue" points="25.16,-29.28 29.44,-19.59 20.05,-24.5 25.16,-29.28"/>
</g>
<!-- Node5 -->
<g id="node5" class="node">
<title>Node5</title>
<g id="a_node5"><a xlink:title=" ">
<polygon fill="white" stroke="#bfbfbf" points="490.7,-62 490.7,-81 520.7,-81 520.7,-62 490.7,-62"/>
<text text-anchor="middle" x="505.7" y="-69" font-family="Helvetica,sans-Serif" font-size="10.00">set</text>
</a>
</g>
</g>
<!-- Node1&#45;&gt;Node5 -->
<g id="edge17" class="edge">
<title>Node1&#45;&gt;Node5</title>
<path fill="none" stroke="midnightblue" d="M545.75,-190.31C538.81,-169.9 521.37,-118.6 511.96,-90.91"/>
<polygon fill="midnightblue" stroke="midnightblue" points="515.21,-89.6 508.68,-81.26 508.58,-91.85 515.21,-89.6"/>
</g>
<!-- Node6 -->
<g id="node6" class="node">
<title>Node6</title>
<g id="a_node6"><a xlink:title=" ">
<polygon fill="white" stroke="#bfbfbf" points="212.2,-0.5 212.2,-19.5 253.2,-19.5 253.2,-0.5 212.2,-0.5"/>
<text text-anchor="middle" x="232.7" y="-7.5" font-family="Helvetica,sans-Serif" font-size="10.00">string</text>
</a>
</g>
</g>
<!-- Node1&#45;&gt;Node6 -->
<g id="edge19" class="edge">
<title>Node1&#45;&gt;Node6</title>
<path fill="none" stroke="midnightblue" d="M511.69,-197.24C444.48,-193.37 305.81,-182.13 267.7,-154 229.06,-125.47 228.29,-61.77 230.61,-29.91"/>
<polygon fill="midnightblue" stroke="midnightblue" points="234.12,-30.01 231.54,-19.73 227.15,-29.37 234.12,-30.01"/>
</g>
<!-- Node7 -->
<g id="node7" class="node">
<title>Node7</title>
<g id="a_node7"><a xlink:title=" ">
<polygon fill="white" stroke="#bfbfbf" points="440.7,-0.5 440.7,-19.5 484.7,-19.5 484.7,-0.5 440.7,-0.5"/>
<text text-anchor="middle" x="462.7" y="-7.5" font-family="Helvetica,sans-Serif" font-size="10.00">vector</text>
</a>
</g>
</g>
<!-- Node1&#45;&gt;Node7 -->
<g id="edge21" class="edge">
<title>Node1&#45;&gt;Node7</title>
<path fill="none" stroke="midnightblue" d="M549.85,-190.47C552.55,-167 557.18,-100.25 529.7,-56 521.11,-42.17 506.52,-31.62 493.14,-24.23"/>
<polygon fill="midnightblue" stroke="midnightblue" points="494.66,-21.07 484.16,-19.61 491.45,-27.3 494.66,-21.07"/>
</g>
<!-- Node8 -->
<g id="node8" class="node">
<title>Node8</title>
<g id="a_node8"><a xlink:href="../../d2/dab/hash__transformation_8h.html" target="_top" xlink:title=" ">
<polygon fill="white" stroke="black" points="12.7,-56.5 12.7,-86.5 128.7,-86.5 128.7,-56.5 12.7,-56.5"/>
<text text-anchor="start" x="20.7" y="-74.5" font-family="Helvetica,sans-Serif" font-size="10.00">automaton/core/crypto</text>
<text text-anchor="middle" x="70.7" y="-63.5" font-family="Helvetica,sans-Serif" font-size="10.00">/hash_transformation.h</text>
</a>
</g>
</g>
<!-- Node1&#45;&gt;Node8 -->
<g id="edge22" class="edge">
<title>Node1&#45;&gt;Node8</title>
<path fill="none" stroke="midnightblue" d="M511.59,-198.27C423.91,-196.01 206.51,-187.12 142.7,-154 117.1,-140.71 96.41,-114.25 83.89,-95.08"/>
<polygon fill="midnightblue" stroke="midnightblue" points="86.85,-93.21 78.57,-86.6 80.92,-96.93 86.85,-93.21"/>
</g>
<!-- Node11 -->
<g id="node11" class="node">
<title>Node11</title>
<g id="a_node11"><a xlink:title=" ">
<polygon fill="white" stroke="#bfbfbf" points="708.7,-129 708.7,-148 764.7,-148 764.7,-129 708.7,-129"/>
<text text-anchor="middle" x="736.7" y="-136" font-family="Helvetica,sans-Serif" font-size="10.00">algorithm</text>
</a>
</g>
</g>
<!-- Node1&#45;&gt;Node11 -->
<g id="edge14" class="edge">
<title>Node1&#45;&gt;Node11</title>
<path fill="none" stroke="midnightblue" d="M580.18,-190.45C610.9,-181.91 658.84,-168.07 699.7,-154 701.82,-153.27 704,-152.49 706.19,-151.69"/>
<polygon fill="midnightblue" stroke="midnightblue" points="707.57,-154.91 715.68,-148.09 705.09,-148.36 707.57,-154.91"/>
</g>
<!-- Node12 -->
<g id="node12" class="node">
<title>Node12</title>
<g id="a_node12"><a xlink:title=" ">
<polygon fill="white" stroke="#bfbfbf" points="782.7,-129 782.7,-148 832.7,-148 832.7,-129 782.7,-129"/>
<text text-anchor="middle" x="807.7" y="-136" font-family="Helvetica,sans-Serif" font-size="10.00">iomanip</text>
</a>
</g>
</g>
<!-- Node1&#45;&gt;Node12 -->
<g id="edge15" class="edge">
<title>Node1&#45;&gt;Node12</title>
<path fill="none" stroke="midnightblue" d="M585.92,-193.96C631.02,-187.3 709.01,-174.03 773.7,-154 775.84,-153.34 778.03,-152.58 780.22,-151.78"/>
<polygon fill="midnightblue" stroke="midnightblue" points="781.62,-154.99 789.61,-148.03 779.02,-148.49 781.62,-154.99"/>
</g>
<!-- Node13 -->
<g id="node13" class="node">
<title>Node13</title>
<g id="a_node13"><a xlink:title=" ">
<polygon fill="white" stroke="#bfbfbf" points="850.7,-129 850.7,-148 902.7,-148 902.7,-129 850.7,-129"/>
<text text-anchor="middle" x="876.7" y="-136" font-family="Helvetica,sans-Serif" font-size="10.00">sstream</text>
</a>
</g>
</g>
<!-- Node1&#45;&gt;Node13 -->
<g id="edge18" class="edge">
<title>Node1&#45;&gt;Node13</title>
<path fill="none" stroke="midnightblue" d="M585.85,-196.17C642.06,-191.26 751.74,-179.15 841.7,-154 844.14,-153.32 846.64,-152.51 849.12,-151.64"/>
<polygon fill="midnightblue" stroke="midnightblue" points="850.4,-154.9 858.47,-148.02 847.88,-148.37 850.4,-154.9"/>
</g>
<!-- Node14 -->
<g id="node14" class="node">
<title>Node14</title>
<g id="a_node14"><a xlink:title=" ">
<polygon fill="white" stroke="#bfbfbf" points="921.2,-129 921.2,-148 960.2,-148 960.2,-129 921.2,-129"/>
<text text-anchor="middle" x="940.7" y="-136" font-family="Helvetica,sans-Serif" font-size="10.00">utility</text>
</a>
</g>
</g>
<!-- Node1&#45;&gt;Node14 -->
<g id="edge20" class="edge">
<title>Node1&#45;&gt;Node14</title>
<path fill="none" stroke="midnightblue" d="M585.88,-198.52C652.57,-196.77 796.36,-188.86 911.7,-154 913.37,-153.5 915.06,-152.9 916.74,-152.25"/>
<polygon fill="midnightblue" stroke="midnightblue" points="918.38,-155.34 926.05,-148.03 915.5,-148.97 918.38,-155.34"/>
</g>
<!-- Node15 -->
<g id="node15" class="node">
<title>Node15</title>
<g id="a_node15"><a xlink:href="../../dc/dac/io_8h.html" target="_top" xlink:title=" ">
<polygon fill="white" stroke="black" points="577.2,-129 577.2,-148 690.2,-148 690.2,-129 577.2,-129"/>
<text text-anchor="middle" x="633.7" y="-136" font-family="Helvetica,sans-Serif" font-size="10.00">automaton/core/io/io.h</text>
</a>
</g>
</g>
<!-- Node1&#45;&gt;Node15 -->
<g id="edge23" class="edge">
<title>Node1&#45;&gt;Node15</title>
<path fill="none" stroke="midnightblue" d="M560.88,-190.48C574.51,-180.93 596.83,-165.31 613.18,-153.87"/>
<polygon fill="midnightblue" stroke="midnightblue" points="615.36,-156.61 621.55,-148.01 611.35,-150.88 615.36,-156.61"/>
</g>
<!-- Node3 -->
<g id="node3" class="node">
<title>Node3</title>
<g id="a_node3"><a xlink:title=" ">
<polygon fill="white" stroke="#bfbfbf" points="260.7,-62 260.7,-81 306.7,-81 306.7,-62 260.7,-62"/>
<text text-anchor="middle" x="283.7" y="-69" font-family="Helvetica,sans-Serif" font-size="10.00">cstdint</text>
</a>
</g>
</g>
<!-- Node2&#45;&gt;Node3 -->
<g id="edge2" class="edge">
<title>Node2&#45;&gt;Node3</title>
<path fill="none" stroke="midnightblue" d="M321.29,-123.4C313.88,-113.36 303.89,-99.84 296.07,-89.25"/>
<polygon fill="midnightblue" stroke="midnightblue" points="298.88,-87.16 290.12,-81.19 293.25,-91.32 298.88,-87.16"/>
</g>
<!-- Node2&#45;&gt;Node4 -->
<g id="edge3" class="edge">
<title>Node2&#45;&gt;Node4</title>
<path fill="none" stroke="midnightblue" d="M299.23,-123.48C240.88,-98.29 119.37,-45.83 65.46,-22.55"/>
<polygon fill="midnightblue" stroke="midnightblue" points="66.78,-19.31 56.21,-18.56 64,-25.73 66.78,-19.31"/>
</g>
<!-- Node2&#45;&gt;Node5 -->
<g id="edge4" class="edge">
<title>Node2&#45;&gt;Node5</title>
<path fill="none" stroke="midnightblue" d="M376.69,-123.49C405.61,-114.08 443.79,-100.89 476.7,-87 478.27,-86.34 479.87,-85.63 481.48,-84.9"/>
<polygon fill="midnightblue" stroke="midnightblue" points="483.03,-88.04 490.52,-80.55 479.99,-81.73 483.03,-88.04"/>
</g>
<!-- Node2&#45;&gt;Node6 -->
<g id="edge5" class="edge">
<title>Node2&#45;&gt;Node6</title>
<path fill="none" stroke="midnightblue" d="M297.74,-123.41C281.56,-115.06 263.26,-102.97 251.7,-87 239.52,-70.17 235.11,-46.37 233.54,-29.9"/>
<polygon fill="midnightblue" stroke="midnightblue" points="237.03,-29.59 232.84,-19.85 230.04,-30.07 237.03,-29.59"/>
</g>
<!-- Node2&#45;&gt;Node7 -->
<g id="edge6" class="edge">
<title>Node2&#45;&gt;Node7</title>
<path fill="none" stroke="midnightblue" d="M386.49,-123.89C407.1,-116.21 429.07,-104.51 443.7,-87 457.17,-70.89 461.3,-46.57 462.46,-29.8"/>
<polygon fill="midnightblue" stroke="midnightblue" points="465.97,-29.73 462.87,-19.6 458.97,-29.45 465.97,-29.73"/>
</g>
<!-- Node2&#45;&gt;Node8 -->
<g id="edge7" class="edge">
<title>Node2&#45;&gt;Node8</title>
<path fill="none" stroke="midnightblue" d="M276.99,-123.87C236.22,-113.72 180.34,-99.81 137.03,-89.02"/>
<polygon fill="midnightblue" stroke="midnightblue" points="137.7,-85.58 127.15,-86.56 136.01,-92.37 137.7,-85.58"/>
</g>
<!-- Node10 -->
<g id="node10" class="node">
<title>Node10</title>
<g id="a_node10"><a xlink:href="../../db/d3b/state_8h.html" target="_top" xlink:title=" ">
<polygon fill="white" stroke="black" points="325.2,-56.5 325.2,-86.5 434.2,-86.5 434.2,-56.5 325.2,-56.5"/>
<text text-anchor="start" x="333.2" y="-74.5" font-family="Helvetica,sans-Serif" font-size="10.00">automaton/core/state</text>
<text text-anchor="middle" x="379.7" y="-63.5" font-family="Helvetica,sans-Serif" font-size="10.00">/state.h</text>
</a>
</g>
</g>
<!-- Node2&#45;&gt;Node10 -->
<g id="edge11" class="edge">
<title>Node2&#45;&gt;Node10</title>
<path fill="none" stroke="midnightblue" d="M342.12,-123.4C348.28,-115.05 356.23,-104.29 363.23,-94.81"/>
<polygon fill="midnightblue" stroke="midnightblue" points="366.18,-96.7 369.31,-86.58 360.55,-92.54 366.18,-96.7"/>
</g>
<!-- Node8&#45;&gt;Node4 -->
<g id="edge9" class="edge">
<title>Node8&#45;&gt;Node4</title>
<path fill="none" stroke="midnightblue" d="M63.12,-56.4C58.66,-48.11 52.98,-37.55 48.23,-28.71"/>
<polygon fill="midnightblue" stroke="midnightblue" points="51.18,-26.81 43.36,-19.66 45.01,-30.12 51.18,-26.81"/>
</g>
<!-- Node8&#45;&gt;Node6 -->
<g id="edge10" class="edge">
<title>Node8&#45;&gt;Node6</title>
<path fill="none" stroke="midnightblue" d="M109.09,-56.4C137.63,-45.92 176.04,-31.81 202.43,-22.12"/>
<polygon fill="midnightblue" stroke="midnightblue" points="203.73,-25.37 211.91,-18.64 201.31,-18.8 203.73,-25.37"/>
</g>
<!-- Node9 -->
<g id="node9" class="node">
<title>Node9</title>
<g id="a_node9"><a xlink:title=" ">
<polygon fill="white" stroke="#bfbfbf" points="74.7,-0.5 74.7,-19.5 128.7,-19.5 128.7,-0.5 74.7,-0.5"/>
<text text-anchor="middle" x="101.7" y="-7.5" font-family="Helvetica,sans-Serif" font-size="10.00">iostream</text>
</a>
</g>
</g>
<!-- Node8&#45;&gt;Node9 -->
<g id="edge8" class="edge">
<title>Node8&#45;&gt;Node9</title>
<path fill="none" stroke="midnightblue" d="M78.05,-56.4C82.37,-48.11 87.87,-37.55 92.48,-28.71"/>
<polygon fill="midnightblue" stroke="midnightblue" points="95.68,-30.14 97.19,-19.66 89.47,-26.91 95.68,-30.14"/>
</g>
<!-- Node10&#45;&gt;Node6 -->
<g id="edge12" class="edge">
<title>Node10&#45;&gt;Node6</title>
<path fill="none" stroke="midnightblue" d="M344.87,-56.4C319.9,-46.3 286.63,-32.83 262.81,-23.19"/>
<polygon fill="midnightblue" stroke="midnightblue" points="263.82,-19.82 253.24,-19.31 261.2,-26.31 263.82,-19.82"/>
</g>
<!-- Node10&#45;&gt;Node7 -->
<g id="edge13" class="edge">
<title>Node10&#45;&gt;Node7</title>
<path fill="none" stroke="midnightblue" d="M399.37,-56.4C412.3,-47.13 429.19,-35.03 442.27,-25.65"/>
<polygon fill="midnightblue" stroke="midnightblue" points="444.54,-28.33 450.63,-19.66 440.46,-22.64 444.54,-28.33"/>
</g>
<!-- Node15&#45;&gt;Node6 -->
<g id="edge25" class="edge">
<title>Node15&#45;&gt;Node6</title>
<path fill="none" stroke="midnightblue" d="M625.8,-128.84C609.62,-111.74 570.77,-73.73 529.7,-56 438.81,-16.76 319.39,-10.97 263.74,-10.6"/>
<polygon fill="midnightblue" stroke="midnightblue" points="263.49,-7.1 253.49,-10.59 263.49,-14.1 263.49,-7.1"/>
</g>
<!-- Node16 -->
<g id="node16" class="node">
<title>Node16</title>
<g id="a_node16"><a xlink:title=" ">
<polygon fill="white" stroke="#bfbfbf" points="614.7,-62 614.7,-81 660.7,-81 660.7,-62 614.7,-62"/>
<text text-anchor="middle" x="637.7" y="-69" font-family="Helvetica,sans-Serif" font-size="10.00">chrono</text>
</a>
</g>
</g>
<!-- Node15&#45;&gt;Node16 -->
<g id="edge24" class="edge">
<title>Node15&#45;&gt;Node16</title>
<path fill="none" stroke="midnightblue" d="M634.24,-128.73C634.83,-119.18 635.79,-103.62 636.55,-91.28"/>
<polygon fill="midnightblue" stroke="midnightblue" points="640.05,-91.32 637.17,-81.13 633.06,-90.89 640.05,-91.32"/>
</g>
<!-- Node17 -->
<g id="node17" class="node">
<title>Node17</title>
<g id="a_node17"><a xlink:title=" ">
<polygon fill="white" stroke="#bfbfbf" points="678.7,-62 678.7,-81 762.7,-81 762.7,-62 678.7,-62"/>
<text text-anchor="middle" x="720.7" y="-69" font-family="Helvetica,sans-Serif" font-size="10.00">g3log/g3log.hpp</text>
</a>
</g>
</g>
<!-- Node15&#45;&gt;Node17 -->
<g id="edge26" class="edge">
<title>Node15&#45;&gt;Node17</title>
<path fill="none" stroke="midnightblue" d="M645.44,-128.73C659.65,-118.11 683.83,-100.05 700.94,-87.26"/>
<polygon fill="midnightblue" stroke="midnightblue" points="703.24,-89.92 709.16,-81.13 699.05,-84.31 703.24,-89.92"/>
</g>
<!-- Node18 -->
<g id="node18" class="node">
<title>Node18</title>
<g id="a_node18"><a xlink:title=" ">
<polygon fill="white" stroke="#bfbfbf" points="781.2,-62 781.2,-81 884.2,-81 884.2,-62 781.2,-62"/>
<text text-anchor="middle" x="832.7" y="-69" font-family="Helvetica,sans-Serif" font-size="10.00">g3log/logworker.hpp</text>
</a>
</g>
</g>
<!-- Node15&#45;&gt;Node18 -->
<g id="edge27" class="edge">
<title>Node15&#45;&gt;Node18</title>
<path fill="none" stroke="midnightblue" d="M660.13,-128.87C695.24,-117.4 757.41,-97.09 796.76,-84.24"/>
<polygon fill="midnightblue" stroke="midnightblue" points="798.07,-87.5 806.48,-81.06 795.89,-80.84 798.07,-87.5"/>
</g>
<!-- Node19 -->
<g id="node19" class="node">
<title>Node19</title>
<g id="a_node19"><a xlink:title=" ">
<polygon fill="white" stroke="#bfbfbf" points="902.2,-62 902.2,-81 1001.2,-81 1001.2,-62 902.2,-62"/>
<text text-anchor="middle" x="951.7" y="-69" font-family="Helvetica,sans-Serif" font-size="10.00">g3log/loglevels.hpp</text>
</a>
</g>
</g>
<!-- Node15&#45;&gt;Node19 -->
<g id="edge28" class="edge">
<title>Node15&#45;&gt;Node19</title>
<path fill="none" stroke="midnightblue" d="M671.7,-128.93C680.86,-126.93 690.62,-124.84 699.7,-123 785.65,-105.59 808.01,-105.64 893.7,-87 898.71,-85.91 903.94,-84.7 909.12,-83.46"/>
<polygon fill="midnightblue" stroke="midnightblue" points="910.08,-86.83 918.96,-81.06 908.42,-80.03 910.08,-86.83"/>
</g>
</g>
</svg>
        <g id="navigator" transform="translate(0 0)" fill="#404254">
                <rect fill="#f2f5e9" fill-opacity="0.5" stroke="#606060" stroke-width=".5" x="0" y="0" width="60" height="60"/>
                <use id="zoomplus" xlink:href="#zoomPlus" x="17" y="9" onmousedown="handleZoom(evt,'in')"/>
                <use id="zoomminus" xlink:href="#zoomMin" x="42" y="9" onmousedown="handleZoom(evt,'out')"/>
                <use id="reset" xlink:href="#resetDef" x="30" y="36" onmousedown="handleReset()"/>
                <g id="arrowUp" xlink:href="#dirArrow" transform="translate(30 24)" onmousedown="handlePan(0,-1)">
                  <use xlink:href="#rim" fill="#404040">
                        <set attributeName="fill" to="#808080" begin="arrowUp.mouseover" end="arrowUp.mouseout"/>
                  </use>
                  <path fill="none" stroke="white" stroke-width="1.5" d="M0,-3.0v7 M-2.5,-0.5L0,-3.0L2.5,-0.5"/>
                </g>
                <g id="arrowRight" xlink:href="#dirArrow" transform="rotate(90) translate(36 -43)" onmousedown="handlePan(1,0)">
                  <use xlink:href="#rim" fill="#404040">
                        <set attributeName="fill" to="#808080" begin="arrowRight.mouseover" end="arrowRight.mouseout"/>
                  </use>
                  <path fill="none" stroke="white" stroke-width="1.5" d="M0,-3.0v7 M-2.5,-0.5L0,-3.0L2.5,-0.5"/>
                </g>
                <g id="arrowDown" xlink:href="#dirArrow" transform="rotate(180) translate(-30 -48)" onmousedown="handlePan(0,1)">
                  <use xlink:href="#rim" fill="#404040">
                        <set attributeName="fill" to="#808080" begin="arrowDown.mouseover" end="arrowDown.mouseout"/>
                  </use>
                  <path fill="none" stroke="white" stroke-width="1.5" d="M0,-3.0v7 M-2.5,-0.5L0,-3.0L2.5,-0.5"/>
                </g>
                <g id="arrowLeft" xlink:href="#dirArrow" transform="rotate(270) translate(-36 17)" onmousedown="handlePan(-1,0)">
                  <use xlink:href="#rim" fill="#404040">
                        <set attributeName="fill" to="#808080" begin="arrowLeft.mouseover" end="arrowLeft.mouseout"/>
                  </use>
                  <path fill="none" stroke="white" stroke-width="1.5" d="M0,-3.0v7 M-2.5,-0.5L0,-3.0L2.5,-0.5"/>
                </g>
        </g>
        <svg viewBox="0 0 15 15" width="100%" height="30px" preserveAspectRatio="xMaxYMin meet">
         <g id="arrow_out" transform="scale(0.3 0.3)">
          <a xlink:href="state__impl_8cc__incl_org.svg" target="_base">
           <rect id="button" ry="5" rx="5" y="6" x="6" height="38" width="38"
                fill="#f2f5e9" fill-opacity="0.5" stroke="#606060" stroke-width="1.0"/>
           <path id="arrow"
             d="M 11.500037,31.436501 C 11.940474,20.09759 22.043105,11.32322 32.158766,21.979434 L 37.068811,17.246167 C 37.068811,17.246167 37.088388,32 37.088388,32 L 22.160133,31.978069 C 22.160133,31.978069 26.997745,27.140456 26.997745,27.140456 C 18.528582,18.264221 13.291696,25.230495 11.500037,31.436501 z"
             style="fill:#404040;"/>
          </a>
         </g>
        </svg>
</svg>
