<?xml version="1.0" encoding="UTF-8" standalone="no"?>
<!DOCTYPE svg PUBLIC "-//W3C//DTD SVG 1.1//EN"
 "http://www.w3.org/Graphics/SVG/1.1/DTD/svg11.dtd">
<!-- Generated by graphviz version 2.44.0 ()
 -->
<!-- Title: automaton::core::node::node_updater::remove_node Pages: 1 -->
<svg width="301pt" height="50pt"
 viewBox="0.00 0.00 301.00 50.00" xmlns="http://www.w3.org/2000/svg" xmlns:xlink="http://www.w3.org/1999/xlink">
<g id="graph0" class="graph" transform="scale(1 1) rotate(0) translate(4 46)">
<title>automaton::core::node::node_updater::remove_node</title>
<polygon fill="white" stroke="transparent" points="-4,4 -4,-46 297,-46 297,4 -4,4"/>
<!-- Node1 -->
<g id="node1" class="node">
<title>Node1</title>
<g id="a_node1"><a xlink:title=" ">
<polygon fill="#bfbfbf" stroke="black" points="150,-6 150,-36 293,-36 293,-6 150,-6"/>
<text text-anchor="start" x="158" y="-24" font-family="Helvetica,sans-Serif" font-size="10.00">automaton::core::node</text>
<text text-anchor="middle" x="221.5" y="-13" font-family="Helvetica,sans-Serif" font-size="10.00">::node_updater::remove_node</text>
</a>
</g>
</g>
<!-- Node2 -->
<g id="node2" class="node">
<title>Node2</title>
<g id="a_node2"><a xlink:href="../../d1/d88/classautomaton_1_1core_1_1node_1_1default__node__updater.html#aac2c2684fd2a85a93552eb997dcacced" target="_top" xlink:title=" ">
<polygon fill="white" stroke="black" points="0,-0.5 0,-41.5 114,-41.5 114,-0.5 0,-0.5"/>
<text text-anchor="start" x="8" y="-29.5" font-family="Helvetica,sans-Serif" font-size="10.00">automaton::core::node</text>
<text text-anchor="start" x="8" y="-18.5" font-family="Helvetica,sans-Serif" font-size="10.00">::default_node_updater</text>
<text text-anchor="middle" x="57" y="-7.5" font-family="Helvetica,sans-Serif" font-size="10.00">::update_function</text>
</a>
</g>
</g>
<!-- Node1&#45;&gt;Node2 -->
<g id="edge1" class="edge">
<title>Node1&#45;&gt;Node2</title>
<path fill="none" stroke="midnightblue" d="M139.69,-21C131.14,-21 122.59,-21 114.41,-21"/>
<polygon fill="midnightblue" stroke="midnightblue" points="139.7,-24.5 149.7,-21 139.7,-17.5 139.7,-24.5"/>
</g>
</g>
</svg>
