<?xml version="1.0" encoding="UTF-8" standalone="no"?>
<!DOCTYPE svg PUBLIC "-//W3C//DTD SVG 1.1//EN"
 "http://www.w3.org/Graphics/SVG/1.1/DTD/svg11.dtd">
<!-- Generated by graphviz version 2.42.3 ()
 -->
<!-- Title: automaton::core::crypto::ed25519_orlp::ed25519_orlp::sign_deterministic Pages: 1 -->
<svg width="285pt" height="50pt"
 viewBox="0.00 0.00 285.00 50.00" xmlns="http://www.w3.org/2000/svg" xmlns:xlink="http://www.w3.org/1999/xlink">
<g id="graph0" class="graph" transform="scale(1 1) rotate(0) translate(4 46)">
<title>automaton::core::crypto::ed25519_orlp::ed25519_orlp::sign_deterministic</title>
<polygon fill="white" stroke="transparent" points="-4,4 -4,-46 281,-46 281,4 -4,4"/>
<!-- Node1 -->
<g id="node1" class="node">
<title>Node1</title>
<g id="a_node1"><a xlink:title=" ">
<polygon fill="#bfbfbf" stroke="black" points="0,-0.5 0,-41.5 121,-41.5 121,-0.5 0,-0.5"/>
<text text-anchor="start" x="8" y="-29.5" font-family="Helvetica,sans-Serif" font-size="10.00">automaton::core::crypto</text>
<text text-anchor="start" x="8" y="-18.5" font-family="Helvetica,sans-Serif" font-size="10.00">::ed25519_orlp::ed25519</text>
<text text-anchor="middle" x="60.5" y="-7.5" font-family="Helvetica,sans-Serif" font-size="10.00">_orlp::sign_deterministic</text>
</a>
</g>
</g>
<!-- Node2 -->
<g id="node2" class="node">
<title>Node2</title>
<g id="a_node2"><a xlink:href="../../d4/dc1/classautomaton_1_1core_1_1crypto_1_1ed25519__orlp_1_1ed25519__orlp.html#a64afa37c7fc690b86e71460feb308244" target="_top" xlink:title=" ">
<polygon fill="white" stroke="black" points="157,-0.5 157,-41.5 277,-41.5 277,-0.5 157,-0.5"/>
<text text-anchor="start" x="165" y="-29.5" font-family="Helvetica,sans-Serif" font-size="10.00">automaton::core::crypto</text>
<text text-anchor="start" x="165" y="-18.5" font-family="Helvetica,sans-Serif" font-size="10.00">::ed25519_orlp::ed25519</text>
<text text-anchor="middle" x="217" y="-7.5" font-family="Helvetica,sans-Serif" font-size="10.00">_orlp::sign</text>
</a>
</g>
</g>
<!-- Node1&#45;&gt;Node2 -->
<g id="edge1" class="edge">
<title>Node1&#45;&gt;Node2</title>
<path fill="none" stroke="midnightblue" d="M121.23,-21C129.56,-21 138.18,-21 146.67,-21"/>
<polygon fill="midnightblue" stroke="midnightblue" points="146.93,-24.5 156.93,-21 146.93,-17.5 146.93,-24.5"/>
</g>
</g>
</svg>
