<?xml version="1.0" encoding="UTF-8" standalone="no"?>
<!DOCTYPE svg PUBLIC "-//W3C//DTD SVG 1.1//EN"
 "http://www.w3.org/Graphics/SVG/1.1/DTD/svg11.dtd">
<!-- Generated by graphviz version 2.42.3 ()
 -->
<!-- Title: automaton::core::network::tcp_acceptor Pages: 1 -->
<svg width="286pt" height="274pt"
 viewBox="0.00 0.00 286.00 274.00" xmlns="http://www.w3.org/2000/svg" xmlns:xlink="http://www.w3.org/1999/xlink">
<g id="graph0" class="graph" transform="scale(1 1) rotate(0) translate(4 270)">
<title>automaton::core::network::tcp_acceptor</title>
<polygon fill="white" stroke="transparent" points="-4,4 -4,-270 282,-270 282,4 -4,4"/>
<!-- Node1 -->
<g id="node1" class="node">
<title>Node1</title>
<g id="a_node1"><a xlink:title=" ">
<polygon fill="#bfbfbf" stroke="black" points="74,-0.5 74,-30.5 199,-30.5 199,-0.5 74,-0.5"/>
<text text-anchor="start" x="82" y="-18.5" font-family="Helvetica,sans-Serif" font-size="10.00">automaton::core::network</text>
<text text-anchor="middle" x="136.5" y="-7.5" font-family="Helvetica,sans-Serif" font-size="10.00">::tcp_acceptor</text>
</a>
</g>
</g>
<!-- Node2 -->
<g id="node2" class="node">
<title>Node2</title>
<g id="a_node2"><a xlink:href="../../db/d4c/classautomaton_1_1core_1_1network_1_1acceptor.html" target="_top" xlink:title=" ">
<polygon fill="white" stroke="black" points="0,-68.5 0,-98.5 125,-98.5 125,-68.5 0,-68.5"/>
<text text-anchor="start" x="8" y="-86.5" font-family="Helvetica,sans-Serif" font-size="10.00">automaton::core::network</text>
<text text-anchor="middle" x="62.5" y="-75.5" font-family="Helvetica,sans-Serif" font-size="10.00">::acceptor</text>
</a>
</g>
</g>
<!-- Node2&#45;&gt;Node1 -->
<g id="edge1" class="edge">
<title>Node2&#45;&gt;Node1</title>
<path fill="none" stroke="midnightblue" d="M86.02,-61.52C97.35,-51.41 110.63,-39.57 120.73,-30.57"/>
<polygon fill="midnightblue" stroke="midnightblue" points="83.69,-58.91 78.56,-68.18 88.35,-64.13 83.69,-58.91"/>
</g>
<!-- Node3 -->
<g id="node3" class="node">
<title>Node3</title>
<g id="a_node3"><a xlink:title=" ">
<polygon fill="white" stroke="#bfbfbf" points="21,-157.5 21,-176.5 72,-176.5 72,-157.5 21,-157.5"/>
<text text-anchor="middle" x="46.5" y="-164.5" font-family="Helvetica,sans-Serif" font-size="10.00">uint32_t</text>
</a>
</g>
</g>
<!-- Node3&#45;&gt;Node2 -->
<g id="edge2" class="edge">
<title>Node3&#45;&gt;Node2</title>
<path fill="none" stroke="#9a32cd" stroke-dasharray="5,2" d="M50.19,-147.23C53.09,-132.41 57.09,-112.05 59.73,-98.6"/>
<polygon fill="#9a32cd" stroke="#9a32cd" points="46.7,-146.79 48.21,-157.28 53.57,-148.14 46.7,-146.79"/>
<text text-anchor="middle" x="61.5" y="-120" font-family="Helvetica,sans-Serif" font-size="10.00"> id</text>
</g>
<!-- Node4 -->
<g id="node4" class="node">
<title>Node4</title>
<g id="a_node4"><a xlink:title=" ">
<polygon fill="white" stroke="#bfbfbf" points="90.5,-146.5 90.5,-187.5 224.5,-187.5 224.5,-146.5 90.5,-146.5"/>
<text text-anchor="start" x="98.5" y="-175.5" font-family="Helvetica,sans-Serif" font-size="10.00">std::shared_ptr&lt; automaton</text>
<text text-anchor="start" x="98.5" y="-164.5" font-family="Helvetica,sans-Serif" font-size="10.00">::core::network::acceptor</text>
<text text-anchor="middle" x="157.5" y="-153.5" font-family="Helvetica,sans-Serif" font-size="10.00">::acceptor_handler &gt;</text>
</a>
</g>
</g>
<!-- Node4&#45;&gt;Node2 -->
<g id="edge3" class="edge">
<title>Node4&#45;&gt;Node2</title>
<path fill="none" stroke="#9a32cd" stroke-dasharray="5,2" d="M126.53,-139.43C110.71,-125.86 92.1,-109.9 79.03,-98.68"/>
<polygon fill="#9a32cd" stroke="#9a32cd" points="124.63,-142.42 134.5,-146.27 129.19,-137.1 124.63,-142.42"/>
<text text-anchor="middle" x="130.5" y="-120" font-family="Helvetica,sans-Serif" font-size="10.00"> handler</text>
</g>
<!-- Node5 -->
<g id="node5" class="node">
<title>Node5</title>
<g id="a_node5"><a xlink:href="../../d0/d47/classautomaton_1_1core_1_1network_1_1acceptor_1_1acceptor__handler.html" target="_top" xlink:title=" ">
<polygon fill="white" stroke="black" points="89,-235.5 89,-265.5 226,-265.5 226,-235.5 89,-235.5"/>
<text text-anchor="start" x="97" y="-253.5" font-family="Helvetica,sans-Serif" font-size="10.00">automaton::core::network</text>
<text text-anchor="middle" x="157.5" y="-242.5" font-family="Helvetica,sans-Serif" font-size="10.00">::acceptor::acceptor_handler</text>
</a>
</g>
</g>
<!-- Node5&#45;&gt;Node4 -->
<g id="edge4" class="edge">
<title>Node5&#45;&gt;Node4</title>
<path fill="none" stroke="#9a32cd" stroke-dasharray="5,2" d="M157.5,-225.07C157.5,-213.06 157.5,-198.79 157.5,-187.53"/>
<polygon fill="#9a32cd" stroke="#9a32cd" points="154,-225.3 157.5,-235.3 161,-225.3 154,-225.3"/>
<text text-anchor="middle" x="164.5" y="-209" font-family="Helvetica,sans-Serif" font-size="10.00"> ptr</text>
</g>
<!-- Node6 -->
<g id="node6" class="node">
<title>Node6</title>
<g id="a_node6"><a xlink:title=" ">
<polygon fill="white" stroke="#bfbfbf" points="143,-68.5 143,-98.5 278,-98.5 278,-68.5 143,-68.5"/>
<text text-anchor="start" x="151" y="-86.5" font-family="Helvetica,sans-Serif" font-size="10.00">std::enable_shared</text>
<text text-anchor="middle" x="210.5" y="-75.5" font-family="Helvetica,sans-Serif" font-size="10.00">_from_this&lt; tcp_acceptor &gt;</text>
</a>
</g>
</g>
<!-- Node6&#45;&gt;Node1 -->
<g id="edge5" class="edge">
<title>Node6&#45;&gt;Node1</title>
<path fill="none" stroke="midnightblue" d="M186.98,-61.52C175.65,-51.41 162.37,-39.57 152.27,-30.57"/>
<polygon fill="midnightblue" stroke="midnightblue" points="184.65,-64.13 194.44,-68.18 189.31,-58.91 184.65,-64.13"/>
</g>
</g>
</svg>
