<?xml version="1.0" encoding="UTF-8" standalone="no"?>
<!DOCTYPE svg PUBLIC "-//W3C//DTD SVG 1.1//EN"
 "http://www.w3.org/Graphics/SVG/1.1/DTD/svg11.dtd">
<!-- Generated by graphviz version 2.44.0 ()
 -->
<!-- Title: node_updater.cc Pages: 1 -->
<svg width="1092pt" height="486pt"
 viewBox="0.00 0.00 1092.12 486.00" xmlns="http://www.w3.org/2000/svg" xmlns:xlink="http://www.w3.org/1999/xlink">
<g id="graph0" class="graph" transform="scale(1 1) rotate(0) translate(4 482)">
<title>node_updater.cc</title>
<polygon fill="white" stroke="transparent" points="-4,4 -4,-482 1088.12,-482 1088.12,4 -4,4"/>
<!-- Node1 -->
<g id="node1" class="node">
<title>Node1</title>
<g id="a_node1"><a xlink:title=" ">
<polygon fill="#bfbfbf" stroke="black" points="706.12,-458.5 706.12,-477.5 794.12,-477.5 794.12,-458.5 706.12,-458.5"/>
<text text-anchor="middle" x="750.12" y="-465.5" font-family="Helvetica,sans-Serif" font-size="10.00">node_updater.cc</text>
</a>
</g>
</g>
<!-- Node2 -->
<g id="node2" class="node">
<title>Node2</title>
<g id="a_node2"><a xlink:href="../../dc/d32/node__updater_8h.html" target="_top" xlink:title=" ">
<polygon fill="white" stroke="black" points="696.12,-391.5 696.12,-421.5 804.12,-421.5 804.12,-391.5 696.12,-391.5"/>
<text text-anchor="start" x="704.12" y="-409.5" font-family="Helvetica,sans-Serif" font-size="10.00">automaton/core/node</text>
<text text-anchor="middle" x="750.12" y="-398.5" font-family="Helvetica,sans-Serif" font-size="10.00">/node_updater.h</text>
</a>
</g>
</g>
<!-- Node1&#45;&gt;Node2 -->
<g id="edge1" class="edge">
<title>Node1&#45;&gt;Node2</title>
<path fill="none" stroke="midnightblue" d="M750.12,-458.48C750.12,-451.47 750.12,-441.19 750.12,-431.7"/>
<polygon fill="midnightblue" stroke="midnightblue" points="753.62,-431.52 750.12,-421.52 746.62,-431.52 753.62,-431.52"/>
</g>
<!-- Node3 -->
<g id="node3" class="node">
<title>Node3</title>
<g id="a_node3"><a xlink:title=" ">
<polygon fill="white" stroke="#bfbfbf" points="382.62,-62 382.62,-81 433.62,-81 433.62,-62 382.62,-62"/>
<text text-anchor="middle" x="408.12" y="-69" font-family="Helvetica,sans-Serif" font-size="10.00">memory</text>
</a>
</g>
</g>
<!-- Node2&#45;&gt;Node3 -->
<g id="edge2" class="edge">
<title>Node2&#45;&gt;Node3</title>
<path fill="none" stroke="midnightblue" d="M695.92,-404.12C559.97,-399.33 211.05,-378.3 150.12,-288 142.42,-276.58 142.47,-268.45 150.12,-257 173.38,-222.21 199.81,-239.94 237.12,-221 288.17,-195.09 304.76,-192.5 347.12,-154 368.2,-134.84 386.92,-107.51 397.89,-89.88"/>
<polygon fill="midnightblue" stroke="midnightblue" points="400.96,-91.57 403.15,-81.2 394.97,-87.94 400.96,-91.57"/>
</g>
<!-- Node4 -->
<g id="node4" class="node">
<title>Node4</title>
<g id="a_node4"><a xlink:title=" ">
<polygon fill="white" stroke="#bfbfbf" points="159.12,-263 159.12,-282 189.12,-282 189.12,-263 159.12,-263"/>
<text text-anchor="middle" x="174.12" y="-270" font-family="Helvetica,sans-Serif" font-size="10.00">set</text>
</a>
</g>
</g>
<!-- Node2&#45;&gt;Node4 -->
<g id="edge3" class="edge">
<title>Node2&#45;&gt;Node4</title>
<path fill="none" stroke="midnightblue" d="M695.8,-399.32C595.73,-386.75 376.64,-353.66 203.12,-288 201.53,-287.4 199.91,-286.73 198.29,-286.03"/>
<polygon fill="midnightblue" stroke="midnightblue" points="199.75,-282.86 189.21,-281.77 196.78,-289.19 199.75,-282.86"/>
</g>
<!-- Node5 -->
<g id="node5" class="node">
<title>Node5</title>
<g id="a_node5"><a xlink:title=" ">
<polygon fill="white" stroke="#bfbfbf" points="620.62,-0.5 620.62,-19.5 661.62,-19.5 661.62,-0.5 620.62,-0.5"/>
<text text-anchor="middle" x="641.12" y="-7.5" font-family="Helvetica,sans-Serif" font-size="10.00">string</text>
</a>
</g>
</g>
<!-- Node2&#45;&gt;Node5 -->
<g id="edge4" class="edge">
<title>Node2&#45;&gt;Node5</title>
<path fill="none" stroke="midnightblue" d="M792.24,-391.43C872.49,-362.05 1035.36,-288.65 989.12,-190 949.61,-105.7 911.33,-97.76 828.12,-56 776.84,-30.26 710.14,-18.8 671.84,-14.05"/>
<polygon fill="midnightblue" stroke="midnightblue" points="672.16,-10.56 661.82,-12.88 671.35,-17.51 672.16,-10.56"/>
</g>
<!-- Node6 -->
<g id="node6" class="node">
<title>Node6</title>
<g id="a_node6"><a xlink:title=" ">
<polygon fill="white" stroke="#bfbfbf" points="896.62,-196 896.62,-215 979.62,-215 979.62,-196 896.62,-196"/>
<text text-anchor="middle" x="938.12" y="-203" font-family="Helvetica,sans-Serif" font-size="10.00">unordered_map</text>
</a>
</g>
</g>
<!-- Node2&#45;&gt;Node6 -->
<g id="edge5" class="edge">
<title>Node2&#45;&gt;Node6</title>
<path fill="none" stroke="midnightblue" d="M780.28,-391.44C816.96,-372.83 878.27,-336.63 913.12,-288 926.63,-269.15 932.97,-242.85 935.85,-225.27"/>
<polygon fill="midnightblue" stroke="midnightblue" points="939.35,-225.54 937.29,-215.15 932.42,-224.56 939.35,-225.54"/>
</g>
<!-- Node7 -->
<g id="node7" class="node">
<title>Node7</title>
<g id="a_node7"><a xlink:title=" ">
<polygon fill="white" stroke="#bfbfbf" points="986.12,-0.5 986.12,-19.5 1030.12,-19.5 1030.12,-0.5 986.12,-0.5"/>
<text text-anchor="middle" x="1008.12" y="-7.5" font-family="Helvetica,sans-Serif" font-size="10.00">vector</text>
</a>
</g>
</g>
<!-- Node2&#45;&gt;Node7 -->
<g id="edge6" class="edge">
<title>Node2&#45;&gt;Node7</title>
<path fill="none" stroke="midnightblue" d="M804.16,-395.74C898.69,-377.1 1084.12,-332.97 1084.12,-273.5 1084.12,-273.5 1084.12,-273.5 1084.12,-137.5 1084.12,-92.12 1047.74,-48.98 1025.32,-26.7"/>
<polygon fill="midnightblue" stroke="midnightblue" points="1027.7,-24.13 1018.06,-19.73 1022.85,-29.18 1027.7,-24.13"/>
</g>
<!-- Node8 -->
<g id="node8" class="node">
<title>Node8</title>
<g id="a_node8"><a xlink:href="../../d1/d77/node_8h.html" target="_top" xlink:title=" ">
<polygon fill="white" stroke="black" points="464.12,-324.5 464.12,-354.5 572.12,-354.5 572.12,-324.5 464.12,-324.5"/>
<text text-anchor="start" x="472.12" y="-342.5" font-family="Helvetica,sans-Serif" font-size="10.00">automaton/core/node</text>
<text text-anchor="middle" x="518.12" y="-331.5" font-family="Helvetica,sans-Serif" font-size="10.00">/node.h</text>
</a>
</g>
</g>
<!-- Node2&#45;&gt;Node8 -->
<g id="edge7" class="edge">
<title>Node2&#45;&gt;Node8</title>
<path fill="none" stroke="midnightblue" d="M700.07,-391.48C664.36,-381.47 616.18,-367.97 578.36,-357.38"/>
<polygon fill="midnightblue" stroke="midnightblue" points="579.06,-353.94 568.49,-354.61 577.17,-360.68 579.06,-353.94"/>
</g>
<!-- Node8&#45;&gt;Node3 -->
<g id="edge12" class="edge">
<title>Node8&#45;&gt;Node3</title>
<path fill="none" stroke="midnightblue" d="M508.38,-324.35C501.84,-314.45 493.31,-300.78 487.12,-288 453.14,-217.82 424.95,-129.01 413.55,-91.06"/>
<polygon fill="midnightblue" stroke="midnightblue" points="416.88,-89.97 410.68,-81.38 410.17,-91.96 416.88,-89.97"/>
</g>
<!-- Node8&#45;&gt;Node4 -->
<g id="edge14" class="edge">
<title>Node8&#45;&gt;Node4</title>
<path fill="none" stroke="midnightblue" d="M464.02,-334.85C400.32,-329.42 291.96,-316.59 203.12,-288 201.5,-287.48 199.86,-286.88 198.22,-286.22"/>
<polygon fill="midnightblue" stroke="midnightblue" points="199.66,-283.03 189.11,-282.08 196.76,-289.4 199.66,-283.03"/>
</g>
<!-- Node8&#45;&gt;Node5 -->
<g id="edge15" class="edge">
<title>Node8&#45;&gt;Node5</title>
<path fill="none" stroke="midnightblue" d="M572.21,-334.41C638.63,-328.31 746.06,-314.58 775.12,-288 851.76,-217.91 872.48,-133.3 803.12,-56 769.86,-18.92 708.95,-11.28 672.04,-10.31"/>
<polygon fill="midnightblue" stroke="midnightblue" points="671.9,-6.81 661.86,-10.19 671.82,-13.8 671.9,-6.81"/>
</g>
<!-- Node8&#45;&gt;Node6 -->
<g id="edge16" class="edge">
<title>Node8&#45;&gt;Node6</title>
<path fill="none" stroke="midnightblue" d="M572.21,-336.16C631.98,-331.98 730.11,-320.35 808.12,-288 830.22,-278.84 832.01,-269.96 852.12,-257 872.51,-243.87 896.33,-229.99 913.73,-220.11"/>
<polygon fill="midnightblue" stroke="midnightblue" points="915.68,-223.03 922.67,-215.06 912.24,-216.93 915.68,-223.03"/>
</g>
<!-- Node8&#45;&gt;Node7 -->
<g id="edge17" class="edge">
<title>Node8&#45;&gt;Node7</title>
<path fill="none" stroke="midnightblue" d="M572.16,-335.51C665.68,-329.7 853.44,-315 913.12,-288 954.15,-269.44 968.76,-261.16 989.12,-221 1021.53,-157.09 1015.49,-68.13 1010.85,-29.8"/>
<polygon fill="midnightblue" stroke="midnightblue" points="1014.28,-29.07 1009.5,-19.61 1007.34,-29.99 1014.28,-29.07"/>
</g>
<!-- Node9 -->
<g id="node9" class="node">
<title>Node9</title>
<g id="a_node9"><a xlink:title=" ">
<polygon fill="white" stroke="#bfbfbf" points="860.62,-263 860.62,-282 903.62,-282 903.62,-263 860.62,-263"/>
<text text-anchor="middle" x="882.12" y="-270" font-family="Helvetica,sans-Serif" font-size="10.00">deque</text>
</a>
</g>
</g>
<!-- Node8&#45;&gt;Node9 -->
<g id="edge8" class="edge">
<title>Node8&#45;&gt;Node9</title>
<path fill="none" stroke="midnightblue" d="M572.32,-334.01C638.02,-327.68 751.67,-313.92 846.12,-288 848.63,-287.31 851.19,-286.51 853.74,-285.63"/>
<polygon fill="midnightblue" stroke="midnightblue" points="855.22,-288.81 863.35,-282.01 852.76,-282.26 855.22,-288.81"/>
</g>
<!-- Node10 -->
<g id="node10" class="node">
<title>Node10</title>
<g id="a_node10"><a xlink:title=" ">
<polygon fill="white" stroke="#bfbfbf" points="321.62,-263 321.62,-282 380.62,-282 380.62,-263 321.62,-263"/>
<text text-anchor="middle" x="351.12" y="-270" font-family="Helvetica,sans-Serif" font-size="10.00">functional</text>
</a>
</g>
</g>
<!-- Node8&#45;&gt;Node10 -->
<g id="edge9" class="edge">
<title>Node8&#45;&gt;Node10</title>
<path fill="none" stroke="midnightblue" d="M481.89,-324.4C452.2,-312.84 410.62,-296.66 382.37,-285.66"/>
<polygon fill="midnightblue" stroke="midnightblue" points="383.57,-282.37 372.98,-282.01 381.03,-288.9 383.57,-282.37"/>
</g>
<!-- Node11 -->
<g id="node11" class="node">
<title>Node11</title>
<g id="a_node11"><a xlink:title=" ">
<polygon fill="white" stroke="#bfbfbf" points="398.62,-263 398.62,-282 439.62,-282 439.62,-263 398.62,-263"/>
<text text-anchor="middle" x="419.12" y="-270" font-family="Helvetica,sans-Serif" font-size="10.00">future</text>
</a>
</g>
</g>
<!-- Node8&#45;&gt;Node11 -->
<g id="edge10" class="edge">
<title>Node8&#45;&gt;Node11</title>
<path fill="none" stroke="midnightblue" d="M496.64,-324.4C480.04,-313.5 457.17,-298.48 440.57,-287.58"/>
<polygon fill="midnightblue" stroke="midnightblue" points="442.36,-284.57 432.08,-282.01 438.52,-290.42 442.36,-284.57"/>
</g>
<!-- Node12 -->
<g id="node12" class="node">
<title>Node12</title>
<g id="a_node12"><a xlink:title=" ">
<polygon fill="white" stroke="#bfbfbf" points="226.62,-0.5 226.62,-19.5 261.62,-19.5 261.62,-0.5 226.62,-0.5"/>
<text text-anchor="middle" x="244.12" y="-7.5" font-family="Helvetica,sans-Serif" font-size="10.00">map</text>
</a>
</g>
</g>
<!-- Node8&#45;&gt;Node12 -->
<g id="edge11" class="edge">
<title>Node8&#45;&gt;Node12</title>
<path fill="none" stroke="midnightblue" d="M463.83,-332.7C392.34,-324.42 271.05,-307.99 231.12,-288 213.13,-278.99 215.3,-267.49 198.12,-257 157.45,-232.16 134.89,-250.06 97.12,-221 39.87,-176.95 26.53,-156 5.12,-87 1.04,-73.84 -3.67,-66.61 5.12,-56 18.57,-39.79 156.23,-21.51 216.32,-14.24"/>
<polygon fill="midnightblue" stroke="midnightblue" points="216.75,-17.71 226.26,-13.05 215.92,-10.76 216.75,-17.71"/>
</g>
<!-- Node13 -->
<g id="node13" class="node">
<title>Node13</title>
<g id="a_node13"><a xlink:title=" ">
<polygon fill="white" stroke="#bfbfbf" points="496.62,-263 496.62,-282 539.62,-282 539.62,-263 496.62,-263"/>
<text text-anchor="middle" x="518.12" y="-270" font-family="Helvetica,sans-Serif" font-size="10.00">mutex</text>
</a>
</g>
</g>
<!-- Node8&#45;&gt;Node13 -->
<g id="edge13" class="edge">
<title>Node8&#45;&gt;Node13</title>
<path fill="none" stroke="midnightblue" d="M518.12,-324.4C518.12,-315.06 518.12,-302.71 518.12,-292.52"/>
<polygon fill="midnightblue" stroke="midnightblue" points="521.62,-292.19 518.12,-282.19 514.62,-292.19 521.62,-292.19"/>
</g>
<!-- Node14 -->
<g id="node14" class="node">
<title>Node14</title>
<g id="a_node14"><a xlink:href="../../d1/d71/msg_8h.html" target="_top" xlink:title=" ">
<polygon fill="white" stroke="black" points="588.12,-123.5 588.12,-153.5 694.12,-153.5 694.12,-123.5 588.12,-123.5"/>
<text text-anchor="start" x="596.12" y="-141.5" font-family="Helvetica,sans-Serif" font-size="10.00">automaton/core/data</text>
<text text-anchor="middle" x="641.12" y="-130.5" font-family="Helvetica,sans-Serif" font-size="10.00">/msg.h</text>
</a>
</g>
</g>
<!-- Node8&#45;&gt;Node14 -->
<g id="edge18" class="edge">
<title>Node8&#45;&gt;Node14</title>
<path fill="none" stroke="midnightblue" d="M526.97,-324.19C548.07,-290.05 601.49,-203.63 627.06,-162.25"/>
<polygon fill="midnightblue" stroke="midnightblue" points="630.08,-164.03 632.36,-153.68 624.12,-160.35 630.08,-164.03"/>
</g>
<!-- Node16 -->
<g id="node16" class="node">
<title>Node16</title>
<g id="a_node16"><a xlink:href="../../d1/d31/acceptor_8h.html" target="_top" xlink:title=" ">
<polygon fill="white" stroke="black" points="106.12,-190.5 106.12,-220.5 228.12,-220.5 228.12,-190.5 106.12,-190.5"/>
<text text-anchor="start" x="114.12" y="-208.5" font-family="Helvetica,sans-Serif" font-size="10.00">automaton/core/network</text>
<text text-anchor="middle" x="167.12" y="-197.5" font-family="Helvetica,sans-Serif" font-size="10.00">/acceptor.h</text>
</a>
</g>
</g>
<!-- Node8&#45;&gt;Node16 -->
<g id="edge25" class="edge">
<title>Node8&#45;&gt;Node16</title>
<path fill="none" stroke="midnightblue" d="M463.92,-333.6C414.13,-327.6 339.18,-314.72 279.12,-288 261,-279.94 219.74,-248.43 192.68,-227.04"/>
<polygon fill="midnightblue" stroke="midnightblue" points="194.78,-224.24 184.78,-220.76 190.43,-229.72 194.78,-224.24"/>
</g>
<!-- Node20 -->
<g id="node20" class="node">
<title>Node20</title>
<g id="a_node20"><a xlink:href="../../d4/d67/connection_8h.html" target="_top" xlink:title=" ">
<polygon fill="white" stroke="black" points="182.12,-123.5 182.12,-153.5 304.12,-153.5 304.12,-123.5 182.12,-123.5"/>
<text text-anchor="start" x="190.12" y="-141.5" font-family="Helvetica,sans-Serif" font-size="10.00">automaton/core/network</text>
<text text-anchor="middle" x="243.12" y="-130.5" font-family="Helvetica,sans-Serif" font-size="10.00">/connection.h</text>
</a>
</g>
</g>
<!-- Node8&#45;&gt;Node20 -->
<g id="edge39" class="edge">
<title>Node8&#45;&gt;Node20</title>
<path fill="none" stroke="midnightblue" d="M464.03,-330.66C411.07,-322.04 335.09,-306.88 312.12,-288 273.26,-256.05 255.15,-197.29 247.68,-164.07"/>
<polygon fill="midnightblue" stroke="midnightblue" points="251.01,-162.93 245.54,-153.86 244.16,-164.37 251.01,-162.93"/>
</g>
<!-- Node22 -->
<g id="node22" class="node">
<title>Node22</title>
<g id="a_node22"><a xlink:href="../../d5/dab/smart__protocol_8h.html" target="_top" xlink:title=" ">
<polygon fill="white" stroke="black" points="632.12,-257.5 632.12,-287.5 766.12,-287.5 766.12,-257.5 632.12,-257.5"/>
<text text-anchor="start" x="640.12" y="-275.5" font-family="Helvetica,sans-Serif" font-size="10.00">automaton/core/smartproto</text>
<text text-anchor="middle" x="699.12" y="-264.5" font-family="Helvetica,sans-Serif" font-size="10.00">/smart_protocol.h</text>
</a>
</g>
</g>
<!-- Node8&#45;&gt;Node22 -->
<g id="edge40" class="edge">
<title>Node8&#45;&gt;Node22</title>
<path fill="none" stroke="midnightblue" d="M557.4,-324.4C584.67,-314.6 621.21,-301.48 650.35,-291.02"/>
<polygon fill="midnightblue" stroke="midnightblue" points="651.7,-294.25 659.93,-287.58 649.33,-287.66 651.7,-294.25"/>
</g>
<!-- Node14&#45;&gt;Node3 -->
<g id="edge19" class="edge">
<title>Node14&#45;&gt;Node3</title>
<path fill="none" stroke="midnightblue" d="M590.85,-123.48C546.43,-111.08 482.76,-93.32 443.5,-82.37"/>
<polygon fill="midnightblue" stroke="midnightblue" points="444.4,-78.99 433.83,-79.67 442.52,-85.73 444.4,-78.99"/>
</g>
<!-- Node14&#45;&gt;Node5 -->
<g id="edge20" class="edge">
<title>Node14&#45;&gt;Node5</title>
<path fill="none" stroke="midnightblue" d="M641.12,-123.48C641.12,-100.72 641.12,-55.7 641.12,-30.06"/>
<polygon fill="midnightblue" stroke="midnightblue" points="644.62,-29.79 641.12,-19.79 637.62,-29.79 644.62,-29.79"/>
</g>
<!-- Node15 -->
<g id="node15" class="node">
<title>Node15</title>
<g id="a_node15"><a xlink:href="../../d7/de3/schema_8h.html" target="_top" xlink:title=" ">
<polygon fill="white" stroke="black" points="669.12,-56.5 669.12,-86.5 775.12,-86.5 775.12,-56.5 669.12,-56.5"/>
<text text-anchor="start" x="677.12" y="-74.5" font-family="Helvetica,sans-Serif" font-size="10.00">automaton/core/data</text>
<text text-anchor="middle" x="722.12" y="-63.5" font-family="Helvetica,sans-Serif" font-size="10.00">/schema.h</text>
</a>
</g>
</g>
<!-- Node14&#45;&gt;Node15 -->
<g id="edge21" class="edge">
<title>Node14&#45;&gt;Node15</title>
<path fill="none" stroke="midnightblue" d="M658.7,-123.4C669.74,-114.54 684.17,-102.96 696.47,-93.09"/>
<polygon fill="midnightblue" stroke="midnightblue" points="698.97,-95.56 704.58,-86.58 694.59,-90.11 698.97,-95.56"/>
</g>
<!-- Node15&#45;&gt;Node5 -->
<g id="edge23" class="edge">
<title>Node15&#45;&gt;Node5</title>
<path fill="none" stroke="midnightblue" d="M702.93,-56.4C690.31,-47.13 673.83,-35.03 661.06,-25.65"/>
<polygon fill="midnightblue" stroke="midnightblue" points="663.04,-22.76 652.91,-19.66 658.9,-28.4 663.04,-22.76"/>
</g>
<!-- Node15&#45;&gt;Node7 -->
<g id="edge24" class="edge">
<title>Node15&#45;&gt;Node7</title>
<path fill="none" stroke="midnightblue" d="M775.25,-59.45C834.09,-47.21 927.08,-27.86 975.85,-17.71"/>
<polygon fill="midnightblue" stroke="midnightblue" points="976.76,-21.1 985.84,-15.64 975.33,-14.25 976.76,-21.1"/>
</g>
<!-- Node15&#45;&gt;Node12 -->
<g id="edge22" class="edge">
<title>Node15&#45;&gt;Node12</title>
<path fill="none" stroke="midnightblue" d="M668.68,-63.85C567.21,-51.22 349.86,-24.16 272.33,-14.51"/>
<polygon fill="midnightblue" stroke="midnightblue" points="272.29,-10.98 261.93,-13.22 271.42,-17.93 272.29,-10.98"/>
</g>
<!-- Node16&#45;&gt;Node3 -->
<g id="edge27" class="edge">
<title>Node16&#45;&gt;Node3</title>
<path fill="none" stroke="midnightblue" d="M223.32,-190.45C251.38,-182.12 285.21,-170.02 313.12,-154 329.83,-144.41 368.94,-109.04 391.42,-88.18"/>
<polygon fill="midnightblue" stroke="midnightblue" points="393.95,-90.6 398.88,-81.22 389.18,-85.48 393.95,-90.6"/>
</g>
<!-- Node16&#45;&gt;Node5 -->
<g id="edge28" class="edge">
<title>Node16&#45;&gt;Node5</title>
<path fill="none" stroke="midnightblue" d="M164.77,-190.24C162.68,-173.14 161.51,-144.14 173.12,-123 197.13,-79.29 216.8,-74.46 263.12,-56 326.16,-30.88 531.27,-17.11 609.98,-12.64"/>
<polygon fill="midnightblue" stroke="midnightblue" points="610.43,-16.12 620.22,-12.07 610.04,-9.13 610.43,-16.12"/>
</g>
<!-- Node16&#45;&gt;Node12 -->
<g id="edge26" class="edge">
<title>Node16&#45;&gt;Node12</title>
<path fill="none" stroke="midnightblue" d="M156.68,-190.34C146,-174.06 132.06,-146.55 140.12,-123 154.81,-80.11 196.22,-44.58 222.14,-25.69"/>
<polygon fill="midnightblue" stroke="midnightblue" points="224.44,-28.35 230.59,-19.72 220.4,-22.63 224.44,-28.35"/>
</g>
<!-- Node17 -->
<g id="node17" class="node">
<title>Node17</title>
<g id="a_node17"><a xlink:href="../../d1/d13/status_8h.html" target="_top" xlink:title=" ">
<polygon fill="white" stroke="black" points="14.62,-56.5 14.62,-86.5 139.62,-86.5 139.62,-56.5 14.62,-56.5"/>
<text text-anchor="start" x="22.62" y="-74.5" font-family="Helvetica,sans-Serif" font-size="10.00">automaton/core/common</text>
<text text-anchor="middle" x="77.12" y="-63.5" font-family="Helvetica,sans-Serif" font-size="10.00">/status.h</text>
</a>
</g>
</g>
<!-- Node16&#45;&gt;Node17 -->
<g id="edge29" class="edge">
<title>Node16&#45;&gt;Node17</title>
<path fill="none" stroke="midnightblue" d="M142.09,-190.33C128.51,-181.48 112.43,-168.94 102.12,-154 90.33,-136.91 83.96,-114.08 80.6,-96.93"/>
<polygon fill="midnightblue" stroke="midnightblue" points="83.97,-95.85 78.81,-86.6 77.07,-97.05 83.97,-95.85"/>
</g>
<!-- Node16&#45;&gt;Node20 -->
<g id="edge33" class="edge">
<title>Node16&#45;&gt;Node20</title>
<path fill="none" stroke="midnightblue" d="M183.61,-190.4C193.97,-181.54 207.51,-169.96 219.05,-160.09"/>
<polygon fill="midnightblue" stroke="midnightblue" points="221.34,-162.74 226.66,-153.58 216.79,-157.42 221.34,-162.74"/>
</g>
<!-- Node17&#45;&gt;Node5 -->
<g id="edge31" class="edge">
<title>Node17&#45;&gt;Node5</title>
<path fill="none" stroke="midnightblue" d="M139.76,-62.31C156.74,-60.17 175.13,-57.92 192.12,-56 349.1,-38.24 537.36,-20.54 610.23,-13.82"/>
<polygon fill="midnightblue" stroke="midnightblue" points="610.88,-17.28 620.52,-12.88 610.24,-10.31 610.88,-17.28"/>
</g>
<!-- Node18 -->
<g id="node18" class="node">
<title>Node18</title>
<g id="a_node18"><a xlink:title=" ">
<polygon fill="white" stroke="#bfbfbf" points="16.12,-0.5 16.12,-19.5 68.12,-19.5 68.12,-0.5 16.12,-0.5"/>
<text text-anchor="middle" x="42.12" y="-7.5" font-family="Helvetica,sans-Serif" font-size="10.00">ostream</text>
</a>
</g>
</g>
<!-- Node17&#45;&gt;Node18 -->
<g id="edge30" class="edge">
<title>Node17&#45;&gt;Node18</title>
<path fill="none" stroke="midnightblue" d="M68.83,-56.4C63.9,-48.02 57.61,-37.33 52.37,-28.42"/>
<polygon fill="midnightblue" stroke="midnightblue" points="55.3,-26.5 47.22,-19.66 49.27,-30.05 55.3,-26.5"/>
</g>
<!-- Node19 -->
<g id="node19" class="node">
<title>Node19</title>
<g id="a_node19"><a xlink:title=" ">
<polygon fill="white" stroke="#bfbfbf" points="86.12,-0.5 86.12,-19.5 140.12,-19.5 140.12,-0.5 86.12,-0.5"/>
<text text-anchor="middle" x="113.12" y="-7.5" font-family="Helvetica,sans-Serif" font-size="10.00">iostream</text>
</a>
</g>
</g>
<!-- Node17&#45;&gt;Node19 -->
<g id="edge32" class="edge">
<title>Node17&#45;&gt;Node19</title>
<path fill="none" stroke="midnightblue" d="M85.66,-56.4C90.72,-48.02 97.19,-37.33 102.58,-28.42"/>
<polygon fill="midnightblue" stroke="midnightblue" points="105.7,-30.03 107.89,-19.66 99.71,-26.4 105.7,-30.03"/>
</g>
<!-- Node20&#45;&gt;Node3 -->
<g id="edge35" class="edge">
<title>Node20&#45;&gt;Node3</title>
<path fill="none" stroke="midnightblue" d="M278.93,-123.4C308.13,-111.89 348.98,-95.8 376.88,-84.81"/>
<polygon fill="midnightblue" stroke="midnightblue" points="378.51,-87.93 386.53,-81.01 375.94,-81.42 378.51,-87.93"/>
</g>
<!-- Node20&#45;&gt;Node5 -->
<g id="edge36" class="edge">
<title>Node20&#45;&gt;Node5</title>
<path fill="none" stroke="midnightblue" d="M266.18,-123.48C282.66,-113.42 305.33,-99.49 325.12,-87 346.6,-73.45 349.45,-65.18 373.12,-56 455.05,-24.23 559.63,-14.87 610.53,-12.13"/>
<polygon fill="midnightblue" stroke="midnightblue" points="610.73,-15.62 620.55,-11.64 610.39,-8.63 610.73,-15.62"/>
</g>
<!-- Node20&#45;&gt;Node12 -->
<g id="edge34" class="edge">
<title>Node20&#45;&gt;Node12</title>
<path fill="none" stroke="midnightblue" d="M243.23,-123.48C243.41,-100.72 243.77,-55.7 243.97,-30.06"/>
<polygon fill="midnightblue" stroke="midnightblue" points="247.47,-29.82 244.05,-19.79 240.48,-29.76 247.47,-29.82"/>
</g>
<!-- Node20&#45;&gt;Node17 -->
<g id="edge38" class="edge">
<title>Node20&#45;&gt;Node17</title>
<path fill="none" stroke="midnightblue" d="M207.1,-123.4C182.31,-113.69 149.16,-100.71 122.55,-90.29"/>
<polygon fill="midnightblue" stroke="midnightblue" points="123.66,-86.96 113.07,-86.58 121.11,-93.48 123.66,-86.96"/>
</g>
<!-- Node21 -->
<g id="node21" class="node">
<title>Node21</title>
<g id="a_node21"><a xlink:title=" ">
<polygon fill="white" stroke="#bfbfbf" points="272.12,-62 272.12,-81 316.12,-81 316.12,-62 272.12,-62"/>
<text text-anchor="middle" x="294.12" y="-69" font-family="Helvetica,sans-Serif" font-size="10.00">thread</text>
</a>
</g>
</g>
<!-- Node20&#45;&gt;Node21 -->
<g id="edge37" class="edge">
<title>Node20&#45;&gt;Node21</title>
<path fill="none" stroke="midnightblue" d="M254.19,-123.4C262.06,-113.36 272.67,-99.84 280.98,-89.25"/>
<polygon fill="midnightblue" stroke="midnightblue" points="283.88,-91.22 287.3,-81.19 278.38,-86.9 283.88,-91.22"/>
</g>
<!-- Node22&#45;&gt;Node3 -->
<g id="edge41" class="edge">
<title>Node22&#45;&gt;Node3</title>
<path fill="none" stroke="midnightblue" d="M658.44,-257.42C609.77,-239.14 527.67,-203.59 470.12,-154 448.31,-135.2 429.27,-107.56 418.24,-89.79"/>
<polygon fill="midnightblue" stroke="midnightblue" points="421.13,-87.81 412.96,-81.06 415.14,-91.43 421.13,-87.81"/>
</g>
<!-- Node22&#45;&gt;Node5 -->
<g id="edge42" class="edge">
<title>Node22&#45;&gt;Node5</title>
<path fill="none" stroke="midnightblue" d="M675.63,-257.39C646.37,-238.24 597.95,-200.96 579.12,-154 560.5,-107.54 601.16,-53.56 625.16,-27.18"/>
<polygon fill="midnightblue" stroke="midnightblue" points="627.96,-29.31 632.26,-19.63 622.86,-24.52 627.96,-29.31"/>
</g>
<!-- Node22&#45;&gt;Node6 -->
<g id="edge43" class="edge">
<title>Node22&#45;&gt;Node6</title>
<path fill="none" stroke="midnightblue" d="M750.69,-257.48C794.46,-245.57 856.44,-228.72 896.95,-217.7"/>
<polygon fill="midnightblue" stroke="midnightblue" points="898.03,-221.03 906.76,-215.03 896.2,-214.28 898.03,-221.03"/>
</g>
<!-- Node22&#45;&gt;Node7 -->
<g id="edge44" class="edge">
<title>Node22&#45;&gt;Node7</title>
<path fill="none" stroke="midnightblue" d="M728.22,-257.5C746.79,-248.09 771.05,-234.9 791.12,-221 866.26,-168.95 883.58,-152.7 947.12,-87 965.41,-68.09 983.99,-44.12 995.75,-28.2"/>
<polygon fill="midnightblue" stroke="midnightblue" points="998.77,-30.01 1001.84,-19.87 993.12,-25.88 998.77,-30.01"/>
</g>
<!-- Node22&#45;&gt;Node15 -->
<g id="edge53" class="edge">
<title>Node22&#45;&gt;Node15</title>
<path fill="none" stroke="midnightblue" d="M723.82,-257.36C737.89,-248.35 755.07,-235.64 767.12,-221 788.1,-195.52 791.83,-186.18 799.12,-154 802.17,-140.56 805.67,-135.12 799.12,-123 791.96,-109.74 779.64,-99.4 766.92,-91.63"/>
<polygon fill="midnightblue" stroke="midnightblue" points="768.54,-88.52 758.12,-86.65 765.1,-94.62 768.54,-88.52"/>
</g>
<!-- Node23 -->
<g id="node23" class="node">
<title>Node23</title>
<g id="a_node23"><a xlink:href="../../de/d06/factory_8h.html" target="_top" xlink:title=" ">
<polygon fill="white" stroke="black" points="652.12,-190.5 652.12,-220.5 758.12,-220.5 758.12,-190.5 652.12,-190.5"/>
<text text-anchor="start" x="660.12" y="-208.5" font-family="Helvetica,sans-Serif" font-size="10.00">automaton/core/data</text>
<text text-anchor="middle" x="705.12" y="-197.5" font-family="Helvetica,sans-Serif" font-size="10.00">/factory.h</text>
</a>
</g>
</g>
<!-- Node22&#45;&gt;Node23 -->
<g id="edge45" class="edge">
<title>Node22&#45;&gt;Node23</title>
<path fill="none" stroke="midnightblue" d="M700.43,-257.4C701.15,-249.56 702.07,-239.6 702.9,-230.57"/>
<polygon fill="midnightblue" stroke="midnightblue" points="706.39,-230.86 703.82,-220.58 699.42,-230.21 706.39,-230.86"/>
</g>
<!-- Node23&#45;&gt;Node3 -->
<g id="edge47" class="edge">
<title>Node23&#45;&gt;Node3</title>
<path fill="none" stroke="midnightblue" d="M652.1,-190.91C620.65,-182.05 580.36,-169.31 546.12,-154 502.5,-134.49 455.29,-104.48 428.95,-86.83"/>
<polygon fill="midnightblue" stroke="midnightblue" points="430.79,-83.85 420.54,-81.15 426.86,-89.65 430.79,-83.85"/>
</g>
<!-- Node23&#45;&gt;Node5 -->
<g id="edge48" class="edge">
<title>Node23&#45;&gt;Node5</title>
<path fill="none" stroke="midnightblue" d="M753.25,-190.38C770.86,-182.63 788.95,-171.01 799.12,-154 812.44,-131.74 790.6,-63.04 784.12,-56 755.25,-24.58 704.7,-14.94 672.09,-12.08"/>
<polygon fill="midnightblue" stroke="midnightblue" points="671.99,-8.57 661.77,-11.35 671.5,-15.55 671.99,-8.57"/>
</g>
<!-- Node23&#45;&gt;Node7 -->
<g id="edge50" class="edge">
<title>Node23&#45;&gt;Node7</title>
<path fill="none" stroke="midnightblue" d="M740.74,-190.37C762.75,-181.1 791.25,-168.12 815.12,-154 883.66,-113.47 957.33,-53.85 990.34,-26.16"/>
<polygon fill="midnightblue" stroke="midnightblue" points="992.8,-28.66 998.19,-19.54 988.29,-23.32 992.8,-28.66"/>
</g>
<!-- Node23&#45;&gt;Node12 -->
<g id="edge46" class="edge">
<title>Node23&#45;&gt;Node12</title>
<path fill="none" stroke="midnightblue" d="M662.84,-190.43C637.82,-181.41 605.89,-168.66 579.12,-154 513.46,-118.04 510.41,-86.68 442.12,-56 384.81,-30.25 311.32,-18.54 271.96,-13.81"/>
<polygon fill="midnightblue" stroke="midnightblue" points="272.14,-10.3 261.81,-12.65 271.35,-17.26 272.14,-10.3"/>
</g>
<!-- Node23&#45;&gt;Node14 -->
<g id="edge51" class="edge">
<title>Node23&#45;&gt;Node14</title>
<path fill="none" stroke="midnightblue" d="M691.24,-190.4C682.77,-181.79 671.77,-170.63 662.24,-160.94"/>
<polygon fill="midnightblue" stroke="midnightblue" points="664.49,-158.25 654.98,-153.58 659.51,-163.16 664.49,-158.25"/>
</g>
<!-- Node23&#45;&gt;Node15 -->
<g id="edge52" class="edge">
<title>Node23&#45;&gt;Node15</title>
<path fill="none" stroke="midnightblue" d="M706.94,-190.37C709.83,-167.94 715.5,-123.92 719.03,-96.49"/>
<polygon fill="midnightblue" stroke="midnightblue" points="722.51,-96.89 720.32,-86.52 715.57,-96 722.51,-96.89"/>
</g>
<!-- Node24 -->
<g id="node24" class="node">
<title>Node24</title>
<g id="a_node24"><a xlink:title=" ">
<polygon fill="white" stroke="#bfbfbf" points="750.62,-129 750.62,-148 789.62,-148 789.62,-129 750.62,-129"/>
<text text-anchor="middle" x="770.12" y="-136" font-family="Helvetica,sans-Serif" font-size="10.00">utility</text>
</a>
</g>
</g>
<!-- Node23&#45;&gt;Node24 -->
<g id="edge49" class="edge">
<title>Node23&#45;&gt;Node24</title>
<path fill="none" stroke="midnightblue" d="M719.23,-190.4C729.56,-180.06 743.6,-166.02 754.31,-155.31"/>
<polygon fill="midnightblue" stroke="midnightblue" points="756.83,-157.74 761.43,-148.19 751.88,-152.79 756.83,-157.74"/>
</g>
</g>
</svg>
