<?xml version="1.0" encoding="UTF-8" standalone="no"?>
<!DOCTYPE svg PUBLIC "-//W3C//DTD SVG 1.1//EN"
 "http://www.w3.org/Graphics/SVG/1.1/DTD/svg11.dtd">
<!-- Generated by graphviz version 2.44.0 ()
 -->
<!-- Title: blob.h Pages: 1 -->
<svg width="454pt" height="140pt"
 viewBox="0.00 0.00 454.00 140.00" xmlns="http://www.w3.org/2000/svg" xmlns:xlink="http://www.w3.org/1999/xlink">
<g id="graph0" class="graph" transform="scale(1 1) rotate(0) translate(4 136)">
<title>blob.h</title>
<polygon fill="white" stroke="transparent" points="-4,4 -4,-136 450,-136 450,4 -4,4"/>
<!-- Node1 -->
<g id="node1" class="node">
<title>Node1</title>
<g id="a_node1"><a xlink:title=" ">
<polygon fill="#bfbfbf" stroke="black" points="48.5,-112.5 48.5,-131.5 90.5,-131.5 90.5,-112.5 48.5,-112.5"/>
<text text-anchor="middle" x="69.5" y="-119.5" font-family="Helvetica,sans-Serif" font-size="10.00">blob.h</text>
</a>
</g>
</g>
<!-- Node2 -->
<g id="node2" class="node">
<title>Node2</title>
<g id="a_node2"><a xlink:title=" ">
<polygon fill="white" stroke="#bfbfbf" points="0,-0.5 0,-19.5 41,-19.5 41,-0.5 0,-0.5"/>
<text text-anchor="middle" x="20.5" y="-7.5" font-family="Helvetica,sans-Serif" font-size="10.00">string</text>
</a>
</g>
</g>
<!-- Node1&#45;&gt;Node2 -->
<g id="edge1" class="edge">
<title>Node1&#45;&gt;Node2</title>
<path fill="none" stroke="midnightblue" d="M62.14,-112.24C55.16,-103.54 44.84,-89.58 38.5,-76 31.54,-61.08 26.79,-42.94 23.93,-29.62"/>
<polygon fill="midnightblue" stroke="midnightblue" points="27.35,-28.86 21.96,-19.73 20.48,-30.23 27.35,-28.86"/>
</g>
<!-- Node3 -->
<g id="node3" class="node">
<title>Node3</title>
<g id="a_node3"><a xlink:title=" ">
<polygon fill="white" stroke="#bfbfbf" points="47.5,-56.5 47.5,-75.5 91.5,-75.5 91.5,-56.5 47.5,-56.5"/>
<text text-anchor="middle" x="69.5" y="-63.5" font-family="Helvetica,sans-Serif" font-size="10.00">vector</text>
</a>
</g>
</g>
<!-- Node1&#45;&gt;Node3 -->
<g id="edge2" class="edge">
<title>Node1&#45;&gt;Node3</title>
<path fill="none" stroke="midnightblue" d="M69.5,-112.08C69.5,-105.01 69.5,-94.86 69.5,-85.99"/>
<polygon fill="midnightblue" stroke="midnightblue" points="73,-85.75 69.5,-75.75 66,-85.75 73,-85.75"/>
</g>
<!-- Node4 -->
<g id="node4" class="node">
<title>Node4</title>
<g id="a_node4"><a xlink:href="../../dc/dac/io_8h.html" target="_top" xlink:title=" ">
<polygon fill="white" stroke="black" points="110,-56.5 110,-75.5 223,-75.5 223,-56.5 110,-56.5"/>
<text text-anchor="middle" x="166.5" y="-63.5" font-family="Helvetica,sans-Serif" font-size="10.00">automaton/core/io/io.h</text>
</a>
</g>
</g>
<!-- Node1&#45;&gt;Node4 -->
<g id="edge3" class="edge">
<title>Node1&#45;&gt;Node4</title>
<path fill="none" stroke="midnightblue" d="M85.08,-112.32C100.5,-103.74 124.31,-90.49 142.21,-80.52"/>
<polygon fill="midnightblue" stroke="midnightblue" points="143.92,-83.58 150.95,-75.65 140.51,-77.46 143.92,-83.58"/>
</g>
<!-- Node4&#45;&gt;Node2 -->
<g id="edge5" class="edge">
<title>Node4&#45;&gt;Node2</title>
<path fill="none" stroke="midnightblue" d="M143.37,-56.44C118.3,-47.17 78.21,-32.35 50.69,-22.17"/>
<polygon fill="midnightblue" stroke="midnightblue" points="51.76,-18.83 41.17,-18.64 49.33,-25.4 51.76,-18.83"/>
</g>
<!-- Node5 -->
<g id="node5" class="node">
<title>Node5</title>
<g id="a_node5"><a xlink:title=" ">
<polygon fill="white" stroke="#bfbfbf" points="59.5,-0.5 59.5,-19.5 105.5,-19.5 105.5,-0.5 59.5,-0.5"/>
<text text-anchor="middle" x="82.5" y="-7.5" font-family="Helvetica,sans-Serif" font-size="10.00">chrono</text>
</a>
</g>
</g>
<!-- Node4&#45;&gt;Node5 -->
<g id="edge4" class="edge">
<title>Node4&#45;&gt;Node5</title>
<path fill="none" stroke="midnightblue" d="M153,-56.32C139.9,-47.9 119.79,-34.97 104.39,-25.07"/>
<polygon fill="midnightblue" stroke="midnightblue" points="106.27,-22.12 95.96,-19.65 102.48,-28.01 106.27,-22.12"/>
</g>
<!-- Node6 -->
<g id="node6" class="node">
<title>Node6</title>
<g id="a_node6"><a xlink:title=" ">
<polygon fill="white" stroke="#bfbfbf" points="123.5,-0.5 123.5,-19.5 207.5,-19.5 207.5,-0.5 123.5,-0.5"/>
<text text-anchor="middle" x="165.5" y="-7.5" font-family="Helvetica,sans-Serif" font-size="10.00">g3log/g3log.hpp</text>
</a>
</g>
</g>
<!-- Node4&#45;&gt;Node6 -->
<g id="edge6" class="edge">
<title>Node4&#45;&gt;Node6</title>
<path fill="none" stroke="midnightblue" d="M166.33,-56.08C166.2,-49.01 166.02,-38.86 165.85,-29.99"/>
<polygon fill="midnightblue" stroke="midnightblue" points="169.35,-29.68 165.66,-19.75 162.35,-29.81 169.35,-29.68"/>
</g>
<!-- Node7 -->
<g id="node7" class="node">
<title>Node7</title>
<g id="a_node7"><a xlink:title=" ">
<polygon fill="white" stroke="#bfbfbf" points="226,-0.5 226,-19.5 329,-19.5 329,-0.5 226,-0.5"/>
<text text-anchor="middle" x="277.5" y="-7.5" font-family="Helvetica,sans-Serif" font-size="10.00">g3log/logworker.hpp</text>
</a>
</g>
</g>
<!-- Node4&#45;&gt;Node7 -->
<g id="edge7" class="edge">
<title>Node4&#45;&gt;Node7</title>
<path fill="none" stroke="midnightblue" d="M184.33,-56.32C202.22,-47.62 229.98,-34.12 250.55,-24.11"/>
<polygon fill="midnightblue" stroke="midnightblue" points="252.25,-27.18 259.71,-19.65 249.19,-20.88 252.25,-27.18"/>
</g>
<!-- Node8 -->
<g id="node8" class="node">
<title>Node8</title>
<g id="a_node8"><a xlink:title=" ">
<polygon fill="white" stroke="#bfbfbf" points="347,-0.5 347,-19.5 446,-19.5 446,-0.5 347,-0.5"/>
<text text-anchor="middle" x="396.5" y="-7.5" font-family="Helvetica,sans-Serif" font-size="10.00">g3log/loglevels.hpp</text>
</a>
</g>
</g>
<!-- Node4&#45;&gt;Node8 -->
<g id="edge8" class="edge">
<title>Node4&#45;&gt;Node8</title>
<path fill="none" stroke="midnightblue" d="M202.94,-56.44C242.9,-47.06 307.09,-31.99 350.48,-21.8"/>
<polygon fill="midnightblue" stroke="midnightblue" points="351.29,-25.21 360.23,-19.52 349.69,-18.39 351.29,-25.21"/>
</g>
</g>
</svg>
