<?xml version="1.0" encoding="UTF-8" standalone="no"?>
<!DOCTYPE svg PUBLIC "-//W3C//DTD SVG 1.1//EN"
 "http://www.w3.org/Graphics/SVG/1.1/DTD/svg11.dtd">
<!-- Generated by graphviz version 2.44.0 ()
 -->
<!-- Title: protobuf_factory.cc Pages: 1 -->
<!--zoomable 419 -->
<svg id="main" version="1.1" xmlns="http://www.w3.org/2000/svg" xmlns:xlink="http://www.w3.org/1999/xlink" xml:space="preserve" onload="init(evt)">
<style type="text/css"><![CDATA[
.edge:hover path { stroke: red; }
.edge:hover polygon { stroke: red; fill: red; }
]]></style>
<script type="text/javascript"><![CDATA[
var edges = document.getElementsByTagName('g');
if (edges && edges.length) {
  for (var i=0;i<edges.length;i++) {
    if (edges[i].id.substr(0,4)=='edge') {
      edges[i].setAttribute('class','edge');
    }
  }
}
]]></script>
        <defs>
                <circle id="rim" cx="0" cy="0" r="7"/>
                <circle id="rim2" cx="0" cy="0" r="3.5"/>
                <g id="zoomPlus">
                        <use xlink:href="#rim" fill="#404040">
                                <set attributeName="fill" to="#808080" begin="zoomplus.mouseover" end="zoomplus.mouseout"/>
                        </use>
                        <path d="M-4,0h8M0,-4v8" fill="none" stroke="white" stroke-width="1.5" pointer-events="none"/>
                </g>
                <g id="zoomMin">
                        <use xlink:href="#rim" fill="#404040">
                                <set attributeName="fill" to="#808080" begin="zoomminus.mouseover" end="zoomminus.mouseout"/>
                        </use>
                        <path d="M-4,0h8" fill="none" stroke="white" stroke-width="1.5" pointer-events="none"/>
                </g>
                <g id="dirArrow">
                        <path fill="none" stroke="white" stroke-width="1.5" d="M0,-3.0v7 M-2.5,-0.5L0,-3.0L2.5,-0.5"/>
                </g>
               <g id="resetDef">
                       <use xlink:href="#rim2" fill="#404040">
                               <set attributeName="fill" to="#808080" begin="reset.mouseover" end="reset.mouseout"/>
                       </use>
               </g>
        </defs>

<script type="text/javascript">
var viewWidth = 2307;
var viewHeight = 419;
var sectionId = 'dynsection-0';
</script>
<script xlink:href="../../svgpan.js"/>
<svg id="graph" class="graph">
<g id="viewport">
<title>protobuf_factory.cc</title>
<polygon fill="white" stroke="transparent" points="-4,4 -4,-415 2302.5,-415 2302.5,4 -4,4"/>
<!-- Node1 -->
<g id="node1" class="node">
<title>Node1</title>
<g id="a_node1"><a xlink:title=" ">
<polygon fill="#bfbfbf" stroke="black" points="1215.5,-391.5 1215.5,-410.5 1314.5,-410.5 1314.5,-391.5 1215.5,-391.5"/>
<text text-anchor="middle" x="1265" y="-398.5" font-family="Helvetica,sans-Serif" font-size="10.00">protobuf_factory.cc</text>
</a>
</g>
</g>
<!-- Node2 -->
<g id="node2" class="node">
<title>Node2</title>
<g id="a_node2"><a xlink:href="../../dc/dd5/protobuf__factory_8h.html" target="_top" xlink:title=" ">
<polygon fill="white" stroke="black" points="1197.5,-324.5 1197.5,-354.5 1332.5,-354.5 1332.5,-324.5 1197.5,-324.5"/>
<text text-anchor="start" x="1205.5" y="-342.5" font-family="Helvetica,sans-Serif" font-size="10.00">automaton/core/data</text>
<text text-anchor="middle" x="1265" y="-331.5" font-family="Helvetica,sans-Serif" font-size="10.00">/protobuf/protobuf_factory.h</text>
</a>
</g>
</g>
<!-- Node1&#45;&gt;Node2 -->
<g id="edge1" class="edge">
<title>Node1&#45;&gt;Node2</title>
<path fill="none" stroke="midnightblue" d="M1265,-391.48C1265,-384.47 1265,-374.19 1265,-364.7"/>
<polygon fill="midnightblue" stroke="midnightblue" points="1268.5,-364.52 1265,-354.52 1261.5,-364.52 1268.5,-364.52"/>
</g>
<!-- Node13 -->
<g id="node13" class="node">
<title>Node13</title>
<g id="a_node13"><a xlink:title=" ">
<polygon fill="white" stroke="#bfbfbf" points="1804,-263 1804,-282 1856,-282 1856,-263 1804,-263"/>
<text text-anchor="middle" x="1830" y="-270" font-family="Helvetica,sans-Serif" font-size="10.00">sstream</text>
</a>
</g>
</g>
<!-- Node1&#45;&gt;Node13 -->
<g id="edge46" class="edge">
<title>Node1&#45;&gt;Node13</title>
<path fill="none" stroke="midnightblue" d="M1314.78,-391.74C1408.68,-375.64 1617.98,-337.27 1790,-288 1792.8,-287.2 1795.68,-286.3 1798.55,-285.36"/>
<polygon fill="midnightblue" stroke="midnightblue" points="1799.87,-288.61 1808.17,-282.03 1797.58,-281.99 1799.87,-288.61"/>
</g>
<!-- Node21 -->
<g id="node21" class="node">
<title>Node21</title>
<g id="a_node21"><a xlink:href="../../d5/de1/protobuf__msg_8h.html" target="_top" xlink:title=" ">
<polygon fill="white" stroke="black" points="1023.5,-257.5 1023.5,-287.5 1148.5,-287.5 1148.5,-257.5 1023.5,-257.5"/>
<text text-anchor="start" x="1031.5" y="-275.5" font-family="Helvetica,sans-Serif" font-size="10.00">automaton/core/data</text>
<text text-anchor="middle" x="1086" y="-264.5" font-family="Helvetica,sans-Serif" font-size="10.00">/protobuf/protobuf_msg.h</text>
</a>
</g>
</g>
<!-- Node1&#45;&gt;Node21 -->
<g id="edge47" class="edge">
<title>Node1&#45;&gt;Node21</title>
<path fill="none" stroke="midnightblue" d="M1248.65,-391.35C1232.77,-382.74 1208.17,-368.84 1188,-355 1160.08,-335.83 1130,-311.28 1109.8,-294.15"/>
<polygon fill="midnightblue" stroke="midnightblue" points="1111.92,-291.36 1102.04,-287.53 1107.38,-296.69 1111.92,-291.36"/>
</g>
<!-- Node23 -->
<g id="node23" class="node">
<title>Node23</title>
<g id="a_node23"><a xlink:href="../../d0/dd3/protobuf__schema_8h.html" target="_top" xlink:title=" ">
<polygon fill="white" stroke="black" points="517,-257.5 517,-287.5 657,-287.5 657,-257.5 517,-257.5"/>
<text text-anchor="start" x="525" y="-275.5" font-family="Helvetica,sans-Serif" font-size="10.00">automaton/core/data</text>
<text text-anchor="middle" x="587" y="-264.5" font-family="Helvetica,sans-Serif" font-size="10.00">/protobuf/protobuf_schema.h</text>
</a>
</g>
</g>
<!-- Node1&#45;&gt;Node23 -->
<g id="edge48" class="edge">
<title>Node1&#45;&gt;Node23</title>
<path fill="none" stroke="midnightblue" d="M1219.2,-391.45C1105.68,-370.27 810.21,-315.15 667.05,-288.44"/>
<polygon fill="midnightblue" stroke="midnightblue" points="667.49,-284.96 657.02,-286.56 666.2,-291.84 667.49,-284.96"/>
</g>
<!-- Node24 -->
<g id="node24" class="node">
<title>Node24</title>
<g id="a_node24"><a xlink:href="../../dc/dac/io_8h.html" target="_top" xlink:title=" ">
<polygon fill="white" stroke="black" points="1919.5,-330 1919.5,-349 2032.5,-349 2032.5,-330 1919.5,-330"/>
<text text-anchor="middle" x="1976" y="-337" font-family="Helvetica,sans-Serif" font-size="10.00">automaton/core/io/io.h</text>
</a>
</g>
</g>
<!-- Node1&#45;&gt;Node24 -->
<g id="edge61" class="edge">
<title>Node1&#45;&gt;Node24</title>
<path fill="none" stroke="midnightblue" d="M1314.71,-395.84C1439.68,-385.38 1767.06,-357.99 1908.88,-346.12"/>
<polygon fill="midnightblue" stroke="midnightblue" points="1909.5,-349.58 1919.18,-345.26 1908.92,-342.6 1909.5,-349.58"/>
</g>
<!-- Node3 -->
<g id="node3" class="node">
<title>Node3</title>
<g id="a_node3"><a xlink:title=" ">
<polygon fill="white" stroke="#bfbfbf" points="28.5,-196 28.5,-215 165.5,-215 165.5,-196 28.5,-196"/>
<text text-anchor="middle" x="97" y="-203" font-family="Helvetica,sans-Serif" font-size="10.00">google/protobuf/descriptor.h</text>
</a>
</g>
</g>
<!-- Node2&#45;&gt;Node3 -->
<g id="edge2" class="edge">
<title>Node2&#45;&gt;Node3</title>
<path fill="none" stroke="midnightblue" d="M1197.32,-339.1C1051.51,-339.41 697.23,-334.76 405,-288 304.01,-271.84 188.23,-236.51 131.71,-218.13"/>
<polygon fill="midnightblue" stroke="midnightblue" points="132.78,-214.8 122.18,-215.01 130.6,-221.45 132.78,-214.8"/>
</g>
<!-- Node4 -->
<g id="node4" class="node">
<title>Node4</title>
<g id="a_node4"><a xlink:title=" ">
<polygon fill="white" stroke="#bfbfbf" points="909.5,-196 909.5,-215 1058.5,-215 1058.5,-196 909.5,-196"/>
<text text-anchor="middle" x="984" y="-203" font-family="Helvetica,sans-Serif" font-size="10.00">google/protobuf/descriptor.pb.h</text>
</a>
</g>
</g>
<!-- Node2&#45;&gt;Node4 -->
<g id="edge3" class="edge">
<title>Node2&#45;&gt;Node4</title>
<path fill="none" stroke="midnightblue" d="M1197.28,-332.31C1132.59,-325.12 1041.05,-311.17 1014,-288 995.52,-272.17 988.42,-243.9 985.69,-225.17"/>
<polygon fill="midnightblue" stroke="midnightblue" points="989.16,-224.7 984.52,-215.18 982.21,-225.52 989.16,-224.7"/>
</g>
<!-- Node5 -->
<g id="node5" class="node">
<title>Node5</title>
<g id="a_node5"><a xlink:title=" ">
<polygon fill="white" stroke="#bfbfbf" points="1114,-190.5 1114,-220.5 1236,-220.5 1236,-190.5 1114,-190.5"/>
<text text-anchor="start" x="1122" y="-208.5" font-family="Helvetica,sans-Serif" font-size="10.00">google/protobuf/dynamic</text>
<text text-anchor="middle" x="1175" y="-197.5" font-family="Helvetica,sans-Serif" font-size="10.00">_message.h</text>
</a>
</g>
</g>
<!-- Node2&#45;&gt;Node5 -->
<g id="edge4" class="edge">
<title>Node2&#45;&gt;Node5</title>
<path fill="none" stroke="midnightblue" d="M1237.46,-324.43C1223.1,-315.76 1206.41,-303.36 1196,-288 1184.5,-271.03 1179.3,-248.19 1176.95,-231.01"/>
<polygon fill="midnightblue" stroke="midnightblue" points="1180.38,-230.19 1175.77,-220.65 1173.42,-230.98 1180.38,-230.19"/>
</g>
<!-- Node6 -->
<g id="node6" class="node">
<title>Node6</title>
<g id="a_node6"><a xlink:title=" ">
<polygon fill="white" stroke="#bfbfbf" points="1254,-190.5 1254,-220.5 1348,-220.5 1348,-190.5 1254,-190.5"/>
<text text-anchor="start" x="1262" y="-208.5" font-family="Helvetica,sans-Serif" font-size="10.00">google/protobuf/io</text>
<text text-anchor="middle" x="1301" y="-197.5" font-family="Helvetica,sans-Serif" font-size="10.00">/tokenizer.h</text>
</a>
</g>
</g>
<!-- Node2&#45;&gt;Node6 -->
<g id="edge5" class="edge">
<title>Node2&#45;&gt;Node6</title>
<path fill="none" stroke="midnightblue" d="M1291.56,-324.47C1304.83,-315.88 1319.61,-303.55 1327,-288 1336.04,-268.99 1327.09,-246.04 1317.31,-229.35"/>
<polygon fill="midnightblue" stroke="midnightblue" points="1320.2,-227.37 1311.9,-220.78 1314.28,-231.11 1320.2,-227.37"/>
</g>
<!-- Node7 -->
<g id="node7" class="node">
<title>Node7</title>
<g id="a_node7"><a xlink:title=" ">
<polygon fill="white" stroke="#bfbfbf" points="260.5,-190.5 260.5,-220.5 389.5,-220.5 389.5,-190.5 260.5,-190.5"/>
<text text-anchor="start" x="268.5" y="-208.5" font-family="Helvetica,sans-Serif" font-size="10.00">google/protobuf/io</text>
<text text-anchor="middle" x="325" y="-197.5" font-family="Helvetica,sans-Serif" font-size="10.00">/zero_copy_stream_impl.h</text>
</a>
</g>
</g>
<!-- Node2&#45;&gt;Node7 -->
<g id="edge6" class="edge">
<title>Node2&#45;&gt;Node7</title>
<path fill="none" stroke="midnightblue" d="M1197.41,-337.82C1032.33,-335.57 612.34,-326.16 478,-288 431.3,-274.73 382.7,-245.83 353.14,-226.26"/>
<polygon fill="midnightblue" stroke="midnightblue" points="354.85,-223.19 344.6,-220.51 350.95,-229 354.85,-223.19"/>
</g>
<!-- Node8 -->
<g id="node8" class="node">
<title>Node8</title>
<g id="a_node8"><a xlink:title=" ">
<polygon fill="white" stroke="#bfbfbf" points="407.5,-196 407.5,-215 520.5,-215 520.5,-196 407.5,-196"/>
<text text-anchor="middle" x="464" y="-203" font-family="Helvetica,sans-Serif" font-size="10.00">google/protobuf/map.h</text>
</a>
</g>
</g>
<!-- Node2&#45;&gt;Node8 -->
<g id="edge7" class="edge">
<title>Node2&#45;&gt;Node8</title>
<path fill="none" stroke="midnightblue" d="M1197.45,-337.69C1022.68,-335.08 565.2,-324.76 508,-288 485.73,-273.69 473.91,-244.09 468.31,-224.77"/>
<polygon fill="midnightblue" stroke="midnightblue" points="471.67,-223.81 465.75,-215.02 464.9,-225.59 471.67,-223.81"/>
</g>
<!-- Node9 -->
<g id="node9" class="node">
<title>Node9</title>
<g id="a_node9"><a xlink:title=" ">
<polygon fill="white" stroke="#bfbfbf" points="757,-196 757,-215 891,-215 891,-196 757,-196"/>
<text text-anchor="middle" x="824" y="-203" font-family="Helvetica,sans-Serif" font-size="10.00">google/protobuf/message.h</text>
</a>
</g>
</g>
<!-- Node2&#45;&gt;Node9 -->
<g id="edge8" class="edge">
<title>Node2&#45;&gt;Node9</title>
<path fill="none" stroke="midnightblue" d="M1197.31,-331.33C1140.84,-324.11 1058.79,-310.72 990,-288 936.4,-270.3 878.13,-238.47 846.88,-220.27"/>
<polygon fill="midnightblue" stroke="midnightblue" points="848.48,-217.15 838.09,-215.09 844.93,-223.18 848.48,-217.15"/>
</g>
<!-- Node10 -->
<g id="node10" class="node">
<title>Node10</title>
<g id="a_node10"><a xlink:title=" ">
<polygon fill="white" stroke="#bfbfbf" points="1205,-263 1205,-282 1259,-282 1259,-263 1205,-263"/>
<text text-anchor="middle" x="1232" y="-270" font-family="Helvetica,sans-Serif" font-size="10.00">iostream</text>
</a>
</g>
</g>
<!-- Node2&#45;&gt;Node10 -->
<g id="edge9" class="edge">
<title>Node2&#45;&gt;Node10</title>
<path fill="none" stroke="midnightblue" d="M1257.84,-324.4C1252.9,-314.66 1246.29,-301.65 1240.99,-291.21"/>
<polygon fill="midnightblue" stroke="midnightblue" points="1244.06,-289.53 1236.41,-282.19 1237.82,-292.7 1244.06,-289.53"/>
</g>
<!-- Node11 -->
<g id="node11" class="node">
<title>Node11</title>
<g id="a_node11"><a xlink:title=" ">
<polygon fill="white" stroke="#bfbfbf" points="1624.5,-0.5 1624.5,-19.5 1659.5,-19.5 1659.5,-0.5 1624.5,-0.5"/>
<text text-anchor="middle" x="1642" y="-7.5" font-family="Helvetica,sans-Serif" font-size="10.00">map</text>
</a>
</g>
</g>
<!-- Node2&#45;&gt;Node11 -->
<g id="edge10" class="edge">
<title>Node2&#45;&gt;Node11</title>
<path fill="none" stroke="midnightblue" d="M1332.59,-335.16C1471.47,-326.46 1776,-297.04 1776,-206.5 1776,-206.5 1776,-206.5 1776,-137.5 1776,-79.1 1707.88,-39.67 1668.77,-21.85"/>
<polygon fill="midnightblue" stroke="midnightblue" points="1670.08,-18.6 1659.52,-17.78 1667.27,-25.01 1670.08,-18.6"/>
</g>
<!-- Node12 -->
<g id="node12" class="node">
<title>Node12</title>
<g id="a_node12"><a xlink:title=" ">
<polygon fill="white" stroke="#bfbfbf" points="1188.5,-62 1188.5,-81 1239.5,-81 1239.5,-62 1188.5,-62"/>
<text text-anchor="middle" x="1214" y="-69" font-family="Helvetica,sans-Serif" font-size="10.00">memory</text>
</a>
</g>
</g>
<!-- Node2&#45;&gt;Node12 -->
<g id="edge11" class="edge">
<title>Node2&#45;&gt;Node12</title>
<path fill="none" stroke="midnightblue" d="M1294.53,-324.47C1310.48,-315.74 1329.58,-303.27 1343,-288 1373.24,-253.58 1402.91,-226.33 1375,-190 1337.17,-140.76 1284.95,-196.84 1240,-154 1222.73,-137.54 1216.89,-109.64 1214.94,-91.14"/>
<polygon fill="midnightblue" stroke="midnightblue" points="1218.42,-90.73 1214.17,-81.03 1211.44,-91.27 1218.42,-90.73"/>
</g>
<!-- Node2&#45;&gt;Node13 -->
<g id="edge12" class="edge">
<title>Node2&#45;&gt;Node13</title>
<path fill="none" stroke="midnightblue" d="M1332.57,-337.41C1433.37,-334.58 1628.55,-324.41 1790,-288 1793.24,-287.27 1796.58,-286.35 1799.88,-285.32"/>
<polygon fill="midnightblue" stroke="midnightblue" points="1801.2,-288.57 1809.54,-282.04 1798.94,-281.95 1801.2,-288.57"/>
</g>
<!-- Node14 -->
<g id="node14" class="node">
<title>Node14</title>
<g id="a_node14"><a xlink:title=" ">
<polygon fill="white" stroke="#bfbfbf" points="1277.5,-263 1277.5,-282 1318.5,-282 1318.5,-263 1277.5,-263"/>
<text text-anchor="middle" x="1298" y="-270" font-family="Helvetica,sans-Serif" font-size="10.00">stack</text>
</a>
</g>
</g>
<!-- Node2&#45;&gt;Node14 -->
<g id="edge13" class="edge">
<title>Node2&#45;&gt;Node14</title>
<path fill="none" stroke="midnightblue" d="M1272.16,-324.4C1277.1,-314.66 1283.71,-301.65 1289.01,-291.21"/>
<polygon fill="midnightblue" stroke="midnightblue" points="1292.18,-292.7 1293.59,-282.19 1285.94,-289.53 1292.18,-292.7"/>
</g>
<!-- Node15 -->
<g id="node15" class="node">
<title>Node15</title>
<g id="a_node15"><a xlink:title=" ">
<polygon fill="white" stroke="#bfbfbf" points="1464.5,-0.5 1464.5,-19.5 1505.5,-19.5 1505.5,-0.5 1464.5,-0.5"/>
<text text-anchor="middle" x="1485" y="-7.5" font-family="Helvetica,sans-Serif" font-size="10.00">string</text>
</a>
</g>
</g>
<!-- Node2&#45;&gt;Node15 -->
<g id="edge14" class="edge">
<title>Node2&#45;&gt;Node15</title>
<path fill="none" stroke="midnightblue" d="M1332.78,-334.79C1422.4,-328.89 1574.64,-315.17 1623,-288 1656.59,-269.13 1659.45,-254.77 1678,-221 1699.49,-181.87 1723.15,-161.17 1700,-123 1659.53,-56.29 1564.92,-27.46 1515.81,-16.63"/>
<polygon fill="midnightblue" stroke="midnightblue" points="1516.27,-13.16 1505.77,-14.53 1514.84,-20.01 1516.27,-13.16"/>
</g>
<!-- Node16 -->
<g id="node16" class="node">
<title>Node16</title>
<g id="a_node16"><a xlink:title=" ">
<polygon fill="white" stroke="#bfbfbf" points="1632.5,-129 1632.5,-148 1671.5,-148 1671.5,-129 1632.5,-129"/>
<text text-anchor="middle" x="1652" y="-136" font-family="Helvetica,sans-Serif" font-size="10.00">utility</text>
</a>
</g>
</g>
<!-- Node2&#45;&gt;Node16 -->
<g id="edge15" class="edge">
<title>Node2&#45;&gt;Node16</title>
<path fill="none" stroke="midnightblue" d="M1332.74,-338.35C1417.87,-334.13 1561.48,-312.78 1633,-221 1647.13,-202.86 1651.05,-176.01 1651.99,-158.14"/>
<polygon fill="midnightblue" stroke="midnightblue" points="1655.49,-158.2 1652.25,-148.11 1648.49,-158.01 1655.49,-158.2"/>
</g>
<!-- Node17 -->
<g id="node17" class="node">
<title>Node17</title>
<g id="a_node17"><a xlink:title=" ">
<polygon fill="white" stroke="#bfbfbf" points="720,-0.5 720,-19.5 764,-19.5 764,-0.5 720,-0.5"/>
<text text-anchor="middle" x="742" y="-7.5" font-family="Helvetica,sans-Serif" font-size="10.00">vector</text>
</a>
</g>
</g>
<!-- Node2&#45;&gt;Node17 -->
<g id="edge16" class="edge">
<title>Node2&#45;&gt;Node17</title>
<path fill="none" stroke="midnightblue" d="M1197.44,-338.61C935.3,-338.15 0,-328.01 0,-206.5 0,-206.5 0,-206.5 0,-137.5 0,-44.8 101.99,-78.17 192,-56 291.28,-31.54 607.35,-16.59 709.69,-12.29"/>
<polygon fill="midnightblue" stroke="midnightblue" points="709.89,-15.78 719.73,-11.87 709.6,-8.79 709.89,-15.78"/>
</g>
<!-- Node18 -->
<g id="node18" class="node">
<title>Node18</title>
<g id="a_node18"><a xlink:href="../../de/d06/factory_8h.html" target="_top" xlink:title=" ">
<polygon fill="white" stroke="black" points="1518,-190.5 1518,-220.5 1624,-220.5 1624,-190.5 1518,-190.5"/>
<text text-anchor="start" x="1526" y="-208.5" font-family="Helvetica,sans-Serif" font-size="10.00">automaton/core/data</text>
<text text-anchor="middle" x="1571" y="-197.5" font-family="Helvetica,sans-Serif" font-size="10.00">/factory.h</text>
</a>
</g>
</g>
<!-- Node2&#45;&gt;Node18 -->
<g id="edge17" class="edge">
<title>Node2&#45;&gt;Node18</title>
<path fill="none" stroke="midnightblue" d="M1332.58,-328.72C1372.77,-321.18 1423.95,-308.48 1466,-288 1498.05,-272.39 1529.66,-245.94 1549.68,-227.42"/>
<polygon fill="midnightblue" stroke="midnightblue" points="1552.14,-229.91 1557.02,-220.5 1547.34,-224.82 1552.14,-229.91"/>
</g>
<!-- Node20 -->
<g id="node20" class="node">
<title>Node20</title>
<g id="a_node20"><a xlink:href="../../d7/de3/schema_8h.html" target="_top" xlink:title=" ">
<polygon fill="white" stroke="black" points="1432,-56.5 1432,-86.5 1538,-86.5 1538,-56.5 1432,-56.5"/>
<text text-anchor="start" x="1440" y="-74.5" font-family="Helvetica,sans-Serif" font-size="10.00">automaton/core/data</text>
<text text-anchor="middle" x="1485" y="-63.5" font-family="Helvetica,sans-Serif" font-size="10.00">/schema.h</text>
</a>
</g>
</g>
<!-- Node2&#45;&gt;Node20 -->
<g id="edge45" class="edge">
<title>Node2&#45;&gt;Node20</title>
<path fill="none" stroke="midnightblue" d="M1332.71,-333.03C1414.21,-325.56 1545.52,-310.5 1589,-288 1625.85,-268.93 1631.38,-255.78 1654,-221 1678.63,-183.13 1708.68,-158.71 1681,-123 1664.7,-101.97 1599.13,-88.15 1548.26,-80.37"/>
<polygon fill="midnightblue" stroke="midnightblue" points="1548.71,-76.9 1538.3,-78.9 1547.68,-83.82 1548.71,-76.9"/>
</g>
<!-- Node2&#45;&gt;Node21 -->
<g id="edge31" class="edge">
<title>Node2&#45;&gt;Node21</title>
<path fill="none" stroke="midnightblue" d="M1226.16,-324.4C1199.18,-314.6 1163.06,-301.48 1134.23,-291.02"/>
<polygon fill="midnightblue" stroke="midnightblue" points="1135.36,-287.7 1124.76,-287.58 1132.97,-294.28 1135.36,-287.7"/>
</g>
<!-- Node18&#45;&gt;Node11 -->
<g id="edge18" class="edge">
<title>Node18&#45;&gt;Node11</title>
<path fill="none" stroke="midnightblue" d="M1576.22,-190.27C1588.87,-155.8 1621.15,-67.81 1635.25,-29.4"/>
<polygon fill="midnightblue" stroke="midnightblue" points="1638.69,-30.17 1638.85,-19.58 1632.12,-27.76 1638.69,-30.17"/>
</g>
<!-- Node18&#45;&gt;Node12 -->
<g id="edge19" class="edge">
<title>Node18&#45;&gt;Node12</title>
<path fill="none" stroke="midnightblue" d="M1517.88,-196.44C1435.76,-183.83 1286.28,-160.23 1276,-154 1250.87,-138.77 1232.34,-109.23 1222.37,-90.21"/>
<polygon fill="midnightblue" stroke="midnightblue" points="1225.43,-88.5 1217.83,-81.12 1219.17,-91.63 1225.43,-88.5"/>
</g>
<!-- Node18&#45;&gt;Node15 -->
<g id="edge20" class="edge">
<title>Node18&#45;&gt;Node15</title>
<path fill="none" stroke="midnightblue" d="M1572.13,-190.18C1573.64,-162.18 1573.55,-99.15 1547,-56 1538.81,-42.69 1525.08,-32.12 1512.62,-24.58"/>
<polygon fill="midnightblue" stroke="midnightblue" points="1514.29,-21.5 1503.87,-19.62 1510.85,-27.6 1514.29,-21.5"/>
</g>
<!-- Node18&#45;&gt;Node16 -->
<g id="edge21" class="edge">
<title>Node18&#45;&gt;Node16</title>
<path fill="none" stroke="midnightblue" d="M1588.58,-190.4C1601.71,-179.86 1619.63,-165.48 1633.07,-154.69"/>
<polygon fill="midnightblue" stroke="midnightblue" points="1635.56,-157.18 1641.17,-148.19 1631.18,-151.72 1635.56,-157.18"/>
</g>
<!-- Node18&#45;&gt;Node17 -->
<g id="edge22" class="edge">
<title>Node18&#45;&gt;Node17</title>
<path fill="none" stroke="midnightblue" d="M1517.89,-196.59C1446.36,-185.59 1326.01,-165.69 1309,-154 1266.72,-124.94 1291.7,-82.88 1248,-56 1207.69,-31.21 879.3,-16.36 774.22,-12.2"/>
<polygon fill="midnightblue" stroke="midnightblue" points="774.33,-8.71 764.2,-11.81 774.06,-15.7 774.33,-8.71"/>
</g>
<!-- Node19 -->
<g id="node19" class="node">
<title>Node19</title>
<g id="a_node19"><a xlink:href="../../d1/d71/msg_8h.html" target="_top" xlink:title=" ">
<polygon fill="white" stroke="black" points="1318,-123.5 1318,-153.5 1424,-153.5 1424,-123.5 1318,-123.5"/>
<text text-anchor="start" x="1326" y="-141.5" font-family="Helvetica,sans-Serif" font-size="10.00">automaton/core/data</text>
<text text-anchor="middle" x="1371" y="-130.5" font-family="Helvetica,sans-Serif" font-size="10.00">/msg.h</text>
</a>
</g>
</g>
<!-- Node18&#45;&gt;Node19 -->
<g id="edge23" class="edge">
<title>Node18&#45;&gt;Node19</title>
<path fill="none" stroke="midnightblue" d="M1527.6,-190.4C1497.2,-180.52 1456.39,-167.25 1424.06,-156.74"/>
<polygon fill="midnightblue" stroke="midnightblue" points="1424.9,-153.34 1414.31,-153.58 1422.74,-160 1424.9,-153.34"/>
</g>
<!-- Node18&#45;&gt;Node20 -->
<g id="edge30" class="edge">
<title>Node18&#45;&gt;Node20</title>
<path fill="none" stroke="midnightblue" d="M1561.8,-190.37C1546.93,-167.55 1517.48,-122.36 1499.69,-95.04"/>
<polygon fill="midnightblue" stroke="midnightblue" points="1502.53,-92.99 1494.14,-86.52 1496.66,-96.81 1502.53,-92.99"/>
</g>
<!-- Node19&#45;&gt;Node12 -->
<g id="edge24" class="edge">
<title>Node19&#45;&gt;Node12</title>
<path fill="none" stroke="midnightblue" d="M1336.93,-123.4C1309.26,-111.94 1270.61,-95.94 1244.08,-84.95"/>
<polygon fill="midnightblue" stroke="midnightblue" points="1245.13,-81.6 1234.55,-81.01 1242.45,-88.07 1245.13,-81.6"/>
</g>
<!-- Node19&#45;&gt;Node15 -->
<g id="edge25" class="edge">
<title>Node19&#45;&gt;Node15</title>
<path fill="none" stroke="midnightblue" d="M1377.88,-123.42C1386.73,-106.24 1403.32,-76.89 1423,-56 1434.3,-44 1449.19,-33.07 1461.54,-24.99"/>
<polygon fill="midnightblue" stroke="midnightblue" points="1463.43,-27.94 1470,-19.64 1459.68,-22.03 1463.43,-27.94"/>
</g>
<!-- Node19&#45;&gt;Node20 -->
<g id="edge26" class="edge">
<title>Node19&#45;&gt;Node20</title>
<path fill="none" stroke="midnightblue" d="M1395.74,-123.4C1412.02,-114.11 1433.54,-101.84 1451.37,-91.67"/>
<polygon fill="midnightblue" stroke="midnightblue" points="1453.36,-94.57 1460.31,-86.58 1449.89,-88.49 1453.36,-94.57"/>
</g>
<!-- Node20&#45;&gt;Node11 -->
<g id="edge27" class="edge">
<title>Node20&#45;&gt;Node11</title>
<path fill="none" stroke="midnightblue" d="M1522.21,-56.4C1550.71,-45.6 1589.35,-30.95 1614.95,-21.25"/>
<polygon fill="midnightblue" stroke="midnightblue" points="1616.29,-24.49 1624.4,-17.67 1613.81,-17.94 1616.29,-24.49"/>
</g>
<!-- Node20&#45;&gt;Node15 -->
<g id="edge28" class="edge">
<title>Node20&#45;&gt;Node15</title>
<path fill="none" stroke="midnightblue" d="M1485,-56.4C1485,-48.47 1485,-38.46 1485,-29.86"/>
<polygon fill="midnightblue" stroke="midnightblue" points="1488.5,-29.66 1485,-19.66 1481.5,-29.66 1488.5,-29.66"/>
</g>
<!-- Node20&#45;&gt;Node17 -->
<g id="edge29" class="edge">
<title>Node20&#45;&gt;Node17</title>
<path fill="none" stroke="midnightblue" d="M1431.94,-66.25C1395.86,-63.36 1347.05,-59.45 1304,-56 1102.6,-39.87 860.59,-20.49 774.41,-13.59"/>
<polygon fill="midnightblue" stroke="midnightblue" points="774.47,-10.09 764.22,-12.78 773.91,-17.07 774.47,-10.09"/>
</g>
<!-- Node21&#45;&gt;Node3 -->
<g id="edge33" class="edge">
<title>Node21&#45;&gt;Node3</title>
<path fill="none" stroke="midnightblue" d="M1023.36,-268.43C884.31,-261.46 539.33,-243.29 251,-221 226.52,-219.11 199.88,-216.72 175.75,-214.43"/>
<polygon fill="midnightblue" stroke="midnightblue" points="175.86,-210.92 165.57,-213.45 175.19,-217.89 175.86,-210.92"/>
</g>
<!-- Node21&#45;&gt;Node4 -->
<g id="edge34" class="edge">
<title>Node21&#45;&gt;Node4</title>
<path fill="none" stroke="midnightblue" d="M1063.87,-257.4C1046.76,-246.5 1023.2,-231.48 1006.1,-220.58"/>
<polygon fill="midnightblue" stroke="midnightblue" points="1007.66,-217.43 997.35,-215.01 1003.9,-223.33 1007.66,-217.43"/>
</g>
<!-- Node21&#45;&gt;Node5 -->
<g id="edge35" class="edge">
<title>Node21&#45;&gt;Node5</title>
<path fill="none" stroke="midnightblue" d="M1105.31,-257.4C1117.67,-248.37 1133.9,-236.51 1147.59,-226.52"/>
<polygon fill="midnightblue" stroke="midnightblue" points="1149.71,-229.3 1155.73,-220.58 1145.59,-223.65 1149.71,-229.3"/>
</g>
<!-- Node21&#45;&gt;Node6 -->
<g id="edge36" class="edge">
<title>Node21&#45;&gt;Node6</title>
<path fill="none" stroke="midnightblue" d="M1132.39,-257.48C1165.34,-247.51 1209.75,-234.09 1244.73,-223.51"/>
<polygon fill="midnightblue" stroke="midnightblue" points="1245.77,-226.86 1254.33,-220.61 1243.74,-220.15 1245.77,-226.86"/>
</g>
<!-- Node21&#45;&gt;Node7 -->
<g id="edge37" class="edge">
<title>Node21&#45;&gt;Node7</title>
<path fill="none" stroke="midnightblue" d="M1023.12,-269.47C903.5,-265.04 634.8,-252.4 399.91,-221.16"/>
<polygon fill="midnightblue" stroke="midnightblue" points="400.19,-217.67 389.81,-219.8 399.25,-224.6 400.19,-217.67"/>
</g>
<!-- Node21&#45;&gt;Node8 -->
<g id="edge38" class="edge">
<title>Node21&#45;&gt;Node8</title>
<path fill="none" stroke="midnightblue" d="M1023.22,-264.94C905.43,-252.63 652.26,-226.17 531.18,-213.52"/>
<polygon fill="midnightblue" stroke="midnightblue" points="531.25,-210.01 520.94,-212.45 530.52,-216.97 531.25,-210.01"/>
</g>
<!-- Node21&#45;&gt;Node9 -->
<g id="edge39" class="edge">
<title>Node21&#45;&gt;Node9</title>
<path fill="none" stroke="midnightblue" d="M1029.47,-257.48C981.18,-245.5 912.68,-228.5 868.29,-217.49"/>
<polygon fill="midnightblue" stroke="midnightblue" points="868.93,-214.04 858.38,-215.03 867.24,-220.83 868.93,-214.04"/>
</g>
<!-- Node21&#45;&gt;Node12 -->
<g id="edge40" class="edge">
<title>Node21&#45;&gt;Node12</title>
<path fill="none" stroke="midnightblue" d="M1148.55,-261.9C1226.48,-249.64 1350.32,-229.04 1357,-221 1365.8,-210.4 1365.58,-200.78 1357,-190 1312.39,-134.01 1244.61,-209.99 1200,-154 1185.51,-135.81 1194.96,-108 1203.86,-90.04"/>
<polygon fill="midnightblue" stroke="midnightblue" points="1206.96,-91.66 1208.59,-81.19 1200.79,-88.36 1206.96,-91.66"/>
</g>
<!-- Node21&#45;&gt;Node15 -->
<g id="edge41" class="edge">
<title>Node21&#45;&gt;Node15</title>
<path fill="none" stroke="midnightblue" d="M1087.18,-257.28C1091.31,-217.45 1109.01,-104.52 1179,-56 1223.19,-25.37 1385.54,-15.12 1454.11,-12.11"/>
<polygon fill="midnightblue" stroke="midnightblue" points="1454.43,-15.6 1464.27,-11.69 1454.14,-8.61 1454.43,-15.6"/>
</g>
<!-- Node21&#45;&gt;Node18 -->
<g id="edge42" class="edge">
<title>Node21&#45;&gt;Node18</title>
<path fill="none" stroke="midnightblue" d="M1148.51,-263.1C1164.03,-261.06 1180.61,-258.91 1196,-257 1332.77,-239.99 1368.05,-243.6 1504,-221 1505.25,-220.79 1506.52,-220.57 1507.8,-220.35"/>
<polygon fill="midnightblue" stroke="midnightblue" points="1508.5,-223.78 1517.7,-218.52 1507.23,-216.9 1508.5,-223.78"/>
</g>
<!-- Node21&#45;&gt;Node19 -->
<g id="edge43" class="edge">
<title>Node21&#45;&gt;Node19</title>
<path fill="none" stroke="midnightblue" d="M1148.77,-263.17C1235.49,-251.36 1382.23,-230.17 1390,-221 1403.84,-204.67 1395.46,-180.15 1385.85,-162.27"/>
<polygon fill="midnightblue" stroke="midnightblue" points="1388.87,-160.49 1380.82,-153.6 1382.81,-164.01 1388.87,-160.49"/>
</g>
<!-- Node21&#45;&gt;Node20 -->
<g id="edge44" class="edge">
<title>Node21&#45;&gt;Node20</title>
<path fill="none" stroke="midnightblue" d="M1148.71,-262.79C1239.18,-250.07 1396.76,-227.24 1408,-221 1442.44,-201.9 1448.12,-189.09 1466,-154 1475.14,-136.05 1479.96,-113.64 1482.45,-96.87"/>
<polygon fill="midnightblue" stroke="midnightblue" points="1485.94,-97.13 1483.77,-86.76 1479,-96.22 1485.94,-97.13"/>
</g>
<!-- Node22 -->
<g id="node22" class="node">
<title>Node22</title>
<g id="a_node22"><a xlink:title=" ">
<polygon fill="white" stroke="#bfbfbf" points="615.5,-190.5 615.5,-220.5 738.5,-220.5 738.5,-190.5 615.5,-190.5"/>
<text text-anchor="start" x="623.5" y="-208.5" font-family="Helvetica,sans-Serif" font-size="10.00">google/protobuf/compiler</text>
<text text-anchor="middle" x="677" y="-197.5" font-family="Helvetica,sans-Serif" font-size="10.00">/parser.h</text>
</a>
</g>
</g>
<!-- Node21&#45;&gt;Node22 -->
<g id="edge32" class="edge">
<title>Node21&#45;&gt;Node22</title>
<path fill="none" stroke="midnightblue" d="M1023.23,-263.14C957.37,-254.14 850.6,-238.89 748.41,-221.01"/>
<polygon fill="midnightblue" stroke="midnightblue" points="748.99,-217.56 738.54,-219.28 747.78,-224.46 748.99,-217.56"/>
</g>
<!-- Node23&#45;&gt;Node3 -->
<g id="edge50" class="edge">
<title>Node23&#45;&gt;Node3</title>
<path fill="none" stroke="midnightblue" d="M517,-263.88C435.79,-254.8 297.96,-238.61 180,-221 171.38,-219.71 162.28,-218.24 153.38,-216.74"/>
<polygon fill="midnightblue" stroke="midnightblue" points="153.91,-213.28 143.47,-215.04 152.73,-220.18 153.91,-213.28"/>
</g>
<!-- Node23&#45;&gt;Node4 -->
<g id="edge51" class="edge">
<title>Node23&#45;&gt;Node4</title>
<path fill="none" stroke="midnightblue" d="M657.27,-260.39C720.73,-250.3 816.66,-234.92 900,-221 908.18,-219.63 916.81,-218.17 925.3,-216.72"/>
<polygon fill="midnightblue" stroke="midnightblue" points="925.89,-220.17 935.16,-215.02 924.71,-213.27 925.89,-220.17"/>
</g>
<!-- Node23&#45;&gt;Node5 -->
<g id="edge52" class="edge">
<title>Node23&#45;&gt;Node5</title>
<path fill="none" stroke="midnightblue" d="M657.02,-264.77C750.56,-255.63 921.4,-238.43 1067,-221 1078.89,-219.58 1091.5,-217.97 1103.74,-216.36"/>
<polygon fill="midnightblue" stroke="midnightblue" points="1104.47,-219.8 1113.92,-215.01 1103.55,-212.86 1104.47,-219.8"/>
</g>
<!-- Node23&#45;&gt;Node6 -->
<g id="edge53" class="edge">
<title>Node23&#45;&gt;Node6</title>
<path fill="none" stroke="midnightblue" d="M657.12,-270.18C776.11,-267.05 1025.13,-256.65 1243.71,-221.02"/>
<polygon fill="midnightblue" stroke="midnightblue" points="1244.47,-224.44 1253.77,-219.36 1243.33,-217.53 1244.47,-224.44"/>
</g>
<!-- Node23&#45;&gt;Node7 -->
<g id="edge54" class="edge">
<title>Node23&#45;&gt;Node7</title>
<path fill="none" stroke="midnightblue" d="M530.47,-257.48C489.72,-247.37 434.57,-233.68 391.67,-223.04"/>
<polygon fill="midnightblue" stroke="midnightblue" points="392.43,-219.62 381.88,-220.61 390.74,-226.42 392.43,-219.62"/>
</g>
<!-- Node23&#45;&gt;Node8 -->
<g id="edge55" class="edge">
<title>Node23&#45;&gt;Node8</title>
<path fill="none" stroke="midnightblue" d="M560.31,-257.4C539.11,-246.19 509.68,-230.64 488.95,-219.69"/>
<polygon fill="midnightblue" stroke="midnightblue" points="490.57,-216.58 480.1,-215.01 487.3,-222.77 490.57,-216.58"/>
</g>
<!-- Node23&#45;&gt;Node9 -->
<g id="edge56" class="edge">
<title>Node23&#45;&gt;Node9</title>
<path fill="none" stroke="midnightblue" d="M638.13,-257.48C681.54,-245.57 743,-228.72 783.17,-217.7"/>
<polygon fill="midnightblue" stroke="midnightblue" points="784.19,-221.05 792.9,-215.03 782.33,-214.3 784.19,-221.05"/>
</g>
<!-- Node23&#45;&gt;Node12 -->
<g id="edge57" class="edge">
<title>Node23&#45;&gt;Node12</title>
<path fill="none" stroke="midnightblue" d="M578.53,-257.37C569.08,-239.59 557.1,-209.08 573,-190 651.39,-95.94 1055.43,-76.94 1178.43,-73.31"/>
<polygon fill="midnightblue" stroke="midnightblue" points="1178.55,-76.81 1188.45,-73.03 1178.36,-69.81 1178.55,-76.81"/>
</g>
<!-- Node23&#45;&gt;Node15 -->
<g id="edge58" class="edge">
<title>Node23&#45;&gt;Node15</title>
<path fill="none" stroke="midnightblue" d="M516.81,-265.8C423.44,-257.49 268.1,-240.87 251,-221 242.01,-210.56 242.01,-200.44 251,-190 332.55,-95.32 1270.88,-25.81 1454.09,-13.09"/>
<polygon fill="midnightblue" stroke="midnightblue" points="1454.39,-16.58 1464.13,-12.4 1453.91,-9.6 1454.39,-16.58"/>
</g>
<!-- Node23&#45;&gt;Node17 -->
<g id="edge59" class="edge">
<title>Node23&#45;&gt;Node17</title>
<path fill="none" stroke="midnightblue" d="M516.76,-266.81C415.2,-259.3 237.31,-243.14 218,-221 169.79,-165.74 168.41,-110.03 218,-56 251.31,-19.71 600.86,-12.62 709.78,-11.3"/>
<polygon fill="midnightblue" stroke="midnightblue" points="709.88,-14.79 719.84,-11.18 709.8,-7.8 709.88,-14.79"/>
</g>
<!-- Node23&#45;&gt;Node20 -->
<g id="edge60" class="edge">
<title>Node23&#45;&gt;Node20</title>
<path fill="none" stroke="midnightblue" d="M585.64,-257.38C584.72,-238.73 586.32,-206.33 606,-190 676.78,-131.27 1353.33,-199.96 1433,-154 1454.91,-141.36 1469.05,-115.35 1476.97,-96.1"/>
<polygon fill="midnightblue" stroke="midnightblue" points="1480.24,-97.34 1480.55,-86.75 1473.7,-94.84 1480.24,-97.34"/>
</g>
<!-- Node23&#45;&gt;Node22 -->
<g id="edge49" class="edge">
<title>Node23&#45;&gt;Node22</title>
<path fill="none" stroke="midnightblue" d="M606.53,-257.4C619.03,-248.37 635.44,-236.51 649.28,-226.52"/>
<polygon fill="midnightblue" stroke="midnightblue" points="651.45,-229.27 657.51,-220.58 647.35,-223.59 651.45,-229.27"/>
</g>
<!-- Node24&#45;&gt;Node15 -->
<g id="edge63" class="edge">
<title>Node24&#45;&gt;Node15</title>
<path fill="none" stroke="midnightblue" d="M1956.17,-329.86C1939.44,-321.54 1916.17,-307.37 1903,-288 1882.08,-257.25 1884,-243.69 1884,-206.5 1884,-206.5 1884,-206.5 1884,-137.5 1884,-60.27 1608.93,-24.08 1515.57,-14.02"/>
<polygon fill="midnightblue" stroke="midnightblue" points="1515.92,-10.54 1505.61,-12.97 1515.19,-17.5 1515.92,-10.54"/>
</g>
<!-- Node25 -->
<g id="node25" class="node">
<title>Node25</title>
<g id="a_node25"><a xlink:title=" ">
<polygon fill="white" stroke="#bfbfbf" points="1912,-263 1912,-282 1958,-282 1958,-263 1912,-263"/>
<text text-anchor="middle" x="1935" y="-270" font-family="Helvetica,sans-Serif" font-size="10.00">chrono</text>
</a>
</g>
</g>
<!-- Node24&#45;&gt;Node25 -->
<g id="edge62" class="edge">
<title>Node24&#45;&gt;Node25</title>
<path fill="none" stroke="midnightblue" d="M1970.47,-329.73C1964.2,-319.79 1953.82,-303.34 1945.91,-290.79"/>
<polygon fill="midnightblue" stroke="midnightblue" points="1948.74,-288.72 1940.44,-282.13 1942.82,-292.45 1948.74,-288.72"/>
</g>
<!-- Node26 -->
<g id="node26" class="node">
<title>Node26</title>
<g id="a_node26"><a xlink:title=" ">
<polygon fill="white" stroke="#bfbfbf" points="1976,-263 1976,-282 2060,-282 2060,-263 1976,-263"/>
<text text-anchor="middle" x="2018" y="-270" font-family="Helvetica,sans-Serif" font-size="10.00">g3log/g3log.hpp</text>
</a>
</g>
</g>
<!-- Node24&#45;&gt;Node26 -->
<g id="edge64" class="edge">
<title>Node24&#45;&gt;Node26</title>
<path fill="none" stroke="midnightblue" d="M1981.66,-329.73C1988.09,-319.79 1998.72,-303.34 2006.83,-290.79"/>
<polygon fill="midnightblue" stroke="midnightblue" points="2009.94,-292.43 2012.43,-282.13 2004.06,-288.63 2009.94,-292.43"/>
</g>
<!-- Node27 -->
<g id="node27" class="node">
<title>Node27</title>
<g id="a_node27"><a xlink:title=" ">
<polygon fill="white" stroke="#bfbfbf" points="2078.5,-263 2078.5,-282 2181.5,-282 2181.5,-263 2078.5,-263"/>
<text text-anchor="middle" x="2130" y="-270" font-family="Helvetica,sans-Serif" font-size="10.00">g3log/logworker.hpp</text>
</a>
</g>
</g>
<!-- Node24&#45;&gt;Node27 -->
<g id="edge65" class="edge">
<title>Node24&#45;&gt;Node27</title>
<path fill="none" stroke="midnightblue" d="M1996.45,-329.87C2023.03,-318.65 2069.64,-298.98 2100.17,-286.09"/>
<polygon fill="midnightblue" stroke="midnightblue" points="2101.61,-289.28 2109.47,-282.17 2098.89,-282.83 2101.61,-289.28"/>
</g>
<!-- Node28 -->
<g id="node28" class="node">
<title>Node28</title>
<g id="a_node28"><a xlink:title=" ">
<polygon fill="white" stroke="#bfbfbf" points="2199.5,-263 2199.5,-282 2298.5,-282 2298.5,-263 2199.5,-263"/>
<text text-anchor="middle" x="2249" y="-270" font-family="Helvetica,sans-Serif" font-size="10.00">g3log/loglevels.hpp</text>
</a>
</g>
</g>
<!-- Node24&#45;&gt;Node28 -->
<g id="edge66" class="edge">
<title>Node24&#45;&gt;Node28</title>
<path fill="none" stroke="midnightblue" d="M2012.94,-329.99C2055.8,-320.08 2128.58,-303.13 2191,-288 2195.67,-286.87 2200.55,-285.67 2205.41,-284.47"/>
<polygon fill="midnightblue" stroke="midnightblue" points="2206.42,-287.82 2215.28,-282.02 2204.73,-281.03 2206.42,-287.82"/>
</g>
</g>
</svg>
        <g id="navigator" transform="translate(0 0)" fill="#404254">
                <rect fill="#f2f5e9" fill-opacity="0.5" stroke="#606060" stroke-width=".5" x="0" y="0" width="60" height="60"/>
                <use id="zoomplus" xlink:href="#zoomPlus" x="17" y="9" onmousedown="handleZoom(evt,'in')"/>
                <use id="zoomminus" xlink:href="#zoomMin" x="42" y="9" onmousedown="handleZoom(evt,'out')"/>
                <use id="reset" xlink:href="#resetDef" x="30" y="36" onmousedown="handleReset()"/>
                <g id="arrowUp" xlink:href="#dirArrow" transform="translate(30 24)" onmousedown="handlePan(0,-1)">
                  <use xlink:href="#rim" fill="#404040">
                        <set attributeName="fill" to="#808080" begin="arrowUp.mouseover" end="arrowUp.mouseout"/>
                  </use>
                  <path fill="none" stroke="white" stroke-width="1.5" d="M0,-3.0v7 M-2.5,-0.5L0,-3.0L2.5,-0.5"/>
                </g>
                <g id="arrowRight" xlink:href="#dirArrow" transform="rotate(90) translate(36 -43)" onmousedown="handlePan(1,0)">
                  <use xlink:href="#rim" fill="#404040">
                        <set attributeName="fill" to="#808080" begin="arrowRight.mouseover" end="arrowRight.mouseout"/>
                  </use>
                  <path fill="none" stroke="white" stroke-width="1.5" d="M0,-3.0v7 M-2.5,-0.5L0,-3.0L2.5,-0.5"/>
                </g>
                <g id="arrowDown" xlink:href="#dirArrow" transform="rotate(180) translate(-30 -48)" onmousedown="handlePan(0,1)">
                  <use xlink:href="#rim" fill="#404040">
                        <set attributeName="fill" to="#808080" begin="arrowDown.mouseover" end="arrowDown.mouseout"/>
                  </use>
                  <path fill="none" stroke="white" stroke-width="1.5" d="M0,-3.0v7 M-2.5,-0.5L0,-3.0L2.5,-0.5"/>
                </g>
                <g id="arrowLeft" xlink:href="#dirArrow" transform="rotate(270) translate(-36 17)" onmousedown="handlePan(-1,0)">
                  <use xlink:href="#rim" fill="#404040">
                        <set attributeName="fill" to="#808080" begin="arrowLeft.mouseover" end="arrowLeft.mouseout"/>
                  </use>
                  <path fill="none" stroke="white" stroke-width="1.5" d="M0,-3.0v7 M-2.5,-0.5L0,-3.0L2.5,-0.5"/>
                </g>
        </g>
        <svg viewBox="0 0 15 15" width="100%" height="30px" preserveAspectRatio="xMaxYMin meet">
         <g id="arrow_out" transform="scale(0.3 0.3)">
          <a xlink:href="protobuf__factory_8cc__incl_org.svg" target="_base">
           <rect id="button" ry="5" rx="5" y="6" x="6" height="38" width="38"
                fill="#f2f5e9" fill-opacity="0.5" stroke="#606060" stroke-width="1.0"/>
           <path id="arrow"
             d="M 11.500037,31.436501 C 11.940474,20.09759 22.043105,11.32322 32.158766,21.979434 L 37.068811,17.246167 C 37.068811,17.246167 37.088388,32 37.088388,32 L 22.160133,31.978069 C 22.160133,31.978069 26.997745,27.140456 26.997745,27.140456 C 18.528582,18.264221 13.291696,25.230495 11.500037,31.436501 z"
             style="fill:#404040;"/>
          </a>
         </g>
        </svg>
</svg>
