<?xml version="1.0" encoding="UTF-8" standalone="no"?>
<!DOCTYPE svg PUBLIC "-//W3C//DTD SVG 1.1//EN"
 "http://www.w3.org/Graphics/SVG/1.1/DTD/svg11.dtd">
<!-- Generated by graphviz version 2.42.3 ()
 -->
<!-- Title: factory.h Pages: 1 -->
<svg width="369pt" height="218pt"
 viewBox="0.00 0.00 369.00 218.00" xmlns="http://www.w3.org/2000/svg" xmlns:xlink="http://www.w3.org/1999/xlink">
<g id="graph0" class="graph" transform="scale(1 1) rotate(0) translate(4 214)">
<title>factory.h</title>
<polygon fill="white" stroke="transparent" points="-4,4 -4,-214 365,-214 365,4 -4,4"/>
<!-- Node1 -->
<g id="node1" class="node">
<title>Node1</title>
<g id="a_node1"><a xlink:title=" ">
<polygon fill="#bfbfbf" stroke="black" points="148,-190.5 148,-209.5 201,-209.5 201,-190.5 148,-190.5"/>
<text text-anchor="middle" x="174.5" y="-197.5" font-family="Helvetica,sans-Serif" font-size="10.00">factory.h</text>
</a>
</g>
</g>
<!-- Node2 -->
<g id="node2" class="node">
<title>Node2</title>
<g id="a_node2"><a xlink:title=" ">
<polygon fill="white" stroke="#bfbfbf" points="0,-0.5 0,-19.5 35,-19.5 35,-0.5 0,-0.5"/>
<text text-anchor="middle" x="17.5" y="-7.5" font-family="Helvetica,sans-Serif" font-size="10.00">map</text>
</a>
</g>
</g>
<!-- Node1&#45;&gt;Node2 -->
<g id="edge1" class="edge">
<title>Node1&#45;&gt;Node2</title>
<path fill="none" stroke="midnightblue" d="M147.59,-194.75C122.07,-189.39 84.2,-177.84 60.5,-154 26.63,-119.93 19.26,-60.25 17.78,-29.89"/>
<polygon fill="midnightblue" stroke="midnightblue" points="21.27,-29.69 17.45,-19.8 14.28,-29.91 21.27,-29.69"/>
</g>
<!-- Node3 -->
<g id="node3" class="node">
<title>Node3</title>
<g id="a_node3"><a xlink:title=" ">
<polygon fill="white" stroke="#bfbfbf" points="214,-62 214,-81 265,-81 265,-62 214,-62"/>
<text text-anchor="middle" x="239.5" y="-69" font-family="Helvetica,sans-Serif" font-size="10.00">memory</text>
</a>
</g>
</g>
<!-- Node1&#45;&gt;Node3 -->
<g id="edge2" class="edge">
<title>Node1&#45;&gt;Node3</title>
<path fill="none" stroke="midnightblue" d="M194.54,-190.4C209,-183.03 227.49,-170.9 236.5,-154 246.88,-134.53 245.74,-108.56 243.25,-91.22"/>
<polygon fill="midnightblue" stroke="midnightblue" points="246.67,-90.49 241.53,-81.22 239.78,-91.67 246.67,-90.49"/>
</g>
<!-- Node4 -->
<g id="node4" class="node">
<title>Node4</title>
<g id="a_node4"><a xlink:title=" ">
<polygon fill="white" stroke="#bfbfbf" points="84,-0.5 84,-19.5 125,-19.5 125,-0.5 84,-0.5"/>
<text text-anchor="middle" x="104.5" y="-7.5" font-family="Helvetica,sans-Serif" font-size="10.00">string</text>
</a>
</g>
</g>
<!-- Node1&#45;&gt;Node4 -->
<g id="edge3" class="edge">
<title>Node1&#45;&gt;Node4</title>
<path fill="none" stroke="midnightblue" d="M155.13,-190.47C123.39,-175.2 61.9,-139.75 42.5,-87 37.74,-74.07 36.24,-68.27 42.5,-56 49.5,-42.27 62.87,-31.75 75.4,-24.35"/>
<polygon fill="midnightblue" stroke="midnightblue" points="77.17,-27.37 84.28,-19.51 73.82,-21.22 77.17,-27.37"/>
</g>
<!-- Node5 -->
<g id="node5" class="node">
<title>Node5</title>
<g id="a_node5"><a xlink:title=" ">
<polygon fill="white" stroke="#bfbfbf" points="322,-129 322,-148 361,-148 361,-129 322,-129"/>
<text text-anchor="middle" x="341.5" y="-136" font-family="Helvetica,sans-Serif" font-size="10.00">utility</text>
</a>
</g>
</g>
<!-- Node1&#45;&gt;Node5 -->
<g id="edge4" class="edge">
<title>Node1&#45;&gt;Node5</title>
<path fill="none" stroke="midnightblue" d="M201.21,-190.63C228.22,-182.01 271.06,-167.91 307.5,-154 309.15,-153.37 310.84,-152.71 312.53,-152.03"/>
<polygon fill="midnightblue" stroke="midnightblue" points="314.28,-155.09 322.19,-148.04 311.61,-148.63 314.28,-155.09"/>
</g>
<!-- Node6 -->
<g id="node6" class="node">
<title>Node6</title>
<g id="a_node6"><a xlink:title=" ">
<polygon fill="white" stroke="#bfbfbf" points="207.5,-0.5 207.5,-19.5 251.5,-19.5 251.5,-0.5 207.5,-0.5"/>
<text text-anchor="middle" x="229.5" y="-7.5" font-family="Helvetica,sans-Serif" font-size="10.00">vector</text>
</a>
</g>
</g>
<!-- Node1&#45;&gt;Node6 -->
<g id="edge5" class="edge">
<title>Node1&#45;&gt;Node6</title>
<path fill="none" stroke="midnightblue" d="M201.17,-190.44C219.04,-183.37 241.74,-171.62 255.5,-154 282.76,-119.1 290.22,-97.01 273.5,-56 268.7,-44.23 259.17,-33.86 250.21,-26.05"/>
<polygon fill="midnightblue" stroke="midnightblue" points="252.25,-23.2 242.28,-19.63 247.85,-28.64 252.25,-23.2"/>
</g>
<!-- Node7 -->
<g id="node7" class="node">
<title>Node7</title>
<g id="a_node7"><a xlink:href="../../d1/d71/msg_8h.html" target="_top" xlink:title=" ">
<polygon fill="white" stroke="black" points="121.5,-123.5 121.5,-153.5 227.5,-153.5 227.5,-123.5 121.5,-123.5"/>
<text text-anchor="start" x="129.5" y="-141.5" font-family="Helvetica,sans-Serif" font-size="10.00">automaton/core/data</text>
<text text-anchor="middle" x="174.5" y="-130.5" font-family="Helvetica,sans-Serif" font-size="10.00">/msg.h</text>
</a>
</g>
</g>
<!-- Node1&#45;&gt;Node7 -->
<g id="edge6" class="edge">
<title>Node1&#45;&gt;Node7</title>
<path fill="none" stroke="midnightblue" d="M174.5,-190.48C174.5,-183.47 174.5,-173.19 174.5,-163.7"/>
<polygon fill="midnightblue" stroke="midnightblue" points="178,-163.52 174.5,-153.52 171,-163.52 178,-163.52"/>
</g>
<!-- Node8 -->
<g id="node8" class="node">
<title>Node8</title>
<g id="a_node8"><a xlink:href="../../d7/de3/schema_8h.html" target="_top" xlink:title=" ">
<polygon fill="white" stroke="black" points="51.5,-56.5 51.5,-86.5 157.5,-86.5 157.5,-56.5 51.5,-56.5"/>
<text text-anchor="start" x="59.5" y="-74.5" font-family="Helvetica,sans-Serif" font-size="10.00">automaton/core/data</text>
<text text-anchor="middle" x="104.5" y="-63.5" font-family="Helvetica,sans-Serif" font-size="10.00">/schema.h</text>
</a>
</g>
</g>
<!-- Node1&#45;&gt;Node8 -->
<g id="edge13" class="edge">
<title>Node1&#45;&gt;Node8</title>
<path fill="none" stroke="midnightblue" d="M155.05,-190.39C140.71,-182.95 122.09,-170.73 112.5,-154 102.58,-136.7 101.13,-113.89 101.85,-96.8"/>
<polygon fill="midnightblue" stroke="midnightblue" points="105.36,-96.73 102.56,-86.51 98.38,-96.25 105.36,-96.73"/>
</g>
<!-- Node7&#45;&gt;Node3 -->
<g id="edge7" class="edge">
<title>Node7&#45;&gt;Node3</title>
<path fill="none" stroke="midnightblue" d="M188.6,-123.4C198.94,-113.06 212.98,-99.02 223.69,-88.31"/>
<polygon fill="midnightblue" stroke="midnightblue" points="226.21,-90.74 230.81,-81.19 221.26,-85.79 226.21,-90.74"/>
</g>
<!-- Node7&#45;&gt;Node4 -->
<g id="edge8" class="edge">
<title>Node7&#45;&gt;Node4</title>
<path fill="none" stroke="midnightblue" d="M176.44,-123.49C178.1,-106.37 178.59,-77.09 166.5,-56 158.78,-42.54 145.22,-32 132.75,-24.51"/>
<polygon fill="midnightblue" stroke="midnightblue" points="134.39,-21.42 123.95,-19.61 130.98,-27.54 134.39,-21.42"/>
</g>
<!-- Node7&#45;&gt;Node8 -->
<g id="edge9" class="edge">
<title>Node7&#45;&gt;Node8</title>
<path fill="none" stroke="midnightblue" d="M159.31,-123.4C149.95,-114.71 137.78,-103.4 127.29,-93.66"/>
<polygon fill="midnightblue" stroke="midnightblue" points="129.37,-90.82 119.66,-86.58 124.61,-95.95 129.37,-90.82"/>
</g>
<!-- Node8&#45;&gt;Node2 -->
<g id="edge10" class="edge">
<title>Node8&#45;&gt;Node2</title>
<path fill="none" stroke="midnightblue" d="M83.88,-56.4C70.2,-47.04 52.29,-34.79 38.52,-25.38"/>
<polygon fill="midnightblue" stroke="midnightblue" points="40.39,-22.41 30.16,-19.66 36.44,-28.19 40.39,-22.41"/>
</g>
<!-- Node8&#45;&gt;Node4 -->
<g id="edge11" class="edge">
<title>Node8&#45;&gt;Node4</title>
<path fill="none" stroke="midnightblue" d="M104.5,-56.4C104.5,-48.47 104.5,-38.46 104.5,-29.86"/>
<polygon fill="midnightblue" stroke="midnightblue" points="108,-29.66 104.5,-19.66 101,-29.66 108,-29.66"/>
</g>
<!-- Node8&#45;&gt;Node6 -->
<g id="edge12" class="edge">
<title>Node8&#45;&gt;Node6</title>
<path fill="none" stroke="midnightblue" d="M134.12,-56.4C154.72,-46.59 181.98,-33.62 202.08,-24.05"/>
<polygon fill="midnightblue" stroke="midnightblue" points="203.79,-27.12 211.31,-19.66 200.78,-20.8 203.79,-27.12"/>
</g>
</g>
</svg>
