<?xml version="1.0" encoding="UTF-8" standalone="no"?>
<!DOCTYPE svg PUBLIC "-//W3C//DTD SVG 1.1//EN"
 "http://www.w3.org/Graphics/SVG/1.1/DTD/svg11.dtd">
<!-- Generated by graphviz version 2.44.0 ()
 -->
<!-- Title: engine.cc Pages: 1 -->
<svg width="2651pt" height="419pt"
 viewBox="0.00 0.00 2650.50 419.00" xmlns="http://www.w3.org/2000/svg" xmlns:xlink="http://www.w3.org/1999/xlink">
<g id="graph0" class="graph" transform="scale(1 1) rotate(0) translate(4 415)">
<title>engine.cc</title>
<polygon fill="white" stroke="transparent" points="-4,4 -4,-415 2646.5,-415 2646.5,4 -4,4"/>
<!-- Node1 -->
<g id="node1" class="node">
<title>Node1</title>
<g id="a_node1"><a xlink:title=" ">
<polygon fill="#bfbfbf" stroke="black" points="1122,-391.5 1122,-410.5 1180,-410.5 1180,-391.5 1122,-391.5"/>
<text text-anchor="middle" x="1151" y="-398.5" font-family="Helvetica,sans-Serif" font-size="10.00">engine.cc</text>
</a>
</g>
</g>
<!-- Node2 -->
<g id="node2" class="node">
<title>Node2</title>
<g id="a_node2"><a xlink:href="../../d1/d55/engine_8h.html" target="_top" xlink:title=" ">
<polygon fill="white" stroke="black" points="245.5,-257.5 245.5,-287.5 356.5,-287.5 356.5,-257.5 245.5,-257.5"/>
<text text-anchor="start" x="253.5" y="-275.5" font-family="Helvetica,sans-Serif" font-size="10.00">automaton/core/script</text>
<text text-anchor="middle" x="301" y="-264.5" font-family="Helvetica,sans-Serif" font-size="10.00">/engine.h</text>
</a>
</g>
</g>
<!-- Node1&#45;&gt;Node2 -->
<g id="edge1" class="edge">
<title>Node1&#45;&gt;Node2</title>
<path fill="none" stroke="midnightblue" d="M1121.72,-398.98C1014.06,-395.06 640.45,-379.94 524,-355 457.54,-340.76 384.17,-311.05 340.37,-291.71"/>
<polygon fill="midnightblue" stroke="midnightblue" points="341.78,-288.5 331.22,-287.63 338.93,-294.9 341.78,-288.5"/>
</g>
<!-- Node13 -->
<g id="node13" class="node">
<title>Node13</title>
<g id="a_node13"><a xlink:href="../../de/d06/factory_8h.html" target="_top" xlink:title=" ">
<polygon fill="white" stroke="black" points="566,-190.5 566,-220.5 672,-220.5 672,-190.5 566,-190.5"/>
<text text-anchor="start" x="574" y="-208.5" font-family="Helvetica,sans-Serif" font-size="10.00">automaton/core/data</text>
<text text-anchor="middle" x="619" y="-197.5" font-family="Helvetica,sans-Serif" font-size="10.00">/factory.h</text>
</a>
</g>
</g>
<!-- Node1&#45;&gt;Node13 -->
<g id="edge33" class="edge">
<title>Node1&#45;&gt;Node13</title>
<path fill="none" stroke="midnightblue" d="M1121.79,-398.02C1022.11,-390.65 697.86,-361.34 630,-288 615.96,-272.83 614.28,-248.75 615.48,-230.69"/>
<polygon fill="midnightblue" stroke="midnightblue" points="618.97,-230.91 616.47,-220.62 612,-230.22 618.97,-230.91"/>
</g>
<!-- Node15 -->
<g id="node15" class="node">
<title>Node15</title>
<g id="a_node15"><a xlink:href="../../d1/d71/msg_8h.html" target="_top" xlink:title=" ">
<polygon fill="white" stroke="black" points="647,-123.5 647,-153.5 753,-153.5 753,-123.5 647,-123.5"/>
<text text-anchor="start" x="655" y="-141.5" font-family="Helvetica,sans-Serif" font-size="10.00">automaton/core/data</text>
<text text-anchor="middle" x="700" y="-130.5" font-family="Helvetica,sans-Serif" font-size="10.00">/msg.h</text>
</a>
</g>
</g>
<!-- Node1&#45;&gt;Node15 -->
<g id="edge34" class="edge">
<title>Node1&#45;&gt;Node15</title>
<path fill="none" stroke="midnightblue" d="M1121.93,-399.52C1033.1,-397.69 766.5,-389.4 688,-355 602.24,-317.42 502.93,-266.44 557,-190 575.09,-164.43 607.25,-151.72 636.5,-145.44"/>
<polygon fill="midnightblue" stroke="midnightblue" points="637.53,-148.8 646.69,-143.47 636.21,-141.93 637.53,-148.8"/>
</g>
<!-- Node16 -->
<g id="node16" class="node">
<title>Node16</title>
<g id="a_node16"><a xlink:href="../../d7/de3/schema_8h.html" target="_top" xlink:title=" ">
<polygon fill="white" stroke="black" points="998,-56.5 998,-86.5 1104,-86.5 1104,-56.5 998,-56.5"/>
<text text-anchor="start" x="1006" y="-74.5" font-family="Helvetica,sans-Serif" font-size="10.00">automaton/core/data</text>
<text text-anchor="middle" x="1051" y="-63.5" font-family="Helvetica,sans-Serif" font-size="10.00">/schema.h</text>
</a>
</g>
</g>
<!-- Node1&#45;&gt;Node16 -->
<g id="edge67" class="edge">
<title>Node1&#45;&gt;Node16</title>
<path fill="none" stroke="midnightblue" d="M1180.26,-398.56C1349.87,-389.65 2195.33,-337.58 2076,-190 1995.04,-89.87 1326.1,-94.05 1231,-87 1192.32,-84.13 1149,-80.65 1114.54,-77.82"/>
<polygon fill="midnightblue" stroke="midnightblue" points="1114.4,-74.3 1104.15,-76.96 1113.83,-81.27 1114.4,-74.3"/>
</g>
<!-- Node18 -->
<g id="node18" class="node">
<title>Node18</title>
<g id="a_node18"><a xlink:title=" ">
<polygon fill="white" stroke="#bfbfbf" points="2380,-330 2380,-349 2430,-349 2430,-330 2380,-330"/>
<text text-anchor="middle" x="2405" y="-337" font-family="Helvetica,sans-Serif" font-size="10.00">iomanip</text>
</a>
</g>
</g>
<!-- Node1&#45;&gt;Node18 -->
<g id="edge32" class="edge">
<title>Node1&#45;&gt;Node18</title>
<path fill="none" stroke="midnightblue" d="M1180.21,-399.56C1354.32,-396.86 2251.55,-381.71 2371,-355 2373.52,-354.44 2376.09,-353.69 2378.63,-352.84"/>
<polygon fill="midnightblue" stroke="midnightblue" points="2380.06,-356.03 2388.11,-349.14 2377.52,-349.51 2380.06,-356.03"/>
</g>
<!-- Node19 -->
<g id="node19" class="node">
<title>Node19</title>
<g id="a_node19"><a xlink:href="../../dc/dd5/protobuf__factory_8h.html" target="_top" xlink:title=" ">
<polygon fill="white" stroke="black" points="1083.5,-324.5 1083.5,-354.5 1218.5,-354.5 1218.5,-324.5 1083.5,-324.5"/>
<text text-anchor="start" x="1091.5" y="-342.5" font-family="Helvetica,sans-Serif" font-size="10.00">automaton/core/data</text>
<text text-anchor="middle" x="1151" y="-331.5" font-family="Helvetica,sans-Serif" font-size="10.00">/protobuf/protobuf_factory.h</text>
</a>
</g>
</g>
<!-- Node1&#45;&gt;Node19 -->
<g id="edge35" class="edge">
<title>Node1&#45;&gt;Node19</title>
<path fill="none" stroke="midnightblue" d="M1151,-391.48C1151,-384.47 1151,-374.19 1151,-364.7"/>
<polygon fill="midnightblue" stroke="midnightblue" points="1154.5,-364.52 1151,-354.52 1147.5,-364.52 1154.5,-364.52"/>
</g>
<!-- Node31 -->
<g id="node31" class="node">
<title>Node31</title>
<g id="a_node31"><a xlink:href="../../dc/dac/io_8h.html" target="_top" xlink:title=" ">
<polygon fill="white" stroke="black" points="2248.5,-330 2248.5,-349 2361.5,-349 2361.5,-330 2248.5,-330"/>
<text text-anchor="middle" x="2305" y="-337" font-family="Helvetica,sans-Serif" font-size="10.00">automaton/core/io/io.h</text>
</a>
</g>
</g>
<!-- Node1&#45;&gt;Node31 -->
<g id="edge68" class="edge">
<title>Node1&#45;&gt;Node31</title>
<path fill="none" stroke="midnightblue" d="M1180.36,-399.8C1304.54,-398.74 1798.89,-392.28 2203,-355 2215.65,-353.83 2229.13,-352.2 2242.01,-350.44"/>
<polygon fill="midnightblue" stroke="midnightblue" points="2242.76,-353.87 2252.18,-349.02 2241.79,-346.94 2242.76,-353.87"/>
</g>
<!-- Node3 -->
<g id="node3" class="node">
<title>Node3</title>
<g id="a_node3"><a xlink:title=" ">
<polygon fill="white" stroke="#bfbfbf" points="28,-196 28,-215 66,-215 66,-196 28,-196"/>
<text text-anchor="middle" x="47" y="-203" font-family="Helvetica,sans-Serif" font-size="10.00">array</text>
</a>
</g>
</g>
<!-- Node2&#45;&gt;Node3 -->
<g id="edge2" class="edge">
<title>Node2&#45;&gt;Node3</title>
<path fill="none" stroke="midnightblue" d="M245.26,-261.8C200.09,-253.21 135.12,-239.22 80,-221 78.13,-220.38 76.22,-219.7 74.31,-218.97"/>
<polygon fill="midnightblue" stroke="midnightblue" points="75.49,-215.67 64.91,-215.11 72.83,-222.15 75.49,-215.67"/>
</g>
<!-- Node4 -->
<g id="node4" class="node">
<title>Node4</title>
<g id="a_node4"><a xlink:title=" ">
<polygon fill="white" stroke="#bfbfbf" points="609.5,-62 609.5,-81 660.5,-81 660.5,-62 609.5,-62"/>
<text text-anchor="middle" x="635" y="-69" font-family="Helvetica,sans-Serif" font-size="10.00">memory</text>
</a>
</g>
</g>
<!-- Node2&#45;&gt;Node4 -->
<g id="edge3" class="edge">
<title>Node2&#45;&gt;Node4</title>
<path fill="none" stroke="midnightblue" d="M356.79,-261.14C383.91,-253.75 415.42,-241.38 438,-221 474,-188.5 449.57,-155.02 486,-123 518.03,-94.85 566.4,-82.25 599.27,-76.71"/>
<polygon fill="midnightblue" stroke="midnightblue" points="600.01,-80.14 609.36,-75.15 598.94,-73.22 600.01,-80.14"/>
</g>
<!-- Node5 -->
<g id="node5" class="node">
<title>Node5</title>
<g id="a_node5"><a xlink:title=" ">
<polygon fill="white" stroke="#bfbfbf" points="617.5,-0.5 617.5,-19.5 658.5,-19.5 658.5,-0.5 617.5,-0.5"/>
<text text-anchor="middle" x="638" y="-7.5" font-family="Helvetica,sans-Serif" font-size="10.00">string</text>
</a>
</g>
</g>
<!-- Node2&#45;&gt;Node5 -->
<g id="edge4" class="edge">
<title>Node2&#45;&gt;Node5</title>
<path fill="none" stroke="midnightblue" d="M320.95,-257.43C334.37,-247.68 352.23,-234.14 367,-221 412.32,-180.68 414.98,-161.32 462,-123 511.78,-82.42 577.05,-44.32 612.46,-24.74"/>
<polygon fill="midnightblue" stroke="midnightblue" points="614.53,-27.59 621.61,-19.71 611.16,-21.45 614.53,-27.59"/>
</g>
<!-- Node6 -->
<g id="node6" class="node">
<title>Node6</title>
<g id="a_node6"><a xlink:title=" ">
<polygon fill="white" stroke="#bfbfbf" points="1185,-0.5 1185,-19.5 1229,-19.5 1229,-0.5 1185,-0.5"/>
<text text-anchor="middle" x="1207" y="-7.5" font-family="Helvetica,sans-Serif" font-size="10.00">vector</text>
</a>
</g>
</g>
<!-- Node2&#45;&gt;Node6 -->
<g id="edge5" class="edge">
<title>Node2&#45;&gt;Node6</title>
<path fill="none" stroke="midnightblue" d="M356.76,-268.9C543.04,-260.11 1133.12,-231.52 1150,-221 1214.76,-180.66 1212.82,-73.28 1209.11,-29.73"/>
<polygon fill="midnightblue" stroke="midnightblue" points="1212.58,-29.29 1208.12,-19.68 1205.62,-29.98 1212.58,-29.29"/>
</g>
<!-- Node7 -->
<g id="node7" class="node">
<title>Node7</title>
<g id="a_node7"><a xlink:href="../../dd/de2/digital__signature_8h.html" target="_top" xlink:title=" ">
<polygon fill="white" stroke="black" points="318.5,-56.5 318.5,-86.5 431.5,-86.5 431.5,-56.5 318.5,-56.5"/>
<text text-anchor="start" x="326.5" y="-74.5" font-family="Helvetica,sans-Serif" font-size="10.00">automaton/core/crypto</text>
<text text-anchor="middle" x="375" y="-63.5" font-family="Helvetica,sans-Serif" font-size="10.00">/digital_signature.h</text>
</a>
</g>
</g>
<!-- Node2&#45;&gt;Node7 -->
<g id="edge6" class="edge">
<title>Node2&#45;&gt;Node7</title>
<path fill="none" stroke="midnightblue" d="M270.88,-257.44C256.62,-249.05 240.99,-236.9 233,-221 226.81,-208.69 227.73,-202.73 233,-190 252.05,-144 300.4,-110.51 335.4,-91.32"/>
<polygon fill="midnightblue" stroke="midnightblue" points="337.24,-94.3 344.43,-86.52 333.96,-88.12 337.24,-94.3"/>
</g>
<!-- Node9 -->
<g id="node9" class="node">
<title>Node9</title>
<g id="a_node9"><a xlink:href="../../d2/dab/hash__transformation_8h.html" target="_top" xlink:title=" ">
<polygon fill="white" stroke="black" points="242,-190.5 242,-220.5 358,-220.5 358,-190.5 242,-190.5"/>
<text text-anchor="start" x="250" y="-208.5" font-family="Helvetica,sans-Serif" font-size="10.00">automaton/core/crypto</text>
<text text-anchor="middle" x="300" y="-197.5" font-family="Helvetica,sans-Serif" font-size="10.00">/hash_transformation.h</text>
</a>
</g>
</g>
<!-- Node2&#45;&gt;Node9 -->
<g id="edge9" class="edge">
<title>Node2&#45;&gt;Node9</title>
<path fill="none" stroke="midnightblue" d="M300.78,-257.4C300.66,-249.64 300.51,-239.81 300.37,-230.86"/>
<polygon fill="midnightblue" stroke="midnightblue" points="303.87,-230.52 300.22,-220.58 296.87,-230.63 303.87,-230.52"/>
</g>
<!-- Node11 -->
<g id="node11" class="node">
<title>Node11</title>
<g id="a_node11"><a xlink:href="../../d1/d8a/secure__random_8h.html" target="_top" xlink:title=" ">
<polygon fill="white" stroke="black" points="110.5,-56.5 110.5,-86.5 223.5,-86.5 223.5,-56.5 110.5,-56.5"/>
<text text-anchor="start" x="118.5" y="-74.5" font-family="Helvetica,sans-Serif" font-size="10.00">automaton/core/crypto</text>
<text text-anchor="middle" x="167" y="-63.5" font-family="Helvetica,sans-Serif" font-size="10.00">/secure_random.h</text>
</a>
</g>
</g>
<!-- Node2&#45;&gt;Node11 -->
<g id="edge13" class="edge">
<title>Node2&#45;&gt;Node11</title>
<path fill="none" stroke="midnightblue" d="M245.17,-264.05C195.77,-256.19 129.09,-241.99 113,-221 83.12,-182.03 121.43,-124.95 147.17,-94.14"/>
<polygon fill="midnightblue" stroke="midnightblue" points="149.84,-96.41 153.72,-86.55 144.54,-91.84 149.84,-96.41"/>
</g>
<!-- Node2&#45;&gt;Node13 -->
<g id="edge17" class="edge">
<title>Node2&#45;&gt;Node13</title>
<path fill="none" stroke="midnightblue" d="M356.76,-260.1C412.49,-248.71 498.05,-231.22 556.16,-219.35"/>
<polygon fill="midnightblue" stroke="midnightblue" points="556.86,-222.77 565.96,-217.34 555.46,-215.92 556.86,-222.77"/>
</g>
<!-- Node17 -->
<g id="node17" class="node">
<title>Node17</title>
<g id="a_node17"><a xlink:title=" ">
<polygon fill="white" stroke="#bfbfbf" points="122.5,-196 122.5,-215 185.5,-215 185.5,-196 122.5,-196"/>
<text text-anchor="middle" x="154" y="-203" font-family="Helvetica,sans-Serif" font-size="10.00">sol/sol.hpp</text>
</a>
</g>
</g>
<!-- Node2&#45;&gt;Node17 -->
<g id="edge31" class="edge">
<title>Node2&#45;&gt;Node17</title>
<path fill="none" stroke="midnightblue" d="M269.1,-257.4C243.31,-245.99 207.33,-230.08 182.49,-219.1"/>
<polygon fill="midnightblue" stroke="midnightblue" points="183.8,-215.85 173.24,-215.01 180.97,-222.25 183.8,-215.85"/>
</g>
<!-- Node7&#45;&gt;Node5 -->
<g id="edge7" class="edge">
<title>Node7&#45;&gt;Node5</title>
<path fill="none" stroke="midnightblue" d="M431.74,-57.66C485.59,-45.48 564.48,-27.63 607.41,-17.92"/>
<polygon fill="midnightblue" stroke="midnightblue" points="608.28,-21.31 617.26,-15.69 606.74,-14.48 608.28,-21.31"/>
</g>
<!-- Node8 -->
<g id="node8" class="node">
<title>Node8</title>
<g id="a_node8"><a xlink:title=" ">
<polygon fill="white" stroke="#bfbfbf" points="253.5,-0.5 253.5,-19.5 288.5,-19.5 288.5,-0.5 253.5,-0.5"/>
<text text-anchor="middle" x="271" y="-7.5" font-family="Helvetica,sans-Serif" font-size="10.00">map</text>
</a>
</g>
</g>
<!-- Node7&#45;&gt;Node8 -->
<g id="edge8" class="edge">
<title>Node7&#45;&gt;Node8</title>
<path fill="none" stroke="midnightblue" d="M350.35,-56.4C333.68,-46.86 311.77,-34.32 295.19,-24.84"/>
<polygon fill="midnightblue" stroke="midnightblue" points="296.55,-21.59 286.13,-19.66 293.07,-27.66 296.55,-21.59"/>
</g>
<!-- Node9&#45;&gt;Node5 -->
<g id="edge12" class="edge">
<title>Node9&#45;&gt;Node5</title>
<path fill="none" stroke="midnightblue" d="M302.04,-190.38C305.37,-172.32 313.66,-141.21 333,-123 369.53,-88.6 395.25,-109.69 440,-87 461.34,-76.18 462.45,-66.38 484,-56 524.58,-36.45 575.35,-23.64 607.23,-16.86"/>
<polygon fill="midnightblue" stroke="midnightblue" points="608.19,-20.23 617.28,-14.79 606.78,-13.38 608.19,-20.23"/>
</g>
<!-- Node9&#45;&gt;Node8 -->
<g id="edge11" class="edge">
<title>Node9&#45;&gt;Node8</title>
<path fill="none" stroke="midnightblue" d="M296.5,-190.5C291.16,-168.58 281.07,-124.76 276,-87 273.42,-67.78 272.15,-45.65 271.54,-30.24"/>
<polygon fill="midnightblue" stroke="midnightblue" points="275.03,-29.81 271.2,-19.93 268.04,-30.04 275.03,-29.81"/>
</g>
<!-- Node10 -->
<g id="node10" class="node">
<title>Node10</title>
<g id="a_node10"><a xlink:title=" ">
<polygon fill="white" stroke="#bfbfbf" points="342,-129 342,-148 396,-148 396,-129 342,-129"/>
<text text-anchor="middle" x="369" y="-136" font-family="Helvetica,sans-Serif" font-size="10.00">iostream</text>
</a>
</g>
</g>
<!-- Node9&#45;&gt;Node10 -->
<g id="edge10" class="edge">
<title>Node9&#45;&gt;Node10</title>
<path fill="none" stroke="midnightblue" d="M314.97,-190.4C325.94,-180.06 340.84,-166.02 352.22,-155.31"/>
<polygon fill="midnightblue" stroke="midnightblue" points="354.89,-157.6 359.77,-148.19 350.09,-152.5 354.89,-157.6"/>
</g>
<!-- Node11&#45;&gt;Node5 -->
<g id="edge16" class="edge">
<title>Node11&#45;&gt;Node5</title>
<path fill="none" stroke="midnightblue" d="M223.81,-63.32C324.06,-50.66 529.11,-24.76 607.02,-14.91"/>
<polygon fill="midnightblue" stroke="midnightblue" points="607.67,-18.36 617.15,-13.63 606.79,-11.41 607.67,-18.36"/>
</g>
<!-- Node11&#45;&gt;Node8 -->
<g id="edge15" class="edge">
<title>Node11&#45;&gt;Node8</title>
<path fill="none" stroke="midnightblue" d="M191.65,-56.4C208.32,-46.86 230.23,-34.32 246.81,-24.84"/>
<polygon fill="midnightblue" stroke="midnightblue" points="248.93,-27.66 255.87,-19.66 245.45,-21.59 248.93,-27.66"/>
</g>
<!-- Node12 -->
<g id="node12" class="node">
<title>Node12</title>
<g id="a_node12"><a xlink:title=" ">
<polygon fill="white" stroke="#bfbfbf" points="144,-0.5 144,-19.5 190,-19.5 190,-0.5 144,-0.5"/>
<text text-anchor="middle" x="167" y="-7.5" font-family="Helvetica,sans-Serif" font-size="10.00">cstdint</text>
</a>
</g>
</g>
<!-- Node11&#45;&gt;Node12 -->
<g id="edge14" class="edge">
<title>Node11&#45;&gt;Node12</title>
<path fill="none" stroke="midnightblue" d="M167,-56.4C167,-48.47 167,-38.46 167,-29.86"/>
<polygon fill="midnightblue" stroke="midnightblue" points="170.5,-29.66 167,-19.66 163.5,-29.66 170.5,-29.66"/>
</g>
<!-- Node13&#45;&gt;Node4 -->
<g id="edge19" class="edge">
<title>Node13&#45;&gt;Node4</title>
<path fill="none" stroke="midnightblue" d="M620.71,-190.37C623.62,-166.4 629.52,-117.75 632.75,-91.06"/>
<polygon fill="midnightblue" stroke="midnightblue" points="636.23,-91.45 633.96,-81.1 629.28,-90.6 636.23,-91.45"/>
</g>
<!-- Node13&#45;&gt;Node5 -->
<g id="edge20" class="edge">
<title>Node13&#45;&gt;Node5</title>
<path fill="none" stroke="midnightblue" d="M612.82,-190.08C602.12,-162.96 582.86,-102.87 600,-56 604.06,-44.91 612.19,-34.67 619.89,-26.76"/>
<polygon fill="midnightblue" stroke="midnightblue" points="622.47,-29.14 627.29,-19.7 617.64,-24.07 622.47,-29.14"/>
</g>
<!-- Node13&#45;&gt;Node6 -->
<g id="edge22" class="edge">
<title>Node13&#45;&gt;Node6</title>
<path fill="none" stroke="midnightblue" d="M672.4,-195C783.4,-174.75 1035.16,-125.98 1113,-87 1144.08,-71.44 1174.29,-44.2 1191.75,-26.91"/>
<polygon fill="midnightblue" stroke="midnightblue" points="1194.29,-29.31 1198.83,-19.74 1189.31,-24.39 1194.29,-29.31"/>
</g>
<!-- Node13&#45;&gt;Node8 -->
<g id="edge18" class="edge">
<title>Node13&#45;&gt;Node8</title>
<path fill="none" stroke="midnightblue" d="M582.29,-190.45C539.68,-174.17 467.29,-146.54 405,-123 362.37,-106.89 342.87,-117.49 309,-87 291.82,-71.54 281.44,-46.53 275.96,-29.46"/>
<polygon fill="midnightblue" stroke="midnightblue" points="279.23,-28.17 273.06,-19.56 272.52,-30.15 279.23,-28.17"/>
</g>
<!-- Node14 -->
<g id="node14" class="node">
<title>Node14</title>
<g id="a_node14"><a xlink:title=" ">
<polygon fill="white" stroke="#bfbfbf" points="1139.5,-129 1139.5,-148 1178.5,-148 1178.5,-129 1139.5,-129"/>
<text text-anchor="middle" x="1159" y="-136" font-family="Helvetica,sans-Serif" font-size="10.00">utility</text>
</a>
</g>
</g>
<!-- Node13&#45;&gt;Node14 -->
<g id="edge21" class="edge">
<title>Node13&#45;&gt;Node14</title>
<path fill="none" stroke="midnightblue" d="M672.28,-192.31C676.91,-191.45 681.53,-190.66 686,-190 879.64,-161.23 934.96,-201 1125,-154 1127.37,-153.41 1129.78,-152.68 1132.17,-151.86"/>
<polygon fill="midnightblue" stroke="midnightblue" points="1133.68,-155.03 1141.72,-148.13 1131.14,-148.51 1133.68,-155.03"/>
</g>
<!-- Node13&#45;&gt;Node15 -->
<g id="edge23" class="edge">
<title>Node13&#45;&gt;Node15</title>
<path fill="none" stroke="midnightblue" d="M636.58,-190.4C647.61,-181.54 662.04,-169.96 674.35,-160.09"/>
<polygon fill="midnightblue" stroke="midnightblue" points="676.85,-162.56 682.46,-153.58 672.47,-157.11 676.85,-162.56"/>
</g>
<!-- Node13&#45;&gt;Node16 -->
<g id="edge30" class="edge">
<title>Node13&#45;&gt;Node16</title>
<path fill="none" stroke="midnightblue" d="M664.82,-190.5C744.7,-166.09 909.12,-115.85 995.38,-89.49"/>
<polygon fill="midnightblue" stroke="midnightblue" points="996.46,-92.83 1005,-86.56 994.41,-86.13 996.46,-92.83"/>
</g>
<!-- Node15&#45;&gt;Node4 -->
<g id="edge24" class="edge">
<title>Node15&#45;&gt;Node4</title>
<path fill="none" stroke="midnightblue" d="M685.9,-123.4C675.56,-113.06 661.52,-99.02 650.81,-88.31"/>
<polygon fill="midnightblue" stroke="midnightblue" points="653.24,-85.79 643.69,-81.19 648.29,-90.74 653.24,-85.79"/>
</g>
<!-- Node15&#45;&gt;Node5 -->
<g id="edge25" class="edge">
<title>Node15&#45;&gt;Node5</title>
<path fill="none" stroke="midnightblue" d="M695.72,-123.21C690.48,-106.58 680.82,-78.52 669,-56 663.82,-46.13 656.86,-35.84 650.85,-27.6"/>
<polygon fill="midnightblue" stroke="midnightblue" points="653.63,-25.47 644.83,-19.57 648.03,-29.67 653.63,-25.47"/>
</g>
<!-- Node15&#45;&gt;Node16 -->
<g id="edge26" class="edge">
<title>Node15&#45;&gt;Node16</title>
<path fill="none" stroke="midnightblue" d="M753.31,-127.63C816.24,-115.97 920.79,-96.61 987.76,-84.21"/>
<polygon fill="midnightblue" stroke="midnightblue" points="988.57,-87.62 997.77,-82.36 987.29,-80.74 988.57,-87.62"/>
</g>
<!-- Node16&#45;&gt;Node5 -->
<g id="edge28" class="edge">
<title>Node16&#45;&gt;Node5</title>
<path fill="none" stroke="midnightblue" d="M997.69,-58.54C993.07,-57.63 988.46,-56.77 984,-56 868.29,-35.99 729.41,-20.48 668.81,-14.13"/>
<polygon fill="midnightblue" stroke="midnightblue" points="669.07,-10.64 658.76,-13.09 668.35,-17.6 669.07,-10.64"/>
</g>
<!-- Node16&#45;&gt;Node6 -->
<g id="edge29" class="edge">
<title>Node16&#45;&gt;Node6</title>
<path fill="none" stroke="midnightblue" d="M1087.97,-56.4C1114.54,-46.27 1149.98,-32.75 1175.27,-23.1"/>
<polygon fill="midnightblue" stroke="midnightblue" points="1176.66,-26.32 1184.76,-19.48 1174.16,-19.78 1176.66,-26.32"/>
</g>
<!-- Node16&#45;&gt;Node8 -->
<g id="edge27" class="edge">
<title>Node16&#45;&gt;Node8</title>
<path fill="none" stroke="midnightblue" d="M997.69,-66.43C845.44,-54.82 412.25,-21.78 298.59,-13.1"/>
<polygon fill="midnightblue" stroke="midnightblue" points="298.84,-9.61 288.61,-12.34 298.31,-16.59 298.84,-9.61"/>
</g>
<!-- Node19&#45;&gt;Node4 -->
<g id="edge45" class="edge">
<title>Node19&#45;&gt;Node4</title>
<path fill="none" stroke="midnightblue" d="M1083.1,-337.24C960.92,-334.09 709.36,-323.4 630,-288 580.4,-265.87 541.31,-242 557,-190 569.24,-149.44 600.57,-110.03 619.59,-88.74"/>
<polygon fill="midnightblue" stroke="midnightblue" points="622.26,-91 626.44,-81.27 617.1,-86.28 622.26,-91"/>
</g>
<!-- Node19&#45;&gt;Node5 -->
<g id="edge48" class="edge">
<title>Node19&#45;&gt;Node5</title>
<path fill="none" stroke="midnightblue" d="M1218.6,-336.84C1405.92,-331.9 1922.65,-315.88 1994,-288 2046.9,-267.33 2111.71,-234.16 2076,-190 1983.87,-76.06 868.57,-21.26 668.6,-12.32"/>
<polygon fill="midnightblue" stroke="midnightblue" points="668.65,-8.82 658.5,-11.87 668.34,-15.81 668.65,-8.82"/>
</g>
<!-- Node19&#45;&gt;Node6 -->
<g id="edge50" class="edge">
<title>Node19&#45;&gt;Node6</title>
<path fill="none" stroke="midnightblue" d="M1218.59,-338.72C1426.98,-338.9 2050.22,-335.42 2127,-288 2156.13,-270.01 2156.27,-254.1 2165,-221 2176.11,-178.89 2193.96,-155.54 2165,-123 2101.95,-52.15 1400.26,-18.99 1239.63,-12.29"/>
<polygon fill="midnightblue" stroke="midnightblue" points="1239.56,-8.79 1229.42,-11.87 1239.27,-15.78 1239.56,-8.79"/>
</g>
<!-- Node19&#45;&gt;Node8 -->
<g id="edge44" class="edge">
<title>Node19&#45;&gt;Node8</title>
<path fill="none" stroke="midnightblue" d="M1083.3,-337.89C836.57,-334.81 0,-316.24 0,-206.5 0,-206.5 0,-206.5 0,-137.5 0,-79.82 49.54,-82.06 101,-56 147.82,-32.29 208.41,-20.13 243.17,-14.7"/>
<polygon fill="midnightblue" stroke="midnightblue" points="244.12,-18.1 253.5,-13.17 243.09,-11.17 244.12,-18.1"/>
</g>
<!-- Node19&#45;&gt;Node10 -->
<g id="edge43" class="edge">
<title>Node19&#45;&gt;Node10</title>
<path fill="none" stroke="midnightblue" d="M1083.37,-336.44C924.67,-331.16 537.79,-315.6 486,-288 430.59,-258.47 392.66,-190.15 377.03,-157.5"/>
<polygon fill="midnightblue" stroke="midnightblue" points="380.12,-155.85 372.74,-148.25 373.77,-158.8 380.12,-155.85"/>
</g>
<!-- Node19&#45;&gt;Node13 -->
<g id="edge51" class="edge">
<title>Node19&#45;&gt;Node13</title>
<path fill="none" stroke="midnightblue" d="M1083.12,-335.26C955.83,-328.65 690.99,-312.17 657,-288 638.19,-274.63 628.44,-249.53 623.55,-230.7"/>
<polygon fill="midnightblue" stroke="midnightblue" points="626.91,-229.7 621.25,-220.74 620.09,-231.27 626.91,-229.7"/>
</g>
<!-- Node19&#45;&gt;Node14 -->
<g id="edge49" class="edge">
<title>Node19&#45;&gt;Node14</title>
<path fill="none" stroke="midnightblue" d="M1083.16,-330.24C972.75,-315.23 762.11,-279.51 719,-221 710.83,-209.91 709.7,-200.16 719,-190 780.15,-123.18 1037.15,-176.04 1125,-154 1127.36,-153.41 1129.77,-152.67 1132.16,-151.85"/>
<polygon fill="midnightblue" stroke="midnightblue" points="1133.68,-155.01 1141.72,-148.11 1131.13,-148.49 1133.68,-155.01"/>
</g>
<!-- Node19&#45;&gt;Node16 -->
<g id="edge66" class="edge">
<title>Node19&#45;&gt;Node16</title>
<path fill="none" stroke="midnightblue" d="M1218.75,-338.17C1447.44,-335.86 2170.31,-318.46 2056,-190 2024.46,-154.55 1330.12,-95.23 1114.37,-77.59"/>
<polygon fill="midnightblue" stroke="midnightblue" points="1114.41,-74.09 1104.16,-76.76 1113.85,-81.06 1114.41,-74.09"/>
</g>
<!-- Node20 -->
<g id="node20" class="node">
<title>Node20</title>
<g id="a_node20"><a xlink:title=" ">
<polygon fill="white" stroke="#bfbfbf" points="1490.5,-196 1490.5,-215 1627.5,-215 1627.5,-196 1490.5,-196"/>
<text text-anchor="middle" x="1559" y="-203" font-family="Helvetica,sans-Serif" font-size="10.00">google/protobuf/descriptor.h</text>
</a>
</g>
</g>
<!-- Node19&#45;&gt;Node20 -->
<g id="edge36" class="edge">
<title>Node19&#45;&gt;Node20</title>
<path fill="none" stroke="midnightblue" d="M1208.26,-324.45C1245.48,-314.98 1294.91,-301.73 1338,-288 1406.9,-266.04 1486.05,-235.53 1528.43,-218.76"/>
<polygon fill="midnightblue" stroke="midnightblue" points="1529.88,-221.95 1537.89,-215.01 1527.3,-215.45 1529.88,-221.95"/>
</g>
<!-- Node21 -->
<g id="node21" class="node">
<title>Node21</title>
<g id="a_node21"><a xlink:title=" ">
<polygon fill="white" stroke="#bfbfbf" points="1645.5,-196 1645.5,-215 1794.5,-215 1794.5,-196 1645.5,-196"/>
<text text-anchor="middle" x="1720" y="-203" font-family="Helvetica,sans-Serif" font-size="10.00">google/protobuf/descriptor.pb.h</text>
</a>
</g>
</g>
<!-- Node19&#45;&gt;Node21 -->
<g id="edge37" class="edge">
<title>Node19&#45;&gt;Node21</title>
<path fill="none" stroke="midnightblue" d="M1218.72,-325.18C1267.55,-315.4 1334.99,-301.5 1394,-288 1496.35,-264.58 1615.92,-233.81 1677.91,-217.6"/>
<polygon fill="midnightblue" stroke="midnightblue" points="1678.93,-220.95 1687.71,-215.03 1677.15,-214.18 1678.93,-220.95"/>
</g>
<!-- Node22 -->
<g id="node22" class="node">
<title>Node22</title>
<g id="a_node22"><a xlink:title=" ">
<polygon fill="white" stroke="#bfbfbf" points="1813,-190.5 1813,-220.5 1935,-220.5 1935,-190.5 1813,-190.5"/>
<text text-anchor="start" x="1821" y="-208.5" font-family="Helvetica,sans-Serif" font-size="10.00">google/protobuf/dynamic</text>
<text text-anchor="middle" x="1874" y="-197.5" font-family="Helvetica,sans-Serif" font-size="10.00">_message.h</text>
</a>
</g>
</g>
<!-- Node19&#45;&gt;Node22 -->
<g id="edge38" class="edge">
<title>Node19&#45;&gt;Node22</title>
<path fill="none" stroke="midnightblue" d="M1218.66,-328.61C1283.32,-318.97 1383.49,-303.52 1470,-288 1615.82,-261.84 1654.02,-251.68 1802.95,-221.21"/>
<polygon fill="midnightblue" stroke="midnightblue" points="1803.82,-224.61 1812.92,-219.18 1802.42,-217.75 1803.82,-224.61"/>
</g>
<!-- Node23 -->
<g id="node23" class="node">
<title>Node23</title>
<g id="a_node23"><a xlink:title=" ">
<polygon fill="white" stroke="#bfbfbf" points="1953,-190.5 1953,-220.5 2047,-220.5 2047,-190.5 1953,-190.5"/>
<text text-anchor="start" x="1961" y="-208.5" font-family="Helvetica,sans-Serif" font-size="10.00">google/protobuf/io</text>
<text text-anchor="middle" x="2000" y="-197.5" font-family="Helvetica,sans-Serif" font-size="10.00">/tokenizer.h</text>
</a>
</g>
</g>
<!-- Node19&#45;&gt;Node23 -->
<g id="edge39" class="edge">
<title>Node19&#45;&gt;Node23</title>
<path fill="none" stroke="midnightblue" d="M1218.65,-331.55C1354.57,-316.91 1670.42,-279.54 1942.64,-221.2"/>
<polygon fill="midnightblue" stroke="midnightblue" points="1943.67,-224.56 1952.71,-219.03 1942.19,-217.72 1943.67,-224.56"/>
</g>
<!-- Node24 -->
<g id="node24" class="node">
<title>Node24</title>
<g id="a_node24"><a xlink:title=" ">
<polygon fill="white" stroke="#bfbfbf" points="728.5,-190.5 728.5,-220.5 857.5,-220.5 857.5,-190.5 728.5,-190.5"/>
<text text-anchor="start" x="736.5" y="-208.5" font-family="Helvetica,sans-Serif" font-size="10.00">google/protobuf/io</text>
<text text-anchor="middle" x="793" y="-197.5" font-family="Helvetica,sans-Serif" font-size="10.00">/zero_copy_stream_impl.h</text>
</a>
</g>
</g>
<!-- Node19&#45;&gt;Node24 -->
<g id="edge40" class="edge">
<title>Node19&#45;&gt;Node24</title>
<path fill="none" stroke="midnightblue" d="M1113.03,-324.5C1047.37,-300.29 912.79,-250.67 840.84,-224.14"/>
<polygon fill="midnightblue" stroke="midnightblue" points="841.72,-220.73 831.12,-220.56 839.29,-227.3 841.72,-220.73"/>
</g>
<!-- Node25 -->
<g id="node25" class="node">
<title>Node25</title>
<g id="a_node25"><a xlink:title=" ">
<polygon fill="white" stroke="#bfbfbf" points="875.5,-196 875.5,-215 988.5,-215 988.5,-196 875.5,-196"/>
<text text-anchor="middle" x="932" y="-203" font-family="Helvetica,sans-Serif" font-size="10.00">google/protobuf/map.h</text>
</a>
</g>
</g>
<!-- Node19&#45;&gt;Node25 -->
<g id="edge41" class="edge">
<title>Node19&#45;&gt;Node25</title>
<path fill="none" stroke="midnightblue" d="M1127.56,-324.37C1085.3,-298.9 996.82,-245.57 954.93,-220.32"/>
<polygon fill="midnightblue" stroke="midnightblue" points="956.63,-217.26 946.26,-215.1 953.02,-223.26 956.63,-217.26"/>
</g>
<!-- Node26 -->
<g id="node26" class="node">
<title>Node26</title>
<g id="a_node26"><a xlink:title=" ">
<polygon fill="white" stroke="#bfbfbf" points="1007,-196 1007,-215 1141,-215 1141,-196 1007,-196"/>
<text text-anchor="middle" x="1074" y="-203" font-family="Helvetica,sans-Serif" font-size="10.00">google/protobuf/message.h</text>
</a>
</g>
</g>
<!-- Node19&#45;&gt;Node26 -->
<g id="edge42" class="edge">
<title>Node19&#45;&gt;Node26</title>
<path fill="none" stroke="midnightblue" d="M1142.76,-324.37C1128.59,-300.08 1099.63,-250.44 1084.21,-224"/>
<polygon fill="midnightblue" stroke="midnightblue" points="1087.08,-221.97 1079.02,-215.1 1081.03,-225.5 1087.08,-221.97"/>
</g>
<!-- Node27 -->
<g id="node27" class="node">
<title>Node27</title>
<g id="a_node27"><a xlink:title=" ">
<polygon fill="white" stroke="#bfbfbf" points="666,-263 666,-282 718,-282 718,-263 666,-263"/>
<text text-anchor="middle" x="692" y="-270" font-family="Helvetica,sans-Serif" font-size="10.00">sstream</text>
</a>
</g>
</g>
<!-- Node19&#45;&gt;Node27 -->
<g id="edge46" class="edge">
<title>Node19&#45;&gt;Node27</title>
<path fill="none" stroke="midnightblue" d="M1083.41,-335.1C999.89,-329.81 853.88,-317.03 732,-288 728.94,-287.27 725.79,-286.38 722.66,-285.41"/>
<polygon fill="midnightblue" stroke="midnightblue" points="723.49,-281.99 712.9,-282.09 721.24,-288.62 723.49,-281.99"/>
</g>
<!-- Node28 -->
<g id="node28" class="node">
<title>Node28</title>
<g id="a_node28"><a xlink:title=" ">
<polygon fill="white" stroke="#bfbfbf" points="1287.5,-263 1287.5,-282 1328.5,-282 1328.5,-263 1287.5,-263"/>
<text text-anchor="middle" x="1308" y="-270" font-family="Helvetica,sans-Serif" font-size="10.00">stack</text>
</a>
</g>
</g>
<!-- Node19&#45;&gt;Node28 -->
<g id="edge47" class="edge">
<title>Node19&#45;&gt;Node28</title>
<path fill="none" stroke="midnightblue" d="M1189.17,-324.45C1214.81,-314.76 1249.22,-301.29 1279,-288 1280.16,-287.48 1281.33,-286.95 1282.52,-286.4"/>
<polygon fill="midnightblue" stroke="midnightblue" points="1284.07,-289.53 1291.56,-282.03 1281.03,-283.23 1284.07,-289.53"/>
</g>
<!-- Node29 -->
<g id="node29" class="node">
<title>Node29</title>
<g id="a_node29"><a xlink:href="../../d5/de1/protobuf__msg_8h.html" target="_top" xlink:title=" ">
<polygon fill="white" stroke="black" points="1144.5,-257.5 1144.5,-287.5 1269.5,-287.5 1269.5,-257.5 1144.5,-257.5"/>
<text text-anchor="start" x="1152.5" y="-275.5" font-family="Helvetica,sans-Serif" font-size="10.00">automaton/core/data</text>
<text text-anchor="middle" x="1207" y="-264.5" font-family="Helvetica,sans-Serif" font-size="10.00">/protobuf/protobuf_msg.h</text>
</a>
</g>
</g>
<!-- Node19&#45;&gt;Node29 -->
<g id="edge52" class="edge">
<title>Node19&#45;&gt;Node29</title>
<path fill="none" stroke="midnightblue" d="M1163.15,-324.4C1170.49,-315.88 1179.99,-304.85 1188.28,-295.23"/>
<polygon fill="midnightblue" stroke="midnightblue" points="1191,-297.44 1194.87,-287.58 1185.69,-292.87 1191,-297.44"/>
</g>
<!-- Node29&#45;&gt;Node4 -->
<g id="edge61" class="edge">
<title>Node29&#45;&gt;Node4</title>
<path fill="none" stroke="midnightblue" d="M1210.31,-257.14C1216.24,-227.32 1224.86,-158.55 1188,-123 1169.31,-104.97 790.23,-81.51 670.75,-74.54"/>
<polygon fill="midnightblue" stroke="midnightblue" points="670.84,-71.04 660.65,-73.95 670.43,-78.03 670.84,-71.04"/>
</g>
<!-- Node29&#45;&gt;Node5 -->
<g id="edge62" class="edge">
<title>Node29&#45;&gt;Node5</title>
<path fill="none" stroke="midnightblue" d="M1215,-257.44C1220.13,-247.59 1226.31,-233.92 1229,-221 1238.03,-177.65 1243.86,-152.68 1211,-123 1173.91,-89.5 1038.11,-96.29 989,-87 869.99,-64.48 729.48,-32.38 668.63,-18.2"/>
<polygon fill="midnightblue" stroke="midnightblue" points="669.42,-14.79 658.89,-15.92 667.83,-21.61 669.42,-14.79"/>
</g>
<!-- Node29&#45;&gt;Node13 -->
<g id="edge63" class="edge">
<title>Node29&#45;&gt;Node13</title>
<path fill="none" stroke="midnightblue" d="M1144.12,-265.82C1051.09,-257.23 871.36,-239.92 719,-221 707.1,-219.52 694.42,-217.8 682.24,-216.07"/>
<polygon fill="midnightblue" stroke="midnightblue" points="682.54,-212.58 672.14,-214.62 681.54,-219.5 682.54,-212.58"/>
</g>
<!-- Node29&#45;&gt;Node15 -->
<g id="edge64" class="edge">
<title>Node29&#45;&gt;Node15</title>
<path fill="none" stroke="midnightblue" d="M1201.57,-257.47C1193.46,-238.6 1176.27,-205.61 1150,-190 1086.16,-152.07 871.51,-142.62 763.37,-140.27"/>
<polygon fill="midnightblue" stroke="midnightblue" points="763.32,-136.77 753.25,-140.07 763.18,-143.77 763.32,-136.77"/>
</g>
<!-- Node29&#45;&gt;Node16 -->
<g id="edge65" class="edge">
<title>Node29&#45;&gt;Node16</title>
<path fill="none" stroke="midnightblue" d="M1228.3,-257.38C1239.73,-248.46 1252.73,-235.84 1259,-221 1275.96,-180.88 1285.92,-157.24 1259,-123 1241.19,-100.35 1168.61,-86.61 1114.17,-79.29"/>
<polygon fill="midnightblue" stroke="midnightblue" points="1114.6,-75.82 1104.23,-78 1113.7,-82.76 1114.6,-75.82"/>
</g>
<!-- Node29&#45;&gt;Node20 -->
<g id="edge54" class="edge">
<title>Node29&#45;&gt;Node20</title>
<path fill="none" stroke="midnightblue" d="M1269.81,-258.76C1272.92,-258.16 1275.99,-257.57 1279,-257 1369.03,-239.95 1391.86,-237.48 1482,-221 1489.18,-219.69 1496.72,-218.29 1504.17,-216.9"/>
<polygon fill="midnightblue" stroke="midnightblue" points="1505.04,-220.3 1514.23,-215.01 1503.75,-213.42 1505.04,-220.3"/>
</g>
<!-- Node29&#45;&gt;Node21 -->
<g id="edge55" class="edge">
<title>Node29&#45;&gt;Node21</title>
<path fill="none" stroke="midnightblue" d="M1269.76,-258.48C1272.88,-257.95 1275.97,-257.46 1279,-257 1437.13,-233.19 1478.58,-242.77 1637,-221 1645.84,-219.78 1655.19,-218.32 1664.29,-216.81"/>
<polygon fill="midnightblue" stroke="midnightblue" points="1665.16,-220.21 1674.43,-215.08 1663.98,-213.31 1665.16,-220.21"/>
</g>
<!-- Node29&#45;&gt;Node22 -->
<g id="edge56" class="edge">
<title>Node29&#45;&gt;Node22</title>
<path fill="none" stroke="midnightblue" d="M1269.75,-258.36C1272.87,-257.87 1275.97,-257.41 1279,-257 1507.51,-226.29 1570.51,-252.04 1802.52,-221.08"/>
<polygon fill="midnightblue" stroke="midnightblue" points="1803.18,-224.52 1812.62,-219.71 1802.24,-217.58 1803.18,-224.52"/>
</g>
<!-- Node29&#45;&gt;Node23 -->
<g id="edge57" class="edge">
<title>Node29&#45;&gt;Node23</title>
<path fill="none" stroke="midnightblue" d="M1269.74,-258.31C1272.86,-257.83 1275.96,-257.39 1279,-257 1569.33,-220.1 1649.7,-265.28 1942.71,-220.98"/>
<polygon fill="midnightblue" stroke="midnightblue" points="1943.43,-224.41 1952.78,-219.43 1942.37,-217.49 1943.43,-224.41"/>
</g>
<!-- Node29&#45;&gt;Node24 -->
<g id="edge58" class="edge">
<title>Node29&#45;&gt;Node24</title>
<path fill="none" stroke="midnightblue" d="M1144.2,-263.05C1077.99,-253.95 970.43,-238.6 867.49,-221.03"/>
<polygon fill="midnightblue" stroke="midnightblue" points="867.99,-217.57 857.54,-219.33 866.81,-224.47 867.99,-217.57"/>
</g>
<!-- Node29&#45;&gt;Node25 -->
<g id="edge59" class="edge">
<title>Node29&#45;&gt;Node25</title>
<path fill="none" stroke="midnightblue" d="M1147.67,-257.48C1096.77,-245.45 1024.48,-228.36 977.9,-217.35"/>
<polygon fill="midnightblue" stroke="midnightblue" points="978.62,-213.92 968.08,-215.03 977.01,-220.74 978.62,-213.92"/>
</g>
<!-- Node29&#45;&gt;Node26 -->
<g id="edge60" class="edge">
<title>Node29&#45;&gt;Node26</title>
<path fill="none" stroke="midnightblue" d="M1178.14,-257.4C1155.11,-246.14 1123.11,-230.5 1100.68,-219.54"/>
<polygon fill="midnightblue" stroke="midnightblue" points="1101.93,-216.25 1091.41,-215.01 1098.85,-222.54 1101.93,-216.25"/>
</g>
<!-- Node30 -->
<g id="node30" class="node">
<title>Node30</title>
<g id="a_node30"><a xlink:title=" ">
<polygon fill="white" stroke="#bfbfbf" points="1349.5,-190.5 1349.5,-220.5 1472.5,-220.5 1472.5,-190.5 1349.5,-190.5"/>
<text text-anchor="start" x="1357.5" y="-208.5" font-family="Helvetica,sans-Serif" font-size="10.00">google/protobuf/compiler</text>
<text text-anchor="middle" x="1411" y="-197.5" font-family="Helvetica,sans-Serif" font-size="10.00">/parser.h</text>
</a>
</g>
</g>
<!-- Node29&#45;&gt;Node30 -->
<g id="edge53" class="edge">
<title>Node29&#45;&gt;Node30</title>
<path fill="none" stroke="midnightblue" d="M1251.01,-257.48C1282.14,-247.56 1324.06,-234.2 1357.18,-223.65"/>
<polygon fill="midnightblue" stroke="midnightblue" points="1358.25,-226.98 1366.71,-220.61 1356.12,-220.31 1358.25,-226.98"/>
</g>
<!-- Node31&#45;&gt;Node5 -->
<g id="edge70" class="edge">
<title>Node31&#45;&gt;Node5</title>
<path fill="none" stroke="midnightblue" d="M2295.45,-329.9C2256.85,-295.75 2107.32,-169.43 1958,-123 1765.34,-63.09 1709.76,-76.12 1509,-56 1181.3,-23.16 781.69,-13.64 668.93,-11.52"/>
<polygon fill="midnightblue" stroke="midnightblue" points="668.69,-8.01 658.63,-11.33 668.57,-15.01 668.69,-8.01"/>
</g>
<!-- Node32 -->
<g id="node32" class="node">
<title>Node32</title>
<g id="a_node32"><a xlink:title=" ">
<polygon fill="white" stroke="#bfbfbf" points="2373,-263 2373,-282 2419,-282 2419,-263 2373,-263"/>
<text text-anchor="middle" x="2396" y="-270" font-family="Helvetica,sans-Serif" font-size="10.00">chrono</text>
</a>
</g>
</g>
<!-- Node31&#45;&gt;Node32 -->
<g id="edge69" class="edge">
<title>Node31&#45;&gt;Node32</title>
<path fill="none" stroke="midnightblue" d="M2317.27,-329.73C2332.15,-319.11 2357.43,-301.05 2375.33,-288.26"/>
<polygon fill="midnightblue" stroke="midnightblue" points="2377.82,-290.79 2383.92,-282.13 2373.75,-285.09 2377.82,-290.79"/>
</g>
<!-- Node33 -->
<g id="node33" class="node">
<title>Node33</title>
<g id="a_node33"><a xlink:title=" ">
<polygon fill="white" stroke="#bfbfbf" points="2437,-263 2437,-282 2521,-282 2521,-263 2437,-263"/>
<text text-anchor="middle" x="2479" y="-270" font-family="Helvetica,sans-Serif" font-size="10.00">g3log/g3log.hpp</text>
</a>
</g>
</g>
<!-- Node31&#45;&gt;Node33 -->
<g id="edge71" class="edge">
<title>Node31&#45;&gt;Node33</title>
<path fill="none" stroke="midnightblue" d="M2328.11,-329.87C2358.48,-318.52 2412.01,-298.52 2446.47,-285.65"/>
<polygon fill="midnightblue" stroke="midnightblue" points="2447.93,-288.84 2456.08,-282.06 2445.48,-282.28 2447.93,-288.84"/>
</g>
<!-- Node34 -->
<g id="node34" class="node">
<title>Node34</title>
<g id="a_node34"><a xlink:title=" ">
<polygon fill="white" stroke="#bfbfbf" points="2539.5,-263 2539.5,-282 2642.5,-282 2642.5,-263 2539.5,-263"/>
<text text-anchor="middle" x="2591" y="-270" font-family="Helvetica,sans-Serif" font-size="10.00">g3log/logworker.hpp</text>
</a>
</g>
</g>
<!-- Node31&#45;&gt;Node34 -->
<g id="edge72" class="edge">
<title>Node31&#45;&gt;Node34</title>
<path fill="none" stroke="midnightblue" d="M2343.65,-329.98C2388.5,-320.06 2464.66,-303.1 2530,-288 2535.04,-286.84 2540.31,-285.6 2545.56,-284.37"/>
<polygon fill="midnightblue" stroke="midnightblue" points="2546.61,-287.72 2555.54,-282.01 2545,-280.9 2546.61,-287.72"/>
</g>
<!-- Node35 -->
<g id="node35" class="node">
<title>Node35</title>
<g id="a_node35"><a xlink:title=" ">
<polygon fill="white" stroke="#bfbfbf" points="2255.5,-263 2255.5,-282 2354.5,-282 2354.5,-263 2255.5,-263"/>
<text text-anchor="middle" x="2305" y="-270" font-family="Helvetica,sans-Serif" font-size="10.00">g3log/loglevels.hpp</text>
</a>
</g>
</g>
<!-- Node31&#45;&gt;Node35 -->
<g id="edge73" class="edge">
<title>Node31&#45;&gt;Node35</title>
<path fill="none" stroke="midnightblue" d="M2305,-329.73C2305,-320.18 2305,-304.62 2305,-292.28"/>
<polygon fill="midnightblue" stroke="midnightblue" points="2308.5,-292.13 2305,-282.13 2301.5,-292.13 2308.5,-292.13"/>
</g>
</g>
</svg>
