<?xml version="1.0" encoding="UTF-8" standalone="no"?>
<!DOCTYPE svg PUBLIC "-//W3C//DTD SVG 1.1//EN"
 "http://www.w3.org/Graphics/SVG/1.1/DTD/svg11.dtd">
<!-- Generated by graphviz version 2.42.3 ()
 -->
<!-- Title: engine.cc Pages: 1 -->
<svg width="2635pt" height="419pt"
 viewBox="0.00 0.00 2634.50 419.00" xmlns="http://www.w3.org/2000/svg" xmlns:xlink="http://www.w3.org/1999/xlink">
<g id="graph0" class="graph" transform="scale(1 1) rotate(0) translate(4 415)">
<title>engine.cc</title>
<polygon fill="white" stroke="transparent" points="-4,4 -4,-415 2630.5,-415 2630.5,4 -4,4"/>
<!-- Node1 -->
<g id="node1" class="node">
<title>Node1</title>
<g id="a_node1"><a xlink:title=" ">
<polygon fill="#bfbfbf" stroke="black" points="1106,-391.5 1106,-410.5 1164,-410.5 1164,-391.5 1106,-391.5"/>
<text text-anchor="middle" x="1135" y="-398.5" font-family="Helvetica,sans-Serif" font-size="10.00">engine.cc</text>
</a>
</g>
</g>
<!-- Node2 -->
<g id="node2" class="node">
<title>Node2</title>
<g id="a_node2"><a xlink:href="../../d1/d55/engine_8h.html" target="_top" xlink:title=" ">
<polygon fill="white" stroke="black" points="229.5,-257.5 229.5,-287.5 340.5,-287.5 340.5,-257.5 229.5,-257.5"/>
<text text-anchor="start" x="237.5" y="-275.5" font-family="Helvetica,sans-Serif" font-size="10.00">automaton/core/script</text>
<text text-anchor="middle" x="285" y="-264.5" font-family="Helvetica,sans-Serif" font-size="10.00">/engine.h</text>
</a>
</g>
</g>
<!-- Node1&#45;&gt;Node2 -->
<g id="edge1" class="edge">
<title>Node1&#45;&gt;Node2</title>
<path fill="none" stroke="midnightblue" d="M1105.72,-398.98C998.06,-395.06 624.45,-379.94 508,-355 441.54,-340.76 368.17,-311.05 324.37,-291.71"/>
<polygon fill="midnightblue" stroke="midnightblue" points="325.78,-288.5 315.22,-287.63 322.93,-294.9 325.78,-288.5"/>
</g>
<!-- Node13 -->
<g id="node13" class="node">
<title>Node13</title>
<g id="a_node13"><a xlink:href="../../de/d06/factory_8h.html" target="_top" xlink:title=" ">
<polygon fill="white" stroke="black" points="550,-190.5 550,-220.5 656,-220.5 656,-190.5 550,-190.5"/>
<text text-anchor="start" x="558" y="-208.5" font-family="Helvetica,sans-Serif" font-size="10.00">automaton/core/data</text>
<text text-anchor="middle" x="603" y="-197.5" font-family="Helvetica,sans-Serif" font-size="10.00">/factory.h</text>
</a>
</g>
</g>
<!-- Node1&#45;&gt;Node13 -->
<g id="edge33" class="edge">
<title>Node1&#45;&gt;Node13</title>
<path fill="none" stroke="midnightblue" d="M1105.79,-398.02C1006.11,-390.65 681.86,-361.34 614,-288 599.96,-272.83 598.28,-248.75 599.48,-230.69"/>
<polygon fill="midnightblue" stroke="midnightblue" points="602.97,-230.91 600.47,-220.62 596,-230.22 602.97,-230.91"/>
</g>
<!-- Node15 -->
<g id="node15" class="node">
<title>Node15</title>
<g id="a_node15"><a xlink:href="../../d1/d71/msg_8h.html" target="_top" xlink:title=" ">
<polygon fill="white" stroke="black" points="631,-123.5 631,-153.5 737,-153.5 737,-123.5 631,-123.5"/>
<text text-anchor="start" x="639" y="-141.5" font-family="Helvetica,sans-Serif" font-size="10.00">automaton/core/data</text>
<text text-anchor="middle" x="684" y="-130.5" font-family="Helvetica,sans-Serif" font-size="10.00">/msg.h</text>
</a>
</g>
</g>
<!-- Node1&#45;&gt;Node15 -->
<g id="edge34" class="edge">
<title>Node1&#45;&gt;Node15</title>
<path fill="none" stroke="midnightblue" d="M1105.93,-399.52C1017.1,-397.69 750.5,-389.4 672,-355 586.24,-317.42 486.93,-266.44 541,-190 559.09,-164.43 591.25,-151.72 620.5,-145.44"/>
<polygon fill="midnightblue" stroke="midnightblue" points="621.53,-148.8 630.69,-143.47 620.21,-141.93 621.53,-148.8"/>
</g>
<!-- Node16 -->
<g id="node16" class="node">
<title>Node16</title>
<g id="a_node16"><a xlink:href="../../d7/de3/schema_8h.html" target="_top" xlink:title=" ">
<polygon fill="white" stroke="black" points="1009,-56.5 1009,-86.5 1115,-86.5 1115,-56.5 1009,-56.5"/>
<text text-anchor="start" x="1017" y="-74.5" font-family="Helvetica,sans-Serif" font-size="10.00">automaton/core/data</text>
<text text-anchor="middle" x="1062" y="-63.5" font-family="Helvetica,sans-Serif" font-size="10.00">/schema.h</text>
</a>
</g>
</g>
<!-- Node1&#45;&gt;Node16 -->
<g id="edge67" class="edge">
<title>Node1&#45;&gt;Node16</title>
<path fill="none" stroke="midnightblue" d="M1164.05,-398.51C1333.42,-389.32 2181.76,-335.72 2060,-190 1994.43,-111.53 1219.14,-87.35 1215,-87 1185.53,-84.48 1152.9,-81.43 1125.37,-78.77"/>
<polygon fill="midnightblue" stroke="midnightblue" points="1125.37,-75.26 1115.08,-77.78 1124.7,-82.22 1125.37,-75.26"/>
</g>
<!-- Node18 -->
<g id="node18" class="node">
<title>Node18</title>
<g id="a_node18"><a xlink:title=" ">
<polygon fill="white" stroke="#bfbfbf" points="2364,-330 2364,-349 2414,-349 2414,-330 2364,-330"/>
<text text-anchor="middle" x="2389" y="-337" font-family="Helvetica,sans-Serif" font-size="10.00">iomanip</text>
</a>
</g>
</g>
<!-- Node1&#45;&gt;Node18 -->
<g id="edge32" class="edge">
<title>Node1&#45;&gt;Node18</title>
<path fill="none" stroke="midnightblue" d="M1164.21,-399.56C1338.32,-396.86 2235.55,-381.71 2355,-355 2357.52,-354.44 2360.09,-353.69 2362.63,-352.84"/>
<polygon fill="midnightblue" stroke="midnightblue" points="2364.06,-356.03 2372.11,-349.14 2361.52,-349.51 2364.06,-356.03"/>
</g>
<!-- Node19 -->
<g id="node19" class="node">
<title>Node19</title>
<g id="a_node19"><a xlink:href="../../dc/dd5/protobuf__factory_8h.html" target="_top" xlink:title=" ">
<polygon fill="white" stroke="black" points="1067.5,-324.5 1067.5,-354.5 1202.5,-354.5 1202.5,-324.5 1067.5,-324.5"/>
<text text-anchor="start" x="1075.5" y="-342.5" font-family="Helvetica,sans-Serif" font-size="10.00">automaton/core/data</text>
<text text-anchor="middle" x="1135" y="-331.5" font-family="Helvetica,sans-Serif" font-size="10.00">/protobuf/protobuf_factory.h</text>
</a>
</g>
</g>
<!-- Node1&#45;&gt;Node19 -->
<g id="edge35" class="edge">
<title>Node1&#45;&gt;Node19</title>
<path fill="none" stroke="midnightblue" d="M1135,-391.48C1135,-384.47 1135,-374.19 1135,-364.7"/>
<polygon fill="midnightblue" stroke="midnightblue" points="1138.5,-364.52 1135,-354.52 1131.5,-364.52 1138.5,-364.52"/>
</g>
<!-- Node31 -->
<g id="node31" class="node">
<title>Node31</title>
<g id="a_node31"><a xlink:href="../../dc/dac/io_8h.html" target="_top" xlink:title=" ">
<polygon fill="white" stroke="black" points="2232.5,-330 2232.5,-349 2345.5,-349 2345.5,-330 2232.5,-330"/>
<text text-anchor="middle" x="2289" y="-337" font-family="Helvetica,sans-Serif" font-size="10.00">automaton/core/io/io.h</text>
</a>
</g>
</g>
<!-- Node1&#45;&gt;Node31 -->
<g id="edge68" class="edge">
<title>Node1&#45;&gt;Node31</title>
<path fill="none" stroke="midnightblue" d="M1164.36,-399.8C1288.54,-398.74 1782.89,-392.28 2187,-355 2199.65,-353.83 2213.13,-352.2 2226.01,-350.44"/>
<polygon fill="midnightblue" stroke="midnightblue" points="2226.76,-353.87 2236.18,-349.02 2225.79,-346.94 2226.76,-353.87"/>
</g>
<!-- Node3 -->
<g id="node3" class="node">
<title>Node3</title>
<g id="a_node3"><a xlink:title=" ">
<polygon fill="white" stroke="#bfbfbf" points="28,-196 28,-215 66,-215 66,-196 28,-196"/>
<text text-anchor="middle" x="47" y="-203" font-family="Helvetica,sans-Serif" font-size="10.00">array</text>
</a>
</g>
</g>
<!-- Node2&#45;&gt;Node3 -->
<g id="edge2" class="edge">
<title>Node2&#45;&gt;Node3</title>
<path fill="none" stroke="midnightblue" d="M229.44,-260.53C187.78,-251.65 129.63,-237.87 80,-221 78.13,-220.37 76.23,-219.67 74.32,-218.93"/>
<polygon fill="midnightblue" stroke="midnightblue" points="75.51,-215.64 64.93,-215.05 72.84,-222.11 75.51,-215.64"/>
</g>
<!-- Node4 -->
<g id="node4" class="node">
<title>Node4</title>
<g id="a_node4"><a xlink:title=" ">
<polygon fill="white" stroke="#bfbfbf" points="593.5,-62 593.5,-81 644.5,-81 644.5,-62 593.5,-62"/>
<text text-anchor="middle" x="619" y="-69" font-family="Helvetica,sans-Serif" font-size="10.00">memory</text>
</a>
</g>
</g>
<!-- Node2&#45;&gt;Node4 -->
<g id="edge3" class="edge">
<title>Node2&#45;&gt;Node4</title>
<path fill="none" stroke="midnightblue" d="M340.79,-261.14C367.91,-253.75 399.42,-241.38 422,-221 458,-188.5 433.57,-155.02 470,-123 502.03,-94.85 550.4,-82.25 583.27,-76.71"/>
<polygon fill="midnightblue" stroke="midnightblue" points="584.01,-80.14 593.36,-75.15 582.94,-73.22 584.01,-80.14"/>
</g>
<!-- Node5 -->
<g id="node5" class="node">
<title>Node5</title>
<g id="a_node5"><a xlink:title=" ">
<polygon fill="white" stroke="#bfbfbf" points="601.5,-0.5 601.5,-19.5 642.5,-19.5 642.5,-0.5 601.5,-0.5"/>
<text text-anchor="middle" x="622" y="-7.5" font-family="Helvetica,sans-Serif" font-size="10.00">string</text>
</a>
</g>
</g>
<!-- Node2&#45;&gt;Node5 -->
<g id="edge4" class="edge">
<title>Node2&#45;&gt;Node5</title>
<path fill="none" stroke="midnightblue" d="M304.95,-257.43C318.37,-247.68 336.23,-234.14 351,-221 396.32,-180.68 398.98,-161.32 446,-123 495.78,-82.42 561.05,-44.32 596.46,-24.74"/>
<polygon fill="midnightblue" stroke="midnightblue" points="598.53,-27.59 605.61,-19.71 595.16,-21.45 598.53,-27.59"/>
</g>
<!-- Node6 -->
<g id="node6" class="node">
<title>Node6</title>
<g id="a_node6"><a xlink:title=" ">
<polygon fill="white" stroke="#bfbfbf" points="1183,-0.5 1183,-19.5 1227,-19.5 1227,-0.5 1183,-0.5"/>
<text text-anchor="middle" x="1205" y="-7.5" font-family="Helvetica,sans-Serif" font-size="10.00">vector</text>
</a>
</g>
</g>
<!-- Node2&#45;&gt;Node6 -->
<g id="edge5" class="edge">
<title>Node2&#45;&gt;Node6</title>
<path fill="none" stroke="midnightblue" d="M340.76,-268.9C527.04,-260.11 1117.12,-231.52 1134,-221 1199.97,-179.9 1206.04,-72.96 1205.66,-29.63"/>
<polygon fill="midnightblue" stroke="midnightblue" points="1209.16,-29.56 1205.45,-19.63 1202.16,-29.71 1209.16,-29.56"/>
</g>
<!-- Node7 -->
<g id="node7" class="node">
<title>Node7</title>
<g id="a_node7"><a xlink:href="../../dd/de2/digital__signature_8h.html" target="_top" xlink:title=" ">
<polygon fill="white" stroke="black" points="302.5,-56.5 302.5,-86.5 415.5,-86.5 415.5,-56.5 302.5,-56.5"/>
<text text-anchor="start" x="310.5" y="-74.5" font-family="Helvetica,sans-Serif" font-size="10.00">automaton/core/crypto</text>
<text text-anchor="middle" x="359" y="-63.5" font-family="Helvetica,sans-Serif" font-size="10.00">/digital_signature.h</text>
</a>
</g>
</g>
<!-- Node2&#45;&gt;Node7 -->
<g id="edge6" class="edge">
<title>Node2&#45;&gt;Node7</title>
<path fill="none" stroke="midnightblue" d="M254.88,-257.44C240.62,-249.05 224.99,-236.9 217,-221 210.81,-208.69 211.73,-202.73 217,-190 236.05,-144 284.4,-110.51 319.4,-91.32"/>
<polygon fill="midnightblue" stroke="midnightblue" points="321.24,-94.3 328.43,-86.52 317.96,-88.12 321.24,-94.3"/>
</g>
<!-- Node9 -->
<g id="node9" class="node">
<title>Node9</title>
<g id="a_node9"><a xlink:href="../../d2/dab/hash__transformation_8h.html" target="_top" xlink:title=" ">
<polygon fill="white" stroke="black" points="226,-190.5 226,-220.5 342,-220.5 342,-190.5 226,-190.5"/>
<text text-anchor="start" x="234" y="-208.5" font-family="Helvetica,sans-Serif" font-size="10.00">automaton/core/crypto</text>
<text text-anchor="middle" x="284" y="-197.5" font-family="Helvetica,sans-Serif" font-size="10.00">/hash_transformation.h</text>
</a>
</g>
</g>
<!-- Node2&#45;&gt;Node9 -->
<g id="edge9" class="edge">
<title>Node2&#45;&gt;Node9</title>
<path fill="none" stroke="midnightblue" d="M284.78,-257.4C284.66,-249.64 284.51,-239.81 284.37,-230.86"/>
<polygon fill="midnightblue" stroke="midnightblue" points="287.87,-230.52 284.22,-220.58 280.87,-230.63 287.87,-230.52"/>
</g>
<!-- Node11 -->
<g id="node11" class="node">
<title>Node11</title>
<g id="a_node11"><a xlink:href="../../d1/d8a/secure__random_8h.html" target="_top" xlink:title=" ">
<polygon fill="white" stroke="black" points="94.5,-56.5 94.5,-86.5 207.5,-86.5 207.5,-56.5 94.5,-56.5"/>
<text text-anchor="start" x="102.5" y="-74.5" font-family="Helvetica,sans-Serif" font-size="10.00">automaton/core/crypto</text>
<text text-anchor="middle" x="151" y="-63.5" font-family="Helvetica,sans-Serif" font-size="10.00">/secure_random.h</text>
</a>
</g>
</g>
<!-- Node2&#45;&gt;Node11 -->
<g id="edge13" class="edge">
<title>Node2&#45;&gt;Node11</title>
<path fill="none" stroke="midnightblue" d="M229.48,-262.56C184.77,-254.09 127.13,-239.87 113,-221 84.7,-183.19 113.9,-126.43 134.48,-95.17"/>
<polygon fill="midnightblue" stroke="midnightblue" points="137.51,-96.93 140.26,-86.7 131.73,-92.99 137.51,-96.93"/>
</g>
<!-- Node2&#45;&gt;Node13 -->
<g id="edge17" class="edge">
<title>Node2&#45;&gt;Node13</title>
<path fill="none" stroke="midnightblue" d="M340.76,-260.1C396.49,-248.71 482.05,-231.22 540.16,-219.35"/>
<polygon fill="midnightblue" stroke="midnightblue" points="540.86,-222.77 549.96,-217.34 539.46,-215.92 540.86,-222.77"/>
</g>
<!-- Node17 -->
<g id="node17" class="node">
<title>Node17</title>
<g id="a_node17"><a xlink:title=" ">
<polygon fill="white" stroke="#bfbfbf" points="122.5,-196 122.5,-215 169.5,-215 169.5,-196 122.5,-196"/>
<text text-anchor="middle" x="146" y="-203" font-family="Helvetica,sans-Serif" font-size="10.00">sol.hpp</text>
</a>
</g>
</g>
<!-- Node2&#45;&gt;Node17 -->
<g id="edge31" class="edge">
<title>Node2&#45;&gt;Node17</title>
<path fill="none" stroke="midnightblue" d="M254.84,-257.4C230.56,-246.04 196.72,-230.22 173.25,-219.24"/>
<polygon fill="midnightblue" stroke="midnightblue" points="174.73,-216.07 164.19,-215.01 171.77,-222.41 174.73,-216.07"/>
</g>
<!-- Node7&#45;&gt;Node5 -->
<g id="edge7" class="edge">
<title>Node7&#45;&gt;Node5</title>
<path fill="none" stroke="midnightblue" d="M415.74,-57.66C469.59,-45.48 548.48,-27.63 591.41,-17.92"/>
<polygon fill="midnightblue" stroke="midnightblue" points="592.28,-21.31 601.26,-15.69 590.74,-14.48 592.28,-21.31"/>
</g>
<!-- Node8 -->
<g id="node8" class="node">
<title>Node8</title>
<g id="a_node8"><a xlink:title=" ">
<polygon fill="white" stroke="#bfbfbf" points="237.5,-0.5 237.5,-19.5 272.5,-19.5 272.5,-0.5 237.5,-0.5"/>
<text text-anchor="middle" x="255" y="-7.5" font-family="Helvetica,sans-Serif" font-size="10.00">map</text>
</a>
</g>
</g>
<!-- Node7&#45;&gt;Node8 -->
<g id="edge8" class="edge">
<title>Node7&#45;&gt;Node8</title>
<path fill="none" stroke="midnightblue" d="M334.35,-56.4C317.68,-46.86 295.77,-34.32 279.19,-24.84"/>
<polygon fill="midnightblue" stroke="midnightblue" points="280.55,-21.59 270.13,-19.66 277.07,-27.66 280.55,-21.59"/>
</g>
<!-- Node9&#45;&gt;Node5 -->
<g id="edge12" class="edge">
<title>Node9&#45;&gt;Node5</title>
<path fill="none" stroke="midnightblue" d="M286.04,-190.38C289.37,-172.32 297.66,-141.21 317,-123 353.53,-88.6 379.25,-109.69 424,-87 445.34,-76.18 446.45,-66.38 468,-56 508.58,-36.45 559.35,-23.64 591.23,-16.86"/>
<polygon fill="midnightblue" stroke="midnightblue" points="592.19,-20.23 601.28,-14.79 590.78,-13.38 592.19,-20.23"/>
</g>
<!-- Node9&#45;&gt;Node8 -->
<g id="edge11" class="edge">
<title>Node9&#45;&gt;Node8</title>
<path fill="none" stroke="midnightblue" d="M280.5,-190.5C275.16,-168.58 265.07,-124.76 260,-87 257.42,-67.78 256.15,-45.65 255.54,-30.24"/>
<polygon fill="midnightblue" stroke="midnightblue" points="259.03,-29.81 255.2,-19.93 252.04,-30.04 259.03,-29.81"/>
</g>
<!-- Node10 -->
<g id="node10" class="node">
<title>Node10</title>
<g id="a_node10"><a xlink:title=" ">
<polygon fill="white" stroke="#bfbfbf" points="326,-129 326,-148 380,-148 380,-129 326,-129"/>
<text text-anchor="middle" x="353" y="-136" font-family="Helvetica,sans-Serif" font-size="10.00">iostream</text>
</a>
</g>
</g>
<!-- Node9&#45;&gt;Node10 -->
<g id="edge10" class="edge">
<title>Node9&#45;&gt;Node10</title>
<path fill="none" stroke="midnightblue" d="M298.97,-190.4C309.94,-180.06 324.84,-166.02 336.22,-155.31"/>
<polygon fill="midnightblue" stroke="midnightblue" points="338.89,-157.6 343.77,-148.19 334.09,-152.5 338.89,-157.6"/>
</g>
<!-- Node11&#45;&gt;Node5 -->
<g id="edge16" class="edge">
<title>Node11&#45;&gt;Node5</title>
<path fill="none" stroke="midnightblue" d="M207.81,-63.32C308.06,-50.66 513.11,-24.76 591.02,-14.91"/>
<polygon fill="midnightblue" stroke="midnightblue" points="591.67,-18.36 601.15,-13.63 590.79,-11.41 591.67,-18.36"/>
</g>
<!-- Node11&#45;&gt;Node8 -->
<g id="edge15" class="edge">
<title>Node11&#45;&gt;Node8</title>
<path fill="none" stroke="midnightblue" d="M175.65,-56.4C192.32,-46.86 214.23,-34.32 230.81,-24.84"/>
<polygon fill="midnightblue" stroke="midnightblue" points="232.93,-27.66 239.87,-19.66 229.45,-21.59 232.93,-27.66"/>
</g>
<!-- Node12 -->
<g id="node12" class="node">
<title>Node12</title>
<g id="a_node12"><a xlink:title=" ">
<polygon fill="white" stroke="#bfbfbf" points="128,-0.5 128,-19.5 174,-19.5 174,-0.5 128,-0.5"/>
<text text-anchor="middle" x="151" y="-7.5" font-family="Helvetica,sans-Serif" font-size="10.00">cstdint</text>
</a>
</g>
</g>
<!-- Node11&#45;&gt;Node12 -->
<g id="edge14" class="edge">
<title>Node11&#45;&gt;Node12</title>
<path fill="none" stroke="midnightblue" d="M151,-56.4C151,-48.47 151,-38.46 151,-29.86"/>
<polygon fill="midnightblue" stroke="midnightblue" points="154.5,-29.66 151,-19.66 147.5,-29.66 154.5,-29.66"/>
</g>
<!-- Node13&#45;&gt;Node4 -->
<g id="edge19" class="edge">
<title>Node13&#45;&gt;Node4</title>
<path fill="none" stroke="midnightblue" d="M604.71,-190.37C607.62,-166.4 613.52,-117.75 616.75,-91.06"/>
<polygon fill="midnightblue" stroke="midnightblue" points="620.23,-91.45 617.96,-81.1 613.28,-90.6 620.23,-91.45"/>
</g>
<!-- Node13&#45;&gt;Node5 -->
<g id="edge20" class="edge">
<title>Node13&#45;&gt;Node5</title>
<path fill="none" stroke="midnightblue" d="M596.82,-190.08C586.12,-162.96 566.86,-102.87 584,-56 588.06,-44.91 596.19,-34.67 603.89,-26.76"/>
<polygon fill="midnightblue" stroke="midnightblue" points="606.47,-29.14 611.29,-19.7 601.64,-24.07 606.47,-29.14"/>
</g>
<!-- Node13&#45;&gt;Node6 -->
<g id="edge22" class="edge">
<title>Node13&#45;&gt;Node6</title>
<path fill="none" stroke="midnightblue" d="M656.34,-194.17C780.74,-169.84 1082.69,-109.3 1124,-87 1151.74,-72.02 1177.09,-45.18 1191.78,-27.73"/>
<polygon fill="midnightblue" stroke="midnightblue" points="1194.83,-29.53 1198.45,-19.58 1189.41,-25.1 1194.83,-29.53"/>
</g>
<!-- Node13&#45;&gt;Node8 -->
<g id="edge18" class="edge">
<title>Node13&#45;&gt;Node8</title>
<path fill="none" stroke="midnightblue" d="M566.29,-190.45C523.68,-174.17 451.29,-146.54 389,-123 346.37,-106.89 326.87,-117.49 293,-87 275.82,-71.54 265.44,-46.53 259.96,-29.46"/>
<polygon fill="midnightblue" stroke="midnightblue" points="263.23,-28.17 257.06,-19.56 256.52,-30.15 263.23,-28.17"/>
</g>
<!-- Node14 -->
<g id="node14" class="node">
<title>Node14</title>
<g id="a_node14"><a xlink:title=" ">
<polygon fill="white" stroke="#bfbfbf" points="1123.5,-129 1123.5,-148 1162.5,-148 1162.5,-129 1123.5,-129"/>
<text text-anchor="middle" x="1143" y="-136" font-family="Helvetica,sans-Serif" font-size="10.00">utility</text>
</a>
</g>
</g>
<!-- Node13&#45;&gt;Node14 -->
<g id="edge21" class="edge">
<title>Node13&#45;&gt;Node14</title>
<path fill="none" stroke="midnightblue" d="M656.28,-192.31C660.91,-191.45 665.53,-190.66 670,-190 863.64,-161.23 918.96,-201 1109,-154 1111.37,-153.41 1113.78,-152.68 1116.17,-151.86"/>
<polygon fill="midnightblue" stroke="midnightblue" points="1117.68,-155.03 1125.72,-148.13 1115.14,-148.51 1117.68,-155.03"/>
</g>
<!-- Node13&#45;&gt;Node15 -->
<g id="edge23" class="edge">
<title>Node13&#45;&gt;Node15</title>
<path fill="none" stroke="midnightblue" d="M620.58,-190.4C631.61,-181.54 646.04,-169.96 658.35,-160.09"/>
<polygon fill="midnightblue" stroke="midnightblue" points="660.85,-162.56 666.46,-153.58 656.47,-157.11 660.85,-162.56"/>
</g>
<!-- Node13&#45;&gt;Node16 -->
<g id="edge30" class="edge">
<title>Node13&#45;&gt;Node16</title>
<path fill="none" stroke="midnightblue" d="M651.69,-190.5C736.72,-166.04 911.96,-115.65 1003.46,-89.33"/>
<polygon fill="midnightblue" stroke="midnightblue" points="1004.48,-92.68 1013.12,-86.56 1002.54,-85.96 1004.48,-92.68"/>
</g>
<!-- Node15&#45;&gt;Node4 -->
<g id="edge24" class="edge">
<title>Node15&#45;&gt;Node4</title>
<path fill="none" stroke="midnightblue" d="M669.9,-123.4C659.56,-113.06 645.52,-99.02 634.81,-88.31"/>
<polygon fill="midnightblue" stroke="midnightblue" points="637.24,-85.79 627.69,-81.19 632.29,-90.74 637.24,-85.79"/>
</g>
<!-- Node15&#45;&gt;Node5 -->
<g id="edge25" class="edge">
<title>Node15&#45;&gt;Node5</title>
<path fill="none" stroke="midnightblue" d="M679.72,-123.21C674.48,-106.58 664.82,-78.52 653,-56 647.82,-46.13 640.86,-35.84 634.85,-27.6"/>
<polygon fill="midnightblue" stroke="midnightblue" points="637.63,-25.47 628.83,-19.57 632.03,-29.67 637.63,-25.47"/>
</g>
<!-- Node15&#45;&gt;Node16 -->
<g id="edge26" class="edge">
<title>Node15&#45;&gt;Node16</title>
<path fill="none" stroke="midnightblue" d="M737.36,-128.32C806.16,-116.49 925.66,-95.94 998.9,-83.35"/>
<polygon fill="midnightblue" stroke="midnightblue" points="999.65,-86.77 1008.91,-81.63 998.47,-79.87 999.65,-86.77"/>
</g>
<!-- Node16&#45;&gt;Node5 -->
<g id="edge28" class="edge">
<title>Node16&#45;&gt;Node5</title>
<path fill="none" stroke="midnightblue" d="M1008.69,-58.5C1004.07,-57.6 999.46,-56.75 995,-56 868.83,-34.78 717.02,-19.66 652.94,-13.75"/>
<polygon fill="midnightblue" stroke="midnightblue" points="653,-10.24 642.72,-12.82 652.36,-17.21 653,-10.24"/>
</g>
<!-- Node16&#45;&gt;Node6 -->
<g id="edge29" class="edge">
<title>Node16&#45;&gt;Node6</title>
<path fill="none" stroke="midnightblue" d="M1095.89,-56.4C1119.88,-46.42 1151.77,-33.15 1174.88,-23.53"/>
<polygon fill="midnightblue" stroke="midnightblue" points="1176.3,-26.73 1184.19,-19.66 1173.61,-20.27 1176.3,-26.73"/>
</g>
<!-- Node16&#45;&gt;Node8 -->
<g id="edge27" class="edge">
<title>Node16&#45;&gt;Node8</title>
<path fill="none" stroke="midnightblue" d="M1008.74,-66.57C852.68,-55.07 400.13,-21.7 282.96,-13.06"/>
<polygon fill="midnightblue" stroke="midnightblue" points="282.92,-9.55 272.69,-12.3 282.41,-16.53 282.92,-9.55"/>
</g>
<!-- Node19&#45;&gt;Node4 -->
<g id="edge45" class="edge">
<title>Node19&#45;&gt;Node4</title>
<path fill="none" stroke="midnightblue" d="M1067.1,-337.24C944.92,-334.09 693.36,-323.4 614,-288 564.4,-265.87 525.31,-242 541,-190 553.24,-149.44 584.57,-110.03 603.59,-88.74"/>
<polygon fill="midnightblue" stroke="midnightblue" points="606.26,-91 610.44,-81.27 601.1,-86.28 606.26,-91"/>
</g>
<!-- Node19&#45;&gt;Node5 -->
<g id="edge48" class="edge">
<title>Node19&#45;&gt;Node5</title>
<path fill="none" stroke="midnightblue" d="M1202.6,-336.84C1389.92,-331.9 1906.65,-315.88 1978,-288 2030.9,-267.33 2096.41,-233.58 2060,-190 1966.1,-77.62 853.42,-21.59 652.87,-12.37"/>
<polygon fill="midnightblue" stroke="midnightblue" points="652.89,-8.87 642.74,-11.91 652.57,-15.86 652.89,-8.87"/>
</g>
<!-- Node19&#45;&gt;Node6 -->
<g id="edge50" class="edge">
<title>Node19&#45;&gt;Node6</title>
<path fill="none" stroke="midnightblue" d="M1202.59,-338.72C1410.98,-338.9 2034.22,-335.42 2111,-288 2140.13,-270.01 2140.27,-254.1 2149,-221 2160.11,-178.89 2177.93,-155.56 2149,-123 2086.92,-53.12 1395.45,-19.21 1237.15,-12.33"/>
<polygon fill="midnightblue" stroke="midnightblue" points="1237.24,-8.83 1227.1,-11.9 1236.94,-15.83 1237.24,-8.83"/>
</g>
<!-- Node19&#45;&gt;Node8 -->
<g id="edge44" class="edge">
<title>Node19&#45;&gt;Node8</title>
<path fill="none" stroke="midnightblue" d="M1067.37,-337.1C884.39,-332.94 382.43,-318.98 220,-288 117.57,-268.47 0,-310.77 0,-206.5 0,-206.5 0,-206.5 0,-137.5 0,-85.16 39.36,-81.62 85,-56 130.96,-30.2 192.24,-18.73 227.28,-14"/>
<polygon fill="midnightblue" stroke="midnightblue" points="227.79,-17.46 237.27,-12.74 226.91,-10.52 227.79,-17.46"/>
</g>
<!-- Node19&#45;&gt;Node10 -->
<g id="edge43" class="edge">
<title>Node19&#45;&gt;Node10</title>
<path fill="none" stroke="midnightblue" d="M1067.37,-336.44C908.67,-331.16 521.79,-315.6 470,-288 414.59,-258.47 376.66,-190.15 361.03,-157.5"/>
<polygon fill="midnightblue" stroke="midnightblue" points="364.12,-155.85 356.74,-148.25 357.77,-158.8 364.12,-155.85"/>
</g>
<!-- Node19&#45;&gt;Node13 -->
<g id="edge51" class="edge">
<title>Node19&#45;&gt;Node13</title>
<path fill="none" stroke="midnightblue" d="M1067.12,-335.26C939.83,-328.65 674.99,-312.17 641,-288 622.19,-274.63 612.44,-249.53 607.55,-230.7"/>
<polygon fill="midnightblue" stroke="midnightblue" points="610.91,-229.7 605.25,-220.74 604.09,-231.27 610.91,-229.7"/>
</g>
<!-- Node19&#45;&gt;Node14 -->
<g id="edge49" class="edge">
<title>Node19&#45;&gt;Node14</title>
<path fill="none" stroke="midnightblue" d="M1067.16,-330.24C956.75,-315.23 746.11,-279.51 703,-221 694.83,-209.91 693.7,-200.16 703,-190 764.15,-123.18 1021.15,-176.04 1109,-154 1111.36,-153.41 1113.77,-152.67 1116.16,-151.85"/>
<polygon fill="midnightblue" stroke="midnightblue" points="1117.68,-155.01 1125.72,-148.11 1115.13,-148.49 1117.68,-155.01"/>
</g>
<!-- Node19&#45;&gt;Node16 -->
<g id="edge66" class="edge">
<title>Node19&#45;&gt;Node16</title>
<path fill="none" stroke="midnightblue" d="M1202.74,-338.18C1431.38,-335.92 2154.11,-318.64 2040,-190 2024.68,-172.73 1339.19,-100.98 1125.16,-78.96"/>
<polygon fill="midnightblue" stroke="midnightblue" points="1125.33,-75.46 1115.03,-77.91 1124.61,-82.42 1125.33,-75.46"/>
</g>
<!-- Node20 -->
<g id="node20" class="node">
<title>Node20</title>
<g id="a_node20"><a xlink:title=" ">
<polygon fill="white" stroke="#bfbfbf" points="1474.5,-196 1474.5,-215 1611.5,-215 1611.5,-196 1474.5,-196"/>
<text text-anchor="middle" x="1543" y="-203" font-family="Helvetica,sans-Serif" font-size="10.00">google/protobuf/descriptor.h</text>
</a>
</g>
</g>
<!-- Node19&#45;&gt;Node20 -->
<g id="edge36" class="edge">
<title>Node19&#45;&gt;Node20</title>
<path fill="none" stroke="midnightblue" d="M1192.26,-324.45C1229.48,-314.98 1278.91,-301.73 1322,-288 1390.9,-266.04 1470.05,-235.53 1512.43,-218.76"/>
<polygon fill="midnightblue" stroke="midnightblue" points="1513.88,-221.95 1521.89,-215.01 1511.3,-215.45 1513.88,-221.95"/>
</g>
<!-- Node21 -->
<g id="node21" class="node">
<title>Node21</title>
<g id="a_node21"><a xlink:title=" ">
<polygon fill="white" stroke="#bfbfbf" points="1629.5,-196 1629.5,-215 1778.5,-215 1778.5,-196 1629.5,-196"/>
<text text-anchor="middle" x="1704" y="-203" font-family="Helvetica,sans-Serif" font-size="10.00">google/protobuf/descriptor.pb.h</text>
</a>
</g>
</g>
<!-- Node19&#45;&gt;Node21 -->
<g id="edge37" class="edge">
<title>Node19&#45;&gt;Node21</title>
<path fill="none" stroke="midnightblue" d="M1202.72,-325.18C1251.55,-315.4 1318.99,-301.5 1378,-288 1480.35,-264.58 1599.92,-233.81 1661.91,-217.6"/>
<polygon fill="midnightblue" stroke="midnightblue" points="1662.93,-220.95 1671.71,-215.03 1661.15,-214.18 1662.93,-220.95"/>
</g>
<!-- Node22 -->
<g id="node22" class="node">
<title>Node22</title>
<g id="a_node22"><a xlink:title=" ">
<polygon fill="white" stroke="#bfbfbf" points="1797,-190.5 1797,-220.5 1919,-220.5 1919,-190.5 1797,-190.5"/>
<text text-anchor="start" x="1805" y="-208.5" font-family="Helvetica,sans-Serif" font-size="10.00">google/protobuf/dynamic</text>
<text text-anchor="middle" x="1858" y="-197.5" font-family="Helvetica,sans-Serif" font-size="10.00">_message.h</text>
</a>
</g>
</g>
<!-- Node19&#45;&gt;Node22 -->
<g id="edge38" class="edge">
<title>Node19&#45;&gt;Node22</title>
<path fill="none" stroke="midnightblue" d="M1202.66,-328.61C1267.32,-318.97 1367.49,-303.52 1454,-288 1599.82,-261.84 1638.02,-251.68 1786.95,-221.21"/>
<polygon fill="midnightblue" stroke="midnightblue" points="1787.82,-224.61 1796.92,-219.18 1786.42,-217.75 1787.82,-224.61"/>
</g>
<!-- Node23 -->
<g id="node23" class="node">
<title>Node23</title>
<g id="a_node23"><a xlink:title=" ">
<polygon fill="white" stroke="#bfbfbf" points="1937,-190.5 1937,-220.5 2031,-220.5 2031,-190.5 1937,-190.5"/>
<text text-anchor="start" x="1945" y="-208.5" font-family="Helvetica,sans-Serif" font-size="10.00">google/protobuf/io</text>
<text text-anchor="middle" x="1984" y="-197.5" font-family="Helvetica,sans-Serif" font-size="10.00">/tokenizer.h</text>
</a>
</g>
</g>
<!-- Node19&#45;&gt;Node23 -->
<g id="edge39" class="edge">
<title>Node19&#45;&gt;Node23</title>
<path fill="none" stroke="midnightblue" d="M1202.65,-331.55C1338.57,-316.91 1654.42,-279.54 1926.64,-221.2"/>
<polygon fill="midnightblue" stroke="midnightblue" points="1927.67,-224.56 1936.71,-219.03 1926.19,-217.72 1927.67,-224.56"/>
</g>
<!-- Node24 -->
<g id="node24" class="node">
<title>Node24</title>
<g id="a_node24"><a xlink:title=" ">
<polygon fill="white" stroke="#bfbfbf" points="712.5,-190.5 712.5,-220.5 841.5,-220.5 841.5,-190.5 712.5,-190.5"/>
<text text-anchor="start" x="720.5" y="-208.5" font-family="Helvetica,sans-Serif" font-size="10.00">google/protobuf/io</text>
<text text-anchor="middle" x="777" y="-197.5" font-family="Helvetica,sans-Serif" font-size="10.00">/zero_copy_stream_impl.h</text>
</a>
</g>
</g>
<!-- Node19&#45;&gt;Node24 -->
<g id="edge40" class="edge">
<title>Node19&#45;&gt;Node24</title>
<path fill="none" stroke="midnightblue" d="M1097.03,-324.5C1031.37,-300.29 896.79,-250.67 824.84,-224.14"/>
<polygon fill="midnightblue" stroke="midnightblue" points="825.72,-220.73 815.12,-220.56 823.29,-227.3 825.72,-220.73"/>
</g>
<!-- Node25 -->
<g id="node25" class="node">
<title>Node25</title>
<g id="a_node25"><a xlink:title=" ">
<polygon fill="white" stroke="#bfbfbf" points="859.5,-196 859.5,-215 972.5,-215 972.5,-196 859.5,-196"/>
<text text-anchor="middle" x="916" y="-203" font-family="Helvetica,sans-Serif" font-size="10.00">google/protobuf/map.h</text>
</a>
</g>
</g>
<!-- Node19&#45;&gt;Node25 -->
<g id="edge41" class="edge">
<title>Node19&#45;&gt;Node25</title>
<path fill="none" stroke="midnightblue" d="M1111.56,-324.37C1069.3,-298.9 980.82,-245.57 938.93,-220.32"/>
<polygon fill="midnightblue" stroke="midnightblue" points="940.63,-217.26 930.26,-215.1 937.02,-223.26 940.63,-217.26"/>
</g>
<!-- Node26 -->
<g id="node26" class="node">
<title>Node26</title>
<g id="a_node26"><a xlink:title=" ">
<polygon fill="white" stroke="#bfbfbf" points="991,-196 991,-215 1125,-215 1125,-196 991,-196"/>
<text text-anchor="middle" x="1058" y="-203" font-family="Helvetica,sans-Serif" font-size="10.00">google/protobuf/message.h</text>
</a>
</g>
</g>
<!-- Node19&#45;&gt;Node26 -->
<g id="edge42" class="edge">
<title>Node19&#45;&gt;Node26</title>
<path fill="none" stroke="midnightblue" d="M1126.76,-324.37C1112.59,-300.08 1083.63,-250.44 1068.21,-224"/>
<polygon fill="midnightblue" stroke="midnightblue" points="1071.08,-221.97 1063.02,-215.1 1065.03,-225.5 1071.08,-221.97"/>
</g>
<!-- Node27 -->
<g id="node27" class="node">
<title>Node27</title>
<g id="a_node27"><a xlink:title=" ">
<polygon fill="white" stroke="#bfbfbf" points="650,-263 650,-282 702,-282 702,-263 650,-263"/>
<text text-anchor="middle" x="676" y="-270" font-family="Helvetica,sans-Serif" font-size="10.00">sstream</text>
</a>
</g>
</g>
<!-- Node19&#45;&gt;Node27 -->
<g id="edge46" class="edge">
<title>Node19&#45;&gt;Node27</title>
<path fill="none" stroke="midnightblue" d="M1067.41,-335.1C983.89,-329.81 837.88,-317.03 716,-288 712.94,-287.27 709.79,-286.38 706.66,-285.41"/>
<polygon fill="midnightblue" stroke="midnightblue" points="707.49,-281.99 696.9,-282.09 705.24,-288.62 707.49,-281.99"/>
</g>
<!-- Node28 -->
<g id="node28" class="node">
<title>Node28</title>
<g id="a_node28"><a xlink:title=" ">
<polygon fill="white" stroke="#bfbfbf" points="1271.5,-263 1271.5,-282 1312.5,-282 1312.5,-263 1271.5,-263"/>
<text text-anchor="middle" x="1292" y="-270" font-family="Helvetica,sans-Serif" font-size="10.00">stack</text>
</a>
</g>
</g>
<!-- Node19&#45;&gt;Node28 -->
<g id="edge47" class="edge">
<title>Node19&#45;&gt;Node28</title>
<path fill="none" stroke="midnightblue" d="M1173.17,-324.45C1198.81,-314.76 1233.22,-301.29 1263,-288 1264.16,-287.48 1265.33,-286.95 1266.52,-286.4"/>
<polygon fill="midnightblue" stroke="midnightblue" points="1268.07,-289.53 1275.56,-282.03 1265.03,-283.23 1268.07,-289.53"/>
</g>
<!-- Node29 -->
<g id="node29" class="node">
<title>Node29</title>
<g id="a_node29"><a xlink:href="../../d5/de1/protobuf__msg_8h.html" target="_top" xlink:title=" ">
<polygon fill="white" stroke="black" points="1128.5,-257.5 1128.5,-287.5 1253.5,-287.5 1253.5,-257.5 1128.5,-257.5"/>
<text text-anchor="start" x="1136.5" y="-275.5" font-family="Helvetica,sans-Serif" font-size="10.00">automaton/core/data</text>
<text text-anchor="middle" x="1191" y="-264.5" font-family="Helvetica,sans-Serif" font-size="10.00">/protobuf/protobuf_msg.h</text>
</a>
</g>
</g>
<!-- Node19&#45;&gt;Node29 -->
<g id="edge52" class="edge">
<title>Node19&#45;&gt;Node29</title>
<path fill="none" stroke="midnightblue" d="M1147.15,-324.4C1154.49,-315.88 1163.99,-304.85 1172.28,-295.23"/>
<polygon fill="midnightblue" stroke="midnightblue" points="1175,-297.44 1178.87,-287.58 1169.69,-292.87 1175,-297.44"/>
</g>
<!-- Node29&#45;&gt;Node4 -->
<g id="edge61" class="edge">
<title>Node29&#45;&gt;Node4</title>
<path fill="none" stroke="midnightblue" d="M1194.31,-257.14C1200.24,-227.32 1208.86,-158.55 1172,-123 1134.78,-87.1 771.52,-75.9 654.87,-73.22"/>
<polygon fill="midnightblue" stroke="midnightblue" points="654.76,-69.72 644.68,-72.99 654.6,-76.71 654.76,-69.72"/>
</g>
<!-- Node29&#45;&gt;Node5 -->
<g id="edge62" class="edge">
<title>Node29&#45;&gt;Node5</title>
<path fill="none" stroke="midnightblue" d="M1199,-257.44C1204.13,-247.59 1210.31,-233.92 1213,-221 1222.03,-177.65 1227.54,-153.04 1195,-123 1130.24,-63.22 1086.54,-103.69 1000,-87 870.81,-62.09 717.16,-30.63 652.78,-17.36"/>
<polygon fill="midnightblue" stroke="midnightblue" points="653.38,-13.91 642.88,-15.32 651.96,-20.77 653.38,-13.91"/>
</g>
<!-- Node29&#45;&gt;Node13 -->
<g id="edge63" class="edge">
<title>Node29&#45;&gt;Node13</title>
<path fill="none" stroke="midnightblue" d="M1128.12,-265.82C1035.09,-257.23 855.36,-239.92 703,-221 691.1,-219.52 678.42,-217.8 666.24,-216.07"/>
<polygon fill="midnightblue" stroke="midnightblue" points="666.54,-212.58 656.14,-214.62 665.54,-219.5 666.54,-212.58"/>
</g>
<!-- Node29&#45;&gt;Node15 -->
<g id="edge64" class="edge">
<title>Node29&#45;&gt;Node15</title>
<path fill="none" stroke="midnightblue" d="M1185.57,-257.47C1177.46,-238.6 1160.27,-205.61 1134,-190 1070.16,-152.07 855.51,-142.62 747.37,-140.27"/>
<polygon fill="midnightblue" stroke="midnightblue" points="747.32,-136.77 737.25,-140.07 747.18,-143.77 747.32,-136.77"/>
</g>
<!-- Node29&#45;&gt;Node16 -->
<g id="edge65" class="edge">
<title>Node29&#45;&gt;Node16</title>
<path fill="none" stroke="midnightblue" d="M1212.3,-257.38C1223.73,-248.46 1236.73,-235.84 1243,-221 1259.96,-180.88 1269.34,-157.69 1243,-123 1228.57,-104 1171.54,-90.22 1125.31,-81.91"/>
<polygon fill="midnightblue" stroke="midnightblue" points="1125.78,-78.44 1115.32,-80.16 1124.57,-85.33 1125.78,-78.44"/>
</g>
<!-- Node29&#45;&gt;Node20 -->
<g id="edge54" class="edge">
<title>Node29&#45;&gt;Node20</title>
<path fill="none" stroke="midnightblue" d="M1253.81,-258.76C1256.92,-258.16 1259.99,-257.57 1263,-257 1353.03,-239.95 1375.86,-237.48 1466,-221 1473.18,-219.69 1480.72,-218.29 1488.17,-216.9"/>
<polygon fill="midnightblue" stroke="midnightblue" points="1489.04,-220.3 1498.23,-215.01 1487.75,-213.42 1489.04,-220.3"/>
</g>
<!-- Node29&#45;&gt;Node21 -->
<g id="edge55" class="edge">
<title>Node29&#45;&gt;Node21</title>
<path fill="none" stroke="midnightblue" d="M1253.76,-258.48C1256.88,-257.95 1259.97,-257.46 1263,-257 1421.13,-233.19 1462.58,-242.77 1621,-221 1629.84,-219.78 1639.19,-218.32 1648.29,-216.81"/>
<polygon fill="midnightblue" stroke="midnightblue" points="1649.16,-220.21 1658.43,-215.08 1647.98,-213.31 1649.16,-220.21"/>
</g>
<!-- Node29&#45;&gt;Node22 -->
<g id="edge56" class="edge">
<title>Node29&#45;&gt;Node22</title>
<path fill="none" stroke="midnightblue" d="M1253.75,-258.36C1256.87,-257.87 1259.97,-257.41 1263,-257 1491.51,-226.29 1554.51,-252.04 1786.52,-221.08"/>
<polygon fill="midnightblue" stroke="midnightblue" points="1787.18,-224.52 1796.62,-219.71 1786.24,-217.58 1787.18,-224.52"/>
</g>
<!-- Node29&#45;&gt;Node23 -->
<g id="edge57" class="edge">
<title>Node29&#45;&gt;Node23</title>
<path fill="none" stroke="midnightblue" d="M1253.74,-258.31C1256.86,-257.83 1259.96,-257.39 1263,-257 1553.33,-220.1 1633.7,-265.28 1926.71,-220.98"/>
<polygon fill="midnightblue" stroke="midnightblue" points="1927.43,-224.41 1936.78,-219.43 1926.37,-217.49 1927.43,-224.41"/>
</g>
<!-- Node29&#45;&gt;Node24 -->
<g id="edge58" class="edge">
<title>Node29&#45;&gt;Node24</title>
<path fill="none" stroke="midnightblue" d="M1128.2,-263.05C1061.99,-253.95 954.43,-238.6 851.49,-221.03"/>
<polygon fill="midnightblue" stroke="midnightblue" points="851.99,-217.57 841.54,-219.33 850.81,-224.47 851.99,-217.57"/>
</g>
<!-- Node29&#45;&gt;Node25 -->
<g id="edge59" class="edge">
<title>Node29&#45;&gt;Node25</title>
<path fill="none" stroke="midnightblue" d="M1131.67,-257.48C1080.77,-245.45 1008.48,-228.36 961.9,-217.35"/>
<polygon fill="midnightblue" stroke="midnightblue" points="962.62,-213.92 952.08,-215.03 961.01,-220.74 962.62,-213.92"/>
</g>
<!-- Node29&#45;&gt;Node26 -->
<g id="edge60" class="edge">
<title>Node29&#45;&gt;Node26</title>
<path fill="none" stroke="midnightblue" d="M1162.14,-257.4C1139.11,-246.14 1107.11,-230.5 1084.68,-219.54"/>
<polygon fill="midnightblue" stroke="midnightblue" points="1085.93,-216.25 1075.41,-215.01 1082.85,-222.54 1085.93,-216.25"/>
</g>
<!-- Node30 -->
<g id="node30" class="node">
<title>Node30</title>
<g id="a_node30"><a xlink:title=" ">
<polygon fill="white" stroke="#bfbfbf" points="1333.5,-190.5 1333.5,-220.5 1456.5,-220.5 1456.5,-190.5 1333.5,-190.5"/>
<text text-anchor="start" x="1341.5" y="-208.5" font-family="Helvetica,sans-Serif" font-size="10.00">google/protobuf/compiler</text>
<text text-anchor="middle" x="1395" y="-197.5" font-family="Helvetica,sans-Serif" font-size="10.00">/parser.h</text>
</a>
</g>
</g>
<!-- Node29&#45;&gt;Node30 -->
<g id="edge53" class="edge">
<title>Node29&#45;&gt;Node30</title>
<path fill="none" stroke="midnightblue" d="M1235.01,-257.48C1266.14,-247.56 1308.06,-234.2 1341.18,-223.65"/>
<polygon fill="midnightblue" stroke="midnightblue" points="1342.25,-226.98 1350.71,-220.61 1340.12,-220.31 1342.25,-226.98"/>
</g>
<!-- Node31&#45;&gt;Node5 -->
<g id="edge70" class="edge">
<title>Node31&#45;&gt;Node5</title>
<path fill="none" stroke="midnightblue" d="M2279.45,-329.9C2240.85,-295.75 2091.32,-169.43 1942,-123 1749.34,-63.09 1693.76,-76.12 1493,-56 1165.3,-23.16 765.69,-13.64 652.93,-11.52"/>
<polygon fill="midnightblue" stroke="midnightblue" points="652.69,-8.01 642.63,-11.33 652.57,-15.01 652.69,-8.01"/>
</g>
<!-- Node32 -->
<g id="node32" class="node">
<title>Node32</title>
<g id="a_node32"><a xlink:title=" ">
<polygon fill="white" stroke="#bfbfbf" points="2357,-263 2357,-282 2403,-282 2403,-263 2357,-263"/>
<text text-anchor="middle" x="2380" y="-270" font-family="Helvetica,sans-Serif" font-size="10.00">chrono</text>
</a>
</g>
</g>
<!-- Node31&#45;&gt;Node32 -->
<g id="edge69" class="edge">
<title>Node31&#45;&gt;Node32</title>
<path fill="none" stroke="midnightblue" d="M2301.27,-329.73C2316.15,-319.11 2341.43,-301.05 2359.33,-288.26"/>
<polygon fill="midnightblue" stroke="midnightblue" points="2361.82,-290.79 2367.92,-282.13 2357.75,-285.09 2361.82,-290.79"/>
</g>
<!-- Node33 -->
<g id="node33" class="node">
<title>Node33</title>
<g id="a_node33"><a xlink:title=" ">
<polygon fill="white" stroke="#bfbfbf" points="2421,-263 2421,-282 2505,-282 2505,-263 2421,-263"/>
<text text-anchor="middle" x="2463" y="-270" font-family="Helvetica,sans-Serif" font-size="10.00">g3log/g3log.hpp</text>
</a>
</g>
</g>
<!-- Node31&#45;&gt;Node33 -->
<g id="edge71" class="edge">
<title>Node31&#45;&gt;Node33</title>
<path fill="none" stroke="midnightblue" d="M2312.11,-329.87C2342.48,-318.52 2396.01,-298.52 2430.47,-285.65"/>
<polygon fill="midnightblue" stroke="midnightblue" points="2431.93,-288.84 2440.08,-282.06 2429.48,-282.28 2431.93,-288.84"/>
</g>
<!-- Node34 -->
<g id="node34" class="node">
<title>Node34</title>
<g id="a_node34"><a xlink:title=" ">
<polygon fill="white" stroke="#bfbfbf" points="2523.5,-263 2523.5,-282 2626.5,-282 2626.5,-263 2523.5,-263"/>
<text text-anchor="middle" x="2575" y="-270" font-family="Helvetica,sans-Serif" font-size="10.00">g3log/logworker.hpp</text>
</a>
</g>
</g>
<!-- Node31&#45;&gt;Node34 -->
<g id="edge72" class="edge">
<title>Node31&#45;&gt;Node34</title>
<path fill="none" stroke="midnightblue" d="M2327.65,-329.98C2372.5,-320.06 2448.66,-303.1 2514,-288 2519.04,-286.84 2524.31,-285.6 2529.56,-284.37"/>
<polygon fill="midnightblue" stroke="midnightblue" points="2530.61,-287.72 2539.54,-282.01 2529,-280.9 2530.61,-287.72"/>
</g>
<!-- Node35 -->
<g id="node35" class="node">
<title>Node35</title>
<g id="a_node35"><a xlink:title=" ">
<polygon fill="white" stroke="#bfbfbf" points="2239.5,-263 2239.5,-282 2338.5,-282 2338.5,-263 2239.5,-263"/>
<text text-anchor="middle" x="2289" y="-270" font-family="Helvetica,sans-Serif" font-size="10.00">g3log/loglevels.hpp</text>
</a>
</g>
</g>
<!-- Node31&#45;&gt;Node35 -->
<g id="edge73" class="edge">
<title>Node31&#45;&gt;Node35</title>
<path fill="none" stroke="midnightblue" d="M2289,-329.73C2289,-320.18 2289,-304.62 2289,-292.28"/>
<polygon fill="midnightblue" stroke="midnightblue" points="2292.5,-292.13 2289,-282.13 2285.5,-292.13 2292.5,-292.13"/>
</g>
</g>
</svg>
