<?xml version="1.0" encoding="UTF-8" standalone="no"?>
<!DOCTYPE svg PUBLIC "-//W3C//DTD SVG 1.1//EN"
 "http://www.w3.org/Graphics/SVG/1.1/DTD/svg11.dtd">
<!-- Generated by graphviz version 2.44.0 ()
 -->
<!-- Title: automaton::core::node::default_node_updater::update_function Pages: 1 -->
<svg width="582pt" height="186pt"
 viewBox="0.00 0.00 582.00 186.00" xmlns="http://www.w3.org/2000/svg" xmlns:xlink="http://www.w3.org/1999/xlink">
<g id="graph0" class="graph" transform="scale(1 1) rotate(0) translate(4 182)">
<title>automaton::core::node::default_node_updater::update_function</title>
<polygon fill="white" stroke="transparent" points="-4,4 -4,-182 578,-182 578,4 -4,4"/>
<!-- Node1 -->
<g id="node1" class="node">
<title>Node1</title>
<g id="a_node1"><a xlink:title=" ">
<polygon fill="#bfbfbf" stroke="black" points="0,-68 0,-109 114,-109 114,-68 0,-68"/>
<text text-anchor="start" x="8" y="-97" font-family="Helvetica,sans-Serif" font-size="10.00">automaton::core::node</text>
<text text-anchor="start" x="8" y="-86" font-family="Helvetica,sans-Serif" font-size="10.00">::default_node_updater</text>
<text text-anchor="middle" x="57" y="-75" font-family="Helvetica,sans-Serif" font-size="10.00">::update_function</text>
</a>
</g>
</g>
<!-- Node2 -->
<g id="node2" class="node">
<title>Node2</title>
<g id="a_node2"><a xlink:href="../../da/d77/classautomaton_1_1core_1_1node_1_1node.html#ae5b38201631f538808e2fe50385613d0" target="_top" xlink:title=" ">
<polygon fill="white" stroke="black" points="166,-147.5 166,-177.5 277,-177.5 277,-147.5 166,-147.5"/>
<text text-anchor="start" x="174" y="-165.5" font-family="Helvetica,sans-Serif" font-size="10.00">automaton::core::node</text>
<text text-anchor="middle" x="221.5" y="-154.5" font-family="Helvetica,sans-Serif" font-size="10.00">::node::get_node</text>
</a>
</g>
</g>
<!-- Node1&#45;&gt;Node2 -->
<g id="edge1" class="edge">
<title>Node1&#45;&gt;Node2</title>
<path fill="none" stroke="midnightblue" d="M92.69,-109.17C109.63,-118.79 130.52,-129.96 150,-138.5 154.18,-140.33 158.54,-142.11 162.96,-143.82"/>
<polygon fill="midnightblue" stroke="midnightblue" points="162.08,-147.23 172.68,-147.45 164.53,-140.67 162.08,-147.23"/>
</g>
<!-- Node3 -->
<g id="node3" class="node">
<title>Node3</title>
<g id="a_node3"><a xlink:href="../../da/d77/classautomaton_1_1core_1_1node_1_1node.html#a9ac45a3efe331cedac16ea9f513822c5" target="_top" xlink:title=" ">
<polygon fill="white" stroke="black" points="155.5,-98.5 155.5,-128.5 287.5,-128.5 287.5,-98.5 155.5,-98.5"/>
<text text-anchor="start" x="163.5" y="-116.5" font-family="Helvetica,sans-Serif" font-size="10.00">automaton::core::node</text>
<text text-anchor="middle" x="221.5" y="-105.5" font-family="Helvetica,sans-Serif" font-size="10.00">::node::get_time_to_update</text>
</a>
</g>
</g>
<!-- Node1&#45;&gt;Node3 -->
<g id="edge2" class="edge">
<title>Node1&#45;&gt;Node3</title>
<path fill="none" stroke="midnightblue" d="M114.38,-97.17C124.38,-98.71 134.94,-100.34 145.37,-101.94"/>
<polygon fill="midnightblue" stroke="midnightblue" points="144.88,-105.41 155.3,-103.47 145.95,-98.49 144.88,-105.41"/>
</g>
<!-- Node4 -->
<g id="node4" class="node">
<title>Node4</title>
<g id="a_node4"><a xlink:href="../../da/d77/classautomaton_1_1core_1_1node_1_1node.html#a3da25a529306e928bca8e6f591758482" target="_top" xlink:title=" ">
<polygon fill="white" stroke="black" points="163.5,-49.5 163.5,-79.5 279.5,-79.5 279.5,-49.5 163.5,-49.5"/>
<text text-anchor="start" x="171.5" y="-67.5" font-family="Helvetica,sans-Serif" font-size="10.00">automaton::core::node</text>
<text text-anchor="middle" x="221.5" y="-56.5" font-family="Helvetica,sans-Serif" font-size="10.00">::node::process_update</text>
</a>
</g>
</g>
<!-- Node1&#45;&gt;Node4 -->
<g id="edge3" class="edge">
<title>Node1&#45;&gt;Node4</title>
<path fill="none" stroke="midnightblue" d="M114.38,-80.17C126.89,-78.33 140.28,-76.35 153.18,-74.44"/>
<polygon fill="midnightblue" stroke="midnightblue" points="154.01,-77.86 163.4,-72.93 152.99,-70.93 154.01,-77.86"/>
</g>
<!-- Node8 -->
<g id="node8" class="node">
<title>Node8</title>
<g id="a_node8"><a xlink:href="../../db/d8a/classautomaton_1_1core_1_1node_1_1node__updater.html#aa491d02cb0f9726f19cd7b7727debb4d" target="_top" xlink:title=" ">
<polygon fill="white" stroke="black" points="150,-0.5 150,-30.5 293,-30.5 293,-0.5 150,-0.5"/>
<text text-anchor="start" x="158" y="-18.5" font-family="Helvetica,sans-Serif" font-size="10.00">automaton::core::node</text>
<text text-anchor="middle" x="221.5" y="-7.5" font-family="Helvetica,sans-Serif" font-size="10.00">::node_updater::remove_node</text>
</a>
</g>
</g>
<!-- Node1&#45;&gt;Node8 -->
<g id="edge7" class="edge">
<title>Node1&#45;&gt;Node8</title>
<path fill="none" stroke="midnightblue" d="M94.58,-67.91C111.22,-58.94 131.34,-48.63 150,-40.5 154.99,-38.33 160.23,-36.2 165.51,-34.15"/>
<polygon fill="midnightblue" stroke="midnightblue" points="166.88,-37.38 175,-30.58 164.41,-30.83 166.88,-37.38"/>
</g>
<!-- Node5 -->
<g id="node5" class="node">
<title>Node5</title>
<g id="a_node5"><a xlink:href="../../da/d77/classautomaton_1_1core_1_1node_1_1node.html#a93dd5dbc737ce5578ca9f2d92f928788" target="_top" xlink:title=" ">
<polygon fill="white" stroke="black" points="329,-49.5 329,-79.5 440,-79.5 440,-49.5 329,-49.5"/>
<text text-anchor="start" x="337" y="-67.5" font-family="Helvetica,sans-Serif" font-size="10.00">automaton::core::node</text>
<text text-anchor="middle" x="384.5" y="-56.5" font-family="Helvetica,sans-Serif" font-size="10.00">::node::log</text>
</a>
</g>
</g>
<!-- Node4&#45;&gt;Node5 -->
<g id="edge4" class="edge">
<title>Node4&#45;&gt;Node5</title>
<path fill="none" stroke="midnightblue" d="M279.72,-64.5C292.34,-64.5 305.8,-64.5 318.7,-64.5"/>
<polygon fill="midnightblue" stroke="midnightblue" points="318.9,-68 328.9,-64.5 318.9,-61 318.9,-68"/>
</g>
<!-- Node6 -->
<g id="node6" class="node">
<title>Node6</title>
<g id="a_node6"><a xlink:href="../../da/dd5/namespaceautomaton_1_1core_1_1io.html#aea246d3b4b82db2aa3e39d76bec63d05" target="_top" xlink:title=" ">
<polygon fill="white" stroke="black" points="476,-74.5 476,-104.5 574,-104.5 574,-74.5 476,-74.5"/>
<text text-anchor="start" x="484" y="-92.5" font-family="Helvetica,sans-Serif" font-size="10.00">automaton::core::io</text>
<text text-anchor="middle" x="525" y="-81.5" font-family="Helvetica,sans-Serif" font-size="10.00">::get_date_string</text>
</a>
</g>
</g>
<!-- Node5&#45;&gt;Node6 -->
<g id="edge5" class="edge">
<title>Node5&#45;&gt;Node6</title>
<path fill="none" stroke="midnightblue" d="M440.24,-74.38C448.72,-75.91 457.5,-77.5 466.04,-79.04"/>
<polygon fill="midnightblue" stroke="midnightblue" points="465.47,-82.49 475.94,-80.82 466.72,-75.6 465.47,-82.49"/>
</g>
<!-- Node7 -->
<g id="node7" class="node">
<title>Node7</title>
<g id="a_node7"><a xlink:href="../../da/dd5/namespaceautomaton_1_1core_1_1io.html#a698c4323641638b149fe966f6b4fb211" target="_top" xlink:title=" ">
<polygon fill="white" stroke="black" points="476,-25.5 476,-55.5 574,-55.5 574,-25.5 476,-25.5"/>
<text text-anchor="start" x="484" y="-43.5" font-family="Helvetica,sans-Serif" font-size="10.00">automaton::core::io</text>
<text text-anchor="middle" x="525" y="-32.5" font-family="Helvetica,sans-Serif" font-size="10.00">::zero_padded</text>
</a>
</g>
</g>
<!-- Node5&#45;&gt;Node7 -->
<g id="edge6" class="edge">
<title>Node5&#45;&gt;Node7</title>
<path fill="none" stroke="midnightblue" d="M440.24,-55.01C448.72,-53.55 457.5,-52.02 466.04,-50.54"/>
<polygon fill="midnightblue" stroke="midnightblue" points="466.68,-53.98 475.94,-48.83 465.49,-47.09 466.68,-53.98"/>
</g>
</g>
</svg>
