<?xml version="1.0" encoding="UTF-8" standalone="no"?>
<!DOCTYPE svg PUBLIC "-//W3C//DTD SVG 1.1//EN"
 "http://www.w3.org/Graphics/SVG/1.1/DTD/svg11.dtd">
<!-- Generated by graphviz version 2.42.3 ()
 -->
<!-- Title: ed25519_orlp.h Pages: 1 -->
<svg width="192pt" height="84pt"
 viewBox="0.00 0.00 192.00 84.00" xmlns="http://www.w3.org/2000/svg" xmlns:xlink="http://www.w3.org/1999/xlink">
<g id="graph0" class="graph" transform="scale(1 1) rotate(0) translate(4 80)">
<title>ed25519_orlp.h</title>
<polygon fill="white" stroke="transparent" points="-4,4 -4,-80 188,-80 188,4 -4,4"/>
<!-- Node1 -->
<g id="node1" class="node">
<title>Node1</title>
<g id="a_node1"><a xlink:title=" ">
<polygon fill="#bfbfbf" stroke="black" points="52.5,-56.5 52.5,-75.5 134.5,-75.5 134.5,-56.5 52.5,-56.5"/>
<text text-anchor="middle" x="93.5" y="-63.5" font-family="Helvetica,sans-Serif" font-size="10.00">ed25519_orlp.h</text>
</a>
</g>
</g>
<!-- Node2 -->
<g id="node2" class="node">
<title>Node2</title>
<g id="a_node2"><a xlink:href="../../de/d4f/ed25519__orlp_8cc.html" target="_top" xlink:title=" ">
<polygon fill="white" stroke="black" points="0,-0.5 0,-19.5 87,-19.5 87,-0.5 0,-0.5"/>
<text text-anchor="middle" x="43.5" y="-7.5" font-family="Helvetica,sans-Serif" font-size="10.00">ed25519_orlp.cc</text>
</a>
</g>
</g>
<!-- Node1&#45;&gt;Node2 -->
<g id="edge1" class="edge">
<title>Node1&#45;&gt;Node2</title>
<path fill="none" stroke="midnightblue" d="M78.42,-48.72C69.61,-39.2 58.83,-27.56 51.6,-19.75"/>
<polygon fill="midnightblue" stroke="midnightblue" points="75.88,-51.12 85.24,-56.08 81.02,-46.37 75.88,-51.12"/>
</g>
<!-- Node3 -->
<g id="node3" class="node">
<title>Node3</title>
<g id="a_node3"><a xlink:href="../../df/de4/bind__crypto_8cc.html" target="_top" xlink:title=" ">
<polygon fill="white" stroke="black" points="105,-0.5 105,-19.5 184,-19.5 184,-0.5 105,-0.5"/>
<text text-anchor="middle" x="144.5" y="-7.5" font-family="Helvetica,sans-Serif" font-size="10.00">bind_crypto.cc</text>
</a>
</g>
</g>
<!-- Node1&#45;&gt;Node3 -->
<g id="edge2" class="edge">
<title>Node1&#45;&gt;Node3</title>
<path fill="none" stroke="midnightblue" d="M108.88,-48.72C117.87,-39.2 128.86,-27.56 136.24,-19.75"/>
<polygon fill="midnightblue" stroke="midnightblue" points="106.24,-46.41 101.92,-56.08 111.33,-51.22 106.24,-46.41"/>
</g>
</g>
</svg>
