<?xml version="1.0" encoding="UTF-8" standalone="no"?>
<!DOCTYPE svg PUBLIC "-//W3C//DTD SVG 1.1//EN"
 "http://www.w3.org/Graphics/SVG/1.1/DTD/svg11.dtd">
<!-- Generated by graphviz version 2.42.3 ()
 -->
<!-- Title: automaton::core::network::connection::register_connection_type Pages: 1 -->
<svg width="368pt" height="50pt"
 viewBox="0.00 0.00 368.00 50.00" xmlns="http://www.w3.org/2000/svg" xmlns:xlink="http://www.w3.org/1999/xlink">
<g id="graph0" class="graph" transform="scale(1 1) rotate(0) translate(4 46)">
<title>automaton::core::network::connection::register_connection_type</title>
<polygon fill="white" stroke="transparent" points="-4,4 -4,-46 364,-46 364,4 -4,4"/>
<!-- Node1 -->
<g id="node1" class="node">
<title>Node1</title>
<g id="a_node1"><a xlink:title=" ">
<polygon fill="#bfbfbf" stroke="black" points="235,-0.5 235,-41.5 360,-41.5 360,-0.5 235,-0.5"/>
<text text-anchor="start" x="243" y="-29.5" font-family="Helvetica,sans-Serif" font-size="10.00">automaton::core::network</text>
<text text-anchor="start" x="243" y="-18.5" font-family="Helvetica,sans-Serif" font-size="10.00">::connection::register</text>
<text text-anchor="middle" x="297.5" y="-7.5" font-family="Helvetica,sans-Serif" font-size="10.00">_connection_type</text>
</a>
</g>
</g>
<!-- Node2 -->
<g id="node2" class="node">
<title>Node2</title>
<g id="a_node2"><a xlink:href="../../d9/d2e/namespaceautomaton_1_1core_1_1network.html#af0be6f795bbdb2729d2f34ce640d481c" target="_top" xlink:title=" ">
<polygon fill="white" stroke="black" points="74,-6 74,-36 199,-36 199,-6 74,-6"/>
<text text-anchor="start" x="82" y="-24" font-family="Helvetica,sans-Serif" font-size="10.00">automaton::core::network</text>
<text text-anchor="middle" x="136.5" y="-13" font-family="Helvetica,sans-Serif" font-size="10.00">::tcp_init</text>
</a>
</g>
</g>
<!-- Node1&#45;&gt;Node2 -->
<g id="edge1" class="edge">
<title>Node1&#45;&gt;Node2</title>
<path fill="none" stroke="midnightblue" d="M224.41,-21C216.01,-21 207.5,-21 199.26,-21"/>
<polygon fill="midnightblue" stroke="midnightblue" points="224.57,-24.5 234.57,-21 224.57,-17.5 224.57,-24.5"/>
</g>
<!-- Node3 -->
<g id="node3" class="node">
<title>Node3</title>
<g id="a_node3"><a xlink:href="../../dd/de7/core_8cc.html#a0ddf1224851353fc92bfbff6f499fa97" target="_top" xlink:title=" ">
<polygon fill="white" stroke="black" points="0,-11.5 0,-30.5 38,-30.5 38,-11.5 0,-11.5"/>
<text text-anchor="middle" x="19" y="-18.5" font-family="Helvetica,sans-Serif" font-size="10.00">main</text>
</a>
</g>
</g>
<!-- Node2&#45;&gt;Node3 -->
<g id="edge2" class="edge">
<title>Node2&#45;&gt;Node3</title>
<path fill="none" stroke="midnightblue" d="M63.54,-21C54.33,-21 45.63,-21 38.46,-21"/>
<polygon fill="midnightblue" stroke="midnightblue" points="63.69,-24.5 73.69,-21 63.69,-17.5 63.69,-24.5"/>
</g>
</g>
</svg>
