<?xml version="1.0" encoding="UTF-8" standalone="no"?>
<!DOCTYPE svg PUBLIC "-//W3C//DTD SVG 1.1//EN"
 "http://www.w3.org/Graphics/SVG/1.1/DTD/svg11.dtd">
<!-- Generated by graphviz version 2.44.0 ()
 -->
<!-- Title: automaton::core::script::engine::bind_data Pages: 1 -->
<svg width="304pt" height="1421pt"
 viewBox="0.00 0.00 304.00 1421.00" xmlns="http://www.w3.org/2000/svg" xmlns:xlink="http://www.w3.org/1999/xlink">
<g id="graph0" class="graph" transform="scale(1 1) rotate(0) translate(4 1417)">
<title>automaton::core::script::engine::bind_data</title>
<polygon fill="white" stroke="transparent" points="-4,4 -4,-1417 300,-1417 300,4 -4,4"/>
<!-- Node1 -->
<g id="node1" class="node">
<title>Node1</title>
<g id="a_node1"><a xlink:title=" ">
<polygon fill="#bfbfbf" stroke="black" points="0,-686.5 0,-716.5 114,-716.5 114,-686.5 0,-686.5"/>
<text text-anchor="start" x="8" y="-704.5" font-family="Helvetica,sans-Serif" font-size="10.00">automaton::core::script</text>
<text text-anchor="middle" x="57" y="-693.5" font-family="Helvetica,sans-Serif" font-size="10.00">::engine::bind_data</text>
</a>
</g>
</g>
<!-- Node2 -->
<g id="node2" class="node">
<title>Node2</title>
<g id="a_node2"><a xlink:href="../../df/d83/classautomaton_1_1core_1_1data_1_1msg.html#a3aea46e694ea2016c61f9495c4b558bc" target="_top" xlink:title=" ">
<polygon fill="white" stroke="black" points="168.5,-1382.5 168.5,-1412.5 277.5,-1412.5 277.5,-1382.5 168.5,-1382.5"/>
<text text-anchor="start" x="176.5" y="-1400.5" font-family="Helvetica,sans-Serif" font-size="10.00">automaton::core::data</text>
<text text-anchor="middle" x="223" y="-1389.5" font-family="Helvetica,sans-Serif" font-size="10.00">::msg::get_blob</text>
</a>
</g>
</g>
<!-- Node1&#45;&gt;Node2 -->
<g id="edge1" class="edge">
<title>Node1&#45;&gt;Node2</title>
<path fill="none" stroke="midnightblue" d="M57.98,-716.77C58.14,-806.9 63.25,-1268.94 150,-1373.5 152.74,-1376.81 155.96,-1379.66 159.48,-1382.13"/>
<polygon fill="midnightblue" stroke="midnightblue" points="157.77,-1385.18 168.17,-1387.19 161.29,-1379.13 157.77,-1385.18"/>
</g>
<!-- Node3 -->
<g id="node3" class="node">
<title>Node3</title>
<g id="a_node3"><a xlink:href="../../df/d83/classautomaton_1_1core_1_1data_1_1msg.html#adcf5eb437d93d109540a16b2b6d8d6a9" target="_top" xlink:title=" ">
<polygon fill="white" stroke="black" points="168.5,-1323 168.5,-1364 277.5,-1364 277.5,-1323 168.5,-1323"/>
<text text-anchor="start" x="176.5" y="-1352" font-family="Helvetica,sans-Serif" font-size="10.00">automaton::core::data</text>
<text text-anchor="start" x="176.5" y="-1341" font-family="Helvetica,sans-Serif" font-size="10.00">::msg::get_field_info</text>
<text text-anchor="middle" x="223" y="-1330" font-family="Helvetica,sans-Serif" font-size="10.00">_by_tag</text>
</a>
</g>
</g>
<!-- Node1&#45;&gt;Node3 -->
<g id="edge2" class="edge">
<title>Node1&#45;&gt;Node3</title>
<path fill="none" stroke="midnightblue" d="M58.29,-716.73C60.22,-801.78 73.47,-1217.59 150,-1314.5 152.85,-1318.11 156.22,-1321.27 159.91,-1324.04"/>
<polygon fill="midnightblue" stroke="midnightblue" points="158.15,-1327.06 168.46,-1329.5 161.92,-1321.16 158.15,-1327.06"/>
</g>
<!-- Node4 -->
<g id="node4" class="node">
<title>Node4</title>
<g id="a_node4"><a xlink:href="../../df/d83/classautomaton_1_1core_1_1data_1_1msg.html#ae7a2dadc5374c8ce717a879d7315b12a" target="_top" xlink:title=" ">
<polygon fill="white" stroke="black" points="168.5,-1274.5 168.5,-1304.5 277.5,-1304.5 277.5,-1274.5 168.5,-1274.5"/>
<text text-anchor="start" x="176.5" y="-1292.5" font-family="Helvetica,sans-Serif" font-size="10.00">automaton::core::data</text>
<text text-anchor="middle" x="223" y="-1281.5" font-family="Helvetica,sans-Serif" font-size="10.00">::msg::get_field_tag</text>
</a>
</g>
</g>
<!-- Node1&#45;&gt;Node4 -->
<g id="edge3" class="edge">
<title>Node1&#45;&gt;Node4</title>
<path fill="none" stroke="midnightblue" d="M58.41,-716.64C60.92,-797.62 76.51,-1179.2 150,-1265.5 152.79,-1268.77 156.03,-1271.6 159.58,-1274.05"/>
<polygon fill="midnightblue" stroke="midnightblue" points="157.89,-1277.12 168.3,-1279.08 161.39,-1271.05 157.89,-1277.12"/>
</g>
<!-- Node5 -->
<g id="node5" class="node">
<title>Node5</title>
<g id="a_node5"><a xlink:href="../../df/d83/classautomaton_1_1core_1_1data_1_1msg.html#aec5ae04b8137712edbea43dc5d870870" target="_top" xlink:title=" ">
<polygon fill="white" stroke="black" points="168.5,-1225.5 168.5,-1255.5 277.5,-1255.5 277.5,-1225.5 168.5,-1225.5"/>
<text text-anchor="start" x="176.5" y="-1243.5" font-family="Helvetica,sans-Serif" font-size="10.00">automaton::core::data</text>
<text text-anchor="middle" x="223" y="-1232.5" font-family="Helvetica,sans-Serif" font-size="10.00">::msg::get_int32</text>
</a>
</g>
</g>
<!-- Node1&#45;&gt;Node5 -->
<g id="edge4" class="edge">
<title>Node1&#45;&gt;Node5</title>
<path fill="none" stroke="midnightblue" d="M58.67,-716.57C62.34,-793.14 82.5,-1138.43 150,-1216.5 152.81,-1219.75 156.08,-1222.56 159.63,-1225"/>
<polygon fill="midnightblue" stroke="midnightblue" points="157.97,-1228.08 168.38,-1230.01 161.45,-1222 157.97,-1228.08"/>
</g>
<!-- Node6 -->
<g id="node6" class="node">
<title>Node6</title>
<g id="a_node6"><a xlink:href="../../df/d83/classautomaton_1_1core_1_1data_1_1msg.html#ac548cc4d404e34c95064c7ef712703a3" target="_top" xlink:title=" ">
<polygon fill="white" stroke="black" points="168.5,-1176.5 168.5,-1206.5 277.5,-1206.5 277.5,-1176.5 168.5,-1176.5"/>
<text text-anchor="start" x="176.5" y="-1194.5" font-family="Helvetica,sans-Serif" font-size="10.00">automaton::core::data</text>
<text text-anchor="middle" x="223" y="-1183.5" font-family="Helvetica,sans-Serif" font-size="10.00">::msg::get_int64</text>
</a>
</g>
</g>
<!-- Node1&#45;&gt;Node6 -->
<g id="edge5" class="edge">
<title>Node1&#45;&gt;Node6</title>
<path fill="none" stroke="midnightblue" d="M58.99,-716.8C63.97,-789.3 88.55,-1097.72 150,-1167.5 152.84,-1170.73 156.13,-1173.52 159.7,-1175.94"/>
<polygon fill="midnightblue" stroke="midnightblue" points="158.05,-1179.03 168.48,-1180.93 161.51,-1172.94 158.05,-1179.03"/>
</g>
<!-- Node7 -->
<g id="node7" class="node">
<title>Node7</title>
<g id="a_node7"><a xlink:href="../../df/d83/classautomaton_1_1core_1_1data_1_1msg.html#ab5c755bb322166fc1eef32b0c8eab679" target="_top" xlink:title=" ">
<polygon fill="white" stroke="black" points="168.5,-1127.5 168.5,-1157.5 277.5,-1157.5 277.5,-1127.5 168.5,-1127.5"/>
<text text-anchor="start" x="176.5" y="-1145.5" font-family="Helvetica,sans-Serif" font-size="10.00">automaton::core::data</text>
<text text-anchor="middle" x="223" y="-1134.5" font-family="Helvetica,sans-Serif" font-size="10.00">::msg::get_message</text>
</a>
</g>
</g>
<!-- Node1&#45;&gt;Node7 -->
<g id="edge6" class="edge">
<title>Node1&#45;&gt;Node7</title>
<path fill="none" stroke="midnightblue" d="M59.35,-716.53C65.67,-783.81 94.44,-1056.8 150,-1118.5 152.75,-1121.55 155.9,-1124.22 159.3,-1126.54"/>
<polygon fill="midnightblue" stroke="midnightblue" points="157.81,-1129.72 168.23,-1131.66 161.29,-1123.65 157.81,-1129.72"/>
</g>
<!-- Node8 -->
<g id="node8" class="node">
<title>Node8</title>
<g id="a_node8"><a xlink:href="../../df/d83/classautomaton_1_1core_1_1data_1_1msg.html#a16c733332be25b896b2cfeb49f884dcb" target="_top" xlink:title=" ">
<polygon fill="white" stroke="black" points="161,-1078.5 161,-1108.5 285,-1108.5 285,-1078.5 161,-1078.5"/>
<text text-anchor="start" x="169" y="-1096.5" font-family="Helvetica,sans-Serif" font-size="10.00">automaton::core::data</text>
<text text-anchor="middle" x="223" y="-1085.5" font-family="Helvetica,sans-Serif" font-size="10.00">::msg::get_repeated_blob</text>
</a>
</g>
</g>
<!-- Node1&#45;&gt;Node8 -->
<g id="edge7" class="edge">
<title>Node1&#45;&gt;Node8</title>
<path fill="none" stroke="midnightblue" d="M59.86,-716.83C67.77,-779.58 100.44,-1015.99 150,-1069.5 150.78,-1070.35 151.6,-1071.16 152.44,-1071.95"/>
<polygon fill="midnightblue" stroke="midnightblue" points="150.62,-1074.96 160.67,-1078.29 154.88,-1069.42 150.62,-1074.96"/>
</g>
<!-- Node9 -->
<g id="node9" class="node">
<title>Node9</title>
<g id="a_node9"><a xlink:href="../../df/d83/classautomaton_1_1core_1_1data_1_1msg.html#a2ac6900e4b5cadd69553007d58cdb628" target="_top" xlink:title=" ">
<polygon fill="white" stroke="black" points="150,-1029.5 150,-1059.5 296,-1059.5 296,-1029.5 150,-1029.5"/>
<text text-anchor="start" x="158" y="-1047.5" font-family="Helvetica,sans-Serif" font-size="10.00">automaton::core::data</text>
<text text-anchor="middle" x="223" y="-1036.5" font-family="Helvetica,sans-Serif" font-size="10.00">::msg::get_repeated_field_size</text>
</a>
</g>
</g>
<!-- Node1&#45;&gt;Node9 -->
<g id="edge8" class="edge">
<title>Node1&#45;&gt;Node9</title>
<path fill="none" stroke="midnightblue" d="M57.72,-716.55C57.62,-766.86 64.19,-931.1 150,-1020.5 150.92,-1021.46 151.89,-1022.39 152.89,-1023.27"/>
<polygon fill="midnightblue" stroke="midnightblue" points="151.02,-1026.25 161.15,-1029.37 155.18,-1020.62 151.02,-1026.25"/>
</g>
<!-- Node10 -->
<g id="node10" class="node">
<title>Node10</title>
<g id="a_node10"><a xlink:href="../../df/d83/classautomaton_1_1core_1_1data_1_1msg.html#a4c83d07c5bbb616171055a63a3299254" target="_top" xlink:title=" ">
<polygon fill="white" stroke="black" points="159.5,-980.5 159.5,-1010.5 286.5,-1010.5 286.5,-980.5 159.5,-980.5"/>
<text text-anchor="start" x="167.5" y="-998.5" font-family="Helvetica,sans-Serif" font-size="10.00">automaton::core::data</text>
<text text-anchor="middle" x="223" y="-987.5" font-family="Helvetica,sans-Serif" font-size="10.00">::msg::get_repeated_int32</text>
</a>
</g>
</g>
<!-- Node1&#45;&gt;Node10 -->
<g id="edge9" class="edge">
<title>Node1&#45;&gt;Node10</title>
<path fill="none" stroke="midnightblue" d="M58.66,-716.77C61.44,-762.19 75.87,-897.86 150,-971.5 151.08,-972.57 152.21,-973.6 153.38,-974.58"/>
<polygon fill="midnightblue" stroke="midnightblue" points="151.48,-977.52 161.67,-980.4 155.5,-971.79 151.48,-977.52"/>
</g>
<!-- Node11 -->
<g id="node11" class="node">
<title>Node11</title>
<g id="a_node11"><a xlink:href="../../df/d83/classautomaton_1_1core_1_1data_1_1msg.html#a789b7a2e0816a475e0636e3abc7cf51b" target="_top" xlink:title=" ">
<polygon fill="white" stroke="black" points="159.5,-931.5 159.5,-961.5 286.5,-961.5 286.5,-931.5 159.5,-931.5"/>
<text text-anchor="start" x="167.5" y="-949.5" font-family="Helvetica,sans-Serif" font-size="10.00">automaton::core::data</text>
<text text-anchor="middle" x="223" y="-938.5" font-family="Helvetica,sans-Serif" font-size="10.00">::msg::get_repeated_int64</text>
</a>
</g>
</g>
<!-- Node1&#45;&gt;Node11 -->
<g id="edge10" class="edge">
<title>Node1&#45;&gt;Node11</title>
<path fill="none" stroke="midnightblue" d="M59.94,-716.54C65.83,-756.1 87.15,-864.06 150,-922.5 151.15,-923.57 152.34,-924.58 153.58,-925.56"/>
<polygon fill="midnightblue" stroke="midnightblue" points="152,-928.71 162.27,-931.35 155.88,-922.89 152,-928.71"/>
</g>
<!-- Node12 -->
<g id="node12" class="node">
<title>Node12</title>
<g id="a_node12"><a xlink:href="../../df/d83/classautomaton_1_1core_1_1data_1_1msg.html#a9980d8eee10bed937b188dd0e5ffc654" target="_top" xlink:title=" ">
<polygon fill="white" stroke="black" points="150,-882.5 150,-912.5 296,-912.5 296,-882.5 150,-882.5"/>
<text text-anchor="start" x="158" y="-900.5" font-family="Helvetica,sans-Serif" font-size="10.00">automaton::core::data</text>
<text text-anchor="middle" x="223" y="-889.5" font-family="Helvetica,sans-Serif" font-size="10.00">::msg::get_repeated_message</text>
</a>
</g>
</g>
<!-- Node1&#45;&gt;Node12 -->
<g id="edge11" class="edge">
<title>Node1&#45;&gt;Node12</title>
<path fill="none" stroke="midnightblue" d="M61.92,-716.57C71.33,-749.82 98.36,-829.94 150,-873.5 151.51,-874.77 153.09,-875.98 154.73,-877.13"/>
<polygon fill="midnightblue" stroke="midnightblue" points="152.96,-880.15 163.33,-882.33 156.59,-874.16 152.96,-880.15"/>
</g>
<!-- Node13 -->
<g id="node13" class="node">
<title>Node13</title>
<g id="a_node13"><a xlink:href="../../df/d83/classautomaton_1_1core_1_1data_1_1msg.html#adc7a2087ba516df32853da63d0980df3" target="_top" xlink:title=" ">
<polygon fill="white" stroke="black" points="157,-833.5 157,-863.5 289,-863.5 289,-833.5 157,-833.5"/>
<text text-anchor="start" x="165" y="-851.5" font-family="Helvetica,sans-Serif" font-size="10.00">automaton::core::data</text>
<text text-anchor="middle" x="223" y="-840.5" font-family="Helvetica,sans-Serif" font-size="10.00">::msg::get_repeated_uint32</text>
</a>
</g>
</g>
<!-- Node1&#45;&gt;Node13 -->
<g id="edge12" class="edge">
<title>Node1&#45;&gt;Node13</title>
<path fill="none" stroke="midnightblue" d="M65.42,-716.71C78.79,-742.58 109.35,-795.16 150,-824.5 152.06,-825.98 154.21,-827.38 156.44,-828.7"/>
<polygon fill="midnightblue" stroke="midnightblue" points="154.84,-831.81 165.32,-833.36 158.1,-825.61 154.84,-831.81"/>
</g>
<!-- Node14 -->
<g id="node14" class="node">
<title>Node14</title>
<g id="a_node14"><a xlink:href="../../df/d83/classautomaton_1_1core_1_1data_1_1msg.html#a0d8068e8377bb3b6ba35b051da994f35" target="_top" xlink:title=" ">
<polygon fill="white" stroke="black" points="157,-784.5 157,-814.5 289,-814.5 289,-784.5 157,-784.5"/>
<text text-anchor="start" x="165" y="-802.5" font-family="Helvetica,sans-Serif" font-size="10.00">automaton::core::data</text>
<text text-anchor="middle" x="223" y="-791.5" font-family="Helvetica,sans-Serif" font-size="10.00">::msg::get_repeated_uint64</text>
</a>
</g>
</g>
<!-- Node1&#45;&gt;Node14 -->
<g id="edge13" class="edge">
<title>Node1&#45;&gt;Node14</title>
<path fill="none" stroke="midnightblue" d="M73.36,-716.76C90.67,-733.24 120.31,-759.3 150,-775.5 153.26,-777.28 156.67,-778.95 160.16,-780.53"/>
<polygon fill="midnightblue" stroke="midnightblue" points="158.97,-783.83 169.54,-784.47 161.68,-777.37 158.97,-783.83"/>
</g>
<!-- Node15 -->
<g id="node15" class="node">
<title>Node15</title>
<g id="a_node15"><a xlink:href="../../df/d83/classautomaton_1_1core_1_1data_1_1msg.html#aff3cccce7da76dc466e5ce774ae44fb5" target="_top" xlink:title=" ">
<polygon fill="white" stroke="black" points="168.5,-735.5 168.5,-765.5 277.5,-765.5 277.5,-735.5 168.5,-735.5"/>
<text text-anchor="start" x="176.5" y="-753.5" font-family="Helvetica,sans-Serif" font-size="10.00">automaton::core::data</text>
<text text-anchor="middle" x="223" y="-742.5" font-family="Helvetica,sans-Serif" font-size="10.00">::msg::get_uint32</text>
</a>
</g>
</g>
<!-- Node1&#45;&gt;Node15 -->
<g id="edge14" class="edge">
<title>Node1&#45;&gt;Node15</title>
<path fill="none" stroke="midnightblue" d="M108.54,-716.6C125.46,-721.66 144.48,-727.34 162.04,-732.58"/>
<polygon fill="midnightblue" stroke="midnightblue" points="161.04,-735.94 171.62,-735.45 163.04,-729.23 161.04,-735.94"/>
</g>
<!-- Node16 -->
<g id="node16" class="node">
<title>Node16</title>
<g id="a_node16"><a xlink:href="../../df/d83/classautomaton_1_1core_1_1data_1_1msg.html#aac351f102c633d1049c074ec59df8d8e" target="_top" xlink:title=" ">
<polygon fill="white" stroke="black" points="168.5,-686.5 168.5,-716.5 277.5,-716.5 277.5,-686.5 168.5,-686.5"/>
<text text-anchor="start" x="176.5" y="-704.5" font-family="Helvetica,sans-Serif" font-size="10.00">automaton::core::data</text>
<text text-anchor="middle" x="223" y="-693.5" font-family="Helvetica,sans-Serif" font-size="10.00">::msg::get_uint64</text>
</a>
</g>
</g>
<!-- Node1&#45;&gt;Node16 -->
<g id="edge15" class="edge">
<title>Node1&#45;&gt;Node16</title>
<path fill="none" stroke="midnightblue" d="M114.44,-701.5C128.53,-701.5 143.74,-701.5 158.16,-701.5"/>
<polygon fill="midnightblue" stroke="midnightblue" points="158.5,-705 168.5,-701.5 158.5,-698 158.5,-705"/>
</g>
<!-- Node17 -->
<g id="node17" class="node">
<title>Node17</title>
<g id="a_node17"><a xlink:href="../../df/d83/classautomaton_1_1core_1_1data_1_1msg.html#ad0a92bbfe73c7e1dd064f323c3286a84" target="_top" xlink:title=" ">
<polygon fill="white" stroke="black" points="160.5,-637.5 160.5,-667.5 285.5,-667.5 285.5,-637.5 160.5,-637.5"/>
<text text-anchor="start" x="168.5" y="-655.5" font-family="Helvetica,sans-Serif" font-size="10.00">automaton::core::data</text>
<text text-anchor="middle" x="223" y="-644.5" font-family="Helvetica,sans-Serif" font-size="10.00">::msg::serialize_message</text>
</a>
</g>
</g>
<!-- Node1&#45;&gt;Node17 -->
<g id="edge16" class="edge">
<title>Node1&#45;&gt;Node17</title>
<path fill="none" stroke="midnightblue" d="M108.54,-686.4C125.46,-681.34 144.48,-675.66 162.04,-670.42"/>
<polygon fill="midnightblue" stroke="midnightblue" points="163.04,-673.77 171.62,-667.55 161.04,-667.06 163.04,-673.77"/>
</g>
<!-- Node18 -->
<g id="node18" class="node">
<title>Node18</title>
<g id="a_node18"><a xlink:href="../../df/d83/classautomaton_1_1core_1_1data_1_1msg.html#ab7256a6872e210058913306156a4b45d" target="_top" xlink:title="Blob (string, bytes, ...)">
<polygon fill="white" stroke="black" points="168.5,-588.5 168.5,-618.5 277.5,-618.5 277.5,-588.5 168.5,-588.5"/>
<text text-anchor="start" x="176.5" y="-606.5" font-family="Helvetica,sans-Serif" font-size="10.00">automaton::core::data</text>
<text text-anchor="middle" x="223" y="-595.5" font-family="Helvetica,sans-Serif" font-size="10.00">::msg::set_blob</text>
</a>
</g>
</g>
<!-- Node1&#45;&gt;Node18 -->
<g id="edge17" class="edge">
<title>Node1&#45;&gt;Node18</title>
<path fill="none" stroke="midnightblue" d="M73.75,-686.23C91.18,-670.03 120.69,-644.6 150,-628.5 153.89,-626.36 157.99,-624.36 162.19,-622.48"/>
<polygon fill="midnightblue" stroke="midnightblue" points="163.61,-625.69 171.48,-618.6 160.91,-619.23 163.61,-625.69"/>
</g>
<!-- Node19 -->
<g id="node19" class="node">
<title>Node19</title>
<g id="a_node19"><a xlink:href="../../df/d83/classautomaton_1_1core_1_1data_1_1msg.html#aef31df693a43c6eea28066af0c637cf1" target="_top" xlink:title="Int 32.">
<polygon fill="white" stroke="black" points="168.5,-539.5 168.5,-569.5 277.5,-569.5 277.5,-539.5 168.5,-539.5"/>
<text text-anchor="start" x="176.5" y="-557.5" font-family="Helvetica,sans-Serif" font-size="10.00">automaton::core::data</text>
<text text-anchor="middle" x="223" y="-546.5" font-family="Helvetica,sans-Serif" font-size="10.00">::msg::set_int32</text>
</a>
</g>
</g>
<!-- Node1&#45;&gt;Node19 -->
<g id="edge18" class="edge">
<title>Node1&#45;&gt;Node19</title>
<path fill="none" stroke="midnightblue" d="M65.49,-686.46C78.97,-660.89 109.69,-608.86 150,-579.5 152.87,-577.41 155.92,-575.49 159.1,-573.71"/>
<polygon fill="midnightblue" stroke="midnightblue" points="160.92,-576.71 168.3,-569.11 157.79,-570.45 160.92,-576.71"/>
</g>
<!-- Node20 -->
<g id="node20" class="node">
<title>Node20</title>
<g id="a_node20"><a xlink:href="../../df/d83/classautomaton_1_1core_1_1data_1_1msg.html#af12fa2bc1d85b2f6cf6c572c4ef82a8f" target="_top" xlink:title="Int 64.">
<polygon fill="white" stroke="black" points="168.5,-490.5 168.5,-520.5 277.5,-520.5 277.5,-490.5 168.5,-490.5"/>
<text text-anchor="start" x="176.5" y="-508.5" font-family="Helvetica,sans-Serif" font-size="10.00">automaton::core::data</text>
<text text-anchor="middle" x="223" y="-497.5" font-family="Helvetica,sans-Serif" font-size="10.00">::msg::set_int64</text>
</a>
</g>
</g>
<!-- Node1&#45;&gt;Node20 -->
<g id="edge19" class="edge">
<title>Node1&#45;&gt;Node20</title>
<path fill="none" stroke="midnightblue" d="M62.06,-686.31C71.67,-653.2 98.94,-574.01 150,-530.5 152.89,-528.04 156.04,-525.81 159.34,-523.81"/>
<polygon fill="midnightblue" stroke="midnightblue" points="161.23,-526.76 168.42,-518.98 157.95,-520.58 161.23,-526.76"/>
</g>
<!-- Node21 -->
<g id="node21" class="node">
<title>Node21</title>
<g id="a_node21"><a xlink:href="../../df/d83/classautomaton_1_1core_1_1data_1_1msg.html#af0abc04fbde113aad242ce0d57946a6d" target="_top" xlink:title=" ">
<polygon fill="white" stroke="black" points="168.5,-441.5 168.5,-471.5 277.5,-471.5 277.5,-441.5 168.5,-441.5"/>
<text text-anchor="start" x="176.5" y="-459.5" font-family="Helvetica,sans-Serif" font-size="10.00">automaton::core::data</text>
<text text-anchor="middle" x="223" y="-448.5" font-family="Helvetica,sans-Serif" font-size="10.00">::msg::set_message</text>
</a>
</g>
</g>
<!-- Node1&#45;&gt;Node21 -->
<g id="edge20" class="edge">
<title>Node1&#45;&gt;Node21</title>
<path fill="none" stroke="midnightblue" d="M60.05,-686.29C66.15,-646.77 87.86,-539.91 150,-481.5 152.9,-478.77 156.11,-476.34 159.52,-474.18"/>
<polygon fill="midnightblue" stroke="midnightblue" points="161.28,-477.21 168.35,-469.32 157.9,-471.07 161.28,-477.21"/>
</g>
<!-- Node22 -->
<g id="node22" class="node">
<title>Node22</title>
<g id="a_node22"><a xlink:href="../../df/d83/classautomaton_1_1core_1_1data_1_1msg.html#a0d902da0bc27fd5420faab1c9f7edca0" target="_top" xlink:title=" ">
<polygon fill="white" stroke="black" points="161,-392.5 161,-422.5 285,-422.5 285,-392.5 161,-392.5"/>
<text text-anchor="start" x="169" y="-410.5" font-family="Helvetica,sans-Serif" font-size="10.00">automaton::core::data</text>
<text text-anchor="middle" x="223" y="-399.5" font-family="Helvetica,sans-Serif" font-size="10.00">::msg::set_repeated_blob</text>
</a>
</g>
</g>
<!-- Node1&#45;&gt;Node22 -->
<g id="edge21" class="edge">
<title>Node1&#45;&gt;Node22</title>
<path fill="none" stroke="midnightblue" d="M58.72,-686.33C61.67,-641.19 76.53,-506.31 150,-432.5 151.44,-431.06 152.96,-429.7 154.55,-428.42"/>
<polygon fill="midnightblue" stroke="midnightblue" points="156.74,-431.16 163.05,-422.65 152.81,-425.37 156.74,-431.16"/>
</g>
<!-- Node23 -->
<g id="node23" class="node">
<title>Node23</title>
<g id="a_node23"><a xlink:href="../../df/d83/classautomaton_1_1core_1_1data_1_1msg.html#ade108c04ebec2e00bcd539779a1255f9" target="_top" xlink:title=" ">
<polygon fill="white" stroke="black" points="159.5,-343.5 159.5,-373.5 286.5,-373.5 286.5,-343.5 159.5,-343.5"/>
<text text-anchor="start" x="167.5" y="-361.5" font-family="Helvetica,sans-Serif" font-size="10.00">automaton::core::data</text>
<text text-anchor="middle" x="223" y="-350.5" font-family="Helvetica,sans-Serif" font-size="10.00">::msg::set_repeated_int32</text>
</a>
</g>
</g>
<!-- Node1&#45;&gt;Node23 -->
<g id="edge22" class="edge">
<title>Node1&#45;&gt;Node23</title>
<path fill="none" stroke="midnightblue" d="M57.78,-686.19C57.9,-635.75 65.15,-472.93 150,-383.5 151.25,-382.18 152.58,-380.93 153.96,-379.75"/>
<polygon fill="midnightblue" stroke="midnightblue" points="156.39,-382.31 162.5,-373.66 152.33,-376.61 156.39,-382.31"/>
</g>
<!-- Node24 -->
<g id="node24" class="node">
<title>Node24</title>
<g id="a_node24"><a xlink:href="../../df/d83/classautomaton_1_1core_1_1data_1_1msg.html#a7c8a1f5013504574ac8b88d2d0ec1ee7" target="_top" xlink:title=" ">
<polygon fill="white" stroke="black" points="159.5,-294.5 159.5,-324.5 286.5,-324.5 286.5,-294.5 159.5,-294.5"/>
<text text-anchor="start" x="167.5" y="-312.5" font-family="Helvetica,sans-Serif" font-size="10.00">automaton::core::data</text>
<text text-anchor="middle" x="223" y="-301.5" font-family="Helvetica,sans-Serif" font-size="10.00">::msg::set_repeated_int64</text>
</a>
</g>
</g>
<!-- Node1&#45;&gt;Node24 -->
<g id="edge23" class="edge">
<title>Node1&#45;&gt;Node24</title>
<path fill="none" stroke="midnightblue" d="M59.89,-686.22C67.89,-623.71 100.89,-388.17 150,-334.5 151.23,-333.16 152.53,-331.89 153.9,-330.69"/>
<polygon fill="midnightblue" stroke="midnightblue" points="156.34,-333.24 162.36,-324.52 152.21,-327.58 156.34,-333.24"/>
</g>
<!-- Node25 -->
<g id="node25" class="node">
<title>Node25</title>
<g id="a_node25"><a xlink:href="../../df/d83/classautomaton_1_1core_1_1data_1_1msg.html#ac3e8f5bb0cc6fa9f9a7657e5b11f8af3" target="_top" xlink:title=" ">
<polygon fill="white" stroke="black" points="150,-245.5 150,-275.5 296,-275.5 296,-245.5 150,-245.5"/>
<text text-anchor="start" x="158" y="-263.5" font-family="Helvetica,sans-Serif" font-size="10.00">automaton::core::data</text>
<text text-anchor="middle" x="223" y="-252.5" font-family="Helvetica,sans-Serif" font-size="10.00">::msg::set_repeated_message</text>
</a>
</g>
</g>
<!-- Node1&#45;&gt;Node25 -->
<g id="edge24" class="edge">
<title>Node1&#45;&gt;Node25</title>
<path fill="none" stroke="midnightblue" d="M59.42,-686.07C65.93,-618.26 95.05,-347.25 150,-285.5 151.18,-284.17 152.43,-282.92 153.75,-281.73"/>
<polygon fill="midnightblue" stroke="midnightblue" points="155.99,-284.42 161.9,-275.63 151.8,-278.82 155.99,-284.42"/>
</g>
<!-- Node26 -->
<g id="node26" class="node">
<title>Node26</title>
<g id="a_node26"><a xlink:href="../../df/d83/classautomaton_1_1core_1_1data_1_1msg.html#ae129b792bec8f390180ed59ede34329c" target="_top" xlink:title=" ">
<polygon fill="white" stroke="black" points="157,-196.5 157,-226.5 289,-226.5 289,-196.5 157,-196.5"/>
<text text-anchor="start" x="165" y="-214.5" font-family="Helvetica,sans-Serif" font-size="10.00">automaton::core::data</text>
<text text-anchor="middle" x="223" y="-203.5" font-family="Helvetica,sans-Serif" font-size="10.00">::msg::set_repeated_uint32</text>
</a>
</g>
</g>
<!-- Node1&#45;&gt;Node26 -->
<g id="edge25" class="edge">
<title>Node1&#45;&gt;Node26</title>
<path fill="none" stroke="midnightblue" d="M59.01,-686.25C64.1,-613.98 89.1,-306.5 150,-236.5 151.16,-235.16 152.4,-233.89 153.71,-232.7"/>
<polygon fill="midnightblue" stroke="midnightblue" points="155.96,-235.38 161.8,-226.54 151.73,-229.81 155.96,-235.38"/>
</g>
<!-- Node27 -->
<g id="node27" class="node">
<title>Node27</title>
<g id="a_node27"><a xlink:href="../../df/d83/classautomaton_1_1core_1_1data_1_1msg.html#a76d24e9f96e8f42d8971766b627e929b" target="_top" xlink:title=" ">
<polygon fill="white" stroke="black" points="157,-147.5 157,-177.5 289,-177.5 289,-147.5 157,-147.5"/>
<text text-anchor="start" x="165" y="-165.5" font-family="Helvetica,sans-Serif" font-size="10.00">automaton::core::data</text>
<text text-anchor="middle" x="223" y="-154.5" font-family="Helvetica,sans-Serif" font-size="10.00">::msg::set_repeated_uint64</text>
</a>
</g>
</g>
<!-- Node1&#45;&gt;Node27 -->
<g id="edge26" class="edge">
<title>Node1&#45;&gt;Node27</title>
<path fill="none" stroke="midnightblue" d="M58.69,-686.47C62.48,-610.13 83.1,-265.83 150,-187.5 151.02,-186.31 152.1,-185.17 153.23,-184.08"/>
<polygon fill="midnightblue" stroke="midnightblue" points="155.68,-186.62 161.39,-177.69 151.36,-181.1 155.68,-186.62"/>
</g>
<!-- Node28 -->
<g id="node28" class="node">
<title>Node28</title>
<g id="a_node28"><a xlink:href="../../df/d83/classautomaton_1_1core_1_1data_1_1msg.html#a2d0d71b177479f58c9deff474d4b6807" target="_top" xlink:title="uint32_t 32">
<polygon fill="white" stroke="black" points="168.5,-98.5 168.5,-128.5 277.5,-128.5 277.5,-98.5 168.5,-98.5"/>
<text text-anchor="start" x="176.5" y="-116.5" font-family="Helvetica,sans-Serif" font-size="10.00">automaton::core::data</text>
<text text-anchor="middle" x="223" y="-105.5" font-family="Helvetica,sans-Serif" font-size="10.00">::msg::set_uint32</text>
</a>
</g>
</g>
<!-- Node1&#45;&gt;Node28 -->
<g id="edge27" class="edge">
<title>Node1&#45;&gt;Node28</title>
<path fill="none" stroke="midnightblue" d="M58.44,-686.4C61.06,-605.64 77.17,-225.1 150,-138.5 152.78,-135.2 156.02,-132.33 159.56,-129.84"/>
<polygon fill="midnightblue" stroke="midnightblue" points="161.45,-132.79 168.28,-124.69 157.89,-126.76 161.45,-132.79"/>
</g>
<!-- Node29 -->
<g id="node29" class="node">
<title>Node29</title>
<g id="a_node29"><a xlink:href="../../df/d83/classautomaton_1_1core_1_1data_1_1msg.html#a561fa8caa0915359f97a8cac3e39e066" target="_top" xlink:title="uint32_t 64">
<polygon fill="white" stroke="black" points="168.5,-49.5 168.5,-79.5 277.5,-79.5 277.5,-49.5 168.5,-49.5"/>
<text text-anchor="start" x="176.5" y="-67.5" font-family="Helvetica,sans-Serif" font-size="10.00">automaton::core::data</text>
<text text-anchor="middle" x="223" y="-56.5" font-family="Helvetica,sans-Serif" font-size="10.00">::msg::set_uint64</text>
</a>
</g>
</g>
<!-- Node1&#45;&gt;Node29 -->
<g id="edge28" class="edge">
<title>Node1&#45;&gt;Node29</title>
<path fill="none" stroke="midnightblue" d="M58.22,-686.23C59.76,-600.99 71.24,-184.36 150,-89.5 152.76,-86.18 155.98,-83.3 159.51,-80.8"/>
<polygon fill="midnightblue" stroke="midnightblue" points="161.4,-83.75 168.21,-75.63 157.82,-77.73 161.4,-83.75"/>
</g>
<!-- Node30 -->
<g id="node30" class="node">
<title>Node30</title>
<g id="a_node30"><a xlink:href="../../df/d83/classautomaton_1_1core_1_1data_1_1msg.html#a94187c48007b3c3b35393f93d9614bc5" target="_top" xlink:title=" ">
<polygon fill="white" stroke="black" points="168.5,-0.5 168.5,-30.5 277.5,-30.5 277.5,-0.5 168.5,-0.5"/>
<text text-anchor="start" x="176.5" y="-18.5" font-family="Helvetica,sans-Serif" font-size="10.00">automaton::core::data</text>
<text text-anchor="middle" x="223" y="-7.5" font-family="Helvetica,sans-Serif" font-size="10.00">::msg::to_json</text>
</a>
</g>
</g>
<!-- Node1&#45;&gt;Node30 -->
<g id="edge29" class="edge">
<title>Node1&#45;&gt;Node30</title>
<path fill="none" stroke="midnightblue" d="M58.03,-686.49C58.52,-597.92 65.17,-143.81 150,-40.5 152.74,-37.16 155.95,-34.27 159.47,-31.76"/>
<polygon fill="midnightblue" stroke="midnightblue" points="161.36,-34.71 168.15,-26.59 157.77,-28.7 161.36,-34.71"/>
</g>
</g>
</svg>
