<?xml version="1.0" encoding="UTF-8" standalone="no"?>
<!DOCTYPE svg PUBLIC "-//W3C//DTD SVG 1.1//EN"
 "http://www.w3.org/Graphics/SVG/1.1/DTD/svg11.dtd">
<!-- Generated by graphviz version 2.42.3 ()
 -->
<!-- Title: automaton::core::interop::ethereum::type Pages: 1 -->
<svg width="304pt" height="174pt"
 viewBox="0.00 0.00 304.00 174.00" xmlns="http://www.w3.org/2000/svg" xmlns:xlink="http://www.w3.org/1999/xlink">
<g id="graph0" class="graph" transform="scale(1 1) rotate(0) translate(4 170)">
<title>automaton::core::interop::ethereum::type</title>
<polygon fill="white" stroke="transparent" points="-4,4 -4,-170 300,-170 300,4 -4,4"/>
<!-- Node1 -->
<g id="node1" class="node">
<title>Node1</title>
<g id="a_node1"><a xlink:title=" ">
<polygon fill="#bfbfbf" stroke="black" points="91,-0.5 91,-30.5 210,-30.5 210,-0.5 91,-0.5"/>
<text text-anchor="start" x="99" y="-18.5" font-family="Helvetica,sans-Serif" font-size="10.00">automaton::core::interop</text>
<text text-anchor="middle" x="150.5" y="-7.5" font-family="Helvetica,sans-Serif" font-size="10.00">::ethereum::type</text>
</a>
</g>
</g>
<!-- Node2 -->
<g id="node2" class="node">
<title>Node2</title>
<g id="a_node2"><a xlink:title=" ">
<polygon fill="white" stroke="#bfbfbf" points="0,-78.5 0,-97.5 51,-97.5 51,-78.5 0,-78.5"/>
<text text-anchor="middle" x="25.5" y="-85.5" font-family="Helvetica,sans-Serif" font-size="10.00">uint32_t</text>
</a>
</g>
</g>
<!-- Node2&#45;&gt;Node1 -->
<g id="edge1" class="edge">
<title>Node2&#45;&gt;Node1</title>
<path fill="none" stroke="#9a32cd" stroke-dasharray="5,2" d="M38.73,-70.37C45.25,-63.02 53.62,-54.77 62.5,-49 74.11,-41.46 87.71,-35.34 100.7,-30.53"/>
<polygon fill="#9a32cd" stroke="#9a32cd" points="35.76,-68.46 32,-78.36 41.11,-72.97 35.76,-68.46"/>
<text text-anchor="middle" x="83.5" y="-52" font-family="Helvetica,sans-Serif" font-size="10.00"> array_len</text>
</g>
<!-- Node3 -->
<g id="node3" class="node">
<title>Node3</title>
<g id="a_node3"><a xlink:title=" ">
<polygon fill="white" stroke="#bfbfbf" points="69,-78.5 69,-97.5 148,-97.5 148,-78.5 69,-78.5"/>
<text text-anchor="middle" x="108.5" y="-85.5" font-family="Helvetica,sans-Serif" font-size="10.00">abi_array_type</text>
</a>
</g>
</g>
<!-- Node3&#45;&gt;Node1 -->
<g id="edge2" class="edge">
<title>Node3&#45;&gt;Node1</title>
<path fill="none" stroke="#9a32cd" stroke-dasharray="5,2" d="M107.74,-67.92C108.19,-61.6 109.49,-54.72 112.5,-49 116.22,-41.93 122.17,-35.75 128.27,-30.72"/>
<polygon fill="#9a32cd" stroke="#9a32cd" points="104.24,-68.3 107.65,-78.33 111.24,-68.36 104.24,-68.3"/>
<text text-anchor="middle" x="141.5" y="-52" font-family="Helvetica,sans-Serif" font-size="10.00"> s_array_type</text>
</g>
<!-- Node4 -->
<g id="node4" class="node">
<title>Node4</title>
<g id="a_node4"><a xlink:title="STL class.">
<polygon fill="white" stroke="#bfbfbf" points="166,-78.5 166,-97.5 225,-97.5 225,-78.5 166,-78.5"/>
<text text-anchor="middle" x="195.5" y="-85.5" font-family="Helvetica,sans-Serif" font-size="10.00">std::string</text>
</a>
</g>
</g>
<!-- Node4&#45;&gt;Node1 -->
<g id="edge3" class="edge">
<title>Node4&#45;&gt;Node1</title>
<path fill="none" stroke="#9a32cd" stroke-dasharray="5,2" d="M184.45,-69.68C176.77,-57.65 166.67,-41.83 159.48,-30.58"/>
<polygon fill="#9a32cd" stroke="#9a32cd" points="181.65,-71.81 189.98,-78.36 187.55,-68.04 181.65,-71.81"/>
<text text-anchor="middle" x="183.5" y="-52" font-family="Helvetica,sans-Serif" font-size="10.00"> str</text>
</g>
<!-- Node5 -->
<g id="node5" class="node">
<title>Node5</title>
<g id="a_node5"><a xlink:title="STL class.">
<polygon fill="white" stroke="#bfbfbf" points="149,-135.5 149,-165.5 242,-165.5 242,-135.5 149,-135.5"/>
<text text-anchor="start" x="157" y="-153.5" font-family="Helvetica,sans-Serif" font-size="10.00">std::basic_string&lt;</text>
<text text-anchor="middle" x="195.5" y="-142.5" font-family="Helvetica,sans-Serif" font-size="10.00"> char &gt;</text>
</a>
</g>
</g>
<!-- Node5&#45;&gt;Node4 -->
<g id="edge4" class="edge">
<title>Node5&#45;&gt;Node4</title>
<path fill="none" stroke="midnightblue" d="M195.5,-125.35C195.5,-115.51 195.5,-104.78 195.5,-97.54"/>
<polygon fill="midnightblue" stroke="midnightblue" points="192,-125.47 195.5,-135.47 199,-125.47 192,-125.47"/>
</g>
<!-- Node6 -->
<g id="node6" class="node">
<title>Node6</title>
<g id="a_node6"><a xlink:title=" ">
<polygon fill="white" stroke="#bfbfbf" points="243,-78.5 243,-97.5 296,-97.5 296,-78.5 243,-78.5"/>
<text text-anchor="middle" x="269.5" y="-85.5" font-family="Helvetica,sans-Serif" font-size="10.00">abi_type</text>
</a>
</g>
</g>
<!-- Node6&#45;&gt;Node1 -->
<g id="edge5" class="edge">
<title>Node6&#45;&gt;Node1</title>
<path fill="none" stroke="#9a32cd" stroke-dasharray="5,2" d="M246.1,-73.14C225.33,-60.83 195.13,-42.94 174.26,-30.58"/>
<polygon fill="#9a32cd" stroke="#9a32cd" points="244.52,-76.27 254.91,-78.36 248.09,-70.25 244.52,-76.27"/>
<text text-anchor="middle" x="236" y="-52" font-family="Helvetica,sans-Serif" font-size="10.00"> s_type</text>
</g>
</g>
</svg>
