<?xml version="1.0" encoding="UTF-8" standalone="no"?>
<!DOCTYPE svg PUBLIC "-//W3C//DTD SVG 1.1//EN"
 "http://www.w3.org/Graphics/SVG/1.1/DTD/svg11.dtd">
<!-- Generated by graphviz version 2.44.0 ()
 -->
<!-- Title: node.cc Pages: 1 -->
<svg width="1629pt" height="419pt"
 viewBox="0.00 0.00 1629.00 419.00" xmlns="http://www.w3.org/2000/svg" xmlns:xlink="http://www.w3.org/1999/xlink">
<g id="graph0" class="graph" transform="scale(1 1) rotate(0) translate(4 415)">
<title>node.cc</title>
<polygon fill="white" stroke="transparent" points="-4,4 -4,-415 1625,-415 1625,4 -4,4"/>
<!-- Node1 -->
<g id="node1" class="node">
<title>Node1</title>
<g id="a_node1"><a xlink:title=" ">
<polygon fill="#bfbfbf" stroke="black" points="1172,-391.5 1172,-410.5 1222,-410.5 1222,-391.5 1172,-391.5"/>
<text text-anchor="middle" x="1197" y="-398.5" font-family="Helvetica,sans-Serif" font-size="10.00">node.cc</text>
</a>
</g>
</g>
<!-- Node2 -->
<g id="node2" class="node">
<title>Node2</title>
<g id="a_node2"><a xlink:href="../../d1/d77/node_8h.html" target="_top" xlink:title=" ">
<polygon fill="white" stroke="black" points="471,-324.5 471,-354.5 579,-354.5 579,-324.5 471,-324.5"/>
<text text-anchor="start" x="479" y="-342.5" font-family="Helvetica,sans-Serif" font-size="10.00">automaton/core/node</text>
<text text-anchor="middle" x="525" y="-331.5" font-family="Helvetica,sans-Serif" font-size="10.00">/node.h</text>
</a>
</g>
</g>
<!-- Node1&#45;&gt;Node2 -->
<g id="edge1" class="edge">
<title>Node1&#45;&gt;Node2</title>
<path fill="none" stroke="midnightblue" d="M1171.88,-397.78C1076.25,-389.31 733.02,-358.92 589.16,-346.18"/>
<polygon fill="midnightblue" stroke="midnightblue" points="589.42,-342.69 579.15,-345.29 588.81,-349.66 589.42,-342.69"/>
</g>
<!-- Node6 -->
<g id="node6" class="node">
<title>Node6</title>
<g id="a_node6"><a xlink:title=" ">
<polygon fill="white" stroke="#bfbfbf" points="251.5,-0.5 251.5,-19.5 286.5,-19.5 286.5,-0.5 251.5,-0.5"/>
<text text-anchor="middle" x="269" y="-7.5" font-family="Helvetica,sans-Serif" font-size="10.00">map</text>
</a>
</g>
</g>
<!-- Node1&#45;&gt;Node6 -->
<g id="edge53" class="edge">
<title>Node1&#45;&gt;Node6</title>
<path fill="none" stroke="midnightblue" d="M1171.99,-399.98C1003.26,-399.52 38,-391.72 38,-273.5 38,-273.5 38,-273.5 38,-204.5 38,-99.41 180.23,-40.1 241.48,-19.43"/>
<polygon fill="midnightblue" stroke="midnightblue" points="242.84,-22.67 251.26,-16.23 240.66,-16.02 242.84,-22.67"/>
</g>
<!-- Node18 -->
<g id="node18" class="node">
<title>Node18</title>
<g id="a_node18"><a xlink:title=" ">
<polygon fill="white" stroke="#bfbfbf" points="1249,-0.5 1249,-19.5 1303,-19.5 1303,-0.5 1249,-0.5"/>
<text text-anchor="middle" x="1276" y="-7.5" font-family="Helvetica,sans-Serif" font-size="10.00">iostream</text>
</a>
</g>
</g>
<!-- Node1&#45;&gt;Node18 -->
<g id="edge52" class="edge">
<title>Node1&#45;&gt;Node18</title>
<path fill="none" stroke="midnightblue" d="M1192.67,-391.34C1185.65,-375.92 1174.08,-343.5 1190,-324 1240.48,-262.14 1308.78,-343.68 1366,-288 1392.66,-262.06 1385,-243.69 1385,-206.5 1385,-206.5 1385,-206.5 1385,-137.5 1385,-86.31 1333.15,-45.56 1300.97,-25.19"/>
<polygon fill="midnightblue" stroke="midnightblue" points="1302.44,-21.99 1292.08,-19.77 1298.79,-27.97 1302.44,-21.99"/>
</g>
<!-- Node23 -->
<g id="node23" class="node">
<title>Node23</title>
<g id="a_node23"><a xlink:title=" ">
<polygon fill="white" stroke="#bfbfbf" points="532.5,-129 532.5,-148 571.5,-148 571.5,-129 532.5,-129"/>
<text text-anchor="middle" x="552" y="-136" font-family="Helvetica,sans-Serif" font-size="10.00">utility</text>
</a>
</g>
</g>
<!-- Node1&#45;&gt;Node23 -->
<g id="edge56" class="edge">
<title>Node1&#45;&gt;Node23</title>
<path fill="none" stroke="midnightblue" d="M1171.95,-396.48C1131.67,-390.43 1050.31,-376.59 984,-355 845.53,-309.92 813.79,-288.96 685,-221 644.47,-199.61 599.41,-170.89 573.52,-153.87"/>
<polygon fill="midnightblue" stroke="midnightblue" points="575.16,-150.77 564.89,-148.17 571.3,-156.6 575.16,-150.77"/>
</g>
<!-- Node24 -->
<g id="node24" class="node">
<title>Node24</title>
<g id="a_node24"><a xlink:title=" ">
<polygon fill="white" stroke="#bfbfbf" points="932,-263 932,-282 978,-282 978,-263 932,-263"/>
<text text-anchor="middle" x="955" y="-270" font-family="Helvetica,sans-Serif" font-size="10.00">chrono</text>
</a>
</g>
</g>
<!-- Node1&#45;&gt;Node24 -->
<g id="edge48" class="edge">
<title>Node1&#45;&gt;Node24</title>
<path fill="none" stroke="midnightblue" d="M1171.84,-398.62C1135.6,-395.57 1067.82,-385.87 1020,-355 995,-338.86 975.29,-309.82 964.4,-291.12"/>
<polygon fill="midnightblue" stroke="midnightblue" points="967.33,-289.2 959.4,-282.17 961.22,-292.61 967.33,-289.2"/>
</g>
<!-- Node25 -->
<g id="node25" class="node">
<title>Node25</title>
<g id="a_node25"><a xlink:title=" ">
<polygon fill="white" stroke="#bfbfbf" points="1199,-330 1199,-349 1249,-349 1249,-330 1199,-330"/>
<text text-anchor="middle" x="1224" y="-337" font-family="Helvetica,sans-Serif" font-size="10.00">fstream</text>
</a>
</g>
</g>
<!-- Node1&#45;&gt;Node25 -->
<g id="edge49" class="edge">
<title>Node1&#45;&gt;Node25</title>
<path fill="none" stroke="midnightblue" d="M1200.87,-391.48C1204.8,-382.82 1211,-369.15 1215.99,-358.15"/>
<polygon fill="midnightblue" stroke="midnightblue" points="1219.19,-359.56 1220.14,-349.01 1212.82,-356.67 1219.19,-359.56"/>
</g>
<!-- Node26 -->
<g id="node26" class="node">
<title>Node26</title>
<g id="a_node26"><a xlink:title=" ">
<polygon fill="white" stroke="#bfbfbf" points="1267,-330 1267,-349 1317,-349 1317,-330 1267,-330"/>
<text text-anchor="middle" x="1292" y="-337" font-family="Helvetica,sans-Serif" font-size="10.00">iomanip</text>
</a>
</g>
</g>
<!-- Node1&#45;&gt;Node26 -->
<g id="edge50" class="edge">
<title>Node1&#45;&gt;Node26</title>
<path fill="none" stroke="midnightblue" d="M1210.61,-391.48C1226.06,-381.8 1251.49,-365.87 1269.82,-354.39"/>
<polygon fill="midnightblue" stroke="midnightblue" points="1271.8,-357.28 1278.41,-349.01 1268.08,-351.35 1271.8,-357.28"/>
</g>
<!-- Node27 -->
<g id="node27" class="node">
<title>Node27</title>
<g id="a_node27"><a xlink:title=" ">
<polygon fill="white" stroke="#bfbfbf" points="1335.5,-330 1335.5,-349 1364.5,-349 1364.5,-330 1335.5,-330"/>
<text text-anchor="middle" x="1350" y="-337" font-family="Helvetica,sans-Serif" font-size="10.00">ios</text>
</a>
</g>
</g>
<!-- Node1&#45;&gt;Node27 -->
<g id="edge51" class="edge">
<title>Node1&#45;&gt;Node27</title>
<path fill="none" stroke="midnightblue" d="M1222.34,-392.87C1248.81,-385.03 1291.23,-371.35 1326,-355 1326.55,-354.74 1327.1,-354.47 1327.66,-354.2"/>
<polygon fill="midnightblue" stroke="midnightblue" points="1329.5,-357.18 1336.56,-349.29 1326.12,-351.05 1329.5,-357.18"/>
</g>
<!-- Node28 -->
<g id="node28" class="node">
<title>Node28</title>
<g id="a_node28"><a xlink:title=" ">
<polygon fill="white" stroke="#bfbfbf" points="1383,-330 1383,-349 1423,-349 1423,-330 1383,-330"/>
<text text-anchor="middle" x="1403" y="-337" font-family="Helvetica,sans-Serif" font-size="10.00">regex</text>
</a>
</g>
</g>
<!-- Node1&#45;&gt;Node28 -->
<g id="edge54" class="edge">
<title>Node1&#45;&gt;Node28</title>
<path fill="none" stroke="midnightblue" d="M1222.14,-395.38C1256.92,-388.59 1321.4,-374.58 1374,-355 1375.38,-354.48 1376.79,-353.92 1378.2,-353.33"/>
<polygon fill="midnightblue" stroke="midnightblue" points="1379.71,-356.48 1387.32,-349.11 1376.77,-350.13 1379.71,-356.48"/>
</g>
<!-- Node29 -->
<g id="node29" class="node">
<title>Node29</title>
<g id="a_node29"><a xlink:title=" ">
<polygon fill="white" stroke="#bfbfbf" points="1441,-330 1441,-349 1493,-349 1493,-330 1441,-330"/>
<text text-anchor="middle" x="1467" y="-337" font-family="Helvetica,sans-Serif" font-size="10.00">sstream</text>
</a>
</g>
</g>
<!-- Node1&#45;&gt;Node29 -->
<g id="edge55" class="edge">
<title>Node1&#45;&gt;Node29</title>
<path fill="none" stroke="midnightblue" d="M1222.1,-396.9C1265.52,-391.17 1357.19,-377.4 1432,-355 1434.29,-354.32 1436.63,-353.53 1438.96,-352.7"/>
<polygon fill="midnightblue" stroke="midnightblue" points="1440.31,-355.93 1448.36,-349.04 1437.78,-349.4 1440.31,-355.93"/>
</g>
<!-- Node30 -->
<g id="node30" class="node">
<title>Node30</title>
<g id="a_node30"><a xlink:title=" ">
<polygon fill="white" stroke="#bfbfbf" points="1511,-324.5 1511,-354.5 1621,-354.5 1621,-324.5 1511,-324.5"/>
<text text-anchor="start" x="1519" y="-342.5" font-family="Helvetica,sans-Serif" font-size="10.00">boost/algorithm/string</text>
<text text-anchor="middle" x="1566" y="-331.5" font-family="Helvetica,sans-Serif" font-size="10.00">/replace.hpp</text>
</a>
</g>
</g>
<!-- Node1&#45;&gt;Node30 -->
<g id="edge57" class="edge">
<title>Node1&#45;&gt;Node30</title>
<path fill="none" stroke="midnightblue" d="M1222.01,-396.97C1272.71,-390.68 1391.39,-375.25 1501,-355.1"/>
<polygon fill="midnightblue" stroke="midnightblue" points="1501.7,-358.53 1510.9,-353.26 1500.43,-351.65 1501.7,-358.53"/>
</g>
<!-- Node31 -->
<g id="node31" class="node">
<title>Node31</title>
<g id="a_node31"><a xlink:href="../../dc/dac/io_8h.html" target="_top" xlink:title=" ">
<polygon fill="white" stroke="black" points="1029.5,-330 1029.5,-349 1142.5,-349 1142.5,-330 1029.5,-330"/>
<text text-anchor="middle" x="1086" y="-337" font-family="Helvetica,sans-Serif" font-size="10.00">automaton/core/io/io.h</text>
</a>
</g>
</g>
<!-- Node1&#45;&gt;Node31 -->
<g id="edge58" class="edge">
<title>Node1&#45;&gt;Node31</title>
<path fill="none" stroke="midnightblue" d="M1181.1,-391.48C1162.72,-381.62 1132.24,-365.29 1110.76,-353.77"/>
<polygon fill="midnightblue" stroke="midnightblue" points="1112.34,-350.65 1101.87,-349.01 1109.03,-356.82 1112.34,-350.65"/>
</g>
<!-- Node3 -->
<g id="node3" class="node">
<title>Node3</title>
<g id="a_node3"><a xlink:title=" ">
<polygon fill="white" stroke="#bfbfbf" points="80.5,-263 80.5,-282 123.5,-282 123.5,-263 80.5,-263"/>
<text text-anchor="middle" x="102" y="-270" font-family="Helvetica,sans-Serif" font-size="10.00">deque</text>
</a>
</g>
</g>
<!-- Node2&#45;&gt;Node3 -->
<g id="edge2" class="edge">
<title>Node2&#45;&gt;Node3</title>
<path fill="none" stroke="midnightblue" d="M470.97,-335.77C395.4,-330.98 254.34,-318.49 138,-288 135.49,-287.34 132.92,-286.55 130.37,-285.69"/>
<polygon fill="midnightblue" stroke="midnightblue" points="131.34,-282.32 120.75,-282.1 128.89,-288.88 131.34,-282.32"/>
</g>
<!-- Node4 -->
<g id="node4" class="node">
<title>Node4</title>
<g id="a_node4"><a xlink:title=" ">
<polygon fill="white" stroke="#bfbfbf" points="180.5,-263 180.5,-282 239.5,-282 239.5,-263 180.5,-263"/>
<text text-anchor="middle" x="210" y="-270" font-family="Helvetica,sans-Serif" font-size="10.00">functional</text>
</a>
</g>
</g>
<!-- Node2&#45;&gt;Node4 -->
<g id="edge3" class="edge">
<title>Node2&#45;&gt;Node4</title>
<path fill="none" stroke="midnightblue" d="M470.8,-330.59C415.76,-322.05 328.28,-307.07 254,-288 250.63,-287.13 247.13,-286.15 243.66,-285.1"/>
<polygon fill="midnightblue" stroke="midnightblue" points="244.62,-281.74 234.03,-282.07 242.52,-288.41 244.62,-281.74"/>
</g>
<!-- Node5 -->
<g id="node5" class="node">
<title>Node5</title>
<g id="a_node5"><a xlink:title=" ">
<polygon fill="white" stroke="#bfbfbf" points="558.5,-263 558.5,-282 599.5,-282 599.5,-263 558.5,-263"/>
<text text-anchor="middle" x="579" y="-270" font-family="Helvetica,sans-Serif" font-size="10.00">future</text>
</a>
</g>
</g>
<!-- Node2&#45;&gt;Node5 -->
<g id="edge4" class="edge">
<title>Node2&#45;&gt;Node5</title>
<path fill="none" stroke="midnightblue" d="M536.72,-324.4C545.14,-314.26 556.51,-300.57 565.34,-289.94"/>
<polygon fill="midnightblue" stroke="midnightblue" points="568.08,-292.12 571.78,-282.19 562.69,-287.65 568.08,-292.12"/>
</g>
<!-- Node2&#45;&gt;Node6 -->
<g id="edge5" class="edge">
<title>Node2&#45;&gt;Node6</title>
<path fill="none" stroke="midnightblue" d="M470.72,-339.03C381.31,-338.62 209.14,-331.96 171,-288 101,-207.3 211.11,-73.26 253.5,-27.16"/>
<polygon fill="midnightblue" stroke="midnightblue" points="256.07,-29.53 260.35,-19.83 250.96,-24.75 256.07,-29.53"/>
</g>
<!-- Node7 -->
<g id="node7" class="node">
<title>Node7</title>
<g id="a_node7"><a xlink:title=" ">
<polygon fill="white" stroke="#bfbfbf" points="508.5,-62 508.5,-81 559.5,-81 559.5,-62 508.5,-62"/>
<text text-anchor="middle" x="534" y="-69" font-family="Helvetica,sans-Serif" font-size="10.00">memory</text>
</a>
</g>
</g>
<!-- Node2&#45;&gt;Node7 -->
<g id="edge6" class="edge">
<title>Node2&#45;&gt;Node7</title>
<path fill="none" stroke="midnightblue" d="M577.69,-324.45C595.91,-316.79 614.4,-305.23 625,-288 667.74,-218.54 587.43,-125.45 550.82,-88.54"/>
<polygon fill="midnightblue" stroke="midnightblue" points="552.92,-85.69 543.34,-81.17 548,-90.68 552.92,-85.69"/>
</g>
<!-- Node8 -->
<g id="node8" class="node">
<title>Node8</title>
<g id="a_node8"><a xlink:title=" ">
<polygon fill="white" stroke="#bfbfbf" points="448.5,-263 448.5,-282 491.5,-282 491.5,-263 448.5,-263"/>
<text text-anchor="middle" x="470" y="-270" font-family="Helvetica,sans-Serif" font-size="10.00">mutex</text>
</a>
</g>
</g>
<!-- Node2&#45;&gt;Node8 -->
<g id="edge7" class="edge">
<title>Node2&#45;&gt;Node8</title>
<path fill="none" stroke="midnightblue" d="M513.07,-324.4C504.49,-314.26 492.9,-300.57 483.91,-289.94"/>
<polygon fill="midnightblue" stroke="midnightblue" points="486.49,-287.57 477.36,-282.19 481.14,-292.09 486.49,-287.57"/>
</g>
<!-- Node9 -->
<g id="node9" class="node">
<title>Node9</title>
<g id="a_node9"><a xlink:title=" ">
<polygon fill="white" stroke="#bfbfbf" points="510,-263 510,-282 540,-282 540,-263 510,-263"/>
<text text-anchor="middle" x="525" y="-270" font-family="Helvetica,sans-Serif" font-size="10.00">set</text>
</a>
</g>
</g>
<!-- Node2&#45;&gt;Node9 -->
<g id="edge8" class="edge">
<title>Node2&#45;&gt;Node9</title>
<path fill="none" stroke="midnightblue" d="M525,-324.4C525,-315.06 525,-302.71 525,-292.52"/>
<polygon fill="midnightblue" stroke="midnightblue" points="528.5,-292.19 525,-282.19 521.5,-292.19 528.5,-292.19"/>
</g>
<!-- Node10 -->
<g id="node10" class="node">
<title>Node10</title>
<g id="a_node10"><a xlink:title=" ">
<polygon fill="white" stroke="#bfbfbf" points="731.5,-0.5 731.5,-19.5 772.5,-19.5 772.5,-0.5 731.5,-0.5"/>
<text text-anchor="middle" x="752" y="-7.5" font-family="Helvetica,sans-Serif" font-size="10.00">string</text>
</a>
</g>
</g>
<!-- Node2&#45;&gt;Node10 -->
<g id="edge9" class="edge">
<title>Node2&#45;&gt;Node10</title>
<path fill="none" stroke="midnightblue" d="M579.13,-337.12C633.23,-333.68 717.31,-322.6 781,-288 853.91,-248.39 879.83,-230.9 911,-154 928.61,-110.56 907.82,-86.24 872,-56 846.3,-34.3 809.11,-22.54 782.96,-16.54"/>
<polygon fill="midnightblue" stroke="midnightblue" points="783.35,-13.05 772.84,-14.38 781.89,-19.89 783.35,-13.05"/>
</g>
<!-- Node11 -->
<g id="node11" class="node">
<title>Node11</title>
<g id="a_node11"><a xlink:title=" ">
<polygon fill="white" stroke="#bfbfbf" points="516.5,-196 516.5,-215 599.5,-215 599.5,-196 516.5,-196"/>
<text text-anchor="middle" x="558" y="-203" font-family="Helvetica,sans-Serif" font-size="10.00">unordered_map</text>
</a>
</g>
</g>
<!-- Node2&#45;&gt;Node11 -->
<g id="edge10" class="edge">
<title>Node2&#45;&gt;Node11</title>
<path fill="none" stroke="midnightblue" d="M565.02,-324.38C581.39,-316.4 598.66,-304.62 608,-288 614.75,-275.99 613.24,-269.74 608,-257 602.09,-242.63 589.9,-230.18 579.04,-221.24"/>
<polygon fill="midnightblue" stroke="midnightblue" points="581.16,-218.46 571.11,-215.11 576.88,-224 581.16,-218.46"/>
</g>
<!-- Node12 -->
<g id="node12" class="node">
<title>Node12</title>
<g id="a_node12"><a xlink:title=" ">
<polygon fill="white" stroke="#bfbfbf" points="73,-0.5 73,-19.5 117,-19.5 117,-0.5 73,-0.5"/>
<text text-anchor="middle" x="95" y="-7.5" font-family="Helvetica,sans-Serif" font-size="10.00">vector</text>
</a>
</g>
</g>
<!-- Node2&#45;&gt;Node12 -->
<g id="edge11" class="edge">
<title>Node2&#45;&gt;Node12</title>
<path fill="none" stroke="midnightblue" d="M470.81,-337.35C365.89,-334.34 139.32,-323.78 71,-288 28.44,-265.71 0,-254.54 0,-206.5 0,-206.5 0,-206.5 0,-137.5 0,-88.93 45.34,-47.09 73.38,-25.87"/>
<polygon fill="midnightblue" stroke="midnightblue" points="75.78,-28.44 81.79,-19.72 71.65,-22.79 75.78,-28.44"/>
</g>
<!-- Node13 -->
<g id="node13" class="node">
<title>Node13</title>
<g id="a_node13"><a xlink:href="../../d1/d71/msg_8h.html" target="_top" xlink:title=" ">
<polygon fill="white" stroke="black" points="294,-123.5 294,-153.5 400,-153.5 400,-123.5 294,-123.5"/>
<text text-anchor="start" x="302" y="-141.5" font-family="Helvetica,sans-Serif" font-size="10.00">automaton/core/data</text>
<text text-anchor="middle" x="347" y="-130.5" font-family="Helvetica,sans-Serif" font-size="10.00">/msg.h</text>
</a>
</g>
</g>
<!-- Node2&#45;&gt;Node13 -->
<g id="edge12" class="edge">
<title>Node2&#45;&gt;Node13</title>
<path fill="none" stroke="midnightblue" d="M470.95,-334.75C408,-329.13 309.7,-316.02 287,-288 276.62,-275.18 282.21,-214 294,-190 299.65,-178.5 309.07,-168.23 318.41,-160"/>
<polygon fill="midnightblue" stroke="midnightblue" points="320.68,-162.66 326.15,-153.59 316.22,-157.27 320.68,-162.66"/>
</g>
<!-- Node15 -->
<g id="node15" class="node">
<title>Node15</title>
<g id="a_node15"><a xlink:href="../../d1/d31/acceptor_8h.html" target="_top" xlink:title=" ">
<polygon fill="white" stroke="black" points="694,-190.5 694,-220.5 816,-220.5 816,-190.5 694,-190.5"/>
<text text-anchor="start" x="702" y="-208.5" font-family="Helvetica,sans-Serif" font-size="10.00">automaton/core/network</text>
<text text-anchor="middle" x="755" y="-197.5" font-family="Helvetica,sans-Serif" font-size="10.00">/acceptor.h</text>
</a>
</g>
</g>
<!-- Node2&#45;&gt;Node15 -->
<g id="edge19" class="edge">
<title>Node2&#45;&gt;Node15</title>
<path fill="none" stroke="midnightblue" d="M579.27,-328.02C610.47,-320.3 649.4,-307.65 680,-288 704.19,-272.46 725.71,-247.27 739.43,-229"/>
<polygon fill="midnightblue" stroke="midnightblue" points="742.44,-230.8 745.51,-220.66 736.79,-226.68 742.44,-230.8"/>
</g>
<!-- Node19 -->
<g id="node19" class="node">
<title>Node19</title>
<g id="a_node19"><a xlink:href="../../d4/d67/connection_8h.html" target="_top" xlink:title=" ">
<polygon fill="white" stroke="black" points="780,-123.5 780,-153.5 902,-153.5 902,-123.5 780,-123.5"/>
<text text-anchor="start" x="788" y="-141.5" font-family="Helvetica,sans-Serif" font-size="10.00">automaton/core/network</text>
<text text-anchor="middle" x="841" y="-130.5" font-family="Helvetica,sans-Serif" font-size="10.00">/connection.h</text>
</a>
</g>
</g>
<!-- Node2&#45;&gt;Node19 -->
<g id="edge33" class="edge">
<title>Node2&#45;&gt;Node19</title>
<path fill="none" stroke="midnightblue" d="M579.14,-334.67C649.08,-326.51 768.54,-300.97 825,-221 836.73,-204.38 840.39,-181.32 841.32,-163.97"/>
<polygon fill="midnightblue" stroke="midnightblue" points="844.83,-163.61 841.58,-153.52 837.83,-163.43 844.83,-163.61"/>
</g>
<!-- Node21 -->
<g id="node21" class="node">
<title>Node21</title>
<g id="a_node21"><a xlink:href="../../d5/dab/smart__protocol_8h.html" target="_top" xlink:title=" ">
<polygon fill="white" stroke="black" points="296,-257.5 296,-287.5 430,-287.5 430,-257.5 296,-257.5"/>
<text text-anchor="start" x="304" y="-275.5" font-family="Helvetica,sans-Serif" font-size="10.00">automaton/core/smartproto</text>
<text text-anchor="middle" x="363" y="-264.5" font-family="Helvetica,sans-Serif" font-size="10.00">/smart_protocol.h</text>
</a>
</g>
</g>
<!-- Node2&#45;&gt;Node21 -->
<g id="edge34" class="edge">
<title>Node2&#45;&gt;Node21</title>
<path fill="none" stroke="midnightblue" d="M489.85,-324.4C465.75,-314.73 433.59,-301.82 407.68,-291.43"/>
<polygon fill="midnightblue" stroke="midnightblue" points="408.67,-288.05 398.08,-287.58 406.06,-294.55 408.67,-288.05"/>
</g>
<!-- Node13&#45;&gt;Node7 -->
<g id="edge13" class="edge">
<title>Node13&#45;&gt;Node7</title>
<path fill="none" stroke="midnightblue" d="M387.58,-123.4C421.11,-111.74 468.2,-95.37 499.83,-84.38"/>
<polygon fill="midnightblue" stroke="midnightblue" points="501.23,-87.6 509.53,-81.01 498.93,-80.98 501.23,-87.6"/>
</g>
<!-- Node13&#45;&gt;Node10 -->
<g id="edge14" class="edge">
<title>Node13&#45;&gt;Node10</title>
<path fill="none" stroke="midnightblue" d="M354.29,-123.19C364.72,-104.31 385.83,-71.67 414,-56 466.41,-26.85 647.56,-15.66 720.86,-12.25"/>
<polygon fill="midnightblue" stroke="midnightblue" points="721.42,-15.73 731.26,-11.79 721.11,-8.74 721.42,-15.73"/>
</g>
<!-- Node14 -->
<g id="node14" class="node">
<title>Node14</title>
<g id="a_node14"><a xlink:href="../../d7/de3/schema_8h.html" target="_top" xlink:title=" ">
<polygon fill="white" stroke="black" points="256,-56.5 256,-86.5 362,-86.5 362,-56.5 256,-56.5"/>
<text text-anchor="start" x="264" y="-74.5" font-family="Helvetica,sans-Serif" font-size="10.00">automaton/core/data</text>
<text text-anchor="middle" x="309" y="-63.5" font-family="Helvetica,sans-Serif" font-size="10.00">/schema.h</text>
</a>
</g>
</g>
<!-- Node13&#45;&gt;Node14 -->
<g id="edge15" class="edge">
<title>Node13&#45;&gt;Node14</title>
<path fill="none" stroke="midnightblue" d="M338.75,-123.4C333.97,-115.22 327.84,-104.73 322.38,-95.39"/>
<polygon fill="midnightblue" stroke="midnightblue" points="325.3,-93.44 317.23,-86.58 319.25,-96.98 325.3,-93.44"/>
</g>
<!-- Node14&#45;&gt;Node6 -->
<g id="edge16" class="edge">
<title>Node14&#45;&gt;Node6</title>
<path fill="none" stroke="midnightblue" d="M299.52,-56.4C293.83,-47.93 286.55,-37.1 280.52,-28.14"/>
<polygon fill="midnightblue" stroke="midnightblue" points="283.3,-26 274.82,-19.66 277.49,-29.91 283.3,-26"/>
</g>
<!-- Node14&#45;&gt;Node10 -->
<g id="edge17" class="edge">
<title>Node14&#45;&gt;Node10</title>
<path fill="none" stroke="midnightblue" d="M362.31,-58.49C366.93,-57.59 371.54,-56.75 376,-56 503.18,-34.68 656.21,-19.61 720.81,-13.73"/>
<polygon fill="midnightblue" stroke="midnightblue" points="721.47,-17.19 731.11,-12.8 720.84,-10.22 721.47,-17.19"/>
</g>
<!-- Node14&#45;&gt;Node12 -->
<g id="edge18" class="edge">
<title>Node14&#45;&gt;Node12</title>
<path fill="none" stroke="midnightblue" d="M258.56,-56.47C217.91,-45.17 161.97,-29.62 127.18,-19.95"/>
<polygon fill="midnightblue" stroke="midnightblue" points="127.67,-16.45 117.1,-17.14 125.79,-23.19 127.67,-16.45"/>
</g>
<!-- Node15&#45;&gt;Node6 -->
<g id="edge20" class="edge">
<title>Node15&#45;&gt;Node6</title>
<path fill="none" stroke="midnightblue" d="M739.55,-190.36C702.15,-156.45 606.98,-72.12 568,-56 474.05,-17.16 351.14,-11.33 296.84,-10.8"/>
<polygon fill="midnightblue" stroke="midnightblue" points="296.65,-7.3 286.63,-10.75 296.62,-14.3 296.65,-7.3"/>
</g>
<!-- Node15&#45;&gt;Node7 -->
<g id="edge21" class="edge">
<title>Node15&#45;&gt;Node7</title>
<path fill="none" stroke="midnightblue" d="M731.35,-190.37C688.7,-164.9 599.41,-111.57 557.14,-86.32"/>
<polygon fill="midnightblue" stroke="midnightblue" points="558.77,-83.22 548.39,-81.1 555.18,-89.23 558.77,-83.22"/>
</g>
<!-- Node15&#45;&gt;Node10 -->
<g id="edge22" class="edge">
<title>Node15&#45;&gt;Node10</title>
<path fill="none" stroke="midnightblue" d="M754.78,-190.27C754.25,-155.94 752.89,-68.57 752.29,-29.9"/>
<polygon fill="midnightblue" stroke="midnightblue" points="755.79,-29.52 752.13,-19.58 748.79,-29.63 755.79,-29.52"/>
</g>
<!-- Node16 -->
<g id="node16" class="node">
<title>Node16</title>
<g id="a_node16"><a xlink:href="../../d1/d13/status_8h.html" target="_top" xlink:title=" ">
<polygon fill="white" stroke="black" points="1034.5,-56.5 1034.5,-86.5 1159.5,-86.5 1159.5,-56.5 1034.5,-56.5"/>
<text text-anchor="start" x="1042.5" y="-74.5" font-family="Helvetica,sans-Serif" font-size="10.00">automaton/core/common</text>
<text text-anchor="middle" x="1097" y="-63.5" font-family="Helvetica,sans-Serif" font-size="10.00">/status.h</text>
</a>
</g>
</g>
<!-- Node15&#45;&gt;Node16 -->
<g id="edge23" class="edge">
<title>Node15&#45;&gt;Node16</title>
<path fill="none" stroke="midnightblue" d="M802.53,-190.47C833.66,-180.94 875.07,-167.65 911,-154 962.58,-134.41 1020.62,-108.31 1057.93,-90.98"/>
<polygon fill="midnightblue" stroke="midnightblue" points="1059.84,-93.96 1067.42,-86.56 1056.88,-87.61 1059.84,-93.96"/>
</g>
<!-- Node15&#45;&gt;Node19 -->
<g id="edge27" class="edge">
<title>Node15&#45;&gt;Node19</title>
<path fill="none" stroke="midnightblue" d="M773.66,-190.4C785.49,-181.45 800.99,-169.74 814.14,-159.8"/>
<polygon fill="midnightblue" stroke="midnightblue" points="816.51,-162.4 822.38,-153.58 812.29,-156.81 816.51,-162.4"/>
</g>
<!-- Node16&#45;&gt;Node10 -->
<g id="edge25" class="edge">
<title>Node16&#45;&gt;Node10</title>
<path fill="none" stroke="midnightblue" d="M1034.4,-58.61C1029.53,-57.71 1024.69,-56.83 1020,-56 934.1,-40.7 832.45,-24.02 782.64,-15.94"/>
<polygon fill="midnightblue" stroke="midnightblue" points="782.96,-12.45 772.53,-14.31 781.85,-19.36 782.96,-12.45"/>
</g>
<!-- Node17 -->
<g id="node17" class="node">
<title>Node17</title>
<g id="a_node17"><a xlink:title=" ">
<polygon fill="white" stroke="#bfbfbf" points="1071,-0.5 1071,-19.5 1123,-19.5 1123,-0.5 1071,-0.5"/>
<text text-anchor="middle" x="1097" y="-7.5" font-family="Helvetica,sans-Serif" font-size="10.00">ostream</text>
</a>
</g>
</g>
<!-- Node16&#45;&gt;Node17 -->
<g id="edge24" class="edge">
<title>Node16&#45;&gt;Node17</title>
<path fill="none" stroke="midnightblue" d="M1097,-56.4C1097,-48.47 1097,-38.46 1097,-29.86"/>
<polygon fill="midnightblue" stroke="midnightblue" points="1100.5,-29.66 1097,-19.66 1093.5,-29.66 1100.5,-29.66"/>
</g>
<!-- Node16&#45;&gt;Node18 -->
<g id="edge26" class="edge">
<title>Node16&#45;&gt;Node18</title>
<path fill="none" stroke="midnightblue" d="M1139.42,-56.4C1170.22,-46.16 1211.41,-32.47 1240.48,-22.81"/>
<polygon fill="midnightblue" stroke="midnightblue" points="1241.83,-26.05 1250.22,-19.57 1239.62,-19.4 1241.83,-26.05"/>
</g>
<!-- Node19&#45;&gt;Node6 -->
<g id="edge28" class="edge">
<title>Node19&#45;&gt;Node6</title>
<path fill="none" stroke="midnightblue" d="M810.46,-123.43C769.1,-104.98 692.56,-72.97 624,-56 504.5,-26.42 357.29,-15.67 296.87,-12.32"/>
<polygon fill="midnightblue" stroke="midnightblue" points="296.8,-8.81 286.63,-11.78 296.43,-15.8 296.8,-8.81"/>
</g>
<!-- Node19&#45;&gt;Node7 -->
<g id="edge29" class="edge">
<title>Node19&#45;&gt;Node7</title>
<path fill="none" stroke="midnightblue" d="M779.98,-124.58C717.16,-111.28 621.39,-91 569.84,-80.09"/>
<polygon fill="midnightblue" stroke="midnightblue" points="570.35,-76.62 559.84,-77.97 568.9,-83.47 570.35,-76.62"/>
</g>
<!-- Node19&#45;&gt;Node10 -->
<g id="edge30" class="edge">
<title>Node19&#45;&gt;Node10</title>
<path fill="none" stroke="midnightblue" d="M831.14,-123.48C814.69,-100.1 781.73,-53.25 763.98,-28.02"/>
<polygon fill="midnightblue" stroke="midnightblue" points="766.8,-25.95 758.18,-19.79 761.07,-29.98 766.8,-25.95"/>
</g>
<!-- Node19&#45;&gt;Node16 -->
<g id="edge32" class="edge">
<title>Node19&#45;&gt;Node16</title>
<path fill="none" stroke="midnightblue" d="M896.23,-123.48C935.97,-113.39 989.71,-99.74 1031.59,-89.11"/>
<polygon fill="midnightblue" stroke="midnightblue" points="1032.59,-92.46 1041.42,-86.61 1030.87,-85.68 1032.59,-92.46"/>
</g>
<!-- Node20 -->
<g id="node20" class="node">
<title>Node20</title>
<g id="a_node20"><a xlink:title=" ">
<polygon fill="white" stroke="#bfbfbf" points="819,-62 819,-81 863,-81 863,-62 819,-62"/>
<text text-anchor="middle" x="841" y="-69" font-family="Helvetica,sans-Serif" font-size="10.00">thread</text>
</a>
</g>
</g>
<!-- Node19&#45;&gt;Node20 -->
<g id="edge31" class="edge">
<title>Node19&#45;&gt;Node20</title>
<path fill="none" stroke="midnightblue" d="M841,-123.4C841,-114.06 841,-101.71 841,-91.52"/>
<polygon fill="midnightblue" stroke="midnightblue" points="844.5,-91.19 841,-81.19 837.5,-91.19 844.5,-91.19"/>
</g>
<!-- Node21&#45;&gt;Node7 -->
<g id="edge35" class="edge">
<title>Node21&#45;&gt;Node7</title>
<path fill="none" stroke="midnightblue" d="M379.38,-257.42C390.58,-247.55 405.59,-233.89 418,-221 460.4,-176.96 502.71,-118.09 522.47,-89.5"/>
<polygon fill="midnightblue" stroke="midnightblue" points="525.51,-91.26 528.27,-81.03 519.73,-87.3 525.51,-91.26"/>
</g>
<!-- Node21&#45;&gt;Node10 -->
<g id="edge36" class="edge">
<title>Node21&#45;&gt;Node10</title>
<path fill="none" stroke="midnightblue" d="M386.97,-257.38C415.37,-240.78 464.21,-212.63 507,-190 538.98,-173.08 549.66,-173.7 580,-154 641.92,-113.79 706.74,-54.43 736,-26.55"/>
<polygon fill="midnightblue" stroke="midnightblue" points="738.48,-29.01 743.27,-19.56 733.64,-23.96 738.48,-29.01"/>
</g>
<!-- Node21&#45;&gt;Node11 -->
<g id="edge37" class="edge">
<title>Node21&#45;&gt;Node11</title>
<path fill="none" stroke="midnightblue" d="M405.31,-257.4C440.44,-245.69 489.81,-229.23 522.8,-218.23"/>
<polygon fill="midnightblue" stroke="midnightblue" points="524.1,-221.49 532.48,-215.01 521.89,-214.85 524.1,-221.49"/>
</g>
<!-- Node21&#45;&gt;Node12 -->
<g id="edge38" class="edge">
<title>Node21&#45;&gt;Node12</title>
<path fill="none" stroke="midnightblue" d="M333.45,-257.39C315.29,-248.13 291.96,-235.14 273,-221 204.48,-169.88 186.21,-155.45 135,-87 121.37,-68.78 109.78,-45.28 102.64,-29.27"/>
<polygon fill="midnightblue" stroke="midnightblue" points="105.79,-27.75 98.61,-19.96 99.37,-30.53 105.79,-27.75"/>
</g>
<!-- Node21&#45;&gt;Node14 -->
<g id="edge47" class="edge">
<title>Node21&#45;&gt;Node14</title>
<path fill="none" stroke="midnightblue" d="M335.44,-257.44C321.08,-248.78 304.38,-236.38 294,-221 269.27,-184.36 264.68,-165.45 277,-123 279.85,-113.19 285.23,-103.46 290.79,-95.2"/>
<polygon fill="midnightblue" stroke="midnightblue" points="293.77,-97.04 296.76,-86.88 288.09,-92.95 293.77,-97.04"/>
</g>
<!-- Node22 -->
<g id="node22" class="node">
<title>Node22</title>
<g id="a_node22"><a xlink:href="../../de/d06/factory_8h.html" target="_top" xlink:title=" ">
<polygon fill="white" stroke="black" points="303,-190.5 303,-220.5 409,-220.5 409,-190.5 303,-190.5"/>
<text text-anchor="start" x="311" y="-208.5" font-family="Helvetica,sans-Serif" font-size="10.00">automaton/core/data</text>
<text text-anchor="middle" x="356" y="-197.5" font-family="Helvetica,sans-Serif" font-size="10.00">/factory.h</text>
</a>
</g>
</g>
<!-- Node21&#45;&gt;Node22 -->
<g id="edge39" class="edge">
<title>Node21&#45;&gt;Node22</title>
<path fill="none" stroke="midnightblue" d="M361.48,-257.4C360.64,-249.56 359.56,-239.6 358.59,-230.57"/>
<polygon fill="midnightblue" stroke="midnightblue" points="362.07,-230.14 357.52,-220.58 355.11,-230.89 362.07,-230.14"/>
</g>
<!-- Node22&#45;&gt;Node6 -->
<g id="edge40" class="edge">
<title>Node22&#45;&gt;Node6</title>
<path fill="none" stroke="midnightblue" d="M325.55,-190.47C309.43,-181.81 290.29,-169.41 277,-154 247.26,-119.5 236.73,-100.38 247,-56 249.23,-46.36 253.82,-36.41 258.24,-28.31"/>
<polygon fill="midnightblue" stroke="midnightblue" points="261.35,-29.92 263.36,-19.52 255.3,-26.4 261.35,-29.92"/>
</g>
<!-- Node22&#45;&gt;Node7 -->
<g id="edge41" class="edge">
<title>Node22&#45;&gt;Node7</title>
<path fill="none" stroke="midnightblue" d="M383.19,-190.31C400.54,-180.83 423.22,-167.63 442,-154 470.45,-133.35 500.39,-105.52 518.11,-88.31"/>
<polygon fill="midnightblue" stroke="midnightblue" points="520.66,-90.71 525.35,-81.21 515.76,-85.71 520.66,-90.71"/>
</g>
<!-- Node22&#45;&gt;Node10 -->
<g id="edge42" class="edge">
<title>Node22&#45;&gt;Node10</title>
<path fill="none" stroke="midnightblue" d="M371.57,-190.18C382.27,-180.21 396.71,-166.52 409,-154 450.43,-111.8 447.16,-84.45 499,-56 571.33,-16.3 671.18,-10.48 721.05,-10.3"/>
<polygon fill="midnightblue" stroke="midnightblue" points="721.18,-13.8 731.19,-10.34 721.21,-6.8 721.18,-13.8"/>
</g>
<!-- Node22&#45;&gt;Node12 -->
<g id="edge44" class="edge">
<title>Node22&#45;&gt;Node12</title>
<path fill="none" stroke="midnightblue" d="M319.7,-190.43C298.52,-181.44 271.78,-168.74 250,-154 192.59,-115.16 135.33,-55.56 109.39,-27.15"/>
<polygon fill="midnightblue" stroke="midnightblue" points="111.95,-24.77 102.65,-19.7 106.76,-29.46 111.95,-24.77"/>
</g>
<!-- Node22&#45;&gt;Node13 -->
<g id="edge45" class="edge">
<title>Node22&#45;&gt;Node13</title>
<path fill="none" stroke="midnightblue" d="M354.05,-190.4C352.96,-182.56 351.58,-172.6 350.33,-163.57"/>
<polygon fill="midnightblue" stroke="midnightblue" points="353.79,-163 348.95,-153.58 346.85,-163.96 353.79,-163"/>
</g>
<!-- Node22&#45;&gt;Node14 -->
<g id="edge46" class="edge">
<title>Node22&#45;&gt;Node14</title>
<path fill="none" stroke="midnightblue" d="M323.85,-190.34C309.17,-182.03 293.25,-170 285,-154 275.36,-135.31 283.9,-112.15 293.37,-95.31"/>
<polygon fill="midnightblue" stroke="midnightblue" points="296.41,-97.03 298.61,-86.66 290.43,-93.4 296.41,-97.03"/>
</g>
<!-- Node22&#45;&gt;Node23 -->
<g id="edge43" class="edge">
<title>Node22&#45;&gt;Node23</title>
<path fill="none" stroke="midnightblue" d="M398.53,-190.4C436.08,-177.94 489.82,-160.12 522.74,-149.2"/>
<polygon fill="midnightblue" stroke="midnightblue" points="523.85,-152.52 532.24,-146.05 521.65,-145.88 523.85,-152.52"/>
</g>
<!-- Node31&#45;&gt;Node10 -->
<g id="edge60" class="edge">
<title>Node31&#45;&gt;Node10</title>
<path fill="none" stroke="midnightblue" d="M1070.78,-329.92C1056.73,-321.19 1036.36,-306.35 1025,-288 1005.43,-256.37 1006,-243.69 1006,-206.5 1006,-206.5 1006,-206.5 1006,-137.5 1006,-38.83 850.53,-17.12 782.86,-12.35"/>
<polygon fill="midnightblue" stroke="midnightblue" points="782.99,-8.85 772.79,-11.72 782.55,-15.83 782.99,-8.85"/>
</g>
<!-- Node31&#45;&gt;Node24 -->
<g id="edge59" class="edge">
<title>Node31&#45;&gt;Node24</title>
<path fill="none" stroke="midnightblue" d="M1068.6,-329.87C1046.39,-318.84 1007.71,-299.66 981.74,-286.77"/>
<polygon fill="midnightblue" stroke="midnightblue" points="982.98,-283.48 972.47,-282.17 979.87,-289.75 982.98,-283.48"/>
</g>
<!-- Node32 -->
<g id="node32" class="node">
<title>Node32</title>
<g id="a_node32"><a xlink:title=" ">
<polygon fill="white" stroke="#bfbfbf" points="1273,-263 1273,-282 1357,-282 1357,-263 1273,-263"/>
<text text-anchor="middle" x="1315" y="-270" font-family="Helvetica,sans-Serif" font-size="10.00">g3log/g3log.hpp</text>
</a>
</g>
</g>
<!-- Node31&#45;&gt;Node32 -->
<g id="edge61" class="edge">
<title>Node31&#45;&gt;Node32</title>
<path fill="none" stroke="midnightblue" d="M1116.24,-329.93C1151.65,-319.88 1212.09,-302.74 1264,-288 1267.62,-286.97 1271.39,-285.9 1275.16,-284.83"/>
<polygon fill="midnightblue" stroke="midnightblue" points="1276.4,-288.11 1285.07,-282.01 1274.49,-281.38 1276.4,-288.11"/>
</g>
<!-- Node33 -->
<g id="node33" class="node">
<title>Node33</title>
<g id="a_node33"><a xlink:title=" ">
<polygon fill="white" stroke="#bfbfbf" points="1034.5,-263 1034.5,-282 1137.5,-282 1137.5,-263 1034.5,-263"/>
<text text-anchor="middle" x="1086" y="-270" font-family="Helvetica,sans-Serif" font-size="10.00">g3log/logworker.hpp</text>
</a>
</g>
</g>
<!-- Node31&#45;&gt;Node33 -->
<g id="edge62" class="edge">
<title>Node31&#45;&gt;Node33</title>
<path fill="none" stroke="midnightblue" d="M1086,-329.73C1086,-320.18 1086,-304.62 1086,-292.28"/>
<polygon fill="midnightblue" stroke="midnightblue" points="1089.5,-292.13 1086,-282.13 1082.5,-292.13 1089.5,-292.13"/>
</g>
<!-- Node34 -->
<g id="node34" class="node">
<title>Node34</title>
<g id="a_node34"><a xlink:title=" ">
<polygon fill="white" stroke="#bfbfbf" points="1155.5,-263 1155.5,-282 1254.5,-282 1254.5,-263 1155.5,-263"/>
<text text-anchor="middle" x="1205" y="-270" font-family="Helvetica,sans-Serif" font-size="10.00">g3log/loglevels.hpp</text>
</a>
</g>
</g>
<!-- Node31&#45;&gt;Node34 -->
<g id="edge63" class="edge">
<title>Node31&#45;&gt;Node34</title>
<path fill="none" stroke="midnightblue" d="M1102.05,-329.73C1122.12,-318.77 1156.7,-299.88 1180.19,-287.05"/>
<polygon fill="midnightblue" stroke="midnightblue" points="1182.11,-289.99 1189.21,-282.13 1178.75,-283.85 1182.11,-289.99"/>
</g>
</g>
</svg>
