<?xml version="1.0" encoding="UTF-8" standalone="no"?>
<!DOCTYPE svg PUBLIC "-//W3C//DTD SVG 1.1//EN"
 "http://www.w3.org/Graphics/SVG/1.1/DTD/svg11.dtd">
<!-- Generated by graphviz version 2.44.0 ()
 -->
<!-- Title: automaton::core::network::parse_address Pages: 1 -->
<svg width="294pt" height="88pt"
 viewBox="0.00 0.00 294.00 88.00" xmlns="http://www.w3.org/2000/svg" xmlns:xlink="http://www.w3.org/1999/xlink">
<g id="graph0" class="graph" transform="scale(1 1) rotate(0) translate(4 84)">
<title>automaton::core::network::parse_address</title>
<polygon fill="white" stroke="transparent" points="-4,4 -4,-84 290,-84 290,4 -4,4"/>
<!-- Node1 -->
<g id="node1" class="node">
<title>Node1</title>
<g id="a_node1"><a xlink:title=" ">
<polygon fill="#bfbfbf" stroke="black" points="161,-24.5 161,-54.5 286,-54.5 286,-24.5 161,-24.5"/>
<text text-anchor="start" x="169" y="-42.5" font-family="Helvetica,sans-Serif" font-size="10.00">automaton::core::network</text>
<text text-anchor="middle" x="223.5" y="-31.5" font-family="Helvetica,sans-Serif" font-size="10.00">::parse_address</text>
</a>
</g>
</g>
<!-- Node2 -->
<g id="node2" class="node">
<title>Node2</title>
<g id="a_node2"><a xlink:href="../../d3/d6a/classautomaton_1_1core_1_1network_1_1tcp__connection.html#acddf89023f34d7513b2a02c33e34b07b" target="_top" xlink:title="Initialises the connection.">
<polygon fill="white" stroke="black" points="0,-49.5 0,-79.5 125,-79.5 125,-49.5 0,-49.5"/>
<text text-anchor="start" x="8" y="-67.5" font-family="Helvetica,sans-Serif" font-size="10.00">automaton::core::network</text>
<text text-anchor="middle" x="62.5" y="-56.5" font-family="Helvetica,sans-Serif" font-size="10.00">::tcp_connection::init</text>
</a>
</g>
</g>
<!-- Node1&#45;&gt;Node2 -->
<g id="edge1" class="edge">
<title>Node1&#45;&gt;Node2</title>
<path fill="none" stroke="midnightblue" d="M150.68,-50.79C142.2,-52.13 133.59,-53.48 125.26,-54.79"/>
<polygon fill="midnightblue" stroke="midnightblue" points="151.24,-54.25 160.57,-49.24 150.15,-47.33 151.24,-54.25"/>
</g>
<!-- Node3 -->
<g id="node3" class="node">
<title>Node3</title>
<g id="a_node3"><a xlink:href="../../d9/db9/classautomaton_1_1core_1_1network_1_1tcp__acceptor.html#ad7f0299fa9a809417f06bb96f6b356e5" target="_top" xlink:title="Initialises the acceptor.">
<polygon fill="white" stroke="black" points="0,-0.5 0,-30.5 125,-30.5 125,-0.5 0,-0.5"/>
<text text-anchor="start" x="8" y="-18.5" font-family="Helvetica,sans-Serif" font-size="10.00">automaton::core::network</text>
<text text-anchor="middle" x="62.5" y="-7.5" font-family="Helvetica,sans-Serif" font-size="10.00">::tcp_acceptor::init</text>
</a>
</g>
</g>
<!-- Node1&#45;&gt;Node3 -->
<g id="edge2" class="edge">
<title>Node1&#45;&gt;Node3</title>
<path fill="none" stroke="midnightblue" d="M150.41,-28.62C142.01,-27.35 133.5,-26.07 125.26,-24.82"/>
<polygon fill="midnightblue" stroke="midnightblue" points="150.16,-32.12 160.57,-30.15 151.21,-25.2 150.16,-32.12"/>
</g>
</g>
</svg>
