<?xml version="1.0" encoding="UTF-8" standalone="no"?>
<!DOCTYPE svg PUBLIC "-//W3C//DTD SVG 1.1//EN"
 "http://www.w3.org/Graphics/SVG/1.1/DTD/svg11.dtd">
<!-- Generated by graphviz version 2.42.3 ()
 -->
<!-- Title: automaton::core::network::acceptor Pages: 1 -->
<svg width="234pt" height="206pt"
 viewBox="0.00 0.00 234.00 206.00" xmlns="http://www.w3.org/2000/svg" xmlns:xlink="http://www.w3.org/1999/xlink">
<g id="graph0" class="graph" transform="scale(1 1) rotate(0) translate(4 202)">
<title>automaton::core::network::acceptor</title>
<polygon fill="white" stroke="transparent" points="-4,4 -4,-202 230,-202 230,4 -4,4"/>
<!-- Node1 -->
<g id="node1" class="node">
<title>Node1</title>
<g id="a_node1"><a xlink:title=" ">
<polygon fill="#bfbfbf" stroke="black" points="0,-0.5 0,-30.5 125,-30.5 125,-0.5 0,-0.5"/>
<text text-anchor="start" x="8" y="-18.5" font-family="Helvetica,sans-Serif" font-size="10.00">automaton::core::network</text>
<text text-anchor="middle" x="62.5" y="-7.5" font-family="Helvetica,sans-Serif" font-size="10.00">::acceptor</text>
</a>
</g>
</g>
<!-- Node2 -->
<g id="node2" class="node">
<title>Node2</title>
<g id="a_node2"><a xlink:title=" ">
<polygon fill="white" stroke="#bfbfbf" points="21,-89.5 21,-108.5 72,-108.5 72,-89.5 21,-89.5"/>
<text text-anchor="middle" x="46.5" y="-96.5" font-family="Helvetica,sans-Serif" font-size="10.00">uint32_t</text>
</a>
</g>
</g>
<!-- Node2&#45;&gt;Node1 -->
<g id="edge1" class="edge">
<title>Node2&#45;&gt;Node1</title>
<path fill="none" stroke="#9a32cd" stroke-dasharray="5,2" d="M50.19,-79.23C53.09,-64.41 57.09,-44.05 59.73,-30.6"/>
<polygon fill="#9a32cd" stroke="#9a32cd" points="46.7,-78.79 48.21,-89.28 53.57,-80.14 46.7,-78.79"/>
<text text-anchor="middle" x="61.5" y="-52" font-family="Helvetica,sans-Serif" font-size="10.00"> id</text>
</g>
<!-- Node3 -->
<g id="node3" class="node">
<title>Node3</title>
<g id="a_node3"><a xlink:title=" ">
<polygon fill="white" stroke="#bfbfbf" points="90.5,-78.5 90.5,-119.5 224.5,-119.5 224.5,-78.5 90.5,-78.5"/>
<text text-anchor="start" x="98.5" y="-107.5" font-family="Helvetica,sans-Serif" font-size="10.00">std::shared_ptr&lt; automaton</text>
<text text-anchor="start" x="98.5" y="-96.5" font-family="Helvetica,sans-Serif" font-size="10.00">::core::network::acceptor</text>
<text text-anchor="middle" x="157.5" y="-85.5" font-family="Helvetica,sans-Serif" font-size="10.00">::acceptor_handler &gt;</text>
</a>
</g>
</g>
<!-- Node3&#45;&gt;Node1 -->
<g id="edge2" class="edge">
<title>Node3&#45;&gt;Node1</title>
<path fill="none" stroke="#9a32cd" stroke-dasharray="5,2" d="M126.53,-71.43C110.71,-57.86 92.1,-41.9 79.03,-30.68"/>
<polygon fill="#9a32cd" stroke="#9a32cd" points="124.63,-74.42 134.5,-78.27 129.19,-69.1 124.63,-74.42"/>
<text text-anchor="middle" x="129.5" y="-52" font-family="Helvetica,sans-Serif" font-size="10.00"> handler</text>
</g>
<!-- Node4 -->
<g id="node4" class="node">
<title>Node4</title>
<g id="a_node4"><a xlink:href="../../d0/d47/classautomaton_1_1core_1_1network_1_1acceptor_1_1acceptor__handler.html" target="_top" xlink:title=" ">
<polygon fill="white" stroke="black" points="89,-167.5 89,-197.5 226,-197.5 226,-167.5 89,-167.5"/>
<text text-anchor="start" x="97" y="-185.5" font-family="Helvetica,sans-Serif" font-size="10.00">automaton::core::network</text>
<text text-anchor="middle" x="157.5" y="-174.5" font-family="Helvetica,sans-Serif" font-size="10.00">::acceptor::acceptor_handler</text>
</a>
</g>
</g>
<!-- Node4&#45;&gt;Node3 -->
<g id="edge3" class="edge">
<title>Node4&#45;&gt;Node3</title>
<path fill="none" stroke="#9a32cd" stroke-dasharray="5,2" d="M157.5,-157.07C157.5,-145.06 157.5,-130.79 157.5,-119.53"/>
<polygon fill="#9a32cd" stroke="#9a32cd" points="154,-157.3 157.5,-167.3 161,-157.3 154,-157.3"/>
<text text-anchor="middle" x="164.5" y="-141" font-family="Helvetica,sans-Serif" font-size="10.00"> ptr</text>
</g>
</g>
</svg>
