<?xml version="1.0" encoding="UTF-8" standalone="no"?>
<!DOCTYPE svg PUBLIC "-//W3C//DTD SVG 1.1//EN"
 "http://www.w3.org/Graphics/SVG/1.1/DTD/svg11.dtd">
<!-- Generated by graphviz version 2.44.0 ()
 -->
<!-- Title: automaton::core::storage::blobstore::get Pages: 1 -->
<svg width="282pt" height="230pt"
 viewBox="0.00 0.00 282.00 230.00" xmlns="http://www.w3.org/2000/svg" xmlns:xlink="http://www.w3.org/1999/xlink">
<g id="graph0" class="graph" transform="scale(1 1) rotate(0) translate(4 226)">
<title>automaton::core::storage::blobstore::get</title>
<polygon fill="white" stroke="transparent" points="-4,4 -4,-226 278,-226 278,4 -4,4"/>
<!-- Node1 -->
<g id="node1" class="node">
<title>Node1</title>
<g id="a_node1"><a xlink:title=" ">
<polygon fill="#bfbfbf" stroke="black" points="152,-96 152,-126 274,-126 274,-96 152,-96"/>
<text text-anchor="start" x="160" y="-114" font-family="Helvetica,sans-Serif" font-size="10.00">automaton::core::storage</text>
<text text-anchor="middle" x="213" y="-103" font-family="Helvetica,sans-Serif" font-size="10.00">::blobstore::get</text>
</a>
</g>
</g>
<!-- Node2 -->
<g id="node2" class="node">
<title>Node2</title>
<g id="a_node2"><a xlink:href="../../dc/d2a/classautomaton_1_1core_1_1state_1_1state__persistent_1_1node.html#a563f93e4419fada4cdf23522850fcdfc" target="_top" xlink:title=" ">
<polygon fill="white" stroke="black" points="0,-180.5 0,-221.5 116,-221.5 116,-180.5 0,-180.5"/>
<text text-anchor="start" x="8" y="-209.5" font-family="Helvetica,sans-Serif" font-size="10.00">automaton::core::state</text>
<text text-anchor="start" x="8" y="-198.5" font-family="Helvetica,sans-Serif" font-size="10.00">::state_persistent::node</text>
<text text-anchor="middle" x="58" y="-187.5" font-family="Helvetica,sans-Serif" font-size="10.00">::get_hash</text>
</a>
</g>
</g>
<!-- Node1&#45;&gt;Node2 -->
<g id="edge1" class="edge">
<title>Node1&#45;&gt;Node2</title>
<path fill="none" stroke="midnightblue" d="M180.38,-131.59C161.83,-143.46 137.82,-158.46 116,-171 110.57,-174.12 104.79,-177.31 99.07,-180.39"/>
<polygon fill="midnightblue" stroke="midnightblue" points="182.49,-134.39 189.01,-126.04 178.71,-128.5 182.49,-134.39"/>
</g>
<!-- Node3 -->
<g id="node3" class="node">
<title>Node3</title>
<g id="a_node3"><a xlink:href="../../dc/d2a/classautomaton_1_1core_1_1state_1_1state__persistent_1_1node.html#afdca55e338f101217940872a683fecaf" target="_top" xlink:title=" ">
<polygon fill="white" stroke="black" points="0,-120.5 0,-161.5 116,-161.5 116,-120.5 0,-120.5"/>
<text text-anchor="start" x="8" y="-149.5" font-family="Helvetica,sans-Serif" font-size="10.00">automaton::core::state</text>
<text text-anchor="start" x="8" y="-138.5" font-family="Helvetica,sans-Serif" font-size="10.00">::state_persistent::node</text>
<text text-anchor="middle" x="58" y="-127.5" font-family="Helvetica,sans-Serif" font-size="10.00">::get_parent</text>
</a>
</g>
</g>
<!-- Node1&#45;&gt;Node3 -->
<g id="edge2" class="edge">
<title>Node1&#45;&gt;Node3</title>
<path fill="none" stroke="midnightblue" d="M141.98,-124.73C133.4,-126.41 124.72,-128.11 116.36,-129.75"/>
<polygon fill="midnightblue" stroke="midnightblue" points="142.83,-128.13 151.97,-122.77 141.48,-121.26 142.83,-128.13"/>
</g>
<!-- Node4 -->
<g id="node4" class="node">
<title>Node4</title>
<g id="a_node4"><a xlink:href="../../dc/d2a/classautomaton_1_1core_1_1state_1_1state__persistent_1_1node.html#a912b881cbc4c6c5c446ca4c1af022f43" target="_top" xlink:title=" ">
<polygon fill="white" stroke="black" points="0,-60.5 0,-101.5 116,-101.5 116,-60.5 0,-60.5"/>
<text text-anchor="start" x="8" y="-89.5" font-family="Helvetica,sans-Serif" font-size="10.00">automaton::core::state</text>
<text text-anchor="start" x="8" y="-78.5" font-family="Helvetica,sans-Serif" font-size="10.00">::state_persistent::node</text>
<text text-anchor="middle" x="58" y="-67.5" font-family="Helvetica,sans-Serif" font-size="10.00">::get_prefix</text>
</a>
</g>
</g>
<!-- Node1&#45;&gt;Node4 -->
<g id="edge3" class="edge">
<title>Node1&#45;&gt;Node4</title>
<path fill="none" stroke="midnightblue" d="M141.98,-97.27C133.4,-95.59 124.72,-93.89 116.36,-92.25"/>
<polygon fill="midnightblue" stroke="midnightblue" points="141.48,-100.74 151.97,-99.23 142.83,-93.87 141.48,-100.74"/>
</g>
<!-- Node5 -->
<g id="node5" class="node">
<title>Node5</title>
<g id="a_node5"><a xlink:href="../../dc/d2a/classautomaton_1_1core_1_1state_1_1state__persistent_1_1node.html#a57d82eb65d80872155106e46c17fb71d" target="_top" xlink:title=" ">
<polygon fill="white" stroke="black" points="0,-0.5 0,-41.5 116,-41.5 116,-0.5 0,-0.5"/>
<text text-anchor="start" x="8" y="-29.5" font-family="Helvetica,sans-Serif" font-size="10.00">automaton::core::state</text>
<text text-anchor="start" x="8" y="-18.5" font-family="Helvetica,sans-Serif" font-size="10.00">::state_persistent::node</text>
<text text-anchor="middle" x="58" y="-7.5" font-family="Helvetica,sans-Serif" font-size="10.00">::get_value</text>
</a>
</g>
</g>
<!-- Node1&#45;&gt;Node5 -->
<g id="edge4" class="edge">
<title>Node1&#45;&gt;Node5</title>
<path fill="none" stroke="midnightblue" d="M180.38,-90.41C161.83,-78.54 137.82,-63.54 116,-51 110.57,-47.88 104.79,-44.69 99.07,-41.61"/>
<polygon fill="midnightblue" stroke="midnightblue" points="178.71,-93.5 189.01,-95.96 182.49,-87.61 178.71,-93.5"/>
</g>
</g>
</svg>
