<?xml version="1.0" encoding="UTF-8" standalone="no"?>
<!DOCTYPE svg PUBLIC "-//W3C//DTD SVG 1.1//EN"
 "http://www.w3.org/Graphics/SVG/1.1/DTD/svg11.dtd">
<!-- Generated by graphviz version 2.42.3 ()
 -->
<!-- Title: automaton::core::storage::blobstore::store Pages: 1 -->
<svg width="283pt" height="290pt"
 viewBox="0.00 0.00 283.00 290.00" xmlns="http://www.w3.org/2000/svg" xmlns:xlink="http://www.w3.org/1999/xlink">
<g id="graph0" class="graph" transform="scale(1 1) rotate(0) translate(4 286)">
<title>automaton::core::storage::blobstore::store</title>
<polygon fill="white" stroke="transparent" points="-4,4 -4,-286 279,-286 279,4 -4,4"/>
<!-- Node1 -->
<g id="node1" class="node">
<title>Node1</title>
<g id="a_node1"><a xlink:title=" ">
<polygon fill="#bfbfbf" stroke="black" points="153,-126 153,-156 275,-156 275,-126 153,-126"/>
<text text-anchor="start" x="161" y="-144" font-family="Helvetica,sans-Serif" font-size="10.00">automaton::core::storage</text>
<text text-anchor="middle" x="214" y="-133" font-family="Helvetica,sans-Serif" font-size="10.00">::blobstore::store</text>
</a>
</g>
</g>
<!-- Node2 -->
<g id="node2" class="node">
<title>Node2</title>
<g id="a_node2"><a xlink:href="../../dc/d2a/classautomaton_1_1core_1_1state_1_1state__persistent_1_1node.html#a629f483af5d7c9c73de0df09aa0b5fc8" target="_top" xlink:title=" ">
<polygon fill="white" stroke="black" points="0.5,-240.5 0.5,-281.5 116.5,-281.5 116.5,-240.5 0.5,-240.5"/>
<text text-anchor="start" x="8.5" y="-269.5" font-family="Helvetica,sans-Serif" font-size="10.00">automaton::core::state</text>
<text text-anchor="start" x="8.5" y="-258.5" font-family="Helvetica,sans-Serif" font-size="10.00">::state_persistent::node</text>
<text text-anchor="middle" x="58.5" y="-247.5" font-family="Helvetica,sans-Serif" font-size="10.00">::set_hash</text>
</a>
</g>
</g>
<!-- Node1&#45;&gt;Node2 -->
<g id="edge1" class="edge">
<title>Node1&#45;&gt;Node2</title>
<path fill="none" stroke="midnightblue" d="M192.38,-163.52C173.87,-182.93 145.33,-210.9 117,-231 112.32,-234.32 107.22,-237.51 102.05,-240.49"/>
<polygon fill="midnightblue" stroke="midnightblue" points="195.13,-165.72 199.44,-156.04 190.03,-160.92 195.13,-165.72"/>
</g>
<!-- Node3 -->
<g id="node3" class="node">
<title>Node3</title>
<g id="a_node3"><a xlink:href="../../dc/d2a/classautomaton_1_1core_1_1state_1_1state__persistent_1_1node.html#a52ac040d94b3d49cc81921275d38a3f6" target="_top" xlink:title=" ">
<polygon fill="white" stroke="black" points="0.5,-180.5 0.5,-221.5 116.5,-221.5 116.5,-180.5 0.5,-180.5"/>
<text text-anchor="start" x="8.5" y="-209.5" font-family="Helvetica,sans-Serif" font-size="10.00">automaton::core::state</text>
<text text-anchor="start" x="8.5" y="-198.5" font-family="Helvetica,sans-Serif" font-size="10.00">::state_persistent::node</text>
<text text-anchor="middle" x="58.5" y="-187.5" font-family="Helvetica,sans-Serif" font-size="10.00">::set_parent</text>
</a>
</g>
</g>
<!-- Node1&#45;&gt;Node3 -->
<g id="edge2" class="edge">
<title>Node1&#45;&gt;Node3</title>
<path fill="none" stroke="midnightblue" d="M164.7,-159.88C147.99,-166.41 129.18,-173.76 112.14,-180.42"/>
<polygon fill="midnightblue" stroke="midnightblue" points="166.23,-163.04 174.27,-156.14 163.68,-156.52 166.23,-163.04"/>
</g>
<!-- Node4 -->
<g id="node4" class="node">
<title>Node4</title>
<g id="a_node4"><a xlink:href="../../dc/d2a/classautomaton_1_1core_1_1state_1_1state__persistent_1_1node.html#a040cf6785c1a2a2704e7e97de5c199a1" target="_top" xlink:title=" ">
<polygon fill="white" stroke="black" points="0.5,-120.5 0.5,-161.5 116.5,-161.5 116.5,-120.5 0.5,-120.5"/>
<text text-anchor="start" x="8.5" y="-149.5" font-family="Helvetica,sans-Serif" font-size="10.00">automaton::core::state</text>
<text text-anchor="start" x="8.5" y="-138.5" font-family="Helvetica,sans-Serif" font-size="10.00">::state_persistent::node</text>
<text text-anchor="middle" x="58.5" y="-127.5" font-family="Helvetica,sans-Serif" font-size="10.00">::set_prefix</text>
</a>
</g>
</g>
<!-- Node1&#45;&gt;Node4 -->
<g id="edge3" class="edge">
<title>Node1&#45;&gt;Node4</title>
<path fill="none" stroke="midnightblue" d="M142.6,-141C133.88,-141 125.04,-141 116.54,-141"/>
<polygon fill="midnightblue" stroke="midnightblue" points="142.77,-144.5 152.77,-141 142.77,-137.5 142.77,-144.5"/>
</g>
<!-- Node5 -->
<g id="node5" class="node">
<title>Node5</title>
<g id="a_node5"><a xlink:href="../../dc/d2a/classautomaton_1_1core_1_1state_1_1state__persistent_1_1node.html#a6ac8b6191b097510f8b8ae73590e1e0b" target="_top" xlink:title=" ">
<polygon fill="white" stroke="black" points="0.5,-60.5 0.5,-101.5 116.5,-101.5 116.5,-60.5 0.5,-60.5"/>
<text text-anchor="start" x="8.5" y="-89.5" font-family="Helvetica,sans-Serif" font-size="10.00">automaton::core::state</text>
<text text-anchor="start" x="8.5" y="-78.5" font-family="Helvetica,sans-Serif" font-size="10.00">::state_persistent::node</text>
<text text-anchor="middle" x="58.5" y="-67.5" font-family="Helvetica,sans-Serif" font-size="10.00">::set_value</text>
</a>
</g>
</g>
<!-- Node1&#45;&gt;Node5 -->
<g id="edge4" class="edge">
<title>Node1&#45;&gt;Node5</title>
<path fill="none" stroke="midnightblue" d="M164.7,-122.12C147.99,-115.59 129.18,-108.24 112.14,-101.58"/>
<polygon fill="midnightblue" stroke="midnightblue" points="163.68,-125.48 174.27,-125.86 166.23,-118.96 163.68,-125.48"/>
</g>
<!-- Node6 -->
<g id="node6" class="node">
<title>Node6</title>
<g id="a_node6"><a xlink:href="../../dc/ddc/classautomaton_1_1core_1_1state_1_1state__persistent.html#ab278c0af4557c0ed9613f6abebc63594" target="_top" xlink:title=" ">
<polygon fill="white" stroke="black" points="0,-0.5 0,-41.5 117,-41.5 117,-0.5 0,-0.5"/>
<text text-anchor="start" x="8" y="-29.5" font-family="Helvetica,sans-Serif" font-size="10.00">automaton::core::state</text>
<text text-anchor="start" x="8" y="-18.5" font-family="Helvetica,sans-Serif" font-size="10.00">::state_persistent::state</text>
<text text-anchor="middle" x="58.5" y="-7.5" font-family="Helvetica,sans-Serif" font-size="10.00">_persistent</text>
</a>
</g>
</g>
<!-- Node1&#45;&gt;Node6 -->
<g id="edge5" class="edge">
<title>Node1&#45;&gt;Node6</title>
<path fill="none" stroke="midnightblue" d="M192.38,-118.48C173.87,-99.07 145.33,-71.1 117,-51 112.32,-47.68 107.22,-44.49 102.05,-41.51"/>
<polygon fill="midnightblue" stroke="midnightblue" points="190.03,-121.08 199.44,-125.96 195.13,-116.28 190.03,-121.08"/>
</g>
</g>
</svg>
