<?xml version="1.0" encoding="UTF-8" standalone="no"?>
<!DOCTYPE svg PUBLIC "-//W3C//DTD SVG 1.1//EN"
 "http://www.w3.org/Graphics/SVG/1.1/DTD/svg11.dtd">
<!-- Generated by graphviz version 2.44.0 ()
 -->
<!-- Title: automaton::core::script::module::name Pages: 1 -->
<svg width="302pt" height="88pt"
 viewBox="0.00 0.00 302.00 88.00" xmlns="http://www.w3.org/2000/svg" xmlns:xlink="http://www.w3.org/1999/xlink">
<g id="graph0" class="graph" transform="scale(1 1) rotate(0) translate(4 84)">
<title>automaton::core::script::module::name</title>
<polygon fill="white" stroke="transparent" points="-4,4 -4,-84 298,-84 298,4 -4,4"/>
<!-- Node1 -->
<g id="node1" class="node">
<title>Node1</title>
<g id="a_node1"><a xlink:title=" ">
<polygon fill="#bfbfbf" stroke="black" points="180,-24.5 180,-54.5 294,-54.5 294,-24.5 180,-24.5"/>
<text text-anchor="start" x="188" y="-42.5" font-family="Helvetica,sans-Serif" font-size="10.00">automaton::core::script</text>
<text text-anchor="middle" x="237" y="-31.5" font-family="Helvetica,sans-Serif" font-size="10.00">::module::name</text>
</a>
</g>
</g>
<!-- Node2 -->
<g id="node2" class="node">
<title>Node2</title>
<g id="a_node2"><a xlink:href="../../db/d61/classautomaton_1_1core_1_1script_1_1module.html#a37e95d0ea41cdb7f7a336439430bcfcc" target="_top" xlink:title=" ">
<polygon fill="white" stroke="black" points="15,-49.5 15,-79.5 129,-79.5 129,-49.5 15,-49.5"/>
<text text-anchor="start" x="23" y="-67.5" font-family="Helvetica,sans-Serif" font-size="10.00">automaton::core::script</text>
<text text-anchor="middle" x="72" y="-56.5" font-family="Helvetica,sans-Serif" font-size="10.00">::module::add_function</text>
</a>
</g>
</g>
<!-- Node1&#45;&gt;Node2 -->
<g id="edge1" class="edge">
<title>Node1&#45;&gt;Node2</title>
<path fill="none" stroke="midnightblue" d="M169.75,-49.66C156.3,-51.72 142.27,-53.88 129.2,-55.88"/>
<polygon fill="midnightblue" stroke="midnightblue" points="170.55,-53.08 179.9,-48.1 169.49,-46.16 170.55,-53.08"/>
</g>
<!-- Node3 -->
<g id="node3" class="node">
<title>Node3</title>
<g id="a_node3"><a xlink:href="../../db/d61/classautomaton_1_1core_1_1script_1_1module.html#a402d38a7a31db8472c4814350fd0c700" target="_top" xlink:title=" ">
<polygon fill="white" stroke="black" points="0,-0.5 0,-30.5 144,-30.5 144,-0.5 0,-0.5"/>
<text text-anchor="start" x="8" y="-18.5" font-family="Helvetica,sans-Serif" font-size="10.00">automaton::core::script</text>
<text text-anchor="middle" x="72" y="-7.5" font-family="Helvetica,sans-Serif" font-size="10.00">::module::add_implementation</text>
</a>
</g>
</g>
<!-- Node1&#45;&gt;Node3 -->
<g id="edge2" class="edge">
<title>Node1&#45;&gt;Node3</title>
<path fill="none" stroke="midnightblue" d="M169.76,-29.75C161.33,-28.51 152.67,-27.23 144.17,-25.98"/>
<polygon fill="midnightblue" stroke="midnightblue" points="169.5,-33.25 179.9,-31.24 170.52,-26.32 169.5,-33.25"/>
</g>
</g>
</svg>
