<?xml version="1.0" encoding="UTF-8" standalone="no"?>
<!DOCTYPE svg PUBLIC "-//W3C//DTD SVG 1.1//EN"
 "http://www.w3.org/Graphics/SVG/1.1/DTD/svg11.dtd">
<!-- Generated by graphviz version 2.44.0 ()
 -->
<!-- Title: automaton::core::script::module::add_implementation Pages: 1 -->
<svg width="302pt" height="186pt"
 viewBox="0.00 0.00 302.00 186.00" xmlns="http://www.w3.org/2000/svg" xmlns:xlink="http://www.w3.org/1999/xlink">
<g id="graph0" class="graph" transform="scale(1 1) rotate(0) translate(4 182)">
<title>automaton::core::script::module::add_implementation</title>
<polygon fill="white" stroke="transparent" points="-4,4 -4,-182 298,-182 298,4 -4,4"/>
<!-- Node1 -->
<g id="node1" class="node">
<title>Node1</title>
<g id="a_node1"><a xlink:title=" ">
<polygon fill="#bfbfbf" stroke="black" points="0,-73.5 0,-103.5 144,-103.5 144,-73.5 0,-73.5"/>
<text text-anchor="start" x="8" y="-91.5" font-family="Helvetica,sans-Serif" font-size="10.00">automaton::core::script</text>
<text text-anchor="middle" x="72" y="-80.5" font-family="Helvetica,sans-Serif" font-size="10.00">::module::add_implementation</text>
</a>
</g>
</g>
<!-- Node2 -->
<g id="node2" class="node">
<title>Node2</title>
<g id="a_node2"><a xlink:href="../../db/d61/classautomaton_1_1core_1_1script_1_1module.html#a4abbbd7227a1052bbecd8c01a8b4a62b" target="_top" xlink:title=" ">
<polygon fill="white" stroke="black" points="180,-147.5 180,-177.5 294,-177.5 294,-147.5 180,-147.5"/>
<text text-anchor="start" x="188" y="-165.5" font-family="Helvetica,sans-Serif" font-size="10.00">automaton::core::script</text>
<text text-anchor="middle" x="237" y="-154.5" font-family="Helvetica,sans-Serif" font-size="10.00">::module::concepts</text>
</a>
</g>
</g>
<!-- Node1&#45;&gt;Node2 -->
<g id="edge1" class="edge">
<title>Node1&#45;&gt;Node2</title>
<path fill="none" stroke="midnightblue" d="M104.71,-103.65C125.94,-113.7 154.55,-127.1 180,-138.5 183.59,-140.11 187.32,-141.75 191.07,-143.4"/>
<polygon fill="midnightblue" stroke="midnightblue" points="189.81,-146.66 200.38,-147.44 192.6,-140.24 189.81,-146.66"/>
</g>
<!-- Node3 -->
<g id="node3" class="node">
<title>Node3</title>
<g id="a_node3"><a xlink:href="../../d5/db0/classautomaton_1_1core_1_1script_1_1registry.html#abe2e84e7ddda3ad97263c936c5235319" target="_top" xlink:title=" ">
<polygon fill="white" stroke="black" points="180,-98.5 180,-128.5 294,-128.5 294,-98.5 180,-98.5"/>
<text text-anchor="start" x="188" y="-116.5" font-family="Helvetica,sans-Serif" font-size="10.00">automaton::core::script</text>
<text text-anchor="middle" x="237" y="-105.5" font-family="Helvetica,sans-Serif" font-size="10.00">::registry::get_factory</text>
</a>
</g>
</g>
<!-- Node1&#45;&gt;Node3 -->
<g id="edge2" class="edge">
<title>Node1&#45;&gt;Node3</title>
<path fill="none" stroke="midnightblue" d="M144.02,-99.39C152.65,-100.72 161.45,-102.07 170,-103.38"/>
<polygon fill="midnightblue" stroke="midnightblue" points="169.5,-106.84 179.91,-104.9 170.56,-99.92 169.5,-106.84"/>
</g>
<!-- Node4 -->
<g id="node4" class="node">
<title>Node4</title>
<g id="a_node4"><a xlink:href="../../d5/db0/classautomaton_1_1core_1_1script_1_1registry.html#a174da25e2814ea7ce9bbc9a95ab58d52" target="_top" xlink:title=" ">
<polygon fill="white" stroke="black" points="180,-49.5 180,-79.5 294,-79.5 294,-49.5 180,-49.5"/>
<text text-anchor="start" x="188" y="-67.5" font-family="Helvetica,sans-Serif" font-size="10.00">automaton::core::script</text>
<text text-anchor="middle" x="237" y="-56.5" font-family="Helvetica,sans-Serif" font-size="10.00">::registry::instance</text>
</a>
</g>
</g>
<!-- Node1&#45;&gt;Node4 -->
<g id="edge3" class="edge">
<title>Node1&#45;&gt;Node4</title>
<path fill="none" stroke="midnightblue" d="M144.02,-78.04C152.65,-76.77 161.45,-75.48 170,-74.22"/>
<polygon fill="midnightblue" stroke="midnightblue" points="170.53,-77.68 179.91,-72.76 169.51,-70.75 170.53,-77.68"/>
</g>
<!-- Node5 -->
<g id="node5" class="node">
<title>Node5</title>
<g id="a_node5"><a xlink:href="../../db/d61/classautomaton_1_1core_1_1script_1_1module.html#a3ddb5b9f09dade13a876d2c4a262a8d3" target="_top" xlink:title=" ">
<polygon fill="white" stroke="black" points="180,-0.5 180,-30.5 294,-30.5 294,-0.5 180,-0.5"/>
<text text-anchor="start" x="188" y="-18.5" font-family="Helvetica,sans-Serif" font-size="10.00">automaton::core::script</text>
<text text-anchor="middle" x="237" y="-7.5" font-family="Helvetica,sans-Serif" font-size="10.00">::module::name</text>
</a>
</g>
</g>
<!-- Node1&#45;&gt;Node5 -->
<g id="edge4" class="edge">
<title>Node1&#45;&gt;Node5</title>
<path fill="none" stroke="midnightblue" d="M106.73,-73.35C127.79,-63.9 155.47,-51.48 180,-40.5 184.16,-38.64 188.49,-36.7 192.82,-34.77"/>
<polygon fill="midnightblue" stroke="midnightblue" points="194.53,-37.84 202.24,-30.56 191.68,-31.44 194.53,-37.84"/>
</g>
</g>
</svg>
