<?xml version="1.0" encoding="UTF-8" standalone="no"?>
<!DOCTYPE svg PUBLIC "-//W3C//DTD SVG 1.1//EN"
 "http://www.w3.org/Graphics/SVG/1.1/DTD/svg11.dtd">
<!-- Generated by graphviz version 2.42.3 ()
 -->
<!-- Title: automaton::core::script::module::check_implementation Pages: 1 -->
<svg width="321pt" height="197pt"
 viewBox="0.00 0.00 321.00 196.50" xmlns="http://www.w3.org/2000/svg" xmlns:xlink="http://www.w3.org/1999/xlink">
<g id="graph0" class="graph" transform="scale(1 1) rotate(0) translate(4 192.5)">
<title>automaton::core::script::module::check_implementation</title>
<polygon fill="white" stroke="transparent" points="-4,4 -4,-192.5 317,-192.5 317,4 -4,4"/>
<!-- Node1 -->
<g id="node1" class="node">
<title>Node1</title>
<g id="a_node1"><a xlink:title=" ">
<polygon fill="#bfbfbf" stroke="black" points="0,-84 0,-114 155,-114 155,-84 0,-84"/>
<text text-anchor="start" x="8" y="-102" font-family="Helvetica,sans-Serif" font-size="10.00">automaton::core::script</text>
<text text-anchor="middle" x="77.5" y="-91" font-family="Helvetica,sans-Serif" font-size="10.00">::module::check_implementation</text>
</a>
</g>
</g>
<!-- Node2 -->
<g id="node2" class="node">
<title>Node2</title>
<g id="a_node2"><a xlink:href="../../d5/db0/classautomaton_1_1core_1_1script_1_1registry.html#abe2e84e7ddda3ad97263c936c5235319" target="_top" xlink:title=" ">
<polygon fill="white" stroke="black" points="195,-158 195,-188 309,-188 309,-158 195,-158"/>
<text text-anchor="start" x="203" y="-176" font-family="Helvetica,sans-Serif" font-size="10.00">automaton::core::script</text>
<text text-anchor="middle" x="252" y="-165" font-family="Helvetica,sans-Serif" font-size="10.00">::registry::get_factory</text>
</a>
</g>
</g>
<!-- Node1&#45;&gt;Node2 -->
<g id="edge1" class="edge">
<title>Node1&#45;&gt;Node2</title>
<path fill="none" stroke="midnightblue" d="M111.83,-114.21C134.14,-124.29 164.22,-137.7 191,-149 195.06,-150.71 199.29,-152.47 203.54,-154.21"/>
<polygon fill="midnightblue" stroke="midnightblue" points="202.24,-157.46 212.82,-157.98 204.88,-150.97 202.24,-157.46"/>
</g>
<!-- Node3 -->
<g id="node3" class="node">
<title>Node3</title>
<g id="a_node3"><a xlink:href="../../d2/d94/classautomaton_1_1core_1_1data_1_1factory.html#a839850666943ce90bbd055a9d819e106" target="_top" xlink:title=" ">
<polygon fill="white" stroke="black" points="191.5,-109 191.5,-139 312.5,-139 312.5,-109 191.5,-109"/>
<text text-anchor="start" x="199.5" y="-127" font-family="Helvetica,sans-Serif" font-size="10.00">automaton::core::data</text>
<text text-anchor="middle" x="252" y="-116" font-family="Helvetica,sans-Serif" font-size="10.00">::factory::get_schema_id</text>
</a>
</g>
</g>
<!-- Node1&#45;&gt;Node3 -->
<g id="edge2" class="edge">
<title>Node1&#45;&gt;Node3</title>
<path fill="none" stroke="midnightblue" d="M155.17,-110.11C163.9,-111.38 172.76,-112.66 181.39,-113.91"/>
<polygon fill="midnightblue" stroke="midnightblue" points="181,-117.39 191.4,-115.36 182,-110.46 181,-117.39"/>
</g>
<!-- Node4 -->
<g id="node4" class="node">
<title>Node4</title>
<g id="a_node4"><a xlink:href="../../d5/db0/classautomaton_1_1core_1_1script_1_1registry.html#a174da25e2814ea7ce9bbc9a95ab58d52" target="_top" xlink:title=" ">
<polygon fill="white" stroke="black" points="195,-60 195,-90 309,-90 309,-60 195,-60"/>
<text text-anchor="start" x="203" y="-78" font-family="Helvetica,sans-Serif" font-size="10.00">automaton::core::script</text>
<text text-anchor="middle" x="252" y="-67" font-family="Helvetica,sans-Serif" font-size="10.00">::registry::instance</text>
</a>
</g>
</g>
<!-- Node1&#45;&gt;Node4 -->
<g id="edge3" class="edge">
<title>Node1&#45;&gt;Node4</title>
<path fill="none" stroke="midnightblue" d="M155.17,-88.33C165.05,-86.96 175.1,-85.56 184.8,-84.21"/>
<polygon fill="midnightblue" stroke="midnightblue" points="185.33,-87.67 194.75,-82.83 184.37,-80.74 185.33,-87.67"/>
</g>
<!-- Node5 -->
<g id="node5" class="node">
<title>Node5</title>
<g id="a_node5"><a xlink:href="../../db/d61/classautomaton_1_1core_1_1script_1_1module.html#a8040b76fc1f760b50cd8e374675f6e36" target="_top" xlink:title=" ">
<polygon fill="white" stroke="black" points="191,-0.5 191,-41.5 313,-41.5 313,-0.5 191,-0.5"/>
<text text-anchor="start" x="199" y="-29.5" font-family="Helvetica,sans-Serif" font-size="10.00">automaton::core::script</text>
<text text-anchor="start" x="199" y="-18.5" font-family="Helvetica,sans-Serif" font-size="10.00">::module::name_with_api</text>
<text text-anchor="middle" x="252" y="-7.5" font-family="Helvetica,sans-Serif" font-size="10.00">_version</text>
</a>
</g>
</g>
<!-- Node1&#45;&gt;Node5 -->
<g id="edge4" class="edge">
<title>Node1&#45;&gt;Node5</title>
<path fill="none" stroke="midnightblue" d="M111.76,-83.96C135.68,-73.14 168.49,-58.31 196.25,-45.76"/>
<polygon fill="midnightblue" stroke="midnightblue" points="197.78,-48.9 205.45,-41.6 194.9,-42.53 197.78,-48.9"/>
</g>
</g>
</svg>
