<?xml version="1.0" encoding="UTF-8" standalone="no"?>
<!DOCTYPE svg PUBLIC "-//W3C//DTD SVG 1.1//EN"
 "http://www.w3.org/Graphics/SVG/1.1/DTD/svg11.dtd">
<!-- Generated by graphviz version 2.44.0 ()
 -->
<!-- Title: automaton::core::script::module::add_dependency Pages: 1 -->
<svg width="296pt" height="99pt"
 viewBox="0.00 0.00 296.00 98.50" xmlns="http://www.w3.org/2000/svg" xmlns:xlink="http://www.w3.org/1999/xlink">
<g id="graph0" class="graph" transform="scale(1 1) rotate(0) translate(4 94.5)">
<title>automaton::core::script::module::add_dependency</title>
<polygon fill="white" stroke="transparent" points="-4,4 -4,-94.5 292,-94.5 292,4 -4,4"/>
<!-- Node1 -->
<g id="node1" class="node">
<title>Node1</title>
<g id="a_node1"><a xlink:title=" ">
<polygon fill="#bfbfbf" stroke="black" points="0,-33 0,-63 130,-63 130,-33 0,-33"/>
<text text-anchor="start" x="8" y="-51" font-family="Helvetica,sans-Serif" font-size="10.00">automaton::core::script</text>
<text text-anchor="middle" x="65" y="-40" font-family="Helvetica,sans-Serif" font-size="10.00">::module::add_dependency</text>
</a>
</g>
</g>
<!-- Node2 -->
<g id="node2" class="node">
<title>Node2</title>
<g id="a_node2"><a xlink:href="../../db/d61/classautomaton_1_1core_1_1script_1_1module.html#ab3263118774e45e31eec600b53c0ab4e" target="_top" xlink:title=" ">
<polygon fill="white" stroke="black" points="170,-60 170,-90 284,-90 284,-60 170,-60"/>
<text text-anchor="start" x="178" y="-78" font-family="Helvetica,sans-Serif" font-size="10.00">automaton::core::script</text>
<text text-anchor="middle" x="227" y="-67" font-family="Helvetica,sans-Serif" font-size="10.00">::module::api_version</text>
</a>
</g>
</g>
<!-- Node1&#45;&gt;Node2 -->
<g id="edge1" class="edge">
<title>Node1&#45;&gt;Node2</title>
<path fill="none" stroke="midnightblue" d="M130.16,-58.83C139.9,-60.47 149.97,-62.17 159.76,-63.82"/>
<polygon fill="midnightblue" stroke="midnightblue" points="159.38,-67.31 169.83,-65.52 160.55,-60.41 159.38,-67.31"/>
</g>
<!-- Node3 -->
<g id="node3" class="node">
<title>Node3</title>
<g id="a_node3"><a xlink:href="../../db/d61/classautomaton_1_1core_1_1script_1_1module.html#a8040b76fc1f760b50cd8e374675f6e36" target="_top" xlink:title=" ">
<polygon fill="white" stroke="black" points="166,-0.5 166,-41.5 288,-41.5 288,-0.5 166,-0.5"/>
<text text-anchor="start" x="174" y="-29.5" font-family="Helvetica,sans-Serif" font-size="10.00">automaton::core::script</text>
<text text-anchor="start" x="174" y="-18.5" font-family="Helvetica,sans-Serif" font-size="10.00">::module::name_with_api</text>
<text text-anchor="middle" x="227" y="-7.5" font-family="Helvetica,sans-Serif" font-size="10.00">_version</text>
</a>
</g>
</g>
<!-- Node1&#45;&gt;Node3 -->
<g id="edge2" class="edge">
<title>Node1&#45;&gt;Node3</title>
<path fill="none" stroke="midnightblue" d="M130.16,-37.17C138.65,-35.74 147.4,-34.26 155.99,-32.81"/>
<polygon fill="midnightblue" stroke="midnightblue" points="156.7,-36.24 165.98,-31.13 155.54,-29.34 156.7,-36.24"/>
</g>
</g>
</svg>
