<?xml version="1.0" encoding="UTF-8" standalone="no"?>
<!DOCTYPE svg PUBLIC "-//W3C//DTD SVG 1.1//EN"
 "http://www.w3.org/Graphics/SVG/1.1/DTD/svg11.dtd">
<!-- Generated by graphviz version 2.42.3 ()
 -->
<!-- Title: automaton::core::script::module::name_with_api_version Pages: 1 -->
<svg width="321pt" height="137pt"
 viewBox="0.00 0.00 321.00 137.00" xmlns="http://www.w3.org/2000/svg" xmlns:xlink="http://www.w3.org/1999/xlink">
<g id="graph0" class="graph" transform="scale(1 1) rotate(0) translate(4 133)">
<title>automaton::core::script::module::name_with_api_version</title>
<polygon fill="white" stroke="transparent" points="-4,4 -4,-133 317,-133 317,4 -4,4"/>
<!-- Node1 -->
<g id="node1" class="node">
<title>Node1</title>
<g id="a_node1"><a xlink:title=" ">
<polygon fill="#bfbfbf" stroke="black" points="191,-44 191,-85 313,-85 313,-44 191,-44"/>
<text text-anchor="start" x="199" y="-73" font-family="Helvetica,sans-Serif" font-size="10.00">automaton::core::script</text>
<text text-anchor="start" x="199" y="-62" font-family="Helvetica,sans-Serif" font-size="10.00">::module::name_with_api</text>
<text text-anchor="middle" x="252" y="-51" font-family="Helvetica,sans-Serif" font-size="10.00">_version</text>
</a>
</g>
</g>
<!-- Node2 -->
<g id="node2" class="node">
<title>Node2</title>
<g id="a_node2"><a xlink:href="../../db/d61/classautomaton_1_1core_1_1script_1_1module.html#a136a833c4559cd72465c4fbf5d000b7c" target="_top" xlink:title=" ">
<polygon fill="white" stroke="black" points="12.5,-98.5 12.5,-128.5 142.5,-128.5 142.5,-98.5 12.5,-98.5"/>
<text text-anchor="start" x="20.5" y="-116.5" font-family="Helvetica,sans-Serif" font-size="10.00">automaton::core::script</text>
<text text-anchor="middle" x="77.5" y="-105.5" font-family="Helvetica,sans-Serif" font-size="10.00">::module::add_dependency</text>
</a>
</g>
</g>
<!-- Node1&#45;&gt;Node2 -->
<g id="edge1" class="edge">
<title>Node1&#45;&gt;Node2</title>
<path fill="none" stroke="midnightblue" d="M181.02,-84.38C164.43,-89.09 147.01,-94.04 131.33,-98.49"/>
<polygon fill="midnightblue" stroke="midnightblue" points="182,-87.74 190.67,-81.64 180.09,-81 182,-87.74"/>
</g>
<!-- Node3 -->
<g id="node3" class="node">
<title>Node3</title>
<g id="a_node3"><a xlink:href="../../db/d61/classautomaton_1_1core_1_1script_1_1module.html#a1e8c6382f79518c7903084c64304f316" target="_top" xlink:title=" ">
<polygon fill="white" stroke="black" points="17.5,-49.5 17.5,-79.5 137.5,-79.5 137.5,-49.5 17.5,-49.5"/>
<text text-anchor="start" x="25.5" y="-67.5" font-family="Helvetica,sans-Serif" font-size="10.00">automaton::core::script</text>
<text text-anchor="middle" x="77.5" y="-56.5" font-family="Helvetica,sans-Serif" font-size="10.00">::module::bind_schemas</text>
</a>
</g>
</g>
<!-- Node1&#45;&gt;Node3 -->
<g id="edge2" class="edge">
<title>Node1&#45;&gt;Node3</title>
<path fill="none" stroke="midnightblue" d="M180.44,-64.5C166.22,-64.5 151.41,-64.5 137.63,-64.5"/>
<polygon fill="midnightblue" stroke="midnightblue" points="180.67,-68 190.67,-64.5 180.67,-61 180.67,-68"/>
</g>
<!-- Node4 -->
<g id="node4" class="node">
<title>Node4</title>
<g id="a_node4"><a xlink:href="../../db/d61/classautomaton_1_1core_1_1script_1_1module.html#a4989dd95f323d389ee5040453090b386" target="_top" xlink:title=" ">
<polygon fill="white" stroke="black" points="0,-0.5 0,-30.5 155,-30.5 155,-0.5 0,-0.5"/>
<text text-anchor="start" x="8" y="-18.5" font-family="Helvetica,sans-Serif" font-size="10.00">automaton::core::script</text>
<text text-anchor="middle" x="77.5" y="-7.5" font-family="Helvetica,sans-Serif" font-size="10.00">::module::check_implementation</text>
</a>
</g>
</g>
<!-- Node1&#45;&gt;Node4 -->
<g id="edge3" class="edge">
<title>Node1&#45;&gt;Node4</title>
<path fill="none" stroke="midnightblue" d="M181.02,-44.62C164.43,-39.91 147.01,-34.96 131.33,-30.51"/>
<polygon fill="midnightblue" stroke="midnightblue" points="180.09,-48 190.67,-47.36 182,-41.26 180.09,-48"/>
</g>
</g>
</svg>
