<?xml version="1.0" encoding="UTF-8" standalone="no"?>
<!DOCTYPE svg PUBLIC "-//W3C//DTD SVG 1.1//EN"
 "http://www.w3.org/Graphics/SVG/1.1/DTD/svg11.dtd">
<!-- Generated by graphviz version 2.42.3 ()
 -->
<!-- Title: automaton::core::script::module::bind_schemas Pages: 1 -->
<svg width="301pt" height="365pt"
 viewBox="0.00 0.00 301.00 364.50" xmlns="http://www.w3.org/2000/svg" xmlns:xlink="http://www.w3.org/1999/xlink">
<g id="graph0" class="graph" transform="scale(1 1) rotate(0) translate(4 360.5)">
<title>automaton::core::script::module::bind_schemas</title>
<polygon fill="white" stroke="transparent" points="-4,4 -4,-360.5 297,-360.5 297,4 -4,4"/>
<!-- Node1 -->
<g id="node1" class="node">
<title>Node1</title>
<g id="a_node1"><a xlink:title=" ">
<polygon fill="#bfbfbf" stroke="black" points="0,-158 0,-188 120,-188 120,-158 0,-158"/>
<text text-anchor="start" x="8" y="-176" font-family="Helvetica,sans-Serif" font-size="10.00">automaton::core::script</text>
<text text-anchor="middle" x="60" y="-165" font-family="Helvetica,sans-Serif" font-size="10.00">::module::bind_schemas</text>
</a>
</g>
</g>
<!-- Node2 -->
<g id="node2" class="node">
<title>Node2</title>
<g id="a_node2"><a xlink:href="../../d5/db0/classautomaton_1_1core_1_1script_1_1registry.html#abe2e84e7ddda3ad97263c936c5235319" target="_top" xlink:title=" ">
<polygon fill="white" stroke="black" points="167.5,-326 167.5,-356 281.5,-356 281.5,-326 167.5,-326"/>
<text text-anchor="start" x="175.5" y="-344" font-family="Helvetica,sans-Serif" font-size="10.00">automaton::core::script</text>
<text text-anchor="middle" x="224.5" y="-333" font-family="Helvetica,sans-Serif" font-size="10.00">::registry::get_factory</text>
</a>
</g>
</g>
<!-- Node1&#45;&gt;Node2 -->
<g id="edge1" class="edge">
<title>Node1&#45;&gt;Node2</title>
<path fill="none" stroke="midnightblue" d="M67.16,-188.39C79.61,-217.61 110.5,-281.35 156,-317 157.79,-318.4 159.67,-319.73 161.61,-320.98"/>
<polygon fill="midnightblue" stroke="midnightblue" points="160.07,-324.13 170.5,-326 163.52,-318.03 160.07,-324.13"/>
</g>
<!-- Node3 -->
<g id="node3" class="node">
<title>Node3</title>
<g id="a_node3"><a xlink:href="../../d2/d94/classautomaton_1_1core_1_1data_1_1factory.html#a55ab1c947b52e890e10cef33654de70a" target="_top" xlink:title=" ">
<polygon fill="white" stroke="black" points="167.5,-266.5 167.5,-307.5 281.5,-307.5 281.5,-266.5 167.5,-266.5"/>
<text text-anchor="start" x="175.5" y="-295.5" font-family="Helvetica,sans-Serif" font-size="10.00">automaton::core::data</text>
<text text-anchor="start" x="175.5" y="-284.5" font-family="Helvetica,sans-Serif" font-size="10.00">::factory::get_nested</text>
<text text-anchor="middle" x="224.5" y="-273.5" font-family="Helvetica,sans-Serif" font-size="10.00">_message_schema_id</text>
</a>
</g>
</g>
<!-- Node1&#45;&gt;Node3 -->
<g id="edge2" class="edge">
<title>Node1&#45;&gt;Node3</title>
<path fill="none" stroke="midnightblue" d="M75.3,-188.22C92.95,-206.36 124.51,-236.77 156,-257 158.43,-258.56 160.95,-260.08 163.53,-261.55"/>
<polygon fill="midnightblue" stroke="midnightblue" points="162.02,-264.71 172.49,-266.36 165.33,-258.54 162.02,-264.71"/>
</g>
<!-- Node4 -->
<g id="node4" class="node">
<title>Node4</title>
<g id="a_node4"><a xlink:href="../../d2/d94/classautomaton_1_1core_1_1data_1_1factory.html#ade8715b4e98c8d146e58ac1ba16d1242" target="_top" xlink:title=" ">
<polygon fill="white" stroke="black" points="170,-206.5 170,-247.5 279,-247.5 279,-206.5 170,-206.5"/>
<text text-anchor="start" x="178" y="-235.5" font-family="Helvetica,sans-Serif" font-size="10.00">automaton::core::data</text>
<text text-anchor="start" x="178" y="-224.5" font-family="Helvetica,sans-Serif" font-size="10.00">::factory::get_nested</text>
<text text-anchor="middle" x="224.5" y="-213.5" font-family="Helvetica,sans-Serif" font-size="10.00">_messages_number</text>
</a>
</g>
</g>
<!-- Node1&#45;&gt;Node4 -->
<g id="edge3" class="edge">
<title>Node1&#45;&gt;Node4</title>
<path fill="none" stroke="midnightblue" d="M106.27,-188.04C122.91,-193.57 142.07,-199.94 160.02,-205.9"/>
<polygon fill="midnightblue" stroke="midnightblue" points="159.24,-209.34 169.84,-209.17 161.45,-202.69 159.24,-209.34"/>
</g>
<!-- Node5 -->
<g id="node5" class="node">
<title>Node5</title>
<g id="a_node5"><a xlink:href="../../d2/d94/classautomaton_1_1core_1_1data_1_1factory.html#a839850666943ce90bbd055a9d819e106" target="_top" xlink:title=" ">
<polygon fill="white" stroke="black" points="164,-158 164,-188 285,-188 285,-158 164,-158"/>
<text text-anchor="start" x="172" y="-176" font-family="Helvetica,sans-Serif" font-size="10.00">automaton::core::data</text>
<text text-anchor="middle" x="224.5" y="-165" font-family="Helvetica,sans-Serif" font-size="10.00">::factory::get_schema_id</text>
</a>
</g>
</g>
<!-- Node1&#45;&gt;Node5 -->
<g id="edge4" class="edge">
<title>Node1&#45;&gt;Node5</title>
<path fill="none" stroke="midnightblue" d="M120.13,-173C131.03,-173 142.52,-173 153.71,-173"/>
<polygon fill="midnightblue" stroke="midnightblue" points="153.87,-176.5 163.87,-173 153.87,-169.5 153.87,-176.5"/>
</g>
<!-- Node6 -->
<g id="node6" class="node">
<title>Node6</title>
<g id="a_node6"><a xlink:href="../../d2/d94/classautomaton_1_1core_1_1data_1_1factory.html#ac4bce9d9d2a493483d0c34337733eb58" target="_top" xlink:title=" ">
<polygon fill="white" stroke="black" points="156,-109 156,-139 293,-139 293,-109 156,-109"/>
<text text-anchor="start" x="164" y="-127" font-family="Helvetica,sans-Serif" font-size="10.00">automaton::core::data</text>
<text text-anchor="middle" x="224.5" y="-116" font-family="Helvetica,sans-Serif" font-size="10.00">::factory::get_schema_name</text>
</a>
</g>
</g>
<!-- Node1&#45;&gt;Node6 -->
<g id="edge5" class="edge">
<title>Node1&#45;&gt;Node6</title>
<path fill="none" stroke="midnightblue" d="M111.08,-157.9C127.69,-152.89 146.34,-147.27 163.6,-142.06"/>
<polygon fill="midnightblue" stroke="midnightblue" points="165.02,-145.29 173.58,-139.05 163,-138.59 165.02,-145.29"/>
</g>
<!-- Node7 -->
<g id="node7" class="node">
<title>Node7</title>
<g id="a_node7"><a xlink:href="../../d5/db0/classautomaton_1_1core_1_1script_1_1registry.html#a174da25e2814ea7ce9bbc9a95ab58d52" target="_top" xlink:title=" ">
<polygon fill="white" stroke="black" points="167.5,-60 167.5,-90 281.5,-90 281.5,-60 167.5,-60"/>
<text text-anchor="start" x="175.5" y="-78" font-family="Helvetica,sans-Serif" font-size="10.00">automaton::core::script</text>
<text text-anchor="middle" x="224.5" y="-67" font-family="Helvetica,sans-Serif" font-size="10.00">::registry::instance</text>
</a>
</g>
</g>
<!-- Node1&#45;&gt;Node7 -->
<g id="edge6" class="edge">
<title>Node1&#45;&gt;Node7</title>
<path fill="none" stroke="midnightblue" d="M77.42,-157.89C95.55,-141.82 126.15,-116.5 156,-100 159.69,-97.96 163.58,-96.02 167.56,-94.2"/>
<polygon fill="midnightblue" stroke="midnightblue" points="169.14,-97.33 176.93,-90.15 166.36,-90.9 169.14,-97.33"/>
</g>
<!-- Node8 -->
<g id="node8" class="node">
<title>Node8</title>
<g id="a_node8"><a xlink:href="../../db/d61/classautomaton_1_1core_1_1script_1_1module.html#a8040b76fc1f760b50cd8e374675f6e36" target="_top" xlink:title=" ">
<polygon fill="white" stroke="black" points="163.5,-0.5 163.5,-41.5 285.5,-41.5 285.5,-0.5 163.5,-0.5"/>
<text text-anchor="start" x="171.5" y="-29.5" font-family="Helvetica,sans-Serif" font-size="10.00">automaton::core::script</text>
<text text-anchor="start" x="171.5" y="-18.5" font-family="Helvetica,sans-Serif" font-size="10.00">::module::name_with_api</text>
<text text-anchor="middle" x="224.5" y="-7.5" font-family="Helvetica,sans-Serif" font-size="10.00">_version</text>
</a>
</g>
</g>
<!-- Node1&#45;&gt;Node8 -->
<g id="edge7" class="edge">
<title>Node1&#45;&gt;Node8</title>
<path fill="none" stroke="midnightblue" d="M69.37,-157.93C83.99,-132.77 116.46,-81.92 156,-51 157.76,-49.62 159.6,-48.29 161.5,-47.01"/>
<polygon fill="midnightblue" stroke="midnightblue" points="163.43,-49.93 170.09,-41.69 159.75,-43.97 163.43,-49.93"/>
</g>
</g>
</svg>
