<?xml version="1.0" encoding="UTF-8" standalone="no"?>
<!DOCTYPE svg PUBLIC "-//W3C//DTD SVG 1.1//EN"
 "http://www.w3.org/Graphics/SVG/1.1/DTD/svg11.dtd">
<!-- Generated by graphviz version 2.44.0 ()
 -->
<!-- Title: automaton::core::crypto::cryptopp::Keccak_256_cryptopp::calculate_digest Pages: 1 -->
<svg width="660pt" height="230pt"
 viewBox="0.00 0.00 660.00 230.00" xmlns="http://www.w3.org/2000/svg" xmlns:xlink="http://www.w3.org/1999/xlink">
<g id="graph0" class="graph" transform="scale(1 1) rotate(0) translate(4 226)">
<title>automaton::core::crypto::cryptopp::Keccak_256_cryptopp::calculate_digest</title>
<polygon fill="white" stroke="transparent" points="-4,4 -4,-226 656,-226 656,4 -4,4"/>
<!-- Node1 -->
<g id="node1" class="node">
<title>Node1</title>
<g id="a_node1"><a xlink:title=" ">
<polygon fill="#bfbfbf" stroke="black" points="518,-114.5 518,-155.5 652,-155.5 652,-114.5 518,-114.5"/>
<text text-anchor="start" x="526" y="-143.5" font-family="Helvetica,sans-Serif" font-size="10.00">automaton::core::crypto</text>
<text text-anchor="start" x="526" y="-132.5" font-family="Helvetica,sans-Serif" font-size="10.00">::cryptopp::Keccak_256</text>
<text text-anchor="middle" x="585" y="-121.5" font-family="Helvetica,sans-Serif" font-size="10.00">_cryptopp::calculate_digest</text>
</a>
</g>
</g>
<!-- Node2 -->
<g id="node2" class="node">
<title>Node2</title>
<g id="a_node2"><a xlink:href="../../db/d80/namespaceautomaton_1_1core_1_1eth__contract.html#afaf132120e2eb48ed79cab868d8e74b6" target="_top" xlink:title=" ">
<polygon fill="white" stroke="black" points="370.5,-165 370.5,-195 474.5,-195 474.5,-165 370.5,-165"/>
<text text-anchor="start" x="378.5" y="-183" font-family="Helvetica,sans-Serif" font-size="10.00">automaton::core::eth</text>
<text text-anchor="middle" x="422.5" y="-172" font-family="Helvetica,sans-Serif" font-size="10.00">_contract::hash</text>
</a>
</g>
</g>
<!-- Node1&#45;&gt;Node2 -->
<g id="edge1" class="edge">
<title>Node1&#45;&gt;Node2</title>
<path fill="none" stroke="midnightblue" d="M507.98,-156.32C496.75,-159.46 485.41,-162.64 474.85,-165.6"/>
<polygon fill="midnightblue" stroke="midnightblue" points="509.11,-159.63 517.79,-153.56 507.22,-152.89 509.11,-159.63"/>
</g>
<!-- Node4 -->
<g id="node4" class="node">
<title>Node4</title>
<g id="a_node4"><a xlink:href="../../d2/d91/namespaceautomaton_1_1core_1_1interop_1_1ethereum.html#acedced20e741715b96a13a0bc4b41ebf" target="_top" xlink:title=" ">
<polygon fill="white" stroke="black" points="363,-96 363,-126 482,-126 482,-96 363,-96"/>
<text text-anchor="start" x="371" y="-114" font-family="Helvetica,sans-Serif" font-size="10.00">automaton::core::interop</text>
<text text-anchor="middle" x="422.5" y="-103" font-family="Helvetica,sans-Serif" font-size="10.00">::ethereum::hash</text>
</a>
</g>
</g>
<!-- Node1&#45;&gt;Node4 -->
<g id="edge3" class="edge">
<title>Node1&#45;&gt;Node4</title>
<path fill="none" stroke="midnightblue" d="M507.73,-123.6C499.12,-122.31 490.45,-121.01 482.11,-119.76"/>
<polygon fill="midnightblue" stroke="midnightblue" points="507.38,-127.08 517.79,-125.1 508.42,-120.16 507.38,-127.08"/>
</g>
<!-- Node3 -->
<g id="node3" class="node">
<title>Node3</title>
<g id="a_node3"><a xlink:href="../../dc/d2a/classautomaton_1_1core_1_1state_1_1state__persistent_1_1node.html#a629f483af5d7c9c73de0df09aa0b5fc8" target="_top" xlink:title=" ">
<polygon fill="white" stroke="black" points="193.5,-180.5 193.5,-221.5 309.5,-221.5 309.5,-180.5 193.5,-180.5"/>
<text text-anchor="start" x="201.5" y="-209.5" font-family="Helvetica,sans-Serif" font-size="10.00">automaton::core::state</text>
<text text-anchor="start" x="201.5" y="-198.5" font-family="Helvetica,sans-Serif" font-size="10.00">::state_persistent::node</text>
<text text-anchor="middle" x="251.5" y="-187.5" font-family="Helvetica,sans-Serif" font-size="10.00">::set_hash</text>
</a>
</g>
</g>
<!-- Node2&#45;&gt;Node3 -->
<g id="edge2" class="edge">
<title>Node2&#45;&gt;Node3</title>
<path fill="none" stroke="midnightblue" d="M360.25,-187.61C343.75,-189.66 325.96,-191.87 309.69,-193.89"/>
<polygon fill="midnightblue" stroke="midnightblue" points="360.84,-191.06 370.34,-186.36 359.98,-184.12 360.84,-191.06"/>
</g>
<!-- Node5 -->
<g id="node5" class="node">
<title>Node5</title>
<g id="a_node5"><a xlink:href="../../d2/d91/namespaceautomaton_1_1core_1_1interop_1_1ethereum.html#a2fe1212849a89d9403353fefbceac174" target="_top" xlink:title=" ">
<polygon fill="white" stroke="black" points="192,-120.5 192,-161.5 311,-161.5 311,-120.5 192,-120.5"/>
<text text-anchor="start" x="200" y="-149.5" font-family="Helvetica,sans-Serif" font-size="10.00">automaton::core::interop</text>
<text text-anchor="start" x="200" y="-138.5" font-family="Helvetica,sans-Serif" font-size="10.00">::ethereum::get_address</text>
<text text-anchor="middle" x="251.5" y="-127.5" font-family="Helvetica,sans-Serif" font-size="10.00">_from_prkey</text>
</a>
</g>
</g>
<!-- Node4&#45;&gt;Node5 -->
<g id="edge4" class="edge">
<title>Node4&#45;&gt;Node5</title>
<path fill="none" stroke="midnightblue" d="M352.89,-123.18C339,-125.64 324.53,-128.21 311.03,-130.61"/>
<polygon fill="midnightblue" stroke="midnightblue" points="353.63,-126.6 362.87,-121.41 352.41,-119.71 353.63,-126.6"/>
</g>
<!-- Node7 -->
<g id="node7" class="node">
<title>Node7</title>
<g id="a_node7"><a xlink:href="../../d2/d91/namespaceautomaton_1_1core_1_1interop_1_1ethereum.html#a793812509ea7e7b32b737862ab3dfad8" target="_top" xlink:title=" ">
<polygon fill="white" stroke="black" points="176,-60.5 176,-101.5 327,-101.5 327,-60.5 176,-60.5"/>
<text text-anchor="start" x="184" y="-89.5" font-family="Helvetica,sans-Serif" font-size="10.00">automaton::core::interop</text>
<text text-anchor="start" x="184" y="-78.5" font-family="Helvetica,sans-Serif" font-size="10.00">::ethereum::secp256k1_recover</text>
<text text-anchor="middle" x="251.5" y="-67.5" font-family="Helvetica,sans-Serif" font-size="10.00">_address</text>
</a>
</g>
</g>
<!-- Node4&#45;&gt;Node7 -->
<g id="edge6" class="edge">
<title>Node4&#45;&gt;Node7</title>
<path fill="none" stroke="midnightblue" d="M352.99,-98.84C344.46,-97.32 335.71,-95.77 327.11,-94.24"/>
<polygon fill="midnightblue" stroke="midnightblue" points="352.41,-102.29 362.87,-100.59 353.63,-95.4 352.41,-102.29"/>
</g>
<!-- Node8 -->
<g id="node8" class="node">
<title>Node8</title>
<g id="a_node8"><a xlink:href="../../dd/da0/classautomaton_1_1core_1_1interop_1_1ethereum_1_1eth__transaction.html#abe1d02f403b67b699353c9a180c0cb2e" target="_top" xlink:title=" ">
<polygon fill="white" stroke="black" points="185,-0.5 185,-41.5 318,-41.5 318,-0.5 185,-0.5"/>
<text text-anchor="start" x="193" y="-29.5" font-family="Helvetica,sans-Serif" font-size="10.00">automaton::core::interop</text>
<text text-anchor="start" x="193" y="-18.5" font-family="Helvetica,sans-Serif" font-size="10.00">::ethereum::eth_transaction</text>
<text text-anchor="middle" x="251.5" y="-7.5" font-family="Helvetica,sans-Serif" font-size="10.00">::sign_tx</text>
</a>
</g>
</g>
<!-- Node4&#45;&gt;Node8 -->
<g id="edge7" class="edge">
<title>Node4&#45;&gt;Node8</title>
<path fill="none" stroke="midnightblue" d="M391.59,-90.02C373.41,-77.77 349.44,-62.52 327,-51 320.67,-47.75 313.91,-44.61 307.14,-41.66"/>
<polygon fill="midnightblue" stroke="midnightblue" points="389.79,-93.03 400.02,-95.76 393.73,-87.24 389.79,-93.03"/>
</g>
<!-- Node6 -->
<g id="node6" class="node">
<title>Node6</title>
<g id="a_node6"><a xlink:href="../../d4/de7/classautomaton_1_1core_1_1interop_1_1ethereum_1_1eth__contract.html#a06c060597ef2f9c3255fa00e8b716460" target="_top" xlink:title=" ">
<polygon fill="white" stroke="black" points="0,-126 0,-156 140,-156 140,-126 0,-126"/>
<text text-anchor="start" x="8" y="-144" font-family="Helvetica,sans-Serif" font-size="10.00">automaton::core::interop</text>
<text text-anchor="middle" x="70" y="-133" font-family="Helvetica,sans-Serif" font-size="10.00">::ethereum::eth_contract::call</text>
</a>
</g>
</g>
<!-- Node5&#45;&gt;Node6 -->
<g id="edge5" class="edge">
<title>Node5&#45;&gt;Node6</title>
<path fill="none" stroke="midnightblue" d="M181.52,-141C167.98,-141 153.76,-141 140.21,-141"/>
<polygon fill="midnightblue" stroke="midnightblue" points="181.73,-144.5 191.72,-141 181.72,-137.5 181.73,-144.5"/>
</g>
<!-- Node9 -->
<g id="node9" class="node">
<title>Node9</title>
<g id="a_node9"><a xlink:href="../../d4/d57/eth__contract__curl__test_8cc.html#ae66f6b31b5ad750f1fe042a706a4e3d4" target="_top" xlink:title=" ">
<polygon fill="white" stroke="black" points="51,-11.5 51,-30.5 89,-30.5 89,-11.5 51,-11.5"/>
<text text-anchor="middle" x="70" y="-18.5" font-family="Helvetica,sans-Serif" font-size="10.00">main</text>
</a>
</g>
</g>
<!-- Node8&#45;&gt;Node9 -->
<g id="edge8" class="edge">
<title>Node8&#45;&gt;Node9</title>
<path fill="none" stroke="midnightblue" d="M174.78,-21C143.16,-21 109.17,-21 89.01,-21"/>
<polygon fill="midnightblue" stroke="midnightblue" points="174.93,-24.5 184.93,-21 174.93,-17.5 174.93,-24.5"/>
</g>
</g>
</svg>
