<?xml version="1.0" encoding="UTF-8" standalone="no"?>
<!DOCTYPE svg PUBLIC "-//W3C//DTD SVG 1.1//EN"
 "http://www.w3.org/Graphics/SVG/1.1/DTD/svg11.dtd">
<!-- Generated by graphviz version 2.44.0 ()
 -->
<!-- Title: node.h Pages: 1 -->
<svg width="1175pt" height="352pt"
 viewBox="0.00 0.00 1174.50 352.00" xmlns="http://www.w3.org/2000/svg" xmlns:xlink="http://www.w3.org/1999/xlink">
<g id="graph0" class="graph" transform="scale(1 1) rotate(0) translate(4 348)">
<title>node.h</title>
<polygon fill="white" stroke="transparent" points="-4,4 -4,-348 1170.5,-348 1170.5,4 -4,4"/>
<!-- Node1 -->
<g id="node1" class="node">
<title>Node1</title>
<g id="a_node1"><a xlink:title=" ">
<polygon fill="#bfbfbf" stroke="black" points="422,-324.5 422,-343.5 467,-343.5 467,-324.5 422,-324.5"/>
<text text-anchor="middle" x="444.5" y="-331.5" font-family="Helvetica,sans-Serif" font-size="10.00">node.h</text>
</a>
</g>
</g>
<!-- Node2 -->
<g id="node2" class="node">
<title>Node2</title>
<g id="a_node2"><a xlink:title=" ">
<polygon fill="white" stroke="#bfbfbf" points="0,-263 0,-282 43,-282 43,-263 0,-263"/>
<text text-anchor="middle" x="21.5" y="-270" font-family="Helvetica,sans-Serif" font-size="10.00">deque</text>
</a>
</g>
</g>
<!-- Node1&#45;&gt;Node2 -->
<g id="edge1" class="edge">
<title>Node1&#45;&gt;Node2</title>
<path fill="none" stroke="midnightblue" d="M421.82,-333.03C360.72,-332.57 188.04,-327.58 51.5,-288 49.62,-287.46 47.72,-286.8 45.83,-286.08"/>
<polygon fill="midnightblue" stroke="midnightblue" points="47.24,-282.88 36.68,-282.06 44.42,-289.28 47.24,-282.88"/>
</g>
<!-- Node3 -->
<g id="node3" class="node">
<title>Node3</title>
<g id="a_node3"><a xlink:title=" ">
<polygon fill="white" stroke="#bfbfbf" points="61,-263 61,-282 120,-282 120,-263 61,-263"/>
<text text-anchor="middle" x="90.5" y="-270" font-family="Helvetica,sans-Serif" font-size="10.00">functional</text>
</a>
</g>
</g>
<!-- Node1&#45;&gt;Node3 -->
<g id="edge2" class="edge">
<title>Node1&#45;&gt;Node3</title>
<path fill="none" stroke="midnightblue" d="M421.94,-331.52C369.64,-327.72 236.34,-315.88 128.5,-288 125.68,-287.27 122.78,-286.4 119.9,-285.45"/>
<polygon fill="midnightblue" stroke="midnightblue" points="120.94,-282.11 110.34,-282.03 118.58,-288.7 120.94,-282.11"/>
</g>
<!-- Node4 -->
<g id="node4" class="node">
<title>Node4</title>
<g id="a_node4"><a xlink:title=" ">
<polygon fill="white" stroke="#bfbfbf" points="138,-263 138,-282 179,-282 179,-263 138,-263"/>
<text text-anchor="middle" x="158.5" y="-270" font-family="Helvetica,sans-Serif" font-size="10.00">future</text>
</a>
</g>
</g>
<!-- Node1&#45;&gt;Node4 -->
<g id="edge3" class="edge">
<title>Node1&#45;&gt;Node4</title>
<path fill="none" stroke="midnightblue" d="M421.97,-330.61C377.57,-325.54 275.92,-312.15 193.5,-288 191.21,-287.33 188.87,-286.56 186.53,-285.73"/>
<polygon fill="midnightblue" stroke="midnightblue" points="187.71,-282.43 177.12,-282.09 185.19,-288.96 187.71,-282.43"/>
</g>
<!-- Node5 -->
<g id="node5" class="node">
<title>Node5</title>
<g id="a_node5"><a xlink:title=" ">
<polygon fill="white" stroke="#bfbfbf" points="282,-0.5 282,-19.5 317,-19.5 317,-0.5 282,-0.5"/>
<text text-anchor="middle" x="299.5" y="-7.5" font-family="Helvetica,sans-Serif" font-size="10.00">map</text>
</a>
</g>
</g>
<!-- Node1&#45;&gt;Node5 -->
<g id="edge4" class="edge">
<title>Node1&#45;&gt;Node5</title>
<path fill="none" stroke="midnightblue" d="M421.92,-328.03C349.32,-310.59 122.92,-244.51 60.5,-87 55.42,-74.19 51.71,-66.61 60.5,-56 73.94,-39.79 211.61,-21.51 271.7,-14.24"/>
<polygon fill="midnightblue" stroke="midnightblue" points="272.12,-17.71 281.64,-13.05 271.29,-10.76 272.12,-17.71"/>
</g>
<!-- Node6 -->
<g id="node6" class="node">
<title>Node6</title>
<g id="a_node6"><a xlink:title=" ">
<polygon fill="white" stroke="#bfbfbf" points="435,-62 435,-81 486,-81 486,-62 435,-62"/>
<text text-anchor="middle" x="460.5" y="-69" font-family="Helvetica,sans-Serif" font-size="10.00">memory</text>
</a>
</g>
</g>
<!-- Node1&#45;&gt;Node6 -->
<g id="edge5" class="edge">
<title>Node1&#45;&gt;Node6</title>
<path fill="none" stroke="midnightblue" d="M445.03,-324.33C447.3,-287.48 456.15,-143.33 459.34,-91.33"/>
<polygon fill="midnightblue" stroke="midnightblue" points="462.85,-91.4 459.97,-81.2 455.86,-90.97 462.85,-91.4"/>
</g>
<!-- Node7 -->
<g id="node7" class="node">
<title>Node7</title>
<g id="a_node7"><a xlink:title=" ">
<polygon fill="white" stroke="#bfbfbf" points="1075,-263 1075,-282 1118,-282 1118,-263 1075,-263"/>
<text text-anchor="middle" x="1096.5" y="-270" font-family="Helvetica,sans-Serif" font-size="10.00">mutex</text>
</a>
</g>
</g>
<!-- Node1&#45;&gt;Node7 -->
<g id="edge6" class="edge">
<title>Node1&#45;&gt;Node7</title>
<path fill="none" stroke="midnightblue" d="M467.09,-332.29C563.9,-329.08 944.16,-314.98 1060.5,-288 1063.33,-287.34 1066.23,-286.5 1069.09,-285.54"/>
<polygon fill="midnightblue" stroke="midnightblue" points="1070.4,-288.79 1078.54,-282 1067.95,-282.23 1070.4,-288.79"/>
</g>
<!-- Node8 -->
<g id="node8" class="node">
<title>Node8</title>
<g id="a_node8"><a xlink:title=" ">
<polygon fill="white" stroke="#bfbfbf" points="1136.5,-263 1136.5,-282 1166.5,-282 1166.5,-263 1136.5,-263"/>
<text text-anchor="middle" x="1151.5" y="-270" font-family="Helvetica,sans-Serif" font-size="10.00">set</text>
</a>
</g>
</g>
<!-- Node1&#45;&gt;Node8 -->
<g id="edge7" class="edge">
<title>Node1&#45;&gt;Node8</title>
<path fill="none" stroke="midnightblue" d="M467.2,-332.94C570.93,-332.45 1000.25,-328.01 1127.5,-288 1128.57,-287.66 1129.64,-287.27 1130.7,-286.84"/>
<polygon fill="midnightblue" stroke="midnightblue" points="1132.58,-289.8 1139.83,-282.07 1129.35,-283.59 1132.58,-289.8"/>
</g>
<!-- Node9 -->
<g id="node9" class="node">
<title>Node9</title>
<g id="a_node9"><a xlink:title=" ">
<polygon fill="white" stroke="#bfbfbf" points="693,-0.5 693,-19.5 734,-19.5 734,-0.5 693,-0.5"/>
<text text-anchor="middle" x="713.5" y="-7.5" font-family="Helvetica,sans-Serif" font-size="10.00">string</text>
</a>
</g>
</g>
<!-- Node1&#45;&gt;Node9 -->
<g id="edge8" class="edge">
<title>Node1&#45;&gt;Node9</title>
<path fill="none" stroke="midnightblue" d="M467.02,-333.61C531.02,-334.71 718.78,-333.54 865.5,-288 925.33,-269.43 957.42,-274.8 989.5,-221 1054.11,-112.65 828.1,-40.99 743.89,-18.54"/>
<polygon fill="midnightblue" stroke="midnightblue" points="744.69,-15.13 734.13,-15.99 742.92,-21.9 744.69,-15.13"/>
</g>
<!-- Node10 -->
<g id="node10" class="node">
<title>Node10</title>
<g id="a_node10"><a xlink:title=" ">
<polygon fill="white" stroke="#bfbfbf" points="897,-196 897,-215 980,-215 980,-196 897,-196"/>
<text text-anchor="middle" x="938.5" y="-203" font-family="Helvetica,sans-Serif" font-size="10.00">unordered_map</text>
</a>
</g>
</g>
<!-- Node1&#45;&gt;Node10 -->
<g id="edge9" class="edge">
<title>Node1&#45;&gt;Node10</title>
<path fill="none" stroke="midnightblue" d="M467.04,-331.82C538.5,-327.86 759.24,-313.79 825.5,-288 864.13,-272.96 901.68,-241.53 922.29,-222.4"/>
<polygon fill="midnightblue" stroke="midnightblue" points="924.96,-224.69 929.8,-215.26 920.14,-219.61 924.96,-224.69"/>
</g>
<!-- Node11 -->
<g id="node11" class="node">
<title>Node11</title>
<g id="a_node11"><a xlink:title=" ">
<polygon fill="white" stroke="#bfbfbf" points="946.5,-0.5 946.5,-19.5 990.5,-19.5 990.5,-0.5 946.5,-0.5"/>
<text text-anchor="middle" x="968.5" y="-7.5" font-family="Helvetica,sans-Serif" font-size="10.00">vector</text>
</a>
</g>
</g>
<!-- Node1&#45;&gt;Node11 -->
<g id="edge10" class="edge">
<title>Node1&#45;&gt;Node11</title>
<path fill="none" stroke="midnightblue" d="M467,-333.17C576.29,-333.39 1046.5,-327.31 1046.5,-206.5 1046.5,-206.5 1046.5,-206.5 1046.5,-137.5 1046.5,-91.8 1009.16,-48.78 986.15,-26.61"/>
<polygon fill="midnightblue" stroke="midnightblue" points="988.4,-23.92 978.7,-19.67 983.63,-29.05 988.4,-23.92"/>
</g>
<!-- Node12 -->
<g id="node12" class="node">
<title>Node12</title>
<g id="a_node12"><a xlink:href="../../d1/d71/msg_8h.html" target="_top" xlink:title=" ">
<polygon fill="white" stroke="black" points="529.5,-123.5 529.5,-153.5 635.5,-153.5 635.5,-123.5 529.5,-123.5"/>
<text text-anchor="start" x="537.5" y="-141.5" font-family="Helvetica,sans-Serif" font-size="10.00">automaton/core/data</text>
<text text-anchor="middle" x="582.5" y="-130.5" font-family="Helvetica,sans-Serif" font-size="10.00">/msg.h</text>
</a>
</g>
</g>
<!-- Node1&#45;&gt;Node12 -->
<g id="edge11" class="edge">
<title>Node1&#45;&gt;Node12</title>
<path fill="none" stroke="midnightblue" d="M450.61,-324.44C470.82,-296.1 535.97,-204.75 566.47,-161.98"/>
<polygon fill="midnightblue" stroke="midnightblue" points="569.47,-163.8 572.42,-153.63 563.77,-159.74 569.47,-163.8"/>
</g>
<!-- Node14 -->
<g id="node14" class="node">
<title>Node14</title>
<g id="a_node14"><a xlink:href="../../d1/d31/acceptor_8h.html" target="_top" xlink:title=" ">
<polygon fill="white" stroke="black" points="195.5,-190.5 195.5,-220.5 317.5,-220.5 317.5,-190.5 195.5,-190.5"/>
<text text-anchor="start" x="203.5" y="-208.5" font-family="Helvetica,sans-Serif" font-size="10.00">automaton/core/network</text>
<text text-anchor="middle" x="256.5" y="-197.5" font-family="Helvetica,sans-Serif" font-size="10.00">/acceptor.h</text>
</a>
</g>
</g>
<!-- Node1&#45;&gt;Node14 -->
<g id="edge18" class="edge">
<title>Node1&#45;&gt;Node14</title>
<path fill="none" stroke="midnightblue" d="M430.51,-324.38C416.1,-315.45 393.07,-301.01 373.5,-288 342.79,-267.59 308.2,-243.33 284.65,-226.62"/>
<polygon fill="midnightblue" stroke="midnightblue" points="286.37,-223.55 276.19,-220.61 282.32,-229.26 286.37,-223.55"/>
</g>
<!-- Node18 -->
<g id="node18" class="node">
<title>Node18</title>
<g id="a_node18"><a xlink:href="../../d4/d67/connection_8h.html" target="_top" xlink:title=" ">
<polygon fill="white" stroke="black" points="237.5,-123.5 237.5,-153.5 359.5,-153.5 359.5,-123.5 237.5,-123.5"/>
<text text-anchor="start" x="245.5" y="-141.5" font-family="Helvetica,sans-Serif" font-size="10.00">automaton/core/network</text>
<text text-anchor="middle" x="298.5" y="-130.5" font-family="Helvetica,sans-Serif" font-size="10.00">/connection.h</text>
</a>
</g>
</g>
<!-- Node1&#45;&gt;Node18 -->
<g id="edge32" class="edge">
<title>Node1&#45;&gt;Node18</title>
<path fill="none" stroke="midnightblue" d="M438.04,-324.44C416.61,-296.04 347.44,-204.37 315.26,-161.71"/>
<polygon fill="midnightblue" stroke="midnightblue" points="317.98,-159.5 309.16,-153.63 312.39,-163.72 317.98,-159.5"/>
</g>
<!-- Node20 -->
<g id="node20" class="node">
<title>Node20</title>
<g id="a_node20"><a xlink:href="../../d5/dab/smart__protocol_8h.html" target="_top" xlink:title=" ">
<polygon fill="white" stroke="black" points="682.5,-257.5 682.5,-287.5 816.5,-287.5 816.5,-257.5 682.5,-257.5"/>
<text text-anchor="start" x="690.5" y="-275.5" font-family="Helvetica,sans-Serif" font-size="10.00">automaton/core/smartproto</text>
<text text-anchor="middle" x="749.5" y="-264.5" font-family="Helvetica,sans-Serif" font-size="10.00">/smart_protocol.h</text>
</a>
</g>
</g>
<!-- Node1&#45;&gt;Node20 -->
<g id="edge33" class="edge">
<title>Node1&#45;&gt;Node20</title>
<path fill="none" stroke="midnightblue" d="M467.42,-328.53C510.32,-320.16 604.48,-301.79 672.22,-288.58"/>
<polygon fill="midnightblue" stroke="midnightblue" points="673.29,-291.93 682.44,-286.58 671.95,-285.06 673.29,-291.93"/>
</g>
<!-- Node12&#45;&gt;Node6 -->
<g id="edge12" class="edge">
<title>Node12&#45;&gt;Node6</title>
<path fill="none" stroke="midnightblue" d="M556.03,-123.4C535.1,-112.24 506.07,-96.78 485.53,-85.83"/>
<polygon fill="midnightblue" stroke="midnightblue" points="486.94,-82.62 476.47,-81.01 483.65,-88.8 486.94,-82.62"/>
</g>
<!-- Node12&#45;&gt;Node9 -->
<g id="edge13" class="edge">
<title>Node12&#45;&gt;Node9</title>
<path fill="none" stroke="midnightblue" d="M597.02,-123.48C621.54,-99.8 671.03,-52.02 696.89,-27.04"/>
<polygon fill="midnightblue" stroke="midnightblue" points="699.64,-29.25 704.4,-19.79 694.77,-24.22 699.64,-29.25"/>
</g>
<!-- Node13 -->
<g id="node13" class="node">
<title>Node13</title>
<g id="a_node13"><a xlink:href="../../d7/de3/schema_8h.html" target="_top" xlink:title=" ">
<polygon fill="white" stroke="black" points="701.5,-56.5 701.5,-86.5 807.5,-86.5 807.5,-56.5 701.5,-56.5"/>
<text text-anchor="start" x="709.5" y="-74.5" font-family="Helvetica,sans-Serif" font-size="10.00">automaton/core/data</text>
<text text-anchor="middle" x="754.5" y="-63.5" font-family="Helvetica,sans-Serif" font-size="10.00">/schema.h</text>
</a>
</g>
</g>
<!-- Node12&#45;&gt;Node13 -->
<g id="edge14" class="edge">
<title>Node12&#45;&gt;Node13</title>
<path fill="none" stroke="midnightblue" d="M619.82,-123.4C645.63,-113.64 680.16,-100.59 707.79,-90.15"/>
<polygon fill="midnightblue" stroke="midnightblue" points="709.13,-93.39 717.25,-86.58 706.66,-86.84 709.13,-93.39"/>
</g>
<!-- Node13&#45;&gt;Node5 -->
<g id="edge15" class="edge">
<title>Node13&#45;&gt;Node5</title>
<path fill="none" stroke="midnightblue" d="M701.37,-63.06C684.76,-60.77 666.37,-58.25 649.5,-56 529.73,-40.03 386.77,-21.96 327.44,-14.5"/>
<polygon fill="midnightblue" stroke="midnightblue" points="327.71,-11.01 317.36,-13.24 326.84,-17.95 327.71,-11.01"/>
</g>
<!-- Node13&#45;&gt;Node9 -->
<g id="edge16" class="edge">
<title>Node13&#45;&gt;Node9</title>
<path fill="none" stroke="midnightblue" d="M744.78,-56.4C738.95,-47.93 731.48,-37.1 725.31,-28.14"/>
<polygon fill="midnightblue" stroke="midnightblue" points="728.02,-25.91 719.47,-19.66 722.26,-29.88 728.02,-25.91"/>
</g>
<!-- Node13&#45;&gt;Node11 -->
<g id="edge17" class="edge">
<title>Node13&#45;&gt;Node11</title>
<path fill="none" stroke="midnightblue" d="M804.94,-56.47C845.59,-45.17 901.53,-29.62 936.32,-19.95"/>
<polygon fill="midnightblue" stroke="midnightblue" points="937.71,-23.19 946.4,-17.14 935.83,-16.45 937.71,-23.19"/>
</g>
<!-- Node14&#45;&gt;Node5 -->
<g id="edge19" class="edge">
<title>Node14&#45;&gt;Node5</title>
<path fill="none" stroke="midnightblue" d="M230.36,-190.37C217.29,-181.76 202.76,-169.43 195.5,-154 189.64,-141.53 191.04,-136.03 195.5,-123 210.19,-80.11 251.6,-44.58 277.51,-25.69"/>
<polygon fill="midnightblue" stroke="midnightblue" points="279.82,-28.35 285.97,-19.72 275.78,-22.63 279.82,-28.35"/>
</g>
<!-- Node14&#45;&gt;Node6 -->
<g id="edge20" class="edge">
<title>Node14&#45;&gt;Node6</title>
<path fill="none" stroke="midnightblue" d="M295.05,-190.48C317.36,-181.55 345.49,-168.89 368.5,-154 398.33,-134.7 428.27,-106.03 445.57,-88.34"/>
<polygon fill="midnightblue" stroke="midnightblue" points="448.16,-90.69 452.57,-81.06 443.12,-85.84 448.16,-90.69"/>
</g>
<!-- Node14&#45;&gt;Node9 -->
<g id="edge21" class="edge">
<title>Node14&#45;&gt;Node9</title>
<path fill="none" stroke="midnightblue" d="M245.06,-190.49C232.99,-173.88 217.15,-145.59 228.5,-123 250.88,-78.44 272.13,-74.34 318.5,-56 384.84,-29.76 601.6,-16.55 682.6,-12.44"/>
<polygon fill="midnightblue" stroke="midnightblue" points="682.85,-15.94 692.66,-11.94 682.5,-8.94 682.85,-15.94"/>
</g>
<!-- Node15 -->
<g id="node15" class="node">
<title>Node15</title>
<g id="a_node15"><a xlink:href="../../d1/d13/status_8h.html" target="_top" xlink:title=" ">
<polygon fill="white" stroke="black" points="70,-56.5 70,-86.5 195,-86.5 195,-56.5 70,-56.5"/>
<text text-anchor="start" x="78" y="-74.5" font-family="Helvetica,sans-Serif" font-size="10.00">automaton/core/common</text>
<text text-anchor="middle" x="132.5" y="-63.5" font-family="Helvetica,sans-Serif" font-size="10.00">/status.h</text>
</a>
</g>
</g>
<!-- Node14&#45;&gt;Node15 -->
<g id="edge22" class="edge">
<title>Node14&#45;&gt;Node15</title>
<path fill="none" stroke="midnightblue" d="M211.46,-190.46C192.45,-182.49 171.52,-170.7 157.5,-154 143.95,-137.85 137.74,-114.44 134.89,-96.85"/>
<polygon fill="midnightblue" stroke="midnightblue" points="138.34,-96.21 133.52,-86.77 131.4,-97.15 138.34,-96.21"/>
</g>
<!-- Node14&#45;&gt;Node18 -->
<g id="edge26" class="edge">
<title>Node14&#45;&gt;Node18</title>
<path fill="none" stroke="midnightblue" d="M265.61,-190.4C270.95,-182.13 277.82,-171.51 283.9,-162.1"/>
<polygon fill="midnightblue" stroke="midnightblue" points="286.92,-163.88 289.4,-153.58 281.04,-160.08 286.92,-163.88"/>
</g>
<!-- Node15&#45;&gt;Node9 -->
<g id="edge24" class="edge">
<title>Node15&#45;&gt;Node9</title>
<path fill="none" stroke="midnightblue" d="M195.13,-62.27C212.11,-60.13 230.5,-57.89 247.5,-56 411.11,-37.79 607.53,-20.23 682.43,-13.69"/>
<polygon fill="midnightblue" stroke="midnightblue" points="682.92,-17.16 692.58,-12.8 682.31,-10.18 682.92,-17.16"/>
</g>
<!-- Node16 -->
<g id="node16" class="node">
<title>Node16</title>
<g id="a_node16"><a xlink:title=" ">
<polygon fill="white" stroke="#bfbfbf" points="142.5,-0.5 142.5,-19.5 194.5,-19.5 194.5,-0.5 142.5,-0.5"/>
<text text-anchor="middle" x="168.5" y="-7.5" font-family="Helvetica,sans-Serif" font-size="10.00">ostream</text>
</a>
</g>
</g>
<!-- Node15&#45;&gt;Node16 -->
<g id="edge23" class="edge">
<title>Node15&#45;&gt;Node16</title>
<path fill="none" stroke="midnightblue" d="M141.03,-56.4C146.1,-48.02 152.57,-37.33 157.96,-28.42"/>
<polygon fill="midnightblue" stroke="midnightblue" points="161.08,-30.03 163.26,-19.66 155.09,-26.4 161.08,-30.03"/>
</g>
<!-- Node17 -->
<g id="node17" class="node">
<title>Node17</title>
<g id="a_node17"><a xlink:title=" ">
<polygon fill="white" stroke="#bfbfbf" points="70.5,-0.5 70.5,-19.5 124.5,-19.5 124.5,-0.5 70.5,-0.5"/>
<text text-anchor="middle" x="97.5" y="-7.5" font-family="Helvetica,sans-Serif" font-size="10.00">iostream</text>
</a>
</g>
</g>
<!-- Node15&#45;&gt;Node17 -->
<g id="edge25" class="edge">
<title>Node15&#45;&gt;Node17</title>
<path fill="none" stroke="midnightblue" d="M124.21,-56.4C119.28,-48.02 112.99,-37.33 107.75,-28.42"/>
<polygon fill="midnightblue" stroke="midnightblue" points="110.68,-26.5 102.59,-19.66 104.65,-30.05 110.68,-26.5"/>
</g>
<!-- Node18&#45;&gt;Node5 -->
<g id="edge27" class="edge">
<title>Node18&#45;&gt;Node5</title>
<path fill="none" stroke="midnightblue" d="M298.61,-123.48C298.79,-100.72 299.15,-55.7 299.35,-30.06"/>
<polygon fill="midnightblue" stroke="midnightblue" points="302.85,-29.82 299.43,-19.79 295.85,-29.76 302.85,-29.82"/>
</g>
<!-- Node18&#45;&gt;Node6 -->
<g id="edge28" class="edge">
<title>Node18&#45;&gt;Node6</title>
<path fill="none" stroke="midnightblue" d="M333.65,-123.4C362.33,-111.89 402.44,-95.8 429.83,-84.81"/>
<polygon fill="midnightblue" stroke="midnightblue" points="431.32,-87.98 439.3,-81.01 428.71,-81.48 431.32,-87.98"/>
</g>
<!-- Node18&#45;&gt;Node9 -->
<g id="edge29" class="edge">
<title>Node18&#45;&gt;Node9</title>
<path fill="none" stroke="midnightblue" d="M322.03,-123.45C338.53,-113.49 361.03,-99.69 380.5,-87 400.85,-73.74 402.94,-64.99 425.5,-56 514.13,-20.69 628.4,-12.98 682.49,-11.37"/>
<polygon fill="midnightblue" stroke="midnightblue" points="682.87,-14.86 692.78,-11.12 682.7,-7.87 682.87,-14.86"/>
</g>
<!-- Node18&#45;&gt;Node15 -->
<g id="edge31" class="edge">
<title>Node18&#45;&gt;Node15</title>
<path fill="none" stroke="midnightblue" d="M262.48,-123.4C237.68,-113.69 204.54,-100.71 177.93,-90.29"/>
<polygon fill="midnightblue" stroke="midnightblue" points="179.04,-86.96 168.45,-86.58 176.48,-93.48 179.04,-86.96"/>
</g>
<!-- Node19 -->
<g id="node19" class="node">
<title>Node19</title>
<g id="a_node19"><a xlink:title=" ">
<polygon fill="white" stroke="#bfbfbf" points="327.5,-62 327.5,-81 371.5,-81 371.5,-62 327.5,-62"/>
<text text-anchor="middle" x="349.5" y="-69" font-family="Helvetica,sans-Serif" font-size="10.00">thread</text>
</a>
</g>
</g>
<!-- Node18&#45;&gt;Node19 -->
<g id="edge30" class="edge">
<title>Node18&#45;&gt;Node19</title>
<path fill="none" stroke="midnightblue" d="M309.57,-123.4C317.44,-113.36 328.05,-99.84 336.35,-89.25"/>
<polygon fill="midnightblue" stroke="midnightblue" points="339.26,-91.22 342.68,-81.19 333.75,-86.9 339.26,-91.22"/>
</g>
<!-- Node20&#45;&gt;Node6 -->
<g id="edge34" class="edge">
<title>Node20&#45;&gt;Node6</title>
<path fill="none" stroke="midnightblue" d="M682.32,-258.45C622.23,-243.35 535.93,-212.65 484.5,-154 469.11,-136.45 463.58,-109.45 461.59,-91.4"/>
<polygon fill="midnightblue" stroke="midnightblue" points="465.07,-90.92 460.75,-81.24 458.09,-91.5 465.07,-90.92"/>
</g>
<!-- Node20&#45;&gt;Node9 -->
<g id="edge35" class="edge">
<title>Node20&#45;&gt;Node9</title>
<path fill="none" stroke="midnightblue" d="M774.4,-257.34C787.52,-248.57 802.68,-236.1 811.5,-221 848.84,-157.06 876.76,-116.8 834.5,-56 814.31,-26.95 773.02,-16.62 744.32,-12.96"/>
<polygon fill="midnightblue" stroke="midnightblue" points="744.33,-9.44 734.01,-11.86 743.59,-16.4 744.33,-9.44"/>
</g>
<!-- Node20&#45;&gt;Node10 -->
<g id="edge36" class="edge">
<title>Node20&#45;&gt;Node10</title>
<path fill="none" stroke="midnightblue" d="M790.51,-257.4C824.41,-245.74 871.99,-229.37 903.97,-218.38"/>
<polygon fill="midnightblue" stroke="midnightblue" points="905.45,-221.57 913.76,-215.01 903.17,-214.95 905.45,-221.57"/>
</g>
<!-- Node20&#45;&gt;Node11 -->
<g id="edge37" class="edge">
<title>Node20&#45;&gt;Node11</title>
<path fill="none" stroke="midnightblue" d="M780.09,-257.33C797.08,-248.48 817.88,-235.93 833.5,-221 895.64,-161.59 942.53,-68.17 960.5,-29.11"/>
<polygon fill="midnightblue" stroke="midnightblue" points="963.86,-30.17 964.79,-19.61 957.48,-27.29 963.86,-30.17"/>
</g>
<!-- Node20&#45;&gt;Node13 -->
<g id="edge46" class="edge">
<title>Node20&#45;&gt;Node13</title>
<path fill="none" stroke="midnightblue" d="M722.94,-257.47C709.67,-248.88 694.89,-236.55 687.5,-221 681.59,-208.56 684.29,-203.4 687.5,-190 696.18,-153.71 719.9,-117.2 736.64,-94.72"/>
<polygon fill="midnightblue" stroke="midnightblue" points="739.6,-96.62 742.89,-86.55 734.04,-92.37 739.6,-96.62"/>
</g>
<!-- Node21 -->
<g id="node21" class="node">
<title>Node21</title>
<g id="a_node21"><a xlink:href="../../de/d06/factory_8h.html" target="_top" xlink:title=" ">
<polygon fill="white" stroke="black" points="696.5,-190.5 696.5,-220.5 802.5,-220.5 802.5,-190.5 696.5,-190.5"/>
<text text-anchor="start" x="704.5" y="-208.5" font-family="Helvetica,sans-Serif" font-size="10.00">automaton/core/data</text>
<text text-anchor="middle" x="749.5" y="-197.5" font-family="Helvetica,sans-Serif" font-size="10.00">/factory.h</text>
</a>
</g>
</g>
<!-- Node20&#45;&gt;Node21 -->
<g id="edge38" class="edge">
<title>Node20&#45;&gt;Node21</title>
<path fill="none" stroke="midnightblue" d="M749.5,-257.4C749.5,-249.64 749.5,-239.81 749.5,-230.86"/>
<polygon fill="midnightblue" stroke="midnightblue" points="753,-230.58 749.5,-220.58 746,-230.58 753,-230.58"/>
</g>
<!-- Node21&#45;&gt;Node5 -->
<g id="edge39" class="edge">
<title>Node21&#45;&gt;Node5</title>
<path fill="none" stroke="midnightblue" d="M733.64,-190.24C713.81,-172.87 678.32,-143.33 644.5,-123 582.27,-85.59 564.33,-79.12 495.5,-56 436.81,-36.28 365.39,-22.29 327.03,-15.55"/>
<polygon fill="midnightblue" stroke="midnightblue" points="327.57,-12.09 317.12,-13.84 326.38,-18.99 327.57,-12.09"/>
</g>
<!-- Node21&#45;&gt;Node6 -->
<g id="edge40" class="edge">
<title>Node21&#45;&gt;Node6</title>
<path fill="none" stroke="midnightblue" d="M696.34,-203.25C647.13,-199.8 573.74,-188.63 520.5,-154 496.28,-138.25 478.42,-109.1 468.74,-90.27"/>
<polygon fill="midnightblue" stroke="midnightblue" points="471.87,-88.7 464.33,-81.26 465.58,-91.78 471.87,-88.7"/>
</g>
<!-- Node21&#45;&gt;Node9 -->
<g id="edge41" class="edge">
<title>Node21&#45;&gt;Node9</title>
<path fill="none" stroke="midnightblue" d="M765.11,-190.24C793.13,-162.89 846.39,-101.68 816.5,-56 800.68,-31.82 768.69,-20.56 744.54,-15.36"/>
<polygon fill="midnightblue" stroke="midnightblue" points="744.89,-11.86 734.41,-13.43 743.58,-18.74 744.89,-11.86"/>
</g>
<!-- Node21&#45;&gt;Node11 -->
<g id="edge43" class="edge">
<title>Node21&#45;&gt;Node11</title>
<path fill="none" stroke="midnightblue" d="M770.93,-190.49C785.35,-180.77 804.56,-167.24 820.5,-154 872.05,-111.17 927.52,-54.32 953.49,-27"/>
<polygon fill="midnightblue" stroke="midnightblue" points="956.24,-29.19 960.56,-19.52 951.15,-24.38 956.24,-29.19"/>
</g>
<!-- Node21&#45;&gt;Node12 -->
<g id="edge44" class="edge">
<title>Node21&#45;&gt;Node12</title>
<path fill="none" stroke="midnightblue" d="M713.26,-190.4C688.32,-180.69 654.97,-167.71 628.2,-157.29"/>
<polygon fill="midnightblue" stroke="midnightblue" points="629.25,-153.94 618.67,-153.58 626.72,-160.47 629.25,-153.94"/>
</g>
<!-- Node21&#45;&gt;Node13 -->
<g id="edge45" class="edge">
<title>Node21&#45;&gt;Node13</title>
<path fill="none" stroke="midnightblue" d="M760.31,-190.37C766.99,-180.71 774.96,-167.29 778.5,-154 782.05,-140.69 781.53,-136.44 778.5,-123 776.41,-113.74 772.42,-104.19 768.28,-95.92"/>
<polygon fill="midnightblue" stroke="midnightblue" points="771.26,-94.07 763.46,-86.9 765.08,-97.37 771.26,-94.07"/>
</g>
<!-- Node22 -->
<g id="node22" class="node">
<title>Node22</title>
<g id="a_node22"><a xlink:title=" ">
<polygon fill="white" stroke="#bfbfbf" points="730,-129 730,-148 769,-148 769,-129 730,-129"/>
<text text-anchor="middle" x="749.5" y="-136" font-family="Helvetica,sans-Serif" font-size="10.00">utility</text>
</a>
</g>
</g>
<!-- Node21&#45;&gt;Node22 -->
<g id="edge42" class="edge">
<title>Node21&#45;&gt;Node22</title>
<path fill="none" stroke="midnightblue" d="M749.5,-190.4C749.5,-181.06 749.5,-168.71 749.5,-158.52"/>
<polygon fill="midnightblue" stroke="midnightblue" points="753,-158.19 749.5,-148.19 746,-158.19 753,-158.19"/>
</g>
</g>
</svg>
