<?xml version="1.0" encoding="UTF-8" standalone="no"?>
<!DOCTYPE svg PUBLIC "-//W3C//DTD SVG 1.1//EN"
 "http://www.w3.org/Graphics/SVG/1.1/DTD/svg11.dtd">
<!-- Generated by graphviz version 2.42.3 ()
 -->
<!-- Title: smart_protocol.cc Pages: 1 -->
<!--zoomable 419 -->
<svg id="main" version="1.1" xmlns="http://www.w3.org/2000/svg" xmlns:xlink="http://www.w3.org/1999/xlink" xml:space="preserve" onload="init(evt)">
<style type="text/css"><![CDATA[
.edge:hover path { stroke: red; }
.edge:hover polygon { stroke: red; fill: red; }
]]></style>
<script type="text/javascript"><![CDATA[
var edges = document.getElementsByTagName('g');
if (edges && edges.length) {
  for (var i=0;i<edges.length;i++) {
    if (edges[i].id.substr(0,4)=='edge') {
      edges[i].setAttribute('class','edge');
    }
  }
}
]]></script>
        <defs>
                <circle id="rim" cx="0" cy="0" r="7"/>
                <circle id="rim2" cx="0" cy="0" r="3.5"/>
                <g id="zoomPlus">
                        <use xlink:href="#rim" fill="#404040">
                                <set attributeName="fill" to="#808080" begin="zoomplus.mouseover" end="zoomplus.mouseout"/>
                        </use>
                        <path d="M-4,0h8M0,-4v8" fill="none" stroke="white" stroke-width="1.5" pointer-events="none"/>
                </g>
                <g id="zoomMin">
                        <use xlink:href="#rim" fill="#404040">
                                <set attributeName="fill" to="#808080" begin="zoomminus.mouseover" end="zoomminus.mouseout"/>
                        </use>
                        <path d="M-4,0h8" fill="none" stroke="white" stroke-width="1.5" pointer-events="none"/>
                </g>
                <g id="dirArrow">
                        <path fill="none" stroke="white" stroke-width="1.5" d="M0,-3.0v7 M-2.5,-0.5L0,-3.0L2.5,-0.5"/>
                </g>
               <g id="resetDef">
                       <use xlink:href="#rim2" fill="#404040">
                               <set attributeName="fill" to="#808080" begin="reset.mouseover" end="reset.mouseout"/>
                       </use>
               </g>
        </defs>

<script type="text/javascript">
var viewWidth = 2518;
var viewHeight = 419;
var sectionId = 'dynsection-0';
</script>
<script xlink:href="../../svgpan.js"/>
<svg id="graph" class="graph">
<g id="viewport">
<title>smart_protocol.cc</title>
<polygon fill="white" stroke="transparent" points="-4,4 -4,-415 2514,-415 2514,4 -4,4"/>
<!-- Node1 -->
<g id="node1" class="node">
<title>Node1</title>
<g id="a_node1"><a xlink:title=" ">
<polygon fill="#bfbfbf" stroke="black" points="1316,-391.5 1316,-410.5 1410,-410.5 1410,-391.5 1316,-391.5"/>
<text text-anchor="middle" x="1363" y="-398.5" font-family="Helvetica,sans-Serif" font-size="10.00">smart_protocol.cc</text>
</a>
</g>
</g>
<!-- Node2 -->
<g id="node2" class="node">
<title>Node2</title>
<g id="a_node2"><a xlink:href="../../d5/dab/smart__protocol_8h.html" target="_top" xlink:title=" ">
<polygon fill="white" stroke="black" points="140,-257.5 140,-287.5 274,-287.5 274,-257.5 140,-257.5"/>
<text text-anchor="start" x="148" y="-275.5" font-family="Helvetica,sans-Serif" font-size="10.00">automaton/core/smartproto</text>
<text text-anchor="middle" x="207" y="-264.5" font-family="Helvetica,sans-Serif" font-size="10.00">/smart_protocol.h</text>
</a>
</g>
</g>
<!-- Node1&#45;&gt;Node2 -->
<g id="edge1" class="edge">
<title>Node1&#45;&gt;Node2</title>
<path fill="none" stroke="midnightblue" d="M1315.96,-396.34C1165.71,-384.38 683.97,-343.99 288,-288 286.73,-287.82 285.44,-287.63 284.15,-287.44"/>
<polygon fill="midnightblue" stroke="midnightblue" points="284.54,-283.96 274.12,-285.91 283.48,-290.88 284.54,-283.96"/>
</g>
<!-- Node4 -->
<g id="node4" class="node">
<title>Node4</title>
<g id="a_node4"><a xlink:title=" ">
<polygon fill="white" stroke="#bfbfbf" points="551.5,-0.5 551.5,-19.5 592.5,-19.5 592.5,-0.5 551.5,-0.5"/>
<text text-anchor="middle" x="572" y="-7.5" font-family="Helvetica,sans-Serif" font-size="10.00">string</text>
</a>
</g>
</g>
<!-- Node1&#45;&gt;Node4 -->
<g id="edge22" class="edge">
<title>Node1&#45;&gt;Node4</title>
<path fill="none" stroke="midnightblue" d="M1315.69,-398.14C1075.23,-388.4 0,-341.04 0,-273.5 0,-273.5 0,-273.5 0,-137.5 0,-86.74 34.14,-77.75 80,-56 162.36,-16.93 447.14,-11.72 541.42,-11.07"/>
<polygon fill="midnightblue" stroke="midnightblue" points="541.47,-14.57 551.45,-11.02 541.43,-7.57 541.47,-14.57"/>
</g>
<!-- Node9 -->
<g id="node9" class="node">
<title>Node9</title>
<g id="a_node9"><a xlink:title=" ">
<polygon fill="white" stroke="#bfbfbf" points="1439.5,-129 1439.5,-148 1478.5,-148 1478.5,-129 1439.5,-129"/>
<text text-anchor="middle" x="1459" y="-136" font-family="Helvetica,sans-Serif" font-size="10.00">utility</text>
</a>
</g>
</g>
<!-- Node1&#45;&gt;Node9 -->
<g id="edge23" class="edge">
<title>Node1&#45;&gt;Node9</title>
<path fill="none" stroke="midnightblue" d="M1410.38,-399.07C1511.24,-394.21 1746.27,-366.99 1848,-221 1855.88,-209.7 1857.09,-200.35 1848,-190 1824.3,-163.02 1575.52,-146.21 1488.7,-141.13"/>
<polygon fill="midnightblue" stroke="midnightblue" points="1488.89,-137.64 1478.71,-140.56 1488.49,-144.63 1488.89,-137.64"/>
</g>
<!-- Node12 -->
<g id="node12" class="node">
<title>Node12</title>
<g id="a_node12"><a xlink:title=" ">
<polygon fill="white" stroke="#bfbfbf" points="1303,-330 1303,-349 1353,-349 1353,-330 1303,-330"/>
<text text-anchor="middle" x="1328" y="-337" font-family="Helvetica,sans-Serif" font-size="10.00">fstream</text>
</a>
</g>
</g>
<!-- Node1&#45;&gt;Node12 -->
<g id="edge21" class="edge">
<title>Node1&#45;&gt;Node12</title>
<path fill="none" stroke="midnightblue" d="M1357.99,-391.48C1352.84,-382.73 1344.69,-368.87 1338.18,-357.81"/>
<polygon fill="midnightblue" stroke="midnightblue" points="1341.09,-355.85 1333.01,-349.01 1335.06,-359.4 1341.09,-355.85"/>
</g>
<!-- Node13 -->
<g id="node13" class="node">
<title>Node13</title>
<g id="a_node13"><a xlink:title=" ">
<polygon fill="white" stroke="#bfbfbf" points="1371.5,-330 1371.5,-349 1424.5,-349 1424.5,-330 1371.5,-330"/>
<text text-anchor="middle" x="1398" y="-337" font-family="Helvetica,sans-Serif" font-size="10.00">json.hpp</text>
</a>
</g>
</g>
<!-- Node1&#45;&gt;Node13 -->
<g id="edge24" class="edge">
<title>Node1&#45;&gt;Node13</title>
<path fill="none" stroke="midnightblue" d="M1368.01,-391.48C1373.16,-382.73 1381.31,-368.87 1387.82,-357.81"/>
<polygon fill="midnightblue" stroke="midnightblue" points="1390.94,-359.4 1392.99,-349.01 1384.91,-355.85 1390.94,-359.4"/>
</g>
<!-- Node14 -->
<g id="node14" class="node">
<title>Node14</title>
<g id="a_node14"><a xlink:href="../../dc/dd5/protobuf__factory_8h.html" target="_top" xlink:title=" ">
<polygon fill="white" stroke="black" points="1077.5,-324.5 1077.5,-354.5 1212.5,-354.5 1212.5,-324.5 1077.5,-324.5"/>
<text text-anchor="start" x="1085.5" y="-342.5" font-family="Helvetica,sans-Serif" font-size="10.00">automaton/core/data</text>
<text text-anchor="middle" x="1145" y="-331.5" font-family="Helvetica,sans-Serif" font-size="10.00">/protobuf/protobuf_factory.h</text>
</a>
</g>
</g>
<!-- Node1&#45;&gt;Node14 -->
<g id="edge25" class="edge">
<title>Node1&#45;&gt;Node14</title>
<path fill="none" stroke="midnightblue" d="M1331.77,-391.48C1299.14,-382.57 1247.11,-368.37 1206.24,-357.22"/>
<polygon fill="midnightblue" stroke="midnightblue" points="1206.95,-353.78 1196.38,-354.52 1205.1,-360.53 1206.95,-353.78"/>
</g>
<!-- Node27 -->
<g id="node27" class="node">
<title>Node27</title>
<g id="a_node27"><a xlink:href="../../d0/dd3/protobuf__schema_8h.html" target="_top" xlink:title=" ">
<polygon fill="white" stroke="black" points="1437,-257.5 1437,-287.5 1577,-287.5 1577,-257.5 1437,-257.5"/>
<text text-anchor="start" x="1445" y="-275.5" font-family="Helvetica,sans-Serif" font-size="10.00">automaton/core/data</text>
<text text-anchor="middle" x="1507" y="-264.5" font-family="Helvetica,sans-Serif" font-size="10.00">/protobuf/protobuf_schema.h</text>
</a>
</g>
</g>
<!-- Node1&#45;&gt;Node27 -->
<g id="edge57" class="edge">
<title>Node1&#45;&gt;Node27</title>
<path fill="none" stroke="midnightblue" d="M1378.82,-391.43C1393.57,-383.09 1415.8,-369.56 1433,-355 1454.44,-336.85 1475.65,-312.69 1489.83,-295.39"/>
<polygon fill="midnightblue" stroke="midnightblue" points="1492.63,-297.48 1496.19,-287.5 1487.19,-293.09 1492.63,-297.48"/>
</g>
<!-- Node28 -->
<g id="node28" class="node">
<title>Node28</title>
<g id="a_node28"><a xlink:href="../../dc/dac/io_8h.html" target="_top" xlink:title=" ">
<polygon fill="white" stroke="black" points="2164.5,-330 2164.5,-349 2277.5,-349 2277.5,-330 2164.5,-330"/>
<text text-anchor="middle" x="2221" y="-337" font-family="Helvetica,sans-Serif" font-size="10.00">automaton/core/io/io.h</text>
</a>
</g>
</g>
<!-- Node1&#45;&gt;Node28 -->
<g id="edge70" class="edge">
<title>Node1&#45;&gt;Node28</title>
<path fill="none" stroke="midnightblue" d="M1410.12,-397C1519.54,-389.99 1799.28,-371.86 2033,-355 2073.12,-352.11 2118.04,-348.65 2153.9,-345.84"/>
<polygon fill="midnightblue" stroke="midnightblue" points="2154.55,-349.3 2164.25,-345.02 2154,-342.32 2154.55,-349.3"/>
</g>
<!-- Node3 -->
<g id="node3" class="node">
<title>Node3</title>
<g id="a_node3"><a xlink:title=" ">
<polygon fill="white" stroke="#bfbfbf" points="454.5,-62 454.5,-81 505.5,-81 505.5,-62 454.5,-62"/>
<text text-anchor="middle" x="480" y="-69" font-family="Helvetica,sans-Serif" font-size="10.00">memory</text>
</a>
</g>
</g>
<!-- Node2&#45;&gt;Node3 -->
<g id="edge2" class="edge">
<title>Node2&#45;&gt;Node3</title>
<path fill="none" stroke="midnightblue" d="M213.52,-257.29C227.79,-227.77 264.66,-159.51 316,-123 354.72,-95.46 408.86,-82.64 444.17,-76.88"/>
<polygon fill="midnightblue" stroke="midnightblue" points="445.12,-80.27 454.48,-75.31 444.07,-73.35 445.12,-80.27"/>
</g>
<!-- Node2&#45;&gt;Node4 -->
<g id="edge3" class="edge">
<title>Node2&#45;&gt;Node4</title>
<path fill="none" stroke="midnightblue" d="M200.99,-257.49C185.78,-219.61 150.51,-114.13 202,-56 224.4,-30.71 456.44,-16.74 541.21,-12.45"/>
<polygon fill="midnightblue" stroke="midnightblue" points="541.44,-15.94 551.25,-11.95 541.09,-8.95 541.44,-15.94"/>
</g>
<!-- Node5 -->
<g id="node5" class="node">
<title>Node5</title>
<g id="a_node5"><a xlink:title=" ">
<polygon fill="white" stroke="#bfbfbf" points="66.5,-196 66.5,-215 149.5,-215 149.5,-196 66.5,-196"/>
<text text-anchor="middle" x="108" y="-203" font-family="Helvetica,sans-Serif" font-size="10.00">unordered_map</text>
</a>
</g>
</g>
<!-- Node2&#45;&gt;Node5 -->
<g id="edge4" class="edge">
<title>Node2&#45;&gt;Node5</title>
<path fill="none" stroke="midnightblue" d="M185.52,-257.4C168.92,-246.5 146.04,-231.48 129.45,-220.58"/>
<polygon fill="midnightblue" stroke="midnightblue" points="131.24,-217.57 120.96,-215.01 127.4,-223.42 131.24,-217.57"/>
</g>
<!-- Node6 -->
<g id="node6" class="node">
<title>Node6</title>
<g id="a_node6"><a xlink:title=" ">
<polygon fill="white" stroke="#bfbfbf" points="997,-0.5 997,-19.5 1041,-19.5 1041,-0.5 997,-0.5"/>
<text text-anchor="middle" x="1019" y="-7.5" font-family="Helvetica,sans-Serif" font-size="10.00">vector</text>
</a>
</g>
</g>
<!-- Node2&#45;&gt;Node6 -->
<g id="edge5" class="edge">
<title>Node2&#45;&gt;Node6</title>
<path fill="none" stroke="midnightblue" d="M209.43,-257.42C212.66,-240.74 219.23,-212.39 230,-190 268.18,-110.63 292.81,-84.94 376,-56 490.68,-16.11 872.95,-11.51 986.76,-11.04"/>
<polygon fill="midnightblue" stroke="midnightblue" points="986.93,-14.54 996.92,-11 986.91,-7.54 986.93,-14.54"/>
</g>
<!-- Node7 -->
<g id="node7" class="node">
<title>Node7</title>
<g id="a_node7"><a xlink:href="../../de/d06/factory_8h.html" target="_top" xlink:title=" ">
<polygon fill="white" stroke="black" points="320,-190.5 320,-220.5 426,-220.5 426,-190.5 320,-190.5"/>
<text text-anchor="start" x="328" y="-208.5" font-family="Helvetica,sans-Serif" font-size="10.00">automaton/core/data</text>
<text text-anchor="middle" x="373" y="-197.5" font-family="Helvetica,sans-Serif" font-size="10.00">/factory.h</text>
</a>
</g>
</g>
<!-- Node2&#45;&gt;Node7 -->
<g id="edge6" class="edge">
<title>Node2&#45;&gt;Node7</title>
<path fill="none" stroke="midnightblue" d="M243.02,-257.4C267.82,-247.69 300.96,-234.71 327.57,-224.29"/>
<polygon fill="midnightblue" stroke="midnightblue" points="329.02,-227.48 337.05,-220.58 326.46,-220.96 329.02,-227.48"/>
</g>
<!-- Node11 -->
<g id="node11" class="node">
<title>Node11</title>
<g id="a_node11"><a xlink:href="../../d7/de3/schema_8h.html" target="_top" xlink:title=" ">
<polygon fill="white" stroke="black" points="995,-56.5 995,-86.5 1101,-86.5 1101,-56.5 995,-56.5"/>
<text text-anchor="start" x="1003" y="-74.5" font-family="Helvetica,sans-Serif" font-size="10.00">automaton/core/data</text>
<text text-anchor="middle" x="1048" y="-63.5" font-family="Helvetica,sans-Serif" font-size="10.00">/schema.h</text>
</a>
</g>
</g>
<!-- Node2&#45;&gt;Node11 -->
<g id="edge20" class="edge">
<title>Node2&#45;&gt;Node11</title>
<path fill="none" stroke="midnightblue" d="M274.13,-259.74C319.96,-250.95 381.79,-237.61 435,-221 469.82,-210.13 476.16,-200.83 511,-190 533.76,-182.93 847.94,-115.35 984.91,-86"/>
<polygon fill="midnightblue" stroke="midnightblue" points="985.81,-89.39 994.86,-83.87 984.34,-82.54 985.81,-89.39"/>
</g>
<!-- Node7&#45;&gt;Node3 -->
<g id="edge8" class="edge">
<title>Node7&#45;&gt;Node3</title>
<path fill="none" stroke="midnightblue" d="M390.71,-190.31C402.07,-180.72 416.75,-167.41 428,-154 445.13,-133.58 461.02,-107.12 470.62,-89.99"/>
<polygon fill="midnightblue" stroke="midnightblue" points="473.76,-91.54 475.5,-81.09 467.62,-88.17 473.76,-91.54"/>
</g>
<!-- Node7&#45;&gt;Node4 -->
<g id="edge9" class="edge">
<title>Node7&#45;&gt;Node4</title>
<path fill="none" stroke="midnightblue" d="M365.93,-190.35C352.65,-161.52 328.07,-95.42 360,-56 382.43,-28.31 487.77,-16.96 541.01,-12.93"/>
<polygon fill="midnightblue" stroke="midnightblue" points="541.51,-16.4 551.23,-12.2 541.01,-9.42 541.51,-16.4"/>
</g>
<!-- Node7&#45;&gt;Node6 -->
<g id="edge11" class="edge">
<title>Node7&#45;&gt;Node6</title>
<path fill="none" stroke="midnightblue" d="M370.59,-190.42C366.36,-160.54 361.4,-90.67 400,-56 443.87,-16.6 865.28,-11.68 986.52,-11.08"/>
<polygon fill="midnightblue" stroke="midnightblue" points="986.67,-14.58 996.66,-11.04 986.64,-7.58 986.67,-14.58"/>
</g>
<!-- Node8 -->
<g id="node8" class="node">
<title>Node8</title>
<g id="a_node8"><a xlink:title=" ">
<polygon fill="white" stroke="#bfbfbf" points="1059.5,-0.5 1059.5,-19.5 1094.5,-19.5 1094.5,-0.5 1059.5,-0.5"/>
<text text-anchor="middle" x="1077" y="-7.5" font-family="Helvetica,sans-Serif" font-size="10.00">map</text>
</a>
</g>
</g>
<!-- Node7&#45;&gt;Node8 -->
<g id="edge7" class="edge">
<title>Node7&#45;&gt;Node8</title>
<path fill="none" stroke="midnightblue" d="M375.07,-190.41C380.39,-159.85 397.6,-87.69 445,-56 498.9,-19.96 948.63,-31.78 1049.4,-19.15"/>
<polygon fill="midnightblue" stroke="midnightblue" points="1050.12,-22.59 1059.46,-17.58 1049.04,-15.67 1050.12,-22.59"/>
</g>
<!-- Node7&#45;&gt;Node9 -->
<g id="edge10" class="edge">
<title>Node7&#45;&gt;Node9</title>
<path fill="none" stroke="midnightblue" d="M426.02,-198.28C451.66,-195.44 482.9,-192.22 511,-190 872.28,-161.42 1312.33,-144.68 1429.29,-140.52"/>
<polygon fill="midnightblue" stroke="midnightblue" points="1429.42,-144.02 1439.29,-140.17 1429.17,-137.03 1429.42,-144.02"/>
</g>
<!-- Node10 -->
<g id="node10" class="node">
<title>Node10</title>
<g id="a_node10"><a xlink:href="../../d1/d71/msg_8h.html" target="_top" xlink:title=" ">
<polygon fill="white" stroke="black" points="519,-123.5 519,-153.5 625,-153.5 625,-123.5 519,-123.5"/>
<text text-anchor="start" x="527" y="-141.5" font-family="Helvetica,sans-Serif" font-size="10.00">automaton/core/data</text>
<text text-anchor="middle" x="572" y="-130.5" font-family="Helvetica,sans-Serif" font-size="10.00">/msg.h</text>
</a>
</g>
</g>
<!-- Node7&#45;&gt;Node10 -->
<g id="edge12" class="edge">
<title>Node7&#45;&gt;Node10</title>
<path fill="none" stroke="midnightblue" d="M416.18,-190.4C446.43,-180.52 487.03,-167.25 519.21,-156.74"/>
<polygon fill="midnightblue" stroke="midnightblue" points="520.49,-160.01 528.9,-153.58 518.31,-153.35 520.49,-160.01"/>
</g>
<!-- Node7&#45;&gt;Node11 -->
<g id="edge19" class="edge">
<title>Node7&#45;&gt;Node11</title>
<path fill="none" stroke="midnightblue" d="M426.36,-192.8C430.97,-191.84 435.57,-190.89 440,-190 525.98,-172.72 553.37,-188.48 634,-154 655.66,-144.74 655.12,-131.74 677,-123 779.34,-82.13 908.83,-73.24 984.63,-71.9"/>
<polygon fill="midnightblue" stroke="midnightblue" points="985.02,-75.4 994.97,-71.76 984.92,-68.4 985.02,-75.4"/>
</g>
<!-- Node10&#45;&gt;Node3 -->
<g id="edge13" class="edge">
<title>Node10&#45;&gt;Node3</title>
<path fill="none" stroke="midnightblue" d="M552.04,-123.4C536.75,-112.6 515.75,-97.76 500.36,-86.89"/>
<polygon fill="midnightblue" stroke="midnightblue" points="502.23,-83.92 492.04,-81.01 498.19,-89.64 502.23,-83.92"/>
</g>
<!-- Node10&#45;&gt;Node4 -->
<g id="edge14" class="edge">
<title>Node10&#45;&gt;Node4</title>
<path fill="none" stroke="midnightblue" d="M572,-123.48C572,-100.72 572,-55.7 572,-30.06"/>
<polygon fill="midnightblue" stroke="midnightblue" points="575.5,-29.79 572,-19.79 568.5,-29.79 575.5,-29.79"/>
</g>
<!-- Node10&#45;&gt;Node11 -->
<g id="edge15" class="edge">
<title>Node10&#45;&gt;Node11</title>
<path fill="none" stroke="midnightblue" d="M625.31,-125.51C629.93,-124.61 634.54,-123.76 639,-123 760.76,-102.35 904.28,-86.59 984.85,-78.51"/>
<polygon fill="midnightblue" stroke="midnightblue" points="985.23,-81.99 994.83,-77.52 984.54,-75.02 985.23,-81.99"/>
</g>
<!-- Node11&#45;&gt;Node4 -->
<g id="edge17" class="edge">
<title>Node11&#45;&gt;Node4</title>
<path fill="none" stroke="midnightblue" d="M994.7,-58.44C990.08,-57.56 985.46,-56.73 981,-56 840.45,-33.12 670.8,-18.59 602.59,-13.28"/>
<polygon fill="midnightblue" stroke="midnightblue" points="602.77,-9.78 592.53,-12.5 602.23,-16.76 602.77,-9.78"/>
</g>
<!-- Node11&#45;&gt;Node6 -->
<g id="edge18" class="edge">
<title>Node11&#45;&gt;Node6</title>
<path fill="none" stroke="midnightblue" d="M1041.13,-56.4C1037.09,-48.11 1031.94,-37.55 1027.63,-28.71"/>
<polygon fill="midnightblue" stroke="midnightblue" points="1030.75,-27.11 1023.22,-19.66 1024.45,-30.18 1030.75,-27.11"/>
</g>
<!-- Node11&#45;&gt;Node8 -->
<g id="edge16" class="edge">
<title>Node11&#45;&gt;Node8</title>
<path fill="none" stroke="midnightblue" d="M1054.87,-56.4C1058.91,-48.11 1064.06,-37.55 1068.37,-28.71"/>
<polygon fill="midnightblue" stroke="midnightblue" points="1071.55,-30.18 1072.78,-19.66 1065.25,-27.11 1071.55,-30.18"/>
</g>
<!-- Node14&#45;&gt;Node3 -->
<g id="edge35" class="edge">
<title>Node14&#45;&gt;Node3</title>
<path fill="none" stroke="midnightblue" d="M1077.31,-334.09C887.39,-321.03 360.15,-279.73 311,-221 262.7,-163.28 382.86,-108.32 445.24,-84.66"/>
<polygon fill="midnightblue" stroke="midnightblue" points="446.57,-87.9 454.73,-81.14 444.13,-81.34 446.57,-87.9"/>
</g>
<!-- Node14&#45;&gt;Node4 -->
<g id="edge38" class="edge">
<title>Node14&#45;&gt;Node4</title>
<path fill="none" stroke="midnightblue" d="M1077.27,-337.7C864.46,-334.83 218.15,-323.28 131,-288 80.06,-267.38 38,-261.46 38,-206.5 38,-206.5 38,-206.5 38,-137.5 38,-33.32 427.71,-14.82 541.29,-11.64"/>
<polygon fill="midnightblue" stroke="midnightblue" points="541.49,-15.14 551.39,-11.38 541.31,-8.14 541.49,-15.14"/>
</g>
<!-- Node14&#45;&gt;Node6 -->
<g id="edge40" class="edge">
<title>Node14&#45;&gt;Node6</title>
<path fill="none" stroke="midnightblue" d="M1212.84,-331.6C1238.29,-329.09 1267.46,-326.31 1294,-324 1502.71,-305.85 1563.1,-347.43 1764,-288 1899.97,-247.78 2081.31,-158.18 1983,-56 1948.4,-20.04 1164.46,-27.62 1051.39,-19.23"/>
<polygon fill="midnightblue" stroke="midnightblue" points="1051.51,-15.72 1041.2,-18.15 1050.78,-22.68 1051.51,-15.72"/>
</g>
<!-- Node14&#45;&gt;Node7 -->
<g id="edge41" class="edge">
<title>Node14&#45;&gt;Node7</title>
<path fill="none" stroke="midnightblue" d="M1124.28,-324.46C1109.77,-314.5 1090,-300.7 1073,-288 1055.26,-274.75 1054.66,-264.97 1034,-257 918.48,-212.44 601.18,-233.48 478,-221 464.37,-219.62 449.79,-217.82 435.97,-215.95"/>
<polygon fill="midnightblue" stroke="midnightblue" points="436.44,-212.48 426.06,-214.59 435.49,-219.42 436.44,-212.48"/>
</g>
<!-- Node14&#45;&gt;Node8 -->
<g id="edge34" class="edge">
<title>Node14&#45;&gt;Node8</title>
<path fill="none" stroke="midnightblue" d="M1212.81,-331.24C1238.25,-328.69 1267.43,-325.97 1294,-324 1449.55,-312.44 1850.55,-346.86 1995,-288 2101.39,-244.65 2188.45,-138.99 2109,-56 2073.27,-18.68 1265.55,-12.09 1104.71,-11.14"/>
<polygon fill="midnightblue" stroke="midnightblue" points="1104.68,-7.64 1094.66,-11.08 1104.64,-14.64 1104.68,-7.64"/>
</g>
<!-- Node14&#45;&gt;Node9 -->
<g id="edge39" class="edge">
<title>Node14&#45;&gt;Node9</title>
<path fill="none" stroke="midnightblue" d="M1212.75,-332.66C1284.09,-322.61 1393.7,-295.28 1450,-221 1463.61,-203.05 1463.83,-176.15 1462.02,-158.22"/>
<polygon fill="midnightblue" stroke="midnightblue" points="1465.47,-157.61 1460.69,-148.15 1458.53,-158.52 1465.47,-157.61"/>
</g>
<!-- Node14&#45;&gt;Node11 -->
<g id="edge56" class="edge">
<title>Node14&#45;&gt;Node11</title>
<path fill="none" stroke="midnightblue" d="M1212.57,-331.91C1351.45,-318.35 1656.29,-288.56 1659,-288 1758.65,-267.23 1924,-273.65 1866,-190 1817.59,-120.2 1769.93,-141.41 1687,-123 1480.05,-77.04 1227.25,-71.52 1111.44,-71.7"/>
<polygon fill="midnightblue" stroke="midnightblue" points="1111.33,-68.2 1101.34,-71.73 1111.35,-75.2 1111.33,-68.2"/>
</g>
<!-- Node15 -->
<g id="node15" class="node">
<title>Node15</title>
<g id="a_node15"><a xlink:title=" ">
<polygon fill="white" stroke="#bfbfbf" points="1535.5,-196 1535.5,-215 1672.5,-215 1672.5,-196 1535.5,-196"/>
<text text-anchor="middle" x="1604" y="-203" font-family="Helvetica,sans-Serif" font-size="10.00">google/protobuf/descriptor.h</text>
</a>
</g>
</g>
<!-- Node14&#45;&gt;Node15 -->
<g id="edge26" class="edge">
<title>Node14&#45;&gt;Node15</title>
<path fill="none" stroke="midnightblue" d="M1212.62,-331.77C1334.5,-319.5 1579.13,-294.19 1586,-288 1603.37,-272.34 1605.99,-244.03 1605.56,-225.24"/>
<polygon fill="midnightblue" stroke="midnightblue" points="1609.05,-225.01 1605.02,-215.21 1602.06,-225.39 1609.05,-225.01"/>
</g>
<!-- Node16 -->
<g id="node16" class="node">
<title>Node16</title>
<g id="a_node16"><a xlink:title=" ">
<polygon fill="white" stroke="#bfbfbf" points="1690.5,-196 1690.5,-215 1839.5,-215 1839.5,-196 1690.5,-196"/>
<text text-anchor="middle" x="1765" y="-203" font-family="Helvetica,sans-Serif" font-size="10.00">google/protobuf/descriptor.pb.h</text>
</a>
</g>
</g>
<!-- Node14&#45;&gt;Node16 -->
<g id="edge27" class="edge">
<title>Node14&#45;&gt;Node16</title>
<path fill="none" stroke="midnightblue" d="M1212.56,-331.81C1336.73,-319.43 1590.32,-293.67 1609,-288 1660.45,-272.37 1714.87,-239.72 1743.87,-220.84"/>
<polygon fill="midnightblue" stroke="midnightblue" points="1745.95,-223.66 1752.36,-215.23 1742.09,-217.82 1745.95,-223.66"/>
</g>
<!-- Node17 -->
<g id="node17" class="node">
<title>Node17</title>
<g id="a_node17"><a xlink:title=" ">
<polygon fill="white" stroke="#bfbfbf" points="1207,-190.5 1207,-220.5 1329,-220.5 1329,-190.5 1207,-190.5"/>
<text text-anchor="start" x="1215" y="-208.5" font-family="Helvetica,sans-Serif" font-size="10.00">google/protobuf/dynamic</text>
<text text-anchor="middle" x="1268" y="-197.5" font-family="Helvetica,sans-Serif" font-size="10.00">_message.h</text>
</a>
</g>
</g>
<!-- Node14&#45;&gt;Node17 -->
<g id="edge28" class="edge">
<title>Node14&#45;&gt;Node17</title>
<path fill="none" stroke="midnightblue" d="M1169.49,-324.41C1184.07,-315.25 1202.35,-302.36 1216,-288 1232.69,-270.45 1247.08,-246.8 1256.47,-229.49"/>
<polygon fill="midnightblue" stroke="midnightblue" points="1259.58,-231.09 1261.15,-220.61 1253.39,-227.82 1259.58,-231.09"/>
</g>
<!-- Node18 -->
<g id="node18" class="node">
<title>Node18</title>
<g id="a_node18"><a xlink:title=" ">
<polygon fill="white" stroke="#bfbfbf" points="1347,-190.5 1347,-220.5 1441,-220.5 1441,-190.5 1347,-190.5"/>
<text text-anchor="start" x="1355" y="-208.5" font-family="Helvetica,sans-Serif" font-size="10.00">google/protobuf/io</text>
<text text-anchor="middle" x="1394" y="-197.5" font-family="Helvetica,sans-Serif" font-size="10.00">/tokenizer.h</text>
</a>
</g>
</g>
<!-- Node14&#45;&gt;Node18 -->
<g id="edge29" class="edge">
<title>Node14&#45;&gt;Node18</title>
<path fill="none" stroke="midnightblue" d="M1172.22,-324.44C1191.69,-314.36 1218.5,-300.42 1242,-288 1282.19,-266.77 1328.16,-242.06 1358.93,-225.46"/>
<polygon fill="midnightblue" stroke="midnightblue" points="1360.82,-228.41 1367.96,-220.59 1357.5,-222.25 1360.82,-228.41"/>
</g>
<!-- Node19 -->
<g id="node19" class="node">
<title>Node19</title>
<g id="a_node19"><a xlink:title=" ">
<polygon fill="white" stroke="#bfbfbf" points="520.5,-190.5 520.5,-220.5 649.5,-220.5 649.5,-190.5 520.5,-190.5"/>
<text text-anchor="start" x="528.5" y="-208.5" font-family="Helvetica,sans-Serif" font-size="10.00">google/protobuf/io</text>
<text text-anchor="middle" x="585" y="-197.5" font-family="Helvetica,sans-Serif" font-size="10.00">/zero_copy_stream_impl.h</text>
</a>
</g>
</g>
<!-- Node14&#45;&gt;Node19 -->
<g id="edge30" class="edge">
<title>Node14&#45;&gt;Node19</title>
<path fill="none" stroke="midnightblue" d="M1077.16,-334.95C1001.53,-329.71 876.15,-317.14 772,-288 717.06,-272.63 657.21,-244.33 620.39,-225.46"/>
<polygon fill="midnightblue" stroke="midnightblue" points="621.58,-222.13 611.09,-220.64 618.36,-228.35 621.58,-222.13"/>
</g>
<!-- Node20 -->
<g id="node20" class="node">
<title>Node20</title>
<g id="a_node20"><a xlink:title=" ">
<polygon fill="white" stroke="#bfbfbf" points="667.5,-196 667.5,-215 780.5,-215 780.5,-196 667.5,-196"/>
<text text-anchor="middle" x="724" y="-203" font-family="Helvetica,sans-Serif" font-size="10.00">google/protobuf/map.h</text>
</a>
</g>
</g>
<!-- Node14&#45;&gt;Node20 -->
<g id="edge31" class="edge">
<title>Node14&#45;&gt;Node20</title>
<path fill="none" stroke="midnightblue" d="M1077.33,-338.15C1010.07,-335.48 905.33,-324.98 823,-288 788.5,-272.51 756.2,-241.69 738.37,-222.71"/>
<polygon fill="midnightblue" stroke="midnightblue" points="740.77,-220.16 731.44,-215.15 735.61,-224.89 740.77,-220.16"/>
</g>
<!-- Node21 -->
<g id="node21" class="node">
<title>Node21</title>
<g id="a_node21"><a xlink:title=" ">
<polygon fill="white" stroke="#bfbfbf" points="799,-196 799,-215 933,-215 933,-196 799,-196"/>
<text text-anchor="middle" x="866" y="-203" font-family="Helvetica,sans-Serif" font-size="10.00">google/protobuf/message.h</text>
</a>
</g>
</g>
<!-- Node14&#45;&gt;Node21 -->
<g id="edge32" class="edge">
<title>Node14&#45;&gt;Node21</title>
<path fill="none" stroke="midnightblue" d="M1077.22,-337.4C995.05,-334.47 863.72,-324.09 833,-288 816.67,-268.82 835.1,-240.51 850.27,-222.8"/>
<polygon fill="midnightblue" stroke="midnightblue" points="853.17,-224.81 857.28,-215.05 847.98,-220.12 853.17,-224.81"/>
</g>
<!-- Node22 -->
<g id="node22" class="node">
<title>Node22</title>
<g id="a_node22"><a xlink:title=" ">
<polygon fill="white" stroke="#bfbfbf" points="842,-263 842,-282 896,-282 896,-263 842,-263"/>
<text text-anchor="middle" x="869" y="-270" font-family="Helvetica,sans-Serif" font-size="10.00">iostream</text>
</a>
</g>
</g>
<!-- Node14&#45;&gt;Node22 -->
<g id="edge33" class="edge">
<title>Node14&#45;&gt;Node22</title>
<path fill="none" stroke="midnightblue" d="M1077.47,-327.56C1028.94,-318.91 962.24,-305.4 905,-288 902.72,-287.31 900.37,-286.53 898.03,-285.7"/>
<polygon fill="midnightblue" stroke="midnightblue" points="899.17,-282.39 888.58,-282.11 896.69,-288.93 899.17,-282.39"/>
</g>
<!-- Node23 -->
<g id="node23" class="node">
<title>Node23</title>
<g id="a_node23"><a xlink:title=" ">
<polygon fill="white" stroke="#bfbfbf" points="914,-263 914,-282 966,-282 966,-263 914,-263"/>
<text text-anchor="middle" x="940" y="-270" font-family="Helvetica,sans-Serif" font-size="10.00">sstream</text>
</a>
</g>
</g>
<!-- Node14&#45;&gt;Node23 -->
<g id="edge36" class="edge">
<title>Node14&#45;&gt;Node23</title>
<path fill="none" stroke="midnightblue" d="M1092.47,-324.42C1058.64,-314.98 1013.88,-301.79 975,-288 973.14,-287.34 971.24,-286.64 969.32,-285.91"/>
<polygon fill="midnightblue" stroke="midnightblue" points="970.44,-282.58 959.85,-282.14 967.85,-289.09 970.44,-282.58"/>
</g>
<!-- Node24 -->
<g id="node24" class="node">
<title>Node24</title>
<g id="a_node24"><a xlink:title=" ">
<polygon fill="white" stroke="#bfbfbf" points="984.5,-263 984.5,-282 1025.5,-282 1025.5,-263 984.5,-263"/>
<text text-anchor="middle" x="1005" y="-270" font-family="Helvetica,sans-Serif" font-size="10.00">stack</text>
</a>
</g>
</g>
<!-- Node14&#45;&gt;Node24 -->
<g id="edge37" class="edge">
<title>Node14&#45;&gt;Node24</title>
<path fill="none" stroke="midnightblue" d="M1114.62,-324.4C1090.17,-313.04 1056.09,-297.22 1032.45,-286.24"/>
<polygon fill="midnightblue" stroke="midnightblue" points="1033.87,-283.04 1023.32,-282.01 1030.92,-289.39 1033.87,-283.04"/>
</g>
<!-- Node25 -->
<g id="node25" class="node">
<title>Node25</title>
<g id="a_node25"><a xlink:href="../../d5/de1/protobuf__msg_8h.html" target="_top" xlink:title=" ">
<polygon fill="white" stroke="black" points="1082.5,-257.5 1082.5,-287.5 1207.5,-287.5 1207.5,-257.5 1082.5,-257.5"/>
<text text-anchor="start" x="1090.5" y="-275.5" font-family="Helvetica,sans-Serif" font-size="10.00">automaton/core/data</text>
<text text-anchor="middle" x="1145" y="-264.5" font-family="Helvetica,sans-Serif" font-size="10.00">/protobuf/protobuf_msg.h</text>
</a>
</g>
</g>
<!-- Node14&#45;&gt;Node25 -->
<g id="edge42" class="edge">
<title>Node14&#45;&gt;Node25</title>
<path fill="none" stroke="midnightblue" d="M1145,-324.4C1145,-316.64 1145,-306.81 1145,-297.86"/>
<polygon fill="midnightblue" stroke="midnightblue" points="1148.5,-297.58 1145,-287.58 1141.5,-297.58 1148.5,-297.58"/>
</g>
<!-- Node25&#45;&gt;Node3 -->
<g id="edge51" class="edge">
<title>Node25&#45;&gt;Node3</title>
<path fill="none" stroke="midnightblue" d="M1082.49,-259.07C1077.6,-258.3 1072.72,-257.6 1068,-257 1006.47,-249.25 557.84,-261.65 511,-221 473.62,-188.56 474.41,-123.73 477.48,-91.54"/>
<polygon fill="midnightblue" stroke="midnightblue" points="481,-91.61 478.65,-81.28 474.04,-90.82 481,-91.61"/>
</g>
<!-- Node25&#45;&gt;Node4 -->
<g id="edge52" class="edge">
<title>Node25&#45;&gt;Node4</title>
<path fill="none" stroke="midnightblue" d="M1115.52,-257.47C1094.44,-247.4 1065.43,-233.47 1040,-221 1012.34,-207.43 1005.88,-203.11 978,-190 838.75,-124.54 669.63,-52.25 602.03,-23.65"/>
<polygon fill="midnightblue" stroke="midnightblue" points="603.01,-20.26 592.43,-19.6 600.28,-26.71 603.01,-20.26"/>
</g>
<!-- Node25&#45;&gt;Node7 -->
<g id="edge53" class="edge">
<title>Node25&#45;&gt;Node7</title>
<path fill="none" stroke="midnightblue" d="M1082.49,-259.05C1077.6,-258.28 1072.72,-257.59 1068,-257 807.29,-224.63 739.42,-246.99 478,-221 464.37,-219.65 449.79,-217.85 435.96,-215.99"/>
<polygon fill="midnightblue" stroke="midnightblue" points="436.44,-212.52 426.05,-214.63 435.48,-219.46 436.44,-212.52"/>
</g>
<!-- Node25&#45;&gt;Node10 -->
<g id="edge54" class="edge">
<title>Node25&#45;&gt;Node10</title>
<path fill="none" stroke="midnightblue" d="M1085.1,-257.48C1054.28,-249.06 1016.63,-236.88 985,-221 963.94,-210.43 963.88,-198.74 942,-190 840.08,-149.28 711.16,-140.33 635.51,-138.94"/>
<polygon fill="midnightblue" stroke="midnightblue" points="635.25,-135.44 625.2,-138.79 635.15,-142.44 635.25,-135.44"/>
</g>
<!-- Node25&#45;&gt;Node11 -->
<g id="edge55" class="edge">
<title>Node25&#45;&gt;Node11</title>
<path fill="none" stroke="midnightblue" d="M1101.68,-257.39C1084.49,-249.49 1066.38,-237.77 1056,-221 1032.42,-182.9 1037.13,-128.22 1042.62,-96.94"/>
<polygon fill="midnightblue" stroke="midnightblue" points="1046.09,-97.4 1044.54,-86.92 1039.22,-96.08 1046.09,-97.4"/>
</g>
<!-- Node25&#45;&gt;Node15 -->
<g id="edge44" class="edge">
<title>Node25&#45;&gt;Node15</title>
<path fill="none" stroke="midnightblue" d="M1207.86,-262.6C1293.09,-250.53 1444.84,-229.04 1533.73,-216.45"/>
<polygon fill="midnightblue" stroke="midnightblue" points="1534.31,-219.9 1543.72,-215.04 1533.33,-212.97 1534.31,-219.9"/>
</g>
<!-- Node25&#45;&gt;Node16 -->
<g id="edge45" class="edge">
<title>Node25&#45;&gt;Node16</title>
<path fill="none" stroke="midnightblue" d="M1207.89,-267.15C1308.21,-259.86 1510.53,-243.71 1681,-221 1690.16,-219.78 1699.84,-218.29 1709.25,-216.74"/>
<polygon fill="midnightblue" stroke="midnightblue" points="1710.04,-220.16 1719.32,-215.04 1708.88,-213.26 1710.04,-220.16"/>
</g>
<!-- Node25&#45;&gt;Node17 -->
<g id="edge46" class="edge">
<title>Node25&#45;&gt;Node17</title>
<path fill="none" stroke="midnightblue" d="M1171.69,-257.4C1189.5,-247.98 1213.12,-235.5 1232.51,-225.26"/>
<polygon fill="midnightblue" stroke="midnightblue" points="1234.16,-228.34 1241.36,-220.58 1230.89,-222.15 1234.16,-228.34"/>
</g>
<!-- Node25&#45;&gt;Node18 -->
<g id="edge47" class="edge">
<title>Node25&#45;&gt;Node18</title>
<path fill="none" stroke="midnightblue" d="M1198.72,-257.48C1239.49,-246.83 1295.41,-232.24 1336.97,-221.39"/>
<polygon fill="midnightblue" stroke="midnightblue" points="1337.88,-224.77 1346.67,-218.85 1336.11,-217.99 1337.88,-224.77"/>
</g>
<!-- Node25&#45;&gt;Node19 -->
<g id="edge48" class="edge">
<title>Node25&#45;&gt;Node19</title>
<path fill="none" stroke="midnightblue" d="M1082.47,-259.19C1077.58,-258.39 1072.72,-257.65 1068,-257 890.06,-232.49 840.85,-246.33 659.94,-221.18"/>
<polygon fill="midnightblue" stroke="midnightblue" points="660.21,-217.69 649.82,-219.75 659.23,-224.62 660.21,-217.69"/>
</g>
<!-- Node25&#45;&gt;Node20 -->
<g id="edge49" class="edge">
<title>Node25&#45;&gt;Node20</title>
<path fill="none" stroke="midnightblue" d="M1082.44,-259.41C1077.56,-258.56 1072.7,-257.75 1068,-257 944.95,-237.46 912.74,-242.39 790,-221 783.63,-219.89 776.94,-218.59 770.37,-217.22"/>
<polygon fill="midnightblue" stroke="midnightblue" points="770.71,-213.72 760.2,-215.05 769.25,-220.56 770.71,-213.72"/>
</g>
<!-- Node25&#45;&gt;Node21 -->
<g id="edge50" class="edge">
<title>Node25&#45;&gt;Node21</title>
<path fill="none" stroke="midnightblue" d="M1084.8,-257.48C1033.17,-245.45 959.82,-228.36 912.57,-217.35"/>
<polygon fill="midnightblue" stroke="midnightblue" points="913.14,-213.89 902.61,-215.03 911.55,-220.71 913.14,-213.89"/>
</g>
<!-- Node26 -->
<g id="node26" class="node">
<title>Node26</title>
<g id="a_node26"><a xlink:title=" ">
<polygon fill="white" stroke="#bfbfbf" points="1065.5,-190.5 1065.5,-220.5 1188.5,-220.5 1188.5,-190.5 1065.5,-190.5"/>
<text text-anchor="start" x="1073.5" y="-208.5" font-family="Helvetica,sans-Serif" font-size="10.00">google/protobuf/compiler</text>
<text text-anchor="middle" x="1127" y="-197.5" font-family="Helvetica,sans-Serif" font-size="10.00">/parser.h</text>
</a>
</g>
</g>
<!-- Node25&#45;&gt;Node26 -->
<g id="edge43" class="edge">
<title>Node25&#45;&gt;Node26</title>
<path fill="none" stroke="midnightblue" d="M1141.09,-257.4C1138.9,-249.47 1136.1,-239.38 1133.58,-230.27"/>
<polygon fill="midnightblue" stroke="midnightblue" points="1136.94,-229.28 1130.9,-220.58 1130.19,-231.15 1136.94,-229.28"/>
</g>
<!-- Node27&#45;&gt;Node3 -->
<g id="edge66" class="edge">
<title>Node27&#45;&gt;Node3</title>
<path fill="none" stroke="midnightblue" d="M1510.22,-257.46C1516.14,-227.63 1524.91,-157.86 1487,-123 1468.74,-106.21 692.84,-79.55 515.74,-73.67"/>
<polygon fill="midnightblue" stroke="midnightblue" points="515.75,-70.17 505.64,-73.34 515.52,-77.16 515.75,-70.17"/>
</g>
<!-- Node27&#45;&gt;Node4 -->
<g id="edge67" class="edge">
<title>Node27&#45;&gt;Node4</title>
<path fill="none" stroke="midnightblue" d="M1577.29,-263.99C1679.12,-252.77 1856.61,-231.81 1866,-221 1875.04,-210.6 1873.85,-201.32 1866,-190 1791.12,-82.02 791.35,-22.85 602.62,-12.61"/>
<polygon fill="midnightblue" stroke="midnightblue" points="602.73,-9.11 592.55,-12.07 602.35,-16.1 602.73,-9.11"/>
</g>
<!-- Node27&#45;&gt;Node6 -->
<g id="edge68" class="edge">
<title>Node27&#45;&gt;Node6</title>
<path fill="none" stroke="midnightblue" d="M1577.21,-264.22C1702.96,-251.1 1953.86,-224.51 1957,-221 2005.88,-166.33 2007.82,-108.87 1957,-56 1923.42,-21.06 1162.81,-27.5 1051.47,-19.23"/>
<polygon fill="midnightblue" stroke="midnightblue" points="1051.52,-15.72 1041.2,-18.15 1050.78,-22.68 1051.52,-15.72"/>
</g>
<!-- Node27&#45;&gt;Node11 -->
<g id="edge69" class="edge">
<title>Node27&#45;&gt;Node11</title>
<path fill="none" stroke="midnightblue" d="M1577.15,-271.45C1666.58,-269.71 1813.74,-260.7 1848,-221 1857,-210.57 1856.71,-200.68 1848,-190 1801.37,-132.85 1292.1,-90.34 1111.26,-76.95"/>
<polygon fill="midnightblue" stroke="midnightblue" points="1111.33,-73.45 1101.1,-76.21 1110.82,-80.43 1111.33,-73.45"/>
</g>
<!-- Node27&#45;&gt;Node15 -->
<g id="edge59" class="edge">
<title>Node27&#45;&gt;Node15</title>
<path fill="none" stroke="midnightblue" d="M1528.05,-257.4C1544.31,-246.5 1566.72,-231.48 1582.98,-220.58"/>
<polygon fill="midnightblue" stroke="midnightblue" points="1584.95,-223.48 1591.3,-215.01 1581.05,-217.67 1584.95,-223.48"/>
</g>
<!-- Node27&#45;&gt;Node16 -->
<g id="edge60" class="edge">
<title>Node27&#45;&gt;Node16</title>
<path fill="none" stroke="midnightblue" d="M1562.66,-257.48C1610.22,-245.5 1677.67,-228.5 1721.39,-217.49"/>
<polygon fill="midnightblue" stroke="midnightblue" points="1722.31,-220.87 1731.15,-215.03 1720.6,-214.08 1722.31,-220.87"/>
</g>
<!-- Node27&#45;&gt;Node17 -->
<g id="edge61" class="edge">
<title>Node27&#45;&gt;Node17</title>
<path fill="none" stroke="midnightblue" d="M1455.43,-257.48C1418.5,-247.43 1368.59,-233.86 1329.56,-223.24"/>
<polygon fill="midnightblue" stroke="midnightblue" points="1330.45,-219.86 1319.88,-220.61 1328.62,-226.61 1330.45,-219.86"/>
</g>
<!-- Node27&#45;&gt;Node18 -->
<g id="edge62" class="edge">
<title>Node27&#45;&gt;Node18</title>
<path fill="none" stroke="midnightblue" d="M1482.48,-257.4C1466.34,-248.11 1445.01,-235.84 1427.33,-225.67"/>
<polygon fill="midnightblue" stroke="midnightblue" points="1428.88,-222.53 1418.47,-220.58 1425.39,-228.6 1428.88,-222.53"/>
</g>
<!-- Node27&#45;&gt;Node19 -->
<g id="edge63" class="edge">
<title>Node27&#45;&gt;Node19</title>
<path fill="none" stroke="midnightblue" d="M1436.68,-267.87C1253.51,-258.34 768.84,-232.62 659.92,-221.03"/>
<polygon fill="midnightblue" stroke="midnightblue" points="660.14,-217.53 649.8,-219.85 659.33,-224.48 660.14,-217.53"/>
</g>
<!-- Node27&#45;&gt;Node20 -->
<g id="edge64" class="edge">
<title>Node27&#45;&gt;Node20</title>
<path fill="none" stroke="midnightblue" d="M1436.81,-267.87C1281.66,-259.62 913.51,-238.82 790,-221 783.06,-220 775.76,-218.67 768.64,-217.23"/>
<polygon fill="midnightblue" stroke="midnightblue" points="768.93,-213.71 758.42,-215.06 767.48,-220.56 768.93,-213.71"/>
</g>
<!-- Node27&#45;&gt;Node21 -->
<g id="edge65" class="edge">
<title>Node27&#45;&gt;Node21</title>
<path fill="none" stroke="midnightblue" d="M1436.88,-264.39C1316.02,-252.13 1069.37,-227.12 943.56,-214.36"/>
<polygon fill="midnightblue" stroke="midnightblue" points="943.54,-210.85 933.24,-213.32 942.84,-217.81 943.54,-210.85"/>
</g>
<!-- Node27&#45;&gt;Node26 -->
<g id="edge58" class="edge">
<title>Node27&#45;&gt;Node26</title>
<path fill="none" stroke="midnightblue" d="M1436.91,-260.85C1376.46,-251.48 1286.58,-237.11 1198.45,-221.04"/>
<polygon fill="midnightblue" stroke="midnightblue" points="1199.01,-217.58 1188.54,-219.22 1197.75,-224.47 1199.01,-217.58"/>
</g>
<!-- Node28&#45;&gt;Node4 -->
<g id="edge72" class="edge">
<title>Node28&#45;&gt;Node4</title>
<path fill="none" stroke="midnightblue" d="M2202.8,-329.98C2181.49,-319.98 2145.14,-302.88 2114,-288 1962.09,-215.4 1933.69,-173.26 1773,-123 1589.66,-65.65 1537,-76.49 1346,-56 1058.07,-25.12 707.46,-14.36 602.86,-11.71"/>
<polygon fill="midnightblue" stroke="midnightblue" points="602.78,-8.21 592.69,-11.46 602.6,-15.21 602.78,-8.21"/>
</g>
<!-- Node29 -->
<g id="node29" class="node">
<title>Node29</title>
<g id="a_node29"><a xlink:title=" ">
<polygon fill="white" stroke="#bfbfbf" points="2464,-263 2464,-282 2510,-282 2510,-263 2464,-263"/>
<text text-anchor="middle" x="2487" y="-270" font-family="Helvetica,sans-Serif" font-size="10.00">chrono</text>
</a>
</g>
</g>
<!-- Node28&#45;&gt;Node29 -->
<g id="edge71" class="edge">
<title>Node28&#45;&gt;Node29</title>
<path fill="none" stroke="midnightblue" d="M2276.25,-330C2324.24,-321.81 2395.21,-307.75 2455,-288 2456.87,-287.38 2458.77,-286.69 2460.68,-285.95"/>
<polygon fill="midnightblue" stroke="midnightblue" points="2462.15,-289.13 2470,-282.01 2459.42,-282.68 2462.15,-289.13"/>
</g>
<!-- Node30 -->
<g id="node30" class="node">
<title>Node30</title>
<g id="a_node30"><a xlink:title=" ">
<polygon fill="white" stroke="#bfbfbf" points="2123,-263 2123,-282 2207,-282 2207,-263 2123,-263"/>
<text text-anchor="middle" x="2165" y="-270" font-family="Helvetica,sans-Serif" font-size="10.00">g3log/g3log.hpp</text>
</a>
</g>
</g>
<!-- Node28&#45;&gt;Node30 -->
<g id="edge73" class="edge">
<title>Node28&#45;&gt;Node30</title>
<path fill="none" stroke="midnightblue" d="M2213.45,-329.73C2204.72,-319.6 2190.15,-302.69 2179.26,-290.06"/>
<polygon fill="midnightblue" stroke="midnightblue" points="2181.61,-287.42 2172.43,-282.13 2176.31,-291.99 2181.61,-287.42"/>
</g>
<!-- Node31 -->
<g id="node31" class="node">
<title>Node31</title>
<g id="a_node31"><a xlink:title=" ">
<polygon fill="white" stroke="#bfbfbf" points="2225.5,-263 2225.5,-282 2328.5,-282 2328.5,-263 2225.5,-263"/>
<text text-anchor="middle" x="2277" y="-270" font-family="Helvetica,sans-Serif" font-size="10.00">g3log/logworker.hpp</text>
</a>
</g>
</g>
<!-- Node28&#45;&gt;Node31 -->
<g id="edge74" class="edge">
<title>Node28&#45;&gt;Node31</title>
<path fill="none" stroke="midnightblue" d="M2228.55,-329.73C2237.28,-319.6 2251.85,-302.69 2262.74,-290.06"/>
<polygon fill="midnightblue" stroke="midnightblue" points="2265.69,-291.99 2269.57,-282.13 2260.39,-287.42 2265.69,-291.99"/>
</g>
<!-- Node32 -->
<g id="node32" class="node">
<title>Node32</title>
<g id="a_node32"><a xlink:title=" ">
<polygon fill="white" stroke="#bfbfbf" points="2346.5,-263 2346.5,-282 2445.5,-282 2445.5,-263 2346.5,-263"/>
<text text-anchor="middle" x="2396" y="-270" font-family="Helvetica,sans-Serif" font-size="10.00">g3log/loglevels.hpp</text>
</a>
</g>
</g>
<!-- Node28&#45;&gt;Node32 -->
<g id="edge75" class="edge">
<title>Node28&#45;&gt;Node32</title>
<path fill="none" stroke="midnightblue" d="M2244.24,-329.87C2274.79,-318.52 2328.63,-298.52 2363.28,-285.65"/>
<polygon fill="midnightblue" stroke="midnightblue" points="2364.79,-288.83 2372.94,-282.06 2362.35,-282.26 2364.79,-288.83"/>
</g>
</g>
</svg>
        <g id="navigator" transform="translate(0 0)" fill="#404254">
                <rect fill="#f2f5e9" fill-opacity="0.5" stroke="#606060" stroke-width=".5" x="0" y="0" width="60" height="60"/>
                <use id="zoomplus" xlink:href="#zoomPlus" x="17" y="9" onmousedown="handleZoom(evt,'in')"/>
                <use id="zoomminus" xlink:href="#zoomMin" x="42" y="9" onmousedown="handleZoom(evt,'out')"/>
                <use id="reset" xlink:href="#resetDef" x="30" y="36" onmousedown="handleReset()"/>
                <g id="arrowUp" xlink:href="#dirArrow" transform="translate(30 24)" onmousedown="handlePan(0,-1)">
                  <use xlink:href="#rim" fill="#404040">
                        <set attributeName="fill" to="#808080" begin="arrowUp.mouseover" end="arrowUp.mouseout"/>
                  </use>
                  <path fill="none" stroke="white" stroke-width="1.5" d="M0,-3.0v7 M-2.5,-0.5L0,-3.0L2.5,-0.5"/>
                </g>
                <g id="arrowRight" xlink:href="#dirArrow" transform="rotate(90) translate(36 -43)" onmousedown="handlePan(1,0)">
                  <use xlink:href="#rim" fill="#404040">
                        <set attributeName="fill" to="#808080" begin="arrowRight.mouseover" end="arrowRight.mouseout"/>
                  </use>
                  <path fill="none" stroke="white" stroke-width="1.5" d="M0,-3.0v7 M-2.5,-0.5L0,-3.0L2.5,-0.5"/>
                </g>
                <g id="arrowDown" xlink:href="#dirArrow" transform="rotate(180) translate(-30 -48)" onmousedown="handlePan(0,1)">
                  <use xlink:href="#rim" fill="#404040">
                        <set attributeName="fill" to="#808080" begin="arrowDown.mouseover" end="arrowDown.mouseout"/>
                  </use>
                  <path fill="none" stroke="white" stroke-width="1.5" d="M0,-3.0v7 M-2.5,-0.5L0,-3.0L2.5,-0.5"/>
                </g>
                <g id="arrowLeft" xlink:href="#dirArrow" transform="rotate(270) translate(-36 17)" onmousedown="handlePan(-1,0)">
                  <use xlink:href="#rim" fill="#404040">
                        <set attributeName="fill" to="#808080" begin="arrowLeft.mouseover" end="arrowLeft.mouseout"/>
                  </use>
                  <path fill="none" stroke="white" stroke-width="1.5" d="M0,-3.0v7 M-2.5,-0.5L0,-3.0L2.5,-0.5"/>
                </g>
        </g>
        <svg viewBox="0 0 15 15" width="100%" height="30px" preserveAspectRatio="xMaxYMin meet">
         <g id="arrow_out" transform="scale(0.3 0.3)">
          <a xlink:href="smart__protocol_8cc__incl_org.svg" target="_base">
           <rect id="button" ry="5" rx="5" y="6" x="6" height="38" width="38"
                fill="#f2f5e9" fill-opacity="0.5" stroke="#606060" stroke-width="1.0"/>
           <path id="arrow"
             d="M 11.500037,31.436501 C 11.940474,20.09759 22.043105,11.32322 32.158766,21.979434 L 37.068811,17.246167 C 37.068811,17.246167 37.088388,32 37.088388,32 L 22.160133,31.978069 C 22.160133,31.978069 26.997745,27.140456 26.997745,27.140456 C 18.528582,18.264221 13.291696,25.230495 11.500037,31.436501 z"
             style="fill:#404040;"/>
          </a>
         </g>
        </svg>
</svg>
