<?xml version="1.0" encoding="UTF-8" standalone="no"?>
<!DOCTYPE svg PUBLIC "-//W3C//DTD SVG 1.1//EN"
 "http://www.w3.org/Graphics/SVG/1.1/DTD/svg11.dtd">
<!-- Generated by graphviz version 2.44.0 ()
 -->
<!-- Title: tcp_implementation.cc Pages: 1 -->
<svg width="1849pt" height="352pt"
 viewBox="0.00 0.00 1848.50 352.00" xmlns="http://www.w3.org/2000/svg" xmlns:xlink="http://www.w3.org/1999/xlink">
<g id="graph0" class="graph" transform="scale(1 1) rotate(0) translate(4 348)">
<title>tcp_implementation.cc</title>
<polygon fill="white" stroke="transparent" points="-4,4 -4,-348 1844.5,-348 1844.5,4 -4,4"/>
<!-- Node1 -->
<g id="node1" class="node">
<title>Node1</title>
<g id="a_node1"><a xlink:title=" ">
<polygon fill="#bfbfbf" stroke="black" points="1031.5,-324.5 1031.5,-343.5 1145.5,-343.5 1145.5,-324.5 1031.5,-324.5"/>
<text text-anchor="middle" x="1088.5" y="-331.5" font-family="Helvetica,sans-Serif" font-size="10.00">tcp_implementation.cc</text>
</a>
</g>
</g>
<!-- Node2 -->
<g id="node2" class="node">
<title>Node2</title>
<g id="a_node2"><a xlink:href="../../d8/d3f/tcp__implementation_8h.html" target="_top" xlink:title=" ">
<polygon fill="white" stroke="black" points="1027.5,-257.5 1027.5,-287.5 1149.5,-287.5 1149.5,-257.5 1027.5,-257.5"/>
<text text-anchor="start" x="1035.5" y="-275.5" font-family="Helvetica,sans-Serif" font-size="10.00">automaton/core/network</text>
<text text-anchor="middle" x="1088.5" y="-264.5" font-family="Helvetica,sans-Serif" font-size="10.00">/tcp_implementation.h</text>
</a>
</g>
</g>
<!-- Node1&#45;&gt;Node2 -->
<g id="edge1" class="edge">
<title>Node1&#45;&gt;Node2</title>
<path fill="none" stroke="midnightblue" d="M1088.5,-324.48C1088.5,-317.47 1088.5,-307.19 1088.5,-297.7"/>
<polygon fill="midnightblue" stroke="midnightblue" points="1092,-297.52 1088.5,-287.52 1085,-297.52 1092,-297.52"/>
</g>
<!-- Node5 -->
<g id="node5" class="node">
<title>Node5</title>
<g id="a_node5"><a xlink:title=" ">
<polygon fill="white" stroke="#bfbfbf" points="482,-196 482,-215 525,-215 525,-196 482,-196"/>
<text text-anchor="middle" x="503.5" y="-203" font-family="Helvetica,sans-Serif" font-size="10.00">mutex</text>
</a>
</g>
</g>
<!-- Node1&#45;&gt;Node5 -->
<g id="edge30" class="edge">
<title>Node1&#45;&gt;Node5</title>
<path fill="none" stroke="midnightblue" d="M1031.15,-324.82C930.33,-309.66 715.33,-273.87 539.5,-221 537.21,-220.31 534.87,-219.54 532.53,-218.71"/>
<polygon fill="midnightblue" stroke="midnightblue" points="533.67,-215.4 523.08,-215.13 531.19,-221.95 533.67,-215.4"/>
</g>
<!-- Node21 -->
<g id="node21" class="node">
<title>Node21</title>
<g id="a_node21"><a xlink:title=" ">
<polygon fill="white" stroke="#bfbfbf" points="938.5,-62 938.5,-81 982.5,-81 982.5,-62 938.5,-62"/>
<text text-anchor="middle" x="960.5" y="-69" font-family="Helvetica,sans-Serif" font-size="10.00">thread</text>
</a>
</g>
</g>
<!-- Node1&#45;&gt;Node21 -->
<g id="edge33" class="edge">
<title>Node1&#45;&gt;Node21</title>
<path fill="none" stroke="midnightblue" d="M1031.28,-332.09C891.42,-328.48 538.88,-310.49 473.5,-221 465.37,-209.88 464.98,-200.82 473.5,-190 530.74,-117.31 829.18,-84.29 928.39,-75.2"/>
<polygon fill="midnightblue" stroke="midnightblue" points="928.78,-78.68 938.42,-74.31 928.15,-71.71 928.78,-78.68"/>
</g>
<!-- Node22 -->
<g id="node22" class="node">
<title>Node22</title>
<g id="a_node22"><a xlink:title=" ">
<polygon fill="white" stroke="#bfbfbf" points="1167.5,-263 1167.5,-282 1207.5,-282 1207.5,-263 1167.5,-263"/>
<text text-anchor="middle" x="1187.5" y="-270" font-family="Helvetica,sans-Serif" font-size="10.00">regex</text>
</a>
</g>
</g>
<!-- Node1&#45;&gt;Node22 -->
<g id="edge31" class="edge">
<title>Node1&#45;&gt;Node22</title>
<path fill="none" stroke="midnightblue" d="M1102.68,-324.48C1118.86,-314.75 1145.53,-298.73 1164.64,-287.24"/>
<polygon fill="midnightblue" stroke="midnightblue" points="1166.57,-290.16 1173.34,-282.01 1162.97,-284.16 1166.57,-290.16"/>
</g>
<!-- Node23 -->
<g id="node23" class="node">
<title>Node23</title>
<g id="a_node23"><a xlink:title=" ">
<polygon fill="white" stroke="#bfbfbf" points="1225.5,-263 1225.5,-282 1277.5,-282 1277.5,-263 1225.5,-263"/>
<text text-anchor="middle" x="1251.5" y="-270" font-family="Helvetica,sans-Serif" font-size="10.00">sstream</text>
</a>
</g>
</g>
<!-- Node1&#45;&gt;Node23 -->
<g id="edge32" class="edge">
<title>Node1&#45;&gt;Node23</title>
<path fill="none" stroke="midnightblue" d="M1114.15,-324.44C1140.1,-315.68 1181.3,-301.47 1216.5,-288 1218.15,-287.37 1219.83,-286.71 1221.53,-286.04"/>
<polygon fill="midnightblue" stroke="midnightblue" points="1223.26,-289.12 1231.22,-282.12 1220.63,-282.63 1223.26,-289.12"/>
</g>
<!-- Node24 -->
<g id="node24" class="node">
<title>Node24</title>
<g id="a_node24"><a xlink:title=" ">
<polygon fill="white" stroke="#bfbfbf" points="1296,-263 1296,-282 1397,-282 1397,-263 1296,-263"/>
<text text-anchor="middle" x="1346.5" y="-270" font-family="Helvetica,sans-Serif" font-size="10.00">boost/asio/read.hpp</text>
</a>
</g>
</g>
<!-- Node1&#45;&gt;Node24 -->
<g id="edge34" class="edge">
<title>Node1&#45;&gt;Node24</title>
<path fill="none" stroke="midnightblue" d="M1126.86,-324.44C1166.78,-315.5 1231.07,-301 1286.5,-288 1291.46,-286.84 1296.65,-285.61 1301.8,-284.37"/>
<polygon fill="midnightblue" stroke="midnightblue" points="1302.71,-287.75 1311.62,-282.01 1301.08,-280.95 1302.71,-287.75"/>
</g>
<!-- Node25 -->
<g id="node25" class="node">
<title>Node25</title>
<g id="a_node25"><a xlink:href="../../dc/dac/io_8h.html" target="_top" xlink:title=" ">
<polygon fill="white" stroke="black" points="170,-263 170,-282 283,-282 283,-263 170,-263"/>
<text text-anchor="middle" x="226.5" y="-270" font-family="Helvetica,sans-Serif" font-size="10.00">automaton/core/io/io.h</text>
</a>
</g>
</g>
<!-- Node1&#45;&gt;Node25 -->
<g id="edge35" class="edge">
<title>Node1&#45;&gt;Node25</title>
<path fill="none" stroke="midnightblue" d="M1031.27,-329.05C877.84,-318.46 457.82,-289.47 293.59,-278.13"/>
<polygon fill="midnightblue" stroke="midnightblue" points="293.36,-274.61 283.14,-277.41 292.88,-281.59 293.36,-274.61"/>
</g>
<!-- Node3 -->
<g id="node3" class="node">
<title>Node3</title>
<g id="a_node3"><a xlink:title=" ">
<polygon fill="white" stroke="#bfbfbf" points="1646.5,-0.5 1646.5,-19.5 1700.5,-19.5 1700.5,-0.5 1646.5,-0.5"/>
<text text-anchor="middle" x="1673.5" y="-7.5" font-family="Helvetica,sans-Serif" font-size="10.00">iostream</text>
</a>
</g>
</g>
<!-- Node2&#45;&gt;Node3 -->
<g id="edge2" class="edge">
<title>Node2&#45;&gt;Node3</title>
<path fill="none" stroke="midnightblue" d="M1149.88,-258.29C1152.79,-257.82 1155.67,-257.39 1158.5,-257 1217.31,-248.96 1650.97,-264.36 1691.5,-221 1741.61,-167.39 1702.16,-68.9 1682.72,-28.75"/>
<polygon fill="midnightblue" stroke="midnightblue" points="1685.78,-27.03 1678.17,-19.66 1679.52,-30.16 1685.78,-27.03"/>
</g>
<!-- Node4 -->
<g id="node4" class="node">
<title>Node4</title>
<g id="a_node4"><a xlink:title=" ">
<polygon fill="white" stroke="#bfbfbf" points="1358,-62 1358,-81 1409,-81 1409,-62 1358,-62"/>
<text text-anchor="middle" x="1383.5" y="-69" font-family="Helvetica,sans-Serif" font-size="10.00">memory</text>
</a>
</g>
</g>
<!-- Node2&#45;&gt;Node4 -->
<g id="edge3" class="edge">
<title>Node2&#45;&gt;Node4</title>
<path fill="none" stroke="midnightblue" d="M1149.57,-258.77C1152.59,-258.17 1155.58,-257.57 1158.5,-257 1244.99,-240.06 1290.66,-282.79 1353.5,-221 1388.74,-186.34 1388.41,-122.55 1385.74,-91.07"/>
<polygon fill="midnightblue" stroke="midnightblue" points="1389.21,-90.64 1384.71,-81.05 1382.25,-91.35 1389.21,-90.64"/>
</g>
<!-- Node2&#45;&gt;Node5 -->
<g id="edge4" class="edge">
<title>Node2&#45;&gt;Node5</title>
<path fill="none" stroke="midnightblue" d="M1027.44,-271.63C925.08,-270.59 713.01,-262.97 539.5,-221 536.83,-220.35 534.1,-219.55 531.39,-218.64"/>
<polygon fill="midnightblue" stroke="midnightblue" points="532.44,-215.3 521.85,-215.09 529.99,-221.86 532.44,-215.3"/>
</g>
<!-- Node6 -->
<g id="node6" class="node">
<title>Node6</title>
<g id="a_node6"><a xlink:title=" ">
<polygon fill="white" stroke="#bfbfbf" points="1417,-0.5 1417,-19.5 1458,-19.5 1458,-0.5 1417,-0.5"/>
<text text-anchor="middle" x="1437.5" y="-7.5" font-family="Helvetica,sans-Serif" font-size="10.00">string</text>
</a>
</g>
</g>
<!-- Node2&#45;&gt;Node6 -->
<g id="edge5" class="edge">
<title>Node2&#45;&gt;Node6</title>
<path fill="none" stroke="midnightblue" d="M1027.13,-270.02C896.96,-266.26 602.55,-254.13 572.5,-221 563.24,-210.79 564.65,-201.33 572.5,-190 669.01,-50.69 764.25,-93.6 929.5,-56 1106.78,-15.67 1326.5,-11.08 1406.52,-10.85"/>
<polygon fill="midnightblue" stroke="midnightblue" points="1406.87,-14.35 1416.87,-10.84 1406.86,-7.35 1406.87,-14.35"/>
</g>
<!-- Node7 -->
<g id="node7" class="node">
<title>Node7</title>
<g id="a_node7"><a xlink:title=" ">
<polygon fill="white" stroke="#bfbfbf" points="1739,-196 1739,-215 1778,-215 1778,-196 1739,-196"/>
<text text-anchor="middle" x="1758.5" y="-203" font-family="Helvetica,sans-Serif" font-size="10.00">utility</text>
</a>
</g>
</g>
<!-- Node2&#45;&gt;Node7 -->
<g id="edge6" class="edge">
<title>Node2&#45;&gt;Node7</title>
<path fill="none" stroke="midnightblue" d="M1149.88,-258.28C1152.79,-257.81 1155.67,-257.38 1158.5,-257 1408.31,-223.35 1479.27,-279.28 1724.5,-221 1727.01,-220.4 1729.58,-219.63 1732.11,-218.76"/>
<polygon fill="midnightblue" stroke="midnightblue" points="1733.56,-221.96 1741.59,-215.05 1731,-215.44 1733.56,-221.96"/>
</g>
<!-- Node8 -->
<g id="node8" class="node">
<title>Node8</title>
<g id="a_node8"><a xlink:title=" ">
<polygon fill="white" stroke="#bfbfbf" points="1796.5,-196 1796.5,-215 1840.5,-215 1840.5,-196 1796.5,-196"/>
<text text-anchor="middle" x="1818.5" y="-203" font-family="Helvetica,sans-Serif" font-size="10.00">vector</text>
</a>
</g>
</g>
<!-- Node2&#45;&gt;Node8 -->
<g id="edge7" class="edge">
<title>Node2&#45;&gt;Node8</title>
<path fill="none" stroke="midnightblue" d="M1149.87,-258.25C1152.78,-257.79 1155.67,-257.37 1158.5,-257 1436.12,-220.5 1516.01,-289.55 1787.5,-221 1789.49,-220.5 1791.5,-219.87 1793.5,-219.15"/>
<polygon fill="midnightblue" stroke="midnightblue" points="1795.3,-222.19 1803.16,-215.08 1792.58,-215.74 1795.3,-222.19"/>
</g>
<!-- Node9 -->
<g id="node9" class="node">
<title>Node9</title>
<g id="a_node9"><a xlink:title=" ">
<polygon fill="white" stroke="#bfbfbf" points="581.5,-190.5 581.5,-220.5 687.5,-220.5 687.5,-190.5 581.5,-190.5"/>
<text text-anchor="start" x="589.5" y="-208.5" font-family="Helvetica,sans-Serif" font-size="10.00">boost/config/warning</text>
<text text-anchor="middle" x="634.5" y="-197.5" font-family="Helvetica,sans-Serif" font-size="10.00">_disable.hpp</text>
</a>
</g>
</g>
<!-- Node2&#45;&gt;Node9 -->
<g id="edge8" class="edge">
<title>Node2&#45;&gt;Node9</title>
<path fill="none" stroke="midnightblue" d="M1027.26,-265.46C952.09,-257.64 820.55,-242.59 697.66,-220.91"/>
<polygon fill="midnightblue" stroke="midnightblue" points="698.16,-217.44 687.7,-219.13 696.93,-224.33 698.16,-217.44"/>
</g>
<!-- Node10 -->
<g id="node10" class="node">
<title>Node10</title>
<g id="a_node10"><a xlink:title=" ">
<polygon fill="white" stroke="#bfbfbf" points="706,-190.5 706,-220.5 829,-220.5 829,-190.5 706,-190.5"/>
<text text-anchor="start" x="714" y="-208.5" font-family="Helvetica,sans-Serif" font-size="10.00">boost/asio/basic_stream</text>
<text text-anchor="middle" x="767.5" y="-197.5" font-family="Helvetica,sans-Serif" font-size="10.00">_socket.hpp</text>
</a>
</g>
</g>
<!-- Node2&#45;&gt;Node10 -->
<g id="edge9" class="edge">
<title>Node2&#45;&gt;Node10</title>
<path fill="none" stroke="midnightblue" d="M1027.36,-259.19C979.02,-249.44 909.52,-235.42 839.02,-221.1"/>
<polygon fill="midnightblue" stroke="midnightblue" points="839.57,-217.64 829.07,-219.08 838.18,-224.5 839.57,-217.64"/>
</g>
<!-- Node11 -->
<g id="node11" class="node">
<title>Node11</title>
<g id="a_node11"><a xlink:title=" ">
<polygon fill="white" stroke="#bfbfbf" points="847,-196 847,-215 954,-215 954,-196 847,-196"/>
<text text-anchor="middle" x="900.5" y="-203" font-family="Helvetica,sans-Serif" font-size="10.00">boost/asio/buffer.hpp</text>
</a>
</g>
</g>
<!-- Node2&#45;&gt;Node11 -->
<g id="edge10" class="edge">
<title>Node2&#45;&gt;Node11</title>
<path fill="none" stroke="midnightblue" d="M1047.71,-257.4C1013.99,-245.74 966.66,-229.37 934.85,-218.38"/>
<polygon fill="midnightblue" stroke="midnightblue" points="935.7,-214.97 925.1,-215.01 933.41,-221.58 935.7,-214.97"/>
</g>
<!-- Node12 -->
<g id="node12" class="node">
<title>Node12</title>
<g id="a_node12"><a xlink:title=" ">
<polygon fill="white" stroke="#bfbfbf" points="971.5,-196 971.5,-215 1073.5,-215 1073.5,-196 971.5,-196"/>
<text text-anchor="middle" x="1022.5" y="-203" font-family="Helvetica,sans-Serif" font-size="10.00">boost/asio/error.hpp</text>
</a>
</g>
</g>
<!-- Node2&#45;&gt;Node12 -->
<g id="edge11" class="edge">
<title>Node2&#45;&gt;Node12</title>
<path fill="none" stroke="midnightblue" d="M1074.18,-257.4C1063.68,-247.06 1049.43,-233.02 1038.55,-222.31"/>
<polygon fill="midnightblue" stroke="midnightblue" points="1040.91,-219.72 1031.33,-215.19 1036,-224.71 1040.91,-219.72"/>
</g>
<!-- Node13 -->
<g id="node13" class="node">
<title>Node13</title>
<g id="a_node13"><a xlink:title=" ">
<polygon fill="white" stroke="#bfbfbf" points="1092,-196 1092,-215 1219,-215 1219,-196 1092,-196"/>
<text text-anchor="middle" x="1155.5" y="-203" font-family="Helvetica,sans-Serif" font-size="10.00">boost/asio/io_service.hpp</text>
</a>
</g>
</g>
<!-- Node2&#45;&gt;Node13 -->
<g id="edge12" class="edge">
<title>Node2&#45;&gt;Node13</title>
<path fill="none" stroke="midnightblue" d="M1103.04,-257.4C1113.69,-247.06 1128.16,-233.02 1139.2,-222.31"/>
<polygon fill="midnightblue" stroke="midnightblue" points="1141.8,-224.67 1146.54,-215.19 1136.92,-219.65 1141.8,-224.67"/>
</g>
<!-- Node14 -->
<g id="node14" class="node">
<title>Node14</title>
<g id="a_node14"><a xlink:title=" ">
<polygon fill="white" stroke="#bfbfbf" points="1237,-196 1237,-215 1344,-215 1344,-196 1237,-196"/>
<text text-anchor="middle" x="1290.5" y="-203" font-family="Helvetica,sans-Serif" font-size="10.00">boost/asio/ip/tcp.hpp</text>
</a>
</g>
</g>
<!-- Node2&#45;&gt;Node14 -->
<g id="edge13" class="edge">
<title>Node2&#45;&gt;Node14</title>
<path fill="none" stroke="midnightblue" d="M1132.33,-257.4C1168.87,-245.64 1220.3,-229.09 1254.48,-218.09"/>
<polygon fill="midnightblue" stroke="midnightblue" points="1255.62,-221.4 1264.06,-215.01 1253.47,-214.74 1255.62,-221.4"/>
</g>
<!-- Node15 -->
<g id="node15" class="node">
<title>Node15</title>
<g id="a_node15"><a xlink:title=" ">
<polygon fill="white" stroke="#bfbfbf" points="1400.5,-196 1400.5,-215 1504.5,-215 1504.5,-196 1400.5,-196"/>
<text text-anchor="middle" x="1452.5" y="-203" font-family="Helvetica,sans-Serif" font-size="10.00">boost/asio/write.hpp</text>
</a>
</g>
</g>
<!-- Node2&#45;&gt;Node15 -->
<g id="edge14" class="edge">
<title>Node2&#45;&gt;Node15</title>
<path fill="none" stroke="midnightblue" d="M1149.55,-258.68C1152.57,-258.1 1155.57,-257.53 1158.5,-257 1259.42,-238.59 1285.69,-240.02 1386.5,-221 1392.7,-219.83 1399.22,-218.51 1405.63,-217.16"/>
<polygon fill="midnightblue" stroke="midnightblue" points="1406.54,-220.54 1415.58,-215.02 1405.07,-213.7 1406.54,-220.54"/>
</g>
<!-- Node16 -->
<g id="node16" class="node">
<title>Node16</title>
<g id="a_node16"><a xlink:href="../../d1/d31/acceptor_8h.html" target="_top" xlink:title=" ">
<polygon fill="white" stroke="black" points="1560.5,-190.5 1560.5,-220.5 1682.5,-220.5 1682.5,-190.5 1560.5,-190.5"/>
<text text-anchor="start" x="1568.5" y="-208.5" font-family="Helvetica,sans-Serif" font-size="10.00">automaton/core/network</text>
<text text-anchor="middle" x="1621.5" y="-197.5" font-family="Helvetica,sans-Serif" font-size="10.00">/acceptor.h</text>
</a>
</g>
</g>
<!-- Node2&#45;&gt;Node16 -->
<g id="edge15" class="edge">
<title>Node2&#45;&gt;Node16</title>
<path fill="none" stroke="midnightblue" d="M1149.51,-258.44C1152.55,-257.93 1155.55,-257.44 1158.5,-257 1329.78,-231.4 1375.05,-245.47 1546.5,-221 1547.76,-220.82 1549.02,-220.63 1550.3,-220.44"/>
<polygon fill="midnightblue" stroke="midnightblue" points="1550.86,-223.9 1560.19,-218.86 1549.76,-216.98 1550.86,-223.9"/>
</g>
<!-- Node20 -->
<g id="node20" class="node">
<title>Node20</title>
<g id="a_node20"><a xlink:href="../../d4/d67/connection_8h.html" target="_top" xlink:title=" ">
<polygon fill="white" stroke="black" points="1438.5,-123.5 1438.5,-153.5 1560.5,-153.5 1560.5,-123.5 1438.5,-123.5"/>
<text text-anchor="start" x="1446.5" y="-141.5" font-family="Helvetica,sans-Serif" font-size="10.00">automaton/core/network</text>
<text text-anchor="middle" x="1499.5" y="-130.5" font-family="Helvetica,sans-Serif" font-size="10.00">/connection.h</text>
</a>
</g>
</g>
<!-- Node2&#45;&gt;Node20 -->
<g id="edge29" class="edge">
<title>Node2&#45;&gt;Node20</title>
<path fill="none" stroke="midnightblue" d="M1149.52,-258.47C1152.55,-257.95 1155.56,-257.45 1158.5,-257 1236.87,-244.94 1460.33,-279.83 1513.5,-221 1527.63,-205.36 1520.95,-180.86 1512.68,-162.8"/>
<polygon fill="midnightblue" stroke="midnightblue" points="1515.65,-160.9 1508.04,-153.52 1509.39,-164.03 1515.65,-160.9"/>
</g>
<!-- Node16&#45;&gt;Node4 -->
<g id="edge17" class="edge">
<title>Node16&#45;&gt;Node4</title>
<path fill="none" stroke="midnightblue" d="M1560.05,-193.72C1511.95,-184.32 1449.9,-169.74 1429.5,-154 1408.64,-137.91 1395.75,-109.5 1389.1,-90.83"/>
<polygon fill="midnightblue" stroke="midnightblue" points="1392.36,-89.53 1385.9,-81.14 1385.71,-91.73 1392.36,-89.53"/>
</g>
<!-- Node16&#45;&gt;Node6 -->
<g id="edge18" class="edge">
<title>Node16&#45;&gt;Node6</title>
<path fill="none" stroke="midnightblue" d="M1615.48,-190.45C1607.3,-172.74 1591.18,-142.32 1569.5,-123 1542.19,-98.67 1523.8,-110.16 1495.5,-87 1475.1,-70.3 1457.69,-45.07 1447.41,-28.32"/>
<polygon fill="midnightblue" stroke="midnightblue" points="1450.33,-26.38 1442.21,-19.57 1444.31,-29.95 1450.33,-26.38"/>
</g>
<!-- Node17 -->
<g id="node17" class="node">
<title>Node17</title>
<g id="a_node17"><a xlink:title=" ">
<polygon fill="white" stroke="#bfbfbf" points="1647,-62 1647,-81 1682,-81 1682,-62 1647,-62"/>
<text text-anchor="middle" x="1664.5" y="-69" font-family="Helvetica,sans-Serif" font-size="10.00">map</text>
</a>
</g>
</g>
<!-- Node16&#45;&gt;Node17 -->
<g id="edge16" class="edge">
<title>Node16&#45;&gt;Node17</title>
<path fill="none" stroke="midnightblue" d="M1627.1,-190.45C1631.04,-180.37 1636.34,-166.44 1640.5,-154 1647.65,-132.64 1654.82,-107.75 1659.43,-91.15"/>
<polygon fill="midnightblue" stroke="midnightblue" points="1662.91,-91.7 1662.18,-81.13 1656.16,-89.84 1662.91,-91.7"/>
</g>
<!-- Node18 -->
<g id="node18" class="node">
<title>Node18</title>
<g id="a_node18"><a xlink:href="../../d1/d13/status_8h.html" target="_top" xlink:title=" ">
<polygon fill="white" stroke="black" points="1504,-56.5 1504,-86.5 1629,-86.5 1629,-56.5 1504,-56.5"/>
<text text-anchor="start" x="1512" y="-74.5" font-family="Helvetica,sans-Serif" font-size="10.00">automaton/core/common</text>
<text text-anchor="middle" x="1566.5" y="-63.5" font-family="Helvetica,sans-Serif" font-size="10.00">/status.h</text>
</a>
</g>
</g>
<!-- Node16&#45;&gt;Node18 -->
<g id="edge19" class="edge">
<title>Node16&#45;&gt;Node18</title>
<path fill="none" stroke="midnightblue" d="M1619.91,-190.41C1617.65,-173.73 1612.61,-145.38 1602.5,-123 1597.98,-112.99 1591.35,-102.94 1585,-94.47"/>
<polygon fill="midnightblue" stroke="midnightblue" points="1587.76,-92.31 1578.84,-86.59 1582.24,-96.62 1587.76,-92.31"/>
</g>
<!-- Node16&#45;&gt;Node20 -->
<g id="edge23" class="edge">
<title>Node16&#45;&gt;Node20</title>
<path fill="none" stroke="midnightblue" d="M1595.03,-190.4C1577.44,-181.03 1554.15,-168.62 1534.96,-158.39"/>
<polygon fill="midnightblue" stroke="midnightblue" points="1536.39,-155.19 1525.92,-153.58 1533.1,-161.37 1536.39,-155.19"/>
</g>
<!-- Node18&#45;&gt;Node3 -->
<g id="edge22" class="edge">
<title>Node18&#45;&gt;Node3</title>
<path fill="none" stroke="midnightblue" d="M1591.86,-56.4C1609.17,-46.77 1631.98,-34.09 1649.08,-24.58"/>
<polygon fill="midnightblue" stroke="midnightblue" points="1650.89,-27.58 1657.93,-19.66 1647.49,-21.46 1650.89,-27.58"/>
</g>
<!-- Node18&#45;&gt;Node6 -->
<g id="edge21" class="edge">
<title>Node18&#45;&gt;Node6</title>
<path fill="none" stroke="midnightblue" d="M1535.93,-56.4C1514.57,-46.55 1486.28,-33.5 1465.52,-23.92"/>
<polygon fill="midnightblue" stroke="midnightblue" points="1466.82,-20.67 1456.27,-19.66 1463.89,-27.02 1466.82,-20.67"/>
</g>
<!-- Node19 -->
<g id="node19" class="node">
<title>Node19</title>
<g id="a_node19"><a xlink:title=" ">
<polygon fill="white" stroke="#bfbfbf" points="1540.5,-0.5 1540.5,-19.5 1592.5,-19.5 1592.5,-0.5 1540.5,-0.5"/>
<text text-anchor="middle" x="1566.5" y="-7.5" font-family="Helvetica,sans-Serif" font-size="10.00">ostream</text>
</a>
</g>
</g>
<!-- Node18&#45;&gt;Node19 -->
<g id="edge20" class="edge">
<title>Node18&#45;&gt;Node19</title>
<path fill="none" stroke="midnightblue" d="M1566.5,-56.4C1566.5,-48.47 1566.5,-38.46 1566.5,-29.86"/>
<polygon fill="midnightblue" stroke="midnightblue" points="1570,-29.66 1566.5,-19.66 1563,-29.66 1570,-29.66"/>
</g>
<!-- Node20&#45;&gt;Node4 -->
<g id="edge25" class="edge">
<title>Node20&#45;&gt;Node4</title>
<path fill="none" stroke="midnightblue" d="M1474.33,-123.4C1454.52,-112.29 1427.08,-96.92 1407.56,-85.98"/>
<polygon fill="midnightblue" stroke="midnightblue" points="1409.12,-82.84 1398.68,-81.01 1405.69,-88.95 1409.12,-82.84"/>
</g>
<!-- Node20&#45;&gt;Node6 -->
<g id="edge26" class="edge">
<title>Node20&#45;&gt;Node6</title>
<path fill="none" stroke="midnightblue" d="M1486.78,-123.36C1478.63,-113.69 1468.33,-100.27 1461.5,-87 1452.02,-68.59 1445.42,-45.73 1441.58,-29.91"/>
<polygon fill="midnightblue" stroke="midnightblue" points="1444.9,-28.77 1439.26,-19.81 1438.08,-30.34 1444.9,-28.77"/>
</g>
<!-- Node20&#45;&gt;Node17 -->
<g id="edge24" class="edge">
<title>Node20&#45;&gt;Node17</title>
<path fill="none" stroke="midnightblue" d="M1543.73,-123.45C1571.41,-114.17 1607.56,-101.14 1638.5,-87 1639.34,-86.61 1640.2,-86.21 1641.05,-85.8"/>
<polygon fill="midnightblue" stroke="midnightblue" points="1642.9,-88.78 1650.14,-81.05 1639.65,-82.58 1642.9,-88.78"/>
</g>
<!-- Node20&#45;&gt;Node18 -->
<g id="edge28" class="edge">
<title>Node20&#45;&gt;Node18</title>
<path fill="none" stroke="midnightblue" d="M1514.04,-123.4C1522.99,-114.71 1534.64,-103.4 1544.69,-93.66"/>
<polygon fill="midnightblue" stroke="midnightblue" points="1547.25,-96.05 1551.99,-86.58 1542.38,-91.03 1547.25,-96.05"/>
</g>
<!-- Node20&#45;&gt;Node21 -->
<g id="edge27" class="edge">
<title>Node20&#45;&gt;Node21</title>
<path fill="none" stroke="midnightblue" d="M1438.46,-130.14C1323.89,-116.32 1080.33,-86.95 992.73,-76.39"/>
<polygon fill="midnightblue" stroke="midnightblue" points="992.95,-72.89 982.6,-75.17 992.11,-79.84 992.95,-72.89"/>
</g>
<!-- Node25&#45;&gt;Node6 -->
<g id="edge37" class="edge">
<title>Node25&#45;&gt;Node6</title>
<path fill="none" stroke="midnightblue" d="M220.84,-262.88C211.07,-246.82 193.63,-211.95 210.5,-190 351.47,-6.56 485.15,-93.14 713.5,-56 979.45,-12.75 1306.57,-10.36 1406.85,-10.74"/>
<polygon fill="midnightblue" stroke="midnightblue" points="1406.87,-14.24 1416.89,-10.79 1406.91,-7.24 1406.87,-14.24"/>
</g>
<!-- Node26 -->
<g id="node26" class="node">
<title>Node26</title>
<g id="a_node26"><a xlink:title=" ">
<polygon fill="white" stroke="#bfbfbf" points="117.5,-196 117.5,-215 163.5,-215 163.5,-196 117.5,-196"/>
<text text-anchor="middle" x="140.5" y="-203" font-family="Helvetica,sans-Serif" font-size="10.00">chrono</text>
</a>
</g>
</g>
<!-- Node25&#45;&gt;Node26 -->
<g id="edge36" class="edge">
<title>Node25&#45;&gt;Node26</title>
<path fill="none" stroke="midnightblue" d="M214.9,-262.73C200.85,-252.11 176.95,-234.05 160.03,-221.26"/>
<polygon fill="midnightblue" stroke="midnightblue" points="162,-218.36 151.91,-215.13 157.78,-223.95 162,-218.36"/>
</g>
<!-- Node27 -->
<g id="node27" class="node">
<title>Node27</title>
<g id="a_node27"><a xlink:title=" ">
<polygon fill="white" stroke="#bfbfbf" points="219.5,-196 219.5,-215 303.5,-215 303.5,-196 219.5,-196"/>
<text text-anchor="middle" x="261.5" y="-203" font-family="Helvetica,sans-Serif" font-size="10.00">g3log/g3log.hpp</text>
</a>
</g>
</g>
<!-- Node25&#45;&gt;Node27 -->
<g id="edge38" class="edge">
<title>Node25&#45;&gt;Node27</title>
<path fill="none" stroke="midnightblue" d="M231.22,-262.73C236.52,-252.89 245.26,-236.66 251.99,-224.16"/>
<polygon fill="midnightblue" stroke="midnightblue" points="255.2,-225.59 256.85,-215.13 249.03,-222.27 255.2,-225.59"/>
</g>
<!-- Node28 -->
<g id="node28" class="node">
<title>Node28</title>
<g id="a_node28"><a xlink:title=" ">
<polygon fill="white" stroke="#bfbfbf" points="322,-196 322,-215 425,-215 425,-196 322,-196"/>
<text text-anchor="middle" x="373.5" y="-203" font-family="Helvetica,sans-Serif" font-size="10.00">g3log/logworker.hpp</text>
</a>
</g>
</g>
<!-- Node25&#45;&gt;Node28 -->
<g id="edge39" class="edge">
<title>Node25&#45;&gt;Node28</title>
<path fill="none" stroke="midnightblue" d="M246.02,-262.87C271.28,-251.7 315.5,-232.15 344.64,-219.26"/>
<polygon fill="midnightblue" stroke="midnightblue" points="346.17,-222.41 353.9,-215.17 343.34,-216.01 346.17,-222.41"/>
</g>
<!-- Node29 -->
<g id="node29" class="node">
<title>Node29</title>
<g id="a_node29"><a xlink:title=" ">
<polygon fill="white" stroke="#bfbfbf" points="0,-196 0,-215 99,-215 99,-196 0,-196"/>
<text text-anchor="middle" x="49.5" y="-203" font-family="Helvetica,sans-Serif" font-size="10.00">g3log/loglevels.hpp</text>
</a>
</g>
</g>
<!-- Node25&#45;&gt;Node29 -->
<g id="edge40" class="edge">
<title>Node25&#45;&gt;Node29</title>
<path fill="none" stroke="midnightblue" d="M203,-262.87C172.1,-251.52 117.64,-231.52 82.59,-218.65"/>
<polygon fill="midnightblue" stroke="midnightblue" points="83.41,-215.23 72.82,-215.06 81,-221.8 83.41,-215.23"/>
</g>
</g>
</svg>
