<?xml version="1.0" encoding="UTF-8" standalone="no"?>
<!DOCTYPE svg PUBLIC "-//W3C//DTD SVG 1.1//EN"
 "http://www.w3.org/Graphics/SVG/1.1/DTD/svg11.dtd">
<!-- Generated by graphviz version 2.42.3 ()
 -->
<!-- Title: automaton::core::state::state_persistent::node::set_hash Pages: 1 -->
<svg width="452pt" height="94pt"
 viewBox="0.00 0.00 452.00 93.50" xmlns="http://www.w3.org/2000/svg" xmlns:xlink="http://www.w3.org/1999/xlink">
<g id="graph0" class="graph" transform="scale(1 1) rotate(0) translate(4 89.5)">
<title>automaton::core::state::state_persistent::node::set_hash</title>
<polygon fill="white" stroke="transparent" points="-4,4 -4,-89.5 448,-89.5 448,4 -4,4"/>
<!-- Node1 -->
<g id="node1" class="node">
<title>Node1</title>
<g id="a_node1"><a xlink:title=" ">
<polygon fill="#bfbfbf" stroke="black" points="0,-19 0,-60 116,-60 116,-19 0,-19"/>
<text text-anchor="start" x="8" y="-48" font-family="Helvetica,sans-Serif" font-size="10.00">automaton::core::state</text>
<text text-anchor="start" x="8" y="-37" font-family="Helvetica,sans-Serif" font-size="10.00">::state_persistent::node</text>
<text text-anchor="middle" x="58" y="-26" font-family="Helvetica,sans-Serif" font-size="10.00">::set_hash</text>
</a>
</g>
</g>
<!-- Node2 -->
<g id="node2" class="node">
<title>Node2</title>
<g id="a_node2"><a xlink:href="../../d2/d91/namespaceautomaton_1_1core_1_1interop_1_1ethereum.html#acedced20e741715b96a13a0bc4b41ebf" target="_top" xlink:title=" ">
<polygon fill="white" stroke="black" points="153.5,-49.5 153.5,-79.5 272.5,-79.5 272.5,-49.5 153.5,-49.5"/>
<text text-anchor="start" x="161.5" y="-67.5" font-family="Helvetica,sans-Serif" font-size="10.00">automaton::core::interop</text>
<text text-anchor="middle" x="213" y="-56.5" font-family="Helvetica,sans-Serif" font-size="10.00">::ethereum::hash</text>
</a>
</g>
</g>
<!-- Node1&#45;&gt;Node2 -->
<g id="edge1" class="edge">
<title>Node1&#45;&gt;Node2</title>
<path fill="none" stroke="midnightblue" d="M116.41,-48.88C125.16,-50.31 134.26,-51.8 143.22,-53.26"/>
<polygon fill="midnightblue" stroke="midnightblue" points="142.82,-56.74 153.25,-54.9 143.95,-49.83 142.82,-56.74"/>
</g>
<!-- Node4 -->
<g id="node4" class="node">
<title>Node4</title>
<g id="a_node4"><a xlink:href="../../d3/d76/classautomaton_1_1core_1_1storage_1_1blobstore.html#aae873f68be3d7a65cd6d622d94f04038" target="_top" xlink:title=" ">
<polygon fill="white" stroke="black" points="152,-0.5 152,-30.5 274,-30.5 274,-0.5 152,-0.5"/>
<text text-anchor="start" x="160" y="-18.5" font-family="Helvetica,sans-Serif" font-size="10.00">automaton::core::storage</text>
<text text-anchor="middle" x="213" y="-7.5" font-family="Helvetica,sans-Serif" font-size="10.00">::blobstore::store</text>
</a>
</g>
</g>
<!-- Node1&#45;&gt;Node4 -->
<g id="edge3" class="edge">
<title>Node1&#45;&gt;Node4</title>
<path fill="none" stroke="midnightblue" d="M116.41,-30.5C124.76,-29.19 133.43,-27.82 141.99,-26.48"/>
<polygon fill="midnightblue" stroke="midnightblue" points="142.64,-29.92 151.97,-24.92 141.55,-23.01 142.64,-29.92"/>
</g>
<!-- Node3 -->
<g id="node3" class="node">
<title>Node3</title>
<g id="a_node3"><a xlink:href="../../dd/db1/classautomaton_1_1core_1_1crypto_1_1cryptopp_1_1_keccak__256__cryptopp.html#aa189a48741dc1432fdc1380051913e1b" target="_top" xlink:title=" ">
<polygon fill="white" stroke="black" points="310,-44 310,-85 444,-85 444,-44 310,-44"/>
<text text-anchor="start" x="318" y="-73" font-family="Helvetica,sans-Serif" font-size="10.00">automaton::core::crypto</text>
<text text-anchor="start" x="318" y="-62" font-family="Helvetica,sans-Serif" font-size="10.00">::cryptopp::Keccak_256</text>
<text text-anchor="middle" x="377" y="-51" font-family="Helvetica,sans-Serif" font-size="10.00">_cryptopp::calculate_digest</text>
</a>
</g>
</g>
<!-- Node2&#45;&gt;Node3 -->
<g id="edge2" class="edge">
<title>Node2&#45;&gt;Node3</title>
<path fill="none" stroke="midnightblue" d="M272.94,-64.5C281.69,-64.5 290.8,-64.5 299.83,-64.5"/>
<polygon fill="midnightblue" stroke="midnightblue" points="299.97,-68 309.97,-64.5 299.97,-61 299.97,-68"/>
</g>
</g>
</svg>
