<?xml version="1.0" encoding="UTF-8" standalone="no"?>
<!DOCTYPE svg PUBLIC "-//W3C//DTD SVG 1.1//EN"
 "http://www.w3.org/Graphics/SVG/1.1/DTD/svg11.dtd">
<!-- Generated by graphviz version 2.44.0 ()
 -->
<!-- Title: smart_protocol.h Pages: 1 -->
<svg width="400pt" height="196pt"
 viewBox="0.00 0.00 400.00 196.00" xmlns="http://www.w3.org/2000/svg" xmlns:xlink="http://www.w3.org/1999/xlink">
<g id="graph0" class="graph" transform="scale(1 1) rotate(0) translate(4 192)">
<title>smart_protocol.h</title>
<polygon fill="white" stroke="transparent" points="-4,4 -4,-192 396,-192 396,4 -4,4"/>
<!-- Node1 -->
<g id="node1" class="node">
<title>Node1</title>
<g id="a_node1"><a xlink:title=" ">
<polygon fill="#bfbfbf" stroke="black" points="75.5,-168.5 75.5,-187.5 164.5,-187.5 164.5,-168.5 75.5,-168.5"/>
<text text-anchor="middle" x="120" y="-175.5" font-family="Helvetica,sans-Serif" font-size="10.00">smart_protocol.h</text>
</a>
</g>
</g>
<!-- Node2 -->
<g id="node2" class="node">
<title>Node2</title>
<g id="a_node2"><a xlink:href="../../dd/de7/core_8cc.html" target="_top" xlink:title=" ">
<polygon fill="white" stroke="black" points="162,-0.5 162,-19.5 210,-19.5 210,-0.5 162,-0.5"/>
<text text-anchor="middle" x="186" y="-7.5" font-family="Helvetica,sans-Serif" font-size="10.00">core.cc</text>
</a>
</g>
</g>
<!-- Node1&#45;&gt;Node2 -->
<g id="edge1" class="edge">
<title>Node1&#45;&gt;Node2</title>
<path fill="none" stroke="midnightblue" d="M113.2,-158.76C105.12,-133.83 94.86,-88.49 113,-56 123.38,-37.41 144.94,-25.55 161.95,-18.7"/>
<polygon fill="midnightblue" stroke="midnightblue" points="109.96,-160.09 116.55,-168.38 116.57,-157.79 109.96,-160.09"/>
</g>
<!-- Node3 -->
<g id="node3" class="node">
<title>Node3</title>
<g id="a_node3"><a xlink:href="../../d9/d5a/lua__node_8h.html" target="_top" xlink:title=" ">
<polygon fill="white" stroke="black" points="2.5,-56.5 2.5,-75.5 65.5,-75.5 65.5,-56.5 2.5,-56.5"/>
<text text-anchor="middle" x="34" y="-63.5" font-family="Helvetica,sans-Serif" font-size="10.00">lua_node.h</text>
</a>
</g>
</g>
<!-- Node1&#45;&gt;Node3 -->
<g id="edge2" class="edge">
<title>Node1&#45;&gt;Node3</title>
<path fill="none" stroke="midnightblue" d="M104.73,-160.71C97.08,-152.32 87.8,-141.82 80,-132 64.52,-112.51 48.07,-88.3 39.66,-75.63"/>
<polygon fill="midnightblue" stroke="midnightblue" points="102.38,-163.32 111.73,-168.29 107.52,-158.57 102.38,-163.32"/>
</g>
<!-- Node5 -->
<g id="node5" class="node">
<title>Node5</title>
<g id="a_node5"><a xlink:href="../../d1/d77/node_8h.html" target="_top" xlink:title=" ">
<polygon fill="white" stroke="black" points="124.5,-112.5 124.5,-131.5 169.5,-131.5 169.5,-112.5 124.5,-112.5"/>
<text text-anchor="middle" x="147" y="-119.5" font-family="Helvetica,sans-Serif" font-size="10.00">node.h</text>
</a>
</g>
</g>
<!-- Node1&#45;&gt;Node5 -->
<g id="edge5" class="edge">
<title>Node1&#45;&gt;Node5</title>
<path fill="none" stroke="midnightblue" d="M129.01,-158.98C133.59,-149.82 138.95,-139.09 142.62,-131.75"/>
<polygon fill="midnightblue" stroke="midnightblue" points="125.8,-157.57 124.46,-168.08 132.06,-160.7 125.8,-157.57"/>
</g>
<!-- Node10 -->
<g id="node10" class="node">
<title>Node10</title>
<g id="a_node10"><a xlink:href="../../d0/dee/smart__protocol_8cc.html" target="_top" xlink:title=" ">
<polygon fill="white" stroke="black" points="188,-112.5 188,-131.5 282,-131.5 282,-112.5 188,-112.5"/>
<text text-anchor="middle" x="235" y="-119.5" font-family="Helvetica,sans-Serif" font-size="10.00">smart_protocol.cc</text>
</a>
</g>
</g>
<!-- Node1&#45;&gt;Node10 -->
<g id="edge13" class="edge">
<title>Node1&#45;&gt;Node10</title>
<path fill="none" stroke="midnightblue" d="M147.48,-164.1C168.97,-154.01 198.22,-140.27 216.86,-131.52"/>
<polygon fill="midnightblue" stroke="midnightblue" points="145.79,-161.02 138.22,-168.44 148.76,-167.36 145.79,-161.02"/>
</g>
<!-- Node3&#45;&gt;Node2 -->
<g id="edge3" class="edge">
<title>Node3&#45;&gt;Node2</title>
<path fill="none" stroke="midnightblue" d="M67.67,-53.04C96.27,-42.88 136.61,-28.55 162.03,-19.52"/>
<polygon fill="midnightblue" stroke="midnightblue" points="66.34,-49.8 58.08,-56.44 68.68,-56.39 66.34,-49.8"/>
</g>
<!-- Node4 -->
<g id="node4" class="node">
<title>Node4</title>
<g id="a_node4"><a xlink:href="../../db/d7e/lua__node_8cc.html" target="_top" xlink:title=" ">
<polygon fill="white" stroke="black" points="0,-0.5 0,-19.5 68,-19.5 68,-0.5 0,-0.5"/>
<text text-anchor="middle" x="34" y="-7.5" font-family="Helvetica,sans-Serif" font-size="10.00">lua_node.cc</text>
</a>
</g>
</g>
<!-- Node3&#45;&gt;Node4 -->
<g id="edge4" class="edge">
<title>Node3&#45;&gt;Node4</title>
<path fill="none" stroke="midnightblue" d="M34,-45.8C34,-36.91 34,-26.78 34,-19.75"/>
<polygon fill="midnightblue" stroke="midnightblue" points="30.5,-46.08 34,-56.08 37.5,-46.08 30.5,-46.08"/>
</g>
<!-- Node5&#45;&gt;Node2 -->
<g id="edge6" class="edge">
<title>Node5&#45;&gt;Node2</title>
<path fill="none" stroke="midnightblue" d="M179.28,-109.98C210.35,-99.05 253.31,-82.96 258,-76 274.18,-51.98 236.12,-30.89 209.4,-19.64"/>
<polygon fill="midnightblue" stroke="midnightblue" points="177.97,-106.73 169.67,-113.33 180.27,-113.34 177.97,-106.73"/>
</g>
<!-- Node5&#45;&gt;Node3 -->
<g id="edge7" class="edge">
<title>Node5&#45;&gt;Node3</title>
<path fill="none" stroke="midnightblue" d="M120,-108.1C98.89,-98.01 70.14,-84.27 51.82,-75.52"/>
<polygon fill="midnightblue" stroke="midnightblue" points="118.56,-111.29 129.09,-112.44 121.58,-104.97 118.56,-111.29"/>
</g>
<!-- Node6 -->
<g id="node6" class="node">
<title>Node6</title>
<g id="a_node6"><a xlink:href="../../dc/dfd/node_8cc.html" target="_top" xlink:title=" ">
<polygon fill="white" stroke="black" points="122,-56.5 122,-75.5 172,-75.5 172,-56.5 122,-56.5"/>
<text text-anchor="middle" x="147" y="-63.5" font-family="Helvetica,sans-Serif" font-size="10.00">node.cc</text>
</a>
</g>
</g>
<!-- Node5&#45;&gt;Node6 -->
<g id="edge8" class="edge">
<title>Node5&#45;&gt;Node6</title>
<path fill="none" stroke="midnightblue" d="M147,-101.8C147,-92.91 147,-82.78 147,-75.75"/>
<polygon fill="midnightblue" stroke="midnightblue" points="143.5,-102.08 147,-112.08 150.5,-102.08 143.5,-102.08"/>
</g>
<!-- Node7 -->
<g id="node7" class="node">
<title>Node7</title>
<g id="a_node7"><a xlink:href="../../dc/d32/node__updater_8h.html" target="_top" xlink:title=" ">
<polygon fill="white" stroke="black" points="306.5,-56.5 306.5,-75.5 389.5,-75.5 389.5,-56.5 306.5,-56.5"/>
<text text-anchor="middle" x="348" y="-63.5" font-family="Helvetica,sans-Serif" font-size="10.00">node_updater.h</text>
</a>
</g>
</g>
<!-- Node5&#45;&gt;Node7 -->
<g id="edge9" class="edge">
<title>Node5&#45;&gt;Node7</title>
<path fill="none" stroke="midnightblue" d="M179.64,-111.85C232.66,-97.37 283.17,-84.01 315.25,-75.58"/>
<polygon fill="midnightblue" stroke="midnightblue" points="178.44,-108.55 169.71,-114.57 180.28,-115.31 178.44,-108.55"/>
</g>
<!-- Node9 -->
<g id="node9" class="node">
<title>Node9</title>
<g id="a_node9"><a xlink:href="../../df/dd2/testnet_8cc.html" target="_top" xlink:title=" ">
<polygon fill="white" stroke="black" points="190.5,-56.5 190.5,-75.5 249.5,-75.5 249.5,-56.5 190.5,-56.5"/>
<text text-anchor="middle" x="220" y="-63.5" font-family="Helvetica,sans-Serif" font-size="10.00">testnet.cc</text>
</a>
</g>
</g>
<!-- Node5&#45;&gt;Node9 -->
<g id="edge12" class="edge">
<title>Node5&#45;&gt;Node9</title>
<path fill="none" stroke="midnightblue" d="M167.14,-106.1C180.28,-96.38 196.98,-84.03 208.06,-75.83"/>
<polygon fill="midnightblue" stroke="midnightblue" points="164.69,-103.56 158.73,-112.32 168.85,-109.19 164.69,-103.56"/>
</g>
<!-- Node7&#45;&gt;Node2 -->
<g id="edge10" class="edge">
<title>Node7&#45;&gt;Node2</title>
<path fill="none" stroke="midnightblue" d="M312.77,-53.26C281.75,-42.92 237.41,-28.14 210.23,-19.08"/>
<polygon fill="midnightblue" stroke="midnightblue" points="311.74,-56.6 322.33,-56.44 313.95,-49.96 311.74,-56.6"/>
</g>
<!-- Node8 -->
<g id="node8" class="node">
<title>Node8</title>
<g id="a_node8"><a xlink:href="../../d1/d13/node__updater_8cc.html" target="_top" xlink:title=" ">
<polygon fill="white" stroke="black" points="304,-0.5 304,-19.5 392,-19.5 392,-0.5 304,-0.5"/>
<text text-anchor="middle" x="348" y="-7.5" font-family="Helvetica,sans-Serif" font-size="10.00">node_updater.cc</text>
</a>
</g>
</g>
<!-- Node7&#45;&gt;Node8 -->
<g id="edge11" class="edge">
<title>Node7&#45;&gt;Node8</title>
<path fill="none" stroke="midnightblue" d="M348,-45.8C348,-36.91 348,-26.78 348,-19.75"/>
<polygon fill="midnightblue" stroke="midnightblue" points="344.5,-46.08 348,-56.08 351.5,-46.08 344.5,-46.08"/>
</g>
</g>
</svg>
