<?xml version="1.0" encoding="UTF-8" standalone="no"?>
<!DOCTYPE svg PUBLIC "-//W3C//DTD SVG 1.1//EN"
 "http://www.w3.org/Graphics/SVG/1.1/DTD/svg11.dtd">
<!-- Generated by graphviz version 2.42.3 ()
 -->
<!-- Title: automaton::core::interop::ethereum::eth_transaction::sign_tx Pages: 1 -->
<svg width="487pt" height="321pt"
 viewBox="0.00 0.00 487.00 321.00" xmlns="http://www.w3.org/2000/svg" xmlns:xlink="http://www.w3.org/1999/xlink">
<g id="graph0" class="graph" transform="scale(1 1) rotate(0) translate(4 317)">
<title>automaton::core::interop::ethereum::eth_transaction::sign_tx</title>
<polygon fill="white" stroke="transparent" points="-4,4 -4,-317 483,-317 483,4 -4,4"/>
<!-- Node1 -->
<g id="node1" class="node">
<title>Node1</title>
<g id="a_node1"><a xlink:title=" ">
<polygon fill="#bfbfbf" stroke="black" points="0,-135 0,-176 133,-176 133,-135 0,-135"/>
<text text-anchor="start" x="8" y="-164" font-family="Helvetica,sans-Serif" font-size="10.00">automaton::core::interop</text>
<text text-anchor="start" x="8" y="-153" font-family="Helvetica,sans-Serif" font-size="10.00">::ethereum::eth_transaction</text>
<text text-anchor="middle" x="66.5" y="-142" font-family="Helvetica,sans-Serif" font-size="10.00">::sign_tx</text>
</a>
</g>
</g>
<!-- Node2 -->
<g id="node2" class="node">
<title>Node2</title>
<g id="a_node2"><a xlink:href="../../da/dd5/namespaceautomaton_1_1core_1_1io.html#ab19202c80dffefe2cd1a87a60d06a0b3" target="_top" xlink:title=" ">
<polygon fill="white" stroke="black" points="361.5,-282.5 361.5,-312.5 459.5,-312.5 459.5,-282.5 361.5,-282.5"/>
<text text-anchor="start" x="369.5" y="-300.5" font-family="Helvetica,sans-Serif" font-size="10.00">automaton::core::io</text>
<text text-anchor="middle" x="410.5" y="-289.5" font-family="Helvetica,sans-Serif" font-size="10.00">::bin2hex</text>
</a>
</g>
</g>
<!-- Node1&#45;&gt;Node2 -->
<g id="edge1" class="edge">
<title>Node1&#45;&gt;Node2</title>
<path fill="none" stroke="midnightblue" d="M77.85,-176.46C93.29,-205.17 125.28,-255.75 169,-278.5 225.66,-307.99 300.15,-309.09 351.13,-305.15"/>
<polygon fill="midnightblue" stroke="midnightblue" points="351.66,-308.62 361.32,-304.28 351.06,-301.65 351.66,-308.62"/>
</g>
<!-- Node3 -->
<g id="node3" class="node">
<title>Node3</title>
<g id="a_node3"><a xlink:href="../../da/dd5/namespaceautomaton_1_1core_1_1io.html#a3206e08bc72b97ac681d42a57ea35b62" target="_top" xlink:title=" ">
<polygon fill="white" stroke="black" points="361.5,-177.5 361.5,-207.5 459.5,-207.5 459.5,-177.5 361.5,-177.5"/>
<text text-anchor="start" x="369.5" y="-195.5" font-family="Helvetica,sans-Serif" font-size="10.00">automaton::core::io</text>
<text text-anchor="middle" x="410.5" y="-184.5" font-family="Helvetica,sans-Serif" font-size="10.00">::dec2hex</text>
</a>
</g>
</g>
<!-- Node1&#45;&gt;Node3 -->
<g id="edge2" class="edge">
<title>Node1&#45;&gt;Node3</title>
<path fill="none" stroke="midnightblue" d="M133.2,-173.62C145.04,-176.33 157.33,-178.79 169,-180.5 230.79,-189.56 302.35,-192.14 351.25,-192.71"/>
<polygon fill="midnightblue" stroke="midnightblue" points="351.29,-196.21 361.32,-192.8 351.36,-189.21 351.29,-196.21"/>
</g>
<!-- Node4 -->
<g id="node4" class="node">
<title>Node4</title>
<g id="a_node4"><a xlink:href="../../d2/d91/namespaceautomaton_1_1core_1_1interop_1_1ethereum.html#acedced20e741715b96a13a0bc4b41ebf" target="_top" xlink:title=" ">
<polygon fill="white" stroke="black" points="178,-52.5 178,-82.5 297,-82.5 297,-52.5 178,-52.5"/>
<text text-anchor="start" x="186" y="-70.5" font-family="Helvetica,sans-Serif" font-size="10.00">automaton::core::interop</text>
<text text-anchor="middle" x="237.5" y="-59.5" font-family="Helvetica,sans-Serif" font-size="10.00">::ethereum::hash</text>
</a>
</g>
</g>
<!-- Node1&#45;&gt;Node4 -->
<g id="edge3" class="edge">
<title>Node1&#45;&gt;Node4</title>
<path fill="none" stroke="midnightblue" d="M101.79,-134.76C121.24,-123.28 146.19,-109.05 169,-97.5 176.24,-93.83 184.02,-90.15 191.64,-86.68"/>
<polygon fill="midnightblue" stroke="midnightblue" points="193.11,-89.85 200.8,-82.56 190.25,-83.47 193.11,-89.85"/>
</g>
<!-- Node6 -->
<g id="node6" class="node">
<title>Node6</title>
<g id="a_node6"><a xlink:href="../../da/dd5/namespaceautomaton_1_1core_1_1io.html#a6e93384a5c0d6481352d0ec3211a3d2d" target="_top" xlink:title=" ">
<polygon fill="white" stroke="black" points="188.5,-2.5 188.5,-32.5 286.5,-32.5 286.5,-2.5 188.5,-2.5"/>
<text text-anchor="start" x="196.5" y="-20.5" font-family="Helvetica,sans-Serif" font-size="10.00">automaton::core::io</text>
<text text-anchor="middle" x="237.5" y="-9.5" font-family="Helvetica,sans-Serif" font-size="10.00">::hex2bin</text>
</a>
</g>
</g>
<!-- Node1&#45;&gt;Node6 -->
<g id="edge5" class="edge">
<title>Node1&#45;&gt;Node6</title>
<path fill="none" stroke="midnightblue" d="M81.3,-134.78C98.94,-109.75 131.7,-67.84 169,-42.5 172.22,-40.31 175.66,-38.28 179.21,-36.41"/>
<polygon fill="midnightblue" stroke="midnightblue" points="180.73,-39.56 188.23,-32.08 177.7,-33.26 180.73,-39.56"/>
</g>
<!-- Node8 -->
<g id="node8" class="node">
<title>Node8</title>
<g id="a_node8"><a xlink:href="../../da/dd5/namespaceautomaton_1_1core_1_1io.html#a6c991a6589248fd1be67bfd12d60c49c" target="_top" xlink:title=" ">
<polygon fill="white" stroke="black" points="361.5,-115.5 361.5,-145.5 459.5,-145.5 459.5,-115.5 361.5,-115.5"/>
<text text-anchor="start" x="369.5" y="-133.5" font-family="Helvetica,sans-Serif" font-size="10.00">automaton::core::io</text>
<text text-anchor="middle" x="410.5" y="-122.5" font-family="Helvetica,sans-Serif" font-size="10.00">::hex2dec</text>
</a>
</g>
</g>
<!-- Node1&#45;&gt;Node8 -->
<g id="edge7" class="edge">
<title>Node1&#45;&gt;Node8</title>
<path fill="none" stroke="midnightblue" d="M133.17,-137.67C145.02,-135.12 157.31,-132.89 169,-131.5 230.93,-124.15 302.47,-125.03 351.32,-127.05"/>
<polygon fill="midnightblue" stroke="midnightblue" points="351.25,-130.55 361.39,-127.49 351.56,-123.56 351.25,-130.55"/>
</g>
<!-- Node9 -->
<g id="node9" class="node">
<title>Node9</title>
<g id="a_node9"><a xlink:href="../../d2/d91/namespaceautomaton_1_1core_1_1interop_1_1ethereum.html#a319b4b2957ed7961871807ec18b970ec" target="_top" xlink:title=" ">
<polygon fill="white" stroke="black" points="178,-140.5 178,-170.5 297,-170.5 297,-140.5 178,-140.5"/>
<text text-anchor="start" x="186" y="-158.5" font-family="Helvetica,sans-Serif" font-size="10.00">automaton::core::interop</text>
<text text-anchor="middle" x="237.5" y="-147.5" font-family="Helvetica,sans-Serif" font-size="10.00">::ethereum::rlp_encode</text>
</a>
</g>
</g>
<!-- Node1&#45;&gt;Node9 -->
<g id="edge8" class="edge">
<title>Node1&#45;&gt;Node9</title>
<path fill="none" stroke="midnightblue" d="M133.32,-155.5C144.54,-155.5 156.21,-155.5 167.5,-155.5"/>
<polygon fill="midnightblue" stroke="midnightblue" points="167.74,-159 177.74,-155.5 167.74,-152 167.74,-159"/>
</g>
<!-- Node10 -->
<g id="node10" class="node">
<title>Node10</title>
<g id="a_node10"><a xlink:href="../../d2/d91/namespaceautomaton_1_1core_1_1interop_1_1ethereum.html#a5773fc2e2807d4207030bb00a3eb5dea" target="_top" xlink:title=" ">
<polygon fill="white" stroke="black" points="169,-228 169,-269 306,-269 306,-228 169,-228"/>
<text text-anchor="start" x="177" y="-257" font-family="Helvetica,sans-Serif" font-size="10.00">automaton::core::interop</text>
<text text-anchor="start" x="177" y="-246" font-family="Helvetica,sans-Serif" font-size="10.00">::ethereum::secp256k1_sign</text>
<text text-anchor="middle" x="237.5" y="-235" font-family="Helvetica,sans-Serif" font-size="10.00">_and_verify</text>
</a>
</g>
</g>
<!-- Node1&#45;&gt;Node10 -->
<g id="edge11" class="edge">
<title>Node1&#45;&gt;Node10</title>
<path fill="none" stroke="midnightblue" d="M103,-176.26C122.39,-187.48 146.9,-201.46 169,-213.5 174.84,-216.68 181,-219.97 187.12,-223.19"/>
<polygon fill="midnightblue" stroke="midnightblue" points="185.54,-226.32 196.02,-227.85 188.79,-220.11 185.54,-226.32"/>
</g>
<!-- Node5 -->
<g id="node5" class="node">
<title>Node5</title>
<g id="a_node5"><a xlink:href="../../dd/db1/classautomaton_1_1core_1_1crypto_1_1cryptopp_1_1_keccak__256__cryptopp.html#aa189a48741dc1432fdc1380051913e1b" target="_top" xlink:title=" ">
<polygon fill="white" stroke="black" points="343.5,-49 343.5,-90 477.5,-90 477.5,-49 343.5,-49"/>
<text text-anchor="start" x="351.5" y="-78" font-family="Helvetica,sans-Serif" font-size="10.00">automaton::core::crypto</text>
<text text-anchor="start" x="351.5" y="-67" font-family="Helvetica,sans-Serif" font-size="10.00">::cryptopp::Keccak_256</text>
<text text-anchor="middle" x="410.5" y="-56" font-family="Helvetica,sans-Serif" font-size="10.00">_cryptopp::calculate_digest</text>
</a>
</g>
</g>
<!-- Node4&#45;&gt;Node5 -->
<g id="edge4" class="edge">
<title>Node4&#45;&gt;Node5</title>
<path fill="none" stroke="midnightblue" d="M297.35,-68.19C308.9,-68.32 321.16,-68.47 333.19,-68.61"/>
<polygon fill="midnightblue" stroke="midnightblue" points="333.17,-72.11 343.21,-68.72 333.25,-65.11 333.17,-72.11"/>
</g>
<!-- Node7 -->
<g id="node7" class="node">
<title>Node7</title>
<g id="a_node7"><a xlink:href="../../da/dd5/namespaceautomaton_1_1core_1_1io.html#abe415d62b91abcbae08337eb7a6c65de" target="_top" xlink:title=" ">
<polygon fill="white" stroke="black" points="361.5,-0.5 361.5,-30.5 459.5,-30.5 459.5,-0.5 361.5,-0.5"/>
<text text-anchor="start" x="369.5" y="-18.5" font-family="Helvetica,sans-Serif" font-size="10.00">automaton::core::io</text>
<text text-anchor="middle" x="410.5" y="-7.5" font-family="Helvetica,sans-Serif" font-size="10.00">::hex2nibble</text>
</a>
</g>
</g>
<!-- Node6&#45;&gt;Node7 -->
<g id="edge6" class="edge">
<title>Node6&#45;&gt;Node7</title>
<path fill="none" stroke="midnightblue" d="M286.59,-16.94C306.71,-16.7 330.27,-16.43 351.35,-16.18"/>
<polygon fill="midnightblue" stroke="midnightblue" points="351.52,-19.68 361.48,-16.06 351.44,-12.68 351.52,-19.68"/>
</g>
<!-- Node9&#45;&gt;Node3 -->
<g id="edge9" class="edge">
<title>Node9&#45;&gt;Node3</title>
<path fill="none" stroke="midnightblue" d="M297.35,-168.23C314.79,-172.01 333.88,-176.14 351.29,-179.9"/>
<polygon fill="midnightblue" stroke="midnightblue" points="350.8,-183.38 361.31,-182.07 352.28,-176.54 350.8,-183.38"/>
</g>
<!-- Node9&#45;&gt;Node8 -->
<g id="edge10" class="edge">
<title>Node9&#45;&gt;Node8</title>
<path fill="none" stroke="midnightblue" d="M297.35,-146.9C314.79,-144.35 333.88,-141.56 351.29,-139.01"/>
<polygon fill="midnightblue" stroke="midnightblue" points="351.92,-142.45 361.31,-137.54 350.91,-135.53 351.92,-142.45"/>
</g>
<!-- Node10&#45;&gt;Node2 -->
<g id="edge12" class="edge">
<title>Node10&#45;&gt;Node2</title>
<path fill="none" stroke="midnightblue" d="M306.08,-267.87C321.1,-272.17 336.89,-276.69 351.49,-280.88"/>
<polygon fill="midnightblue" stroke="midnightblue" points="350.8,-284.32 361.38,-283.71 352.73,-277.59 350.8,-284.32"/>
</g>
<!-- Node11 -->
<g id="node11" class="node">
<title>Node11</title>
<g id="a_node11"><a xlink:href="../../d2/d91/namespaceautomaton_1_1core_1_1interop_1_1ethereum.html#ac212afafb4fcf10be423050f7c012d58" target="_top" xlink:title=" ">
<polygon fill="white" stroke="black" points="342,-233.5 342,-263.5 479,-263.5 479,-233.5 342,-233.5"/>
<text text-anchor="start" x="350" y="-251.5" font-family="Helvetica,sans-Serif" font-size="10.00">automaton::core::interop</text>
<text text-anchor="middle" x="410.5" y="-240.5" font-family="Helvetica,sans-Serif" font-size="10.00">::ethereum::secp256k1_sign</text>
</a>
</g>
</g>
<!-- Node10&#45;&gt;Node11 -->
<g id="edge13" class="edge">
<title>Node10&#45;&gt;Node11</title>
<path fill="none" stroke="midnightblue" d="M306.08,-248.5C314.54,-248.5 323.24,-248.5 331.83,-248.5"/>
<polygon fill="midnightblue" stroke="midnightblue" points="331.85,-252 341.85,-248.5 331.85,-245 331.85,-252"/>
</g>
</g>
</svg>
