<?xml version="1.0" encoding="UTF-8" standalone="no"?>
<!DOCTYPE svg PUBLIC "-//W3C//DTD SVG 1.1//EN"
 "http://www.w3.org/Graphics/SVG/1.1/DTD/svg11.dtd">
<!-- Generated by graphviz version 2.42.3 ()
 -->
<!-- Title: automaton::core::interop::ethereum::eth_transaction::sign_tx Pages: 1 -->
<svg width="484pt" height="313pt"
 viewBox="0.00 0.00 484.00 313.00" xmlns="http://www.w3.org/2000/svg" xmlns:xlink="http://www.w3.org/1999/xlink">
<g id="graph0" class="graph" transform="scale(1 1) rotate(0) translate(4 309)">
<title>automaton::core::interop::ethereum::eth_transaction::sign_tx</title>
<polygon fill="white" stroke="transparent" points="-4,4 -4,-309 480,-309 480,4 -4,4"/>
<!-- Node1 -->
<g id="node1" class="node">
<title>Node1</title>
<g id="a_node1"><a xlink:title=" ">
<polygon fill="#bfbfbf" stroke="black" points="0,-120 0,-161 133,-161 133,-120 0,-120"/>
<text text-anchor="start" x="8" y="-149" font-family="Helvetica,sans-Serif" font-size="10.00">automaton::core::interop</text>
<text text-anchor="start" x="8" y="-138" font-family="Helvetica,sans-Serif" font-size="10.00">::ethereum::eth_transaction</text>
<text text-anchor="middle" x="66.5" y="-127" font-family="Helvetica,sans-Serif" font-size="10.00">::sign_tx</text>
</a>
</g>
</g>
<!-- Node2 -->
<g id="node2" class="node">
<title>Node2</title>
<g id="a_node2"><a xlink:href="../../da/dd5/namespaceautomaton_1_1core_1_1io.html#ab19202c80dffefe2cd1a87a60d06a0b3" target="_top" xlink:title=" ">
<polygon fill="white" stroke="black" points="360,-274.5 360,-304.5 458,-304.5 458,-274.5 360,-274.5"/>
<text text-anchor="start" x="368" y="-292.5" font-family="Helvetica,sans-Serif" font-size="10.00">automaton::core::io</text>
<text text-anchor="middle" x="409" y="-281.5" font-family="Helvetica,sans-Serif" font-size="10.00">::bin2hex</text>
</a>
</g>
</g>
<!-- Node1&#45;&gt;Node2 -->
<g id="edge1" class="edge">
<title>Node1&#45;&gt;Node2</title>
<path fill="none" stroke="midnightblue" d="M77.57,-161.18C92.88,-190.1 124.95,-241.75 169,-265.5 224.98,-295.68 299.07,-298.42 349.83,-295.7"/>
<polygon fill="midnightblue" stroke="midnightblue" points="350.22,-299.18 359.98,-295.07 349.78,-292.2 350.22,-299.18"/>
</g>
<!-- Node3 -->
<g id="node3" class="node">
<title>Node3</title>
<g id="a_node3"><a xlink:href="../../d2/d91/namespaceautomaton_1_1core_1_1interop_1_1ethereum.html#a4e999f5f941e39170753893811249a18" target="_top" xlink:title=" ">
<polygon fill="white" stroke="black" points="169,-225.5 169,-255.5 306,-255.5 306,-225.5 169,-225.5"/>
<text text-anchor="start" x="177" y="-243.5" font-family="Helvetica,sans-Serif" font-size="10.00">automaton::core::interop</text>
<text text-anchor="middle" x="237.5" y="-232.5" font-family="Helvetica,sans-Serif" font-size="10.00">::ethereum::check_and_sign</text>
</a>
</g>
</g>
<!-- Node1&#45;&gt;Node3 -->
<g id="edge2" class="edge">
<title>Node1&#45;&gt;Node3</title>
<path fill="none" stroke="midnightblue" d="M92.13,-161.31C111.96,-177.34 141.04,-199.27 169,-214.5 173.5,-216.95 178.29,-219.28 183.15,-221.47"/>
<polygon fill="midnightblue" stroke="midnightblue" points="181.96,-224.77 192.53,-225.49 184.72,-218.34 181.96,-224.77"/>
</g>
<!-- Node5 -->
<g id="node5" class="node">
<title>Node5</title>
<g id="a_node5"><a xlink:href="../../da/dd5/namespaceautomaton_1_1core_1_1io.html#a3206e08bc72b97ac681d42a57ea35b62" target="_top" xlink:title=" ">
<polygon fill="white" stroke="black" points="360,-62.5 360,-92.5 458,-92.5 458,-62.5 360,-62.5"/>
<text text-anchor="start" x="368" y="-80.5" font-family="Helvetica,sans-Serif" font-size="10.00">automaton::core::io</text>
<text text-anchor="middle" x="409" y="-69.5" font-family="Helvetica,sans-Serif" font-size="10.00">::dec2hex</text>
</a>
</g>
</g>
<!-- Node1&#45;&gt;Node5 -->
<g id="edge5" class="edge">
<title>Node1&#45;&gt;Node5</title>
<path fill="none" stroke="midnightblue" d="M133.11,-123.49C145.02,-120.64 157.35,-117.86 169,-115.5 230.32,-103.1 301.17,-92.27 349.71,-85.37"/>
<polygon fill="midnightblue" stroke="midnightblue" points="350.31,-88.82 359.72,-83.96 349.33,-81.89 350.31,-88.82"/>
</g>
<!-- Node6 -->
<g id="node6" class="node">
<title>Node6</title>
<g id="a_node6"><a xlink:href="../../d2/d91/namespaceautomaton_1_1core_1_1interop_1_1ethereum.html#acedced20e741715b96a13a0bc4b41ebf" target="_top" xlink:title=" ">
<polygon fill="white" stroke="black" points="178,-174.5 178,-204.5 297,-204.5 297,-174.5 178,-174.5"/>
<text text-anchor="start" x="186" y="-192.5" font-family="Helvetica,sans-Serif" font-size="10.00">automaton::core::interop</text>
<text text-anchor="middle" x="237.5" y="-181.5" font-family="Helvetica,sans-Serif" font-size="10.00">::ethereum::hash</text>
</a>
</g>
</g>
<!-- Node1&#45;&gt;Node6 -->
<g id="edge6" class="edge">
<title>Node1&#45;&gt;Node6</title>
<path fill="none" stroke="midnightblue" d="M133.32,-159.58C147.05,-163.56 161.46,-167.74 175.02,-171.67"/>
<polygon fill="midnightblue" stroke="midnightblue" points="174.14,-175.06 184.72,-174.49 176.09,-168.34 174.14,-175.06"/>
</g>
<!-- Node8 -->
<g id="node8" class="node">
<title>Node8</title>
<g id="a_node8"><a xlink:href="../../da/dd5/namespaceautomaton_1_1core_1_1io.html#a6e93384a5c0d6481352d0ec3211a3d2d" target="_top" xlink:title=" ">
<polygon fill="white" stroke="black" points="188.5,-125.5 188.5,-155.5 286.5,-155.5 286.5,-125.5 188.5,-125.5"/>
<text text-anchor="start" x="196.5" y="-143.5" font-family="Helvetica,sans-Serif" font-size="10.00">automaton::core::io</text>
<text text-anchor="middle" x="237.5" y="-132.5" font-family="Helvetica,sans-Serif" font-size="10.00">::hex2bin</text>
</a>
</g>
</g>
<!-- Node1&#45;&gt;Node8 -->
<g id="edge8" class="edge">
<title>Node1&#45;&gt;Node8</title>
<path fill="none" stroke="midnightblue" d="M133.32,-140.5C148.09,-140.5 163.66,-140.5 178.1,-140.5"/>
<polygon fill="midnightblue" stroke="midnightblue" points="178.39,-144 188.39,-140.5 178.39,-137 178.39,-144"/>
</g>
<!-- Node10 -->
<g id="node10" class="node">
<title>Node10</title>
<g id="a_node10"><a xlink:href="../../da/dd5/namespaceautomaton_1_1core_1_1io.html#a6c991a6589248fd1be67bfd12d60c49c" target="_top" xlink:title=" ">
<polygon fill="white" stroke="black" points="360,-0.5 360,-30.5 458,-30.5 458,-0.5 360,-0.5"/>
<text text-anchor="start" x="368" y="-18.5" font-family="Helvetica,sans-Serif" font-size="10.00">automaton::core::io</text>
<text text-anchor="middle" x="409" y="-7.5" font-family="Helvetica,sans-Serif" font-size="10.00">::hex2dec</text>
</a>
</g>
</g>
<!-- Node1&#45;&gt;Node10 -->
<g id="edge10" class="edge">
<title>Node1&#45;&gt;Node10</title>
<path fill="none" stroke="midnightblue" d="M79.04,-119.68C95.2,-92.86 127.34,-47.35 169,-27.5 225.85,-0.42 299.15,-1.2 349.5,-6.34"/>
<polygon fill="midnightblue" stroke="midnightblue" points="349.25,-9.83 359.57,-7.46 350.02,-2.88 349.25,-9.83"/>
</g>
<!-- Node11 -->
<g id="node11" class="node">
<title>Node11</title>
<g id="a_node11"><a xlink:href="../../d2/d91/namespaceautomaton_1_1core_1_1interop_1_1ethereum.html#a319b4b2957ed7961871807ec18b970ec" target="_top" xlink:title=" ">
<polygon fill="white" stroke="black" points="178,-37.5 178,-67.5 297,-67.5 297,-37.5 178,-37.5"/>
<text text-anchor="start" x="186" y="-55.5" font-family="Helvetica,sans-Serif" font-size="10.00">automaton::core::interop</text>
<text text-anchor="middle" x="237.5" y="-44.5" font-family="Helvetica,sans-Serif" font-size="10.00">::ethereum::rlp_encode</text>
</a>
</g>
</g>
<!-- Node1&#45;&gt;Node11 -->
<g id="edge11" class="edge">
<title>Node1&#45;&gt;Node11</title>
<path fill="none" stroke="midnightblue" d="M101.79,-119.76C121.24,-108.28 146.19,-94.05 169,-82.5 176.24,-78.83 184.02,-75.15 191.64,-71.68"/>
<polygon fill="midnightblue" stroke="midnightblue" points="193.11,-74.85 200.8,-67.56 190.25,-68.47 193.11,-74.85"/>
</g>
<!-- Node3&#45;&gt;Node2 -->
<g id="edge3" class="edge">
<title>Node3&#45;&gt;Node2</title>
<path fill="none" stroke="midnightblue" d="M290.74,-255.6C309.54,-261.04 330.86,-267.2 350.12,-272.77"/>
<polygon fill="midnightblue" stroke="midnightblue" points="349.4,-276.2 359.97,-275.62 351.34,-269.48 349.4,-276.2"/>
</g>
<!-- Node4 -->
<g id="node4" class="node">
<title>Node4</title>
<g id="a_node4"><a xlink:href="../../d0/d6e/namespaceautomaton_1_1tools_1_1miner.html#a05909e124eb3ea47b74479125c710527" target="_top" xlink:title=" ">
<polygon fill="white" stroke="black" points="351,-225.5 351,-255.5 467,-255.5 467,-225.5 351,-225.5"/>
<text text-anchor="start" x="359" y="-243.5" font-family="Helvetica,sans-Serif" font-size="10.00">automaton::tools::miner</text>
<text text-anchor="middle" x="409" y="-232.5" font-family="Helvetica,sans-Serif" font-size="10.00">::sign</text>
</a>
</g>
</g>
<!-- Node3&#45;&gt;Node4 -->
<g id="edge4" class="edge">
<title>Node3&#45;&gt;Node4</title>
<path fill="none" stroke="midnightblue" d="M306.47,-240.5C317.75,-240.5 329.44,-240.5 340.71,-240.5"/>
<polygon fill="midnightblue" stroke="midnightblue" points="340.91,-244 350.91,-240.5 340.91,-237 340.91,-244"/>
</g>
<!-- Node7 -->
<g id="node7" class="node">
<title>Node7</title>
<g id="a_node7"><a xlink:href="../../dd/db1/classautomaton_1_1core_1_1crypto_1_1cryptopp_1_1_keccak__256__cryptopp.html#aa189a48741dc1432fdc1380051913e1b" target="_top" xlink:title=" ">
<polygon fill="white" stroke="black" points="342,-166 342,-207 476,-207 476,-166 342,-166"/>
<text text-anchor="start" x="350" y="-195" font-family="Helvetica,sans-Serif" font-size="10.00">automaton::core::crypto</text>
<text text-anchor="start" x="350" y="-184" font-family="Helvetica,sans-Serif" font-size="10.00">::cryptopp::Keccak_256</text>
<text text-anchor="middle" x="409" y="-173" font-family="Helvetica,sans-Serif" font-size="10.00">_cryptopp::calculate_digest</text>
</a>
</g>
</g>
<!-- Node6&#45;&gt;Node7 -->
<g id="edge7" class="edge">
<title>Node6&#45;&gt;Node7</title>
<path fill="none" stroke="midnightblue" d="M297.31,-188.46C308.4,-188.26 320.15,-188.05 331.69,-187.85"/>
<polygon fill="midnightblue" stroke="midnightblue" points="331.82,-191.35 341.75,-187.67 331.69,-184.35 331.82,-191.35"/>
</g>
<!-- Node9 -->
<g id="node9" class="node">
<title>Node9</title>
<g id="a_node9"><a xlink:href="../../da/dd5/namespaceautomaton_1_1core_1_1io.html#abe415d62b91abcbae08337eb7a6c65de" target="_top" xlink:title=" ">
<polygon fill="white" stroke="black" points="360,-117.5 360,-147.5 458,-147.5 458,-117.5 360,-117.5"/>
<text text-anchor="start" x="368" y="-135.5" font-family="Helvetica,sans-Serif" font-size="10.00">automaton::core::io</text>
<text text-anchor="middle" x="409" y="-124.5" font-family="Helvetica,sans-Serif" font-size="10.00">::hex2nibble</text>
</a>
</g>
</g>
<!-- Node8&#45;&gt;Node9 -->
<g id="edge9" class="edge">
<title>Node8&#45;&gt;Node9</title>
<path fill="none" stroke="midnightblue" d="M286.62,-138.23C306.21,-137.3 329.04,-136.23 349.57,-135.26"/>
<polygon fill="midnightblue" stroke="midnightblue" points="349.94,-138.74 359.76,-134.78 349.61,-131.75 349.94,-138.74"/>
</g>
<!-- Node11&#45;&gt;Node5 -->
<g id="edge12" class="edge">
<title>Node11&#45;&gt;Node5</title>
<path fill="none" stroke="midnightblue" d="M297.31,-61.17C314.25,-63.67 332.73,-66.4 349.65,-68.89"/>
<polygon fill="midnightblue" stroke="midnightblue" points="349.55,-72.42 359.95,-70.41 350.57,-65.49 349.55,-72.42"/>
</g>
<!-- Node11&#45;&gt;Node10 -->
<g id="edge13" class="edge">
<title>Node11&#45;&gt;Node10</title>
<path fill="none" stroke="midnightblue" d="M297.31,-39.66C314.41,-35.93 333.08,-31.85 350.12,-28.13"/>
<polygon fill="midnightblue" stroke="midnightblue" points="350.93,-31.54 359.95,-25.99 349.43,-24.7 350.93,-31.54"/>
</g>
</g>
</svg>
