<?xml version="1.0" encoding="UTF-8" standalone="no"?>
<!DOCTYPE svg PUBLIC "-//W3C//DTD SVG 1.1//EN"
 "http://www.w3.org/Graphics/SVG/1.1/DTD/svg11.dtd">
<!-- Generated by graphviz version 2.42.3 ()
 -->
<!-- Title: automaton::core::interop::ethereum::get_type Pages: 1 -->
<svg width="975pt" height="211pt"
 viewBox="0.00 0.00 975.00 211.12" xmlns="http://www.w3.org/2000/svg" xmlns:xlink="http://www.w3.org/1999/xlink">
<g id="graph0" class="graph" transform="scale(1 1) rotate(0) translate(4 207.12)">
<title>automaton::core::interop::ethereum::get_type</title>
<polygon fill="white" stroke="transparent" points="-4,4 -4,-207.12 971,-207.12 971,4 -4,4"/>
<!-- Node1 -->
<g id="node1" class="node">
<title>Node1</title>
<g id="a_node1"><a xlink:title=" ">
<polygon fill="#bfbfbf" stroke="black" points="848,-72.65 848,-102.65 967,-102.65 967,-72.65 848,-72.65"/>
<text text-anchor="start" x="856" y="-90.65" font-family="Helvetica,sans-Serif" font-size="10.00">automaton::core::interop</text>
<text text-anchor="middle" x="907.5" y="-79.65" font-family="Helvetica,sans-Serif" font-size="10.00">::ethereum::get_type</text>
</a>
</g>
</g>
<!-- Node2 -->
<g id="node2" class="node">
<title>Node2</title>
<g id="a_node2"><a xlink:href="../../d2/d91/namespaceautomaton_1_1core_1_1interop_1_1ethereum.html#aa50eed459424657a958f1de0e7668bea" target="_top" xlink:title=" ">
<polygon fill="white" stroke="black" points="497,-85.65 497,-115.65 631,-115.65 631,-85.65 497,-85.65"/>
<text text-anchor="start" x="505" y="-103.65" font-family="Helvetica,sans-Serif" font-size="10.00">automaton::core::interop</text>
<text text-anchor="middle" x="564" y="-92.65" font-family="Helvetica,sans-Serif" font-size="10.00">::ethereum::calculate_offset</text>
</a>
</g>
</g>
<!-- Node1&#45;&gt;Node2 -->
<g id="edge1" class="edge">
<title>Node1&#45;&gt;Node2</title>
<path fill="none" stroke="midnightblue" d="M837.62,-90.27C777.39,-92.56 690.5,-95.87 631.1,-98.13"/>
<polygon fill="midnightblue" stroke="midnightblue" points="837.93,-93.76 847.79,-89.88 837.67,-86.76 837.93,-93.76"/>
</g>
<!-- Node3 -->
<g id="node3" class="node">
<title>Node3</title>
<g id="a_node3"><a xlink:href="../../d2/d91/namespaceautomaton_1_1core_1_1interop_1_1ethereum.html#abbec3fe45e7b6c13c5d534e5dfc4543b" target="_top" xlink:title=" ">
<polygon fill="white" stroke="black" points="176,-157.65 176,-187.65 295,-187.65 295,-157.65 176,-157.65"/>
<text text-anchor="start" x="184" y="-175.65" font-family="Helvetica,sans-Serif" font-size="10.00">automaton::core::interop</text>
<text text-anchor="middle" x="235.5" y="-164.65" font-family="Helvetica,sans-Serif" font-size="10.00">::ethereum::decode</text>
</a>
</g>
</g>
<!-- Node1&#45;&gt;Node3 -->
<g id="edge9" class="edge">
<title>Node1&#45;&gt;Node3</title>
<path fill="none" stroke="midnightblue" d="M851.57,-105.79C768.26,-132.26 604.44,-180.2 461,-197.65 403.64,-204.62 388.3,-205.1 331,-197.65 315.35,-195.61 298.6,-191.75 283.61,-187.67"/>
<polygon fill="midnightblue" stroke="midnightblue" points="852.87,-109.05 861.32,-102.67 850.73,-102.38 852.87,-109.05"/>
</g>
<!-- Node5 -->
<g id="node5" class="node">
<title>Node5</title>
<g id="a_node5"><a xlink:href="../../d2/d91/namespaceautomaton_1_1core_1_1interop_1_1ethereum.html#a47ab7911ff4d29153e849da3691c26b6" target="_top" xlink:title=" ">
<polygon fill="white" stroke="black" points="176,-31.65 176,-61.65 295,-61.65 295,-31.65 176,-31.65"/>
<text text-anchor="start" x="184" y="-49.65" font-family="Helvetica,sans-Serif" font-size="10.00">automaton::core::interop</text>
<text text-anchor="middle" x="235.5" y="-38.65" font-family="Helvetica,sans-Serif" font-size="10.00">::ethereum::encode</text>
</a>
</g>
</g>
<!-- Node1&#45;&gt;Node5 -->
<g id="edge10" class="edge">
<title>Node1&#45;&gt;Node5</title>
<path fill="none" stroke="midnightblue" d="M874.33,-67.54C856.64,-57.55 833.88,-46.41 812,-40.65 605.13,13.9 543.16,5.94 331,-21.65 315.35,-23.68 298.6,-27.54 283.61,-31.62"/>
<polygon fill="midnightblue" stroke="midnightblue" points="872.69,-70.63 883.1,-72.62 876.2,-64.58 872.69,-70.63"/>
</g>
<!-- Node8 -->
<g id="node8" class="node">
<title>Node8</title>
<g id="a_node8"><a xlink:href="../../d2/d91/namespaceautomaton_1_1core_1_1interop_1_1ethereum.html#ac04f9dc4ef42981618e61f6bc2196156" target="_top" xlink:title=" ">
<polygon fill="white" stroke="black" points="667,-50.65 667,-80.65 812,-80.65 812,-50.65 667,-50.65"/>
<text text-anchor="start" x="675" y="-68.65" font-family="Helvetica,sans-Serif" font-size="10.00">automaton::core::interop</text>
<text text-anchor="middle" x="739.5" y="-57.65" font-family="Helvetica,sans-Serif" font-size="10.00">::ethereum::extract_array_type</text>
</a>
</g>
</g>
<!-- Node1&#45;&gt;Node8 -->
<g id="edge11" class="edge">
<title>Node1&#45;&gt;Node8</title>
<path fill="none" stroke="midnightblue" d="M837.79,-78.54C829.33,-77.42 820.67,-76.27 812.17,-75.14"/>
<polygon fill="midnightblue" stroke="midnightblue" points="837.6,-82.05 847.97,-79.89 838.52,-75.11 837.6,-82.05"/>
</g>
<!-- Node2&#45;&gt;Node3 -->
<g id="edge2" class="edge">
<title>Node2&#45;&gt;Node3</title>
<path fill="none" stroke="midnightblue" d="M486.77,-115.52C441.42,-124.6 382.8,-136.72 331,-148.65 318.96,-151.42 306.1,-154.56 293.87,-157.64"/>
<polygon fill="midnightblue" stroke="midnightblue" points="487.71,-118.91 496.83,-113.52 486.34,-112.04 487.71,-118.91"/>
</g>
<!-- Node4 -->
<g id="node4" class="node">
<title>Node4</title>
<g id="a_node4"><a xlink:href="../../d2/d91/namespaceautomaton_1_1core_1_1interop_1_1ethereum.html#a55009f57edd69b295860a7b8b685ab2b" target="_top" xlink:title=" ">
<polygon fill="white" stroke="black" points="331,-157.65 331,-187.65 461,-187.65 461,-157.65 331,-157.65"/>
<text text-anchor="start" x="339" y="-175.65" font-family="Helvetica,sans-Serif" font-size="10.00">automaton::core::interop</text>
<text text-anchor="middle" x="396" y="-164.65" font-family="Helvetica,sans-Serif" font-size="10.00">::ethereum::decode_param</text>
</a>
</g>
</g>
<!-- Node2&#45;&gt;Node4 -->
<g id="edge3" class="edge">
<title>Node2&#45;&gt;Node4</title>
<path fill="none" stroke="midnightblue" d="M518.88,-119.78C491.6,-131.61 457.09,-146.58 431.75,-157.57"/>
<polygon fill="midnightblue" stroke="midnightblue" points="520.42,-122.93 528.2,-115.74 517.63,-116.51 520.42,-122.93"/>
</g>
<!-- Node2&#45;&gt;Node5 -->
<g id="edge5" class="edge">
<title>Node2&#45;&gt;Node5</title>
<path fill="none" stroke="midnightblue" d="M486.84,-93.13C441.39,-88.07 382.64,-80.51 331,-70.65 318.03,-68.17 304.19,-64.97 291.22,-61.73"/>
<polygon fill="midnightblue" stroke="midnightblue" points="486.59,-96.62 496.91,-94.24 487.36,-89.67 486.59,-96.62"/>
</g>
<!-- Node7 -->
<g id="node7" class="node">
<title>Node7</title>
<g id="a_node7"><a xlink:href="../../d2/d91/namespaceautomaton_1_1core_1_1interop_1_1ethereum.html#a1785a882c65e47ef40d0587235f82275" target="_top" xlink:title=" ">
<polygon fill="white" stroke="black" points="331,-31.65 331,-61.65 461,-61.65 461,-31.65 331,-31.65"/>
<text text-anchor="start" x="339" y="-49.65" font-family="Helvetica,sans-Serif" font-size="10.00">automaton::core::interop</text>
<text text-anchor="middle" x="396" y="-38.65" font-family="Helvetica,sans-Serif" font-size="10.00">::ethereum::encode_param</text>
</a>
</g>
</g>
<!-- Node2&#45;&gt;Node7 -->
<g id="edge7" class="edge">
<title>Node2&#45;&gt;Node7</title>
<path fill="none" stroke="midnightblue" d="M507.12,-82.47C486.37,-75.72 463.08,-68.14 443.28,-61.7"/>
<polygon fill="midnightblue" stroke="midnightblue" points="506.17,-85.84 516.76,-85.6 508.33,-79.18 506.17,-85.84"/>
</g>
<!-- Node4&#45;&gt;Node3 -->
<g id="edge4" class="edge">
<title>Node4&#45;&gt;Node3</title>
<path fill="none" stroke="midnightblue" d="M320.9,-172.65C312.25,-172.65 303.52,-172.65 295.12,-172.65"/>
<polygon fill="midnightblue" stroke="midnightblue" points="320.99,-176.15 330.99,-172.65 320.99,-169.15 320.99,-176.15"/>
</g>
<!-- Node6 -->
<g id="node6" class="node">
<title>Node6</title>
<g id="a_node6"><a xlink:href="../../d4/de7/classautomaton_1_1core_1_1interop_1_1ethereum_1_1eth__contract.html#adfdba68e86eb54b19df0a9d60bf98131" target="_top" xlink:title=" ">
<polygon fill="white" stroke="black" points="0,-31.65 0,-61.65 140,-61.65 140,-31.65 0,-31.65"/>
<text text-anchor="start" x="8" y="-49.65" font-family="Helvetica,sans-Serif" font-size="10.00">automaton::core::interop</text>
<text text-anchor="middle" x="70" y="-38.65" font-family="Helvetica,sans-Serif" font-size="10.00">::ethereum::eth_contract::call</text>
</a>
</g>
</g>
<!-- Node5&#45;&gt;Node6 -->
<g id="edge6" class="edge">
<title>Node5&#45;&gt;Node6</title>
<path fill="none" stroke="midnightblue" d="M165.7,-46.65C157.21,-46.65 148.52,-46.65 140.03,-46.65"/>
<polygon fill="midnightblue" stroke="midnightblue" points="165.93,-50.15 175.93,-46.65 165.93,-43.15 165.93,-50.15"/>
</g>
<!-- Node7&#45;&gt;Node5 -->
<g id="edge8" class="edge">
<title>Node7&#45;&gt;Node5</title>
<path fill="none" stroke="midnightblue" d="M320.9,-46.65C312.25,-46.65 303.52,-46.65 295.12,-46.65"/>
<polygon fill="midnightblue" stroke="midnightblue" points="320.99,-50.15 330.99,-46.65 320.99,-43.15 320.99,-50.15"/>
</g>
<!-- Node8&#45;&gt;Node2 -->
<g id="edge12" class="edge">
<title>Node8&#45;&gt;Node2</title>
<path fill="none" stroke="midnightblue" d="M656.85,-82.12C648.23,-83.86 639.54,-85.61 631.12,-87.31"/>
<polygon fill="midnightblue" stroke="midnightblue" points="657.82,-85.49 666.93,-80.08 656.43,-78.63 657.82,-85.49"/>
</g>
<!-- Node8&#45;&gt;Node4 -->
<g id="edge13" class="edge">
<title>Node8&#45;&gt;Node4</title>
<path fill="none" stroke="midnightblue" d="M707.99,-86.06C687.11,-99.15 658.37,-115.54 631,-125.65 575.41,-146.17 508.91,-158.43 461.04,-165.25"/>
<polygon fill="midnightblue" stroke="midnightblue" points="709.88,-89 716.42,-80.67 706.11,-83.1 709.88,-89"/>
</g>
<!-- Node8&#45;&gt;Node7 -->
<g id="edge14" class="edge">
<title>Node8&#45;&gt;Node7</title>
<path fill="none" stroke="midnightblue" d="M656.71,-61.1C596.7,-57.76 516.36,-53.29 461.01,-50.21"/>
<polygon fill="midnightblue" stroke="midnightblue" points="656.73,-64.6 666.91,-61.66 657.12,-57.61 656.73,-64.6"/>
</g>
</g>
</svg>
