<?xml version="1.0" encoding="UTF-8" standalone="no"?>
<!DOCTYPE svg PUBLIC "-//W3C//DTD SVG 1.1//EN"
 "http://www.w3.org/Graphics/SVG/1.1/DTD/svg11.dtd">
<!-- Generated by graphviz version 2.44.0 ()
 -->
<!-- Title: automaton::core::interop::ethereum::get_address_from_prkey Pages: 1 -->
<svg width="452pt" height="140pt"
 viewBox="0.00 0.00 452.00 140.00" xmlns="http://www.w3.org/2000/svg" xmlns:xlink="http://www.w3.org/1999/xlink">
<g id="graph0" class="graph" transform="scale(1 1) rotate(0) translate(4 136)">
<title>automaton::core::interop::ethereum::get_address_from_prkey</title>
<polygon fill="white" stroke="transparent" points="-4,4 -4,-136 448,-136 448,4 -4,4"/>
<!-- Node1 -->
<g id="node1" class="node">
<title>Node1</title>
<g id="a_node1"><a xlink:title=" ">
<polygon fill="#bfbfbf" stroke="black" points="0,-47 0,-88 119,-88 119,-47 0,-47"/>
<text text-anchor="start" x="8" y="-76" font-family="Helvetica,sans-Serif" font-size="10.00">automaton::core::interop</text>
<text text-anchor="start" x="8" y="-65" font-family="Helvetica,sans-Serif" font-size="10.00">::ethereum::get_address</text>
<text text-anchor="middle" x="59.5" y="-54" font-family="Helvetica,sans-Serif" font-size="10.00">_from_prkey</text>
</a>
</g>
</g>
<!-- Node2 -->
<g id="node2" class="node">
<title>Node2</title>
<g id="a_node2"><a xlink:href="../../da/dd5/namespaceautomaton_1_1core_1_1io.html#ab19202c80dffefe2cd1a87a60d06a0b3" target="_top" xlink:title=" ">
<polygon fill="white" stroke="black" points="165.5,-101.5 165.5,-131.5 263.5,-131.5 263.5,-101.5 165.5,-101.5"/>
<text text-anchor="start" x="173.5" y="-119.5" font-family="Helvetica,sans-Serif" font-size="10.00">automaton::core::io</text>
<text text-anchor="middle" x="214.5" y="-108.5" font-family="Helvetica,sans-Serif" font-size="10.00">::bin2hex</text>
</a>
</g>
</g>
<!-- Node1&#45;&gt;Node2 -->
<g id="edge1" class="edge">
<title>Node1&#45;&gt;Node2</title>
<path fill="none" stroke="midnightblue" d="M119.22,-86.3C131.58,-90.27 144.61,-94.44 156.9,-98.37"/>
<polygon fill="midnightblue" stroke="midnightblue" points="155.98,-101.75 166.57,-101.47 158.11,-95.09 155.98,-101.75"/>
</g>
<!-- Node3 -->
<g id="node3" class="node">
<title>Node3</title>
<g id="a_node3"><a xlink:href="../../d2/d91/namespaceautomaton_1_1core_1_1interop_1_1ethereum.html#acedced20e741715b96a13a0bc4b41ebf" target="_top" xlink:title=" ">
<polygon fill="white" stroke="black" points="155,-52.5 155,-82.5 274,-82.5 274,-52.5 155,-52.5"/>
<text text-anchor="start" x="163" y="-70.5" font-family="Helvetica,sans-Serif" font-size="10.00">automaton::core::interop</text>
<text text-anchor="middle" x="214.5" y="-59.5" font-family="Helvetica,sans-Serif" font-size="10.00">::ethereum::hash</text>
</a>
</g>
</g>
<!-- Node1&#45;&gt;Node3 -->
<g id="edge2" class="edge">
<title>Node1&#45;&gt;Node3</title>
<path fill="none" stroke="midnightblue" d="M119.22,-67.5C127.54,-67.5 136.17,-67.5 144.67,-67.5"/>
<polygon fill="midnightblue" stroke="midnightblue" points="144.94,-71 154.94,-67.5 144.94,-64 144.94,-71"/>
</g>
<!-- Node5 -->
<g id="node5" class="node">
<title>Node5</title>
<g id="a_node5"><a xlink:href="../../da/dd5/namespaceautomaton_1_1core_1_1io.html#a6e93384a5c0d6481352d0ec3211a3d2d" target="_top" xlink:title=" ">
<polygon fill="white" stroke="black" points="165.5,-2.5 165.5,-32.5 263.5,-32.5 263.5,-2.5 165.5,-2.5"/>
<text text-anchor="start" x="173.5" y="-20.5" font-family="Helvetica,sans-Serif" font-size="10.00">automaton::core::io</text>
<text text-anchor="middle" x="214.5" y="-9.5" font-family="Helvetica,sans-Serif" font-size="10.00">::hex2bin</text>
</a>
</g>
</g>
<!-- Node1&#45;&gt;Node5 -->
<g id="edge4" class="edge">
<title>Node1&#45;&gt;Node5</title>
<path fill="none" stroke="midnightblue" d="M119.22,-48.31C131.85,-44.18 145.17,-39.83 157.69,-35.74"/>
<polygon fill="midnightblue" stroke="midnightblue" points="159.11,-38.96 167.53,-32.52 156.94,-32.3 159.11,-38.96"/>
</g>
<!-- Node4 -->
<g id="node4" class="node">
<title>Node4</title>
<g id="a_node4"><a xlink:href="../../dd/db1/classautomaton_1_1core_1_1crypto_1_1cryptopp_1_1_keccak__256__cryptopp.html#aa189a48741dc1432fdc1380051913e1b" target="_top" xlink:title=" ">
<polygon fill="white" stroke="black" points="310,-49 310,-90 444,-90 444,-49 310,-49"/>
<text text-anchor="start" x="318" y="-78" font-family="Helvetica,sans-Serif" font-size="10.00">automaton::core::crypto</text>
<text text-anchor="start" x="318" y="-67" font-family="Helvetica,sans-Serif" font-size="10.00">::cryptopp::Keccak_256</text>
<text text-anchor="middle" x="377" y="-56" font-family="Helvetica,sans-Serif" font-size="10.00">_cryptopp::calculate_digest</text>
</a>
</g>
</g>
<!-- Node3&#45;&gt;Node4 -->
<g id="edge3" class="edge">
<title>Node3&#45;&gt;Node4</title>
<path fill="none" stroke="midnightblue" d="M274.35,-68.23C282.56,-68.34 291.08,-68.44 299.56,-68.55"/>
<polygon fill="midnightblue" stroke="midnightblue" points="299.79,-72.05 309.83,-68.68 299.88,-65.05 299.79,-72.05"/>
</g>
<!-- Node6 -->
<g id="node6" class="node">
<title>Node6</title>
<g id="a_node6"><a xlink:href="../../da/dd5/namespaceautomaton_1_1core_1_1io.html#abe415d62b91abcbae08337eb7a6c65de" target="_top" xlink:title=" ">
<polygon fill="white" stroke="black" points="328,-0.5 328,-30.5 426,-30.5 426,-0.5 328,-0.5"/>
<text text-anchor="start" x="336" y="-18.5" font-family="Helvetica,sans-Serif" font-size="10.00">automaton::core::io</text>
<text text-anchor="middle" x="377" y="-7.5" font-family="Helvetica,sans-Serif" font-size="10.00">::hex2nibble</text>
</a>
</g>
</g>
<!-- Node5&#45;&gt;Node6 -->
<g id="edge5" class="edge">
<title>Node5&#45;&gt;Node6</title>
<path fill="none" stroke="midnightblue" d="M263.66,-16.9C280.64,-16.69 299.91,-16.45 317.65,-16.23"/>
<polygon fill="midnightblue" stroke="midnightblue" points="317.92,-19.72 327.88,-16.1 317.84,-12.72 317.92,-19.72"/>
</g>
</g>
</svg>
