<?xml version="1.0" encoding="UTF-8" standalone="no"?>
<!DOCTYPE svg PUBLIC "-//W3C//DTD SVG 1.1//EN"
 "http://www.w3.org/Graphics/SVG/1.1/DTD/svg11.dtd">
<!-- Generated by graphviz version 2.44.0 ()
 -->
<!-- Title: automaton::core::interop::ethereum::curl_post Pages: 1 -->
<svg width="471pt" height="148pt"
 viewBox="0.00 0.00 471.00 147.50" xmlns="http://www.w3.org/2000/svg" xmlns:xlink="http://www.w3.org/1999/xlink">
<g id="graph0" class="graph" transform="scale(1 1) rotate(0) translate(4 143.5)">
<title>automaton::core::interop::ethereum::curl_post</title>
<polygon fill="white" stroke="transparent" points="-4,4 -4,-143.5 467,-143.5 467,4 -4,4"/>
<!-- Node1 -->
<g id="node1" class="node">
<title>Node1</title>
<g id="a_node1"><a xlink:title=" ">
<polygon fill="#bfbfbf" stroke="black" points="0,-49.5 0,-79.5 119,-79.5 119,-49.5 0,-49.5"/>
<text text-anchor="start" x="8" y="-67.5" font-family="Helvetica,sans-Serif" font-size="10.00">automaton::core::interop</text>
<text text-anchor="middle" x="59.5" y="-56.5" font-family="Helvetica,sans-Serif" font-size="10.00">::ethereum::curl_post</text>
</a>
</g>
</g>
<!-- Node2 -->
<g id="node2" class="node">
<title>Node2</title>
<g id="a_node2"><a xlink:href="../../d2/d91/namespaceautomaton_1_1core_1_1interop_1_1ethereum.html#a02017dd8cf8adba262ceb26e0163a64f" target="_top" xlink:title=" ">
<polygon fill="white" stroke="black" points="170,-98 170,-139 289,-139 289,-98 170,-98"/>
<text text-anchor="start" x="178" y="-127" font-family="Helvetica,sans-Serif" font-size="10.00">automaton::core::interop</text>
<text text-anchor="start" x="178" y="-116" font-family="Helvetica,sans-Serif" font-size="10.00">::ethereum::create_new</text>
<text text-anchor="middle" x="229.5" y="-105" font-family="Helvetica,sans-Serif" font-size="10.00">_curl_struct</text>
</a>
</g>
</g>
<!-- Node1&#45;&gt;Node2 -->
<g id="edge1" class="edge">
<title>Node1&#45;&gt;Node2</title>
<path fill="none" stroke="midnightblue" d="M107.3,-79.54C123.68,-84.81 142.43,-90.84 160.21,-96.55"/>
<polygon fill="midnightblue" stroke="midnightblue" points="159.37,-99.96 169.96,-99.68 161.51,-93.29 159.37,-99.96"/>
</g>
<!-- Node4 -->
<g id="node4" class="node">
<title>Node4</title>
<g id="a_node4"><a xlink:href="../../d2/d91/namespaceautomaton_1_1core_1_1interop_1_1ethereum.html#ae95b2c75f0c9cacbf478ae3043f12aa6" target="_top" xlink:title=" ">
<polygon fill="white" stroke="black" points="155,-49.5 155,-79.5 304,-79.5 304,-49.5 155,-49.5"/>
<text text-anchor="start" x="163" y="-67.5" font-family="Helvetica,sans-Serif" font-size="10.00">automaton::core::interop</text>
<text text-anchor="middle" x="229.5" y="-56.5" font-family="Helvetica,sans-Serif" font-size="10.00">::ethereum::destroy_curl_struct</text>
</a>
</g>
</g>
<!-- Node1&#45;&gt;Node4 -->
<g id="edge3" class="edge">
<title>Node1&#45;&gt;Node4</title>
<path fill="none" stroke="midnightblue" d="M119.26,-64.5C127.49,-64.5 136.07,-64.5 144.66,-64.5"/>
<polygon fill="midnightblue" stroke="midnightblue" points="144.71,-68 154.71,-64.5 144.71,-61 144.71,-68"/>
</g>
<!-- Node5 -->
<g id="node5" class="node">
<title>Node5</title>
<g id="a_node5"><a xlink:href="../../d2/d91/namespaceautomaton_1_1core_1_1interop_1_1ethereum.html#aa85f9628d62873487fe0171a1554a1e4" target="_top" xlink:title=" ">
<polygon fill="white" stroke="black" points="167.5,-0.5 167.5,-30.5 291.5,-30.5 291.5,-0.5 167.5,-0.5"/>
<text text-anchor="start" x="175.5" y="-18.5" font-family="Helvetica,sans-Serif" font-size="10.00">automaton::core::interop</text>
<text text-anchor="middle" x="229.5" y="-7.5" font-family="Helvetica,sans-Serif" font-size="10.00">::ethereum::handle_result</text>
</a>
</g>
</g>
<!-- Node1&#45;&gt;Node5 -->
<g id="edge4" class="edge">
<title>Node1&#45;&gt;Node5</title>
<path fill="none" stroke="midnightblue" d="M112.28,-49.4C129.6,-44.34 149.09,-38.66 167.08,-33.42"/>
<polygon fill="midnightblue" stroke="midnightblue" points="168.27,-36.71 176.89,-30.55 166.31,-29.99 168.27,-36.71"/>
</g>
<!-- Node3 -->
<g id="node3" class="node">
<title>Node3</title>
<g id="a_node3"><a xlink:href="../../d2/d91/namespaceautomaton_1_1core_1_1interop_1_1ethereum.html#aa0f8322feba45dd6e4110c92397b2732" target="_top" xlink:title=" ">
<polygon fill="white" stroke="black" points="340,-103.5 340,-133.5 463,-133.5 463,-103.5 340,-103.5"/>
<text text-anchor="start" x="348" y="-121.5" font-family="Helvetica,sans-Serif" font-size="10.00">automaton::core::interop</text>
<text text-anchor="middle" x="401.5" y="-110.5" font-family="Helvetica,sans-Serif" font-size="10.00">::ethereum::curl_callback</text>
</a>
</g>
</g>
<!-- Node2&#45;&gt;Node3 -->
<g id="edge2" class="edge">
<title>Node2&#45;&gt;Node3</title>
<path fill="none" stroke="midnightblue" d="M289,-118.5C302.09,-118.5 316.11,-118.5 329.64,-118.5"/>
<polygon fill="midnightblue" stroke="midnightblue" points="329.86,-122 339.86,-118.5 329.86,-115 329.86,-122"/>
</g>
</g>
</svg>
