<?xml version="1.0" encoding="UTF-8" standalone="no"?>
<!DOCTYPE svg PUBLIC "-//W3C//DTD SVG 1.1//EN"
 "http://www.w3.org/Graphics/SVG/1.1/DTD/svg11.dtd">
<!-- Generated by graphviz version 2.44.0 ()
 -->
<!-- Title: automaton::core::interop::ethereum::eth_getCode Pages: 1 -->
<svg width="628pt" height="148pt"
 viewBox="0.00 0.00 628.00 147.50" xmlns="http://www.w3.org/2000/svg" xmlns:xlink="http://www.w3.org/1999/xlink">
<g id="graph0" class="graph" transform="scale(1 1) rotate(0) translate(4 143.5)">
<title>automaton::core::interop::ethereum::eth_getCode</title>
<polygon fill="white" stroke="transparent" points="-4,4 -4,-143.5 624,-143.5 624,4 -4,4"/>
<!-- Node1 -->
<g id="node1" class="node">
<title>Node1</title>
<g id="a_node1"><a xlink:title=" ">
<polygon fill="#bfbfbf" stroke="black" points="0,-49.5 0,-79.5 121,-79.5 121,-49.5 0,-49.5"/>
<text text-anchor="start" x="8" y="-67.5" font-family="Helvetica,sans-Serif" font-size="10.00">automaton::core::interop</text>
<text text-anchor="middle" x="60.5" y="-56.5" font-family="Helvetica,sans-Serif" font-size="10.00">::ethereum::eth_getCode</text>
</a>
</g>
</g>
<!-- Node2 -->
<g id="node2" class="node">
<title>Node2</title>
<g id="a_node2"><a xlink:href="../../d2/d91/namespaceautomaton_1_1core_1_1interop_1_1ethereum.html#ac9333e6d163be21216a871b3e71d207e" target="_top" xlink:title=" ">
<polygon fill="white" stroke="black" points="157,-49.5 157,-79.5 276,-79.5 276,-49.5 157,-49.5"/>
<text text-anchor="start" x="165" y="-67.5" font-family="Helvetica,sans-Serif" font-size="10.00">automaton::core::interop</text>
<text text-anchor="middle" x="216.5" y="-56.5" font-family="Helvetica,sans-Serif" font-size="10.00">::ethereum::curl_post</text>
</a>
</g>
</g>
<!-- Node1&#45;&gt;Node2 -->
<g id="edge1" class="edge">
<title>Node1&#45;&gt;Node2</title>
<path fill="none" stroke="midnightblue" d="M121.04,-64.5C129.5,-64.5 138.25,-64.5 146.86,-64.5"/>
<polygon fill="midnightblue" stroke="midnightblue" points="146.88,-68 156.88,-64.5 146.88,-61 146.88,-68"/>
</g>
<!-- Node3 -->
<g id="node3" class="node">
<title>Node3</title>
<g id="a_node3"><a xlink:href="../../d2/d91/namespaceautomaton_1_1core_1_1interop_1_1ethereum.html#a02017dd8cf8adba262ceb26e0163a64f" target="_top" xlink:title=" ">
<polygon fill="white" stroke="black" points="327,-98 327,-139 446,-139 446,-98 327,-98"/>
<text text-anchor="start" x="335" y="-127" font-family="Helvetica,sans-Serif" font-size="10.00">automaton::core::interop</text>
<text text-anchor="start" x="335" y="-116" font-family="Helvetica,sans-Serif" font-size="10.00">::ethereum::create_new</text>
<text text-anchor="middle" x="386.5" y="-105" font-family="Helvetica,sans-Serif" font-size="10.00">_curl_struct</text>
</a>
</g>
</g>
<!-- Node2&#45;&gt;Node3 -->
<g id="edge2" class="edge">
<title>Node2&#45;&gt;Node3</title>
<path fill="none" stroke="midnightblue" d="M264.3,-79.54C280.68,-84.81 299.43,-90.84 317.21,-96.55"/>
<polygon fill="midnightblue" stroke="midnightblue" points="316.37,-99.96 326.96,-99.68 318.51,-93.29 316.37,-99.96"/>
</g>
<!-- Node5 -->
<g id="node5" class="node">
<title>Node5</title>
<g id="a_node5"><a xlink:href="../../d2/d91/namespaceautomaton_1_1core_1_1interop_1_1ethereum.html#ae95b2c75f0c9cacbf478ae3043f12aa6" target="_top" xlink:title=" ">
<polygon fill="white" stroke="black" points="312,-49.5 312,-79.5 461,-79.5 461,-49.5 312,-49.5"/>
<text text-anchor="start" x="320" y="-67.5" font-family="Helvetica,sans-Serif" font-size="10.00">automaton::core::interop</text>
<text text-anchor="middle" x="386.5" y="-56.5" font-family="Helvetica,sans-Serif" font-size="10.00">::ethereum::destroy_curl_struct</text>
</a>
</g>
</g>
<!-- Node2&#45;&gt;Node5 -->
<g id="edge4" class="edge">
<title>Node2&#45;&gt;Node5</title>
<path fill="none" stroke="midnightblue" d="M276.26,-64.5C284.49,-64.5 293.07,-64.5 301.66,-64.5"/>
<polygon fill="midnightblue" stroke="midnightblue" points="301.71,-68 311.71,-64.5 301.71,-61 301.71,-68"/>
</g>
<!-- Node6 -->
<g id="node6" class="node">
<title>Node6</title>
<g id="a_node6"><a xlink:href="../../d2/d91/namespaceautomaton_1_1core_1_1interop_1_1ethereum.html#aa85f9628d62873487fe0171a1554a1e4" target="_top" xlink:title=" ">
<polygon fill="white" stroke="black" points="324.5,-0.5 324.5,-30.5 448.5,-30.5 448.5,-0.5 324.5,-0.5"/>
<text text-anchor="start" x="332.5" y="-18.5" font-family="Helvetica,sans-Serif" font-size="10.00">automaton::core::interop</text>
<text text-anchor="middle" x="386.5" y="-7.5" font-family="Helvetica,sans-Serif" font-size="10.00">::ethereum::handle_result</text>
</a>
</g>
</g>
<!-- Node2&#45;&gt;Node6 -->
<g id="edge5" class="edge">
<title>Node2&#45;&gt;Node6</title>
<path fill="none" stroke="midnightblue" d="M269.28,-49.4C286.6,-44.34 306.09,-38.66 324.08,-33.42"/>
<polygon fill="midnightblue" stroke="midnightblue" points="325.27,-36.71 333.89,-30.55 323.31,-29.99 325.27,-36.71"/>
</g>
<!-- Node4 -->
<g id="node4" class="node">
<title>Node4</title>
<g id="a_node4"><a xlink:href="../../d2/d91/namespaceautomaton_1_1core_1_1interop_1_1ethereum.html#aa0f8322feba45dd6e4110c92397b2732" target="_top" xlink:title=" ">
<polygon fill="white" stroke="black" points="497,-103.5 497,-133.5 620,-133.5 620,-103.5 497,-103.5"/>
<text text-anchor="start" x="505" y="-121.5" font-family="Helvetica,sans-Serif" font-size="10.00">automaton::core::interop</text>
<text text-anchor="middle" x="558.5" y="-110.5" font-family="Helvetica,sans-Serif" font-size="10.00">::ethereum::curl_callback</text>
</a>
</g>
</g>
<!-- Node3&#45;&gt;Node4 -->
<g id="edge3" class="edge">
<title>Node3&#45;&gt;Node4</title>
<path fill="none" stroke="midnightblue" d="M446,-118.5C459.09,-118.5 473.11,-118.5 486.64,-118.5"/>
<polygon fill="midnightblue" stroke="midnightblue" points="486.86,-122 496.86,-118.5 486.86,-115 486.86,-122"/>
</g>
</g>
</svg>
