<?xml version="1.0" encoding="UTF-8" standalone="no"?>
<!DOCTYPE svg PUBLIC "-//W3C//DTD SVG 1.1//EN"
 "http://www.w3.org/Graphics/SVG/1.1/DTD/svg11.dtd">
<!-- Generated by graphviz version 2.44.0 ()
 -->
<!-- Title: automaton::core::interop::ethereum::encode_param Pages: 1 -->
<svg width="683pt" height="328pt"
 viewBox="0.00 0.00 683.00 328.00" xmlns="http://www.w3.org/2000/svg" xmlns:xlink="http://www.w3.org/1999/xlink">
<g id="graph0" class="graph" transform="scale(1 1) rotate(0) translate(4 324)">
<title>automaton::core::interop::ethereum::encode_param</title>
<polygon fill="white" stroke="transparent" points="-4,4 -4,-324 679,-324 679,4 -4,4"/>
<!-- Node1 -->
<g id="node1" class="node">
<title>Node1</title>
<g id="a_node1"><a xlink:title=" ">
<polygon fill="#bfbfbf" stroke="black" points="0,-147.5 0,-177.5 130,-177.5 130,-147.5 0,-147.5"/>
<text text-anchor="start" x="8" y="-165.5" font-family="Helvetica,sans-Serif" font-size="10.00">automaton::core::interop</text>
<text text-anchor="middle" x="65" y="-154.5" font-family="Helvetica,sans-Serif" font-size="10.00">::ethereum::encode_param</text>
</a>
</g>
</g>
<!-- Node2 -->
<g id="node2" class="node">
<title>Node2</title>
<g id="a_node2"><a xlink:href="../../d2/d91/namespaceautomaton_1_1core_1_1interop_1_1ethereum.html#aa50eed459424657a958f1de0e7668bea" target="_top" xlink:title=" ">
<polygon fill="white" stroke="black" points="185.5,-245.5 185.5,-275.5 319.5,-275.5 319.5,-245.5 185.5,-245.5"/>
<text text-anchor="start" x="193.5" y="-263.5" font-family="Helvetica,sans-Serif" font-size="10.00">automaton::core::interop</text>
<text text-anchor="middle" x="252.5" y="-252.5" font-family="Helvetica,sans-Serif" font-size="10.00">::ethereum::calculate_offset</text>
</a>
</g>
</g>
<!-- Node1&#45;&gt;Node2 -->
<g id="edge1" class="edge">
<title>Node1&#45;&gt;Node2</title>
<path fill="none" stroke="midnightblue" d="M82.45,-177.66C101.31,-194.3 133.8,-220.73 166,-236.5 170,-238.46 174.19,-240.28 178.47,-241.98"/>
<polygon fill="midnightblue" stroke="midnightblue" points="177.37,-245.3 187.96,-245.47 179.79,-238.73 177.37,-245.3"/>
</g>
<!-- Node3 -->
<g id="node3" class="node">
<title>Node3</title>
<g id="a_node3"><a xlink:href="../../d2/d91/namespaceautomaton_1_1core_1_1interop_1_1ethereum.html#ac04f9dc4ef42981618e61f6bc2196156" target="_top" xlink:title=" ">
<polygon fill="white" stroke="black" points="375,-289.5 375,-319.5 520,-319.5 520,-289.5 375,-289.5"/>
<text text-anchor="start" x="383" y="-307.5" font-family="Helvetica,sans-Serif" font-size="10.00">automaton::core::interop</text>
<text text-anchor="middle" x="447.5" y="-296.5" font-family="Helvetica,sans-Serif" font-size="10.00">::ethereum::extract_array_type</text>
</a>
</g>
</g>
<!-- Node1&#45;&gt;Node3 -->
<g id="edge9" class="edge">
<title>Node1&#45;&gt;Node3</title>
<path fill="none" stroke="midnightblue" d="M73.04,-177.59C86.63,-204.75 119.32,-261.32 166,-285.5 227.12,-317.16 306.03,-319.7 364.58,-315.6"/>
<polygon fill="midnightblue" stroke="midnightblue" points="365.2,-319.06 374.9,-314.8 364.65,-312.09 365.2,-319.06"/>
</g>
<!-- Node5 -->
<g id="node5" class="node">
<title>Node5</title>
<g id="a_node5"><a xlink:href="../../d2/d91/namespaceautomaton_1_1core_1_1interop_1_1ethereum.html#a414060673c883b4f153cd1a613df435f" target="_top" xlink:title=" ">
<polygon fill="white" stroke="black" points="166,-196.5 166,-226.5 339,-226.5 339,-196.5 166,-196.5"/>
<text text-anchor="start" x="174" y="-214.5" font-family="Helvetica,sans-Serif" font-size="10.00">automaton::core::interop</text>
<text text-anchor="middle" x="252.5" y="-203.5" font-family="Helvetica,sans-Serif" font-size="10.00">::ethereum::check_and_resize_buffer</text>
</a>
</g>
</g>
<!-- Node1&#45;&gt;Node5 -->
<g id="edge5" class="edge">
<title>Node1&#45;&gt;Node5</title>
<path fill="none" stroke="midnightblue" d="M122.92,-177.53C142.5,-182.71 164.61,-188.55 184.9,-193.91"/>
<polygon fill="midnightblue" stroke="midnightblue" points="184.13,-197.32 194.69,-196.49 185.92,-190.56 184.13,-197.32"/>
</g>
<!-- Node6 -->
<g id="node6" class="node">
<title>Node6</title>
<g id="a_node6"><a xlink:href="../../d2/d91/namespaceautomaton_1_1core_1_1interop_1_1ethereum.html#a617d29f4e99dd3dcb5e2a670dcaf1d69" target="_top" xlink:title=" ">
<polygon fill="white" stroke="black" points="193,-147.5 193,-177.5 312,-177.5 312,-147.5 193,-147.5"/>
<text text-anchor="start" x="201" y="-165.5" font-family="Helvetica,sans-Serif" font-size="10.00">automaton::core::interop</text>
<text text-anchor="middle" x="252.5" y="-154.5" font-family="Helvetica,sans-Serif" font-size="10.00">::ethereum::dec_to_i256</text>
</a>
</g>
</g>
<!-- Node1&#45;&gt;Node6 -->
<g id="edge6" class="edge">
<title>Node1&#45;&gt;Node6</title>
<path fill="none" stroke="midnightblue" d="M130.1,-162.5C147.17,-162.5 165.68,-162.5 182.97,-162.5"/>
<polygon fill="midnightblue" stroke="midnightblue" points="183,-166 193,-162.5 183,-159 183,-166"/>
</g>
<!-- Node8 -->
<g id="node8" class="node">
<title>Node8</title>
<g id="a_node8"><a xlink:href="../../d2/d91/namespaceautomaton_1_1core_1_1interop_1_1ethereum.html#a1776518e83508cdbecdf21f16d916d46" target="_top" xlink:title=" ">
<polygon fill="white" stroke="black" points="189,-98.5 189,-128.5 316,-128.5 316,-98.5 189,-98.5"/>
<text text-anchor="start" x="197" y="-116.5" font-family="Helvetica,sans-Serif" font-size="10.00">automaton::core::interop</text>
<text text-anchor="middle" x="252.5" y="-105.5" font-family="Helvetica,sans-Serif" font-size="10.00">::ethereum::encode_string</text>
</a>
</g>
</g>
<!-- Node1&#45;&gt;Node8 -->
<g id="edge8" class="edge">
<title>Node1&#45;&gt;Node8</title>
<path fill="none" stroke="midnightblue" d="M122.92,-147.47C142.5,-142.29 164.61,-136.45 184.9,-131.09"/>
<polygon fill="midnightblue" stroke="midnightblue" points="185.92,-134.44 194.69,-128.51 184.13,-127.68 185.92,-134.44"/>
</g>
<!-- Node9 -->
<g id="node9" class="node">
<title>Node9</title>
<g id="a_node9"><a xlink:href="../../da/dd5/namespaceautomaton_1_1core_1_1io.html#a6e93384a5c0d6481352d0ec3211a3d2d" target="_top" xlink:title=" ">
<polygon fill="white" stroke="black" points="203.5,-49.5 203.5,-79.5 301.5,-79.5 301.5,-49.5 203.5,-49.5"/>
<text text-anchor="start" x="211.5" y="-67.5" font-family="Helvetica,sans-Serif" font-size="10.00">automaton::core::io</text>
<text text-anchor="middle" x="252.5" y="-56.5" font-family="Helvetica,sans-Serif" font-size="10.00">::hex2bin</text>
</a>
</g>
</g>
<!-- Node1&#45;&gt;Node9 -->
<g id="edge10" class="edge">
<title>Node1&#45;&gt;Node9</title>
<path fill="none" stroke="midnightblue" d="M82.45,-147.34C101.31,-130.7 133.8,-104.27 166,-88.5 174.63,-84.27 184.13,-80.68 193.56,-77.67"/>
<polygon fill="midnightblue" stroke="midnightblue" points="194.76,-80.96 203.33,-74.73 192.74,-74.26 194.76,-80.96"/>
</g>
<!-- Node11 -->
<g id="node11" class="node">
<title>Node11</title>
<g id="a_node11"><a xlink:href="../../d2/d91/namespaceautomaton_1_1core_1_1interop_1_1ethereum.html#a1775b0bab9738d2aa1c8ec382a41b5ed" target="_top" xlink:title=" ">
<polygon fill="white" stroke="black" points="191.5,-0.5 191.5,-30.5 313.5,-30.5 313.5,-0.5 191.5,-0.5"/>
<text text-anchor="start" x="199.5" y="-18.5" font-family="Helvetica,sans-Serif" font-size="10.00">automaton::core::interop</text>
<text text-anchor="middle" x="252.5" y="-7.5" font-family="Helvetica,sans-Serif" font-size="10.00">::ethereum::u64_to_u256</text>
</a>
</g>
</g>
<!-- Node1&#45;&gt;Node11 -->
<g id="edge12" class="edge">
<title>Node1&#45;&gt;Node11</title>
<path fill="none" stroke="midnightblue" d="M74.26,-147.09C89.09,-120.92 122.75,-67.89 166,-39.5 170.95,-36.25 176.35,-33.43 181.94,-30.99"/>
<polygon fill="midnightblue" stroke="midnightblue" points="183.46,-34.15 191.49,-27.24 180.9,-27.64 183.46,-34.15"/>
</g>
<!-- Node2&#45;&gt;Node3 -->
<g id="edge2" class="edge">
<title>Node2&#45;&gt;Node3</title>
<path fill="none" stroke="midnightblue" d="M319.38,-275.52C335.9,-279.29 353.76,-283.36 370.72,-287.22"/>
<polygon fill="midnightblue" stroke="midnightblue" points="370.06,-290.66 380.59,-289.47 371.62,-283.84 370.06,-290.66"/>
</g>
<!-- Node4 -->
<g id="node4" class="node">
<title>Node4</title>
<g id="a_node4"><a xlink:href="../../d2/d91/namespaceautomaton_1_1core_1_1interop_1_1ethereum.html#a08f65881a82ec8e34c694e2fc677bc31" target="_top" xlink:title=" ">
<polygon fill="white" stroke="black" points="556,-267.5 556,-297.5 675,-297.5 675,-267.5 556,-267.5"/>
<text text-anchor="start" x="564" y="-285.5" font-family="Helvetica,sans-Serif" font-size="10.00">automaton::core::interop</text>
<text text-anchor="middle" x="615.5" y="-274.5" font-family="Helvetica,sans-Serif" font-size="10.00">::ethereum::get_type</text>
</a>
</g>
</g>
<!-- Node2&#45;&gt;Node4 -->
<g id="edge4" class="edge">
<title>Node2&#45;&gt;Node4</title>
<path fill="none" stroke="midnightblue" d="M319.71,-264.54C383.86,-268.44 480.72,-274.35 545.72,-278.31"/>
<polygon fill="midnightblue" stroke="midnightblue" points="545.68,-281.81 555.87,-278.93 546.1,-274.83 545.68,-281.81"/>
</g>
<!-- Node3&#45;&gt;Node4 -->
<g id="edge3" class="edge">
<title>Node3&#45;&gt;Node4</title>
<path fill="none" stroke="midnightblue" d="M520.34,-294.98C528.75,-293.86 537.32,-292.73 545.69,-291.62"/>
<polygon fill="midnightblue" stroke="midnightblue" points="546.32,-295.07 555.77,-290.28 545.4,-288.13 546.32,-295.07"/>
</g>
<!-- Node7 -->
<g id="node7" class="node">
<title>Node7</title>
<g id="a_node7"><a xlink:href="../../d0/d6e/namespaceautomaton_1_1tools_1_1miner.html#a05909e124eb3ea47b74479125c710527" target="_top" xlink:title=" ">
<polygon fill="white" stroke="black" points="389.5,-147.5 389.5,-177.5 505.5,-177.5 505.5,-147.5 389.5,-147.5"/>
<text text-anchor="start" x="397.5" y="-165.5" font-family="Helvetica,sans-Serif" font-size="10.00">automaton::tools::miner</text>
<text text-anchor="middle" x="447.5" y="-154.5" font-family="Helvetica,sans-Serif" font-size="10.00">::sign</text>
</a>
</g>
</g>
<!-- Node6&#45;&gt;Node7 -->
<g id="edge7" class="edge">
<title>Node6&#45;&gt;Node7</title>
<path fill="none" stroke="midnightblue" d="M312.19,-162.5C333.35,-162.5 357.39,-162.5 379.22,-162.5"/>
<polygon fill="midnightblue" stroke="midnightblue" points="379.41,-166 389.41,-162.5 379.41,-159 379.41,-166"/>
</g>
<!-- Node10 -->
<g id="node10" class="node">
<title>Node10</title>
<g id="a_node10"><a xlink:href="../../da/dd5/namespaceautomaton_1_1core_1_1io.html#abe415d62b91abcbae08337eb7a6c65de" target="_top" xlink:title=" ">
<polygon fill="white" stroke="black" points="398.5,-49.5 398.5,-79.5 496.5,-79.5 496.5,-49.5 398.5,-49.5"/>
<text text-anchor="start" x="406.5" y="-67.5" font-family="Helvetica,sans-Serif" font-size="10.00">automaton::core::io</text>
<text text-anchor="middle" x="447.5" y="-56.5" font-family="Helvetica,sans-Serif" font-size="10.00">::hex2nibble</text>
</a>
</g>
</g>
<!-- Node9&#45;&gt;Node10 -->
<g id="edge11" class="edge">
<title>Node9&#45;&gt;Node10</title>
<path fill="none" stroke="midnightblue" d="M301.7,-64.5C327.84,-64.5 360.35,-64.5 387.93,-64.5"/>
<polygon fill="midnightblue" stroke="midnightblue" points="388.24,-68 398.24,-64.5 388.24,-61 388.24,-68"/>
</g>
</g>
</svg>
