<?xml version="1.0" encoding="UTF-8" standalone="no"?>
<!DOCTYPE svg PUBLIC "-//W3C//DTD SVG 1.1//EN"
 "http://www.w3.org/Graphics/SVG/1.1/DTD/svg11.dtd">
<!-- Generated by graphviz version 2.42.3 ()
 -->
<!-- Title: automaton::core::interop::ethereum::handle_result Pages: 1 -->
<svg width="572pt" height="246pt"
 viewBox="0.00 0.00 572.00 245.50" xmlns="http://www.w3.org/2000/svg" xmlns:xlink="http://www.w3.org/1999/xlink">
<g id="graph0" class="graph" transform="scale(1 1) rotate(0) translate(4 241.5)">
<title>automaton::core::interop::ethereum::handle_result</title>
<polygon fill="white" stroke="transparent" points="-4,4 -4,-241.5 568,-241.5 568,4 -4,4"/>
<!-- Node1 -->
<g id="node1" class="node">
<title>Node1</title>
<g id="a_node1"><a xlink:title=" ">
<polygon fill="#bfbfbf" stroke="black" points="440,-109 440,-139 564,-139 564,-109 440,-109"/>
<text text-anchor="start" x="448" y="-127" font-family="Helvetica,sans-Serif" font-size="10.00">automaton::core::interop</text>
<text text-anchor="middle" x="502" y="-116" font-family="Helvetica,sans-Serif" font-size="10.00">::ethereum::handle_result</text>
</a>
</g>
</g>
<!-- Node2 -->
<g id="node2" class="node">
<title>Node2</title>
<g id="a_node2"><a xlink:href="../../d2/d91/namespaceautomaton_1_1core_1_1interop_1_1ethereum.html#ab6d124e27877cde7076f94fa6439ea83" target="_top" xlink:title=" ">
<polygon fill="white" stroke="black" points="285,-109 285,-139 404,-139 404,-109 285,-109"/>
<text text-anchor="start" x="293" y="-127" font-family="Helvetica,sans-Serif" font-size="10.00">automaton::core::interop</text>
<text text-anchor="middle" x="344.5" y="-116" font-family="Helvetica,sans-Serif" font-size="10.00">::ethereum::curl_post</text>
</a>
</g>
</g>
<!-- Node1&#45;&gt;Node2 -->
<g id="edge1" class="edge">
<title>Node1&#45;&gt;Node2</title>
<path fill="none" stroke="midnightblue" d="M429.91,-124C421.25,-124 412.49,-124 404.05,-124"/>
<polygon fill="midnightblue" stroke="midnightblue" points="429.99,-127.5 439.99,-124 429.99,-120.5 429.99,-127.5"/>
</g>
<!-- Node3 -->
<g id="node3" class="node">
<title>Node3</title>
<g id="a_node3"><a xlink:href="../../d2/d91/namespaceautomaton_1_1core_1_1interop_1_1ethereum.html#af94c20cb01294d2784980377da7684c1" target="_top" xlink:title=" ">
<polygon fill="white" stroke="black" points="100,-207 100,-237 223,-237 223,-207 100,-207"/>
<text text-anchor="start" x="108" y="-225" font-family="Helvetica,sans-Serif" font-size="10.00">automaton::core::interop</text>
<text text-anchor="middle" x="161.5" y="-214" font-family="Helvetica,sans-Serif" font-size="10.00">::ethereum::eth_gasPrice</text>
</a>
</g>
</g>
<!-- Node2&#45;&gt;Node3 -->
<g id="edge2" class="edge">
<title>Node2&#45;&gt;Node3</title>
<path fill="none" stroke="midnightblue" d="M320.43,-146.35C302.32,-162.77 275.78,-184.48 249,-198 240.93,-202.07 232.08,-205.53 223.21,-208.45"/>
<polygon fill="midnightblue" stroke="midnightblue" points="323.16,-148.59 328.12,-139.23 318.41,-143.45 323.16,-148.59"/>
</g>
<!-- Node5 -->
<g id="node5" class="node">
<title>Node5</title>
<g id="a_node5"><a xlink:href="../../d2/d91/namespaceautomaton_1_1core_1_1interop_1_1ethereum.html#a4e5f4572be73045ce966df1fa0e53d1b" target="_top" xlink:title=" ">
<polygon fill="white" stroke="black" points="94.5,-158 94.5,-188 228.5,-188 228.5,-158 94.5,-158"/>
<text text-anchor="start" x="102.5" y="-176" font-family="Helvetica,sans-Serif" font-size="10.00">automaton::core::interop</text>
<text text-anchor="middle" x="161.5" y="-165" font-family="Helvetica,sans-Serif" font-size="10.00">::ethereum::eth_getBalance</text>
</a>
</g>
</g>
<!-- Node2&#45;&gt;Node5 -->
<g id="edge4" class="edge">
<title>Node2&#45;&gt;Node5</title>
<path fill="none" stroke="midnightblue" d="M277.94,-141.75C258.32,-147.06 237.01,-152.83 218.1,-157.95"/>
<polygon fill="midnightblue" stroke="midnightblue" points="278.98,-145.09 287.72,-139.1 277.15,-138.34 278.98,-145.09"/>
</g>
<!-- Node6 -->
<g id="node6" class="node">
<title>Node6</title>
<g id="a_node6"><a xlink:href="../../d2/d91/namespaceautomaton_1_1core_1_1interop_1_1ethereum.html#aba0ff0eafb720e87750796f5d18727a6" target="_top" xlink:title=" ">
<polygon fill="white" stroke="black" points="101,-109 101,-139 222,-139 222,-109 101,-109"/>
<text text-anchor="start" x="109" y="-127" font-family="Helvetica,sans-Serif" font-size="10.00">automaton::core::interop</text>
<text text-anchor="middle" x="161.5" y="-116" font-family="Helvetica,sans-Serif" font-size="10.00">::ethereum::eth_getCode</text>
</a>
</g>
</g>
<!-- Node2&#45;&gt;Node6 -->
<g id="edge5" class="edge">
<title>Node2&#45;&gt;Node6</title>
<path fill="none" stroke="midnightblue" d="M274.71,-124C257.42,-124 239.01,-124 222.21,-124"/>
<polygon fill="midnightblue" stroke="midnightblue" points="274.73,-127.5 284.73,-124 274.73,-120.5 274.73,-127.5"/>
</g>
<!-- Node7 -->
<g id="node7" class="node">
<title>Node7</title>
<g id="a_node7"><a xlink:href="../../d2/d91/namespaceautomaton_1_1core_1_1interop_1_1ethereum.html#af71a43bad614554041a0bbc70f5fcdea" target="_top" xlink:title=" ">
<polygon fill="white" stroke="black" points="74,-60 74,-90 249,-90 249,-60 74,-60"/>
<text text-anchor="start" x="82" y="-78" font-family="Helvetica,sans-Serif" font-size="10.00">automaton::core::interop</text>
<text text-anchor="middle" x="161.5" y="-67" font-family="Helvetica,sans-Serif" font-size="10.00">::ethereum::eth_getTransactionCount</text>
</a>
</g>
</g>
<!-- Node2&#45;&gt;Node7 -->
<g id="edge7" class="edge">
<title>Node2&#45;&gt;Node7</title>
<path fill="none" stroke="midnightblue" d="M277.94,-106.25C258.32,-100.94 237.01,-95.17 218.1,-90.05"/>
<polygon fill="midnightblue" stroke="midnightblue" points="277.15,-109.66 287.72,-108.9 278.98,-102.91 277.15,-109.66"/>
</g>
<!-- Node8 -->
<g id="node8" class="node">
<title>Node8</title>
<g id="a_node8"><a xlink:href="../../d2/d91/namespaceautomaton_1_1core_1_1interop_1_1ethereum.html#aeec254eba111b5daca0926c13c5e40bd" target="_top" xlink:title=" ">
<polygon fill="white" stroke="black" points="87,-0.5 87,-41.5 236,-41.5 236,-0.5 87,-0.5"/>
<text text-anchor="start" x="95" y="-29.5" font-family="Helvetica,sans-Serif" font-size="10.00">automaton::core::interop</text>
<text text-anchor="start" x="95" y="-18.5" font-family="Helvetica,sans-Serif" font-size="10.00">::ethereum::eth_getTransaction</text>
<text text-anchor="middle" x="161.5" y="-7.5" font-family="Helvetica,sans-Serif" font-size="10.00">Receipt</text>
</a>
</g>
</g>
<!-- Node2&#45;&gt;Node8 -->
<g id="edge9" class="edge">
<title>Node2&#45;&gt;Node8</title>
<path fill="none" stroke="midnightblue" d="M319.46,-101.87C301.22,-86 274.93,-65.03 249,-51 242.71,-47.6 235.96,-44.46 229.1,-41.61"/>
<polygon fill="midnightblue" stroke="midnightblue" points="317.44,-104.75 327.24,-108.76 322.08,-99.51 317.44,-104.75"/>
</g>
<!-- Node4 -->
<g id="node4" class="node">
<title>Node4</title>
<g id="a_node4"><a xlink:href="../../d4/d57/eth__contract__curl__test_8cc.html#ae66f6b31b5ad750f1fe042a706a4e3d4" target="_top" xlink:title=" ">
<polygon fill="white" stroke="black" points="0,-89.5 0,-108.5 38,-108.5 38,-89.5 0,-89.5"/>
<text text-anchor="middle" x="19" y="-96.5" font-family="Helvetica,sans-Serif" font-size="10.00">main</text>
</a>
</g>
</g>
<!-- Node3&#45;&gt;Node4 -->
<g id="edge3" class="edge">
<title>Node3&#45;&gt;Node4</title>
<path fill="none" stroke="midnightblue" d="M90.4,-207.99C84.54,-205.24 78.97,-201.94 74,-198 43.79,-174.02 28.1,-128.32 22.47,-108.53"/>
<polygon fill="midnightblue" stroke="midnightblue" points="89.22,-211.29 99.8,-211.89 91.9,-204.83 89.22,-211.29"/>
</g>
<!-- Node6&#45;&gt;Node4 -->
<g id="edge6" class="edge">
<title>Node6&#45;&gt;Node4</title>
<path fill="none" stroke="midnightblue" d="M91.06,-111.64C71.53,-108.17 51.93,-104.68 38.27,-102.25"/>
<polygon fill="midnightblue" stroke="midnightblue" points="90.46,-115.09 100.92,-113.4 91.68,-108.2 90.46,-115.09"/>
</g>
<!-- Node7&#45;&gt;Node4 -->
<g id="edge8" class="edge">
<title>Node7&#45;&gt;Node4</title>
<path fill="none" stroke="midnightblue" d="M63.95,-91.49C54.21,-93.16 45.26,-94.69 38.01,-95.92"/>
<polygon fill="midnightblue" stroke="midnightblue" points="64.65,-94.92 73.92,-89.79 63.47,-88.02 64.65,-94.92"/>
</g>
<!-- Node8&#45;&gt;Node4 -->
<g id="edge10" class="edge">
<title>Node8&#45;&gt;Node4</title>
<path fill="none" stroke="midnightblue" d="M83.44,-45.9C80.2,-47.52 77.04,-49.22 74,-51 56.04,-61.53 38.66,-78.59 28.67,-89.28"/>
<polygon fill="midnightblue" stroke="midnightblue" points="85.16,-48.96 92.75,-41.57 82.2,-42.62 85.16,-48.96"/>
</g>
</g>
</svg>
