<?xml version="1.0" encoding="UTF-8" standalone="no"?>
<!DOCTYPE svg PUBLIC "-//W3C//DTD SVG 1.1//EN"
 "http://www.w3.org/Graphics/SVG/1.1/DTD/svg11.dtd">
<!-- Generated by graphviz version 2.44.0 ()
 -->
<!-- Title: automaton::core::interop::ethereum::calculate_offset Pages: 1 -->
<svg width="478pt" height="61pt"
 viewBox="0.00 0.00 478.00 61.00" xmlns="http://www.w3.org/2000/svg" xmlns:xlink="http://www.w3.org/1999/xlink">
<g id="graph0" class="graph" transform="scale(1 1) rotate(0) translate(4 57)">
<title>automaton::core::interop::ethereum::calculate_offset</title>
<polygon fill="white" stroke="transparent" points="-4,4 -4,-57 474,-57 474,4 -4,4"/>
<!-- Node1 -->
<g id="node1" class="node">
<title>Node1</title>
<g id="a_node1"><a xlink:title=" ">
<polygon fill="#bfbfbf" stroke="black" points="0,-0.5 0,-30.5 134,-30.5 134,-0.5 0,-0.5"/>
<text text-anchor="start" x="8" y="-18.5" font-family="Helvetica,sans-Serif" font-size="10.00">automaton::core::interop</text>
<text text-anchor="middle" x="67" y="-7.5" font-family="Helvetica,sans-Serif" font-size="10.00">::ethereum::calculate_offset</text>
</a>
</g>
</g>
<!-- Node2 -->
<g id="node2" class="node">
<title>Node2</title>
<g id="a_node2"><a xlink:href="../../d2/d91/namespaceautomaton_1_1core_1_1interop_1_1ethereum.html#ac04f9dc4ef42981618e61f6bc2196156" target="_top" xlink:title=" ">
<polygon fill="white" stroke="black" points="170,-22.5 170,-52.5 315,-52.5 315,-22.5 170,-22.5"/>
<text text-anchor="start" x="178" y="-40.5" font-family="Helvetica,sans-Serif" font-size="10.00">automaton::core::interop</text>
<text text-anchor="middle" x="242.5" y="-29.5" font-family="Helvetica,sans-Serif" font-size="10.00">::ethereum::extract_array_type</text>
</a>
</g>
</g>
<!-- Node1&#45;&gt;Node2 -->
<g id="edge1" class="edge">
<title>Node1&#45;&gt;Node2</title>
<path fill="none" stroke="midnightblue" d="M134.09,-23.88C142.49,-24.94 151.16,-26.04 159.76,-27.14"/>
<polygon fill="midnightblue" stroke="midnightblue" points="159.45,-30.62 169.81,-28.41 160.33,-23.68 159.45,-30.62"/>
</g>
<!-- Node3 -->
<g id="node3" class="node">
<title>Node3</title>
<g id="a_node3"><a xlink:href="../../d2/d91/namespaceautomaton_1_1core_1_1interop_1_1ethereum.html#a08f65881a82ec8e34c694e2fc677bc31" target="_top" xlink:title=" ">
<polygon fill="white" stroke="black" points="351,-0.5 351,-30.5 470,-30.5 470,-0.5 351,-0.5"/>
<text text-anchor="start" x="359" y="-18.5" font-family="Helvetica,sans-Serif" font-size="10.00">automaton::core::interop</text>
<text text-anchor="middle" x="410.5" y="-7.5" font-family="Helvetica,sans-Serif" font-size="10.00">::ethereum::get_type</text>
</a>
</g>
</g>
<!-- Node1&#45;&gt;Node3 -->
<g id="edge3" class="edge">
<title>Node1&#45;&gt;Node3</title>
<path fill="none" stroke="midnightblue" d="M134.11,-14.01C146.06,-13.8 158.4,-13.61 170,-13.5 234.44,-12.87 250.56,-12.82 315,-13.5 323.31,-13.59 332.04,-13.72 340.69,-13.87"/>
<polygon fill="midnightblue" stroke="midnightblue" points="340.71,-17.37 350.78,-14.06 340.84,-10.38 340.71,-17.37"/>
</g>
<!-- Node2&#45;&gt;Node3 -->
<g id="edge2" class="edge">
<title>Node2&#45;&gt;Node3</title>
<path fill="none" stroke="midnightblue" d="M315.34,-27.98C323.75,-26.86 332.32,-25.73 340.69,-24.62"/>
<polygon fill="midnightblue" stroke="midnightblue" points="341.32,-28.07 350.77,-23.28 340.4,-21.13 341.32,-28.07"/>
</g>
</g>
</svg>
