<?xml version="1.0" encoding="UTF-8" standalone="no"?>
<!DOCTYPE svg PUBLIC "-//W3C//DTD SVG 1.1//EN"
 "http://www.w3.org/Graphics/SVG/1.1/DTD/svg11.dtd">
<!-- Generated by graphviz version 2.42.3 ()
 -->
<!-- Title: automaton::core::interop::ethereum::recover_address Pages: 1 -->
<svg width="471pt" height="50pt"
 viewBox="0.00 0.00 471.00 50.00" xmlns="http://www.w3.org/2000/svg" xmlns:xlink="http://www.w3.org/1999/xlink">
<g id="graph0" class="graph" transform="scale(1 1) rotate(0) translate(4 46)">
<title>automaton::core::interop::ethereum::recover_address</title>
<polygon fill="white" stroke="transparent" points="-4,4 -4,-46 467,-46 467,4 -4,4"/>
<!-- Node1 -->
<g id="node1" class="node">
<title>Node1</title>
<g id="a_node1"><a xlink:title=" ">
<polygon fill="#bfbfbf" stroke="black" points="0,-6 0,-36 138,-36 138,-6 0,-6"/>
<text text-anchor="start" x="8" y="-24" font-family="Helvetica,sans-Serif" font-size="10.00">automaton::core::interop</text>
<text text-anchor="middle" x="69" y="-13" font-family="Helvetica,sans-Serif" font-size="10.00">::ethereum::recover_address</text>
</a>
</g>
</g>
<!-- Node2 -->
<g id="node2" class="node">
<title>Node2</title>
<g id="a_node2"><a xlink:href="../../d2/d91/namespaceautomaton_1_1core_1_1interop_1_1ethereum.html#acedced20e741715b96a13a0bc4b41ebf" target="_top" xlink:title=" ">
<polygon fill="white" stroke="black" points="174,-6 174,-36 293,-36 293,-6 174,-6"/>
<text text-anchor="start" x="182" y="-24" font-family="Helvetica,sans-Serif" font-size="10.00">automaton::core::interop</text>
<text text-anchor="middle" x="233.5" y="-13" font-family="Helvetica,sans-Serif" font-size="10.00">::ethereum::hash</text>
</a>
</g>
</g>
<!-- Node1&#45;&gt;Node2 -->
<g id="edge1" class="edge">
<title>Node1&#45;&gt;Node2</title>
<path fill="none" stroke="midnightblue" d="M138.44,-21C146.83,-21 155.4,-21 163.79,-21"/>
<polygon fill="midnightblue" stroke="midnightblue" points="163.91,-24.5 173.91,-21 163.91,-17.5 163.91,-24.5"/>
</g>
<!-- Node3 -->
<g id="node3" class="node">
<title>Node3</title>
<g id="a_node3"><a xlink:href="../../dd/db1/classautomaton_1_1core_1_1crypto_1_1cryptopp_1_1_keccak__256__cryptopp.html#aa189a48741dc1432fdc1380051913e1b" target="_top" xlink:title=" ">
<polygon fill="white" stroke="black" points="329,-0.5 329,-41.5 463,-41.5 463,-0.5 329,-0.5"/>
<text text-anchor="start" x="337" y="-29.5" font-family="Helvetica,sans-Serif" font-size="10.00">automaton::core::crypto</text>
<text text-anchor="start" x="337" y="-18.5" font-family="Helvetica,sans-Serif" font-size="10.00">::cryptopp::Keccak_256</text>
<text text-anchor="middle" x="396" y="-7.5" font-family="Helvetica,sans-Serif" font-size="10.00">_cryptopp::calculate_digest</text>
</a>
</g>
</g>
<!-- Node2&#45;&gt;Node3 -->
<g id="edge2" class="edge">
<title>Node2&#45;&gt;Node3</title>
<path fill="none" stroke="midnightblue" d="M293.35,-21C301.56,-21 310.08,-21 318.56,-21"/>
<polygon fill="midnightblue" stroke="midnightblue" points="318.83,-24.5 328.83,-21 318.83,-17.5 318.83,-24.5"/>
</g>
</g>
</svg>
