<?xml version="1.0" encoding="UTF-8" standalone="no"?>
<!DOCTYPE svg PUBLIC "-//W3C//DTD SVG 1.1//EN"
 "http://www.w3.org/Graphics/SVG/1.1/DTD/svg11.dtd">
<!-- Generated by graphviz version 2.44.0 ()
 -->
<!-- Title: automaton::core::interop::ethereum::dec_to_i256 Pages: 1 -->
<svg width="279pt" height="39pt"
 viewBox="0.00 0.00 279.00 39.00" xmlns="http://www.w3.org/2000/svg" xmlns:xlink="http://www.w3.org/1999/xlink">
<g id="graph0" class="graph" transform="scale(1 1) rotate(0) translate(4 35)">
<title>automaton::core::interop::ethereum::dec_to_i256</title>
<polygon fill="white" stroke="transparent" points="-4,4 -4,-35 275,-35 275,4 -4,4"/>
<!-- Node1 -->
<g id="node1" class="node">
<title>Node1</title>
<g id="a_node1"><a xlink:title=" ">
<polygon fill="#bfbfbf" stroke="black" points="0,-0.5 0,-30.5 119,-30.5 119,-0.5 0,-0.5"/>
<text text-anchor="start" x="8" y="-18.5" font-family="Helvetica,sans-Serif" font-size="10.00">automaton::core::interop</text>
<text text-anchor="middle" x="59.5" y="-7.5" font-family="Helvetica,sans-Serif" font-size="10.00">::ethereum::dec_to_i256</text>
</a>
</g>
</g>
<!-- Node2 -->
<g id="node2" class="node">
<title>Node2</title>
<g id="a_node2"><a xlink:href="../../d0/d6e/namespaceautomaton_1_1tools_1_1miner.html#a05909e124eb3ea47b74479125c710527" target="_top" xlink:title=" ">
<polygon fill="white" stroke="black" points="155,-0.5 155,-30.5 271,-30.5 271,-0.5 155,-0.5"/>
<text text-anchor="start" x="163" y="-18.5" font-family="Helvetica,sans-Serif" font-size="10.00">automaton::tools::miner</text>
<text text-anchor="middle" x="213" y="-7.5" font-family="Helvetica,sans-Serif" font-size="10.00">::sign</text>
</a>
</g>
</g>
<!-- Node1&#45;&gt;Node2 -->
<g id="edge1" class="edge">
<title>Node1&#45;&gt;Node2</title>
<path fill="none" stroke="midnightblue" d="M119.07,-15.5C127.36,-15.5 135.94,-15.5 144.38,-15.5"/>
<polygon fill="midnightblue" stroke="midnightblue" points="144.58,-19 154.58,-15.5 144.58,-12 144.58,-19"/>
</g>
</g>
</svg>
