<?xml version="1.0" encoding="UTF-8" standalone="no"?>
<!DOCTYPE svg PUBLIC "-//W3C//DTD SVG 1.1//EN"
 "http://www.w3.org/Graphics/SVG/1.1/DTD/svg11.dtd">
<!-- Generated by graphviz version 2.42.3 ()
 -->
<!-- Title: automaton::core::interop::ethereum::encode Pages: 1 -->
<svg width="838pt" height="337pt"
 viewBox="0.00 0.00 838.00 337.04" xmlns="http://www.w3.org/2000/svg" xmlns:xlink="http://www.w3.org/1999/xlink">
<g id="graph0" class="graph" transform="scale(1 1) rotate(0) translate(4 333.04)">
<title>automaton::core::interop::ethereum::encode</title>
<polygon fill="white" stroke="transparent" points="-4,4 -4,-333.04 834,-333.04 834,4 -4,4"/>
<!-- Node1 -->
<g id="node1" class="node">
<title>Node1</title>
<g id="a_node1"><a xlink:title=" ">
<polygon fill="#bfbfbf" stroke="black" points="0,-235.5 0,-265.5 119,-265.5 119,-235.5 0,-235.5"/>
<text text-anchor="start" x="8" y="-253.5" font-family="Helvetica,sans-Serif" font-size="10.00">automaton::core::interop</text>
<text text-anchor="middle" x="59.5" y="-242.5" font-family="Helvetica,sans-Serif" font-size="10.00">::ethereum::encode</text>
</a>
</g>
</g>
<!-- Node2 -->
<g id="node2" class="node">
<title>Node2</title>
<g id="a_node2"><a xlink:href="../../d2/d91/namespaceautomaton_1_1core_1_1interop_1_1ethereum.html#aa50eed459424657a958f1de0e7668bea" target="_top" xlink:title=" ">
<polygon fill="white" stroke="black" points="340.5,-235.5 340.5,-265.5 474.5,-265.5 474.5,-235.5 340.5,-235.5"/>
<text text-anchor="start" x="348.5" y="-253.5" font-family="Helvetica,sans-Serif" font-size="10.00">automaton::core::interop</text>
<text text-anchor="middle" x="407.5" y="-242.5" font-family="Helvetica,sans-Serif" font-size="10.00">::ethereum::calculate_offset</text>
</a>
</g>
</g>
<!-- Node1&#45;&gt;Node2 -->
<g id="edge1" class="edge">
<title>Node1&#45;&gt;Node2</title>
<path fill="none" stroke="midnightblue" d="M119.19,-250.5C177.27,-250.5 266.46,-250.5 330.05,-250.5"/>
<polygon fill="midnightblue" stroke="midnightblue" points="330.42,-254 340.42,-250.5 330.42,-247 330.42,-254"/>
</g>
<!-- Node4 -->
<g id="node4" class="node">
<title>Node4</title>
<g id="a_node4"><a xlink:href="../../d2/d91/namespaceautomaton_1_1core_1_1interop_1_1ethereum.html#a08f65881a82ec8e34c694e2fc677bc31" target="_top" xlink:title=" ">
<polygon fill="white" stroke="black" points="711,-260.5 711,-290.5 830,-290.5 830,-260.5 711,-260.5"/>
<text text-anchor="start" x="719" y="-278.5" font-family="Helvetica,sans-Serif" font-size="10.00">automaton::core::interop</text>
<text text-anchor="middle" x="770.5" y="-267.5" font-family="Helvetica,sans-Serif" font-size="10.00">::ethereum::get_type</text>
</a>
</g>
</g>
<!-- Node1&#45;&gt;Node4 -->
<g id="edge16" class="edge">
<title>Node1&#45;&gt;Node4</title>
<path fill="none" stroke="midnightblue" d="M96.44,-265.54C113.92,-272.51 135.34,-280.54 155,-286.5 227.43,-308.47 245.79,-316 321,-324.5 455.52,-339.7 612.84,-312.04 700.85,-292.47"/>
<polygon fill="midnightblue" stroke="midnightblue" points="701.73,-295.86 710.71,-290.24 700.19,-289.03 701.73,-295.86"/>
</g>
<!-- Node5 -->
<g id="node5" class="node">
<title>Node5</title>
<g id="a_node5"><a xlink:href="../../d2/d91/namespaceautomaton_1_1core_1_1interop_1_1ethereum.html#a414060673c883b4f153cd1a613df435f" target="_top" xlink:title=" ">
<polygon fill="white" stroke="black" points="321,-284.5 321,-314.5 494,-314.5 494,-284.5 321,-284.5"/>
<text text-anchor="start" x="329" y="-302.5" font-family="Helvetica,sans-Serif" font-size="10.00">automaton::core::interop</text>
<text text-anchor="middle" x="407.5" y="-291.5" font-family="Helvetica,sans-Serif" font-size="10.00">::ethereum::check_and_resize_buffer</text>
</a>
</g>
</g>
<!-- Node1&#45;&gt;Node5 -->
<g id="edge5" class="edge">
<title>Node1&#45;&gt;Node5</title>
<path fill="none" stroke="midnightblue" d="M119.22,-259.28C131.06,-261.03 143.43,-262.84 155,-264.5 206.43,-271.89 263.8,-279.89 310.76,-286.38"/>
<polygon fill="midnightblue" stroke="midnightblue" points="310.53,-289.88 320.92,-287.78 311.49,-282.95 310.53,-289.88"/>
</g>
<!-- Node6 -->
<g id="node6" class="node">
<title>Node6</title>
<g id="a_node6"><a xlink:href="../../d2/d91/namespaceautomaton_1_1core_1_1interop_1_1ethereum.html#a1785a882c65e47ef40d0587235f82275" target="_top" xlink:title=" ">
<polygon fill="white" stroke="black" points="155,-169.5 155,-199.5 285,-199.5 285,-169.5 155,-169.5"/>
<text text-anchor="start" x="163" y="-187.5" font-family="Helvetica,sans-Serif" font-size="10.00">automaton::core::interop</text>
<text text-anchor="middle" x="220" y="-176.5" font-family="Helvetica,sans-Serif" font-size="10.00">::ethereum::encode_param</text>
</a>
</g>
</g>
<!-- Node1&#45;&gt;Node6 -->
<g id="edge6" class="edge">
<title>Node1&#45;&gt;Node6</title>
<path fill="none" stroke="midnightblue" d="M96.86,-235.36C119.62,-225.88 149.12,-213.6 173.43,-203.48"/>
<polygon fill="midnightblue" stroke="midnightblue" points="174.92,-206.65 182.81,-199.57 172.23,-200.18 174.92,-206.65"/>
</g>
<!-- Node12 -->
<g id="node12" class="node">
<title>Node12</title>
<g id="a_node12"><a xlink:href="../../d2/d91/namespaceautomaton_1_1core_1_1interop_1_1ethereum.html#a1775b0bab9738d2aa1c8ec382a41b5ed" target="_top" xlink:title=" ">
<polygon fill="white" stroke="black" points="346.5,-0.5 346.5,-30.5 468.5,-30.5 468.5,-0.5 346.5,-0.5"/>
<text text-anchor="start" x="354.5" y="-18.5" font-family="Helvetica,sans-Serif" font-size="10.00">automaton::core::interop</text>
<text text-anchor="middle" x="407.5" y="-7.5" font-family="Helvetica,sans-Serif" font-size="10.00">::ethereum::u64_to_u256</text>
</a>
</g>
</g>
<!-- Node1&#45;&gt;Node12 -->
<g id="edge17" class="edge">
<title>Node1&#45;&gt;Node12</title>
<path fill="none" stroke="midnightblue" d="M74.09,-235.49C110.19,-196.57 213.14,-91.84 321,-39.5 325.94,-37.1 331.16,-34.91 336.49,-32.9"/>
<polygon fill="midnightblue" stroke="midnightblue" points="337.89,-36.12 346.16,-29.51 335.57,-29.52 337.89,-36.12"/>
</g>
<!-- Node3 -->
<g id="node3" class="node">
<title>Node3</title>
<g id="a_node3"><a xlink:href="../../d2/d91/namespaceautomaton_1_1core_1_1interop_1_1ethereum.html#ac04f9dc4ef42981618e61f6bc2196156" target="_top" xlink:title=" ">
<polygon fill="white" stroke="black" points="530,-216.5 530,-246.5 675,-246.5 675,-216.5 530,-216.5"/>
<text text-anchor="start" x="538" y="-234.5" font-family="Helvetica,sans-Serif" font-size="10.00">automaton::core::interop</text>
<text text-anchor="middle" x="602.5" y="-223.5" font-family="Helvetica,sans-Serif" font-size="10.00">::ethereum::extract_array_type</text>
</a>
</g>
</g>
<!-- Node2&#45;&gt;Node3 -->
<g id="edge2" class="edge">
<title>Node2&#45;&gt;Node3</title>
<path fill="none" stroke="midnightblue" d="M474.65,-243.99C489.1,-242.57 504.56,-241.04 519.55,-239.57"/>
<polygon fill="midnightblue" stroke="midnightblue" points="520.22,-243.02 529.83,-238.56 519.53,-236.05 520.22,-243.02"/>
</g>
<!-- Node2&#45;&gt;Node4 -->
<g id="edge4" class="edge">
<title>Node2&#45;&gt;Node4</title>
<path fill="none" stroke="midnightblue" d="M474.71,-255.09C538.86,-259.53 635.72,-266.24 700.72,-270.74"/>
<polygon fill="midnightblue" stroke="midnightblue" points="700.65,-274.24 710.87,-271.44 701.14,-267.26 700.65,-274.24"/>
</g>
<!-- Node3&#45;&gt;Node4 -->
<g id="edge3" class="edge">
<title>Node3&#45;&gt;Node4</title>
<path fill="none" stroke="midnightblue" d="M660.16,-246.52C673.98,-250.18 688.87,-254.13 703.1,-257.9"/>
<polygon fill="midnightblue" stroke="midnightblue" points="702.25,-261.29 712.81,-260.47 704.04,-254.53 702.25,-261.29"/>
</g>
<!-- Node6&#45;&gt;Node2 -->
<g id="edge7" class="edge">
<title>Node6&#45;&gt;Node2</title>
<path fill="none" stroke="midnightblue" d="M262.82,-199.64C280.72,-206.1 301.88,-213.7 321,-220.5 331.55,-224.25 342.85,-228.24 353.66,-232.04"/>
<polygon fill="midnightblue" stroke="midnightblue" points="352.82,-235.45 363.42,-235.46 355.14,-228.85 352.82,-235.45"/>
</g>
<!-- Node6&#45;&gt;Node3 -->
<g id="edge12" class="edge">
<title>Node6&#45;&gt;Node3</title>
<path fill="none" stroke="midnightblue" d="M285.12,-192.42C349.71,-200.4 449.62,-212.74 519.85,-221.41"/>
<polygon fill="midnightblue" stroke="midnightblue" points="519.63,-224.91 529.99,-222.67 520.49,-217.97 519.63,-224.91"/>
</g>
<!-- Node6&#45;&gt;Node5 -->
<g id="edge8" class="edge">
<title>Node6&#45;&gt;Node5</title>
<path fill="none" stroke="midnightblue" d="M233.61,-199.74C251.15,-219.97 284.86,-255.48 321,-275.5 324.3,-277.33 327.74,-279.02 331.28,-280.6"/>
<polygon fill="midnightblue" stroke="midnightblue" points="330.23,-283.95 340.81,-284.49 332.87,-277.47 330.23,-283.95"/>
</g>
<!-- Node7 -->
<g id="node7" class="node">
<title>Node7</title>
<g id="a_node7"><a xlink:href="../../d2/d91/namespaceautomaton_1_1core_1_1interop_1_1ethereum.html#a617d29f4e99dd3dcb5e2a670dcaf1d69" target="_top" xlink:title=" ">
<polygon fill="white" stroke="black" points="348,-147.5 348,-177.5 467,-177.5 467,-147.5 348,-147.5"/>
<text text-anchor="start" x="356" y="-165.5" font-family="Helvetica,sans-Serif" font-size="10.00">automaton::core::interop</text>
<text text-anchor="middle" x="407.5" y="-154.5" font-family="Helvetica,sans-Serif" font-size="10.00">::ethereum::dec_to_i256</text>
</a>
</g>
</g>
<!-- Node6&#45;&gt;Node7 -->
<g id="edge9" class="edge">
<title>Node6&#45;&gt;Node7</title>
<path fill="none" stroke="midnightblue" d="M285.1,-176.9C302.17,-174.87 320.68,-172.68 337.97,-170.63"/>
<polygon fill="midnightblue" stroke="midnightblue" points="338.48,-174.09 348,-169.44 337.66,-167.14 338.48,-174.09"/>
</g>
<!-- Node9 -->
<g id="node9" class="node">
<title>Node9</title>
<g id="a_node9"><a xlink:href="../../d2/d91/namespaceautomaton_1_1core_1_1interop_1_1ethereum.html#a1776518e83508cdbecdf21f16d916d46" target="_top" xlink:title=" ">
<polygon fill="white" stroke="black" points="344,-98.5 344,-128.5 471,-128.5 471,-98.5 344,-98.5"/>
<text text-anchor="start" x="352" y="-116.5" font-family="Helvetica,sans-Serif" font-size="10.00">automaton::core::interop</text>
<text text-anchor="middle" x="407.5" y="-105.5" font-family="Helvetica,sans-Serif" font-size="10.00">::ethereum::encode_string</text>
</a>
</g>
</g>
<!-- Node6&#45;&gt;Node9 -->
<g id="edge11" class="edge">
<title>Node6&#45;&gt;Node9</title>
<path fill="none" stroke="midnightblue" d="M250.71,-169.44C270.35,-159.83 296.84,-147.54 321,-138.5 327.33,-136.13 333.98,-133.85 340.67,-131.68"/>
<polygon fill="midnightblue" stroke="midnightblue" points="341.97,-134.94 350.46,-128.6 339.87,-128.27 341.97,-134.94"/>
</g>
<!-- Node10 -->
<g id="node10" class="node">
<title>Node10</title>
<g id="a_node10"><a xlink:href="../../da/dd5/namespaceautomaton_1_1core_1_1io.html#a6e93384a5c0d6481352d0ec3211a3d2d" target="_top" xlink:title=" ">
<polygon fill="white" stroke="black" points="358.5,-49.5 358.5,-79.5 456.5,-79.5 456.5,-49.5 358.5,-49.5"/>
<text text-anchor="start" x="366.5" y="-67.5" font-family="Helvetica,sans-Serif" font-size="10.00">automaton::core::io</text>
<text text-anchor="middle" x="407.5" y="-56.5" font-family="Helvetica,sans-Serif" font-size="10.00">::hex2bin</text>
</a>
</g>
</g>
<!-- Node6&#45;&gt;Node10 -->
<g id="edge13" class="edge">
<title>Node6&#45;&gt;Node10</title>
<path fill="none" stroke="midnightblue" d="M232.9,-169.34C250.14,-148.38 284.05,-110.76 321,-89.5 329.55,-84.58 339.14,-80.56 348.72,-77.3"/>
<polygon fill="midnightblue" stroke="midnightblue" points="349.79,-80.64 358.27,-74.29 347.68,-73.96 349.79,-80.64"/>
</g>
<!-- Node6&#45;&gt;Node12 -->
<g id="edge15" class="edge">
<title>Node6&#45;&gt;Node12</title>
<path fill="none" stroke="midnightblue" d="M230.63,-169.33C253.16,-133.99 308.4,-48.5 321,-39.5 325.82,-36.06 331.12,-33.1 336.65,-30.57"/>
<polygon fill="midnightblue" stroke="midnightblue" points="338.19,-33.73 346.12,-26.71 335.54,-27.25 338.19,-33.73"/>
</g>
<!-- Node8 -->
<g id="node8" class="node">
<title>Node8</title>
<g id="a_node8"><a xlink:href="../../d0/d6e/namespaceautomaton_1_1tools_1_1miner.html#a05909e124eb3ea47b74479125c710527" target="_top" xlink:title=" ">
<polygon fill="white" stroke="black" points="544.5,-147.5 544.5,-177.5 660.5,-177.5 660.5,-147.5 544.5,-147.5"/>
<text text-anchor="start" x="552.5" y="-165.5" font-family="Helvetica,sans-Serif" font-size="10.00">automaton::tools::miner</text>
<text text-anchor="middle" x="602.5" y="-154.5" font-family="Helvetica,sans-Serif" font-size="10.00">::sign</text>
</a>
</g>
</g>
<!-- Node7&#45;&gt;Node8 -->
<g id="edge10" class="edge">
<title>Node7&#45;&gt;Node8</title>
<path fill="none" stroke="midnightblue" d="M467.19,-162.5C488.35,-162.5 512.39,-162.5 534.22,-162.5"/>
<polygon fill="midnightblue" stroke="midnightblue" points="534.41,-166 544.41,-162.5 534.41,-159 534.41,-166"/>
</g>
<!-- Node11 -->
<g id="node11" class="node">
<title>Node11</title>
<g id="a_node11"><a xlink:href="../../da/dd5/namespaceautomaton_1_1core_1_1io.html#abe415d62b91abcbae08337eb7a6c65de" target="_top" xlink:title=" ">
<polygon fill="white" stroke="black" points="553.5,-49.5 553.5,-79.5 651.5,-79.5 651.5,-49.5 553.5,-49.5"/>
<text text-anchor="start" x="561.5" y="-67.5" font-family="Helvetica,sans-Serif" font-size="10.00">automaton::core::io</text>
<text text-anchor="middle" x="602.5" y="-56.5" font-family="Helvetica,sans-Serif" font-size="10.00">::hex2nibble</text>
</a>
</g>
</g>
<!-- Node10&#45;&gt;Node11 -->
<g id="edge14" class="edge">
<title>Node10&#45;&gt;Node11</title>
<path fill="none" stroke="midnightblue" d="M456.7,-64.5C482.84,-64.5 515.35,-64.5 542.93,-64.5"/>
<polygon fill="midnightblue" stroke="midnightblue" points="543.24,-68 553.24,-64.5 543.24,-61 543.24,-68"/>
</g>
</g>
</svg>
