<?xml version="1.0" encoding="UTF-8" standalone="no"?>
<!DOCTYPE svg PUBLIC "-//W3C//DTD SVG 1.1//EN"
 "http://www.w3.org/Graphics/SVG/1.1/DTD/svg11.dtd">
<!-- Generated by graphviz version 2.42.3 ()
 -->
<!-- Title: automaton::core::interop::ethereum::eth_gasPrice Pages: 1 -->
<svg width="630pt" height="148pt"
 viewBox="0.00 0.00 630.00 147.50" xmlns="http://www.w3.org/2000/svg" xmlns:xlink="http://www.w3.org/1999/xlink">
<g id="graph0" class="graph" transform="scale(1 1) rotate(0) translate(4 143.5)">
<title>automaton::core::interop::ethereum::eth_gasPrice</title>
<polygon fill="white" stroke="transparent" points="-4,4 -4,-143.5 626,-143.5 626,4 -4,4"/>
<!-- Node1 -->
<g id="node1" class="node">
<title>Node1</title>
<g id="a_node1"><a xlink:title=" ">
<polygon fill="#bfbfbf" stroke="black" points="0,-49.5 0,-79.5 123,-79.5 123,-49.5 0,-49.5"/>
<text text-anchor="start" x="8" y="-67.5" font-family="Helvetica,sans-Serif" font-size="10.00">automaton::core::interop</text>
<text text-anchor="middle" x="61.5" y="-56.5" font-family="Helvetica,sans-Serif" font-size="10.00">::ethereum::eth_gasPrice</text>
</a>
</g>
</g>
<!-- Node2 -->
<g id="node2" class="node">
<title>Node2</title>
<g id="a_node2"><a xlink:href="../../d2/d91/namespaceautomaton_1_1core_1_1interop_1_1ethereum.html#ac9333e6d163be21216a871b3e71d207e" target="_top" xlink:title=" ">
<polygon fill="white" stroke="black" points="159,-49.5 159,-79.5 278,-79.5 278,-49.5 159,-49.5"/>
<text text-anchor="start" x="167" y="-67.5" font-family="Helvetica,sans-Serif" font-size="10.00">automaton::core::interop</text>
<text text-anchor="middle" x="218.5" y="-56.5" font-family="Helvetica,sans-Serif" font-size="10.00">::ethereum::curl_post</text>
</a>
</g>
</g>
<!-- Node1&#45;&gt;Node2 -->
<g id="edge1" class="edge">
<title>Node1&#45;&gt;Node2</title>
<path fill="none" stroke="midnightblue" d="M123.32,-64.5C131.64,-64.5 140.23,-64.5 148.68,-64.5"/>
<polygon fill="midnightblue" stroke="midnightblue" points="148.89,-68 158.89,-64.5 148.89,-61 148.89,-68"/>
</g>
<!-- Node3 -->
<g id="node3" class="node">
<title>Node3</title>
<g id="a_node3"><a xlink:href="../../d2/d91/namespaceautomaton_1_1core_1_1interop_1_1ethereum.html#a02017dd8cf8adba262ceb26e0163a64f" target="_top" xlink:title=" ">
<polygon fill="white" stroke="black" points="329,-98 329,-139 448,-139 448,-98 329,-98"/>
<text text-anchor="start" x="337" y="-127" font-family="Helvetica,sans-Serif" font-size="10.00">automaton::core::interop</text>
<text text-anchor="start" x="337" y="-116" font-family="Helvetica,sans-Serif" font-size="10.00">::ethereum::create_new</text>
<text text-anchor="middle" x="388.5" y="-105" font-family="Helvetica,sans-Serif" font-size="10.00">_curl_struct</text>
</a>
</g>
</g>
<!-- Node2&#45;&gt;Node3 -->
<g id="edge2" class="edge">
<title>Node2&#45;&gt;Node3</title>
<path fill="none" stroke="midnightblue" d="M266.3,-79.54C282.68,-84.81 301.43,-90.84 319.21,-96.55"/>
<polygon fill="midnightblue" stroke="midnightblue" points="318.37,-99.96 328.96,-99.68 320.51,-93.29 318.37,-99.96"/>
</g>
<!-- Node5 -->
<g id="node5" class="node">
<title>Node5</title>
<g id="a_node5"><a xlink:href="../../d2/d91/namespaceautomaton_1_1core_1_1interop_1_1ethereum.html#ae95b2c75f0c9cacbf478ae3043f12aa6" target="_top" xlink:title=" ">
<polygon fill="white" stroke="black" points="314,-49.5 314,-79.5 463,-79.5 463,-49.5 314,-49.5"/>
<text text-anchor="start" x="322" y="-67.5" font-family="Helvetica,sans-Serif" font-size="10.00">automaton::core::interop</text>
<text text-anchor="middle" x="388.5" y="-56.5" font-family="Helvetica,sans-Serif" font-size="10.00">::ethereum::destroy_curl_struct</text>
</a>
</g>
</g>
<!-- Node2&#45;&gt;Node5 -->
<g id="edge4" class="edge">
<title>Node2&#45;&gt;Node5</title>
<path fill="none" stroke="midnightblue" d="M278.26,-64.5C286.49,-64.5 295.07,-64.5 303.66,-64.5"/>
<polygon fill="midnightblue" stroke="midnightblue" points="303.71,-68 313.71,-64.5 303.71,-61 303.71,-68"/>
</g>
<!-- Node6 -->
<g id="node6" class="node">
<title>Node6</title>
<g id="a_node6"><a xlink:href="../../d2/d91/namespaceautomaton_1_1core_1_1interop_1_1ethereum.html#aa85f9628d62873487fe0171a1554a1e4" target="_top" xlink:title=" ">
<polygon fill="white" stroke="black" points="326.5,-0.5 326.5,-30.5 450.5,-30.5 450.5,-0.5 326.5,-0.5"/>
<text text-anchor="start" x="334.5" y="-18.5" font-family="Helvetica,sans-Serif" font-size="10.00">automaton::core::interop</text>
<text text-anchor="middle" x="388.5" y="-7.5" font-family="Helvetica,sans-Serif" font-size="10.00">::ethereum::handle_result</text>
</a>
</g>
</g>
<!-- Node2&#45;&gt;Node6 -->
<g id="edge5" class="edge">
<title>Node2&#45;&gt;Node6</title>
<path fill="none" stroke="midnightblue" d="M271.28,-49.4C288.6,-44.34 308.09,-38.66 326.08,-33.42"/>
<polygon fill="midnightblue" stroke="midnightblue" points="327.27,-36.71 335.89,-30.55 325.31,-29.99 327.27,-36.71"/>
</g>
<!-- Node4 -->
<g id="node4" class="node">
<title>Node4</title>
<g id="a_node4"><a xlink:href="../../d2/d91/namespaceautomaton_1_1core_1_1interop_1_1ethereum.html#aa0f8322feba45dd6e4110c92397b2732" target="_top" xlink:title=" ">
<polygon fill="white" stroke="black" points="499,-103.5 499,-133.5 622,-133.5 622,-103.5 499,-103.5"/>
<text text-anchor="start" x="507" y="-121.5" font-family="Helvetica,sans-Serif" font-size="10.00">automaton::core::interop</text>
<text text-anchor="middle" x="560.5" y="-110.5" font-family="Helvetica,sans-Serif" font-size="10.00">::ethereum::curl_callback</text>
</a>
</g>
</g>
<!-- Node3&#45;&gt;Node4 -->
<g id="edge3" class="edge">
<title>Node3&#45;&gt;Node4</title>
<path fill="none" stroke="midnightblue" d="M448,-118.5C461.09,-118.5 475.11,-118.5 488.64,-118.5"/>
<polygon fill="midnightblue" stroke="midnightblue" points="488.86,-122 498.86,-118.5 488.86,-115 488.86,-122"/>
</g>
</g>
</svg>
