<?xml version="1.0" encoding="UTF-8" standalone="no"?>
<!DOCTYPE svg PUBLIC "-//W3C//DTD SVG 1.1//EN"
 "http://www.w3.org/Graphics/SVG/1.1/DTD/svg11.dtd">
<!-- Generated by graphviz version 2.44.0 ()
 -->
<!-- Title: automaton::core::interop::ethereum::extract_array_type Pages: 1 -->
<svg width="820pt" height="165pt"
 viewBox="0.00 0.00 820.00 165.00" xmlns="http://www.w3.org/2000/svg" xmlns:xlink="http://www.w3.org/1999/xlink">
<g id="graph0" class="graph" transform="scale(1 1) rotate(0) translate(4 161)">
<title>automaton::core::interop::ethereum::extract_array_type</title>
<polygon fill="white" stroke="transparent" points="-4,4 -4,-161 816,-161 816,4 -4,4"/>
<!-- Node1 -->
<g id="node1" class="node">
<title>Node1</title>
<g id="a_node1"><a xlink:title=" ">
<polygon fill="#bfbfbf" stroke="black" points="667,-72.5 667,-102.5 812,-102.5 812,-72.5 667,-72.5"/>
<text text-anchor="start" x="675" y="-90.5" font-family="Helvetica,sans-Serif" font-size="10.00">automaton::core::interop</text>
<text text-anchor="middle" x="739.5" y="-79.5" font-family="Helvetica,sans-Serif" font-size="10.00">::ethereum::extract_array_type</text>
</a>
</g>
</g>
<!-- Node2 -->
<g id="node2" class="node">
<title>Node2</title>
<g id="a_node2"><a xlink:href="../../d2/d91/namespaceautomaton_1_1core_1_1interop_1_1ethereum.html#aa50eed459424657a958f1de0e7668bea" target="_top" xlink:title=" ">
<polygon fill="white" stroke="black" points="497,-72.5 497,-102.5 631,-102.5 631,-72.5 497,-72.5"/>
<text text-anchor="start" x="505" y="-90.5" font-family="Helvetica,sans-Serif" font-size="10.00">automaton::core::interop</text>
<text text-anchor="middle" x="564" y="-79.5" font-family="Helvetica,sans-Serif" font-size="10.00">::ethereum::calculate_offset</text>
</a>
</g>
</g>
<!-- Node1&#45;&gt;Node2 -->
<g id="edge1" class="edge">
<title>Node1&#45;&gt;Node2</title>
<path fill="none" stroke="midnightblue" d="M656.85,-87.5C648.23,-87.5 639.54,-87.5 631.12,-87.5"/>
<polygon fill="midnightblue" stroke="midnightblue" points="656.93,-91 666.93,-87.5 656.93,-84 656.93,-91"/>
</g>
<!-- Node4 -->
<g id="node4" class="node">
<title>Node4</title>
<g id="a_node4"><a xlink:href="../../d2/d91/namespaceautomaton_1_1core_1_1interop_1_1ethereum.html#a55009f57edd69b295860a7b8b685ab2b" target="_top" xlink:title=" ">
<polygon fill="white" stroke="black" points="331,-126.5 331,-156.5 461,-156.5 461,-126.5 331,-126.5"/>
<text text-anchor="start" x="339" y="-144.5" font-family="Helvetica,sans-Serif" font-size="10.00">automaton::core::interop</text>
<text text-anchor="middle" x="396" y="-133.5" font-family="Helvetica,sans-Serif" font-size="10.00">::ethereum::decode_param</text>
</a>
</g>
</g>
<!-- Node1&#45;&gt;Node4 -->
<g id="edge9" class="edge">
<title>Node1&#45;&gt;Node4</title>
<path fill="none" stroke="midnightblue" d="M665.56,-104.73C654.03,-107.18 642.22,-109.53 631,-111.5 573.82,-121.53 508.21,-129.65 461.05,-134.9"/>
<polygon fill="midnightblue" stroke="midnightblue" points="666.56,-108.1 675.6,-102.56 665.08,-101.26 666.56,-108.1"/>
</g>
<!-- Node7 -->
<g id="node7" class="node">
<title>Node7</title>
<g id="a_node7"><a xlink:href="../../d2/d91/namespaceautomaton_1_1core_1_1interop_1_1ethereum.html#a1785a882c65e47ef40d0587235f82275" target="_top" xlink:title=" ">
<polygon fill="white" stroke="black" points="331,-0.5 331,-30.5 461,-30.5 461,-0.5 331,-0.5"/>
<text text-anchor="start" x="339" y="-18.5" font-family="Helvetica,sans-Serif" font-size="10.00">automaton::core::interop</text>
<text text-anchor="middle" x="396" y="-7.5" font-family="Helvetica,sans-Serif" font-size="10.00">::ethereum::encode_param</text>
</a>
</g>
</g>
<!-- Node1&#45;&gt;Node7 -->
<g id="edge10" class="edge">
<title>Node1&#45;&gt;Node7</title>
<path fill="none" stroke="midnightblue" d="M665.22,-70.15C653.78,-67.53 642.08,-64.9 631,-62.5 573.7,-50.09 508.25,-37.04 461.17,-27.85"/>
<polygon fill="midnightblue" stroke="midnightblue" points="664.66,-73.61 675.19,-72.44 666.23,-66.79 664.66,-73.61"/>
</g>
<!-- Node3 -->
<g id="node3" class="node">
<title>Node3</title>
<g id="a_node3"><a xlink:href="../../d2/d91/namespaceautomaton_1_1core_1_1interop_1_1ethereum.html#abbec3fe45e7b6c13c5d534e5dfc4543b" target="_top" xlink:title=" ">
<polygon fill="white" stroke="black" points="176,-95.5 176,-125.5 295,-125.5 295,-95.5 176,-95.5"/>
<text text-anchor="start" x="184" y="-113.5" font-family="Helvetica,sans-Serif" font-size="10.00">automaton::core::interop</text>
<text text-anchor="middle" x="235.5" y="-102.5" font-family="Helvetica,sans-Serif" font-size="10.00">::ethereum::decode</text>
</a>
</g>
</g>
<!-- Node2&#45;&gt;Node3 -->
<g id="edge2" class="edge">
<title>Node2&#45;&gt;Node3</title>
<path fill="none" stroke="midnightblue" d="M486.63,-92.88C428.12,-97 348.62,-102.6 295.08,-106.37"/>
<polygon fill="midnightblue" stroke="midnightblue" points="487.2,-96.35 496.93,-92.15 486.71,-89.37 487.2,-96.35"/>
</g>
<!-- Node2&#45;&gt;Node4 -->
<g id="edge3" class="edge">
<title>Node2&#45;&gt;Node4</title>
<path fill="none" stroke="midnightblue" d="M507.12,-105.68C486.37,-112.43 463.08,-120 443.28,-126.45"/>
<polygon fill="midnightblue" stroke="midnightblue" points="508.33,-108.96 516.76,-102.54 506.17,-102.31 508.33,-108.96"/>
</g>
<!-- Node5 -->
<g id="node5" class="node">
<title>Node5</title>
<g id="a_node5"><a xlink:href="../../d2/d91/namespaceautomaton_1_1core_1_1interop_1_1ethereum.html#a47ab7911ff4d29153e849da3691c26b6" target="_top" xlink:title=" ">
<polygon fill="white" stroke="black" points="176,-30.5 176,-60.5 295,-60.5 295,-30.5 176,-30.5"/>
<text text-anchor="start" x="184" y="-48.5" font-family="Helvetica,sans-Serif" font-size="10.00">automaton::core::interop</text>
<text text-anchor="middle" x="235.5" y="-37.5" font-family="Helvetica,sans-Serif" font-size="10.00">::ethereum::encode</text>
</a>
</g>
</g>
<!-- Node2&#45;&gt;Node5 -->
<g id="edge5" class="edge">
<title>Node2&#45;&gt;Node5</title>
<path fill="none" stroke="midnightblue" d="M486.99,-77.72C428.45,-70.19 348.73,-59.94 295.08,-53.04"/>
<polygon fill="midnightblue" stroke="midnightblue" points="486.56,-81.2 496.93,-79 487.46,-74.25 486.56,-81.2"/>
</g>
<!-- Node2&#45;&gt;Node7 -->
<g id="edge7" class="edge">
<title>Node2&#45;&gt;Node7</title>
<path fill="none" stroke="midnightblue" d="M518.88,-68.36C491.6,-56.53 457.09,-41.56 431.75,-30.57"/>
<polygon fill="midnightblue" stroke="midnightblue" points="517.63,-71.64 528.2,-72.41 520.42,-65.22 517.63,-71.64"/>
</g>
<!-- Node4&#45;&gt;Node3 -->
<g id="edge4" class="edge">
<title>Node4&#45;&gt;Node3</title>
<path fill="none" stroke="midnightblue" d="M320.9,-127.01C312.25,-125.32 303.52,-123.61 295.12,-121.96"/>
<polygon fill="midnightblue" stroke="midnightblue" points="320.5,-130.5 330.99,-128.98 321.85,-123.63 320.5,-130.5"/>
</g>
<!-- Node6 -->
<g id="node6" class="node">
<title>Node6</title>
<g id="a_node6"><a xlink:href="../../d4/de7/classautomaton_1_1core_1_1interop_1_1ethereum_1_1eth__contract.html#a06c060597ef2f9c3255fa00e8b716460" target="_top" xlink:title=" ">
<polygon fill="white" stroke="black" points="0,-30.5 0,-60.5 140,-60.5 140,-30.5 0,-30.5"/>
<text text-anchor="start" x="8" y="-48.5" font-family="Helvetica,sans-Serif" font-size="10.00">automaton::core::interop</text>
<text text-anchor="middle" x="70" y="-37.5" font-family="Helvetica,sans-Serif" font-size="10.00">::ethereum::eth_contract::call</text>
</a>
</g>
</g>
<!-- Node5&#45;&gt;Node6 -->
<g id="edge6" class="edge">
<title>Node5&#45;&gt;Node6</title>
<path fill="none" stroke="midnightblue" d="M165.7,-45.5C157.21,-45.5 148.52,-45.5 140.03,-45.5"/>
<polygon fill="midnightblue" stroke="midnightblue" points="165.93,-49 175.93,-45.5 165.93,-42 165.93,-49"/>
</g>
<!-- Node7&#45;&gt;Node5 -->
<g id="edge8" class="edge">
<title>Node7&#45;&gt;Node5</title>
<path fill="none" stroke="midnightblue" d="M320.9,-29.53C312.25,-31.16 303.52,-32.82 295.12,-34.41"/>
<polygon fill="midnightblue" stroke="midnightblue" points="321.81,-32.91 330.99,-27.62 320.51,-26.04 321.81,-32.91"/>
</g>
</g>
</svg>
