<?xml version="1.0" encoding="UTF-8" standalone="no"?>
<!DOCTYPE svg PUBLIC "-//W3C//DTD SVG 1.1//EN"
 "http://www.w3.org/Graphics/SVG/1.1/DTD/svg11.dtd">
<!-- Generated by graphviz version 2.42.3 ()
 -->
<!-- Title: automaton::core::interop::ethereum::secp256k1_sign_and_verify Pages: 1 -->
<svg width="318pt" height="88pt"
 viewBox="0.00 0.00 318.00 88.00" xmlns="http://www.w3.org/2000/svg" xmlns:xlink="http://www.w3.org/1999/xlink">
<g id="graph0" class="graph" transform="scale(1 1) rotate(0) translate(4 84)">
<title>automaton::core::interop::ethereum::secp256k1_sign_and_verify</title>
<polygon fill="white" stroke="transparent" points="-4,4 -4,-84 314,-84 314,4 -4,4"/>
<!-- Node1 -->
<g id="node1" class="node">
<title>Node1</title>
<g id="a_node1"><a xlink:title=" ">
<polygon fill="#bfbfbf" stroke="black" points="0,-19 0,-60 137,-60 137,-19 0,-19"/>
<text text-anchor="start" x="8" y="-48" font-family="Helvetica,sans-Serif" font-size="10.00">automaton::core::interop</text>
<text text-anchor="start" x="8" y="-37" font-family="Helvetica,sans-Serif" font-size="10.00">::ethereum::secp256k1_sign</text>
<text text-anchor="middle" x="68.5" y="-26" font-family="Helvetica,sans-Serif" font-size="10.00">_and_verify</text>
</a>
</g>
</g>
<!-- Node2 -->
<g id="node2" class="node">
<title>Node2</title>
<g id="a_node2"><a xlink:href="../../da/dd5/namespaceautomaton_1_1core_1_1io.html#ab19202c80dffefe2cd1a87a60d06a0b3" target="_top" xlink:title=" ">
<polygon fill="white" stroke="black" points="192.5,-49.5 192.5,-79.5 290.5,-79.5 290.5,-49.5 192.5,-49.5"/>
<text text-anchor="start" x="200.5" y="-67.5" font-family="Helvetica,sans-Serif" font-size="10.00">automaton::core::io</text>
<text text-anchor="middle" x="241.5" y="-56.5" font-family="Helvetica,sans-Serif" font-size="10.00">::bin2hex</text>
</a>
</g>
</g>
<!-- Node1&#45;&gt;Node2 -->
<g id="edge1" class="edge">
<title>Node1&#45;&gt;Node2</title>
<path fill="none" stroke="midnightblue" d="M137.08,-49.38C151.96,-51.56 167.59,-53.84 182.07,-55.96"/>
<polygon fill="midnightblue" stroke="midnightblue" points="181.98,-59.48 192.38,-57.46 182.99,-52.55 181.98,-59.48"/>
</g>
<!-- Node3 -->
<g id="node3" class="node">
<title>Node3</title>
<g id="a_node3"><a xlink:href="../../d2/d91/namespaceautomaton_1_1core_1_1interop_1_1ethereum.html#ac212afafb4fcf10be423050f7c012d58" target="_top" xlink:title=" ">
<polygon fill="white" stroke="black" points="173,-0.5 173,-30.5 310,-30.5 310,-0.5 173,-0.5"/>
<text text-anchor="start" x="181" y="-18.5" font-family="Helvetica,sans-Serif" font-size="10.00">automaton::core::interop</text>
<text text-anchor="middle" x="241.5" y="-7.5" font-family="Helvetica,sans-Serif" font-size="10.00">::ethereum::secp256k1_sign</text>
</a>
</g>
</g>
<!-- Node1&#45;&gt;Node3 -->
<g id="edge2" class="edge">
<title>Node1&#45;&gt;Node3</title>
<path fill="none" stroke="midnightblue" d="M137.08,-30.01C145.54,-28.83 154.24,-27.61 162.83,-26.4"/>
<polygon fill="midnightblue" stroke="midnightblue" points="163.43,-29.85 172.85,-25 162.46,-22.92 163.43,-29.85"/>
</g>
</g>
</svg>
