<?xml version="1.0" encoding="UTF-8" standalone="no"?>
<!DOCTYPE svg PUBLIC "-//W3C//DTD SVG 1.1//EN"
 "http://www.w3.org/Graphics/SVG/1.1/DTD/svg11.dtd">
<!-- Generated by graphviz version 2.42.3 ()
 -->
<!-- Title: automaton::core::interop::ethereum::curl_callback Pages: 1 -->
<!--zoomable 279 -->
<svg id="main" version="1.1" xmlns="http://www.w3.org/2000/svg" xmlns:xlink="http://www.w3.org/1999/xlink" xml:space="preserve" onload="init(evt)">
<style type="text/css"><![CDATA[
.edge:hover path { stroke: red; }
.edge:hover polygon { stroke: red; fill: red; }
]]></style>
<script type="text/javascript"><![CDATA[
var edges = document.getElementsByTagName('g');
if (edges && edges.length) {
  for (var i=0;i<edges.length;i++) {
    if (edges[i].id.substr(0,4)=='edge') {
      edges[i].setAttribute('class','edge');
    }
  }
}
]]></script>
        <defs>
                <circle id="rim" cx="0" cy="0" r="7"/>
                <circle id="rim2" cx="0" cy="0" r="3.5"/>
                <g id="zoomPlus">
                        <use xlink:href="#rim" fill="#404040">
                                <set attributeName="fill" to="#808080" begin="zoomplus.mouseover" end="zoomplus.mouseout"/>
                        </use>
                        <path d="M-4,0h8M0,-4v8" fill="none" stroke="white" stroke-width="1.5" pointer-events="none"/>
                </g>
                <g id="zoomMin">
                        <use xlink:href="#rim" fill="#404040">
                                <set attributeName="fill" to="#808080" begin="zoomminus.mouseover" end="zoomminus.mouseout"/>
                        </use>
                        <path d="M-4,0h8" fill="none" stroke="white" stroke-width="1.5" pointer-events="none"/>
                </g>
                <g id="dirArrow">
                        <path fill="none" stroke="white" stroke-width="1.5" d="M0,-3.0v7 M-2.5,-0.5L0,-3.0L2.5,-0.5"/>
                </g>
               <g id="resetDef">
                       <use xlink:href="#rim2" fill="#404040">
                               <set attributeName="fill" to="#808080" begin="reset.mouseover" end="reset.mouseout"/>
                       </use>
               </g>
        </defs>

<script type="text/javascript">
var viewWidth = 1068;
var viewHeight = 279;
var sectionId = 'dynsection-5';
</script>
<script xlink:href="../../svgpan.js"/>
<svg id="graph" class="graph">
<g id="viewport">
<title>automaton::core::interop::ethereum::curl_callback</title>
<polygon fill="white" stroke="transparent" points="-4,4 -4,-274.71 1064,-274.71 1064,4 -4,4"/>
<!-- Node1 -->
<g id="node1" class="node">
<title>Node1</title>
<g id="a_node1"><a xlink:title=" ">
<polygon fill="#bfbfbf" stroke="black" points="937,-120.5 937,-150.5 1060,-150.5 1060,-120.5 937,-120.5"/>
<text text-anchor="start" x="945" y="-138.5" font-family="Helvetica,sans-Serif" font-size="10.00">automaton::core::interop</text>
<text text-anchor="middle" x="998.5" y="-127.5" font-family="Helvetica,sans-Serif" font-size="10.00">::ethereum::curl_callback</text>
</a>
</g>
</g>
<!-- Node2 -->
<g id="node2" class="node">
<title>Node2</title>
<g id="a_node2"><a xlink:href="../../d2/d91/namespaceautomaton_1_1core_1_1interop_1_1ethereum.html#a02017dd8cf8adba262ceb26e0163a64f" target="_top" xlink:title=" ">
<polygon fill="white" stroke="black" points="782,-115 782,-156 901,-156 901,-115 782,-115"/>
<text text-anchor="start" x="790" y="-144" font-family="Helvetica,sans-Serif" font-size="10.00">automaton::core::interop</text>
<text text-anchor="start" x="790" y="-133" font-family="Helvetica,sans-Serif" font-size="10.00">::ethereum::create_new</text>
<text text-anchor="middle" x="841.5" y="-122" font-family="Helvetica,sans-Serif" font-size="10.00">_curl_struct</text>
</a>
</g>
</g>
<!-- Node1&#45;&gt;Node2 -->
<g id="edge1" class="edge">
<title>Node1&#45;&gt;Node2</title>
<path fill="none" stroke="midnightblue" d="M926.43,-135.5C917.96,-135.5 909.38,-135.5 901.11,-135.5"/>
<polygon fill="midnightblue" stroke="midnightblue" points="926.68,-139 936.68,-135.5 926.68,-132 926.68,-139"/>
</g>
<!-- Node3 -->
<g id="node3" class="node">
<title>Node3</title>
<g id="a_node3"><a xlink:href="../../d2/d91/namespaceautomaton_1_1core_1_1interop_1_1ethereum.html#ac9333e6d163be21216a871b3e71d207e" target="_top" xlink:title=" ">
<polygon fill="white" stroke="black" points="627,-120.5 627,-150.5 746,-150.5 746,-120.5 627,-120.5"/>
<text text-anchor="start" x="635" y="-138.5" font-family="Helvetica,sans-Serif" font-size="10.00">automaton::core::interop</text>
<text text-anchor="middle" x="686.5" y="-127.5" font-family="Helvetica,sans-Serif" font-size="10.00">::ethereum::curl_post</text>
</a>
</g>
</g>
<!-- Node2&#45;&gt;Node3 -->
<g id="edge2" class="edge">
<title>Node2&#45;&gt;Node3</title>
<path fill="none" stroke="midnightblue" d="M771.51,-135.5C763.01,-135.5 754.38,-135.5 746.06,-135.5"/>
<polygon fill="midnightblue" stroke="midnightblue" points="771.78,-139 781.78,-135.5 771.78,-132 771.78,-139"/>
</g>
<!-- Node4 -->
<g id="node4" class="node">
<title>Node4</title>
<g id="a_node4"><a xlink:href="../../d4/de7/classautomaton_1_1core_1_1interop_1_1ethereum_1_1eth__contract.html#a06c060597ef2f9c3255fa00e8b716460" target="_top" xlink:title=" ">
<polygon fill="white" stroke="black" points="248.5,-112.5 248.5,-142.5 388.5,-142.5 388.5,-112.5 248.5,-112.5"/>
<text text-anchor="start" x="256.5" y="-130.5" font-family="Helvetica,sans-Serif" font-size="10.00">automaton::core::interop</text>
<text text-anchor="middle" x="318.5" y="-119.5" font-family="Helvetica,sans-Serif" font-size="10.00">::ethereum::eth_contract::call</text>
</a>
</g>
</g>
<!-- Node3&#45;&gt;Node4 -->
<g id="edge3" class="edge">
<title>Node3&#45;&gt;Node4</title>
<path fill="none" stroke="midnightblue" d="M656.61,-156.41C638.69,-168.07 614.63,-181.43 591,-187.5 526.86,-203.98 505.01,-207.87 442,-187.5 423.22,-181.43 423.32,-170.96 406,-161.5 392.83,-154.31 377.81,-147.85 364.03,-142.55"/>
<polygon fill="midnightblue" stroke="midnightblue" points="659.04,-159 665.39,-150.52 655.14,-153.18 659.04,-159"/>
</g>
<!-- Node5 -->
<g id="node5" class="node">
<title>Node5</title>
<g id="a_node5"><a xlink:href="../../d2/d91/namespaceautomaton_1_1core_1_1interop_1_1ethereum.html#af94c20cb01294d2784980377da7684c1" target="_top" xlink:title=" ">
<polygon fill="white" stroke="black" points="455,-235.5 455,-265.5 578,-265.5 578,-235.5 455,-235.5"/>
<text text-anchor="start" x="463" y="-253.5" font-family="Helvetica,sans-Serif" font-size="10.00">automaton::core::interop</text>
<text text-anchor="middle" x="516.5" y="-242.5" font-family="Helvetica,sans-Serif" font-size="10.00">::ethereum::eth_gasPrice</text>
</a>
</g>
</g>
<!-- Node3&#45;&gt;Node5 -->
<g id="edge4" class="edge">
<title>Node3&#45;&gt;Node5</title>
<path fill="none" stroke="midnightblue" d="M664.6,-158.25C646.53,-176.89 618.97,-202.96 591,-220.5 581.89,-226.21 571.51,-231.23 561.48,-235.44"/>
<polygon fill="midnightblue" stroke="midnightblue" points="667.37,-160.41 671.74,-150.76 662.3,-155.58 667.37,-160.41"/>
</g>
<!-- Node9 -->
<g id="node9" class="node">
<title>Node9</title>
<g id="a_node9"><a xlink:href="../../d2/d91/namespaceautomaton_1_1core_1_1interop_1_1ethereum.html#a4e5f4572be73045ce966df1fa0e53d1b" target="_top" xlink:title=" ">
<polygon fill="white" stroke="black" points="449.5,-147.5 449.5,-177.5 583.5,-177.5 583.5,-147.5 449.5,-147.5"/>
<text text-anchor="start" x="457.5" y="-165.5" font-family="Helvetica,sans-Serif" font-size="10.00">automaton::core::interop</text>
<text text-anchor="middle" x="516.5" y="-154.5" font-family="Helvetica,sans-Serif" font-size="10.00">::ethereum::eth_getBalance</text>
</a>
</g>
</g>
<!-- Node3&#45;&gt;Node9 -->
<g id="edge9" class="edge">
<title>Node3&#45;&gt;Node9</title>
<path fill="none" stroke="midnightblue" d="M616.82,-146.54C605.87,-148.3 594.57,-150.11 583.69,-151.86"/>
<polygon fill="midnightblue" stroke="midnightblue" points="617.42,-149.99 626.74,-144.94 616.31,-143.07 617.42,-149.99"/>
</g>
<!-- Node10 -->
<g id="node10" class="node">
<title>Node10</title>
<g id="a_node10"><a xlink:href="../../d2/d91/namespaceautomaton_1_1core_1_1interop_1_1ethereum.html#aba0ff0eafb720e87750796f5d18727a6" target="_top" xlink:title=" ">
<polygon fill="white" stroke="black" points="74,-101.5 74,-131.5 195,-131.5 195,-101.5 74,-101.5"/>
<text text-anchor="start" x="82" y="-119.5" font-family="Helvetica,sans-Serif" font-size="10.00">automaton::core::interop</text>
<text text-anchor="middle" x="134.5" y="-108.5" font-family="Helvetica,sans-Serif" font-size="10.00">::ethereum::eth_getCode</text>
</a>
</g>
</g>
<!-- Node3&#45;&gt;Node10 -->
<g id="edge10" class="edge">
<title>Node3&#45;&gt;Node10</title>
<path fill="none" stroke="midnightblue" d="M659.13,-114.21C641.12,-101.08 616.06,-85.47 591,-78.5 447.27,-38.51 268.99,-77.75 184.42,-101.42"/>
<polygon fill="midnightblue" stroke="midnightblue" points="657.28,-117.19 667.38,-120.4 661.49,-111.6 657.28,-117.19"/>
</g>
<!-- Node11 -->
<g id="node11" class="node">
<title>Node11</title>
<g id="a_node11"><a xlink:href="../../d2/d91/namespaceautomaton_1_1core_1_1interop_1_1ethereum.html#af71a43bad614554041a0bbc70f5fcdea" target="_top" xlink:title=" ">
<polygon fill="white" stroke="black" points="231,-0.5 231,-30.5 406,-30.5 406,-0.5 231,-0.5"/>
<text text-anchor="start" x="239" y="-18.5" font-family="Helvetica,sans-Serif" font-size="10.00">automaton::core::interop</text>
<text text-anchor="middle" x="318.5" y="-7.5" font-family="Helvetica,sans-Serif" font-size="10.00">::ethereum::eth_getTransactionCount</text>
</a>
</g>
</g>
<!-- Node3&#45;&gt;Node11 -->
<g id="edge12" class="edge">
<title>Node3&#45;&gt;Node11</title>
<path fill="none" stroke="midnightblue" d="M668.55,-112.32C651.54,-91.01 623.28,-60.52 591,-45.5 533.28,-18.64 461.43,-11.7 406.15,-11.18"/>
<polygon fill="midnightblue" stroke="midnightblue" points="665.82,-114.51 674.71,-120.26 671.35,-110.22 665.82,-114.51"/>
</g>
<!-- Node12 -->
<g id="node12" class="node">
<title>Node12</title>
<g id="a_node12"><a xlink:href="../../d2/d91/namespaceautomaton_1_1core_1_1interop_1_1ethereum.html#aeec254eba111b5daca0926c13c5e40bd" target="_top" xlink:title=" ">
<polygon fill="white" stroke="black" points="442,-88 442,-129 591,-129 591,-88 442,-88"/>
<text text-anchor="start" x="450" y="-117" font-family="Helvetica,sans-Serif" font-size="10.00">automaton::core::interop</text>
<text text-anchor="start" x="450" y="-106" font-family="Helvetica,sans-Serif" font-size="10.00">::ethereum::eth_getTransaction</text>
<text text-anchor="middle" x="516.5" y="-95" font-family="Helvetica,sans-Serif" font-size="10.00">Receipt</text>
</a>
</g>
</g>
<!-- Node3&#45;&gt;Node12 -->
<g id="edge14" class="edge">
<title>Node3&#45;&gt;Node12</title>
<path fill="none" stroke="midnightblue" d="M616.66,-124.44C608.3,-123.09 599.72,-121.71 591.29,-120.36"/>
<polygon fill="midnightblue" stroke="midnightblue" points="616.31,-127.93 626.74,-126.06 617.42,-121.01 616.31,-127.93"/>
</g>
<!-- Node6 -->
<g id="node6" class="node">
<title>Node6</title>
<g id="a_node6"><a xlink:href="../../d4/de7/classautomaton_1_1core_1_1interop_1_1ethereum_1_1eth__contract.html#a81d2a34e602ffd01b8a9ffae5223fc96" target="_top" xlink:title=" ">
<polygon fill="white" stroke="black" points="258.5,-171 258.5,-212 378.5,-212 378.5,-171 258.5,-171"/>
<text text-anchor="start" x="266.5" y="-200" font-family="Helvetica,sans-Serif" font-size="10.00">automaton::core::interop</text>
<text text-anchor="start" x="266.5" y="-189" font-family="Helvetica,sans-Serif" font-size="10.00">::ethereum::eth_contract</text>
<text text-anchor="middle" x="318.5" y="-178" font-family="Helvetica,sans-Serif" font-size="10.00">::eth_contract</text>
</a>
</g>
</g>
<!-- Node5&#45;&gt;Node6 -->
<g id="edge5" class="edge">
<title>Node5&#45;&gt;Node6</title>
<path fill="none" stroke="midnightblue" d="M455.68,-232.49C431.28,-225.15 403.14,-216.68 378.79,-209.35"/>
<polygon fill="midnightblue" stroke="midnightblue" points="454.95,-235.93 465.53,-235.46 456.97,-229.23 454.95,-235.93"/>
</g>
<!-- Node8 -->
<g id="node8" class="node">
<title>Node8</title>
<g id="a_node8"><a xlink:href="../../d4/d57/eth__contract__curl__test_8cc.html#ae66f6b31b5ad750f1fe042a706a4e3d4" target="_top" xlink:title=" ">
<polygon fill="white" stroke="black" points="0,-134 0,-153 38,-153 38,-134 0,-134"/>
<text text-anchor="middle" x="19" y="-141" font-family="Helvetica,sans-Serif" font-size="10.00">main</text>
</a>
</g>
</g>
<!-- Node5&#45;&gt;Node8 -->
<g id="edge8" class="edge">
<title>Node5&#45;&gt;Node8</title>
<path fill="none" stroke="midnightblue" d="M444.95,-262.47C353.25,-274.36 191.03,-282.58 74,-217.5 47.73,-202.89 30.82,-169.52 23.76,-153.05"/>
<polygon fill="midnightblue" stroke="midnightblue" points="445.52,-265.93 454.96,-261.12 444.58,-258.99 445.52,-265.93"/>
</g>
<!-- Node7 -->
<g id="node7" class="node">
<title>Node7</title>
<g id="a_node7"><a xlink:href="../../d4/de7/classautomaton_1_1core_1_1interop_1_1ethereum_1_1eth__contract.html#a72da0c6073bb3fcf6aef75a2c4e96d1a" target="_top" xlink:title=" ">
<polygon fill="white" stroke="black" points="74.5,-167 74.5,-208 194.5,-208 194.5,-167 74.5,-167"/>
<text text-anchor="start" x="82.5" y="-196" font-family="Helvetica,sans-Serif" font-size="10.00">automaton::core::interop</text>
<text text-anchor="start" x="82.5" y="-185" font-family="Helvetica,sans-Serif" font-size="10.00">::ethereum::eth_contract</text>
<text text-anchor="middle" x="134.5" y="-174" font-family="Helvetica,sans-Serif" font-size="10.00">::register_contract</text>
</a>
</g>
</g>
<!-- Node6&#45;&gt;Node7 -->
<g id="edge6" class="edge">
<title>Node6&#45;&gt;Node7</title>
<path fill="none" stroke="midnightblue" d="M248.17,-189.98C230.51,-189.59 211.7,-189.17 194.6,-188.8"/>
<polygon fill="midnightblue" stroke="midnightblue" points="248.34,-193.48 258.41,-190.2 248.49,-186.48 248.34,-193.48"/>
</g>
<!-- Node7&#45;&gt;Node8 -->
<g id="edge7" class="edge">
<title>Node7&#45;&gt;Node8</title>
<path fill="none" stroke="midnightblue" d="M70.76,-163.18C58.78,-158.53 47.16,-154.03 38.07,-150.5"/>
<polygon fill="midnightblue" stroke="midnightblue" points="69.82,-166.57 80.41,-166.92 72.35,-160.04 69.82,-166.57"/>
</g>
<!-- Node10&#45;&gt;Node8 -->
<g id="edge11" class="edge">
<title>Node10&#45;&gt;Node8</title>
<path fill="none" stroke="midnightblue" d="M63.77,-133.09C54.31,-135.34 45.37,-137.47 38.06,-139.2"/>
<polygon fill="midnightblue" stroke="midnightblue" points="64.84,-136.43 73.76,-130.71 63.22,-129.62 64.84,-136.43"/>
</g>
<!-- Node11&#45;&gt;Node8 -->
<g id="edge13" class="edge">
<title>Node11&#45;&gt;Node8</title>
<path fill="none" stroke="midnightblue" d="M230.5,-32.91C182.18,-45 122.27,-64.12 74,-92.5 55.1,-103.61 37.49,-122.46 27.79,-133.86"/>
<polygon fill="midnightblue" stroke="midnightblue" points="231.43,-36.29 240.31,-30.51 229.76,-29.49 231.43,-36.29"/>
</g>
<!-- Node12&#45;&gt;Node4 -->
<g id="edge15" class="edge">
<title>Node12&#45;&gt;Node4</title>
<path fill="none" stroke="midnightblue" d="M431.6,-116.63C417.26,-118.02 402.5,-119.45 388.59,-120.8"/>
<polygon fill="midnightblue" stroke="midnightblue" points="432.34,-120.08 441.96,-115.63 431.67,-113.11 432.34,-120.08"/>
</g>
</g>
</svg>
        <g id="navigator" transform="translate(0 0)" fill="#404254">
                <rect fill="#f2f5e9" fill-opacity="0.5" stroke="#606060" stroke-width=".5" x="0" y="0" width="60" height="60"/>
                <use id="zoomplus" xlink:href="#zoomPlus" x="17" y="9" onmousedown="handleZoom(evt,'in')"/>
                <use id="zoomminus" xlink:href="#zoomMin" x="42" y="9" onmousedown="handleZoom(evt,'out')"/>
                <use id="reset" xlink:href="#resetDef" x="30" y="36" onmousedown="handleReset()"/>
                <g id="arrowUp" xlink:href="#dirArrow" transform="translate(30 24)" onmousedown="handlePan(0,-1)">
                  <use xlink:href="#rim" fill="#404040">
                        <set attributeName="fill" to="#808080" begin="arrowUp.mouseover" end="arrowUp.mouseout"/>
                  </use>
                  <path fill="none" stroke="white" stroke-width="1.5" d="M0,-3.0v7 M-2.5,-0.5L0,-3.0L2.5,-0.5"/>
                </g>
                <g id="arrowRight" xlink:href="#dirArrow" transform="rotate(90) translate(36 -43)" onmousedown="handlePan(1,0)">
                  <use xlink:href="#rim" fill="#404040">
                        <set attributeName="fill" to="#808080" begin="arrowRight.mouseover" end="arrowRight.mouseout"/>
                  </use>
                  <path fill="none" stroke="white" stroke-width="1.5" d="M0,-3.0v7 M-2.5,-0.5L0,-3.0L2.5,-0.5"/>
                </g>
                <g id="arrowDown" xlink:href="#dirArrow" transform="rotate(180) translate(-30 -48)" onmousedown="handlePan(0,1)">
                  <use xlink:href="#rim" fill="#404040">
                        <set attributeName="fill" to="#808080" begin="arrowDown.mouseover" end="arrowDown.mouseout"/>
                  </use>
                  <path fill="none" stroke="white" stroke-width="1.5" d="M0,-3.0v7 M-2.5,-0.5L0,-3.0L2.5,-0.5"/>
                </g>
                <g id="arrowLeft" xlink:href="#dirArrow" transform="rotate(270) translate(-36 17)" onmousedown="handlePan(-1,0)">
                  <use xlink:href="#rim" fill="#404040">
                        <set attributeName="fill" to="#808080" begin="arrowLeft.mouseover" end="arrowLeft.mouseout"/>
                  </use>
                  <path fill="none" stroke="white" stroke-width="1.5" d="M0,-3.0v7 M-2.5,-0.5L0,-3.0L2.5,-0.5"/>
                </g>
        </g>
        <svg viewBox="0 0 15 15" width="100%" height="30px" preserveAspectRatio="xMaxYMin meet">
         <g id="arrow_out" transform="scale(0.3 0.3)">
          <a xlink:href="namespaceautomaton_1_1core_1_1interop_1_1ethereum_aa0f8322feba45dd6e4110c92397b2732_icgraph_org.svg" target="_base">
           <rect id="button" ry="5" rx="5" y="6" x="6" height="38" width="38"
                fill="#f2f5e9" fill-opacity="0.5" stroke="#606060" stroke-width="1.0"/>
           <path id="arrow"
             d="M 11.500037,31.436501 C 11.940474,20.09759 22.043105,11.32322 32.158766,21.979434 L 37.068811,17.246167 C 37.068811,17.246167 37.088388,32 37.088388,32 L 22.160133,31.978069 C 22.160133,31.978069 26.997745,27.140456 26.997745,27.140456 C 18.528582,18.264221 13.291696,25.230495 11.500037,31.436501 z"
             style="fill:#404040;"/>
          </a>
         </g>
        </svg>
</svg>
