<?xml version="1.0" encoding="UTF-8" standalone="no"?>
<!DOCTYPE svg PUBLIC "-//W3C//DTD SVG 1.1//EN"
 "http://www.w3.org/Graphics/SVG/1.1/DTD/svg11.dtd">
<!-- Generated by graphviz version 2.42.3 ()
 -->
<!-- Title: automaton::core::interop::ethereum::u256_to_u64 Pages: 1 -->
<svg width="451pt" height="61pt"
 viewBox="0.00 0.00 451.00 61.00" xmlns="http://www.w3.org/2000/svg" xmlns:xlink="http://www.w3.org/1999/xlink">
<g id="graph0" class="graph" transform="scale(1 1) rotate(0) translate(4 57)">
<title>automaton::core::interop::ethereum::u256_to_u64</title>
<polygon fill="white" stroke="transparent" points="-4,4 -4,-57 447,-57 447,4 -4,4"/>
<!-- Node1 -->
<g id="node1" class="node">
<title>Node1</title>
<g id="a_node1"><a xlink:title=" ">
<polygon fill="#bfbfbf" stroke="black" points="321,-22.5 321,-52.5 443,-52.5 443,-22.5 321,-22.5"/>
<text text-anchor="start" x="329" y="-40.5" font-family="Helvetica,sans-Serif" font-size="10.00">automaton::core::interop</text>
<text text-anchor="middle" x="382" y="-29.5" font-family="Helvetica,sans-Serif" font-size="10.00">::ethereum::u256_to_u64</text>
</a>
</g>
</g>
<!-- Node2 -->
<g id="node2" class="node">
<title>Node2</title>
<g id="a_node2"><a xlink:href="../../d2/d91/namespaceautomaton_1_1core_1_1interop_1_1ethereum.html#abbec3fe45e7b6c13c5d534e5dfc4543b" target="_top" xlink:title=" ">
<polygon fill="white" stroke="black" points="0,-22.5 0,-52.5 119,-52.5 119,-22.5 0,-22.5"/>
<text text-anchor="start" x="8" y="-40.5" font-family="Helvetica,sans-Serif" font-size="10.00">automaton::core::interop</text>
<text text-anchor="middle" x="59.5" y="-29.5" font-family="Helvetica,sans-Serif" font-size="10.00">::ethereum::decode</text>
</a>
</g>
</g>
<!-- Node1&#45;&gt;Node2 -->
<g id="edge1" class="edge">
<title>Node1&#45;&gt;Node2</title>
<path fill="none" stroke="midnightblue" d="M310.73,-39.95C302.06,-40.18 293.33,-40.37 285,-40.5 227.23,-41.4 212.77,-41.42 155,-40.5 143.43,-40.32 131.06,-40.01 119.22,-39.65"/>
<polygon fill="midnightblue" stroke="midnightblue" points="310.94,-43.44 320.83,-39.67 310.74,-36.45 310.94,-43.44"/>
</g>
<!-- Node3 -->
<g id="node3" class="node">
<title>Node3</title>
<g id="a_node3"><a xlink:href="../../d2/d91/namespaceautomaton_1_1core_1_1interop_1_1ethereum.html#a55009f57edd69b295860a7b8b685ab2b" target="_top" xlink:title=" ">
<polygon fill="white" stroke="black" points="155,-0.5 155,-30.5 285,-30.5 285,-0.5 155,-0.5"/>
<text text-anchor="start" x="163" y="-18.5" font-family="Helvetica,sans-Serif" font-size="10.00">automaton::core::interop</text>
<text text-anchor="middle" x="220" y="-7.5" font-family="Helvetica,sans-Serif" font-size="10.00">::ethereum::decode_param</text>
</a>
</g>
</g>
<!-- Node1&#45;&gt;Node3 -->
<g id="edge2" class="edge">
<title>Node1&#45;&gt;Node3</title>
<path fill="none" stroke="midnightblue" d="M310.97,-27.87C302.37,-26.69 293.62,-25.49 285.12,-24.32"/>
<polygon fill="midnightblue" stroke="midnightblue" points="310.58,-31.35 320.97,-29.25 311.54,-24.42 310.58,-31.35"/>
</g>
<!-- Node3&#45;&gt;Node2 -->
<g id="edge3" class="edge">
<title>Node3&#45;&gt;Node2</title>
<path fill="none" stroke="midnightblue" d="M144.9,-25.79C136.25,-26.99 127.52,-28.2 119.12,-29.36"/>
<polygon fill="midnightblue" stroke="midnightblue" points="145.57,-29.23 154.99,-24.38 144.6,-22.29 145.57,-29.23"/>
</g>
</g>
</svg>
