<?xml version="1.0" encoding="UTF-8" standalone="no"?>
<!DOCTYPE svg PUBLIC "-//W3C//DTD SVG 1.1//EN"
 "http://www.w3.org/Graphics/SVG/1.1/DTD/svg11.dtd">
<!-- Generated by graphviz version 2.42.3 ()
 -->
<!-- Title: automaton::core::interop::ethereum::eth_gasPrice Pages: 1 -->
<svg width="517pt" height="70pt"
 viewBox="0.00 0.00 517.00 69.50" xmlns="http://www.w3.org/2000/svg" xmlns:xlink="http://www.w3.org/1999/xlink">
<g id="graph0" class="graph" transform="scale(1 1) rotate(0) translate(4 65.5)">
<title>automaton::core::interop::ethereum::eth_gasPrice</title>
<polygon fill="white" stroke="transparent" points="-4,4 -4,-65.5 513,-65.5 513,4 -4,4"/>
<!-- Node1 -->
<g id="node1" class="node">
<title>Node1</title>
<g id="a_node1"><a xlink:title=" ">
<polygon fill="#bfbfbf" stroke="black" points="386,-0.5 386,-30.5 509,-30.5 509,-0.5 386,-0.5"/>
<text text-anchor="start" x="394" y="-18.5" font-family="Helvetica,sans-Serif" font-size="10.00">automaton::core::interop</text>
<text text-anchor="middle" x="447.5" y="-7.5" font-family="Helvetica,sans-Serif" font-size="10.00">::ethereum::eth_gasPrice</text>
</a>
</g>
</g>
<!-- Node2 -->
<g id="node2" class="node">
<title>Node2</title>
<g id="a_node2"><a xlink:href="../../d4/de7/classautomaton_1_1core_1_1interop_1_1ethereum_1_1eth__contract.html#a81d2a34e602ffd01b8a9ffae5223fc96" target="_top" xlink:title=" ">
<polygon fill="white" stroke="black" points="230,-20 230,-61 350,-61 350,-20 230,-20"/>
<text text-anchor="start" x="238" y="-49" font-family="Helvetica,sans-Serif" font-size="10.00">automaton::core::interop</text>
<text text-anchor="start" x="238" y="-38" font-family="Helvetica,sans-Serif" font-size="10.00">::ethereum::eth_contract</text>
<text text-anchor="middle" x="290" y="-27" font-family="Helvetica,sans-Serif" font-size="10.00">::eth_contract</text>
</a>
</g>
</g>
<!-- Node1&#45;&gt;Node2 -->
<g id="edge1" class="edge">
<title>Node1&#45;&gt;Node2</title>
<path fill="none" stroke="midnightblue" d="M375.9,-26.85C367.28,-28.24 358.55,-29.64 350.12,-30.99"/>
<polygon fill="midnightblue" stroke="midnightblue" points="376.62,-30.28 385.93,-25.24 375.51,-23.37 376.62,-30.28"/>
</g>
<!-- Node4 -->
<g id="node4" class="node">
<title>Node4</title>
<g id="a_node4"><a xlink:href="../../d4/d57/eth__contract__curl__test_8cc.html#ae66f6b31b5ad750f1fe042a706a4e3d4" target="_top" xlink:title=" ">
<polygon fill="white" stroke="black" points="0,-6 0,-25 38,-25 38,-6 0,-6"/>
<text text-anchor="middle" x="19" y="-13" font-family="Helvetica,sans-Serif" font-size="10.00">main</text>
</a>
</g>
</g>
<!-- Node1&#45;&gt;Node4 -->
<g id="edge4" class="edge">
<title>Node1&#45;&gt;Node4</title>
<path fill="none" stroke="midnightblue" d="M375.68,-11.41C367.03,-11.03 358.32,-10.72 350,-10.5 227.37,-7.33 196.54,-4.84 74,-10.5 62.15,-11.05 48.88,-12.27 38.47,-13.36"/>
<polygon fill="midnightblue" stroke="midnightblue" points="375.63,-14.91 385.78,-11.87 375.95,-7.92 375.63,-14.91"/>
</g>
<!-- Node3 -->
<g id="node3" class="node">
<title>Node3</title>
<g id="a_node3"><a xlink:href="../../d4/de7/classautomaton_1_1core_1_1interop_1_1ethereum_1_1eth__contract.html#a72da0c6073bb3fcf6aef75a2c4e96d1a" target="_top" xlink:title=" ">
<polygon fill="white" stroke="black" points="74,-20 74,-61 194,-61 194,-20 74,-20"/>
<text text-anchor="start" x="82" y="-49" font-family="Helvetica,sans-Serif" font-size="10.00">automaton::core::interop</text>
<text text-anchor="start" x="82" y="-38" font-family="Helvetica,sans-Serif" font-size="10.00">::ethereum::eth_contract</text>
<text text-anchor="middle" x="134" y="-27" font-family="Helvetica,sans-Serif" font-size="10.00">::register_contract</text>
</a>
</g>
</g>
<!-- Node2&#45;&gt;Node3 -->
<g id="edge2" class="edge">
<title>Node2&#45;&gt;Node3</title>
<path fill="none" stroke="midnightblue" d="M219.63,-40.5C211.14,-40.5 202.52,-40.5 194.2,-40.5"/>
<polygon fill="midnightblue" stroke="midnightblue" points="219.9,-44 229.9,-40.5 219.9,-37 219.9,-44"/>
</g>
<!-- Node3&#45;&gt;Node4 -->
<g id="edge3" class="edge">
<title>Node3&#45;&gt;Node4</title>
<path fill="none" stroke="midnightblue" d="M63.86,-25.2C54.4,-23.11 45.44,-21.13 38.11,-19.51"/>
<polygon fill="midnightblue" stroke="midnightblue" points="63.33,-28.67 73.85,-27.41 64.84,-21.84 63.33,-28.67"/>
</g>
</g>
</svg>
