<?xml version="1.0" encoding="UTF-8" standalone="no"?>
<!DOCTYPE svg PUBLIC "-//W3C//DTD SVG 1.1//EN"
 "http://www.w3.org/Graphics/SVG/1.1/DTD/svg11.dtd">
<!-- Generated by graphviz version 2.44.0 ()
 -->
<!-- Title: automaton::core::interop::ethereum::curl_post Pages: 1 -->
<!--zoomable 250 -->
<svg id="main" version="1.1" xmlns="http://www.w3.org/2000/svg" xmlns:xlink="http://www.w3.org/1999/xlink" xml:space="preserve" onload="init(evt)">
<style type="text/css"><![CDATA[
.edge:hover path { stroke: red; }
.edge:hover polygon { stroke: red; fill: red; }
]]></style>
<script type="text/javascript"><![CDATA[
var edges = document.getElementsByTagName('g');
if (edges && edges.length) {
  for (var i=0;i<edges.length;i++) {
    if (edges[i].id.substr(0,4)=='edge') {
      edges[i].setAttribute('class','edge');
    }
  }
}
]]></script>
        <defs>
                <circle id="rim" cx="0" cy="0" r="7"/>
                <circle id="rim2" cx="0" cy="0" r="3.5"/>
                <g id="zoomPlus">
                        <use xlink:href="#rim" fill="#404040">
                                <set attributeName="fill" to="#808080" begin="zoomplus.mouseover" end="zoomplus.mouseout"/>
                        </use>
                        <path d="M-4,0h8M0,-4v8" fill="none" stroke="white" stroke-width="1.5" pointer-events="none"/>
                </g>
                <g id="zoomMin">
                        <use xlink:href="#rim" fill="#404040">
                                <set attributeName="fill" to="#808080" begin="zoomminus.mouseover" end="zoomminus.mouseout"/>
                        </use>
                        <path d="M-4,0h8" fill="none" stroke="white" stroke-width="1.5" pointer-events="none"/>
                </g>
                <g id="dirArrow">
                        <path fill="none" stroke="white" stroke-width="1.5" d="M0,-3.0v7 M-2.5,-0.5L0,-3.0L2.5,-0.5"/>
                </g>
               <g id="resetDef">
                       <use xlink:href="#rim2" fill="#404040">
                               <set attributeName="fill" to="#808080" begin="reset.mouseover" end="reset.mouseout"/>
                       </use>
               </g>
        </defs>

<script type="text/javascript">
var viewWidth = 773;
var viewHeight = 250;
var sectionId = 'dynsection-7';
</script>
<script xlink:href="../../svgpan.js"/>
<svg id="graph" class="graph">
<g id="viewport">
<title>automaton::core::interop::ethereum::curl_post</title>
<polygon fill="white" stroke="transparent" points="-4,4 -4,-246.23 769,-246.23 769,4 -4,4"/>
<!-- Node1 -->
<g id="node1" class="node">
<title>Node1</title>
<g id="a_node1"><a xlink:title=" ">
<polygon fill="#bfbfbf" stroke="black" points="646,-89.85 646,-119.85 765,-119.85 765,-89.85 646,-89.85"/>
<text text-anchor="start" x="654" y="-107.85" font-family="Helvetica,sans-Serif" font-size="10.00">automaton::core::interop</text>
<text text-anchor="middle" x="705.5" y="-96.85" font-family="Helvetica,sans-Serif" font-size="10.00">::ethereum::curl_post</text>
</a>
</g>
</g>
<!-- Node2 -->
<g id="node2" class="node">
<title>Node2</title>
<g id="a_node2"><a xlink:href="../../d4/de7/classautomaton_1_1core_1_1interop_1_1ethereum_1_1eth__contract.html#a06c060597ef2f9c3255fa00e8b716460" target="_top" xlink:title=" ">
<polygon fill="white" stroke="black" points="285,-92.85 285,-122.85 425,-122.85 425,-92.85 285,-92.85"/>
<text text-anchor="start" x="293" y="-110.85" font-family="Helvetica,sans-Serif" font-size="10.00">automaton::core::interop</text>
<text text-anchor="middle" x="355" y="-99.85" font-family="Helvetica,sans-Serif" font-size="10.00">::ethereum::eth_contract::call</text>
</a>
</g>
</g>
<!-- Node1&#45;&gt;Node2 -->
<g id="edge1" class="edge">
<title>Node1&#45;&gt;Node2</title>
<path fill="none" stroke="midnightblue" d="M675.61,-125.76C657.69,-137.41 633.63,-150.77 610,-156.85 545.86,-173.33 524.93,-174.13 461,-156.85 443.12,-152.01 441.62,-144.02 425,-135.85 415.72,-131.28 405.5,-126.84 395.84,-122.88"/>
<polygon fill="midnightblue" stroke="midnightblue" points="678.04,-128.34 684.39,-119.86 674.14,-122.53 678.04,-128.34"/>
</g>
<!-- Node3 -->
<g id="node3" class="node">
<title>Node3</title>
<g id="a_node3"><a xlink:href="../../d2/d91/namespaceautomaton_1_1core_1_1interop_1_1ethereum.html#af94c20cb01294d2784980377da7684c1" target="_top" xlink:title=" ">
<polygon fill="white" stroke="black" points="474,-204.85 474,-234.85 597,-234.85 597,-204.85 474,-204.85"/>
<text text-anchor="start" x="482" y="-222.85" font-family="Helvetica,sans-Serif" font-size="10.00">automaton::core::interop</text>
<text text-anchor="middle" x="535.5" y="-211.85" font-family="Helvetica,sans-Serif" font-size="10.00">::ethereum::eth_gasPrice</text>
</a>
</g>
</g>
<!-- Node1&#45;&gt;Node3 -->
<g id="edge2" class="edge">
<title>Node1&#45;&gt;Node3</title>
<path fill="none" stroke="midnightblue" d="M683.6,-127.59C665.53,-146.23 637.97,-172.31 610,-189.85 600.89,-195.56 590.51,-200.57 580.48,-204.79"/>
<polygon fill="midnightblue" stroke="midnightblue" points="686.37,-129.76 690.74,-120.11 681.3,-124.93 686.37,-129.76"/>
</g>
<!-- Node7 -->
<g id="node7" class="node">
<title>Node7</title>
<g id="a_node7"><a xlink:href="../../d2/d91/namespaceautomaton_1_1core_1_1interop_1_1ethereum.html#a4e5f4572be73045ce966df1fa0e53d1b" target="_top" xlink:title=" ">
<polygon fill="white" stroke="black" points="468.5,-116.85 468.5,-146.85 602.5,-146.85 602.5,-116.85 468.5,-116.85"/>
<text text-anchor="start" x="476.5" y="-134.85" font-family="Helvetica,sans-Serif" font-size="10.00">automaton::core::interop</text>
<text text-anchor="middle" x="535.5" y="-123.85" font-family="Helvetica,sans-Serif" font-size="10.00">::ethereum::eth_getBalance</text>
</a>
</g>
</g>
<!-- Node1&#45;&gt;Node7 -->
<g id="edge7" class="edge">
<title>Node1&#45;&gt;Node7</title>
<path fill="none" stroke="midnightblue" d="M635.82,-115.88C624.87,-117.64 613.57,-119.46 602.69,-121.21"/>
<polygon fill="midnightblue" stroke="midnightblue" points="636.42,-119.33 645.74,-114.29 635.31,-112.42 636.42,-119.33"/>
</g>
<!-- Node8 -->
<g id="node8" class="node">
<title>Node8</title>
<g id="a_node8"><a xlink:href="../../d2/d91/namespaceautomaton_1_1core_1_1interop_1_1ethereum.html#aba0ff0eafb720e87750796f5d18727a6" target="_top" xlink:title=" ">
<polygon fill="white" stroke="black" points="294.5,-35.85 294.5,-65.85 415.5,-65.85 415.5,-35.85 294.5,-35.85"/>
<text text-anchor="start" x="302.5" y="-53.85" font-family="Helvetica,sans-Serif" font-size="10.00">automaton::core::interop</text>
<text text-anchor="middle" x="355" y="-42.85" font-family="Helvetica,sans-Serif" font-size="10.00">::ethereum::eth_getCode</text>
</a>
</g>
</g>
<!-- Node1&#45;&gt;Node8 -->
<g id="edge8" class="edge">
<title>Node1&#45;&gt;Node8</title>
<path fill="none" stroke="midnightblue" d="M678.13,-83.55C660.12,-70.43 635.06,-54.82 610,-47.85 545.42,-29.88 467.98,-34.3 415.73,-40.87"/>
<polygon fill="midnightblue" stroke="midnightblue" points="676.28,-86.54 686.38,-89.75 680.49,-80.94 676.28,-86.54"/>
</g>
<!-- Node9 -->
<g id="node9" class="node">
<title>Node9</title>
<g id="a_node9"><a xlink:href="../../d2/d91/namespaceautomaton_1_1core_1_1interop_1_1ethereum.html#af71a43bad614554041a0bbc70f5fcdea" target="_top" xlink:title=" ">
<polygon fill="white" stroke="black" points="74,-12.85 74,-42.85 249,-42.85 249,-12.85 74,-12.85"/>
<text text-anchor="start" x="82" y="-30.85" font-family="Helvetica,sans-Serif" font-size="10.00">automaton::core::interop</text>
<text text-anchor="middle" x="161.5" y="-19.85" font-family="Helvetica,sans-Serif" font-size="10.00">::ethereum::eth_getTransactionCount</text>
</a>
</g>
</g>
<!-- Node1&#45;&gt;Node9 -->
<g id="edge10" class="edge">
<title>Node1&#45;&gt;Node9</title>
<path fill="none" stroke="midnightblue" d="M683.84,-82.09C666.2,-64.42 639.1,-41.24 610,-30.85 487.99,12.72 335.06,0.81 243.26,-12.8"/>
<polygon fill="midnightblue" stroke="midnightblue" points="681.79,-85 691.26,-89.75 686.82,-80.13 681.79,-85"/>
</g>
<!-- Node10 -->
<g id="node10" class="node">
<title>Node10</title>
<g id="a_node10"><a xlink:href="../../d2/d91/namespaceautomaton_1_1core_1_1interop_1_1ethereum.html#aeec254eba111b5daca0926c13c5e40bd" target="_top" xlink:title=" ">
<polygon fill="white" stroke="black" points="461,-57.35 461,-98.35 610,-98.35 610,-57.35 461,-57.35"/>
<text text-anchor="start" x="469" y="-86.35" font-family="Helvetica,sans-Serif" font-size="10.00">automaton::core::interop</text>
<text text-anchor="start" x="469" y="-75.35" font-family="Helvetica,sans-Serif" font-size="10.00">::ethereum::eth_getTransaction</text>
<text text-anchor="middle" x="535.5" y="-64.35" font-family="Helvetica,sans-Serif" font-size="10.00">Receipt</text>
</a>
</g>
</g>
<!-- Node1&#45;&gt;Node10 -->
<g id="edge12" class="edge">
<title>Node1&#45;&gt;Node10</title>
<path fill="none" stroke="midnightblue" d="M635.66,-93.78C627.3,-92.44 618.72,-91.06 610.29,-89.7"/>
<polygon fill="midnightblue" stroke="midnightblue" points="635.31,-97.27 645.74,-95.4 636.42,-90.36 635.31,-97.27"/>
</g>
<!-- Node4 -->
<g id="node4" class="node">
<title>Node4</title>
<g id="a_node4"><a xlink:href="../../d4/de7/classautomaton_1_1core_1_1interop_1_1ethereum_1_1eth__contract.html#a81d2a34e602ffd01b8a9ffae5223fc96" target="_top" xlink:title=" ">
<polygon fill="white" stroke="black" points="295,-145.35 295,-186.35 415,-186.35 415,-145.35 295,-145.35"/>
<text text-anchor="start" x="303" y="-174.35" font-family="Helvetica,sans-Serif" font-size="10.00">automaton::core::interop</text>
<text text-anchor="start" x="303" y="-163.35" font-family="Helvetica,sans-Serif" font-size="10.00">::ethereum::eth_contract</text>
<text text-anchor="middle" x="355" y="-152.35" font-family="Helvetica,sans-Serif" font-size="10.00">::eth_contract</text>
</a>
</g>
</g>
<!-- Node3&#45;&gt;Node4 -->
<g id="edge3" class="edge">
<title>Node3&#45;&gt;Node4</title>
<path fill="none" stroke="midnightblue" d="M474.94,-201.83C455.74,-196.02 434.46,-189.58 415.27,-183.78"/>
<polygon fill="midnightblue" stroke="midnightblue" points="474.19,-205.26 484.78,-204.8 476.22,-198.56 474.19,-205.26"/>
</g>
<!-- Node6 -->
<g id="node6" class="node">
<title>Node6</title>
<g id="a_node6"><a xlink:href="../../d4/d57/eth__contract__curl__test_8cc.html#ae66f6b31b5ad750f1fe042a706a4e3d4" target="_top" xlink:title=" ">
<polygon fill="white" stroke="black" points="0,-113.35 0,-132.35 38,-132.35 38,-113.35 0,-113.35"/>
<text text-anchor="middle" x="19" y="-120.35" font-family="Helvetica,sans-Serif" font-size="10.00">main</text>
</a>
</g>
</g>
<!-- Node3&#45;&gt;Node6 -->
<g id="edge6" class="edge">
<title>Node3&#45;&gt;Node6</title>
<path fill="none" stroke="midnightblue" d="M463.66,-232.33C368.99,-245.39 198.69,-255.96 74,-190.85 49.15,-177.87 31.9,-147.85 24.33,-132.41"/>
<polygon fill="midnightblue" stroke="midnightblue" points="464.3,-235.77 473.71,-230.89 463.31,-228.84 464.3,-235.77"/>
</g>
<!-- Node5 -->
<g id="node5" class="node">
<title>Node5</title>
<g id="a_node5"><a xlink:href="../../d4/de7/classautomaton_1_1core_1_1interop_1_1ethereum_1_1eth__contract.html#a72da0c6073bb3fcf6aef75a2c4e96d1a" target="_top" xlink:title=" ">
<polygon fill="white" stroke="black" points="101.5,-140.35 101.5,-181.35 221.5,-181.35 221.5,-140.35 101.5,-140.35"/>
<text text-anchor="start" x="109.5" y="-169.35" font-family="Helvetica,sans-Serif" font-size="10.00">automaton::core::interop</text>
<text text-anchor="start" x="109.5" y="-158.35" font-family="Helvetica,sans-Serif" font-size="10.00">::ethereum::eth_contract</text>
<text text-anchor="middle" x="161.5" y="-147.35" font-family="Helvetica,sans-Serif" font-size="10.00">::register_contract</text>
</a>
</g>
</g>
<!-- Node4&#45;&gt;Node5 -->
<g id="edge4" class="edge">
<title>Node4&#45;&gt;Node5</title>
<path fill="none" stroke="midnightblue" d="M284.97,-164.04C264.24,-163.5 241.69,-162.91 221.65,-162.39"/>
<polygon fill="midnightblue" stroke="midnightblue" points="284.89,-167.54 294.98,-164.3 285.08,-160.54 284.89,-167.54"/>
</g>
<!-- Node5&#45;&gt;Node6 -->
<g id="edge5" class="edge">
<title>Node5&#45;&gt;Node6</title>
<path fill="none" stroke="midnightblue" d="M91.64,-142.22C71.83,-136.86 51.87,-131.47 38.07,-127.73"/>
<polygon fill="midnightblue" stroke="midnightblue" points="90.76,-145.61 101.32,-144.84 92.58,-138.85 90.76,-145.61"/>
</g>
<!-- Node8&#45;&gt;Node6 -->
<g id="edge9" class="edge">
<title>Node8&#45;&gt;Node6</title>
<path fill="none" stroke="midnightblue" d="M284.49,-65.83C206.19,-82.71 83.89,-109.07 38.11,-118.94"/>
<polygon fill="midnightblue" stroke="midnightblue" points="285.25,-69.25 294.29,-63.72 283.77,-62.4 285.25,-69.25"/>
</g>
<!-- Node9&#45;&gt;Node6 -->
<g id="edge11" class="edge">
<title>Node9&#45;&gt;Node6</title>
<path fill="none" stroke="midnightblue" d="M128.57,-48.55C112.18,-59.27 91.93,-72.63 74,-84.85 60.17,-94.27 44.55,-105.3 33.68,-113.05"/>
<polygon fill="midnightblue" stroke="midnightblue" points="130.78,-51.29 137.24,-42.9 126.95,-45.43 130.78,-51.29"/>
</g>
<!-- Node10&#45;&gt;Node2 -->
<g id="edge13" class="edge">
<title>Node10&#45;&gt;Node2</title>
<path fill="none" stroke="midnightblue" d="M450.83,-91.91C442.24,-93.35 433.57,-94.81 425.16,-96.22"/>
<polygon fill="midnightblue" stroke="midnightblue" points="451.59,-95.33 460.87,-90.22 450.42,-88.43 451.59,-95.33"/>
</g>
</g>
</svg>
        <g id="navigator" transform="translate(0 0)" fill="#404254">
                <rect fill="#f2f5e9" fill-opacity="0.5" stroke="#606060" stroke-width=".5" x="0" y="0" width="60" height="60"/>
                <use id="zoomplus" xlink:href="#zoomPlus" x="17" y="9" onmousedown="handleZoom(evt,'in')"/>
                <use id="zoomminus" xlink:href="#zoomMin" x="42" y="9" onmousedown="handleZoom(evt,'out')"/>
                <use id="reset" xlink:href="#resetDef" x="30" y="36" onmousedown="handleReset()"/>
                <g id="arrowUp" xlink:href="#dirArrow" transform="translate(30 24)" onmousedown="handlePan(0,-1)">
                  <use xlink:href="#rim" fill="#404040">
                        <set attributeName="fill" to="#808080" begin="arrowUp.mouseover" end="arrowUp.mouseout"/>
                  </use>
                  <path fill="none" stroke="white" stroke-width="1.5" d="M0,-3.0v7 M-2.5,-0.5L0,-3.0L2.5,-0.5"/>
                </g>
                <g id="arrowRight" xlink:href="#dirArrow" transform="rotate(90) translate(36 -43)" onmousedown="handlePan(1,0)">
                  <use xlink:href="#rim" fill="#404040">
                        <set attributeName="fill" to="#808080" begin="arrowRight.mouseover" end="arrowRight.mouseout"/>
                  </use>
                  <path fill="none" stroke="white" stroke-width="1.5" d="M0,-3.0v7 M-2.5,-0.5L0,-3.0L2.5,-0.5"/>
                </g>
                <g id="arrowDown" xlink:href="#dirArrow" transform="rotate(180) translate(-30 -48)" onmousedown="handlePan(0,1)">
                  <use xlink:href="#rim" fill="#404040">
                        <set attributeName="fill" to="#808080" begin="arrowDown.mouseover" end="arrowDown.mouseout"/>
                  </use>
                  <path fill="none" stroke="white" stroke-width="1.5" d="M0,-3.0v7 M-2.5,-0.5L0,-3.0L2.5,-0.5"/>
                </g>
                <g id="arrowLeft" xlink:href="#dirArrow" transform="rotate(270) translate(-36 17)" onmousedown="handlePan(-1,0)">
                  <use xlink:href="#rim" fill="#404040">
                        <set attributeName="fill" to="#808080" begin="arrowLeft.mouseover" end="arrowLeft.mouseout"/>
                  </use>
                  <path fill="none" stroke="white" stroke-width="1.5" d="M0,-3.0v7 M-2.5,-0.5L0,-3.0L2.5,-0.5"/>
                </g>
        </g>
        <svg viewBox="0 0 15 15" width="100%" height="30px" preserveAspectRatio="xMaxYMin meet">
         <g id="arrow_out" transform="scale(0.3 0.3)">
          <a xlink:href="namespaceautomaton_1_1core_1_1interop_1_1ethereum_ac9333e6d163be21216a871b3e71d207e_icgraph_org.svg" target="_base">
           <rect id="button" ry="5" rx="5" y="6" x="6" height="38" width="38"
                fill="#f2f5e9" fill-opacity="0.5" stroke="#606060" stroke-width="1.0"/>
           <path id="arrow"
             d="M 11.500037,31.436501 C 11.940474,20.09759 22.043105,11.32322 32.158766,21.979434 L 37.068811,17.246167 C 37.068811,17.246167 37.088388,32 37.088388,32 L 22.160133,31.978069 C 22.160133,31.978069 26.997745,27.140456 26.997745,27.140456 C 18.528582,18.264221 13.291696,25.230495 11.500037,31.436501 z"
             style="fill:#404040;"/>
          </a>
         </g>
        </svg>
</svg>
