<?xml version="1.0" encoding="UTF-8" standalone="no"?>
<!DOCTYPE svg PUBLIC "-//W3C//DTD SVG 1.1//EN"
 "http://www.w3.org/Graphics/SVG/1.1/DTD/svg11.dtd">
<!-- Generated by graphviz version 2.42.3 ()
 -->
<!-- Title: automaton::core::node::node_updater Pages: 1 -->
<svg width="173pt" height="241pt"
 viewBox="0.00 0.00 173.00 241.00" xmlns="http://www.w3.org/2000/svg" xmlns:xlink="http://www.w3.org/1999/xlink">
<g id="graph0" class="graph" transform="scale(1 1) rotate(0) translate(4 237)">
<title>automaton::core::node::node_updater</title>
<polygon fill="white" stroke="transparent" points="-4,4 -4,-237 169,-237 169,4 -4,4"/>
<!-- Node1 -->
<g id="node1" class="node">
<title>Node1</title>
<g id="a_node1"><a xlink:title=" ">
<polygon fill="#bfbfbf" stroke="black" points="54,-0.5 54,-30.5 165,-30.5 165,-0.5 54,-0.5"/>
<text text-anchor="start" x="62" y="-18.5" font-family="Helvetica,sans-Serif" font-size="10.00">automaton::core::node</text>
<text text-anchor="middle" x="109.5" y="-7.5" font-family="Helvetica,sans-Serif" font-size="10.00">::node_updater</text>
</a>
</g>
</g>
<!-- Node2 -->
<g id="node2" class="node">
<title>Node2</title>
<g id="a_node2"><a xlink:title=" ">
<polygon fill="white" stroke="#bfbfbf" points="0,-78.5 0,-97.5 107,-97.5 107,-78.5 0,-78.5"/>
<text text-anchor="middle" x="53.5" y="-85.5" font-family="Helvetica,sans-Serif" font-size="10.00">std::set&lt; std::string &gt;</text>
</a>
</g>
</g>
<!-- Node2&#45;&gt;Node1 -->
<g id="edge1" class="edge">
<title>Node2&#45;&gt;Node1</title>
<path fill="none" stroke="#9a32cd" stroke-dasharray="5,2" d="M64.13,-69.42C68.36,-62.83 73.41,-55.4 78.5,-49 83.55,-42.65 89.61,-36.1 95.03,-30.55"/>
<polygon fill="#9a32cd" stroke="#9a32cd" points="60.95,-67.9 58.64,-78.24 66.89,-71.6 60.95,-67.9"/>
<text text-anchor="middle" x="99.5" y="-52" font-family="Helvetica,sans-Serif" font-size="10.00"> node_list</text>
</g>
<!-- Node3 -->
<g id="node3" class="node">
<title>Node3</title>
<g id="a_node3"><a xlink:title="STL class.">
<polygon fill="white" stroke="#bfbfbf" points="24,-145.5 24,-164.5 83,-164.5 83,-145.5 24,-145.5"/>
<text text-anchor="middle" x="53.5" y="-152.5" font-family="Helvetica,sans-Serif" font-size="10.00">std::string</text>
</a>
</g>
</g>
<!-- Node3&#45;&gt;Node2 -->
<g id="edge2" class="edge">
<title>Node3&#45;&gt;Node2</title>
<path fill="none" stroke="#9a32cd" stroke-dasharray="5,2" d="M53.5,-135.04C53.5,-122.67 53.5,-107.12 53.5,-97.63"/>
<polygon fill="#9a32cd" stroke="#9a32cd" points="50,-135.23 53.5,-145.23 57,-135.23 50,-135.23"/>
<text text-anchor="middle" x="65" y="-119" font-family="Helvetica,sans-Serif" font-size="10.00"> keys</text>
</g>
<!-- Node4 -->
<g id="node4" class="node">
<title>Node4</title>
<g id="a_node4"><a xlink:title="STL class.">
<polygon fill="white" stroke="#bfbfbf" points="7,-202.5 7,-232.5 100,-232.5 100,-202.5 7,-202.5"/>
<text text-anchor="start" x="15" y="-220.5" font-family="Helvetica,sans-Serif" font-size="10.00">std::basic_string&lt;</text>
<text text-anchor="middle" x="53.5" y="-209.5" font-family="Helvetica,sans-Serif" font-size="10.00"> char &gt;</text>
</a>
</g>
</g>
<!-- Node4&#45;&gt;Node3 -->
<g id="edge3" class="edge">
<title>Node4&#45;&gt;Node3</title>
<path fill="none" stroke="midnightblue" d="M53.5,-192.35C53.5,-182.51 53.5,-171.78 53.5,-164.54"/>
<polygon fill="midnightblue" stroke="midnightblue" points="50,-192.47 53.5,-202.47 57,-192.47 50,-192.47"/>
</g>
<!-- Node5 -->
<g id="node5" class="node">
<title>Node5</title>
<g id="a_node5"><a xlink:title=" ">
<polygon fill="white" stroke="#bfbfbf" points="125,-78.5 125,-97.5 160,-97.5 160,-78.5 125,-78.5"/>
<text text-anchor="middle" x="142.5" y="-85.5" font-family="Helvetica,sans-Serif" font-size="10.00">bool</text>
</a>
</g>
</g>
<!-- Node5&#45;&gt;Node1 -->
<g id="edge4" class="edge">
<title>Node5&#45;&gt;Node1</title>
<path fill="none" stroke="#9a32cd" stroke-dasharray="5,2" d="M134.06,-68.96C128.47,-57.03 121.25,-41.61 116.09,-30.58"/>
<polygon fill="#9a32cd" stroke="#9a32cd" points="131.04,-70.78 138.45,-78.36 137.38,-67.81 131.04,-70.78"/>
<text text-anchor="middle" x="145.5" y="-52" font-family="Helvetica,sans-Serif" font-size="10.00"> running</text>
</g>
</g>
</svg>
