<?xml version="1.0" encoding="UTF-8" standalone="no"?>
<!DOCTYPE svg PUBLIC "-//W3C//DTD SVG 1.1//EN"
 "http://www.w3.org/Graphics/SVG/1.1/DTD/svg11.dtd">
<!-- Generated by graphviz version 2.42.3 ()
 -->
<!-- Title: automaton::core::node::luanode::lua_node Pages: 1 -->
<svg width="439pt" height="148pt"
 viewBox="0.00 0.00 439.00 147.50" xmlns="http://www.w3.org/2000/svg" xmlns:xlink="http://www.w3.org/1999/xlink">
<g id="graph0" class="graph" transform="scale(1 1) rotate(0) translate(4 143.5)">
<title>automaton::core::node::luanode::lua_node</title>
<polygon fill="white" stroke="transparent" points="-4,4 -4,-143.5 435,-143.5 435,4 -4,4"/>
<!-- Node1 -->
<g id="node1" class="node">
<title>Node1</title>
<g id="a_node1"><a xlink:title=" ">
<polygon fill="#bfbfbf" stroke="black" points="320,-49.5 320,-79.5 431,-79.5 431,-49.5 320,-49.5"/>
<text text-anchor="start" x="328" y="-67.5" font-family="Helvetica,sans-Serif" font-size="10.00">automaton::core::node</text>
<text text-anchor="middle" x="375.5" y="-56.5" font-family="Helvetica,sans-Serif" font-size="10.00">::luanode::lua_node</text>
</a>
</g>
</g>
<!-- Node2 -->
<g id="node2" class="node">
<title>Node2</title>
<g id="a_node2"><a xlink:href="../../da/d77/classautomaton_1_1core_1_1node_1_1node.html" target="_top" xlink:title=" ">
<polygon fill="white" stroke="black" points="173,-49.5 173,-79.5 284,-79.5 284,-49.5 173,-49.5"/>
<text text-anchor="start" x="181" y="-67.5" font-family="Helvetica,sans-Serif" font-size="10.00">automaton::core::node</text>
<text text-anchor="middle" x="228.5" y="-56.5" font-family="Helvetica,sans-Serif" font-size="10.00">::node</text>
</a>
</g>
</g>
<!-- Node2&#45;&gt;Node1 -->
<g id="edge1" class="edge">
<title>Node2&#45;&gt;Node1</title>
<path fill="none" stroke="midnightblue" d="M294.46,-64.5C302.86,-64.5 311.39,-64.5 319.6,-64.5"/>
<polygon fill="midnightblue" stroke="midnightblue" points="294.32,-61 284.32,-64.5 294.32,-68 294.32,-61"/>
</g>
<!-- Node3 -->
<g id="node3" class="node">
<title>Node3</title>
<g id="a_node3"><a xlink:href="../../d6/d94/classautomaton_1_1core_1_1network_1_1connection_1_1connection__handler.html" target="_top" xlink:title=" ">
<polygon fill="white" stroke="black" points="6,-98 6,-139 131,-139 131,-98 6,-98"/>
<text text-anchor="start" x="14" y="-127" font-family="Helvetica,sans-Serif" font-size="10.00">automaton::core::network</text>
<text text-anchor="start" x="14" y="-116" font-family="Helvetica,sans-Serif" font-size="10.00">::connection::connection</text>
<text text-anchor="middle" x="68.5" y="-105" font-family="Helvetica,sans-Serif" font-size="10.00">_handler</text>
</a>
</g>
</g>
<!-- Node3&#45;&gt;Node2 -->
<g id="edge2" class="edge">
<title>Node3&#45;&gt;Node2</title>
<path fill="none" stroke="midnightblue" d="M139.38,-94.62C154.27,-89.53 169.6,-84.29 183.21,-79.64"/>
<polygon fill="midnightblue" stroke="midnightblue" points="138.01,-91.38 129.68,-97.93 140.28,-98.01 138.01,-91.38"/>
</g>
<!-- Node4 -->
<g id="node4" class="node">
<title>Node4</title>
<g id="a_node4"><a xlink:href="../../d0/d47/classautomaton_1_1core_1_1network_1_1acceptor_1_1acceptor__handler.html" target="_top" xlink:title=" ">
<polygon fill="white" stroke="black" points="0,-49.5 0,-79.5 137,-79.5 137,-49.5 0,-49.5"/>
<text text-anchor="start" x="8" y="-67.5" font-family="Helvetica,sans-Serif" font-size="10.00">automaton::core::network</text>
<text text-anchor="middle" x="68.5" y="-56.5" font-family="Helvetica,sans-Serif" font-size="10.00">::acceptor::acceptor_handler</text>
</a>
</g>
</g>
<!-- Node4&#45;&gt;Node2 -->
<g id="edge3" class="edge">
<title>Node4&#45;&gt;Node2</title>
<path fill="none" stroke="midnightblue" d="M147.5,-64.5C156.11,-64.5 164.74,-64.5 172.97,-64.5"/>
<polygon fill="midnightblue" stroke="midnightblue" points="147.42,-61 137.42,-64.5 147.42,-68 147.42,-61"/>
</g>
<!-- Node5 -->
<g id="node5" class="node">
<title>Node5</title>
<g id="a_node5"><a xlink:title=" ">
<polygon fill="white" stroke="#bfbfbf" points="18.5,-0.5 18.5,-30.5 118.5,-30.5 118.5,-0.5 18.5,-0.5"/>
<text text-anchor="start" x="26.5" y="-18.5" font-family="Helvetica,sans-Serif" font-size="10.00">std::enable_shared</text>
<text text-anchor="middle" x="68.5" y="-7.5" font-family="Helvetica,sans-Serif" font-size="10.00">_from_this&lt; node &gt;</text>
</a>
</g>
</g>
<!-- Node5&#45;&gt;Node2 -->
<g id="edge4" class="edge">
<title>Node5&#45;&gt;Node2</title>
<path fill="none" stroke="midnightblue" d="M127.9,-33.61C144.7,-38.82 162.83,-44.45 178.97,-49.45"/>
<polygon fill="midnightblue" stroke="midnightblue" points="128.78,-30.22 118.19,-30.6 126.71,-36.91 128.78,-30.22"/>
</g>
</g>
</svg>
