<?xml version="1.0" encoding="UTF-8" standalone="no"?>
<!DOCTYPE svg PUBLIC "-//W3C//DTD SVG 1.1//EN"
 "http://www.w3.org/Graphics/SVG/1.1/DTD/svg11.dtd">
<!-- Generated by graphviz version 2.42.3 ()
 -->
<!-- Title: automaton::core::data::msg::msg Pages: 1 -->
<svg width="299pt" height="2030pt"
 viewBox="0.00 0.00 299.00 2030.00" xmlns="http://www.w3.org/2000/svg" xmlns:xlink="http://www.w3.org/1999/xlink">
<g id="graph0" class="graph" transform="scale(1 1) rotate(0) translate(4 2026)">
<title>automaton::core::data::msg::msg</title>
<polygon fill="white" stroke="transparent" points="-4,4 -4,-2026 295,-2026 295,4 -4,4"/>
<!-- Node1 -->
<g id="node1" class="node">
<title>Node1</title>
<g id="a_node1"><a xlink:title=" ">
<polygon fill="#bfbfbf" stroke="black" points="182,-996 182,-1026 291,-1026 291,-996 182,-996"/>
<text text-anchor="start" x="190" y="-1014" font-family="Helvetica,sans-Serif" font-size="10.00">automaton::core::data</text>
<text text-anchor="middle" x="236.5" y="-1003" font-family="Helvetica,sans-Serif" font-size="10.00">::msg::msg</text>
</a>
</g>
</g>
<!-- Node2 -->
<g id="node2" class="node">
<title>Node2</title>
<g id="a_node2"><a xlink:href="../../d5/d36/classautomaton_1_1core_1_1data_1_1protobuf_1_1protobuf__msg.html#afc8107c18c2ff00add059deb170bd6bb" target="_top" xlink:title=" ">
<polygon fill="white" stroke="black" points="18.5,-1980.5 18.5,-2021.5 127.5,-2021.5 127.5,-1980.5 18.5,-1980.5"/>
<text text-anchor="start" x="26.5" y="-2009.5" font-family="Helvetica,sans-Serif" font-size="10.00">automaton::core::data</text>
<text text-anchor="start" x="26.5" y="-1998.5" font-family="Helvetica,sans-Serif" font-size="10.00">::protobuf::protobuf</text>
<text text-anchor="middle" x="73" y="-1987.5" font-family="Helvetica,sans-Serif" font-size="10.00">_msg::get_blob</text>
</a>
</g>
</g>
<!-- Node1&#45;&gt;Node2 -->
<g id="edge1" class="edge">
<title>Node1&#45;&gt;Node2</title>
<path fill="none" stroke="midnightblue" d="M234.68,-1036.28C229.83,-1180.3 203.05,-1893.48 146,-1971 141.18,-1977.54 134.67,-1982.67 127.52,-1986.68"/>
<polygon fill="midnightblue" stroke="midnightblue" points="238.18,-1036.32 235.02,-1026.21 231.19,-1036.08 238.18,-1036.32"/>
</g>
<!-- Node3 -->
<g id="node3" class="node">
<title>Node3</title>
<g id="a_node3"><a xlink:href="../../d5/d36/classautomaton_1_1core_1_1data_1_1protobuf_1_1protobuf__msg.html#af5885ae26f674c7a3bd43255aac2ff59" target="_top" xlink:title=" ">
<polygon fill="white" stroke="black" points="18.5,-1920.5 18.5,-1961.5 127.5,-1961.5 127.5,-1920.5 18.5,-1920.5"/>
<text text-anchor="start" x="26.5" y="-1949.5" font-family="Helvetica,sans-Serif" font-size="10.00">automaton::core::data</text>
<text text-anchor="start" x="26.5" y="-1938.5" font-family="Helvetica,sans-Serif" font-size="10.00">::protobuf::protobuf</text>
<text text-anchor="middle" x="73" y="-1927.5" font-family="Helvetica,sans-Serif" font-size="10.00">_msg::get_boolean</text>
</a>
</g>
</g>
<!-- Node1&#45;&gt;Node3 -->
<g id="edge2" class="edge">
<title>Node1&#45;&gt;Node3</title>
<path fill="none" stroke="midnightblue" d="M234.51,-1036.43C228.92,-1175.32 199.52,-1838.75 146,-1911 141.24,-1917.42 134.86,-1922.47 127.84,-1926.45"/>
<polygon fill="midnightblue" stroke="midnightblue" points="238.01,-1036.45 234.91,-1026.32 231.02,-1036.17 238.01,-1036.45"/>
</g>
<!-- Node4 -->
<g id="node4" class="node">
<title>Node4</title>
<g id="a_node4"><a xlink:href="../../d5/d36/classautomaton_1_1core_1_1data_1_1protobuf_1_1protobuf__msg.html#afeb92bde5e10bbcafc64a11551bbcc5f" target="_top" xlink:title=" ">
<polygon fill="white" stroke="black" points="18.5,-1860.5 18.5,-1901.5 127.5,-1901.5 127.5,-1860.5 18.5,-1860.5"/>
<text text-anchor="start" x="26.5" y="-1889.5" font-family="Helvetica,sans-Serif" font-size="10.00">automaton::core::data</text>
<text text-anchor="start" x="26.5" y="-1878.5" font-family="Helvetica,sans-Serif" font-size="10.00">::protobuf::protobuf</text>
<text text-anchor="middle" x="73" y="-1867.5" font-family="Helvetica,sans-Serif" font-size="10.00">_msg::get_enum</text>
</a>
</g>
</g>
<!-- Node1&#45;&gt;Node4 -->
<g id="edge3" class="edge">
<title>Node1&#45;&gt;Node4</title>
<path fill="none" stroke="midnightblue" d="M234.32,-1036.39C227.95,-1169.57 196.01,-1783.98 146,-1851 141.22,-1857.4 134.82,-1862.45 127.8,-1866.42"/>
<polygon fill="midnightblue" stroke="midnightblue" points="237.82,-1036.48 234.8,-1026.32 230.83,-1036.14 237.82,-1036.48"/>
</g>
<!-- Node5 -->
<g id="node5" class="node">
<title>Node5</title>
<g id="a_node5"><a xlink:href="../../d5/d36/classautomaton_1_1core_1_1data_1_1protobuf_1_1protobuf__msg.html#a454402819cecb6f623bcd11848c8f74e" target="_top" xlink:title=" ">
<polygon fill="white" stroke="black" points="18.5,-1800.5 18.5,-1841.5 127.5,-1841.5 127.5,-1800.5 18.5,-1800.5"/>
<text text-anchor="start" x="26.5" y="-1829.5" font-family="Helvetica,sans-Serif" font-size="10.00">automaton::core::data</text>
<text text-anchor="start" x="26.5" y="-1818.5" font-family="Helvetica,sans-Serif" font-size="10.00">::protobuf::protobuf</text>
<text text-anchor="middle" x="73" y="-1807.5" font-family="Helvetica,sans-Serif" font-size="10.00">_msg::get_field_tag</text>
</a>
</g>
</g>
<!-- Node1&#45;&gt;Node5 -->
<g id="edge4" class="edge">
<title>Node1&#45;&gt;Node5</title>
<path fill="none" stroke="midnightblue" d="M235.93,-1036.41C237.46,-1156.7 238.39,-1668.22 146,-1791 141.2,-1797.38 134.78,-1802.42 127.76,-1806.39"/>
<polygon fill="midnightblue" stroke="midnightblue" points="239.43,-1036.26 235.78,-1026.31 232.43,-1036.36 239.43,-1036.26"/>
</g>
<!-- Node6 -->
<g id="node6" class="node">
<title>Node6</title>
<g id="a_node6"><a xlink:href="../../d5/d36/classautomaton_1_1core_1_1data_1_1protobuf_1_1protobuf__msg.html#a705094d44aaf042462c9eb5b60136438" target="_top" xlink:title=" ">
<polygon fill="white" stroke="black" points="18.5,-1740.5 18.5,-1781.5 127.5,-1781.5 127.5,-1740.5 18.5,-1740.5"/>
<text text-anchor="start" x="26.5" y="-1769.5" font-family="Helvetica,sans-Serif" font-size="10.00">automaton::core::data</text>
<text text-anchor="start" x="26.5" y="-1758.5" font-family="Helvetica,sans-Serif" font-size="10.00">::protobuf::protobuf</text>
<text text-anchor="middle" x="73" y="-1747.5" font-family="Helvetica,sans-Serif" font-size="10.00">_msg::get_int32</text>
</a>
</g>
</g>
<!-- Node1&#45;&gt;Node6 -->
<g id="edge5" class="edge">
<title>Node1&#45;&gt;Node6</title>
<path fill="none" stroke="midnightblue" d="M235.65,-1036.24C235.87,-1150.49 231.47,-1618.54 146,-1731 141.17,-1737.36 134.74,-1742.38 127.7,-1746.35"/>
<polygon fill="midnightblue" stroke="midnightblue" points="239.15,-1036.02 235.62,-1026.03 232.15,-1036.04 239.15,-1036.02"/>
</g>
<!-- Node7 -->
<g id="node7" class="node">
<title>Node7</title>
<g id="a_node7"><a xlink:href="../../d5/d36/classautomaton_1_1core_1_1data_1_1protobuf_1_1protobuf__msg.html#aa154624ac161e7e0266ab3a294f38210" target="_top" xlink:title=" ">
<polygon fill="white" stroke="black" points="18.5,-1680.5 18.5,-1721.5 127.5,-1721.5 127.5,-1680.5 18.5,-1680.5"/>
<text text-anchor="start" x="26.5" y="-1709.5" font-family="Helvetica,sans-Serif" font-size="10.00">automaton::core::data</text>
<text text-anchor="start" x="26.5" y="-1698.5" font-family="Helvetica,sans-Serif" font-size="10.00">::protobuf::protobuf</text>
<text text-anchor="middle" x="73" y="-1687.5" font-family="Helvetica,sans-Serif" font-size="10.00">_msg::get_int64</text>
</a>
</g>
</g>
<!-- Node1&#45;&gt;Node7 -->
<g id="edge6" class="edge">
<title>Node1&#45;&gt;Node7</title>
<path fill="none" stroke="midnightblue" d="M235.34,-1036.2C234.16,-1144.42 224.53,-1568.85 146,-1671 141.13,-1677.33 134.68,-1682.34 127.64,-1686.3"/>
<polygon fill="midnightblue" stroke="midnightblue" points="238.84,-1036.23 235.43,-1026.2 231.84,-1036.16 238.84,-1036.23"/>
</g>
<!-- Node8 -->
<g id="node8" class="node">
<title>Node8</title>
<g id="a_node8"><a xlink:href="../../d5/d36/classautomaton_1_1core_1_1data_1_1protobuf_1_1protobuf__msg.html#ad5d455dcae10bde4ec57af8d67390190" target="_top" xlink:title=" ">
<polygon fill="white" stroke="black" points="18.5,-1620.5 18.5,-1661.5 127.5,-1661.5 127.5,-1620.5 18.5,-1620.5"/>
<text text-anchor="start" x="26.5" y="-1649.5" font-family="Helvetica,sans-Serif" font-size="10.00">automaton::core::data</text>
<text text-anchor="start" x="26.5" y="-1638.5" font-family="Helvetica,sans-Serif" font-size="10.00">::protobuf::protobuf</text>
<text text-anchor="middle" x="73" y="-1627.5" font-family="Helvetica,sans-Serif" font-size="10.00">_msg::get_message</text>
</a>
</g>
</g>
<!-- Node1&#45;&gt;Node8 -->
<g id="edge7" class="edge">
<title>Node1&#45;&gt;Node8</title>
<path fill="none" stroke="midnightblue" d="M234.96,-1036.17C232.29,-1138.09 217.6,-1519.13 146,-1611 141.09,-1617.3 134.62,-1622.29 127.56,-1626.24"/>
<polygon fill="midnightblue" stroke="midnightblue" points="238.46,-1036.25 235.2,-1026.17 231.46,-1036.08 238.46,-1036.25"/>
</g>
<!-- Node9 -->
<g id="node9" class="node">
<title>Node9</title>
<g id="a_node9"><a xlink:href="../../d5/d36/classautomaton_1_1core_1_1data_1_1protobuf_1_1protobuf__msg.html#a7c37bc4eae84e66cb2460a4b7acf9b11" target="_top" xlink:title=" ">
<polygon fill="white" stroke="black" points="10.5,-1560.5 10.5,-1601.5 135.5,-1601.5 135.5,-1560.5 10.5,-1560.5"/>
<text text-anchor="start" x="18.5" y="-1589.5" font-family="Helvetica,sans-Serif" font-size="10.00">automaton::core::data</text>
<text text-anchor="start" x="18.5" y="-1578.5" font-family="Helvetica,sans-Serif" font-size="10.00">::protobuf::protobuf</text>
<text text-anchor="middle" x="73" y="-1567.5" font-family="Helvetica,sans-Serif" font-size="10.00">_msg::get_repeated_blob</text>
</a>
</g>
</g>
<!-- Node1&#45;&gt;Node9 -->
<g id="edge8" class="edge">
<title>Node1&#45;&gt;Node9</title>
<path fill="none" stroke="midnightblue" d="M234.49,-1036.37C230.19,-1132.01 210.65,-1469.42 146,-1551 143.06,-1554.71 139.57,-1557.97 135.75,-1560.83"/>
<polygon fill="midnightblue" stroke="midnightblue" points="237.99,-1036.32 234.93,-1026.18 231,-1036.02 237.99,-1036.32"/>
</g>
<!-- Node10 -->
<g id="node10" class="node">
<title>Node10</title>
<g id="a_node10"><a xlink:href="../../d5/d36/classautomaton_1_1core_1_1data_1_1protobuf_1_1protobuf__msg.html#a505eb83e290a81d7676bf598d5051fbc" target="_top" xlink:title=" ">
<polygon fill="white" stroke="black" points="3,-1500.5 3,-1541.5 143,-1541.5 143,-1500.5 3,-1500.5"/>
<text text-anchor="start" x="11" y="-1529.5" font-family="Helvetica,sans-Serif" font-size="10.00">automaton::core::data</text>
<text text-anchor="start" x="11" y="-1518.5" font-family="Helvetica,sans-Serif" font-size="10.00">::protobuf::protobuf</text>
<text text-anchor="middle" x="73" y="-1507.5" font-family="Helvetica,sans-Serif" font-size="10.00">_msg::get_repeated_boolean</text>
</a>
</g>
</g>
<!-- Node1&#45;&gt;Node10 -->
<g id="edge9" class="edge">
<title>Node1&#45;&gt;Node10</title>
<path fill="none" stroke="midnightblue" d="M233.91,-1036.38C227.87,-1125.06 203.77,-1419.58 146,-1491 143.19,-1494.47 139.91,-1497.55 136.32,-1500.28"/>
<polygon fill="midnightblue" stroke="midnightblue" points="237.41,-1036.37 234.58,-1026.16 230.43,-1035.91 237.41,-1036.37"/>
</g>
<!-- Node11 -->
<g id="node11" class="node">
<title>Node11</title>
<g id="a_node11"><a xlink:href="../../d5/d36/classautomaton_1_1core_1_1data_1_1protobuf_1_1protobuf__msg.html#a377dd20186ea286988b5f5c7ea236f77" target="_top" xlink:title=" ">
<polygon fill="white" stroke="black" points="7.5,-1440.5 7.5,-1481.5 138.5,-1481.5 138.5,-1440.5 7.5,-1440.5"/>
<text text-anchor="start" x="15.5" y="-1469.5" font-family="Helvetica,sans-Serif" font-size="10.00">automaton::core::data</text>
<text text-anchor="start" x="15.5" y="-1458.5" font-family="Helvetica,sans-Serif" font-size="10.00">::protobuf::protobuf</text>
<text text-anchor="middle" x="73" y="-1447.5" font-family="Helvetica,sans-Serif" font-size="10.00">_msg::get_repeated_enum</text>
</a>
</g>
</g>
<!-- Node1&#45;&gt;Node11 -->
<g id="edge10" class="edge">
<title>Node1&#45;&gt;Node11</title>
<path fill="none" stroke="midnightblue" d="M233.17,-1036.32C225.25,-1117.52 196.95,-1369.65 146,-1431 143.06,-1434.54 139.63,-1437.67 135.89,-1440.44"/>
<polygon fill="midnightblue" stroke="midnightblue" points="236.69,-1036.32 234.15,-1026.04 229.72,-1035.66 236.69,-1036.32"/>
</g>
<!-- Node12 -->
<g id="node12" class="node">
<title>Node12</title>
<g id="a_node12"><a xlink:href="../../d5/d36/classautomaton_1_1core_1_1data_1_1protobuf_1_1protobuf__msg.html#a9ce094cd03c1c2162e44ea2186fe589e" target="_top" xlink:title=" ">
<polygon fill="white" stroke="black" points="0,-1380.5 0,-1421.5 146,-1421.5 146,-1380.5 0,-1380.5"/>
<text text-anchor="start" x="8" y="-1409.5" font-family="Helvetica,sans-Serif" font-size="10.00">automaton::core::data</text>
<text text-anchor="start" x="8" y="-1398.5" font-family="Helvetica,sans-Serif" font-size="10.00">::protobuf::protobuf</text>
<text text-anchor="middle" x="73" y="-1387.5" font-family="Helvetica,sans-Serif" font-size="10.00">_msg::get_repeated_field_size</text>
</a>
</g>
</g>
<!-- Node1&#45;&gt;Node12 -->
<g id="edge11" class="edge">
<title>Node1&#45;&gt;Node12</title>
<path fill="none" stroke="midnightblue" d="M232.17,-1036.51C222.13,-1109.9 190.11,-1319.66 146,-1371 143,-1374.49 139.53,-1377.59 135.76,-1380.33"/>
<polygon fill="midnightblue" stroke="midnightblue" points="235.67,-1036.7 233.54,-1026.32 228.74,-1035.76 235.67,-1036.7"/>
</g>
<!-- Node13 -->
<g id="node13" class="node">
<title>Node13</title>
<g id="a_node13"><a xlink:href="../../d5/d36/classautomaton_1_1core_1_1data_1_1protobuf_1_1protobuf__msg.html#a01a5920cdf74978a4c915ce4afccdd3b" target="_top" xlink:title=" ">
<polygon fill="white" stroke="black" points="9,-1320.5 9,-1361.5 137,-1361.5 137,-1320.5 9,-1320.5"/>
<text text-anchor="start" x="17" y="-1349.5" font-family="Helvetica,sans-Serif" font-size="10.00">automaton::core::data</text>
<text text-anchor="start" x="17" y="-1338.5" font-family="Helvetica,sans-Serif" font-size="10.00">::protobuf::protobuf</text>
<text text-anchor="middle" x="73" y="-1327.5" font-family="Helvetica,sans-Serif" font-size="10.00">_msg::get_repeated_int32</text>
</a>
</g>
</g>
<!-- Node1&#45;&gt;Node13 -->
<g id="edge12" class="edge">
<title>Node1&#45;&gt;Node13</title>
<path fill="none" stroke="midnightblue" d="M234.95,-1036.45C232.4,-1092.98 218.62,-1230.34 146,-1311 142.83,-1314.52 139.18,-1317.64 135.24,-1320.4"/>
<polygon fill="midnightblue" stroke="midnightblue" points="238.46,-1036.39 235.33,-1026.27 231.46,-1036.13 238.46,-1036.39"/>
</g>
<!-- Node14 -->
<g id="node14" class="node">
<title>Node14</title>
<g id="a_node14"><a xlink:href="../../d5/d36/classautomaton_1_1core_1_1data_1_1protobuf_1_1protobuf__msg.html#a44eb85a756f4927faa15db7fbd60dad7" target="_top" xlink:title=" ">
<polygon fill="white" stroke="black" points="9,-1260.5 9,-1301.5 137,-1301.5 137,-1260.5 9,-1260.5"/>
<text text-anchor="start" x="17" y="-1289.5" font-family="Helvetica,sans-Serif" font-size="10.00">automaton::core::data</text>
<text text-anchor="start" x="17" y="-1278.5" font-family="Helvetica,sans-Serif" font-size="10.00">::protobuf::protobuf</text>
<text text-anchor="middle" x="73" y="-1267.5" font-family="Helvetica,sans-Serif" font-size="10.00">_msg::get_repeated_int64</text>
</a>
</g>
</g>
<!-- Node1&#45;&gt;Node14 -->
<g id="edge13" class="edge">
<title>Node1&#45;&gt;Node14</title>
<path fill="none" stroke="midnightblue" d="M232.72,-1036.24C226.16,-1084.19 205.52,-1189.18 146,-1251 142.62,-1254.51 138.76,-1257.63 134.64,-1260.39"/>
<polygon fill="midnightblue" stroke="midnightblue" points="236.22,-1036.48 234.01,-1026.12 229.27,-1035.6 236.22,-1036.48"/>
</g>
<!-- Node15 -->
<g id="node15" class="node">
<title>Node15</title>
<g id="a_node15"><a xlink:href="../../d5/d36/classautomaton_1_1core_1_1data_1_1protobuf_1_1protobuf__msg.html#a79d0d6f0423fb0612f53946a9908ba77" target="_top" xlink:title=" ">
<polygon fill="white" stroke="black" points="0,-1200.5 0,-1241.5 146,-1241.5 146,-1200.5 0,-1200.5"/>
<text text-anchor="start" x="8" y="-1229.5" font-family="Helvetica,sans-Serif" font-size="10.00">automaton::core::data</text>
<text text-anchor="start" x="8" y="-1218.5" font-family="Helvetica,sans-Serif" font-size="10.00">::protobuf::protobuf</text>
<text text-anchor="middle" x="73" y="-1207.5" font-family="Helvetica,sans-Serif" font-size="10.00">_msg::get_repeated_message</text>
</a>
</g>
</g>
<!-- Node1&#45;&gt;Node15 -->
<g id="edge14" class="edge">
<title>Node1&#45;&gt;Node15</title>
<path fill="none" stroke="midnightblue" d="M229.16,-1036.04C218.28,-1074.29 192.59,-1147.41 146,-1191 142.24,-1194.52 138.01,-1197.65 133.54,-1200.43"/>
<polygon fill="midnightblue" stroke="midnightblue" points="232.58,-1036.8 231.84,-1026.23 225.83,-1034.95 232.58,-1036.8"/>
</g>
<!-- Node16 -->
<g id="node16" class="node">
<title>Node16</title>
<g id="a_node16"><a xlink:href="../../d5/d36/classautomaton_1_1core_1_1data_1_1protobuf_1_1protobuf__msg.html#acc61fced84e691fdc54b5f396fe07711" target="_top" xlink:title=" ">
<polygon fill="white" stroke="black" points="6.5,-1140.5 6.5,-1181.5 139.5,-1181.5 139.5,-1140.5 6.5,-1140.5"/>
<text text-anchor="start" x="14.5" y="-1169.5" font-family="Helvetica,sans-Serif" font-size="10.00">automaton::core::data</text>
<text text-anchor="start" x="14.5" y="-1158.5" font-family="Helvetica,sans-Serif" font-size="10.00">::protobuf::protobuf</text>
<text text-anchor="middle" x="73" y="-1147.5" font-family="Helvetica,sans-Serif" font-size="10.00">_msg::get_repeated_uint32</text>
</a>
</g>
</g>
<!-- Node1&#45;&gt;Node16 -->
<g id="edge15" class="edge">
<title>Node1&#45;&gt;Node16</title>
<path fill="none" stroke="midnightblue" d="M222.61,-1035.39C207.44,-1062.06 179.95,-1104.52 146,-1131 141.52,-1134.5 136.56,-1137.66 131.42,-1140.49"/>
<polygon fill="midnightblue" stroke="midnightblue" points="225.84,-1036.78 227.63,-1026.34 219.72,-1033.39 225.84,-1036.78"/>
</g>
<!-- Node17 -->
<g id="node17" class="node">
<title>Node17</title>
<g id="a_node17"><a xlink:href="../../d5/d36/classautomaton_1_1core_1_1data_1_1protobuf_1_1protobuf__msg.html#ae50ffebecaab7da4eff368cabd263303" target="_top" xlink:title=" ">
<polygon fill="white" stroke="black" points="6.5,-1080.5 6.5,-1121.5 139.5,-1121.5 139.5,-1080.5 6.5,-1080.5"/>
<text text-anchor="start" x="14.5" y="-1109.5" font-family="Helvetica,sans-Serif" font-size="10.00">automaton::core::data</text>
<text text-anchor="start" x="14.5" y="-1098.5" font-family="Helvetica,sans-Serif" font-size="10.00">::protobuf::protobuf</text>
<text text-anchor="middle" x="73" y="-1087.5" font-family="Helvetica,sans-Serif" font-size="10.00">_msg::get_repeated_uint64</text>
</a>
</g>
</g>
<!-- Node1&#45;&gt;Node17 -->
<g id="edge16" class="edge">
<title>Node1&#45;&gt;Node17</title>
<path fill="none" stroke="midnightblue" d="M207.15,-1032.1C189.97,-1044.34 167.33,-1059.55 146,-1071 139.92,-1074.27 133.4,-1077.42 126.86,-1080.38"/>
<polygon fill="midnightblue" stroke="midnightblue" points="209.53,-1034.69 215.59,-1026 205.44,-1029.02 209.53,-1034.69"/>
</g>
<!-- Node18 -->
<g id="node18" class="node">
<title>Node18</title>
<g id="a_node18"><a xlink:href="../../d5/d36/classautomaton_1_1core_1_1data_1_1protobuf_1_1protobuf__msg.html#a16529e903d6f66281e52d488777e4d3f" target="_top" xlink:title=" ">
<polygon fill="white" stroke="black" points="18.5,-1020.5 18.5,-1061.5 127.5,-1061.5 127.5,-1020.5 18.5,-1020.5"/>
<text text-anchor="start" x="26.5" y="-1049.5" font-family="Helvetica,sans-Serif" font-size="10.00">automaton::core::data</text>
<text text-anchor="start" x="26.5" y="-1038.5" font-family="Helvetica,sans-Serif" font-size="10.00">::protobuf::protobuf</text>
<text text-anchor="middle" x="73" y="-1027.5" font-family="Helvetica,sans-Serif" font-size="10.00">_msg::get_uint32</text>
</a>
</g>
</g>
<!-- Node1&#45;&gt;Node18 -->
<g id="edge17" class="edge">
<title>Node1&#45;&gt;Node18</title>
<path fill="none" stroke="midnightblue" d="M171.74,-1022.84C157.11,-1025.56 141.69,-1028.43 127.54,-1031.05"/>
<polygon fill="midnightblue" stroke="midnightblue" points="172.53,-1026.26 181.72,-1020.99 171.25,-1019.37 172.53,-1026.26"/>
</g>
<!-- Node19 -->
<g id="node19" class="node">
<title>Node19</title>
<g id="a_node19"><a xlink:href="../../d5/d36/classautomaton_1_1core_1_1data_1_1protobuf_1_1protobuf__msg.html#af686d0e7cafff78ef6f43fe482ca078a" target="_top" xlink:title=" ">
<polygon fill="white" stroke="black" points="18.5,-960.5 18.5,-1001.5 127.5,-1001.5 127.5,-960.5 18.5,-960.5"/>
<text text-anchor="start" x="26.5" y="-989.5" font-family="Helvetica,sans-Serif" font-size="10.00">automaton::core::data</text>
<text text-anchor="start" x="26.5" y="-978.5" font-family="Helvetica,sans-Serif" font-size="10.00">::protobuf::protobuf</text>
<text text-anchor="middle" x="73" y="-967.5" font-family="Helvetica,sans-Serif" font-size="10.00">_msg::get_uint64</text>
</a>
</g>
</g>
<!-- Node1&#45;&gt;Node19 -->
<g id="edge18" class="edge">
<title>Node1&#45;&gt;Node19</title>
<path fill="none" stroke="midnightblue" d="M171.74,-999.16C157.11,-996.44 141.69,-993.57 127.54,-990.95"/>
<polygon fill="midnightblue" stroke="midnightblue" points="171.25,-1002.63 181.72,-1001.01 172.53,-995.74 171.25,-1002.63"/>
</g>
<!-- Node20 -->
<g id="node20" class="node">
<title>Node20</title>
<g id="a_node20"><a xlink:href="../../d5/d36/classautomaton_1_1core_1_1data_1_1protobuf_1_1protobuf__msg.html#a71e10e9b38804873b9232fb1a8a5ca42" target="_top" xlink:title="Blob (string, bytes, ...)">
<polygon fill="white" stroke="black" points="18.5,-900.5 18.5,-941.5 127.5,-941.5 127.5,-900.5 18.5,-900.5"/>
<text text-anchor="start" x="26.5" y="-929.5" font-family="Helvetica,sans-Serif" font-size="10.00">automaton::core::data</text>
<text text-anchor="start" x="26.5" y="-918.5" font-family="Helvetica,sans-Serif" font-size="10.00">::protobuf::protobuf</text>
<text text-anchor="middle" x="73" y="-907.5" font-family="Helvetica,sans-Serif" font-size="10.00">_msg::set_blob</text>
</a>
</g>
</g>
<!-- Node1&#45;&gt;Node20 -->
<g id="edge19" class="edge">
<title>Node1&#45;&gt;Node20</title>
<path fill="none" stroke="midnightblue" d="M207.15,-989.9C189.97,-977.66 167.33,-962.45 146,-951 139.92,-947.73 133.4,-944.58 126.86,-941.62"/>
<polygon fill="midnightblue" stroke="midnightblue" points="205.44,-992.98 215.59,-996 209.53,-987.31 205.44,-992.98"/>
</g>
<!-- Node21 -->
<g id="node21" class="node">
<title>Node21</title>
<g id="a_node21"><a xlink:href="../../d5/d36/classautomaton_1_1core_1_1data_1_1protobuf_1_1protobuf__msg.html#a739337f16ad5d3e97ce76bccda744352" target="_top" xlink:title="Boolean.">
<polygon fill="white" stroke="black" points="18.5,-840.5 18.5,-881.5 127.5,-881.5 127.5,-840.5 18.5,-840.5"/>
<text text-anchor="start" x="26.5" y="-869.5" font-family="Helvetica,sans-Serif" font-size="10.00">automaton::core::data</text>
<text text-anchor="start" x="26.5" y="-858.5" font-family="Helvetica,sans-Serif" font-size="10.00">::protobuf::protobuf</text>
<text text-anchor="middle" x="73" y="-847.5" font-family="Helvetica,sans-Serif" font-size="10.00">_msg::set_boolean</text>
</a>
</g>
</g>
<!-- Node1&#45;&gt;Node21 -->
<g id="edge20" class="edge">
<title>Node1&#45;&gt;Node21</title>
<path fill="none" stroke="midnightblue" d="M222.61,-986.61C207.44,-959.94 179.95,-917.48 146,-891 140.45,-886.67 134.18,-882.86 127.72,-879.54"/>
<polygon fill="midnightblue" stroke="midnightblue" points="219.72,-988.61 227.63,-995.66 225.84,-985.22 219.72,-988.61"/>
</g>
<!-- Node22 -->
<g id="node22" class="node">
<title>Node22</title>
<g id="a_node22"><a xlink:href="../../d5/d36/classautomaton_1_1core_1_1data_1_1protobuf_1_1protobuf__msg.html#ae0a51875adeb5cb0fa20111c7f40faf5" target="_top" xlink:title=" ">
<polygon fill="white" stroke="black" points="18.5,-780.5 18.5,-821.5 127.5,-821.5 127.5,-780.5 18.5,-780.5"/>
<text text-anchor="start" x="26.5" y="-809.5" font-family="Helvetica,sans-Serif" font-size="10.00">automaton::core::data</text>
<text text-anchor="start" x="26.5" y="-798.5" font-family="Helvetica,sans-Serif" font-size="10.00">::protobuf::protobuf</text>
<text text-anchor="middle" x="73" y="-787.5" font-family="Helvetica,sans-Serif" font-size="10.00">_msg::set_enum</text>
</a>
</g>
</g>
<!-- Node1&#45;&gt;Node22 -->
<g id="edge21" class="edge">
<title>Node1&#45;&gt;Node22</title>
<path fill="none" stroke="midnightblue" d="M229.16,-985.96C218.28,-947.71 192.59,-874.59 146,-831 140.66,-826 134.37,-821.78 127.77,-818.23"/>
<polygon fill="midnightblue" stroke="midnightblue" points="225.83,-987.05 231.84,-995.77 232.58,-985.2 225.83,-987.05"/>
</g>
<!-- Node23 -->
<g id="node23" class="node">
<title>Node23</title>
<g id="a_node23"><a xlink:href="../../d5/d36/classautomaton_1_1core_1_1data_1_1protobuf_1_1protobuf__msg.html#a7790135de9164df85fad6db85b29ba8f" target="_top" xlink:title="Int 32.">
<polygon fill="white" stroke="black" points="18.5,-720.5 18.5,-761.5 127.5,-761.5 127.5,-720.5 18.5,-720.5"/>
<text text-anchor="start" x="26.5" y="-749.5" font-family="Helvetica,sans-Serif" font-size="10.00">automaton::core::data</text>
<text text-anchor="start" x="26.5" y="-738.5" font-family="Helvetica,sans-Serif" font-size="10.00">::protobuf::protobuf</text>
<text text-anchor="middle" x="73" y="-727.5" font-family="Helvetica,sans-Serif" font-size="10.00">_msg::set_int32</text>
</a>
</g>
</g>
<!-- Node1&#45;&gt;Node23 -->
<g id="edge22" class="edge">
<title>Node1&#45;&gt;Node23</title>
<path fill="none" stroke="midnightblue" d="M232.72,-985.76C226.16,-937.81 205.52,-832.82 146,-771 140.74,-765.54 134.34,-761.03 127.54,-757.32"/>
<polygon fill="midnightblue" stroke="midnightblue" points="229.27,-986.4 234.01,-995.88 236.22,-985.52 229.27,-986.4"/>
</g>
<!-- Node24 -->
<g id="node24" class="node">
<title>Node24</title>
<g id="a_node24"><a xlink:href="../../d5/d36/classautomaton_1_1core_1_1data_1_1protobuf_1_1protobuf__msg.html#aa9803aef4286c55c21681e19e5a4ad34" target="_top" xlink:title="Int 64.">
<polygon fill="white" stroke="black" points="18.5,-660.5 18.5,-701.5 127.5,-701.5 127.5,-660.5 18.5,-660.5"/>
<text text-anchor="start" x="26.5" y="-689.5" font-family="Helvetica,sans-Serif" font-size="10.00">automaton::core::data</text>
<text text-anchor="start" x="26.5" y="-678.5" font-family="Helvetica,sans-Serif" font-size="10.00">::protobuf::protobuf</text>
<text text-anchor="middle" x="73" y="-667.5" font-family="Helvetica,sans-Serif" font-size="10.00">_msg::set_int64</text>
</a>
</g>
</g>
<!-- Node1&#45;&gt;Node24 -->
<g id="edge23" class="edge">
<title>Node1&#45;&gt;Node24</title>
<path fill="none" stroke="midnightblue" d="M234.95,-985.55C232.4,-929.02 218.62,-791.66 146,-711 140.84,-705.26 134.4,-700.59 127.52,-696.8"/>
<polygon fill="midnightblue" stroke="midnightblue" points="231.46,-985.87 235.33,-995.73 238.46,-985.61 231.46,-985.87"/>
</g>
<!-- Node25 -->
<g id="node25" class="node">
<title>Node25</title>
<g id="a_node25"><a xlink:href="../../d5/d36/classautomaton_1_1core_1_1data_1_1protobuf_1_1protobuf__msg.html#a2e4cc1a225edd6f1ca463df7e78210f7" target="_top" xlink:title="Message.">
<polygon fill="white" stroke="black" points="18.5,-600.5 18.5,-641.5 127.5,-641.5 127.5,-600.5 18.5,-600.5"/>
<text text-anchor="start" x="26.5" y="-629.5" font-family="Helvetica,sans-Serif" font-size="10.00">automaton::core::data</text>
<text text-anchor="start" x="26.5" y="-618.5" font-family="Helvetica,sans-Serif" font-size="10.00">::protobuf::protobuf</text>
<text text-anchor="middle" x="73" y="-607.5" font-family="Helvetica,sans-Serif" font-size="10.00">_msg::set_message</text>
</a>
</g>
</g>
<!-- Node1&#45;&gt;Node25 -->
<g id="edge24" class="edge">
<title>Node1&#45;&gt;Node25</title>
<path fill="none" stroke="midnightblue" d="M232.17,-985.49C222.13,-912.1 190.11,-702.34 146,-651 140.97,-645.15 134.61,-640.41 127.76,-636.59"/>
<polygon fill="midnightblue" stroke="midnightblue" points="228.74,-986.24 233.54,-995.68 235.67,-985.3 228.74,-986.24"/>
</g>
<!-- Node26 -->
<g id="node26" class="node">
<title>Node26</title>
<g id="a_node26"><a xlink:href="../../d5/d36/classautomaton_1_1core_1_1data_1_1protobuf_1_1protobuf__msg.html#a7f4f95e1d495ede8cbe454e9dc056e73" target="_top" xlink:title=" ">
<polygon fill="white" stroke="black" points="10.5,-540.5 10.5,-581.5 135.5,-581.5 135.5,-540.5 10.5,-540.5"/>
<text text-anchor="start" x="18.5" y="-569.5" font-family="Helvetica,sans-Serif" font-size="10.00">automaton::core::data</text>
<text text-anchor="start" x="18.5" y="-558.5" font-family="Helvetica,sans-Serif" font-size="10.00">::protobuf::protobuf</text>
<text text-anchor="middle" x="73" y="-547.5" font-family="Helvetica,sans-Serif" font-size="10.00">_msg::set_repeated_blob</text>
</a>
</g>
</g>
<!-- Node1&#45;&gt;Node26 -->
<g id="edge25" class="edge">
<title>Node1&#45;&gt;Node26</title>
<path fill="none" stroke="midnightblue" d="M233.17,-985.68C225.25,-904.48 196.95,-652.35 146,-591 142.97,-587.35 139.43,-584.14 135.56,-581.32"/>
<polygon fill="midnightblue" stroke="midnightblue" points="229.72,-986.34 234.15,-995.96 236.69,-985.68 229.72,-986.34"/>
</g>
<!-- Node27 -->
<g id="node27" class="node">
<title>Node27</title>
<g id="a_node27"><a xlink:href="../../d5/d36/classautomaton_1_1core_1_1data_1_1protobuf_1_1protobuf__msg.html#af39067cb988d89391a2f03078e12e8c7" target="_top" xlink:title=" ">
<polygon fill="white" stroke="black" points="3,-480.5 3,-521.5 143,-521.5 143,-480.5 3,-480.5"/>
<text text-anchor="start" x="11" y="-509.5" font-family="Helvetica,sans-Serif" font-size="10.00">automaton::core::data</text>
<text text-anchor="start" x="11" y="-498.5" font-family="Helvetica,sans-Serif" font-size="10.00">::protobuf::protobuf</text>
<text text-anchor="middle" x="73" y="-487.5" font-family="Helvetica,sans-Serif" font-size="10.00">_msg::set_repeated_boolean</text>
</a>
</g>
</g>
<!-- Node1&#45;&gt;Node27 -->
<g id="edge26" class="edge">
<title>Node1&#45;&gt;Node27</title>
<path fill="none" stroke="midnightblue" d="M233.91,-985.62C227.87,-896.94 203.77,-602.42 146,-531 143.19,-527.53 139.91,-524.45 136.32,-521.72"/>
<polygon fill="midnightblue" stroke="midnightblue" points="230.43,-986.09 234.58,-995.84 237.41,-985.63 230.43,-986.09"/>
</g>
<!-- Node28 -->
<g id="node28" class="node">
<title>Node28</title>
<g id="a_node28"><a xlink:href="../../d5/d36/classautomaton_1_1core_1_1data_1_1protobuf_1_1protobuf__msg.html#a3e8e4c9d07ba21ce73addc06f5f376b5" target="_top" xlink:title=" ">
<polygon fill="white" stroke="black" points="7.5,-420.5 7.5,-461.5 138.5,-461.5 138.5,-420.5 7.5,-420.5"/>
<text text-anchor="start" x="15.5" y="-449.5" font-family="Helvetica,sans-Serif" font-size="10.00">automaton::core::data</text>
<text text-anchor="start" x="15.5" y="-438.5" font-family="Helvetica,sans-Serif" font-size="10.00">::protobuf::protobuf</text>
<text text-anchor="middle" x="73" y="-427.5" font-family="Helvetica,sans-Serif" font-size="10.00">_msg::set_repeated_enum</text>
</a>
</g>
</g>
<!-- Node1&#45;&gt;Node28 -->
<g id="edge27" class="edge">
<title>Node1&#45;&gt;Node28</title>
<path fill="none" stroke="midnightblue" d="M234.49,-985.63C230.19,-889.99 210.65,-552.58 146,-471 143.22,-467.5 139.97,-464.4 136.4,-461.66"/>
<polygon fill="midnightblue" stroke="midnightblue" points="231,-985.98 234.93,-995.82 237.99,-985.68 231,-985.98"/>
</g>
<!-- Node29 -->
<g id="node29" class="node">
<title>Node29</title>
<g id="a_node29"><a xlink:href="../../d5/d36/classautomaton_1_1core_1_1data_1_1protobuf_1_1protobuf__msg.html#a8880de3d617f7b154bf124f85a5c20dc" target="_top" xlink:title=" ">
<polygon fill="white" stroke="black" points="9,-360.5 9,-401.5 137,-401.5 137,-360.5 9,-360.5"/>
<text text-anchor="start" x="17" y="-389.5" font-family="Helvetica,sans-Serif" font-size="10.00">automaton::core::data</text>
<text text-anchor="start" x="17" y="-378.5" font-family="Helvetica,sans-Serif" font-size="10.00">::protobuf::protobuf</text>
<text text-anchor="middle" x="73" y="-367.5" font-family="Helvetica,sans-Serif" font-size="10.00">_msg::set_repeated_int32</text>
</a>
</g>
</g>
<!-- Node1&#45;&gt;Node29 -->
<g id="edge28" class="edge">
<title>Node1&#45;&gt;Node29</title>
<path fill="none" stroke="midnightblue" d="M234.96,-985.83C232.29,-883.91 217.6,-502.87 146,-411 143.25,-407.48 140.02,-404.36 136.47,-401.61"/>
<polygon fill="midnightblue" stroke="midnightblue" points="231.46,-985.92 235.2,-995.83 238.46,-985.75 231.46,-985.92"/>
</g>
<!-- Node30 -->
<g id="node30" class="node">
<title>Node30</title>
<g id="a_node30"><a xlink:href="../../d5/d36/classautomaton_1_1core_1_1data_1_1protobuf_1_1protobuf__msg.html#a6dd4ed7e90fba7f0a7821e077da258b8" target="_top" xlink:title=" ">
<polygon fill="white" stroke="black" points="9,-300.5 9,-341.5 137,-341.5 137,-300.5 9,-300.5"/>
<text text-anchor="start" x="17" y="-329.5" font-family="Helvetica,sans-Serif" font-size="10.00">automaton::core::data</text>
<text text-anchor="start" x="17" y="-318.5" font-family="Helvetica,sans-Serif" font-size="10.00">::protobuf::protobuf</text>
<text text-anchor="middle" x="73" y="-307.5" font-family="Helvetica,sans-Serif" font-size="10.00">_msg::set_repeated_int64</text>
</a>
</g>
</g>
<!-- Node1&#45;&gt;Node30 -->
<g id="edge29" class="edge">
<title>Node1&#45;&gt;Node30</title>
<path fill="none" stroke="midnightblue" d="M235.34,-985.8C234.16,-877.58 224.53,-453.15 146,-351 143.28,-347.46 140.06,-344.33 136.52,-341.57"/>
<polygon fill="midnightblue" stroke="midnightblue" points="231.84,-985.84 235.43,-995.8 238.84,-985.77 231.84,-985.84"/>
</g>
<!-- Node31 -->
<g id="node31" class="node">
<title>Node31</title>
<g id="a_node31"><a xlink:href="../../d5/d36/classautomaton_1_1core_1_1data_1_1protobuf_1_1protobuf__msg.html#a03a7b4eec8dad4d934968613ea74aa7b" target="_top" xlink:title=" ">
<polygon fill="white" stroke="black" points="0,-240.5 0,-281.5 146,-281.5 146,-240.5 0,-240.5"/>
<text text-anchor="start" x="8" y="-269.5" font-family="Helvetica,sans-Serif" font-size="10.00">automaton::core::data</text>
<text text-anchor="start" x="8" y="-258.5" font-family="Helvetica,sans-Serif" font-size="10.00">::protobuf::protobuf</text>
<text text-anchor="middle" x="73" y="-247.5" font-family="Helvetica,sans-Serif" font-size="10.00">_msg::set_repeated_message</text>
</a>
</g>
</g>
<!-- Node1&#45;&gt;Node31 -->
<g id="edge30" class="edge">
<title>Node1&#45;&gt;Node31</title>
<path fill="none" stroke="midnightblue" d="M235.65,-985.76C235.87,-871.51 231.47,-403.46 146,-291 143.3,-287.44 140.09,-284.3 136.56,-281.53"/>
<polygon fill="midnightblue" stroke="midnightblue" points="232.15,-985.96 235.62,-995.97 239.15,-985.98 232.15,-985.96"/>
</g>
<!-- Node32 -->
<g id="node32" class="node">
<title>Node32</title>
<g id="a_node32"><a xlink:href="../../d5/d36/classautomaton_1_1core_1_1data_1_1protobuf_1_1protobuf__msg.html#a414402bb2ecc9e2157a1363234d7c219" target="_top" xlink:title=" ">
<polygon fill="white" stroke="black" points="6.5,-180.5 6.5,-221.5 139.5,-221.5 139.5,-180.5 6.5,-180.5"/>
<text text-anchor="start" x="14.5" y="-209.5" font-family="Helvetica,sans-Serif" font-size="10.00">automaton::core::data</text>
<text text-anchor="start" x="14.5" y="-198.5" font-family="Helvetica,sans-Serif" font-size="10.00">::protobuf::protobuf</text>
<text text-anchor="middle" x="73" y="-187.5" font-family="Helvetica,sans-Serif" font-size="10.00">_msg::set_repeated_uint32</text>
</a>
</g>
</g>
<!-- Node1&#45;&gt;Node32 -->
<g id="edge31" class="edge">
<title>Node1&#45;&gt;Node32</title>
<path fill="none" stroke="midnightblue" d="M235.93,-985.59C237.46,-865.3 238.39,-353.78 146,-231 143.31,-227.43 140.12,-224.28 136.6,-221.5"/>
<polygon fill="midnightblue" stroke="midnightblue" points="232.43,-985.64 235.78,-995.69 239.43,-985.74 232.43,-985.64"/>
</g>
<!-- Node33 -->
<g id="node33" class="node">
<title>Node33</title>
<g id="a_node33"><a xlink:href="../../d5/d36/classautomaton_1_1core_1_1data_1_1protobuf_1_1protobuf__msg.html#a31abe098641339cf4c06afbacd47d8dd" target="_top" xlink:title=" ">
<polygon fill="white" stroke="black" points="6.5,-120.5 6.5,-161.5 139.5,-161.5 139.5,-120.5 6.5,-120.5"/>
<text text-anchor="start" x="14.5" y="-149.5" font-family="Helvetica,sans-Serif" font-size="10.00">automaton::core::data</text>
<text text-anchor="start" x="14.5" y="-138.5" font-family="Helvetica,sans-Serif" font-size="10.00">::protobuf::protobuf</text>
<text text-anchor="middle" x="73" y="-127.5" font-family="Helvetica,sans-Serif" font-size="10.00">_msg::set_repeated_uint64</text>
</a>
</g>
</g>
<!-- Node1&#45;&gt;Node33 -->
<g id="edge32" class="edge">
<title>Node1&#45;&gt;Node33</title>
<path fill="none" stroke="midnightblue" d="M234.32,-985.61C227.95,-852.43 196.01,-238.02 146,-171 143.41,-167.53 140.34,-164.45 136.95,-161.73"/>
<polygon fill="midnightblue" stroke="midnightblue" points="230.83,-985.86 234.8,-995.68 237.82,-985.52 230.83,-985.86"/>
</g>
<!-- Node34 -->
<g id="node34" class="node">
<title>Node34</title>
<g id="a_node34"><a xlink:href="../../d5/d36/classautomaton_1_1core_1_1data_1_1protobuf_1_1protobuf__msg.html#aa22c7352faa607eb3904953e4b72060a" target="_top" xlink:title="uint32_t 32">
<polygon fill="white" stroke="black" points="18.5,-60.5 18.5,-101.5 127.5,-101.5 127.5,-60.5 18.5,-60.5"/>
<text text-anchor="start" x="26.5" y="-89.5" font-family="Helvetica,sans-Serif" font-size="10.00">automaton::core::data</text>
<text text-anchor="start" x="26.5" y="-78.5" font-family="Helvetica,sans-Serif" font-size="10.00">::protobuf::protobuf</text>
<text text-anchor="middle" x="73" y="-67.5" font-family="Helvetica,sans-Serif" font-size="10.00">_msg::set_uint32</text>
</a>
</g>
</g>
<!-- Node1&#45;&gt;Node34 -->
<g id="edge33" class="edge">
<title>Node1&#45;&gt;Node34</title>
<path fill="none" stroke="midnightblue" d="M234.51,-985.57C228.92,-846.68 199.52,-183.25 146,-111 141.24,-104.58 134.86,-99.53 127.84,-95.55"/>
<polygon fill="midnightblue" stroke="midnightblue" points="231.02,-985.83 234.91,-995.68 238.01,-985.55 231.02,-985.83"/>
</g>
<!-- Node35 -->
<g id="node35" class="node">
<title>Node35</title>
<g id="a_node35"><a xlink:href="../../d5/d36/classautomaton_1_1core_1_1data_1_1protobuf_1_1protobuf__msg.html#a0406336df6394bd33b5cf291479c2adc" target="_top" xlink:title="uint32_t 64">
<polygon fill="white" stroke="black" points="18.5,-0.5 18.5,-41.5 127.5,-41.5 127.5,-0.5 18.5,-0.5"/>
<text text-anchor="start" x="26.5" y="-29.5" font-family="Helvetica,sans-Serif" font-size="10.00">automaton::core::data</text>
<text text-anchor="start" x="26.5" y="-18.5" font-family="Helvetica,sans-Serif" font-size="10.00">::protobuf::protobuf</text>
<text text-anchor="middle" x="73" y="-7.5" font-family="Helvetica,sans-Serif" font-size="10.00">_msg::set_uint64</text>
</a>
</g>
</g>
<!-- Node1&#45;&gt;Node35 -->
<g id="edge34" class="edge">
<title>Node1&#45;&gt;Node35</title>
<path fill="none" stroke="midnightblue" d="M234.68,-985.72C229.83,-841.7 203.05,-128.52 146,-51 141.18,-44.46 134.67,-39.33 127.52,-35.32"/>
<polygon fill="midnightblue" stroke="midnightblue" points="231.19,-985.92 235.02,-995.79 238.18,-985.68 231.19,-985.92"/>
</g>
</g>
</svg>
