<?xml version="1.0" encoding="UTF-8" standalone="no"?>
<!DOCTYPE svg PUBLIC "-//W3C//DTD SVG 1.1//EN"
 "http://www.w3.org/Graphics/SVG/1.1/DTD/svg11.dtd">
<!-- Generated by graphviz version 2.44.0 ()
 -->
<!-- Title: automaton::core::data::msg::get_field_info_by_tag Pages: 1 -->
<svg width="491pt" height="50pt"
 viewBox="0.00 0.00 491.00 50.00" xmlns="http://www.w3.org/2000/svg" xmlns:xlink="http://www.w3.org/1999/xlink">
<g id="graph0" class="graph" transform="scale(1 1) rotate(0) translate(4 46)">
<title>automaton::core::data::msg::get_field_info_by_tag</title>
<polygon fill="white" stroke="transparent" points="-4,4 -4,-46 487,-46 487,4 -4,4"/>
<!-- Node1 -->
<g id="node1" class="node">
<title>Node1</title>
<g id="a_node1"><a xlink:title=" ">
<polygon fill="#bfbfbf" stroke="black" points="374,-0.5 374,-41.5 483,-41.5 483,-0.5 374,-0.5"/>
<text text-anchor="start" x="382" y="-29.5" font-family="Helvetica,sans-Serif" font-size="10.00">automaton::core::data</text>
<text text-anchor="start" x="382" y="-18.5" font-family="Helvetica,sans-Serif" font-size="10.00">::msg::get_field_info</text>
<text text-anchor="middle" x="428.5" y="-7.5" font-family="Helvetica,sans-Serif" font-size="10.00">_by_tag</text>
</a>
</g>
</g>
<!-- Node2 -->
<g id="node2" class="node">
<title>Node2</title>
<g id="a_node2"><a xlink:href="../../d0/d66/classautomaton_1_1core_1_1script_1_1engine.html#a4f4719e361bd2060b567ce3b3462a29e" target="_top" xlink:title=" ">
<polygon fill="white" stroke="black" points="224,-6 224,-36 338,-36 338,-6 224,-6"/>
<text text-anchor="start" x="232" y="-24" font-family="Helvetica,sans-Serif" font-size="10.00">automaton::core::script</text>
<text text-anchor="middle" x="281" y="-13" font-family="Helvetica,sans-Serif" font-size="10.00">::engine::bind_data</text>
</a>
</g>
</g>
<!-- Node1&#45;&gt;Node2 -->
<g id="edge1" class="edge">
<title>Node1&#45;&gt;Node2</title>
<path fill="none" stroke="midnightblue" d="M363.63,-21C355.25,-21 346.71,-21 338.47,-21"/>
<polygon fill="midnightblue" stroke="midnightblue" points="363.73,-24.5 373.73,-21 363.73,-17.5 363.73,-24.5"/>
</g>
<!-- Node3 -->
<g id="node3" class="node">
<title>Node3</title>
<g id="a_node3"><a xlink:href="../../d0/d66/classautomaton_1_1core_1_1script_1_1engine.html#a530ebf5615f9b5fe50c52ead2afe9677" target="_top" xlink:title=" ">
<polygon fill="white" stroke="black" points="74,-6 74,-36 188,-36 188,-6 74,-6"/>
<text text-anchor="start" x="82" y="-24" font-family="Helvetica,sans-Serif" font-size="10.00">automaton::core::script</text>
<text text-anchor="middle" x="131" y="-13" font-family="Helvetica,sans-Serif" font-size="10.00">::engine::bind_core</text>
</a>
</g>
</g>
<!-- Node2&#45;&gt;Node3 -->
<g id="edge2" class="edge">
<title>Node2&#45;&gt;Node3</title>
<path fill="none" stroke="midnightblue" d="M213.44,-21C205.02,-21 196.46,-21 188.22,-21"/>
<polygon fill="midnightblue" stroke="midnightblue" points="213.63,-24.5 223.63,-21 213.63,-17.5 213.63,-24.5"/>
</g>
<!-- Node4 -->
<g id="node4" class="node">
<title>Node4</title>
<g id="a_node4"><a xlink:href="../../dd/de7/core_8cc.html#a0ddf1224851353fc92bfbff6f499fa97" target="_top" xlink:title=" ">
<polygon fill="white" stroke="black" points="0,-11.5 0,-30.5 38,-30.5 38,-11.5 0,-11.5"/>
<text text-anchor="middle" x="19" y="-18.5" font-family="Helvetica,sans-Serif" font-size="10.00">main</text>
</a>
</g>
</g>
<!-- Node3&#45;&gt;Node4 -->
<g id="edge3" class="edge">
<title>Node3&#45;&gt;Node4</title>
<path fill="none" stroke="midnightblue" d="M63.51,-21C54.22,-21 45.39,-21 38.14,-21"/>
<polygon fill="midnightblue" stroke="midnightblue" points="63.71,-24.5 73.71,-21 63.71,-17.5 63.71,-24.5"/>
</g>
</g>
</svg>
