<?xml version="1.0" encoding="UTF-8" standalone="no"?>
<!DOCTYPE svg PUBLIC "-//W3C//DTD SVG 1.1//EN"
 "http://www.w3.org/Graphics/SVG/1.1/DTD/svg11.dtd">
<!-- Generated by graphviz version 2.42.3 ()
 -->
<!-- Title: automaton::core::network::http_server::http_server Pages: 1 -->
<svg width="987pt" height="88pt"
 viewBox="0.00 0.00 987.00 88.00" xmlns="http://www.w3.org/2000/svg" xmlns:xlink="http://www.w3.org/1999/xlink">
<g id="graph0" class="graph" transform="scale(1 1) rotate(0) translate(4 84)">
<title>automaton::core::network::http_server::http_server</title>
<polygon fill="white" stroke="transparent" points="-4,4 -4,-84 983,-84 983,4 -4,4"/>
<!-- Node1 -->
<g id="node1" class="node">
<title>Node1</title>
<g id="a_node1"><a xlink:title=" ">
<polygon fill="#bfbfbf" stroke="black" points="0,-27.5 0,-57.5 125,-57.5 125,-27.5 0,-27.5"/>
<text text-anchor="start" x="8" y="-45.5" font-family="Helvetica,sans-Serif" font-size="10.00">automaton::core::network</text>
<text text-anchor="middle" x="62.5" y="-34.5" font-family="Helvetica,sans-Serif" font-size="10.00">::http_server::http_server</text>
</a>
</g>
</g>
<!-- Node2 -->
<g id="node2" class="node">
<title>Node2</title>
<g id="a_node2"><a xlink:href="../../d9/d1d/classautomaton_1_1core_1_1network_1_1http__server.html#a71bb3df29d9874e6ee841aaac849f733" target="_top" xlink:title=" ">
<polygon fill="white" stroke="black" points="161,-5.5 161,-35.5 298,-35.5 298,-5.5 161,-5.5"/>
<text text-anchor="start" x="169" y="-23.5" font-family="Helvetica,sans-Serif" font-size="10.00">automaton::core::network</text>
<text text-anchor="middle" x="229.5" y="-12.5" font-family="Helvetica,sans-Serif" font-size="10.00">::http_server::handle_accept</text>
</a>
</g>
</g>
<!-- Node1&#45;&gt;Node2 -->
<g id="edge1" class="edge">
<title>Node1&#45;&gt;Node2</title>
<path fill="none" stroke="midnightblue" d="M125.41,-34.25C133.76,-33.13 142.4,-31.98 150.98,-30.84"/>
<polygon fill="midnightblue" stroke="midnightblue" points="151.54,-34.29 160.99,-29.5 150.62,-27.35 151.54,-34.29"/>
</g>
<!-- Node3 -->
<g id="node3" class="node">
<title>Node3</title>
<g id="a_node3"><a xlink:href="../../d5/d12/classautomaton_1_1core_1_1network_1_1http__session.html#a7baa5409144cd4db6852248c16eec76e" target="_top" xlink:title=" ">
<polygon fill="white" stroke="black" points="334,-49.5 334,-79.5 459,-79.5 459,-49.5 334,-49.5"/>
<text text-anchor="start" x="342" y="-67.5" font-family="Helvetica,sans-Serif" font-size="10.00">automaton::core::network</text>
<text text-anchor="middle" x="396.5" y="-56.5" font-family="Helvetica,sans-Serif" font-size="10.00">::http_session::socket</text>
</a>
</g>
</g>
<!-- Node1&#45;&gt;Node3 -->
<g id="edge7" class="edge">
<title>Node1&#45;&gt;Node3</title>
<path fill="none" stroke="midnightblue" d="M125.17,-46.59C181.45,-50.32 264.64,-55.83 323.85,-59.75"/>
<polygon fill="midnightblue" stroke="midnightblue" points="323.67,-63.25 333.88,-60.42 324.13,-56.26 323.67,-63.25"/>
</g>
<!-- Node2&#45;&gt;Node3 -->
<g id="edge2" class="edge">
<title>Node2&#45;&gt;Node3</title>
<path fill="none" stroke="midnightblue" d="M286.82,-35.52C300.42,-39.15 315.08,-43.05 329.09,-46.79"/>
<polygon fill="midnightblue" stroke="midnightblue" points="328.59,-50.28 339.15,-49.47 330.39,-43.52 328.59,-50.28"/>
</g>
<!-- Node4 -->
<g id="node4" class="node">
<title>Node4</title>
<g id="a_node4"><a xlink:href="../../d5/d12/classautomaton_1_1core_1_1network_1_1http__session.html#a4cc4f5c70734e37eb7550d5ce11dbd88" target="_top" xlink:title=" ">
<polygon fill="white" stroke="black" points="334,-0.5 334,-30.5 459,-30.5 459,-0.5 334,-0.5"/>
<text text-anchor="start" x="342" y="-18.5" font-family="Helvetica,sans-Serif" font-size="10.00">automaton::core::network</text>
<text text-anchor="middle" x="396.5" y="-7.5" font-family="Helvetica,sans-Serif" font-size="10.00">::http_session::start</text>
</a>
</g>
</g>
<!-- Node2&#45;&gt;Node4 -->
<g id="edge3" class="edge">
<title>Node2&#45;&gt;Node4</title>
<path fill="none" stroke="midnightblue" d="M298.09,-18.45C306.5,-18.2 315.13,-17.94 323.61,-17.68"/>
<polygon fill="midnightblue" stroke="midnightblue" points="323.96,-21.17 333.85,-17.37 323.75,-14.17 323.96,-21.17"/>
</g>
<!-- Node5 -->
<g id="node5" class="node">
<title>Node5</title>
<g id="a_node5"><a xlink:href="../../d5/d12/classautomaton_1_1core_1_1network_1_1http__session.html#aa9dd6f324e7d30f93de0286443300940" target="_top" xlink:title=" ">
<polygon fill="white" stroke="black" points="495,-0.5 495,-30.5 629,-30.5 629,-0.5 495,-0.5"/>
<text text-anchor="start" x="503" y="-18.5" font-family="Helvetica,sans-Serif" font-size="10.00">automaton::core::network</text>
<text text-anchor="middle" x="562" y="-7.5" font-family="Helvetica,sans-Serif" font-size="10.00">::http_session::read_header</text>
</a>
</g>
</g>
<!-- Node4&#45;&gt;Node5 -->
<g id="edge4" class="edge">
<title>Node4&#45;&gt;Node5</title>
<path fill="none" stroke="midnightblue" d="M459.31,-15.5C467.54,-15.5 476.06,-15.5 484.5,-15.5"/>
<polygon fill="midnightblue" stroke="midnightblue" points="484.73,-19 494.73,-15.5 484.73,-12 484.73,-19"/>
</g>
<!-- Node6 -->
<g id="node6" class="node">
<title>Node6</title>
<g id="a_node6"><a xlink:href="../../d5/d12/classautomaton_1_1core_1_1network_1_1http__session.html#a6b108c98bc925d81b60963da2008ac27" target="_top" xlink:title=" ">
<polygon fill="white" stroke="black" points="665,-0.5 665,-30.5 790,-30.5 790,-0.5 665,-0.5"/>
<text text-anchor="start" x="673" y="-18.5" font-family="Helvetica,sans-Serif" font-size="10.00">automaton::core::network</text>
<text text-anchor="middle" x="727.5" y="-7.5" font-family="Helvetica,sans-Serif" font-size="10.00">::http_session::read_body</text>
</a>
</g>
</g>
<!-- Node5&#45;&gt;Node6 -->
<g id="edge5" class="edge">
<title>Node5&#45;&gt;Node6</title>
<path fill="none" stroke="midnightblue" d="M629.03,-15.5C637.57,-15.5 646.34,-15.5 654.96,-15.5"/>
<polygon fill="midnightblue" stroke="midnightblue" points="654.98,-19 664.98,-15.5 654.98,-12 654.98,-19"/>
</g>
<!-- Node7 -->
<g id="node7" class="node">
<title>Node7</title>
<g id="a_node7"><a xlink:href="../../d5/d12/classautomaton_1_1core_1_1network_1_1http__session.html#a20d4bcab5002b34baccea37f03e616a1" target="_top" xlink:title=" ">
<polygon fill="white" stroke="black" points="826,-0.5 826,-30.5 979,-30.5 979,-0.5 826,-0.5"/>
<text text-anchor="start" x="834" y="-18.5" font-family="Helvetica,sans-Serif" font-size="10.00">automaton::core::network</text>
<text text-anchor="middle" x="902.5" y="-7.5" font-family="Helvetica,sans-Serif" font-size="10.00">::http_session::add_http_header</text>
</a>
</g>
</g>
<!-- Node6&#45;&gt;Node7 -->
<g id="edge6" class="edge">
<title>Node6&#45;&gt;Node7</title>
<path fill="none" stroke="midnightblue" d="M790.47,-15.5C798.6,-15.5 807.05,-15.5 815.49,-15.5"/>
<polygon fill="midnightblue" stroke="midnightblue" points="815.77,-19 825.77,-15.5 815.77,-12 815.77,-19"/>
</g>
</g>
</svg>
