<?xml version="1.0" encoding="UTF-8" standalone="no"?>
<!DOCTYPE svg PUBLIC "-//W3C//DTD SVG 1.1//EN"
 "http://www.w3.org/Graphics/SVG/1.1/DTD/svg11.dtd">
<!-- Generated by graphviz version 2.44.0 ()
 -->
<!-- Title: automaton::core::network::http_server::handle_accept Pages: 1 -->
<svg width="826pt" height="88pt"
 viewBox="0.00 0.00 826.00 88.00" xmlns="http://www.w3.org/2000/svg" xmlns:xlink="http://www.w3.org/1999/xlink">
<g id="graph0" class="graph" transform="scale(1 1) rotate(0) translate(4 84)">
<title>automaton::core::network::http_server::handle_accept</title>
<polygon fill="white" stroke="transparent" points="-4,4 -4,-84 822,-84 822,4 -4,4"/>
<!-- Node1 -->
<g id="node1" class="node">
<title>Node1</title>
<g id="a_node1"><a xlink:title=" ">
<polygon fill="#bfbfbf" stroke="black" points="0,-24.5 0,-54.5 137,-54.5 137,-24.5 0,-24.5"/>
<text text-anchor="start" x="8" y="-42.5" font-family="Helvetica,sans-Serif" font-size="10.00">automaton::core::network</text>
<text text-anchor="middle" x="68.5" y="-31.5" font-family="Helvetica,sans-Serif" font-size="10.00">::http_server::handle_accept</text>
</a>
</g>
</g>
<!-- Node2 -->
<g id="node2" class="node">
<title>Node2</title>
<g id="a_node2"><a xlink:href="../../d5/d12/classautomaton_1_1core_1_1network_1_1http__session.html#a7baa5409144cd4db6852248c16eec76e" target="_top" xlink:title=" ">
<polygon fill="white" stroke="black" points="173,-49.5 173,-79.5 298,-79.5 298,-49.5 173,-49.5"/>
<text text-anchor="start" x="181" y="-67.5" font-family="Helvetica,sans-Serif" font-size="10.00">automaton::core::network</text>
<text text-anchor="middle" x="235.5" y="-56.5" font-family="Helvetica,sans-Serif" font-size="10.00">::http_session::socket</text>
</a>
</g>
</g>
<!-- Node1&#45;&gt;Node2 -->
<g id="edge1" class="edge">
<title>Node1&#45;&gt;Node2</title>
<path fill="none" stroke="midnightblue" d="M137.09,-49.74C145.6,-51.03 154.32,-52.35 162.89,-53.65"/>
<polygon fill="midnightblue" stroke="midnightblue" points="162.44,-57.12 172.85,-55.16 163.49,-50.2 162.44,-57.12"/>
</g>
<!-- Node3 -->
<g id="node3" class="node">
<title>Node3</title>
<g id="a_node3"><a xlink:href="../../d5/d12/classautomaton_1_1core_1_1network_1_1http__session.html#a4cc4f5c70734e37eb7550d5ce11dbd88" target="_top" xlink:title=" ">
<polygon fill="white" stroke="black" points="173,-0.5 173,-30.5 298,-30.5 298,-0.5 173,-0.5"/>
<text text-anchor="start" x="181" y="-18.5" font-family="Helvetica,sans-Serif" font-size="10.00">automaton::core::network</text>
<text text-anchor="middle" x="235.5" y="-7.5" font-family="Helvetica,sans-Serif" font-size="10.00">::http_session::start</text>
</a>
</g>
</g>
<!-- Node1&#45;&gt;Node3 -->
<g id="edge2" class="edge">
<title>Node1&#45;&gt;Node3</title>
<path fill="none" stroke="midnightblue" d="M137.09,-29.67C145.6,-28.43 154.32,-27.16 162.89,-25.92"/>
<polygon fill="midnightblue" stroke="midnightblue" points="163.46,-29.37 172.85,-24.47 162.45,-22.44 163.46,-29.37"/>
</g>
<!-- Node4 -->
<g id="node4" class="node">
<title>Node4</title>
<g id="a_node4"><a xlink:href="../../d5/d12/classautomaton_1_1core_1_1network_1_1http__session.html#aa9dd6f324e7d30f93de0286443300940" target="_top" xlink:title=" ">
<polygon fill="white" stroke="black" points="334,-0.5 334,-30.5 468,-30.5 468,-0.5 334,-0.5"/>
<text text-anchor="start" x="342" y="-18.5" font-family="Helvetica,sans-Serif" font-size="10.00">automaton::core::network</text>
<text text-anchor="middle" x="401" y="-7.5" font-family="Helvetica,sans-Serif" font-size="10.00">::http_session::read_header</text>
</a>
</g>
</g>
<!-- Node3&#45;&gt;Node4 -->
<g id="edge3" class="edge">
<title>Node3&#45;&gt;Node4</title>
<path fill="none" stroke="midnightblue" d="M298.31,-15.5C306.54,-15.5 315.06,-15.5 323.5,-15.5"/>
<polygon fill="midnightblue" stroke="midnightblue" points="323.73,-19 333.73,-15.5 323.73,-12 323.73,-19"/>
</g>
<!-- Node5 -->
<g id="node5" class="node">
<title>Node5</title>
<g id="a_node5"><a xlink:href="../../d5/d12/classautomaton_1_1core_1_1network_1_1http__session.html#a6b108c98bc925d81b60963da2008ac27" target="_top" xlink:title=" ">
<polygon fill="white" stroke="black" points="504,-0.5 504,-30.5 629,-30.5 629,-0.5 504,-0.5"/>
<text text-anchor="start" x="512" y="-18.5" font-family="Helvetica,sans-Serif" font-size="10.00">automaton::core::network</text>
<text text-anchor="middle" x="566.5" y="-7.5" font-family="Helvetica,sans-Serif" font-size="10.00">::http_session::read_body</text>
</a>
</g>
</g>
<!-- Node4&#45;&gt;Node5 -->
<g id="edge4" class="edge">
<title>Node4&#45;&gt;Node5</title>
<path fill="none" stroke="midnightblue" d="M468.03,-15.5C476.57,-15.5 485.34,-15.5 493.96,-15.5"/>
<polygon fill="midnightblue" stroke="midnightblue" points="493.98,-19 503.98,-15.5 493.98,-12 493.98,-19"/>
</g>
<!-- Node6 -->
<g id="node6" class="node">
<title>Node6</title>
<g id="a_node6"><a xlink:href="../../d5/d12/classautomaton_1_1core_1_1network_1_1http__session.html#a20d4bcab5002b34baccea37f03e616a1" target="_top" xlink:title=" ">
<polygon fill="white" stroke="black" points="665,-0.5 665,-30.5 818,-30.5 818,-0.5 665,-0.5"/>
<text text-anchor="start" x="673" y="-18.5" font-family="Helvetica,sans-Serif" font-size="10.00">automaton::core::network</text>
<text text-anchor="middle" x="741.5" y="-7.5" font-family="Helvetica,sans-Serif" font-size="10.00">::http_session::add_http_header</text>
</a>
</g>
</g>
<!-- Node5&#45;&gt;Node6 -->
<g id="edge5" class="edge">
<title>Node5&#45;&gt;Node6</title>
<path fill="none" stroke="midnightblue" d="M629.47,-15.5C637.6,-15.5 646.05,-15.5 654.49,-15.5"/>
<polygon fill="midnightblue" stroke="midnightblue" points="654.77,-19 664.77,-15.5 654.77,-12 654.77,-19"/>
</g>
</g>
</svg>
