<?xml version="1.0" encoding="UTF-8" standalone="no"?>
<!DOCTYPE svg PUBLIC "-//W3C//DTD SVG 1.1//EN"
 "http://www.w3.org/Graphics/SVG/1.1/DTD/svg11.dtd">
<!-- Generated by graphviz version 2.44.0 ()
 -->
<!-- Title: protobuf_factory.h Pages: 1 -->
<!--zoomable 352 -->
<svg id="main" version="1.1" xmlns="http://www.w3.org/2000/svg" xmlns:xlink="http://www.w3.org/1999/xlink" xml:space="preserve" onload="init(evt)">
<style type="text/css"><![CDATA[
.edge:hover path { stroke: red; }
.edge:hover polygon { stroke: red; fill: red; }
]]></style>
<script type="text/javascript"><![CDATA[
var edges = document.getElementsByTagName('g');
if (edges && edges.length) {
  for (var i=0;i<edges.length;i++) {
    if (edges[i].id.substr(0,4)=='edge') {
      edges[i].setAttribute('class','edge');
    }
  }
}
]]></script>
        <defs>
                <circle id="rim" cx="0" cy="0" r="7"/>
                <circle id="rim2" cx="0" cy="0" r="3.5"/>
                <g id="zoomPlus">
                        <use xlink:href="#rim" fill="#404040">
                                <set attributeName="fill" to="#808080" begin="zoomplus.mouseover" end="zoomplus.mouseout"/>
                        </use>
                        <path d="M-4,0h8M0,-4v8" fill="none" stroke="white" stroke-width="1.5" pointer-events="none"/>
                </g>
                <g id="zoomMin">
                        <use xlink:href="#rim" fill="#404040">
                                <set attributeName="fill" to="#808080" begin="zoomminus.mouseover" end="zoomminus.mouseout"/>
                        </use>
                        <path d="M-4,0h8" fill="none" stroke="white" stroke-width="1.5" pointer-events="none"/>
                </g>
                <g id="dirArrow">
                        <path fill="none" stroke="white" stroke-width="1.5" d="M0,-3.0v7 M-2.5,-0.5L0,-3.0L2.5,-0.5"/>
                </g>
               <g id="resetDef">
                       <use xlink:href="#rim2" fill="#404040">
                               <set attributeName="fill" to="#808080" begin="reset.mouseover" end="reset.mouseout"/>
                       </use>
               </g>
        </defs>

<script type="text/javascript">
var viewWidth = 1834;
var viewHeight = 352;
var sectionId = 'dynsection-0';
</script>
<script xlink:href="../../svgpan.js"/>
<svg id="graph" class="graph">
<g id="viewport">
<title>protobuf_factory.h</title>
<polygon fill="white" stroke="transparent" points="-4,4 -4,-348 1829.5,-348 1829.5,4 -4,4"/>
<!-- Node1 -->
<g id="node1" class="node">
<title>Node1</title>
<g id="a_node1"><a xlink:title=" ">
<polygon fill="#bfbfbf" stroke="black" points="1267,-324.5 1267,-343.5 1361,-343.5 1361,-324.5 1267,-324.5"/>
<text text-anchor="middle" x="1314" y="-331.5" font-family="Helvetica,sans-Serif" font-size="10.00">protobuf_factory.h</text>
</a>
</g>
</g>
<!-- Node2 -->
<g id="node2" class="node">
<title>Node2</title>
<g id="a_node2"><a xlink:title=" ">
<polygon fill="white" stroke="#bfbfbf" points="28.5,-196 28.5,-215 165.5,-215 165.5,-196 28.5,-196"/>
<text text-anchor="middle" x="97" y="-203" font-family="Helvetica,sans-Serif" font-size="10.00">google/protobuf/descriptor.h</text>
</a>
</g>
</g>
<!-- Node1&#45;&gt;Node2 -->
<g id="edge1" class="edge">
<title>Node1&#45;&gt;Node2</title>
<path fill="none" stroke="midnightblue" d="M1266.96,-331.89C1106.55,-327.92 581.77,-313.28 415,-288 310.81,-272.21 191.24,-236.71 132.85,-218.21"/>
<polygon fill="midnightblue" stroke="midnightblue" points="133.61,-214.78 123.02,-215.07 131.48,-221.45 133.61,-214.78"/>
</g>
<!-- Node3 -->
<g id="node3" class="node">
<title>Node3</title>
<g id="a_node3"><a xlink:title=" ">
<polygon fill="white" stroke="#bfbfbf" points="183.5,-196 183.5,-215 332.5,-215 332.5,-196 183.5,-196"/>
<text text-anchor="middle" x="258" y="-203" font-family="Helvetica,sans-Serif" font-size="10.00">google/protobuf/descriptor.pb.h</text>
</a>
</g>
</g>
<!-- Node1&#45;&gt;Node3 -->
<g id="edge2" class="edge">
<title>Node1&#45;&gt;Node3</title>
<path fill="none" stroke="midnightblue" d="M1266.91,-333.76C1146.28,-334.94 816.65,-333.38 547,-288 452.34,-272.07 344.34,-236.89 291.16,-218.4"/>
<polygon fill="midnightblue" stroke="midnightblue" points="292.17,-215.04 281.58,-215.04 289.86,-221.65 292.17,-215.04"/>
</g>
<!-- Node4 -->
<g id="node4" class="node">
<title>Node4</title>
<g id="a_node4"><a xlink:title=" ">
<polygon fill="white" stroke="#bfbfbf" points="351,-190.5 351,-220.5 473,-220.5 473,-190.5 351,-190.5"/>
<text text-anchor="start" x="359" y="-208.5" font-family="Helvetica,sans-Serif" font-size="10.00">google/protobuf/dynamic</text>
<text text-anchor="middle" x="412" y="-197.5" font-family="Helvetica,sans-Serif" font-size="10.00">_message.h</text>
</a>
</g>
</g>
<!-- Node1&#45;&gt;Node4 -->
<g id="edge3" class="edge">
<title>Node1&#45;&gt;Node4</title>
<path fill="none" stroke="midnightblue" d="M1266.77,-333.72C1158.52,-334.51 884.63,-331.6 661,-288 586.92,-273.56 504.26,-243.59 455.26,-224.3"/>
<polygon fill="midnightblue" stroke="midnightblue" points="456.51,-221.03 445.93,-220.59 453.93,-227.54 456.51,-221.03"/>
</g>
<!-- Node5 -->
<g id="node5" class="node">
<title>Node5</title>
<g id="a_node5"><a xlink:title=" ">
<polygon fill="white" stroke="#bfbfbf" points="491,-190.5 491,-220.5 585,-220.5 585,-190.5 491,-190.5"/>
<text text-anchor="start" x="499" y="-208.5" font-family="Helvetica,sans-Serif" font-size="10.00">google/protobuf/io</text>
<text text-anchor="middle" x="538" y="-197.5" font-family="Helvetica,sans-Serif" font-size="10.00">/tokenizer.h</text>
</a>
</g>
</g>
<!-- Node1&#45;&gt;Node5 -->
<g id="edge4" class="edge">
<title>Node1&#45;&gt;Node5</title>
<path fill="none" stroke="midnightblue" d="M1266.94,-333.21C1171.51,-332.76 948.88,-327.15 767,-288 698.97,-273.36 623.57,-243.76 578.51,-224.55"/>
<polygon fill="midnightblue" stroke="midnightblue" points="579.67,-221.24 569.1,-220.5 576.9,-227.67 579.67,-221.24"/>
</g>
<!-- Node6 -->
<g id="node6" class="node">
<title>Node6</title>
<g id="a_node6"><a xlink:title=" ">
<polygon fill="white" stroke="#bfbfbf" points="603.5,-190.5 603.5,-220.5 732.5,-220.5 732.5,-190.5 603.5,-190.5"/>
<text text-anchor="start" x="611.5" y="-208.5" font-family="Helvetica,sans-Serif" font-size="10.00">google/protobuf/io</text>
<text text-anchor="middle" x="668" y="-197.5" font-family="Helvetica,sans-Serif" font-size="10.00">/zero_copy_stream_impl.h</text>
</a>
</g>
</g>
<!-- Node1&#45;&gt;Node6 -->
<g id="edge5" class="edge">
<title>Node1&#45;&gt;Node6</title>
<path fill="none" stroke="midnightblue" d="M1266.9,-333.2C1182.8,-332.49 1001.85,-326.18 855,-288 799.47,-273.56 739.32,-244.75 702.65,-225.55"/>
<polygon fill="midnightblue" stroke="midnightblue" points="703.87,-222.24 693.4,-220.65 700.6,-228.42 703.87,-222.24"/>
</g>
<!-- Node7 -->
<g id="node7" class="node">
<title>Node7</title>
<g id="a_node7"><a xlink:title=" ">
<polygon fill="white" stroke="#bfbfbf" points="750.5,-196 750.5,-215 863.5,-215 863.5,-196 750.5,-196"/>
<text text-anchor="middle" x="807" y="-203" font-family="Helvetica,sans-Serif" font-size="10.00">google/protobuf/map.h</text>
</a>
</g>
</g>
<!-- Node1&#45;&gt;Node7 -->
<g id="edge6" class="edge">
<title>Node1&#45;&gt;Node7</title>
<path fill="none" stroke="midnightblue" d="M1266.68,-331.21C1173.38,-327.12 969.19,-315.26 905,-288 870.23,-273.23 838.25,-241.91 820.8,-222.69"/>
<polygon fill="midnightblue" stroke="midnightblue" points="823.29,-220.22 814.05,-215.04 818.04,-224.85 823.29,-220.22"/>
</g>
<!-- Node8 -->
<g id="node8" class="node">
<title>Node8</title>
<g id="a_node8"><a xlink:title=" ">
<polygon fill="white" stroke="#bfbfbf" points="1176,-196 1176,-215 1310,-215 1310,-196 1176,-196"/>
<text text-anchor="middle" x="1243" y="-203" font-family="Helvetica,sans-Serif" font-size="10.00">google/protobuf/message.h</text>
</a>
</g>
</g>
<!-- Node1&#45;&gt;Node8 -->
<g id="edge7" class="edge">
<title>Node1&#45;&gt;Node8</title>
<path fill="none" stroke="midnightblue" d="M1309.12,-324.31C1297.57,-303.72 1268.36,-251.69 1252.92,-224.18"/>
<polygon fill="midnightblue" stroke="midnightblue" points="1255.86,-222.26 1247.91,-215.26 1249.76,-225.69 1255.86,-222.26"/>
</g>
<!-- Node9 -->
<g id="node9" class="node">
<title>Node9</title>
<g id="a_node9"><a xlink:title=" ">
<polygon fill="white" stroke="#bfbfbf" points="1642,-263 1642,-282 1696,-282 1696,-263 1642,-263"/>
<text text-anchor="middle" x="1669" y="-270" font-family="Helvetica,sans-Serif" font-size="10.00">iostream</text>
</a>
</g>
</g>
<!-- Node1&#45;&gt;Node9 -->
<g id="edge8" class="edge">
<title>Node1&#45;&gt;Node9</title>
<path fill="none" stroke="midnightblue" d="M1361.1,-329.17C1423.01,-323.48 1534.82,-310.92 1628,-288 1631.05,-287.25 1634.2,-286.36 1637.33,-285.39"/>
<polygon fill="midnightblue" stroke="midnightblue" points="1638.73,-288.62 1647.11,-282.14 1636.52,-281.97 1638.73,-288.62"/>
</g>
<!-- Node10 -->
<g id="node10" class="node">
<title>Node10</title>
<g id="a_node10"><a xlink:title=" ">
<polygon fill="white" stroke="#bfbfbf" points="1464.5,-0.5 1464.5,-19.5 1499.5,-19.5 1499.5,-0.5 1464.5,-0.5"/>
<text text-anchor="middle" x="1482" y="-7.5" font-family="Helvetica,sans-Serif" font-size="10.00">map</text>
</a>
</g>
</g>
<!-- Node1&#45;&gt;Node10 -->
<g id="edge9" class="edge">
<title>Node1&#45;&gt;Node10</title>
<path fill="none" stroke="midnightblue" d="M1361.21,-333.58C1445.69,-331.88 1614,-314.89 1614,-206.5 1614,-206.5 1614,-206.5 1614,-137.5 1614,-79.71 1547.23,-40.13 1508.67,-22.1"/>
<polygon fill="midnightblue" stroke="midnightblue" points="1510.08,-18.9 1499.53,-17.98 1507.21,-25.28 1510.08,-18.9"/>
</g>
<!-- Node11 -->
<g id="node11" class="node">
<title>Node11</title>
<g id="a_node11"><a xlink:title=" ">
<polygon fill="white" stroke="#bfbfbf" points="1083.5,-62 1083.5,-81 1134.5,-81 1134.5,-62 1083.5,-62"/>
<text text-anchor="middle" x="1109" y="-69" font-family="Helvetica,sans-Serif" font-size="10.00">memory</text>
</a>
</g>
</g>
<!-- Node1&#45;&gt;Node11 -->
<g id="edge10" class="edge">
<title>Node1&#45;&gt;Node11</title>
<path fill="none" stroke="midnightblue" d="M1317.81,-324.34C1327.89,-299.94 1352.28,-229.85 1319,-190 1261.38,-121.02 1182.11,-218.96 1120,-154 1104.15,-137.42 1103.86,-109.55 1105.84,-91.09"/>
<polygon fill="midnightblue" stroke="midnightblue" points="1109.34,-91.39 1107.25,-81 1102.4,-90.42 1109.34,-91.39"/>
</g>
<!-- Node12 -->
<g id="node12" class="node">
<title>Node12</title>
<g id="a_node12"><a xlink:title=" ">
<polygon fill="white" stroke="#bfbfbf" points="1714,-263 1714,-282 1766,-282 1766,-263 1714,-263"/>
<text text-anchor="middle" x="1740" y="-270" font-family="Helvetica,sans-Serif" font-size="10.00">sstream</text>
</a>
</g>
</g>
<!-- Node1&#45;&gt;Node12 -->
<g id="edge11" class="edge">
<title>Node1&#45;&gt;Node12</title>
<path fill="none" stroke="midnightblue" d="M1361.11,-331.79C1435.36,-328.94 1583.63,-319.47 1705,-288 1707.51,-287.35 1710.07,-286.56 1712.61,-285.68"/>
<polygon fill="midnightblue" stroke="midnightblue" points="1714.09,-288.86 1722.16,-282.01 1711.57,-282.33 1714.09,-288.86"/>
</g>
<!-- Node13 -->
<g id="node13" class="node">
<title>Node13</title>
<g id="a_node13"><a xlink:title=" ">
<polygon fill="white" stroke="#bfbfbf" points="1784.5,-263 1784.5,-282 1825.5,-282 1825.5,-263 1784.5,-263"/>
<text text-anchor="middle" x="1805" y="-270" font-family="Helvetica,sans-Serif" font-size="10.00">stack</text>
</a>
</g>
</g>
<!-- Node1&#45;&gt;Node13 -->
<g id="edge12" class="edge">
<title>Node1&#45;&gt;Node13</title>
<path fill="none" stroke="midnightblue" d="M1361.13,-333.81C1445.69,-334.07 1628.09,-329.25 1775,-288 1776.88,-287.47 1778.79,-286.83 1780.68,-286.12"/>
<polygon fill="midnightblue" stroke="midnightblue" points="1782.08,-289.32 1789.84,-282.11 1779.27,-282.91 1782.08,-289.32"/>
</g>
<!-- Node14 -->
<g id="node14" class="node">
<title>Node14</title>
<g id="a_node14"><a xlink:title=" ">
<polygon fill="white" stroke="#bfbfbf" points="1185.5,-0.5 1185.5,-19.5 1226.5,-19.5 1226.5,-0.5 1185.5,-0.5"/>
<text text-anchor="middle" x="1206" y="-7.5" font-family="Helvetica,sans-Serif" font-size="10.00">string</text>
</a>
</g>
</g>
<!-- Node1&#45;&gt;Node14 -->
<g id="edge13" class="edge">
<title>Node1&#45;&gt;Node14</title>
<path fill="none" stroke="midnightblue" d="M1266.85,-333.51C1032.02,-335.43 0,-336.49 0,-206.5 0,-206.5 0,-206.5 0,-137.5 0,-15.59 987.3,-10.73 1175.29,-10.91"/>
<polygon fill="midnightblue" stroke="midnightblue" points="1175.32,-14.41 1185.32,-10.92 1175.33,-7.41 1175.32,-14.41"/>
</g>
<!-- Node15 -->
<g id="node15" class="node">
<title>Node15</title>
<g id="a_node15"><a xlink:title=" ">
<polygon fill="white" stroke="#bfbfbf" points="1470.5,-129 1470.5,-148 1509.5,-148 1509.5,-129 1470.5,-129"/>
<text text-anchor="middle" x="1490" y="-136" font-family="Helvetica,sans-Serif" font-size="10.00">utility</text>
</a>
</g>
</g>
<!-- Node1&#45;&gt;Node15 -->
<g id="edge14" class="edge">
<title>Node1&#45;&gt;Node15</title>
<path fill="none" stroke="midnightblue" d="M1338.3,-324.44C1376,-309.76 1447.7,-275.93 1481,-221 1492.56,-201.93 1493.34,-175.67 1492.21,-158.17"/>
<polygon fill="midnightblue" stroke="midnightblue" points="1495.68,-157.73 1491.28,-148.1 1488.71,-158.38 1495.68,-157.73"/>
</g>
<!-- Node16 -->
<g id="node16" class="node">
<title>Node16</title>
<g id="a_node16"><a xlink:title=" ">
<polygon fill="white" stroke="#bfbfbf" points="1384,-0.5 1384,-19.5 1428,-19.5 1428,-0.5 1384,-0.5"/>
<text text-anchor="middle" x="1406" y="-7.5" font-family="Helvetica,sans-Serif" font-size="10.00">vector</text>
</a>
</g>
</g>
<!-- Node1&#45;&gt;Node16 -->
<g id="edge15" class="edge">
<title>Node1&#45;&gt;Node16</title>
<path fill="none" stroke="midnightblue" d="M1361.03,-327.64C1418.9,-318.05 1512.95,-291.78 1541,-221 1546.39,-207.4 1550.11,-144.21 1540,-123 1517.68,-76.17 1465.33,-41.9 1433.07,-24.33"/>
<polygon fill="midnightblue" stroke="midnightblue" points="1434.63,-21.19 1424.15,-19.62 1431.36,-27.38 1434.63,-21.19"/>
</g>
<!-- Node17 -->
<g id="node17" class="node">
<title>Node17</title>
<g id="a_node17"><a xlink:href="../../de/d06/factory_8h.html" target="_top" xlink:title=" ">
<polygon fill="white" stroke="black" points="1366,-190.5 1366,-220.5 1472,-220.5 1472,-190.5 1366,-190.5"/>
<text text-anchor="start" x="1374" y="-208.5" font-family="Helvetica,sans-Serif" font-size="10.00">automaton/core/data</text>
<text text-anchor="middle" x="1419" y="-197.5" font-family="Helvetica,sans-Serif" font-size="10.00">/factory.h</text>
</a>
</g>
</g>
<!-- Node1&#45;&gt;Node17 -->
<g id="edge16" class="edge">
<title>Node1&#45;&gt;Node17</title>
<path fill="none" stroke="midnightblue" d="M1321.32,-324.4C1329,-315.37 1341.4,-300.73 1352,-288 1368.67,-267.99 1387.5,-245.06 1400.94,-228.63"/>
<polygon fill="midnightblue" stroke="midnightblue" points="1403.82,-230.64 1407.44,-220.68 1398.4,-226.21 1403.82,-230.64"/>
</g>
<!-- Node19 -->
<g id="node19" class="node">
<title>Node19</title>
<g id="a_node19"><a xlink:href="../../d7/de3/schema_8h.html" target="_top" xlink:title=" ">
<polygon fill="white" stroke="black" points="1272,-56.5 1272,-86.5 1378,-86.5 1378,-56.5 1272,-56.5"/>
<text text-anchor="start" x="1280" y="-74.5" font-family="Helvetica,sans-Serif" font-size="10.00">automaton/core/data</text>
<text text-anchor="middle" x="1325" y="-63.5" font-family="Helvetica,sans-Serif" font-size="10.00">/schema.h</text>
</a>
</g>
</g>
<!-- Node1&#45;&gt;Node19 -->
<g id="edge44" class="edge">
<title>Node1&#45;&gt;Node19</title>
<path fill="none" stroke="midnightblue" d="M1357.47,-324.46C1384.4,-317.68 1418.73,-306.25 1445,-288 1511.01,-242.15 1568.15,-186.59 1519,-123 1502.97,-102.26 1438.64,-88.45 1388.4,-80.58"/>
<polygon fill="midnightblue" stroke="midnightblue" points="1388.65,-77.08 1378.24,-79.04 1387.6,-84 1388.65,-77.08"/>
</g>
<!-- Node20 -->
<g id="node20" class="node">
<title>Node20</title>
<g id="a_node20"><a xlink:href="../../d5/de1/protobuf__msg_8h.html" target="_top" xlink:title=" ">
<polygon fill="white" stroke="black" points="914.5,-257.5 914.5,-287.5 1039.5,-287.5 1039.5,-257.5 914.5,-257.5"/>
<text text-anchor="start" x="922.5" y="-275.5" font-family="Helvetica,sans-Serif" font-size="10.00">automaton/core/data</text>
<text text-anchor="middle" x="977" y="-264.5" font-family="Helvetica,sans-Serif" font-size="10.00">/protobuf/protobuf_msg.h</text>
</a>
</g>
</g>
<!-- Node1&#45;&gt;Node20 -->
<g id="edge30" class="edge">
<title>Node1&#45;&gt;Node20</title>
<path fill="none" stroke="midnightblue" d="M1266.79,-324.66C1210.36,-314.7 1115.32,-297.92 1049.55,-286.31"/>
<polygon fill="midnightblue" stroke="midnightblue" points="1050.11,-282.85 1039.66,-284.56 1048.9,-289.75 1050.11,-282.85"/>
</g>
<!-- Node17&#45;&gt;Node10 -->
<g id="edge17" class="edge">
<title>Node17&#45;&gt;Node10</title>
<path fill="none" stroke="midnightblue" d="M1423.63,-190.27C1434.86,-155.8 1463.5,-67.81 1476.01,-29.4"/>
<polygon fill="midnightblue" stroke="midnightblue" points="1479.44,-30.17 1479.21,-19.58 1472.78,-28 1479.44,-30.17"/>
</g>
<!-- Node17&#45;&gt;Node11 -->
<g id="edge18" class="edge">
<title>Node17&#45;&gt;Node11</title>
<path fill="none" stroke="midnightblue" d="M1365.65,-192.76C1361.03,-191.8 1356.44,-190.87 1352,-190 1261.22,-172.21 1220.41,-210.29 1147,-154 1126.81,-138.51 1116.92,-109.71 1112.41,-90.82"/>
<polygon fill="midnightblue" stroke="midnightblue" points="1115.83,-90.08 1110.33,-81.02 1108.98,-91.53 1115.83,-90.08"/>
</g>
<!-- Node17&#45;&gt;Node14 -->
<g id="edge19" class="edge">
<title>Node17&#45;&gt;Node14</title>
<path fill="none" stroke="midnightblue" d="M1396.52,-190.49C1364.73,-170.06 1305.75,-129.84 1263,-87 1244.69,-68.65 1227.38,-44.19 1216.74,-28.04"/>
<polygon fill="midnightblue" stroke="midnightblue" points="1219.66,-26.1 1211.29,-19.59 1213.77,-29.89 1219.66,-26.1"/>
</g>
<!-- Node17&#45;&gt;Node15 -->
<g id="edge20" class="edge">
<title>Node17&#45;&gt;Node15</title>
<path fill="none" stroke="midnightblue" d="M1434.41,-190.4C1445.81,-179.96 1461.33,-165.75 1473.07,-155"/>
<polygon fill="midnightblue" stroke="midnightblue" points="1475.49,-157.53 1480.5,-148.19 1470.76,-152.37 1475.49,-157.53"/>
</g>
<!-- Node17&#45;&gt;Node16 -->
<g id="edge21" class="edge">
<title>Node17&#45;&gt;Node16</title>
<path fill="none" stroke="midnightblue" d="M1418.04,-190.27C1415.74,-155.94 1409.87,-68.57 1407.27,-29.9"/>
<polygon fill="midnightblue" stroke="midnightblue" points="1410.74,-29.32 1406.58,-19.58 1403.75,-29.79 1410.74,-29.32"/>
</g>
<!-- Node18 -->
<g id="node18" class="node">
<title>Node18</title>
<g id="a_node18"><a xlink:href="../../d1/d71/msg_8h.html" target="_top" xlink:title=" ">
<polygon fill="white" stroke="black" points="1156,-123.5 1156,-153.5 1262,-153.5 1262,-123.5 1156,-123.5"/>
<text text-anchor="start" x="1164" y="-141.5" font-family="Helvetica,sans-Serif" font-size="10.00">automaton/core/data</text>
<text text-anchor="middle" x="1209" y="-130.5" font-family="Helvetica,sans-Serif" font-size="10.00">/msg.h</text>
</a>
</g>
</g>
<!-- Node17&#45;&gt;Node18 -->
<g id="edge22" class="edge">
<title>Node17&#45;&gt;Node18</title>
<path fill="none" stroke="midnightblue" d="M1373.69,-190.48C1341.65,-180.56 1298.5,-167.2 1264.4,-156.65"/>
<polygon fill="midnightblue" stroke="midnightblue" points="1265.18,-153.22 1254.59,-153.61 1263.11,-159.91 1265.18,-153.22"/>
</g>
<!-- Node17&#45;&gt;Node19 -->
<g id="edge29" class="edge">
<title>Node17&#45;&gt;Node19</title>
<path fill="none" stroke="midnightblue" d="M1408.94,-190.37C1392.61,-167.45 1360.23,-121.97 1340.8,-94.69"/>
<polygon fill="midnightblue" stroke="midnightblue" points="1343.64,-92.64 1334.99,-86.52 1337.94,-96.7 1343.64,-92.64"/>
</g>
<!-- Node18&#45;&gt;Node11 -->
<g id="edge23" class="edge">
<title>Node18&#45;&gt;Node11</title>
<path fill="none" stroke="midnightblue" d="M1187.3,-123.4C1170.53,-112.5 1147.43,-97.48 1130.67,-86.58"/>
<polygon fill="midnightblue" stroke="midnightblue" points="1132.38,-83.52 1122.09,-81.01 1128.56,-89.39 1132.38,-83.52"/>
</g>
<!-- Node18&#45;&gt;Node14 -->
<g id="edge24" class="edge">
<title>Node18&#45;&gt;Node14</title>
<path fill="none" stroke="midnightblue" d="M1208.67,-123.48C1208.13,-100.72 1207.06,-55.7 1206.45,-30.06"/>
<polygon fill="midnightblue" stroke="midnightblue" points="1209.94,-29.7 1206.21,-19.79 1202.95,-29.87 1209.94,-29.7"/>
</g>
<!-- Node18&#45;&gt;Node19 -->
<g id="edge25" class="edge">
<title>Node18&#45;&gt;Node19</title>
<path fill="none" stroke="midnightblue" d="M1234.17,-123.4C1250.74,-114.11 1272.64,-101.84 1290.78,-91.67"/>
<polygon fill="midnightblue" stroke="midnightblue" points="1292.87,-94.52 1299.88,-86.58 1289.44,-88.41 1292.87,-94.52"/>
</g>
<!-- Node19&#45;&gt;Node10 -->
<g id="edge26" class="edge">
<title>Node19&#45;&gt;Node10</title>
<path fill="none" stroke="midnightblue" d="M1362.21,-56.4C1390.71,-45.6 1429.35,-30.95 1454.95,-21.25"/>
<polygon fill="midnightblue" stroke="midnightblue" points="1456.29,-24.49 1464.4,-17.67 1453.81,-17.94 1456.29,-24.49"/>
</g>
<!-- Node19&#45;&gt;Node14 -->
<g id="edge27" class="edge">
<title>Node19&#45;&gt;Node14</title>
<path fill="none" stroke="midnightblue" d="M1296.8,-56.4C1277.28,-46.64 1251.47,-33.74 1232.37,-24.18"/>
<polygon fill="midnightblue" stroke="midnightblue" points="1233.83,-21 1223.32,-19.66 1230.69,-27.26 1233.83,-21"/>
</g>
<!-- Node19&#45;&gt;Node16 -->
<g id="edge28" class="edge">
<title>Node19&#45;&gt;Node16</title>
<path fill="none" stroke="midnightblue" d="M1344.2,-56.4C1356.82,-47.13 1373.29,-35.03 1386.06,-25.65"/>
<polygon fill="midnightblue" stroke="midnightblue" points="1388.23,-28.4 1394.21,-19.66 1384.08,-22.76 1388.23,-28.4"/>
</g>
<!-- Node20&#45;&gt;Node2 -->
<g id="edge32" class="edge">
<title>Node20&#45;&gt;Node2</title>
<path fill="none" stroke="midnightblue" d="M914.28,-270.19C778.71,-266.77 448.44,-255.34 174,-221 165.27,-219.91 156.04,-218.44 147.12,-216.86"/>
<polygon fill="midnightblue" stroke="midnightblue" points="147.68,-213.41 137.21,-215.04 146.42,-220.29 147.68,-213.41"/>
</g>
<!-- Node20&#45;&gt;Node3 -->
<g id="edge33" class="edge">
<title>Node20&#45;&gt;Node3</title>
<path fill="none" stroke="midnightblue" d="M914.16,-268.41C799.94,-262.38 550.75,-247.26 342,-221 332.52,-219.81 322.48,-218.29 312.76,-216.7"/>
<polygon fill="midnightblue" stroke="midnightblue" points="313.23,-213.23 302.79,-215.01 312.07,-220.13 313.23,-213.23"/>
</g>
<!-- Node20&#45;&gt;Node4 -->
<g id="edge34" class="edge">
<title>Node20&#45;&gt;Node4</title>
<path fill="none" stroke="midnightblue" d="M914.23,-267.17C821.92,-260.35 644.02,-245.45 483.1,-221.07"/>
<polygon fill="midnightblue" stroke="midnightblue" points="483.43,-217.58 473.02,-219.52 482.37,-224.5 483.43,-217.58"/>
</g>
<!-- Node20&#45;&gt;Node5 -->
<g id="edge35" class="edge">
<title>Node20&#45;&gt;Node5</title>
<path fill="none" stroke="midnightblue" d="M914.26,-265.61C840.17,-258.12 713.1,-243.6 595.19,-221.09"/>
<polygon fill="midnightblue" stroke="midnightblue" points="595.75,-217.63 585.26,-219.17 594.42,-224.51 595.75,-217.63"/>
</g>
<!-- Node20&#45;&gt;Node6 -->
<g id="edge36" class="edge">
<title>Node20&#45;&gt;Node6</title>
<path fill="none" stroke="midnightblue" d="M914.47,-258.35C864.77,-247.89 795.1,-233.24 742.51,-222.17"/>
<polygon fill="midnightblue" stroke="midnightblue" points="743.07,-218.72 732.56,-220.08 741.63,-225.57 743.07,-218.72"/>
</g>
<!-- Node20&#45;&gt;Node7 -->
<g id="edge37" class="edge">
<title>Node20&#45;&gt;Node7</title>
<path fill="none" stroke="midnightblue" d="M940.11,-257.4C909.89,-245.84 867.56,-229.66 838.81,-218.66"/>
<polygon fill="midnightblue" stroke="midnightblue" points="839.84,-215.31 829.25,-215.01 837.34,-221.85 839.84,-215.31"/>
</g>
<!-- Node20&#45;&gt;Node8 -->
<g id="edge38" class="edge">
<title>Node20&#45;&gt;Node8</title>
<path fill="none" stroke="midnightblue" d="M1034.39,-257.48C1083.52,-245.47 1153.26,-228.43 1198.32,-217.42"/>
<polygon fill="midnightblue" stroke="midnightblue" points="1199.21,-220.8 1208.1,-215.03 1197.55,-214 1199.21,-220.8"/>
</g>
<!-- Node20&#45;&gt;Node11 -->
<g id="edge39" class="edge">
<title>Node20&#45;&gt;Node11</title>
<path fill="none" stroke="midnightblue" d="M1008.13,-257.39C1023.49,-248.91 1041.04,-236.71 1052,-221 1077.66,-184.22 1058.15,-164.14 1076,-123 1081.18,-111.06 1089.11,-98.81 1095.9,-89.37"/>
<polygon fill="midnightblue" stroke="midnightblue" points="1098.76,-91.38 1101.93,-81.27 1093.15,-87.2 1098.76,-91.38"/>
</g>
<!-- Node20&#45;&gt;Node14 -->
<g id="edge40" class="edge">
<title>Node20&#45;&gt;Node14</title>
<path fill="none" stroke="midnightblue" d="M948.09,-257.45C934.15,-248.99 918.8,-236.78 911,-221 904.9,-208.65 905.11,-202.46 911,-190 961.66,-82.76 1110.4,-34.34 1175.22,-17.89"/>
<polygon fill="midnightblue" stroke="midnightblue" points="1176.35,-21.22 1185.23,-15.44 1174.68,-14.42 1176.35,-21.22"/>
</g>
<!-- Node20&#45;&gt;Node17 -->
<g id="edge41" class="edge">
<title>Node20&#45;&gt;Node17</title>
<path fill="none" stroke="midnightblue" d="M1039.86,-262.26C1123.8,-249.91 1271.65,-228.17 1355.77,-215.8"/>
<polygon fill="midnightblue" stroke="midnightblue" points="1356.32,-219.25 1365.71,-214.34 1355.31,-212.33 1356.32,-219.25"/>
</g>
<!-- Node20&#45;&gt;Node18 -->
<g id="edge42" class="edge">
<title>Node20&#45;&gt;Node18</title>
<path fill="none" stroke="midnightblue" d="M1011.05,-257.31C1032.88,-247.83 1061.6,-234.63 1086,-221 1095.47,-215.71 1146.24,-181.75 1179.53,-159.37"/>
<polygon fill="midnightblue" stroke="midnightblue" points="1181.65,-162.16 1187.99,-153.67 1177.74,-156.35 1181.65,-162.16"/>
</g>
<!-- Node20&#45;&gt;Node19 -->
<g id="edge43" class="edge">
<title>Node20&#45;&gt;Node19</title>
<path fill="none" stroke="midnightblue" d="M1029.9,-257.44C1058.58,-248.81 1094.17,-236.45 1124,-221 1144.92,-210.17 1146.09,-200.86 1167,-190 1210.41,-167.46 1232.34,-183.97 1271,-154 1290.69,-138.73 1305.56,-114.17 1314.66,-96"/>
<polygon fill="midnightblue" stroke="midnightblue" points="1317.97,-97.19 1319.11,-86.66 1311.65,-94.18 1317.97,-97.19"/>
</g>
<!-- Node21 -->
<g id="node21" class="node">
<title>Node21</title>
<g id="a_node21"><a xlink:title=" ">
<polygon fill="white" stroke="#bfbfbf" points="920.5,-190.5 920.5,-220.5 1043.5,-220.5 1043.5,-190.5 920.5,-190.5"/>
<text text-anchor="start" x="928.5" y="-208.5" font-family="Helvetica,sans-Serif" font-size="10.00">google/protobuf/compiler</text>
<text text-anchor="middle" x="982" y="-197.5" font-family="Helvetica,sans-Serif" font-size="10.00">/parser.h</text>
</a>
</g>
</g>
<!-- Node20&#45;&gt;Node21 -->
<g id="edge31" class="edge">
<title>Node20&#45;&gt;Node21</title>
<path fill="none" stroke="midnightblue" d="M978.08,-257.4C978.69,-249.56 979.45,-239.6 980.15,-230.57"/>
<polygon fill="midnightblue" stroke="midnightblue" points="983.64,-230.82 980.92,-220.58 976.66,-230.28 983.64,-230.82"/>
</g>
</g>
</svg>
        <g id="navigator" transform="translate(0 0)" fill="#404254">
                <rect fill="#f2f5e9" fill-opacity="0.5" stroke="#606060" stroke-width=".5" x="0" y="0" width="60" height="60"/>
                <use id="zoomplus" xlink:href="#zoomPlus" x="17" y="9" onmousedown="handleZoom(evt,'in')"/>
                <use id="zoomminus" xlink:href="#zoomMin" x="42" y="9" onmousedown="handleZoom(evt,'out')"/>
                <use id="reset" xlink:href="#resetDef" x="30" y="36" onmousedown="handleReset()"/>
                <g id="arrowUp" xlink:href="#dirArrow" transform="translate(30 24)" onmousedown="handlePan(0,-1)">
                  <use xlink:href="#rim" fill="#404040">
                        <set attributeName="fill" to="#808080" begin="arrowUp.mouseover" end="arrowUp.mouseout"/>
                  </use>
                  <path fill="none" stroke="white" stroke-width="1.5" d="M0,-3.0v7 M-2.5,-0.5L0,-3.0L2.5,-0.5"/>
                </g>
                <g id="arrowRight" xlink:href="#dirArrow" transform="rotate(90) translate(36 -43)" onmousedown="handlePan(1,0)">
                  <use xlink:href="#rim" fill="#404040">
                        <set attributeName="fill" to="#808080" begin="arrowRight.mouseover" end="arrowRight.mouseout"/>
                  </use>
                  <path fill="none" stroke="white" stroke-width="1.5" d="M0,-3.0v7 M-2.5,-0.5L0,-3.0L2.5,-0.5"/>
                </g>
                <g id="arrowDown" xlink:href="#dirArrow" transform="rotate(180) translate(-30 -48)" onmousedown="handlePan(0,1)">
                  <use xlink:href="#rim" fill="#404040">
                        <set attributeName="fill" to="#808080" begin="arrowDown.mouseover" end="arrowDown.mouseout"/>
                  </use>
                  <path fill="none" stroke="white" stroke-width="1.5" d="M0,-3.0v7 M-2.5,-0.5L0,-3.0L2.5,-0.5"/>
                </g>
                <g id="arrowLeft" xlink:href="#dirArrow" transform="rotate(270) translate(-36 17)" onmousedown="handlePan(-1,0)">
                  <use xlink:href="#rim" fill="#404040">
                        <set attributeName="fill" to="#808080" begin="arrowLeft.mouseover" end="arrowLeft.mouseout"/>
                  </use>
                  <path fill="none" stroke="white" stroke-width="1.5" d="M0,-3.0v7 M-2.5,-0.5L0,-3.0L2.5,-0.5"/>
                </g>
        </g>
        <svg viewBox="0 0 15 15" width="100%" height="30px" preserveAspectRatio="xMaxYMin meet">
         <g id="arrow_out" transform="scale(0.3 0.3)">
          <a xlink:href="protobuf__factory_8h__incl_org.svg" target="_base">
           <rect id="button" ry="5" rx="5" y="6" x="6" height="38" width="38"
                fill="#f2f5e9" fill-opacity="0.5" stroke="#606060" stroke-width="1.0"/>
           <path id="arrow"
             d="M 11.500037,31.436501 C 11.940474,20.09759 22.043105,11.32322 32.158766,21.979434 L 37.068811,17.246167 C 37.068811,17.246167 37.088388,32 37.088388,32 L 22.160133,31.978069 C 22.160133,31.978069 26.997745,27.140456 26.997745,27.140456 C 18.528582,18.264221 13.291696,25.230495 11.500037,31.436501 z"
             style="fill:#404040;"/>
          </a>
         </g>
        </svg>
</svg>
