<?xml version="1.0" encoding="UTF-8" standalone="no"?>
<!DOCTYPE svg PUBLIC "-//W3C//DTD SVG 1.1//EN"
 "http://www.w3.org/Graphics/SVG/1.1/DTD/svg11.dtd">
<!-- Generated by graphviz version 2.42.3 ()
 -->
<!-- Title: automaton::core::node::node::node Pages: 1 -->
<svg width="298pt" height="39pt"
 viewBox="0.00 0.00 298.00 39.00" xmlns="http://www.w3.org/2000/svg" xmlns:xlink="http://www.w3.org/1999/xlink">
<g id="graph0" class="graph" transform="scale(1 1) rotate(0) translate(4 35)">
<title>automaton::core::node::node::node</title>
<polygon fill="white" stroke="transparent" points="-4,4 -4,-35 294,-35 294,4 -4,4"/>
<!-- Node1 -->
<g id="node1" class="node">
<title>Node1</title>
<g id="a_node1"><a xlink:title=" ">
<polygon fill="#bfbfbf" stroke="black" points="0,-0.5 0,-30.5 111,-30.5 111,-0.5 0,-0.5"/>
<text text-anchor="start" x="8" y="-18.5" font-family="Helvetica,sans-Serif" font-size="10.00">automaton::core::node</text>
<text text-anchor="middle" x="55.5" y="-7.5" font-family="Helvetica,sans-Serif" font-size="10.00">::node::node</text>
</a>
</g>
</g>
<!-- Node2 -->
<g id="node2" class="node">
<title>Node2</title>
<g id="a_node2"><a xlink:href="../../d7/db8/classautomaton_1_1core_1_1smartproto_1_1smart__protocol.html#ab42aff379d54055799333d7c840c0f35" target="_top" xlink:title=" ">
<polygon fill="white" stroke="black" points="147,-0.5 147,-30.5 290,-30.5 290,-0.5 147,-0.5"/>
<text text-anchor="start" x="155" y="-18.5" font-family="Helvetica,sans-Serif" font-size="10.00">automaton::core::smartproto</text>
<text text-anchor="middle" x="218.5" y="-7.5" font-family="Helvetica,sans-Serif" font-size="10.00">::smart_protocol::get_protocol</text>
</a>
</g>
</g>
<!-- Node1&#45;&gt;Node2 -->
<g id="edge1" class="edge">
<title>Node1&#45;&gt;Node2</title>
<path fill="none" stroke="midnightblue" d="M111.01,-15.5C119.27,-15.5 127.94,-15.5 136.62,-15.5"/>
<polygon fill="midnightblue" stroke="midnightblue" points="136.78,-19 146.78,-15.5 136.78,-12 136.78,-19"/>
</g>
</g>
</svg>
