<?xml version="1.0" encoding="UTF-8" standalone="no"?>
<!DOCTYPE svg PUBLIC "-//W3C//DTD SVG 1.1//EN"
 "http://www.w3.org/Graphics/SVG/1.1/DTD/svg11.dtd">
<!-- Generated by graphviz version 2.44.0 ()
 -->
<!-- Title: automaton::core::node::node::process_update Pages: 1 -->
<svg width="274pt" height="110pt"
 viewBox="0.00 0.00 274.00 110.00" xmlns="http://www.w3.org/2000/svg" xmlns:xlink="http://www.w3.org/1999/xlink">
<g id="graph0" class="graph" transform="scale(1 1) rotate(0) translate(4 106)">
<title>automaton::core::node::node::process_update</title>
<polygon fill="white" stroke="transparent" points="-4,4 -4,-106 270,-106 270,4 -4,4"/>
<!-- Node1 -->
<g id="node1" class="node">
<title>Node1</title>
<g id="a_node1"><a xlink:title=" ">
<polygon fill="#bfbfbf" stroke="black" points="150,-36 150,-66 266,-66 266,-36 150,-36"/>
<text text-anchor="start" x="158" y="-54" font-family="Helvetica,sans-Serif" font-size="10.00">automaton::core::node</text>
<text text-anchor="middle" x="208" y="-43" font-family="Helvetica,sans-Serif" font-size="10.00">::node::process_update</text>
</a>
</g>
</g>
<!-- Node2 -->
<g id="node2" class="node">
<title>Node2</title>
<g id="a_node2"><a xlink:href="../../d1/d88/classautomaton_1_1core_1_1node_1_1default__node__updater.html#aac2c2684fd2a85a93552eb997dcacced" target="_top" xlink:title=" ">
<polygon fill="white" stroke="black" points="0,-60.5 0,-101.5 114,-101.5 114,-60.5 0,-60.5"/>
<text text-anchor="start" x="8" y="-89.5" font-family="Helvetica,sans-Serif" font-size="10.00">automaton::core::node</text>
<text text-anchor="start" x="8" y="-78.5" font-family="Helvetica,sans-Serif" font-size="10.00">::default_node_updater</text>
<text text-anchor="middle" x="57" y="-67.5" font-family="Helvetica,sans-Serif" font-size="10.00">::update_function</text>
</a>
</g>
</g>
<!-- Node1&#45;&gt;Node2 -->
<g id="edge1" class="edge">
<title>Node1&#45;&gt;Node2</title>
<path fill="none" stroke="midnightblue" d="M139.87,-64.52C131.32,-66.24 122.64,-67.98 114.29,-69.67"/>
<polygon fill="midnightblue" stroke="midnightblue" points="140.71,-67.92 149.82,-62.51 139.32,-61.06 140.71,-67.92"/>
</g>
<!-- Node3 -->
<g id="node3" class="node">
<title>Node3</title>
<g id="a_node3"><a xlink:href="../../dc/dec/classautomaton_1_1core_1_1node_1_1node__updater__tests.html#ae08ac351ae479f0e906f214927c8618f" target="_top" xlink:title=" ">
<polygon fill="white" stroke="black" points="1.5,-0.5 1.5,-41.5 112.5,-41.5 112.5,-0.5 1.5,-0.5"/>
<text text-anchor="start" x="9.5" y="-29.5" font-family="Helvetica,sans-Serif" font-size="10.00">automaton::core::node</text>
<text text-anchor="start" x="9.5" y="-18.5" font-family="Helvetica,sans-Serif" font-size="10.00">::node_updater_tests</text>
<text text-anchor="middle" x="57" y="-7.5" font-family="Helvetica,sans-Serif" font-size="10.00">::update_function</text>
</a>
</g>
</g>
<!-- Node1&#45;&gt;Node3 -->
<g id="edge2" class="edge">
<title>Node1&#45;&gt;Node3</title>
<path fill="none" stroke="midnightblue" d="M139.74,-37.46C130.73,-35.64 121.58,-33.8 112.82,-32.04"/>
<polygon fill="midnightblue" stroke="midnightblue" points="139.32,-40.94 149.82,-39.49 140.71,-34.08 139.32,-40.94"/>
</g>
</g>
</svg>
