<?xml version="1.0" encoding="UTF-8" standalone="no"?>
<!DOCTYPE svg PUBLIC "-//W3C//DTD SVG 1.1//EN"
 "http://www.w3.org/Graphics/SVG/1.1/DTD/svg11.dtd">
<!-- Generated by graphviz version 2.42.3 ()
 -->
<!-- Title: automaton::core::node::node::get_node Pages: 1 -->
<svg width="275pt" height="159pt"
 viewBox="0.00 0.00 275.00 158.50" xmlns="http://www.w3.org/2000/svg" xmlns:xlink="http://www.w3.org/1999/xlink">
<g id="graph0" class="graph" transform="scale(1 1) rotate(0) translate(4 154.5)">
<title>automaton::core::node::node::get_node</title>
<polygon fill="white" stroke="transparent" points="-4,4 -4,-154.5 271,-154.5 271,4 -4,4"/>
<!-- Node1 -->
<g id="node1" class="node">
<title>Node1</title>
<g id="a_node1"><a xlink:title=" ">
<polygon fill="#bfbfbf" stroke="black" points="156,-66 156,-96 267,-96 267,-66 156,-66"/>
<text text-anchor="start" x="164" y="-84" font-family="Helvetica,sans-Serif" font-size="10.00">automaton::core::node</text>
<text text-anchor="middle" x="211.5" y="-73" font-family="Helvetica,sans-Serif" font-size="10.00">::node::get_node</text>
</a>
</g>
</g>
<!-- Node2 -->
<g id="node2" class="node">
<title>Node2</title>
<g id="a_node2"><a xlink:href="../../d4/d63/classautomaton_1_1core_1_1testnet_1_1testnet.html#a221db6447f8c5b873f6883bfd069b3dc" target="_top" xlink:title=" ">
<polygon fill="white" stroke="black" points="0,-120 0,-150 120,-150 120,-120 0,-120"/>
<text text-anchor="start" x="8" y="-138" font-family="Helvetica,sans-Serif" font-size="10.00">automaton::core::testnet</text>
<text text-anchor="middle" x="60" y="-127" font-family="Helvetica,sans-Serif" font-size="10.00">::testnet::connect</text>
</a>
</g>
</g>
<!-- Node1&#45;&gt;Node2 -->
<g id="edge1" class="edge">
<title>Node1&#45;&gt;Node2</title>
<path fill="none" stroke="midnightblue" d="M159.41,-99.45C140.92,-106.13 120.27,-113.59 102.68,-119.95"/>
<polygon fill="midnightblue" stroke="midnightblue" points="160.64,-102.73 168.86,-96.04 158.26,-96.15 160.64,-102.73"/>
</g>
<!-- Node3 -->
<g id="node3" class="node">
<title>Node3</title>
<g id="a_node3"><a xlink:href="../../d1/d88/classautomaton_1_1core_1_1node_1_1default__node__updater.html#aac2c2684fd2a85a93552eb997dcacced" target="_top" xlink:title=" ">
<polygon fill="white" stroke="black" points="3,-60.5 3,-101.5 117,-101.5 117,-60.5 3,-60.5"/>
<text text-anchor="start" x="11" y="-89.5" font-family="Helvetica,sans-Serif" font-size="10.00">automaton::core::node</text>
<text text-anchor="start" x="11" y="-78.5" font-family="Helvetica,sans-Serif" font-size="10.00">::default_node_updater</text>
<text text-anchor="middle" x="60" y="-67.5" font-family="Helvetica,sans-Serif" font-size="10.00">::update_function</text>
</a>
</g>
</g>
<!-- Node1&#45;&gt;Node3 -->
<g id="edge2" class="edge">
<title>Node1&#45;&gt;Node3</title>
<path fill="none" stroke="midnightblue" d="M145.51,-81C136.03,-81 126.34,-81 117.07,-81"/>
<polygon fill="midnightblue" stroke="midnightblue" points="145.68,-84.5 155.68,-81 145.68,-77.5 145.68,-84.5"/>
</g>
<!-- Node4 -->
<g id="node4" class="node">
<title>Node4</title>
<g id="a_node4"><a xlink:href="../../dc/dec/classautomaton_1_1core_1_1node_1_1node__updater__tests.html#ae08ac351ae479f0e906f214927c8618f" target="_top" xlink:title=" ">
<polygon fill="white" stroke="black" points="4.5,-0.5 4.5,-41.5 115.5,-41.5 115.5,-0.5 4.5,-0.5"/>
<text text-anchor="start" x="12.5" y="-29.5" font-family="Helvetica,sans-Serif" font-size="10.00">automaton::core::node</text>
<text text-anchor="start" x="12.5" y="-18.5" font-family="Helvetica,sans-Serif" font-size="10.00">::node_updater_tests</text>
<text text-anchor="middle" x="60" y="-7.5" font-family="Helvetica,sans-Serif" font-size="10.00">::update_function</text>
</a>
</g>
</g>
<!-- Node1&#45;&gt;Node4 -->
<g id="edge3" class="edge">
<title>Node1&#45;&gt;Node4</title>
<path fill="none" stroke="midnightblue" d="M163.46,-62.12C147.18,-55.59 128.86,-48.24 112.27,-41.58"/>
<polygon fill="midnightblue" stroke="midnightblue" points="162.19,-65.38 172.77,-65.86 164.8,-58.89 162.19,-65.38"/>
</g>
</g>
</svg>
