<?xml version="1.0" encoding="UTF-8" standalone="no"?>
<!DOCTYPE svg PUBLIC "-//W3C//DTD SVG 1.1//EN"
 "http://www.w3.org/Graphics/SVG/1.1/DTD/svg11.dtd">
<!-- Generated by graphviz version 2.42.3 ()
 -->
<!-- Title: automaton::core::node::node::connect Pages: 1 -->
<svg width="453pt" height="88pt"
 viewBox="0.00 0.00 453.00 88.00" xmlns="http://www.w3.org/2000/svg" xmlns:xlink="http://www.w3.org/1999/xlink">
<g id="graph0" class="graph" transform="scale(1 1) rotate(0) translate(4 84)">
<title>automaton::core::node::node::connect</title>
<polygon fill="white" stroke="transparent" points="-4,4 -4,-84 449,-84 449,4 -4,4"/>
<!-- Node1 -->
<g id="node1" class="node">
<title>Node1</title>
<g id="a_node1"><a xlink:title=" ">
<polygon fill="#bfbfbf" stroke="black" points="0,-24.5 0,-54.5 111,-54.5 111,-24.5 0,-24.5"/>
<text text-anchor="start" x="8" y="-42.5" font-family="Helvetica,sans-Serif" font-size="10.00">automaton::core::node</text>
<text text-anchor="middle" x="55.5" y="-31.5" font-family="Helvetica,sans-Serif" font-size="10.00">::node::connect</text>
</a>
</g>
</g>
<!-- Node2 -->
<g id="node2" class="node">
<title>Node2</title>
<g id="a_node2"><a xlink:href="../../da/d6a/structautomaton_1_1core_1_1common_1_1status.html#ac800f84c2b44b50f51806a4ddb11e07d" target="_top" xlink:title=" ">
<polygon fill="white" stroke="black" points="150,-49.5 150,-79.5 278,-79.5 278,-49.5 150,-49.5"/>
<text text-anchor="start" x="158" y="-67.5" font-family="Helvetica,sans-Serif" font-size="10.00">automaton::core::common</text>
<text text-anchor="middle" x="214" y="-56.5" font-family="Helvetica,sans-Serif" font-size="10.00">::status::canceled</text>
</a>
</g>
</g>
<!-- Node1&#45;&gt;Node2 -->
<g id="edge1" class="edge">
<title>Node1&#45;&gt;Node2</title>
<path fill="none" stroke="midnightblue" d="M111.24,-48.24C120.53,-49.73 130.3,-51.29 139.97,-52.83"/>
<polygon fill="midnightblue" stroke="midnightblue" points="139.56,-56.31 149.99,-54.43 140.66,-49.4 139.56,-56.31"/>
</g>
<!-- Node4 -->
<g id="node4" class="node">
<title>Node4</title>
<g id="a_node4"><a xlink:href="../../da/d6a/structautomaton_1_1core_1_1common_1_1status.html#aa35eacdb95167b5db1cff056c0e42522" target="_top" xlink:title=" ">
<polygon fill="white" stroke="black" points="147,-0.5 147,-30.5 281,-30.5 281,-0.5 147,-0.5"/>
<text text-anchor="start" x="155" y="-18.5" font-family="Helvetica,sans-Serif" font-size="10.00">automaton::core::common</text>
<text text-anchor="middle" x="214" y="-7.5" font-family="Helvetica,sans-Serif" font-size="10.00">::status::failed_precondition</text>
</a>
</g>
</g>
<!-- Node1&#45;&gt;Node4 -->
<g id="edge3" class="edge">
<title>Node1&#45;&gt;Node4</title>
<path fill="none" stroke="midnightblue" d="M111.24,-31.11C119.54,-29.83 128.22,-28.5 136.88,-27.17"/>
<polygon fill="midnightblue" stroke="midnightblue" points="137.64,-30.6 146.99,-25.62 136.58,-23.68 137.64,-30.6"/>
</g>
<!-- Node3 -->
<g id="node3" class="node">
<title>Node3</title>
<g id="a_node3"><a xlink:href="../../da/d6a/structautomaton_1_1core_1_1common_1_1status.html#ab1096af0cf8847d8a8f08e25afa5a61b" target="_top" xlink:title=" ">
<polygon fill="white" stroke="black" points="317,-24.5 317,-54.5 445,-54.5 445,-24.5 317,-24.5"/>
<text text-anchor="start" x="325" y="-42.5" font-family="Helvetica,sans-Serif" font-size="10.00">automaton::core::common</text>
<text text-anchor="middle" x="381" y="-31.5" font-family="Helvetica,sans-Serif" font-size="10.00">::status::status</text>
</a>
</g>
</g>
<!-- Node2&#45;&gt;Node3 -->
<g id="edge2" class="edge">
<title>Node2&#45;&gt;Node3</title>
<path fill="none" stroke="midnightblue" d="M278.32,-54.91C287.6,-53.5 297.22,-52.04 306.67,-50.61"/>
<polygon fill="midnightblue" stroke="midnightblue" points="307.49,-54.03 316.85,-49.07 306.44,-47.11 307.49,-54.03"/>
</g>
<!-- Node4&#45;&gt;Node3 -->
<g id="edge4" class="edge">
<title>Node4&#45;&gt;Node3</title>
<path fill="none" stroke="midnightblue" d="M281.16,-25.12C289.6,-26.35 298.28,-27.61 306.83,-28.86"/>
<polygon fill="midnightblue" stroke="midnightblue" points="306.37,-32.33 316.77,-30.3 307.38,-25.4 306.37,-32.33"/>
</g>
</g>
</svg>
