<?xml version="1.0" encoding="UTF-8" standalone="no"?>
<!DOCTYPE svg PUBLIC "-//W3C//DTD SVG 1.1//EN"
 "http://www.w3.org/Graphics/SVG/1.1/DTD/svg11.dtd">
<!-- Generated by graphviz version 2.42.3 ()
 -->
<!-- Title: automaton::core::node::node::get_wire_msg Pages: 1 -->
<svg width="290pt" height="39pt"
 viewBox="0.00 0.00 290.00 39.00" xmlns="http://www.w3.org/2000/svg" xmlns:xlink="http://www.w3.org/1999/xlink">
<g id="graph0" class="graph" transform="scale(1 1) rotate(0) translate(4 35)">
<title>automaton::core::node::node::get_wire_msg</title>
<polygon fill="white" stroke="transparent" points="-4,4 -4,-35 286,-35 286,4 -4,4"/>
<!-- Node1 -->
<g id="node1" class="node">
<title>Node1</title>
<g id="a_node1"><a xlink:title=" ">
<polygon fill="#bfbfbf" stroke="black" points="0,-0.5 0,-30.5 111,-30.5 111,-0.5 0,-0.5"/>
<text text-anchor="start" x="8" y="-18.5" font-family="Helvetica,sans-Serif" font-size="10.00">automaton::core::node</text>
<text text-anchor="middle" x="55.5" y="-7.5" font-family="Helvetica,sans-Serif" font-size="10.00">::node::get_wire_msg</text>
</a>
</g>
</g>
<!-- Node2 -->
<g id="node2" class="node">
<title>Node2</title>
<g id="a_node2"><a xlink:href="../../df/d83/classautomaton_1_1core_1_1data_1_1msg.html#a28f5bbbe18ba585b6cc9ef572324f7d5" target="_top" xlink:title=" ">
<polygon fill="white" stroke="black" points="147,-0.5 147,-30.5 282,-30.5 282,-0.5 147,-0.5"/>
<text text-anchor="start" x="155" y="-18.5" font-family="Helvetica,sans-Serif" font-size="10.00">automaton::core::data</text>
<text text-anchor="middle" x="214.5" y="-7.5" font-family="Helvetica,sans-Serif" font-size="10.00">::msg::deserialize_message</text>
</a>
</g>
</g>
<!-- Node1&#45;&gt;Node2 -->
<g id="edge1" class="edge">
<title>Node1&#45;&gt;Node2</title>
<path fill="none" stroke="midnightblue" d="M111.41,-15.5C119.52,-15.5 128,-15.5 136.46,-15.5"/>
<polygon fill="midnightblue" stroke="midnightblue" points="136.74,-19 146.74,-15.5 136.74,-12 136.74,-19"/>
</g>
</g>
</svg>
