<?xml version="1.0" encoding="UTF-8" standalone="no"?>
<!DOCTYPE svg PUBLIC "-//W3C//DTD SVG 1.1//EN"
 "http://www.w3.org/Graphics/SVG/1.1/DTD/svg11.dtd">
<!-- Generated by graphviz version 2.44.0 ()
 -->
<!-- Title: automaton::core::node::node::process_update Pages: 1 -->
<svg width="405pt" height="88pt"
 viewBox="0.00 0.00 405.00 88.00" xmlns="http://www.w3.org/2000/svg" xmlns:xlink="http://www.w3.org/1999/xlink">
<g id="graph0" class="graph" transform="scale(1 1) rotate(0) translate(4 84)">
<title>automaton::core::node::node::process_update</title>
<polygon fill="white" stroke="transparent" points="-4,4 -4,-84 401,-84 401,4 -4,4"/>
<!-- Node1 -->
<g id="node1" class="node">
<title>Node1</title>
<g id="a_node1"><a xlink:title=" ">
<polygon fill="#bfbfbf" stroke="black" points="0,-24.5 0,-54.5 116,-54.5 116,-24.5 0,-24.5"/>
<text text-anchor="start" x="8" y="-42.5" font-family="Helvetica,sans-Serif" font-size="10.00">automaton::core::node</text>
<text text-anchor="middle" x="58" y="-31.5" font-family="Helvetica,sans-Serif" font-size="10.00">::node::process_update</text>
</a>
</g>
</g>
<!-- Node2 -->
<g id="node2" class="node">
<title>Node2</title>
<g id="a_node2"><a xlink:href="../../da/d77/classautomaton_1_1core_1_1node_1_1node.html#a93dd5dbc737ce5578ca9f2d92f928788" target="_top" xlink:title=" ">
<polygon fill="white" stroke="black" points="152,-24.5 152,-54.5 263,-54.5 263,-24.5 152,-24.5"/>
<text text-anchor="start" x="160" y="-42.5" font-family="Helvetica,sans-Serif" font-size="10.00">automaton::core::node</text>
<text text-anchor="middle" x="207.5" y="-31.5" font-family="Helvetica,sans-Serif" font-size="10.00">::node::log</text>
</a>
</g>
</g>
<!-- Node1&#45;&gt;Node2 -->
<g id="edge1" class="edge">
<title>Node1&#45;&gt;Node2</title>
<path fill="none" stroke="midnightblue" d="M116.03,-39.5C124.33,-39.5 132.92,-39.5 141.37,-39.5"/>
<polygon fill="midnightblue" stroke="midnightblue" points="141.56,-43 151.56,-39.5 141.56,-36 141.56,-43"/>
</g>
<!-- Node3 -->
<g id="node3" class="node">
<title>Node3</title>
<g id="a_node3"><a xlink:href="../../da/dd5/namespaceautomaton_1_1core_1_1io.html#aea246d3b4b82db2aa3e39d76bec63d05" target="_top" xlink:title=" ">
<polygon fill="white" stroke="black" points="299,-49.5 299,-79.5 397,-79.5 397,-49.5 299,-49.5"/>
<text text-anchor="start" x="307" y="-67.5" font-family="Helvetica,sans-Serif" font-size="10.00">automaton::core::io</text>
<text text-anchor="middle" x="348" y="-56.5" font-family="Helvetica,sans-Serif" font-size="10.00">::get_date_string</text>
</a>
</g>
</g>
<!-- Node2&#45;&gt;Node3 -->
<g id="edge2" class="edge">
<title>Node2&#45;&gt;Node3</title>
<path fill="none" stroke="midnightblue" d="M263.24,-49.38C271.72,-50.91 280.5,-52.5 289.04,-54.04"/>
<polygon fill="midnightblue" stroke="midnightblue" points="288.47,-57.49 298.94,-55.82 289.72,-50.6 288.47,-57.49"/>
</g>
<!-- Node4 -->
<g id="node4" class="node">
<title>Node4</title>
<g id="a_node4"><a xlink:href="../../da/dd5/namespaceautomaton_1_1core_1_1io.html#a698c4323641638b149fe966f6b4fb211" target="_top" xlink:title=" ">
<polygon fill="white" stroke="black" points="299,-0.5 299,-30.5 397,-30.5 397,-0.5 299,-0.5"/>
<text text-anchor="start" x="307" y="-18.5" font-family="Helvetica,sans-Serif" font-size="10.00">automaton::core::io</text>
<text text-anchor="middle" x="348" y="-7.5" font-family="Helvetica,sans-Serif" font-size="10.00">::zero_padded</text>
</a>
</g>
</g>
<!-- Node2&#45;&gt;Node4 -->
<g id="edge3" class="edge">
<title>Node2&#45;&gt;Node4</title>
<path fill="none" stroke="midnightblue" d="M263.24,-30.01C271.72,-28.55 280.5,-27.02 289.04,-25.54"/>
<polygon fill="midnightblue" stroke="midnightblue" points="289.68,-28.98 298.94,-23.83 288.49,-22.09 289.68,-28.98"/>
</g>
</g>
</svg>
