<?xml version="1.0" encoding="UTF-8" standalone="no"?>
<!DOCTYPE svg PUBLIC "-//W3C//DTD SVG 1.1//EN"
 "http://www.w3.org/Graphics/SVG/1.1/DTD/svg11.dtd">
<!-- Generated by graphviz version 2.44.0 ()
 -->
<!-- Title: connection.cc Pages: 1 -->
<svg width="355pt" height="218pt"
 viewBox="0.00 0.00 355.00 218.00" xmlns="http://www.w3.org/2000/svg" xmlns:xlink="http://www.w3.org/1999/xlink">
<g id="graph0" class="graph" transform="scale(1 1) rotate(0) translate(4 214)">
<title>connection.cc</title>
<polygon fill="white" stroke="transparent" points="-4,4 -4,-214 351,-214 351,4 -4,4"/>
<!-- Node1 -->
<g id="node1" class="node">
<title>Node1</title>
<g id="a_node1"><a xlink:title=" ">
<polygon fill="#bfbfbf" stroke="black" points="94,-190.5 94,-209.5 171,-209.5 171,-190.5 94,-190.5"/>
<text text-anchor="middle" x="132.5" y="-197.5" font-family="Helvetica,sans-Serif" font-size="10.00">connection.cc</text>
</a>
</g>
</g>
<!-- Node2 -->
<g id="node2" class="node">
<title>Node2</title>
<g id="a_node2"><a xlink:href="../../d4/d67/connection_8h.html" target="_top" xlink:title=" ">
<polygon fill="white" stroke="black" points="71.5,-123.5 71.5,-153.5 193.5,-153.5 193.5,-123.5 71.5,-123.5"/>
<text text-anchor="start" x="79.5" y="-141.5" font-family="Helvetica,sans-Serif" font-size="10.00">automaton/core/network</text>
<text text-anchor="middle" x="132.5" y="-130.5" font-family="Helvetica,sans-Serif" font-size="10.00">/connection.h</text>
</a>
</g>
</g>
<!-- Node1&#45;&gt;Node2 -->
<g id="edge1" class="edge">
<title>Node1&#45;&gt;Node2</title>
<path fill="none" stroke="midnightblue" d="M132.5,-190.48C132.5,-183.47 132.5,-173.19 132.5,-163.7"/>
<polygon fill="midnightblue" stroke="midnightblue" points="136,-163.52 132.5,-153.52 129,-163.52 136,-163.52"/>
</g>
<!-- Node3 -->
<g id="node3" class="node">
<title>Node3</title>
<g id="a_node3"><a xlink:title=" ">
<polygon fill="white" stroke="#bfbfbf" points="0,-62 0,-81 35,-81 35,-62 0,-62"/>
<text text-anchor="middle" x="17.5" y="-69" font-family="Helvetica,sans-Serif" font-size="10.00">map</text>
</a>
</g>
</g>
<!-- Node2&#45;&gt;Node3 -->
<g id="edge2" class="edge">
<title>Node2&#45;&gt;Node3</title>
<path fill="none" stroke="midnightblue" d="M107.55,-123.4C87.9,-112.29 60.71,-96.92 41.35,-85.98"/>
<polygon fill="midnightblue" stroke="midnightblue" points="42.98,-82.88 32.55,-81.01 39.53,-88.97 42.98,-82.88"/>
</g>
<!-- Node4 -->
<g id="node4" class="node">
<title>Node4</title>
<g id="a_node4"><a xlink:title=" ">
<polygon fill="white" stroke="#bfbfbf" points="53,-62 53,-81 104,-81 104,-62 53,-62"/>
<text text-anchor="middle" x="78.5" y="-69" font-family="Helvetica,sans-Serif" font-size="10.00">memory</text>
</a>
</g>
</g>
<!-- Node2&#45;&gt;Node4 -->
<g id="edge3" class="edge">
<title>Node2&#45;&gt;Node4</title>
<path fill="none" stroke="midnightblue" d="M120.78,-123.4C112.36,-113.26 100.99,-99.57 92.16,-88.94"/>
<polygon fill="midnightblue" stroke="midnightblue" points="94.81,-86.65 85.72,-81.19 89.42,-91.12 94.81,-86.65"/>
</g>
<!-- Node5 -->
<g id="node5" class="node">
<title>Node5</title>
<g id="a_node5"><a xlink:title=" ">
<polygon fill="white" stroke="#bfbfbf" points="155,-0.5 155,-19.5 196,-19.5 196,-0.5 155,-0.5"/>
<text text-anchor="middle" x="175.5" y="-7.5" font-family="Helvetica,sans-Serif" font-size="10.00">string</text>
</a>
</g>
</g>
<!-- Node2&#45;&gt;Node5 -->
<g id="edge4" class="edge">
<title>Node2&#45;&gt;Node5</title>
<path fill="none" stroke="midnightblue" d="M134.65,-123.33C137.41,-106.81 142.91,-78.85 151.5,-56 155.04,-46.57 160.18,-36.64 164.79,-28.51"/>
<polygon fill="midnightblue" stroke="midnightblue" points="167.95,-30.04 170.01,-19.64 161.92,-26.48 167.95,-30.04"/>
</g>
<!-- Node6 -->
<g id="node6" class="node">
<title>Node6</title>
<g id="a_node6"><a xlink:title=" ">
<polygon fill="white" stroke="#bfbfbf" points="160.5,-62 160.5,-81 204.5,-81 204.5,-62 160.5,-62"/>
<text text-anchor="middle" x="182.5" y="-69" font-family="Helvetica,sans-Serif" font-size="10.00">thread</text>
</a>
</g>
</g>
<!-- Node2&#45;&gt;Node6 -->
<g id="edge5" class="edge">
<title>Node2&#45;&gt;Node6</title>
<path fill="none" stroke="midnightblue" d="M143.35,-123.4C151.07,-113.36 161.47,-99.84 169.61,-89.25"/>
<polygon fill="midnightblue" stroke="midnightblue" points="172.49,-91.25 175.81,-81.19 166.94,-86.99 172.49,-91.25"/>
</g>
<!-- Node7 -->
<g id="node7" class="node">
<title>Node7</title>
<g id="a_node7"><a xlink:href="../../d1/d13/status_8h.html" target="_top" xlink:title=" ">
<polygon fill="white" stroke="black" points="222,-56.5 222,-86.5 347,-86.5 347,-56.5 222,-56.5"/>
<text text-anchor="start" x="230" y="-74.5" font-family="Helvetica,sans-Serif" font-size="10.00">automaton/core/common</text>
<text text-anchor="middle" x="284.5" y="-63.5" font-family="Helvetica,sans-Serif" font-size="10.00">/status.h</text>
</a>
</g>
</g>
<!-- Node2&#45;&gt;Node7 -->
<g id="edge6" class="edge">
<title>Node2&#45;&gt;Node7</title>
<path fill="none" stroke="midnightblue" d="M165.48,-123.4C187.99,-113.77 218,-100.94 242.26,-90.56"/>
<polygon fill="midnightblue" stroke="midnightblue" points="243.76,-93.73 251.58,-86.58 241.01,-87.29 243.76,-93.73"/>
</g>
<!-- Node7&#45;&gt;Node5 -->
<g id="edge8" class="edge">
<title>Node7&#45;&gt;Node5</title>
<path fill="none" stroke="midnightblue" d="M258.67,-56.4C241.03,-46.77 217.8,-34.09 200.37,-24.58"/>
<polygon fill="midnightblue" stroke="midnightblue" points="201.81,-21.38 191.36,-19.66 198.46,-27.52 201.81,-21.38"/>
</g>
<!-- Node8 -->
<g id="node8" class="node">
<title>Node8</title>
<g id="a_node8"><a xlink:title=" ">
<polygon fill="white" stroke="#bfbfbf" points="222.5,-0.5 222.5,-19.5 274.5,-19.5 274.5,-0.5 222.5,-0.5"/>
<text text-anchor="middle" x="248.5" y="-7.5" font-family="Helvetica,sans-Serif" font-size="10.00">ostream</text>
</a>
</g>
</g>
<!-- Node7&#45;&gt;Node8 -->
<g id="edge7" class="edge">
<title>Node7&#45;&gt;Node8</title>
<path fill="none" stroke="midnightblue" d="M275.97,-56.4C270.9,-48.02 264.43,-37.33 259.04,-28.42"/>
<polygon fill="midnightblue" stroke="midnightblue" points="261.91,-26.4 253.74,-19.66 255.92,-30.03 261.91,-26.4"/>
</g>
<!-- Node9 -->
<g id="node9" class="node">
<title>Node9</title>
<g id="a_node9"><a xlink:title=" ">
<polygon fill="white" stroke="#bfbfbf" points="292.5,-0.5 292.5,-19.5 346.5,-19.5 346.5,-0.5 292.5,-0.5"/>
<text text-anchor="middle" x="319.5" y="-7.5" font-family="Helvetica,sans-Serif" font-size="10.00">iostream</text>
</a>
</g>
</g>
<!-- Node7&#45;&gt;Node9 -->
<g id="edge9" class="edge">
<title>Node7&#45;&gt;Node9</title>
<path fill="none" stroke="midnightblue" d="M292.79,-56.4C297.72,-48.02 304.01,-37.33 309.25,-28.42"/>
<polygon fill="midnightblue" stroke="midnightblue" points="312.35,-30.05 314.41,-19.66 306.32,-26.5 312.35,-30.05"/>
</g>
</g>
</svg>
