<?xml version="1.0" encoding="UTF-8" standalone="no"?>
<!DOCTYPE svg PUBLIC "-//W3C//DTD SVG 1.1//EN"
 "http://www.w3.org/Graphics/SVG/1.1/DTD/svg11.dtd">
<!-- Generated by graphviz version 2.44.0 ()
 -->
<!-- Title: http_server.h Pages: 1 -->
<svg width="1042pt" height="151pt"
 viewBox="0.00 0.00 1042.00 151.00" xmlns="http://www.w3.org/2000/svg" xmlns:xlink="http://www.w3.org/1999/xlink">
<g id="graph0" class="graph" transform="scale(1 1) rotate(0) translate(4 147)">
<title>http_server.h</title>
<polygon fill="white" stroke="transparent" points="-4,4 -4,-147 1038,-147 1038,4 -4,4"/>
<!-- Node1 -->
<g id="node1" class="node">
<title>Node1</title>
<g id="a_node1"><a xlink:title=" ">
<polygon fill="#bfbfbf" stroke="black" points="257,-123.5 257,-142.5 330,-142.5 330,-123.5 257,-123.5"/>
<text text-anchor="middle" x="293.5" y="-130.5" font-family="Helvetica,sans-Serif" font-size="10.00">http_server.h</text>
</a>
</g>
</g>
<!-- Node2 -->
<g id="node2" class="node">
<title>Node2</title>
<g id="a_node2"><a xlink:title=" ">
<polygon fill="white" stroke="#bfbfbf" points="0,-62 0,-81 45,-81 45,-62 0,-62"/>
<text text-anchor="middle" x="22.5" y="-69" font-family="Helvetica,sans-Serif" font-size="10.00">cstdlib</text>
</a>
</g>
</g>
<!-- Node1&#45;&gt;Node2 -->
<g id="edge1" class="edge">
<title>Node1&#45;&gt;Node2</title>
<path fill="none" stroke="midnightblue" d="M256.8,-127.86C209.3,-121.88 124.36,-109.05 54.5,-87 52.62,-86.41 50.71,-85.73 48.81,-85.01"/>
<polygon fill="midnightblue" stroke="midnightblue" points="50.05,-81.74 39.47,-81.1 47.35,-88.19 50.05,-81.74"/>
</g>
<!-- Node3 -->
<g id="node3" class="node">
<title>Node3</title>
<g id="a_node3"><a xlink:title=" ">
<polygon fill="white" stroke="#bfbfbf" points="63.5,-62 63.5,-81 117.5,-81 117.5,-62 63.5,-62"/>
<text text-anchor="middle" x="90.5" y="-69" font-family="Helvetica,sans-Serif" font-size="10.00">iostream</text>
</a>
</g>
</g>
<!-- Node1&#45;&gt;Node3 -->
<g id="edge2" class="edge">
<title>Node1&#45;&gt;Node3</title>
<path fill="none" stroke="midnightblue" d="M256.97,-123.49C222.88,-115.24 170.78,-101.82 126.5,-87 124.37,-86.29 122.19,-85.51 120,-84.71"/>
<polygon fill="midnightblue" stroke="midnightblue" points="121.11,-81.39 110.52,-81.06 118.6,-87.92 121.11,-81.39"/>
</g>
<!-- Node4 -->
<g id="node4" class="node">
<title>Node4</title>
<g id="a_node4"><a xlink:title=" ">
<polygon fill="white" stroke="#bfbfbf" points="136,-62 136,-81 171,-81 171,-62 136,-62"/>
<text text-anchor="middle" x="153.5" y="-69" font-family="Helvetica,sans-Serif" font-size="10.00">map</text>
</a>
</g>
</g>
<!-- Node1&#45;&gt;Node4 -->
<g id="edge3" class="edge">
<title>Node1&#45;&gt;Node4</title>
<path fill="none" stroke="midnightblue" d="M269.08,-123.43C245.73,-114.99 209.69,-101.3 179.5,-87 178.68,-86.61 177.86,-86.21 177.02,-85.8"/>
<polygon fill="midnightblue" stroke="midnightblue" points="178.65,-82.7 168.17,-81.13 175.38,-88.89 178.65,-82.7"/>
</g>
<!-- Node5 -->
<g id="node5" class="node">
<title>Node5</title>
<g id="a_node5"><a xlink:title=" ">
<polygon fill="white" stroke="#bfbfbf" points="189,-62 189,-81 240,-81 240,-62 189,-62"/>
<text text-anchor="middle" x="214.5" y="-69" font-family="Helvetica,sans-Serif" font-size="10.00">memory</text>
</a>
</g>
</g>
<!-- Node1&#45;&gt;Node5 -->
<g id="edge4" class="edge">
<title>Node1&#45;&gt;Node5</title>
<path fill="none" stroke="midnightblue" d="M282.18,-123.48C269.63,-114.02 249.15,-98.6 234,-87.19"/>
<polygon fill="midnightblue" stroke="midnightblue" points="235.89,-84.23 225.8,-81.01 231.68,-89.82 235.89,-84.23"/>
</g>
<!-- Node6 -->
<g id="node6" class="node">
<title>Node6</title>
<g id="a_node6"><a xlink:title=" ">
<polygon fill="white" stroke="#bfbfbf" points="446,-0.5 446,-19.5 487,-19.5 487,-0.5 446,-0.5"/>
<text text-anchor="middle" x="466.5" y="-7.5" font-family="Helvetica,sans-Serif" font-size="10.00">string</text>
</a>
</g>
</g>
<!-- Node1&#45;&gt;Node6 -->
<g id="edge5" class="edge">
<title>Node1&#45;&gt;Node6</title>
<path fill="none" stroke="midnightblue" d="M289.43,-123.4C282.83,-108.09 272.04,-75.83 287.5,-56 305.55,-32.85 389.46,-19.79 435.71,-14.23"/>
<polygon fill="midnightblue" stroke="midnightblue" points="436.25,-17.69 445.78,-13.07 435.44,-10.74 436.25,-17.69"/>
</g>
<!-- Node7 -->
<g id="node7" class="node">
<title>Node7</title>
<g id="a_node7"><a xlink:title=" ">
<polygon fill="white" stroke="#bfbfbf" points="296.5,-62 296.5,-81 340.5,-81 340.5,-62 296.5,-62"/>
<text text-anchor="middle" x="318.5" y="-69" font-family="Helvetica,sans-Serif" font-size="10.00">thread</text>
</a>
</g>
</g>
<!-- Node1&#45;&gt;Node7 -->
<g id="edge6" class="edge">
<title>Node1&#45;&gt;Node7</title>
<path fill="none" stroke="midnightblue" d="M297.08,-123.48C300.68,-114.9 306.35,-101.43 310.94,-90.48"/>
<polygon fill="midnightblue" stroke="midnightblue" points="314.28,-91.58 314.92,-81.01 307.82,-88.87 314.28,-91.58"/>
</g>
<!-- Node8 -->
<g id="node8" class="node">
<title>Node8</title>
<g id="a_node8"><a xlink:title=" ">
<polygon fill="white" stroke="#bfbfbf" points="358.5,-56.5 358.5,-86.5 464.5,-86.5 464.5,-56.5 358.5,-56.5"/>
<text text-anchor="start" x="366.5" y="-74.5" font-family="Helvetica,sans-Serif" font-size="10.00">boost/config/warning</text>
<text text-anchor="middle" x="411.5" y="-63.5" font-family="Helvetica,sans-Serif" font-size="10.00">_disable.hpp</text>
</a>
</g>
</g>
<!-- Node1&#45;&gt;Node8 -->
<g id="edge7" class="edge">
<title>Node1&#45;&gt;Node8</title>
<path fill="none" stroke="midnightblue" d="M310.41,-123.48C327.06,-115.08 353.05,-101.97 374.51,-91.15"/>
<polygon fill="midnightblue" stroke="midnightblue" points="376.34,-94.15 383.69,-86.52 373.18,-87.9 376.34,-94.15"/>
</g>
<!-- Node9 -->
<g id="node9" class="node">
<title>Node9</title>
<g id="a_node9"><a xlink:title=" ">
<polygon fill="white" stroke="#bfbfbf" points="483,-62 483,-81 610,-81 610,-62 483,-62"/>
<text text-anchor="middle" x="546.5" y="-69" font-family="Helvetica,sans-Serif" font-size="10.00">boost/asio/io_service.hpp</text>
</a>
</g>
</g>
<!-- Node1&#45;&gt;Node9 -->
<g id="edge8" class="edge">
<title>Node1&#45;&gt;Node9</title>
<path fill="none" stroke="midnightblue" d="M329.75,-123.48C374.65,-112.92 451.21,-94.91 500.28,-83.37"/>
<polygon fill="midnightblue" stroke="midnightblue" points="501.39,-86.71 510.32,-81.01 499.78,-79.89 501.39,-86.71"/>
</g>
<!-- Node10 -->
<g id="node10" class="node">
<title>Node10</title>
<g id="a_node10"><a xlink:title=" ">
<polygon fill="white" stroke="#bfbfbf" points="628,-62 628,-81 735,-81 735,-62 628,-62"/>
<text text-anchor="middle" x="681.5" y="-69" font-family="Helvetica,sans-Serif" font-size="10.00">boost/asio/ip/tcp.hpp</text>
</a>
</g>
</g>
<!-- Node1&#45;&gt;Node10 -->
<g id="edge9" class="edge">
<title>Node1&#45;&gt;Node10</title>
<path fill="none" stroke="midnightblue" d="M330.22,-127.99C390.62,-121.16 514.58,-106.11 618.5,-87 624.44,-85.91 630.67,-84.63 636.8,-83.3"/>
<polygon fill="midnightblue" stroke="midnightblue" points="637.96,-86.63 646.95,-81.03 636.43,-79.8 637.96,-86.63"/>
</g>
<!-- Node11 -->
<g id="node11" class="node">
<title>Node11</title>
<g id="a_node11"><a xlink:href="../../dc/dac/io_8h.html" target="_top" xlink:title=" ">
<polygon fill="white" stroke="black" points="753,-62 753,-81 866,-81 866,-62 753,-62"/>
<text text-anchor="middle" x="809.5" y="-69" font-family="Helvetica,sans-Serif" font-size="10.00">automaton/core/io/io.h</text>
</a>
</g>
</g>
<!-- Node1&#45;&gt;Node11 -->
<g id="edge10" class="edge">
<title>Node1&#45;&gt;Node11</title>
<path fill="none" stroke="midnightblue" d="M330.14,-129.79C407.08,-124.83 590.95,-111.3 743.5,-87 750.27,-85.92 757.39,-84.58 764.35,-83.15"/>
<polygon fill="midnightblue" stroke="midnightblue" points="765.31,-86.52 774.36,-81.02 763.85,-79.68 765.31,-86.52"/>
</g>
<!-- Node11&#45;&gt;Node6 -->
<g id="edge12" class="edge">
<title>Node11&#45;&gt;Node6</title>
<path fill="none" stroke="midnightblue" d="M772.23,-61.93C762.87,-59.89 752.83,-57.78 743.5,-56 654.37,-38.98 548.31,-22.91 497.13,-15.41"/>
<polygon fill="midnightblue" stroke="midnightblue" points="497.47,-11.92 487.07,-13.94 496.46,-18.85 497.47,-11.92"/>
</g>
<!-- Node12 -->
<g id="node12" class="node">
<title>Node12</title>
<g id="a_node12"><a xlink:title=" ">
<polygon fill="white" stroke="#bfbfbf" points="647.5,-0.5 647.5,-19.5 693.5,-19.5 693.5,-0.5 647.5,-0.5"/>
<text text-anchor="middle" x="670.5" y="-7.5" font-family="Helvetica,sans-Serif" font-size="10.00">chrono</text>
</a>
</g>
</g>
<!-- Node11&#45;&gt;Node12 -->
<g id="edge11" class="edge">
<title>Node11&#45;&gt;Node12</title>
<path fill="none" stroke="midnightblue" d="M789.58,-61.98C766.05,-51.9 726.69,-35.05 699.71,-23.5"/>
<polygon fill="midnightblue" stroke="midnightblue" points="700.95,-20.23 690.38,-19.51 698.19,-26.66 700.95,-20.23"/>
</g>
<!-- Node13 -->
<g id="node13" class="node">
<title>Node13</title>
<g id="a_node13"><a xlink:title=" ">
<polygon fill="white" stroke="#bfbfbf" points="711.5,-0.5 711.5,-19.5 795.5,-19.5 795.5,-0.5 711.5,-0.5"/>
<text text-anchor="middle" x="753.5" y="-7.5" font-family="Helvetica,sans-Serif" font-size="10.00">g3log/g3log.hpp</text>
</a>
</g>
</g>
<!-- Node11&#45;&gt;Node13 -->
<g id="edge13" class="edge">
<title>Node11&#45;&gt;Node13</title>
<path fill="none" stroke="midnightblue" d="M801.48,-61.98C792.91,-52.87 779.14,-38.24 768.54,-26.98"/>
<polygon fill="midnightblue" stroke="midnightblue" points="770.91,-24.39 761.51,-19.51 765.81,-29.19 770.91,-24.39"/>
</g>
<!-- Node14 -->
<g id="node14" class="node">
<title>Node14</title>
<g id="a_node14"><a xlink:title=" ">
<polygon fill="white" stroke="#bfbfbf" points="814,-0.5 814,-19.5 917,-19.5 917,-0.5 814,-0.5"/>
<text text-anchor="middle" x="865.5" y="-7.5" font-family="Helvetica,sans-Serif" font-size="10.00">g3log/logworker.hpp</text>
</a>
</g>
</g>
<!-- Node11&#45;&gt;Node14 -->
<g id="edge14" class="edge">
<title>Node11&#45;&gt;Node14</title>
<path fill="none" stroke="midnightblue" d="M817.52,-61.98C826.09,-52.87 839.86,-38.24 850.46,-26.98"/>
<polygon fill="midnightblue" stroke="midnightblue" points="853.19,-29.19 857.49,-19.51 848.09,-24.39 853.19,-29.19"/>
</g>
<!-- Node15 -->
<g id="node15" class="node">
<title>Node15</title>
<g id="a_node15"><a xlink:title=" ">
<polygon fill="white" stroke="#bfbfbf" points="935,-0.5 935,-19.5 1034,-19.5 1034,-0.5 935,-0.5"/>
<text text-anchor="middle" x="984.5" y="-7.5" font-family="Helvetica,sans-Serif" font-size="10.00">g3log/loglevels.hpp</text>
</a>
</g>
</g>
<!-- Node11&#45;&gt;Node15 -->
<g id="edge15" class="edge">
<title>Node11&#45;&gt;Node15</title>
<path fill="none" stroke="midnightblue" d="M834.57,-61.98C864.85,-51.68 915.94,-34.31 949.94,-22.75"/>
<polygon fill="midnightblue" stroke="midnightblue" points="951.13,-26.04 959.47,-19.51 948.88,-19.41 951.13,-26.04"/>
</g>
</g>
</svg>
