<?xml version="1.0" encoding="UTF-8" standalone="no"?>
<!DOCTYPE svg PUBLIC "-//W3C//DTD SVG 1.1//EN"
 "http://www.w3.org/Graphics/SVG/1.1/DTD/svg11.dtd">
<!-- Generated by graphviz version 2.42.3 ()
 -->
<!-- Title: dummy_state.h Pages: 1 -->
<svg width="339pt" height="151pt"
 viewBox="0.00 0.00 338.52 151.00" xmlns="http://www.w3.org/2000/svg" xmlns:xlink="http://www.w3.org/1999/xlink">
<g id="graph0" class="graph" transform="scale(1 1) rotate(0) translate(4 147)">
<title>dummy_state.h</title>
<polygon fill="white" stroke="transparent" points="-4,4 -4,-147 334.52,-147 334.52,4 -4,4"/>
<!-- Node1 -->
<g id="node1" class="node">
<title>Node1</title>
<g id="a_node1"><a xlink:title=" ">
<polygon fill="#bfbfbf" stroke="black" points="136,-123.5 136,-142.5 219,-142.5 219,-123.5 136,-123.5"/>
<text text-anchor="middle" x="177.5" y="-130.5" font-family="Helvetica,sans-Serif" font-size="10.00">dummy_state.h</text>
</a>
</g>
</g>
<!-- Node2 -->
<g id="node2" class="node">
<title>Node2</title>
<g id="a_node2"><a xlink:title=" ">
<polygon fill="white" stroke="#bfbfbf" points="0,-0.5 0,-19.5 35,-19.5 35,-0.5 0,-0.5"/>
<text text-anchor="middle" x="17.5" y="-7.5" font-family="Helvetica,sans-Serif" font-size="10.00">map</text>
</a>
</g>
</g>
<!-- Node1&#45;&gt;Node2 -->
<g id="edge1" class="edge">
<title>Node1&#45;&gt;Node2</title>
<path fill="none" stroke="midnightblue" d="M135.85,-131.87C100.48,-129.34 51.32,-119.61 24.5,-87 11.51,-71.2 11.64,-46.82 13.79,-29.95"/>
<polygon fill="midnightblue" stroke="midnightblue" points="17.31,-30.11 15.47,-19.67 10.4,-28.98 17.31,-30.11"/>
</g>
<!-- Node3 -->
<g id="node3" class="node">
<title>Node3</title>
<g id="a_node3"><a xlink:title=" ">
<polygon fill="white" stroke="#bfbfbf" points="157,-0.5 157,-19.5 198,-19.5 198,-0.5 157,-0.5"/>
<text text-anchor="middle" x="177.5" y="-7.5" font-family="Helvetica,sans-Serif" font-size="10.00">string</text>
</a>
</g>
</g>
<!-- Node1&#45;&gt;Node3 -->
<g id="edge2" class="edge">
<title>Node1&#45;&gt;Node3</title>
<path fill="none" stroke="midnightblue" d="M177.5,-123.3C177.5,-103.85 177.5,-56.49 177.5,-29.9"/>
<polygon fill="midnightblue" stroke="midnightblue" points="181,-29.62 177.5,-19.62 174,-29.62 181,-29.62"/>
</g>
<!-- Node4 -->
<g id="node4" class="node">
<title>Node4</title>
<g id="a_node4"><a xlink:title=" ">
<polygon fill="white" stroke="#bfbfbf" points="279.5,-0.5 279.5,-19.5 323.5,-19.5 323.5,-0.5 279.5,-0.5"/>
<text text-anchor="middle" x="301.5" y="-7.5" font-family="Helvetica,sans-Serif" font-size="10.00">vector</text>
</a>
</g>
</g>
<!-- Node1&#45;&gt;Node4 -->
<g id="edge3" class="edge">
<title>Node1&#45;&gt;Node4</title>
<path fill="none" stroke="midnightblue" d="M219.31,-131.85C253.7,-129.24 300.53,-119.4 324.5,-87 337.5,-69.42 325.56,-44.45 314.6,-27.99"/>
<polygon fill="midnightblue" stroke="midnightblue" points="317.43,-25.93 308.77,-19.83 311.73,-30 317.43,-25.93"/>
</g>
<!-- Node5 -->
<g id="node5" class="node">
<title>Node5</title>
<g id="a_node5"><a xlink:href="../../d2/dab/hash__transformation_8h.html" target="_top" xlink:title=" ">
<polygon fill="white" stroke="black" points="33.5,-56.5 33.5,-86.5 149.5,-86.5 149.5,-56.5 33.5,-56.5"/>
<text text-anchor="start" x="41.5" y="-74.5" font-family="Helvetica,sans-Serif" font-size="10.00">automaton/core/crypto</text>
<text text-anchor="middle" x="91.5" y="-63.5" font-family="Helvetica,sans-Serif" font-size="10.00">/hash_transformation.h</text>
</a>
</g>
</g>
<!-- Node1&#45;&gt;Node5 -->
<g id="edge4" class="edge">
<title>Node1&#45;&gt;Node5</title>
<path fill="none" stroke="midnightblue" d="M165.18,-123.48C153.53,-115.42 135.62,-103.02 120.37,-92.47"/>
<polygon fill="midnightblue" stroke="midnightblue" points="121.98,-89.33 111.77,-86.52 118,-95.09 121.98,-89.33"/>
</g>
<!-- Node7 -->
<g id="node7" class="node">
<title>Node7</title>
<g id="a_node7"><a xlink:href="../../db/d3b/state_8h.html" target="_top" xlink:title=" ">
<polygon fill="white" stroke="black" points="206,-56.5 206,-86.5 315,-86.5 315,-56.5 206,-56.5"/>
<text text-anchor="start" x="214" y="-74.5" font-family="Helvetica,sans-Serif" font-size="10.00">automaton/core/state</text>
<text text-anchor="middle" x="260.5" y="-63.5" font-family="Helvetica,sans-Serif" font-size="10.00">/state.h</text>
</a>
</g>
</g>
<!-- Node1&#45;&gt;Node7 -->
<g id="edge8" class="edge">
<title>Node1&#45;&gt;Node7</title>
<path fill="none" stroke="midnightblue" d="M189.39,-123.48C200.63,-115.42 217.92,-103.02 232.64,-92.47"/>
<polygon fill="midnightblue" stroke="midnightblue" points="234.85,-95.19 240.94,-86.52 230.77,-89.5 234.85,-95.19"/>
</g>
<!-- Node5&#45;&gt;Node2 -->
<g id="edge6" class="edge">
<title>Node5&#45;&gt;Node2</title>
<path fill="none" stroke="midnightblue" d="M73.96,-56.4C62.66,-47.31 47.96,-35.49 36.39,-26.19"/>
<polygon fill="midnightblue" stroke="midnightblue" points="38.25,-23.2 28.27,-19.66 33.87,-28.65 38.25,-23.2"/>
</g>
<!-- Node5&#45;&gt;Node3 -->
<g id="edge7" class="edge">
<title>Node5&#45;&gt;Node3</title>
<path fill="none" stroke="midnightblue" d="M111.88,-56.4C125.41,-47.04 143.11,-34.79 156.72,-25.38"/>
<polygon fill="midnightblue" stroke="midnightblue" points="158.75,-28.23 164.99,-19.66 154.77,-22.47 158.75,-28.23"/>
</g>
<!-- Node6 -->
<g id="node6" class="node">
<title>Node6</title>
<g id="a_node6"><a xlink:title=" ">
<polygon fill="white" stroke="#bfbfbf" points="64.5,-0.5 64.5,-19.5 118.5,-19.5 118.5,-0.5 64.5,-0.5"/>
<text text-anchor="middle" x="91.5" y="-7.5" font-family="Helvetica,sans-Serif" font-size="10.00">iostream</text>
</a>
</g>
</g>
<!-- Node5&#45;&gt;Node6 -->
<g id="edge5" class="edge">
<title>Node5&#45;&gt;Node6</title>
<path fill="none" stroke="midnightblue" d="M91.5,-56.4C91.5,-48.47 91.5,-38.46 91.5,-29.86"/>
<polygon fill="midnightblue" stroke="midnightblue" points="95,-29.66 91.5,-19.66 88,-29.66 95,-29.66"/>
</g>
<!-- Node7&#45;&gt;Node3 -->
<g id="edge9" class="edge">
<title>Node7&#45;&gt;Node3</title>
<path fill="none" stroke="midnightblue" d="M240.83,-56.4C227.9,-47.13 211.01,-35.03 197.93,-25.65"/>
<polygon fill="midnightblue" stroke="midnightblue" points="199.74,-22.64 189.58,-19.66 195.67,-28.33 199.74,-22.64"/>
</g>
<!-- Node7&#45;&gt;Node4 -->
<g id="edge10" class="edge">
<title>Node7&#45;&gt;Node4</title>
<path fill="none" stroke="midnightblue" d="M270.22,-56.4C276.05,-47.93 283.52,-37.1 289.69,-28.14"/>
<polygon fill="midnightblue" stroke="midnightblue" points="292.74,-29.88 295.53,-19.66 286.98,-25.91 292.74,-29.88"/>
</g>
</g>
</svg>
