<?xml version="1.0" encoding="UTF-8" standalone="no"?>
<!DOCTYPE svg PUBLIC "-//W3C//DTD SVG 1.1//EN"
 "http://www.w3.org/Graphics/SVG/1.1/DTD/svg11.dtd">
<!-- Generated by graphviz version 2.42.3 ()
 -->
<!-- Title: automaton::core::data::protobuf::protobuf_factory::get_schema_id Pages: 1 -->
<svg width="315pt" height="132pt"
 viewBox="0.00 0.00 315.00 132.00" xmlns="http://www.w3.org/2000/svg" xmlns:xlink="http://www.w3.org/1999/xlink">
<g id="graph0" class="graph" transform="scale(1 1) rotate(0) translate(4 128)">
<title>automaton::core::data::protobuf::protobuf_factory::get_schema_id</title>
<polygon fill="white" stroke="transparent" points="-4,4 -4,-128 311,-128 311,4 -4,4"/>
<!-- Node1 -->
<g id="node1" class="node">
<title>Node1</title>
<g id="a_node1"><a xlink:title=" ">
<polygon fill="#bfbfbf" stroke="black" points="185,-41 185,-82 307,-82 307,-41 185,-41"/>
<text text-anchor="start" x="193" y="-70" font-family="Helvetica,sans-Serif" font-size="10.00">automaton::core::data</text>
<text text-anchor="start" x="193" y="-59" font-family="Helvetica,sans-Serif" font-size="10.00">::protobuf::protobuf</text>
<text text-anchor="middle" x="246" y="-48" font-family="Helvetica,sans-Serif" font-size="10.00">_factory::get_schema_id</text>
</a>
</g>
</g>
<!-- Node2 -->
<g id="node2" class="node">
<title>Node2</title>
<g id="a_node2"><a xlink:href="../../dd/dbb/classautomaton_1_1core_1_1data_1_1protobuf_1_1protobuf__factory.html#abb7a8b5bf2ed2849ea1dcc17a81d5a48" target="_top" xlink:title=" ">
<polygon fill="white" stroke="black" points="0,-71.5 0,-123.5 149,-123.5 149,-71.5 0,-71.5"/>
<text text-anchor="start" x="8" y="-111.5" font-family="Helvetica,sans-Serif" font-size="10.00">automaton::core::data</text>
<text text-anchor="start" x="8" y="-100.5" font-family="Helvetica,sans-Serif" font-size="10.00">::protobuf::protobuf</text>
<text text-anchor="start" x="8" y="-89.5" font-family="Helvetica,sans-Serif" font-size="10.00">_factory::get_nested_message</text>
<text text-anchor="middle" x="74.5" y="-78.5" font-family="Helvetica,sans-Serif" font-size="10.00">_schema_id</text>
</a>
</g>
</g>
<!-- Node1&#45;&gt;Node2 -->
<g id="edge1" class="edge">
<title>Node1&#45;&gt;Node2</title>
<path fill="none" stroke="midnightblue" d="M174.91,-76.39C166.43,-78.19 157.73,-80.03 149.2,-81.85"/>
<polygon fill="midnightblue" stroke="midnightblue" points="175.71,-79.79 184.76,-74.29 174.25,-72.95 175.71,-79.79"/>
</g>
<!-- Node3 -->
<g id="node3" class="node">
<title>Node3</title>
<g id="a_node3"><a xlink:href="../../dd/dbb/classautomaton_1_1core_1_1data_1_1protobuf_1_1protobuf__factory.html#a481d52a15f165d4523ec2c2ef811f6be" target="_top" xlink:title=" ">
<polygon fill="white" stroke="black" points="15,-0.5 15,-52.5 134,-52.5 134,-0.5 15,-0.5"/>
<text text-anchor="start" x="23" y="-40.5" font-family="Helvetica,sans-Serif" font-size="10.00">automaton::core::data</text>
<text text-anchor="start" x="23" y="-29.5" font-family="Helvetica,sans-Serif" font-size="10.00">::protobuf::protobuf</text>
<text text-anchor="start" x="23" y="-18.5" font-family="Helvetica,sans-Serif" font-size="10.00">_factory::new_message</text>
<text text-anchor="middle" x="74.5" y="-7.5" font-family="Helvetica,sans-Serif" font-size="10.00">_by_name</text>
</a>
</g>
</g>
<!-- Node1&#45;&gt;Node3 -->
<g id="edge2" class="edge">
<title>Node1&#45;&gt;Node3</title>
<path fill="none" stroke="midnightblue" d="M174.59,-46.96C161.13,-44.18 147.16,-41.3 134.12,-38.6"/>
<polygon fill="midnightblue" stroke="midnightblue" points="174.26,-50.47 184.76,-49.06 175.68,-43.61 174.26,-50.47"/>
</g>
</g>
</svg>
