<?xml version="1.0" encoding="UTF-8" standalone="no"?>
<!DOCTYPE svg PUBLIC "-//W3C//DTD SVG 1.1//EN"
 "http://www.w3.org/Graphics/SVG/1.1/DTD/svg11.dtd">
<!-- Generated by graphviz version 2.42.3 ()
 -->
<!-- Title: automaton::core::data::protobuf::protobuf_factory::new_message_by_name Pages: 1 -->
<svg width="480pt" height="110pt"
 viewBox="0.00 0.00 480.00 110.00" xmlns="http://www.w3.org/2000/svg" xmlns:xlink="http://www.w3.org/1999/xlink">
<g id="graph0" class="graph" transform="scale(1 1) rotate(0) translate(4 106)">
<title>automaton::core::data::protobuf::protobuf_factory::new_message_by_name</title>
<polygon fill="white" stroke="transparent" points="-4,4 -4,-106 476,-106 476,4 -4,4"/>
<!-- Node1 -->
<g id="node1" class="node">
<title>Node1</title>
<g id="a_node1"><a xlink:title=" ">
<polygon fill="#bfbfbf" stroke="black" points="0,-25 0,-77 119,-77 119,-25 0,-25"/>
<text text-anchor="start" x="8" y="-65" font-family="Helvetica,sans-Serif" font-size="10.00">automaton::core::data</text>
<text text-anchor="start" x="8" y="-54" font-family="Helvetica,sans-Serif" font-size="10.00">::protobuf::protobuf</text>
<text text-anchor="start" x="8" y="-43" font-family="Helvetica,sans-Serif" font-size="10.00">_factory::new_message</text>
<text text-anchor="middle" x="59.5" y="-32" font-family="Helvetica,sans-Serif" font-size="10.00">_by_name</text>
</a>
</g>
</g>
<!-- Node2 -->
<g id="node2" class="node">
<title>Node2</title>
<g id="a_node2"><a xlink:href="../../dd/dbb/classautomaton_1_1core_1_1data_1_1protobuf_1_1protobuf__factory.html#ab0b779c3cf62786e3a7db66729f626ae" target="_top" xlink:title=" ">
<polygon fill="white" stroke="black" points="167,-60.5 167,-101.5 289,-101.5 289,-60.5 167,-60.5"/>
<text text-anchor="start" x="175" y="-89.5" font-family="Helvetica,sans-Serif" font-size="10.00">automaton::core::data</text>
<text text-anchor="start" x="175" y="-78.5" font-family="Helvetica,sans-Serif" font-size="10.00">::protobuf::protobuf</text>
<text text-anchor="middle" x="228" y="-67.5" font-family="Helvetica,sans-Serif" font-size="10.00">_factory::get_schema_id</text>
</a>
</g>
</g>
<!-- Node1&#45;&gt;Node2 -->
<g id="edge1" class="edge">
<title>Node1&#45;&gt;Node2</title>
<path fill="none" stroke="midnightblue" d="M119.2,-61.58C131.39,-63.77 144.35,-66.11 156.9,-68.37"/>
<polygon fill="midnightblue" stroke="midnightblue" points="156.4,-71.84 166.86,-70.16 157.64,-64.95 156.4,-71.84"/>
</g>
<!-- Node4 -->
<g id="node4" class="node">
<title>Node4</title>
<g id="a_node4"><a xlink:href="../../dd/dbb/classautomaton_1_1core_1_1data_1_1protobuf_1_1protobuf__factory.html#a5674360d7933d862b398e281ceb3b407" target="_top" xlink:title=" ">
<polygon fill="white" stroke="black" points="155,-0.5 155,-41.5 301,-41.5 301,-0.5 155,-0.5"/>
<text text-anchor="start" x="163" y="-29.5" font-family="Helvetica,sans-Serif" font-size="10.00">automaton::core::data</text>
<text text-anchor="start" x="163" y="-18.5" font-family="Helvetica,sans-Serif" font-size="10.00">::protobuf::protobuf</text>
<text text-anchor="middle" x="228" y="-7.5" font-family="Helvetica,sans-Serif" font-size="10.00">_factory::new_message_by_id</text>
</a>
</g>
</g>
<!-- Node1&#45;&gt;Node4 -->
<g id="edge3" class="edge">
<title>Node1&#45;&gt;Node4</title>
<path fill="none" stroke="midnightblue" d="M119.2,-40.42C127.48,-38.93 136.11,-37.38 144.73,-35.82"/>
<polygon fill="midnightblue" stroke="midnightblue" points="145.6,-39.22 154.82,-34.01 144.36,-32.33 145.6,-39.22"/>
</g>
<!-- Node3 -->
<g id="node3" class="node">
<title>Node3</title>
<g id="a_node3"><a xlink:href="../../de/d12/namespaceel_1_1base_1_1debug.html#af8af3a0ae3755b37ede9f5b4c9e8173c" target="_top" xlink:title=" ">
<polygon fill="white" stroke="black" points="337,-71.5 337,-90.5 472,-90.5 472,-71.5 337,-71.5"/>
<text text-anchor="middle" x="404.5" y="-78.5" font-family="Helvetica,sans-Serif" font-size="10.00">el::base::debug::StackTrace</text>
</a>
</g>
</g>
<!-- Node2&#45;&gt;Node3 -->
<g id="edge2" class="edge">
<title>Node2&#45;&gt;Node3</title>
<path fill="none" stroke="midnightblue" d="M289.05,-81C301.19,-81 314.1,-81 326.72,-81"/>
<polygon fill="midnightblue" stroke="midnightblue" points="326.76,-84.5 336.76,-81 326.76,-77.5 326.76,-84.5"/>
</g>
</g>
</svg>
