<?xml version="1.0" encoding="UTF-8" standalone="no"?>
<!DOCTYPE svg PUBLIC "-//W3C//DTD SVG 1.1//EN"
 "http://www.w3.org/Graphics/SVG/1.1/DTD/svg11.dtd">
<!-- Generated by graphviz version 2.44.0 ()
 -->
<!-- Title: automaton::core::data::protobuf::protobuf_factory::get_enum_id Pages: 1 -->
<svg width="290pt" height="50pt"
 viewBox="0.00 0.00 290.00 50.00" xmlns="http://www.w3.org/2000/svg" xmlns:xlink="http://www.w3.org/1999/xlink">
<g id="graph0" class="graph" transform="scale(1 1) rotate(0) translate(4 46)">
<title>automaton::core::data::protobuf::protobuf_factory::get_enum_id</title>
<polygon fill="white" stroke="transparent" points="-4,4 -4,-46 286,-46 286,4 -4,4"/>
<!-- Node1 -->
<g id="node1" class="node">
<title>Node1</title>
<g id="a_node1"><a xlink:title=" ">
<polygon fill="#bfbfbf" stroke="black" points="0,-0.5 0,-41.5 111,-41.5 111,-0.5 0,-0.5"/>
<text text-anchor="start" x="8" y="-29.5" font-family="Helvetica,sans-Serif" font-size="10.00">automaton::core::data</text>
<text text-anchor="start" x="8" y="-18.5" font-family="Helvetica,sans-Serif" font-size="10.00">::protobuf::protobuf</text>
<text text-anchor="middle" x="55.5" y="-7.5" font-family="Helvetica,sans-Serif" font-size="10.00">_factory::get_enum_id</text>
</a>
</g>
</g>
<!-- Node2 -->
<g id="node2" class="node">
<title>Node2</title>
<g id="a_node2"><a xlink:href="../../de/d12/namespaceel_1_1base_1_1debug.html#af8af3a0ae3755b37ede9f5b4c9e8173c" target="_top" xlink:title=" ">
<polygon fill="white" stroke="black" points="147,-11.5 147,-30.5 282,-30.5 282,-11.5 147,-11.5"/>
<text text-anchor="middle" x="214.5" y="-18.5" font-family="Helvetica,sans-Serif" font-size="10.00">el::base::debug::StackTrace</text>
</a>
</g>
</g>
<!-- Node1&#45;&gt;Node2 -->
<g id="edge1" class="edge">
<title>Node1&#45;&gt;Node2</title>
<path fill="none" stroke="midnightblue" d="M111.41,-21C119.52,-21 128,-21 136.46,-21"/>
<polygon fill="midnightblue" stroke="midnightblue" points="136.74,-24.5 146.74,-21 136.74,-17.5 136.74,-24.5"/>
</g>
</g>
</svg>
