<?xml version="1.0" encoding="UTF-8" standalone="no"?>
<!DOCTYPE svg PUBLIC "-//W3C//DTD SVG 1.1//EN"
 "http://www.w3.org/Graphics/SVG/1.1/DTD/svg11.dtd">
<!-- Generated by graphviz version 2.42.3 ()
 -->
<!-- Title: automaton::core::data::protobuf::protobuf_factory::get_field_info Pages: 1 -->
<svg width="292pt" height="50pt"
 viewBox="0.00 0.00 292.00 50.00" xmlns="http://www.w3.org/2000/svg" xmlns:xlink="http://www.w3.org/1999/xlink">
<g id="graph0" class="graph" transform="scale(1 1) rotate(0) translate(4 46)">
<title>automaton::core::data::protobuf::protobuf_factory::get_field_info</title>
<polygon fill="white" stroke="transparent" points="-4,4 -4,-46 288,-46 288,4 -4,4"/>
<!-- Node1 -->
<g id="node1" class="node">
<title>Node1</title>
<g id="a_node1"><a xlink:title=" ">
<polygon fill="#bfbfbf" stroke="black" points="0,-0.5 0,-41.5 113,-41.5 113,-0.5 0,-0.5"/>
<text text-anchor="start" x="8" y="-29.5" font-family="Helvetica,sans-Serif" font-size="10.00">automaton::core::data</text>
<text text-anchor="start" x="8" y="-18.5" font-family="Helvetica,sans-Serif" font-size="10.00">::protobuf::protobuf</text>
<text text-anchor="middle" x="56.5" y="-7.5" font-family="Helvetica,sans-Serif" font-size="10.00">_factory::get_field_info</text>
</a>
</g>
</g>
<!-- Node2 -->
<g id="node2" class="node">
<title>Node2</title>
<g id="a_node2"><a xlink:href="../../de/d12/namespaceel_1_1base_1_1debug.html#af8af3a0ae3755b37ede9f5b4c9e8173c" target="_top" xlink:title=" ">
<polygon fill="white" stroke="black" points="149,-11.5 149,-30.5 284,-30.5 284,-11.5 149,-11.5"/>
<text text-anchor="middle" x="216.5" y="-18.5" font-family="Helvetica,sans-Serif" font-size="10.00">el::base::debug::StackTrace</text>
</a>
</g>
</g>
<!-- Node1&#45;&gt;Node2 -->
<g id="edge1" class="edge">
<title>Node1&#45;&gt;Node2</title>
<path fill="none" stroke="midnightblue" d="M113.2,-21C121.51,-21 130.18,-21 138.83,-21"/>
<polygon fill="midnightblue" stroke="midnightblue" points="138.93,-24.5 148.93,-21 138.93,-17.5 138.93,-24.5"/>
</g>
</g>
</svg>
