<?xml version="1.0" encoding="UTF-8" standalone="no"?>
<!DOCTYPE svg PUBLIC "-//W3C//DTD SVG 1.1//EN"
 "http://www.w3.org/Graphics/SVG/1.1/DTD/svg11.dtd">
<!-- Generated by graphviz version 2.42.3 ()
 -->
<!-- Title: automaton::core::data::protobuf::protobuf_factory::is_repeated Pages: 1 -->
<svg width="288pt" height="50pt"
 viewBox="0.00 0.00 288.00 50.00" xmlns="http://www.w3.org/2000/svg" xmlns:xlink="http://www.w3.org/1999/xlink">
<g id="graph0" class="graph" transform="scale(1 1) rotate(0) translate(4 46)">
<title>automaton::core::data::protobuf::protobuf_factory::is_repeated</title>
<polygon fill="white" stroke="transparent" points="-4,4 -4,-46 284,-46 284,4 -4,4"/>
<!-- Node1 -->
<g id="node1" class="node">
<title>Node1</title>
<g id="a_node1"><a xlink:title=" ">
<polygon fill="#bfbfbf" stroke="black" points="0,-0.5 0,-41.5 109,-41.5 109,-0.5 0,-0.5"/>
<text text-anchor="start" x="8" y="-29.5" font-family="Helvetica,sans-Serif" font-size="10.00">automaton::core::data</text>
<text text-anchor="start" x="8" y="-18.5" font-family="Helvetica,sans-Serif" font-size="10.00">::protobuf::protobuf</text>
<text text-anchor="middle" x="54.5" y="-7.5" font-family="Helvetica,sans-Serif" font-size="10.00">_factory::is_repeated</text>
</a>
</g>
</g>
<!-- Node2 -->
<g id="node2" class="node">
<title>Node2</title>
<g id="a_node2"><a xlink:href="../../de/d12/namespaceel_1_1base_1_1debug.html#af8af3a0ae3755b37ede9f5b4c9e8173c" target="_top" xlink:title=" ">
<polygon fill="white" stroke="black" points="145,-11.5 145,-30.5 280,-30.5 280,-11.5 145,-11.5"/>
<text text-anchor="middle" x="212.5" y="-18.5" font-family="Helvetica,sans-Serif" font-size="10.00">el::base::debug::StackTrace</text>
</a>
</g>
</g>
<!-- Node1&#45;&gt;Node2 -->
<g id="edge1" class="edge">
<title>Node1&#45;&gt;Node2</title>
<path fill="none" stroke="midnightblue" d="M109.19,-21C117.42,-21 126.06,-21 134.68,-21"/>
<polygon fill="midnightblue" stroke="midnightblue" points="134.76,-24.5 144.76,-21 134.76,-17.5 134.76,-24.5"/>
</g>
</g>
</svg>
