<?xml version="1.0" encoding="UTF-8" standalone="no"?>
<!DOCTYPE svg PUBLIC "-//W3C//DTD SVG 1.1//EN"
 "http://www.w3.org/Graphics/SVG/1.1/DTD/svg11.dtd">
<!-- Generated by graphviz version 2.42.3 ()
 -->
<!-- Title: bind_data.cc Pages: 1 -->
<svg width="1213pt" height="352pt"
 viewBox="0.00 0.00 1213.00 352.00" xmlns="http://www.w3.org/2000/svg" xmlns:xlink="http://www.w3.org/1999/xlink">
<g id="graph0" class="graph" transform="scale(1 1) rotate(0) translate(4 348)">
<title>bind_data.cc</title>
<polygon fill="white" stroke="transparent" points="-4,4 -4,-348 1209,-348 1209,4 -4,4"/>
<!-- Node1 -->
<g id="node1" class="node">
<title>Node1</title>
<g id="a_node1"><a xlink:title=" ">
<polygon fill="#bfbfbf" stroke="black" points="570,-324.5 570,-343.5 641,-343.5 641,-324.5 570,-324.5"/>
<text text-anchor="middle" x="605.5" y="-331.5" font-family="Helvetica,sans-Serif" font-size="10.00">bind_data.cc</text>
</a>
</g>
</g>
<!-- Node2 -->
<g id="node2" class="node">
<title>Node2</title>
<g id="a_node2"><a xlink:href="../../d1/d55/engine_8h.html" target="_top" xlink:title=" ">
<polygon fill="white" stroke="black" points="268,-257.5 268,-287.5 379,-287.5 379,-257.5 268,-257.5"/>
<text text-anchor="start" x="276" y="-275.5" font-family="Helvetica,sans-Serif" font-size="10.00">automaton/core/script</text>
<text text-anchor="middle" x="323.5" y="-264.5" font-family="Helvetica,sans-Serif" font-size="10.00">/engine.h</text>
</a>
</g>
</g>
<!-- Node1&#45;&gt;Node2 -->
<g id="edge1" class="edge">
<title>Node1&#45;&gt;Node2</title>
<path fill="none" stroke="midnightblue" d="M569.78,-325.46C524.42,-315.89 445.26,-299.19 388.93,-287.31"/>
<polygon fill="midnightblue" stroke="midnightblue" points="389.55,-283.86 379.05,-285.22 388.11,-290.71 389.55,-283.86"/>
</g>
<!-- Node13 -->
<g id="node13" class="node">
<title>Node13</title>
<g id="a_node13"><a xlink:href="../../de/d06/factory_8h.html" target="_top" xlink:title=" ">
<polygon fill="white" stroke="black" points="489.5,-190.5 489.5,-220.5 595.5,-220.5 595.5,-190.5 489.5,-190.5"/>
<text text-anchor="start" x="497.5" y="-208.5" font-family="Helvetica,sans-Serif" font-size="10.00">automaton/core/data</text>
<text text-anchor="middle" x="542.5" y="-197.5" font-family="Helvetica,sans-Serif" font-size="10.00">/factory.h</text>
</a>
</g>
</g>
<!-- Node1&#45;&gt;Node13 -->
<g id="edge32" class="edge">
<title>Node1&#45;&gt;Node13</title>
<path fill="none" stroke="midnightblue" d="M601.17,-324.31C591.62,-305.13 568.48,-258.66 554.28,-230.15"/>
<polygon fill="midnightblue" stroke="midnightblue" points="557.26,-228.28 549.67,-220.89 550.99,-231.4 557.26,-228.28"/>
</g>
<!-- Node15 -->
<g id="node15" class="node">
<title>Node15</title>
<g id="a_node15"><a xlink:href="../../d1/d71/msg_8h.html" target="_top" xlink:title=" ">
<polygon fill="white" stroke="black" points="580.5,-123.5 580.5,-153.5 686.5,-153.5 686.5,-123.5 580.5,-123.5"/>
<text text-anchor="start" x="588.5" y="-141.5" font-family="Helvetica,sans-Serif" font-size="10.00">automaton/core/data</text>
<text text-anchor="middle" x="633.5" y="-130.5" font-family="Helvetica,sans-Serif" font-size="10.00">/msg.h</text>
</a>
</g>
</g>
<!-- Node1&#45;&gt;Node15 -->
<g id="edge33" class="edge">
<title>Node1&#45;&gt;Node15</title>
<path fill="none" stroke="midnightblue" d="M606.74,-324.44C610.79,-296.45 623.73,-207.03 630.01,-163.61"/>
<polygon fill="midnightblue" stroke="midnightblue" points="633.49,-164.03 631.46,-153.63 626.56,-163.03 633.49,-164.03"/>
</g>
<!-- Node18 -->
<g id="node18" class="node">
<title>Node18</title>
<g id="a_node18"><a xlink:href="../../dc/dac/io_8h.html" target="_top" xlink:title=" ">
<polygon fill="white" stroke="black" points="826,-263 826,-282 939,-282 939,-263 826,-263"/>
<text text-anchor="middle" x="882.5" y="-270" font-family="Helvetica,sans-Serif" font-size="10.00">automaton/core/io/io.h</text>
</a>
</g>
</g>
<!-- Node1&#45;&gt;Node18 -->
<g id="edge34" class="edge">
<title>Node1&#45;&gt;Node18</title>
<path fill="none" stroke="midnightblue" d="M641.15,-325.34C689.84,-314.88 777.4,-296.08 832.6,-284.22"/>
<polygon fill="midnightblue" stroke="midnightblue" points="833.47,-287.61 842.51,-282.09 832,-280.77 833.47,-287.61"/>
</g>
<!-- Node3 -->
<g id="node3" class="node">
<title>Node3</title>
<g id="a_node3"><a xlink:title=" ">
<polygon fill="white" stroke="#bfbfbf" points="200.5,-196 200.5,-215 238.5,-215 238.5,-196 200.5,-196"/>
<text text-anchor="middle" x="219.5" y="-203" font-family="Helvetica,sans-Serif" font-size="10.00">array</text>
</a>
</g>
</g>
<!-- Node2&#45;&gt;Node3 -->
<g id="edge2" class="edge">
<title>Node2&#45;&gt;Node3</title>
<path fill="none" stroke="midnightblue" d="M300.93,-257.4C283.49,-246.5 259.47,-231.48 242.03,-220.58"/>
<polygon fill="midnightblue" stroke="midnightblue" points="243.45,-217.34 233.11,-215.01 239.74,-223.28 243.45,-217.34"/>
</g>
<!-- Node4 -->
<g id="node4" class="node">
<title>Node4</title>
<g id="a_node4"><a xlink:title=" ">
<polygon fill="white" stroke="#bfbfbf" points="474,-62 474,-81 525,-81 525,-62 474,-62"/>
<text text-anchor="middle" x="499.5" y="-69" font-family="Helvetica,sans-Serif" font-size="10.00">memory</text>
</a>
</g>
</g>
<!-- Node2&#45;&gt;Node4 -->
<g id="edge3" class="edge">
<title>Node2&#45;&gt;Node4</title>
<path fill="none" stroke="midnightblue" d="M336.16,-257.19C367.96,-221.23 451.08,-127.25 484.88,-89.03"/>
<polygon fill="midnightblue" stroke="midnightblue" points="487.66,-91.17 491.66,-81.36 482.42,-86.53 487.66,-91.17"/>
</g>
<!-- Node5 -->
<g id="node5" class="node">
<title>Node5</title>
<g id="a_node5"><a xlink:title=" ">
<polygon fill="white" stroke="#bfbfbf" points="500,-0.5 500,-19.5 541,-19.5 541,-0.5 500,-0.5"/>
<text text-anchor="middle" x="520.5" y="-7.5" font-family="Helvetica,sans-Serif" font-size="10.00">string</text>
</a>
</g>
</g>
<!-- Node2&#45;&gt;Node5 -->
<g id="edge4" class="edge">
<title>Node2&#45;&gt;Node5</title>
<path fill="none" stroke="midnightblue" d="M330.4,-257.42C348.66,-221.13 401.19,-122.58 464.5,-56 475.08,-44.87 488.43,-34.04 499.45,-25.8"/>
<polygon fill="midnightblue" stroke="midnightblue" points="501.67,-28.51 507.68,-19.78 497.54,-22.85 501.67,-28.51"/>
</g>
<!-- Node6 -->
<g id="node6" class="node">
<title>Node6</title>
<g id="a_node6"><a xlink:title=" ">
<polygon fill="white" stroke="#bfbfbf" points="768.5,-0.5 768.5,-19.5 812.5,-19.5 812.5,-0.5 768.5,-0.5"/>
<text text-anchor="middle" x="790.5" y="-7.5" font-family="Helvetica,sans-Serif" font-size="10.00">vector</text>
</a>
</g>
</g>
<!-- Node2&#45;&gt;Node6 -->
<g id="edge5" class="edge">
<title>Node2&#45;&gt;Node6</title>
<path fill="none" stroke="midnightblue" d="M379.3,-270.71C466.74,-266.53 636.64,-246.13 739.5,-154 765.86,-130.39 770.78,-120.38 782.5,-87 789.08,-68.26 790.7,-45.46 790.91,-29.75"/>
<polygon fill="midnightblue" stroke="midnightblue" points="794.41,-29.7 790.87,-19.72 787.41,-29.73 794.41,-29.7"/>
</g>
<!-- Node7 -->
<g id="node7" class="node">
<title>Node7</title>
<g id="a_node7"><a xlink:href="../../dd/de2/digital__signature_8h.html" target="_top" xlink:title=" ">
<polygon fill="white" stroke="black" points="304,-56.5 304,-86.5 417,-86.5 417,-56.5 304,-56.5"/>
<text text-anchor="start" x="312" y="-74.5" font-family="Helvetica,sans-Serif" font-size="10.00">automaton/core/crypto</text>
<text text-anchor="middle" x="360.5" y="-63.5" font-family="Helvetica,sans-Serif" font-size="10.00">/digital_signature.h</text>
</a>
</g>
</g>
<!-- Node2&#45;&gt;Node7 -->
<g id="edge6" class="edge">
<title>Node2&#45;&gt;Node7</title>
<path fill="none" stroke="midnightblue" d="M321.54,-257.17C318.39,-230.19 313.9,-170.33 328.5,-123 331.51,-113.24 336.94,-103.52 342.47,-95.25"/>
<polygon fill="midnightblue" stroke="midnightblue" points="345.46,-97.09 348.42,-86.92 339.76,-93.03 345.46,-97.09"/>
</g>
<!-- Node9 -->
<g id="node9" class="node">
<title>Node9</title>
<g id="a_node9"><a xlink:href="../../d2/dab/hash__transformation_8h.html" target="_top" xlink:title=" ">
<polygon fill="white" stroke="black" points="131.5,-56.5 131.5,-86.5 247.5,-86.5 247.5,-56.5 131.5,-56.5"/>
<text text-anchor="start" x="139.5" y="-74.5" font-family="Helvetica,sans-Serif" font-size="10.00">automaton/core/crypto</text>
<text text-anchor="middle" x="189.5" y="-63.5" font-family="Helvetica,sans-Serif" font-size="10.00">/hash_transformation.h</text>
</a>
</g>
</g>
<!-- Node2&#45;&gt;Node9 -->
<g id="edge9" class="edge">
<title>Node2&#45;&gt;Node9</title>
<path fill="none" stroke="midnightblue" d="M313.86,-257.19C290.83,-222.98 232.44,-136.26 204.65,-94.99"/>
<polygon fill="midnightblue" stroke="midnightblue" points="207.54,-93.02 199.05,-86.68 201.73,-96.93 207.54,-93.02"/>
</g>
<!-- Node11 -->
<g id="node11" class="node">
<title>Node11</title>
<g id="a_node11"><a xlink:href="../../d1/d8a/secure__random_8h.html" target="_top" xlink:title=" ">
<polygon fill="white" stroke="black" points="0,-56.5 0,-86.5 113,-86.5 113,-56.5 0,-56.5"/>
<text text-anchor="start" x="8" y="-74.5" font-family="Helvetica,sans-Serif" font-size="10.00">automaton/core/crypto</text>
<text text-anchor="middle" x="56.5" y="-63.5" font-family="Helvetica,sans-Serif" font-size="10.00">/secure_random.h</text>
</a>
</g>
</g>
<!-- Node2&#45;&gt;Node11 -->
<g id="edge13" class="edge">
<title>Node2&#45;&gt;Node11</title>
<path fill="none" stroke="midnightblue" d="M270.3,-257.43C245.07,-249.23 215.31,-237.26 191.5,-221 139.95,-185.8 94.44,-127.14 71.76,-95.09"/>
<polygon fill="midnightblue" stroke="midnightblue" points="74.57,-93 65.98,-86.8 68.82,-97.01 74.57,-93"/>
</g>
<!-- Node2&#45;&gt;Node13 -->
<g id="edge17" class="edge">
<title>Node2&#45;&gt;Node13</title>
<path fill="none" stroke="midnightblue" d="M370.75,-257.48C404.31,-247.51 449.56,-234.09 485.18,-223.51"/>
<polygon fill="midnightblue" stroke="midnightblue" points="486.37,-226.81 494.96,-220.61 484.37,-220.1 486.37,-226.81"/>
</g>
<!-- Node17 -->
<g id="node17" class="node">
<title>Node17</title>
<g id="a_node17"><a xlink:title=" ">
<polygon fill="white" stroke="#bfbfbf" points="97,-196 97,-215 144,-215 144,-196 97,-196"/>
<text text-anchor="middle" x="120.5" y="-203" font-family="Helvetica,sans-Serif" font-size="10.00">sol.hpp</text>
</a>
</g>
</g>
<!-- Node2&#45;&gt;Node17 -->
<g id="edge31" class="edge">
<title>Node2&#45;&gt;Node17</title>
<path fill="none" stroke="midnightblue" d="M274.49,-257.44C241.52,-247.76 197.18,-234.28 158.5,-221 156.25,-220.23 153.93,-219.4 151.6,-218.56"/>
<polygon fill="midnightblue" stroke="midnightblue" points="152.7,-215.24 142.11,-215.04 150.27,-221.8 152.7,-215.24"/>
</g>
<!-- Node7&#45;&gt;Node5 -->
<g id="edge7" class="edge">
<title>Node7&#45;&gt;Node5</title>
<path fill="none" stroke="midnightblue" d="M398.42,-56.4C426.48,-45.96 464.2,-31.93 490.25,-22.25"/>
<polygon fill="midnightblue" stroke="midnightblue" points="491.81,-25.4 499.96,-18.64 489.37,-18.84 491.81,-25.4"/>
</g>
<!-- Node8 -->
<g id="node8" class="node">
<title>Node8</title>
<g id="a_node8"><a xlink:title=" ">
<polygon fill="white" stroke="#bfbfbf" points="258,-0.5 258,-19.5 293,-19.5 293,-0.5 258,-0.5"/>
<text text-anchor="middle" x="275.5" y="-7.5" font-family="Helvetica,sans-Serif" font-size="10.00">map</text>
</a>
</g>
</g>
<!-- Node7&#45;&gt;Node8 -->
<g id="edge8" class="edge">
<title>Node7&#45;&gt;Node8</title>
<path fill="none" stroke="midnightblue" d="M340.36,-56.4C327.11,-47.13 309.82,-35.03 296.42,-25.65"/>
<polygon fill="midnightblue" stroke="midnightblue" points="298.07,-22.53 287.87,-19.66 294.05,-28.26 298.07,-22.53"/>
</g>
<!-- Node9&#45;&gt;Node5 -->
<g id="edge12" class="edge">
<title>Node9&#45;&gt;Node5</title>
<path fill="none" stroke="midnightblue" d="M247.53,-60.07C318.11,-47.38 434.61,-26.44 489.75,-16.53"/>
<polygon fill="midnightblue" stroke="midnightblue" points="490.7,-19.91 499.92,-14.7 489.46,-13.02 490.7,-19.91"/>
</g>
<!-- Node9&#45;&gt;Node8 -->
<g id="edge11" class="edge">
<title>Node9&#45;&gt;Node8</title>
<path fill="none" stroke="midnightblue" d="M209.88,-56.4C223.41,-47.04 241.11,-34.79 254.72,-25.38"/>
<polygon fill="midnightblue" stroke="midnightblue" points="256.75,-28.23 262.99,-19.66 252.77,-22.47 256.75,-28.23"/>
</g>
<!-- Node10 -->
<g id="node10" class="node">
<title>Node10</title>
<g id="a_node10"><a xlink:title=" ">
<polygon fill="white" stroke="#bfbfbf" points="162.5,-0.5 162.5,-19.5 216.5,-19.5 216.5,-0.5 162.5,-0.5"/>
<text text-anchor="middle" x="189.5" y="-7.5" font-family="Helvetica,sans-Serif" font-size="10.00">iostream</text>
</a>
</g>
</g>
<!-- Node9&#45;&gt;Node10 -->
<g id="edge10" class="edge">
<title>Node9&#45;&gt;Node10</title>
<path fill="none" stroke="midnightblue" d="M189.5,-56.4C189.5,-48.47 189.5,-38.46 189.5,-29.86"/>
<polygon fill="midnightblue" stroke="midnightblue" points="193,-29.66 189.5,-19.66 186,-29.66 193,-29.66"/>
</g>
<!-- Node11&#45;&gt;Node5 -->
<g id="edge16" class="edge">
<title>Node11&#45;&gt;Node5</title>
<path fill="none" stroke="midnightblue" d="M113.31,-57.63C116.41,-57.05 119.49,-56.5 122.5,-56 258.31,-33.47 422.1,-18.87 489.36,-13.41"/>
<polygon fill="midnightblue" stroke="midnightblue" points="489.99,-16.88 499.68,-12.59 489.43,-9.9 489.99,-16.88"/>
</g>
<!-- Node11&#45;&gt;Node8 -->
<g id="edge15" class="edge">
<title>Node11&#45;&gt;Node8</title>
<path fill="none" stroke="midnightblue" d="M108.12,-56.47C151.9,-44.58 213,-27.98 247.98,-18.48"/>
<polygon fill="midnightblue" stroke="midnightblue" points="249.22,-21.77 257.95,-15.77 247.38,-15.01 249.22,-21.77"/>
</g>
<!-- Node12 -->
<g id="node12" class="node">
<title>Node12</title>
<g id="a_node12"><a xlink:title=" ">
<polygon fill="white" stroke="#bfbfbf" points="33.5,-0.5 33.5,-19.5 79.5,-19.5 79.5,-0.5 33.5,-0.5"/>
<text text-anchor="middle" x="56.5" y="-7.5" font-family="Helvetica,sans-Serif" font-size="10.00">cstdint</text>
</a>
</g>
</g>
<!-- Node11&#45;&gt;Node12 -->
<g id="edge14" class="edge">
<title>Node11&#45;&gt;Node12</title>
<path fill="none" stroke="midnightblue" d="M56.5,-56.4C56.5,-48.47 56.5,-38.46 56.5,-29.86"/>
<polygon fill="midnightblue" stroke="midnightblue" points="60,-29.66 56.5,-19.66 53,-29.66 60,-29.66"/>
</g>
<!-- Node13&#45;&gt;Node4 -->
<g id="edge19" class="edge">
<title>Node13&#45;&gt;Node4</title>
<path fill="none" stroke="midnightblue" d="M515.94,-190.47C502.67,-181.88 487.89,-169.55 480.5,-154 470.7,-133.38 480.09,-107.36 488.81,-90.34"/>
<polygon fill="midnightblue" stroke="midnightblue" points="491.93,-91.92 493.71,-81.47 485.81,-88.53 491.93,-91.92"/>
</g>
<!-- Node13&#45;&gt;Node5 -->
<g id="edge20" class="edge">
<title>Node13&#45;&gt;Node5</title>
<path fill="none" stroke="midnightblue" d="M595.64,-202.14C630.19,-197.51 672.88,-185.28 695.5,-154 703.57,-142.83 697.49,-136.63 695.5,-123 691.01,-92.25 697.56,-77.89 675.5,-56 642.16,-22.91 586.01,-13.86 551.22,-11.56"/>
<polygon fill="midnightblue" stroke="midnightblue" points="551.33,-8.06 541.16,-11.04 550.97,-15.05 551.33,-8.06"/>
</g>
<!-- Node13&#45;&gt;Node6 -->
<g id="edge22" class="edge">
<title>Node13&#45;&gt;Node6</title>
<path fill="none" stroke="midnightblue" d="M595.75,-199.17C631.72,-193.21 678.47,-180.61 711.5,-154 752.81,-120.72 775.92,-59.74 785.38,-29.3"/>
<polygon fill="midnightblue" stroke="midnightblue" points="788.78,-30.15 788.26,-19.57 782.07,-28.17 788.78,-30.15"/>
</g>
<!-- Node13&#45;&gt;Node8 -->
<g id="edge18" class="edge">
<title>Node13&#45;&gt;Node8</title>
<path fill="none" stroke="midnightblue" d="M489.4,-193.49C432.69,-178.94 344.26,-147.7 294.5,-87 281.19,-70.76 277.02,-46.47 275.81,-29.74"/>
<polygon fill="midnightblue" stroke="midnightblue" points="279.3,-29.4 275.37,-19.56 272.31,-29.71 279.3,-29.4"/>
</g>
<!-- Node14 -->
<g id="node14" class="node">
<title>Node14</title>
<g id="a_node14"><a xlink:title=" ">
<polygon fill="white" stroke="#bfbfbf" points="523,-129 523,-148 562,-148 562,-129 523,-129"/>
<text text-anchor="middle" x="542.5" y="-136" font-family="Helvetica,sans-Serif" font-size="10.00">utility</text>
</a>
</g>
</g>
<!-- Node13&#45;&gt;Node14 -->
<g id="edge21" class="edge">
<title>Node13&#45;&gt;Node14</title>
<path fill="none" stroke="midnightblue" d="M542.5,-190.4C542.5,-181.06 542.5,-168.71 542.5,-158.52"/>
<polygon fill="midnightblue" stroke="midnightblue" points="546,-158.19 542.5,-148.19 539,-158.19 546,-158.19"/>
</g>
<!-- Node13&#45;&gt;Node15 -->
<g id="edge23" class="edge">
<title>Node13&#45;&gt;Node15</title>
<path fill="none" stroke="midnightblue" d="M562.25,-190.4C574.89,-181.37 591.48,-169.51 605.47,-159.52"/>
<polygon fill="midnightblue" stroke="midnightblue" points="607.69,-162.24 613.79,-153.58 603.62,-156.54 607.69,-162.24"/>
</g>
<!-- Node16 -->
<g id="node16" class="node">
<title>Node16</title>
<g id="a_node16"><a xlink:href="../../d7/de3/schema_8h.html" target="_top" xlink:title=" ">
<polygon fill="white" stroke="black" points="542.5,-56.5 542.5,-86.5 648.5,-86.5 648.5,-56.5 542.5,-56.5"/>
<text text-anchor="start" x="550.5" y="-74.5" font-family="Helvetica,sans-Serif" font-size="10.00">automaton/core/data</text>
<text text-anchor="middle" x="595.5" y="-63.5" font-family="Helvetica,sans-Serif" font-size="10.00">/schema.h</text>
</a>
</g>
</g>
<!-- Node13&#45;&gt;Node16 -->
<g id="edge30" class="edge">
<title>Node13&#45;&gt;Node16</title>
<path fill="none" stroke="midnightblue" d="M530.44,-190.34C517.73,-173.58 501.12,-145.16 513.5,-123 521.12,-109.35 534.12,-98.93 547.55,-91.21"/>
<polygon fill="midnightblue" stroke="midnightblue" points="549.19,-94.3 556.38,-86.52 545.91,-88.12 549.19,-94.3"/>
</g>
<!-- Node15&#45;&gt;Node4 -->
<g id="edge24" class="edge">
<title>Node15&#45;&gt;Node4</title>
<path fill="none" stroke="midnightblue" d="M604.42,-123.4C581.12,-112.09 548.69,-96.36 526.07,-85.39"/>
<polygon fill="midnightblue" stroke="midnightblue" points="527.56,-82.22 517.04,-81.01 524.51,-88.52 527.56,-82.22"/>
</g>
<!-- Node15&#45;&gt;Node5 -->
<g id="edge25" class="edge">
<title>Node15&#45;&gt;Node5</title>
<path fill="none" stroke="midnightblue" d="M644.57,-123.27C656.61,-105.93 672.29,-76.43 657.5,-56 633.36,-22.66 583.72,-13.58 551.29,-11.36"/>
<polygon fill="midnightblue" stroke="midnightblue" points="551.18,-7.85 541.01,-10.84 550.82,-14.84 551.18,-7.85"/>
</g>
<!-- Node15&#45;&gt;Node16 -->
<g id="edge26" class="edge">
<title>Node15&#45;&gt;Node16</title>
<path fill="none" stroke="midnightblue" d="M625.25,-123.4C620.47,-115.22 614.34,-104.73 608.88,-95.39"/>
<polygon fill="midnightblue" stroke="midnightblue" points="611.8,-93.44 603.73,-86.58 605.75,-96.98 611.8,-93.44"/>
</g>
<!-- Node16&#45;&gt;Node5 -->
<g id="edge28" class="edge">
<title>Node16&#45;&gt;Node5</title>
<path fill="none" stroke="midnightblue" d="M577.73,-56.4C566.15,-47.22 551.08,-35.26 539.3,-25.92"/>
<polygon fill="midnightblue" stroke="midnightblue" points="541.42,-23.13 531.41,-19.66 537.07,-28.61 541.42,-23.13"/>
</g>
<!-- Node16&#45;&gt;Node6 -->
<g id="edge29" class="edge">
<title>Node16&#45;&gt;Node6</title>
<path fill="none" stroke="midnightblue" d="M641.71,-56.4C677.79,-45.39 726.96,-30.39 758.73,-20.7"/>
<polygon fill="midnightblue" stroke="midnightblue" points="759.84,-24.01 768.39,-17.75 757.8,-17.32 759.84,-24.01"/>
</g>
<!-- Node16&#45;&gt;Node8 -->
<g id="edge27" class="edge">
<title>Node16&#45;&gt;Node8</title>
<path fill="none" stroke="midnightblue" d="M542.44,-57.88C539.42,-57.23 536.42,-56.6 533.5,-56 450.01,-38.97 350.5,-22.76 303.16,-15.29"/>
<polygon fill="midnightblue" stroke="midnightblue" points="303.51,-11.8 293.08,-13.71 302.42,-18.72 303.51,-11.8"/>
</g>
<!-- Node18&#45;&gt;Node5 -->
<g id="edge36" class="edge">
<title>Node18&#45;&gt;Node5</title>
<path fill="none" stroke="midnightblue" d="M866.73,-262.91C851.03,-253.86 826.86,-238.51 809.5,-221 747.11,-158.05 770.06,-106.9 697.5,-56 653.08,-24.84 588.97,-15.23 551.33,-12.29"/>
<polygon fill="midnightblue" stroke="midnightblue" points="551.21,-8.77 541,-11.59 550.74,-15.75 551.21,-8.77"/>
</g>
<!-- Node19 -->
<g id="node19" class="node">
<title>Node19</title>
<g id="a_node19"><a xlink:title=" ">
<polygon fill="white" stroke="#bfbfbf" points="818.5,-196 818.5,-215 864.5,-215 864.5,-196 818.5,-196"/>
<text text-anchor="middle" x="841.5" y="-203" font-family="Helvetica,sans-Serif" font-size="10.00">chrono</text>
</a>
</g>
</g>
<!-- Node18&#45;&gt;Node19 -->
<g id="edge35" class="edge">
<title>Node18&#45;&gt;Node19</title>
<path fill="none" stroke="midnightblue" d="M876.97,-262.73C870.7,-252.79 860.32,-236.34 852.41,-223.79"/>
<polygon fill="midnightblue" stroke="midnightblue" points="855.24,-221.72 846.94,-215.13 849.32,-225.45 855.24,-221.72"/>
</g>
<!-- Node20 -->
<g id="node20" class="node">
<title>Node20</title>
<g id="a_node20"><a xlink:title=" ">
<polygon fill="white" stroke="#bfbfbf" points="882.5,-196 882.5,-215 966.5,-215 966.5,-196 882.5,-196"/>
<text text-anchor="middle" x="924.5" y="-203" font-family="Helvetica,sans-Serif" font-size="10.00">g3log/g3log.hpp</text>
</a>
</g>
</g>
<!-- Node18&#45;&gt;Node20 -->
<g id="edge37" class="edge">
<title>Node18&#45;&gt;Node20</title>
<path fill="none" stroke="midnightblue" d="M888.16,-262.73C894.59,-252.79 905.22,-236.34 913.33,-223.79"/>
<polygon fill="midnightblue" stroke="midnightblue" points="916.44,-225.43 918.93,-215.13 910.56,-221.63 916.44,-225.43"/>
</g>
<!-- Node21 -->
<g id="node21" class="node">
<title>Node21</title>
<g id="a_node21"><a xlink:title=" ">
<polygon fill="white" stroke="#bfbfbf" points="985,-196 985,-215 1088,-215 1088,-196 985,-196"/>
<text text-anchor="middle" x="1036.5" y="-203" font-family="Helvetica,sans-Serif" font-size="10.00">g3log/logworker.hpp</text>
</a>
</g>
</g>
<!-- Node18&#45;&gt;Node21 -->
<g id="edge38" class="edge">
<title>Node18&#45;&gt;Node21</title>
<path fill="none" stroke="midnightblue" d="M902.95,-262.87C929.53,-251.65 976.14,-231.98 1006.67,-219.09"/>
<polygon fill="midnightblue" stroke="midnightblue" points="1008.11,-222.28 1015.97,-215.17 1005.39,-215.83 1008.11,-222.28"/>
</g>
<!-- Node22 -->
<g id="node22" class="node">
<title>Node22</title>
<g id="a_node22"><a xlink:title=" ">
<polygon fill="white" stroke="#bfbfbf" points="1106,-196 1106,-215 1205,-215 1205,-196 1106,-196"/>
<text text-anchor="middle" x="1155.5" y="-203" font-family="Helvetica,sans-Serif" font-size="10.00">g3log/loglevels.hpp</text>
</a>
</g>
</g>
<!-- Node18&#45;&gt;Node22 -->
<g id="edge39" class="edge">
<title>Node18&#45;&gt;Node22</title>
<path fill="none" stroke="midnightblue" d="M919.44,-262.99C962.3,-253.08 1035.08,-236.13 1097.5,-221 1102.17,-219.87 1107.05,-218.67 1111.91,-217.47"/>
<polygon fill="midnightblue" stroke="midnightblue" points="1112.92,-220.82 1121.78,-215.02 1111.23,-214.03 1112.92,-220.82"/>
</g>
</g>
</svg>
