<?xml version="1.0" encoding="UTF-8" standalone="no"?>
<!DOCTYPE svg PUBLIC "-//W3C//DTD SVG 1.1//EN"
 "http://www.w3.org/Graphics/SVG/1.1/DTD/svg11.dtd">
<!-- Generated by graphviz version 2.44.0 ()
 -->
<!-- Title: secure_random_cryptopp.h Pages: 1 -->
<svg width="361pt" height="151pt"
 viewBox="0.00 0.00 361.00 151.00" xmlns="http://www.w3.org/2000/svg" xmlns:xlink="http://www.w3.org/1999/xlink">
<g id="graph0" class="graph" transform="scale(1 1) rotate(0) translate(4 147)">
<title>secure_random_cryptopp.h</title>
<polygon fill="white" stroke="transparent" points="-4,4 -4,-147 357,-147 357,4 -4,4"/>
<!-- Node1 -->
<g id="node1" class="node">
<title>Node1</title>
<g id="a_node1"><a xlink:title=" ">
<polygon fill="#bfbfbf" stroke="black" points="91,-123.5 91,-142.5 224,-142.5 224,-123.5 91,-123.5"/>
<text text-anchor="middle" x="157.5" y="-130.5" font-family="Helvetica,sans-Serif" font-size="10.00">secure_random_cryptopp.h</text>
</a>
</g>
</g>
<!-- Node2 -->
<g id="node2" class="node">
<title>Node2</title>
<g id="a_node2"><a xlink:title=" ">
<polygon fill="white" stroke="#bfbfbf" points="0,-62 0,-81 95,-81 95,-62 0,-62"/>
<text text-anchor="middle" x="47.5" y="-69" font-family="Helvetica,sans-Serif" font-size="10.00">cryptopp/cryptlib.h</text>
</a>
</g>
</g>
<!-- Node1&#45;&gt;Node2 -->
<g id="edge1" class="edge">
<title>Node1&#45;&gt;Node2</title>
<path fill="none" stroke="midnightblue" d="M141.74,-123.48C123.52,-113.62 93.33,-97.29 72.03,-85.77"/>
<polygon fill="midnightblue" stroke="midnightblue" points="73.69,-82.69 63.23,-81.01 70.36,-88.85 73.69,-82.69"/>
</g>
<!-- Node3 -->
<g id="node3" class="node">
<title>Node3</title>
<g id="a_node3"><a xlink:title=" ">
<polygon fill="white" stroke="#bfbfbf" points="113.5,-62 113.5,-81 201.5,-81 201.5,-62 113.5,-62"/>
<text text-anchor="middle" x="157.5" y="-69" font-family="Helvetica,sans-Serif" font-size="10.00">cryptopp/osrng.h</text>
</a>
</g>
</g>
<!-- Node1&#45;&gt;Node3 -->
<g id="edge2" class="edge">
<title>Node1&#45;&gt;Node3</title>
<path fill="none" stroke="midnightblue" d="M157.5,-123.48C157.5,-115.08 157.5,-101.98 157.5,-91.16"/>
<polygon fill="midnightblue" stroke="midnightblue" points="161,-91.01 157.5,-81.01 154,-91.01 161,-91.01"/>
</g>
<!-- Node4 -->
<g id="node4" class="node">
<title>Node4</title>
<g id="a_node4"><a xlink:href="../../d1/d8a/secure__random_8h.html" target="_top" xlink:title=" ">
<polygon fill="white" stroke="black" points="220,-56.5 220,-86.5 333,-86.5 333,-56.5 220,-56.5"/>
<text text-anchor="start" x="228" y="-74.5" font-family="Helvetica,sans-Serif" font-size="10.00">automaton/core/crypto</text>
<text text-anchor="middle" x="276.5" y="-63.5" font-family="Helvetica,sans-Serif" font-size="10.00">/secure_random.h</text>
</a>
</g>
</g>
<!-- Node1&#45;&gt;Node4 -->
<g id="edge3" class="edge">
<title>Node1&#45;&gt;Node4</title>
<path fill="none" stroke="midnightblue" d="M174.55,-123.48C191.42,-115.04 217.79,-101.86 239.48,-91.01"/>
<polygon fill="midnightblue" stroke="midnightblue" points="241.08,-94.13 248.45,-86.52 237.94,-87.86 241.08,-94.13"/>
</g>
<!-- Node5 -->
<g id="node5" class="node">
<title>Node5</title>
<g id="a_node5"><a xlink:title=" ">
<polygon fill="white" stroke="#bfbfbf" points="194.5,-0.5 194.5,-19.5 240.5,-19.5 240.5,-0.5 194.5,-0.5"/>
<text text-anchor="middle" x="217.5" y="-7.5" font-family="Helvetica,sans-Serif" font-size="10.00">cstdint</text>
</a>
</g>
</g>
<!-- Node4&#45;&gt;Node5 -->
<g id="edge4" class="edge">
<title>Node4&#45;&gt;Node5</title>
<path fill="none" stroke="midnightblue" d="M262.52,-56.4C253.77,-47.58 242.47,-36.18 233.38,-27.02"/>
<polygon fill="midnightblue" stroke="midnightblue" points="235.61,-24.29 226.09,-19.66 230.64,-29.22 235.61,-24.29"/>
</g>
<!-- Node6 -->
<g id="node6" class="node">
<title>Node6</title>
<g id="a_node6"><a xlink:title=" ">
<polygon fill="white" stroke="#bfbfbf" points="259,-0.5 259,-19.5 294,-19.5 294,-0.5 259,-0.5"/>
<text text-anchor="middle" x="276.5" y="-7.5" font-family="Helvetica,sans-Serif" font-size="10.00">map</text>
</a>
</g>
</g>
<!-- Node4&#45;&gt;Node6 -->
<g id="edge5" class="edge">
<title>Node4&#45;&gt;Node6</title>
<path fill="none" stroke="midnightblue" d="M276.5,-56.4C276.5,-48.47 276.5,-38.46 276.5,-29.86"/>
<polygon fill="midnightblue" stroke="midnightblue" points="280,-29.66 276.5,-19.66 273,-29.66 280,-29.66"/>
</g>
<!-- Node7 -->
<g id="node7" class="node">
<title>Node7</title>
<g id="a_node7"><a xlink:title=" ">
<polygon fill="white" stroke="#bfbfbf" points="312,-0.5 312,-19.5 353,-19.5 353,-0.5 312,-0.5"/>
<text text-anchor="middle" x="332.5" y="-7.5" font-family="Helvetica,sans-Serif" font-size="10.00">string</text>
</a>
</g>
</g>
<!-- Node4&#45;&gt;Node7 -->
<g id="edge6" class="edge">
<title>Node4&#45;&gt;Node7</title>
<path fill="none" stroke="midnightblue" d="M289.77,-56.4C298.08,-47.58 308.8,-36.18 317.42,-27.02"/>
<polygon fill="midnightblue" stroke="midnightblue" points="320.05,-29.34 324.35,-19.66 314.95,-24.54 320.05,-29.34"/>
</g>
</g>
</svg>
