<?xml version="1.0" encoding="UTF-8" standalone="no"?>
<!DOCTYPE svg PUBLIC "-//W3C//DTD SVG 1.1//EN"
 "http://www.w3.org/Graphics/SVG/1.1/DTD/svg11.dtd">
<!-- Generated by graphviz version 2.42.3 ()
 -->
<!-- Title: SHA256_cryptopp.h Pages: 1 -->
<svg width="354pt" height="151pt"
 viewBox="0.00 0.00 354.00 151.00" xmlns="http://www.w3.org/2000/svg" xmlns:xlink="http://www.w3.org/1999/xlink">
<g id="graph0" class="graph" transform="scale(1 1) rotate(0) translate(4 147)">
<title>SHA256_cryptopp.h</title>
<polygon fill="white" stroke="transparent" points="-4,4 -4,-147 350,-147 350,4 -4,4"/>
<!-- Node1 -->
<g id="node1" class="node">
<title>Node1</title>
<g id="a_node1"><a xlink:title=" ">
<polygon fill="#bfbfbf" stroke="black" points="102,-123.5 102,-142.5 205,-142.5 205,-123.5 102,-123.5"/>
<text text-anchor="middle" x="153.5" y="-130.5" font-family="Helvetica,sans-Serif" font-size="10.00">SHA256_cryptopp.h</text>
</a>
</g>
</g>
<!-- Node2 -->
<g id="node2" class="node">
<title>Node2</title>
<g id="a_node2"><a xlink:title=" ">
<polygon fill="white" stroke="#bfbfbf" points="0,-62 0,-81 95,-81 95,-62 0,-62"/>
<text text-anchor="middle" x="47.5" y="-69" font-family="Helvetica,sans-Serif" font-size="10.00">cryptopp/cryptlib.h</text>
</a>
</g>
</g>
<!-- Node1&#45;&gt;Node2 -->
<g id="edge1" class="edge">
<title>Node1&#45;&gt;Node2</title>
<path fill="none" stroke="midnightblue" d="M138.31,-123.48C120.84,-113.67 91.92,-97.43 71.42,-85.92"/>
<polygon fill="midnightblue" stroke="midnightblue" points="73.09,-82.85 62.66,-81.01 69.67,-88.96 73.09,-82.85"/>
</g>
<!-- Node3 -->
<g id="node3" class="node">
<title>Node3</title>
<g id="a_node3"><a xlink:title=" ">
<polygon fill="white" stroke="#bfbfbf" points="113.5,-62 113.5,-81 193.5,-81 193.5,-62 113.5,-62"/>
<text text-anchor="middle" x="153.5" y="-69" font-family="Helvetica,sans-Serif" font-size="10.00">cryptopp/sha.h</text>
</a>
</g>
</g>
<!-- Node1&#45;&gt;Node3 -->
<g id="edge2" class="edge">
<title>Node1&#45;&gt;Node3</title>
<path fill="none" stroke="midnightblue" d="M153.5,-123.48C153.5,-115.08 153.5,-101.98 153.5,-91.16"/>
<polygon fill="midnightblue" stroke="midnightblue" points="157,-91.01 153.5,-81.01 150,-91.01 157,-91.01"/>
</g>
<!-- Node4 -->
<g id="node4" class="node">
<title>Node4</title>
<g id="a_node4"><a xlink:href="../../d2/dab/hash__transformation_8h.html" target="_top" xlink:title=" ">
<polygon fill="white" stroke="black" points="211.5,-56.5 211.5,-86.5 327.5,-86.5 327.5,-56.5 211.5,-56.5"/>
<text text-anchor="start" x="219.5" y="-74.5" font-family="Helvetica,sans-Serif" font-size="10.00">automaton/core/crypto</text>
<text text-anchor="middle" x="269.5" y="-63.5" font-family="Helvetica,sans-Serif" font-size="10.00">/hash_transformation.h</text>
</a>
</g>
</g>
<!-- Node1&#45;&gt;Node4 -->
<g id="edge3" class="edge">
<title>Node1&#45;&gt;Node4</title>
<path fill="none" stroke="midnightblue" d="M170.12,-123.48C186.49,-115.08 212.04,-101.97 233.13,-91.15"/>
<polygon fill="midnightblue" stroke="midnightblue" points="234.86,-94.2 242.16,-86.52 231.67,-87.97 234.86,-94.2"/>
</g>
<!-- Node5 -->
<g id="node5" class="node">
<title>Node5</title>
<g id="a_node5"><a xlink:title=" ">
<polygon fill="white" stroke="#bfbfbf" points="179.5,-0.5 179.5,-19.5 233.5,-19.5 233.5,-0.5 179.5,-0.5"/>
<text text-anchor="middle" x="206.5" y="-7.5" font-family="Helvetica,sans-Serif" font-size="10.00">iostream</text>
</a>
</g>
</g>
<!-- Node4&#45;&gt;Node5 -->
<g id="edge4" class="edge">
<title>Node4&#45;&gt;Node5</title>
<path fill="none" stroke="midnightblue" d="M254.57,-56.4C245.13,-47.49 232.92,-35.95 223.17,-26.74"/>
<polygon fill="midnightblue" stroke="midnightblue" points="225.34,-23.98 215.67,-19.66 220.53,-29.07 225.34,-23.98"/>
</g>
<!-- Node6 -->
<g id="node6" class="node">
<title>Node6</title>
<g id="a_node6"><a xlink:title=" ">
<polygon fill="white" stroke="#bfbfbf" points="252,-0.5 252,-19.5 287,-19.5 287,-0.5 252,-0.5"/>
<text text-anchor="middle" x="269.5" y="-7.5" font-family="Helvetica,sans-Serif" font-size="10.00">map</text>
</a>
</g>
</g>
<!-- Node4&#45;&gt;Node6 -->
<g id="edge5" class="edge">
<title>Node4&#45;&gt;Node6</title>
<path fill="none" stroke="midnightblue" d="M269.5,-56.4C269.5,-48.47 269.5,-38.46 269.5,-29.86"/>
<polygon fill="midnightblue" stroke="midnightblue" points="273,-29.66 269.5,-19.66 266,-29.66 273,-29.66"/>
</g>
<!-- Node7 -->
<g id="node7" class="node">
<title>Node7</title>
<g id="a_node7"><a xlink:title=" ">
<polygon fill="white" stroke="#bfbfbf" points="305,-0.5 305,-19.5 346,-19.5 346,-0.5 305,-0.5"/>
<text text-anchor="middle" x="325.5" y="-7.5" font-family="Helvetica,sans-Serif" font-size="10.00">string</text>
</a>
</g>
</g>
<!-- Node4&#45;&gt;Node7 -->
<g id="edge6" class="edge">
<title>Node4&#45;&gt;Node7</title>
<path fill="none" stroke="midnightblue" d="M282.77,-56.4C291.08,-47.58 301.8,-36.18 310.42,-27.02"/>
<polygon fill="midnightblue" stroke="midnightblue" points="313.05,-29.34 317.35,-19.66 307.95,-24.54 313.05,-29.34"/>
</g>
</g>
</svg>
