<?xml version="1.0" encoding="UTF-8" standalone="no"?>
<!DOCTYPE svg PUBLIC "-//W3C//DTD SVG 1.1//EN"
 "http://www.w3.org/Graphics/SVG/1.1/DTD/svg11.dtd">
<!-- Generated by graphviz version 2.42.3 ()
 -->
<!-- Title: automaton::core::network::simulated_connection::get_state Pages: 1 -->
<svg width="795pt" height="130pt"
 viewBox="0.00 0.00 795.00 129.95" xmlns="http://www.w3.org/2000/svg" xmlns:xlink="http://www.w3.org/1999/xlink">
<g id="graph0" class="graph" transform="scale(1 1) rotate(0) translate(4 125.95)">
<title>automaton::core::network::simulated_connection::get_state</title>
<polygon fill="white" stroke="transparent" points="-4,4 -4,-125.95 791,-125.95 791,4 -4,4"/>
<!-- Node1 -->
<g id="node1" class="node">
<title>Node1</title>
<g id="a_node1"><a xlink:title=" ">
<polygon fill="#bfbfbf" stroke="black" points="662,-42.02 662,-83.02 787,-83.02 787,-42.02 662,-42.02"/>
<text text-anchor="start" x="670" y="-71.02" font-family="Helvetica,sans-Serif" font-size="10.00">automaton::core::network</text>
<text text-anchor="start" x="670" y="-60.02" font-family="Helvetica,sans-Serif" font-size="10.00">::simulated_connection</text>
<text text-anchor="middle" x="724.5" y="-49.02" font-family="Helvetica,sans-Serif" font-size="10.00">::get_state</text>
</a>
</g>
</g>
<!-- Node2 -->
<g id="node2" class="node">
<title>Node2</title>
<g id="a_node2"><a xlink:href="../../db/dd7/classautomaton_1_1core_1_1network_1_1simulated__connection.html#a820ba31e256235c99d7e4aba79ecfcbe" target="_top" xlink:title=" ">
<polygon fill="white" stroke="black" points="0,-64.02 0,-105.02 125,-105.02 125,-64.02 0,-64.02"/>
<text text-anchor="start" x="8" y="-93.02" font-family="Helvetica,sans-Serif" font-size="10.00">automaton::core::network</text>
<text text-anchor="start" x="8" y="-82.02" font-family="Helvetica,sans-Serif" font-size="10.00">::simulated_connection</text>
<text text-anchor="middle" x="62.5" y="-71.02" font-family="Helvetica,sans-Serif" font-size="10.00">::async_send</text>
</a>
</g>
</g>
<!-- Node1&#45;&gt;Node2 -->
<g id="edge1" class="edge">
<title>Node1&#45;&gt;Node2</title>
<path fill="none" stroke="midnightblue" d="M652.15,-85.76C643.39,-88.23 634.53,-90.55 626,-92.52 493.89,-122.93 457.29,-126.12 322,-117.52 254.39,-113.22 177.42,-102.66 125.18,-94.63"/>
<polygon fill="midnightblue" stroke="midnightblue" points="653.34,-89.06 661.97,-82.92 651.39,-82.34 653.34,-89.06"/>
</g>
<!-- Node3 -->
<g id="node3" class="node">
<title>Node3</title>
<g id="a_node3"><a xlink:href="../../db/dd7/classautomaton_1_1core_1_1network_1_1simulated__connection.html#a74f89bae76a2fdc9b359c6e86828c96d" target="_top" xlink:title=" ">
<polygon fill="white" stroke="black" points="501,-42.02 501,-83.02 626,-83.02 626,-42.02 501,-42.02"/>
<text text-anchor="start" x="509" y="-71.02" font-family="Helvetica,sans-Serif" font-size="10.00">automaton::core::network</text>
<text text-anchor="start" x="509" y="-60.02" font-family="Helvetica,sans-Serif" font-size="10.00">::simulated_connection</text>
<text text-anchor="middle" x="563.5" y="-49.02" font-family="Helvetica,sans-Serif" font-size="10.00">::handle_read</text>
</a>
</g>
</g>
<!-- Node1&#45;&gt;Node3 -->
<g id="edge2" class="edge">
<title>Node1&#45;&gt;Node3</title>
<path fill="none" stroke="midnightblue" d="M651.41,-62.52C643.01,-62.52 634.5,-62.52 626.26,-62.52"/>
<polygon fill="midnightblue" stroke="midnightblue" points="651.57,-66.02 661.57,-62.52 651.57,-59.02 651.57,-66.02"/>
</g>
<!-- Node6 -->
<g id="node6" class="node">
<title>Node6</title>
<g id="a_node6"><a xlink:href="../../db/dd7/classautomaton_1_1core_1_1network_1_1simulated__connection.html#a6af3ffae84db8b49436c6eb0423d66fb" target="_top" xlink:title=" ">
<polygon fill="white" stroke="black" points="161,-13.02 161,-54.02 286,-54.02 286,-13.02 161,-13.02"/>
<text text-anchor="start" x="169" y="-42.02" font-family="Helvetica,sans-Serif" font-size="10.00">automaton::core::network</text>
<text text-anchor="start" x="169" y="-31.02" font-family="Helvetica,sans-Serif" font-size="10.00">::simulated_connection</text>
<text text-anchor="middle" x="223.5" y="-20.02" font-family="Helvetica,sans-Serif" font-size="10.00">::handle_send</text>
</a>
</g>
</g>
<!-- Node1&#45;&gt;Node6 -->
<g id="edge8" class="edge">
<title>Node1&#45;&gt;Node6</title>
<path fill="none" stroke="midnightblue" d="M652.16,-39.22C643.4,-36.76 634.53,-34.45 626,-32.52 493.83,-2.51 456.47,8.45 322,-8.52 310.3,-9.99 297.99,-12.43 286.2,-15.22"/>
<polygon fill="midnightblue" stroke="midnightblue" points="651.41,-42.65 661.98,-42.06 653.35,-35.92 651.41,-42.65"/>
</g>
<!-- Node4 -->
<g id="node4" class="node">
<title>Node4</title>
<g id="a_node4"><a xlink:href="../../db/dd7/classautomaton_1_1core_1_1network_1_1simulated__connection.html#a551ef9c366ca5cea2fb54a4d51047cd9" target="_top" xlink:title=" ">
<polygon fill="white" stroke="black" points="331,-67.02 331,-108.02 456,-108.02 456,-67.02 331,-67.02"/>
<text text-anchor="start" x="339" y="-96.02" font-family="Helvetica,sans-Serif" font-size="10.00">automaton::core::network</text>
<text text-anchor="start" x="339" y="-85.02" font-family="Helvetica,sans-Serif" font-size="10.00">::simulated_connection</text>
<text text-anchor="middle" x="393.5" y="-74.02" font-family="Helvetica,sans-Serif" font-size="10.00">::async_read</text>
</a>
</g>
</g>
<!-- Node3&#45;&gt;Node4 -->
<g id="edge3" class="edge">
<title>Node3&#45;&gt;Node4</title>
<path fill="none" stroke="midnightblue" d="M490.84,-73.18C479.28,-74.9 467.39,-76.67 456.1,-78.35"/>
<polygon fill="midnightblue" stroke="midnightblue" points="491.52,-76.62 500.9,-71.68 490.49,-69.69 491.52,-76.62"/>
</g>
<!-- Node5 -->
<g id="node5" class="node">
<title>Node5</title>
<g id="a_node5"><a xlink:href="../../d7/ded/classautomaton_1_1core_1_1network_1_1simulation.html#abac703be4668bd6ebf00deff3c310f2e" target="_top" xlink:title=" ">
<polygon fill="white" stroke="black" points="322,-18.52 322,-48.52 465,-48.52 465,-18.52 322,-18.52"/>
<text text-anchor="start" x="330" y="-36.52" font-family="Helvetica,sans-Serif" font-size="10.00">automaton::core::network</text>
<text text-anchor="middle" x="393.5" y="-25.52" font-family="Helvetica,sans-Serif" font-size="10.00">::simulation::handle_message</text>
</a>
</g>
</g>
<!-- Node3&#45;&gt;Node5 -->
<g id="edge4" class="edge">
<title>Node3&#45;&gt;Node5</title>
<path fill="none" stroke="midnightblue" d="M490.97,-50.17C482.44,-48.7 473.72,-47.19 465.19,-45.72"/>
<polygon fill="midnightblue" stroke="midnightblue" points="490.45,-53.63 500.9,-51.88 491.64,-46.73 490.45,-53.63"/>
</g>
<!-- Node5&#45;&gt;Node6 -->
<g id="edge5" class="edge">
<title>Node5&#45;&gt;Node6</title>
<path fill="none" stroke="midnightblue" d="M311.69,-26.77C303.09,-26.75 294.45,-26.82 286.12,-26.98"/>
<polygon fill="midnightblue" stroke="midnightblue" points="311.72,-30.27 321.74,-26.84 311.76,-23.27 311.72,-30.27"/>
</g>
<!-- Node6&#45;&gt;Node2 -->
<g id="edge6" class="edge">
<title>Node6&#45;&gt;Node2</title>
<path fill="none" stroke="midnightblue" d="M150.96,-56.46C142.38,-59.21 133.68,-62 125.26,-64.71"/>
<polygon fill="midnightblue" stroke="midnightblue" points="152.12,-59.77 160.57,-53.38 149.98,-53.1 152.12,-59.77"/>
</g>
<!-- Node6&#45;&gt;Node5 -->
<g id="edge7" class="edge">
<title>Node6&#45;&gt;Node5</title>
<path fill="none" stroke="midnightblue" d="M296.3,-40.2C304.73,-40.29 313.32,-40.29 321.74,-40.19"/>
<polygon fill="midnightblue" stroke="midnightblue" points="296.17,-36.7 286.12,-40.05 296.07,-43.7 296.17,-36.7"/>
</g>
</g>
</svg>
