<?xml version="1.0" encoding="UTF-8" standalone="no"?>
<!DOCTYPE svg PUBLIC "-//W3C//DTD SVG 1.1//EN"
 "http://www.w3.org/Graphics/SVG/1.1/DTD/svg11.dtd">
<!-- Generated by graphviz version 2.44.0 ()
 -->
<!-- Title: automaton::core::network::simulated_connection::async_send Pages: 1 -->
<!--zoomable 544 -->
<svg id="main" version="1.1" xmlns="http://www.w3.org/2000/svg" xmlns:xlink="http://www.w3.org/1999/xlink" xml:space="preserve" onload="init(evt)">
<style type="text/css"><![CDATA[
.edge:hover path { stroke: red; }
.edge:hover polygon { stroke: red; fill: red; }
]]></style>
<script type="text/javascript"><![CDATA[
var edges = document.getElementsByTagName('g');
if (edges && edges.length) {
  for (var i=0;i<edges.length;i++) {
    if (edges[i].id.substr(0,4)=='edge') {
      edges[i].setAttribute('class','edge');
    }
  }
}
]]></script>
        <defs>
                <circle id="rim" cx="0" cy="0" r="7"/>
                <circle id="rim2" cx="0" cy="0" r="3.5"/>
                <g id="zoomPlus">
                        <use xlink:href="#rim" fill="#404040">
                                <set attributeName="fill" to="#808080" begin="zoomplus.mouseover" end="zoomplus.mouseout"/>
                        </use>
                        <path d="M-4,0h8M0,-4v8" fill="none" stroke="white" stroke-width="1.5" pointer-events="none"/>
                </g>
                <g id="zoomMin">
                        <use xlink:href="#rim" fill="#404040">
                                <set attributeName="fill" to="#808080" begin="zoomminus.mouseover" end="zoomminus.mouseout"/>
                        </use>
                        <path d="M-4,0h8" fill="none" stroke="white" stroke-width="1.5" pointer-events="none"/>
                </g>
                <g id="dirArrow">
                        <path fill="none" stroke="white" stroke-width="1.5" d="M0,-3.0v7 M-2.5,-0.5L0,-3.0L2.5,-0.5"/>
                </g>
               <g id="resetDef">
                       <use xlink:href="#rim2" fill="#404040">
                               <set attributeName="fill" to="#808080" begin="reset.mouseover" end="reset.mouseout"/>
                       </use>
               </g>
        </defs>

<script type="text/javascript">
var viewWidth = 822;
var viewHeight = 544;
var sectionId = 'dynsection-3';
</script>
<script xlink:href="../../svgpan.js"/>
<svg id="graph" class="graph">
<g id="viewport">
<title>automaton::core::network::simulated_connection::async_send</title>
<polygon fill="white" stroke="transparent" points="-4,4 -4,-539.87 818,-539.87 818,4 -4,4"/>
<!-- Node1 -->
<g id="node1" class="node">
<title>Node1</title>
<g id="a_node1"><a xlink:title=" ">
<polygon fill="#bfbfbf" stroke="black" points="0,-339 0,-380 125,-380 125,-339 0,-339"/>
<text text-anchor="start" x="8" y="-368" font-family="Helvetica,sans-Serif" font-size="10.00">automaton::core::network</text>
<text text-anchor="start" x="8" y="-357" font-family="Helvetica,sans-Serif" font-size="10.00">::simulated_connection</text>
<text text-anchor="middle" x="62.5" y="-346" font-family="Helvetica,sans-Serif" font-size="10.00">::async_send</text>
</a>
</g>
</g>
<!-- Node2 -->
<g id="node2" class="node">
<title>Node2</title>
<g id="a_node2"><a xlink:href="../../d7/ded/classautomaton_1_1core_1_1network_1_1simulation.html#ad00c2b3b98e9eb6b251f39549d46baf4" target="_top" xlink:title=" ">
<polygon fill="white" stroke="black" points="674,-247.5 674,-277.5 802,-277.5 802,-247.5 674,-247.5"/>
<text text-anchor="start" x="682" y="-265.5" font-family="Helvetica,sans-Serif" font-size="10.00">automaton::core::network</text>
<text text-anchor="middle" x="738" y="-254.5" font-family="Helvetica,sans-Serif" font-size="10.00">::simulation::get_simulator</text>
</a>
</g>
</g>
<!-- Node1&#45;&gt;Node2 -->
<g id="edge1" class="edge">
<title>Node1&#45;&gt;Node2</title>
<path fill="none" stroke="midnightblue" d="M108.05,-338.87C158.63,-316.68 244.24,-282.78 322,-269.5 330.32,-268.08 617.56,-268.74 626,-268.5 638.25,-268.15 651.26,-267.6 663.89,-266.98"/>
<polygon fill="midnightblue" stroke="midnightblue" points="664.11,-270.47 673.92,-266.47 663.75,-263.48 664.11,-270.47"/>
</g>
<!-- Node3 -->
<g id="node3" class="node">
<title>Node3</title>
<g id="a_node3"><a xlink:href="../../db/dd7/classautomaton_1_1core_1_1network_1_1simulated__connection.html#acfde8d040d003b23b6fd92443670e985" target="_top" xlink:title=" ">
<polygon fill="white" stroke="black" points="675.5,-486 675.5,-527 800.5,-527 800.5,-486 675.5,-486"/>
<text text-anchor="start" x="683.5" y="-515" font-family="Helvetica,sans-Serif" font-size="10.00">automaton::core::network</text>
<text text-anchor="start" x="683.5" y="-504" font-family="Helvetica,sans-Serif" font-size="10.00">::simulated_connection</text>
<text text-anchor="middle" x="738" y="-493" font-family="Helvetica,sans-Serif" font-size="10.00">::get_state</text>
</a>
</g>
</g>
<!-- Node1&#45;&gt;Node3 -->
<g id="edge2" class="edge">
<title>Node1&#45;&gt;Node3</title>
<path fill="none" stroke="midnightblue" d="M89.09,-380.17C133.44,-414.65 228.77,-483.02 322,-512.5 437.86,-549.13 581.17,-534.9 665.48,-520.92"/>
<polygon fill="midnightblue" stroke="midnightblue" points="666.2,-524.35 675.47,-519.22 665.02,-517.44 666.2,-524.35"/>
</g>
<!-- Node4 -->
<g id="node4" class="node">
<title>Node4</title>
<g id="a_node4"><a xlink:href="../../db/dd7/classautomaton_1_1core_1_1network_1_1simulated__connection.html#a6af3ffae84db8b49436c6eb0423d66fb" target="_top" xlink:title=" ">
<polygon fill="white" stroke="black" points="161,-339 161,-380 286,-380 286,-339 161,-339"/>
<text text-anchor="start" x="169" y="-368" font-family="Helvetica,sans-Serif" font-size="10.00">automaton::core::network</text>
<text text-anchor="start" x="169" y="-357" font-family="Helvetica,sans-Serif" font-size="10.00">::simulated_connection</text>
<text text-anchor="middle" x="223.5" y="-346" font-family="Helvetica,sans-Serif" font-size="10.00">::handle_send</text>
</a>
</g>
</g>
<!-- Node1&#45;&gt;Node4 -->
<g id="edge3" class="edge">
<title>Node1&#45;&gt;Node4</title>
<path fill="none" stroke="midnightblue" d="M125.43,-359.5C133.67,-359.5 142.18,-359.5 150.58,-359.5"/>
<polygon fill="midnightblue" stroke="midnightblue" points="150.74,-363 160.74,-359.5 150.74,-356 150.74,-363"/>
</g>
<!-- Node4&#45;&gt;Node2 -->
<g id="edge5" class="edge">
<title>Node4&#45;&gt;Node2</title>
<path fill="none" stroke="midnightblue" d="M281.06,-380.02C294.32,-383.95 308.51,-387.47 322,-389.5 384.85,-398.95 402.95,-403.27 465,-389.5 557.68,-368.93 656.19,-313.33 705.3,-282.97"/>
<polygon fill="midnightblue" stroke="midnightblue" points="707.26,-285.87 713.88,-277.61 703.55,-279.94 707.26,-285.87"/>
</g>
<!-- Node4&#45;&gt;Node3 -->
<g id="edge6" class="edge">
<title>Node4&#45;&gt;Node3</title>
<path fill="none" stroke="midnightblue" d="M233.4,-380.47C247.35,-410.36 277.46,-464.16 322,-487.5 379.67,-517.73 562.42,-514.77 665.13,-510.4"/>
<polygon fill="midnightblue" stroke="midnightblue" points="665.59,-513.88 675.42,-509.94 665.28,-506.89 665.59,-513.88"/>
</g>
<!-- Node5 -->
<g id="node5" class="node">
<title>Node5</title>
<g id="a_node5"><a xlink:href="../../db/dd7/classautomaton_1_1core_1_1network_1_1simulated__connection.html#a22ee9f2889b620302bd98d2fbec4ed77" target="_top" xlink:title=" ">
<polygon fill="white" stroke="black" points="331,-279 331,-320 456,-320 456,-279 331,-279"/>
<text text-anchor="start" x="339" y="-308" font-family="Helvetica,sans-Serif" font-size="10.00">automaton::core::network</text>
<text text-anchor="start" x="339" y="-297" font-family="Helvetica,sans-Serif" font-size="10.00">::simulated_connection</text>
<text text-anchor="middle" x="393.5" y="-286" font-family="Helvetica,sans-Serif" font-size="10.00">::get_lag</text>
</a>
</g>
</g>
<!-- Node4&#45;&gt;Node5 -->
<g id="edge4" class="edge">
<title>Node4&#45;&gt;Node5</title>
<path fill="none" stroke="midnightblue" d="M282.32,-338.85C296.12,-333.92 310.97,-328.62 325.16,-323.55"/>
<polygon fill="midnightblue" stroke="midnightblue" points="326.62,-326.74 334.86,-320.08 324.27,-320.15 326.62,-326.74"/>
</g>
<!-- Node6 -->
<g id="node6" class="node">
<title>Node6</title>
<g id="a_node6"><a xlink:href="../../db/dd7/classautomaton_1_1core_1_1network_1_1simulated__connection.html#a28dcbba8b41af6af145287d29a78777c" target="_top" xlink:title=" ">
<polygon fill="white" stroke="black" points="331,-437 331,-478 456,-478 456,-437 331,-437"/>
<text text-anchor="start" x="339" y="-466" font-family="Helvetica,sans-Serif" font-size="10.00">automaton::core::network</text>
<text text-anchor="start" x="339" y="-455" font-family="Helvetica,sans-Serif" font-size="10.00">::simulated_connection</text>
<text text-anchor="middle" x="393.5" y="-444" font-family="Helvetica,sans-Serif" font-size="10.00">::get_time_stamp</text>
</a>
</g>
</g>
<!-- Node4&#45;&gt;Node6 -->
<g id="edge7" class="edge">
<title>Node4&#45;&gt;Node6</title>
<path fill="none" stroke="midnightblue" d="M254.69,-380.27C273.68,-393.01 298.88,-409.35 322,-422.5 327.83,-425.81 334.01,-429.14 340.19,-432.36"/>
<polygon fill="midnightblue" stroke="midnightblue" points="338.72,-435.54 349.22,-436.98 341.91,-429.31 338.72,-435.54"/>
</g>
<!-- Node7 -->
<g id="node7" class="node">
<title>Node7</title>
<g id="a_node7"><a xlink:href="../../d7/ded/classautomaton_1_1core_1_1network_1_1simulation.html#abac703be4668bd6ebf00deff3c310f2e" target="_top" xlink:title=" ">
<polygon fill="white" stroke="black" points="322,-155.5 322,-185.5 465,-185.5 465,-155.5 322,-155.5"/>
<text text-anchor="start" x="330" y="-173.5" font-family="Helvetica,sans-Serif" font-size="10.00">automaton::core::network</text>
<text text-anchor="middle" x="393.5" y="-162.5" font-family="Helvetica,sans-Serif" font-size="10.00">::simulation::handle_message</text>
</a>
</g>
</g>
<!-- Node4&#45;&gt;Node7 -->
<g id="edge8" class="edge">
<title>Node4&#45;&gt;Node7</title>
<path fill="none" stroke="midnightblue" d="M239.41,-338.68C268.42,-302.76 332.72,-230.13 368.06,-193.07"/>
<polygon fill="midnightblue" stroke="midnightblue" points="370.72,-195.35 375.14,-185.72 365.68,-190.49 370.72,-195.35"/>
</g>
<!-- Node14 -->
<g id="node14" class="node">
<title>Node14</title>
<g id="a_node14"><a xlink:href="../../db/dd7/classautomaton_1_1core_1_1network_1_1simulated__connection.html#a075954c04ab281ccb09b6243adc946f1" target="_top" xlink:title=" ">
<polygon fill="white" stroke="black" points="331,-339 331,-380 456,-380 456,-339 331,-339"/>
<text text-anchor="start" x="339" y="-368" font-family="Helvetica,sans-Serif" font-size="10.00">automaton::core::network</text>
<text text-anchor="start" x="339" y="-357" font-family="Helvetica,sans-Serif" font-size="10.00">::simulated_connection</text>
<text text-anchor="middle" x="393.5" y="-346" font-family="Helvetica,sans-Serif" font-size="10.00">::set_time_stamp</text>
</a>
</g>
</g>
<!-- Node4&#45;&gt;Node14 -->
<g id="edge22" class="edge">
<title>Node4&#45;&gt;Node14</title>
<path fill="none" stroke="midnightblue" d="M286.1,-359.5C297.4,-359.5 309.28,-359.5 320.85,-359.5"/>
<polygon fill="midnightblue" stroke="midnightblue" points="320.9,-363 330.9,-359.5 320.9,-356 320.9,-363"/>
</g>
<!-- Node7&#45;&gt;Node2 -->
<g id="edge11" class="edge">
<title>Node7&#45;&gt;Node2</title>
<path fill="none" stroke="midnightblue" d="M465.13,-176.72C511.63,-182.12 573.41,-191.78 626,-208.5 652.69,-216.98 681.05,-230.87 702.42,-242.44"/>
<polygon fill="midnightblue" stroke="midnightblue" points="700.98,-245.64 711.42,-247.4 704.35,-239.51 700.98,-245.64"/>
</g>
<!-- Node7&#45;&gt;Node4 -->
<g id="edge21" class="edge">
<title>Node7&#45;&gt;Node4</title>
<path fill="none" stroke="midnightblue" d="M381.87,-185.97C356.62,-217.99 292.33,-290.91 254.19,-331.39"/>
<polygon fill="midnightblue" stroke="midnightblue" points="251.51,-329.14 247.16,-338.8 256.58,-333.96 251.51,-329.14"/>
</g>
<!-- Node8 -->
<g id="node8" class="node">
<title>Node8</title>
<g id="a_node8"><a xlink:href="../../d7/ded/classautomaton_1_1core_1_1network_1_1simulation.html#a05ab8136b235c876c4f4176debd962df" target="_top" xlink:title=" ">
<polygon fill="white" stroke="black" points="675.5,-147.5 675.5,-177.5 800.5,-177.5 800.5,-147.5 675.5,-147.5"/>
<text text-anchor="start" x="683.5" y="-165.5" font-family="Helvetica,sans-Serif" font-size="10.00">automaton::core::network</text>
<text text-anchor="middle" x="738" y="-154.5" font-family="Helvetica,sans-Serif" font-size="10.00">::simulation::add_task</text>
</a>
</g>
</g>
<!-- Node7&#45;&gt;Node8 -->
<g id="edge9" class="edge">
<title>Node7&#45;&gt;Node8</title>
<path fill="none" stroke="midnightblue" d="M465.05,-168.85C523.52,-167.49 606.28,-165.55 665.11,-164.18"/>
<polygon fill="midnightblue" stroke="midnightblue" points="665.52,-167.67 675.44,-163.94 665.36,-160.67 665.52,-167.67"/>
</g>
<!-- Node9 -->
<g id="node9" class="node">
<title>Node9</title>
<g id="a_node9"><a xlink:href="../../d7/ded/classautomaton_1_1core_1_1network_1_1simulation.html#a8df9259f277318e270877ed98f4be2e1" target="_top" xlink:title=" ">
<polygon fill="white" stroke="black" points="670,-98.5 670,-128.5 806,-128.5 806,-98.5 670,-98.5"/>
<text text-anchor="start" x="678" y="-116.5" font-family="Helvetica,sans-Serif" font-size="10.00">automaton::core::network</text>
<text text-anchor="middle" x="738" y="-105.5" font-family="Helvetica,sans-Serif" font-size="10.00">::simulation::get_connection</text>
</a>
</g>
</g>
<!-- Node7&#45;&gt;Node9 -->
<g id="edge10" class="edge">
<title>Node7&#45;&gt;Node9</title>
<path fill="none" stroke="midnightblue" d="M465.05,-158.76C521.79,-149.32 601.4,-136.07 659.83,-126.34"/>
<polygon fill="midnightblue" stroke="midnightblue" points="660.46,-129.79 669.75,-124.69 659.31,-122.88 660.46,-129.79"/>
</g>
<!-- Node10 -->
<g id="node10" class="node">
<title>Node10</title>
<g id="a_node10"><a xlink:href="../../d7/ded/classautomaton_1_1core_1_1network_1_1simulation.html#a6ac8458190dbb7d9291a43c49b574e51" target="_top" xlink:title=" ">
<polygon fill="white" stroke="black" points="675.5,-0.5 675.5,-30.5 800.5,-30.5 800.5,-0.5 675.5,-0.5"/>
<text text-anchor="start" x="683.5" y="-18.5" font-family="Helvetica,sans-Serif" font-size="10.00">automaton::core::network</text>
<text text-anchor="middle" x="738" y="-7.5" font-family="Helvetica,sans-Serif" font-size="10.00">::simulation::get_time</text>
</a>
</g>
</g>
<!-- Node7&#45;&gt;Node10 -->
<g id="edge12" class="edge">
<title>Node7&#45;&gt;Node10</title>
<path fill="none" stroke="midnightblue" d="M402.3,-155.29C417.28,-127.85 452.88,-70.52 501,-44.5 551.26,-17.33 616.15,-11.06 665.17,-11.03"/>
<polygon fill="midnightblue" stroke="midnightblue" points="665.35,-14.54 675.38,-11.12 665.41,-7.54 665.35,-14.54"/>
</g>
<!-- Node11 -->
<g id="node11" class="node">
<title>Node11</title>
<g id="a_node11"><a xlink:href="../../d7/ded/classautomaton_1_1core_1_1network_1_1simulation.html#af15311fe128c1b858287e14251a01cf9" target="_top" xlink:title=" ">
<polygon fill="white" stroke="black" points="501,-54.5 501,-84.5 626,-84.5 626,-54.5 501,-54.5"/>
<text text-anchor="start" x="509" y="-72.5" font-family="Helvetica,sans-Serif" font-size="10.00">automaton::core::network</text>
<text text-anchor="middle" x="563.5" y="-61.5" font-family="Helvetica,sans-Serif" font-size="10.00">::simulation::handle_ack</text>
</a>
</g>
</g>
<!-- Node7&#45;&gt;Node11 -->
<g id="edge13" class="edge">
<title>Node7&#45;&gt;Node11</title>
<path fill="none" stroke="midnightblue" d="M415.58,-155.22C436.69,-140.21 470.35,-117.08 501,-99.5 507.09,-96 513.65,-92.52 520.14,-89.24"/>
<polygon fill="midnightblue" stroke="midnightblue" points="522.12,-92.16 529.52,-84.58 519.01,-85.89 522.12,-92.16"/>
</g>
<!-- Node13 -->
<g id="node13" class="node">
<title>Node13</title>
<g id="a_node13"><a xlink:href="../../db/dd7/classautomaton_1_1core_1_1network_1_1simulated__connection.html#a74f89bae76a2fdc9b359c6e86828c96d" target="_top" xlink:title=" ">
<polygon fill="white" stroke="black" points="501,-218 501,-259 626,-259 626,-218 501,-218"/>
<text text-anchor="start" x="509" y="-247" font-family="Helvetica,sans-Serif" font-size="10.00">automaton::core::network</text>
<text text-anchor="start" x="509" y="-236" font-family="Helvetica,sans-Serif" font-size="10.00">::simulated_connection</text>
<text text-anchor="middle" x="563.5" y="-225" font-family="Helvetica,sans-Serif" font-size="10.00">::handle_read</text>
</a>
</g>
</g>
<!-- Node7&#45;&gt;Node13 -->
<g id="edge18" class="edge">
<title>Node7&#45;&gt;Node13</title>
<path fill="none" stroke="midnightblue" d="M431.78,-185.59C452.43,-193.95 478.6,-204.54 502.09,-214.05"/>
<polygon fill="midnightblue" stroke="midnightblue" points="501.04,-217.4 511.62,-217.91 503.66,-210.91 501.04,-217.4"/>
</g>
<!-- Node11&#45;&gt;Node8 -->
<g id="edge15" class="edge">
<title>Node11&#45;&gt;Node8</title>
<path fill="none" stroke="midnightblue" d="M582.12,-84.51C600.88,-99.85 631.94,-123.5 662,-138.5 665.72,-140.35 669.61,-142.11 673.58,-143.75"/>
<polygon fill="midnightblue" stroke="midnightblue" points="672.35,-147.03 682.94,-147.41 674.9,-140.51 672.35,-147.03"/>
</g>
<!-- Node11&#45;&gt;Node9 -->
<g id="edge16" class="edge">
<title>Node11&#45;&gt;Node9</title>
<path fill="none" stroke="midnightblue" d="M623.38,-84.52C637.74,-88.18 653.22,-92.13 667.99,-95.9"/>
<polygon fill="midnightblue" stroke="midnightblue" points="667.54,-99.39 678.09,-98.47 669.27,-92.61 667.54,-99.39"/>
</g>
<!-- Node11&#45;&gt;Node10 -->
<g id="edge17" class="edge">
<title>Node11&#45;&gt;Node10</title>
<path fill="none" stroke="midnightblue" d="M612.55,-54.46C633.21,-47.99 657.54,-40.37 679.18,-33.6"/>
<polygon fill="midnightblue" stroke="midnightblue" points="680.41,-36.88 688.91,-30.55 678.32,-30.2 680.41,-36.88"/>
</g>
<!-- Node12 -->
<g id="node12" class="node">
<title>Node12</title>
<g id="a_node12"><a xlink:href="../../d7/ded/classautomaton_1_1core_1_1network_1_1simulation.html#a2fd9860eee7ca8e52875ccfa65c0e978" target="_top" xlink:title=" ">
<polygon fill="white" stroke="black" points="662,-49.5 662,-79.5 814,-79.5 814,-49.5 662,-49.5"/>
<text text-anchor="start" x="670" y="-67.5" font-family="Helvetica,sans-Serif" font-size="10.00">automaton::core::network</text>
<text text-anchor="middle" x="738" y="-56.5" font-family="Helvetica,sans-Serif" font-size="10.00">::simulation::add_handlers_task</text>
</a>
</g>
</g>
<!-- Node11&#45;&gt;Node12 -->
<g id="edge14" class="edge">
<title>Node11&#45;&gt;Node12</title>
<path fill="none" stroke="midnightblue" d="M626.29,-67.71C634.56,-67.47 643.15,-67.22 651.74,-66.97"/>
<polygon fill="midnightblue" stroke="midnightblue" points="651.89,-70.47 661.78,-66.68 651.69,-63.47 651.89,-70.47"/>
</g>
<!-- Node13&#45;&gt;Node2 -->
<g id="edge19" class="edge">
<title>Node13&#45;&gt;Node2</title>
<path fill="none" stroke="midnightblue" d="M626.29,-247.1C638.49,-248.79 651.41,-250.59 663.95,-252.34"/>
<polygon fill="midnightblue" stroke="midnightblue" points="663.51,-255.81 673.9,-253.72 664.48,-248.88 663.51,-255.81"/>
</g>
<!-- Node13&#45;&gt;Node3 -->
<g id="edge20" class="edge">
<title>Node13&#45;&gt;Node3</title>
<path fill="none" stroke="midnightblue" d="M577.75,-259.08C608.17,-306.34 683.07,-422.72 718.22,-477.32"/>
<polygon fill="midnightblue" stroke="midnightblue" points="715.35,-479.33 723.71,-485.85 721.24,-475.54 715.35,-479.33"/>
</g>
</g>
</svg>
        <g id="navigator" transform="translate(0 0)" fill="#404254">
                <rect fill="#f2f5e9" fill-opacity="0.5" stroke="#606060" stroke-width=".5" x="0" y="0" width="60" height="60"/>
                <use id="zoomplus" xlink:href="#zoomPlus" x="17" y="9" onmousedown="handleZoom(evt,'in')"/>
                <use id="zoomminus" xlink:href="#zoomMin" x="42" y="9" onmousedown="handleZoom(evt,'out')"/>
                <use id="reset" xlink:href="#resetDef" x="30" y="36" onmousedown="handleReset()"/>
                <g id="arrowUp" xlink:href="#dirArrow" transform="translate(30 24)" onmousedown="handlePan(0,-1)">
                  <use xlink:href="#rim" fill="#404040">
                        <set attributeName="fill" to="#808080" begin="arrowUp.mouseover" end="arrowUp.mouseout"/>
                  </use>
                  <path fill="none" stroke="white" stroke-width="1.5" d="M0,-3.0v7 M-2.5,-0.5L0,-3.0L2.5,-0.5"/>
                </g>
                <g id="arrowRight" xlink:href="#dirArrow" transform="rotate(90) translate(36 -43)" onmousedown="handlePan(1,0)">
                  <use xlink:href="#rim" fill="#404040">
                        <set attributeName="fill" to="#808080" begin="arrowRight.mouseover" end="arrowRight.mouseout"/>
                  </use>
                  <path fill="none" stroke="white" stroke-width="1.5" d="M0,-3.0v7 M-2.5,-0.5L0,-3.0L2.5,-0.5"/>
                </g>
                <g id="arrowDown" xlink:href="#dirArrow" transform="rotate(180) translate(-30 -48)" onmousedown="handlePan(0,1)">
                  <use xlink:href="#rim" fill="#404040">
                        <set attributeName="fill" to="#808080" begin="arrowDown.mouseover" end="arrowDown.mouseout"/>
                  </use>
                  <path fill="none" stroke="white" stroke-width="1.5" d="M0,-3.0v7 M-2.5,-0.5L0,-3.0L2.5,-0.5"/>
                </g>
                <g id="arrowLeft" xlink:href="#dirArrow" transform="rotate(270) translate(-36 17)" onmousedown="handlePan(-1,0)">
                  <use xlink:href="#rim" fill="#404040">
                        <set attributeName="fill" to="#808080" begin="arrowLeft.mouseover" end="arrowLeft.mouseout"/>
                  </use>
                  <path fill="none" stroke="white" stroke-width="1.5" d="M0,-3.0v7 M-2.5,-0.5L0,-3.0L2.5,-0.5"/>
                </g>
        </g>
        <svg viewBox="0 0 15 15" width="100%" height="30px" preserveAspectRatio="xMaxYMin meet">
         <g id="arrow_out" transform="scale(0.3 0.3)">
          <a xlink:href="classautomaton_1_1core_1_1network_1_1simulated__connection_a820ba31e256235c99d7e4aba79ecfcbe_cgraph_org.svg" target="_base">
           <rect id="button" ry="5" rx="5" y="6" x="6" height="38" width="38"
                fill="#f2f5e9" fill-opacity="0.5" stroke="#606060" stroke-width="1.0"/>
           <path id="arrow"
             d="M 11.500037,31.436501 C 11.940474,20.09759 22.043105,11.32322 32.158766,21.979434 L 37.068811,17.246167 C 37.068811,17.246167 37.088388,32 37.088388,32 L 22.160133,31.978069 C 22.160133,31.978069 26.997745,27.140456 26.997745,27.140456 C 18.528582,18.264221 13.291696,25.230495 11.500037,31.436501 z"
             style="fill:#404040;"/>
          </a>
         </g>
        </svg>
</svg>
