<?xml version="1.0" encoding="UTF-8" standalone="no"?>
<!DOCTYPE svg PUBLIC "-//W3C//DTD SVG 1.1//EN"
 "http://www.w3.org/Graphics/SVG/1.1/DTD/svg11.dtd">
<!-- Generated by graphviz version 2.44.0 ()
 -->
<!-- Title: automaton::core::network::simulated_connection::connect Pages: 1 -->
<!--zoomable 370 -->
<svg id="main" version="1.1" xmlns="http://www.w3.org/2000/svg" xmlns:xlink="http://www.w3.org/1999/xlink" xml:space="preserve" onload="init(evt)">
<style type="text/css"><![CDATA[
.edge:hover path { stroke: red; }
.edge:hover polygon { stroke: red; fill: red; }
]]></style>
<script type="text/javascript"><![CDATA[
var edges = document.getElementsByTagName('g');
if (edges && edges.length) {
  for (var i=0;i<edges.length;i++) {
    if (edges[i].id.substr(0,4)=='edge') {
      edges[i].setAttribute('class','edge');
    }
  }
}
]]></script>
        <defs>
                <circle id="rim" cx="0" cy="0" r="7"/>
                <circle id="rim2" cx="0" cy="0" r="3.5"/>
                <g id="zoomPlus">
                        <use xlink:href="#rim" fill="#404040">
                                <set attributeName="fill" to="#808080" begin="zoomplus.mouseover" end="zoomplus.mouseout"/>
                        </use>
                        <path d="M-4,0h8M0,-4v8" fill="none" stroke="white" stroke-width="1.5" pointer-events="none"/>
                </g>
                <g id="zoomMin">
                        <use xlink:href="#rim" fill="#404040">
                                <set attributeName="fill" to="#808080" begin="zoomminus.mouseover" end="zoomminus.mouseout"/>
                        </use>
                        <path d="M-4,0h8" fill="none" stroke="white" stroke-width="1.5" pointer-events="none"/>
                </g>
                <g id="dirArrow">
                        <path fill="none" stroke="white" stroke-width="1.5" d="M0,-3.0v7 M-2.5,-0.5L0,-3.0L2.5,-0.5"/>
                </g>
               <g id="resetDef">
                       <use xlink:href="#rim2" fill="#404040">
                               <set attributeName="fill" to="#808080" begin="reset.mouseover" end="reset.mouseout"/>
                       </use>
               </g>
        </defs>

<script type="text/javascript">
var viewWidth = 667;
var viewHeight = 370;
var sectionId = 'dynsection-5';
</script>
<script xlink:href="../../svgpan.js"/>
<svg id="graph" class="graph">
<g id="viewport">
<title>automaton::core::network::simulated_connection::connect</title>
<polygon fill="white" stroke="transparent" points="-4,4 -4,-365.56 663,-365.56 663,4 -4,4"/>
<!-- Node1 -->
<g id="node1" class="node">
<title>Node1</title>
<g id="a_node1"><a xlink:title=" ">
<polygon fill="#bfbfbf" stroke="black" points="0,-174.56 0,-215.56 125,-215.56 125,-174.56 0,-174.56"/>
<text text-anchor="start" x="8" y="-203.56" font-family="Helvetica,sans-Serif" font-size="10.00">automaton::core::network</text>
<text text-anchor="start" x="8" y="-192.56" font-family="Helvetica,sans-Serif" font-size="10.00">::simulated_connection</text>
<text text-anchor="middle" x="62.5" y="-181.56" font-family="Helvetica,sans-Serif" font-size="10.00">::connect</text>
</a>
</g>
</g>
<!-- Node2 -->
<g id="node2" class="node">
<title>Node2</title>
<g id="a_node2"><a xlink:href="../../db/dd7/classautomaton_1_1core_1_1network_1_1simulated__connection.html#a22ee9f2889b620302bd98d2fbec4ed77" target="_top" xlink:title=" ">
<polygon fill="white" stroke="black" points="166.5,-267.56 166.5,-308.56 291.5,-308.56 291.5,-267.56 166.5,-267.56"/>
<text text-anchor="start" x="174.5" y="-296.56" font-family="Helvetica,sans-Serif" font-size="10.00">automaton::core::network</text>
<text text-anchor="start" x="174.5" y="-285.56" font-family="Helvetica,sans-Serif" font-size="10.00">::simulated_connection</text>
<text text-anchor="middle" x="229" y="-274.56" font-family="Helvetica,sans-Serif" font-size="10.00">::get_lag</text>
</a>
</g>
</g>
<!-- Node1&#45;&gt;Node2 -->
<g id="edge1" class="edge">
<title>Node1&#45;&gt;Node2</title>
<path fill="none" stroke="midnightblue" d="M97.08,-215.66C115.75,-226.95 139.5,-241.06 161,-253.06 166.64,-256.21 172.59,-259.44 178.52,-262.61"/>
<polygon fill="midnightblue" stroke="midnightblue" points="177.3,-265.92 187.77,-267.51 180.57,-259.73 177.3,-265.92"/>
</g>
<!-- Node3 -->
<g id="node3" class="node">
<title>Node3</title>
<g id="a_node3"><a xlink:href="../../d7/ded/classautomaton_1_1core_1_1network_1_1simulation.html#ad00c2b3b98e9eb6b251f39549d46baf4" target="_top" xlink:title=" ">
<polygon fill="white" stroke="black" points="338,-331.06 338,-361.06 466,-361.06 466,-331.06 338,-331.06"/>
<text text-anchor="start" x="346" y="-349.06" font-family="Helvetica,sans-Serif" font-size="10.00">automaton::core::network</text>
<text text-anchor="middle" x="402" y="-338.06" font-family="Helvetica,sans-Serif" font-size="10.00">::simulation::get_simulator</text>
</a>
</g>
</g>
<!-- Node1&#45;&gt;Node3 -->
<g id="edge2" class="edge">
<title>Node1&#45;&gt;Node3</title>
<path fill="none" stroke="midnightblue" d="M125.08,-211.2C193,-229.06 293.27,-255.68 297,-258.06 318,-271.48 314.41,-284.45 333,-301.06 343,-309.99 354.9,-318.47 365.93,-325.61"/>
<polygon fill="midnightblue" stroke="midnightblue" points="364.22,-328.67 374.54,-331.04 367.95,-322.75 364.22,-328.67"/>
</g>
<!-- Node4 -->
<g id="node4" class="node">
<title>Node4</title>
<g id="a_node4"><a xlink:href="../../db/dd7/classautomaton_1_1core_1_1network_1_1simulated__connection.html#a28dcbba8b41af6af145287d29a78777c" target="_top" xlink:title=" ">
<polygon fill="white" stroke="black" points="166.5,-120.56 166.5,-161.56 291.5,-161.56 291.5,-120.56 166.5,-120.56"/>
<text text-anchor="start" x="174.5" y="-149.56" font-family="Helvetica,sans-Serif" font-size="10.00">automaton::core::network</text>
<text text-anchor="start" x="174.5" y="-138.56" font-family="Helvetica,sans-Serif" font-size="10.00">::simulated_connection</text>
<text text-anchor="middle" x="229" y="-127.56" font-family="Helvetica,sans-Serif" font-size="10.00">::get_time_stamp</text>
</a>
</g>
</g>
<!-- Node1&#45;&gt;Node4 -->
<g id="edge3" class="edge">
<title>Node1&#45;&gt;Node4</title>
<path fill="none" stroke="midnightblue" d="M125.22,-174.8C135.55,-171.41 146.34,-167.87 156.89,-164.41"/>
<polygon fill="midnightblue" stroke="midnightblue" points="158.07,-167.7 166.48,-161.26 155.89,-161.05 158.07,-167.7"/>
</g>
<!-- Node5 -->
<g id="node5" class="node">
<title>Node5</title>
<g id="a_node5"><a xlink:href="../../d7/ded/classautomaton_1_1core_1_1network_1_1simulation.html#a5e20734a31d56e5dd9e180274df3d1d8" target="_top" xlink:title=" ">
<polygon fill="white" stroke="black" points="161,-180.06 161,-210.06 297,-210.06 297,-180.06 161,-180.06"/>
<text text-anchor="start" x="169" y="-198.06" font-family="Helvetica,sans-Serif" font-size="10.00">automaton::core::network</text>
<text text-anchor="middle" x="229" y="-187.06" font-family="Helvetica,sans-Serif" font-size="10.00">::simulation::handle_request</text>
</a>
</g>
</g>
<!-- Node1&#45;&gt;Node5 -->
<g id="edge4" class="edge">
<title>Node1&#45;&gt;Node5</title>
<path fill="none" stroke="midnightblue" d="M125.22,-195.06C133.61,-195.06 142.3,-195.06 150.92,-195.06"/>
<polygon fill="midnightblue" stroke="midnightblue" points="150.97,-198.56 160.97,-195.06 150.97,-191.56 150.97,-198.56"/>
</g>
<!-- Node14 -->
<g id="node14" class="node">
<title>Node14</title>
<g id="a_node14"><a xlink:href="../../db/dd7/classautomaton_1_1core_1_1network_1_1simulated__connection.html#a075954c04ab281ccb09b6243adc946f1" target="_top" xlink:title=" ">
<polygon fill="white" stroke="black" points="166.5,-60.56 166.5,-101.56 291.5,-101.56 291.5,-60.56 166.5,-60.56"/>
<text text-anchor="start" x="174.5" y="-89.56" font-family="Helvetica,sans-Serif" font-size="10.00">automaton::core::network</text>
<text text-anchor="start" x="174.5" y="-78.56" font-family="Helvetica,sans-Serif" font-size="10.00">::simulated_connection</text>
<text text-anchor="middle" x="229" y="-67.56" font-family="Helvetica,sans-Serif" font-size="10.00">::set_time_stamp</text>
</a>
</g>
</g>
<!-- Node1&#45;&gt;Node14 -->
<g id="edge22" class="edge">
<title>Node1&#45;&gt;Node14</title>
<path fill="none" stroke="midnightblue" d="M83.77,-174.47C102.58,-156.16 131.96,-129.51 161,-111.06 163.55,-109.44 166.21,-107.86 168.93,-106.33"/>
<polygon fill="midnightblue" stroke="midnightblue" points="170.59,-109.41 177.76,-101.61 167.29,-103.23 170.59,-109.41"/>
</g>
<!-- Node5&#45;&gt;Node3 -->
<g id="edge10" class="edge">
<title>Node5&#45;&gt;Node3</title>
<path fill="none" stroke="midnightblue" d="M276.33,-210.06C283.92,-214.04 291.19,-218.98 297,-225.06 327.07,-256.49 302.85,-284.72 333,-316.06 336.54,-319.74 340.62,-323.01 344.97,-325.89"/>
<polygon fill="midnightblue" stroke="midnightblue" points="343.24,-328.93 353.64,-330.98 346.79,-322.89 343.24,-328.93"/>
</g>
<!-- Node6 -->
<g id="node6" class="node">
<title>Node6</title>
<g id="a_node6"><a xlink:href="../../d7/ded/classautomaton_1_1core_1_1network_1_1simulation.html#a7d2359981ca36bde9b728fe02ecbc01d" target="_top" xlink:title=" ">
<polygon fill="white" stroke="black" points="333,-156.06 333,-186.06 471,-186.06 471,-156.06 333,-156.06"/>
<text text-anchor="start" x="341" y="-174.06" font-family="Helvetica,sans-Serif" font-size="10.00">automaton::core::network</text>
<text text-anchor="middle" x="402" y="-163.06" font-family="Helvetica,sans-Serif" font-size="10.00">::simulation::add_connection</text>
</a>
</g>
</g>
<!-- Node5&#45;&gt;Node6 -->
<g id="edge5" class="edge">
<title>Node5&#45;&gt;Node6</title>
<path fill="none" stroke="midnightblue" d="M297.09,-185.64C305.57,-184.46 314.29,-183.23 322.92,-182.02"/>
<polygon fill="midnightblue" stroke="midnightblue" points="323.56,-185.46 332.98,-180.61 322.59,-178.53 323.56,-185.46"/>
</g>
<!-- Node7 -->
<g id="node7" class="node">
<title>Node7</title>
<g id="a_node7"><a xlink:href="../../d7/ded/classautomaton_1_1core_1_1network_1_1simulation.html#a2fd9860eee7ca8e52875ccfa65c0e978" target="_top" xlink:title=" ">
<polygon fill="white" stroke="black" points="507,-58.06 507,-88.06 659,-88.06 659,-58.06 507,-58.06"/>
<text text-anchor="start" x="515" y="-76.06" font-family="Helvetica,sans-Serif" font-size="10.00">automaton::core::network</text>
<text text-anchor="middle" x="583" y="-65.06" font-family="Helvetica,sans-Serif" font-size="10.00">::simulation::add_handlers_task</text>
</a>
</g>
</g>
<!-- Node5&#45;&gt;Node7 -->
<g id="edge6" class="edge">
<title>Node5&#45;&gt;Node7</title>
<path fill="none" stroke="midnightblue" d="M286,-179.92C290.04,-177.41 293.78,-174.48 297,-171.06 336.07,-129.61 287.42,-82.22 333,-48.06 360.43,-27.51 448.66,-41.79 512.31,-55.78"/>
<polygon fill="midnightblue" stroke="midnightblue" points="511.78,-59.24 522.3,-58.01 513.31,-52.41 511.78,-59.24"/>
</g>
<!-- Node8 -->
<g id="node8" class="node">
<title>Node8</title>
<g id="a_node8"><a xlink:href="../../d7/ded/classautomaton_1_1core_1_1network_1_1simulation.html#a05ab8136b235c876c4f4176debd962df" target="_top" xlink:title=" ">
<polygon fill="white" stroke="black" points="520.5,-9.06 520.5,-39.06 645.5,-39.06 645.5,-9.06 520.5,-9.06"/>
<text text-anchor="start" x="528.5" y="-27.06" font-family="Helvetica,sans-Serif" font-size="10.00">automaton::core::network</text>
<text text-anchor="middle" x="583" y="-16.06" font-family="Helvetica,sans-Serif" font-size="10.00">::simulation::add_task</text>
</a>
</g>
</g>
<!-- Node5&#45;&gt;Node8 -->
<g id="edge7" class="edge">
<title>Node5&#45;&gt;Node8</title>
<path fill="none" stroke="midnightblue" d="M286.11,-180.02C290.12,-177.48 293.83,-174.52 297,-171.06 339.54,-124.65 283.93,-73.5 333,-34.06 383.95,6.89 461.5,2.98 516.5,-7.09"/>
<polygon fill="midnightblue" stroke="midnightblue" points="516.01,-10.56 526.49,-9.04 517.35,-3.69 516.01,-10.56"/>
</g>
<!-- Node9 -->
<g id="node9" class="node">
<title>Node9</title>
<g id="a_node9"><a xlink:href="../../d7/ded/classautomaton_1_1core_1_1network_1_1simulation.html#a2b13795490aa2cd0006bbeb7f708f142" target="_top" xlink:title=" ">
<polygon fill="white" stroke="black" points="339,-205.06 339,-235.06 465,-235.06 465,-205.06 339,-205.06"/>
<text text-anchor="start" x="347" y="-223.06" font-family="Helvetica,sans-Serif" font-size="10.00">automaton::core::network</text>
<text text-anchor="middle" x="402" y="-212.06" font-family="Helvetica,sans-Serif" font-size="10.00">::simulation::get_acceptor</text>
</a>
</g>
</g>
<!-- Node5&#45;&gt;Node9 -->
<g id="edge8" class="edge">
<title>Node5&#45;&gt;Node9</title>
<path fill="none" stroke="midnightblue" d="M297.09,-204.87C307.52,-206.39 318.32,-207.97 328.85,-209.51"/>
<polygon fill="midnightblue" stroke="midnightblue" points="328.44,-212.99 338.84,-210.97 329.45,-206.06 328.44,-212.99"/>
</g>
<!-- Node10 -->
<g id="node10" class="node">
<title>Node10</title>
<g id="a_node10"><a xlink:href="../../d7/ded/classautomaton_1_1core_1_1network_1_1simulation.html#a8df9259f277318e270877ed98f4be2e1" target="_top" xlink:title=" ">
<polygon fill="white" stroke="black" points="515,-156.06 515,-186.06 651,-186.06 651,-156.06 515,-156.06"/>
<text text-anchor="start" x="523" y="-174.06" font-family="Helvetica,sans-Serif" font-size="10.00">automaton::core::network</text>
<text text-anchor="middle" x="583" y="-163.06" font-family="Helvetica,sans-Serif" font-size="10.00">::simulation::get_connection</text>
</a>
</g>
</g>
<!-- Node5&#45;&gt;Node10 -->
<g id="edge9" class="edge">
<title>Node5&#45;&gt;Node10</title>
<path fill="none" stroke="midnightblue" d="M273.18,-210.14C281.59,-214.21 289.97,-219.17 297,-225.06 318.82,-243.35 307.84,-264.73 333,-278.06 387.2,-306.77 414.12,-301.01 471,-278.06 512.7,-261.23 547.48,-220.41 566.45,-194.33"/>
<polygon fill="midnightblue" stroke="midnightblue" points="569.35,-196.29 572.27,-186.11 563.64,-192.25 569.35,-196.29"/>
</g>
<!-- Node11 -->
<g id="node11" class="node">
<title>Node11</title>
<g id="a_node11"><a xlink:href="../../d7/ded/classautomaton_1_1core_1_1network_1_1simulation.html#a6ac8458190dbb7d9291a43c49b574e51" target="_top" xlink:title=" ">
<polygon fill="white" stroke="black" points="520.5,-107.06 520.5,-137.06 645.5,-137.06 645.5,-107.06 520.5,-107.06"/>
<text text-anchor="start" x="528.5" y="-125.06" font-family="Helvetica,sans-Serif" font-size="10.00">automaton::core::network</text>
<text text-anchor="middle" x="583" y="-114.06" font-family="Helvetica,sans-Serif" font-size="10.00">::simulation::get_time</text>
</a>
</g>
</g>
<!-- Node5&#45;&gt;Node11 -->
<g id="edge11" class="edge">
<title>Node5&#45;&gt;Node11</title>
<path fill="none" stroke="midnightblue" d="M265.04,-210.07C275.42,-214.7 286.74,-219.93 297,-225.06 313.37,-233.25 315.28,-240.47 333,-245.06 392.37,-260.45 420.76,-280.25 471,-245.06 509.35,-218.2 473.25,-178.51 507,-146.06 508.48,-144.64 510.04,-143.3 511.67,-142.04"/>
<polygon fill="midnightblue" stroke="midnightblue" points="513.88,-144.79 520.34,-136.39 510.05,-138.92 513.88,-144.79"/>
</g>
<!-- Node12 -->
<g id="node12" class="node">
<title>Node12</title>
<g id="a_node12"><a xlink:href="../../d7/ded/classautomaton_1_1core_1_1network_1_1simulation.html#a9e6d08f2e6a8c78b10654cb18df20608" target="_top" xlink:title=" ">
<polygon fill="white" stroke="black" points="335.5,-58.06 335.5,-88.06 468.5,-88.06 468.5,-58.06 335.5,-58.06"/>
<text text-anchor="start" x="343.5" y="-76.06" font-family="Helvetica,sans-Serif" font-size="10.00">automaton::core::network</text>
<text text-anchor="middle" x="402" y="-65.06" font-family="Helvetica,sans-Serif" font-size="10.00">::simulation::handle_accept</text>
</a>
</g>
</g>
<!-- Node5&#45;&gt;Node12 -->
<g id="edge12" class="edge">
<title>Node5&#45;&gt;Node12</title>
<path fill="none" stroke="midnightblue" d="M284.08,-180.05C288.74,-177.5 293.14,-174.53 297,-171.06 324.23,-146.64 305.71,-121.41 333,-97.06 334.32,-95.89 335.69,-94.77 337.12,-93.7"/>
<polygon fill="midnightblue" stroke="midnightblue" points="339.23,-96.51 345.78,-88.18 335.46,-90.61 339.23,-96.51"/>
</g>
<!-- Node13 -->
<g id="node13" class="node">
<title>Node13</title>
<g id="a_node13"><a xlink:href="../../d7/ded/classautomaton_1_1core_1_1network_1_1simulation.html#aa2a32232ba35a9a200d072d4bd34e326" target="_top" xlink:title=" ">
<polygon fill="white" stroke="black" points="336.5,-107.06 336.5,-137.06 467.5,-137.06 467.5,-107.06 336.5,-107.06"/>
<text text-anchor="start" x="344.5" y="-125.06" font-family="Helvetica,sans-Serif" font-size="10.00">automaton::core::network</text>
<text text-anchor="middle" x="402" y="-114.06" font-family="Helvetica,sans-Serif" font-size="10.00">::simulation::handle_refuse</text>
</a>
</g>
</g>
<!-- Node5&#45;&gt;Node13 -->
<g id="edge17" class="edge">
<title>Node5&#45;&gt;Node13</title>
<path fill="none" stroke="midnightblue" d="M277.16,-179.94C283.94,-177.26 290.74,-174.28 297,-171.06 314.32,-162.14 315.66,-154.94 333,-146.06 336.47,-144.28 340.11,-142.58 343.82,-140.97"/>
<polygon fill="midnightblue" stroke="midnightblue" points="345.22,-144.17 353.13,-137.13 342.55,-137.7 345.22,-144.17"/>
</g>
<!-- Node12&#45;&gt;Node7 -->
<g id="edge13" class="edge">
<title>Node12&#45;&gt;Node7</title>
<path fill="none" stroke="midnightblue" d="M468.64,-73.06C477.8,-73.06 487.31,-73.06 496.77,-73.06"/>
<polygon fill="midnightblue" stroke="midnightblue" points="496.99,-76.56 506.99,-73.06 496.99,-69.56 496.99,-76.56"/>
</g>
<!-- Node12&#45;&gt;Node8 -->
<g id="edge14" class="edge">
<title>Node12&#45;&gt;Node8</title>
<path fill="none" stroke="midnightblue" d="M458.17,-57.96C476.88,-52.84 497.96,-47.07 517.35,-41.76"/>
<polygon fill="midnightblue" stroke="midnightblue" points="518.29,-45.13 527.02,-39.11 516.45,-38.38 518.29,-45.13"/>
</g>
<!-- Node12&#45;&gt;Node10 -->
<g id="edge15" class="edge">
<title>Node12&#45;&gt;Node10</title>
<path fill="none" stroke="midnightblue" d="M455.87,-88.09C461.22,-90.66 466.37,-93.63 471,-97.06 492.7,-113.16 485.16,-130.15 507,-146.06 509.66,-148 512.49,-149.8 515.41,-151.46"/>
<polygon fill="midnightblue" stroke="midnightblue" points="513.97,-154.65 524.47,-156.05 517.13,-148.4 513.97,-154.65"/>
</g>
<!-- Node12&#45;&gt;Node11 -->
<g id="edge16" class="edge">
<title>Node12&#45;&gt;Node11</title>
<path fill="none" stroke="midnightblue" d="M458.17,-88.16C476.88,-93.29 497.96,-99.06 517.35,-104.36"/>
<polygon fill="midnightblue" stroke="midnightblue" points="516.45,-107.74 527.02,-107.01 518.29,-100.99 516.45,-107.74"/>
</g>
<!-- Node13&#45;&gt;Node7 -->
<g id="edge18" class="edge">
<title>Node13&#45;&gt;Node7</title>
<path fill="none" stroke="midnightblue" d="M458.17,-106.96C476.88,-101.84 497.96,-96.07 517.35,-90.76"/>
<polygon fill="midnightblue" stroke="midnightblue" points="518.29,-94.13 527.02,-88.11 516.45,-87.38 518.29,-94.13"/>
</g>
<!-- Node13&#45;&gt;Node8 -->
<g id="edge19" class="edge">
<title>Node13&#45;&gt;Node8</title>
<path fill="none" stroke="midnightblue" d="M454.12,-107.06C460.09,-104.23 465.87,-100.92 471,-97.06 492.6,-80.82 485.06,-63.84 507,-48.06 509.09,-46.56 511.27,-45.15 513.53,-43.82"/>
<polygon fill="midnightblue" stroke="midnightblue" points="515.3,-46.85 522.55,-39.13 512.06,-40.64 515.3,-46.85"/>
</g>
<!-- Node13&#45;&gt;Node10 -->
<g id="edge20" class="edge">
<title>Node13&#45;&gt;Node10</title>
<path fill="none" stroke="midnightblue" d="M458.17,-137.16C476.88,-142.29 497.96,-148.06 517.35,-153.36"/>
<polygon fill="midnightblue" stroke="midnightblue" points="516.45,-156.74 527.02,-156.01 518.29,-149.99 516.45,-156.74"/>
</g>
<!-- Node13&#45;&gt;Node11 -->
<g id="edge21" class="edge">
<title>Node13&#45;&gt;Node11</title>
<path fill="none" stroke="midnightblue" d="M467.62,-122.06C481.48,-122.06 496.21,-122.06 510.32,-122.06"/>
<polygon fill="midnightblue" stroke="midnightblue" points="510.46,-125.56 520.46,-122.06 510.46,-118.56 510.46,-125.56"/>
</g>
</g>
</svg>
        <g id="navigator" transform="translate(0 0)" fill="#404254">
                <rect fill="#f2f5e9" fill-opacity="0.5" stroke="#606060" stroke-width=".5" x="0" y="0" width="60" height="60"/>
                <use id="zoomplus" xlink:href="#zoomPlus" x="17" y="9" onmousedown="handleZoom(evt,'in')"/>
                <use id="zoomminus" xlink:href="#zoomMin" x="42" y="9" onmousedown="handleZoom(evt,'out')"/>
                <use id="reset" xlink:href="#resetDef" x="30" y="36" onmousedown="handleReset()"/>
                <g id="arrowUp" xlink:href="#dirArrow" transform="translate(30 24)" onmousedown="handlePan(0,-1)">
                  <use xlink:href="#rim" fill="#404040">
                        <set attributeName="fill" to="#808080" begin="arrowUp.mouseover" end="arrowUp.mouseout"/>
                  </use>
                  <path fill="none" stroke="white" stroke-width="1.5" d="M0,-3.0v7 M-2.5,-0.5L0,-3.0L2.5,-0.5"/>
                </g>
                <g id="arrowRight" xlink:href="#dirArrow" transform="rotate(90) translate(36 -43)" onmousedown="handlePan(1,0)">
                  <use xlink:href="#rim" fill="#404040">
                        <set attributeName="fill" to="#808080" begin="arrowRight.mouseover" end="arrowRight.mouseout"/>
                  </use>
                  <path fill="none" stroke="white" stroke-width="1.5" d="M0,-3.0v7 M-2.5,-0.5L0,-3.0L2.5,-0.5"/>
                </g>
                <g id="arrowDown" xlink:href="#dirArrow" transform="rotate(180) translate(-30 -48)" onmousedown="handlePan(0,1)">
                  <use xlink:href="#rim" fill="#404040">
                        <set attributeName="fill" to="#808080" begin="arrowDown.mouseover" end="arrowDown.mouseout"/>
                  </use>
                  <path fill="none" stroke="white" stroke-width="1.5" d="M0,-3.0v7 M-2.5,-0.5L0,-3.0L2.5,-0.5"/>
                </g>
                <g id="arrowLeft" xlink:href="#dirArrow" transform="rotate(270) translate(-36 17)" onmousedown="handlePan(-1,0)">
                  <use xlink:href="#rim" fill="#404040">
                        <set attributeName="fill" to="#808080" begin="arrowLeft.mouseover" end="arrowLeft.mouseout"/>
                  </use>
                  <path fill="none" stroke="white" stroke-width="1.5" d="M0,-3.0v7 M-2.5,-0.5L0,-3.0L2.5,-0.5"/>
                </g>
        </g>
        <svg viewBox="0 0 15 15" width="100%" height="30px" preserveAspectRatio="xMaxYMin meet">
         <g id="arrow_out" transform="scale(0.3 0.3)">
          <a xlink:href="classautomaton_1_1core_1_1network_1_1simulated__connection_aa5e9e8e5c65f2479258629e46844e0a4_cgraph_org.svg" target="_base">
           <rect id="button" ry="5" rx="5" y="6" x="6" height="38" width="38"
                fill="#f2f5e9" fill-opacity="0.5" stroke="#606060" stroke-width="1.0"/>
           <path id="arrow"
             d="M 11.500037,31.436501 C 11.940474,20.09759 22.043105,11.32322 32.158766,21.979434 L 37.068811,17.246167 C 37.068811,17.246167 37.088388,32 37.088388,32 L 22.160133,31.978069 C 22.160133,31.978069 26.997745,27.140456 26.997745,27.140456 C 18.528582,18.264221 13.291696,25.230495 11.500037,31.436501 z"
             style="fill:#404040;"/>
          </a>
         </g>
        </svg>
</svg>
