<?xml version="1.0" encoding="UTF-8" standalone="no"?>
<!DOCTYPE svg PUBLIC "-//W3C//DTD SVG 1.1//EN"
 "http://www.w3.org/Graphics/SVG/1.1/DTD/svg11.dtd">
<!-- Generated by graphviz version 2.44.0 ()
 -->
<!-- Title: automaton::core::network::simulated_connection::get_time_stamp Pages: 1 -->
<svg width="473pt" height="170pt"
 viewBox="0.00 0.00 473.00 170.00" xmlns="http://www.w3.org/2000/svg" xmlns:xlink="http://www.w3.org/1999/xlink">
<g id="graph0" class="graph" transform="scale(1 1) rotate(0) translate(4 166)">
<title>automaton::core::network::simulated_connection::get_time_stamp</title>
<polygon fill="white" stroke="transparent" points="-4,4 -4,-166 469,-166 469,4 -4,4"/>
<!-- Node1 -->
<g id="node1" class="node">
<title>Node1</title>
<g id="a_node1"><a xlink:title=" ">
<polygon fill="#bfbfbf" stroke="black" points="340,-60.5 340,-101.5 465,-101.5 465,-60.5 340,-60.5"/>
<text text-anchor="start" x="348" y="-89.5" font-family="Helvetica,sans-Serif" font-size="10.00">automaton::core::network</text>
<text text-anchor="start" x="348" y="-78.5" font-family="Helvetica,sans-Serif" font-size="10.00">::simulated_connection</text>
<text text-anchor="middle" x="402.5" y="-67.5" font-family="Helvetica,sans-Serif" font-size="10.00">::get_time_stamp</text>
</a>
</g>
</g>
<!-- Node2 -->
<g id="node2" class="node">
<title>Node2</title>
<g id="a_node2"><a xlink:href="../../db/dd7/classautomaton_1_1core_1_1network_1_1simulated__connection.html#aa5e9e8e5c65f2479258629e46844e0a4" target="_top" xlink:title=" ">
<polygon fill="white" stroke="black" points="179,-120.5 179,-161.5 304,-161.5 304,-120.5 179,-120.5"/>
<text text-anchor="start" x="187" y="-149.5" font-family="Helvetica,sans-Serif" font-size="10.00">automaton::core::network</text>
<text text-anchor="start" x="187" y="-138.5" font-family="Helvetica,sans-Serif" font-size="10.00">::simulated_connection</text>
<text text-anchor="middle" x="241.5" y="-127.5" font-family="Helvetica,sans-Serif" font-size="10.00">::connect</text>
</a>
</g>
</g>
<!-- Node1&#45;&gt;Node2 -->
<g id="edge1" class="edge">
<title>Node1&#45;&gt;Node2</title>
<path fill="none" stroke="midnightblue" d="M337.21,-105.26C323.89,-110.29 309.98,-115.54 297.05,-120.42"/>
<polygon fill="midnightblue" stroke="midnightblue" points="338.66,-108.45 346.78,-101.65 336.19,-101.9 338.66,-108.45"/>
</g>
<!-- Node3 -->
<g id="node3" class="node">
<title>Node3</title>
<g id="a_node3"><a xlink:href="../../db/dd7/classautomaton_1_1core_1_1network_1_1simulated__connection.html#a34e308f58cd58799f4e66b0a19c71cf1" target="_top" xlink:title=" ">
<polygon fill="white" stroke="black" points="179,-60.5 179,-101.5 304,-101.5 304,-60.5 179,-60.5"/>
<text text-anchor="start" x="187" y="-89.5" font-family="Helvetica,sans-Serif" font-size="10.00">automaton::core::network</text>
<text text-anchor="start" x="187" y="-78.5" font-family="Helvetica,sans-Serif" font-size="10.00">::simulated_connection</text>
<text text-anchor="middle" x="241.5" y="-67.5" font-family="Helvetica,sans-Serif" font-size="10.00">::disconnect</text>
</a>
</g>
</g>
<!-- Node1&#45;&gt;Node3 -->
<g id="edge2" class="edge">
<title>Node1&#45;&gt;Node3</title>
<path fill="none" stroke="midnightblue" d="M329.41,-81C321.01,-81 312.5,-81 304.26,-81"/>
<polygon fill="midnightblue" stroke="midnightblue" points="329.57,-84.5 339.57,-81 329.57,-77.5 329.57,-84.5"/>
</g>
<!-- Node4 -->
<g id="node4" class="node">
<title>Node4</title>
<g id="a_node4"><a xlink:href="../../db/dd7/classautomaton_1_1core_1_1network_1_1simulated__connection.html#a6af3ffae84db8b49436c6eb0423d66fb" target="_top" xlink:title=" ">
<polygon fill="white" stroke="black" points="179,-0.5 179,-41.5 304,-41.5 304,-0.5 179,-0.5"/>
<text text-anchor="start" x="187" y="-29.5" font-family="Helvetica,sans-Serif" font-size="10.00">automaton::core::network</text>
<text text-anchor="start" x="187" y="-18.5" font-family="Helvetica,sans-Serif" font-size="10.00">::simulated_connection</text>
<text text-anchor="middle" x="241.5" y="-7.5" font-family="Helvetica,sans-Serif" font-size="10.00">::handle_send</text>
</a>
</g>
</g>
<!-- Node1&#45;&gt;Node4 -->
<g id="edge3" class="edge">
<title>Node1&#45;&gt;Node4</title>
<path fill="none" stroke="midnightblue" d="M337.21,-56.74C323.89,-51.71 309.98,-46.46 297.05,-41.58"/>
<polygon fill="midnightblue" stroke="midnightblue" points="336.19,-60.1 346.78,-60.35 338.66,-53.55 336.19,-60.1"/>
</g>
<!-- Node5 -->
<g id="node5" class="node">
<title>Node5</title>
<g id="a_node5"><a xlink:href="../../db/dd7/classautomaton_1_1core_1_1network_1_1simulated__connection.html#a820ba31e256235c99d7e4aba79ecfcbe" target="_top" xlink:title=" ">
<polygon fill="white" stroke="black" points="9,-54.5 9,-95.5 134,-95.5 134,-54.5 9,-54.5"/>
<text text-anchor="start" x="17" y="-83.5" font-family="Helvetica,sans-Serif" font-size="10.00">automaton::core::network</text>
<text text-anchor="start" x="17" y="-72.5" font-family="Helvetica,sans-Serif" font-size="10.00">::simulated_connection</text>
<text text-anchor="middle" x="71.5" y="-61.5" font-family="Helvetica,sans-Serif" font-size="10.00">::async_send</text>
</a>
</g>
</g>
<!-- Node4&#45;&gt;Node5 -->
<g id="edge4" class="edge">
<title>Node4&#45;&gt;Node5</title>
<path fill="none" stroke="midnightblue" d="M169.19,-43.92C157.52,-47.67 145.51,-51.53 134.1,-55.2"/>
<polygon fill="midnightblue" stroke="midnightblue" points="170.45,-47.19 178.9,-40.8 168.31,-40.53 170.45,-47.19"/>
</g>
<!-- Node6 -->
<g id="node6" class="node">
<title>Node6</title>
<g id="a_node6"><a xlink:href="../../d7/ded/classautomaton_1_1core_1_1network_1_1simulation.html#abac703be4668bd6ebf00deff3c310f2e" target="_top" xlink:title=" ">
<polygon fill="white" stroke="black" points="0,-6 0,-36 143,-36 143,-6 0,-6"/>
<text text-anchor="start" x="8" y="-24" font-family="Helvetica,sans-Serif" font-size="10.00">automaton::core::network</text>
<text text-anchor="middle" x="71.5" y="-13" font-family="Helvetica,sans-Serif" font-size="10.00">::simulation::handle_message</text>
</a>
</g>
</g>
<!-- Node4&#45;&gt;Node6 -->
<g id="edge5" class="edge">
<title>Node4&#45;&gt;Node6</title>
<path fill="none" stroke="midnightblue" d="M168.7,-14.31C160.25,-14.22 151.63,-14.23 143.19,-14.33"/>
<polygon fill="midnightblue" stroke="midnightblue" points="168.85,-17.82 178.9,-14.47 168.95,-10.82 168.85,-17.82"/>
</g>
<!-- Node6&#45;&gt;Node4 -->
<g id="edge6" class="edge">
<title>Node6&#45;&gt;Node4</title>
<path fill="none" stroke="midnightblue" d="M153.27,-27.75C161.89,-27.77 170.55,-27.7 178.9,-27.53"/>
<polygon fill="midnightblue" stroke="midnightblue" points="153.22,-24.25 143.19,-27.67 153.17,-31.25 153.22,-24.25"/>
</g>
</g>
</svg>
