<?xml version="1.0" encoding="UTF-8" standalone="no"?>
<!DOCTYPE svg PUBLIC "-//W3C//DTD SVG 1.1//EN"
 "http://www.w3.org/Graphics/SVG/1.1/DTD/svg11.dtd">
<!-- Generated by graphviz version 2.42.3 ()
 -->
<!-- Title: automaton::core::network::simulated_connection::handle_send Pages: 1 -->
<svg width="661pt" height="405pt"
 viewBox="0.00 0.00 661.00 404.50" xmlns="http://www.w3.org/2000/svg" xmlns:xlink="http://www.w3.org/1999/xlink">
<g id="graph0" class="graph" transform="scale(1 1) rotate(0) translate(4 400.5)">
<title>automaton::core::network::simulated_connection::handle_send</title>
<polygon fill="white" stroke="transparent" points="-4,4 -4,-400.5 657,-400.5 657,4 -4,4"/>
<!-- Node1 -->
<g id="node1" class="node">
<title>Node1</title>
<g id="a_node1"><a xlink:title=" ">
<polygon fill="#bfbfbf" stroke="black" points="0,-219 0,-260 125,-260 125,-219 0,-219"/>
<text text-anchor="start" x="8" y="-248" font-family="Helvetica,sans-Serif" font-size="10.00">automaton::core::network</text>
<text text-anchor="start" x="8" y="-237" font-family="Helvetica,sans-Serif" font-size="10.00">::simulated_connection</text>
<text text-anchor="middle" x="62.5" y="-226" font-family="Helvetica,sans-Serif" font-size="10.00">::handle_send</text>
</a>
</g>
</g>
<!-- Node2 -->
<g id="node2" class="node">
<title>Node2</title>
<g id="a_node2"><a xlink:href="../../db/dd7/classautomaton_1_1core_1_1network_1_1simulated__connection.html#a22ee9f2889b620302bd98d2fbec4ed77" target="_top" xlink:title=" ">
<polygon fill="white" stroke="black" points="170,-355 170,-396 295,-396 295,-355 170,-355"/>
<text text-anchor="start" x="178" y="-384" font-family="Helvetica,sans-Serif" font-size="10.00">automaton::core::network</text>
<text text-anchor="start" x="178" y="-373" font-family="Helvetica,sans-Serif" font-size="10.00">::simulated_connection</text>
<text text-anchor="middle" x="232.5" y="-362" font-family="Helvetica,sans-Serif" font-size="10.00">::get_lag</text>
</a>
</g>
</g>
<!-- Node1&#45;&gt;Node2 -->
<g id="edge1" class="edge">
<title>Node1&#45;&gt;Node2</title>
<path fill="none" stroke="midnightblue" d="M79.73,-260.11C97.81,-282.08 128.75,-316.89 161,-340.5 165.48,-343.78 170.31,-346.9 175.27,-349.83"/>
<polygon fill="midnightblue" stroke="midnightblue" points="173.86,-353.05 184.3,-354.89 177.28,-346.94 173.86,-353.05"/>
</g>
<!-- Node3 -->
<g id="node3" class="node">
<title>Node3</title>
<g id="a_node3"><a xlink:href="../../d7/ded/classautomaton_1_1core_1_1network_1_1simulation.html#ad00c2b3b98e9eb6b251f39549d46baf4" target="_top" xlink:title=" ">
<polygon fill="white" stroke="black" points="513,-224.5 513,-254.5 641,-254.5 641,-224.5 513,-224.5"/>
<text text-anchor="start" x="521" y="-242.5" font-family="Helvetica,sans-Serif" font-size="10.00">automaton::core::network</text>
<text text-anchor="middle" x="577" y="-231.5" font-family="Helvetica,sans-Serif" font-size="10.00">::simulation::get_simulator</text>
</a>
</g>
</g>
<!-- Node1&#45;&gt;Node3 -->
<g id="edge2" class="edge">
<title>Node1&#45;&gt;Node3</title>
<path fill="none" stroke="midnightblue" d="M120.06,-260.02C133.32,-263.95 147.51,-267.47 161,-269.5 294.61,-289.59 331.06,-287.28 465,-269.5 483.7,-267.02 503.72,-262.28 521.54,-257.29"/>
<polygon fill="midnightblue" stroke="midnightblue" points="522.55,-260.64 531.19,-254.51 520.61,-253.92 522.55,-260.64"/>
</g>
<!-- Node4 -->
<g id="node4" class="node">
<title>Node4</title>
<g id="a_node4"><a xlink:href="../../db/dd7/classautomaton_1_1core_1_1network_1_1simulated__connection.html#acfde8d040d003b23b6fd92443670e985" target="_top" xlink:title=" ">
<polygon fill="white" stroke="black" points="514.5,-289 514.5,-330 639.5,-330 639.5,-289 514.5,-289"/>
<text text-anchor="start" x="522.5" y="-318" font-family="Helvetica,sans-Serif" font-size="10.00">automaton::core::network</text>
<text text-anchor="start" x="522.5" y="-307" font-family="Helvetica,sans-Serif" font-size="10.00">::simulated_connection</text>
<text text-anchor="middle" x="577" y="-296" font-family="Helvetica,sans-Serif" font-size="10.00">::get_state</text>
</a>
</g>
</g>
<!-- Node1&#45;&gt;Node4 -->
<g id="edge3" class="edge">
<title>Node1&#45;&gt;Node4</title>
<path fill="none" stroke="midnightblue" d="M93.62,-260.11C112.18,-271.62 136.94,-284.93 161,-291.5 277.87,-323.42 420.06,-321.2 504.02,-315.9"/>
<polygon fill="midnightblue" stroke="midnightblue" points="504.47,-319.38 514.22,-315.22 504.01,-312.39 504.47,-319.38"/>
</g>
<!-- Node5 -->
<g id="node5" class="node">
<title>Node5</title>
<g id="a_node5"><a xlink:href="../../db/dd7/classautomaton_1_1core_1_1network_1_1simulated__connection.html#a28dcbba8b41af6af145287d29a78777c" target="_top" xlink:title=" ">
<polygon fill="white" stroke="black" points="170,-219 170,-260 295,-260 295,-219 170,-219"/>
<text text-anchor="start" x="178" y="-248" font-family="Helvetica,sans-Serif" font-size="10.00">automaton::core::network</text>
<text text-anchor="start" x="178" y="-237" font-family="Helvetica,sans-Serif" font-size="10.00">::simulated_connection</text>
<text text-anchor="middle" x="232.5" y="-226" font-family="Helvetica,sans-Serif" font-size="10.00">::get_time_stamp</text>
</a>
</g>
</g>
<!-- Node1&#45;&gt;Node5 -->
<g id="edge4" class="edge">
<title>Node1&#45;&gt;Node5</title>
<path fill="none" stroke="midnightblue" d="M125.1,-239.5C136.4,-239.5 148.28,-239.5 159.85,-239.5"/>
<polygon fill="midnightblue" stroke="midnightblue" points="159.9,-243 169.9,-239.5 159.9,-236 159.9,-243"/>
</g>
<!-- Node6 -->
<g id="node6" class="node">
<title>Node6</title>
<g id="a_node6"><a xlink:href="../../d7/ded/classautomaton_1_1core_1_1network_1_1simulation.html#abac703be4668bd6ebf00deff3c310f2e" target="_top" xlink:title=" ">
<polygon fill="white" stroke="black" points="161,-170.5 161,-200.5 304,-200.5 304,-170.5 161,-170.5"/>
<text text-anchor="start" x="169" y="-188.5" font-family="Helvetica,sans-Serif" font-size="10.00">automaton::core::network</text>
<text text-anchor="middle" x="232.5" y="-177.5" font-family="Helvetica,sans-Serif" font-size="10.00">::simulation::handle_message</text>
</a>
</g>
</g>
<!-- Node1&#45;&gt;Node6 -->
<g id="edge5" class="edge">
<title>Node1&#45;&gt;Node6</title>
<path fill="none" stroke="midnightblue" d="M108.52,-218.97C122.61,-213.91 138.57,-208.55 154.22,-203.61"/>
<polygon fill="midnightblue" stroke="midnightblue" points="155.4,-206.91 163.91,-200.59 153.32,-200.22 155.4,-206.91"/>
</g>
<!-- Node13 -->
<g id="node13" class="node">
<title>Node13</title>
<g id="a_node13"><a xlink:href="../../db/dd7/classautomaton_1_1core_1_1network_1_1simulated__connection.html#a075954c04ab281ccb09b6243adc946f1" target="_top" xlink:title=" ">
<polygon fill="white" stroke="black" points="170,-111 170,-152 295,-152 295,-111 170,-111"/>
<text text-anchor="start" x="178" y="-140" font-family="Helvetica,sans-Serif" font-size="10.00">automaton::core::network</text>
<text text-anchor="start" x="178" y="-129" font-family="Helvetica,sans-Serif" font-size="10.00">::simulated_connection</text>
<text text-anchor="middle" x="232.5" y="-118" font-family="Helvetica,sans-Serif" font-size="10.00">::set_time_stamp</text>
</a>
</g>
</g>
<!-- Node1&#45;&gt;Node13 -->
<g id="edge19" class="edge">
<title>Node1&#45;&gt;Node13</title>
<path fill="none" stroke="midnightblue" d="M85.35,-218.66C104.25,-201.43 132.9,-177.18 161,-160.5 163.19,-159.2 165.45,-157.93 167.76,-156.7"/>
<polygon fill="midnightblue" stroke="midnightblue" points="169.49,-159.74 176.83,-152.11 166.33,-153.5 169.49,-159.74"/>
</g>
<!-- Node6&#45;&gt;Node1 -->
<g id="edge18" class="edge">
<title>Node6&#45;&gt;Node1</title>
<path fill="none" stroke="midnightblue" d="M201,-200.65C182.49,-207.74 158.05,-216.04 134.92,-223.23"/>
<polygon fill="midnightblue" stroke="midnightblue" points="133.64,-219.96 125.1,-226.23 135.69,-226.65 133.64,-219.96"/>
</g>
<!-- Node6&#45;&gt;Node3 -->
<g id="edge8" class="edge">
<title>Node6&#45;&gt;Node3</title>
<path fill="none" stroke="midnightblue" d="M304.08,-189.86C350.15,-193.43 411.47,-199.56 465,-209.5 482.23,-212.7 500.69,-217.23 517.52,-221.81"/>
<polygon fill="midnightblue" stroke="midnightblue" points="516.64,-225.2 527.21,-224.5 518.51,-218.45 516.64,-225.2"/>
</g>
<!-- Node7 -->
<g id="node7" class="node">
<title>Node7</title>
<g id="a_node7"><a xlink:href="../../d7/ded/classautomaton_1_1core_1_1network_1_1simulation.html#a05ab8136b235c876c4f4176debd962df" target="_top" xlink:title=" ">
<polygon fill="white" stroke="black" points="514.5,-49.5 514.5,-79.5 639.5,-79.5 639.5,-49.5 514.5,-49.5"/>
<text text-anchor="start" x="522.5" y="-67.5" font-family="Helvetica,sans-Serif" font-size="10.00">automaton::core::network</text>
<text text-anchor="middle" x="577" y="-56.5" font-family="Helvetica,sans-Serif" font-size="10.00">::simulation::add_task</text>
</a>
</g>
</g>
<!-- Node6&#45;&gt;Node7 -->
<g id="edge6" class="edge">
<title>Node6&#45;&gt;Node7</title>
<path fill="none" stroke="midnightblue" d="M291.17,-170.47C295.79,-167.93 300.16,-164.96 304,-161.5 332.37,-135.95 308.69,-105.35 340,-83.5 387.38,-50.43 453.88,-47.95 504.22,-52.43"/>
<polygon fill="midnightblue" stroke="midnightblue" points="504.08,-55.94 514.38,-53.45 504.78,-48.97 504.08,-55.94"/>
</g>
<!-- Node8 -->
<g id="node8" class="node">
<title>Node8</title>
<g id="a_node8"><a xlink:href="../../d7/ded/classautomaton_1_1core_1_1network_1_1simulation.html#a8df9259f277318e270877ed98f4be2e1" target="_top" xlink:title=" ">
<polygon fill="white" stroke="black" points="509,-0.5 509,-30.5 645,-30.5 645,-0.5 509,-0.5"/>
<text text-anchor="start" x="517" y="-18.5" font-family="Helvetica,sans-Serif" font-size="10.00">automaton::core::network</text>
<text text-anchor="middle" x="577" y="-7.5" font-family="Helvetica,sans-Serif" font-size="10.00">::simulation::get_connection</text>
</a>
</g>
</g>
<!-- Node6&#45;&gt;Node8 -->
<g id="edge7" class="edge">
<title>Node6&#45;&gt;Node8</title>
<path fill="none" stroke="midnightblue" d="M292.66,-170.37C296.8,-167.85 300.66,-164.92 304,-161.5 341.15,-123.51 299.36,-81.72 340,-47.5 383.35,-11 447.93,-4.41 498.58,-6.17"/>
<polygon fill="midnightblue" stroke="midnightblue" points="498.68,-9.67 508.84,-6.64 499.01,-2.68 498.68,-9.67"/>
</g>
<!-- Node9 -->
<g id="node9" class="node">
<title>Node9</title>
<g id="a_node9"><a xlink:href="../../d7/ded/classautomaton_1_1core_1_1network_1_1simulation.html#a6ac8458190dbb7d9291a43c49b574e51" target="_top" xlink:title=" ">
<polygon fill="white" stroke="black" points="514.5,-147.5 514.5,-177.5 639.5,-177.5 639.5,-147.5 514.5,-147.5"/>
<text text-anchor="start" x="522.5" y="-165.5" font-family="Helvetica,sans-Serif" font-size="10.00">automaton::core::network</text>
<text text-anchor="middle" x="577" y="-154.5" font-family="Helvetica,sans-Serif" font-size="10.00">::simulation::get_time</text>
</a>
</g>
</g>
<!-- Node6&#45;&gt;Node9 -->
<g id="edge9" class="edge">
<title>Node6&#45;&gt;Node9</title>
<path fill="none" stroke="midnightblue" d="M304.23,-179.27C316.17,-178.29 328.43,-177.33 340,-176.5 395.11,-172.54 457.52,-168.87 504.32,-166.28"/>
<polygon fill="midnightblue" stroke="midnightblue" points="504.56,-169.78 514.36,-165.73 504.18,-162.79 504.56,-169.78"/>
</g>
<!-- Node10 -->
<g id="node10" class="node">
<title>Node10</title>
<g id="a_node10"><a xlink:href="../../d7/ded/classautomaton_1_1core_1_1network_1_1simulation.html#af15311fe128c1b858287e14251a01cf9" target="_top" xlink:title=" ">
<polygon fill="white" stroke="black" points="340,-93.5 340,-123.5 465,-123.5 465,-93.5 340,-93.5"/>
<text text-anchor="start" x="348" y="-111.5" font-family="Helvetica,sans-Serif" font-size="10.00">automaton::core::network</text>
<text text-anchor="middle" x="402.5" y="-100.5" font-family="Helvetica,sans-Serif" font-size="10.00">::simulation::handle_ack</text>
</a>
</g>
</g>
<!-- Node6&#45;&gt;Node10 -->
<g id="edge10" class="edge">
<title>Node6&#45;&gt;Node10</title>
<path fill="none" stroke="midnightblue" d="M282.66,-170.47C289.93,-167.76 297.24,-164.75 304,-161.5 321.11,-153.27 323.44,-147.79 340,-138.5 346.34,-134.94 353.16,-131.37 359.87,-128"/>
<polygon fill="midnightblue" stroke="midnightblue" points="361.49,-131.11 368.9,-123.54 358.39,-124.83 361.49,-131.11"/>
</g>
<!-- Node12 -->
<g id="node12" class="node">
<title>Node12</title>
<g id="a_node12"><a xlink:href="../../db/dd7/classautomaton_1_1core_1_1network_1_1simulated__connection.html#a74f89bae76a2fdc9b359c6e86828c96d" target="_top" xlink:title=" ">
<polygon fill="white" stroke="black" points="340,-219 340,-260 465,-260 465,-219 340,-219"/>
<text text-anchor="start" x="348" y="-248" font-family="Helvetica,sans-Serif" font-size="10.00">automaton::core::network</text>
<text text-anchor="start" x="348" y="-237" font-family="Helvetica,sans-Serif" font-size="10.00">::simulated_connection</text>
<text text-anchor="middle" x="402.5" y="-226" font-family="Helvetica,sans-Serif" font-size="10.00">::handle_read</text>
</a>
</g>
</g>
<!-- Node6&#45;&gt;Node12 -->
<g id="edge15" class="edge">
<title>Node6&#45;&gt;Node12</title>
<path fill="none" stroke="midnightblue" d="M280.3,-200.54C295.72,-205.5 313.23,-211.13 330.06,-216.54"/>
<polygon fill="midnightblue" stroke="midnightblue" points="329.28,-219.96 339.87,-219.69 331.42,-213.3 329.28,-219.96"/>
</g>
<!-- Node10&#45;&gt;Node7 -->
<g id="edge12" class="edge">
<title>Node10&#45;&gt;Node7</title>
<path fill="none" stroke="midnightblue" d="M462.38,-93.48C476.74,-89.82 492.22,-85.87 506.99,-82.1"/>
<polygon fill="midnightblue" stroke="midnightblue" points="508.27,-85.39 517.09,-79.53 506.54,-78.61 508.27,-85.39"/>
</g>
<!-- Node10&#45;&gt;Node8 -->
<g id="edge13" class="edge">
<title>Node10&#45;&gt;Node8</title>
<path fill="none" stroke="midnightblue" d="M421.12,-93.49C439.88,-78.15 470.94,-54.5 501,-39.5 504.72,-37.65 508.61,-35.89 512.58,-34.25"/>
<polygon fill="midnightblue" stroke="midnightblue" points="513.9,-37.49 521.94,-30.59 511.35,-30.97 513.9,-37.49"/>
</g>
<!-- Node10&#45;&gt;Node9 -->
<g id="edge14" class="edge">
<title>Node10&#45;&gt;Node9</title>
<path fill="none" stroke="midnightblue" d="M451.55,-123.54C472.21,-130.01 496.54,-137.63 518.18,-144.4"/>
<polygon fill="midnightblue" stroke="midnightblue" points="517.32,-147.8 527.91,-147.45 519.41,-141.12 517.32,-147.8"/>
</g>
<!-- Node11 -->
<g id="node11" class="node">
<title>Node11</title>
<g id="a_node11"><a xlink:href="../../d7/ded/classautomaton_1_1core_1_1network_1_1simulation.html#a2fd9860eee7ca8e52875ccfa65c0e978" target="_top" xlink:title=" ">
<polygon fill="white" stroke="black" points="501,-98.5 501,-128.5 653,-128.5 653,-98.5 501,-98.5"/>
<text text-anchor="start" x="509" y="-116.5" font-family="Helvetica,sans-Serif" font-size="10.00">automaton::core::network</text>
<text text-anchor="middle" x="577" y="-105.5" font-family="Helvetica,sans-Serif" font-size="10.00">::simulation::add_handlers_task</text>
</a>
</g>
</g>
<!-- Node10&#45;&gt;Node11 -->
<g id="edge11" class="edge">
<title>Node10&#45;&gt;Node11</title>
<path fill="none" stroke="midnightblue" d="M465.29,-110.29C473.56,-110.53 482.15,-110.78 490.74,-111.03"/>
<polygon fill="midnightblue" stroke="midnightblue" points="490.69,-114.53 500.78,-111.32 490.89,-107.53 490.69,-114.53"/>
</g>
<!-- Node12&#45;&gt;Node3 -->
<g id="edge16" class="edge">
<title>Node12&#45;&gt;Node3</title>
<path fill="none" stroke="midnightblue" d="M465.29,-239.5C477.37,-239.5 490.16,-239.5 502.58,-239.5"/>
<polygon fill="midnightblue" stroke="midnightblue" points="502.9,-243 512.9,-239.5 502.9,-236 502.9,-243"/>
</g>
<!-- Node12&#45;&gt;Node4 -->
<g id="edge17" class="edge">
<title>Node12&#45;&gt;Node4</title>
<path fill="none" stroke="midnightblue" d="M454.32,-260.12C473.63,-267.96 495.8,-276.95 515.88,-285.1"/>
<polygon fill="midnightblue" stroke="midnightblue" points="514.66,-288.39 525.24,-288.9 517.29,-281.9 514.66,-288.39"/>
</g>
</g>
</svg>
