<?xml version="1.0" encoding="UTF-8" standalone="no"?>
<!DOCTYPE svg PUBLIC "-//W3C//DTD SVG 1.1//EN"
 "http://www.w3.org/Graphics/SVG/1.1/DTD/svg11.dtd">
<!-- Generated by graphviz version 2.42.3 ()
 -->
<!-- Title: automaton::core::network::simulated_connection::disconnect Pages: 1 -->
<svg width="511pt" height="305pt"
 viewBox="0.00 0.00 511.00 304.50" xmlns="http://www.w3.org/2000/svg" xmlns:xlink="http://www.w3.org/1999/xlink">
<g id="graph0" class="graph" transform="scale(1 1) rotate(0) translate(4 300.5)">
<title>automaton::core::network::simulated_connection::disconnect</title>
<polygon fill="white" stroke="transparent" points="-4,4 -4,-300.5 507,-300.5 507,4 -4,4"/>
<!-- Node1 -->
<g id="node1" class="node">
<title>Node1</title>
<g id="a_node1"><a xlink:title=" ">
<polygon fill="#bfbfbf" stroke="black" points="0,-147 0,-188 125,-188 125,-147 0,-147"/>
<text text-anchor="start" x="8" y="-176" font-family="Helvetica,sans-Serif" font-size="10.00">automaton::core::network</text>
<text text-anchor="start" x="8" y="-165" font-family="Helvetica,sans-Serif" font-size="10.00">::simulated_connection</text>
<text text-anchor="middle" x="62.5" y="-154" font-family="Helvetica,sans-Serif" font-size="10.00">::disconnect</text>
</a>
</g>
</g>
<!-- Node2 -->
<g id="node2" class="node">
<title>Node2</title>
<g id="a_node2"><a xlink:href="../../db/dd7/classautomaton_1_1core_1_1network_1_1simulated__connection.html#a22ee9f2889b620302bd98d2fbec4ed77" target="_top" xlink:title=" ">
<polygon fill="white" stroke="black" points="174,-255 174,-296 299,-296 299,-255 174,-255"/>
<text text-anchor="start" x="182" y="-284" font-family="Helvetica,sans-Serif" font-size="10.00">automaton::core::network</text>
<text text-anchor="start" x="182" y="-273" font-family="Helvetica,sans-Serif" font-size="10.00">::simulated_connection</text>
<text text-anchor="middle" x="236.5" y="-262" font-family="Helvetica,sans-Serif" font-size="10.00">::get_lag</text>
</a>
</g>
</g>
<!-- Node1&#45;&gt;Node2 -->
<g id="edge1" class="edge">
<title>Node1&#45;&gt;Node2</title>
<path fill="none" stroke="midnightblue" d="M84.89,-188.13C103.74,-205.46 132.55,-229.98 161,-246.5 163.34,-247.86 165.75,-249.18 168.22,-250.46"/>
<polygon fill="midnightblue" stroke="midnightblue" points="166.8,-253.66 177.32,-254.9 169.87,-247.37 166.8,-253.66"/>
</g>
<!-- Node3 -->
<g id="node3" class="node">
<title>Node3</title>
<g id="a_node3"><a xlink:href="../../d7/ded/classautomaton_1_1core_1_1network_1_1simulation.html#ad00c2b3b98e9eb6b251f39549d46baf4" target="_top" xlink:title=" ">
<polygon fill="white" stroke="black" points="172.5,-206.5 172.5,-236.5 300.5,-236.5 300.5,-206.5 172.5,-206.5"/>
<text text-anchor="start" x="180.5" y="-224.5" font-family="Helvetica,sans-Serif" font-size="10.00">automaton::core::network</text>
<text text-anchor="middle" x="236.5" y="-213.5" font-family="Helvetica,sans-Serif" font-size="10.00">::simulation::get_simulator</text>
</a>
</g>
</g>
<!-- Node1&#45;&gt;Node3 -->
<g id="edge2" class="edge">
<title>Node1&#45;&gt;Node3</title>
<path fill="none" stroke="midnightblue" d="M125.11,-186.84C142.27,-192.23 160.85,-198.06 177.78,-203.38"/>
<polygon fill="midnightblue" stroke="midnightblue" points="176.95,-206.79 187.54,-206.44 179.04,-200.11 176.95,-206.79"/>
</g>
<!-- Node4 -->
<g id="node4" class="node">
<title>Node4</title>
<g id="a_node4"><a xlink:href="../../db/dd7/classautomaton_1_1core_1_1network_1_1simulated__connection.html#a28dcbba8b41af6af145287d29a78777c" target="_top" xlink:title=" ">
<polygon fill="white" stroke="black" points="174,-147 174,-188 299,-188 299,-147 174,-147"/>
<text text-anchor="start" x="182" y="-176" font-family="Helvetica,sans-Serif" font-size="10.00">automaton::core::network</text>
<text text-anchor="start" x="182" y="-165" font-family="Helvetica,sans-Serif" font-size="10.00">::simulated_connection</text>
<text text-anchor="middle" x="236.5" y="-154" font-family="Helvetica,sans-Serif" font-size="10.00">::get_time_stamp</text>
</a>
</g>
</g>
<!-- Node1&#45;&gt;Node4 -->
<g id="edge3" class="edge">
<title>Node1&#45;&gt;Node4</title>
<path fill="none" stroke="midnightblue" d="M125.11,-167.5C137.58,-167.5 150.8,-167.5 163.6,-167.5"/>
<polygon fill="midnightblue" stroke="midnightblue" points="163.74,-171 173.74,-167.5 163.74,-164 163.74,-171"/>
</g>
<!-- Node5 -->
<g id="node5" class="node">
<title>Node5</title>
<g id="a_node5"><a xlink:href="../../d7/ded/classautomaton_1_1core_1_1network_1_1simulation.html#a88f01d284e8f9f0a15f32361c1f788aa" target="_top" xlink:title=" ">
<polygon fill="white" stroke="black" points="161,-98.5 161,-128.5 312,-128.5 312,-98.5 161,-98.5"/>
<text text-anchor="start" x="169" y="-116.5" font-family="Helvetica,sans-Serif" font-size="10.00">automaton::core::network</text>
<text text-anchor="middle" x="236.5" y="-105.5" font-family="Helvetica,sans-Serif" font-size="10.00">::simulation::handle_disconnect</text>
</a>
</g>
</g>
<!-- Node1&#45;&gt;Node5 -->
<g id="edge4" class="edge">
<title>Node1&#45;&gt;Node5</title>
<path fill="none" stroke="midnightblue" d="M125.11,-148.16C142.27,-142.77 160.85,-136.94 177.78,-131.62"/>
<polygon fill="midnightblue" stroke="midnightblue" points="179.04,-134.89 187.54,-128.56 176.95,-128.21 179.04,-134.89"/>
</g>
<!-- Node11 -->
<g id="node11" class="node">
<title>Node11</title>
<g id="a_node11"><a xlink:href="../../db/dd7/classautomaton_1_1core_1_1network_1_1simulated__connection.html#a075954c04ab281ccb09b6243adc946f1" target="_top" xlink:title=" ">
<polygon fill="white" stroke="black" points="174,-39 174,-80 299,-80 299,-39 174,-39"/>
<text text-anchor="start" x="182" y="-68" font-family="Helvetica,sans-Serif" font-size="10.00">automaton::core::network</text>
<text text-anchor="start" x="182" y="-57" font-family="Helvetica,sans-Serif" font-size="10.00">::simulated_connection</text>
<text text-anchor="middle" x="236.5" y="-46" font-family="Helvetica,sans-Serif" font-size="10.00">::set_time_stamp</text>
</a>
</g>
</g>
<!-- Node1&#45;&gt;Node11 -->
<g id="edge10" class="edge">
<title>Node1&#45;&gt;Node11</title>
<path fill="none" stroke="midnightblue" d="M85.37,-146.89C104.28,-129.86 132.93,-105.9 161,-89.5 163.98,-87.76 167.08,-86.07 170.25,-84.45"/>
<polygon fill="midnightblue" stroke="midnightblue" points="171.85,-87.56 179.32,-80.04 168.8,-81.27 171.85,-87.56"/>
</g>
<!-- Node6 -->
<g id="node6" class="node">
<title>Node6</title>
<g id="a_node6"><a xlink:href="../../d7/ded/classautomaton_1_1core_1_1network_1_1simulation.html#a2fd9860eee7ca8e52875ccfa65c0e978" target="_top" xlink:title=" ">
<polygon fill="white" stroke="black" points="349.5,-196.5 349.5,-226.5 501.5,-226.5 501.5,-196.5 349.5,-196.5"/>
<text text-anchor="start" x="357.5" y="-214.5" font-family="Helvetica,sans-Serif" font-size="10.00">automaton::core::network</text>
<text text-anchor="middle" x="425.5" y="-203.5" font-family="Helvetica,sans-Serif" font-size="10.00">::simulation::add_handlers_task</text>
</a>
</g>
</g>
<!-- Node5&#45;&gt;Node6 -->
<g id="edge5" class="edge">
<title>Node5&#45;&gt;Node6</title>
<path fill="none" stroke="midnightblue" d="M296.59,-128.55C302.04,-131.1 307.28,-134.06 312,-137.5 334.14,-153.62 325.8,-171.47 348,-187.5 350.07,-189 352.24,-190.4 354.49,-191.72"/>
<polygon fill="midnightblue" stroke="midnightblue" points="352.95,-194.87 363.44,-196.4 356.2,-188.67 352.95,-194.87"/>
</g>
<!-- Node7 -->
<g id="node7" class="node">
<title>Node7</title>
<g id="a_node7"><a xlink:href="../../d7/ded/classautomaton_1_1core_1_1network_1_1simulation.html#a05ab8136b235c876c4f4176debd962df" target="_top" xlink:title=" ">
<polygon fill="white" stroke="black" points="363,-147.5 363,-177.5 488,-177.5 488,-147.5 363,-147.5"/>
<text text-anchor="start" x="371" y="-165.5" font-family="Helvetica,sans-Serif" font-size="10.00">automaton::core::network</text>
<text text-anchor="middle" x="425.5" y="-154.5" font-family="Helvetica,sans-Serif" font-size="10.00">::simulation::add_task</text>
</a>
</g>
</g>
<!-- Node5&#45;&gt;Node7 -->
<g id="edge6" class="edge">
<title>Node5&#45;&gt;Node7</title>
<path fill="none" stroke="midnightblue" d="M294.88,-128.53C314.62,-133.71 336.91,-139.55 357.36,-144.91"/>
<polygon fill="midnightblue" stroke="midnightblue" points="356.67,-148.34 367.23,-147.49 358.45,-141.57 356.67,-148.34"/>
</g>
<!-- Node8 -->
<g id="node8" class="node">
<title>Node8</title>
<g id="a_node8"><a xlink:href="../../d7/ded/classautomaton_1_1core_1_1network_1_1simulation.html#a8df9259f277318e270877ed98f4be2e1" target="_top" xlink:title=" ">
<polygon fill="white" stroke="black" points="357.5,-98.5 357.5,-128.5 493.5,-128.5 493.5,-98.5 357.5,-98.5"/>
<text text-anchor="start" x="365.5" y="-116.5" font-family="Helvetica,sans-Serif" font-size="10.00">automaton::core::network</text>
<text text-anchor="middle" x="425.5" y="-105.5" font-family="Helvetica,sans-Serif" font-size="10.00">::simulation::get_connection</text>
</a>
</g>
</g>
<!-- Node5&#45;&gt;Node8 -->
<g id="edge7" class="edge">
<title>Node5&#45;&gt;Node8</title>
<path fill="none" stroke="midnightblue" d="M312.21,-113.5C323.78,-113.5 335.75,-113.5 347.37,-113.5"/>
<polygon fill="midnightblue" stroke="midnightblue" points="347.47,-117 357.47,-113.5 347.47,-110 347.47,-117"/>
</g>
<!-- Node9 -->
<g id="node9" class="node">
<title>Node9</title>
<g id="a_node9"><a xlink:href="../../d7/ded/classautomaton_1_1core_1_1network_1_1simulation.html#a6ac8458190dbb7d9291a43c49b574e51" target="_top" xlink:title=" ">
<polygon fill="white" stroke="black" points="363,-49.5 363,-79.5 488,-79.5 488,-49.5 363,-49.5"/>
<text text-anchor="start" x="371" y="-67.5" font-family="Helvetica,sans-Serif" font-size="10.00">automaton::core::network</text>
<text text-anchor="middle" x="425.5" y="-56.5" font-family="Helvetica,sans-Serif" font-size="10.00">::simulation::get_time</text>
</a>
</g>
</g>
<!-- Node5&#45;&gt;Node9 -->
<g id="edge8" class="edge">
<title>Node5&#45;&gt;Node9</title>
<path fill="none" stroke="midnightblue" d="M294.88,-98.47C314.62,-93.29 336.91,-87.45 357.36,-82.09"/>
<polygon fill="midnightblue" stroke="midnightblue" points="358.45,-85.43 367.23,-79.51 356.67,-78.66 358.45,-85.43"/>
</g>
<!-- Node10 -->
<g id="node10" class="node">
<title>Node10</title>
<g id="a_node10"><a xlink:href="../../d7/ded/classautomaton_1_1core_1_1network_1_1simulation.html#a33b53d8ea424acdc1a27747145cd3a5d" target="_top" xlink:title=" ">
<polygon fill="white" stroke="black" points="348,-0.5 348,-30.5 503,-30.5 503,-0.5 348,-0.5"/>
<text text-anchor="start" x="356" y="-18.5" font-family="Helvetica,sans-Serif" font-size="10.00">automaton::core::network</text>
<text text-anchor="middle" x="425.5" y="-7.5" font-family="Helvetica,sans-Serif" font-size="10.00">::simulation::remove_connection</text>
</a>
</g>
</g>
<!-- Node5&#45;&gt;Node10 -->
<g id="edge9" class="edge">
<title>Node5&#45;&gt;Node10</title>
<path fill="none" stroke="midnightblue" d="M296.56,-98.4C302.01,-95.86 307.26,-92.92 312,-89.5 333.92,-73.7 326.11,-56.34 348,-40.5 350.66,-38.57 353.48,-36.79 356.4,-35.14"/>
<polygon fill="midnightblue" stroke="midnightblue" points="358.08,-38.22 365.43,-30.58 354.92,-31.97 358.08,-38.22"/>
</g>
</g>
</svg>
