<?xml version="1.0" encoding="UTF-8" standalone="no"?>
<!DOCTYPE svg PUBLIC "-//W3C//DTD SVG 1.1//EN"
 "http://www.w3.org/Graphics/SVG/1.1/DTD/svg11.dtd">
<!-- Generated by graphviz version 2.44.0 ()
 -->
<!-- Title: automaton::core::network::simulated_connection::handle_read Pages: 1 -->
<svg width="297pt" height="99pt"
 viewBox="0.00 0.00 297.00 98.50" xmlns="http://www.w3.org/2000/svg" xmlns:xlink="http://www.w3.org/1999/xlink">
<g id="graph0" class="graph" transform="scale(1 1) rotate(0) translate(4 94.5)">
<title>automaton::core::network::simulated_connection::handle_read</title>
<polygon fill="white" stroke="transparent" points="-4,4 -4,-94.5 293,-94.5 293,4 -4,4"/>
<!-- Node1 -->
<g id="node1" class="node">
<title>Node1</title>
<g id="a_node1"><a xlink:title=" ">
<polygon fill="#bfbfbf" stroke="black" points="0,-27.5 0,-68.5 125,-68.5 125,-27.5 0,-27.5"/>
<text text-anchor="start" x="8" y="-56.5" font-family="Helvetica,sans-Serif" font-size="10.00">automaton::core::network</text>
<text text-anchor="start" x="8" y="-45.5" font-family="Helvetica,sans-Serif" font-size="10.00">::simulated_connection</text>
<text text-anchor="middle" x="62.5" y="-34.5" font-family="Helvetica,sans-Serif" font-size="10.00">::handle_read</text>
</a>
</g>
</g>
<!-- Node2 -->
<g id="node2" class="node">
<title>Node2</title>
<g id="a_node2"><a xlink:href="../../d7/ded/classautomaton_1_1core_1_1network_1_1simulation.html#ad00c2b3b98e9eb6b251f39549d46baf4" target="_top" xlink:title=" ">
<polygon fill="white" stroke="black" points="161,-60 161,-90 289,-90 289,-60 161,-60"/>
<text text-anchor="start" x="169" y="-78" font-family="Helvetica,sans-Serif" font-size="10.00">automaton::core::network</text>
<text text-anchor="middle" x="225" y="-67" font-family="Helvetica,sans-Serif" font-size="10.00">::simulation::get_simulator</text>
</a>
</g>
</g>
<!-- Node1&#45;&gt;Node2 -->
<g id="edge1" class="edge">
<title>Node1&#45;&gt;Node2</title>
<path fill="none" stroke="midnightblue" d="M125.09,-58.36C133.55,-59.78 142.29,-61.25 150.92,-62.71"/>
<polygon fill="midnightblue" stroke="midnightblue" points="150.53,-66.19 160.98,-64.4 151.7,-59.29 150.53,-66.19"/>
</g>
<!-- Node3 -->
<g id="node3" class="node">
<title>Node3</title>
<g id="a_node3"><a xlink:href="../../db/dd7/classautomaton_1_1core_1_1network_1_1simulated__connection.html#acfde8d040d003b23b6fd92443670e985" target="_top" xlink:title=" ">
<polygon fill="white" stroke="black" points="162.5,-0.5 162.5,-41.5 287.5,-41.5 287.5,-0.5 162.5,-0.5"/>
<text text-anchor="start" x="170.5" y="-29.5" font-family="Helvetica,sans-Serif" font-size="10.00">automaton::core::network</text>
<text text-anchor="start" x="170.5" y="-18.5" font-family="Helvetica,sans-Serif" font-size="10.00">::simulated_connection</text>
<text text-anchor="middle" x="225" y="-7.5" font-family="Helvetica,sans-Serif" font-size="10.00">::get_state</text>
</a>
</g>
</g>
<!-- Node1&#45;&gt;Node3 -->
<g id="edge2" class="edge">
<title>Node1&#45;&gt;Node3</title>
<path fill="none" stroke="midnightblue" d="M125.09,-37.64C133.96,-36.15 143.14,-34.6 152.18,-33.08"/>
<polygon fill="midnightblue" stroke="midnightblue" points="153.02,-36.49 162.31,-31.38 151.86,-29.59 153.02,-36.49"/>
</g>
</g>
</svg>
