<?xml version="1.0" encoding="UTF-8" standalone="no"?>
<!DOCTYPE svg PUBLIC "-//W3C//DTD SVG 1.1//EN"
 "http://www.w3.org/Graphics/SVG/1.1/DTD/svg11.dtd">
<!-- Generated by graphviz version 2.44.0 ()
 -->
<!-- Title: automaton::core::network::simulated_connection::incoming_packet Pages: 1 -->
<svg width="193pt" height="217pt"
 viewBox="0.00 0.00 192.50 217.00" xmlns="http://www.w3.org/2000/svg" xmlns:xlink="http://www.w3.org/1999/xlink">
<g id="graph0" class="graph" transform="scale(1 1) rotate(0) translate(4 213)">
<title>automaton::core::network::simulated_connection::incoming_packet</title>
<polygon fill="white" stroke="transparent" points="-4,4 -4,-213 188.5,-213 188.5,4 -4,4"/>
<!-- Node1 -->
<g id="node1" class="node">
<title>Node1</title>
<g id="a_node1"><a xlink:title=" ">
<polygon fill="#bfbfbf" stroke="black" points="10,-0.5 10,-41.5 135,-41.5 135,-0.5 10,-0.5"/>
<text text-anchor="start" x="18" y="-29.5" font-family="Helvetica,sans-Serif" font-size="10.00">automaton::core::network</text>
<text text-anchor="start" x="18" y="-18.5" font-family="Helvetica,sans-Serif" font-size="10.00">::simulated_connection</text>
<text text-anchor="middle" x="72.5" y="-7.5" font-family="Helvetica,sans-Serif" font-size="10.00">::incoming_packet</text>
</a>
</g>
</g>
<!-- Node2 -->
<g id="node2" class="node">
<title>Node2</title>
<g id="a_node2"><a xlink:title=" ">
<polygon fill="white" stroke="#bfbfbf" points="0,-122.5 0,-141.5 51,-141.5 51,-122.5 0,-122.5"/>
<text text-anchor="middle" x="25.5" y="-129.5" font-family="Helvetica,sans-Serif" font-size="10.00">uint32_t</text>
</a>
</g>
</g>
<!-- Node2&#45;&gt;Node1 -->
<g id="edge1" class="edge">
<title>Node2&#45;&gt;Node1</title>
<path fill="none" stroke="#9a32cd" stroke-dasharray="5,2" d="M23.5,-112.12C22.74,-97.22 23.55,-76.3 31.5,-60 34.82,-53.2 39.92,-47.01 45.41,-41.7"/>
<polygon fill="#9a32cd" stroke="#9a32cd" points="20.01,-112.47 24.29,-122.17 26.99,-111.92 20.01,-112.47"/>
<text text-anchor="middle" x="65" y="-96" font-family="Helvetica,sans-Serif" font-size="10.00"> buffer_size</text>
<text text-anchor="middle" x="65" y="-85" font-family="Helvetica,sans-Serif" font-size="10.00">bytes_read</text>
<text text-anchor="middle" x="65" y="-74" font-family="Helvetica,sans-Serif" font-size="10.00">expect_to_read</text>
<text text-anchor="middle" x="65" y="-63" font-family="Helvetica,sans-Serif" font-size="10.00">id</text>
</g>
<!-- Node3 -->
<g id="node3" class="node">
<title>Node3</title>
<g id="a_node3"><a xlink:title=" ">
<polygon fill="white" stroke="#bfbfbf" points="68.5,-122.5 68.5,-141.5 184.5,-141.5 184.5,-122.5 68.5,-122.5"/>
<text text-anchor="middle" x="126.5" y="-129.5" font-family="Helvetica,sans-Serif" font-size="10.00">std::shared_ptr&lt; char &gt;</text>
</a>
</g>
</g>
<!-- Node3&#45;&gt;Node1 -->
<g id="edge2" class="edge">
<title>Node3&#45;&gt;Node1</title>
<path fill="none" stroke="#9a32cd" stroke-dasharray="5,2" d="M120.52,-112.59C115.47,-97.96 107.61,-77.16 98.5,-60 95.2,-53.79 91.1,-47.35 87.14,-41.59"/>
<polygon fill="#9a32cd" stroke="#9a32cd" points="117.32,-114.05 123.81,-122.42 123.96,-111.83 117.32,-114.05"/>
<text text-anchor="middle" x="130" y="-79.5" font-family="Helvetica,sans-Serif" font-size="10.00"> buffer</text>
</g>
<!-- Node4 -->
<g id="node4" class="node">
<title>Node4</title>
<g id="a_node4"><a xlink:title=" ">
<polygon fill="white" stroke="#bfbfbf" points="109,-189.5 109,-208.5 144,-208.5 144,-189.5 109,-189.5"/>
<text text-anchor="middle" x="126.5" y="-196.5" font-family="Helvetica,sans-Serif" font-size="10.00">char</text>
</a>
</g>
</g>
<!-- Node4&#45;&gt;Node3 -->
<g id="edge3" class="edge">
<title>Node4&#45;&gt;Node3</title>
<path fill="none" stroke="#9a32cd" stroke-dasharray="5,2" d="M126.5,-179.04C126.5,-166.67 126.5,-151.12 126.5,-141.63"/>
<polygon fill="#9a32cd" stroke="#9a32cd" points="123,-179.23 126.5,-189.23 130,-179.23 123,-179.23"/>
<text text-anchor="middle" x="133.5" y="-163" font-family="Helvetica,sans-Serif" font-size="10.00"> ptr</text>
</g>
</g>
</svg>
