<?xml version="1.0" encoding="UTF-8" standalone="no"?>
<!DOCTYPE svg PUBLIC "-//W3C//DTD SVG 1.1//EN"
 "http://www.w3.org/Graphics/SVG/1.1/DTD/svg11.dtd">
<!-- Generated by graphviz version 2.44.0 ()
 -->
<!-- Title: node.h Pages: 1 -->
<svg width="367pt" height="140pt"
 viewBox="0.00 0.00 366.50 140.00" xmlns="http://www.w3.org/2000/svg" xmlns:xlink="http://www.w3.org/1999/xlink">
<g id="graph0" class="graph" transform="scale(1 1) rotate(0) translate(4 136)">
<title>node.h</title>
<polygon fill="white" stroke="transparent" points="-4,4 -4,-136 362.5,-136 362.5,4 -4,4"/>
<!-- Node1 -->
<g id="node1" class="node">
<title>Node1</title>
<g id="a_node1"><a xlink:title=" ">
<polygon fill="#bfbfbf" stroke="black" points="132.5,-112.5 132.5,-131.5 177.5,-131.5 177.5,-112.5 132.5,-112.5"/>
<text text-anchor="middle" x="155" y="-119.5" font-family="Helvetica,sans-Serif" font-size="10.00">node.h</text>
</a>
</g>
</g>
<!-- Node2 -->
<g id="node2" class="node">
<title>Node2</title>
<g id="a_node2"><a xlink:href="../../dd/de7/core_8cc.html" target="_top" xlink:title=" ">
<polygon fill="white" stroke="black" points="86,-0.5 86,-19.5 134,-19.5 134,-0.5 86,-0.5"/>
<text text-anchor="middle" x="110" y="-7.5" font-family="Helvetica,sans-Serif" font-size="10.00">core.cc</text>
</a>
</g>
</g>
<!-- Node1&#45;&gt;Node2 -->
<g id="edge1" class="edge">
<title>Node1&#45;&gt;Node2</title>
<path fill="none" stroke="midnightblue" d="M139.62,-104.66C132.87,-96.61 125.49,-86.41 121,-76 112.84,-57.08 110.72,-32.63 110.17,-19.78"/>
<polygon fill="midnightblue" stroke="midnightblue" points="137.02,-107 146.26,-112.19 142.27,-102.37 137.02,-107"/>
</g>
<!-- Node3 -->
<g id="node3" class="node">
<title>Node3</title>
<g id="a_node3"><a xlink:href="../../d9/d5a/lua__node_8h.html" target="_top" xlink:title=" ">
<polygon fill="white" stroke="black" points="10.5,-56.5 10.5,-75.5 73.5,-75.5 73.5,-56.5 10.5,-56.5"/>
<text text-anchor="middle" x="42" y="-63.5" font-family="Helvetica,sans-Serif" font-size="10.00">lua_node.h</text>
</a>
</g>
</g>
<!-- Node1&#45;&gt;Node3 -->
<g id="edge2" class="edge">
<title>Node1&#45;&gt;Node3</title>
<path fill="none" stroke="midnightblue" d="M128,-108.1C106.89,-98.01 78.14,-84.27 59.82,-75.52"/>
<polygon fill="midnightblue" stroke="midnightblue" points="126.56,-111.29 137.09,-112.44 129.58,-104.97 126.56,-111.29"/>
</g>
<!-- Node5 -->
<g id="node5" class="node">
<title>Node5</title>
<g id="a_node5"><a xlink:href="../../dc/dfd/node_8cc.html" target="_top" xlink:title=" ">
<polygon fill="white" stroke="black" points="130,-56.5 130,-75.5 180,-75.5 180,-56.5 130,-56.5"/>
<text text-anchor="middle" x="155" y="-63.5" font-family="Helvetica,sans-Serif" font-size="10.00">node.cc</text>
</a>
</g>
</g>
<!-- Node1&#45;&gt;Node5 -->
<g id="edge5" class="edge">
<title>Node1&#45;&gt;Node5</title>
<path fill="none" stroke="midnightblue" d="M155,-101.8C155,-92.91 155,-82.78 155,-75.75"/>
<polygon fill="midnightblue" stroke="midnightblue" points="151.5,-102.08 155,-112.08 158.5,-102.08 151.5,-102.08"/>
</g>
<!-- Node6 -->
<g id="node6" class="node">
<title>Node6</title>
<g id="a_node6"><a xlink:href="../../dc/d32/node__updater_8h.html" target="_top" xlink:title=" ">
<polygon fill="white" stroke="black" points="198.5,-56.5 198.5,-75.5 281.5,-75.5 281.5,-56.5 198.5,-56.5"/>
<text text-anchor="middle" x="240" y="-63.5" font-family="Helvetica,sans-Serif" font-size="10.00">node_updater.h</text>
</a>
</g>
</g>
<!-- Node1&#45;&gt;Node6 -->
<g id="edge6" class="edge">
<title>Node1&#45;&gt;Node6</title>
<path fill="none" stroke="midnightblue" d="M177.19,-106.9C192.78,-97 213.13,-84.07 226.38,-75.65"/>
<polygon fill="midnightblue" stroke="midnightblue" points="175.22,-104.01 168.66,-112.32 178.97,-109.92 175.22,-104.01"/>
</g>
<!-- Node8 -->
<g id="node8" class="node">
<title>Node8</title>
<g id="a_node8"><a xlink:href="../../df/dd2/testnet_8cc.html" target="_top" xlink:title=" ">
<polygon fill="white" stroke="black" points="299.5,-56.5 299.5,-75.5 358.5,-75.5 358.5,-56.5 299.5,-56.5"/>
<text text-anchor="middle" x="329" y="-63.5" font-family="Helvetica,sans-Serif" font-size="10.00">testnet.cc</text>
</a>
</g>
</g>
<!-- Node1&#45;&gt;Node8 -->
<g id="edge9" class="edge">
<title>Node1&#45;&gt;Node8</title>
<path fill="none" stroke="midnightblue" d="M187.33,-110.97C220.13,-100.79 270.36,-85.2 301.37,-75.58"/>
<polygon fill="midnightblue" stroke="midnightblue" points="186.26,-107.63 177.75,-113.94 188.34,-114.32 186.26,-107.63"/>
</g>
<!-- Node3&#45;&gt;Node2 -->
<g id="edge3" class="edge">
<title>Node3&#45;&gt;Node2</title>
<path fill="none" stroke="midnightblue" d="M60.76,-50.1C73,-40.38 88.56,-28.03 98.88,-19.83"/>
<polygon fill="midnightblue" stroke="midnightblue" points="58.58,-47.36 52.93,-56.32 62.93,-52.85 58.58,-47.36"/>
</g>
<!-- Node4 -->
<g id="node4" class="node">
<title>Node4</title>
<g id="a_node4"><a xlink:href="../../db/d7e/lua__node_8cc.html" target="_top" xlink:title=" ">
<polygon fill="white" stroke="black" points="0,-0.5 0,-19.5 68,-19.5 68,-0.5 0,-0.5"/>
<text text-anchor="middle" x="34" y="-7.5" font-family="Helvetica,sans-Serif" font-size="10.00">lua_node.cc</text>
</a>
</g>
</g>
<!-- Node3&#45;&gt;Node4 -->
<g id="edge4" class="edge">
<title>Node3&#45;&gt;Node4</title>
<path fill="none" stroke="midnightblue" d="M39.2,-46.1C37.87,-37.14 36.35,-26.86 35.3,-19.75"/>
<polygon fill="midnightblue" stroke="midnightblue" points="35.75,-46.7 40.68,-56.08 42.68,-45.68 35.75,-46.7"/>
</g>
<!-- Node6&#45;&gt;Node2 -->
<g id="edge7" class="edge">
<title>Node6&#45;&gt;Node2</title>
<path fill="none" stroke="midnightblue" d="M209.91,-52.5C185.54,-42.38 151.86,-28.39 130.5,-19.52"/>
<polygon fill="midnightblue" stroke="midnightblue" points="208.82,-55.84 219.4,-56.44 211.51,-49.38 208.82,-55.84"/>
</g>
<!-- Node7 -->
<g id="node7" class="node">
<title>Node7</title>
<g id="a_node7"><a xlink:href="../../d1/d13/node__updater_8cc.html" target="_top" xlink:title=" ">
<polygon fill="white" stroke="black" points="196,-0.5 196,-19.5 284,-19.5 284,-0.5 196,-0.5"/>
<text text-anchor="middle" x="240" y="-7.5" font-family="Helvetica,sans-Serif" font-size="10.00">node_updater.cc</text>
</a>
</g>
</g>
<!-- Node6&#45;&gt;Node7 -->
<g id="edge8" class="edge">
<title>Node6&#45;&gt;Node7</title>
<path fill="none" stroke="midnightblue" d="M240,-45.8C240,-36.91 240,-26.78 240,-19.75"/>
<polygon fill="midnightblue" stroke="midnightblue" points="236.5,-46.08 240,-56.08 243.5,-46.08 236.5,-46.08"/>
</g>
</g>
</svg>
