<?xml version="1.0" encoding="UTF-8" standalone="no"?>
<!DOCTYPE svg PUBLIC "-//W3C//DTD SVG 1.1//EN"
 "http://www.w3.org/Graphics/SVG/1.1/DTD/svg11.dtd">
<!-- Generated by graphviz version 2.42.3 ()
 -->
<!-- Title: node.h Pages: 1 -->
<svg width="376pt" height="140pt"
 viewBox="0.00 0.00 375.50 140.00" xmlns="http://www.w3.org/2000/svg" xmlns:xlink="http://www.w3.org/1999/xlink">
<g id="graph0" class="graph" transform="scale(1 1) rotate(0) translate(4 136)">
<title>node.h</title>
<polygon fill="white" stroke="transparent" points="-4,4 -4,-136 371.5,-136 371.5,4 -4,4"/>
<!-- Node1 -->
<g id="node1" class="node">
<title>Node1</title>
<g id="a_node1"><a xlink:title=" ">
<polygon fill="#bfbfbf" stroke="black" points="157.5,-112.5 157.5,-131.5 202.5,-131.5 202.5,-112.5 157.5,-112.5"/>
<text text-anchor="middle" x="180" y="-119.5" font-family="Helvetica,sans-Serif" font-size="10.00">node.h</text>
</a>
</g>
</g>
<!-- Node2 -->
<g id="node2" class="node">
<title>Node2</title>
<g id="a_node2"><a xlink:href="../../d9/d5a/lua__node_8h.html" target="_top" xlink:title=" ">
<polygon fill="white" stroke="black" points="18.5,-56.5 18.5,-75.5 81.5,-75.5 81.5,-56.5 18.5,-56.5"/>
<text text-anchor="middle" x="50" y="-63.5" font-family="Helvetica,sans-Serif" font-size="10.00">lua_node.h</text>
</a>
</g>
</g>
<!-- Node1&#45;&gt;Node2 -->
<g id="edge1" class="edge">
<title>Node1&#45;&gt;Node2</title>
<path fill="none" stroke="midnightblue" d="M149.91,-108.5C125.54,-98.38 91.86,-84.39 70.5,-75.52"/>
<polygon fill="midnightblue" stroke="midnightblue" points="148.82,-111.84 159.4,-112.44 151.51,-105.38 148.82,-111.84"/>
</g>
<!-- Node3 -->
<g id="node3" class="node">
<title>Node3</title>
<g id="a_node3"><a xlink:href="../../dd/de7/core_8cc.html" target="_top" xlink:title=" ">
<polygon fill="white" stroke="black" points="86,-0.5 86,-19.5 134,-19.5 134,-0.5 86,-0.5"/>
<text text-anchor="middle" x="110" y="-7.5" font-family="Helvetica,sans-Serif" font-size="10.00">core.cc</text>
</a>
</g>
</g>
<!-- Node1&#45;&gt;Node3 -->
<g id="edge7" class="edge">
<title>Node1&#45;&gt;Node3</title>
<path fill="none" stroke="midnightblue" d="M159.12,-106.46C149.06,-98.49 137.56,-87.84 130,-76 118.44,-57.89 113.21,-32.68 111.15,-19.61"/>
<polygon fill="midnightblue" stroke="midnightblue" points="157.03,-109.26 167.12,-112.48 161.24,-103.67 157.03,-109.26"/>
</g>
<!-- Node5 -->
<g id="node5" class="node">
<title>Node5</title>
<g id="a_node5"><a xlink:href="../../dc/d32/node__updater_8h.html" target="_top" xlink:title=" ">
<polygon fill="white" stroke="black" points="138.5,-56.5 138.5,-75.5 221.5,-75.5 221.5,-56.5 138.5,-56.5"/>
<text text-anchor="middle" x="180" y="-63.5" font-family="Helvetica,sans-Serif" font-size="10.00">node_updater.h</text>
</a>
</g>
</g>
<!-- Node1&#45;&gt;Node5 -->
<g id="edge4" class="edge">
<title>Node1&#45;&gt;Node5</title>
<path fill="none" stroke="midnightblue" d="M180,-101.8C180,-92.91 180,-82.78 180,-75.75"/>
<polygon fill="midnightblue" stroke="midnightblue" points="176.5,-102.08 180,-112.08 183.5,-102.08 176.5,-102.08"/>
</g>
<!-- Node7 -->
<g id="node7" class="node">
<title>Node7</title>
<g id="a_node7"><a xlink:href="../../dc/dfd/node_8cc.html" target="_top" xlink:title=" ">
<polygon fill="white" stroke="black" points="240,-56.5 240,-75.5 290,-75.5 290,-56.5 240,-56.5"/>
<text text-anchor="middle" x="265" y="-63.5" font-family="Helvetica,sans-Serif" font-size="10.00">node.cc</text>
</a>
</g>
</g>
<!-- Node1&#45;&gt;Node7 -->
<g id="edge8" class="edge">
<title>Node1&#45;&gt;Node7</title>
<path fill="none" stroke="midnightblue" d="M202.19,-106.9C217.78,-97 238.13,-84.07 251.38,-75.65"/>
<polygon fill="midnightblue" stroke="midnightblue" points="200.22,-104.01 193.66,-112.32 203.97,-109.92 200.22,-104.01"/>
</g>
<!-- Node8 -->
<g id="node8" class="node">
<title>Node8</title>
<g id="a_node8"><a xlink:href="../../df/dd2/testnet_8cc.html" target="_top" xlink:title=" ">
<polygon fill="white" stroke="black" points="308.5,-56.5 308.5,-75.5 367.5,-75.5 367.5,-56.5 308.5,-56.5"/>
<text text-anchor="middle" x="338" y="-63.5" font-family="Helvetica,sans-Serif" font-size="10.00">testnet.cc</text>
</a>
</g>
</g>
<!-- Node1&#45;&gt;Node8 -->
<g id="edge9" class="edge">
<title>Node1&#45;&gt;Node8</title>
<path fill="none" stroke="midnightblue" d="M212.18,-110C242.01,-99.81 285.79,-84.84 313.06,-75.52"/>
<polygon fill="midnightblue" stroke="midnightblue" points="210.97,-106.72 202.64,-113.26 213.23,-113.34 210.97,-106.72"/>
</g>
<!-- Node2&#45;&gt;Node3 -->
<g id="edge2" class="edge">
<title>Node2&#45;&gt;Node3</title>
<path fill="none" stroke="midnightblue" d="M67.18,-49.54C77.88,-39.91 91.26,-27.87 100.18,-19.83"/>
<polygon fill="midnightblue" stroke="midnightblue" points="64.73,-47.03 59.64,-56.32 69.41,-52.24 64.73,-47.03"/>
</g>
<!-- Node4 -->
<g id="node4" class="node">
<title>Node4</title>
<g id="a_node4"><a xlink:href="../../db/d7e/lua__node_8cc.html" target="_top" xlink:title=" ">
<polygon fill="white" stroke="black" points="0,-0.5 0,-19.5 68,-19.5 68,-0.5 0,-0.5"/>
<text text-anchor="middle" x="34" y="-7.5" font-family="Helvetica,sans-Serif" font-size="10.00">lua_node.cc</text>
</a>
</g>
</g>
<!-- Node2&#45;&gt;Node4 -->
<g id="edge3" class="edge">
<title>Node2&#45;&gt;Node4</title>
<path fill="none" stroke="midnightblue" d="M44.49,-46.4C41.81,-37.36 38.72,-26.94 36.59,-19.75"/>
<polygon fill="midnightblue" stroke="midnightblue" points="41.16,-47.49 47.36,-56.08 47.87,-45.5 41.16,-47.49"/>
</g>
<!-- Node5&#45;&gt;Node3 -->
<g id="edge5" class="edge">
<title>Node5&#45;&gt;Node3</title>
<path fill="none" stroke="midnightblue" d="M160.69,-50.1C148.09,-40.38 132.07,-28.03 121.45,-19.83"/>
<polygon fill="midnightblue" stroke="midnightblue" points="158.7,-52.99 168.75,-56.32 162.97,-47.44 158.7,-52.99"/>
</g>
<!-- Node6 -->
<g id="node6" class="node">
<title>Node6</title>
<g id="a_node6"><a xlink:href="../../d1/d13/node__updater_8cc.html" target="_top" xlink:title=" ">
<polygon fill="white" stroke="black" points="152,-0.5 152,-19.5 240,-19.5 240,-0.5 152,-0.5"/>
<text text-anchor="middle" x="196" y="-7.5" font-family="Helvetica,sans-Serif" font-size="10.00">node_updater.cc</text>
</a>
</g>
</g>
<!-- Node5&#45;&gt;Node6 -->
<g id="edge6" class="edge">
<title>Node5&#45;&gt;Node6</title>
<path fill="none" stroke="midnightblue" d="M185.51,-46.4C188.19,-37.36 191.28,-26.94 193.41,-19.75"/>
<polygon fill="midnightblue" stroke="midnightblue" points="182.13,-45.5 182.64,-56.08 188.84,-47.49 182.13,-45.5"/>
</g>
</g>
</svg>
