<?xml version="1.0" encoding="UTF-8" standalone="no"?>
<!DOCTYPE svg PUBLIC "-//W3C//DTD SVG 1.1//EN"
 "http://www.w3.org/Graphics/SVG/1.1/DTD/svg11.dtd">
<!-- Generated by graphviz version 2.42.3 ()
 -->
<!-- Title: connection.h Pages: 1 -->
<svg width="1213pt" height="252pt"
 viewBox="0.00 0.00 1213.16 252.00" xmlns="http://www.w3.org/2000/svg" xmlns:xlink="http://www.w3.org/1999/xlink">
<g id="graph0" class="graph" transform="scale(1 1) rotate(0) translate(4 248)">
<title>connection.h</title>
<polygon fill="white" stroke="transparent" points="-4,4 -4,-248 1209.16,-248 1209.16,4 -4,4"/>
<!-- Node1 -->
<g id="node1" class="node">
<title>Node1</title>
<g id="a_node1"><a xlink:title=" ">
<polygon fill="#bfbfbf" stroke="black" points="609.66,-224.5 609.66,-243.5 680.66,-243.5 680.66,-224.5 609.66,-224.5"/>
<text text-anchor="middle" x="645.16" y="-231.5" font-family="Helvetica,sans-Serif" font-size="10.00">connection.h</text>
</a>
</g>
</g>
<!-- Node2 -->
<g id="node2" class="node">
<title>Node2</title>
<g id="a_node2"><a xlink:href="../../d1/d31/acceptor_8h.html" target="_top" xlink:title=" ">
<polygon fill="white" stroke="black" points="534.16,-168.5 534.16,-187.5 596.16,-187.5 596.16,-168.5 534.16,-168.5"/>
<text text-anchor="middle" x="565.16" y="-175.5" font-family="Helvetica,sans-Serif" font-size="10.00">acceptor.h</text>
</a>
</g>
</g>
<!-- Node1&#45;&gt;Node2 -->
<g id="edge1" class="edge">
<title>Node1&#45;&gt;Node2</title>
<path fill="none" stroke="midnightblue" d="M623.86,-218.62C609.25,-208.76 590.33,-195.99 577.98,-187.65"/>
<polygon fill="midnightblue" stroke="midnightblue" points="622.06,-221.63 632.31,-224.32 625.98,-215.83 622.06,-221.63"/>
</g>
<!-- Node3 -->
<g id="node3" class="node">
<title>Node3</title>
<g id="a_node3"><a xlink:href="../../d3/ddf/simulated__connection_8h.html" target="_top" xlink:title=" ">
<polygon fill="white" stroke="black" points="139.66,-112.5 139.66,-131.5 258.66,-131.5 258.66,-112.5 139.66,-112.5"/>
<text text-anchor="middle" x="199.16" y="-119.5" font-family="Helvetica,sans-Serif" font-size="10.00">simulated_connection.h</text>
</a>
</g>
</g>
<!-- Node1&#45;&gt;Node3 -->
<g id="edge24" class="edge">
<title>Node1&#45;&gt;Node3</title>
<path fill="none" stroke="midnightblue" d="M600.76,-222.05C511.9,-200.13 313.85,-151.29 233.76,-131.53"/>
<polygon fill="midnightblue" stroke="midnightblue" points="599.99,-225.46 610.53,-224.46 601.66,-218.67 599.99,-225.46"/>
</g>
<!-- Node6 -->
<g id="node6" class="node">
<title>Node6</title>
<g id="a_node6"><a xlink:href="../../d8/d3f/tcp__implementation_8h.html" target="_top" xlink:title=" ">
<polygon fill="white" stroke="black" points="394.66,-112.5 394.66,-131.5 503.66,-131.5 503.66,-112.5 394.66,-112.5"/>
<text text-anchor="middle" x="449.16" y="-119.5" font-family="Helvetica,sans-Serif" font-size="10.00">tcp_implementation.h</text>
</a>
</g>
</g>
<!-- Node1&#45;&gt;Node6 -->
<g id="edge25" class="edge">
<title>Node1&#45;&gt;Node6</title>
<path fill="none" stroke="midnightblue" d="M603.66,-221.39C579.78,-213.76 549.72,-202.5 525.16,-188 497.65,-171.76 470.42,-145.29 457.29,-131.68"/>
<polygon fill="midnightblue" stroke="midnightblue" points="602.9,-224.82 613.49,-224.44 604.97,-218.13 602.9,-224.82"/>
</g>
<!-- Node11 -->
<g id="node11" class="node">
<title>Node11</title>
<g id="a_node11"><a xlink:href="../../d1/d77/node_8h.html" target="_top" xlink:title=" ">
<polygon fill="white" stroke="black" points="773.66,-112.5 773.66,-131.5 818.66,-131.5 818.66,-112.5 773.66,-112.5"/>
<text text-anchor="middle" x="796.16" y="-119.5" font-family="Helvetica,sans-Serif" font-size="10.00">node.h</text>
</a>
</g>
</g>
<!-- Node1&#45;&gt;Node11 -->
<g id="edge26" class="edge">
<title>Node1&#45;&gt;Node11</title>
<path fill="none" stroke="midnightblue" d="M658.42,-216.17C670.15,-202.05 688.29,-182.01 707.16,-168 728.15,-152.42 755.35,-139.56 774.12,-131.64"/>
<polygon fill="midnightblue" stroke="midnightblue" points="655.58,-214.12 651.99,-224.09 661.01,-218.53 655.58,-214.12"/>
</g>
<!-- Node19 -->
<g id="node19" class="node">
<title>Node19</title>
<g id="a_node19"><a xlink:href="../../d5/dcb/zmq__connection_8h.html" target="_top" xlink:title=" ">
<polygon fill="white" stroke="black" points="836.66,-112.5 836.66,-131.5 931.66,-131.5 931.66,-112.5 836.66,-112.5"/>
<text text-anchor="middle" x="884.16" y="-119.5" font-family="Helvetica,sans-Serif" font-size="10.00">zmq_connection.h</text>
</a>
</g>
</g>
<!-- Node1&#45;&gt;Node19 -->
<g id="edge31" class="edge">
<title>Node1&#45;&gt;Node19</title>
<path fill="none" stroke="midnightblue" d="M664.84,-218.51C687.89,-201.72 724.85,-175.42 740.16,-168 774.57,-151.32 816.57,-139.03 846.31,-131.54"/>
<polygon fill="midnightblue" stroke="midnightblue" points="662.77,-215.68 656.77,-224.41 666.91,-221.33 662.77,-215.68"/>
</g>
<!-- Node21 -->
<g id="node21" class="node">
<title>Node21</title>
<g id="a_node21"><a xlink:href="../../df/df6/eth__contract__raw_8h.html" target="_top" xlink:title=" ">
<polygon fill="white" stroke="black" points="606.66,-112.5 606.66,-131.5 705.66,-131.5 705.66,-112.5 606.66,-112.5"/>
<text text-anchor="middle" x="656.16" y="-119.5" font-family="Helvetica,sans-Serif" font-size="10.00">eth_contract_raw.h</text>
</a>
</g>
</g>
<!-- Node1&#45;&gt;Node21 -->
<g id="edge27" class="edge">
<title>Node1&#45;&gt;Node21</title>
<path fill="none" stroke="midnightblue" d="M647.03,-214.35C649.44,-190.25 653.53,-149.31 655.3,-131.59"/>
<polygon fill="midnightblue" stroke="midnightblue" points="643.54,-214.07 646.02,-224.37 650.5,-214.77 643.54,-214.07"/>
</g>
<!-- Node22 -->
<g id="node22" class="node">
<title>Node22</title>
<g id="a_node22"><a xlink:href="../../da/d98/connection_8cc.html" target="_top" xlink:title=" ">
<polygon fill="white" stroke="black" points="749.66,-168.5 749.66,-187.5 826.66,-187.5 826.66,-168.5 749.66,-168.5"/>
<text text-anchor="middle" x="788.16" y="-175.5" font-family="Helvetica,sans-Serif" font-size="10.00">connection.cc</text>
</a>
</g>
</g>
<!-- Node1&#45;&gt;Node22 -->
<g id="edge30" class="edge">
<title>Node1&#45;&gt;Node22</title>
<path fill="none" stroke="midnightblue" d="M677.19,-220.91C704.07,-210.75 741.8,-196.51 765.61,-187.52"/>
<polygon fill="midnightblue" stroke="midnightblue" points="675.94,-217.64 667.82,-224.44 678.41,-224.19 675.94,-217.64"/>
</g>
<!-- Node2&#45;&gt;Node3 -->
<g id="edge2" class="edge">
<title>Node2&#45;&gt;Node3</title>
<path fill="none" stroke="midnightblue" d="M524.04,-170.93C458.8,-161.31 331.39,-142.51 256.98,-131.53"/>
<polygon fill="midnightblue" stroke="midnightblue" points="523.55,-174.4 533.96,-172.4 524.57,-167.47 523.55,-174.4"/>
</g>
<!-- Node2&#45;&gt;Node6 -->
<g id="edge5" class="edge">
<title>Node2&#45;&gt;Node6</title>
<path fill="none" stroke="midnightblue" d="M537.44,-164.1C515.77,-154.01 486.26,-140.27 467.46,-131.52"/>
<polygon fill="midnightblue" stroke="midnightblue" points="536.24,-167.4 546.78,-168.44 539.19,-161.05 536.24,-167.4"/>
</g>
<!-- Node2&#45;&gt;Node11 -->
<g id="edge11" class="edge">
<title>Node2&#45;&gt;Node11</title>
<path fill="none" stroke="midnightblue" d="M606.23,-167.4C655.02,-155.99 734.67,-137.37 773.48,-128.3"/>
<polygon fill="midnightblue" stroke="midnightblue" points="605.26,-164.03 596.31,-169.72 606.85,-170.85 605.26,-164.03"/>
</g>
<!-- Node18 -->
<g id="node18" class="node">
<title>Node18</title>
<g id="a_node18"><a xlink:href="../../d5/d4e/acceptor_8cc.html" target="_top" xlink:title=" ">
<polygon fill="white" stroke="black" points="521.66,-112.5 521.66,-131.5 588.66,-131.5 588.66,-112.5 521.66,-112.5"/>
<text text-anchor="middle" x="555.16" y="-119.5" font-family="Helvetica,sans-Serif" font-size="10.00">acceptor.cc</text>
</a>
</g>
</g>
<!-- Node2&#45;&gt;Node18 -->
<g id="edge21" class="edge">
<title>Node2&#45;&gt;Node18</title>
<path fill="none" stroke="midnightblue" d="M561.66,-158.1C560,-149.14 558.1,-138.86 556.78,-131.75"/>
<polygon fill="midnightblue" stroke="midnightblue" points="558.25,-158.89 563.51,-168.08 565.13,-157.61 558.25,-158.89"/>
</g>
<!-- Node2&#45;&gt;Node19 -->
<g id="edge22" class="edge">
<title>Node2&#45;&gt;Node19</title>
<path fill="none" stroke="midnightblue" d="M606.41,-170.02C665.48,-160.02 773.9,-141.66 836.38,-131.09"/>
<polygon fill="midnightblue" stroke="midnightblue" points="605.6,-166.6 596.33,-171.72 606.77,-173.51 605.6,-166.6"/>
</g>
<!-- Node4 -->
<g id="node4" class="node">
<title>Node4</title>
<g id="a_node4"><a xlink:href="../../dd/de7/core_8cc.html" target="_top" xlink:title=" ">
<polygon fill="white" stroke="black" points="793.16,-0.5 793.16,-19.5 841.16,-19.5 841.16,-0.5 793.16,-0.5"/>
<text text-anchor="middle" x="817.16" y="-7.5" font-family="Helvetica,sans-Serif" font-size="10.00">core.cc</text>
</a>
</g>
</g>
<!-- Node3&#45;&gt;Node4 -->
<g id="edge3" class="edge">
<title>Node3&#45;&gt;Node4</title>
<path fill="none" stroke="midnightblue" d="M129.44,-117.96C60.59,-112.55 -29.15,-97.57 10.16,-56 37.76,-26.82 661.73,-13.84 793.04,-11.42"/>
<polygon fill="midnightblue" stroke="midnightblue" points="129.21,-121.45 139.43,-118.69 129.72,-114.47 129.21,-121.45"/>
</g>
<!-- Node5 -->
<g id="node5" class="node">
<title>Node5</title>
<g id="a_node5"><a xlink:href="../../d6/d86/simulated__connection_8cc.html" target="_top" xlink:title=" ">
<polygon fill="white" stroke="black" points="19.16,-56.5 19.16,-75.5 143.16,-75.5 143.16,-56.5 19.16,-56.5"/>
<text text-anchor="middle" x="81.16" y="-63.5" font-family="Helvetica,sans-Serif" font-size="10.00">simulated_connection.cc</text>
</a>
</g>
</g>
<!-- Node3&#45;&gt;Node5 -->
<g id="edge4" class="edge">
<title>Node3&#45;&gt;Node5</title>
<path fill="none" stroke="midnightblue" d="M171.26,-108.23C149.19,-98.13 118.98,-84.31 99.77,-75.52"/>
<polygon fill="midnightblue" stroke="midnightblue" points="169.91,-111.46 180.46,-112.44 172.83,-105.1 169.91,-111.46"/>
</g>
<!-- Node6&#45;&gt;Node4 -->
<g id="edge6" class="edge">
<title>Node6&#45;&gt;Node4</title>
<path fill="none" stroke="midnightblue" d="M447.49,-102.32C447.29,-87.58 449.68,-67.62 462.16,-56 510.24,-11.23 721.19,-9.72 793.07,-10.55"/>
<polygon fill="midnightblue" stroke="midnightblue" points="444,-102.55 448.03,-112.35 450.99,-102.18 444,-102.55"/>
</g>
<!-- Node7 -->
<g id="node7" class="node">
<title>Node7</title>
<g id="a_node7"><a xlink:href="../../d2/d4b/eth__contract__raw_8cc.html" target="_top" xlink:title=" ">
<polygon fill="white" stroke="black" points="471.16,-56.5 471.16,-75.5 575.16,-75.5 575.16,-56.5 471.16,-56.5"/>
<text text-anchor="middle" x="523.16" y="-63.5" font-family="Helvetica,sans-Serif" font-size="10.00">eth_contract_raw.cc</text>
</a>
</g>
</g>
<!-- Node6&#45;&gt;Node7 -->
<g id="edge7" class="edge">
<title>Node6&#45;&gt;Node7</title>
<path fill="none" stroke="midnightblue" d="M469.19,-106.38C482.57,-96.62 499.72,-84.11 511.05,-75.83"/>
<polygon fill="midnightblue" stroke="midnightblue" points="467.06,-103.6 461.05,-112.32 471.19,-109.26 467.06,-103.6"/>
</g>
<!-- Node8 -->
<g id="node8" class="node">
<title>Node8</title>
<g id="a_node8"><a xlink:href="../../df/d01/eth__contract__raw__test_8cc.html" target="_top" xlink:title=" ">
<polygon fill="white" stroke="black" points="593.16,-56.5 593.16,-75.5 719.16,-75.5 719.16,-56.5 593.16,-56.5"/>
<text text-anchor="middle" x="656.16" y="-63.5" font-family="Helvetica,sans-Serif" font-size="10.00">eth_contract_raw_test.cc</text>
</a>
</g>
</g>
<!-- Node6&#45;&gt;Node8 -->
<g id="edge8" class="edge">
<title>Node6&#45;&gt;Node8</title>
<path fill="none" stroke="midnightblue" d="M491.98,-109.83C531.07,-99.63 588,-84.78 623.51,-75.52"/>
<polygon fill="midnightblue" stroke="midnightblue" points="490.75,-106.53 481.96,-112.44 492.52,-113.31 490.75,-106.53"/>
</g>
<!-- Node9 -->
<g id="node9" class="node">
<title>Node9</title>
<g id="a_node9"><a xlink:href="../../d5/dc9/tcp__implementation_8cc.html" target="_top" xlink:title=" ">
<polygon fill="white" stroke="black" points="161.16,-56.5 161.16,-75.5 275.16,-75.5 275.16,-56.5 161.16,-56.5"/>
<text text-anchor="middle" x="218.16" y="-63.5" font-family="Helvetica,sans-Serif" font-size="10.00">tcp_implementation.cc</text>
</a>
</g>
</g>
<!-- Node6&#45;&gt;Node9 -->
<g id="edge9" class="edge">
<title>Node6&#45;&gt;Node9</title>
<path fill="none" stroke="midnightblue" d="M402.76,-110.15C359.11,-99.95 294.65,-84.88 254.59,-75.52"/>
<polygon fill="midnightblue" stroke="midnightblue" points="402.02,-113.58 412.56,-112.44 403.62,-106.76 402.02,-113.58"/>
</g>
<!-- Node10 -->
<g id="node10" class="node">
<title>Node10</title>
<g id="a_node10"><a xlink:href="../../d8/d4a/rpc__server__core__test_8cc.html" target="_top" xlink:title=" ">
<polygon fill="white" stroke="black" points="293.66,-56.5 293.66,-75.5 414.66,-75.5 414.66,-56.5 293.66,-56.5"/>
<text text-anchor="middle" x="354.16" y="-63.5" font-family="Helvetica,sans-Serif" font-size="10.00">rpc_server_core_test.cc</text>
</a>
</g>
</g>
<!-- Node6&#45;&gt;Node10 -->
<g id="edge10" class="edge">
<title>Node6&#45;&gt;Node10</title>
<path fill="none" stroke="midnightblue" d="M424.84,-107.18C407.36,-97.24 384.33,-84.15 369.39,-75.65"/>
<polygon fill="midnightblue" stroke="midnightblue" points="423.47,-110.43 433.9,-112.32 426.93,-104.34 423.47,-110.43"/>
</g>
<!-- Node11&#45;&gt;Node4 -->
<g id="edge18" class="edge">
<title>Node11&#45;&gt;Node4</title>
<path fill="none" stroke="midnightblue" d="M799.93,-102.48C801.56,-94.36 803.48,-84.71 805.16,-76 809.02,-55.94 813.31,-32.35 815.57,-19.84"/>
<polygon fill="midnightblue" stroke="midnightblue" points="796.48,-101.88 797.92,-112.38 803.34,-103.27 796.48,-101.88"/>
</g>
<!-- Node12 -->
<g id="node12" class="node">
<title>Node12</title>
<g id="a_node12"><a xlink:href="../../d9/d5a/lua__node_8h.html" target="_top" xlink:title=" ">
<polygon fill="white" stroke="black" points="853.66,-56.5 853.66,-75.5 916.66,-75.5 916.66,-56.5 853.66,-56.5"/>
<text text-anchor="middle" x="885.16" y="-63.5" font-family="Helvetica,sans-Serif" font-size="10.00">lua_node.h</text>
</a>
</g>
</g>
<!-- Node11&#45;&gt;Node12 -->
<g id="edge12" class="edge">
<title>Node11&#45;&gt;Node12</title>
<path fill="none" stroke="midnightblue" d="M819.4,-106.9C835.72,-97 857.03,-84.07 870.9,-75.65"/>
<polygon fill="midnightblue" stroke="midnightblue" points="817.19,-104.14 810.46,-112.32 820.82,-110.13 817.19,-104.14"/>
</g>
<!-- Node14 -->
<g id="node14" class="node">
<title>Node14</title>
<g id="a_node14"><a xlink:href="../../dc/d32/node__updater_8h.html" target="_top" xlink:title=" ">
<polygon fill="white" stroke="black" points="1003.66,-56.5 1003.66,-75.5 1086.66,-75.5 1086.66,-56.5 1003.66,-56.5"/>
<text text-anchor="middle" x="1045.16" y="-63.5" font-family="Helvetica,sans-Serif" font-size="10.00">node_updater.h</text>
</a>
</g>
</g>
<!-- Node11&#45;&gt;Node14 -->
<g id="edge15" class="edge">
<title>Node11&#45;&gt;Node14</title>
<path fill="none" stroke="midnightblue" d="M828.55,-111.79C894.75,-95.58 961.59,-82.44 1003.55,-74.58"/>
<polygon fill="midnightblue" stroke="midnightblue" points="827.66,-108.41 818.79,-114.21 829.34,-115.2 827.66,-108.41"/>
</g>
<!-- Node16 -->
<g id="node16" class="node">
<title>Node16</title>
<g id="a_node16"><a xlink:href="../../dc/dfd/node_8cc.html" target="_top" xlink:title=" ">
<polygon fill="white" stroke="black" points="935.16,-56.5 935.16,-75.5 985.16,-75.5 985.16,-56.5 935.16,-56.5"/>
<text text-anchor="middle" x="960.16" y="-63.5" font-family="Helvetica,sans-Serif" font-size="10.00">node.cc</text>
</a>
</g>
</g>
<!-- Node11&#45;&gt;Node16 -->
<g id="edge19" class="edge">
<title>Node11&#45;&gt;Node16</title>
<path fill="none" stroke="midnightblue" d="M828.54,-110.34C859.84,-100.03 906.59,-84.64 935.14,-75.24"/>
<polygon fill="midnightblue" stroke="midnightblue" points="827.37,-107.04 818.96,-113.49 829.56,-113.69 827.37,-107.04"/>
</g>
<!-- Node17 -->
<g id="node17" class="node">
<title>Node17</title>
<g id="a_node17"><a xlink:href="../../df/dd2/testnet_8cc.html" target="_top" xlink:title=" ">
<polygon fill="white" stroke="black" points="737.66,-56.5 737.66,-75.5 796.66,-75.5 796.66,-56.5 737.66,-56.5"/>
<text text-anchor="middle" x="767.16" y="-63.5" font-family="Helvetica,sans-Serif" font-size="10.00">testnet.cc</text>
</a>
</g>
</g>
<!-- Node11&#45;&gt;Node17 -->
<g id="edge20" class="edge">
<title>Node11&#45;&gt;Node17</title>
<path fill="none" stroke="midnightblue" d="M786.48,-102.98C781.56,-93.82 775.8,-83.09 771.86,-75.75"/>
<polygon fill="midnightblue" stroke="midnightblue" points="783.56,-104.93 791.37,-112.08 789.72,-101.62 783.56,-104.93"/>
</g>
<!-- Node12&#45;&gt;Node4 -->
<g id="edge13" class="edge">
<title>Node12&#45;&gt;Node4</title>
<path fill="none" stroke="midnightblue" d="M866.4,-50.1C854.16,-40.38 838.6,-28.03 828.28,-19.83"/>
<polygon fill="midnightblue" stroke="midnightblue" points="864.23,-52.85 874.24,-56.32 868.58,-47.36 864.23,-52.85"/>
</g>
<!-- Node13 -->
<g id="node13" class="node">
<title>Node13</title>
<g id="a_node13"><a xlink:href="../../db/d7e/lua__node_8cc.html" target="_top" xlink:title=" ">
<polygon fill="white" stroke="black" points="859.16,-0.5 859.16,-19.5 927.16,-19.5 927.16,-0.5 859.16,-0.5"/>
<text text-anchor="middle" x="893.16" y="-7.5" font-family="Helvetica,sans-Serif" font-size="10.00">lua_node.cc</text>
</a>
</g>
</g>
<!-- Node12&#45;&gt;Node13 -->
<g id="edge14" class="edge">
<title>Node12&#45;&gt;Node13</title>
<path fill="none" stroke="midnightblue" d="M887.96,-46.1C889.29,-37.14 890.81,-26.86 891.86,-19.75"/>
<polygon fill="midnightblue" stroke="midnightblue" points="884.48,-45.68 886.48,-56.08 891.41,-46.7 884.48,-45.68"/>
</g>
<!-- Node14&#45;&gt;Node4 -->
<g id="edge16" class="edge">
<title>Node14&#45;&gt;Node4</title>
<path fill="none" stroke="midnightblue" d="M996.3,-54.29C956.78,-45.48 899.75,-32.48 850.16,-20 847.28,-19.28 844.27,-18.49 841.28,-17.7"/>
<polygon fill="midnightblue" stroke="midnightblue" points="995.68,-57.73 1006.2,-56.48 997.2,-50.9 995.68,-57.73"/>
</g>
<!-- Node15 -->
<g id="node15" class="node">
<title>Node15</title>
<g id="a_node15"><a xlink:href="../../d1/d13/node__updater_8cc.html" target="_top" xlink:title=" ">
<polygon fill="white" stroke="black" points="1001.16,-0.5 1001.16,-19.5 1089.16,-19.5 1089.16,-0.5 1001.16,-0.5"/>
<text text-anchor="middle" x="1045.16" y="-7.5" font-family="Helvetica,sans-Serif" font-size="10.00">node_updater.cc</text>
</a>
</g>
</g>
<!-- Node14&#45;&gt;Node15 -->
<g id="edge17" class="edge">
<title>Node14&#45;&gt;Node15</title>
<path fill="none" stroke="midnightblue" d="M1045.16,-45.8C1045.16,-36.91 1045.16,-26.78 1045.16,-19.75"/>
<polygon fill="midnightblue" stroke="midnightblue" points="1041.66,-46.08 1045.16,-56.08 1048.66,-46.08 1041.66,-46.08"/>
</g>
<!-- Node20 -->
<g id="node20" class="node">
<title>Node20</title>
<g id="a_node20"><a xlink:href="../../d1/d34/zmq__connection_8cc.html" target="_top" xlink:title=" ">
<polygon fill="white" stroke="black" points="1105.16,-56.5 1105.16,-75.5 1205.16,-75.5 1205.16,-56.5 1105.16,-56.5"/>
<text text-anchor="middle" x="1155.16" y="-63.5" font-family="Helvetica,sans-Serif" font-size="10.00">zmq_connection.cc</text>
</a>
</g>
</g>
<!-- Node19&#45;&gt;Node20 -->
<g id="edge23" class="edge">
<title>Node19&#45;&gt;Node20</title>
<path fill="none" stroke="midnightblue" d="M936.99,-110.47C988.21,-100.27 1064.93,-84.98 1112.42,-75.52"/>
<polygon fill="midnightblue" stroke="midnightblue" points="936.22,-107.06 927.1,-112.44 937.59,-113.92 936.22,-107.06"/>
</g>
<!-- Node21&#45;&gt;Node7 -->
<g id="edge28" class="edge">
<title>Node21&#45;&gt;Node7</title>
<path fill="none" stroke="midnightblue" d="M625.71,-108.64C600.75,-98.5 566.08,-84.43 544.14,-75.52"/>
<polygon fill="midnightblue" stroke="midnightblue" points="624.5,-111.92 635.09,-112.44 627.14,-105.44 624.5,-111.92"/>
</g>
<!-- Node21&#45;&gt;Node8 -->
<g id="edge29" class="edge">
<title>Node21&#45;&gt;Node8</title>
<path fill="none" stroke="midnightblue" d="M656.16,-101.8C656.16,-92.91 656.16,-82.78 656.16,-75.75"/>
<polygon fill="midnightblue" stroke="midnightblue" points="652.66,-102.08 656.16,-112.08 659.66,-102.08 652.66,-102.08"/>
</g>
</g>
</svg>
