<?xml version="1.0" encoding="UTF-8" standalone="no"?>
<!DOCTYPE svg PUBLIC "-//W3C//DTD SVG 1.1//EN"
 "http://www.w3.org/Graphics/SVG/1.1/DTD/svg11.dtd">
<!-- Generated by graphviz version 2.42.3 ()
 -->
<!-- Title: connection.h Pages: 1 -->
<svg width="1214pt" height="252pt"
 viewBox="0.00 0.00 1213.68 252.00" xmlns="http://www.w3.org/2000/svg" xmlns:xlink="http://www.w3.org/1999/xlink">
<g id="graph0" class="graph" transform="scale(1 1) rotate(0) translate(4 248)">
<title>connection.h</title>
<polygon fill="white" stroke="transparent" points="-4,4 -4,-248 1209.68,-248 1209.68,4 -4,4"/>
<!-- Node1 -->
<g id="node1" class="node">
<title>Node1</title>
<g id="a_node1"><a xlink:title=" ">
<polygon fill="#bfbfbf" stroke="black" points="674.18,-224.5 674.18,-243.5 745.18,-243.5 745.18,-224.5 674.18,-224.5"/>
<text text-anchor="middle" x="709.68" y="-231.5" font-family="Helvetica,sans-Serif" font-size="10.00">connection.h</text>
</a>
</g>
</g>
<!-- Node2 -->
<g id="node2" class="node">
<title>Node2</title>
<g id="a_node2"><a xlink:href="../../d1/d31/acceptor_8h.html" target="_top" xlink:title=" ">
<polygon fill="white" stroke="black" points="566.68,-168.5 566.68,-187.5 628.68,-187.5 628.68,-168.5 566.68,-168.5"/>
<text text-anchor="middle" x="597.68" y="-175.5" font-family="Helvetica,sans-Serif" font-size="10.00">acceptor.h</text>
</a>
</g>
</g>
<!-- Node1&#45;&gt;Node2 -->
<g id="edge1" class="edge">
<title>Node1&#45;&gt;Node2</title>
<path fill="none" stroke="midnightblue" d="M682.43,-219.86C661.66,-209.85 633.65,-196.35 615.63,-187.65"/>
<polygon fill="midnightblue" stroke="midnightblue" points="681.15,-223.13 691.68,-224.32 684.19,-216.83 681.15,-223.13"/>
</g>
<!-- Node3 -->
<g id="node3" class="node">
<title>Node3</title>
<g id="a_node3"><a xlink:href="../../d3/ddf/simulated__connection_8h.html" target="_top" xlink:title=" ">
<polygon fill="white" stroke="black" points="151.18,-112.5 151.18,-131.5 270.18,-131.5 270.18,-112.5 151.18,-112.5"/>
<text text-anchor="middle" x="210.68" y="-119.5" font-family="Helvetica,sans-Serif" font-size="10.00">simulated_connection.h</text>
</a>
</g>
</g>
<!-- Node1&#45;&gt;Node3 -->
<g id="edge24" class="edge">
<title>Node1&#45;&gt;Node3</title>
<path fill="none" stroke="midnightblue" d="M663.94,-222.92C566.53,-201.44 340.04,-151.52 249.3,-131.51"/>
<polygon fill="midnightblue" stroke="midnightblue" points="663.27,-226.35 673.79,-225.09 664.78,-219.52 663.27,-226.35"/>
</g>
<!-- Node6 -->
<g id="node6" class="node">
<title>Node6</title>
<g id="a_node6"><a xlink:href="../../d8/d3f/tcp__implementation_8h.html" target="_top" xlink:title=" ">
<polygon fill="white" stroke="black" points="416.18,-112.5 416.18,-131.5 525.18,-131.5 525.18,-112.5 416.18,-112.5"/>
<text text-anchor="middle" x="470.68" y="-119.5" font-family="Helvetica,sans-Serif" font-size="10.00">tcp_implementation.h</text>
</a>
</g>
</g>
<!-- Node1&#45;&gt;Node6 -->
<g id="edge25" class="edge">
<title>Node1&#45;&gt;Node6</title>
<path fill="none" stroke="midnightblue" d="M663.84,-223.9C632.82,-216.68 591.49,-204.96 557.68,-188 526.66,-172.45 495.29,-145.67 480.09,-131.84"/>
<polygon fill="midnightblue" stroke="midnightblue" points="663.41,-227.39 673.94,-226.17 664.95,-220.56 663.41,-227.39"/>
</g>
<!-- Node11 -->
<g id="node11" class="node">
<title>Node11</title>
<g id="a_node11"><a xlink:href="../../d1/d77/node_8h.html" target="_top" xlink:title=" ">
<polygon fill="white" stroke="black" points="745.18,-112.5 745.18,-131.5 790.18,-131.5 790.18,-112.5 745.18,-112.5"/>
<text text-anchor="middle" x="767.68" y="-119.5" font-family="Helvetica,sans-Serif" font-size="10.00">node.h</text>
</a>
</g>
</g>
<!-- Node1&#45;&gt;Node11 -->
<g id="edge26" class="edge">
<title>Node1&#45;&gt;Node11</title>
<path fill="none" stroke="midnightblue" d="M719,-215.32C731.63,-191.37 753.68,-149.55 763.15,-131.59"/>
<polygon fill="midnightblue" stroke="midnightblue" points="715.8,-213.89 714.23,-224.37 721.99,-217.16 715.8,-213.89"/>
</g>
<!-- Node19 -->
<g id="node19" class="node">
<title>Node19</title>
<g id="a_node19"><a xlink:href="../../d5/dcb/zmq__connection_8h.html" target="_top" xlink:title=" ">
<polygon fill="white" stroke="black" points="808.18,-112.5 808.18,-131.5 903.18,-131.5 903.18,-112.5 808.18,-112.5"/>
<text text-anchor="middle" x="855.68" y="-119.5" font-family="Helvetica,sans-Serif" font-size="10.00">zmq_connection.h</text>
</a>
</g>
</g>
<!-- Node1&#45;&gt;Node19 -->
<g id="edge34" class="edge">
<title>Node1&#45;&gt;Node19</title>
<path fill="none" stroke="midnightblue" d="M729.43,-218.12C760.42,-194.77 819.48,-150.27 844.27,-131.59"/>
<polygon fill="midnightblue" stroke="midnightblue" points="727.01,-215.56 721.13,-224.37 731.23,-221.15 727.01,-215.56"/>
</g>
<!-- Node21 -->
<g id="node21" class="node">
<title>Node21</title>
<g id="a_node21"><a xlink:href="../../de/de4/eth__contract__curl_8h.html" target="_top" xlink:title=" ">
<polygon fill="white" stroke="black" points="898.18,-168.5 898.18,-187.5 997.18,-187.5 997.18,-168.5 898.18,-168.5"/>
<text text-anchor="middle" x="947.68" y="-175.5" font-family="Helvetica,sans-Serif" font-size="10.00">eth_contract_curl.h</text>
</a>
</g>
</g>
<!-- Node1&#45;&gt;Node21 -->
<g id="edge27" class="edge">
<title>Node1&#45;&gt;Node21</title>
<path fill="none" stroke="midnightblue" d="M755.07,-222.7C799.94,-212.52 867.79,-197.13 909.83,-187.59"/>
<polygon fill="midnightblue" stroke="midnightblue" points="754.28,-219.29 745.31,-224.92 755.83,-226.12 754.28,-219.29"/>
</g>
<!-- Node24 -->
<g id="node24" class="node">
<title>Node24</title>
<g id="a_node24"><a xlink:href="../../df/df6/eth__contract__raw_8h.html" target="_top" xlink:title=" ">
<polygon fill="white" stroke="black" points="628.18,-112.5 628.18,-131.5 727.18,-131.5 727.18,-112.5 628.18,-112.5"/>
<text text-anchor="middle" x="677.68" y="-119.5" font-family="Helvetica,sans-Serif" font-size="10.00">eth_contract_raw.h</text>
</a>
</g>
</g>
<!-- Node1&#45;&gt;Node24 -->
<g id="edge30" class="edge">
<title>Node1&#45;&gt;Node24</title>
<path fill="none" stroke="midnightblue" d="M704.34,-214.67C697.35,-190.62 685.35,-149.39 680.18,-131.59"/>
<polygon fill="midnightblue" stroke="midnightblue" points="701.01,-215.74 707.17,-224.37 707.73,-213.79 701.01,-215.74"/>
</g>
<!-- Node25 -->
<g id="node25" class="node">
<title>Node25</title>
<g id="a_node25"><a xlink:href="../../da/d98/connection_8cc.html" target="_top" xlink:title=" ">
<polygon fill="white" stroke="black" points="1015.18,-168.5 1015.18,-187.5 1092.18,-187.5 1092.18,-168.5 1015.18,-168.5"/>
<text text-anchor="middle" x="1053.68" y="-175.5" font-family="Helvetica,sans-Serif" font-size="10.00">connection.cc</text>
</a>
</g>
</g>
<!-- Node1&#45;&gt;Node25 -->
<g id="edge33" class="edge">
<title>Node1&#45;&gt;Node25</title>
<path fill="none" stroke="midnightblue" d="M755.42,-226.63C813.82,-218.37 917.94,-203.21 1006.68,-188 1009.38,-187.54 1012.16,-187.04 1014.97,-186.54"/>
<polygon fill="midnightblue" stroke="midnightblue" points="754.82,-223.18 745.41,-228.04 755.8,-230.11 754.82,-223.18"/>
</g>
<!-- Node2&#45;&gt;Node3 -->
<g id="edge2" class="edge">
<title>Node2&#45;&gt;Node3</title>
<path fill="none" stroke="midnightblue" d="M556.67,-171.28C488.11,-161.71 349.91,-142.43 270.49,-131.35"/>
<polygon fill="midnightblue" stroke="midnightblue" points="556.27,-174.76 566.66,-172.67 557.24,-167.82 556.27,-174.76"/>
</g>
<!-- Node2&#45;&gt;Node6 -->
<g id="edge5" class="edge">
<title>Node2&#45;&gt;Node6</title>
<path fill="none" stroke="midnightblue" d="M568.28,-164.5C544.48,-154.38 511.57,-140.39 490.71,-131.52"/>
<polygon fill="midnightblue" stroke="midnightblue" points="566.98,-167.75 577.55,-168.44 569.72,-161.31 566.98,-167.75"/>
</g>
<!-- Node2&#45;&gt;Node11 -->
<g id="edge11" class="edge">
<title>Node2&#45;&gt;Node11</title>
<path fill="none" stroke="midnightblue" d="M634.52,-165.3C668.12,-154.62 716.7,-139.19 744.95,-130.22"/>
<polygon fill="midnightblue" stroke="midnightblue" points="633.08,-162.08 624.61,-168.44 635.2,-168.75 633.08,-162.08"/>
</g>
<!-- Node18 -->
<g id="node18" class="node">
<title>Node18</title>
<g id="a_node18"><a xlink:href="../../d5/d4e/acceptor_8cc.html" target="_top" xlink:title=" ">
<polygon fill="white" stroke="black" points="543.18,-112.5 543.18,-131.5 610.18,-131.5 610.18,-112.5 543.18,-112.5"/>
<text text-anchor="middle" x="576.68" y="-119.5" font-family="Helvetica,sans-Serif" font-size="10.00">acceptor.cc</text>
</a>
</g>
</g>
<!-- Node2&#45;&gt;Node18 -->
<g id="edge21" class="edge">
<title>Node2&#45;&gt;Node18</title>
<path fill="none" stroke="midnightblue" d="M590.56,-158.69C587.02,-149.59 582.9,-139.01 580.08,-131.75"/>
<polygon fill="midnightblue" stroke="midnightblue" points="587.32,-160.03 594.21,-168.08 593.85,-157.49 587.32,-160.03"/>
</g>
<!-- Node2&#45;&gt;Node19 -->
<g id="edge22" class="edge">
<title>Node2&#45;&gt;Node19</title>
<path fill="none" stroke="midnightblue" d="M638.89,-168.37C687.12,-158.28 766.52,-141.66 814.66,-131.58"/>
<polygon fill="midnightblue" stroke="midnightblue" points="637.87,-165.01 628.8,-170.49 639.3,-171.86 637.87,-165.01"/>
</g>
<!-- Node4 -->
<g id="node4" class="node">
<title>Node4</title>
<g id="a_node4"><a xlink:href="../../dd/de7/core_8cc.html" target="_top" xlink:title=" ">
<polygon fill="white" stroke="black" points="793.68,-0.5 793.68,-19.5 841.68,-19.5 841.68,-0.5 793.68,-0.5"/>
<text text-anchor="middle" x="817.68" y="-7.5" font-family="Helvetica,sans-Serif" font-size="10.00">core.cc</text>
</a>
</g>
</g>
<!-- Node3&#45;&gt;Node4 -->
<g id="edge3" class="edge">
<title>Node3&#45;&gt;Node4</title>
<path fill="none" stroke="midnightblue" d="M140.89,-119.02C67.66,-114.61 -31.43,-100.52 10.68,-56 38.28,-26.82 662.25,-13.84 793.56,-11.42"/>
<polygon fill="midnightblue" stroke="midnightblue" points="140.86,-122.53 151.04,-119.59 141.25,-115.54 140.86,-122.53"/>
</g>
<!-- Node5 -->
<g id="node5" class="node">
<title>Node5</title>
<g id="a_node5"><a xlink:href="../../d6/d86/simulated__connection_8cc.html" target="_top" xlink:title=" ">
<polygon fill="white" stroke="black" points="19.68,-56.5 19.68,-75.5 143.68,-75.5 143.68,-56.5 19.68,-56.5"/>
<text text-anchor="middle" x="81.68" y="-63.5" font-family="Helvetica,sans-Serif" font-size="10.00">simulated_connection.cc</text>
</a>
</g>
</g>
<!-- Node3&#45;&gt;Node5 -->
<g id="edge4" class="edge">
<title>Node3&#45;&gt;Node5</title>
<path fill="none" stroke="midnightblue" d="M180.82,-108.5C156.64,-98.38 123.21,-84.39 102.02,-75.52"/>
<polygon fill="midnightblue" stroke="midnightblue" points="179.66,-111.81 190.24,-112.44 182.36,-105.35 179.66,-111.81"/>
</g>
<!-- Node6&#45;&gt;Node4 -->
<g id="edge6" class="edge">
<title>Node6&#45;&gt;Node4</title>
<path fill="none" stroke="midnightblue" d="M461.67,-102.81C455.97,-88.39 451.55,-68.63 462.68,-56 484.63,-31.09 717.41,-16.41 793.65,-12.24"/>
<polygon fill="midnightblue" stroke="midnightblue" points="458.58,-104.48 465.85,-112.19 464.98,-101.63 458.58,-104.48"/>
</g>
<!-- Node7 -->
<g id="node7" class="node">
<title>Node7</title>
<g id="a_node7"><a xlink:href="../../d2/d4b/eth__contract__raw_8cc.html" target="_top" xlink:title=" ">
<polygon fill="white" stroke="black" points="471.68,-56.5 471.68,-75.5 575.68,-75.5 575.68,-56.5 471.68,-56.5"/>
<text text-anchor="middle" x="523.68" y="-63.5" font-family="Helvetica,sans-Serif" font-size="10.00">eth_contract_raw.cc</text>
</a>
</g>
</g>
<!-- Node6&#45;&gt;Node7 -->
<g id="edge7" class="edge">
<title>Node6&#45;&gt;Node7</title>
<path fill="none" stroke="midnightblue" d="M486.66,-104.72C496,-95.2 507.42,-83.56 515.09,-75.75"/>
<polygon fill="midnightblue" stroke="midnightblue" points="483.93,-102.49 479.43,-112.08 488.93,-107.4 483.93,-102.49"/>
</g>
<!-- Node8 -->
<g id="node8" class="node">
<title>Node8</title>
<g id="a_node8"><a xlink:href="../../df/d01/eth__contract__raw__test_8cc.html" target="_top" xlink:title=" ">
<polygon fill="white" stroke="black" points="593.68,-56.5 593.68,-75.5 719.68,-75.5 719.68,-56.5 593.68,-56.5"/>
<text text-anchor="middle" x="656.68" y="-63.5" font-family="Helvetica,sans-Serif" font-size="10.00">eth_contract_raw_test.cc</text>
</a>
</g>
</g>
<!-- Node6&#45;&gt;Node8 -->
<g id="edge8" class="edge">
<title>Node6&#45;&gt;Node8</title>
<path fill="none" stroke="midnightblue" d="M510.05,-109.57C545.14,-99.38 595.7,-84.7 627.34,-75.52"/>
<polygon fill="midnightblue" stroke="midnightblue" points="508.78,-106.29 500.15,-112.44 510.73,-113.02 508.78,-106.29"/>
</g>
<!-- Node9 -->
<g id="node9" class="node">
<title>Node9</title>
<g id="a_node9"><a xlink:href="../../d5/dc9/tcp__implementation_8cc.html" target="_top" xlink:title=" ">
<polygon fill="white" stroke="black" points="161.68,-56.5 161.68,-75.5 275.68,-75.5 275.68,-56.5 161.68,-56.5"/>
<text text-anchor="middle" x="218.68" y="-63.5" font-family="Helvetica,sans-Serif" font-size="10.00">tcp_implementation.cc</text>
</a>
</g>
</g>
<!-- Node6&#45;&gt;Node9 -->
<g id="edge9" class="edge">
<title>Node6&#45;&gt;Node9</title>
<path fill="none" stroke="midnightblue" d="M420.96,-110.35C373.33,-100.14 302.4,-84.94 258.42,-75.52"/>
<polygon fill="midnightblue" stroke="midnightblue" points="420.23,-113.77 430.75,-112.44 421.7,-106.93 420.23,-113.77"/>
</g>
<!-- Node10 -->
<g id="node10" class="node">
<title>Node10</title>
<g id="a_node10"><a xlink:href="../../d8/d4a/rpc__server__core__test_8cc.html" target="_top" xlink:title=" ">
<polygon fill="white" stroke="black" points="294.18,-56.5 294.18,-75.5 415.18,-75.5 415.18,-56.5 294.18,-56.5"/>
<text text-anchor="middle" x="354.68" y="-63.5" font-family="Helvetica,sans-Serif" font-size="10.00">rpc_server_core_test.cc</text>
</a>
</g>
</g>
<!-- Node6&#45;&gt;Node10 -->
<g id="edge10" class="edge">
<title>Node6&#45;&gt;Node10</title>
<path fill="none" stroke="midnightblue" d="M442.96,-108.1C421.28,-98.01 391.77,-84.27 372.97,-75.52"/>
<polygon fill="midnightblue" stroke="midnightblue" points="441.75,-111.4 452.3,-112.44 444.71,-105.05 441.75,-111.4"/>
</g>
<!-- Node11&#45;&gt;Node4 -->
<g id="edge18" class="edge">
<title>Node11&#45;&gt;Node4</title>
<path fill="none" stroke="midnightblue" d="M784.59,-105.17C792.18,-97.14 800.56,-86.81 805.68,-76 814.51,-57.33 816.85,-32.78 817.47,-19.85"/>
<polygon fill="midnightblue" stroke="midnightblue" points="782,-102.81 777.42,-112.37 786.96,-107.76 782,-102.81"/>
</g>
<!-- Node12 -->
<g id="node12" class="node">
<title>Node12</title>
<g id="a_node12"><a xlink:href="../../d9/d5a/lua__node_8h.html" target="_top" xlink:title=" ">
<polygon fill="white" stroke="black" points="854.18,-56.5 854.18,-75.5 917.18,-75.5 917.18,-56.5 854.18,-56.5"/>
<text text-anchor="middle" x="885.68" y="-63.5" font-family="Helvetica,sans-Serif" font-size="10.00">lua_node.h</text>
</a>
</g>
</g>
<!-- Node11&#45;&gt;Node12 -->
<g id="edge12" class="edge">
<title>Node11&#45;&gt;Node12</title>
<path fill="none" stroke="midnightblue" d="M795.58,-108.23C817.65,-98.13 847.85,-84.31 867.07,-75.52"/>
<polygon fill="midnightblue" stroke="midnightblue" points="794.01,-105.1 786.37,-112.44 796.92,-111.46 794.01,-105.1"/>
</g>
<!-- Node14 -->
<g id="node14" class="node">
<title>Node14</title>
<g id="a_node14"><a xlink:href="../../dc/d32/node__updater_8h.html" target="_top" xlink:title=" ">
<polygon fill="white" stroke="black" points="1004.18,-56.5 1004.18,-75.5 1087.18,-75.5 1087.18,-56.5 1004.18,-56.5"/>
<text text-anchor="middle" x="1045.68" y="-63.5" font-family="Helvetica,sans-Serif" font-size="10.00">node_updater.h</text>
</a>
</g>
</g>
<!-- Node11&#45;&gt;Node14 -->
<g id="edge15" class="edge">
<title>Node11&#45;&gt;Node14</title>
<path fill="none" stroke="midnightblue" d="M800.24,-111.93C839.99,-103.51 944.86,-84.82 1004.01,-74.35"/>
<polygon fill="midnightblue" stroke="midnightblue" points="799.29,-108.55 790.29,-114.14 800.81,-115.38 799.29,-108.55"/>
</g>
<!-- Node16 -->
<g id="node16" class="node">
<title>Node16</title>
<g id="a_node16"><a xlink:href="../../dc/dfd/node_8cc.html" target="_top" xlink:title=" ">
<polygon fill="white" stroke="black" points="935.68,-56.5 935.68,-75.5 985.68,-75.5 985.68,-56.5 935.68,-56.5"/>
<text text-anchor="middle" x="960.68" y="-63.5" font-family="Helvetica,sans-Serif" font-size="10.00">node.cc</text>
</a>
</g>
</g>
<!-- Node11&#45;&gt;Node16 -->
<g id="edge19" class="edge">
<title>Node11&#45;&gt;Node16</title>
<path fill="none" stroke="midnightblue" d="M799.99,-111.65C853.46,-96.49 905.63,-82.1 935.67,-73.85"/>
<polygon fill="midnightblue" stroke="midnightblue" points="799.02,-108.28 790.35,-114.38 800.93,-115.02 799.02,-108.28"/>
</g>
<!-- Node17 -->
<g id="node17" class="node">
<title>Node17</title>
<g id="a_node17"><a xlink:href="../../df/dd2/testnet_8cc.html" target="_top" xlink:title=" ">
<polygon fill="white" stroke="black" points="738.18,-56.5 738.18,-75.5 797.18,-75.5 797.18,-56.5 738.18,-56.5"/>
<text text-anchor="middle" x="767.68" y="-63.5" font-family="Helvetica,sans-Serif" font-size="10.00">testnet.cc</text>
</a>
</g>
</g>
<!-- Node11&#45;&gt;Node17 -->
<g id="edge20" class="edge">
<title>Node11&#45;&gt;Node17</title>
<path fill="none" stroke="midnightblue" d="M767.68,-101.8C767.68,-92.91 767.68,-82.78 767.68,-75.75"/>
<polygon fill="midnightblue" stroke="midnightblue" points="764.18,-102.08 767.68,-112.08 771.18,-102.08 764.18,-102.08"/>
</g>
<!-- Node12&#45;&gt;Node4 -->
<g id="edge13" class="edge">
<title>Node12&#45;&gt;Node4</title>
<path fill="none" stroke="midnightblue" d="M866.91,-50.1C854.68,-40.38 839.12,-28.03 828.8,-19.83"/>
<polygon fill="midnightblue" stroke="midnightblue" points="864.74,-52.85 874.75,-56.32 869.1,-47.36 864.74,-52.85"/>
</g>
<!-- Node13 -->
<g id="node13" class="node">
<title>Node13</title>
<g id="a_node13"><a xlink:href="../../db/d7e/lua__node_8cc.html" target="_top" xlink:title=" ">
<polygon fill="white" stroke="black" points="859.68,-0.5 859.68,-19.5 927.68,-19.5 927.68,-0.5 859.68,-0.5"/>
<text text-anchor="middle" x="893.68" y="-7.5" font-family="Helvetica,sans-Serif" font-size="10.00">lua_node.cc</text>
</a>
</g>
</g>
<!-- Node12&#45;&gt;Node13 -->
<g id="edge14" class="edge">
<title>Node12&#45;&gt;Node13</title>
<path fill="none" stroke="midnightblue" d="M888.48,-46.1C889.8,-37.14 891.33,-26.86 892.38,-19.75"/>
<polygon fill="midnightblue" stroke="midnightblue" points="885,-45.68 887,-56.08 891.92,-46.7 885,-45.68"/>
</g>
<!-- Node14&#45;&gt;Node4 -->
<g id="edge16" class="edge">
<title>Node14&#45;&gt;Node4</title>
<path fill="none" stroke="midnightblue" d="M996.81,-54.29C957.3,-45.48 900.27,-32.48 850.68,-20 847.8,-19.28 844.78,-18.49 841.8,-17.7"/>
<polygon fill="midnightblue" stroke="midnightblue" points="996.2,-57.73 1006.72,-56.48 997.72,-50.9 996.2,-57.73"/>
</g>
<!-- Node15 -->
<g id="node15" class="node">
<title>Node15</title>
<g id="a_node15"><a xlink:href="../../d1/d13/node__updater_8cc.html" target="_top" xlink:title=" ">
<polygon fill="white" stroke="black" points="1001.68,-0.5 1001.68,-19.5 1089.68,-19.5 1089.68,-0.5 1001.68,-0.5"/>
<text text-anchor="middle" x="1045.68" y="-7.5" font-family="Helvetica,sans-Serif" font-size="10.00">node_updater.cc</text>
</a>
</g>
</g>
<!-- Node14&#45;&gt;Node15 -->
<g id="edge17" class="edge">
<title>Node14&#45;&gt;Node15</title>
<path fill="none" stroke="midnightblue" d="M1045.68,-45.8C1045.68,-36.91 1045.68,-26.78 1045.68,-19.75"/>
<polygon fill="midnightblue" stroke="midnightblue" points="1042.18,-46.08 1045.68,-56.08 1049.18,-46.08 1042.18,-46.08"/>
</g>
<!-- Node20 -->
<g id="node20" class="node">
<title>Node20</title>
<g id="a_node20"><a xlink:href="../../d1/d34/zmq__connection_8cc.html" target="_top" xlink:title=" ">
<polygon fill="white" stroke="black" points="1105.68,-56.5 1105.68,-75.5 1205.68,-75.5 1205.68,-56.5 1105.68,-56.5"/>
<text text-anchor="middle" x="1155.68" y="-63.5" font-family="Helvetica,sans-Serif" font-size="10.00">zmq_connection.cc</text>
</a>
</g>
</g>
<!-- Node19&#45;&gt;Node20 -->
<g id="edge23" class="edge">
<title>Node19&#45;&gt;Node20</title>
<path fill="none" stroke="midnightblue" d="M913.1,-110.66C969.79,-100.46 1055.46,-85.04 1108.36,-75.52"/>
<polygon fill="midnightblue" stroke="midnightblue" points="912.43,-107.23 903.21,-112.44 913.67,-114.12 912.43,-107.23"/>
</g>
<!-- Node22 -->
<g id="node22" class="node">
<title>Node22</title>
<g id="a_node22"><a xlink:href="../../d8/da6/eth__contract__curl_8cc.html" target="_top" xlink:title=" ">
<polygon fill="white" stroke="black" points="921.68,-112.5 921.68,-131.5 1025.68,-131.5 1025.68,-112.5 921.68,-112.5"/>
<text text-anchor="middle" x="973.68" y="-119.5" font-family="Helvetica,sans-Serif" font-size="10.00">eth_contract_curl.cc</text>
</a>
</g>
</g>
<!-- Node21&#45;&gt;Node22 -->
<g id="edge28" class="edge">
<title>Node21&#45;&gt;Node22</title>
<path fill="none" stroke="midnightblue" d="M956.35,-158.98C960.76,-149.82 965.93,-139.09 969.46,-131.75"/>
<polygon fill="midnightblue" stroke="midnightblue" points="953.15,-157.55 951.97,-168.08 959.46,-160.59 953.15,-157.55"/>
</g>
<!-- Node23 -->
<g id="node23" class="node">
<title>Node23</title>
<g id="a_node23"><a xlink:href="../../d4/d57/eth__contract__curl__test_8cc.html" target="_top" xlink:title=" ">
<polygon fill="white" stroke="black" points="1043.68,-112.5 1043.68,-131.5 1169.68,-131.5 1169.68,-112.5 1043.68,-112.5"/>
<text text-anchor="middle" x="1106.68" y="-119.5" font-family="Helvetica,sans-Serif" font-size="10.00">eth_contract_curl_test.cc</text>
</a>
</g>
</g>
<!-- Node21&#45;&gt;Node23 -->
<g id="edge29" class="edge">
<title>Node21&#45;&gt;Node23</title>
<path fill="none" stroke="midnightblue" d="M982.5,-165.17C1012.44,-155 1054.9,-140.59 1081.6,-131.52"/>
<polygon fill="midnightblue" stroke="midnightblue" points="981.21,-161.91 972.87,-168.44 983.46,-168.54 981.21,-161.91"/>
</g>
<!-- Node24&#45;&gt;Node7 -->
<g id="edge31" class="edge">
<title>Node24&#45;&gt;Node7</title>
<path fill="none" stroke="midnightblue" d="M643.57,-109.04C614.59,-98.88 573.71,-84.55 547.96,-75.52"/>
<polygon fill="midnightblue" stroke="midnightblue" points="642.68,-112.44 653.27,-112.44 645,-105.83 642.68,-112.44"/>
</g>
<!-- Node24&#45;&gt;Node8 -->
<g id="edge32" class="edge">
<title>Node24&#45;&gt;Node8</title>
<path fill="none" stroke="midnightblue" d="M670.56,-102.69C667.02,-93.59 662.9,-83.01 660.08,-75.75"/>
<polygon fill="midnightblue" stroke="midnightblue" points="667.32,-104.03 674.21,-112.08 673.85,-101.49 667.32,-104.03"/>
</g>
</g>
</svg>
