<?xml version="1.0" encoding="UTF-8" standalone="no"?>
<!DOCTYPE svg PUBLIC "-//W3C//DTD SVG 1.1//EN"
 "http://www.w3.org/Graphics/SVG/1.1/DTD/svg11.dtd">
<!-- Generated by graphviz version 2.44.0 ()
 -->
<!-- Title: connection.h Pages: 1 -->
<svg width="1230pt" height="252pt"
 viewBox="0.00 0.00 1230.00 252.00" xmlns="http://www.w3.org/2000/svg" xmlns:xlink="http://www.w3.org/1999/xlink">
<g id="graph0" class="graph" transform="scale(1 1) rotate(0) translate(4 248)">
<title>connection.h</title>
<polygon fill="white" stroke="transparent" points="-4,4 -4,-248 1226,-248 1226,4 -4,4"/>
<!-- Node1 -->
<g id="node1" class="node">
<title>Node1</title>
<g id="a_node1"><a xlink:title=" ">
<polygon fill="#bfbfbf" stroke="black" points="696.5,-224.5 696.5,-243.5 767.5,-243.5 767.5,-224.5 696.5,-224.5"/>
<text text-anchor="middle" x="732" y="-231.5" font-family="Helvetica,sans-Serif" font-size="10.00">connection.h</text>
</a>
</g>
</g>
<!-- Node2 -->
<g id="node2" class="node">
<title>Node2</title>
<g id="a_node2"><a xlink:href="../../df/df6/eth__contract__raw_8h.html" target="_top" xlink:title=" ">
<polygon fill="white" stroke="black" points="146.5,-112.5 146.5,-131.5 245.5,-131.5 245.5,-112.5 146.5,-112.5"/>
<text text-anchor="middle" x="196" y="-119.5" font-family="Helvetica,sans-Serif" font-size="10.00">eth_contract_raw.h</text>
</a>
</g>
</g>
<!-- Node1&#45;&gt;Node2 -->
<g id="edge1" class="edge">
<title>Node1&#45;&gt;Node2</title>
<path fill="none" stroke="midnightblue" d="M686.38,-223.64C583.85,-202.6 336.5,-151.83 237.75,-131.57"/>
<polygon fill="midnightblue" stroke="midnightblue" points="685.92,-227.12 696.42,-225.7 687.32,-220.26 685.92,-227.12"/>
</g>
<!-- Node5 -->
<g id="node5" class="node">
<title>Node5</title>
<g id="a_node5"><a xlink:href="../../d1/d31/acceptor_8h.html" target="_top" xlink:title=" ">
<polygon fill="white" stroke="black" points="701,-168.5 701,-187.5 763,-187.5 763,-168.5 701,-168.5"/>
<text text-anchor="middle" x="732" y="-175.5" font-family="Helvetica,sans-Serif" font-size="10.00">acceptor.h</text>
</a>
</g>
</g>
<!-- Node1&#45;&gt;Node5 -->
<g id="edge4" class="edge">
<title>Node1&#45;&gt;Node5</title>
<path fill="none" stroke="midnightblue" d="M732,-213.8C732,-204.91 732,-194.78 732,-187.75"/>
<polygon fill="midnightblue" stroke="midnightblue" points="728.5,-214.08 732,-224.08 735.5,-214.08 728.5,-214.08"/>
</g>
<!-- Node7 -->
<g id="node7" class="node">
<title>Node7</title>
<g id="a_node7"><a xlink:href="../../d3/ddf/simulated__connection_8h.html" target="_top" xlink:title=" ">
<polygon fill="white" stroke="black" points="574.5,-112.5 574.5,-131.5 693.5,-131.5 693.5,-112.5 574.5,-112.5"/>
<text text-anchor="middle" x="634" y="-119.5" font-family="Helvetica,sans-Serif" font-size="10.00">simulated_connection.h</text>
</a>
</g>
</g>
<!-- Node1&#45;&gt;Node7 -->
<g id="edge28" class="edge">
<title>Node1&#45;&gt;Node7</title>
<path fill="none" stroke="midnightblue" d="M717.65,-216.9C696.59,-193.25 658.01,-149.95 641.65,-131.59"/>
<polygon fill="midnightblue" stroke="midnightblue" points="715.04,-219.23 724.31,-224.37 720.27,-214.57 715.04,-219.23"/>
</g>
<!-- Node10 -->
<g id="node10" class="node">
<title>Node10</title>
<g id="a_node10"><a xlink:href="../../d8/d3f/tcp__implementation_8h.html" target="_top" xlink:title=" ">
<polygon fill="white" stroke="black" points="404.5,-112.5 404.5,-131.5 513.5,-131.5 513.5,-112.5 404.5,-112.5"/>
<text text-anchor="middle" x="459" y="-119.5" font-family="Helvetica,sans-Serif" font-size="10.00">tcp_implementation.h</text>
</a>
</g>
</g>
<!-- Node1&#45;&gt;Node10 -->
<g id="edge29" class="edge">
<title>Node1&#45;&gt;Node10</title>
<path fill="none" stroke="midnightblue" d="M701.19,-220.59C645.26,-198.05 528.37,-150.95 480.32,-131.59"/>
<polygon fill="midnightblue" stroke="midnightblue" points="699.99,-223.88 710.58,-224.37 702.61,-217.38 699.99,-223.88"/>
</g>
<!-- Node13 -->
<g id="node13" class="node">
<title>Node13</title>
<g id="a_node13"><a xlink:href="../../d5/dcb/zmq__connection_8h.html" target="_top" xlink:title=" ">
<polygon fill="white" stroke="black" points="859.5,-112.5 859.5,-131.5 954.5,-131.5 954.5,-112.5 859.5,-112.5"/>
<text text-anchor="middle" x="907" y="-119.5" font-family="Helvetica,sans-Serif" font-size="10.00">zmq_connection.h</text>
</a>
</g>
</g>
<!-- Node1&#45;&gt;Node13 -->
<g id="edge30" class="edge">
<title>Node1&#45;&gt;Node13</title>
<path fill="none" stroke="midnightblue" d="M754.26,-219.01C790.99,-195.92 863.23,-150.51 893.33,-131.59"/>
<polygon fill="midnightblue" stroke="midnightblue" points="752.34,-216.08 745.73,-224.37 756.06,-222.01 752.34,-216.08"/>
</g>
<!-- Node15 -->
<g id="node15" class="node">
<title>Node15</title>
<g id="a_node15"><a xlink:href="../../d1/d77/node_8h.html" target="_top" xlink:title=" ">
<polygon fill="white" stroke="black" points="796.5,-112.5 796.5,-131.5 841.5,-131.5 841.5,-112.5 796.5,-112.5"/>
<text text-anchor="middle" x="819" y="-119.5" font-family="Helvetica,sans-Serif" font-size="10.00">node.h</text>
</a>
</g>
</g>
<!-- Node1&#45;&gt;Node15 -->
<g id="edge31" class="edge">
<title>Node1&#45;&gt;Node15</title>
<path fill="none" stroke="midnightblue" d="M747.22,-216.68C754.87,-208.28 764.15,-197.78 772,-188 787.69,-168.45 804.55,-144.26 813.18,-131.62"/>
<polygon fill="midnightblue" stroke="midnightblue" points="744.44,-214.54 740.24,-224.26 749.59,-219.28 744.44,-214.54"/>
</g>
<!-- Node22 -->
<g id="node22" class="node">
<title>Node22</title>
<g id="a_node22"><a xlink:href="../../da/d98/connection_8cc.html" target="_top" xlink:title=" ">
<polygon fill="white" stroke="black" points="857.5,-168.5 857.5,-187.5 934.5,-187.5 934.5,-168.5 857.5,-168.5"/>
<text text-anchor="middle" x="896" y="-175.5" font-family="Helvetica,sans-Serif" font-size="10.00">connection.cc</text>
</a>
</g>
</g>
<!-- Node1&#45;&gt;Node22 -->
<g id="edge27" class="edge">
<title>Node1&#45;&gt;Node22</title>
<path fill="none" stroke="midnightblue" d="M767.52,-221.3C798.42,-211.13 842.47,-196.62 870.14,-187.52"/>
<polygon fill="midnightblue" stroke="midnightblue" points="766.39,-217.99 757.99,-224.44 768.58,-224.64 766.39,-217.99"/>
</g>
<!-- Node3 -->
<g id="node3" class="node">
<title>Node3</title>
<g id="a_node3"><a xlink:href="../../d2/d4b/eth__contract__raw_8cc.html" target="_top" xlink:title=" ">
<polygon fill="white" stroke="black" points="144,-56.5 144,-75.5 248,-75.5 248,-56.5 144,-56.5"/>
<text text-anchor="middle" x="196" y="-63.5" font-family="Helvetica,sans-Serif" font-size="10.00">eth_contract_raw.cc</text>
</a>
</g>
</g>
<!-- Node2&#45;&gt;Node3 -->
<g id="edge2" class="edge">
<title>Node2&#45;&gt;Node3</title>
<path fill="none" stroke="midnightblue" d="M196,-101.8C196,-92.91 196,-82.78 196,-75.75"/>
<polygon fill="midnightblue" stroke="midnightblue" points="192.5,-102.08 196,-112.08 199.5,-102.08 192.5,-102.08"/>
</g>
<!-- Node4 -->
<g id="node4" class="node">
<title>Node4</title>
<g id="a_node4"><a xlink:href="../../df/d01/eth__contract__raw__test_8cc.html" target="_top" xlink:title=" ">
<polygon fill="white" stroke="black" points="0,-56.5 0,-75.5 126,-75.5 126,-56.5 0,-56.5"/>
<text text-anchor="middle" x="63" y="-63.5" font-family="Helvetica,sans-Serif" font-size="10.00">eth_contract_raw_test.cc</text>
</a>
</g>
</g>
<!-- Node2&#45;&gt;Node4 -->
<g id="edge3" class="edge">
<title>Node2&#45;&gt;Node4</title>
<path fill="none" stroke="midnightblue" d="M165.55,-108.64C140.59,-98.5 105.92,-84.43 83.98,-75.52"/>
<polygon fill="midnightblue" stroke="midnightblue" points="164.34,-111.92 174.93,-112.44 166.98,-105.44 164.34,-111.92"/>
</g>
<!-- Node6 -->
<g id="node6" class="node">
<title>Node6</title>
<g id="a_node6"><a xlink:href="../../d5/d4e/acceptor_8cc.html" target="_top" xlink:title=" ">
<polygon fill="white" stroke="black" points="711.5,-112.5 711.5,-131.5 778.5,-131.5 778.5,-112.5 711.5,-112.5"/>
<text text-anchor="middle" x="745" y="-119.5" font-family="Helvetica,sans-Serif" font-size="10.00">acceptor.cc</text>
</a>
</g>
</g>
<!-- Node5&#45;&gt;Node6 -->
<g id="edge5" class="edge">
<title>Node5&#45;&gt;Node6</title>
<path fill="none" stroke="midnightblue" d="M736.55,-158.1C738.71,-149.14 741.18,-138.86 742.89,-131.75"/>
<polygon fill="midnightblue" stroke="midnightblue" points="733.08,-157.54 734.15,-168.08 739.89,-159.18 733.08,-157.54"/>
</g>
<!-- Node5&#45;&gt;Node7 -->
<g id="edge6" class="edge">
<title>Node5&#45;&gt;Node7</title>
<path fill="none" stroke="midnightblue" d="M707.41,-163.45C689.32,-153.48 665.27,-140.23 649.71,-131.65"/>
<polygon fill="midnightblue" stroke="midnightblue" points="705.81,-166.56 716.25,-168.32 709.19,-160.43 705.81,-166.56"/>
</g>
<!-- Node5&#45;&gt;Node10 -->
<g id="edge9" class="edge">
<title>Node5&#45;&gt;Node10</title>
<path fill="none" stroke="midnightblue" d="M690.97,-168.88C640.13,-158.83 553.91,-141.77 502.12,-131.53"/>
<polygon fill="midnightblue" stroke="midnightblue" points="690.46,-172.35 700.95,-170.86 691.82,-165.48 690.46,-172.35"/>
</g>
<!-- Node5&#45;&gt;Node13 -->
<g id="edge15" class="edge">
<title>Node5&#45;&gt;Node13</title>
<path fill="none" stroke="midnightblue" d="M769.47,-165.44C802.47,-155.26 849.76,-140.66 879.4,-131.52"/>
<polygon fill="midnightblue" stroke="midnightblue" points="768.25,-162.15 759.73,-168.44 770.32,-168.84 768.25,-162.15"/>
</g>
<!-- Node5&#45;&gt;Node15 -->
<g id="edge17" class="edge">
<title>Node5&#45;&gt;Node15</title>
<path fill="none" stroke="midnightblue" d="M754.72,-162.9C770.67,-153 791.5,-140.07 805.06,-131.65"/>
<polygon fill="midnightblue" stroke="midnightblue" points="752.63,-160.08 745.98,-168.32 756.32,-166.02 752.63,-160.08"/>
</g>
<!-- Node8 -->
<g id="node8" class="node">
<title>Node8</title>
<g id="a_node8"><a xlink:href="../../dd/de7/core_8cc.html" target="_top" xlink:title=" ">
<polygon fill="white" stroke="black" points="742,-0.5 742,-19.5 790,-19.5 790,-0.5 742,-0.5"/>
<text text-anchor="middle" x="766" y="-7.5" font-family="Helvetica,sans-Serif" font-size="10.00">core.cc</text>
</a>
</g>
</g>
<!-- Node7&#45;&gt;Node8 -->
<g id="edge7" class="edge">
<title>Node7&#45;&gt;Node8</title>
<path fill="none" stroke="midnightblue" d="M617.94,-104.98C606.02,-91.11 593.64,-70.98 605,-56 621.54,-34.21 701.01,-20.11 741.77,-14.19"/>
<polygon fill="midnightblue" stroke="midnightblue" points="615.37,-107.36 624.72,-112.34 620.52,-102.61 615.37,-107.36"/>
</g>
<!-- Node9 -->
<g id="node9" class="node">
<title>Node9</title>
<g id="a_node9"><a xlink:href="../../d6/d86/simulated__connection_8cc.html" target="_top" xlink:title=" ">
<polygon fill="white" stroke="black" points="614,-56.5 614,-75.5 738,-75.5 738,-56.5 614,-56.5"/>
<text text-anchor="middle" x="676" y="-63.5" font-family="Helvetica,sans-Serif" font-size="10.00">simulated_connection.cc</text>
</a>
</g>
</g>
<!-- Node7&#45;&gt;Node9 -->
<g id="edge8" class="edge">
<title>Node7&#45;&gt;Node9</title>
<path fill="none" stroke="midnightblue" d="M647.11,-104.14C654.43,-94.74 663.24,-83.4 669.19,-75.75"/>
<polygon fill="midnightblue" stroke="midnightblue" points="644.31,-102.04 640.94,-112.08 649.84,-106.34 644.31,-102.04"/>
</g>
<!-- Node10&#45;&gt;Node3 -->
<g id="edge11" class="edge">
<title>Node10&#45;&gt;Node3</title>
<path fill="none" stroke="midnightblue" d="M407.42,-110.41C357.72,-100.2 283.47,-84.96 237.48,-75.52"/>
<polygon fill="midnightblue" stroke="midnightblue" points="406.83,-113.86 417.33,-112.44 408.24,-107 406.83,-113.86"/>
</g>
<!-- Node10&#45;&gt;Node4 -->
<g id="edge12" class="edge">
<title>Node10&#45;&gt;Node4</title>
<path fill="none" stroke="midnightblue" d="M394.19,-112.16C319.88,-102.03 198.91,-85.53 125.56,-75.53"/>
<polygon fill="midnightblue" stroke="midnightblue" points="393.97,-115.66 404.35,-113.55 394.92,-108.73 393.97,-115.66"/>
</g>
<!-- Node10&#45;&gt;Node8 -->
<g id="edge10" class="edge">
<title>Node10&#45;&gt;Node8</title>
<path fill="none" stroke="midnightblue" d="M483.91,-107.59C511.11,-93.35 556.24,-70.89 597,-56 647.34,-37.61 708.6,-23.19 741.79,-16"/>
<polygon fill="midnightblue" stroke="midnightblue" points="481.95,-104.67 474.75,-112.43 485.22,-110.86 481.95,-104.67"/>
</g>
<!-- Node11 -->
<g id="node11" class="node">
<title>Node11</title>
<g id="a_node11"><a xlink:href="../../d5/dc9/tcp__implementation_8cc.html" target="_top" xlink:title=" ">
<polygon fill="white" stroke="black" points="266,-56.5 266,-75.5 380,-75.5 380,-56.5 266,-56.5"/>
<text text-anchor="middle" x="323" y="-63.5" font-family="Helvetica,sans-Serif" font-size="10.00">tcp_implementation.cc</text>
</a>
</g>
</g>
<!-- Node10&#45;&gt;Node11 -->
<g id="edge13" class="edge">
<title>Node10&#45;&gt;Node11</title>
<path fill="none" stroke="midnightblue" d="M427.87,-108.64C402.34,-98.5 366.89,-84.43 344.45,-75.52"/>
<polygon fill="midnightblue" stroke="midnightblue" points="426.86,-112.01 437.45,-112.44 429.45,-105.5 426.86,-112.01"/>
</g>
<!-- Node12 -->
<g id="node12" class="node">
<title>Node12</title>
<g id="a_node12"><a xlink:href="../../d8/d4a/rpc__server__core__test_8cc.html" target="_top" xlink:title=" ">
<polygon fill="white" stroke="black" points="398.5,-56.5 398.5,-75.5 519.5,-75.5 519.5,-56.5 398.5,-56.5"/>
<text text-anchor="middle" x="459" y="-63.5" font-family="Helvetica,sans-Serif" font-size="10.00">rpc_server_core_test.cc</text>
</a>
</g>
</g>
<!-- Node10&#45;&gt;Node12 -->
<g id="edge14" class="edge">
<title>Node10&#45;&gt;Node12</title>
<path fill="none" stroke="midnightblue" d="M459,-101.8C459,-92.91 459,-82.78 459,-75.75"/>
<polygon fill="midnightblue" stroke="midnightblue" points="455.5,-102.08 459,-112.08 462.5,-102.08 455.5,-102.08"/>
</g>
<!-- Node14 -->
<g id="node14" class="node">
<title>Node14</title>
<g id="a_node14"><a xlink:href="../../d1/d34/zmq__connection_8cc.html" target="_top" xlink:title=" ">
<polygon fill="white" stroke="black" points="1122,-56.5 1122,-75.5 1222,-75.5 1222,-56.5 1122,-56.5"/>
<text text-anchor="middle" x="1172" y="-63.5" font-family="Helvetica,sans-Serif" font-size="10.00">zmq_connection.cc</text>
</a>
</g>
</g>
<!-- Node13&#45;&gt;Node14 -->
<g id="edge16" class="edge">
<title>Node13&#45;&gt;Node14</title>
<path fill="none" stroke="midnightblue" d="M958.97,-110.41C1009.05,-100.2 1083.86,-84.96 1130.21,-75.52"/>
<polygon fill="midnightblue" stroke="midnightblue" points="958.09,-107.02 948.99,-112.44 959.49,-113.88 958.09,-107.02"/>
</g>
<!-- Node15&#45;&gt;Node8 -->
<g id="edge18" class="edge">
<title>Node15&#45;&gt;Node8</title>
<path fill="none" stroke="midnightblue" d="M804.41,-104.72C797.72,-96.56 790.16,-86.26 785,-76 775.5,-57.09 769.96,-32.64 767.52,-19.79"/>
<polygon fill="midnightblue" stroke="midnightblue" points="801.77,-107.01 810.92,-112.34 807.09,-102.46 801.77,-107.01"/>
</g>
<!-- Node16 -->
<g id="node16" class="node">
<title>Node16</title>
<g id="a_node16"><a xlink:href="../../d9/d5a/lua__node_8h.html" target="_top" xlink:title=" ">
<polygon fill="white" stroke="black" points="939.5,-56.5 939.5,-75.5 1002.5,-75.5 1002.5,-56.5 939.5,-56.5"/>
<text text-anchor="middle" x="971" y="-63.5" font-family="Helvetica,sans-Serif" font-size="10.00">lua_node.h</text>
</a>
</g>
</g>
<!-- Node15&#45;&gt;Node16 -->
<g id="edge19" class="edge">
<title>Node15&#45;&gt;Node16</title>
<path fill="none" stroke="midnightblue" d="M851.3,-109.52C879.9,-99.36 921,-84.76 946.83,-75.59"/>
<polygon fill="midnightblue" stroke="midnightblue" points="850.01,-106.27 841.76,-112.92 852.35,-112.87 850.01,-106.27"/>
</g>
<!-- Node18 -->
<g id="node18" class="node">
<title>Node18</title>
<g id="a_node18"><a xlink:href="../../dc/dfd/node_8cc.html" target="_top" xlink:title=" ">
<polygon fill="white" stroke="black" points="794,-56.5 794,-75.5 844,-75.5 844,-56.5 794,-56.5"/>
<text text-anchor="middle" x="819" y="-63.5" font-family="Helvetica,sans-Serif" font-size="10.00">node.cc</text>
</a>
</g>
</g>
<!-- Node15&#45;&gt;Node18 -->
<g id="edge22" class="edge">
<title>Node15&#45;&gt;Node18</title>
<path fill="none" stroke="midnightblue" d="M819,-101.8C819,-92.91 819,-82.78 819,-75.75"/>
<polygon fill="midnightblue" stroke="midnightblue" points="815.5,-102.08 819,-112.08 822.5,-102.08 815.5,-102.08"/>
</g>
<!-- Node19 -->
<g id="node19" class="node">
<title>Node19</title>
<g id="a_node19"><a xlink:href="../../dc/d32/node__updater_8h.html" target="_top" xlink:title=" ">
<polygon fill="white" stroke="black" points="1020.5,-56.5 1020.5,-75.5 1103.5,-75.5 1103.5,-56.5 1020.5,-56.5"/>
<text text-anchor="middle" x="1062" y="-63.5" font-family="Helvetica,sans-Serif" font-size="10.00">node_updater.h</text>
</a>
</g>
</g>
<!-- Node15&#45;&gt;Node19 -->
<g id="edge23" class="edge">
<title>Node15&#45;&gt;Node19</title>
<path fill="none" stroke="midnightblue" d="M851.47,-111.76C915.4,-95.9 979.55,-82.85 1020.36,-74.9"/>
<polygon fill="midnightblue" stroke="midnightblue" points="850.49,-108.4 841.63,-114.22 852.19,-115.19 850.49,-108.4"/>
</g>
<!-- Node21 -->
<g id="node21" class="node">
<title>Node21</title>
<g id="a_node21"><a xlink:href="../../df/dd2/testnet_8cc.html" target="_top" xlink:title=" ">
<polygon fill="white" stroke="black" points="862.5,-56.5 862.5,-75.5 921.5,-75.5 921.5,-56.5 862.5,-56.5"/>
<text text-anchor="middle" x="892" y="-63.5" font-family="Helvetica,sans-Serif" font-size="10.00">testnet.cc</text>
</a>
</g>
</g>
<!-- Node15&#45;&gt;Node21 -->
<g id="edge26" class="edge">
<title>Node15&#45;&gt;Node21</title>
<path fill="none" stroke="midnightblue" d="M839.14,-106.1C852.28,-96.38 868.98,-84.03 880.06,-75.83"/>
<polygon fill="midnightblue" stroke="midnightblue" points="836.69,-103.56 830.73,-112.32 840.85,-109.19 836.69,-103.56"/>
</g>
<!-- Node16&#45;&gt;Node8 -->
<g id="edge20" class="edge">
<title>Node16&#45;&gt;Node8</title>
<path fill="none" stroke="midnightblue" d="M929.53,-54.08C887.7,-43.06 824.53,-26.42 790.23,-17.38"/>
<polygon fill="midnightblue" stroke="midnightblue" points="928.86,-57.52 939.42,-56.68 930.64,-50.75 928.86,-57.52"/>
</g>
<!-- Node17 -->
<g id="node17" class="node">
<title>Node17</title>
<g id="a_node17"><a xlink:href="../../db/d7e/lua__node_8cc.html" target="_top" xlink:title=" ">
<polygon fill="white" stroke="black" points="934,-0.5 934,-19.5 1002,-19.5 1002,-0.5 934,-0.5"/>
<text text-anchor="middle" x="968" y="-7.5" font-family="Helvetica,sans-Serif" font-size="10.00">lua_node.cc</text>
</a>
</g>
</g>
<!-- Node16&#45;&gt;Node17 -->
<g id="edge21" class="edge">
<title>Node16&#45;&gt;Node17</title>
<path fill="none" stroke="midnightblue" d="M969.93,-45.8C969.44,-36.91 968.88,-26.78 968.49,-19.75"/>
<polygon fill="midnightblue" stroke="midnightblue" points="966.46,-46.29 970.5,-56.08 973.44,-45.9 966.46,-46.29"/>
</g>
<!-- Node19&#45;&gt;Node8 -->
<g id="edge24" class="edge">
<title>Node19&#45;&gt;Node8</title>
<path fill="none" stroke="midnightblue" d="M1010.25,-55.56C945.75,-43.79 838.17,-24.17 790.28,-15.43"/>
<polygon fill="midnightblue" stroke="midnightblue" points="1009.75,-59.03 1020.22,-57.38 1011.01,-52.14 1009.75,-59.03"/>
</g>
<!-- Node20 -->
<g id="node20" class="node">
<title>Node20</title>
<g id="a_node20"><a xlink:href="../../d1/d13/node__updater_8cc.html" target="_top" xlink:title=" ">
<polygon fill="white" stroke="black" points="1020,-0.5 1020,-19.5 1108,-19.5 1108,-0.5 1020,-0.5"/>
<text text-anchor="middle" x="1064" y="-7.5" font-family="Helvetica,sans-Serif" font-size="10.00">node_updater.cc</text>
</a>
</g>
</g>
<!-- Node19&#45;&gt;Node20 -->
<g id="edge25" class="edge">
<title>Node19&#45;&gt;Node20</title>
<path fill="none" stroke="midnightblue" d="M1062.71,-45.8C1063.04,-36.91 1063.42,-26.78 1063.68,-19.75"/>
<polygon fill="midnightblue" stroke="midnightblue" points="1059.2,-45.96 1062.33,-56.08 1066.2,-46.22 1059.2,-45.96"/>
</g>
</g>
</svg>
