<?xml version="1.0" encoding="UTF-8" standalone="no"?>
<!DOCTYPE svg PUBLIC "-//W3C//DTD SVG 1.1//EN"
 "http://www.w3.org/Graphics/SVG/1.1/DTD/svg11.dtd">
<!-- Generated by graphviz version 2.42.3 ()
 -->
<!-- Title: acceptor.cc Pages: 1 -->
<svg width="375pt" height="285pt"
 viewBox="0.00 0.00 374.76 285.00" xmlns="http://www.w3.org/2000/svg" xmlns:xlink="http://www.w3.org/1999/xlink">
<g id="graph0" class="graph" transform="scale(1 1) rotate(0) translate(4 281)">
<title>acceptor.cc</title>
<polygon fill="white" stroke="transparent" points="-4,4 -4,-281 370.76,-281 370.76,4 -4,4"/>
<!-- Node1 -->
<g id="node1" class="node">
<title>Node1</title>
<g id="a_node1"><a xlink:title=" ">
<polygon fill="#bfbfbf" stroke="black" points="41.76,-257.5 41.76,-276.5 108.76,-276.5 108.76,-257.5 41.76,-257.5"/>
<text text-anchor="middle" x="75.26" y="-264.5" font-family="Helvetica,sans-Serif" font-size="10.00">acceptor.cc</text>
</a>
</g>
</g>
<!-- Node2 -->
<g id="node2" class="node">
<title>Node2</title>
<g id="a_node2"><a xlink:href="../../d1/d31/acceptor_8h.html" target="_top" xlink:title=" ">
<polygon fill="white" stroke="black" points="14.26,-190.5 14.26,-220.5 136.26,-220.5 136.26,-190.5 14.26,-190.5"/>
<text text-anchor="start" x="22.26" y="-208.5" font-family="Helvetica,sans-Serif" font-size="10.00">automaton/core/network</text>
<text text-anchor="middle" x="75.26" y="-197.5" font-family="Helvetica,sans-Serif" font-size="10.00">/acceptor.h</text>
</a>
</g>
</g>
<!-- Node1&#45;&gt;Node2 -->
<g id="edge1" class="edge">
<title>Node1&#45;&gt;Node2</title>
<path fill="none" stroke="midnightblue" d="M75.26,-257.48C75.26,-250.47 75.26,-240.19 75.26,-230.7"/>
<polygon fill="midnightblue" stroke="midnightblue" points="78.76,-230.52 75.26,-220.52 71.76,-230.52 78.76,-230.52"/>
</g>
<!-- Node3 -->
<g id="node3" class="node">
<title>Node3</title>
<g id="a_node3"><a xlink:title=" ">
<polygon fill="white" stroke="#bfbfbf" points="19.76,-62 19.76,-81 54.76,-81 54.76,-62 19.76,-62"/>
<text text-anchor="middle" x="37.26" y="-69" font-family="Helvetica,sans-Serif" font-size="10.00">map</text>
</a>
</g>
</g>
<!-- Node2&#45;&gt;Node3 -->
<g id="edge2" class="edge">
<title>Node2&#45;&gt;Node3</title>
<path fill="none" stroke="midnightblue" d="M71.19,-190.37C64.29,-166.4 50.28,-117.75 42.6,-91.06"/>
<polygon fill="midnightblue" stroke="midnightblue" points="45.86,-89.74 39.73,-81.1 39.14,-91.68 45.86,-89.74"/>
</g>
<!-- Node4 -->
<g id="node4" class="node">
<title>Node4</title>
<g id="a_node4"><a xlink:title=" ">
<polygon fill="white" stroke="#bfbfbf" points="72.76,-62 72.76,-81 123.76,-81 123.76,-62 72.76,-62"/>
<text text-anchor="middle" x="98.26" y="-69" font-family="Helvetica,sans-Serif" font-size="10.00">memory</text>
</a>
</g>
</g>
<!-- Node2&#45;&gt;Node4 -->
<g id="edge3" class="edge">
<title>Node2&#45;&gt;Node4</title>
<path fill="none" stroke="midnightblue" d="M77.72,-190.37C81.9,-166.4 90.37,-117.75 95.02,-91.06"/>
<polygon fill="midnightblue" stroke="midnightblue" points="98.49,-91.55 96.76,-81.1 91.59,-90.35 98.49,-91.55"/>
</g>
<!-- Node5 -->
<g id="node5" class="node">
<title>Node5</title>
<g id="a_node5"><a xlink:title=" ">
<polygon fill="white" stroke="#bfbfbf" points="131.76,-0.5 131.76,-19.5 172.76,-19.5 172.76,-0.5 131.76,-0.5"/>
<text text-anchor="middle" x="152.26" y="-7.5" font-family="Helvetica,sans-Serif" font-size="10.00">string</text>
</a>
</g>
</g>
<!-- Node2&#45;&gt;Node5 -->
<g id="edge4" class="edge">
<title>Node2&#45;&gt;Node5</title>
<path fill="none" stroke="midnightblue" d="M59.99,-190.34C31.96,-162.62 -21.99,-100.05 10.26,-56 35.62,-21.35 87.81,-12.72 121.37,-10.93"/>
<polygon fill="midnightblue" stroke="midnightblue" points="121.68,-14.42 131.55,-10.57 121.43,-7.43 121.68,-14.42"/>
</g>
<!-- Node6 -->
<g id="node6" class="node">
<title>Node6</title>
<g id="a_node6"><a xlink:href="../../d1/d13/status_8h.html" target="_top" xlink:title=" ">
<polygon fill="white" stroke="black" points="241.76,-56.5 241.76,-86.5 366.76,-86.5 366.76,-56.5 241.76,-56.5"/>
<text text-anchor="start" x="249.76" y="-74.5" font-family="Helvetica,sans-Serif" font-size="10.00">automaton/core/common</text>
<text text-anchor="middle" x="304.26" y="-63.5" font-family="Helvetica,sans-Serif" font-size="10.00">/status.h</text>
</a>
</g>
</g>
<!-- Node2&#45;&gt;Node6 -->
<g id="edge5" class="edge">
<title>Node2&#45;&gt;Node6</title>
<path fill="none" stroke="midnightblue" d="M136.5,-193.4C167.6,-185.77 204.91,-173.41 234.26,-154 257.52,-138.61 277.49,-113.4 290.08,-95.08"/>
<polygon fill="midnightblue" stroke="midnightblue" points="293.02,-96.98 295.64,-86.72 287.19,-93.1 293.02,-96.98"/>
</g>
<!-- Node9 -->
<g id="node9" class="node">
<title>Node9</title>
<g id="a_node9"><a xlink:href="../../d4/d67/connection_8h.html" target="_top" xlink:title=" ">
<polygon fill="white" stroke="black" points="103.26,-123.5 103.26,-153.5 225.26,-153.5 225.26,-123.5 103.26,-123.5"/>
<text text-anchor="start" x="111.26" y="-141.5" font-family="Helvetica,sans-Serif" font-size="10.00">automaton/core/network</text>
<text text-anchor="middle" x="164.26" y="-130.5" font-family="Helvetica,sans-Serif" font-size="10.00">/connection.h</text>
</a>
</g>
</g>
<!-- Node2&#45;&gt;Node9 -->
<g id="edge9" class="edge">
<title>Node2&#45;&gt;Node9</title>
<path fill="none" stroke="midnightblue" d="M94.57,-190.4C106.93,-181.37 123.16,-169.51 136.85,-159.52"/>
<polygon fill="midnightblue" stroke="midnightblue" points="138.97,-162.3 144.98,-153.58 134.84,-156.65 138.97,-162.3"/>
</g>
<!-- Node6&#45;&gt;Node5 -->
<g id="edge7" class="edge">
<title>Node6&#45;&gt;Node5</title>
<path fill="none" stroke="midnightblue" d="M268.24,-56.4C242.16,-46.19 207.3,-32.54 182.62,-22.89"/>
<polygon fill="midnightblue" stroke="midnightblue" points="183.64,-19.53 173.06,-19.14 181.09,-26.05 183.64,-19.53"/>
</g>
<!-- Node7 -->
<g id="node7" class="node">
<title>Node7</title>
<g id="a_node7"><a xlink:title=" ">
<polygon fill="white" stroke="#bfbfbf" points="242.26,-0.5 242.26,-19.5 294.26,-19.5 294.26,-0.5 242.26,-0.5"/>
<text text-anchor="middle" x="268.26" y="-7.5" font-family="Helvetica,sans-Serif" font-size="10.00">ostream</text>
</a>
</g>
</g>
<!-- Node6&#45;&gt;Node7 -->
<g id="edge6" class="edge">
<title>Node6&#45;&gt;Node7</title>
<path fill="none" stroke="midnightblue" d="M295.73,-56.4C290.66,-48.02 284.19,-37.33 278.8,-28.42"/>
<polygon fill="midnightblue" stroke="midnightblue" points="281.67,-26.4 273.5,-19.66 275.68,-30.03 281.67,-26.4"/>
</g>
<!-- Node8 -->
<g id="node8" class="node">
<title>Node8</title>
<g id="a_node8"><a xlink:title=" ">
<polygon fill="white" stroke="#bfbfbf" points="312.26,-0.5 312.26,-19.5 366.26,-19.5 366.26,-0.5 312.26,-0.5"/>
<text text-anchor="middle" x="339.26" y="-7.5" font-family="Helvetica,sans-Serif" font-size="10.00">iostream</text>
</a>
</g>
</g>
<!-- Node6&#45;&gt;Node8 -->
<g id="edge8" class="edge">
<title>Node6&#45;&gt;Node8</title>
<path fill="none" stroke="midnightblue" d="M312.55,-56.4C317.48,-48.02 323.77,-37.33 329.01,-28.42"/>
<polygon fill="midnightblue" stroke="midnightblue" points="332.11,-30.05 334.16,-19.66 326.08,-26.5 332.11,-30.05"/>
</g>
<!-- Node9&#45;&gt;Node3 -->
<g id="edge10" class="edge">
<title>Node9&#45;&gt;Node3</title>
<path fill="none" stroke="midnightblue" d="M135.35,-123.48C115.06,-113.53 87.35,-99.73 63.26,-87 62.59,-86.65 61.91,-86.29 61.23,-85.92"/>
<polygon fill="midnightblue" stroke="midnightblue" points="62.77,-82.78 52.32,-81.05 59.41,-88.92 62.77,-82.78"/>
</g>
<!-- Node9&#45;&gt;Node4 -->
<g id="edge11" class="edge">
<title>Node9&#45;&gt;Node4</title>
<path fill="none" stroke="midnightblue" d="M149.94,-123.4C139.44,-113.06 125.19,-99.02 114.31,-88.31"/>
<polygon fill="midnightblue" stroke="midnightblue" points="116.67,-85.72 107.09,-81.19 111.75,-90.71 116.67,-85.72"/>
</g>
<!-- Node9&#45;&gt;Node5 -->
<g id="edge12" class="edge">
<title>Node9&#45;&gt;Node5</title>
<path fill="none" stroke="midnightblue" d="M162.93,-123.48C160.77,-100.72 156.5,-55.7 154.07,-30.06"/>
<polygon fill="midnightblue" stroke="midnightblue" points="157.52,-29.41 153.09,-19.79 150.55,-30.07 157.52,-29.41"/>
</g>
<!-- Node9&#45;&gt;Node6 -->
<g id="edge14" class="edge">
<title>Node9&#45;&gt;Node6</title>
<path fill="none" stroke="midnightblue" d="M194.64,-123.4C215.18,-113.86 242.52,-101.16 264.76,-90.84"/>
<polygon fill="midnightblue" stroke="midnightblue" points="266.34,-93.96 273.94,-86.58 263.39,-87.61 266.34,-93.96"/>
</g>
<!-- Node10 -->
<g id="node10" class="node">
<title>Node10</title>
<g id="a_node10"><a xlink:title=" ">
<polygon fill="white" stroke="#bfbfbf" points="180.26,-62 180.26,-81 224.26,-81 224.26,-62 180.26,-62"/>
<text text-anchor="middle" x="202.26" y="-69" font-family="Helvetica,sans-Serif" font-size="10.00">thread</text>
</a>
</g>
</g>
<!-- Node9&#45;&gt;Node10 -->
<g id="edge13" class="edge">
<title>Node9&#45;&gt;Node10</title>
<path fill="none" stroke="midnightblue" d="M172.5,-123.4C178.25,-113.56 185.96,-100.38 192.09,-89.89"/>
<polygon fill="midnightblue" stroke="midnightblue" points="195.15,-91.59 197.17,-81.19 189.11,-88.06 195.15,-91.59"/>
</g>
</g>
</svg>
