<?xml version="1.0" encoding="UTF-8" standalone="no"?>
<!DOCTYPE svg PUBLIC "-//W3C//DTD SVG 1.1//EN"
 "http://www.w3.org/Graphics/SVG/1.1/DTD/svg11.dtd">
<!-- Generated by graphviz version 2.44.0 ()
 -->
<!-- Title: digital_signature.cc Pages: 1 -->
<svg width="796pt" height="218pt"
 viewBox="0.00 0.00 796.00 218.00" xmlns="http://www.w3.org/2000/svg" xmlns:xlink="http://www.w3.org/1999/xlink">
<g id="graph0" class="graph" transform="scale(1 1) rotate(0) translate(4 214)">
<title>digital_signature.cc</title>
<polygon fill="white" stroke="transparent" points="-4,4 -4,-214 792,-214 792,4 -4,4"/>
<!-- Node1 -->
<g id="node1" class="node">
<title>Node1</title>
<g id="a_node1"><a xlink:title=" ">
<polygon fill="#bfbfbf" stroke="black" points="238,-190.5 238,-209.5 338,-209.5 338,-190.5 238,-190.5"/>
<text text-anchor="middle" x="288" y="-197.5" font-family="Helvetica,sans-Serif" font-size="10.00">digital_signature.cc</text>
</a>
</g>
</g>
<!-- Node2 -->
<g id="node2" class="node">
<title>Node2</title>
<g id="a_node2"><a xlink:href="../../dd/de2/digital__signature_8h.html" target="_top" xlink:title=" ">
<polygon fill="white" stroke="black" points="231.5,-56.5 231.5,-86.5 344.5,-86.5 344.5,-56.5 231.5,-56.5"/>
<text text-anchor="start" x="239.5" y="-74.5" font-family="Helvetica,sans-Serif" font-size="10.00">automaton/core/crypto</text>
<text text-anchor="middle" x="288" y="-63.5" font-family="Helvetica,sans-Serif" font-size="10.00">/digital_signature.h</text>
</a>
</g>
</g>
<!-- Node1&#45;&gt;Node2 -->
<g id="edge1" class="edge">
<title>Node1&#45;&gt;Node2</title>
<path fill="none" stroke="midnightblue" d="M288,-190.31C288,-171.3 288,-125.47 288,-96.9"/>
<polygon fill="midnightblue" stroke="midnightblue" points="291.5,-96.89 288,-86.89 284.5,-96.89 291.5,-96.89"/>
</g>
<!-- Node5 -->
<g id="node5" class="node">
<title>Node5</title>
<g id="a_node5"><a xlink:href="../../d1/d71/msg_8h.html" target="_top" xlink:title=" ">
<polygon fill="white" stroke="black" points="123,-123.5 123,-153.5 229,-153.5 229,-123.5 123,-123.5"/>
<text text-anchor="start" x="131" y="-141.5" font-family="Helvetica,sans-Serif" font-size="10.00">automaton/core/data</text>
<text text-anchor="middle" x="176" y="-130.5" font-family="Helvetica,sans-Serif" font-size="10.00">/msg.h</text>
</a>
</g>
</g>
<!-- Node1&#45;&gt;Node5 -->
<g id="edge4" class="edge">
<title>Node1&#45;&gt;Node5</title>
<path fill="none" stroke="midnightblue" d="M271.95,-190.48C256.22,-182.12 231.7,-169.09 211.39,-158.3"/>
<polygon fill="midnightblue" stroke="midnightblue" points="212.87,-155.12 202.4,-153.52 209.59,-161.31 212.87,-155.12"/>
</g>
<!-- Node9 -->
<g id="node9" class="node">
<title>Node9</title>
<g id="a_node9"><a xlink:href="../../dc/dac/io_8h.html" target="_top" xlink:title=" ">
<polygon fill="white" stroke="black" points="442.5,-129 442.5,-148 555.5,-148 555.5,-129 442.5,-129"/>
<text text-anchor="middle" x="499" y="-136" font-family="Helvetica,sans-Serif" font-size="10.00">automaton/core/io/io.h</text>
</a>
</g>
</g>
<!-- Node1&#45;&gt;Node9 -->
<g id="edge11" class="edge">
<title>Node1&#45;&gt;Node9</title>
<path fill="none" stroke="midnightblue" d="M318.23,-190.48C355.29,-180.03 418.19,-162.29 459.16,-150.73"/>
<polygon fill="midnightblue" stroke="midnightblue" points="460.15,-154.09 468.82,-148.01 458.25,-147.35 460.15,-154.09"/>
</g>
<!-- Node3 -->
<g id="node3" class="node">
<title>Node3</title>
<g id="a_node3"><a xlink:title=" ">
<polygon fill="white" stroke="#bfbfbf" points="224.5,-0.5 224.5,-19.5 265.5,-19.5 265.5,-0.5 224.5,-0.5"/>
<text text-anchor="middle" x="245" y="-7.5" font-family="Helvetica,sans-Serif" font-size="10.00">string</text>
</a>
</g>
</g>
<!-- Node2&#45;&gt;Node3 -->
<g id="edge2" class="edge">
<title>Node2&#45;&gt;Node3</title>
<path fill="none" stroke="midnightblue" d="M277.81,-56.4C271.63,-47.84 263.7,-36.87 257.18,-27.86"/>
<polygon fill="midnightblue" stroke="midnightblue" points="259.95,-25.71 251.26,-19.66 254.28,-29.81 259.95,-25.71"/>
</g>
<!-- Node4 -->
<g id="node4" class="node">
<title>Node4</title>
<g id="a_node4"><a xlink:title=" ">
<polygon fill="white" stroke="#bfbfbf" points="153.5,-0.5 153.5,-19.5 188.5,-19.5 188.5,-0.5 153.5,-0.5"/>
<text text-anchor="middle" x="171" y="-7.5" font-family="Helvetica,sans-Serif" font-size="10.00">map</text>
</a>
</g>
</g>
<!-- Node2&#45;&gt;Node4 -->
<g id="edge3" class="edge">
<title>Node2&#45;&gt;Node4</title>
<path fill="none" stroke="midnightblue" d="M260.27,-56.4C241.17,-46.68 215.94,-33.86 197.18,-24.31"/>
<polygon fill="midnightblue" stroke="midnightblue" points="198.52,-21.07 188.02,-19.66 195.35,-27.31 198.52,-21.07"/>
</g>
<!-- Node5&#45;&gt;Node3 -->
<g id="edge6" class="edge">
<title>Node5&#45;&gt;Node3</title>
<path fill="none" stroke="midnightblue" d="M183.65,-123.48C196.29,-100.31 221.51,-54.07 235.35,-28.69"/>
<polygon fill="midnightblue" stroke="midnightblue" points="238.49,-30.24 240.21,-19.79 232.35,-26.89 238.49,-30.24"/>
</g>
<!-- Node6 -->
<g id="node6" class="node">
<title>Node6</title>
<g id="a_node6"><a xlink:title=" ">
<polygon fill="white" stroke="#bfbfbf" points="123.5,-62 123.5,-81 174.5,-81 174.5,-62 123.5,-62"/>
<text text-anchor="middle" x="149" y="-69" font-family="Helvetica,sans-Serif" font-size="10.00">memory</text>
</a>
</g>
</g>
<!-- Node5&#45;&gt;Node6 -->
<g id="edge5" class="edge">
<title>Node5&#45;&gt;Node6</title>
<path fill="none" stroke="midnightblue" d="M170.14,-123.4C166.14,-113.76 160.8,-100.91 156.49,-90.54"/>
<polygon fill="midnightblue" stroke="midnightblue" points="159.68,-89.09 152.61,-81.19 153.22,-91.77 159.68,-89.09"/>
</g>
<!-- Node7 -->
<g id="node7" class="node">
<title>Node7</title>
<g id="a_node7"><a xlink:href="../../d7/de3/schema_8h.html" target="_top" xlink:title=" ">
<polygon fill="white" stroke="black" points="0,-56.5 0,-86.5 106,-86.5 106,-56.5 0,-56.5"/>
<text text-anchor="start" x="8" y="-74.5" font-family="Helvetica,sans-Serif" font-size="10.00">automaton/core/data</text>
<text text-anchor="middle" x="53" y="-63.5" font-family="Helvetica,sans-Serif" font-size="10.00">/schema.h</text>
</a>
</g>
</g>
<!-- Node5&#45;&gt;Node7 -->
<g id="edge7" class="edge">
<title>Node5&#45;&gt;Node7</title>
<path fill="none" stroke="midnightblue" d="M149.31,-123.4C131.5,-113.98 107.88,-101.5 88.49,-91.26"/>
<polygon fill="midnightblue" stroke="midnightblue" points="90.11,-88.15 79.64,-86.58 86.84,-94.34 90.11,-88.15"/>
</g>
<!-- Node7&#45;&gt;Node3 -->
<g id="edge9" class="edge">
<title>Node7&#45;&gt;Node3</title>
<path fill="none" stroke="midnightblue" d="M98.5,-56.4C134.37,-45.28 183.38,-30.1 214.62,-20.41"/>
<polygon fill="midnightblue" stroke="midnightblue" points="215.97,-23.66 224.49,-17.36 213.9,-16.97 215.97,-23.66"/>
</g>
<!-- Node7&#45;&gt;Node4 -->
<g id="edge8" class="edge">
<title>Node7&#45;&gt;Node4</title>
<path fill="none" stroke="midnightblue" d="M80.96,-56.4C100.32,-46.64 125.91,-33.74 144.86,-24.18"/>
<polygon fill="midnightblue" stroke="midnightblue" points="146.48,-27.29 153.83,-19.66 143.33,-21.04 146.48,-27.29"/>
</g>
<!-- Node8 -->
<g id="node8" class="node">
<title>Node8</title>
<g id="a_node8"><a xlink:title=" ">
<polygon fill="white" stroke="#bfbfbf" points="31,-0.5 31,-19.5 75,-19.5 75,-0.5 31,-0.5"/>
<text text-anchor="middle" x="53" y="-7.5" font-family="Helvetica,sans-Serif" font-size="10.00">vector</text>
</a>
</g>
</g>
<!-- Node7&#45;&gt;Node8 -->
<g id="edge10" class="edge">
<title>Node7&#45;&gt;Node8</title>
<path fill="none" stroke="midnightblue" d="M53,-56.4C53,-48.47 53,-38.46 53,-29.86"/>
<polygon fill="midnightblue" stroke="midnightblue" points="56.5,-29.66 53,-19.66 49.5,-29.66 56.5,-29.66"/>
</g>
<!-- Node9&#45;&gt;Node3 -->
<g id="edge13" class="edge">
<title>Node9&#45;&gt;Node3</title>
<path fill="none" stroke="midnightblue" d="M476.92,-128.84C454.73,-119.74 419.91,-104.35 392,-87 373.2,-75.31 372.07,-67.25 353,-56 328.12,-41.32 297.55,-29.06 275.3,-21.06"/>
<polygon fill="midnightblue" stroke="midnightblue" points="276.3,-17.71 265.7,-17.7 273.98,-24.31 276.3,-17.71"/>
</g>
<!-- Node10 -->
<g id="node10" class="node">
<title>Node10</title>
<g id="a_node10"><a xlink:title=" ">
<polygon fill="white" stroke="#bfbfbf" points="742,-62 742,-81 788,-81 788,-62 742,-62"/>
<text text-anchor="middle" x="765" y="-69" font-family="Helvetica,sans-Serif" font-size="10.00">chrono</text>
</a>
</g>
</g>
<!-- Node9&#45;&gt;Node10 -->
<g id="edge12" class="edge">
<title>Node9&#45;&gt;Node10</title>
<path fill="none" stroke="midnightblue" d="M554.25,-129C602.24,-120.81 673.21,-106.75 733,-87 734.87,-86.38 736.77,-85.69 738.68,-84.95"/>
<polygon fill="midnightblue" stroke="midnightblue" points="740.15,-88.13 748,-81.01 737.42,-81.68 740.15,-88.13"/>
</g>
<!-- Node11 -->
<g id="node11" class="node">
<title>Node11</title>
<g id="a_node11"><a xlink:title=" ">
<polygon fill="white" stroke="#bfbfbf" points="401,-62 401,-81 485,-81 485,-62 401,-62"/>
<text text-anchor="middle" x="443" y="-69" font-family="Helvetica,sans-Serif" font-size="10.00">g3log/g3log.hpp</text>
</a>
</g>
</g>
<!-- Node9&#45;&gt;Node11 -->
<g id="edge14" class="edge">
<title>Node9&#45;&gt;Node11</title>
<path fill="none" stroke="midnightblue" d="M491.45,-128.73C482.72,-118.6 468.15,-101.69 457.26,-89.06"/>
<polygon fill="midnightblue" stroke="midnightblue" points="459.61,-86.42 450.43,-81.13 454.31,-90.99 459.61,-86.42"/>
</g>
<!-- Node12 -->
<g id="node12" class="node">
<title>Node12</title>
<g id="a_node12"><a xlink:title=" ">
<polygon fill="white" stroke="#bfbfbf" points="503.5,-62 503.5,-81 606.5,-81 606.5,-62 503.5,-62"/>
<text text-anchor="middle" x="555" y="-69" font-family="Helvetica,sans-Serif" font-size="10.00">g3log/logworker.hpp</text>
</a>
</g>
</g>
<!-- Node9&#45;&gt;Node12 -->
<g id="edge15" class="edge">
<title>Node9&#45;&gt;Node12</title>
<path fill="none" stroke="midnightblue" d="M506.55,-128.73C515.28,-118.6 529.85,-101.69 540.74,-89.06"/>
<polygon fill="midnightblue" stroke="midnightblue" points="543.69,-90.99 547.57,-81.13 538.39,-86.42 543.69,-90.99"/>
</g>
<!-- Node13 -->
<g id="node13" class="node">
<title>Node13</title>
<g id="a_node13"><a xlink:title=" ">
<polygon fill="white" stroke="#bfbfbf" points="624.5,-62 624.5,-81 723.5,-81 723.5,-62 624.5,-62"/>
<text text-anchor="middle" x="674" y="-69" font-family="Helvetica,sans-Serif" font-size="10.00">g3log/loglevels.hpp</text>
</a>
</g>
</g>
<!-- Node9&#45;&gt;Node13 -->
<g id="edge16" class="edge">
<title>Node9&#45;&gt;Node13</title>
<path fill="none" stroke="midnightblue" d="M522.24,-128.87C552.79,-117.52 606.63,-97.52 641.28,-84.65"/>
<polygon fill="midnightblue" stroke="midnightblue" points="642.79,-87.83 650.94,-81.06 640.35,-81.26 642.79,-87.83"/>
</g>
</g>
</svg>
