<?xml version="1.0" encoding="UTF-8" standalone="no"?>
<!DOCTYPE svg PUBLIC "-//W3C//DTD SVG 1.1//EN"
 "http://www.w3.org/Graphics/SVG/1.1/DTD/svg11.dtd">
<!-- Generated by graphviz version 2.44.0 ()
 -->
<!-- Title: automaton::core::data::protobuf::protobuf_msg::get_message Pages: 1 -->
<svg width="288pt" height="186pt"
 viewBox="0.00 0.00 288.00 185.50" xmlns="http://www.w3.org/2000/svg" xmlns:xlink="http://www.w3.org/1999/xlink">
<g id="graph0" class="graph" transform="scale(1 1) rotate(0) translate(4 181.5)">
<title>automaton::core::data::protobuf::protobuf_msg::get_message</title>
<polygon fill="white" stroke="transparent" points="-4,4 -4,-181.5 284,-181.5 284,4 -4,4"/>
<!-- Node1 -->
<g id="node1" class="node">
<title>Node1</title>
<g id="a_node1"><a xlink:title=" ">
<polygon fill="#bfbfbf" stroke="black" points="0,-60.5 0,-101.5 109,-101.5 109,-60.5 0,-60.5"/>
<text text-anchor="start" x="8" y="-89.5" font-family="Helvetica,sans-Serif" font-size="10.00">automaton::core::data</text>
<text text-anchor="start" x="8" y="-78.5" font-family="Helvetica,sans-Serif" font-size="10.00">::protobuf::protobuf</text>
<text text-anchor="middle" x="54.5" y="-67.5" font-family="Helvetica,sans-Serif" font-size="10.00">_msg::get_message</text>
</a>
</g>
</g>
<!-- Node2 -->
<g id="node2" class="node">
<title>Node2</title>
<g id="a_node2"><a xlink:href="../../df/d83/classautomaton_1_1core_1_1data_1_1msg.html#ace03ef368afcebdfe4c51ab4f2b52283" target="_top" xlink:title=" ">
<polygon fill="white" stroke="black" points="158,-147 158,-177 267,-177 267,-147 158,-147"/>
<text text-anchor="start" x="166" y="-165" font-family="Helvetica,sans-Serif" font-size="10.00">automaton::core::data</text>
<text text-anchor="middle" x="212.5" y="-154" font-family="Helvetica,sans-Serif" font-size="10.00">::msg::msg</text>
</a>
</g>
</g>
<!-- Node1&#45;&gt;Node2 -->
<g id="edge1" class="edge">
<title>Node1&#45;&gt;Node2</title>
<path fill="none" stroke="midnightblue" d="M84.38,-101.7C101.46,-113.35 123.84,-127.6 145,-138 148.55,-139.75 152.27,-141.43 156.05,-143.05"/>
<polygon fill="midnightblue" stroke="midnightblue" points="154.93,-146.38 165.51,-146.91 157.58,-139.89 154.93,-146.38"/>
</g>
<!-- Node3 -->
<g id="node3" class="node">
<title>Node3</title>
<g id="a_node3"><a xlink:href="../../d5/d36/classautomaton_1_1core_1_1data_1_1protobuf_1_1protobuf__msg.html#afb52356a5f9676c05a3b28b5c2bd47ef" target="_top" xlink:title=" ">
<polygon fill="white" stroke="black" points="158,-87.5 158,-128.5 267,-128.5 267,-87.5 158,-87.5"/>
<text text-anchor="start" x="166" y="-116.5" font-family="Helvetica,sans-Serif" font-size="10.00">automaton::core::data</text>
<text text-anchor="start" x="166" y="-105.5" font-family="Helvetica,sans-Serif" font-size="10.00">::protobuf::protobuf</text>
<text text-anchor="middle" x="212.5" y="-94.5" font-family="Helvetica,sans-Serif" font-size="10.00">_msg::protobuf_msg</text>
</a>
</g>
</g>
<!-- Node1&#45;&gt;Node3 -->
<g id="edge2" class="edge">
<title>Node1&#45;&gt;Node3</title>
<path fill="none" stroke="midnightblue" d="M109.19,-90.29C121.63,-92.45 135,-94.76 147.83,-96.98"/>
<polygon fill="midnightblue" stroke="midnightblue" points="147.53,-100.48 157.98,-98.74 148.72,-93.58 147.53,-100.48"/>
</g>
<!-- Node4 -->
<g id="node4" class="node">
<title>Node4</title>
<g id="a_node4"><a xlink:href="../../d2/d94/classautomaton_1_1core_1_1data_1_1factory.html#a839850666943ce90bbd055a9d819e106" target="_top" xlink:title=" ">
<polygon fill="white" stroke="black" points="152,-39 152,-69 273,-69 273,-39 152,-39"/>
<text text-anchor="start" x="160" y="-57" font-family="Helvetica,sans-Serif" font-size="10.00">automaton::core::data</text>
<text text-anchor="middle" x="212.5" y="-46" font-family="Helvetica,sans-Serif" font-size="10.00">::factory::get_schema_id</text>
</a>
</g>
</g>
<!-- Node1&#45;&gt;Node4 -->
<g id="edge3" class="edge">
<title>Node1&#45;&gt;Node4</title>
<path fill="none" stroke="midnightblue" d="M109.19,-71.71C119.71,-69.89 130.9,-67.95 141.86,-66.05"/>
<polygon fill="midnightblue" stroke="midnightblue" points="142.58,-69.48 151.83,-64.33 141.38,-62.58 142.58,-69.48"/>
</g>
<!-- Node5 -->
<g id="node5" class="node">
<title>Node5</title>
<g id="a_node5"><a xlink:href="../../de/d12/namespaceel_1_1base_1_1debug.html#af8af3a0ae3755b37ede9f5b4c9e8173c" target="_top" xlink:title=" ">
<polygon fill="white" stroke="black" points="145,-0.5 145,-19.5 280,-19.5 280,-0.5 145,-0.5"/>
<text text-anchor="middle" x="212.5" y="-7.5" font-family="Helvetica,sans-Serif" font-size="10.00">el::base::debug::StackTrace</text>
</a>
</g>
</g>
<!-- Node1&#45;&gt;Node5 -->
<g id="edge4" class="edge">
<title>Node1&#45;&gt;Node5</title>
<path fill="none" stroke="midnightblue" d="M87.74,-60.27C104.38,-50.19 125.28,-38.46 145,-30 151.25,-27.32 157.98,-24.85 164.67,-22.62"/>
<polygon fill="midnightblue" stroke="midnightblue" points="165.91,-25.9 174.39,-19.55 163.8,-19.23 165.91,-25.9"/>
</g>
</g>
</svg>
