<?xml version="1.0" encoding="UTF-8" standalone="no"?>
<!DOCTYPE svg PUBLIC "-//W3C//DTD SVG 1.1//EN"
 "http://www.w3.org/Graphics/SVG/1.1/DTD/svg11.dtd">
<!-- Generated by graphviz version 2.42.3 ()
 -->
<!-- Title: automaton::core::data::protobuf::protobuf_msg::get_field_tag Pages: 1 -->
<svg width="288pt" height="78pt"
 viewBox="0.00 0.00 288.00 77.50" xmlns="http://www.w3.org/2000/svg" xmlns:xlink="http://www.w3.org/1999/xlink">
<g id="graph0" class="graph" transform="scale(1 1) rotate(0) translate(4 73.5)">
<title>automaton::core::data::protobuf::protobuf_msg::get_field_tag</title>
<polygon fill="white" stroke="transparent" points="-4,4 -4,-73.5 284,-73.5 284,4 -4,4"/>
<!-- Node1 -->
<g id="node1" class="node">
<title>Node1</title>
<g id="a_node1"><a xlink:title=" ">
<polygon fill="#bfbfbf" stroke="black" points="0,-11.5 0,-52.5 109,-52.5 109,-11.5 0,-11.5"/>
<text text-anchor="start" x="8" y="-40.5" font-family="Helvetica,sans-Serif" font-size="10.00">automaton::core::data</text>
<text text-anchor="start" x="8" y="-29.5" font-family="Helvetica,sans-Serif" font-size="10.00">::protobuf::protobuf</text>
<text text-anchor="middle" x="54.5" y="-18.5" font-family="Helvetica,sans-Serif" font-size="10.00">_msg::get_field_tag</text>
</a>
</g>
</g>
<!-- Node2 -->
<g id="node2" class="node">
<title>Node2</title>
<g id="a_node2"><a xlink:href="../../df/d83/classautomaton_1_1core_1_1data_1_1msg.html#ace03ef368afcebdfe4c51ab4f2b52283" target="_top" xlink:title=" ">
<polygon fill="white" stroke="black" points="158,-39 158,-69 267,-69 267,-39 158,-39"/>
<text text-anchor="start" x="166" y="-57" font-family="Helvetica,sans-Serif" font-size="10.00">automaton::core::data</text>
<text text-anchor="middle" x="212.5" y="-46" font-family="Helvetica,sans-Serif" font-size="10.00">::msg::msg</text>
</a>
</g>
</g>
<!-- Node1&#45;&gt;Node2 -->
<g id="edge1" class="edge">
<title>Node1&#45;&gt;Node2</title>
<path fill="none" stroke="midnightblue" d="M109.19,-39.57C121.63,-41.33 135,-43.21 147.83,-45.02"/>
<polygon fill="midnightblue" stroke="midnightblue" points="147.59,-48.52 157.98,-46.45 148.57,-41.59 147.59,-48.52"/>
</g>
<!-- Node3 -->
<g id="node3" class="node">
<title>Node3</title>
<g id="a_node3"><a xlink:href="../../de/d12/namespaceel_1_1base_1_1debug.html#af8af3a0ae3755b37ede9f5b4c9e8173c" target="_top" xlink:title=" ">
<polygon fill="white" stroke="black" points="145,-0.5 145,-19.5 280,-19.5 280,-0.5 145,-0.5"/>
<text text-anchor="middle" x="212.5" y="-7.5" font-family="Helvetica,sans-Serif" font-size="10.00">el::base::debug::StackTrace</text>
</a>
</g>
</g>
<!-- Node1&#45;&gt;Node3 -->
<g id="edge2" class="edge">
<title>Node1&#45;&gt;Node3</title>
<path fill="none" stroke="midnightblue" d="M109.19,-24.43C117.42,-23.27 126.06,-22.05 134.68,-20.83"/>
<polygon fill="midnightblue" stroke="midnightblue" points="135.35,-24.27 144.76,-19.41 134.37,-17.34 135.35,-24.27"/>
</g>
</g>
</svg>
