<?xml version="1.0" encoding="UTF-8" standalone="no"?>
<!DOCTYPE svg PUBLIC "-//W3C//DTD SVG 1.1//EN"
 "http://www.w3.org/Graphics/SVG/1.1/DTD/svg11.dtd">
<!-- Generated by graphviz version 2.42.3 ()
 -->
<!-- Title: automaton::core::data::protobuf::protobuf_msg::protobuf_msg Pages: 1 -->
<svg width="299pt" height="110pt"
 viewBox="0.00 0.00 299.00 110.00" xmlns="http://www.w3.org/2000/svg" xmlns:xlink="http://www.w3.org/1999/xlink">
<g id="graph0" class="graph" transform="scale(1 1) rotate(0) translate(4 106)">
<title>automaton::core::data::protobuf::protobuf_msg::protobuf_msg</title>
<polygon fill="white" stroke="transparent" points="-4,4 -4,-106 295,-106 295,4 -4,4"/>
<!-- Node1 -->
<g id="node1" class="node">
<title>Node1</title>
<g id="a_node1"><a xlink:title=" ">
<polygon fill="#bfbfbf" stroke="black" points="182,-30.5 182,-71.5 291,-71.5 291,-30.5 182,-30.5"/>
<text text-anchor="start" x="190" y="-59.5" font-family="Helvetica,sans-Serif" font-size="10.00">automaton::core::data</text>
<text text-anchor="start" x="190" y="-48.5" font-family="Helvetica,sans-Serif" font-size="10.00">::protobuf::protobuf</text>
<text text-anchor="middle" x="236.5" y="-37.5" font-family="Helvetica,sans-Serif" font-size="10.00">_msg::protobuf_msg</text>
</a>
</g>
</g>
<!-- Node2 -->
<g id="node2" class="node">
<title>Node2</title>
<g id="a_node2"><a xlink:href="../../d5/d36/classautomaton_1_1core_1_1data_1_1protobuf_1_1protobuf__msg.html#ad5d455dcae10bde4ec57af8d67390190" target="_top" xlink:title=" ">
<polygon fill="white" stroke="black" points="18.5,-60.5 18.5,-101.5 127.5,-101.5 127.5,-60.5 18.5,-60.5"/>
<text text-anchor="start" x="26.5" y="-89.5" font-family="Helvetica,sans-Serif" font-size="10.00">automaton::core::data</text>
<text text-anchor="start" x="26.5" y="-78.5" font-family="Helvetica,sans-Serif" font-size="10.00">::protobuf::protobuf</text>
<text text-anchor="middle" x="73" y="-67.5" font-family="Helvetica,sans-Serif" font-size="10.00">_msg::get_message</text>
</a>
</g>
</g>
<!-- Node1&#45;&gt;Node2 -->
<g id="edge1" class="edge">
<title>Node1&#45;&gt;Node2</title>
<path fill="none" stroke="midnightblue" d="M171.74,-62.84C157.11,-65.56 141.69,-68.43 127.54,-71.05"/>
<polygon fill="midnightblue" stroke="midnightblue" points="172.53,-66.26 181.72,-60.99 171.25,-59.37 172.53,-66.26"/>
</g>
<!-- Node3 -->
<g id="node3" class="node">
<title>Node3</title>
<g id="a_node3"><a xlink:href="../../d5/d36/classautomaton_1_1core_1_1data_1_1protobuf_1_1protobuf__msg.html#a79d0d6f0423fb0612f53946a9908ba77" target="_top" xlink:title=" ">
<polygon fill="white" stroke="black" points="0,-0.5 0,-41.5 146,-41.5 146,-0.5 0,-0.5"/>
<text text-anchor="start" x="8" y="-29.5" font-family="Helvetica,sans-Serif" font-size="10.00">automaton::core::data</text>
<text text-anchor="start" x="8" y="-18.5" font-family="Helvetica,sans-Serif" font-size="10.00">::protobuf::protobuf</text>
<text text-anchor="middle" x="73" y="-7.5" font-family="Helvetica,sans-Serif" font-size="10.00">_msg::get_repeated_message</text>
</a>
</g>
</g>
<!-- Node1&#45;&gt;Node3 -->
<g id="edge2" class="edge">
<title>Node1&#45;&gt;Node3</title>
<path fill="none" stroke="midnightblue" d="M171.68,-39.14C163.32,-37.59 154.71,-35.99 146.23,-34.42"/>
<polygon fill="midnightblue" stroke="midnightblue" points="171.25,-42.63 181.72,-41.01 172.53,-35.74 171.25,-42.63"/>
</g>
</g>
</svg>
