<?xml version="1.0" encoding="UTF-8" standalone="no"?>
<!DOCTYPE svg PUBLIC "-//W3C//DTD SVG 1.1//EN"
 "http://www.w3.org/Graphics/SVG/1.1/DTD/svg11.dtd">
<!-- Generated by graphviz version 2.42.3 ()
 -->
<!-- Title: automaton::core::data::protobuf::protobuf_msg::get_message Pages: 1 -->
<svg width="288pt" height="186pt"
 viewBox="0.00 0.00 288.00 185.50" xmlns="http://www.w3.org/2000/svg" xmlns:xlink="http://www.w3.org/1999/xlink">
<g id="graph0" class="graph" transform="scale(1 1) rotate(0) translate(4 181.5)">
<title>automaton::core::data::protobuf::protobuf_msg::get_message</title>
<polygon fill="white" stroke="transparent" points="-4,4 -4,-181.5 284,-181.5 284,4 -4,4"/>
<!-- Node1 -->
<g id="node1" class="node">
<title>Node1</title>
<g id="a_node1"><a xlink:title=" ">
<polygon fill="#bfbfbf" stroke="black" points="0,-65.5 0,-106.5 109,-106.5 109,-65.5 0,-65.5"/>
<text text-anchor="start" x="8" y="-94.5" font-family="Helvetica,sans-Serif" font-size="10.00">automaton::core::data</text>
<text text-anchor="start" x="8" y="-83.5" font-family="Helvetica,sans-Serif" font-size="10.00">::protobuf::protobuf</text>
<text text-anchor="middle" x="54.5" y="-72.5" font-family="Helvetica,sans-Serif" font-size="10.00">_msg::get_message</text>
</a>
</g>
</g>
<!-- Node2 -->
<g id="node2" class="node">
<title>Node2</title>
<g id="a_node2"><a xlink:href="../../d2/d94/classautomaton_1_1core_1_1data_1_1factory.html#a839850666943ce90bbd055a9d819e106" target="_top" xlink:title=" ">
<polygon fill="white" stroke="black" points="152,-147 152,-177 273,-177 273,-147 152,-147"/>
<text text-anchor="start" x="160" y="-165" font-family="Helvetica,sans-Serif" font-size="10.00">automaton::core::data</text>
<text text-anchor="middle" x="212.5" y="-154" font-family="Helvetica,sans-Serif" font-size="10.00">::factory::get_schema_id</text>
</a>
</g>
</g>
<!-- Node1&#45;&gt;Node2 -->
<g id="edge1" class="edge">
<title>Node1&#45;&gt;Node2</title>
<path fill="none" stroke="midnightblue" d="M87.89,-106.72C104.57,-116.89 125.46,-128.89 145,-138 148.82,-139.78 152.81,-141.51 156.85,-143.18"/>
<polygon fill="midnightblue" stroke="midnightblue" points="155.75,-146.51 166.34,-146.95 158.33,-140.01 155.75,-146.51"/>
</g>
<!-- Node3 -->
<g id="node3" class="node">
<title>Node3</title>
<g id="a_node3"><a xlink:href="../../df/d83/classautomaton_1_1core_1_1data_1_1msg.html#ace03ef368afcebdfe4c51ab4f2b52283" target="_top" xlink:title=" ">
<polygon fill="white" stroke="black" points="158,-98 158,-128 267,-128 267,-98 158,-98"/>
<text text-anchor="start" x="166" y="-116" font-family="Helvetica,sans-Serif" font-size="10.00">automaton::core::data</text>
<text text-anchor="middle" x="212.5" y="-105" font-family="Helvetica,sans-Serif" font-size="10.00">::msg::msg</text>
</a>
</g>
</g>
<!-- Node1&#45;&gt;Node3 -->
<g id="edge2" class="edge">
<title>Node1&#45;&gt;Node3</title>
<path fill="none" stroke="midnightblue" d="M109.19,-95.29C121.63,-97.45 135,-99.76 147.83,-101.98"/>
<polygon fill="midnightblue" stroke="midnightblue" points="147.53,-105.48 157.98,-103.74 148.72,-98.58 147.53,-105.48"/>
</g>
<!-- Node4 -->
<g id="node4" class="node">
<title>Node4</title>
<g id="a_node4"><a xlink:href="../../d5/d36/classautomaton_1_1core_1_1data_1_1protobuf_1_1protobuf__msg.html#afb52356a5f9676c05a3b28b5c2bd47ef" target="_top" xlink:title=" ">
<polygon fill="white" stroke="black" points="158,-38.5 158,-79.5 267,-79.5 267,-38.5 158,-38.5"/>
<text text-anchor="start" x="166" y="-67.5" font-family="Helvetica,sans-Serif" font-size="10.00">automaton::core::data</text>
<text text-anchor="start" x="166" y="-56.5" font-family="Helvetica,sans-Serif" font-size="10.00">::protobuf::protobuf</text>
<text text-anchor="middle" x="212.5" y="-45.5" font-family="Helvetica,sans-Serif" font-size="10.00">_msg::protobuf_msg</text>
</a>
</g>
</g>
<!-- Node1&#45;&gt;Node4 -->
<g id="edge3" class="edge">
<title>Node1&#45;&gt;Node4</title>
<path fill="none" stroke="midnightblue" d="M109.19,-76.71C121.63,-74.55 135,-72.24 147.83,-70.02"/>
<polygon fill="midnightblue" stroke="midnightblue" points="148.72,-73.42 157.98,-68.26 147.53,-66.52 148.72,-73.42"/>
</g>
<!-- Node5 -->
<g id="node5" class="node">
<title>Node5</title>
<g id="a_node5"><a xlink:href="../../de/d12/namespaceel_1_1base_1_1debug.html#af8af3a0ae3755b37ede9f5b4c9e8173c" target="_top" xlink:title=" ">
<polygon fill="white" stroke="black" points="145,-0.5 145,-19.5 280,-19.5 280,-0.5 145,-0.5"/>
<text text-anchor="middle" x="212.5" y="-7.5" font-family="Helvetica,sans-Serif" font-size="10.00">el::base::debug::StackTrace</text>
</a>
</g>
</g>
<!-- Node1&#45;&gt;Node5 -->
<g id="edge4" class="edge">
<title>Node1&#45;&gt;Node5</title>
<path fill="none" stroke="midnightblue" d="M83.33,-65.31C100.42,-53.37 123.16,-38.82 145,-29 150.26,-26.63 155.89,-24.49 161.56,-22.56"/>
<polygon fill="midnightblue" stroke="midnightblue" points="162.63,-25.89 171.1,-19.52 160.5,-19.22 162.63,-25.89"/>
</g>
</g>
</svg>
