<?xml version="1.0" encoding="UTF-8" standalone="no"?>
<!DOCTYPE svg PUBLIC "-//W3C//DTD SVG 1.1//EN"
 "http://www.w3.org/Graphics/SVG/1.1/DTD/svg11.dtd">
<!-- Generated by graphviz version 2.42.3 ()
 -->
<!-- Title: automaton::core::data::protobuf::protobuf_msg::get_repeated_message Pages: 1 -->
<svg width="325pt" height="186pt"
 viewBox="0.00 0.00 325.00 185.50" xmlns="http://www.w3.org/2000/svg" xmlns:xlink="http://www.w3.org/1999/xlink">
<g id="graph0" class="graph" transform="scale(1 1) rotate(0) translate(4 181.5)">
<title>automaton::core::data::protobuf::protobuf_msg::get_repeated_message</title>
<polygon fill="white" stroke="transparent" points="-4,4 -4,-181.5 321,-181.5 321,4 -4,4"/>
<!-- Node1 -->
<g id="node1" class="node">
<title>Node1</title>
<g id="a_node1"><a xlink:title=" ">
<polygon fill="#bfbfbf" stroke="black" points="0,-65.5 0,-106.5 146,-106.5 146,-65.5 0,-65.5"/>
<text text-anchor="start" x="8" y="-94.5" font-family="Helvetica,sans-Serif" font-size="10.00">automaton::core::data</text>
<text text-anchor="start" x="8" y="-83.5" font-family="Helvetica,sans-Serif" font-size="10.00">::protobuf::protobuf</text>
<text text-anchor="middle" x="73" y="-72.5" font-family="Helvetica,sans-Serif" font-size="10.00">_msg::get_repeated_message</text>
</a>
</g>
</g>
<!-- Node2 -->
<g id="node2" class="node">
<title>Node2</title>
<g id="a_node2"><a xlink:href="../../d2/d94/classautomaton_1_1core_1_1data_1_1factory.html#a839850666943ce90bbd055a9d819e106" target="_top" xlink:title=" ">
<polygon fill="white" stroke="black" points="189,-147 189,-177 310,-177 310,-147 189,-147"/>
<text text-anchor="start" x="197" y="-165" font-family="Helvetica,sans-Serif" font-size="10.00">automaton::core::data</text>
<text text-anchor="middle" x="249.5" y="-154" font-family="Helvetica,sans-Serif" font-size="10.00">::factory::get_schema_id</text>
</a>
</g>
</g>
<!-- Node1&#45;&gt;Node2 -->
<g id="edge1" class="edge">
<title>Node1&#45;&gt;Node2</title>
<path fill="none" stroke="midnightblue" d="M114.07,-106.5C134.23,-116.5 159.17,-128.41 182,-138 186.19,-139.76 190.55,-141.51 194.96,-143.22"/>
<polygon fill="midnightblue" stroke="midnightblue" points="194.02,-146.61 204.61,-146.88 196.5,-140.06 194.02,-146.61"/>
</g>
<!-- Node3 -->
<g id="node3" class="node">
<title>Node3</title>
<g id="a_node3"><a xlink:href="../../df/d83/classautomaton_1_1core_1_1data_1_1msg.html#ace03ef368afcebdfe4c51ab4f2b52283" target="_top" xlink:title=" ">
<polygon fill="white" stroke="black" points="195,-98 195,-128 304,-128 304,-98 195,-98"/>
<text text-anchor="start" x="203" y="-116" font-family="Helvetica,sans-Serif" font-size="10.00">automaton::core::data</text>
<text text-anchor="middle" x="249.5" y="-105" font-family="Helvetica,sans-Serif" font-size="10.00">::msg::msg</text>
</a>
</g>
</g>
<!-- Node1&#45;&gt;Node3 -->
<g id="edge2" class="edge">
<title>Node1&#45;&gt;Node3</title>
<path fill="none" stroke="midnightblue" d="M146.24,-97.18C159.11,-99.17 172.43,-101.23 185.04,-103.18"/>
<polygon fill="midnightblue" stroke="midnightblue" points="184.55,-106.65 194.97,-104.72 185.62,-99.73 184.55,-106.65"/>
</g>
<!-- Node4 -->
<g id="node4" class="node">
<title>Node4</title>
<g id="a_node4"><a xlink:href="../../d5/d36/classautomaton_1_1core_1_1data_1_1protobuf_1_1protobuf__msg.html#afb52356a5f9676c05a3b28b5c2bd47ef" target="_top" xlink:title=" ">
<polygon fill="white" stroke="black" points="195,-38.5 195,-79.5 304,-79.5 304,-38.5 195,-38.5"/>
<text text-anchor="start" x="203" y="-67.5" font-family="Helvetica,sans-Serif" font-size="10.00">automaton::core::data</text>
<text text-anchor="start" x="203" y="-56.5" font-family="Helvetica,sans-Serif" font-size="10.00">::protobuf::protobuf</text>
<text text-anchor="middle" x="249.5" y="-45.5" font-family="Helvetica,sans-Serif" font-size="10.00">_msg::protobuf_msg</text>
</a>
</g>
</g>
<!-- Node1&#45;&gt;Node4 -->
<g id="edge3" class="edge">
<title>Node1&#45;&gt;Node4</title>
<path fill="none" stroke="midnightblue" d="M146.24,-74.82C159.11,-72.83 172.43,-70.77 185.04,-68.82"/>
<polygon fill="midnightblue" stroke="midnightblue" points="185.62,-72.27 194.97,-67.28 184.55,-65.35 185.62,-72.27"/>
</g>
<!-- Node5 -->
<g id="node5" class="node">
<title>Node5</title>
<g id="a_node5"><a xlink:href="../../de/d12/namespaceel_1_1base_1_1debug.html#af8af3a0ae3755b37ede9f5b4c9e8173c" target="_top" xlink:title=" ">
<polygon fill="white" stroke="black" points="182,-0.5 182,-19.5 317,-19.5 317,-0.5 182,-0.5"/>
<text text-anchor="middle" x="249.5" y="-7.5" font-family="Helvetica,sans-Serif" font-size="10.00">el::base::debug::StackTrace</text>
</a>
</g>
</g>
<!-- Node1&#45;&gt;Node5 -->
<g id="edge4" class="edge">
<title>Node1&#45;&gt;Node5</title>
<path fill="none" stroke="midnightblue" d="M108.63,-65.36C129.4,-53.59 156.62,-39.19 182,-29 187.85,-26.65 194.1,-24.47 200.33,-22.48"/>
<polygon fill="midnightblue" stroke="midnightblue" points="201.51,-25.78 210.06,-19.52 199.48,-19.08 201.51,-25.78"/>
</g>
</g>
</svg>
