<?xml version="1.0" encoding="UTF-8" standalone="no"?>
<!DOCTYPE svg PUBLIC "-//W3C//DTD SVG 1.1//EN"
 "http://www.w3.org/Graphics/SVG/1.1/DTD/svg11.dtd">
<!-- Generated by graphviz version 2.44.0 ()
 -->
<!-- Title: automaton::core::network::connection Pages: 1 -->
<svg width="512pt" height="88pt"
 viewBox="0.00 0.00 512.00 88.00" xmlns="http://www.w3.org/2000/svg" xmlns:xlink="http://www.w3.org/1999/xlink">
<g id="graph0" class="graph" transform="scale(1 1) rotate(0) translate(4 84)">
<title>automaton::core::network::connection</title>
<polygon fill="white" stroke="transparent" points="-4,4 -4,-84 508,-84 508,4 -4,4"/>
<!-- Node1 -->
<g id="node1" class="node">
<title>Node1</title>
<g id="a_node1"><a xlink:title=" ">
<polygon fill="#bfbfbf" stroke="black" points="379,-12 379,-42 504,-42 504,-12 379,-12"/>
<text text-anchor="start" x="387" y="-30" font-family="Helvetica,sans-Serif" font-size="10.00">automaton::core::network</text>
<text text-anchor="middle" x="441.5" y="-19" font-family="Helvetica,sans-Serif" font-size="10.00">::connection</text>
</a>
</g>
</g>
<!-- Node2 -->
<g id="node2" class="node">
<title>Node2</title>
<g id="a_node2"><a xlink:title=" ">
<polygon fill="white" stroke="#bfbfbf" points="175,-38.5 175,-79.5 309,-79.5 309,-38.5 175,-38.5"/>
<text text-anchor="start" x="183" y="-67.5" font-family="Helvetica,sans-Serif" font-size="10.00">std::shared_ptr&lt; automaton</text>
<text text-anchor="start" x="183" y="-56.5" font-family="Helvetica,sans-Serif" font-size="10.00">::core::network::connection</text>
<text text-anchor="middle" x="242" y="-45.5" font-family="Helvetica,sans-Serif" font-size="10.00">::connection_handler &gt;</text>
</a>
</g>
</g>
<!-- Node2&#45;&gt;Node1 -->
<g id="edge1" class="edge">
<title>Node2&#45;&gt;Node1</title>
<path fill="none" stroke="#9a32cd" stroke-dasharray="5,2" d="M318.96,-46.69C338.77,-43.48 359.89,-40.06 378.86,-36.99"/>
<polygon fill="#9a32cd" stroke="#9a32cd" points="318.35,-43.25 309.04,-48.3 319.47,-50.16 318.35,-43.25"/>
<text text-anchor="middle" x="344" y="-48" font-family="Helvetica,sans-Serif" font-size="10.00"> handler</text>
</g>
<!-- Node3 -->
<g id="node3" class="node">
<title>Node3</title>
<g id="a_node3"><a xlink:href="../../d6/d94/classautomaton_1_1core_1_1network_1_1connection_1_1connection__handler.html" target="_top" xlink:title=" ">
<polygon fill="white" stroke="black" points="0,-38.5 0,-79.5 125,-79.5 125,-38.5 0,-38.5"/>
<text text-anchor="start" x="8" y="-67.5" font-family="Helvetica,sans-Serif" font-size="10.00">automaton::core::network</text>
<text text-anchor="start" x="8" y="-56.5" font-family="Helvetica,sans-Serif" font-size="10.00">::connection::connection</text>
<text text-anchor="middle" x="62.5" y="-45.5" font-family="Helvetica,sans-Serif" font-size="10.00">_handler</text>
</a>
</g>
</g>
<!-- Node3&#45;&gt;Node2 -->
<g id="edge2" class="edge">
<title>Node3&#45;&gt;Node2</title>
<path fill="none" stroke="#9a32cd" stroke-dasharray="5,2" d="M135.44,-59C148.51,-59 162.09,-59 174.99,-59"/>
<polygon fill="#9a32cd" stroke="#9a32cd" points="135.08,-55.5 125.08,-59 135.08,-62.5 135.08,-55.5"/>
<text text-anchor="middle" x="150" y="-62" font-family="Helvetica,sans-Serif" font-size="10.00"> ptr</text>
</g>
<!-- Node4 -->
<g id="node4" class="node">
<title>Node4</title>
<g id="a_node4"><a xlink:title=" ">
<polygon fill="white" stroke="#bfbfbf" points="216.5,-0.5 216.5,-19.5 267.5,-19.5 267.5,-0.5 216.5,-0.5"/>
<text text-anchor="middle" x="242" y="-7.5" font-family="Helvetica,sans-Serif" font-size="10.00">uint32_t</text>
</a>
</g>
</g>
<!-- Node4&#45;&gt;Node1 -->
<g id="edge3" class="edge">
<title>Node4&#45;&gt;Node1</title>
<path fill="none" stroke="#9a32cd" stroke-dasharray="5,2" d="M278.07,-11.96C301.56,-13.38 333.16,-15.48 361,-18 366.81,-18.53 372.85,-19.12 378.9,-19.75"/>
<polygon fill="#9a32cd" stroke="#9a32cd" points="278.08,-8.46 267.89,-11.36 277.66,-15.44 278.08,-8.46"/>
<text text-anchor="middle" x="344" y="-21" font-family="Helvetica,sans-Serif" font-size="10.00"> id</text>
</g>
</g>
</svg>
