<?xml version="1.0" encoding="UTF-8" standalone="no"?>
<!DOCTYPE svg PUBLIC "-//W3C//DTD SVG 1.1//EN"
 "http://www.w3.org/Graphics/SVG/1.1/DTD/svg11.dtd">
<!-- Generated by graphviz version 2.42.3 ()
 -->
<!-- Title: persistent_blobstore.cc Pages: 1 -->
<svg width="440pt" height="218pt"
 viewBox="0.00 0.00 439.92 218.00" xmlns="http://www.w3.org/2000/svg" xmlns:xlink="http://www.w3.org/1999/xlink">
<g id="graph0" class="graph" transform="scale(1 1) rotate(0) translate(4 214)">
<title>persistent_blobstore.cc</title>
<polygon fill="white" stroke="transparent" points="-4,4 -4,-214 435.92,-214 435.92,4 -4,4"/>
<!-- Node1 -->
<g id="node1" class="node">
<title>Node1</title>
<g id="a_node1"><a xlink:title=" ">
<polygon fill="#bfbfbf" stroke="black" points="217.92,-190.5 217.92,-209.5 334.92,-209.5 334.92,-190.5 217.92,-190.5"/>
<text text-anchor="middle" x="276.42" y="-197.5" font-family="Helvetica,sans-Serif" font-size="10.00">persistent_blobstore.cc</text>
</a>
</g>
</g>
<!-- Node2 -->
<g id="node2" class="node">
<title>Node2</title>
<g id="a_node2"><a xlink:href="../../df/d22/persistent__blobstore_8h.html" target="_top" xlink:title=" ">
<polygon fill="white" stroke="black" points="61.92,-123.5 61.92,-153.5 180.92,-153.5 180.92,-123.5 61.92,-123.5"/>
<text text-anchor="start" x="69.92" y="-141.5" font-family="Helvetica,sans-Serif" font-size="10.00">automaton/core/storage</text>
<text text-anchor="middle" x="121.42" y="-130.5" font-family="Helvetica,sans-Serif" font-size="10.00">/persistent_blobstore.h</text>
</a>
</g>
</g>
<!-- Node1&#45;&gt;Node2 -->
<g id="edge1" class="edge">
<title>Node1&#45;&gt;Node2</title>
<path fill="none" stroke="midnightblue" d="M254.21,-190.48C231.65,-181.81 196.04,-168.15 167.37,-157.14"/>
<polygon fill="midnightblue" stroke="midnightblue" points="168.54,-153.84 157.95,-153.52 166.03,-160.37 168.54,-153.84"/>
</g>
<!-- Node3 -->
<g id="node3" class="node">
<title>Node3</title>
<g id="a_node3"><a xlink:title=" ">
<polygon fill="white" stroke="#bfbfbf" points="53.92,-0.5 53.92,-19.5 94.92,-19.5 94.92,-0.5 53.92,-0.5"/>
<text text-anchor="middle" x="74.42" y="-7.5" font-family="Helvetica,sans-Serif" font-size="10.00">string</text>
</a>
</g>
</g>
<!-- Node1&#45;&gt;Node3 -->
<g id="edge6" class="edge">
<title>Node1&#45;&gt;Node3</title>
<path fill="none" stroke="midnightblue" d="M279.97,-190.4C289.36,-166.16 311.94,-96.44 279.42,-56 257.94,-29.29 157.33,-17.54 105.48,-13.18"/>
<polygon fill="midnightblue" stroke="midnightblue" points="105.45,-9.67 95.21,-12.36 104.9,-16.65 105.45,-9.67"/>
</g>
<!-- Node4 -->
<g id="node4" class="node">
<title>Node4</title>
<g id="a_node4"><a xlink:title=" ">
<polygon fill="white" stroke="#bfbfbf" points="152.42,-56.5 152.42,-86.5 270.42,-86.5 270.42,-56.5 152.42,-56.5"/>
<text text-anchor="start" x="160.42" y="-74.5" font-family="Helvetica,sans-Serif" font-size="10.00">boost/iostreams/device</text>
<text text-anchor="middle" x="211.42" y="-63.5" font-family="Helvetica,sans-Serif" font-size="10.00">/mapped_file.hpp</text>
</a>
</g>
</g>
<!-- Node1&#45;&gt;Node4 -->
<g id="edge8" class="edge">
<title>Node1&#45;&gt;Node4</title>
<path fill="none" stroke="midnightblue" d="M271.95,-190.31C262.1,-171.13 238.22,-124.66 223.57,-96.15"/>
<polygon fill="midnightblue" stroke="midnightblue" points="226.49,-94.18 218.81,-86.89 220.27,-97.38 226.49,-94.18"/>
</g>
<!-- Node6 -->
<g id="node6" class="node">
<title>Node6</title>
<g id="a_node6"><a xlink:title=" ">
<polygon fill="white" stroke="#bfbfbf" points="326.92,-129 326.92,-148 431.92,-148 431.92,-129 326.92,-129"/>
<text text-anchor="middle" x="379.42" y="-136" font-family="Helvetica,sans-Serif" font-size="10.00">boost/filesystem.hpp</text>
</a>
</g>
</g>
<!-- Node1&#45;&gt;Node6 -->
<g id="edge7" class="edge">
<title>Node1&#45;&gt;Node6</title>
<path fill="none" stroke="midnightblue" d="M291.17,-190.48C308.08,-180.71 336,-164.58 355.91,-153.08"/>
<polygon fill="midnightblue" stroke="midnightblue" points="357.78,-156.04 364.69,-148.01 354.28,-149.98 357.78,-156.04"/>
</g>
<!-- Node2&#45;&gt;Node3 -->
<g id="edge2" class="edge">
<title>Node2&#45;&gt;Node3</title>
<path fill="none" stroke="midnightblue" d="M61.75,-125.86C40.26,-118.48 18.18,-106.47 5.42,-87 -2.14,-75.48 -1.15,-68.11 5.42,-56 13.74,-40.63 29.85,-29.68 44.4,-22.43"/>
<polygon fill="midnightblue" stroke="midnightblue" points="46.02,-25.54 53.65,-18.19 43.1,-19.18 46.02,-25.54"/>
</g>
<!-- Node2&#45;&gt;Node4 -->
<g id="edge3" class="edge">
<title>Node2&#45;&gt;Node4</title>
<path fill="none" stroke="midnightblue" d="M140.95,-123.4C153.45,-114.37 169.86,-102.51 183.7,-92.52"/>
<polygon fill="midnightblue" stroke="midnightblue" points="185.87,-95.27 191.93,-86.58 181.77,-89.59 185.87,-95.27"/>
</g>
<!-- Node5 -->
<g id="node5" class="node">
<title>Node5</title>
<g id="a_node5"><a xlink:href="../../dd/d71/blobstore_8h.html" target="_top" xlink:title=" ">
<polygon fill="white" stroke="black" points="14.92,-56.5 14.92,-86.5 133.92,-86.5 133.92,-56.5 14.92,-56.5"/>
<text text-anchor="start" x="22.92" y="-74.5" font-family="Helvetica,sans-Serif" font-size="10.00">automaton/core/storage</text>
<text text-anchor="middle" x="74.42" y="-63.5" font-family="Helvetica,sans-Serif" font-size="10.00">/blobstore.h</text>
</a>
</g>
</g>
<!-- Node2&#45;&gt;Node5 -->
<g id="edge4" class="edge">
<title>Node2&#45;&gt;Node5</title>
<path fill="none" stroke="midnightblue" d="M111.22,-123.4C105.18,-115.05 97.4,-104.29 90.55,-94.81"/>
<polygon fill="midnightblue" stroke="midnightblue" points="93.29,-92.63 84.59,-86.58 87.62,-96.73 93.29,-92.63"/>
</g>
<!-- Node5&#45;&gt;Node3 -->
<g id="edge5" class="edge">
<title>Node5&#45;&gt;Node3</title>
<path fill="none" stroke="midnightblue" d="M74.42,-56.4C74.42,-48.47 74.42,-38.46 74.42,-29.86"/>
<polygon fill="midnightblue" stroke="midnightblue" points="77.92,-29.66 74.42,-19.66 70.92,-29.66 77.92,-29.66"/>
</g>
</g>
</svg>
