<?xml version="1.0" encoding="UTF-8" standalone="no"?>
<!DOCTYPE svg PUBLIC "-//W3C//DTD SVG 1.1//EN"
 "http://www.w3.org/Graphics/SVG/1.1/DTD/svg11.dtd">
<!-- Generated by graphviz version 2.42.3 ()
 -->
<!-- Title: RIPEMD160_cryptopp.cc Pages: 1 -->
<svg width="366pt" height="218pt"
 viewBox="0.00 0.00 366.00 218.00" xmlns="http://www.w3.org/2000/svg" xmlns:xlink="http://www.w3.org/1999/xlink">
<g id="graph0" class="graph" transform="scale(1 1) rotate(0) translate(4 214)">
<title>RIPEMD160_cryptopp.cc</title>
<polygon fill="white" stroke="transparent" points="-4,4 -4,-214 362,-214 362,4 -4,4"/>
<!-- Node1 -->
<g id="node1" class="node">
<title>Node1</title>
<g id="a_node1"><a xlink:title=" ">
<polygon fill="#bfbfbf" stroke="black" points="157,-190.5 157,-209.5 282,-209.5 282,-190.5 157,-190.5"/>
<text text-anchor="middle" x="219.5" y="-197.5" font-family="Helvetica,sans-Serif" font-size="10.00">RIPEMD160_cryptopp.cc</text>
</a>
</g>
</g>
<!-- Node2 -->
<g id="node2" class="node">
<title>Node2</title>
<g id="a_node2"><a xlink:href="../../d4/d13/_r_i_p_e_m_d160__cryptopp_8h.html" target="_top" xlink:title=" ">
<polygon fill="white" stroke="black" points="84.5,-123.5 84.5,-153.5 246.5,-153.5 246.5,-123.5 84.5,-123.5"/>
<text text-anchor="start" x="92.5" y="-141.5" font-family="Helvetica,sans-Serif" font-size="10.00">automaton/core/crypto</text>
<text text-anchor="middle" x="165.5" y="-130.5" font-family="Helvetica,sans-Serif" font-size="10.00">/cryptopp/RIPEMD160_cryptopp.h</text>
</a>
</g>
</g>
<!-- Node1&#45;&gt;Node2 -->
<g id="edge1" class="edge">
<title>Node1&#45;&gt;Node2</title>
<path fill="none" stroke="midnightblue" d="M211.76,-190.48C204.79,-182.79 194.24,-171.17 184.98,-160.96"/>
<polygon fill="midnightblue" stroke="midnightblue" points="187.54,-158.58 178.23,-153.52 182.36,-163.28 187.54,-158.58"/>
</g>
<!-- Node5 -->
<g id="node5" class="node">
<title>Node5</title>
<g id="a_node5"><a xlink:href="../../d2/dab/hash__transformation_8h.html" target="_top" xlink:title=" ">
<polygon fill="white" stroke="black" points="223.5,-56.5 223.5,-86.5 339.5,-86.5 339.5,-56.5 223.5,-56.5"/>
<text text-anchor="start" x="231.5" y="-74.5" font-family="Helvetica,sans-Serif" font-size="10.00">automaton/core/crypto</text>
<text text-anchor="middle" x="281.5" y="-63.5" font-family="Helvetica,sans-Serif" font-size="10.00">/hash_transformation.h</text>
</a>
</g>
</g>
<!-- Node1&#45;&gt;Node5 -->
<g id="edge8" class="edge">
<title>Node1&#45;&gt;Node5</title>
<path fill="none" stroke="midnightblue" d="M228.01,-190.39C236.07,-181.81 248.04,-167.93 255.5,-154 265.22,-135.85 272.04,-113.46 276.25,-96.74"/>
<polygon fill="midnightblue" stroke="midnightblue" points="279.73,-97.21 278.64,-86.67 272.92,-95.59 279.73,-97.21"/>
</g>
<!-- Node3 -->
<g id="node3" class="node">
<title>Node3</title>
<g id="a_node3"><a xlink:title=" ">
<polygon fill="white" stroke="#bfbfbf" points="0,-62 0,-81 95,-81 95,-62 0,-62"/>
<text text-anchor="middle" x="47.5" y="-69" font-family="Helvetica,sans-Serif" font-size="10.00">cryptopp/cryptlib.h</text>
</a>
</g>
</g>
<!-- Node2&#45;&gt;Node3 -->
<g id="edge2" class="edge">
<title>Node2&#45;&gt;Node3</title>
<path fill="none" stroke="midnightblue" d="M139.9,-123.4C119.65,-112.24 91.58,-96.78 71.71,-85.83"/>
<polygon fill="midnightblue" stroke="midnightblue" points="73.39,-82.77 62.94,-81.01 70.01,-88.9 73.39,-82.77"/>
</g>
<!-- Node4 -->
<g id="node4" class="node">
<title>Node4</title>
<g id="a_node4"><a xlink:title=" ">
<polygon fill="white" stroke="#bfbfbf" points="113,-62 113,-81 206,-81 206,-62 113,-62"/>
<text text-anchor="middle" x="159.5" y="-69" font-family="Helvetica,sans-Serif" font-size="10.00">cryptopp/ripemd.h</text>
</a>
</g>
</g>
<!-- Node2&#45;&gt;Node4 -->
<g id="edge3" class="edge">
<title>Node2&#45;&gt;Node4</title>
<path fill="none" stroke="midnightblue" d="M164.2,-123.4C163.33,-113.96 162.17,-101.45 161.23,-91.19"/>
<polygon fill="midnightblue" stroke="midnightblue" points="164.71,-90.83 160.3,-81.19 157.74,-91.47 164.71,-90.83"/>
</g>
<!-- Node2&#45;&gt;Node5 -->
<g id="edge4" class="edge">
<title>Node2&#45;&gt;Node5</title>
<path fill="none" stroke="midnightblue" d="M190.67,-123.4C207.24,-114.11 229.14,-101.84 247.28,-91.67"/>
<polygon fill="midnightblue" stroke="midnightblue" points="249.37,-94.52 256.38,-86.58 245.94,-88.41 249.37,-94.52"/>
</g>
<!-- Node6 -->
<g id="node6" class="node">
<title>Node6</title>
<g id="a_node6"><a xlink:title=" ">
<polygon fill="white" stroke="#bfbfbf" points="191.5,-0.5 191.5,-19.5 245.5,-19.5 245.5,-0.5 191.5,-0.5"/>
<text text-anchor="middle" x="218.5" y="-7.5" font-family="Helvetica,sans-Serif" font-size="10.00">iostream</text>
</a>
</g>
</g>
<!-- Node5&#45;&gt;Node6 -->
<g id="edge5" class="edge">
<title>Node5&#45;&gt;Node6</title>
<path fill="none" stroke="midnightblue" d="M266.57,-56.4C257.13,-47.49 244.92,-35.95 235.17,-26.74"/>
<polygon fill="midnightblue" stroke="midnightblue" points="237.34,-23.98 227.67,-19.66 232.53,-29.07 237.34,-23.98"/>
</g>
<!-- Node7 -->
<g id="node7" class="node">
<title>Node7</title>
<g id="a_node7"><a xlink:title=" ">
<polygon fill="white" stroke="#bfbfbf" points="264,-0.5 264,-19.5 299,-19.5 299,-0.5 264,-0.5"/>
<text text-anchor="middle" x="281.5" y="-7.5" font-family="Helvetica,sans-Serif" font-size="10.00">map</text>
</a>
</g>
</g>
<!-- Node5&#45;&gt;Node7 -->
<g id="edge6" class="edge">
<title>Node5&#45;&gt;Node7</title>
<path fill="none" stroke="midnightblue" d="M281.5,-56.4C281.5,-48.47 281.5,-38.46 281.5,-29.86"/>
<polygon fill="midnightblue" stroke="midnightblue" points="285,-29.66 281.5,-19.66 278,-29.66 285,-29.66"/>
</g>
<!-- Node8 -->
<g id="node8" class="node">
<title>Node8</title>
<g id="a_node8"><a xlink:title=" ">
<polygon fill="white" stroke="#bfbfbf" points="317,-0.5 317,-19.5 358,-19.5 358,-0.5 317,-0.5"/>
<text text-anchor="middle" x="337.5" y="-7.5" font-family="Helvetica,sans-Serif" font-size="10.00">string</text>
</a>
</g>
</g>
<!-- Node5&#45;&gt;Node8 -->
<g id="edge7" class="edge">
<title>Node5&#45;&gt;Node8</title>
<path fill="none" stroke="midnightblue" d="M294.77,-56.4C303.08,-47.58 313.8,-36.18 322.42,-27.02"/>
<polygon fill="midnightblue" stroke="midnightblue" points="325.05,-29.34 329.35,-19.66 319.95,-24.54 325.05,-29.34"/>
</g>
</g>
</svg>
