<?xml version="1.0" encoding="UTF-8" standalone="no"?>
<!DOCTYPE svg PUBLIC "-//W3C//DTD SVG 1.1//EN"
 "http://www.w3.org/Graphics/SVG/1.1/DTD/svg11.dtd">
<!-- Generated by graphviz version 2.44.0 ()
 -->
<!-- Title: digital_signature.h Pages: 1 -->
<svg width="589pt" height="196pt"
 viewBox="0.00 0.00 589.16 196.00" xmlns="http://www.w3.org/2000/svg" xmlns:xlink="http://www.w3.org/1999/xlink">
<g id="graph0" class="graph" transform="scale(1 1) rotate(0) translate(4 192)">
<title>digital_signature.h</title>
<polygon fill="white" stroke="transparent" points="-4,4 -4,-192 585.16,-192 585.16,4 -4,4"/>
<!-- Node1 -->
<g id="node1" class="node">
<title>Node1</title>
<g id="a_node1"><a xlink:title=" ">
<polygon fill="#bfbfbf" stroke="black" points="234,-168.5 234,-187.5 329,-187.5 329,-168.5 234,-168.5"/>
<text text-anchor="middle" x="281.5" y="-175.5" font-family="Helvetica,sans-Serif" font-size="10.00">digital_signature.h</text>
</a>
</g>
</g>
<!-- Node2 -->
<g id="node2" class="node">
<title>Node2</title>
<g id="a_node2"><a xlink:href="../../df/d8a/secp256k1__cryptopp_8cc.html" target="_top" xlink:title=" ">
<polygon fill="white" stroke="black" points="0,-56.5 0,-75.5 119,-75.5 119,-56.5 0,-56.5"/>
<text text-anchor="middle" x="59.5" y="-63.5" font-family="Helvetica,sans-Serif" font-size="10.00">secp256k1_cryptopp.cc</text>
</a>
</g>
</g>
<!-- Node1&#45;&gt;Node2 -->
<g id="edge1" class="edge">
<title>Node1&#45;&gt;Node2</title>
<path fill="none" stroke="midnightblue" d="M223.62,-173.94C185.27,-169.38 135.57,-158.34 99.5,-132 79.6,-117.46 67.5,-89.74 62.37,-75.66"/>
<polygon fill="midnightblue" stroke="midnightblue" points="223.3,-177.43 233.62,-175.02 224.05,-170.47 223.3,-177.43"/>
</g>
<!-- Node3 -->
<g id="node3" class="node">
<title>Node3</title>
<g id="a_node3"><a xlink:href="../../d7/d15/secp256k1__cryptopp_8h.html" target="_top" xlink:title=" ">
<polygon fill="white" stroke="black" points="109,-112.5 109,-131.5 222,-131.5 222,-112.5 109,-112.5"/>
<text text-anchor="middle" x="165.5" y="-119.5" font-family="Helvetica,sans-Serif" font-size="10.00">secp256k1_cryptopp.h</text>
</a>
</g>
</g>
<!-- Node1&#45;&gt;Node3 -->
<g id="edge2" class="edge">
<title>Node1&#45;&gt;Node3</title>
<path fill="none" stroke="midnightblue" d="M253.78,-164.1C232.11,-154.01 202.6,-140.27 183.79,-131.52"/>
<polygon fill="midnightblue" stroke="midnightblue" points="252.58,-167.4 263.12,-168.44 255.53,-161.05 252.58,-167.4"/>
</g>
<!-- Node5 -->
<g id="node5" class="node">
<title>Node5</title>
<g id="a_node5"><a xlink:href="../../d0/dd2/digital__signature_8cc.html" target="_top" xlink:title=" ">
<polygon fill="white" stroke="black" points="415.5,-112.5 415.5,-131.5 515.5,-131.5 515.5,-112.5 415.5,-112.5"/>
<text text-anchor="middle" x="465.5" y="-119.5" font-family="Helvetica,sans-Serif" font-size="10.00">digital_signature.cc</text>
</a>
</g>
</g>
<!-- Node1&#45;&gt;Node5 -->
<g id="edge5" class="edge">
<title>Node1&#45;&gt;Node5</title>
<path fill="none" stroke="midnightblue" d="M320.45,-165.57C355.16,-155.38 405.18,-140.7 436.48,-131.52"/>
<polygon fill="midnightblue" stroke="midnightblue" points="319.27,-162.27 310.66,-168.44 321.24,-168.99 319.27,-162.27"/>
</g>
<!-- Node6 -->
<g id="node6" class="node">
<title>Node6</title>
<g id="a_node6"><a xlink:href="../../da/d84/ed25519__orlp_8h.html" target="_top" xlink:title=" ">
<polygon fill="white" stroke="black" points="240.5,-112.5 240.5,-131.5 322.5,-131.5 322.5,-112.5 240.5,-112.5"/>
<text text-anchor="middle" x="281.5" y="-119.5" font-family="Helvetica,sans-Serif" font-size="10.00">ed25519_orlp.h</text>
</a>
</g>
</g>
<!-- Node1&#45;&gt;Node6 -->
<g id="edge6" class="edge">
<title>Node1&#45;&gt;Node6</title>
<path fill="none" stroke="midnightblue" d="M281.5,-157.8C281.5,-148.91 281.5,-138.78 281.5,-131.75"/>
<polygon fill="midnightblue" stroke="midnightblue" points="278,-158.08 281.5,-168.08 285,-158.08 278,-158.08"/>
</g>
<!-- Node8 -->
<g id="node8" class="node">
<title>Node8</title>
<g id="a_node8"><a xlink:href="../../d1/d55/engine_8h.html" target="_top" xlink:title=" ">
<polygon fill="white" stroke="black" points="344,-112.5 344,-131.5 397,-131.5 397,-112.5 344,-112.5"/>
<text text-anchor="middle" x="370.5" y="-119.5" font-family="Helvetica,sans-Serif" font-size="10.00">engine.h</text>
</a>
</g>
</g>
<!-- Node1&#45;&gt;Node8 -->
<g id="edge9" class="edge">
<title>Node1&#45;&gt;Node8</title>
<path fill="none" stroke="midnightblue" d="M304.74,-162.9C321.06,-153 342.37,-140.07 356.24,-131.65"/>
<polygon fill="midnightblue" stroke="midnightblue" points="302.53,-160.14 295.8,-168.32 306.16,-166.13 302.53,-160.14"/>
</g>
<!-- Node3&#45;&gt;Node2 -->
<g id="edge3" class="edge">
<title>Node3&#45;&gt;Node2</title>
<path fill="none" stroke="midnightblue" d="M139.44,-107.73C119.82,-97.73 93.47,-84.31 76.49,-75.65"/>
<polygon fill="midnightblue" stroke="midnightblue" points="137.97,-110.9 148.47,-112.32 141.15,-104.67 137.97,-110.9"/>
</g>
<!-- Node4 -->
<g id="node4" class="node">
<title>Node4</title>
<g id="a_node4"><a xlink:href="../../df/de4/bind__crypto_8cc.html" target="_top" xlink:title=" ">
<polygon fill="white" stroke="black" points="242,-56.5 242,-75.5 321,-75.5 321,-56.5 242,-56.5"/>
<text text-anchor="middle" x="281.5" y="-63.5" font-family="Helvetica,sans-Serif" font-size="10.00">bind_crypto.cc</text>
</a>
</g>
</g>
<!-- Node3&#45;&gt;Node4 -->
<g id="edge4" class="edge">
<title>Node3&#45;&gt;Node4</title>
<path fill="none" stroke="midnightblue" d="M193.22,-108.1C214.89,-98.01 244.4,-84.27 263.21,-75.52"/>
<polygon fill="midnightblue" stroke="midnightblue" points="191.47,-105.05 183.88,-112.44 194.42,-111.4 191.47,-105.05"/>
</g>
<!-- Node6&#45;&gt;Node4 -->
<g id="edge8" class="edge">
<title>Node6&#45;&gt;Node4</title>
<path fill="none" stroke="midnightblue" d="M281.5,-101.8C281.5,-92.91 281.5,-82.78 281.5,-75.75"/>
<polygon fill="midnightblue" stroke="midnightblue" points="278,-102.08 281.5,-112.08 285,-102.08 278,-102.08"/>
</g>
<!-- Node7 -->
<g id="node7" class="node">
<title>Node7</title>
<g id="a_node7"><a xlink:href="../../de/d4f/ed25519__orlp_8cc.html" target="_top" xlink:title=" ">
<polygon fill="white" stroke="black" points="137,-56.5 137,-75.5 224,-75.5 224,-56.5 137,-56.5"/>
<text text-anchor="middle" x="180.5" y="-63.5" font-family="Helvetica,sans-Serif" font-size="10.00">ed25519_orlp.cc</text>
</a>
</g>
</g>
<!-- Node6&#45;&gt;Node7 -->
<g id="edge7" class="edge">
<title>Node6&#45;&gt;Node7</title>
<path fill="none" stroke="midnightblue" d="M256.42,-107.59C237.74,-97.61 212.8,-84.27 196.69,-75.65"/>
<polygon fill="midnightblue" stroke="midnightblue" points="254.8,-110.7 265.27,-112.32 258.1,-104.52 254.8,-110.7"/>
</g>
<!-- Node8&#45;&gt;Node4 -->
<g id="edge14" class="edge">
<title>Node8&#45;&gt;Node4</title>
<path fill="none" stroke="midnightblue" d="M347.26,-106.9C330.94,-97 309.63,-84.07 295.76,-75.65"/>
<polygon fill="midnightblue" stroke="midnightblue" points="345.84,-110.13 356.2,-112.32 349.47,-104.14 345.84,-110.13"/>
</g>
<!-- Node9 -->
<g id="node9" class="node">
<title>Node9</title>
<g id="a_node9"><a xlink:href="../../dd/de7/core_8cc.html" target="_top" xlink:title=" ">
<polygon fill="white" stroke="black" points="496.5,-0.5 496.5,-19.5 544.5,-19.5 544.5,-0.5 496.5,-0.5"/>
<text text-anchor="middle" x="520.5" y="-7.5" font-family="Helvetica,sans-Serif" font-size="10.00">core.cc</text>
</a>
</g>
</g>
<!-- Node8&#45;&gt;Node9 -->
<g id="edge10" class="edge">
<title>Node8&#45;&gt;Node9</title>
<path fill="none" stroke="midnightblue" d="M407.42,-112.1C485.54,-97.85 529.87,-133.54 576.5,-76 593.19,-55.4 559.6,-32.02 537.58,-19.69"/>
<polygon fill="midnightblue" stroke="midnightblue" points="406.29,-108.75 397.21,-114.21 407.71,-115.61 406.29,-108.75"/>
</g>
<!-- Node10 -->
<g id="node10" class="node">
<title>Node10</title>
<g id="a_node10"><a xlink:href="../../d9/d5a/lua__node_8h.html" target="_top" xlink:title=" ">
<polygon fill="white" stroke="black" points="339,-56.5 339,-75.5 402,-75.5 402,-56.5 339,-56.5"/>
<text text-anchor="middle" x="370.5" y="-63.5" font-family="Helvetica,sans-Serif" font-size="10.00">lua_node.h</text>
</a>
</g>
</g>
<!-- Node8&#45;&gt;Node10 -->
<g id="edge11" class="edge">
<title>Node8&#45;&gt;Node10</title>
<path fill="none" stroke="midnightblue" d="M370.5,-101.8C370.5,-92.91 370.5,-82.78 370.5,-75.75"/>
<polygon fill="midnightblue" stroke="midnightblue" points="367,-102.08 370.5,-112.08 374,-102.08 367,-102.08"/>
</g>
<!-- Node12 -->
<g id="node12" class="node">
<title>Node12</title>
<g id="a_node12"><a xlink:href="../../d8/dd3/bind__data_8cc.html" target="_top" xlink:title=" ">
<polygon fill="white" stroke="black" points="420,-56.5 420,-75.5 491,-75.5 491,-56.5 420,-56.5"/>
<text text-anchor="middle" x="455.5" y="-63.5" font-family="Helvetica,sans-Serif" font-size="10.00">bind_data.cc</text>
</a>
</g>
</g>
<!-- Node8&#45;&gt;Node12 -->
<g id="edge15" class="edge">
<title>Node8&#45;&gt;Node12</title>
<path fill="none" stroke="midnightblue" d="M392.69,-106.9C408.28,-97 428.63,-84.07 441.88,-75.65"/>
<polygon fill="midnightblue" stroke="midnightblue" points="390.72,-104.01 384.16,-112.32 394.47,-109.92 390.72,-104.01"/>
</g>
<!-- Node13 -->
<g id="node13" class="node">
<title>Node13</title>
<g id="a_node13"><a xlink:href="../../db/d7f/engine_8cc.html" target="_top" xlink:title=" ">
<polygon fill="white" stroke="black" points="509.5,-56.5 509.5,-75.5 567.5,-75.5 567.5,-56.5 509.5,-56.5"/>
<text text-anchor="middle" x="538.5" y="-63.5" font-family="Helvetica,sans-Serif" font-size="10.00">engine.cc</text>
</a>
</g>
</g>
<!-- Node8&#45;&gt;Node13 -->
<g id="edge16" class="edge">
<title>Node8&#45;&gt;Node13</title>
<path fill="none" stroke="midnightblue" d="M406.89,-109.3C438.54,-99.13 483.67,-84.62 512,-75.52"/>
<polygon fill="midnightblue" stroke="midnightblue" points="405.57,-106.05 397.12,-112.44 407.71,-112.72 405.57,-106.05"/>
</g>
<!-- Node10&#45;&gt;Node9 -->
<g id="edge12" class="edge">
<title>Node10&#45;&gt;Node9</title>
<path fill="none" stroke="midnightblue" d="M403.72,-53.04C431.95,-42.88 471.76,-28.55 496.84,-19.52"/>
<polygon fill="midnightblue" stroke="midnightblue" points="402.49,-49.76 394.27,-56.44 404.86,-56.35 402.49,-49.76"/>
</g>
<!-- Node11 -->
<g id="node11" class="node">
<title>Node11</title>
<g id="a_node11"><a xlink:href="../../db/d7e/lua__node_8cc.html" target="_top" xlink:title=" ">
<polygon fill="white" stroke="black" points="336.5,-0.5 336.5,-19.5 404.5,-19.5 404.5,-0.5 336.5,-0.5"/>
<text text-anchor="middle" x="370.5" y="-7.5" font-family="Helvetica,sans-Serif" font-size="10.00">lua_node.cc</text>
</a>
</g>
</g>
<!-- Node10&#45;&gt;Node11 -->
<g id="edge13" class="edge">
<title>Node10&#45;&gt;Node11</title>
<path fill="none" stroke="midnightblue" d="M370.5,-45.8C370.5,-36.91 370.5,-26.78 370.5,-19.75"/>
<polygon fill="midnightblue" stroke="midnightblue" points="367,-46.08 370.5,-56.08 374,-46.08 367,-46.08"/>
</g>
</g>
</svg>
