<?xml version="1.0" encoding="UTF-8" standalone="no"?>
<!DOCTYPE svg PUBLIC "-//W3C//DTD SVG 1.1//EN"
 "http://www.w3.org/Graphics/SVG/1.1/DTD/svg11.dtd">
<!-- Generated by graphviz version 2.42.3 ()
 -->
<!-- Title: protobuf_schema.h Pages: 1 -->
<svg width="1407pt" height="151pt"
 viewBox="0.00 0.00 1406.50 151.00" xmlns="http://www.w3.org/2000/svg" xmlns:xlink="http://www.w3.org/1999/xlink">
<g id="graph0" class="graph" transform="scale(1 1) rotate(0) translate(4 147)">
<title>protobuf_schema.h</title>
<polygon fill="white" stroke="transparent" points="-4,4 -4,-147 1402.5,-147 1402.5,4 -4,4"/>
<!-- Node1 -->
<g id="node1" class="node">
<title>Node1</title>
<g id="a_node1"><a xlink:title=" ">
<polygon fill="#bfbfbf" stroke="black" points="800,-123.5 800,-142.5 899,-142.5 899,-123.5 800,-123.5"/>
<text text-anchor="middle" x="849.5" y="-130.5" font-family="Helvetica,sans-Serif" font-size="10.00">protobuf_schema.h</text>
</a>
</g>
</g>
<!-- Node2 -->
<g id="node2" class="node">
<title>Node2</title>
<g id="a_node2"><a xlink:title=" ">
<polygon fill="white" stroke="#bfbfbf" points="0,-56.5 0,-86.5 123,-86.5 123,-56.5 0,-56.5"/>
<text text-anchor="start" x="8" y="-74.5" font-family="Helvetica,sans-Serif" font-size="10.00">google/protobuf/compiler</text>
<text text-anchor="middle" x="61.5" y="-63.5" font-family="Helvetica,sans-Serif" font-size="10.00">/parser.h</text>
</a>
</g>
</g>
<!-- Node1&#45;&gt;Node2 -->
<g id="edge1" class="edge">
<title>Node1&#45;&gt;Node2</title>
<path fill="none" stroke="midnightblue" d="M799.65,-131.3C684.08,-129.16 388.85,-120.71 133.47,-87.15"/>
<polygon fill="midnightblue" stroke="midnightblue" points="133.63,-83.64 123.26,-85.79 132.71,-90.57 133.63,-83.64"/>
</g>
<!-- Node3 -->
<g id="node3" class="node">
<title>Node3</title>
<g id="a_node3"><a xlink:title=" ">
<polygon fill="white" stroke="#bfbfbf" points="141,-62 141,-81 278,-81 278,-62 141,-62"/>
<text text-anchor="middle" x="209.5" y="-69" font-family="Helvetica,sans-Serif" font-size="10.00">google/protobuf/descriptor.h</text>
</a>
</g>
</g>
<!-- Node1&#45;&gt;Node3 -->
<g id="edge2" class="edge">
<title>Node1&#45;&gt;Node3</title>
<path fill="none" stroke="midnightblue" d="M799.99,-129.82C701.73,-125.09 475.29,-112.25 286.5,-87 278.07,-85.87 269.16,-84.43 260.52,-82.9"/>
<polygon fill="midnightblue" stroke="midnightblue" points="261,-79.43 250.53,-81.06 259.73,-86.31 261,-79.43"/>
</g>
<!-- Node4 -->
<g id="node4" class="node">
<title>Node4</title>
<g id="a_node4"><a xlink:title=" ">
<polygon fill="white" stroke="#bfbfbf" points="296,-62 296,-81 445,-81 445,-62 296,-62"/>
<text text-anchor="middle" x="370.5" y="-69" font-family="Helvetica,sans-Serif" font-size="10.00">google/protobuf/descriptor.pb.h</text>
</a>
</g>
</g>
<!-- Node1&#45;&gt;Node4 -->
<g id="edge3" class="edge">
<title>Node1&#45;&gt;Node4</title>
<path fill="none" stroke="midnightblue" d="M799.81,-127.26C724.82,-119.91 578.34,-104.73 454.5,-87 445.67,-85.74 436.33,-84.26 427.22,-82.75"/>
<polygon fill="midnightblue" stroke="midnightblue" points="427.52,-79.25 417.08,-81.03 426.35,-86.15 427.52,-79.25"/>
</g>
<!-- Node5 -->
<g id="node5" class="node">
<title>Node5</title>
<g id="a_node5"><a xlink:title=" ">
<polygon fill="white" stroke="#bfbfbf" points="463.5,-56.5 463.5,-86.5 585.5,-86.5 585.5,-56.5 463.5,-56.5"/>
<text text-anchor="start" x="471.5" y="-74.5" font-family="Helvetica,sans-Serif" font-size="10.00">google/protobuf/dynamic</text>
<text text-anchor="middle" x="524.5" y="-63.5" font-family="Helvetica,sans-Serif" font-size="10.00">_message.h</text>
</a>
</g>
</g>
<!-- Node1&#45;&gt;Node5 -->
<g id="edge4" class="edge">
<title>Node1&#45;&gt;Node5</title>
<path fill="none" stroke="midnightblue" d="M799.58,-123.64C750.23,-115.27 672.3,-101.79 595.42,-87.15"/>
<polygon fill="midnightblue" stroke="midnightblue" points="596.04,-83.7 585.56,-85.26 594.73,-90.58 596.04,-83.7"/>
</g>
<!-- Node6 -->
<g id="node6" class="node">
<title>Node6</title>
<g id="a_node6"><a xlink:title=" ">
<polygon fill="white" stroke="#bfbfbf" points="603.5,-56.5 603.5,-86.5 697.5,-86.5 697.5,-56.5 603.5,-56.5"/>
<text text-anchor="start" x="611.5" y="-74.5" font-family="Helvetica,sans-Serif" font-size="10.00">google/protobuf/io</text>
<text text-anchor="middle" x="650.5" y="-63.5" font-family="Helvetica,sans-Serif" font-size="10.00">/tokenizer.h</text>
</a>
</g>
</g>
<!-- Node1&#45;&gt;Node6 -->
<g id="edge5" class="edge">
<title>Node1&#45;&gt;Node6</title>
<path fill="none" stroke="midnightblue" d="M820.99,-123.48C791.39,-114.63 744.31,-100.55 707.12,-89.43"/>
<polygon fill="midnightblue" stroke="midnightblue" points="707.98,-86.03 697.4,-86.52 705.98,-92.74 707.98,-86.03"/>
</g>
<!-- Node7 -->
<g id="node7" class="node">
<title>Node7</title>
<g id="a_node7"><a xlink:title=" ">
<polygon fill="white" stroke="#bfbfbf" points="716,-56.5 716,-86.5 845,-86.5 845,-56.5 716,-56.5"/>
<text text-anchor="start" x="724" y="-74.5" font-family="Helvetica,sans-Serif" font-size="10.00">google/protobuf/io</text>
<text text-anchor="middle" x="780.5" y="-63.5" font-family="Helvetica,sans-Serif" font-size="10.00">/zero_copy_stream_impl.h</text>
</a>
</g>
</g>
<!-- Node1&#45;&gt;Node7 -->
<g id="edge6" class="edge">
<title>Node1&#45;&gt;Node7</title>
<path fill="none" stroke="midnightblue" d="M839.61,-123.48C830.44,-115.57 816.43,-103.48 804.35,-93.07"/>
<polygon fill="midnightblue" stroke="midnightblue" points="806.62,-90.4 796.76,-86.52 802.05,-95.7 806.62,-90.4"/>
</g>
<!-- Node8 -->
<g id="node8" class="node">
<title>Node8</title>
<g id="a_node8"><a xlink:title=" ">
<polygon fill="white" stroke="#bfbfbf" points="863,-62 863,-81 976,-81 976,-62 863,-62"/>
<text text-anchor="middle" x="919.5" y="-69" font-family="Helvetica,sans-Serif" font-size="10.00">google/protobuf/map.h</text>
</a>
</g>
</g>
<!-- Node1&#45;&gt;Node8 -->
<g id="edge7" class="edge">
<title>Node1&#45;&gt;Node8</title>
<path fill="none" stroke="midnightblue" d="M859.53,-123.48C870.55,-114.11 888.46,-98.88 901.84,-87.51"/>
<polygon fill="midnightblue" stroke="midnightblue" points="904.14,-90.15 909.49,-81.01 899.6,-84.82 904.14,-90.15"/>
</g>
<!-- Node9 -->
<g id="node9" class="node">
<title>Node9</title>
<g id="a_node9"><a xlink:title=" ">
<polygon fill="white" stroke="#bfbfbf" points="994.5,-62 994.5,-81 1128.5,-81 1128.5,-62 994.5,-62"/>
<text text-anchor="middle" x="1061.5" y="-69" font-family="Helvetica,sans-Serif" font-size="10.00">google/protobuf/message.h</text>
</a>
</g>
</g>
<!-- Node1&#45;&gt;Node9 -->
<g id="edge8" class="edge">
<title>Node1&#45;&gt;Node9</title>
<path fill="none" stroke="midnightblue" d="M879.87,-123.48C917.11,-113.03 980.31,-95.29 1021.48,-83.73"/>
<polygon fill="midnightblue" stroke="midnightblue" points="1022.5,-87.08 1031.18,-81.01 1020.61,-80.34 1022.5,-87.08"/>
</g>
<!-- Node10 -->
<g id="node10" class="node">
<title>Node10</title>
<g id="a_node10"><a xlink:title=" ">
<polygon fill="white" stroke="#bfbfbf" points="1147,-62 1147,-81 1198,-81 1198,-62 1147,-62"/>
<text text-anchor="middle" x="1172.5" y="-69" font-family="Helvetica,sans-Serif" font-size="10.00">memory</text>
</a>
</g>
</g>
<!-- Node1&#45;&gt;Node10 -->
<g id="edge9" class="edge">
<title>Node1&#45;&gt;Node10</title>
<path fill="none" stroke="midnightblue" d="M899.18,-127.86C957.2,-122.19 1055.65,-109.99 1137.5,-87 1139.94,-86.32 1142.43,-85.51 1144.92,-84.63"/>
<polygon fill="midnightblue" stroke="midnightblue" points="1146.2,-87.89 1154.26,-81.02 1143.67,-81.36 1146.2,-87.89"/>
</g>
<!-- Node11 -->
<g id="node11" class="node">
<title>Node11</title>
<g id="a_node11"><a xlink:title=" ">
<polygon fill="white" stroke="#bfbfbf" points="1219,-0.5 1219,-19.5 1260,-19.5 1260,-0.5 1219,-0.5"/>
<text text-anchor="middle" x="1239.5" y="-7.5" font-family="Helvetica,sans-Serif" font-size="10.00">string</text>
</a>
</g>
</g>
<!-- Node1&#45;&gt;Node11 -->
<g id="edge10" class="edge">
<title>Node1&#45;&gt;Node11</title>
<path fill="none" stroke="midnightblue" d="M899.32,-131.66C985.82,-130.12 1159.08,-122.55 1206.5,-87 1224.71,-73.35 1233.02,-47.53 1236.71,-29.81"/>
<polygon fill="midnightblue" stroke="midnightblue" points="1240.19,-30.23 1238.49,-19.77 1233.29,-29 1240.19,-30.23"/>
</g>
<!-- Node12 -->
<g id="node12" class="node">
<title>Node12</title>
<g id="a_node12"><a xlink:title=" ">
<polygon fill="white" stroke="#bfbfbf" points="1354.5,-0.5 1354.5,-19.5 1398.5,-19.5 1398.5,-0.5 1354.5,-0.5"/>
<text text-anchor="middle" x="1376.5" y="-7.5" font-family="Helvetica,sans-Serif" font-size="10.00">vector</text>
</a>
</g>
</g>
<!-- Node1&#45;&gt;Node12 -->
<g id="edge11" class="edge">
<title>Node1&#45;&gt;Node12</title>
<path fill="none" stroke="midnightblue" d="M899.27,-131.25C1022.93,-128.9 1336.57,-119.75 1369.5,-87 1384.3,-72.28 1383.54,-46.91 1380.76,-29.56"/>
<polygon fill="midnightblue" stroke="midnightblue" points="1384.15,-28.65 1378.79,-19.51 1377.28,-30 1384.15,-28.65"/>
</g>
<!-- Node13 -->
<g id="node13" class="node">
<title>Node13</title>
<g id="a_node13"><a xlink:href="../../d7/de3/schema_8h.html" target="_top" xlink:title=" ">
<polygon fill="white" stroke="black" points="1254.5,-56.5 1254.5,-86.5 1360.5,-86.5 1360.5,-56.5 1254.5,-56.5"/>
<text text-anchor="start" x="1262.5" y="-74.5" font-family="Helvetica,sans-Serif" font-size="10.00">automaton/core/data</text>
<text text-anchor="middle" x="1307.5" y="-63.5" font-family="Helvetica,sans-Serif" font-size="10.00">/schema.h</text>
</a>
</g>
</g>
<!-- Node1&#45;&gt;Node13 -->
<g id="edge12" class="edge">
<title>Node1&#45;&gt;Node13</title>
<path fill="none" stroke="midnightblue" d="M899.1,-127.87C973.55,-121.32 1118.48,-107.17 1240.5,-87 1241.75,-86.79 1243.02,-86.58 1244.3,-86.35"/>
<polygon fill="midnightblue" stroke="midnightblue" points="1245,-89.78 1254.2,-84.53 1243.73,-82.9 1245,-89.78"/>
</g>
<!-- Node13&#45;&gt;Node11 -->
<g id="edge14" class="edge">
<title>Node13&#45;&gt;Node11</title>
<path fill="none" stroke="midnightblue" d="M1291.38,-56.4C1281.1,-47.4 1267.75,-35.72 1257.17,-26.47"/>
<polygon fill="midnightblue" stroke="midnightblue" points="1259.23,-23.61 1249.39,-19.66 1254.62,-28.88 1259.23,-23.61"/>
</g>
<!-- Node13&#45;&gt;Node12 -->
<g id="edge15" class="edge">
<title>Node13&#45;&gt;Node12</title>
<path fill="none" stroke="midnightblue" d="M1323.85,-56.4C1334.4,-47.31 1348.1,-35.49 1358.88,-26.19"/>
<polygon fill="midnightblue" stroke="midnightblue" points="1361.17,-28.84 1366.46,-19.66 1356.6,-23.54 1361.17,-28.84"/>
</g>
<!-- Node14 -->
<g id="node14" class="node">
<title>Node14</title>
<g id="a_node14"><a xlink:title=" ">
<polygon fill="white" stroke="#bfbfbf" points="1290,-0.5 1290,-19.5 1325,-19.5 1325,-0.5 1290,-0.5"/>
<text text-anchor="middle" x="1307.5" y="-7.5" font-family="Helvetica,sans-Serif" font-size="10.00">map</text>
</a>
</g>
</g>
<!-- Node13&#45;&gt;Node14 -->
<g id="edge13" class="edge">
<title>Node13&#45;&gt;Node14</title>
<path fill="none" stroke="midnightblue" d="M1307.5,-56.4C1307.5,-48.47 1307.5,-38.46 1307.5,-29.86"/>
<polygon fill="midnightblue" stroke="midnightblue" points="1311,-29.66 1307.5,-19.66 1304,-29.66 1311,-29.66"/>
</g>
</g>
</svg>
