<?xml version="1.0" encoding="UTF-8" standalone="no"?>
<!DOCTYPE svg PUBLIC "-//W3C//DTD SVG 1.1//EN"
 "http://www.w3.org/Graphics/SVG/1.1/DTD/svg11.dtd">
<!-- Generated by graphviz version 2.44.0 ()
 -->
<!-- Title: automaton::core::network::tcp_acceptor::start_accepting Pages: 1 -->
<svg width="330pt" height="170pt"
 viewBox="0.00 0.00 330.00 170.00" xmlns="http://www.w3.org/2000/svg" xmlns:xlink="http://www.w3.org/1999/xlink">
<g id="graph0" class="graph" transform="scale(1 1) rotate(0) translate(4 166)">
<title>automaton::core::network::tcp_acceptor::start_accepting</title>
<polygon fill="white" stroke="transparent" points="-4,4 -4,-166 326,-166 326,4 -4,4"/>
<!-- Node1 -->
<g id="node1" class="node">
<title>Node1</title>
<g id="a_node1"><a xlink:title="The acceptor starts to listen for incoming connections. Asynchronous.">
<polygon fill="#bfbfbf" stroke="black" points="0,-66 0,-96 149,-96 149,-66 0,-66"/>
<text text-anchor="start" x="8" y="-84" font-family="Helvetica,sans-Serif" font-size="10.00">automaton::core::network</text>
<text text-anchor="middle" x="74.5" y="-73" font-family="Helvetica,sans-Serif" font-size="10.00">::tcp_acceptor::start_accepting</text>
</a>
</g>
</g>
<!-- Node2 -->
<g id="node2" class="node">
<title>Node2</title>
<g id="a_node2"><a xlink:href="../../d0/d47/classautomaton_1_1core_1_1network_1_1acceptor_1_1acceptor__handler.html#ad3e5fca33c60a3c57170e2259fb90216" target="_top" xlink:title=" ">
<polygon fill="white" stroke="black" points="185,-120.5 185,-161.5 322,-161.5 322,-120.5 185,-120.5"/>
<text text-anchor="start" x="193" y="-149.5" font-family="Helvetica,sans-Serif" font-size="10.00">automaton::core::network</text>
<text text-anchor="start" x="193" y="-138.5" font-family="Helvetica,sans-Serif" font-size="10.00">::acceptor::acceptor_handler</text>
<text text-anchor="middle" x="253.5" y="-127.5" font-family="Helvetica,sans-Serif" font-size="10.00">::on_acceptor_error</text>
</a>
</g>
</g>
<!-- Node1&#45;&gt;Node2 -->
<g id="edge1" class="edge">
<title>Node1&#45;&gt;Node2</title>
<path fill="none" stroke="midnightblue" d="M120.16,-96.14C138.99,-102.52 161.36,-110.11 182.3,-117.2"/>
<polygon fill="midnightblue" stroke="midnightblue" points="181.21,-120.53 191.8,-120.42 183.46,-113.9 181.21,-120.53"/>
</g>
<!-- Node3 -->
<g id="node3" class="node">
<title>Node3</title>
<g id="a_node3"><a xlink:href="../../d0/d47/classautomaton_1_1core_1_1network_1_1acceptor_1_1acceptor__handler.html#a7ac8bd59af785378ef12d48ada1b6004" target="_top" xlink:title=" ">
<polygon fill="white" stroke="black" points="185,-60.5 185,-101.5 322,-101.5 322,-60.5 185,-60.5"/>
<text text-anchor="start" x="193" y="-89.5" font-family="Helvetica,sans-Serif" font-size="10.00">automaton::core::network</text>
<text text-anchor="start" x="193" y="-78.5" font-family="Helvetica,sans-Serif" font-size="10.00">::acceptor::acceptor_handler</text>
<text text-anchor="middle" x="253.5" y="-67.5" font-family="Helvetica,sans-Serif" font-size="10.00">::on_connected</text>
</a>
</g>
</g>
<!-- Node1&#45;&gt;Node3 -->
<g id="edge2" class="edge">
<title>Node1&#45;&gt;Node3</title>
<path fill="none" stroke="midnightblue" d="M149.03,-81C157.47,-81 166.09,-81 174.59,-81"/>
<polygon fill="midnightblue" stroke="midnightblue" points="174.87,-84.5 184.87,-81 174.87,-77.5 174.87,-84.5"/>
</g>
<!-- Node4 -->
<g id="node4" class="node">
<title>Node4</title>
<g id="a_node4"><a xlink:href="../../d0/d47/classautomaton_1_1core_1_1network_1_1acceptor_1_1acceptor__handler.html#abaa2acfff9b0b6ed3c552bbc0f8e4b40" target="_top" xlink:title=" ">
<polygon fill="white" stroke="black" points="185,-0.5 185,-41.5 322,-41.5 322,-0.5 185,-0.5"/>
<text text-anchor="start" x="193" y="-29.5" font-family="Helvetica,sans-Serif" font-size="10.00">automaton::core::network</text>
<text text-anchor="start" x="193" y="-18.5" font-family="Helvetica,sans-Serif" font-size="10.00">::acceptor::acceptor_handler</text>
<text text-anchor="middle" x="253.5" y="-7.5" font-family="Helvetica,sans-Serif" font-size="10.00">::on_requested</text>
</a>
</g>
</g>
<!-- Node1&#45;&gt;Node4 -->
<g id="edge3" class="edge">
<title>Node1&#45;&gt;Node4</title>
<path fill="none" stroke="midnightblue" d="M120.16,-65.86C138.99,-59.48 161.36,-51.89 182.3,-44.8"/>
<polygon fill="midnightblue" stroke="midnightblue" points="183.46,-48.1 191.8,-41.58 181.21,-41.47 183.46,-48.1"/>
</g>
</g>
</svg>
