<?xml version="1.0" encoding="UTF-8" standalone="no"?>
<!DOCTYPE svg PUBLIC "-//W3C//DTD SVG 1.1//EN"
 "http://www.w3.org/Graphics/SVG/1.1/DTD/svg11.dtd">
<!-- Generated by graphviz version 2.44.0 ()
 -->
<!-- Title: msg.h Pages: 1 -->
<svg width="242pt" height="151pt"
 viewBox="0.00 0.00 241.50 151.00" xmlns="http://www.w3.org/2000/svg" xmlns:xlink="http://www.w3.org/1999/xlink">
<g id="graph0" class="graph" transform="scale(1 1) rotate(0) translate(4 147)">
<title>msg.h</title>
<polygon fill="white" stroke="transparent" points="-4,4 -4,-147 237.5,-147 237.5,4 -4,4"/>
<!-- Node1 -->
<g id="node1" class="node">
<title>Node1</title>
<g id="a_node1"><a xlink:title=" ">
<polygon fill="#bfbfbf" stroke="black" points="58,-123.5 58,-142.5 101,-142.5 101,-123.5 58,-123.5"/>
<text text-anchor="middle" x="79.5" y="-130.5" font-family="Helvetica,sans-Serif" font-size="10.00">msg.h</text>
</a>
</g>
</g>
<!-- Node2 -->
<g id="node2" class="node">
<title>Node2</title>
<g id="a_node2"><a xlink:title=" ">
<polygon fill="white" stroke="#bfbfbf" points="0,-62 0,-81 51,-81 51,-62 0,-62"/>
<text text-anchor="middle" x="25.5" y="-69" font-family="Helvetica,sans-Serif" font-size="10.00">memory</text>
</a>
</g>
</g>
<!-- Node1&#45;&gt;Node2 -->
<g id="edge1" class="edge">
<title>Node1&#45;&gt;Node2</title>
<path fill="none" stroke="midnightblue" d="M71.76,-123.48C63.5,-114.37 50.22,-99.74 40.01,-88.48"/>
<polygon fill="midnightblue" stroke="midnightblue" points="42.53,-86.06 33.22,-81.01 37.35,-90.77 42.53,-86.06"/>
</g>
<!-- Node3 -->
<g id="node3" class="node">
<title>Node3</title>
<g id="a_node3"><a xlink:title=" ">
<polygon fill="white" stroke="#bfbfbf" points="71,-0.5 71,-19.5 112,-19.5 112,-0.5 71,-0.5"/>
<text text-anchor="middle" x="91.5" y="-7.5" font-family="Helvetica,sans-Serif" font-size="10.00">string</text>
</a>
</g>
</g>
<!-- Node1&#45;&gt;Node3 -->
<g id="edge2" class="edge">
<title>Node1&#45;&gt;Node3</title>
<path fill="none" stroke="midnightblue" d="M80.36,-123.3C82.29,-103.85 86.99,-56.49 89.63,-29.9"/>
<polygon fill="midnightblue" stroke="midnightblue" points="93.14,-29.92 90.64,-19.62 86.17,-29.23 93.14,-29.92"/>
</g>
<!-- Node4 -->
<g id="node4" class="node">
<title>Node4</title>
<g id="a_node4"><a xlink:href="../../d7/de3/schema_8h.html" target="_top" xlink:title=" ">
<polygon fill="white" stroke="black" points="107.5,-56.5 107.5,-86.5 213.5,-86.5 213.5,-56.5 107.5,-56.5"/>
<text text-anchor="start" x="115.5" y="-74.5" font-family="Helvetica,sans-Serif" font-size="10.00">automaton/core/data</text>
<text text-anchor="middle" x="160.5" y="-63.5" font-family="Helvetica,sans-Serif" font-size="10.00">/schema.h</text>
</a>
</g>
</g>
<!-- Node1&#45;&gt;Node4 -->
<g id="edge3" class="edge">
<title>Node1&#45;&gt;Node4</title>
<path fill="none" stroke="midnightblue" d="M91.11,-123.48C102.08,-115.42 118.95,-103.02 133.31,-92.47"/>
<polygon fill="midnightblue" stroke="midnightblue" points="135.42,-95.26 141.41,-86.52 131.28,-89.62 135.42,-95.26"/>
</g>
<!-- Node4&#45;&gt;Node3 -->
<g id="edge5" class="edge">
<title>Node4&#45;&gt;Node3</title>
<path fill="none" stroke="midnightblue" d="M144.15,-56.4C133.6,-47.31 119.9,-35.49 109.12,-26.19"/>
<polygon fill="midnightblue" stroke="midnightblue" points="111.4,-23.54 101.54,-19.66 106.83,-28.84 111.4,-23.54"/>
</g>
<!-- Node5 -->
<g id="node5" class="node">
<title>Node5</title>
<g id="a_node5"><a xlink:title=" ">
<polygon fill="white" stroke="#bfbfbf" points="136,-0.5 136,-19.5 171,-19.5 171,-0.5 136,-0.5"/>
<text text-anchor="middle" x="153.5" y="-7.5" font-family="Helvetica,sans-Serif" font-size="10.00">map</text>
</a>
</g>
</g>
<!-- Node4&#45;&gt;Node5 -->
<g id="edge4" class="edge">
<title>Node4&#45;&gt;Node5</title>
<path fill="none" stroke="midnightblue" d="M158.84,-56.4C157.91,-48.47 156.73,-38.46 155.72,-29.86"/>
<polygon fill="midnightblue" stroke="midnightblue" points="159.16,-29.18 154.52,-19.66 152.21,-30 159.16,-29.18"/>
</g>
<!-- Node6 -->
<g id="node6" class="node">
<title>Node6</title>
<g id="a_node6"><a xlink:title=" ">
<polygon fill="white" stroke="#bfbfbf" points="189.5,-0.5 189.5,-19.5 233.5,-19.5 233.5,-0.5 189.5,-0.5"/>
<text text-anchor="middle" x="211.5" y="-7.5" font-family="Helvetica,sans-Serif" font-size="10.00">vector</text>
</a>
</g>
</g>
<!-- Node4&#45;&gt;Node6 -->
<g id="edge6" class="edge">
<title>Node4&#45;&gt;Node6</title>
<path fill="none" stroke="midnightblue" d="M172.59,-56.4C180.07,-47.66 189.72,-36.41 197.53,-27.3"/>
<polygon fill="midnightblue" stroke="midnightblue" points="200.23,-29.53 204.08,-19.66 194.91,-24.97 200.23,-29.53"/>
</g>
</g>
</svg>
