<?xml version="1.0" encoding="UTF-8" standalone="no"?>
<!DOCTYPE svg PUBLIC "-//W3C//DTD SVG 1.1//EN"
 "http://www.w3.org/Graphics/SVG/1.1/DTD/svg11.dtd">
<!-- Generated by graphviz version 2.44.0 ()
 -->
<!-- Title: automaton::core::data::protobuf::protobuf_schema::protobuf_schema Pages: 1 -->
<svg width="315pt" height="160pt"
 viewBox="0.00 0.00 315.00 160.00" xmlns="http://www.w3.org/2000/svg" xmlns:xlink="http://www.w3.org/1999/xlink">
<g id="graph0" class="graph" transform="scale(1 1) rotate(0) translate(4 156)">
<title>automaton::core::data::protobuf::protobuf_schema::protobuf_schema</title>
<polygon fill="white" stroke="transparent" points="-4,4 -4,-156 311,-156 311,4 -4,4"/>
<!-- Node1 -->
<g id="node1" class="node">
<title>Node1</title>
<g id="a_node1"><a xlink:title=" ">
<polygon fill="#bfbfbf" stroke="black" points="0,-44.5 0,-85.5 136,-85.5 136,-44.5 0,-44.5"/>
<text text-anchor="start" x="8" y="-73.5" font-family="Helvetica,sans-Serif" font-size="10.00">automaton::core::data</text>
<text text-anchor="start" x="8" y="-62.5" font-family="Helvetica,sans-Serif" font-size="10.00">::protobuf::protobuf</text>
<text text-anchor="middle" x="68" y="-51.5" font-family="Helvetica,sans-Serif" font-size="10.00">_schema::protobuf_schema</text>
</a>
</g>
</g>
<!-- Node2 -->
<g id="node2" class="node">
<title>Node2</title>
<g id="a_node2"><a xlink:href="../../dc/d9e/classautomaton_1_1core_1_1data_1_1protobuf_1_1io__error__collector.html#a4df62ddeea25bac6879cdf4a3be10651" target="_top" xlink:title=" ">
<polygon fill="white" stroke="black" points="178.5,-110.5 178.5,-151.5 300.5,-151.5 300.5,-110.5 178.5,-110.5"/>
<text text-anchor="start" x="186.5" y="-139.5" font-family="Helvetica,sans-Serif" font-size="10.00">automaton::core::data</text>
<text text-anchor="start" x="186.5" y="-128.5" font-family="Helvetica,sans-Serif" font-size="10.00">::protobuf::io_error</text>
<text text-anchor="middle" x="239.5" y="-117.5" font-family="Helvetica,sans-Serif" font-size="10.00">_collector::get_all_errors</text>
</a>
</g>
</g>
<!-- Node1&#45;&gt;Node2 -->
<g id="edge1" class="edge">
<title>Node1&#45;&gt;Node2</title>
<path fill="none" stroke="midnightblue" d="M121.7,-85.52C138.92,-92.23 158.21,-99.74 176.07,-106.69"/>
<polygon fill="midnightblue" stroke="midnightblue" points="175.24,-110.12 185.83,-110.49 177.78,-103.6 175.24,-110.12"/>
</g>
<!-- Node3 -->
<g id="node3" class="node">
<title>Node3</title>
<g id="a_node3"><a xlink:href="../../dc/d9e/classautomaton_1_1core_1_1data_1_1protobuf_1_1io__error__collector.html#a73e852cb4dfdfc5684e85ced8ee58107" target="_top" xlink:title=" ">
<polygon fill="white" stroke="black" points="182.5,-39 182.5,-91 296.5,-91 296.5,-39 182.5,-39"/>
<text text-anchor="start" x="190.5" y="-79" font-family="Helvetica,sans-Serif" font-size="10.00">automaton::core::data</text>
<text text-anchor="start" x="190.5" y="-68" font-family="Helvetica,sans-Serif" font-size="10.00">::protobuf::io_error</text>
<text text-anchor="start" x="190.5" y="-57" font-family="Helvetica,sans-Serif" font-size="10.00">_collector::get_number</text>
<text text-anchor="middle" x="239.5" y="-46" font-family="Helvetica,sans-Serif" font-size="10.00">_errors</text>
</a>
</g>
</g>
<!-- Node1&#45;&gt;Node3 -->
<g id="edge2" class="edge">
<title>Node1&#45;&gt;Node3</title>
<path fill="none" stroke="midnightblue" d="M136.48,-65C148.26,-65 160.51,-65 172.25,-65"/>
<polygon fill="midnightblue" stroke="midnightblue" points="172.43,-68.5 182.43,-65 172.43,-61.5 172.43,-68.5"/>
</g>
<!-- Node4 -->
<g id="node4" class="node">
<title>Node4</title>
<g id="a_node4"><a xlink:href="../../de/d12/namespaceel_1_1base_1_1debug.html#af8af3a0ae3755b37ede9f5b4c9e8173c" target="_top" xlink:title=" ">
<polygon fill="white" stroke="black" points="172,-0.5 172,-19.5 307,-19.5 307,-0.5 172,-0.5"/>
<text text-anchor="middle" x="239.5" y="-7.5" font-family="Helvetica,sans-Serif" font-size="10.00">el::base::debug::StackTrace</text>
</a>
</g>
</g>
<!-- Node1&#45;&gt;Node4 -->
<g id="edge3" class="edge">
<title>Node1&#45;&gt;Node4</title>
<path fill="none" stroke="midnightblue" d="M128.25,-44.47C142.54,-39.62 157.79,-34.55 172,-30 179.84,-27.49 188.22,-24.9 196.3,-22.44"/>
<polygon fill="midnightblue" stroke="midnightblue" points="197.39,-25.77 205.96,-19.54 195.37,-19.07 197.39,-25.77"/>
</g>
</g>
</svg>
