<?xml version="1.0" encoding="UTF-8" standalone="no"?>
<!DOCTYPE svg PUBLIC "-//W3C//DTD SVG 1.1//EN"
 "http://www.w3.org/Graphics/SVG/1.1/DTD/svg11.dtd">
<!-- Generated by graphviz version 2.42.3 ()
 -->
<!-- Title: automaton::core::data::protobuf::protobuf_schema::add_scalar_field Pages: 1 -->
<svg width="310pt" height="50pt"
 viewBox="0.00 0.00 310.00 50.00" xmlns="http://www.w3.org/2000/svg" xmlns:xlink="http://www.w3.org/1999/xlink">
<g id="graph0" class="graph" transform="scale(1 1) rotate(0) translate(4 46)">
<title>automaton::core::data::protobuf::protobuf_schema::add_scalar_field</title>
<polygon fill="white" stroke="transparent" points="-4,4 -4,-46 306,-46 306,4 -4,4"/>
<!-- Node1 -->
<g id="node1" class="node">
<title>Node1</title>
<g id="a_node1"><a xlink:title=" ">
<polygon fill="#bfbfbf" stroke="black" points="0,-0.5 0,-41.5 131,-41.5 131,-0.5 0,-0.5"/>
<text text-anchor="start" x="8" y="-29.5" font-family="Helvetica,sans-Serif" font-size="10.00">automaton::core::data</text>
<text text-anchor="start" x="8" y="-18.5" font-family="Helvetica,sans-Serif" font-size="10.00">::protobuf::protobuf</text>
<text text-anchor="middle" x="65.5" y="-7.5" font-family="Helvetica,sans-Serif" font-size="10.00">_schema::add_scalar_field</text>
</a>
</g>
</g>
<!-- Node2 -->
<g id="node2" class="node">
<title>Node2</title>
<g id="a_node2"><a xlink:href="../../de/d12/namespaceel_1_1base_1_1debug.html#af8af3a0ae3755b37ede9f5b4c9e8173c" target="_top" xlink:title=" ">
<polygon fill="white" stroke="black" points="167,-11.5 167,-30.5 302,-30.5 302,-11.5 167,-11.5"/>
<text text-anchor="middle" x="234.5" y="-18.5" font-family="Helvetica,sans-Serif" font-size="10.00">el::base::debug::StackTrace</text>
</a>
</g>
</g>
<!-- Node1&#45;&gt;Node2 -->
<g id="edge1" class="edge">
<title>Node1&#45;&gt;Node2</title>
<path fill="none" stroke="midnightblue" d="M131.07,-21C139.51,-21 148.23,-21 156.85,-21"/>
<polygon fill="midnightblue" stroke="midnightblue" points="156.9,-24.5 166.9,-21 156.9,-17.5 156.9,-24.5"/>
</g>
</g>
</svg>
