<?xml version="1.0" encoding="UTF-8" standalone="no"?>
<!DOCTYPE svg PUBLIC "-//W3C//DTD SVG 1.1//EN"
 "http://www.w3.org/Graphics/SVG/1.1/DTD/svg11.dtd">
<!-- Generated by graphviz version 2.42.3 ()
 -->
<!-- Title: automaton::core::crypto::hash_transformation::digest_size Pages: 1 -->
<svg width="299pt" height="88pt"
 viewBox="0.00 0.00 299.00 88.00" xmlns="http://www.w3.org/2000/svg" xmlns:xlink="http://www.w3.org/1999/xlink">
<g id="graph0" class="graph" transform="scale(1 1) rotate(0) translate(4 84)">
<title>automaton::core::crypto::hash_transformation::digest_size</title>
<polygon fill="white" stroke="transparent" points="-4,4 -4,-84 295,-84 295,4 -4,4"/>
<!-- Node1 -->
<g id="node1" class="node">
<title>Node1</title>
<g id="a_node1"><a xlink:title=" ">
<polygon fill="#bfbfbf" stroke="black" points="175,-19 175,-60 291,-60 291,-19 175,-19"/>
<text text-anchor="start" x="183" y="-48" font-family="Helvetica,sans-Serif" font-size="10.00">automaton::core::crypto</text>
<text text-anchor="start" x="183" y="-37" font-family="Helvetica,sans-Serif" font-size="10.00">::hash_transformation</text>
<text text-anchor="middle" x="233" y="-26" font-family="Helvetica,sans-Serif" font-size="10.00">::digest_size</text>
</a>
</g>
</g>
<!-- Node2 -->
<g id="node2" class="node">
<title>Node2</title>
<g id="a_node2"><a xlink:href="../../dd/da5/classautomaton_1_1core_1_1state_1_1state__impl.html#a1c03b003c3db91039f14af4c10bfcd80" target="_top" xlink:title=" ">
<polygon fill="white" stroke="black" points="12.5,-49.5 12.5,-79.5 126.5,-79.5 126.5,-49.5 12.5,-49.5"/>
<text text-anchor="start" x="20.5" y="-67.5" font-family="Helvetica,sans-Serif" font-size="10.00">automaton::core::state</text>
<text text-anchor="middle" x="69.5" y="-56.5" font-family="Helvetica,sans-Serif" font-size="10.00">::state_impl::hash_size</text>
</a>
</g>
</g>
<!-- Node1&#45;&gt;Node2 -->
<g id="edge1" class="edge">
<title>Node1&#45;&gt;Node2</title>
<path fill="none" stroke="midnightblue" d="M164.59,-49.93C151.96,-51.89 138.87,-53.92 126.62,-55.81"/>
<polygon fill="midnightblue" stroke="midnightblue" points="165.26,-53.37 174.61,-48.38 164.19,-46.46 165.26,-53.37"/>
</g>
<!-- Node3 -->
<g id="node3" class="node">
<title>Node3</title>
<g id="a_node3"><a xlink:href="../../dc/ddc/classautomaton_1_1core_1_1state_1_1state__persistent.html#a38099c0e550170d06c59583d5f4f729b" target="_top" xlink:title=" ">
<polygon fill="white" stroke="black" points="0,-0.5 0,-30.5 139,-30.5 139,-0.5 0,-0.5"/>
<text text-anchor="start" x="8" y="-18.5" font-family="Helvetica,sans-Serif" font-size="10.00">automaton::core::state</text>
<text text-anchor="middle" x="69.5" y="-7.5" font-family="Helvetica,sans-Serif" font-size="10.00">::state_persistent::hash_size</text>
</a>
</g>
</g>
<!-- Node1&#45;&gt;Node3 -->
<g id="edge2" class="edge">
<title>Node1&#45;&gt;Node3</title>
<path fill="none" stroke="midnightblue" d="M164.47,-29.47C156.06,-28.22 147.46,-26.94 139.04,-25.68"/>
<polygon fill="midnightblue" stroke="midnightblue" points="164.2,-32.96 174.61,-30.97 165.23,-26.04 164.2,-32.96"/>
</g>
</g>
</svg>
