<?xml version="1.0" encoding="UTF-8" standalone="no"?>
<!DOCTYPE svg PUBLIC "-//W3C//DTD SVG 1.1//EN"
 "http://www.w3.org/Graphics/SVG/1.1/DTD/svg11.dtd">
<!-- Generated by graphviz version 2.44.0 ()
 -->
<!-- Title: automaton::core::crypto::hash_transformation::calculate_digest Pages: 1 -->
<svg width="276pt" height="50pt"
 viewBox="0.00 0.00 276.00 50.00" xmlns="http://www.w3.org/2000/svg" xmlns:xlink="http://www.w3.org/1999/xlink">
<g id="graph0" class="graph" transform="scale(1 1) rotate(0) translate(4 46)">
<title>automaton::core::crypto::hash_transformation::calculate_digest</title>
<polygon fill="white" stroke="transparent" points="-4,4 -4,-46 272,-46 272,4 -4,4"/>
<!-- Node1 -->
<g id="node1" class="node">
<title>Node1</title>
<g id="a_node1"><a xlink:title=" ">
<polygon fill="#bfbfbf" stroke="black" points="0,-0.5 0,-41.5 116,-41.5 116,-0.5 0,-0.5"/>
<text text-anchor="start" x="8" y="-29.5" font-family="Helvetica,sans-Serif" font-size="10.00">automaton::core::crypto</text>
<text text-anchor="start" x="8" y="-18.5" font-family="Helvetica,sans-Serif" font-size="10.00">::hash_transformation</text>
<text text-anchor="middle" x="58" y="-7.5" font-family="Helvetica,sans-Serif" font-size="10.00">::calculate_digest</text>
</a>
</g>
</g>
<!-- Node2 -->
<g id="node2" class="node">
<title>Node2</title>
<g id="a_node2"><a xlink:href="../../d0/d12/classautomaton_1_1core_1_1crypto_1_1hash__transformation.html#a09a4ea4987018ce4109047cb4c1f672c" target="_top" xlink:title=" ">
<polygon fill="white" stroke="black" points="152,-0.5 152,-41.5 268,-41.5 268,-0.5 152,-0.5"/>
<text text-anchor="start" x="160" y="-29.5" font-family="Helvetica,sans-Serif" font-size="10.00">automaton::core::crypto</text>
<text text-anchor="start" x="160" y="-18.5" font-family="Helvetica,sans-Serif" font-size="10.00">::hash_transformation</text>
<text text-anchor="middle" x="210" y="-7.5" font-family="Helvetica,sans-Serif" font-size="10.00">::update</text>
</a>
</g>
</g>
<!-- Node1&#45;&gt;Node2 -->
<g id="edge1" class="edge">
<title>Node1&#45;&gt;Node2</title>
<path fill="none" stroke="midnightblue" d="M116.14,-21C124.38,-21 132.92,-21 141.34,-21"/>
<polygon fill="midnightblue" stroke="midnightblue" points="141.53,-24.5 151.53,-21 141.53,-17.5 141.53,-24.5"/>
</g>
</g>
</svg>
