<?xml version="1.0" encoding="UTF-8" standalone="no"?>
<!DOCTYPE svg PUBLIC "-//W3C//DTD SVG 1.1//EN"
 "http://www.w3.org/Graphics/SVG/1.1/DTD/svg11.dtd">
<!-- Generated by graphviz version 2.44.0 ()
 -->
<!-- Title: secure_random.h Pages: 1 -->
<svg width="529pt" height="196pt"
 viewBox="0.00 0.00 529.00 196.00" xmlns="http://www.w3.org/2000/svg" xmlns:xlink="http://www.w3.org/1999/xlink">
<g id="graph0" class="graph" transform="scale(1 1) rotate(0) translate(4 192)">
<title>secure_random.h</title>
<polygon fill="white" stroke="transparent" points="-4,4 -4,-192 525,-192 525,4 -4,4"/>
<!-- Node1 -->
<g id="node1" class="node">
<title>Node1</title>
<g id="a_node1"><a xlink:title=" ">
<polygon fill="#bfbfbf" stroke="black" points="185.5,-168.5 185.5,-187.5 276.5,-187.5 276.5,-168.5 185.5,-168.5"/>
<text text-anchor="middle" x="231" y="-175.5" font-family="Helvetica,sans-Serif" font-size="10.00">secure_random.h</text>
</a>
</g>
</g>
<!-- Node2 -->
<g id="node2" class="node">
<title>Node2</title>
<g id="a_node2"><a xlink:href="../../d1/d2e/secure__random__cryptopp_8h.html" target="_top" xlink:title=" ">
<polygon fill="white" stroke="black" points="31.5,-112.5 31.5,-131.5 164.5,-131.5 164.5,-112.5 31.5,-112.5"/>
<text text-anchor="middle" x="98" y="-119.5" font-family="Helvetica,sans-Serif" font-size="10.00">secure_random_cryptopp.h</text>
</a>
</g>
</g>
<!-- Node1&#45;&gt;Node2 -->
<g id="edge1" class="edge">
<title>Node1&#45;&gt;Node2</title>
<path fill="none" stroke="midnightblue" d="M200.55,-164.64C175.59,-154.5 140.92,-140.43 118.98,-131.52"/>
<polygon fill="midnightblue" stroke="midnightblue" points="199.34,-167.92 209.93,-168.44 201.98,-161.44 199.34,-167.92"/>
</g>
<!-- Node5 -->
<g id="node5" class="node">
<title>Node5</title>
<g id="a_node5"><a xlink:href="../../dd/ded/secure__random_8cc.html" target="_top" xlink:title=" ">
<polygon fill="white" stroke="black" points="183,-112.5 183,-131.5 279,-131.5 279,-112.5 183,-112.5"/>
<text text-anchor="middle" x="231" y="-119.5" font-family="Helvetica,sans-Serif" font-size="10.00">secure_random.cc</text>
</a>
</g>
</g>
<!-- Node1&#45;&gt;Node5 -->
<g id="edge4" class="edge">
<title>Node1&#45;&gt;Node5</title>
<path fill="none" stroke="midnightblue" d="M231,-157.8C231,-148.91 231,-138.78 231,-131.75"/>
<polygon fill="midnightblue" stroke="midnightblue" points="227.5,-158.08 231,-168.08 234.5,-158.08 227.5,-158.08"/>
</g>
<!-- Node6 -->
<g id="node6" class="node">
<title>Node6</title>
<g id="a_node6"><a xlink:href="../../d1/d55/engine_8h.html" target="_top" xlink:title=" ">
<polygon fill="white" stroke="black" points="297.5,-112.5 297.5,-131.5 350.5,-131.5 350.5,-112.5 297.5,-112.5"/>
<text text-anchor="middle" x="324" y="-119.5" font-family="Helvetica,sans-Serif" font-size="10.00">engine.h</text>
</a>
</g>
</g>
<!-- Node1&#45;&gt;Node6 -->
<g id="edge5" class="edge">
<title>Node1&#45;&gt;Node6</title>
<path fill="none" stroke="midnightblue" d="M254.81,-163.18C271.92,-153.24 294.47,-140.15 309.1,-131.65"/>
<polygon fill="midnightblue" stroke="midnightblue" points="252.83,-160.28 245.94,-168.32 256.35,-166.33 252.83,-160.28"/>
</g>
<!-- Node3 -->
<g id="node3" class="node">
<title>Node3</title>
<g id="a_node3"><a xlink:href="../../dc/d7e/secure__random__cryptopp_8cc.html" target="_top" xlink:title=" ">
<polygon fill="white" stroke="black" points="0,-56.5 0,-75.5 138,-75.5 138,-56.5 0,-56.5"/>
<text text-anchor="middle" x="69" y="-63.5" font-family="Helvetica,sans-Serif" font-size="10.00">secure_random_cryptopp.cc</text>
</a>
</g>
</g>
<!-- Node2&#45;&gt;Node3 -->
<g id="edge2" class="edge">
<title>Node2&#45;&gt;Node3</title>
<path fill="none" stroke="midnightblue" d="M88.32,-102.98C83.4,-93.82 77.64,-83.09 73.7,-75.75"/>
<polygon fill="midnightblue" stroke="midnightblue" points="85.4,-104.93 93.21,-112.08 91.56,-101.62 85.4,-104.93"/>
</g>
<!-- Node4 -->
<g id="node4" class="node">
<title>Node4</title>
<g id="a_node4"><a xlink:href="../../df/de4/bind__crypto_8cc.html" target="_top" xlink:title=" ">
<polygon fill="white" stroke="black" points="156.5,-56.5 156.5,-75.5 235.5,-75.5 235.5,-56.5 156.5,-56.5"/>
<text text-anchor="middle" x="196" y="-63.5" font-family="Helvetica,sans-Serif" font-size="10.00">bind_crypto.cc</text>
</a>
</g>
</g>
<!-- Node2&#45;&gt;Node4 -->
<g id="edge3" class="edge">
<title>Node2&#45;&gt;Node4</title>
<path fill="none" stroke="midnightblue" d="M122.59,-107.45C140.68,-97.48 164.73,-84.23 180.29,-75.65"/>
<polygon fill="midnightblue" stroke="midnightblue" points="120.81,-104.43 113.75,-112.32 124.19,-110.56 120.81,-104.43"/>
</g>
<!-- Node6&#45;&gt;Node4 -->
<g id="edge10" class="edge">
<title>Node6&#45;&gt;Node4</title>
<path fill="none" stroke="midnightblue" d="M294.38,-108.5C270.38,-98.38 237.22,-84.39 216.19,-75.52"/>
<polygon fill="midnightblue" stroke="midnightblue" points="293.14,-111.78 303.72,-112.44 295.86,-105.33 293.14,-111.78"/>
</g>
<!-- Node7 -->
<g id="node7" class="node">
<title>Node7</title>
<g id="a_node7"><a xlink:href="../../dd/de7/core_8cc.html" target="_top" xlink:title=" ">
<polygon fill="white" stroke="black" points="240,-0.5 240,-19.5 288,-19.5 288,-0.5 240,-0.5"/>
<text text-anchor="middle" x="264" y="-7.5" font-family="Helvetica,sans-Serif" font-size="10.00">core.cc</text>
</a>
</g>
</g>
<!-- Node6&#45;&gt;Node7 -->
<g id="edge6" class="edge">
<title>Node6&#45;&gt;Node7</title>
<path fill="none" stroke="midnightblue" d="M306.73,-105.03C298.87,-96.97 290,-86.66 284,-76 273.58,-57.48 267.92,-32.87 265.49,-19.89"/>
<polygon fill="midnightblue" stroke="midnightblue" points="304.53,-107.77 314.12,-112.27 309.43,-102.77 304.53,-107.77"/>
</g>
<!-- Node8 -->
<g id="node8" class="node">
<title>Node8</title>
<g id="a_node8"><a xlink:href="../../d9/d5a/lua__node_8h.html" target="_top" xlink:title=" ">
<polygon fill="white" stroke="black" points="292.5,-56.5 292.5,-75.5 355.5,-75.5 355.5,-56.5 292.5,-56.5"/>
<text text-anchor="middle" x="324" y="-63.5" font-family="Helvetica,sans-Serif" font-size="10.00">lua_node.h</text>
</a>
</g>
</g>
<!-- Node6&#45;&gt;Node8 -->
<g id="edge7" class="edge">
<title>Node6&#45;&gt;Node8</title>
<path fill="none" stroke="midnightblue" d="M324,-101.8C324,-92.91 324,-82.78 324,-75.75"/>
<polygon fill="midnightblue" stroke="midnightblue" points="320.5,-102.08 324,-112.08 327.5,-102.08 320.5,-102.08"/>
</g>
<!-- Node10 -->
<g id="node10" class="node">
<title>Node10</title>
<g id="a_node10"><a xlink:href="../../d8/dd3/bind__data_8cc.html" target="_top" xlink:title=" ">
<polygon fill="white" stroke="black" points="373.5,-56.5 373.5,-75.5 444.5,-75.5 444.5,-56.5 373.5,-56.5"/>
<text text-anchor="middle" x="409" y="-63.5" font-family="Helvetica,sans-Serif" font-size="10.00">bind_data.cc</text>
</a>
</g>
</g>
<!-- Node6&#45;&gt;Node10 -->
<g id="edge11" class="edge">
<title>Node6&#45;&gt;Node10</title>
<path fill="none" stroke="midnightblue" d="M346.19,-106.9C361.78,-97 382.13,-84.07 395.38,-75.65"/>
<polygon fill="midnightblue" stroke="midnightblue" points="344.22,-104.01 337.66,-112.32 347.97,-109.92 344.22,-104.01"/>
</g>
<!-- Node11 -->
<g id="node11" class="node">
<title>Node11</title>
<g id="a_node11"><a xlink:href="../../db/d7f/engine_8cc.html" target="_top" xlink:title=" ">
<polygon fill="white" stroke="black" points="463,-56.5 463,-75.5 521,-75.5 521,-56.5 463,-56.5"/>
<text text-anchor="middle" x="492" y="-63.5" font-family="Helvetica,sans-Serif" font-size="10.00">engine.cc</text>
</a>
</g>
</g>
<!-- Node6&#45;&gt;Node11 -->
<g id="edge12" class="edge">
<title>Node6&#45;&gt;Node11</title>
<path fill="none" stroke="midnightblue" d="M360.39,-109.3C392.04,-99.13 437.17,-84.62 465.5,-75.52"/>
<polygon fill="midnightblue" stroke="midnightblue" points="359.07,-106.05 350.62,-112.44 361.21,-112.72 359.07,-106.05"/>
</g>
<!-- Node8&#45;&gt;Node7 -->
<g id="edge8" class="edge">
<title>Node8&#45;&gt;Node7</title>
<path fill="none" stroke="midnightblue" d="M306.82,-49.54C296.12,-39.91 282.74,-27.87 273.82,-19.83"/>
<polygon fill="midnightblue" stroke="midnightblue" points="304.59,-52.24 314.36,-56.32 309.27,-47.03 304.59,-52.24"/>
</g>
<!-- Node9 -->
<g id="node9" class="node">
<title>Node9</title>
<g id="a_node9"><a xlink:href="../../db/d7e/lua__node_8cc.html" target="_top" xlink:title=" ">
<polygon fill="white" stroke="black" points="306,-0.5 306,-19.5 374,-19.5 374,-0.5 306,-0.5"/>
<text text-anchor="middle" x="340" y="-7.5" font-family="Helvetica,sans-Serif" font-size="10.00">lua_node.cc</text>
</a>
</g>
</g>
<!-- Node8&#45;&gt;Node9 -->
<g id="edge9" class="edge">
<title>Node8&#45;&gt;Node9</title>
<path fill="none" stroke="midnightblue" d="M329.51,-46.4C332.19,-37.36 335.28,-26.94 337.41,-19.75"/>
<polygon fill="midnightblue" stroke="midnightblue" points="326.13,-45.5 326.64,-56.08 332.84,-47.49 326.13,-45.5"/>
</g>
</g>
</svg>
