<?xml version="1.0" encoding="UTF-8" standalone="no"?>
<!DOCTYPE svg PUBLIC "-//W3C//DTD SVG 1.1//EN"
 "http://www.w3.org/Graphics/SVG/1.1/DTD/svg11.dtd">
<!-- Generated by graphviz version 2.44.0 ()
 -->
<!-- Title: bind_crypto.cc Pages: 1 -->
<svg width="1939pt" height="363pt"
 viewBox="0.00 0.00 1939.35 363.00" xmlns="http://www.w3.org/2000/svg" xmlns:xlink="http://www.w3.org/1999/xlink">
<g id="graph0" class="graph" transform="scale(1 1) rotate(0) translate(4 359)">
<title>bind_crypto.cc</title>
<polygon fill="white" stroke="transparent" points="-4,4 -4,-359 1935.35,-359 1935.35,4 -4,4"/>
<!-- Node1 -->
<g id="node1" class="node">
<title>Node1</title>
<g id="a_node1"><a xlink:title=" ">
<polygon fill="#bfbfbf" stroke="black" points="897.35,-335.5 897.35,-354.5 976.35,-354.5 976.35,-335.5 897.35,-335.5"/>
<text text-anchor="middle" x="936.85" y="-342.5" font-family="Helvetica,sans-Serif" font-size="10.00">bind_crypto.cc</text>
</a>
</g>
</g>
<!-- Node2 -->
<g id="node2" class="node">
<title>Node2</title>
<g id="a_node2"><a xlink:href="../../d1/d55/engine_8h.html" target="_top" xlink:title=" ">
<polygon fill="white" stroke="black" points="218.35,-263 218.35,-293 329.35,-293 329.35,-263 218.35,-263"/>
<text text-anchor="start" x="226.35" y="-281" font-family="Helvetica,sans-Serif" font-size="10.00">automaton/core/script</text>
<text text-anchor="middle" x="273.85" y="-270" font-family="Helvetica,sans-Serif" font-size="10.00">/engine.h</text>
</a>
</g>
</g>
<!-- Node1&#45;&gt;Node2 -->
<g id="edge1" class="edge">
<title>Node1&#45;&gt;Node2</title>
<path fill="none" stroke="midnightblue" d="M897.27,-344.06C800.86,-343.55 546.52,-338.25 338.85,-299 334.1,-298.1 329.2,-296.98 324.33,-295.73"/>
<polygon fill="midnightblue" stroke="midnightblue" points="324.98,-292.28 314.41,-293 323.13,-299.03 324.98,-292.28"/>
</g>
<!-- Node19 -->
<g id="node19" class="node">
<title>Node19</title>
<g id="a_node19"><a xlink:href="../../da/d44/_keccak__256__cryptopp_8h.html" target="_top" xlink:title=" ">
<polygon fill="white" stroke="black" points="802.35,-257.5 802.35,-298.5 915.35,-298.5 915.35,-257.5 802.35,-257.5"/>
<text text-anchor="start" x="810.35" y="-286.5" font-family="Helvetica,sans-Serif" font-size="10.00">automaton/core/crypto</text>
<text text-anchor="start" x="810.35" y="-275.5" font-family="Helvetica,sans-Serif" font-size="10.00">/cryptopp/Keccak_256</text>
<text text-anchor="middle" x="858.85" y="-264.5" font-family="Helvetica,sans-Serif" font-size="10.00">_cryptopp.h</text>
</a>
</g>
</g>
<!-- Node1&#45;&gt;Node19 -->
<g id="edge33" class="edge">
<title>Node1&#45;&gt;Node19</title>
<path fill="none" stroke="midnightblue" d="M926.33,-335.23C917.03,-327.49 902.98,-315.78 890.11,-305.05"/>
<polygon fill="midnightblue" stroke="midnightblue" points="892.22,-302.26 882.3,-298.54 887.74,-307.63 892.22,-302.26"/>
</g>
<!-- Node22 -->
<g id="node22" class="node">
<title>Node22</title>
<g id="a_node22"><a xlink:href="../../d4/d13/_r_i_p_e_m_d160__cryptopp_8h.html" target="_top" xlink:title=" ">
<polygon fill="white" stroke="black" points="933.85,-263 933.85,-293 1095.85,-293 1095.85,-263 933.85,-263"/>
<text text-anchor="start" x="941.85" y="-281" font-family="Helvetica,sans-Serif" font-size="10.00">automaton/core/crypto</text>
<text text-anchor="middle" x="1014.85" y="-270" font-family="Helvetica,sans-Serif" font-size="10.00">/cryptopp/RIPEMD160_cryptopp.h</text>
</a>
</g>
</g>
<!-- Node1&#45;&gt;Node22 -->
<g id="edge37" class="edge">
<title>Node1&#45;&gt;Node22</title>
<path fill="none" stroke="midnightblue" d="M947.37,-335.23C958.21,-326.2 975.52,-311.77 989.89,-299.8"/>
<polygon fill="midnightblue" stroke="midnightblue" points="992.5,-302.18 997.94,-293.09 988.02,-296.8 992.5,-302.18"/>
</g>
<!-- Node24 -->
<g id="node24" class="node">
<title>Node24</title>
<g id="a_node24"><a xlink:href="../../d7/d15/secp256k1__cryptopp_8h.html" target="_top" xlink:title=" ">
<polygon fill="white" stroke="black" points="347.85,-263 347.85,-293 503.85,-293 503.85,-263 347.85,-263"/>
<text text-anchor="start" x="355.85" y="-281" font-family="Helvetica,sans-Serif" font-size="10.00">automaton/core/crypto</text>
<text text-anchor="middle" x="425.85" y="-270" font-family="Helvetica,sans-Serif" font-size="10.00">/cryptopp/secp256k1_cryptopp.h</text>
</a>
</g>
</g>
<!-- Node1&#45;&gt;Node24 -->
<g id="edge41" class="edge">
<title>Node1&#45;&gt;Node24</title>
<path fill="none" stroke="midnightblue" d="M897.18,-341.39C821.88,-336.08 653.21,-322.49 512.85,-299 506.17,-297.88 499.24,-296.56 492.34,-295.15"/>
<polygon fill="midnightblue" stroke="midnightblue" points="492.79,-291.66 482.28,-293.01 491.33,-298.51 492.79,-291.66"/>
</g>
<!-- Node25 -->
<g id="node25" class="node">
<title>Node25</title>
<g id="a_node25"><a xlink:href="../../d1/d2e/secure__random__cryptopp_8h.html" target="_top" xlink:title=" ">
<polygon fill="white" stroke="black" points="657.85,-257.5 657.85,-298.5 783.85,-298.5 783.85,-257.5 657.85,-257.5"/>
<text text-anchor="start" x="665.85" y="-286.5" font-family="Helvetica,sans-Serif" font-size="10.00">automaton/core/crypto</text>
<text text-anchor="start" x="665.85" y="-275.5" font-family="Helvetica,sans-Serif" font-size="10.00">/cryptopp/secure_random</text>
<text text-anchor="middle" x="720.85" y="-264.5" font-family="Helvetica,sans-Serif" font-size="10.00">_cryptopp.h</text>
</a>
</g>
</g>
<!-- Node1&#45;&gt;Node25 -->
<g id="edge43" class="edge">
<title>Node1&#45;&gt;Node25</title>
<path fill="none" stroke="midnightblue" d="M908.17,-335.37C879.18,-326.65 833.2,-312.81 794.05,-301.03"/>
<polygon fill="midnightblue" stroke="midnightblue" points="794.85,-297.61 784.26,-298.08 792.83,-304.32 794.85,-297.61"/>
</g>
<!-- Node27 -->
<g id="node27" class="node">
<title>Node27</title>
<g id="a_node27"><a xlink:href="../../d4/d75/_s_h_a256__cryptopp_8h.html" target="_top" xlink:title=" ">
<polygon fill="white" stroke="black" points="1277.85,-263 1277.85,-293 1423.85,-293 1423.85,-263 1277.85,-263"/>
<text text-anchor="start" x="1285.85" y="-281" font-family="Helvetica,sans-Serif" font-size="10.00">automaton/core/crypto</text>
<text text-anchor="middle" x="1350.85" y="-270" font-family="Helvetica,sans-Serif" font-size="10.00">/cryptopp/SHA256_cryptopp.h</text>
</a>
</g>
</g>
<!-- Node1&#45;&gt;Node27 -->
<g id="edge47" class="edge">
<title>Node1&#45;&gt;Node27</title>
<path fill="none" stroke="midnightblue" d="M976.42,-339.99C1038.87,-333.36 1163.97,-318.84 1268.85,-299 1274.66,-297.9 1280.68,-296.65 1286.69,-295.33"/>
<polygon fill="midnightblue" stroke="midnightblue" points="1287.79,-298.66 1296.77,-293.04 1286.24,-291.84 1287.79,-298.66"/>
</g>
<!-- Node29 -->
<g id="node29" class="node">
<title>Node29</title>
<g id="a_node29"><a xlink:href="../../d3/d0d/_s_h_a3__256__cryptopp_8h.html" target="_top" xlink:title=" ">
<polygon fill="white" stroke="black" points="1441.85,-263 1441.85,-293 1597.85,-293 1597.85,-263 1441.85,-263"/>
<text text-anchor="start" x="1449.85" y="-281" font-family="Helvetica,sans-Serif" font-size="10.00">automaton/core/crypto</text>
<text text-anchor="middle" x="1519.85" y="-270" font-family="Helvetica,sans-Serif" font-size="10.00">/cryptopp/SHA3_256_cryptopp.h</text>
</a>
</g>
</g>
<!-- Node1&#45;&gt;Node29 -->
<g id="edge51" class="edge">
<title>Node1&#45;&gt;Node29</title>
<path fill="none" stroke="midnightblue" d="M976.62,-342.22C1061.08,-338.05 1264.43,-325.87 1432.85,-299 1439.64,-297.92 1446.68,-296.61 1453.69,-295.19"/>
<polygon fill="midnightblue" stroke="midnightblue" points="1454.84,-298.52 1463.91,-293.03 1453.4,-291.67 1454.84,-298.52"/>
</g>
<!-- Node31 -->
<g id="node31" class="node">
<title>Node31</title>
<g id="a_node31"><a xlink:href="../../d0/d4e/_s_h_a512__cryptopp_8h.html" target="_top" xlink:title=" ">
<polygon fill="white" stroke="black" points="1113.85,-263 1113.85,-293 1259.85,-293 1259.85,-263 1113.85,-263"/>
<text text-anchor="start" x="1121.85" y="-281" font-family="Helvetica,sans-Serif" font-size="10.00">automaton/core/crypto</text>
<text text-anchor="middle" x="1186.85" y="-270" font-family="Helvetica,sans-Serif" font-size="10.00">/cryptopp/SHA512_cryptopp.h</text>
</a>
</g>
</g>
<!-- Node1&#45;&gt;Node31 -->
<g id="edge55" class="edge">
<title>Node1&#45;&gt;Node31</title>
<path fill="none" stroke="midnightblue" d="M969.79,-335.44C1008.61,-325.34 1074.03,-308.33 1122.92,-295.62"/>
<polygon fill="midnightblue" stroke="midnightblue" points="1123.98,-298.96 1132.77,-293.06 1122.22,-292.19 1123.98,-298.96"/>
</g>
<!-- Node32 -->
<g id="node32" class="node">
<title>Node32</title>
<g id="a_node32"><a xlink:href="../../da/d84/ed25519__orlp_8h.html" target="_top" xlink:title=" ">
<polygon fill="white" stroke="black" points="522.35,-257.5 522.35,-298.5 639.35,-298.5 639.35,-257.5 522.35,-257.5"/>
<text text-anchor="start" x="530.35" y="-286.5" font-family="Helvetica,sans-Serif" font-size="10.00">automaton/core/crypto</text>
<text text-anchor="start" x="530.35" y="-275.5" font-family="Helvetica,sans-Serif" font-size="10.00">/ed25519_orlp/ed25519</text>
<text text-anchor="middle" x="580.85" y="-264.5" font-family="Helvetica,sans-Serif" font-size="10.00">_orlp.h</text>
</a>
</g>
</g>
<!-- Node1&#45;&gt;Node32 -->
<g id="edge59" class="edge">
<title>Node1&#45;&gt;Node32</title>
<path fill="none" stroke="midnightblue" d="M896.94,-339.44C842.97,-332.91 743.59,-319.6 649.65,-299.03"/>
<polygon fill="midnightblue" stroke="midnightblue" points="650.22,-295.57 639.7,-296.82 648.7,-302.41 650.22,-295.57"/>
</g>
<!-- Node33 -->
<g id="node33" class="node">
<title>Node33</title>
<g id="a_node33"><a xlink:href="../../dc/dac/io_8h.html" target="_top" xlink:title=" ">
<polygon fill="white" stroke="black" points="1616.35,-268.5 1616.35,-287.5 1729.35,-287.5 1729.35,-268.5 1616.35,-268.5"/>
<text text-anchor="middle" x="1672.85" y="-275.5" font-family="Helvetica,sans-Serif" font-size="10.00">automaton/core/io/io.h</text>
</a>
</g>
</g>
<!-- Node1&#45;&gt;Node33 -->
<g id="edge61" class="edge">
<title>Node1&#45;&gt;Node33</title>
<path fill="none" stroke="midnightblue" d="M976.5,-344.46C1080.72,-344.99 1370.6,-342.15 1606.85,-299 1617.74,-297.01 1629.37,-293.85 1639.79,-290.62"/>
<polygon fill="midnightblue" stroke="midnightblue" points="1640.9,-293.94 1649.34,-287.55 1638.75,-287.28 1640.9,-293.94"/>
</g>
<!-- Node3 -->
<g id="node3" class="node">
<title>Node3</title>
<g id="a_node3"><a xlink:title=" ">
<polygon fill="white" stroke="#bfbfbf" points="347.85,-196 347.85,-215 385.85,-215 385.85,-196 347.85,-196"/>
<text text-anchor="middle" x="366.85" y="-203" font-family="Helvetica,sans-Serif" font-size="10.00">array</text>
</a>
</g>
</g>
<!-- Node2&#45;&gt;Node3 -->
<g id="edge2" class="edge">
<title>Node2&#45;&gt;Node3</title>
<path fill="none" stroke="midnightblue" d="M292.67,-262.73C308.52,-250.72 331.12,-233.58 347.2,-221.39"/>
<polygon fill="midnightblue" stroke="midnightblue" points="349.53,-224.02 355.38,-215.19 345.3,-218.44 349.53,-224.02"/>
</g>
<!-- Node4 -->
<g id="node4" class="node">
<title>Node4</title>
<g id="a_node4"><a xlink:title=" ">
<polygon fill="white" stroke="#bfbfbf" points="100.35,-62 100.35,-81 151.35,-81 151.35,-62 100.35,-62"/>
<text text-anchor="middle" x="125.85" y="-69" font-family="Helvetica,sans-Serif" font-size="10.00">memory</text>
</a>
</g>
</g>
<!-- Node2&#45;&gt;Node4 -->
<g id="edge3" class="edge">
<title>Node2&#45;&gt;Node4</title>
<path fill="none" stroke="midnightblue" d="M218.27,-272.03C154.18,-265.02 54.69,-249.73 31.85,-221 -4.63,-175.12 66.57,-114.48 104.38,-87.06"/>
<polygon fill="midnightblue" stroke="midnightblue" points="106.62,-89.77 112.76,-81.13 102.58,-84.05 106.62,-89.77"/>
</g>
<!-- Node5 -->
<g id="node5" class="node">
<title>Node5</title>
<g id="a_node5"><a xlink:title=" ">
<polygon fill="white" stroke="#bfbfbf" points="412.35,-0.5 412.35,-19.5 453.35,-19.5 453.35,-0.5 412.35,-0.5"/>
<text text-anchor="middle" x="432.85" y="-7.5" font-family="Helvetica,sans-Serif" font-size="10.00">string</text>
</a>
</g>
</g>
<!-- Node2&#45;&gt;Node5 -->
<g id="edge4" class="edge">
<title>Node2&#45;&gt;Node5</title>
<path fill="none" stroke="midnightblue" d="M314.06,-262.98C345.04,-251.37 384.3,-234.64 394.85,-221 439.61,-163.11 437.92,-69.55 434.81,-29.82"/>
<polygon fill="midnightblue" stroke="midnightblue" points="438.29,-29.35 433.9,-19.71 431.31,-29.98 438.29,-29.35"/>
</g>
<!-- Node6 -->
<g id="node6" class="node">
<title>Node6</title>
<g id="a_node6"><a xlink:title=" ">
<polygon fill="white" stroke="#bfbfbf" points="122.35,-196 122.35,-215 205.35,-215 205.35,-196 122.35,-196"/>
<text text-anchor="middle" x="163.85" y="-203" font-family="Helvetica,sans-Serif" font-size="10.00">unordered_map</text>
</a>
</g>
</g>
<!-- Node2&#45;&gt;Node6 -->
<g id="edge5" class="edge">
<title>Node2&#45;&gt;Node6</title>
<path fill="none" stroke="midnightblue" d="M251.85,-262.9C232.67,-250.61 204.99,-232.87 185.82,-220.58"/>
<polygon fill="midnightblue" stroke="midnightblue" points="187.47,-217.48 177.16,-215.03 183.69,-223.38 187.47,-217.48"/>
</g>
<!-- Node7 -->
<g id="node7" class="node">
<title>Node7</title>
<g id="a_node7"><a xlink:title=" ">
<polygon fill="white" stroke="#bfbfbf" points="49.85,-0.5 49.85,-19.5 93.85,-19.5 93.85,-0.5 49.85,-0.5"/>
<text text-anchor="middle" x="71.85" y="-7.5" font-family="Helvetica,sans-Serif" font-size="10.00">vector</text>
</a>
</g>
</g>
<!-- Node2&#45;&gt;Node7 -->
<g id="edge6" class="edge">
<title>Node2&#45;&gt;Node7</title>
<path fill="none" stroke="midnightblue" d="M218.06,-272.8C150.45,-266.41 42.49,-251.61 17.85,-221 -29.57,-162.09 30.69,-66.31 58.83,-27.81"/>
<polygon fill="midnightblue" stroke="midnightblue" points="61.71,-29.81 64.9,-19.71 56.11,-25.61 61.71,-29.81"/>
</g>
<!-- Node8 -->
<g id="node8" class="node">
<title>Node8</title>
<g id="a_node8"><a xlink:href="../../dd/de2/digital__signature_8h.html" target="_top" xlink:title=" ">
<polygon fill="white" stroke="black" points="442.35,-190.5 442.35,-220.5 555.35,-220.5 555.35,-190.5 442.35,-190.5"/>
<text text-anchor="start" x="450.35" y="-208.5" font-family="Helvetica,sans-Serif" font-size="10.00">automaton/core/crypto</text>
<text text-anchor="middle" x="498.85" y="-197.5" font-family="Helvetica,sans-Serif" font-size="10.00">/digital_signature.h</text>
</a>
</g>
</g>
<!-- Node2&#45;&gt;Node8 -->
<g id="edge7" class="edge">
<title>Node2&#45;&gt;Node8</title>
<path fill="none" stroke="midnightblue" d="M318.57,-262.99C354.57,-251.71 405.33,-235.8 443.82,-223.74"/>
<polygon fill="midnightblue" stroke="midnightblue" points="445.33,-226.94 453.83,-220.61 443.24,-220.26 445.33,-226.94"/>
</g>
<!-- Node10 -->
<g id="node10" class="node">
<title>Node10</title>
<g id="a_node10"><a xlink:href="../../d2/dab/hash__transformation_8h.html" target="_top" xlink:title=" ">
<polygon fill="white" stroke="black" points="1034.85,-190.5 1034.85,-220.5 1150.85,-220.5 1150.85,-190.5 1034.85,-190.5"/>
<text text-anchor="start" x="1042.85" y="-208.5" font-family="Helvetica,sans-Serif" font-size="10.00">automaton/core/crypto</text>
<text text-anchor="middle" x="1092.85" y="-197.5" font-family="Helvetica,sans-Serif" font-size="10.00">/hash_transformation.h</text>
</a>
</g>
</g>
<!-- Node2&#45;&gt;Node10 -->
<g id="edge10" class="edge">
<title>Node2&#45;&gt;Node10</title>
<path fill="none" stroke="midnightblue" d="M314.04,-262.95C322.16,-260.59 330.71,-258.44 338.85,-257 636.67,-204.21 720.98,-260.24 1024.87,-220.96"/>
<polygon fill="midnightblue" stroke="midnightblue" points="1025.39,-224.43 1034.84,-219.65 1024.47,-217.49 1025.39,-224.43"/>
</g>
<!-- Node12 -->
<g id="node12" class="node">
<title>Node12</title>
<g id="a_node12"><a xlink:href="../../d1/d8a/secure__random_8h.html" target="_top" xlink:title=" ">
<polygon fill="white" stroke="black" points="573.35,-190.5 573.35,-220.5 686.35,-220.5 686.35,-190.5 573.35,-190.5"/>
<text text-anchor="start" x="581.35" y="-208.5" font-family="Helvetica,sans-Serif" font-size="10.00">automaton/core/crypto</text>
<text text-anchor="middle" x="629.85" y="-197.5" font-family="Helvetica,sans-Serif" font-size="10.00">/secure_random.h</text>
</a>
</g>
</g>
<!-- Node2&#45;&gt;Node12 -->
<g id="edge14" class="edge">
<title>Node2&#45;&gt;Node12</title>
<path fill="none" stroke="midnightblue" d="M316.62,-262.91C323.99,-260.75 331.6,-258.69 338.85,-257 434.4,-234.77 462.6,-239.54 563.06,-221.07"/>
<polygon fill="midnightblue" stroke="midnightblue" points="563.82,-224.48 573.01,-219.21 562.54,-217.6 563.82,-224.48"/>
</g>
<!-- Node14 -->
<g id="node14" class="node">
<title>Node14</title>
<g id="a_node14"><a xlink:href="../../de/d06/factory_8h.html" target="_top" xlink:title=" ">
<polygon fill="white" stroke="black" points="223.85,-190.5 223.85,-220.5 329.85,-220.5 329.85,-190.5 223.85,-190.5"/>
<text text-anchor="start" x="231.85" y="-208.5" font-family="Helvetica,sans-Serif" font-size="10.00">automaton/core/data</text>
<text text-anchor="middle" x="276.85" y="-197.5" font-family="Helvetica,sans-Serif" font-size="10.00">/factory.h</text>
</a>
</g>
</g>
<!-- Node2&#45;&gt;Node14 -->
<g id="edge18" class="edge">
<title>Node2&#45;&gt;Node14</title>
<path fill="none" stroke="midnightblue" d="M274.46,-262.73C274.85,-253.56 275.36,-241.41 275.82,-230.74"/>
<polygon fill="midnightblue" stroke="midnightblue" points="279.31,-230.89 276.24,-220.75 272.32,-230.59 279.31,-230.89"/>
</g>
<!-- Node18 -->
<g id="node18" class="node">
<title>Node18</title>
<g id="a_node18"><a xlink:title=" ">
<polygon fill="white" stroke="#bfbfbf" points="41.35,-196 41.35,-215 104.35,-215 104.35,-196 41.35,-196"/>
<text text-anchor="middle" x="72.85" y="-203" font-family="Helvetica,sans-Serif" font-size="10.00">sol/sol.hpp</text>
</a>
</g>
</g>
<!-- Node2&#45;&gt;Node18 -->
<g id="edge32" class="edge">
<title>Node2&#45;&gt;Node18</title>
<path fill="none" stroke="midnightblue" d="M233.1,-262.99C200.52,-251.75 153.7,-235.51 112.85,-221 110.62,-220.21 108.32,-219.39 106,-218.56"/>
<polygon fill="midnightblue" stroke="midnightblue" points="107.11,-215.24 96.52,-215.14 104.74,-221.82 107.11,-215.24"/>
</g>
<!-- Node8&#45;&gt;Node5 -->
<g id="edge8" class="edge">
<title>Node8&#45;&gt;Node5</title>
<path fill="none" stroke="midnightblue" d="M494,-190.27C482.24,-155.8 452.23,-67.81 439.13,-29.4"/>
<polygon fill="midnightblue" stroke="midnightblue" points="442.31,-27.91 435.77,-19.58 435.69,-30.17 442.31,-27.91"/>
</g>
<!-- Node9 -->
<g id="node9" class="node">
<title>Node9</title>
<g id="a_node9"><a xlink:title=" ">
<polygon fill="white" stroke="#bfbfbf" points="510.35,-0.5 510.35,-19.5 545.35,-19.5 545.35,-0.5 510.35,-0.5"/>
<text text-anchor="middle" x="527.85" y="-7.5" font-family="Helvetica,sans-Serif" font-size="10.00">map</text>
</a>
</g>
</g>
<!-- Node8&#45;&gt;Node9 -->
<g id="edge9" class="edge">
<title>Node8&#45;&gt;Node9</title>
<path fill="none" stroke="midnightblue" d="M500.98,-190.27C506.13,-155.94 519.22,-68.57 525.02,-29.9"/>
<polygon fill="midnightblue" stroke="midnightblue" points="528.54,-29.99 526.56,-19.58 521.62,-28.95 528.54,-29.99"/>
</g>
<!-- Node10&#45;&gt;Node5 -->
<g id="edge13" class="edge">
<title>Node10&#45;&gt;Node5</title>
<path fill="none" stroke="midnightblue" d="M1044.85,-190.43C916.53,-152.81 568.15,-50.67 463.18,-19.89"/>
<polygon fill="midnightblue" stroke="midnightblue" points="464.1,-16.52 453.52,-17.06 462.14,-23.23 464.1,-16.52"/>
</g>
<!-- Node10&#45;&gt;Node9 -->
<g id="edge12" class="edge">
<title>Node10&#45;&gt;Node9</title>
<path fill="none" stroke="midnightblue" d="M1099.76,-190.34C1107.33,-172.53 1116.48,-141.99 1100.85,-123 1030.22,-37.23 660.3,-16.22 555.53,-11.96"/>
<polygon fill="midnightblue" stroke="midnightblue" points="555.55,-8.46 545.43,-11.57 555.28,-15.45 555.55,-8.46"/>
</g>
<!-- Node11 -->
<g id="node11" class="node">
<title>Node11</title>
<g id="a_node11"><a xlink:title=" ">
<polygon fill="white" stroke="#bfbfbf" points="1037.85,-129 1037.85,-148 1091.85,-148 1091.85,-129 1037.85,-129"/>
<text text-anchor="middle" x="1064.85" y="-136" font-family="Helvetica,sans-Serif" font-size="10.00">iostream</text>
</a>
</g>
</g>
<!-- Node10&#45;&gt;Node11 -->
<g id="edge11" class="edge">
<title>Node10&#45;&gt;Node11</title>
<path fill="none" stroke="midnightblue" d="M1086.77,-190.4C1082.62,-180.76 1077.09,-167.91 1072.62,-157.54"/>
<polygon fill="midnightblue" stroke="midnightblue" points="1075.76,-155.99 1068.59,-148.19 1069.34,-158.76 1075.76,-155.99"/>
</g>
<!-- Node12&#45;&gt;Node5 -->
<g id="edge17" class="edge">
<title>Node12&#45;&gt;Node5</title>
<path fill="none" stroke="midnightblue" d="M615.36,-190.27C579.51,-155.06 486.82,-64.01 449.14,-27"/>
<polygon fill="midnightblue" stroke="midnightblue" points="451.17,-24.09 441.58,-19.58 446.26,-29.08 451.17,-24.09"/>
</g>
<!-- Node12&#45;&gt;Node9 -->
<g id="edge16" class="edge">
<title>Node12&#45;&gt;Node9</title>
<path fill="none" stroke="midnightblue" d="M642.29,-190.49C655.24,-174.12 672.28,-146.31 661.85,-123 640.54,-75.39 587.37,-41.2 554.77,-23.88"/>
<polygon fill="midnightblue" stroke="midnightblue" points="556.26,-20.71 545.77,-19.25 553.06,-26.94 556.26,-20.71"/>
</g>
<!-- Node13 -->
<g id="node13" class="node">
<title>Node13</title>
<g id="a_node13"><a xlink:title=" ">
<polygon fill="white" stroke="#bfbfbf" points="606.85,-129 606.85,-148 652.85,-148 652.85,-129 606.85,-129"/>
<text text-anchor="middle" x="629.85" y="-136" font-family="Helvetica,sans-Serif" font-size="10.00">cstdint</text>
</a>
</g>
</g>
<!-- Node12&#45;&gt;Node13 -->
<g id="edge15" class="edge">
<title>Node12&#45;&gt;Node13</title>
<path fill="none" stroke="midnightblue" d="M629.85,-190.4C629.85,-181.06 629.85,-168.71 629.85,-158.52"/>
<polygon fill="midnightblue" stroke="midnightblue" points="633.35,-158.19 629.85,-148.19 626.35,-158.19 633.35,-158.19"/>
</g>
<!-- Node14&#45;&gt;Node4 -->
<g id="edge20" class="edge">
<title>Node14&#45;&gt;Node4</title>
<path fill="none" stroke="midnightblue" d="M223.66,-191.46C189.02,-181.85 148.21,-168.07 136.85,-154 122.65,-136.42 121.8,-109.43 123.23,-91.39"/>
<polygon fill="midnightblue" stroke="midnightblue" points="126.73,-91.56 124.34,-81.24 119.77,-90.79 126.73,-91.56"/>
</g>
<!-- Node14&#45;&gt;Node5 -->
<g id="edge21" class="edge">
<title>Node14&#45;&gt;Node5</title>
<path fill="none" stroke="midnightblue" d="M295.13,-190.32C306.88,-180.74 322.09,-167.43 333.85,-154 368.44,-114.49 369.65,-98.96 399.85,-56 406.48,-46.57 414.07,-36.19 420.3,-27.77"/>
<polygon fill="midnightblue" stroke="midnightblue" points="423.26,-29.66 426.42,-19.55 417.64,-25.49 423.26,-29.66"/>
</g>
<!-- Node14&#45;&gt;Node7 -->
<g id="edge23" class="edge">
<title>Node14&#45;&gt;Node7</title>
<path fill="none" stroke="midnightblue" d="M223.76,-192.23C184.88,-182.35 136.31,-167.88 120.85,-154 84.48,-121.36 75.09,-60.54 72.68,-29.81"/>
<polygon fill="midnightblue" stroke="midnightblue" points="76.16,-29.39 72.05,-19.63 69.17,-29.82 76.16,-29.39"/>
</g>
<!-- Node14&#45;&gt;Node9 -->
<g id="edge19" class="edge">
<title>Node14&#45;&gt;Node9</title>
<path fill="none" stroke="midnightblue" d="M302.21,-190.47C318.99,-180.85 341.26,-167.44 359.85,-154 418.58,-111.54 482.27,-53.73 511.5,-26.45"/>
<polygon fill="midnightblue" stroke="midnightblue" points="513.9,-29 518.8,-19.61 509.11,-23.89 513.9,-29"/>
</g>
<!-- Node15 -->
<g id="node15" class="node">
<title>Node15</title>
<g id="a_node15"><a xlink:title=" ">
<polygon fill="white" stroke="#bfbfbf" points="270.35,-129 270.35,-148 309.35,-148 309.35,-129 270.35,-129"/>
<text text-anchor="middle" x="289.85" y="-136" font-family="Helvetica,sans-Serif" font-size="10.00">utility</text>
</a>
</g>
</g>
<!-- Node14&#45;&gt;Node15 -->
<g id="edge22" class="edge">
<title>Node14&#45;&gt;Node15</title>
<path fill="none" stroke="midnightblue" d="M279.67,-190.4C281.56,-180.96 284.06,-168.45 286.11,-158.19"/>
<polygon fill="midnightblue" stroke="midnightblue" points="289.58,-158.69 288.11,-148.19 282.72,-157.31 289.58,-158.69"/>
</g>
<!-- Node16 -->
<g id="node16" class="node">
<title>Node16</title>
<g id="a_node16"><a xlink:href="../../d1/d71/msg_8h.html" target="_top" xlink:title=" ">
<polygon fill="white" stroke="black" points="145.85,-123.5 145.85,-153.5 251.85,-153.5 251.85,-123.5 145.85,-123.5"/>
<text text-anchor="start" x="153.85" y="-141.5" font-family="Helvetica,sans-Serif" font-size="10.00">automaton/core/data</text>
<text text-anchor="middle" x="198.85" y="-130.5" font-family="Helvetica,sans-Serif" font-size="10.00">/msg.h</text>
</a>
</g>
</g>
<!-- Node14&#45;&gt;Node16 -->
<g id="edge24" class="edge">
<title>Node14&#45;&gt;Node16</title>
<path fill="none" stroke="midnightblue" d="M259.92,-190.4C249.29,-181.54 235.4,-169.96 223.55,-160.09"/>
<polygon fill="midnightblue" stroke="midnightblue" points="225.66,-157.29 215.74,-153.58 221.18,-162.67 225.66,-157.29"/>
</g>
<!-- Node17 -->
<g id="node17" class="node">
<title>Node17</title>
<g id="a_node17"><a xlink:href="../../d7/de3/schema_8h.html" target="_top" xlink:title=" ">
<polygon fill="white" stroke="black" points="241.85,-56.5 241.85,-86.5 347.85,-86.5 347.85,-56.5 241.85,-56.5"/>
<text text-anchor="start" x="249.85" y="-74.5" font-family="Helvetica,sans-Serif" font-size="10.00">automaton/core/data</text>
<text text-anchor="middle" x="294.85" y="-63.5" font-family="Helvetica,sans-Serif" font-size="10.00">/schema.h</text>
</a>
</g>
</g>
<!-- Node14&#45;&gt;Node17 -->
<g id="edge31" class="edge">
<title>Node14&#45;&gt;Node17</title>
<path fill="none" stroke="midnightblue" d="M292.88,-190.32C302.12,-181.04 312.86,-168.05 317.85,-154 324.75,-134.54 317.16,-111.91 308.9,-95.43"/>
<polygon fill="midnightblue" stroke="midnightblue" points="311.91,-93.64 304.06,-86.52 305.75,-96.98 311.91,-93.64"/>
</g>
<!-- Node16&#45;&gt;Node4 -->
<g id="edge25" class="edge">
<title>Node16&#45;&gt;Node4</title>
<path fill="none" stroke="midnightblue" d="M183.01,-123.4C171.29,-112.96 155.33,-98.75 143.25,-88"/>
<polygon fill="midnightblue" stroke="midnightblue" points="145.41,-85.23 135.61,-81.19 140.75,-90.46 145.41,-85.23"/>
</g>
<!-- Node16&#45;&gt;Node5 -->
<g id="edge26" class="edge">
<title>Node16&#45;&gt;Node5</title>
<path fill="none" stroke="midnightblue" d="M200.73,-123.37C203.96,-105 212.3,-73.25 232.85,-56 258.24,-34.68 352.62,-20.56 402.11,-14.45"/>
<polygon fill="midnightblue" stroke="midnightblue" points="402.73,-17.9 412.24,-13.23 401.89,-10.95 402.73,-17.9"/>
</g>
<!-- Node16&#45;&gt;Node17 -->
<g id="edge27" class="edge">
<title>Node16&#45;&gt;Node17</title>
<path fill="none" stroke="midnightblue" d="M219.68,-123.4C233.14,-114.28 250.85,-102.29 265.7,-92.24"/>
<polygon fill="midnightblue" stroke="midnightblue" points="267.74,-95.08 274.06,-86.58 263.82,-89.28 267.74,-95.08"/>
</g>
<!-- Node17&#45;&gt;Node5 -->
<g id="edge29" class="edge">
<title>Node17&#45;&gt;Node5</title>
<path fill="none" stroke="midnightblue" d="M327.55,-56.4C350.6,-46.46 381.21,-33.26 403.48,-23.66"/>
<polygon fill="midnightblue" stroke="midnightblue" points="404.97,-26.83 412.77,-19.66 402.2,-20.4 404.97,-26.83"/>
</g>
<!-- Node17&#45;&gt;Node7 -->
<g id="edge30" class="edge">
<title>Node17&#45;&gt;Node7</title>
<path fill="none" stroke="midnightblue" d="M242.28,-56.47C199.39,-45.03 140.16,-29.23 104.02,-19.58"/>
<polygon fill="midnightblue" stroke="midnightblue" points="104.59,-16.11 94.02,-16.92 102.78,-22.88 104.59,-16.11"/>
</g>
<!-- Node17&#45;&gt;Node9 -->
<g id="edge28" class="edge">
<title>Node17&#45;&gt;Node9</title>
<path fill="none" stroke="midnightblue" d="M348.01,-56.92C395.32,-44.84 462.65,-27.65 500.06,-18.1"/>
<polygon fill="midnightblue" stroke="midnightblue" points="501.4,-21.37 510.22,-15.5 499.66,-14.58 501.4,-21.37"/>
</g>
<!-- Node19&#45;&gt;Node10 -->
<g id="edge36" class="edge">
<title>Node19&#45;&gt;Node10</title>
<path fill="none" stroke="midnightblue" d="M915.37,-259.86C918.58,-258.89 921.75,-257.93 924.85,-257 961.97,-245.8 1003.73,-233.24 1036.32,-223.46"/>
<polygon fill="midnightblue" stroke="midnightblue" points="1037.56,-226.74 1046.13,-220.51 1035.55,-220.04 1037.56,-226.74"/>
</g>
<!-- Node20 -->
<g id="node20" class="node">
<title>Node20</title>
<g id="a_node20"><a xlink:title=" ">
<polygon fill="white" stroke="#bfbfbf" points="1169.35,-196 1169.35,-215 1264.35,-215 1264.35,-196 1169.35,-196"/>
<text text-anchor="middle" x="1216.85" y="-203" font-family="Helvetica,sans-Serif" font-size="10.00">cryptopp/cryptlib.h</text>
</a>
</g>
</g>
<!-- Node19&#45;&gt;Node20 -->
<g id="edge34" class="edge">
<title>Node19&#45;&gt;Node20</title>
<path fill="none" stroke="midnightblue" d="M915.59,-259.25C918.71,-258.44 921.81,-257.69 924.85,-257 1027.89,-233.62 1056.3,-242.05 1159.85,-221 1164.97,-219.96 1170.32,-218.75 1175.61,-217.49"/>
<polygon fill="midnightblue" stroke="midnightblue" points="1176.74,-220.82 1185.61,-215.03 1175.07,-214.02 1176.74,-220.82"/>
</g>
<!-- Node21 -->
<g id="node21" class="node">
<title>Node21</title>
<g id="a_node21"><a xlink:title=" ">
<polygon fill="white" stroke="#bfbfbf" points="811.35,-196 811.35,-215 906.35,-215 906.35,-196 811.35,-196"/>
<text text-anchor="middle" x="858.85" y="-203" font-family="Helvetica,sans-Serif" font-size="10.00">cryptopp/keccak.h</text>
</a>
</g>
</g>
<!-- Node19&#45;&gt;Node21 -->
<g id="edge35" class="edge">
<title>Node19&#45;&gt;Node21</title>
<path fill="none" stroke="midnightblue" d="M858.85,-257.36C858.85,-247.3 858.85,-235.1 858.85,-225.18"/>
<polygon fill="midnightblue" stroke="midnightblue" points="862.35,-225.17 858.85,-215.17 855.35,-225.17 862.35,-225.17"/>
</g>
<!-- Node22&#45;&gt;Node10 -->
<g id="edge40" class="edge">
<title>Node22&#45;&gt;Node10</title>
<path fill="none" stroke="midnightblue" d="M1030.63,-262.73C1041.91,-252.54 1057.27,-238.66 1069.9,-227.24"/>
<polygon fill="midnightblue" stroke="midnightblue" points="1072.28,-229.81 1077.35,-220.5 1067.59,-224.61 1072.28,-229.81"/>
</g>
<!-- Node22&#45;&gt;Node20 -->
<g id="edge38" class="edge">
<title>Node22&#45;&gt;Node20</title>
<path fill="none" stroke="midnightblue" d="M1055.24,-262.9C1092.55,-249.88 1147.36,-230.75 1182.58,-218.46"/>
<polygon fill="midnightblue" stroke="midnightblue" points="1184.11,-221.63 1192.4,-215.03 1181.8,-215.02 1184.11,-221.63"/>
</g>
<!-- Node23 -->
<g id="node23" class="node">
<title>Node23</title>
<g id="a_node23"><a xlink:title=" ">
<polygon fill="white" stroke="#bfbfbf" points="924.35,-196 924.35,-215 1017.35,-215 1017.35,-196 924.35,-196"/>
<text text-anchor="middle" x="970.85" y="-203" font-family="Helvetica,sans-Serif" font-size="10.00">cryptopp/ripemd.h</text>
</a>
</g>
</g>
<!-- Node22&#45;&gt;Node23 -->
<g id="edge39" class="edge">
<title>Node22&#45;&gt;Node23</title>
<path fill="none" stroke="midnightblue" d="M1005.94,-262.73C998.97,-251.56 989.23,-235.96 981.79,-224.02"/>
<polygon fill="midnightblue" stroke="midnightblue" points="984.66,-222.02 976.4,-215.39 978.72,-225.73 984.66,-222.02"/>
</g>
<!-- Node24&#45;&gt;Node8 -->
<g id="edge42" class="edge">
<title>Node24&#45;&gt;Node8</title>
<path fill="none" stroke="midnightblue" d="M440.62,-262.73C451.01,-252.7 465.09,-239.1 476.81,-227.79"/>
<polygon fill="midnightblue" stroke="midnightblue" points="479.34,-230.21 484.1,-220.75 474.47,-225.17 479.34,-230.21"/>
</g>
<!-- Node25&#45;&gt;Node12 -->
<g id="edge46" class="edge">
<title>Node25&#45;&gt;Node12</title>
<path fill="none" stroke="midnightblue" d="M695.5,-257.36C683.28,-247.89 668.63,-236.54 656.27,-226.97"/>
<polygon fill="midnightblue" stroke="midnightblue" points="658.19,-224.03 648.14,-220.67 653.9,-229.56 658.19,-224.03"/>
</g>
<!-- Node25&#45;&gt;Node20 -->
<g id="edge44" class="edge">
<title>Node25&#45;&gt;Node20</title>
<path fill="none" stroke="midnightblue" d="M783.92,-258.81C786.93,-258.16 789.92,-257.55 792.85,-257 953.96,-226.95 998.41,-249.28 1159.85,-221 1165.38,-220.03 1171.17,-218.81 1176.84,-217.49"/>
<polygon fill="midnightblue" stroke="midnightblue" points="1177.98,-220.81 1186.86,-215.03 1176.31,-214.01 1177.98,-220.81"/>
</g>
<!-- Node26 -->
<g id="node26" class="node">
<title>Node26</title>
<g id="a_node26"><a xlink:title=" ">
<polygon fill="white" stroke="#bfbfbf" points="704.85,-196 704.85,-215 792.85,-215 792.85,-196 704.85,-196"/>
<text text-anchor="middle" x="748.85" y="-203" font-family="Helvetica,sans-Serif" font-size="10.00">cryptopp/osrng.h</text>
</a>
</g>
</g>
<!-- Node25&#45;&gt;Node26 -->
<g id="edge45" class="edge">
<title>Node25&#45;&gt;Node26</title>
<path fill="none" stroke="midnightblue" d="M728.65,-257.36C732.73,-247.08 737.7,-234.58 741.68,-224.54"/>
<polygon fill="midnightblue" stroke="midnightblue" points="744.97,-225.76 745.4,-215.17 738.46,-223.18 744.97,-225.76"/>
</g>
<!-- Node27&#45;&gt;Node10 -->
<g id="edge50" class="edge">
<title>Node27&#45;&gt;Node10</title>
<path fill="none" stroke="midnightblue" d="M1299.57,-262.99C1257.76,-251.56 1198.59,-235.4 1154.26,-223.28"/>
<polygon fill="midnightblue" stroke="midnightblue" points="1155.04,-219.87 1144.47,-220.61 1153.2,-226.62 1155.04,-219.87"/>
</g>
<!-- Node27&#45;&gt;Node20 -->
<g id="edge48" class="edge">
<title>Node27&#45;&gt;Node20</title>
<path fill="none" stroke="midnightblue" d="M1324.05,-262.9C1300.16,-250.33 1265.43,-232.06 1242.03,-219.75"/>
<polygon fill="midnightblue" stroke="midnightblue" points="1243.55,-216.59 1233.07,-215.03 1240.29,-222.79 1243.55,-216.59"/>
</g>
<!-- Node28 -->
<g id="node28" class="node">
<title>Node28</title>
<g id="a_node28"><a xlink:title=" ">
<polygon fill="white" stroke="#bfbfbf" points="1282.85,-196 1282.85,-215 1362.85,-215 1362.85,-196 1282.85,-196"/>
<text text-anchor="middle" x="1322.85" y="-203" font-family="Helvetica,sans-Serif" font-size="10.00">cryptopp/sha.h</text>
</a>
</g>
</g>
<!-- Node27&#45;&gt;Node28 -->
<g id="edge49" class="edge">
<title>Node27&#45;&gt;Node28</title>
<path fill="none" stroke="midnightblue" d="M1345.18,-262.73C1340.83,-251.78 1334.79,-236.57 1330.09,-224.74"/>
<polygon fill="midnightblue" stroke="midnightblue" points="1333.32,-223.4 1326.38,-215.39 1326.82,-225.98 1333.32,-223.4"/>
</g>
<!-- Node29&#45;&gt;Node10 -->
<g id="edge54" class="edge">
<title>Node29&#45;&gt;Node10</title>
<path fill="none" stroke="midnightblue" d="M1462.45,-262.99C1452.61,-260.83 1442.46,-258.73 1432.85,-257 1315.59,-235.84 1282.17,-241.63 1160.94,-221.09"/>
<polygon fill="midnightblue" stroke="midnightblue" points="1161.34,-217.61 1150.9,-219.37 1160.16,-224.51 1161.34,-217.61"/>
</g>
<!-- Node29&#45;&gt;Node20 -->
<g id="edge52" class="edge">
<title>Node29&#45;&gt;Node20</title>
<path fill="none" stroke="midnightblue" d="M1459.01,-262.99C1450.23,-260.97 1441.31,-258.93 1432.85,-257 1362.21,-240.88 1344.3,-237.93 1273.85,-221 1269.19,-219.88 1264.33,-218.68 1259.49,-217.48"/>
<polygon fill="midnightblue" stroke="midnightblue" points="1260.22,-214.05 1249.67,-215.01 1258.51,-220.84 1260.22,-214.05"/>
</g>
<!-- Node30 -->
<g id="node30" class="node">
<title>Node30</title>
<g id="a_node30"><a xlink:title=" ">
<polygon fill="white" stroke="#bfbfbf" points="1381.35,-196 1381.35,-215 1466.35,-215 1466.35,-196 1381.35,-196"/>
<text text-anchor="middle" x="1423.85" y="-203" font-family="Helvetica,sans-Serif" font-size="10.00">cryptopp/sha3.h</text>
</a>
</g>
</g>
<!-- Node29&#45;&gt;Node30 -->
<g id="edge53" class="edge">
<title>Node29&#45;&gt;Node30</title>
<path fill="none" stroke="midnightblue" d="M1500.42,-262.73C1484.06,-250.72 1460.73,-233.58 1444.13,-221.39"/>
<polygon fill="midnightblue" stroke="midnightblue" points="1445.81,-218.29 1435.68,-215.19 1441.67,-223.93 1445.81,-218.29"/>
</g>
<!-- Node31&#45;&gt;Node10 -->
<g id="edge58" class="edge">
<title>Node31&#45;&gt;Node10</title>
<path fill="none" stroke="midnightblue" d="M1167.83,-262.73C1153.98,-252.35 1135.03,-238.13 1119.65,-226.6"/>
<polygon fill="midnightblue" stroke="midnightblue" points="1121.62,-223.7 1111.52,-220.5 1117.42,-229.3 1121.62,-223.7"/>
</g>
<!-- Node31&#45;&gt;Node20 -->
<g id="edge56" class="edge">
<title>Node31&#45;&gt;Node20</title>
<path fill="none" stroke="midnightblue" d="M1192.92,-262.73C1197.58,-251.78 1204.05,-236.57 1209.09,-224.74"/>
<polygon fill="midnightblue" stroke="midnightblue" points="1212.37,-225.97 1213.06,-215.39 1205.93,-223.22 1212.37,-225.97"/>
</g>
<!-- Node31&#45;&gt;Node28 -->
<g id="edge57" class="edge">
<title>Node31&#45;&gt;Node28</title>
<path fill="none" stroke="midnightblue" d="M1214.04,-262.9C1238.3,-250.33 1273.54,-232.06 1297.29,-219.75"/>
<polygon fill="midnightblue" stroke="midnightblue" points="1299.12,-222.74 1306.39,-215.03 1295.9,-216.53 1299.12,-222.74"/>
</g>
<!-- Node32&#45;&gt;Node8 -->
<g id="edge60" class="edge">
<title>Node32&#45;&gt;Node8</title>
<path fill="none" stroke="midnightblue" d="M558.01,-257.36C547.1,-247.99 534.05,-236.76 522.98,-227.25"/>
<polygon fill="midnightblue" stroke="midnightblue" points="525.19,-224.54 515.33,-220.67 520.63,-229.84 525.19,-224.54"/>
</g>
<!-- Node33&#45;&gt;Node5 -->
<g id="edge63" class="edge">
<title>Node33&#45;&gt;Node5</title>
<path fill="none" stroke="midnightblue" d="M1650.3,-268.44C1622.95,-257.91 1575.57,-239.17 1535.85,-221 1508.19,-208.35 1503.68,-199.67 1474.85,-190 1375.65,-156.72 626.55,-40.72 463.93,-15.76"/>
<polygon fill="midnightblue" stroke="midnightblue" points="464.08,-12.24 453.67,-14.18 463.02,-19.16 464.08,-12.24"/>
</g>
<!-- Node34 -->
<g id="node34" class="node">
<title>Node34</title>
<g id="a_node34"><a xlink:title=" ">
<polygon fill="white" stroke="#bfbfbf" points="1544.85,-196 1544.85,-215 1590.85,-215 1590.85,-196 1544.85,-196"/>
<text text-anchor="middle" x="1567.85" y="-203" font-family="Helvetica,sans-Serif" font-size="10.00">chrono</text>
</a>
</g>
</g>
<!-- Node33&#45;&gt;Node34 -->
<g id="edge62" class="edge">
<title>Node33&#45;&gt;Node34</title>
<path fill="none" stroke="midnightblue" d="M1659.97,-268.36C1642.34,-256.52 1610.45,-235.1 1589.21,-220.84"/>
<polygon fill="midnightblue" stroke="midnightblue" points="1591.08,-217.88 1580.83,-215.22 1587.18,-223.7 1591.08,-217.88"/>
</g>
<!-- Node35 -->
<g id="node35" class="node">
<title>Node35</title>
<g id="a_node35"><a xlink:title=" ">
<polygon fill="white" stroke="#bfbfbf" points="1608.85,-196 1608.85,-215 1692.85,-215 1692.85,-196 1608.85,-196"/>
<text text-anchor="middle" x="1650.85" y="-203" font-family="Helvetica,sans-Serif" font-size="10.00">g3log/g3log.hpp</text>
</a>
</g>
</g>
<!-- Node33&#45;&gt;Node35 -->
<g id="edge64" class="edge">
<title>Node33&#45;&gt;Node35</title>
<path fill="none" stroke="midnightblue" d="M1670.15,-268.36C1666.79,-257.57 1660.94,-238.85 1656.57,-224.82"/>
<polygon fill="midnightblue" stroke="midnightblue" points="1659.89,-223.72 1653.57,-215.22 1653.21,-225.8 1659.89,-223.72"/>
</g>
<!-- Node36 -->
<g id="node36" class="node">
<title>Node36</title>
<g id="a_node36"><a xlink:title=" ">
<polygon fill="white" stroke="#bfbfbf" points="1711.35,-196 1711.35,-215 1814.35,-215 1814.35,-196 1711.35,-196"/>
<text text-anchor="middle" x="1762.85" y="-203" font-family="Helvetica,sans-Serif" font-size="10.00">g3log/logworker.hpp</text>
</a>
</g>
</g>
<!-- Node33&#45;&gt;Node36 -->
<g id="edge65" class="edge">
<title>Node33&#45;&gt;Node36</title>
<path fill="none" stroke="midnightblue" d="M1683.88,-268.36C1698.73,-256.73 1725.36,-235.86 1743.56,-221.61"/>
<polygon fill="midnightblue" stroke="midnightblue" points="1746.01,-224.14 1751.72,-215.22 1741.69,-218.63 1746.01,-224.14"/>
</g>
<!-- Node37 -->
<g id="node37" class="node">
<title>Node37</title>
<g id="a_node37"><a xlink:title=" ">
<polygon fill="white" stroke="#bfbfbf" points="1832.35,-196 1832.35,-215 1931.35,-215 1931.35,-196 1832.35,-196"/>
<text text-anchor="middle" x="1881.85" y="-203" font-family="Helvetica,sans-Serif" font-size="10.00">g3log/loglevels.hpp</text>
</a>
</g>
</g>
<!-- Node33&#45;&gt;Node37 -->
<g id="edge66" class="edge">
<title>Node33&#45;&gt;Node37</title>
<path fill="none" stroke="midnightblue" d="M1698.06,-268.5C1735.25,-255.95 1804.94,-232.44 1847,-218.26"/>
<polygon fill="midnightblue" stroke="midnightblue" points="1848.19,-221.55 1856.55,-215.03 1845.95,-214.91 1848.19,-221.55"/>
</g>
</g>
</svg>
