<?xml version="1.0" encoding="UTF-8" standalone="no"?>
<!DOCTYPE svg PUBLIC "-//W3C//DTD SVG 1.1//EN"
 "http://www.w3.org/Graphics/SVG/1.1/DTD/svg11.dtd">
<!-- Generated by graphviz version 2.44.0 ()
 -->
<!-- Title: bind_crypto.cc Pages: 1 -->
<svg width="1991pt" height="363pt"
 viewBox="0.00 0.00 1991.00 363.00" xmlns="http://www.w3.org/2000/svg" xmlns:xlink="http://www.w3.org/1999/xlink">
<g id="graph0" class="graph" transform="scale(1 1) rotate(0) translate(4 359)">
<title>bind_crypto.cc</title>
<polygon fill="white" stroke="transparent" points="-4,4 -4,-359 1987,-359 1987,4 -4,4"/>
<!-- Node1 -->
<g id="node1" class="node">
<title>Node1</title>
<g id="a_node1"><a xlink:title=" ">
<polygon fill="#bfbfbf" stroke="black" points="942,-335.5 942,-354.5 1021,-354.5 1021,-335.5 942,-335.5"/>
<text text-anchor="middle" x="981.5" y="-342.5" font-family="Helvetica,sans-Serif" font-size="10.00">bind_crypto.cc</text>
</a>
</g>
</g>
<!-- Node2 -->
<g id="node2" class="node">
<title>Node2</title>
<g id="a_node2"><a xlink:href="../../d1/d55/engine_8h.html" target="_top" xlink:title=" ">
<polygon fill="white" stroke="black" points="264,-263 264,-293 375,-293 375,-263 264,-263"/>
<text text-anchor="start" x="272" y="-281" font-family="Helvetica,sans-Serif" font-size="10.00">automaton/core/script</text>
<text text-anchor="middle" x="319.5" y="-270" font-family="Helvetica,sans-Serif" font-size="10.00">/engine.h</text>
</a>
</g>
</g>
<!-- Node1&#45;&gt;Node2 -->
<g id="edge1" class="edge">
<title>Node1&#45;&gt;Node2</title>
<path fill="none" stroke="midnightblue" d="M941.91,-344.12C845.48,-343.74 591.09,-338.71 383.5,-299 378.82,-298.1 373.99,-296.98 369.19,-295.73"/>
<polygon fill="midnightblue" stroke="midnightblue" points="370,-292.32 359.43,-293.01 368.12,-299.07 370,-292.32"/>
</g>
<!-- Node18 -->
<g id="node18" class="node">
<title>Node18</title>
<g id="a_node18"><a xlink:href="../../da/d44/_keccak__256__cryptopp_8h.html" target="_top" xlink:title=" ">
<polygon fill="white" stroke="black" points="847,-257.5 847,-298.5 960,-298.5 960,-257.5 847,-257.5"/>
<text text-anchor="start" x="855" y="-286.5" font-family="Helvetica,sans-Serif" font-size="10.00">automaton/core/crypto</text>
<text text-anchor="start" x="855" y="-275.5" font-family="Helvetica,sans-Serif" font-size="10.00">/cryptopp/Keccak_256</text>
<text text-anchor="middle" x="903.5" y="-264.5" font-family="Helvetica,sans-Serif" font-size="10.00">_cryptopp.h</text>
</a>
</g>
</g>
<!-- Node1&#45;&gt;Node18 -->
<g id="edge32" class="edge">
<title>Node1&#45;&gt;Node18</title>
<path fill="none" stroke="midnightblue" d="M970.98,-335.23C961.68,-327.49 947.64,-315.78 934.76,-305.05"/>
<polygon fill="midnightblue" stroke="midnightblue" points="936.87,-302.26 926.95,-298.54 932.39,-307.63 936.87,-302.26"/>
</g>
<!-- Node21 -->
<g id="node21" class="node">
<title>Node21</title>
<g id="a_node21"><a xlink:href="../../d4/d13/_r_i_p_e_m_d160__cryptopp_8h.html" target="_top" xlink:title=" ">
<polygon fill="white" stroke="black" points="978.5,-263 978.5,-293 1140.5,-293 1140.5,-263 978.5,-263"/>
<text text-anchor="start" x="986.5" y="-281" font-family="Helvetica,sans-Serif" font-size="10.00">automaton/core/crypto</text>
<text text-anchor="middle" x="1059.5" y="-270" font-family="Helvetica,sans-Serif" font-size="10.00">/cryptopp/RIPEMD160_cryptopp.h</text>
</a>
</g>
</g>
<!-- Node1&#45;&gt;Node21 -->
<g id="edge36" class="edge">
<title>Node1&#45;&gt;Node21</title>
<path fill="none" stroke="midnightblue" d="M992.02,-335.23C1002.86,-326.2 1020.17,-311.77 1034.54,-299.8"/>
<polygon fill="midnightblue" stroke="midnightblue" points="1037.15,-302.18 1042.59,-293.09 1032.67,-296.8 1037.15,-302.18"/>
</g>
<!-- Node23 -->
<g id="node23" class="node">
<title>Node23</title>
<g id="a_node23"><a xlink:href="../../d7/d15/secp256k1__cryptopp_8h.html" target="_top" xlink:title=" ">
<polygon fill="white" stroke="black" points="528.5,-263 528.5,-293 684.5,-293 684.5,-263 528.5,-263"/>
<text text-anchor="start" x="536.5" y="-281" font-family="Helvetica,sans-Serif" font-size="10.00">automaton/core/crypto</text>
<text text-anchor="middle" x="606.5" y="-270" font-family="Helvetica,sans-Serif" font-size="10.00">/cryptopp/secp256k1_cryptopp.h</text>
</a>
</g>
</g>
<!-- Node1&#45;&gt;Node23 -->
<g id="edge40" class="edge">
<title>Node1&#45;&gt;Node23</title>
<path fill="none" stroke="midnightblue" d="M941.75,-338.7C886.05,-331.06 781.7,-316.01 693.5,-299 687.41,-297.83 681.09,-296.53 674.78,-295.18"/>
<polygon fill="midnightblue" stroke="midnightblue" points="675.39,-291.73 664.88,-293.02 673.9,-298.57 675.39,-291.73"/>
</g>
<!-- Node24 -->
<g id="node24" class="node">
<title>Node24</title>
<g id="a_node24"><a xlink:href="../../d1/d2e/secure__random__cryptopp_8h.html" target="_top" xlink:title=" ">
<polygon fill="white" stroke="black" points="702.5,-257.5 702.5,-298.5 828.5,-298.5 828.5,-257.5 702.5,-257.5"/>
<text text-anchor="start" x="710.5" y="-286.5" font-family="Helvetica,sans-Serif" font-size="10.00">automaton/core/crypto</text>
<text text-anchor="start" x="710.5" y="-275.5" font-family="Helvetica,sans-Serif" font-size="10.00">/cryptopp/secure_random</text>
<text text-anchor="middle" x="765.5" y="-264.5" font-family="Helvetica,sans-Serif" font-size="10.00">_cryptopp.h</text>
</a>
</g>
</g>
<!-- Node1&#45;&gt;Node24 -->
<g id="edge42" class="edge">
<title>Node1&#45;&gt;Node24</title>
<path fill="none" stroke="midnightblue" d="M952.82,-335.37C923.83,-326.65 877.85,-312.81 838.7,-301.03"/>
<polygon fill="midnightblue" stroke="midnightblue" points="839.5,-297.61 828.91,-298.08 837.48,-304.32 839.5,-297.61"/>
</g>
<!-- Node26 -->
<g id="node26" class="node">
<title>Node26</title>
<g id="a_node26"><a xlink:href="../../d4/d75/_s_h_a256__cryptopp_8h.html" target="_top" xlink:title=" ">
<polygon fill="white" stroke="black" points="1158.5,-263 1158.5,-293 1304.5,-293 1304.5,-263 1158.5,-263"/>
<text text-anchor="start" x="1166.5" y="-281" font-family="Helvetica,sans-Serif" font-size="10.00">automaton/core/crypto</text>
<text text-anchor="middle" x="1231.5" y="-270" font-family="Helvetica,sans-Serif" font-size="10.00">/cryptopp/SHA256_cryptopp.h</text>
</a>
</g>
</g>
<!-- Node1&#45;&gt;Node26 -->
<g id="edge46" class="edge">
<title>Node1&#45;&gt;Node26</title>
<path fill="none" stroke="midnightblue" d="M1014.44,-335.44C1053.27,-325.34 1118.68,-308.33 1167.57,-295.62"/>
<polygon fill="midnightblue" stroke="midnightblue" points="1168.63,-298.96 1177.43,-293.06 1166.87,-292.19 1168.63,-298.96"/>
</g>
<!-- Node28 -->
<g id="node28" class="node">
<title>Node28</title>
<g id="a_node28"><a xlink:href="../../d3/d0d/_s_h_a3__256__cryptopp_8h.html" target="_top" xlink:title=" ">
<polygon fill="white" stroke="black" points="1486.5,-263 1486.5,-293 1642.5,-293 1642.5,-263 1486.5,-263"/>
<text text-anchor="start" x="1494.5" y="-281" font-family="Helvetica,sans-Serif" font-size="10.00">automaton/core/crypto</text>
<text text-anchor="middle" x="1564.5" y="-270" font-family="Helvetica,sans-Serif" font-size="10.00">/cryptopp/SHA3_256_cryptopp.h</text>
</a>
</g>
</g>
<!-- Node1&#45;&gt;Node28 -->
<g id="edge50" class="edge">
<title>Node1&#45;&gt;Node28</title>
<path fill="none" stroke="midnightblue" d="M1021.27,-342.22C1105.73,-338.05 1309.08,-325.87 1477.5,-299 1484.29,-297.92 1491.33,-296.61 1498.34,-295.19"/>
<polygon fill="midnightblue" stroke="midnightblue" points="1499.5,-298.52 1508.56,-293.03 1498.05,-291.67 1499.5,-298.52"/>
</g>
<!-- Node30 -->
<g id="node30" class="node">
<title>Node30</title>
<g id="a_node30"><a xlink:href="../../d0/d4e/_s_h_a512__cryptopp_8h.html" target="_top" xlink:title=" ">
<polygon fill="white" stroke="black" points="1322.5,-263 1322.5,-293 1468.5,-293 1468.5,-263 1322.5,-263"/>
<text text-anchor="start" x="1330.5" y="-281" font-family="Helvetica,sans-Serif" font-size="10.00">automaton/core/crypto</text>
<text text-anchor="middle" x="1395.5" y="-270" font-family="Helvetica,sans-Serif" font-size="10.00">/cryptopp/SHA512_cryptopp.h</text>
</a>
</g>
</g>
<!-- Node1&#45;&gt;Node30 -->
<g id="edge54" class="edge">
<title>Node1&#45;&gt;Node30</title>
<path fill="none" stroke="midnightblue" d="M1021.07,-339.99C1083.52,-333.36 1208.63,-318.84 1313.5,-299 1319.31,-297.9 1325.33,-296.65 1331.34,-295.33"/>
<polygon fill="midnightblue" stroke="midnightblue" points="1332.44,-298.66 1341.42,-293.04 1330.89,-291.84 1332.44,-298.66"/>
</g>
<!-- Node31 -->
<g id="node31" class="node">
<title>Node31</title>
<g id="a_node31"><a xlink:href="../../da/d84/ed25519__orlp_8h.html" target="_top" xlink:title=" ">
<polygon fill="white" stroke="black" points="393,-257.5 393,-298.5 510,-298.5 510,-257.5 393,-257.5"/>
<text text-anchor="start" x="401" y="-286.5" font-family="Helvetica,sans-Serif" font-size="10.00">automaton/core/crypto</text>
<text text-anchor="start" x="401" y="-275.5" font-family="Helvetica,sans-Serif" font-size="10.00">/ed25519_orlp/ed25519</text>
<text text-anchor="middle" x="451.5" y="-264.5" font-family="Helvetica,sans-Serif" font-size="10.00">_orlp.h</text>
</a>
</g>
</g>
<!-- Node1&#45;&gt;Node31 -->
<g id="edge58" class="edge">
<title>Node1&#45;&gt;Node31</title>
<path fill="none" stroke="midnightblue" d="M941.89,-342.66C863.21,-339.46 681.62,-329.38 520.4,-298.97"/>
<polygon fill="midnightblue" stroke="midnightblue" points="520.78,-295.48 510.3,-297.03 519.47,-302.36 520.78,-295.48"/>
</g>
<!-- Node32 -->
<g id="node32" class="node">
<title>Node32</title>
<g id="a_node32"><a xlink:href="../../dc/dac/io_8h.html" target="_top" xlink:title=" ">
<polygon fill="white" stroke="black" points="1661,-268.5 1661,-287.5 1774,-287.5 1774,-268.5 1661,-268.5"/>
<text text-anchor="middle" x="1717.5" y="-275.5" font-family="Helvetica,sans-Serif" font-size="10.00">automaton/core/io/io.h</text>
</a>
</g>
</g>
<!-- Node1&#45;&gt;Node32 -->
<g id="edge60" class="edge">
<title>Node1&#45;&gt;Node32</title>
<path fill="none" stroke="midnightblue" d="M1021.15,-344.46C1125.38,-344.99 1415.25,-342.15 1651.5,-299 1662.39,-297.01 1674.02,-293.85 1684.44,-290.62"/>
<polygon fill="midnightblue" stroke="midnightblue" points="1685.55,-293.94 1693.99,-287.55 1683.4,-287.28 1685.55,-293.94"/>
</g>
<!-- Node3 -->
<g id="node3" class="node">
<title>Node3</title>
<g id="a_node3"><a xlink:title=" ">
<polygon fill="white" stroke="#bfbfbf" points="103.5,-196 103.5,-215 141.5,-215 141.5,-196 103.5,-196"/>
<text text-anchor="middle" x="122.5" y="-203" font-family="Helvetica,sans-Serif" font-size="10.00">array</text>
</a>
</g>
</g>
<!-- Node2&#45;&gt;Node3 -->
<g id="edge2" class="edge">
<title>Node2&#45;&gt;Node3</title>
<path fill="none" stroke="midnightblue" d="M274.93,-262.92C241.74,-252.15 195.45,-236.56 155.5,-221 153.9,-220.38 152.26,-219.72 150.61,-219.04"/>
<polygon fill="midnightblue" stroke="midnightblue" points="151.8,-215.75 141.23,-215.06 149.07,-222.19 151.8,-215.75"/>
</g>
<!-- Node4 -->
<g id="node4" class="node">
<title>Node4</title>
<g id="a_node4"><a xlink:title=" ">
<polygon fill="white" stroke="#bfbfbf" points="110,-62 110,-81 161,-81 161,-62 110,-62"/>
<text text-anchor="middle" x="135.5" y="-69" font-family="Helvetica,sans-Serif" font-size="10.00">memory</text>
</a>
</g>
</g>
<!-- Node2&#45;&gt;Node4 -->
<g id="edge3" class="edge">
<title>Node2&#45;&gt;Node4</title>
<path fill="none" stroke="midnightblue" d="M286.96,-262.97C247.61,-244.21 182.54,-207.02 149.5,-154 137.6,-134.91 135.02,-108.66 134.81,-91.16"/>
<polygon fill="midnightblue" stroke="midnightblue" points="138.32,-91.14 134.94,-81.09 131.32,-91.05 138.32,-91.14"/>
</g>
<!-- Node5 -->
<g id="node5" class="node">
<title>Node5</title>
<g id="a_node5"><a xlink:title=" ">
<polygon fill="white" stroke="#bfbfbf" points="503,-0.5 503,-19.5 544,-19.5 544,-0.5 503,-0.5"/>
<text text-anchor="middle" x="523.5" y="-7.5" font-family="Helvetica,sans-Serif" font-size="10.00">string</text>
</a>
</g>
</g>
<!-- Node2&#45;&gt;Node5 -->
<g id="edge4" class="edge">
<title>Node2&#45;&gt;Node5</title>
<path fill="none" stroke="midnightblue" d="M350.24,-262.98C369.08,-253.23 392.71,-238.81 409.5,-221 465.93,-161.12 503.35,-67.96 517.35,-29.04"/>
<polygon fill="midnightblue" stroke="midnightblue" points="520.66,-30.17 520.67,-19.58 514.05,-27.85 520.66,-30.17"/>
</g>
<!-- Node6 -->
<g id="node6" class="node">
<title>Node6</title>
<g id="a_node6"><a xlink:title=" ">
<polygon fill="white" stroke="#bfbfbf" points="167.5,-0.5 167.5,-19.5 211.5,-19.5 211.5,-0.5 167.5,-0.5"/>
<text text-anchor="middle" x="189.5" y="-7.5" font-family="Helvetica,sans-Serif" font-size="10.00">vector</text>
</a>
</g>
</g>
<!-- Node2&#45;&gt;Node6 -->
<g id="edge5" class="edge">
<title>Node2&#45;&gt;Node6</title>
<path fill="none" stroke="midnightblue" d="M263.79,-270.93C204.11,-263.15 115.14,-247.4 94.5,-221 73.43,-194.05 17.96,-183.74 100.5,-56 113.28,-36.22 137.61,-24.76 157.6,-18.35"/>
<polygon fill="midnightblue" stroke="midnightblue" points="158.67,-21.69 167.29,-15.53 156.71,-14.97 158.67,-21.69"/>
</g>
<!-- Node7 -->
<g id="node7" class="node">
<title>Node7</title>
<g id="a_node7"><a xlink:href="../../dd/de2/digital__signature_8h.html" target="_top" xlink:title=" ">
<polygon fill="white" stroke="black" points="501,-190.5 501,-220.5 614,-220.5 614,-190.5 501,-190.5"/>
<text text-anchor="start" x="509" y="-208.5" font-family="Helvetica,sans-Serif" font-size="10.00">automaton/core/crypto</text>
<text text-anchor="middle" x="557.5" y="-197.5" font-family="Helvetica,sans-Serif" font-size="10.00">/digital_signature.h</text>
</a>
</g>
</g>
<!-- Node2&#45;&gt;Node7 -->
<g id="edge6" class="edge">
<title>Node2&#45;&gt;Node7</title>
<path fill="none" stroke="midnightblue" d="M364.22,-262.9C370.68,-260.9 377.26,-258.88 383.5,-257 421.6,-245.52 464.54,-233.05 498.23,-223.38"/>
<polygon fill="midnightblue" stroke="midnightblue" points="499.27,-226.72 507.92,-220.6 497.34,-219.99 499.27,-226.72"/>
</g>
<!-- Node9 -->
<g id="node9" class="node">
<title>Node9</title>
<g id="a_node9"><a xlink:href="../../d2/dab/hash__transformation_8h.html" target="_top" xlink:title=" ">
<polygon fill="white" stroke="black" points="1093.5,-190.5 1093.5,-220.5 1209.5,-220.5 1209.5,-190.5 1093.5,-190.5"/>
<text text-anchor="start" x="1101.5" y="-208.5" font-family="Helvetica,sans-Serif" font-size="10.00">automaton/core/crypto</text>
<text text-anchor="middle" x="1151.5" y="-197.5" font-family="Helvetica,sans-Serif" font-size="10.00">/hash_transformation.h</text>
</a>
</g>
</g>
<!-- Node2&#45;&gt;Node9 -->
<g id="edge9" class="edge">
<title>Node2&#45;&gt;Node9</title>
<path fill="none" stroke="midnightblue" d="M359.06,-262.94C367.06,-260.58 375.48,-258.44 383.5,-257 687.29,-202.63 773.41,-260.85 1083.32,-220.99"/>
<polygon fill="midnightblue" stroke="midnightblue" points="1084.04,-224.42 1093.5,-219.65 1083.13,-217.48 1084.04,-224.42"/>
</g>
<!-- Node11 -->
<g id="node11" class="node">
<title>Node11</title>
<g id="a_node11"><a xlink:href="../../d1/d8a/secure__random_8h.html" target="_top" xlink:title=" ">
<polygon fill="white" stroke="black" points="632,-190.5 632,-220.5 745,-220.5 745,-190.5 632,-190.5"/>
<text text-anchor="start" x="640" y="-208.5" font-family="Helvetica,sans-Serif" font-size="10.00">automaton/core/crypto</text>
<text text-anchor="middle" x="688.5" y="-197.5" font-family="Helvetica,sans-Serif" font-size="10.00">/secure_random.h</text>
</a>
</g>
</g>
<!-- Node2&#45;&gt;Node11 -->
<g id="edge13" class="edge">
<title>Node2&#45;&gt;Node11</title>
<path fill="none" stroke="midnightblue" d="M361.25,-262.94C368.61,-260.76 376.24,-258.67 383.5,-257 485.12,-233.61 515.12,-240.12 621.8,-221.04"/>
<polygon fill="midnightblue" stroke="midnightblue" points="622.46,-224.47 631.67,-219.24 621.2,-217.59 622.46,-224.47"/>
</g>
<!-- Node13 -->
<g id="node13" class="node">
<title>Node13</title>
<g id="a_node13"><a xlink:href="../../de/d06/factory_8h.html" target="_top" xlink:title=" ">
<polygon fill="white" stroke="black" points="294.5,-190.5 294.5,-220.5 400.5,-220.5 400.5,-190.5 294.5,-190.5"/>
<text text-anchor="start" x="302.5" y="-208.5" font-family="Helvetica,sans-Serif" font-size="10.00">automaton/core/data</text>
<text text-anchor="middle" x="347.5" y="-197.5" font-family="Helvetica,sans-Serif" font-size="10.00">/factory.h</text>
</a>
</g>
</g>
<!-- Node2&#45;&gt;Node13 -->
<g id="edge17" class="edge">
<title>Node2&#45;&gt;Node13</title>
<path fill="none" stroke="midnightblue" d="M325.17,-262.73C328.89,-253.37 333.84,-240.9 338.14,-230.08"/>
<polygon fill="midnightblue" stroke="midnightblue" points="341.4,-231.33 341.84,-220.75 334.9,-228.75 341.4,-231.33"/>
</g>
<!-- Node17 -->
<g id="node17" class="node">
<title>Node17</title>
<g id="a_node17"><a xlink:title=" ">
<polygon fill="white" stroke="#bfbfbf" points="0,-196 0,-215 47,-215 47,-196 0,-196"/>
<text text-anchor="middle" x="23.5" y="-203" font-family="Helvetica,sans-Serif" font-size="10.00">sol.hpp</text>
</a>
</g>
</g>
<!-- Node2&#45;&gt;Node17 -->
<g id="edge31" class="edge">
<title>Node2&#45;&gt;Node17</title>
<path fill="none" stroke="midnightblue" d="M263.78,-267.42C211.11,-257.77 130.14,-241.42 61.5,-221 58.92,-220.23 56.27,-219.37 53.63,-218.47"/>
<polygon fill="midnightblue" stroke="midnightblue" points="54.81,-215.17 44.21,-215.05 52.42,-221.75 54.81,-215.17"/>
</g>
<!-- Node7&#45;&gt;Node5 -->
<g id="edge7" class="edge">
<title>Node7&#45;&gt;Node5</title>
<path fill="none" stroke="midnightblue" d="M555,-190.27C548.97,-155.94 533.61,-68.57 526.82,-29.9"/>
<polygon fill="midnightblue" stroke="midnightblue" points="530.18,-28.82 525.01,-19.58 523.29,-30.03 530.18,-28.82"/>
</g>
<!-- Node8 -->
<g id="node8" class="node">
<title>Node8</title>
<g id="a_node8"><a xlink:title=" ">
<polygon fill="white" stroke="#bfbfbf" points="658,-0.5 658,-19.5 693,-19.5 693,-0.5 658,-0.5"/>
<text text-anchor="middle" x="675.5" y="-7.5" font-family="Helvetica,sans-Serif" font-size="10.00">map</text>
</a>
</g>
</g>
<!-- Node7&#45;&gt;Node8 -->
<g id="edge8" class="edge">
<title>Node7&#45;&gt;Node8</title>
<path fill="none" stroke="midnightblue" d="M566.18,-190.27C587.38,-155.5 641.78,-66.3 664.87,-28.42"/>
<polygon fill="midnightblue" stroke="midnightblue" points="668.05,-29.94 670.27,-19.58 662.07,-26.29 668.05,-29.94"/>
</g>
<!-- Node9&#45;&gt;Node5 -->
<g id="edge12" class="edge">
<title>Node9&#45;&gt;Node5</title>
<path fill="none" stroke="midnightblue" d="M1105.83,-190.43C984.26,-152.97 655.13,-51.56 553.68,-20.3"/>
<polygon fill="midnightblue" stroke="midnightblue" points="554.64,-16.93 544.06,-17.33 552.58,-23.62 554.64,-16.93"/>
</g>
<!-- Node9&#45;&gt;Node8 -->
<g id="edge11" class="edge">
<title>Node9&#45;&gt;Node8</title>
<path fill="none" stroke="midnightblue" d="M1166.26,-190.33C1182.45,-173.05 1204.09,-143.61 1187.5,-123 1125.63,-46.13 801.08,-19.12 703.36,-12.66"/>
<polygon fill="midnightblue" stroke="midnightblue" points="703.31,-9.15 693.11,-12 702.86,-16.14 703.31,-9.15"/>
</g>
<!-- Node10 -->
<g id="node10" class="node">
<title>Node10</title>
<g id="a_node10"><a xlink:title=" ">
<polygon fill="white" stroke="#bfbfbf" points="1124.5,-129 1124.5,-148 1178.5,-148 1178.5,-129 1124.5,-129"/>
<text text-anchor="middle" x="1151.5" y="-136" font-family="Helvetica,sans-Serif" font-size="10.00">iostream</text>
</a>
</g>
</g>
<!-- Node9&#45;&gt;Node10 -->
<g id="edge10" class="edge">
<title>Node9&#45;&gt;Node10</title>
<path fill="none" stroke="midnightblue" d="M1151.5,-190.4C1151.5,-181.06 1151.5,-168.71 1151.5,-158.52"/>
<polygon fill="midnightblue" stroke="midnightblue" points="1155,-158.19 1151.5,-148.19 1148,-158.19 1155,-158.19"/>
</g>
<!-- Node11&#45;&gt;Node5 -->
<g id="edge16" class="edge">
<title>Node11&#45;&gt;Node5</title>
<path fill="none" stroke="midnightblue" d="M676.37,-190.27C646.46,-155.2 569.35,-64.77 537.54,-27.47"/>
<polygon fill="midnightblue" stroke="midnightblue" points="539.97,-24.92 530.81,-19.58 534.64,-29.46 539.97,-24.92"/>
</g>
<!-- Node11&#45;&gt;Node8 -->
<g id="edge15" class="edge">
<title>Node11&#45;&gt;Node8</title>
<path fill="none" stroke="midnightblue" d="M700.74,-190.12C708.04,-180.57 716.62,-167.36 720.5,-154 724.34,-140.77 723.12,-136.53 720.5,-123 713.73,-88.01 696.1,-50.08 685.02,-28.56"/>
<polygon fill="midnightblue" stroke="midnightblue" points="688.08,-26.86 680.32,-19.65 681.89,-30.12 688.08,-26.86"/>
</g>
<!-- Node12 -->
<g id="node12" class="node">
<title>Node12</title>
<g id="a_node12"><a xlink:title=" ">
<polygon fill="white" stroke="#bfbfbf" points="665.5,-129 665.5,-148 711.5,-148 711.5,-129 665.5,-129"/>
<text text-anchor="middle" x="688.5" y="-136" font-family="Helvetica,sans-Serif" font-size="10.00">cstdint</text>
</a>
</g>
</g>
<!-- Node11&#45;&gt;Node12 -->
<g id="edge14" class="edge">
<title>Node11&#45;&gt;Node12</title>
<path fill="none" stroke="midnightblue" d="M688.5,-190.4C688.5,-181.06 688.5,-168.71 688.5,-158.52"/>
<polygon fill="midnightblue" stroke="midnightblue" points="692,-158.19 688.5,-148.19 685,-158.19 692,-158.19"/>
</g>
<!-- Node13&#45;&gt;Node4 -->
<g id="edge19" class="edge">
<title>Node13&#45;&gt;Node4</title>
<path fill="none" stroke="midnightblue" d="M294.48,-200.14C257.48,-194.63 208.94,-182.17 175.5,-154 156.04,-137.61 145.22,-109.49 139.88,-90.94"/>
<polygon fill="midnightblue" stroke="midnightblue" points="143.21,-89.84 137.29,-81.06 136.44,-91.62 143.21,-89.84"/>
</g>
<!-- Node13&#45;&gt;Node5 -->
<g id="edge20" class="edge">
<title>Node13&#45;&gt;Node5</title>
<path fill="none" stroke="midnightblue" d="M366.13,-190.37C378.09,-180.81 393.57,-167.51 405.5,-154 440.27,-114.64 436.67,-95.3 471.5,-56 481.27,-44.97 493.71,-34.11 503.97,-25.83"/>
<polygon fill="midnightblue" stroke="midnightblue" points="506.28,-28.47 511.97,-19.53 501.95,-22.97 506.28,-28.47"/>
</g>
<!-- Node13&#45;&gt;Node6 -->
<g id="edge22" class="edge">
<title>Node13&#45;&gt;Node6</title>
<path fill="none" stroke="midnightblue" d="M294.48,-198.68C264.66,-192.53 229.33,-179.91 208.5,-154 179.54,-117.99 182.46,-59.6 186.34,-29.8"/>
<polygon fill="midnightblue" stroke="midnightblue" points="189.86,-29.97 187.87,-19.57 182.93,-28.94 189.86,-29.97"/>
</g>
<!-- Node13&#45;&gt;Node8 -->
<g id="edge18" class="edge">
<title>Node13&#45;&gt;Node8</title>
<path fill="none" stroke="midnightblue" d="M371.35,-190.43C432.08,-154.6 591.99,-60.27 652.16,-24.77"/>
<polygon fill="midnightblue" stroke="midnightblue" points="654.09,-27.69 660.93,-19.6 650.54,-21.66 654.09,-27.69"/>
</g>
<!-- Node14 -->
<g id="node14" class="node">
<title>Node14</title>
<g id="a_node14"><a xlink:title=" ">
<polygon fill="white" stroke="#bfbfbf" points="342,-129 342,-148 381,-148 381,-129 342,-129"/>
<text text-anchor="middle" x="361.5" y="-136" font-family="Helvetica,sans-Serif" font-size="10.00">utility</text>
</a>
</g>
</g>
<!-- Node13&#45;&gt;Node14 -->
<g id="edge21" class="edge">
<title>Node13&#45;&gt;Node14</title>
<path fill="none" stroke="midnightblue" d="M350.54,-190.4C352.57,-180.96 355.26,-168.45 357.47,-158.19"/>
<polygon fill="midnightblue" stroke="midnightblue" points="360.94,-158.71 359.63,-148.19 354.1,-157.23 360.94,-158.71"/>
</g>
<!-- Node15 -->
<g id="node15" class="node">
<title>Node15</title>
<g id="a_node15"><a xlink:href="../../d1/d71/msg_8h.html" target="_top" xlink:title=" ">
<polygon fill="white" stroke="black" points="217.5,-123.5 217.5,-153.5 323.5,-153.5 323.5,-123.5 217.5,-123.5"/>
<text text-anchor="start" x="225.5" y="-141.5" font-family="Helvetica,sans-Serif" font-size="10.00">automaton/core/data</text>
<text text-anchor="middle" x="270.5" y="-130.5" font-family="Helvetica,sans-Serif" font-size="10.00">/msg.h</text>
</a>
</g>
</g>
<!-- Node13&#45;&gt;Node15 -->
<g id="edge23" class="edge">
<title>Node13&#45;&gt;Node15</title>
<path fill="none" stroke="midnightblue" d="M330.79,-190.4C320.3,-181.54 306.58,-169.96 294.89,-160.09"/>
<polygon fill="midnightblue" stroke="midnightblue" points="297.07,-157.35 287.18,-153.58 292.56,-162.7 297.07,-157.35"/>
</g>
<!-- Node16 -->
<g id="node16" class="node">
<title>Node16</title>
<g id="a_node16"><a xlink:href="../../d7/de3/schema_8h.html" target="_top" xlink:title=" ">
<polygon fill="white" stroke="black" points="313.5,-56.5 313.5,-86.5 419.5,-86.5 419.5,-56.5 313.5,-56.5"/>
<text text-anchor="start" x="321.5" y="-74.5" font-family="Helvetica,sans-Serif" font-size="10.00">automaton/core/data</text>
<text text-anchor="middle" x="366.5" y="-63.5" font-family="Helvetica,sans-Serif" font-size="10.00">/schema.h</text>
</a>
</g>
</g>
<!-- Node13&#45;&gt;Node16 -->
<g id="edge30" class="edge">
<title>Node13&#45;&gt;Node16</title>
<path fill="none" stroke="midnightblue" d="M363.91,-190.4C373.38,-181.14 384.38,-168.16 389.5,-154 396.52,-134.58 388.92,-111.94 380.62,-95.46"/>
<polygon fill="midnightblue" stroke="midnightblue" points="383.62,-93.64 375.76,-86.54 377.47,-96.99 383.62,-93.64"/>
</g>
<!-- Node15&#45;&gt;Node4 -->
<g id="edge24" class="edge">
<title>Node15&#45;&gt;Node4</title>
<path fill="none" stroke="midnightblue" d="M241.21,-123.4C217.73,-112.09 185.06,-96.36 162.27,-85.39"/>
<polygon fill="midnightblue" stroke="midnightblue" points="163.7,-82.19 153.17,-81.01 160.66,-88.5 163.7,-82.19"/>
</g>
<!-- Node15&#45;&gt;Node5 -->
<g id="edge25" class="edge">
<title>Node15&#45;&gt;Node5</title>
<path fill="none" stroke="midnightblue" d="M272.34,-123.31C275.51,-104.88 283.79,-73.06 304.5,-56 332.88,-32.62 439.19,-19.2 492.55,-13.8"/>
<polygon fill="midnightblue" stroke="midnightblue" points="493.17,-17.26 502.78,-12.8 492.48,-10.29 493.17,-17.26"/>
</g>
<!-- Node15&#45;&gt;Node16 -->
<g id="edge26" class="edge">
<title>Node15&#45;&gt;Node16</title>
<path fill="none" stroke="midnightblue" d="M291.33,-123.4C304.79,-114.28 322.5,-102.29 337.35,-92.24"/>
<polygon fill="midnightblue" stroke="midnightblue" points="339.39,-95.08 345.71,-86.58 335.47,-89.28 339.39,-95.08"/>
</g>
<!-- Node16&#45;&gt;Node5 -->
<g id="edge28" class="edge">
<title>Node16&#45;&gt;Node5</title>
<path fill="none" stroke="midnightblue" d="M403.71,-56.4C431.08,-46.02 467.83,-32.1 493.37,-22.42"/>
<polygon fill="midnightblue" stroke="midnightblue" points="494.8,-25.62 502.91,-18.8 492.32,-19.08 494.8,-25.62"/>
</g>
<!-- Node16&#45;&gt;Node6 -->
<g id="edge29" class="edge">
<title>Node16&#45;&gt;Node6</title>
<path fill="none" stroke="midnightblue" d="M324.55,-56.4C292.91,-45.76 250.17,-31.4 221.32,-21.7"/>
<polygon fill="midnightblue" stroke="midnightblue" points="222.32,-18.34 211.73,-18.47 220.09,-24.98 222.32,-18.34"/>
</g>
<!-- Node16&#45;&gt;Node8 -->
<g id="edge27" class="edge">
<title>Node16&#45;&gt;Node8</title>
<path fill="none" stroke="midnightblue" d="M419.62,-60.27C485.83,-47.52 596.51,-26.21 647.83,-16.33"/>
<polygon fill="midnightblue" stroke="midnightblue" points="648.68,-19.73 657.84,-14.4 647.35,-12.86 648.68,-19.73"/>
</g>
<!-- Node18&#45;&gt;Node9 -->
<g id="edge35" class="edge">
<title>Node18&#45;&gt;Node9</title>
<path fill="none" stroke="midnightblue" d="M960.36,-259.68C963.45,-258.77 966.51,-257.87 969.5,-257 1009.51,-245.39 1054.64,-232.86 1089.95,-223.19"/>
<polygon fill="midnightblue" stroke="midnightblue" points="1090.91,-226.56 1099.63,-220.54 1089.06,-219.8 1090.91,-226.56"/>
</g>
<!-- Node19 -->
<g id="node19" class="node">
<title>Node19</title>
<g id="a_node19"><a xlink:title=" ">
<polygon fill="white" stroke="#bfbfbf" points="1228,-196 1228,-215 1323,-215 1323,-196 1228,-196"/>
<text text-anchor="middle" x="1275.5" y="-203" font-family="Helvetica,sans-Serif" font-size="10.00">cryptopp/cryptlib.h</text>
</a>
</g>
</g>
<!-- Node18&#45;&gt;Node19 -->
<g id="edge33" class="edge">
<title>Node18&#45;&gt;Node19</title>
<path fill="none" stroke="midnightblue" d="M960.24,-259.21C963.36,-258.42 966.46,-257.68 969.5,-257 1078.65,-232.72 1108.83,-242.81 1218.5,-221 1223.63,-219.98 1228.98,-218.79 1234.27,-217.53"/>
<polygon fill="midnightblue" stroke="midnightblue" points="1235.4,-220.86 1244.28,-215.07 1233.73,-214.06 1235.4,-220.86"/>
</g>
<!-- Node20 -->
<g id="node20" class="node">
<title>Node20</title>
<g id="a_node20"><a xlink:title=" ">
<polygon fill="white" stroke="#bfbfbf" points="870,-196 870,-215 965,-215 965,-196 870,-196"/>
<text text-anchor="middle" x="917.5" y="-203" font-family="Helvetica,sans-Serif" font-size="10.00">cryptopp/keccak.h</text>
</a>
</g>
</g>
<!-- Node18&#45;&gt;Node20 -->
<g id="edge34" class="edge">
<title>Node18&#45;&gt;Node20</title>
<path fill="none" stroke="midnightblue" d="M907.4,-257.36C909.4,-247.3 911.82,-235.1 913.79,-225.18"/>
<polygon fill="midnightblue" stroke="midnightblue" points="917.26,-225.66 915.78,-215.17 910.4,-224.3 917.26,-225.66"/>
</g>
<!-- Node21&#45;&gt;Node9 -->
<g id="edge39" class="edge">
<title>Node21&#45;&gt;Node9</title>
<path fill="none" stroke="midnightblue" d="M1078.12,-262.73C1091.67,-252.35 1110.22,-238.13 1125.27,-226.6"/>
<polygon fill="midnightblue" stroke="midnightblue" points="1127.42,-229.37 1133.22,-220.5 1123.16,-223.81 1127.42,-229.37"/>
</g>
<!-- Node21&#45;&gt;Node19 -->
<g id="edge37" class="edge">
<title>Node21&#45;&gt;Node19</title>
<path fill="none" stroke="midnightblue" d="M1102.43,-262.99C1142.64,-249.86 1202.03,-230.48 1239.73,-218.17"/>
<polygon fill="midnightblue" stroke="midnightblue" points="1240.87,-221.49 1249.29,-215.05 1238.7,-214.83 1240.87,-221.49"/>
</g>
<!-- Node22 -->
<g id="node22" class="node">
<title>Node22</title>
<g id="a_node22"><a xlink:title=" ">
<polygon fill="white" stroke="#bfbfbf" points="983,-196 983,-215 1076,-215 1076,-196 983,-196"/>
<text text-anchor="middle" x="1029.5" y="-203" font-family="Helvetica,sans-Serif" font-size="10.00">cryptopp/ripemd.h</text>
</a>
</g>
</g>
<!-- Node21&#45;&gt;Node22 -->
<g id="edge38" class="edge">
<title>Node21&#45;&gt;Node22</title>
<path fill="none" stroke="midnightblue" d="M1053.43,-262.73C1048.77,-251.78 1042.3,-236.57 1037.26,-224.74"/>
<polygon fill="midnightblue" stroke="midnightblue" points="1040.42,-223.22 1033.28,-215.39 1033.98,-225.97 1040.42,-223.22"/>
</g>
<!-- Node23&#45;&gt;Node7 -->
<g id="edge41" class="edge">
<title>Node23&#45;&gt;Node7</title>
<path fill="none" stroke="midnightblue" d="M596.58,-262.73C589.88,-253.08 580.87,-240.13 573.2,-229.09"/>
<polygon fill="midnightblue" stroke="midnightblue" points="575.98,-226.96 567.4,-220.75 570.23,-230.95 575.98,-226.96"/>
</g>
<!-- Node24&#45;&gt;Node11 -->
<g id="edge45" class="edge">
<title>Node24&#45;&gt;Node11</title>
<path fill="none" stroke="midnightblue" d="M744.05,-257.36C733.98,-248.14 721.96,-237.13 711.68,-227.72"/>
<polygon fill="midnightblue" stroke="midnightblue" points="713.96,-225.06 704.22,-220.89 709.23,-230.23 713.96,-225.06"/>
</g>
<!-- Node24&#45;&gt;Node19 -->
<g id="edge43" class="edge">
<title>Node24&#45;&gt;Node19</title>
<path fill="none" stroke="midnightblue" d="M828.57,-258.8C831.58,-258.15 834.57,-257.54 837.5,-257 1004.76,-226.12 1050.91,-250.05 1218.5,-221 1224.03,-220.04 1229.82,-218.82 1235.5,-217.51"/>
<polygon fill="midnightblue" stroke="midnightblue" points="1236.63,-220.83 1245.51,-215.05 1234.97,-214.03 1236.63,-220.83"/>
</g>
<!-- Node25 -->
<g id="node25" class="node">
<title>Node25</title>
<g id="a_node25"><a xlink:title=" ">
<polygon fill="white" stroke="#bfbfbf" points="763.5,-196 763.5,-215 851.5,-215 851.5,-196 763.5,-196"/>
<text text-anchor="middle" x="807.5" y="-203" font-family="Helvetica,sans-Serif" font-size="10.00">cryptopp/osrng.h</text>
</a>
</g>
</g>
<!-- Node24&#45;&gt;Node25 -->
<g id="edge44" class="edge">
<title>Node24&#45;&gt;Node25</title>
<path fill="none" stroke="midnightblue" d="M777.2,-257.36C783.45,-246.86 791.09,-234.05 797.13,-223.91"/>
<polygon fill="midnightblue" stroke="midnightblue" points="800.22,-225.56 802.33,-215.17 794.21,-221.97 800.22,-225.56"/>
</g>
<!-- Node26&#45;&gt;Node9 -->
<g id="edge49" class="edge">
<title>Node26&#45;&gt;Node9</title>
<path fill="none" stroke="midnightblue" d="M1215.31,-262.73C1203.74,-252.54 1187.99,-238.66 1175.04,-227.24"/>
<polygon fill="midnightblue" stroke="midnightblue" points="1177.21,-224.49 1167.39,-220.5 1172.58,-229.74 1177.21,-224.49"/>
</g>
<!-- Node26&#45;&gt;Node19 -->
<g id="edge47" class="edge">
<title>Node26&#45;&gt;Node19</title>
<path fill="none" stroke="midnightblue" d="M1240.4,-262.73C1247.38,-251.56 1257.11,-235.96 1264.56,-224.02"/>
<polygon fill="midnightblue" stroke="midnightblue" points="1267.62,-225.73 1269.95,-215.39 1261.69,-222.02 1267.62,-225.73"/>
</g>
<!-- Node27 -->
<g id="node27" class="node">
<title>Node27</title>
<g id="a_node27"><a xlink:title=" ">
<polygon fill="white" stroke="#bfbfbf" points="1341.5,-196 1341.5,-215 1421.5,-215 1421.5,-196 1341.5,-196"/>
<text text-anchor="middle" x="1381.5" y="-203" font-family="Helvetica,sans-Serif" font-size="10.00">cryptopp/sha.h</text>
</a>
</g>
</g>
<!-- Node26&#45;&gt;Node27 -->
<g id="edge48" class="edge">
<title>Node26&#45;&gt;Node27</title>
<path fill="none" stroke="midnightblue" d="M1261.49,-262.9C1288.48,-250.22 1327.81,-231.73 1354,-219.42"/>
<polygon fill="midnightblue" stroke="midnightblue" points="1355.78,-222.45 1363.34,-215.03 1352.8,-216.12 1355.78,-222.45"/>
</g>
<!-- Node28&#45;&gt;Node9 -->
<g id="edge53" class="edge">
<title>Node28&#45;&gt;Node9</title>
<path fill="none" stroke="midnightblue" d="M1506.62,-262.95C1496.93,-260.81 1486.95,-258.74 1477.5,-257 1366.33,-236.54 1334.65,-241.03 1219.47,-221.08"/>
<polygon fill="midnightblue" stroke="midnightblue" points="1220.01,-217.63 1209.55,-219.34 1218.8,-224.52 1220.01,-217.63"/>
</g>
<!-- Node28&#45;&gt;Node19 -->
<g id="edge51" class="edge">
<title>Node28&#45;&gt;Node19</title>
<path fill="none" stroke="midnightblue" d="M1505.33,-262.93C1458.42,-251.72 1391.22,-235.55 1332.5,-221 1327.91,-219.86 1323.12,-218.66 1318.34,-217.46"/>
<polygon fill="midnightblue" stroke="midnightblue" points="1319.19,-214.06 1308.64,-215 1317.47,-220.85 1319.19,-214.06"/>
</g>
<!-- Node29 -->
<g id="node29" class="node">
<title>Node29</title>
<g id="a_node29"><a xlink:title=" ">
<polygon fill="white" stroke="#bfbfbf" points="1440,-196 1440,-215 1525,-215 1525,-196 1440,-196"/>
<text text-anchor="middle" x="1482.5" y="-203" font-family="Helvetica,sans-Serif" font-size="10.00">cryptopp/sha3.h</text>
</a>
</g>
</g>
<!-- Node28&#45;&gt;Node29 -->
<g id="edge52" class="edge">
<title>Node28&#45;&gt;Node29</title>
<path fill="none" stroke="midnightblue" d="M1547.91,-262.73C1534.14,-250.89 1514.59,-234.09 1500.46,-221.94"/>
<polygon fill="midnightblue" stroke="midnightblue" points="1502.71,-219.26 1492.84,-215.39 1498.14,-224.57 1502.71,-219.26"/>
</g>
<!-- Node30&#45;&gt;Node9 -->
<g id="edge57" class="edge">
<title>Node30&#45;&gt;Node9</title>
<path fill="none" stroke="midnightblue" d="M1347,-262.99C1307.63,-251.61 1251.98,-235.53 1210.11,-223.43"/>
<polygon fill="midnightblue" stroke="midnightblue" points="1210.9,-220.02 1200.32,-220.61 1208.96,-226.75 1210.9,-220.02"/>
</g>
<!-- Node30&#45;&gt;Node19 -->
<g id="edge55" class="edge">
<title>Node30&#45;&gt;Node19</title>
<path fill="none" stroke="midnightblue" d="M1371.5,-262.9C1350.39,-250.5 1319.83,-232.55 1298.9,-220.25"/>
<polygon fill="midnightblue" stroke="midnightblue" points="1300.42,-217.08 1290.03,-215.03 1296.87,-223.12 1300.42,-217.08"/>
</g>
<!-- Node30&#45;&gt;Node27 -->
<g id="edge56" class="edge">
<title>Node30&#45;&gt;Node27</title>
<path fill="none" stroke="midnightblue" d="M1392.67,-262.73C1390.54,-252 1387.59,-237.19 1385.26,-225.46"/>
<polygon fill="midnightblue" stroke="midnightblue" points="1388.65,-224.52 1383.27,-215.39 1381.78,-225.88 1388.65,-224.52"/>
</g>
<!-- Node31&#45;&gt;Node7 -->
<g id="edge59" class="edge">
<title>Node31&#45;&gt;Node7</title>
<path fill="none" stroke="midnightblue" d="M481.03,-257.36C495.54,-247.71 512.99,-236.11 527.55,-226.42"/>
<polygon fill="midnightblue" stroke="midnightblue" points="529.81,-229.12 536.19,-220.67 525.93,-223.29 529.81,-229.12"/>
</g>
<!-- Node32&#45;&gt;Node5 -->
<g id="edge62" class="edge">
<title>Node32&#45;&gt;Node5</title>
<path fill="none" stroke="midnightblue" d="M1695.53,-268.43C1669.4,-258.04 1624.64,-239.58 1587.5,-221 1562.75,-208.62 1559.44,-199.65 1533.5,-190 1345.03,-119.87 703.01,-34.16 554.39,-14.95"/>
<polygon fill="midnightblue" stroke="midnightblue" points="554.54,-11.44 544.17,-13.63 553.64,-18.38 554.54,-11.44"/>
</g>
<!-- Node33 -->
<g id="node33" class="node">
<title>Node33</title>
<g id="a_node33"><a xlink:title=" ">
<polygon fill="white" stroke="#bfbfbf" points="1596.5,-196 1596.5,-215 1642.5,-215 1642.5,-196 1596.5,-196"/>
<text text-anchor="middle" x="1619.5" y="-203" font-family="Helvetica,sans-Serif" font-size="10.00">chrono</text>
</a>
</g>
</g>
<!-- Node32&#45;&gt;Node33 -->
<g id="edge61" class="edge">
<title>Node32&#45;&gt;Node33</title>
<path fill="none" stroke="midnightblue" d="M1705.48,-268.36C1689.17,-256.62 1659.79,-235.48 1639.97,-221.22"/>
<polygon fill="midnightblue" stroke="midnightblue" points="1641.78,-218.21 1631.62,-215.22 1637.69,-223.9 1641.78,-218.21"/>
</g>
<!-- Node34 -->
<g id="node34" class="node">
<title>Node34</title>
<g id="a_node34"><a xlink:title=" ">
<polygon fill="white" stroke="#bfbfbf" points="1660.5,-196 1660.5,-215 1744.5,-215 1744.5,-196 1660.5,-196"/>
<text text-anchor="middle" x="1702.5" y="-203" font-family="Helvetica,sans-Serif" font-size="10.00">g3log/g3log.hpp</text>
</a>
</g>
</g>
<!-- Node32&#45;&gt;Node34 -->
<g id="edge63" class="edge">
<title>Node32&#45;&gt;Node34</title>
<path fill="none" stroke="midnightblue" d="M1715.66,-268.36C1713.39,-257.68 1709.46,-239.22 1706.49,-225.23"/>
<polygon fill="midnightblue" stroke="midnightblue" points="1709.86,-224.27 1704.35,-215.22 1703.01,-225.72 1709.86,-224.27"/>
</g>
<!-- Node35 -->
<g id="node35" class="node">
<title>Node35</title>
<g id="a_node35"><a xlink:title=" ">
<polygon fill="white" stroke="#bfbfbf" points="1763,-196 1763,-215 1866,-215 1866,-196 1763,-196"/>
<text text-anchor="middle" x="1814.5" y="-203" font-family="Helvetica,sans-Serif" font-size="10.00">g3log/logworker.hpp</text>
</a>
</g>
</g>
<!-- Node32&#45;&gt;Node35 -->
<g id="edge64" class="edge">
<title>Node32&#45;&gt;Node35</title>
<path fill="none" stroke="midnightblue" d="M1729.39,-268.36C1745.54,-256.62 1774.62,-235.48 1794.24,-221.22"/>
<polygon fill="midnightblue" stroke="midnightblue" points="1796.48,-223.93 1802.51,-215.22 1792.36,-218.26 1796.48,-223.93"/>
</g>
<!-- Node36 -->
<g id="node36" class="node">
<title>Node36</title>
<g id="a_node36"><a xlink:title=" ">
<polygon fill="white" stroke="#bfbfbf" points="1884,-196 1884,-215 1983,-215 1983,-196 1884,-196"/>
<text text-anchor="middle" x="1933.5" y="-203" font-family="Helvetica,sans-Serif" font-size="10.00">g3log/loglevels.hpp</text>
</a>
</g>
</g>
<!-- Node32&#45;&gt;Node36 -->
<g id="edge65" class="edge">
<title>Node32&#45;&gt;Node36</title>
<path fill="none" stroke="midnightblue" d="M1743.55,-268.5C1782.07,-255.92 1854.32,-232.34 1897.76,-218.17"/>
<polygon fill="midnightblue" stroke="midnightblue" points="1898.93,-221.46 1907.35,-215.03 1896.76,-214.81 1898.93,-221.46"/>
</g>
</g>
</svg>
