<?xml version="1.0" encoding="UTF-8" standalone="no"?>
<!DOCTYPE svg PUBLIC "-//W3C//DTD SVG 1.1//EN"
 "http://www.w3.org/Graphics/SVG/1.1/DTD/svg11.dtd">
<!-- Generated by graphviz version 2.44.0 ()
 -->
<!-- Title: bind_crypto.cc Pages: 1 -->
<!--zoomable 363 -->
<svg id="main" version="1.1" xmlns="http://www.w3.org/2000/svg" xmlns:xlink="http://www.w3.org/1999/xlink" xml:space="preserve" onload="init(evt)">
<style type="text/css"><![CDATA[
.edge:hover path { stroke: red; }
.edge:hover polygon { stroke: red; fill: red; }
]]></style>
<script type="text/javascript"><![CDATA[
var edges = document.getElementsByTagName('g');
if (edges && edges.length) {
  for (var i=0;i<edges.length;i++) {
    if (edges[i].id.substr(0,4)=='edge') {
      edges[i].setAttribute('class','edge');
    }
  }
}
]]></script>
        <defs>
                <circle id="rim" cx="0" cy="0" r="7"/>
                <circle id="rim2" cx="0" cy="0" r="3.5"/>
                <g id="zoomPlus">
                        <use xlink:href="#rim" fill="#404040">
                                <set attributeName="fill" to="#808080" begin="zoomplus.mouseover" end="zoomplus.mouseout"/>
                        </use>
                        <path d="M-4,0h8M0,-4v8" fill="none" stroke="white" stroke-width="1.5" pointer-events="none"/>
                </g>
                <g id="zoomMin">
                        <use xlink:href="#rim" fill="#404040">
                                <set attributeName="fill" to="#808080" begin="zoomminus.mouseover" end="zoomminus.mouseout"/>
                        </use>
                        <path d="M-4,0h8" fill="none" stroke="white" stroke-width="1.5" pointer-events="none"/>
                </g>
                <g id="dirArrow">
                        <path fill="none" stroke="white" stroke-width="1.5" d="M0,-3.0v7 M-2.5,-0.5L0,-3.0L2.5,-0.5"/>
                </g>
               <g id="resetDef">
                       <use xlink:href="#rim2" fill="#404040">
                               <set attributeName="fill" to="#808080" begin="reset.mouseover" end="reset.mouseout"/>
                       </use>
               </g>
        </defs>

<script type="text/javascript">
var viewWidth = 2007;
var viewHeight = 363;
var sectionId = 'dynsection-0';
</script>
<script xlink:href="../../svgpan.js"/>
<svg id="graph" class="graph">
<g id="viewport">
<title>bind_crypto.cc</title>
<polygon fill="white" stroke="transparent" points="-4,4 -4,-359 2003,-359 2003,4 -4,4"/>
<!-- Node1 -->
<g id="node1" class="node">
<title>Node1</title>
<g id="a_node1"><a xlink:title=" ">
<polygon fill="#bfbfbf" stroke="black" points="958,-335.5 958,-354.5 1037,-354.5 1037,-335.5 958,-335.5"/>
<text text-anchor="middle" x="997.5" y="-342.5" font-family="Helvetica,sans-Serif" font-size="10.00">bind_crypto.cc</text>
</a>
</g>
</g>
<!-- Node2 -->
<g id="node2" class="node">
<title>Node2</title>
<g id="a_node2"><a xlink:href="../../d1/d55/engine_8h.html" target="_top" xlink:title=" ">
<polygon fill="white" stroke="black" points="280,-263 280,-293 391,-293 391,-263 280,-263"/>
<text text-anchor="start" x="288" y="-281" font-family="Helvetica,sans-Serif" font-size="10.00">automaton/core/script</text>
<text text-anchor="middle" x="335.5" y="-270" font-family="Helvetica,sans-Serif" font-size="10.00">/engine.h</text>
</a>
</g>
</g>
<!-- Node1&#45;&gt;Node2 -->
<g id="edge1" class="edge">
<title>Node1&#45;&gt;Node2</title>
<path fill="none" stroke="midnightblue" d="M957.91,-344.12C861.48,-343.74 607.09,-338.71 399.5,-299 394.82,-298.1 389.99,-296.98 385.19,-295.73"/>
<polygon fill="midnightblue" stroke="midnightblue" points="386,-292.32 375.43,-293.01 384.12,-299.07 386,-292.32"/>
</g>
<!-- Node18 -->
<g id="node18" class="node">
<title>Node18</title>
<g id="a_node18"><a xlink:href="../../da/d44/_keccak__256__cryptopp_8h.html" target="_top" xlink:title=" ">
<polygon fill="white" stroke="black" points="863,-257.5 863,-298.5 976,-298.5 976,-257.5 863,-257.5"/>
<text text-anchor="start" x="871" y="-286.5" font-family="Helvetica,sans-Serif" font-size="10.00">automaton/core/crypto</text>
<text text-anchor="start" x="871" y="-275.5" font-family="Helvetica,sans-Serif" font-size="10.00">/cryptopp/Keccak_256</text>
<text text-anchor="middle" x="919.5" y="-264.5" font-family="Helvetica,sans-Serif" font-size="10.00">_cryptopp.h</text>
</a>
</g>
</g>
<!-- Node1&#45;&gt;Node18 -->
<g id="edge32" class="edge">
<title>Node1&#45;&gt;Node18</title>
<path fill="none" stroke="midnightblue" d="M986.98,-335.23C977.68,-327.49 963.64,-315.78 950.76,-305.05"/>
<polygon fill="midnightblue" stroke="midnightblue" points="952.87,-302.26 942.95,-298.54 948.39,-307.63 952.87,-302.26"/>
</g>
<!-- Node21 -->
<g id="node21" class="node">
<title>Node21</title>
<g id="a_node21"><a xlink:href="../../d4/d13/_r_i_p_e_m_d160__cryptopp_8h.html" target="_top" xlink:title=" ">
<polygon fill="white" stroke="black" points="994.5,-263 994.5,-293 1156.5,-293 1156.5,-263 994.5,-263"/>
<text text-anchor="start" x="1002.5" y="-281" font-family="Helvetica,sans-Serif" font-size="10.00">automaton/core/crypto</text>
<text text-anchor="middle" x="1075.5" y="-270" font-family="Helvetica,sans-Serif" font-size="10.00">/cryptopp/RIPEMD160_cryptopp.h</text>
</a>
</g>
</g>
<!-- Node1&#45;&gt;Node21 -->
<g id="edge36" class="edge">
<title>Node1&#45;&gt;Node21</title>
<path fill="none" stroke="midnightblue" d="M1008.02,-335.23C1018.86,-326.2 1036.17,-311.77 1050.54,-299.8"/>
<polygon fill="midnightblue" stroke="midnightblue" points="1053.15,-302.18 1058.59,-293.09 1048.67,-296.8 1053.15,-302.18"/>
</g>
<!-- Node23 -->
<g id="node23" class="node">
<title>Node23</title>
<g id="a_node23"><a xlink:href="../../d7/d15/secp256k1__cryptopp_8h.html" target="_top" xlink:title=" ">
<polygon fill="white" stroke="black" points="544.5,-263 544.5,-293 700.5,-293 700.5,-263 544.5,-263"/>
<text text-anchor="start" x="552.5" y="-281" font-family="Helvetica,sans-Serif" font-size="10.00">automaton/core/crypto</text>
<text text-anchor="middle" x="622.5" y="-270" font-family="Helvetica,sans-Serif" font-size="10.00">/cryptopp/secp256k1_cryptopp.h</text>
</a>
</g>
</g>
<!-- Node1&#45;&gt;Node23 -->
<g id="edge40" class="edge">
<title>Node1&#45;&gt;Node23</title>
<path fill="none" stroke="midnightblue" d="M957.75,-338.7C902.05,-331.06 797.7,-316.01 709.5,-299 703.41,-297.83 697.09,-296.53 690.78,-295.18"/>
<polygon fill="midnightblue" stroke="midnightblue" points="691.39,-291.73 680.88,-293.02 689.9,-298.57 691.39,-291.73"/>
</g>
<!-- Node24 -->
<g id="node24" class="node">
<title>Node24</title>
<g id="a_node24"><a xlink:href="../../d1/d2e/secure__random__cryptopp_8h.html" target="_top" xlink:title=" ">
<polygon fill="white" stroke="black" points="718.5,-257.5 718.5,-298.5 844.5,-298.5 844.5,-257.5 718.5,-257.5"/>
<text text-anchor="start" x="726.5" y="-286.5" font-family="Helvetica,sans-Serif" font-size="10.00">automaton/core/crypto</text>
<text text-anchor="start" x="726.5" y="-275.5" font-family="Helvetica,sans-Serif" font-size="10.00">/cryptopp/secure_random</text>
<text text-anchor="middle" x="781.5" y="-264.5" font-family="Helvetica,sans-Serif" font-size="10.00">_cryptopp.h</text>
</a>
</g>
</g>
<!-- Node1&#45;&gt;Node24 -->
<g id="edge42" class="edge">
<title>Node1&#45;&gt;Node24</title>
<path fill="none" stroke="midnightblue" d="M968.82,-335.37C939.83,-326.65 893.85,-312.81 854.7,-301.03"/>
<polygon fill="midnightblue" stroke="midnightblue" points="855.5,-297.61 844.91,-298.08 853.48,-304.32 855.5,-297.61"/>
</g>
<!-- Node26 -->
<g id="node26" class="node">
<title>Node26</title>
<g id="a_node26"><a xlink:href="../../d4/d75/_s_h_a256__cryptopp_8h.html" target="_top" xlink:title=" ">
<polygon fill="white" stroke="black" points="1174.5,-263 1174.5,-293 1320.5,-293 1320.5,-263 1174.5,-263"/>
<text text-anchor="start" x="1182.5" y="-281" font-family="Helvetica,sans-Serif" font-size="10.00">automaton/core/crypto</text>
<text text-anchor="middle" x="1247.5" y="-270" font-family="Helvetica,sans-Serif" font-size="10.00">/cryptopp/SHA256_cryptopp.h</text>
</a>
</g>
</g>
<!-- Node1&#45;&gt;Node26 -->
<g id="edge46" class="edge">
<title>Node1&#45;&gt;Node26</title>
<path fill="none" stroke="midnightblue" d="M1030.44,-335.44C1069.27,-325.34 1134.68,-308.33 1183.57,-295.62"/>
<polygon fill="midnightblue" stroke="midnightblue" points="1184.63,-298.96 1193.43,-293.06 1182.87,-292.19 1184.63,-298.96"/>
</g>
<!-- Node28 -->
<g id="node28" class="node">
<title>Node28</title>
<g id="a_node28"><a xlink:href="../../d3/d0d/_s_h_a3__256__cryptopp_8h.html" target="_top" xlink:title=" ">
<polygon fill="white" stroke="black" points="1502.5,-263 1502.5,-293 1658.5,-293 1658.5,-263 1502.5,-263"/>
<text text-anchor="start" x="1510.5" y="-281" font-family="Helvetica,sans-Serif" font-size="10.00">automaton/core/crypto</text>
<text text-anchor="middle" x="1580.5" y="-270" font-family="Helvetica,sans-Serif" font-size="10.00">/cryptopp/SHA3_256_cryptopp.h</text>
</a>
</g>
</g>
<!-- Node1&#45;&gt;Node28 -->
<g id="edge50" class="edge">
<title>Node1&#45;&gt;Node28</title>
<path fill="none" stroke="midnightblue" d="M1037.27,-342.22C1121.73,-338.05 1325.08,-325.87 1493.5,-299 1500.29,-297.92 1507.33,-296.61 1514.34,-295.19"/>
<polygon fill="midnightblue" stroke="midnightblue" points="1515.5,-298.52 1524.56,-293.03 1514.05,-291.67 1515.5,-298.52"/>
</g>
<!-- Node30 -->
<g id="node30" class="node">
<title>Node30</title>
<g id="a_node30"><a xlink:href="../../d0/d4e/_s_h_a512__cryptopp_8h.html" target="_top" xlink:title=" ">
<polygon fill="white" stroke="black" points="1338.5,-263 1338.5,-293 1484.5,-293 1484.5,-263 1338.5,-263"/>
<text text-anchor="start" x="1346.5" y="-281" font-family="Helvetica,sans-Serif" font-size="10.00">automaton/core/crypto</text>
<text text-anchor="middle" x="1411.5" y="-270" font-family="Helvetica,sans-Serif" font-size="10.00">/cryptopp/SHA512_cryptopp.h</text>
</a>
</g>
</g>
<!-- Node1&#45;&gt;Node30 -->
<g id="edge54" class="edge">
<title>Node1&#45;&gt;Node30</title>
<path fill="none" stroke="midnightblue" d="M1037.07,-339.99C1099.52,-333.36 1224.63,-318.84 1329.5,-299 1335.31,-297.9 1341.33,-296.65 1347.34,-295.33"/>
<polygon fill="midnightblue" stroke="midnightblue" points="1348.44,-298.66 1357.42,-293.04 1346.89,-291.84 1348.44,-298.66"/>
</g>
<!-- Node31 -->
<g id="node31" class="node">
<title>Node31</title>
<g id="a_node31"><a xlink:href="../../da/d84/ed25519__orlp_8h.html" target="_top" xlink:title=" ">
<polygon fill="white" stroke="black" points="409,-257.5 409,-298.5 526,-298.5 526,-257.5 409,-257.5"/>
<text text-anchor="start" x="417" y="-286.5" font-family="Helvetica,sans-Serif" font-size="10.00">automaton/core/crypto</text>
<text text-anchor="start" x="417" y="-275.5" font-family="Helvetica,sans-Serif" font-size="10.00">/ed25519_orlp/ed25519</text>
<text text-anchor="middle" x="467.5" y="-264.5" font-family="Helvetica,sans-Serif" font-size="10.00">_orlp.h</text>
</a>
</g>
</g>
<!-- Node1&#45;&gt;Node31 -->
<g id="edge58" class="edge">
<title>Node1&#45;&gt;Node31</title>
<path fill="none" stroke="midnightblue" d="M957.89,-342.66C879.21,-339.46 697.62,-329.38 536.4,-298.97"/>
<polygon fill="midnightblue" stroke="midnightblue" points="536.78,-295.48 526.3,-297.03 535.47,-302.36 536.78,-295.48"/>
</g>
<!-- Node32 -->
<g id="node32" class="node">
<title>Node32</title>
<g id="a_node32"><a xlink:href="../../dc/dac/io_8h.html" target="_top" xlink:title=" ">
<polygon fill="white" stroke="black" points="1677,-268.5 1677,-287.5 1790,-287.5 1790,-268.5 1677,-268.5"/>
<text text-anchor="middle" x="1733.5" y="-275.5" font-family="Helvetica,sans-Serif" font-size="10.00">automaton/core/io/io.h</text>
</a>
</g>
</g>
<!-- Node1&#45;&gt;Node32 -->
<g id="edge60" class="edge">
<title>Node1&#45;&gt;Node32</title>
<path fill="none" stroke="midnightblue" d="M1037.15,-344.46C1141.38,-344.99 1431.25,-342.15 1667.5,-299 1678.39,-297.01 1690.02,-293.85 1700.44,-290.62"/>
<polygon fill="midnightblue" stroke="midnightblue" points="1701.55,-293.94 1709.99,-287.55 1699.4,-287.28 1701.55,-293.94"/>
</g>
<!-- Node3 -->
<g id="node3" class="node">
<title>Node3</title>
<g id="a_node3"><a xlink:title=" ">
<polygon fill="white" stroke="#bfbfbf" points="119.5,-196 119.5,-215 157.5,-215 157.5,-196 119.5,-196"/>
<text text-anchor="middle" x="138.5" y="-203" font-family="Helvetica,sans-Serif" font-size="10.00">array</text>
</a>
</g>
</g>
<!-- Node2&#45;&gt;Node3 -->
<g id="edge2" class="edge">
<title>Node2&#45;&gt;Node3</title>
<path fill="none" stroke="midnightblue" d="M290.93,-262.92C257.74,-252.15 211.45,-236.56 171.5,-221 169.9,-220.38 168.26,-219.72 166.61,-219.04"/>
<polygon fill="midnightblue" stroke="midnightblue" points="167.8,-215.75 157.23,-215.06 165.07,-222.19 167.8,-215.75"/>
</g>
<!-- Node4 -->
<g id="node4" class="node">
<title>Node4</title>
<g id="a_node4"><a xlink:title=" ">
<polygon fill="white" stroke="#bfbfbf" points="126,-62 126,-81 177,-81 177,-62 126,-62"/>
<text text-anchor="middle" x="151.5" y="-69" font-family="Helvetica,sans-Serif" font-size="10.00">memory</text>
</a>
</g>
</g>
<!-- Node2&#45;&gt;Node4 -->
<g id="edge3" class="edge">
<title>Node2&#45;&gt;Node4</title>
<path fill="none" stroke="midnightblue" d="M302.96,-262.97C263.61,-244.21 198.54,-207.02 165.5,-154 153.6,-134.91 151.02,-108.66 150.81,-91.16"/>
<polygon fill="midnightblue" stroke="midnightblue" points="154.32,-91.14 150.94,-81.09 147.32,-91.05 154.32,-91.14"/>
</g>
<!-- Node5 -->
<g id="node5" class="node">
<title>Node5</title>
<g id="a_node5"><a xlink:title=" ">
<polygon fill="white" stroke="#bfbfbf" points="519,-0.5 519,-19.5 560,-19.5 560,-0.5 519,-0.5"/>
<text text-anchor="middle" x="539.5" y="-7.5" font-family="Helvetica,sans-Serif" font-size="10.00">string</text>
</a>
</g>
</g>
<!-- Node2&#45;&gt;Node5 -->
<g id="edge4" class="edge">
<title>Node2&#45;&gt;Node5</title>
<path fill="none" stroke="midnightblue" d="M366.24,-262.98C385.08,-253.23 408.71,-238.81 425.5,-221 481.93,-161.12 519.35,-67.96 533.35,-29.04"/>
<polygon fill="midnightblue" stroke="midnightblue" points="536.66,-30.17 536.67,-19.58 530.05,-27.85 536.66,-30.17"/>
</g>
<!-- Node6 -->
<g id="node6" class="node">
<title>Node6</title>
<g id="a_node6"><a xlink:title=" ">
<polygon fill="white" stroke="#bfbfbf" points="183.5,-0.5 183.5,-19.5 227.5,-19.5 227.5,-0.5 183.5,-0.5"/>
<text text-anchor="middle" x="205.5" y="-7.5" font-family="Helvetica,sans-Serif" font-size="10.00">vector</text>
</a>
</g>
</g>
<!-- Node2&#45;&gt;Node6 -->
<g id="edge5" class="edge">
<title>Node2&#45;&gt;Node6</title>
<path fill="none" stroke="midnightblue" d="M279.79,-270.93C220.11,-263.15 131.14,-247.4 110.5,-221 89.43,-194.05 33.96,-183.74 116.5,-56 129.28,-36.22 153.61,-24.76 173.6,-18.35"/>
<polygon fill="midnightblue" stroke="midnightblue" points="174.67,-21.69 183.29,-15.53 172.71,-14.97 174.67,-21.69"/>
</g>
<!-- Node7 -->
<g id="node7" class="node">
<title>Node7</title>
<g id="a_node7"><a xlink:href="../../dd/de2/digital__signature_8h.html" target="_top" xlink:title=" ">
<polygon fill="white" stroke="black" points="517,-190.5 517,-220.5 630,-220.5 630,-190.5 517,-190.5"/>
<text text-anchor="start" x="525" y="-208.5" font-family="Helvetica,sans-Serif" font-size="10.00">automaton/core/crypto</text>
<text text-anchor="middle" x="573.5" y="-197.5" font-family="Helvetica,sans-Serif" font-size="10.00">/digital_signature.h</text>
</a>
</g>
</g>
<!-- Node2&#45;&gt;Node7 -->
<g id="edge6" class="edge">
<title>Node2&#45;&gt;Node7</title>
<path fill="none" stroke="midnightblue" d="M380.22,-262.9C386.68,-260.9 393.26,-258.88 399.5,-257 437.6,-245.52 480.54,-233.05 514.23,-223.38"/>
<polygon fill="midnightblue" stroke="midnightblue" points="515.27,-226.72 523.92,-220.6 513.34,-219.99 515.27,-226.72"/>
</g>
<!-- Node9 -->
<g id="node9" class="node">
<title>Node9</title>
<g id="a_node9"><a xlink:href="../../d2/dab/hash__transformation_8h.html" target="_top" xlink:title=" ">
<polygon fill="white" stroke="black" points="1109.5,-190.5 1109.5,-220.5 1225.5,-220.5 1225.5,-190.5 1109.5,-190.5"/>
<text text-anchor="start" x="1117.5" y="-208.5" font-family="Helvetica,sans-Serif" font-size="10.00">automaton/core/crypto</text>
<text text-anchor="middle" x="1167.5" y="-197.5" font-family="Helvetica,sans-Serif" font-size="10.00">/hash_transformation.h</text>
</a>
</g>
</g>
<!-- Node2&#45;&gt;Node9 -->
<g id="edge9" class="edge">
<title>Node2&#45;&gt;Node9</title>
<path fill="none" stroke="midnightblue" d="M375.06,-262.94C383.06,-260.58 391.48,-258.44 399.5,-257 703.29,-202.63 789.41,-260.85 1099.32,-220.99"/>
<polygon fill="midnightblue" stroke="midnightblue" points="1100.04,-224.42 1109.5,-219.65 1099.13,-217.48 1100.04,-224.42"/>
</g>
<!-- Node11 -->
<g id="node11" class="node">
<title>Node11</title>
<g id="a_node11"><a xlink:href="../../d1/d8a/secure__random_8h.html" target="_top" xlink:title=" ">
<polygon fill="white" stroke="black" points="648,-190.5 648,-220.5 761,-220.5 761,-190.5 648,-190.5"/>
<text text-anchor="start" x="656" y="-208.5" font-family="Helvetica,sans-Serif" font-size="10.00">automaton/core/crypto</text>
<text text-anchor="middle" x="704.5" y="-197.5" font-family="Helvetica,sans-Serif" font-size="10.00">/secure_random.h</text>
</a>
</g>
</g>
<!-- Node2&#45;&gt;Node11 -->
<g id="edge13" class="edge">
<title>Node2&#45;&gt;Node11</title>
<path fill="none" stroke="midnightblue" d="M377.25,-262.94C384.61,-260.76 392.24,-258.67 399.5,-257 501.12,-233.61 531.12,-240.12 637.8,-221.04"/>
<polygon fill="midnightblue" stroke="midnightblue" points="638.46,-224.47 647.67,-219.24 637.2,-217.59 638.46,-224.47"/>
</g>
<!-- Node13 -->
<g id="node13" class="node">
<title>Node13</title>
<g id="a_node13"><a xlink:href="../../de/d06/factory_8h.html" target="_top" xlink:title=" ">
<polygon fill="white" stroke="black" points="310.5,-190.5 310.5,-220.5 416.5,-220.5 416.5,-190.5 310.5,-190.5"/>
<text text-anchor="start" x="318.5" y="-208.5" font-family="Helvetica,sans-Serif" font-size="10.00">automaton/core/data</text>
<text text-anchor="middle" x="363.5" y="-197.5" font-family="Helvetica,sans-Serif" font-size="10.00">/factory.h</text>
</a>
</g>
</g>
<!-- Node2&#45;&gt;Node13 -->
<g id="edge17" class="edge">
<title>Node2&#45;&gt;Node13</title>
<path fill="none" stroke="midnightblue" d="M341.17,-262.73C344.89,-253.37 349.84,-240.9 354.14,-230.08"/>
<polygon fill="midnightblue" stroke="midnightblue" points="357.4,-231.33 357.84,-220.75 350.9,-228.75 357.4,-231.33"/>
</g>
<!-- Node17 -->
<g id="node17" class="node">
<title>Node17</title>
<g id="a_node17"><a xlink:title=" ">
<polygon fill="white" stroke="#bfbfbf" points="0,-196 0,-215 63,-215 63,-196 0,-196"/>
<text text-anchor="middle" x="31.5" y="-203" font-family="Helvetica,sans-Serif" font-size="10.00">sol/sol.hpp</text>
</a>
</g>
</g>
<!-- Node2&#45;&gt;Node17 -->
<g id="edge31" class="edge">
<title>Node2&#45;&gt;Node17</title>
<path fill="none" stroke="midnightblue" d="M279.79,-266.44C227.3,-256.13 146.61,-239.35 77.5,-221 74.08,-220.09 70.53,-219.09 67,-218.04"/>
<polygon fill="midnightblue" stroke="midnightblue" points="67.75,-214.62 57.17,-215.05 65.71,-221.31 67.75,-214.62"/>
</g>
<!-- Node7&#45;&gt;Node5 -->
<g id="edge7" class="edge">
<title>Node7&#45;&gt;Node5</title>
<path fill="none" stroke="midnightblue" d="M571,-190.27C564.97,-155.94 549.61,-68.57 542.82,-29.9"/>
<polygon fill="midnightblue" stroke="midnightblue" points="546.18,-28.82 541.01,-19.58 539.29,-30.03 546.18,-28.82"/>
</g>
<!-- Node8 -->
<g id="node8" class="node">
<title>Node8</title>
<g id="a_node8"><a xlink:title=" ">
<polygon fill="white" stroke="#bfbfbf" points="674,-0.5 674,-19.5 709,-19.5 709,-0.5 674,-0.5"/>
<text text-anchor="middle" x="691.5" y="-7.5" font-family="Helvetica,sans-Serif" font-size="10.00">map</text>
</a>
</g>
</g>
<!-- Node7&#45;&gt;Node8 -->
<g id="edge8" class="edge">
<title>Node7&#45;&gt;Node8</title>
<path fill="none" stroke="midnightblue" d="M582.18,-190.27C603.38,-155.5 657.78,-66.3 680.87,-28.42"/>
<polygon fill="midnightblue" stroke="midnightblue" points="684.05,-29.94 686.27,-19.58 678.07,-26.29 684.05,-29.94"/>
</g>
<!-- Node9&#45;&gt;Node5 -->
<g id="edge12" class="edge">
<title>Node9&#45;&gt;Node5</title>
<path fill="none" stroke="midnightblue" d="M1121.83,-190.43C1000.26,-152.97 671.13,-51.56 569.68,-20.3"/>
<polygon fill="midnightblue" stroke="midnightblue" points="570.64,-16.93 560.06,-17.33 568.58,-23.62 570.64,-16.93"/>
</g>
<!-- Node9&#45;&gt;Node8 -->
<g id="edge11" class="edge">
<title>Node9&#45;&gt;Node8</title>
<path fill="none" stroke="midnightblue" d="M1182.26,-190.33C1198.45,-173.05 1220.09,-143.61 1203.5,-123 1141.63,-46.13 817.08,-19.12 719.36,-12.66"/>
<polygon fill="midnightblue" stroke="midnightblue" points="719.31,-9.15 709.11,-12 718.86,-16.14 719.31,-9.15"/>
</g>
<!-- Node10 -->
<g id="node10" class="node">
<title>Node10</title>
<g id="a_node10"><a xlink:title=" ">
<polygon fill="white" stroke="#bfbfbf" points="1140.5,-129 1140.5,-148 1194.5,-148 1194.5,-129 1140.5,-129"/>
<text text-anchor="middle" x="1167.5" y="-136" font-family="Helvetica,sans-Serif" font-size="10.00">iostream</text>
</a>
</g>
</g>
<!-- Node9&#45;&gt;Node10 -->
<g id="edge10" class="edge">
<title>Node9&#45;&gt;Node10</title>
<path fill="none" stroke="midnightblue" d="M1167.5,-190.4C1167.5,-181.06 1167.5,-168.71 1167.5,-158.52"/>
<polygon fill="midnightblue" stroke="midnightblue" points="1171,-158.19 1167.5,-148.19 1164,-158.19 1171,-158.19"/>
</g>
<!-- Node11&#45;&gt;Node5 -->
<g id="edge16" class="edge">
<title>Node11&#45;&gt;Node5</title>
<path fill="none" stroke="midnightblue" d="M692.37,-190.27C662.46,-155.2 585.35,-64.77 553.54,-27.47"/>
<polygon fill="midnightblue" stroke="midnightblue" points="555.97,-24.92 546.81,-19.58 550.64,-29.46 555.97,-24.92"/>
</g>
<!-- Node11&#45;&gt;Node8 -->
<g id="edge15" class="edge">
<title>Node11&#45;&gt;Node8</title>
<path fill="none" stroke="midnightblue" d="M716.74,-190.12C724.04,-180.57 732.62,-167.36 736.5,-154 740.34,-140.77 739.12,-136.53 736.5,-123 729.73,-88.01 712.1,-50.08 701.02,-28.56"/>
<polygon fill="midnightblue" stroke="midnightblue" points="704.08,-26.86 696.32,-19.65 697.89,-30.12 704.08,-26.86"/>
</g>
<!-- Node12 -->
<g id="node12" class="node">
<title>Node12</title>
<g id="a_node12"><a xlink:title=" ">
<polygon fill="white" stroke="#bfbfbf" points="681.5,-129 681.5,-148 727.5,-148 727.5,-129 681.5,-129"/>
<text text-anchor="middle" x="704.5" y="-136" font-family="Helvetica,sans-Serif" font-size="10.00">cstdint</text>
</a>
</g>
</g>
<!-- Node11&#45;&gt;Node12 -->
<g id="edge14" class="edge">
<title>Node11&#45;&gt;Node12</title>
<path fill="none" stroke="midnightblue" d="M704.5,-190.4C704.5,-181.06 704.5,-168.71 704.5,-158.52"/>
<polygon fill="midnightblue" stroke="midnightblue" points="708,-158.19 704.5,-148.19 701,-158.19 708,-158.19"/>
</g>
<!-- Node13&#45;&gt;Node4 -->
<g id="edge19" class="edge">
<title>Node13&#45;&gt;Node4</title>
<path fill="none" stroke="midnightblue" d="M310.48,-200.14C273.48,-194.63 224.94,-182.17 191.5,-154 172.04,-137.61 161.22,-109.49 155.88,-90.94"/>
<polygon fill="midnightblue" stroke="midnightblue" points="159.21,-89.84 153.29,-81.06 152.44,-91.62 159.21,-89.84"/>
</g>
<!-- Node13&#45;&gt;Node5 -->
<g id="edge20" class="edge">
<title>Node13&#45;&gt;Node5</title>
<path fill="none" stroke="midnightblue" d="M382.13,-190.37C394.09,-180.81 409.57,-167.51 421.5,-154 456.27,-114.64 452.67,-95.3 487.5,-56 497.27,-44.97 509.71,-34.11 519.97,-25.83"/>
<polygon fill="midnightblue" stroke="midnightblue" points="522.28,-28.47 527.97,-19.53 517.95,-22.97 522.28,-28.47"/>
</g>
<!-- Node13&#45;&gt;Node6 -->
<g id="edge22" class="edge">
<title>Node13&#45;&gt;Node6</title>
<path fill="none" stroke="midnightblue" d="M310.48,-198.68C280.66,-192.53 245.33,-179.91 224.5,-154 195.54,-117.99 198.46,-59.6 202.34,-29.8"/>
<polygon fill="midnightblue" stroke="midnightblue" points="205.86,-29.97 203.87,-19.57 198.93,-28.94 205.86,-29.97"/>
</g>
<!-- Node13&#45;&gt;Node8 -->
<g id="edge18" class="edge">
<title>Node13&#45;&gt;Node8</title>
<path fill="none" stroke="midnightblue" d="M387.35,-190.43C448.08,-154.6 607.99,-60.27 668.16,-24.77"/>
<polygon fill="midnightblue" stroke="midnightblue" points="670.09,-27.69 676.93,-19.6 666.54,-21.66 670.09,-27.69"/>
</g>
<!-- Node14 -->
<g id="node14" class="node">
<title>Node14</title>
<g id="a_node14"><a xlink:title=" ">
<polygon fill="white" stroke="#bfbfbf" points="358,-129 358,-148 397,-148 397,-129 358,-129"/>
<text text-anchor="middle" x="377.5" y="-136" font-family="Helvetica,sans-Serif" font-size="10.00">utility</text>
</a>
</g>
</g>
<!-- Node13&#45;&gt;Node14 -->
<g id="edge21" class="edge">
<title>Node13&#45;&gt;Node14</title>
<path fill="none" stroke="midnightblue" d="M366.54,-190.4C368.57,-180.96 371.26,-168.45 373.47,-158.19"/>
<polygon fill="midnightblue" stroke="midnightblue" points="376.94,-158.71 375.63,-148.19 370.1,-157.23 376.94,-158.71"/>
</g>
<!-- Node15 -->
<g id="node15" class="node">
<title>Node15</title>
<g id="a_node15"><a xlink:href="../../d1/d71/msg_8h.html" target="_top" xlink:title=" ">
<polygon fill="white" stroke="black" points="233.5,-123.5 233.5,-153.5 339.5,-153.5 339.5,-123.5 233.5,-123.5"/>
<text text-anchor="start" x="241.5" y="-141.5" font-family="Helvetica,sans-Serif" font-size="10.00">automaton/core/data</text>
<text text-anchor="middle" x="286.5" y="-130.5" font-family="Helvetica,sans-Serif" font-size="10.00">/msg.h</text>
</a>
</g>
</g>
<!-- Node13&#45;&gt;Node15 -->
<g id="edge23" class="edge">
<title>Node13&#45;&gt;Node15</title>
<path fill="none" stroke="midnightblue" d="M346.79,-190.4C336.3,-181.54 322.58,-169.96 310.89,-160.09"/>
<polygon fill="midnightblue" stroke="midnightblue" points="313.07,-157.35 303.18,-153.58 308.56,-162.7 313.07,-157.35"/>
</g>
<!-- Node16 -->
<g id="node16" class="node">
<title>Node16</title>
<g id="a_node16"><a xlink:href="../../d7/de3/schema_8h.html" target="_top" xlink:title=" ">
<polygon fill="white" stroke="black" points="329.5,-56.5 329.5,-86.5 435.5,-86.5 435.5,-56.5 329.5,-56.5"/>
<text text-anchor="start" x="337.5" y="-74.5" font-family="Helvetica,sans-Serif" font-size="10.00">automaton/core/data</text>
<text text-anchor="middle" x="382.5" y="-63.5" font-family="Helvetica,sans-Serif" font-size="10.00">/schema.h</text>
</a>
</g>
</g>
<!-- Node13&#45;&gt;Node16 -->
<g id="edge30" class="edge">
<title>Node13&#45;&gt;Node16</title>
<path fill="none" stroke="midnightblue" d="M379.91,-190.4C389.38,-181.14 400.38,-168.16 405.5,-154 412.52,-134.58 404.92,-111.94 396.62,-95.46"/>
<polygon fill="midnightblue" stroke="midnightblue" points="399.62,-93.64 391.76,-86.54 393.47,-96.99 399.62,-93.64"/>
</g>
<!-- Node15&#45;&gt;Node4 -->
<g id="edge24" class="edge">
<title>Node15&#45;&gt;Node4</title>
<path fill="none" stroke="midnightblue" d="M257.21,-123.4C233.73,-112.09 201.06,-96.36 178.27,-85.39"/>
<polygon fill="midnightblue" stroke="midnightblue" points="179.7,-82.19 169.17,-81.01 176.66,-88.5 179.7,-82.19"/>
</g>
<!-- Node15&#45;&gt;Node5 -->
<g id="edge25" class="edge">
<title>Node15&#45;&gt;Node5</title>
<path fill="none" stroke="midnightblue" d="M288.34,-123.31C291.51,-104.88 299.79,-73.06 320.5,-56 348.88,-32.62 455.19,-19.2 508.55,-13.8"/>
<polygon fill="midnightblue" stroke="midnightblue" points="509.17,-17.26 518.78,-12.8 508.48,-10.29 509.17,-17.26"/>
</g>
<!-- Node15&#45;&gt;Node16 -->
<g id="edge26" class="edge">
<title>Node15&#45;&gt;Node16</title>
<path fill="none" stroke="midnightblue" d="M307.33,-123.4C320.79,-114.28 338.5,-102.29 353.35,-92.24"/>
<polygon fill="midnightblue" stroke="midnightblue" points="355.39,-95.08 361.71,-86.58 351.47,-89.28 355.39,-95.08"/>
</g>
<!-- Node16&#45;&gt;Node5 -->
<g id="edge28" class="edge">
<title>Node16&#45;&gt;Node5</title>
<path fill="none" stroke="midnightblue" d="M419.71,-56.4C447.08,-46.02 483.83,-32.1 509.37,-22.42"/>
<polygon fill="midnightblue" stroke="midnightblue" points="510.8,-25.62 518.91,-18.8 508.32,-19.08 510.8,-25.62"/>
</g>
<!-- Node16&#45;&gt;Node6 -->
<g id="edge29" class="edge">
<title>Node16&#45;&gt;Node6</title>
<path fill="none" stroke="midnightblue" d="M340.55,-56.4C308.91,-45.76 266.17,-31.4 237.32,-21.7"/>
<polygon fill="midnightblue" stroke="midnightblue" points="238.32,-18.34 227.73,-18.47 236.09,-24.98 238.32,-18.34"/>
</g>
<!-- Node16&#45;&gt;Node8 -->
<g id="edge27" class="edge">
<title>Node16&#45;&gt;Node8</title>
<path fill="none" stroke="midnightblue" d="M435.62,-60.27C501.83,-47.52 612.51,-26.21 663.83,-16.33"/>
<polygon fill="midnightblue" stroke="midnightblue" points="664.68,-19.73 673.84,-14.4 663.35,-12.86 664.68,-19.73"/>
</g>
<!-- Node18&#45;&gt;Node9 -->
<g id="edge35" class="edge">
<title>Node18&#45;&gt;Node9</title>
<path fill="none" stroke="midnightblue" d="M976.36,-259.68C979.45,-258.77 982.51,-257.87 985.5,-257 1025.51,-245.39 1070.64,-232.86 1105.95,-223.19"/>
<polygon fill="midnightblue" stroke="midnightblue" points="1106.91,-226.56 1115.63,-220.54 1105.06,-219.8 1106.91,-226.56"/>
</g>
<!-- Node19 -->
<g id="node19" class="node">
<title>Node19</title>
<g id="a_node19"><a xlink:title=" ">
<polygon fill="white" stroke="#bfbfbf" points="1244,-196 1244,-215 1339,-215 1339,-196 1244,-196"/>
<text text-anchor="middle" x="1291.5" y="-203" font-family="Helvetica,sans-Serif" font-size="10.00">cryptopp/cryptlib.h</text>
</a>
</g>
</g>
<!-- Node18&#45;&gt;Node19 -->
<g id="edge33" class="edge">
<title>Node18&#45;&gt;Node19</title>
<path fill="none" stroke="midnightblue" d="M976.24,-259.21C979.36,-258.42 982.46,-257.68 985.5,-257 1094.65,-232.72 1124.83,-242.81 1234.5,-221 1239.63,-219.98 1244.98,-218.79 1250.27,-217.53"/>
<polygon fill="midnightblue" stroke="midnightblue" points="1251.4,-220.86 1260.28,-215.07 1249.73,-214.06 1251.4,-220.86"/>
</g>
<!-- Node20 -->
<g id="node20" class="node">
<title>Node20</title>
<g id="a_node20"><a xlink:title=" ">
<polygon fill="white" stroke="#bfbfbf" points="886,-196 886,-215 981,-215 981,-196 886,-196"/>
<text text-anchor="middle" x="933.5" y="-203" font-family="Helvetica,sans-Serif" font-size="10.00">cryptopp/keccak.h</text>
</a>
</g>
</g>
<!-- Node18&#45;&gt;Node20 -->
<g id="edge34" class="edge">
<title>Node18&#45;&gt;Node20</title>
<path fill="none" stroke="midnightblue" d="M923.4,-257.36C925.4,-247.3 927.82,-235.1 929.79,-225.18"/>
<polygon fill="midnightblue" stroke="midnightblue" points="933.26,-225.66 931.78,-215.17 926.4,-224.3 933.26,-225.66"/>
</g>
<!-- Node21&#45;&gt;Node9 -->
<g id="edge39" class="edge">
<title>Node21&#45;&gt;Node9</title>
<path fill="none" stroke="midnightblue" d="M1094.12,-262.73C1107.67,-252.35 1126.22,-238.13 1141.27,-226.6"/>
<polygon fill="midnightblue" stroke="midnightblue" points="1143.42,-229.37 1149.22,-220.5 1139.16,-223.81 1143.42,-229.37"/>
</g>
<!-- Node21&#45;&gt;Node19 -->
<g id="edge37" class="edge">
<title>Node21&#45;&gt;Node19</title>
<path fill="none" stroke="midnightblue" d="M1118.43,-262.99C1158.64,-249.86 1218.03,-230.48 1255.73,-218.17"/>
<polygon fill="midnightblue" stroke="midnightblue" points="1256.87,-221.49 1265.29,-215.05 1254.7,-214.83 1256.87,-221.49"/>
</g>
<!-- Node22 -->
<g id="node22" class="node">
<title>Node22</title>
<g id="a_node22"><a xlink:title=" ">
<polygon fill="white" stroke="#bfbfbf" points="999,-196 999,-215 1092,-215 1092,-196 999,-196"/>
<text text-anchor="middle" x="1045.5" y="-203" font-family="Helvetica,sans-Serif" font-size="10.00">cryptopp/ripemd.h</text>
</a>
</g>
</g>
<!-- Node21&#45;&gt;Node22 -->
<g id="edge38" class="edge">
<title>Node21&#45;&gt;Node22</title>
<path fill="none" stroke="midnightblue" d="M1069.43,-262.73C1064.77,-251.78 1058.3,-236.57 1053.26,-224.74"/>
<polygon fill="midnightblue" stroke="midnightblue" points="1056.42,-223.22 1049.28,-215.39 1049.98,-225.97 1056.42,-223.22"/>
</g>
<!-- Node23&#45;&gt;Node7 -->
<g id="edge41" class="edge">
<title>Node23&#45;&gt;Node7</title>
<path fill="none" stroke="midnightblue" d="M612.58,-262.73C605.88,-253.08 596.87,-240.13 589.2,-229.09"/>
<polygon fill="midnightblue" stroke="midnightblue" points="591.98,-226.96 583.4,-220.75 586.23,-230.95 591.98,-226.96"/>
</g>
<!-- Node24&#45;&gt;Node11 -->
<g id="edge45" class="edge">
<title>Node24&#45;&gt;Node11</title>
<path fill="none" stroke="midnightblue" d="M760.05,-257.36C749.98,-248.14 737.96,-237.13 727.68,-227.72"/>
<polygon fill="midnightblue" stroke="midnightblue" points="729.96,-225.06 720.22,-220.89 725.23,-230.23 729.96,-225.06"/>
</g>
<!-- Node24&#45;&gt;Node19 -->
<g id="edge43" class="edge">
<title>Node24&#45;&gt;Node19</title>
<path fill="none" stroke="midnightblue" d="M844.57,-258.8C847.58,-258.15 850.57,-257.54 853.5,-257 1020.76,-226.12 1066.91,-250.05 1234.5,-221 1240.03,-220.04 1245.82,-218.82 1251.5,-217.51"/>
<polygon fill="midnightblue" stroke="midnightblue" points="1252.63,-220.83 1261.51,-215.05 1250.97,-214.03 1252.63,-220.83"/>
</g>
<!-- Node25 -->
<g id="node25" class="node">
<title>Node25</title>
<g id="a_node25"><a xlink:title=" ">
<polygon fill="white" stroke="#bfbfbf" points="779.5,-196 779.5,-215 867.5,-215 867.5,-196 779.5,-196"/>
<text text-anchor="middle" x="823.5" y="-203" font-family="Helvetica,sans-Serif" font-size="10.00">cryptopp/osrng.h</text>
</a>
</g>
</g>
<!-- Node24&#45;&gt;Node25 -->
<g id="edge44" class="edge">
<title>Node24&#45;&gt;Node25</title>
<path fill="none" stroke="midnightblue" d="M793.2,-257.36C799.45,-246.86 807.09,-234.05 813.13,-223.91"/>
<polygon fill="midnightblue" stroke="midnightblue" points="816.22,-225.56 818.33,-215.17 810.21,-221.97 816.22,-225.56"/>
</g>
<!-- Node26&#45;&gt;Node9 -->
<g id="edge49" class="edge">
<title>Node26&#45;&gt;Node9</title>
<path fill="none" stroke="midnightblue" d="M1231.31,-262.73C1219.74,-252.54 1203.99,-238.66 1191.04,-227.24"/>
<polygon fill="midnightblue" stroke="midnightblue" points="1193.21,-224.49 1183.39,-220.5 1188.58,-229.74 1193.21,-224.49"/>
</g>
<!-- Node26&#45;&gt;Node19 -->
<g id="edge47" class="edge">
<title>Node26&#45;&gt;Node19</title>
<path fill="none" stroke="midnightblue" d="M1256.4,-262.73C1263.38,-251.56 1273.11,-235.96 1280.56,-224.02"/>
<polygon fill="midnightblue" stroke="midnightblue" points="1283.62,-225.73 1285.95,-215.39 1277.69,-222.02 1283.62,-225.73"/>
</g>
<!-- Node27 -->
<g id="node27" class="node">
<title>Node27</title>
<g id="a_node27"><a xlink:title=" ">
<polygon fill="white" stroke="#bfbfbf" points="1357.5,-196 1357.5,-215 1437.5,-215 1437.5,-196 1357.5,-196"/>
<text text-anchor="middle" x="1397.5" y="-203" font-family="Helvetica,sans-Serif" font-size="10.00">cryptopp/sha.h</text>
</a>
</g>
</g>
<!-- Node26&#45;&gt;Node27 -->
<g id="edge48" class="edge">
<title>Node26&#45;&gt;Node27</title>
<path fill="none" stroke="midnightblue" d="M1277.49,-262.9C1304.48,-250.22 1343.81,-231.73 1370,-219.42"/>
<polygon fill="midnightblue" stroke="midnightblue" points="1371.78,-222.45 1379.34,-215.03 1368.8,-216.12 1371.78,-222.45"/>
</g>
<!-- Node28&#45;&gt;Node9 -->
<g id="edge53" class="edge">
<title>Node28&#45;&gt;Node9</title>
<path fill="none" stroke="midnightblue" d="M1522.62,-262.95C1512.93,-260.81 1502.95,-258.74 1493.5,-257 1382.33,-236.54 1350.65,-241.03 1235.47,-221.08"/>
<polygon fill="midnightblue" stroke="midnightblue" points="1236.01,-217.63 1225.55,-219.34 1234.8,-224.52 1236.01,-217.63"/>
</g>
<!-- Node28&#45;&gt;Node19 -->
<g id="edge51" class="edge">
<title>Node28&#45;&gt;Node19</title>
<path fill="none" stroke="midnightblue" d="M1521.33,-262.93C1474.42,-251.72 1407.22,-235.55 1348.5,-221 1343.91,-219.86 1339.12,-218.66 1334.34,-217.46"/>
<polygon fill="midnightblue" stroke="midnightblue" points="1335.19,-214.06 1324.64,-215 1333.47,-220.85 1335.19,-214.06"/>
</g>
<!-- Node29 -->
<g id="node29" class="node">
<title>Node29</title>
<g id="a_node29"><a xlink:title=" ">
<polygon fill="white" stroke="#bfbfbf" points="1456,-196 1456,-215 1541,-215 1541,-196 1456,-196"/>
<text text-anchor="middle" x="1498.5" y="-203" font-family="Helvetica,sans-Serif" font-size="10.00">cryptopp/sha3.h</text>
</a>
</g>
</g>
<!-- Node28&#45;&gt;Node29 -->
<g id="edge52" class="edge">
<title>Node28&#45;&gt;Node29</title>
<path fill="none" stroke="midnightblue" d="M1563.91,-262.73C1550.14,-250.89 1530.59,-234.09 1516.46,-221.94"/>
<polygon fill="midnightblue" stroke="midnightblue" points="1518.71,-219.26 1508.84,-215.39 1514.14,-224.57 1518.71,-219.26"/>
</g>
<!-- Node30&#45;&gt;Node9 -->
<g id="edge57" class="edge">
<title>Node30&#45;&gt;Node9</title>
<path fill="none" stroke="midnightblue" d="M1363,-262.99C1323.63,-251.61 1267.98,-235.53 1226.11,-223.43"/>
<polygon fill="midnightblue" stroke="midnightblue" points="1226.9,-220.02 1216.32,-220.61 1224.96,-226.75 1226.9,-220.02"/>
</g>
<!-- Node30&#45;&gt;Node19 -->
<g id="edge55" class="edge">
<title>Node30&#45;&gt;Node19</title>
<path fill="none" stroke="midnightblue" d="M1387.5,-262.9C1366.39,-250.5 1335.83,-232.55 1314.9,-220.25"/>
<polygon fill="midnightblue" stroke="midnightblue" points="1316.42,-217.08 1306.03,-215.03 1312.87,-223.12 1316.42,-217.08"/>
</g>
<!-- Node30&#45;&gt;Node27 -->
<g id="edge56" class="edge">
<title>Node30&#45;&gt;Node27</title>
<path fill="none" stroke="midnightblue" d="M1408.67,-262.73C1406.54,-252 1403.59,-237.19 1401.26,-225.46"/>
<polygon fill="midnightblue" stroke="midnightblue" points="1404.65,-224.52 1399.27,-215.39 1397.78,-225.88 1404.65,-224.52"/>
</g>
<!-- Node31&#45;&gt;Node7 -->
<g id="edge59" class="edge">
<title>Node31&#45;&gt;Node7</title>
<path fill="none" stroke="midnightblue" d="M497.03,-257.36C511.54,-247.71 528.99,-236.11 543.55,-226.42"/>
<polygon fill="midnightblue" stroke="midnightblue" points="545.81,-229.12 552.19,-220.67 541.93,-223.29 545.81,-229.12"/>
</g>
<!-- Node32&#45;&gt;Node5 -->
<g id="edge62" class="edge">
<title>Node32&#45;&gt;Node5</title>
<path fill="none" stroke="midnightblue" d="M1711.53,-268.43C1685.4,-258.04 1640.64,-239.58 1603.5,-221 1578.75,-208.62 1575.44,-199.65 1549.5,-190 1361.03,-119.87 719.01,-34.16 570.39,-14.95"/>
<polygon fill="midnightblue" stroke="midnightblue" points="570.54,-11.44 560.17,-13.63 569.64,-18.38 570.54,-11.44"/>
</g>
<!-- Node33 -->
<g id="node33" class="node">
<title>Node33</title>
<g id="a_node33"><a xlink:title=" ">
<polygon fill="white" stroke="#bfbfbf" points="1612.5,-196 1612.5,-215 1658.5,-215 1658.5,-196 1612.5,-196"/>
<text text-anchor="middle" x="1635.5" y="-203" font-family="Helvetica,sans-Serif" font-size="10.00">chrono</text>
</a>
</g>
</g>
<!-- Node32&#45;&gt;Node33 -->
<g id="edge61" class="edge">
<title>Node32&#45;&gt;Node33</title>
<path fill="none" stroke="midnightblue" d="M1721.48,-268.36C1705.17,-256.62 1675.79,-235.48 1655.97,-221.22"/>
<polygon fill="midnightblue" stroke="midnightblue" points="1657.78,-218.21 1647.62,-215.22 1653.69,-223.9 1657.78,-218.21"/>
</g>
<!-- Node34 -->
<g id="node34" class="node">
<title>Node34</title>
<g id="a_node34"><a xlink:title=" ">
<polygon fill="white" stroke="#bfbfbf" points="1676.5,-196 1676.5,-215 1760.5,-215 1760.5,-196 1676.5,-196"/>
<text text-anchor="middle" x="1718.5" y="-203" font-family="Helvetica,sans-Serif" font-size="10.00">g3log/g3log.hpp</text>
</a>
</g>
</g>
<!-- Node32&#45;&gt;Node34 -->
<g id="edge63" class="edge">
<title>Node32&#45;&gt;Node34</title>
<path fill="none" stroke="midnightblue" d="M1731.66,-268.36C1729.39,-257.68 1725.46,-239.22 1722.49,-225.23"/>
<polygon fill="midnightblue" stroke="midnightblue" points="1725.86,-224.27 1720.35,-215.22 1719.01,-225.72 1725.86,-224.27"/>
</g>
<!-- Node35 -->
<g id="node35" class="node">
<title>Node35</title>
<g id="a_node35"><a xlink:title=" ">
<polygon fill="white" stroke="#bfbfbf" points="1779,-196 1779,-215 1882,-215 1882,-196 1779,-196"/>
<text text-anchor="middle" x="1830.5" y="-203" font-family="Helvetica,sans-Serif" font-size="10.00">g3log/logworker.hpp</text>
</a>
</g>
</g>
<!-- Node32&#45;&gt;Node35 -->
<g id="edge64" class="edge">
<title>Node32&#45;&gt;Node35</title>
<path fill="none" stroke="midnightblue" d="M1745.39,-268.36C1761.54,-256.62 1790.62,-235.48 1810.24,-221.22"/>
<polygon fill="midnightblue" stroke="midnightblue" points="1812.48,-223.93 1818.51,-215.22 1808.36,-218.26 1812.48,-223.93"/>
</g>
<!-- Node36 -->
<g id="node36" class="node">
<title>Node36</title>
<g id="a_node36"><a xlink:title=" ">
<polygon fill="white" stroke="#bfbfbf" points="1900,-196 1900,-215 1999,-215 1999,-196 1900,-196"/>
<text text-anchor="middle" x="1949.5" y="-203" font-family="Helvetica,sans-Serif" font-size="10.00">g3log/loglevels.hpp</text>
</a>
</g>
</g>
<!-- Node32&#45;&gt;Node36 -->
<g id="edge65" class="edge">
<title>Node32&#45;&gt;Node36</title>
<path fill="none" stroke="midnightblue" d="M1759.55,-268.5C1798.07,-255.92 1870.32,-232.34 1913.76,-218.17"/>
<polygon fill="midnightblue" stroke="midnightblue" points="1914.93,-221.46 1923.35,-215.03 1912.76,-214.81 1914.93,-221.46"/>
</g>
</g>
</svg>
        <g id="navigator" transform="translate(0 0)" fill="#404254">
                <rect fill="#f2f5e9" fill-opacity="0.5" stroke="#606060" stroke-width=".5" x="0" y="0" width="60" height="60"/>
                <use id="zoomplus" xlink:href="#zoomPlus" x="17" y="9" onmousedown="handleZoom(evt,'in')"/>
                <use id="zoomminus" xlink:href="#zoomMin" x="42" y="9" onmousedown="handleZoom(evt,'out')"/>
                <use id="reset" xlink:href="#resetDef" x="30" y="36" onmousedown="handleReset()"/>
                <g id="arrowUp" xlink:href="#dirArrow" transform="translate(30 24)" onmousedown="handlePan(0,-1)">
                  <use xlink:href="#rim" fill="#404040">
                        <set attributeName="fill" to="#808080" begin="arrowUp.mouseover" end="arrowUp.mouseout"/>
                  </use>
                  <path fill="none" stroke="white" stroke-width="1.5" d="M0,-3.0v7 M-2.5,-0.5L0,-3.0L2.5,-0.5"/>
                </g>
                <g id="arrowRight" xlink:href="#dirArrow" transform="rotate(90) translate(36 -43)" onmousedown="handlePan(1,0)">
                  <use xlink:href="#rim" fill="#404040">
                        <set attributeName="fill" to="#808080" begin="arrowRight.mouseover" end="arrowRight.mouseout"/>
                  </use>
                  <path fill="none" stroke="white" stroke-width="1.5" d="M0,-3.0v7 M-2.5,-0.5L0,-3.0L2.5,-0.5"/>
                </g>
                <g id="arrowDown" xlink:href="#dirArrow" transform="rotate(180) translate(-30 -48)" onmousedown="handlePan(0,1)">
                  <use xlink:href="#rim" fill="#404040">
                        <set attributeName="fill" to="#808080" begin="arrowDown.mouseover" end="arrowDown.mouseout"/>
                  </use>
                  <path fill="none" stroke="white" stroke-width="1.5" d="M0,-3.0v7 M-2.5,-0.5L0,-3.0L2.5,-0.5"/>
                </g>
                <g id="arrowLeft" xlink:href="#dirArrow" transform="rotate(270) translate(-36 17)" onmousedown="handlePan(-1,0)">
                  <use xlink:href="#rim" fill="#404040">
                        <set attributeName="fill" to="#808080" begin="arrowLeft.mouseover" end="arrowLeft.mouseout"/>
                  </use>
                  <path fill="none" stroke="white" stroke-width="1.5" d="M0,-3.0v7 M-2.5,-0.5L0,-3.0L2.5,-0.5"/>
                </g>
        </g>
        <svg viewBox="0 0 15 15" width="100%" height="30px" preserveAspectRatio="xMaxYMin meet">
         <g id="arrow_out" transform="scale(0.3 0.3)">
          <a xlink:href="bind__crypto_8cc__incl_org.svg" target="_base">
           <rect id="button" ry="5" rx="5" y="6" x="6" height="38" width="38"
                fill="#f2f5e9" fill-opacity="0.5" stroke="#606060" stroke-width="1.0"/>
           <path id="arrow"
             d="M 11.500037,31.436501 C 11.940474,20.09759 22.043105,11.32322 32.158766,21.979434 L 37.068811,17.246167 C 37.068811,17.246167 37.088388,32 37.088388,32 L 22.160133,31.978069 C 22.160133,31.978069 26.997745,27.140456 26.997745,27.140456 C 18.528582,18.264221 13.291696,25.230495 11.500037,31.436501 z"
             style="fill:#404040;"/>
          </a>
         </g>
        </svg>
</svg>
