<?xml version="1.0" encoding="UTF-8" standalone="no"?>
<!DOCTYPE svg PUBLIC "-//W3C//DTD SVG 1.1//EN"
 "http://www.w3.org/Graphics/SVG/1.1/DTD/svg11.dtd">
<!-- Generated by graphviz version 2.44.0 ()
 -->
<!-- Title: main Pages: 1 -->
<svg width="350pt" height="137pt"
 viewBox="0.00 0.00 350.00 137.00" xmlns="http://www.w3.org/2000/svg" xmlns:xlink="http://www.w3.org/1999/xlink">
<g id="graph0" class="graph" transform="scale(1 1) rotate(0) translate(4 133)">
<title>main</title>
<polygon fill="white" stroke="transparent" points="-4,4 -4,-133 346,-133 346,4 -4,4"/>
<!-- Node1 -->
<g id="node1" class="node">
<title>Node1</title>
<g id="a_node1"><a xlink:title=" ">
<polygon fill="#bfbfbf" stroke="black" points="0,-56 0,-75 38,-75 38,-56 0,-56"/>
<text text-anchor="middle" x="19" y="-63" font-family="Helvetica,sans-Serif" font-size="10.00">main</text>
</a>
</g>
</g>
<!-- Node2 -->
<g id="node2" class="node">
<title>Node2</title>
<g id="a_node2"><a xlink:href="../../d4/dd8/miner__main_8cc.html#a9d75bf2c716740369baf0c7dd1de1635" target="_top" xlink:title=" ">
<polygon fill="white" stroke="black" points="88.5,-56 88.5,-75 175.5,-75 175.5,-56 88.5,-56"/>
<text text-anchor="middle" x="132" y="-63" font-family="Helvetica,sans-Serif" font-size="10.00">check_and_sign</text>
</a>
</g>
</g>
<!-- Node1&#45;&gt;Node2 -->
<g id="edge1" class="edge">
<title>Node1&#45;&gt;Node2</title>
<path fill="none" stroke="midnightblue" d="M38.33,-65.5C49.23,-65.5 63.67,-65.5 77.9,-65.5"/>
<polygon fill="midnightblue" stroke="midnightblue" points="78.17,-69 88.17,-65.5 78.17,-62 78.17,-69"/>
</g>
<!-- Node5 -->
<g id="node5" class="node">
<title>Node5</title>
<g id="a_node5"><a xlink:href="../../da/dd5/namespaceautomaton_1_1core_1_1io.html#a6e93384a5c0d6481352d0ec3211a3d2d" target="_top" xlink:title=" ">
<polygon fill="white" stroke="black" points="83,-4.5 83,-34.5 181,-34.5 181,-4.5 83,-4.5"/>
<text text-anchor="start" x="91" y="-22.5" font-family="Helvetica,sans-Serif" font-size="10.00">automaton::core::io</text>
<text text-anchor="middle" x="132" y="-11.5" font-family="Helvetica,sans-Serif" font-size="10.00">::hex2bin</text>
</a>
</g>
</g>
<!-- Node1&#45;&gt;Node5 -->
<g id="edge4" class="edge">
<title>Node1&#45;&gt;Node5</title>
<path fill="none" stroke="midnightblue" d="M38.33,-57.9C51.09,-52.61 68.72,-45.31 85.17,-38.49"/>
<polygon fill="midnightblue" stroke="midnightblue" points="86.78,-41.62 94.67,-34.55 84.1,-35.15 86.78,-41.62"/>
</g>
<!-- Node7 -->
<g id="node7" class="node">
<title>Node7</title>
<g id="a_node7"><a xlink:href="../../d0/d6e/namespaceautomaton_1_1tools_1_1miner.html#a9b5364344553a5ca685f0b09f2708be2" target="_top" xlink:title=" ">
<polygon fill="white" stroke="black" points="74,-96.5 74,-126.5 190,-126.5 190,-96.5 74,-96.5"/>
<text text-anchor="start" x="82" y="-114.5" font-family="Helvetica,sans-Serif" font-size="10.00">automaton::tools::miner</text>
<text text-anchor="middle" x="132" y="-103.5" font-family="Helvetica,sans-Serif" font-size="10.00">::mine_key</text>
</a>
</g>
</g>
<!-- Node1&#45;&gt;Node7 -->
<g id="edge6" class="edge">
<title>Node1&#45;&gt;Node7</title>
<path fill="none" stroke="midnightblue" d="M38.33,-73.1C51.09,-78.39 68.72,-85.69 85.17,-92.51"/>
<polygon fill="midnightblue" stroke="midnightblue" points="84.1,-95.85 94.67,-96.45 86.78,-89.38 84.1,-95.85"/>
</g>
<!-- Node3 -->
<g id="node3" class="node">
<title>Node3</title>
<g id="a_node3"><a xlink:href="../../da/dd5/namespaceautomaton_1_1core_1_1io.html#ab19202c80dffefe2cd1a87a60d06a0b3" target="_top" xlink:title=" ">
<polygon fill="white" stroke="black" points="235,-98.5 235,-128.5 333,-128.5 333,-98.5 235,-98.5"/>
<text text-anchor="start" x="243" y="-116.5" font-family="Helvetica,sans-Serif" font-size="10.00">automaton::core::io</text>
<text text-anchor="middle" x="284" y="-105.5" font-family="Helvetica,sans-Serif" font-size="10.00">::bin2hex</text>
</a>
</g>
</g>
<!-- Node2&#45;&gt;Node3 -->
<g id="edge2" class="edge">
<title>Node2&#45;&gt;Node3</title>
<path fill="none" stroke="midnightblue" d="M162.99,-75.1C181.08,-80.89 204.72,-88.45 226.22,-95.33"/>
<polygon fill="midnightblue" stroke="midnightblue" points="225.34,-98.72 235.93,-98.44 227.47,-92.06 225.34,-98.72"/>
</g>
<!-- Node4 -->
<g id="node4" class="node">
<title>Node4</title>
<g id="a_node4"><a xlink:href="../../d0/d6e/namespaceautomaton_1_1tools_1_1miner.html#a05909e124eb3ea47b74479125c710527" target="_top" xlink:title=" ">
<polygon fill="white" stroke="black" points="226,-49.5 226,-79.5 342,-79.5 342,-49.5 226,-49.5"/>
<text text-anchor="start" x="234" y="-67.5" font-family="Helvetica,sans-Serif" font-size="10.00">automaton::tools::miner</text>
<text text-anchor="middle" x="284" y="-56.5" font-family="Helvetica,sans-Serif" font-size="10.00">::sign</text>
</a>
</g>
</g>
<!-- Node2&#45;&gt;Node4 -->
<g id="edge3" class="edge">
<title>Node2&#45;&gt;Node4</title>
<path fill="none" stroke="midnightblue" d="M175.58,-65.22C188.01,-65.13 201.9,-65.04 215.46,-64.95"/>
<polygon fill="midnightblue" stroke="midnightblue" points="215.77,-68.45 225.74,-64.88 215.72,-61.45 215.77,-68.45"/>
</g>
<!-- Node6 -->
<g id="node6" class="node">
<title>Node6</title>
<g id="a_node6"><a xlink:href="../../da/dd5/namespaceautomaton_1_1core_1_1io.html#abe415d62b91abcbae08337eb7a6c65de" target="_top" xlink:title=" ">
<polygon fill="white" stroke="black" points="235,-0.5 235,-30.5 333,-30.5 333,-0.5 235,-0.5"/>
<text text-anchor="start" x="243" y="-18.5" font-family="Helvetica,sans-Serif" font-size="10.00">automaton::core::io</text>
<text text-anchor="middle" x="284" y="-7.5" font-family="Helvetica,sans-Serif" font-size="10.00">::hex2nibble</text>
</a>
</g>
</g>
<!-- Node5&#45;&gt;Node6 -->
<g id="edge5" class="edge">
<title>Node5&#45;&gt;Node6</title>
<path fill="none" stroke="midnightblue" d="M181.29,-18.21C195.07,-17.84 210.24,-17.44 224.56,-17.06"/>
<polygon fill="midnightblue" stroke="midnightblue" points="224.9,-20.55 234.8,-16.79 224.71,-13.55 224.9,-20.55"/>
</g>
<!-- Node7&#45;&gt;Node3 -->
<g id="edge7" class="edge">
<title>Node7&#45;&gt;Node3</title>
<path fill="none" stroke="midnightblue" d="M190.14,-112.26C201.42,-112.41 213.28,-112.57 224.6,-112.72"/>
<polygon fill="midnightblue" stroke="midnightblue" points="224.77,-116.22 234.82,-112.86 224.87,-109.22 224.77,-116.22"/>
</g>
</g>
</svg>
