<?xml version="1.0" encoding="UTF-8" standalone="no"?>
<!DOCTYPE svg PUBLIC "-//W3C//DTD SVG 1.1//EN"
 "http://www.w3.org/Graphics/SVG/1.1/DTD/svg11.dtd">
<!-- Generated by graphviz version 2.44.0 ()
 -->
<!-- Title: automaton::core::node::node Pages: 1 -->
<svg width="480pt" height="233pt"
 viewBox="0.00 0.00 480.00 232.50" xmlns="http://www.w3.org/2000/svg" xmlns:xlink="http://www.w3.org/1999/xlink">
<g id="graph0" class="graph" transform="scale(1 1) rotate(0) translate(4 228.5)">
<title>automaton::core::node::node</title>
<polygon fill="white" stroke="transparent" points="-4,4 -4,-228.5 476,-228.5 476,4 -4,4"/>
<!-- Node1 -->
<g id="node1" class="node">
<title>Node1</title>
<g id="a_node1"><a xlink:title=" ">
<polygon fill="#bfbfbf" stroke="black" points="361,-85.5 361,-115.5 472,-115.5 472,-85.5 361,-85.5"/>
<text text-anchor="start" x="369" y="-103.5" font-family="Helvetica,sans-Serif" font-size="10.00">automaton::core::node</text>
<text text-anchor="middle" x="416.5" y="-92.5" font-family="Helvetica,sans-Serif" font-size="10.00">::node</text>
</a>
</g>
</g>
<!-- Node2 -->
<g id="node2" class="node">
<title>Node2</title>
<g id="a_node2"><a xlink:href="../../d6/d94/classautomaton_1_1core_1_1network_1_1connection_1_1connection__handler.html" target="_top" xlink:title=" ">
<polygon fill="white" stroke="black" points="136,-183 136,-224 261,-224 261,-183 136,-183"/>
<text text-anchor="start" x="144" y="-212" font-family="Helvetica,sans-Serif" font-size="10.00">automaton::core::network</text>
<text text-anchor="start" x="144" y="-201" font-family="Helvetica,sans-Serif" font-size="10.00">::connection::connection</text>
<text text-anchor="middle" x="198.5" y="-190" font-family="Helvetica,sans-Serif" font-size="10.00">_handler</text>
</a>
</g>
</g>
<!-- Node2&#45;&gt;Node1 -->
<g id="edge1" class="edge">
<title>Node2&#45;&gt;Node1</title>
<path fill="none" stroke="midnightblue" d="M257.46,-178.81C260.69,-177.37 263.89,-175.92 267,-174.5 309.17,-155.19 357.03,-130.9 386.75,-115.53"/>
<polygon fill="midnightblue" stroke="midnightblue" points="256.02,-175.62 248.29,-182.86 258.85,-182.02 256.02,-175.62"/>
</g>
<!-- Node3 -->
<g id="node3" class="node">
<title>Node3</title>
<g id="a_node3"><a xlink:href="../../d0/d47/classautomaton_1_1core_1_1network_1_1acceptor_1_1acceptor__handler.html" target="_top" xlink:title=" ">
<polygon fill="white" stroke="black" points="130,-134.5 130,-164.5 267,-164.5 267,-134.5 130,-134.5"/>
<text text-anchor="start" x="138" y="-152.5" font-family="Helvetica,sans-Serif" font-size="10.00">automaton::core::network</text>
<text text-anchor="middle" x="198.5" y="-141.5" font-family="Helvetica,sans-Serif" font-size="10.00">::acceptor::acceptor_handler</text>
</a>
</g>
</g>
<!-- Node3&#45;&gt;Node1 -->
<g id="edge2" class="edge">
<title>Node3&#45;&gt;Node1</title>
<path fill="none" stroke="midnightblue" d="M275.59,-132.24C303.75,-125.85 335.09,-118.74 360.96,-112.87"/>
<polygon fill="midnightblue" stroke="midnightblue" points="274.75,-128.84 265.78,-134.47 276.3,-135.67 274.75,-128.84"/>
</g>
<!-- Node4 -->
<g id="node4" class="node">
<title>Node4</title>
<g id="a_node4"><a xlink:title=" ">
<polygon fill="white" stroke="#bfbfbf" points="148.5,-85.5 148.5,-115.5 248.5,-115.5 248.5,-85.5 148.5,-85.5"/>
<text text-anchor="start" x="156.5" y="-103.5" font-family="Helvetica,sans-Serif" font-size="10.00">std::enable_shared</text>
<text text-anchor="middle" x="198.5" y="-92.5" font-family="Helvetica,sans-Serif" font-size="10.00">_from_this&lt; node &gt;</text>
</a>
</g>
</g>
<!-- Node4&#45;&gt;Node1 -->
<g id="edge3" class="edge">
<title>Node4&#45;&gt;Node1</title>
<path fill="none" stroke="midnightblue" d="M258.62,-100.5C290.57,-100.5 329.77,-100.5 360.99,-100.5"/>
<polygon fill="midnightblue" stroke="midnightblue" points="258.51,-97 248.51,-100.5 258.51,-104 258.51,-97"/>
</g>
<!-- Node5 -->
<g id="node5" class="node">
<title>Node5</title>
<g id="a_node5"><a xlink:title="STL class.">
<polygon fill="white" stroke="#bfbfbf" points="168,-47 168,-66 229,-66 229,-47 168,-47"/>
<text text-anchor="middle" x="198.5" y="-54" font-family="Helvetica,sans-Serif" font-size="10.00">std::mutex</text>
</a>
</g>
</g>
<!-- Node5&#45;&gt;Node1 -->
<g id="edge4" class="edge">
<title>Node5&#45;&gt;Node1</title>
<path fill="none" stroke="#9a32cd" stroke-dasharray="5,2" d="M239.27,-64.49C268.08,-70.28 307.96,-78.33 343,-85.5 348.79,-86.68 354.84,-87.93 360.88,-89.17"/>
<polygon fill="#9a32cd" stroke="#9a32cd" points="239.68,-61 229.19,-62.46 238.3,-67.86 239.68,-61"/>
<text text-anchor="middle" x="314" y="-88.5" font-family="Helvetica,sans-Serif" font-size="10.00"> script_mutex</text>
</g>
<!-- Node6 -->
<g id="node6" class="node">
<title>Node6</title>
<g id="a_node6"><a xlink:title="STL class.">
<polygon fill="white" stroke="#bfbfbf" points="169,-6 169,-25 228,-25 228,-6 169,-6"/>
<text text-anchor="middle" x="198.5" y="-13" font-family="Helvetica,sans-Serif" font-size="10.00">std::string</text>
</a>
</g>
</g>
<!-- Node6&#45;&gt;Node1 -->
<g id="edge5" class="edge">
<title>Node6&#45;&gt;Node1</title>
<path fill="none" stroke="#9a32cd" stroke-dasharray="5,2" d="M238.08,-19.73C267.78,-24 309.31,-32.24 343,-47.5 364.16,-57.09 385.25,-73.47 399.18,-85.49"/>
<polygon fill="#9a32cd" stroke="#9a32cd" points="238.48,-16.25 228.1,-18.37 237.54,-23.18 238.48,-16.25"/>
<text text-anchor="middle" x="314" y="-61.5" font-family="Helvetica,sans-Serif" font-size="10.00"> nodeid</text>
<text text-anchor="middle" x="314" y="-50.5" font-family="Helvetica,sans-Serif" font-size="10.00">protoid</text>
</g>
<!-- Node7 -->
<g id="node7" class="node">
<title>Node7</title>
<g id="a_node7"><a xlink:title="STL class.">
<polygon fill="white" stroke="#bfbfbf" points="0,-0.5 0,-30.5 93,-30.5 93,-0.5 0,-0.5"/>
<text text-anchor="start" x="8" y="-18.5" font-family="Helvetica,sans-Serif" font-size="10.00">std::basic_string&lt;</text>
<text text-anchor="middle" x="46.5" y="-7.5" font-family="Helvetica,sans-Serif" font-size="10.00"> char &gt;</text>
</a>
</g>
</g>
<!-- Node7&#45;&gt;Node6 -->
<g id="edge6" class="edge">
<title>Node7&#45;&gt;Node6</title>
<path fill="none" stroke="midnightblue" d="M103.37,-15.5C125.68,-15.5 150.42,-15.5 168.93,-15.5"/>
<polygon fill="midnightblue" stroke="midnightblue" points="103.32,-12 93.32,-15.5 103.32,-19 103.32,-12"/>
</g>
</g>
</svg>
