<?xml version="1.0" encoding="UTF-8" standalone="no"?>
<!DOCTYPE svg PUBLIC "-//W3C//DTD SVG 1.1//EN"
 "http://www.w3.org/Graphics/SVG/1.1/DTD/svg11.dtd">
<!-- Generated by graphviz version 2.44.0 ()
 -->
<!-- Title: lua_node.cc Pages: 1 -->
<svg width="2180pt" height="486pt"
 viewBox="0.00 0.00 2179.88 486.00" xmlns="http://www.w3.org/2000/svg" xmlns:xlink="http://www.w3.org/1999/xlink">
<g id="graph0" class="graph" transform="scale(1 1) rotate(0) translate(4 482)">
<title>lua_node.cc</title>
<polygon fill="white" stroke="transparent" points="-4,4 -4,-482 2175.88,-482 2175.88,4 -4,4"/>
<!-- Node1 -->
<g id="node1" class="node">
<title>Node1</title>
<g id="a_node1"><a xlink:title=" ">
<polygon fill="#bfbfbf" stroke="black" points="1330.88,-458.5 1330.88,-477.5 1398.88,-477.5 1398.88,-458.5 1330.88,-458.5"/>
<text text-anchor="middle" x="1364.88" y="-465.5" font-family="Helvetica,sans-Serif" font-size="10.00">lua_node.cc</text>
</a>
</g>
</g>
<!-- Node2 -->
<g id="node2" class="node">
<title>Node2</title>
<g id="a_node2"><a xlink:href="../../d9/d5a/lua__node_8h.html" target="_top" xlink:title=" ">
<polygon fill="white" stroke="black" points="1310.88,-391.5 1310.88,-421.5 1418.88,-421.5 1418.88,-391.5 1310.88,-391.5"/>
<text text-anchor="start" x="1318.88" y="-409.5" font-family="Helvetica,sans-Serif" font-size="10.00">automaton/core/node</text>
<text text-anchor="middle" x="1364.88" y="-398.5" font-family="Helvetica,sans-Serif" font-size="10.00">/lua_node/lua_node.h</text>
</a>
</g>
</g>
<!-- Node1&#45;&gt;Node2 -->
<g id="edge1" class="edge">
<title>Node1&#45;&gt;Node2</title>
<path fill="none" stroke="midnightblue" d="M1364.88,-458.48C1364.88,-451.47 1364.88,-441.19 1364.88,-431.7"/>
<polygon fill="midnightblue" stroke="midnightblue" points="1368.38,-431.52 1364.88,-421.52 1361.38,-431.52 1368.38,-431.52"/>
</g>
<!-- Node4 -->
<g id="node4" class="node">
<title>Node4</title>
<g id="a_node4"><a xlink:title=" ">
<polygon fill="white" stroke="#bfbfbf" points="929.38,-62 929.38,-81 980.38,-81 980.38,-62 929.38,-62"/>
<text text-anchor="middle" x="954.88" y="-69" font-family="Helvetica,sans-Serif" font-size="10.00">memory</text>
</a>
</g>
</g>
<!-- Node1&#45;&gt;Node4 -->
<g id="edge76" class="edge">
<title>Node1&#45;&gt;Node4</title>
<path fill="none" stroke="midnightblue" d="M1330.5,-466.1C1213.92,-462.14 840.88,-441.57 840.88,-340.5 840.88,-340.5 840.88,-340.5 840.88,-271.5 840.88,-231.05 912.68,-129.46 942.32,-89.26"/>
<polygon fill="midnightblue" stroke="midnightblue" points="945.27,-91.15 948.42,-81.04 939.65,-86.98 945.27,-91.15"/>
</g>
<!-- Node32 -->
<g id="node32" class="node">
<title>Node32</title>
<g id="a_node32"><a xlink:href="../../dc/dac/io_8h.html" target="_top" xlink:title=" ">
<polygon fill="white" stroke="black" points="1826.38,-397 1826.38,-416 1939.38,-416 1939.38,-397 1826.38,-397"/>
<text text-anchor="middle" x="1882.88" y="-404" font-family="Helvetica,sans-Serif" font-size="10.00">automaton/core/io/io.h</text>
</a>
</g>
</g>
<!-- Node1&#45;&gt;Node32 -->
<g id="edge77" class="edge">
<title>Node1&#45;&gt;Node32</title>
<path fill="none" stroke="midnightblue" d="M1399.27,-463.05C1484.07,-453.31 1704.38,-428 1815.99,-415.18"/>
<polygon fill="midnightblue" stroke="midnightblue" points="1816.58,-418.64 1826.11,-414.02 1815.78,-411.68 1816.58,-418.64"/>
</g>
<!-- Node3 -->
<g id="node3" class="node">
<title>Node3</title>
<g id="a_node3"><a xlink:title=" ">
<polygon fill="white" stroke="#bfbfbf" points="1284.38,-263 1284.38,-282 1325.38,-282 1325.38,-263 1284.38,-263"/>
<text text-anchor="middle" x="1304.88" y="-270" font-family="Helvetica,sans-Serif" font-size="10.00">future</text>
</a>
</g>
</g>
<!-- Node2&#45;&gt;Node3 -->
<g id="edge2" class="edge">
<title>Node2&#45;&gt;Node3</title>
<path fill="none" stroke="midnightblue" d="M1358.46,-391.37C1347.46,-367.18 1325.05,-317.88 1312.99,-291.35"/>
<polygon fill="midnightblue" stroke="midnightblue" points="1316.11,-289.75 1308.79,-282.1 1309.74,-292.65 1316.11,-289.75"/>
</g>
<!-- Node2&#45;&gt;Node4 -->
<g id="edge3" class="edge">
<title>Node2&#45;&gt;Node4</title>
<path fill="none" stroke="midnightblue" d="M1310.74,-399.19C1205.29,-385.62 978.89,-349.79 935.88,-288 913.87,-256.39 939.32,-137.12 950.31,-90.93"/>
<polygon fill="midnightblue" stroke="midnightblue" points="953.74,-91.63 952.7,-81.08 946.94,-89.98 953.74,-91.63"/>
</g>
<!-- Node5 -->
<g id="node5" class="node">
<title>Node5</title>
<g id="a_node5"><a xlink:title=" ">
<polygon fill="white" stroke="#bfbfbf" points="1343.38,-263 1343.38,-282 1386.38,-282 1386.38,-263 1343.38,-263"/>
<text text-anchor="middle" x="1364.88" y="-270" font-family="Helvetica,sans-Serif" font-size="10.00">mutex</text>
</a>
</g>
</g>
<!-- Node2&#45;&gt;Node5 -->
<g id="edge4" class="edge">
<title>Node2&#45;&gt;Node5</title>
<path fill="none" stroke="midnightblue" d="M1364.88,-391.37C1364.88,-367.5 1364.88,-319.18 1364.88,-292.41"/>
<polygon fill="midnightblue" stroke="midnightblue" points="1368.38,-292.1 1364.88,-282.1 1361.38,-292.1 1368.38,-292.1"/>
</g>
<!-- Node6 -->
<g id="node6" class="node">
<title>Node6</title>
<g id="a_node6"><a xlink:title=" ">
<polygon fill="white" stroke="#bfbfbf" points="831.38,-0.5 831.38,-19.5 872.38,-19.5 872.38,-0.5 831.38,-0.5"/>
<text text-anchor="middle" x="851.88" y="-7.5" font-family="Helvetica,sans-Serif" font-size="10.00">string</text>
</a>
</g>
</g>
<!-- Node2&#45;&gt;Node6 -->
<g id="edge5" class="edge">
<title>Node2&#45;&gt;Node6</title>
<path fill="none" stroke="midnightblue" d="M1310.81,-403.01C1219.32,-398.03 1038.5,-384.68 982.88,-355 861.84,-290.42 851.68,-92.27 851.55,-29.96"/>
<polygon fill="midnightblue" stroke="midnightblue" points="855.06,-29.7 851.63,-19.68 848.06,-29.65 855.06,-29.7"/>
</g>
<!-- Node7 -->
<g id="node7" class="node">
<title>Node7</title>
<g id="a_node7"><a xlink:title=" ">
<polygon fill="white" stroke="#bfbfbf" points="1411.38,-196 1411.38,-215 1494.38,-215 1494.38,-196 1411.38,-196"/>
<text text-anchor="middle" x="1452.88" y="-203" font-family="Helvetica,sans-Serif" font-size="10.00">unordered_map</text>
</a>
</g>
</g>
<!-- Node2&#45;&gt;Node7 -->
<g id="edge6" class="edge">
<title>Node2&#45;&gt;Node7</title>
<path fill="none" stroke="midnightblue" d="M1390.96,-391.34C1404.44,-382.65 1419.91,-370.25 1428.88,-355 1453.18,-313.66 1454.97,-255.22 1454.03,-225.48"/>
<polygon fill="midnightblue" stroke="midnightblue" points="1457.52,-225.09 1453.57,-215.27 1450.53,-225.42 1457.52,-225.09"/>
</g>
<!-- Node8 -->
<g id="node8" class="node">
<title>Node8</title>
<g id="a_node8"><a xlink:title=" ">
<polygon fill="white" stroke="#bfbfbf" points="1536.88,-0.5 1536.88,-19.5 1580.88,-19.5 1580.88,-0.5 1536.88,-0.5"/>
<text text-anchor="middle" x="1558.88" y="-7.5" font-family="Helvetica,sans-Serif" font-size="10.00">vector</text>
</a>
</g>
</g>
<!-- Node2&#45;&gt;Node8 -->
<g id="edge7" class="edge">
<title>Node2&#45;&gt;Node8</title>
<path fill="none" stroke="midnightblue" d="M1419.15,-405.37C1495.22,-401.73 1628.36,-381.68 1664.88,-288 1703.29,-189.45 1674.3,-141.38 1611.88,-56 1603.31,-44.28 1591.08,-33.63 1580.54,-25.64"/>
<polygon fill="midnightblue" stroke="midnightblue" points="1582.34,-22.63 1572.19,-19.59 1578.23,-28.3 1582.34,-22.63"/>
</g>
<!-- Node9 -->
<g id="node9" class="node">
<title>Node9</title>
<g id="a_node9"><a xlink:href="../../d1/d71/msg_8h.html" target="_top" xlink:title=" ">
<polygon fill="white" stroke="black" points="1268.88,-123.5 1268.88,-153.5 1374.88,-153.5 1374.88,-123.5 1268.88,-123.5"/>
<text text-anchor="start" x="1276.88" y="-141.5" font-family="Helvetica,sans-Serif" font-size="10.00">automaton/core/data</text>
<text text-anchor="middle" x="1321.88" y="-130.5" font-family="Helvetica,sans-Serif" font-size="10.00">/msg.h</text>
</a>
</g>
</g>
<!-- Node2&#45;&gt;Node9 -->
<g id="edge8" class="edge">
<title>Node2&#45;&gt;Node9</title>
<path fill="none" stroke="midnightblue" d="M1372.16,-391.4C1384.93,-364.81 1408.73,-305.56 1394.88,-257 1384.42,-220.34 1358.87,-183.97 1340.96,-161.63"/>
<polygon fill="midnightblue" stroke="midnightblue" points="1343.57,-159.29 1334.52,-153.78 1338.15,-163.73 1343.57,-159.29"/>
</g>
<!-- Node10 -->
<g id="node10" class="node">
<title>Node10</title>
<g id="a_node10"><a xlink:href="../../d7/de3/schema_8h.html" target="_top" xlink:title=" ">
<polygon fill="white" stroke="black" points="1268.88,-56.5 1268.88,-86.5 1374.88,-86.5 1374.88,-56.5 1268.88,-56.5"/>
<text text-anchor="start" x="1276.88" y="-74.5" font-family="Helvetica,sans-Serif" font-size="10.00">automaton/core/data</text>
<text text-anchor="middle" x="1321.88" y="-63.5" font-family="Helvetica,sans-Serif" font-size="10.00">/schema.h</text>
</a>
</g>
</g>
<!-- Node2&#45;&gt;Node10 -->
<g id="edge15" class="edge">
<title>Node2&#45;&gt;Node10</title>
<path fill="none" stroke="midnightblue" d="M1418.94,-398.22C1506.66,-383.73 1666.15,-344.8 1623.88,-257 1578.34,-162.43 1459.1,-111.92 1384.8,-88.77"/>
<polygon fill="midnightblue" stroke="midnightblue" points="1385.66,-85.38 1375.07,-85.82 1383.62,-92.08 1385.66,-85.38"/>
</g>
<!-- Node12 -->
<g id="node12" class="node">
<title>Node12</title>
<g id="a_node12"><a xlink:href="../../d1/d55/engine_8h.html" target="_top" xlink:title=" ">
<polygon fill="white" stroke="black" points="470.38,-257.5 470.38,-287.5 581.38,-287.5 581.38,-257.5 470.38,-257.5"/>
<text text-anchor="start" x="478.38" y="-275.5" font-family="Helvetica,sans-Serif" font-size="10.00">automaton/core/script</text>
<text text-anchor="middle" x="525.88" y="-264.5" font-family="Helvetica,sans-Serif" font-size="10.00">/engine.h</text>
</a>
</g>
</g>
<!-- Node2&#45;&gt;Node12 -->
<g id="edge16" class="edge">
<title>Node2&#45;&gt;Node12</title>
<path fill="none" stroke="midnightblue" d="M1310.54,-402.43C1218.38,-396.68 1025.72,-382.33 864.88,-355 765.69,-338.15 652.39,-308.82 585.12,-290.32"/>
<polygon fill="midnightblue" stroke="midnightblue" points="585.7,-286.85 575.13,-287.56 583.84,-293.6 585.7,-286.85"/>
</g>
<!-- Node22 -->
<g id="node22" class="node">
<title>Node22</title>
<g id="a_node22"><a xlink:href="../../d5/dab/smart__protocol_8h.html" target="_top" xlink:title=" ">
<polygon fill="white" stroke="black" points="1480.88,-257.5 1480.88,-287.5 1614.88,-287.5 1614.88,-257.5 1480.88,-257.5"/>
<text text-anchor="start" x="1488.88" y="-275.5" font-family="Helvetica,sans-Serif" font-size="10.00">automaton/core/smartproto</text>
<text text-anchor="middle" x="1547.88" y="-264.5" font-family="Helvetica,sans-Serif" font-size="10.00">/smart_protocol.h</text>
</a>
</g>
</g>
<!-- Node2&#45;&gt;Node22 -->
<g id="edge41" class="edge">
<title>Node2&#45;&gt;Node22</title>
<path fill="none" stroke="midnightblue" d="M1400.48,-391.34C1420.85,-382.41 1446.35,-369.78 1466.88,-355 1490.81,-337.77 1514.11,-313.27 1529.53,-295.63"/>
<polygon fill="midnightblue" stroke="midnightblue" points="1532.57,-297.46 1536.43,-287.59 1527.26,-292.9 1532.57,-297.46"/>
</g>
<!-- Node23 -->
<g id="node23" class="node">
<title>Node23</title>
<g id="a_node23"><a xlink:href="../../d1/d77/node_8h.html" target="_top" xlink:title=" ">
<polygon fill="white" stroke="black" points="1125.88,-324.5 1125.88,-354.5 1233.88,-354.5 1233.88,-324.5 1125.88,-324.5"/>
<text text-anchor="start" x="1133.88" y="-342.5" font-family="Helvetica,sans-Serif" font-size="10.00">automaton/core/node</text>
<text text-anchor="middle" x="1179.88" y="-331.5" font-family="Helvetica,sans-Serif" font-size="10.00">/node.h</text>
</a>
</g>
</g>
<!-- Node2&#45;&gt;Node23 -->
<g id="edge48" class="edge">
<title>Node2&#45;&gt;Node23</title>
<path fill="none" stroke="midnightblue" d="M1324.74,-391.4C1296.86,-381.6 1259.52,-368.48 1229.73,-358.02"/>
<polygon fill="midnightblue" stroke="midnightblue" points="1230.54,-354.59 1219.94,-354.58 1228.22,-361.19 1230.54,-354.59"/>
</g>
<!-- Node9&#45;&gt;Node4 -->
<g id="edge9" class="edge">
<title>Node9&#45;&gt;Node4</title>
<path fill="none" stroke="midnightblue" d="M1268.51,-128.05C1192.62,-114.61 1055.54,-90.33 990.71,-78.85"/>
<polygon fill="midnightblue" stroke="midnightblue" points="991.03,-75.35 980.58,-77.05 989.81,-82.24 991.03,-75.35"/>
</g>
<!-- Node9&#45;&gt;Node6 -->
<g id="edge10" class="edge">
<title>Node9&#45;&gt;Node6</title>
<path fill="none" stroke="midnightblue" d="M1304.84,-123.47C1277.73,-101.26 1226.8,-60.09 1216.88,-56 1156.55,-31.1 959.79,-17.27 882.98,-12.71"/>
<polygon fill="midnightblue" stroke="midnightblue" points="882.74,-9.19 872.55,-12.11 882.33,-16.18 882.74,-9.19"/>
</g>
<!-- Node9&#45;&gt;Node10 -->
<g id="edge11" class="edge">
<title>Node9&#45;&gt;Node10</title>
<path fill="none" stroke="midnightblue" d="M1321.88,-123.4C1321.88,-115.64 1321.88,-105.81 1321.88,-96.86"/>
<polygon fill="midnightblue" stroke="midnightblue" points="1325.38,-96.58 1321.88,-86.58 1318.38,-96.58 1325.38,-96.58"/>
</g>
<!-- Node10&#45;&gt;Node6 -->
<g id="edge13" class="edge">
<title>Node10&#45;&gt;Node6</title>
<path fill="none" stroke="midnightblue" d="M1268.58,-58.45C1263.95,-57.56 1259.34,-56.73 1254.88,-56 1117,-33.44 950.71,-18.82 882.91,-13.38"/>
<polygon fill="midnightblue" stroke="midnightblue" points="882.77,-9.86 872.53,-12.56 882.22,-16.84 882.77,-9.86"/>
</g>
<!-- Node10&#45;&gt;Node8 -->
<g id="edge14" class="edge">
<title>Node10&#45;&gt;Node8</title>
<path fill="none" stroke="midnightblue" d="M1375.06,-57.15C1421.79,-45.42 1488.23,-28.74 1527.12,-18.97"/>
<polygon fill="midnightblue" stroke="midnightblue" points="1528,-22.36 1536.85,-16.53 1526.29,-15.57 1528,-22.36"/>
</g>
<!-- Node11 -->
<g id="node11" class="node">
<title>Node11</title>
<g id="a_node11"><a xlink:title=" ">
<polygon fill="white" stroke="#bfbfbf" points="211.38,-0.5 211.38,-19.5 246.38,-19.5 246.38,-0.5 211.38,-0.5"/>
<text text-anchor="middle" x="228.88" y="-7.5" font-family="Helvetica,sans-Serif" font-size="10.00">map</text>
</a>
</g>
</g>
<!-- Node10&#45;&gt;Node11 -->
<g id="edge12" class="edge">
<title>Node10&#45;&gt;Node11</title>
<path fill="none" stroke="midnightblue" d="M1268.79,-67.61C1074,-57.01 402.36,-20.44 256.83,-12.52"/>
<polygon fill="midnightblue" stroke="midnightblue" points="256.72,-9.01 246.55,-11.96 256.34,-16 256.72,-9.01"/>
</g>
<!-- Node12&#45;&gt;Node4 -->
<g id="edge18" class="edge">
<title>Node12&#45;&gt;Node4</title>
<path fill="none" stroke="midnightblue" d="M581.61,-268.89C635.72,-264.5 718.97,-252.69 783.88,-221 801.77,-212.26 898.44,-124.35 937.99,-88.05"/>
<polygon fill="midnightblue" stroke="midnightblue" points="940.52,-90.48 945.52,-81.14 935.78,-85.33 940.52,-90.48"/>
</g>
<!-- Node12&#45;&gt;Node6 -->
<g id="edge19" class="edge">
<title>Node12&#45;&gt;Node6</title>
<path fill="none" stroke="midnightblue" d="M530.27,-257.5C539.83,-228.95 565.02,-163.32 605.88,-123 630.5,-98.7 645.87,-105.85 674.88,-87 693.44,-74.94 694.38,-66.49 713.88,-56 748.67,-37.29 792.59,-24.62 821.42,-17.61"/>
<polygon fill="midnightblue" stroke="midnightblue" points="822.38,-20.98 831.31,-15.28 820.78,-14.17 822.38,-20.98"/>
</g>
<!-- Node12&#45;&gt;Node8 -->
<g id="edge20" class="edge">
<title>Node12&#45;&gt;Node8</title>
<path fill="none" stroke="midnightblue" d="M581.64,-270.86C694.76,-268.76 958.96,-259.74 1176.88,-221 1285.07,-201.77 1319.96,-209.38 1414.88,-154 1472.79,-120.21 1524.18,-57.63 1546.74,-27.74"/>
<polygon fill="midnightblue" stroke="midnightblue" points="1549.64,-29.7 1552.79,-19.58 1544.02,-25.53 1549.64,-29.7"/>
</g>
<!-- Node13 -->
<g id="node13" class="node">
<title>Node13</title>
<g id="a_node13"><a xlink:title=" ">
<polygon fill="white" stroke="#bfbfbf" points="362.88,-196 362.88,-215 400.88,-215 400.88,-196 362.88,-196"/>
<text text-anchor="middle" x="381.88" y="-203" font-family="Helvetica,sans-Serif" font-size="10.00">array</text>
</a>
</g>
</g>
<!-- Node12&#45;&gt;Node13 -->
<g id="edge17" class="edge">
<title>Node12&#45;&gt;Node13</title>
<path fill="none" stroke="midnightblue" d="M491.85,-257.4C468.59,-247.58 437.15,-233.98 409.88,-221 409.03,-220.6 408.18,-220.19 407.32,-219.77"/>
<polygon fill="midnightblue" stroke="midnightblue" points="408.58,-216.48 398.07,-215.12 405.44,-222.74 408.58,-216.48"/>
</g>
<!-- Node14 -->
<g id="node14" class="node">
<title>Node14</title>
<g id="a_node14"><a xlink:href="../../dd/de2/digital__signature_8h.html" target="_top" xlink:title=" ">
<polygon fill="white" stroke="black" points="410.38,-56.5 410.38,-86.5 523.38,-86.5 523.38,-56.5 410.38,-56.5"/>
<text text-anchor="start" x="418.38" y="-74.5" font-family="Helvetica,sans-Serif" font-size="10.00">automaton/core/crypto</text>
<text text-anchor="middle" x="466.88" y="-63.5" font-family="Helvetica,sans-Serif" font-size="10.00">/digital_signature.h</text>
</a>
</g>
</g>
<!-- Node12&#45;&gt;Node14 -->
<g id="edge21" class="edge">
<title>Node12&#45;&gt;Node14</title>
<path fill="none" stroke="midnightblue" d="M521.63,-257.19C511.6,-223.34 486.32,-138.08 473.94,-96.31"/>
<polygon fill="midnightblue" stroke="midnightblue" points="477.28,-95.27 471.08,-86.68 470.57,-97.26 477.28,-95.27"/>
</g>
<!-- Node15 -->
<g id="node15" class="node">
<title>Node15</title>
<g id="a_node15"><a xlink:href="../../d2/dab/hash__transformation_8h.html" target="_top" xlink:title=" ">
<polygon fill="white" stroke="black" points="275.88,-56.5 275.88,-86.5 391.88,-86.5 391.88,-56.5 275.88,-56.5"/>
<text text-anchor="start" x="283.88" y="-74.5" font-family="Helvetica,sans-Serif" font-size="10.00">automaton/core/crypto</text>
<text text-anchor="middle" x="333.88" y="-63.5" font-family="Helvetica,sans-Serif" font-size="10.00">/hash_transformation.h</text>
</a>
</g>
</g>
<!-- Node12&#45;&gt;Node15 -->
<g id="edge24" class="edge">
<title>Node12&#45;&gt;Node15</title>
<path fill="none" stroke="midnightblue" d="M470.24,-270.24C431.74,-266.23 382.47,-254.29 353.88,-221 324.03,-186.25 325.78,-129.04 329.78,-96.71"/>
<polygon fill="midnightblue" stroke="midnightblue" points="333.25,-97.16 331.18,-86.77 326.32,-96.19 333.25,-97.16"/>
</g>
<!-- Node17 -->
<g id="node17" class="node">
<title>Node17</title>
<g id="a_node17"><a xlink:href="../../d1/d8a/secure__random_8h.html" target="_top" xlink:title=" ">
<polygon fill="white" stroke="black" points="30.38,-56.5 30.38,-86.5 143.38,-86.5 143.38,-56.5 30.38,-56.5"/>
<text text-anchor="start" x="38.38" y="-74.5" font-family="Helvetica,sans-Serif" font-size="10.00">automaton/core/crypto</text>
<text text-anchor="middle" x="86.88" y="-63.5" font-family="Helvetica,sans-Serif" font-size="10.00">/secure_random.h</text>
</a>
</g>
</g>
<!-- Node12&#45;&gt;Node17 -->
<g id="edge28" class="edge">
<title>Node12&#45;&gt;Node17</title>
<path fill="none" stroke="midnightblue" d="M470.19,-264.24C393.89,-252.08 255.25,-221.9 157.88,-154 134.99,-138.04 114.74,-113.13 101.79,-95.05"/>
<polygon fill="midnightblue" stroke="midnightblue" points="104.62,-92.99 96.03,-86.79 98.88,-97 104.62,-92.99"/>
</g>
<!-- Node19 -->
<g id="node19" class="node">
<title>Node19</title>
<g id="a_node19"><a xlink:href="../../de/d06/factory_8h.html" target="_top" xlink:title=" ">
<polygon fill="white" stroke="black" points="1061.88,-190.5 1061.88,-220.5 1167.88,-220.5 1167.88,-190.5 1061.88,-190.5"/>
<text text-anchor="start" x="1069.88" y="-208.5" font-family="Helvetica,sans-Serif" font-size="10.00">automaton/core/data</text>
<text text-anchor="middle" x="1114.88" y="-197.5" font-family="Helvetica,sans-Serif" font-size="10.00">/factory.h</text>
</a>
</g>
</g>
<!-- Node12&#45;&gt;Node19 -->
<g id="edge32" class="edge">
<title>Node12&#45;&gt;Node19</title>
<path fill="none" stroke="midnightblue" d="M581.55,-265.36C691.51,-253.22 935.88,-226.25 1051.68,-213.47"/>
<polygon fill="midnightblue" stroke="midnightblue" points="1052.25,-216.93 1061.8,-212.36 1051.48,-209.98 1052.25,-216.93"/>
</g>
<!-- Node21 -->
<g id="node21" class="node">
<title>Node21</title>
<g id="a_node21"><a xlink:title=" ">
<polygon fill="white" stroke="#bfbfbf" points="419.38,-196 419.38,-215 482.38,-215 482.38,-196 419.38,-196"/>
<text text-anchor="middle" x="450.88" y="-203" font-family="Helvetica,sans-Serif" font-size="10.00">sol/sol.hpp</text>
</a>
</g>
</g>
<!-- Node12&#45;&gt;Node21 -->
<g id="edge40" class="edge">
<title>Node12&#45;&gt;Node21</title>
<path fill="none" stroke="midnightblue" d="M509.6,-257.4C497.56,-246.96 481.17,-232.75 468.76,-222"/>
<polygon fill="midnightblue" stroke="midnightblue" points="470.76,-219.1 460.91,-215.19 466.17,-224.39 470.76,-219.1"/>
</g>
<!-- Node14&#45;&gt;Node6 -->
<g id="edge22" class="edge">
<title>Node14&#45;&gt;Node6</title>
<path fill="none" stroke="midnightblue" d="M523.54,-57.58C526.36,-57.03 529.15,-56.5 531.88,-56 637.41,-36.84 763.78,-21.2 821.02,-14.51"/>
<polygon fill="midnightblue" stroke="midnightblue" points="821.67,-17.96 831.2,-13.33 820.86,-11 821.67,-17.96"/>
</g>
<!-- Node14&#45;&gt;Node11 -->
<g id="edge23" class="edge">
<title>Node14&#45;&gt;Node11</title>
<path fill="none" stroke="midnightblue" d="M410.78,-56.47C362.16,-44.32 293.89,-27.25 256.34,-17.86"/>
<polygon fill="midnightblue" stroke="midnightblue" points="257.15,-14.46 246.6,-15.43 255.45,-21.25 257.15,-14.46"/>
</g>
<!-- Node15&#45;&gt;Node6 -->
<g id="edge27" class="edge">
<title>Node15&#45;&gt;Node6</title>
<path fill="none" stroke="midnightblue" d="M391.91,-57.52C394.93,-56.97 397.94,-56.46 400.88,-56 557.62,-31.3 747.26,-17.59 820.72,-12.88"/>
<polygon fill="midnightblue" stroke="midnightblue" points="821.33,-16.35 831.09,-12.23 820.89,-9.37 821.33,-16.35"/>
</g>
<!-- Node15&#45;&gt;Node11 -->
<g id="edge26" class="edge">
<title>Node15&#45;&gt;Node11</title>
<path fill="none" stroke="midnightblue" d="M308.99,-56.4C292.16,-46.86 270.04,-34.32 253.3,-24.84"/>
<polygon fill="midnightblue" stroke="midnightblue" points="254.58,-21.54 244.16,-19.66 251.13,-27.63 254.58,-21.54"/>
</g>
<!-- Node16 -->
<g id="node16" class="node">
<title>Node16</title>
<g id="a_node16"><a xlink:title=" ">
<polygon fill="white" stroke="#bfbfbf" points="406.88,-0.5 406.88,-19.5 460.88,-19.5 460.88,-0.5 406.88,-0.5"/>
<text text-anchor="middle" x="433.88" y="-7.5" font-family="Helvetica,sans-Serif" font-size="10.00">iostream</text>
</a>
</g>
</g>
<!-- Node15&#45;&gt;Node16 -->
<g id="edge25" class="edge">
<title>Node15&#45;&gt;Node16</title>
<path fill="none" stroke="midnightblue" d="M357.58,-56.4C373.61,-46.86 394.68,-34.32 410.61,-24.84"/>
<polygon fill="midnightblue" stroke="midnightblue" points="412.52,-27.78 419.33,-19.66 408.94,-21.76 412.52,-27.78"/>
</g>
<!-- Node17&#45;&gt;Node6 -->
<g id="edge31" class="edge">
<title>Node17&#45;&gt;Node6</title>
<path fill="none" stroke="midnightblue" d="M143.62,-65.88C179.05,-63 225.62,-59.25 266.88,-56 478.9,-39.31 734.21,-19.91 821.16,-13.32"/>
<polygon fill="midnightblue" stroke="midnightblue" points="821.44,-16.81 831.15,-12.57 820.91,-9.83 821.44,-16.81"/>
</g>
<!-- Node17&#45;&gt;Node11 -->
<g id="edge30" class="edge">
<title>Node17&#45;&gt;Node11</title>
<path fill="none" stroke="midnightblue" d="M120.53,-56.4C145.36,-46 178.71,-32.02 201.82,-22.34"/>
<polygon fill="midnightblue" stroke="midnightblue" points="203.17,-25.57 211.04,-18.47 200.47,-19.11 203.17,-25.57"/>
</g>
<!-- Node18 -->
<g id="node18" class="node">
<title>Node18</title>
<g id="a_node18"><a xlink:title=" ">
<polygon fill="white" stroke="#bfbfbf" points="63.88,-0.5 63.88,-19.5 109.88,-19.5 109.88,-0.5 63.88,-0.5"/>
<text text-anchor="middle" x="86.88" y="-7.5" font-family="Helvetica,sans-Serif" font-size="10.00">cstdint</text>
</a>
</g>
</g>
<!-- Node17&#45;&gt;Node18 -->
<g id="edge29" class="edge">
<title>Node17&#45;&gt;Node18</title>
<path fill="none" stroke="midnightblue" d="M86.88,-56.4C86.88,-48.47 86.88,-38.46 86.88,-29.86"/>
<polygon fill="midnightblue" stroke="midnightblue" points="90.38,-29.66 86.88,-19.66 83.38,-29.66 90.38,-29.66"/>
</g>
<!-- Node19&#45;&gt;Node4 -->
<g id="edge34" class="edge">
<title>Node19&#45;&gt;Node4</title>
<path fill="none" stroke="midnightblue" d="M1105.23,-190.5C1092.76,-173.13 1069.7,-143.33 1044.88,-123 1026.23,-107.73 1002.32,-94.56 983.84,-85.5"/>
<polygon fill="midnightblue" stroke="midnightblue" points="985.25,-82.3 974.72,-81.15 982.24,-88.62 985.25,-82.3"/>
</g>
<!-- Node19&#45;&gt;Node6 -->
<g id="edge35" class="edge">
<title>Node19&#45;&gt;Node6</title>
<path fill="none" stroke="midnightblue" d="M1127.53,-190.33C1141.12,-173.32 1158.98,-144.4 1144.88,-123 1086.11,-33.8 945.38,-15.54 882.79,-11.88"/>
<polygon fill="midnightblue" stroke="midnightblue" points="882.91,-8.38 872.75,-11.38 882.56,-15.37 882.91,-8.38"/>
</g>
<!-- Node19&#45;&gt;Node8 -->
<g id="edge37" class="edge">
<title>Node19&#45;&gt;Node8</title>
<path fill="none" stroke="midnightblue" d="M1167.99,-204.73C1224.98,-202.74 1316.4,-192.98 1383.88,-154 1433.55,-125.3 1422.58,-91.2 1467.88,-56 1485.81,-42.06 1508.74,-30.76 1527.1,-22.96"/>
<polygon fill="midnightblue" stroke="midnightblue" points="1528.57,-26.14 1536.5,-19.11 1525.92,-19.66 1528.57,-26.14"/>
</g>
<!-- Node19&#45;&gt;Node9 -->
<g id="edge38" class="edge">
<title>Node19&#45;&gt;Node9</title>
<path fill="none" stroke="midnightblue" d="M1159.54,-190.48C1191.13,-180.56 1233.66,-167.2 1267.27,-156.65"/>
<polygon fill="midnightblue" stroke="midnightblue" points="1268.45,-159.95 1276.94,-153.61 1266.35,-153.27 1268.45,-159.95"/>
</g>
<!-- Node19&#45;&gt;Node10 -->
<g id="edge39" class="edge">
<title>Node19&#45;&gt;Node10</title>
<path fill="none" stroke="midnightblue" d="M1137.03,-190.37C1174.23,-166.65 1249.29,-118.79 1291.42,-91.92"/>
<polygon fill="midnightblue" stroke="midnightblue" points="1293.33,-94.85 1299.88,-86.52 1289.57,-88.95 1293.33,-94.85"/>
</g>
<!-- Node19&#45;&gt;Node11 -->
<g id="edge33" class="edge">
<title>Node19&#45;&gt;Node11</title>
<path fill="none" stroke="midnightblue" d="M1061.67,-201.16C880.75,-189.28 297.3,-146.61 239.88,-87 225.39,-71.96 224.51,-46.86 226.02,-29.65"/>
<polygon fill="midnightblue" stroke="midnightblue" points="229.5,-30.01 227.23,-19.66 222.55,-29.17 229.5,-30.01"/>
</g>
<!-- Node20 -->
<g id="node20" class="node">
<title>Node20</title>
<g id="a_node20"><a xlink:title=" ">
<polygon fill="white" stroke="#bfbfbf" points="1097.38,-129 1097.38,-148 1136.38,-148 1136.38,-129 1097.38,-129"/>
<text text-anchor="middle" x="1116.88" y="-136" font-family="Helvetica,sans-Serif" font-size="10.00">utility</text>
</a>
</g>
</g>
<!-- Node19&#45;&gt;Node20 -->
<g id="edge36" class="edge">
<title>Node19&#45;&gt;Node20</title>
<path fill="none" stroke="midnightblue" d="M1115.31,-190.4C1115.6,-181.06 1115.98,-168.71 1116.29,-158.52"/>
<polygon fill="midnightblue" stroke="midnightblue" points="1119.8,-158.3 1116.61,-148.19 1112.8,-158.08 1119.8,-158.3"/>
</g>
<!-- Node22&#45;&gt;Node4 -->
<g id="edge42" class="edge">
<title>Node22&#45;&gt;Node4</title>
<path fill="none" stroke="midnightblue" d="M1480.79,-265.08C1346.53,-252.18 1057.2,-224.07 1052.88,-221 1013.63,-193.17 1034.81,-162.18 1006.88,-123 997.54,-109.9 984.56,-97.29 973.91,-87.95"/>
<polygon fill="midnightblue" stroke="midnightblue" points="975.86,-85.02 965.97,-81.21 971.33,-90.35 975.86,-85.02"/>
</g>
<!-- Node22&#45;&gt;Node6 -->
<g id="edge43" class="edge">
<title>Node22&#45;&gt;Node6</title>
<path fill="none" stroke="midnightblue" d="M1547.09,-257.31C1545.6,-240.28 1541.3,-211.35 1528.88,-190 1484.75,-114.15 1464.17,-91.39 1383.88,-56 1293.13,-16 982.4,-11.43 882.84,-11.01"/>
<polygon fill="midnightblue" stroke="midnightblue" points="882.57,-7.51 872.55,-10.97 882.54,-14.51 882.57,-7.51"/>
</g>
<!-- Node22&#45;&gt;Node7 -->
<g id="edge44" class="edge">
<title>Node22&#45;&gt;Node7</title>
<path fill="none" stroke="midnightblue" d="M1527.26,-257.4C1511.48,-246.6 1489.79,-231.76 1473.9,-220.89"/>
<polygon fill="midnightblue" stroke="midnightblue" points="1475.54,-217.77 1465.31,-215.01 1471.59,-223.54 1475.54,-217.77"/>
</g>
<!-- Node22&#45;&gt;Node8 -->
<g id="edge45" class="edge">
<title>Node22&#45;&gt;Node8</title>
<path fill="none" stroke="midnightblue" d="M1557.95,-257.26C1564.18,-247.55 1571.59,-234.12 1574.88,-221 1592.7,-149.87 1587.34,-128.27 1574.88,-56 1573.31,-46.91 1570.08,-37.22 1566.93,-29.17"/>
<polygon fill="midnightblue" stroke="midnightblue" points="1570.07,-27.6 1562.99,-19.72 1563.61,-30.3 1570.07,-27.6"/>
</g>
<!-- Node22&#45;&gt;Node10 -->
<g id="edge47" class="edge">
<title>Node22&#45;&gt;Node10</title>
<path fill="none" stroke="midnightblue" d="M1542.52,-257.2C1535.46,-239.8 1521.71,-210.23 1502.88,-190 1461.99,-146.09 1401.42,-111.13 1361.79,-91.11"/>
<polygon fill="midnightblue" stroke="midnightblue" points="1363.2,-87.9 1352.69,-86.59 1360.09,-94.17 1363.2,-87.9"/>
</g>
<!-- Node22&#45;&gt;Node19 -->
<g id="edge46" class="edge">
<title>Node22&#45;&gt;Node19</title>
<path fill="none" stroke="midnightblue" d="M1480.7,-261.42C1398,-249 1258.65,-228.08 1177.91,-215.96"/>
<polygon fill="midnightblue" stroke="midnightblue" points="1178.29,-212.48 1167.88,-214.46 1177.25,-219.4 1178.29,-212.48"/>
</g>
<!-- Node23&#45;&gt;Node3 -->
<g id="edge51" class="edge">
<title>Node23&#45;&gt;Node3</title>
<path fill="none" stroke="midnightblue" d="M1207,-324.4C1228.54,-313.19 1258.45,-297.64 1279.52,-286.69"/>
<polygon fill="midnightblue" stroke="midnightblue" points="1281.26,-289.73 1288.52,-282.01 1278.03,-283.52 1281.26,-289.73"/>
</g>
<!-- Node23&#45;&gt;Node4 -->
<g id="edge53" class="edge">
<title>Node23&#45;&gt;Node4</title>
<path fill="none" stroke="midnightblue" d="M1173.4,-324.43C1164.44,-306.42 1146.65,-275.37 1122.88,-257 1086.49,-228.88 1059.83,-252.01 1025.88,-221 1005.32,-202.23 974.93,-126.01 961.58,-90.66"/>
<polygon fill="midnightblue" stroke="midnightblue" points="964.79,-89.26 958.01,-81.11 958.23,-91.71 964.79,-89.26"/>
</g>
<!-- Node23&#45;&gt;Node5 -->
<g id="edge54" class="edge">
<title>Node23&#45;&gt;Node5</title>
<path fill="none" stroke="midnightblue" d="M1227.58,-324.49C1258.27,-315.07 1298.82,-301.89 1333.88,-288 1335.29,-287.44 1336.74,-286.85 1338.19,-286.23"/>
<polygon fill="midnightblue" stroke="midnightblue" points="1339.95,-289.27 1347.66,-282 1337.1,-282.88 1339.95,-289.27"/>
</g>
<!-- Node23&#45;&gt;Node6 -->
<g id="edge56" class="edge">
<title>Node23&#45;&gt;Node6</title>
<path fill="none" stroke="midnightblue" d="M1182.14,-324.43C1187.22,-288.57 1196.52,-191.73 1161.88,-123 1144.15,-87.83 1138.12,-75.47 1103.88,-56 1032.43,-15.38 932.7,-9.96 882.84,-10.09"/>
<polygon fill="midnightblue" stroke="midnightblue" points="882.66,-6.59 872.7,-10.19 882.74,-13.59 882.66,-6.59"/>
</g>
<!-- Node23&#45;&gt;Node7 -->
<g id="edge57" class="edge">
<title>Node23&#45;&gt;Node7</title>
<path fill="none" stroke="midnightblue" d="M1194.73,-324.35C1216.79,-303.6 1257.45,-266.35 1274.88,-257 1286.89,-250.55 1361.28,-230.44 1410.01,-217.63"/>
<polygon fill="midnightblue" stroke="midnightblue" points="1410.9,-221.01 1419.69,-215.09 1409.13,-214.24 1410.9,-221.01"/>
</g>
<!-- Node23&#45;&gt;Node8 -->
<g id="edge58" class="edge">
<title>Node23&#45;&gt;Node8</title>
<path fill="none" stroke="midnightblue" d="M1233.98,-336.31C1346.69,-331.19 1598.3,-316.65 1623.88,-288 1653.81,-254.47 1743.57,-419.53 1591.88,-56 1587.55,-45.63 1580.36,-35.41 1573.8,-27.34"/>
<polygon fill="midnightblue" stroke="midnightblue" points="1576.26,-24.83 1567.09,-19.52 1570.95,-29.39 1576.26,-24.83"/>
</g>
<!-- Node23&#45;&gt;Node9 -->
<g id="edge59" class="edge">
<title>Node23&#45;&gt;Node9</title>
<path fill="none" stroke="midnightblue" d="M1188.58,-324.45C1198.85,-308.05 1216.58,-280.2 1232.88,-257 1256.72,-223.06 1286.05,-184.99 1304.36,-161.63"/>
<polygon fill="midnightblue" stroke="midnightblue" points="1307.15,-163.75 1310.58,-153.72 1301.65,-159.42 1307.15,-163.75"/>
</g>
<!-- Node23&#45;&gt;Node11 -->
<g id="edge52" class="edge">
<title>Node23&#45;&gt;Node11</title>
<path fill="none" stroke="midnightblue" d="M1125.81,-338.2C894.75,-336.22 1.88,-321.17 1.88,-206.5 1.88,-206.5 1.88,-206.5 1.88,-137.5 1.88,-100.31 -5.63,-82.09 20.88,-56 46.15,-31.13 150.43,-18.26 201.05,-13.37"/>
<polygon fill="midnightblue" stroke="midnightblue" points="201.64,-16.83 211.28,-12.42 201,-9.86 201.64,-16.83"/>
</g>
<!-- Node23&#45;&gt;Node22 -->
<g id="edge75" class="edge">
<title>Node23&#45;&gt;Node22</title>
<path fill="none" stroke="midnightblue" d="M1234.18,-328.91C1296.68,-317.87 1399.81,-299.65 1470.65,-287.14"/>
<polygon fill="midnightblue" stroke="midnightblue" points="1471.62,-290.52 1480.86,-285.34 1470.41,-283.63 1471.62,-290.52"/>
</g>
<!-- Node24 -->
<g id="node24" class="node">
<title>Node24</title>
<g id="a_node24"><a xlink:title=" ">
<polygon fill="white" stroke="#bfbfbf" points="945.38,-263 945.38,-282 988.38,-282 988.38,-263 945.38,-263"/>
<text text-anchor="middle" x="966.88" y="-270" font-family="Helvetica,sans-Serif" font-size="10.00">deque</text>
</a>
</g>
</g>
<!-- Node23&#45;&gt;Node24 -->
<g id="edge49" class="edge">
<title>Node23&#45;&gt;Node24</title>
<path fill="none" stroke="midnightblue" d="M1125.81,-326.31C1088.94,-317.34 1039.29,-303.95 996.88,-288 995.46,-287.47 994.01,-286.89 992.56,-286.28"/>
<polygon fill="midnightblue" stroke="midnightblue" points="993.7,-282.96 983.15,-282.02 990.82,-289.33 993.7,-282.96"/>
</g>
<!-- Node25 -->
<g id="node25" class="node">
<title>Node25</title>
<g id="a_node25"><a xlink:title=" ">
<polygon fill="white" stroke="#bfbfbf" points="1006.38,-263 1006.38,-282 1065.38,-282 1065.38,-263 1006.38,-263"/>
<text text-anchor="middle" x="1035.88" y="-270" font-family="Helvetica,sans-Serif" font-size="10.00">functional</text>
</a>
</g>
</g>
<!-- Node23&#45;&gt;Node25 -->
<g id="edge50" class="edge">
<title>Node23&#45;&gt;Node25</title>
<path fill="none" stroke="midnightblue" d="M1148.63,-324.4C1123.48,-313.04 1088.43,-297.22 1064.11,-286.24"/>
<polygon fill="midnightblue" stroke="midnightblue" points="1065.28,-282.93 1054.72,-282.01 1062.4,-289.31 1065.28,-282.93"/>
</g>
<!-- Node26 -->
<g id="node26" class="node">
<title>Node26</title>
<g id="a_node26"><a xlink:title=" ">
<polygon fill="white" stroke="#bfbfbf" points="1083.88,-263 1083.88,-282 1113.88,-282 1113.88,-263 1083.88,-263"/>
<text text-anchor="middle" x="1098.88" y="-270" font-family="Helvetica,sans-Serif" font-size="10.00">set</text>
</a>
</g>
</g>
<!-- Node23&#45;&gt;Node26 -->
<g id="edge55" class="edge">
<title>Node23&#45;&gt;Node26</title>
<path fill="none" stroke="midnightblue" d="M1162.3,-324.4C1149.17,-313.86 1131.25,-299.48 1117.8,-288.69"/>
<polygon fill="midnightblue" stroke="midnightblue" points="1119.7,-285.72 1109.71,-282.19 1115.32,-291.18 1119.7,-285.72"/>
</g>
<!-- Node27 -->
<g id="node27" class="node">
<title>Node27</title>
<g id="a_node27"><a xlink:href="../../d1/d31/acceptor_8h.html" target="_top" xlink:title=" ">
<polygon fill="white" stroke="black" points="652.88,-190.5 652.88,-220.5 774.88,-220.5 774.88,-190.5 652.88,-190.5"/>
<text text-anchor="start" x="660.88" y="-208.5" font-family="Helvetica,sans-Serif" font-size="10.00">automaton/core/network</text>
<text text-anchor="middle" x="713.88" y="-197.5" font-family="Helvetica,sans-Serif" font-size="10.00">/acceptor.h</text>
</a>
</g>
</g>
<!-- Node23&#45;&gt;Node27 -->
<g id="edge60" class="edge">
<title>Node23&#45;&gt;Node27</title>
<path fill="none" stroke="midnightblue" d="M1125.53,-329.63C1075.71,-320.94 1000.15,-306.34 935.88,-288 872.43,-269.89 801.15,-242.4 756.88,-224.44"/>
<polygon fill="midnightblue" stroke="midnightblue" points="758.17,-221.19 747.59,-220.65 755.53,-227.67 758.17,-221.19"/>
</g>
<!-- Node30 -->
<g id="node30" class="node">
<title>Node30</title>
<g id="a_node30"><a xlink:href="../../d4/d67/connection_8h.html" target="_top" xlink:title=" ">
<polygon fill="white" stroke="black" points="614.88,-123.5 614.88,-153.5 736.88,-153.5 736.88,-123.5 614.88,-123.5"/>
<text text-anchor="start" x="622.88" y="-141.5" font-family="Helvetica,sans-Serif" font-size="10.00">automaton/core/network</text>
<text text-anchor="middle" x="675.88" y="-130.5" font-family="Helvetica,sans-Serif" font-size="10.00">/connection.h</text>
</a>
</g>
</g>
<!-- Node23&#45;&gt;Node30 -->
<g id="edge74" class="edge">
<title>Node23&#45;&gt;Node30</title>
<path fill="none" stroke="midnightblue" d="M1125.86,-335.47C1001.21,-327.18 699.84,-299.27 643.88,-221 630.96,-202.93 643.21,-178.95 656.11,-161.68"/>
<polygon fill="midnightblue" stroke="midnightblue" points="658.89,-163.8 662.38,-153.8 653.41,-159.44 658.89,-163.8"/>
</g>
<!-- Node27&#45;&gt;Node4 -->
<g id="edge62" class="edge">
<title>Node27&#45;&gt;Node4</title>
<path fill="none" stroke="midnightblue" d="M739.67,-190.37C786.37,-164.79 884.36,-111.12 930.22,-86"/>
<polygon fill="midnightblue" stroke="midnightblue" points="932.09,-88.97 939.18,-81.1 928.73,-82.83 932.09,-88.97"/>
</g>
<!-- Node27&#45;&gt;Node6 -->
<g id="edge63" class="edge">
<title>Node27&#45;&gt;Node6</title>
<path fill="none" stroke="midnightblue" d="M726.48,-190.2C745.25,-168.61 781.19,-126.03 807.88,-87 821.01,-67.8 834.12,-44.49 842.56,-28.79"/>
<polygon fill="midnightblue" stroke="midnightblue" points="845.8,-30.16 847.4,-19.69 839.62,-26.88 845.8,-30.16"/>
</g>
<!-- Node27&#45;&gt;Node11 -->
<g id="edge61" class="edge">
<title>Node27&#45;&gt;Node11</title>
<path fill="none" stroke="midnightblue" d="M652.85,-199.57C527.48,-189.24 251.18,-165.33 233.88,-154 194.8,-128.4 181.34,-100.4 195.88,-56 199.37,-45.34 206.45,-35.12 213.16,-27.12"/>
<polygon fill="midnightblue" stroke="midnightblue" points="215.78,-29.44 219.86,-19.66 210.57,-24.76 215.78,-29.44"/>
</g>
<!-- Node28 -->
<g id="node28" class="node">
<title>Node28</title>
<g id="a_node28"><a xlink:href="../../d1/d13/status_8h.html" target="_top" xlink:title=" ">
<polygon fill="white" stroke="black" points="541.38,-56.5 541.38,-86.5 666.38,-86.5 666.38,-56.5 541.38,-56.5"/>
<text text-anchor="start" x="549.38" y="-74.5" font-family="Helvetica,sans-Serif" font-size="10.00">automaton/core/common</text>
<text text-anchor="middle" x="603.88" y="-63.5" font-family="Helvetica,sans-Serif" font-size="10.00">/status.h</text>
</a>
</g>
</g>
<!-- Node27&#45;&gt;Node28 -->
<g id="edge64" class="edge">
<title>Node27&#45;&gt;Node28</title>
<path fill="none" stroke="midnightblue" d="M655.06,-190.4C636.16,-182.82 617.2,-171.33 605.88,-154 594.91,-137.22 595.46,-114.07 598.15,-96.73"/>
<polygon fill="midnightblue" stroke="midnightblue" points="601.61,-97.26 600.01,-86.79 594.73,-95.97 601.61,-97.26"/>
</g>
<!-- Node27&#45;&gt;Node30 -->
<g id="edge68" class="edge">
<title>Node27&#45;&gt;Node30</title>
<path fill="none" stroke="midnightblue" d="M705.63,-190.4C700.85,-182.22 694.72,-171.73 689.26,-162.39"/>
<polygon fill="midnightblue" stroke="midnightblue" points="692.18,-160.44 684.11,-153.58 686.13,-163.98 692.18,-160.44"/>
</g>
<!-- Node28&#45;&gt;Node6 -->
<g id="edge66" class="edge">
<title>Node28&#45;&gt;Node6</title>
<path fill="none" stroke="midnightblue" d="M662.34,-56.47C712.16,-44.52 781.79,-27.82 821.3,-18.34"/>
<polygon fill="midnightblue" stroke="midnightblue" points="822.23,-21.71 831.14,-15.98 820.6,-14.91 822.23,-21.71"/>
</g>
<!-- Node28&#45;&gt;Node16 -->
<g id="edge67" class="edge">
<title>Node28&#45;&gt;Node16</title>
<path fill="none" stroke="midnightblue" d="M563.59,-56.4C534.56,-46.24 495.8,-32.67 468.23,-23.02"/>
<polygon fill="midnightblue" stroke="midnightblue" points="469.21,-19.66 458.61,-19.66 466.9,-26.26 469.21,-19.66"/>
</g>
<!-- Node29 -->
<g id="node29" class="node">
<title>Node29</title>
<g id="a_node29"><a xlink:title=" ">
<polygon fill="white" stroke="#bfbfbf" points="577.88,-0.5 577.88,-19.5 629.88,-19.5 629.88,-0.5 577.88,-0.5"/>
<text text-anchor="middle" x="603.88" y="-7.5" font-family="Helvetica,sans-Serif" font-size="10.00">ostream</text>
</a>
</g>
</g>
<!-- Node28&#45;&gt;Node29 -->
<g id="edge65" class="edge">
<title>Node28&#45;&gt;Node29</title>
<path fill="none" stroke="midnightblue" d="M603.88,-56.4C603.88,-48.47 603.88,-38.46 603.88,-29.86"/>
<polygon fill="midnightblue" stroke="midnightblue" points="607.38,-29.66 603.88,-19.66 600.38,-29.66 607.38,-29.66"/>
</g>
<!-- Node30&#45;&gt;Node4 -->
<g id="edge70" class="edge">
<title>Node30&#45;&gt;Node4</title>
<path fill="none" stroke="midnightblue" d="M736.07,-123.48C791.92,-110.46 873.16,-91.54 919.32,-80.78"/>
<polygon fill="midnightblue" stroke="midnightblue" points="920.22,-84.17 929.17,-78.49 918.63,-77.35 920.22,-84.17"/>
</g>
<!-- Node30&#45;&gt;Node6 -->
<g id="edge71" class="edge">
<title>Node30&#45;&gt;Node6</title>
<path fill="none" stroke="midnightblue" d="M710.29,-123.41C730.32,-114.42 755.55,-101.71 775.88,-87 800.08,-69.48 823.73,-44.15 838.06,-27.63"/>
<polygon fill="midnightblue" stroke="midnightblue" points="840.84,-29.77 844.65,-19.88 835.51,-25.23 840.84,-29.77"/>
</g>
<!-- Node30&#45;&gt;Node11 -->
<g id="edge69" class="edge">
<title>Node30&#45;&gt;Node11</title>
<path fill="none" stroke="midnightblue" d="M614.66,-136.88C514.57,-134.75 321.52,-125.6 266.88,-87 247.72,-73.47 237.7,-47.43 232.86,-29.64"/>
<polygon fill="midnightblue" stroke="midnightblue" points="236.23,-28.71 230.48,-19.81 229.43,-30.35 236.23,-28.71"/>
</g>
<!-- Node30&#45;&gt;Node28 -->
<g id="edge73" class="edge">
<title>Node30&#45;&gt;Node28</title>
<path fill="none" stroke="midnightblue" d="M660.25,-123.4C650.54,-114.62 637.86,-103.18 627,-93.37"/>
<polygon fill="midnightblue" stroke="midnightblue" points="629.24,-90.68 619.47,-86.58 624.55,-95.88 629.24,-90.68"/>
</g>
<!-- Node31 -->
<g id="node31" class="node">
<title>Node31</title>
<g id="a_node31"><a xlink:title=" ">
<polygon fill="white" stroke="#bfbfbf" points="722.88,-62 722.88,-81 766.88,-81 766.88,-62 722.88,-62"/>
<text text-anchor="middle" x="744.88" y="-69" font-family="Helvetica,sans-Serif" font-size="10.00">thread</text>
</a>
</g>
</g>
<!-- Node30&#45;&gt;Node31 -->
<g id="edge72" class="edge">
<title>Node30&#45;&gt;Node31</title>
<path fill="none" stroke="midnightblue" d="M690.85,-123.4C701.82,-113.06 716.72,-99.02 728.1,-88.31"/>
<polygon fill="midnightblue" stroke="midnightblue" points="730.77,-90.6 735.65,-81.19 725.97,-85.5 730.77,-90.6"/>
</g>
<!-- Node32&#45;&gt;Node6 -->
<g id="edge79" class="edge">
<title>Node32&#45;&gt;Node6</title>
<path fill="none" stroke="midnightblue" d="M1859.18,-396.87C1836.69,-388.11 1802.47,-373.25 1775.88,-355 1607.73,-239.63 1618.31,-128.93 1427.88,-56 1326.89,-17.33 987.4,-11.88 882.81,-11.12"/>
<polygon fill="midnightblue" stroke="midnightblue" points="882.63,-7.62 872.61,-11.06 882.59,-14.62 882.63,-7.62"/>
</g>
<!-- Node33 -->
<g id="node33" class="node">
<title>Node33</title>
<g id="a_node33"><a xlink:title=" ">
<polygon fill="white" stroke="#bfbfbf" points="2125.88,-330 2125.88,-349 2171.88,-349 2171.88,-330 2125.88,-330"/>
<text text-anchor="middle" x="2148.88" y="-337" font-family="Helvetica,sans-Serif" font-size="10.00">chrono</text>
</a>
</g>
</g>
<!-- Node32&#45;&gt;Node33 -->
<g id="edge78" class="edge">
<title>Node32&#45;&gt;Node33</title>
<path fill="none" stroke="midnightblue" d="M1938.13,-397C1986.11,-388.81 2057.09,-374.75 2116.88,-355 2118.75,-354.38 2120.65,-353.69 2122.55,-352.95"/>
<polygon fill="midnightblue" stroke="midnightblue" points="2124.03,-356.13 2131.87,-349.01 2121.3,-349.68 2124.03,-356.13"/>
</g>
<!-- Node34 -->
<g id="node34" class="node">
<title>Node34</title>
<g id="a_node34"><a xlink:title=" ">
<polygon fill="white" stroke="#bfbfbf" points="1784.88,-330 1784.88,-349 1868.88,-349 1868.88,-330 1784.88,-330"/>
<text text-anchor="middle" x="1826.88" y="-337" font-family="Helvetica,sans-Serif" font-size="10.00">g3log/g3log.hpp</text>
</a>
</g>
</g>
<!-- Node32&#45;&gt;Node34 -->
<g id="edge80" class="edge">
<title>Node32&#45;&gt;Node34</title>
<path fill="none" stroke="midnightblue" d="M1875.32,-396.73C1866.59,-386.6 1852.03,-369.69 1841.14,-357.06"/>
<polygon fill="midnightblue" stroke="midnightblue" points="1843.49,-354.42 1834.31,-349.13 1838.19,-358.99 1843.49,-354.42"/>
</g>
<!-- Node35 -->
<g id="node35" class="node">
<title>Node35</title>
<g id="a_node35"><a xlink:title=" ">
<polygon fill="white" stroke="#bfbfbf" points="1887.38,-330 1887.38,-349 1990.38,-349 1990.38,-330 1887.38,-330"/>
<text text-anchor="middle" x="1938.88" y="-337" font-family="Helvetica,sans-Serif" font-size="10.00">g3log/logworker.hpp</text>
</a>
</g>
</g>
<!-- Node32&#45;&gt;Node35 -->
<g id="edge81" class="edge">
<title>Node32&#45;&gt;Node35</title>
<path fill="none" stroke="midnightblue" d="M1890.43,-396.73C1899.16,-386.6 1913.73,-369.69 1924.61,-357.06"/>
<polygon fill="midnightblue" stroke="midnightblue" points="1927.57,-358.99 1931.44,-349.13 1922.27,-354.42 1927.57,-358.99"/>
</g>
<!-- Node36 -->
<g id="node36" class="node">
<title>Node36</title>
<g id="a_node36"><a xlink:title=" ">
<polygon fill="white" stroke="#bfbfbf" points="2008.38,-330 2008.38,-349 2107.38,-349 2107.38,-330 2008.38,-330"/>
<text text-anchor="middle" x="2057.88" y="-337" font-family="Helvetica,sans-Serif" font-size="10.00">g3log/loglevels.hpp</text>
</a>
</g>
</g>
<!-- Node32&#45;&gt;Node36 -->
<g id="edge82" class="edge">
<title>Node32&#45;&gt;Node36</title>
<path fill="none" stroke="midnightblue" d="M1906.12,-396.87C1936.66,-385.52 1990.5,-365.52 2025.16,-352.65"/>
<polygon fill="midnightblue" stroke="midnightblue" points="2026.67,-355.83 2034.82,-349.06 2024.23,-349.26 2026.67,-355.83"/>
</g>
</g>
</svg>
