<?xml version="1.0" encoding="UTF-8" standalone="no"?>
<!DOCTYPE svg PUBLIC "-//W3C//DTD SVG 1.1//EN"
 "http://www.w3.org/Graphics/SVG/1.1/DTD/svg11.dtd">
<!-- Generated by graphviz version 2.44.0 ()
 -->
<!-- Title: factory.h Pages: 1 -->
<svg width="1285pt" height="252pt"
 viewBox="0.00 0.00 1284.67 252.00" xmlns="http://www.w3.org/2000/svg" xmlns:xlink="http://www.w3.org/1999/xlink">
<g id="graph0" class="graph" transform="scale(1 1) rotate(0) translate(4 248)">
<title>factory.h</title>
<polygon fill="white" stroke="transparent" points="-4,4 -4,-248 1280.67,-248 1280.67,4 -4,4"/>
<!-- Node1 -->
<g id="node1" class="node">
<title>Node1</title>
<g id="a_node1"><a xlink:title=" ">
<polygon fill="#bfbfbf" stroke="black" points="591,-224.5 591,-243.5 644,-243.5 644,-224.5 591,-224.5"/>
<text text-anchor="middle" x="617.5" y="-231.5" font-family="Helvetica,sans-Serif" font-size="10.00">factory.h</text>
</a>
</g>
</g>
<!-- Node2 -->
<g id="node2" class="node">
<title>Node2</title>
<g id="a_node2"><a xlink:href="../../dd/de7/core_8cc.html" target="_top" xlink:title=" ">
<polygon fill="white" stroke="black" points="952.5,-0.5 952.5,-19.5 1000.5,-19.5 1000.5,-0.5 952.5,-0.5"/>
<text text-anchor="middle" x="976.5" y="-7.5" font-family="Helvetica,sans-Serif" font-size="10.00">core.cc</text>
</a>
</g>
</g>
<!-- Node1&#45;&gt;Node2 -->
<g id="edge1" class="edge">
<title>Node1&#45;&gt;Node2</title>
<path fill="none" stroke="midnightblue" d="M654.42,-230.33C781.92,-220.23 1199.8,-179.56 1272.5,-76 1277.61,-68.72 1278.29,-62.74 1272.5,-56 1237.35,-15.1 1064.71,-10.94 1000.56,-10.83"/>
<polygon fill="midnightblue" stroke="midnightblue" points="654.07,-226.84 644.37,-231.11 654.61,-233.82 654.07,-226.84"/>
</g>
<!-- Node3 -->
<g id="node3" class="node">
<title>Node3</title>
<g id="a_node3"><a xlink:href="../../d1/d4e/factory_8cc.html" target="_top" xlink:title=" ">
<polygon fill="white" stroke="black" points="454,-168.5 454,-187.5 513,-187.5 513,-168.5 454,-168.5"/>
<text text-anchor="middle" x="483.5" y="-175.5" font-family="Helvetica,sans-Serif" font-size="10.00">factory.cc</text>
</a>
</g>
</g>
<!-- Node1&#45;&gt;Node3 -->
<g id="edge2" class="edge">
<title>Node1&#45;&gt;Node3</title>
<path fill="none" stroke="midnightblue" d="M586.82,-220.64C561.68,-210.5 526.75,-196.43 504.63,-187.52"/>
<polygon fill="midnightblue" stroke="midnightblue" points="585.68,-223.95 596.27,-224.44 588.3,-217.46 585.68,-223.95"/>
</g>
<!-- Node4 -->
<g id="node4" class="node">
<title>Node4</title>
<g id="a_node4"><a xlink:href="../../dc/dd5/protobuf__factory_8h.html" target="_top" xlink:title=" ">
<polygon fill="white" stroke="black" points="309.5,-112.5 309.5,-131.5 403.5,-131.5 403.5,-112.5 309.5,-112.5"/>
<text text-anchor="middle" x="356.5" y="-119.5" font-family="Helvetica,sans-Serif" font-size="10.00">protobuf_factory.h</text>
</a>
</g>
</g>
<!-- Node1&#45;&gt;Node4 -->
<g id="edge3" class="edge">
<title>Node1&#45;&gt;Node4</title>
<path fill="none" stroke="midnightblue" d="M597.86,-218.41C574.86,-201.52 537.95,-175.13 522.5,-168 484.27,-150.36 437.8,-138.5 403.76,-131.4"/>
<polygon fill="midnightblue" stroke="midnightblue" points="595.8,-221.23 605.92,-224.35 599.95,-215.6 595.8,-221.23"/>
</g>
<!-- Node8 -->
<g id="node8" class="node">
<title>Node8</title>
<g id="a_node8"><a xlink:href="../../db/d7f/engine_8cc.html" target="_top" xlink:title=" ">
<polygon fill="white" stroke="black" points="576.5,-56.5 576.5,-75.5 634.5,-75.5 634.5,-56.5 576.5,-56.5"/>
<text text-anchor="middle" x="605.5" y="-63.5" font-family="Helvetica,sans-Serif" font-size="10.00">engine.cc</text>
</a>
</g>
</g>
<!-- Node1&#45;&gt;Node8 -->
<g id="edge16" class="edge">
<title>Node1&#45;&gt;Node8</title>
<path fill="none" stroke="midnightblue" d="M616.12,-213.93C613.52,-177.92 607.97,-101.23 606.12,-75.57"/>
<polygon fill="midnightblue" stroke="midnightblue" points="612.64,-214.35 616.85,-224.08 619.62,-213.85 612.64,-214.35"/>
</g>
<!-- Node11 -->
<g id="node11" class="node">
<title>Node11</title>
<g id="a_node11"><a xlink:href="../../d5/de1/protobuf__msg_8h.html" target="_top" xlink:title=" ">
<polygon fill="white" stroke="black" points="254,-168.5 254,-187.5 337,-187.5 337,-168.5 254,-168.5"/>
<text text-anchor="middle" x="295.5" y="-175.5" font-family="Helvetica,sans-Serif" font-size="10.00">protobuf_msg.h</text>
</a>
</g>
</g>
<!-- Node1&#45;&gt;Node11 -->
<g id="edge11" class="edge">
<title>Node1&#45;&gt;Node11</title>
<path fill="none" stroke="midnightblue" d="M580.66,-226.82C520.24,-216.69 400.49,-196.61 337.1,-185.98"/>
<polygon fill="midnightblue" stroke="midnightblue" points="580.43,-230.33 590.88,-228.54 581.59,-223.43 580.43,-230.33"/>
</g>
<!-- Node12 -->
<g id="node12" class="node">
<title>Node12</title>
<g id="a_node12"><a xlink:href="../../d8/dd3/bind__data_8cc.html" target="_top" xlink:title=" ">
<polygon fill="white" stroke="black" points="788,-56.5 788,-75.5 859,-75.5 859,-56.5 788,-56.5"/>
<text text-anchor="middle" x="823.5" y="-63.5" font-family="Helvetica,sans-Serif" font-size="10.00">bind_data.cc</text>
</a>
</g>
</g>
<!-- Node1&#45;&gt;Node12 -->
<g id="edge15" class="edge">
<title>Node1&#45;&gt;Node12</title>
<path fill="none" stroke="midnightblue" d="M637.78,-218.09C649.48,-209.42 664.41,-198.21 677.5,-188 729.67,-147.29 789.92,-95.92 813.4,-75.72"/>
<polygon fill="midnightblue" stroke="midnightblue" points="635.52,-215.41 629.56,-224.17 639.68,-221.04 635.52,-215.41"/>
</g>
<!-- Node13 -->
<g id="node13" class="node">
<title>Node13</title>
<g id="a_node13"><a xlink:href="../../d1/d55/engine_8h.html" target="_top" xlink:title=" ">
<polygon fill="white" stroke="black" points="684,-112.5 684,-131.5 737,-131.5 737,-112.5 684,-112.5"/>
<text text-anchor="middle" x="710.5" y="-119.5" font-family="Helvetica,sans-Serif" font-size="10.00">engine.h</text>
</a>
</g>
</g>
<!-- Node1&#45;&gt;Node13 -->
<g id="edge17" class="edge">
<title>Node1&#45;&gt;Node13</title>
<path fill="none" stroke="midnightblue" d="M631.38,-216.59C651.43,-192.87 687.78,-149.87 703.24,-131.59"/>
<polygon fill="midnightblue" stroke="midnightblue" points="628.58,-214.47 624.8,-224.37 633.93,-218.99 628.58,-214.47"/>
</g>
<!-- Node17 -->
<g id="node17" class="node">
<title>Node17</title>
<g id="a_node17"><a xlink:href="../../dc/d27/registry_8h.html" target="_top" xlink:title=" ">
<polygon fill="white" stroke="black" points="449.5,-112.5 449.5,-131.5 505.5,-131.5 505.5,-112.5 449.5,-112.5"/>
<text text-anchor="middle" x="477.5" y="-119.5" font-family="Helvetica,sans-Serif" font-size="10.00">registry.h</text>
</a>
</g>
</g>
<!-- Node1&#45;&gt;Node17 -->
<g id="edge25" class="edge">
<title>Node1&#45;&gt;Node17</title>
<path fill="none" stroke="midnightblue" d="M604.04,-216.43C592.19,-202.48 573.98,-182.52 555.5,-168 536.57,-153.12 512.19,-139.86 495.77,-131.65"/>
<polygon fill="midnightblue" stroke="midnightblue" points="601.46,-218.8 610.55,-224.24 606.84,-214.32 601.46,-218.8"/>
</g>
<!-- Node18 -->
<g id="node18" class="node">
<title>Node18</title>
<g id="a_node18"><a xlink:href="../../d5/dab/smart__protocol_8h.html" target="_top" xlink:title=" ">
<polygon fill="white" stroke="black" points="864,-168.5 864,-187.5 953,-187.5 953,-168.5 864,-168.5"/>
<text text-anchor="middle" x="908.5" y="-175.5" font-family="Helvetica,sans-Serif" font-size="10.00">smart_protocol.h</text>
</a>
</g>
</g>
<!-- Node1&#45;&gt;Node18 -->
<g id="edge27" class="edge">
<title>Node1&#45;&gt;Node18</title>
<path fill="none" stroke="midnightblue" d="M654.13,-226.2C707.5,-216.3 806.5,-197.93 863.99,-187.26"/>
<polygon fill="midnightblue" stroke="midnightblue" points="653.29,-222.8 644.1,-228.06 654.57,-229.68 653.29,-222.8"/>
</g>
<!-- Node4&#45;&gt;Node2 -->
<g id="edge4" class="edge">
<title>Node4&#45;&gt;Node2</title>
<path fill="none" stroke="midnightblue" d="M356.53,-101.93C357.67,-86.96 361.89,-66.89 375.5,-56 424.88,-16.49 881.12,-30.37 943.5,-20 946.43,-19.51 949.47,-18.87 952.47,-18.16"/>
<polygon fill="midnightblue" stroke="midnightblue" points="353.03,-102.02 356.16,-112.14 360.02,-102.28 353.03,-102.02"/>
</g>
<!-- Node5 -->
<g id="node5" class="node">
<title>Node5</title>
<g id="a_node5"><a xlink:href="../../d0/dcc/protobuf__factory_8cc.html" target="_top" xlink:title=" ">
<polygon fill="white" stroke="black" points="0,-56.5 0,-75.5 99,-75.5 99,-56.5 0,-56.5"/>
<text text-anchor="middle" x="49.5" y="-63.5" font-family="Helvetica,sans-Serif" font-size="10.00">protobuf_factory.cc</text>
</a>
</g>
</g>
<!-- Node4&#45;&gt;Node5 -->
<g id="edge5" class="edge">
<title>Node4&#45;&gt;Node5</title>
<path fill="none" stroke="midnightblue" d="M299.1,-110.9C241.08,-100.7 152.42,-85.1 97.86,-75.51"/>
<polygon fill="midnightblue" stroke="midnightblue" points="298.75,-114.4 309.2,-112.68 299.96,-107.5 298.75,-114.4"/>
</g>
<!-- Node6 -->
<g id="node6" class="node">
<title>Node6</title>
<g id="a_node6"><a xlink:href="../../da/d58/protobuf__msg_8cc.html" target="_top" xlink:title=" ">
<polygon fill="white" stroke="black" points="117,-56.5 117,-75.5 206,-75.5 206,-56.5 117,-56.5"/>
<text text-anchor="middle" x="161.5" y="-63.5" font-family="Helvetica,sans-Serif" font-size="10.00">protobuf_msg.cc</text>
</a>
</g>
</g>
<!-- Node4&#45;&gt;Node6 -->
<g id="edge6" class="edge">
<title>Node4&#45;&gt;Node6</title>
<path fill="none" stroke="midnightblue" d="M315.69,-109.7C278.89,-99.51 225.57,-84.74 192.25,-75.52"/>
<polygon fill="midnightblue" stroke="midnightblue" points="315.03,-113.15 325.6,-112.44 316.9,-106.4 315.03,-113.15"/>
</g>
<!-- Node7 -->
<g id="node7" class="node">
<title>Node7</title>
<g id="a_node7"><a xlink:href="../../dc/d05/protobuf__schema_8cc.html" target="_top" xlink:title=" ">
<polygon fill="white" stroke="black" points="224.5,-56.5 224.5,-75.5 328.5,-75.5 328.5,-56.5 224.5,-56.5"/>
<text text-anchor="middle" x="276.5" y="-63.5" font-family="Helvetica,sans-Serif" font-size="10.00">protobuf_schema.cc</text>
</a>
</g>
</g>
<!-- Node4&#45;&gt;Node7 -->
<g id="edge7" class="edge">
<title>Node4&#45;&gt;Node7</title>
<path fill="none" stroke="midnightblue" d="M335.2,-106.62C320.58,-96.76 301.67,-83.99 289.32,-75.65"/>
<polygon fill="midnightblue" stroke="midnightblue" points="333.4,-109.63 343.65,-112.32 337.32,-103.83 333.4,-109.63"/>
</g>
<!-- Node4&#45;&gt;Node8 -->
<g id="edge8" class="edge">
<title>Node4&#45;&gt;Node8</title>
<path fill="none" stroke="midnightblue" d="M407.69,-110.42C450.46,-101.5 513.03,-88.26 567.5,-76 570.41,-75.35 573.44,-74.65 576.47,-73.95"/>
<polygon fill="midnightblue" stroke="midnightblue" points="406.88,-107.01 397.8,-112.48 408.3,-113.87 406.88,-107.01"/>
</g>
<!-- Node9 -->
<g id="node9" class="node">
<title>Node9</title>
<g id="a_node9"><a xlink:href="../../d5/d9f/registry_8cc.html" target="_top" xlink:title=" ">
<polygon fill="white" stroke="black" points="385,-56.5 385,-75.5 446,-75.5 446,-56.5 385,-56.5"/>
<text text-anchor="middle" x="415.5" y="-63.5" font-family="Helvetica,sans-Serif" font-size="10.00">registry.cc</text>
</a>
</g>
</g>
<!-- Node4&#45;&gt;Node9 -->
<g id="edge9" class="edge">
<title>Node4&#45;&gt;Node9</title>
<path fill="none" stroke="midnightblue" d="M373.39,-105.54C383.91,-95.91 397.07,-83.87 405.85,-75.83"/>
<polygon fill="midnightblue" stroke="midnightblue" points="370.99,-102.99 365.98,-112.32 375.72,-108.15 370.99,-102.99"/>
</g>
<!-- Node10 -->
<g id="node10" class="node">
<title>Node10</title>
<g id="a_node10"><a xlink:href="../../d0/dee/smart__protocol_8cc.html" target="_top" xlink:title=" ">
<polygon fill="white" stroke="black" points="464.5,-56.5 464.5,-75.5 558.5,-75.5 558.5,-56.5 464.5,-56.5"/>
<text text-anchor="middle" x="511.5" y="-63.5" font-family="Helvetica,sans-Serif" font-size="10.00">smart_protocol.cc</text>
</a>
</g>
</g>
<!-- Node4&#45;&gt;Node10 -->
<g id="edge10" class="edge">
<title>Node4&#45;&gt;Node10</title>
<path fill="none" stroke="midnightblue" d="M390.83,-109.04C420,-98.88 461.14,-84.55 487.05,-75.52"/>
<polygon fill="midnightblue" stroke="midnightblue" points="389.35,-105.85 381.06,-112.44 391.66,-112.46 389.35,-105.85"/>
</g>
<!-- Node11&#45;&gt;Node4 -->
<g id="edge13" class="edge">
<title>Node11&#45;&gt;Node4</title>
<path fill="none" stroke="midnightblue" d="M312.97,-161.54C323.84,-151.91 337.44,-139.87 346.52,-131.83"/>
<polygon fill="midnightblue" stroke="midnightblue" points="310.47,-159.07 305.3,-168.32 315.11,-164.32 310.47,-159.07"/>
</g>
<!-- Node11&#45;&gt;Node5 -->
<g id="edge12" class="edge">
<title>Node11&#45;&gt;Node5</title>
<path fill="none" stroke="midnightblue" d="M266.79,-164.16C216.03,-141.47 111.74,-94.83 68.71,-75.59"/>
<polygon fill="midnightblue" stroke="midnightblue" points="265.64,-167.48 276.2,-168.37 268.5,-161.09 265.64,-167.48"/>
</g>
<!-- Node11&#45;&gt;Node6 -->
<g id="edge14" class="edge">
<title>Node11&#45;&gt;Node6</title>
<path fill="none" stroke="midnightblue" d="M277,-161.82C248.46,-138.39 194.62,-94.19 171.97,-75.59"/>
<polygon fill="midnightblue" stroke="midnightblue" points="275.04,-164.73 284.99,-168.37 279.48,-159.32 275.04,-164.73"/>
</g>
<!-- Node13&#45;&gt;Node2 -->
<g id="edge18" class="edge">
<title>Node13&#45;&gt;Node2</title>
<path fill="none" stroke="midnightblue" d="M723.59,-104.33C736.28,-89.36 756.87,-67.95 779.5,-56 845.49,-21.16 871.04,-37.82 943.5,-20 946.38,-19.29 949.4,-18.52 952.39,-17.73"/>
<polygon fill="midnightblue" stroke="midnightblue" points="720.71,-102.33 717.08,-112.28 726.13,-106.76 720.71,-102.33"/>
</g>
<!-- Node13&#45;&gt;Node8 -->
<g id="edge24" class="edge">
<title>Node13&#45;&gt;Node8</title>
<path fill="none" stroke="midnightblue" d="M684.69,-107.73C665.25,-97.73 639.15,-84.31 622.33,-75.65"/>
<polygon fill="midnightblue" stroke="midnightblue" points="683.14,-110.86 693.63,-112.32 686.34,-104.64 683.14,-110.86"/>
</g>
<!-- Node13&#45;&gt;Node12 -->
<g id="edge23" class="edge">
<title>Node13&#45;&gt;Node12</title>
<path fill="none" stroke="midnightblue" d="M737.5,-108.1C758.61,-98.01 787.36,-84.27 805.68,-75.52"/>
<polygon fill="midnightblue" stroke="midnightblue" points="735.92,-104.97 728.41,-112.44 738.94,-111.29 735.92,-104.97"/>
</g>
<!-- Node14 -->
<g id="node14" class="node">
<title>Node14</title>
<g id="a_node14"><a xlink:href="../../d9/d5a/lua__node_8h.html" target="_top" xlink:title=" ">
<polygon fill="white" stroke="black" points="877,-56.5 877,-75.5 940,-75.5 940,-56.5 877,-56.5"/>
<text text-anchor="middle" x="908.5" y="-63.5" font-family="Helvetica,sans-Serif" font-size="10.00">lua_node.h</text>
</a>
</g>
</g>
<!-- Node13&#45;&gt;Node14 -->
<g id="edge19" class="edge">
<title>Node13&#45;&gt;Node14</title>
<path fill="none" stroke="midnightblue" d="M747.16,-111C784.47,-100.83 841.68,-85.22 877,-75.59"/>
<polygon fill="midnightblue" stroke="midnightblue" points="745.93,-107.71 737.2,-113.72 747.77,-114.46 745.93,-107.71"/>
</g>
<!-- Node16 -->
<g id="node16" class="node">
<title>Node16</title>
<g id="a_node16"><a xlink:href="../../df/de4/bind__crypto_8cc.html" target="_top" xlink:title=" ">
<polygon fill="white" stroke="black" points="652,-56.5 652,-75.5 731,-75.5 731,-56.5 652,-56.5"/>
<text text-anchor="middle" x="691.5" y="-63.5" font-family="Helvetica,sans-Serif" font-size="10.00">bind_crypto.cc</text>
</a>
</g>
</g>
<!-- Node13&#45;&gt;Node16 -->
<g id="edge22" class="edge">
<title>Node13&#45;&gt;Node16</title>
<path fill="none" stroke="midnightblue" d="M703.95,-102.4C700.78,-93.36 697.11,-82.94 694.58,-75.75"/>
<polygon fill="midnightblue" stroke="midnightblue" points="700.74,-103.81 707.36,-112.08 707.35,-101.49 700.74,-103.81"/>
</g>
<!-- Node14&#45;&gt;Node2 -->
<g id="edge20" class="edge">
<title>Node14&#45;&gt;Node2</title>
<path fill="none" stroke="midnightblue" d="M927.26,-50.1C939.5,-40.38 955.06,-28.03 965.38,-19.83"/>
<polygon fill="midnightblue" stroke="midnightblue" points="925.08,-47.36 919.43,-56.32 929.43,-52.85 925.08,-47.36"/>
</g>
<!-- Node15 -->
<g id="node15" class="node">
<title>Node15</title>
<g id="a_node15"><a xlink:href="../../db/d7e/lua__node_8cc.html" target="_top" xlink:title=" ">
<polygon fill="white" stroke="black" points="866.5,-0.5 866.5,-19.5 934.5,-19.5 934.5,-0.5 866.5,-0.5"/>
<text text-anchor="middle" x="900.5" y="-7.5" font-family="Helvetica,sans-Serif" font-size="10.00">lua_node.cc</text>
</a>
</g>
</g>
<!-- Node14&#45;&gt;Node15 -->
<g id="edge21" class="edge">
<title>Node14&#45;&gt;Node15</title>
<path fill="none" stroke="midnightblue" d="M905.7,-46.1C904.37,-37.14 902.85,-26.86 901.8,-19.75"/>
<polygon fill="midnightblue" stroke="midnightblue" points="902.25,-46.7 907.18,-56.08 909.18,-45.68 902.25,-46.7"/>
</g>
<!-- Node17&#45;&gt;Node9 -->
<g id="edge26" class="edge">
<title>Node17&#45;&gt;Node9</title>
<path fill="none" stroke="midnightblue" d="M459.75,-105.54C448.69,-95.91 434.87,-83.87 425.64,-75.83"/>
<polygon fill="midnightblue" stroke="midnightblue" points="457.7,-108.4 467.54,-112.32 462.3,-103.12 457.7,-108.4"/>
</g>
<!-- Node18&#45;&gt;Node2 -->
<g id="edge28" class="edge">
<title>Node18&#45;&gt;Node2</title>
<path fill="none" stroke="midnightblue" d="M916.12,-158.39C930.79,-122.59 962.43,-45.34 972.99,-19.57"/>
<polygon fill="midnightblue" stroke="midnightblue" points="912.71,-157.49 912.16,-168.08 919.19,-160.15 912.71,-157.49"/>
</g>
<!-- Node18&#45;&gt;Node10 -->
<g id="edge38" class="edge">
<title>Node18&#45;&gt;Node10</title>
<path fill="none" stroke="midnightblue" d="M853.57,-169.36C805.92,-162.02 735.37,-149.48 675.5,-132 621.11,-116.12 559.68,-89.25 529.8,-75.56"/>
<polygon fill="midnightblue" stroke="midnightblue" points="853.27,-172.85 863.68,-170.89 854.31,-165.93 853.27,-172.85"/>
</g>
<!-- Node18&#45;&gt;Node14 -->
<g id="edge29" class="edge">
<title>Node18&#45;&gt;Node14</title>
<path fill="none" stroke="midnightblue" d="M908.5,-158.35C908.5,-134.25 908.5,-93.31 908.5,-75.59"/>
<polygon fill="midnightblue" stroke="midnightblue" points="905,-158.37 908.5,-168.37 912,-158.37 905,-158.37"/>
</g>
<!-- Node19 -->
<g id="node19" class="node">
<title>Node19</title>
<g id="a_node19"><a xlink:href="../../d1/d77/node_8h.html" target="_top" xlink:title=" ">
<polygon fill="white" stroke="black" points="1017,-112.5 1017,-131.5 1062,-131.5 1062,-112.5 1017,-112.5"/>
<text text-anchor="middle" x="1039.5" y="-119.5" font-family="Helvetica,sans-Serif" font-size="10.00">node.h</text>
</a>
</g>
</g>
<!-- Node18&#45;&gt;Node19 -->
<g id="edge30" class="edge">
<title>Node18&#45;&gt;Node19</title>
<path fill="none" stroke="midnightblue" d="M938.82,-164.5C963.38,-154.38 997.32,-140.39 1018.84,-131.52"/>
<polygon fill="midnightblue" stroke="midnightblue" points="937.17,-161.4 929.26,-168.44 939.84,-167.87 937.17,-161.4"/>
</g>
<!-- Node19&#45;&gt;Node2 -->
<g id="edge31" class="edge">
<title>Node19&#45;&gt;Node2</title>
<path fill="none" stroke="midnightblue" d="M1029.56,-103.64C1015.87,-79.74 991.75,-37.63 981.42,-19.59"/>
<polygon fill="midnightblue" stroke="midnightblue" points="1026.55,-105.43 1034.56,-112.37 1032.62,-101.95 1026.55,-105.43"/>
</g>
<!-- Node19&#45;&gt;Node14 -->
<g id="edge32" class="edge">
<title>Node19&#45;&gt;Node14</title>
<path fill="none" stroke="midnightblue" d="M1009.18,-108.5C984.62,-98.38 950.68,-84.39 929.16,-75.52"/>
<polygon fill="midnightblue" stroke="midnightblue" points="1008.16,-111.87 1018.74,-112.44 1010.83,-105.4 1008.16,-111.87"/>
</g>
<!-- Node20 -->
<g id="node20" class="node">
<title>Node20</title>
<g id="a_node20"><a xlink:href="../../dc/dfd/node_8cc.html" target="_top" xlink:title=" ">
<polygon fill="white" stroke="black" points="1034.5,-56.5 1034.5,-75.5 1084.5,-75.5 1084.5,-56.5 1034.5,-56.5"/>
<text text-anchor="middle" x="1059.5" y="-63.5" font-family="Helvetica,sans-Serif" font-size="10.00">node.cc</text>
</a>
</g>
</g>
<!-- Node19&#45;&gt;Node20 -->
<g id="edge33" class="edge">
<title>Node19&#45;&gt;Node20</title>
<path fill="none" stroke="midnightblue" d="M1046.28,-102.69C1049.65,-93.59 1053.57,-83.01 1056.26,-75.75"/>
<polygon fill="midnightblue" stroke="midnightblue" points="1042.99,-101.49 1042.8,-112.08 1049.56,-103.92 1042.99,-101.49"/>
</g>
<!-- Node21 -->
<g id="node21" class="node">
<title>Node21</title>
<g id="a_node21"><a xlink:href="../../dc/d32/node__updater_8h.html" target="_top" xlink:title=" ">
<polygon fill="white" stroke="black" points="1180,-56.5 1180,-75.5 1263,-75.5 1263,-56.5 1180,-56.5"/>
<text text-anchor="middle" x="1221.5" y="-63.5" font-family="Helvetica,sans-Serif" font-size="10.00">node_updater.h</text>
</a>
</g>
</g>
<!-- Node19&#45;&gt;Node21 -->
<g id="edge34" class="edge">
<title>Node19&#45;&gt;Node21</title>
<path fill="none" stroke="midnightblue" d="M1072.19,-111.3C1106.54,-101.11 1160.06,-85.23 1192.83,-75.51"/>
<polygon fill="midnightblue" stroke="midnightblue" points="1070.77,-108.07 1062.18,-114.27 1072.76,-114.78 1070.77,-108.07"/>
</g>
<!-- Node23 -->
<g id="node23" class="node">
<title>Node23</title>
<g id="a_node23"><a xlink:href="../../df/dd2/testnet_8cc.html" target="_top" xlink:title=" ">
<polygon fill="white" stroke="black" points="1103,-56.5 1103,-75.5 1162,-75.5 1162,-56.5 1103,-56.5"/>
<text text-anchor="middle" x="1132.5" y="-63.5" font-family="Helvetica,sans-Serif" font-size="10.00">testnet.cc</text>
</a>
</g>
</g>
<!-- Node19&#45;&gt;Node23 -->
<g id="edge37" class="edge">
<title>Node19&#45;&gt;Node23</title>
<path fill="none" stroke="midnightblue" d="M1063.31,-107.18C1080.42,-97.24 1102.97,-84.15 1117.6,-75.65"/>
<polygon fill="midnightblue" stroke="midnightblue" points="1061.33,-104.28 1054.44,-112.32 1064.85,-110.33 1061.33,-104.28"/>
</g>
<!-- Node21&#45;&gt;Node2 -->
<g id="edge35" class="edge">
<title>Node21&#45;&gt;Node2</title>
<path fill="none" stroke="midnightblue" d="M1172.67,-54.24C1120.67,-42.78 1040.48,-25.1 1000.66,-16.32"/>
<polygon fill="midnightblue" stroke="midnightblue" points="1172.16,-57.71 1182.68,-56.44 1173.67,-50.87 1172.16,-57.71"/>
</g>
<!-- Node22 -->
<g id="node22" class="node">
<title>Node22</title>
<g id="a_node22"><a xlink:href="../../d1/d13/node__updater_8cc.html" target="_top" xlink:title=" ">
<polygon fill="white" stroke="black" points="1177.5,-0.5 1177.5,-19.5 1265.5,-19.5 1265.5,-0.5 1177.5,-0.5"/>
<text text-anchor="middle" x="1221.5" y="-7.5" font-family="Helvetica,sans-Serif" font-size="10.00">node_updater.cc</text>
</a>
</g>
</g>
<!-- Node21&#45;&gt;Node22 -->
<g id="edge36" class="edge">
<title>Node21&#45;&gt;Node22</title>
<path fill="none" stroke="midnightblue" d="M1221.5,-45.8C1221.5,-36.91 1221.5,-26.78 1221.5,-19.75"/>
<polygon fill="midnightblue" stroke="midnightblue" points="1218,-46.08 1221.5,-56.08 1225,-46.08 1218,-46.08"/>
</g>
</g>
</svg>
