<?xml version="1.0" encoding="UTF-8" standalone="no"?>
<!DOCTYPE svg PUBLIC "-//W3C//DTD SVG 1.1//EN"
 "http://www.w3.org/Graphics/SVG/1.1/DTD/svg11.dtd">
<!-- Generated by graphviz version 2.42.3 ()
 -->
<!-- Title: automaton::core::network::tcp_connection Pages: 1 -->
<svg width="694pt" height="122pt"
 viewBox="0.00 0.00 694.00 121.50" xmlns="http://www.w3.org/2000/svg" xmlns:xlink="http://www.w3.org/1999/xlink">
<g id="graph0" class="graph" transform="scale(1 1) rotate(0) translate(4 117.5)">
<title>automaton::core::network::tcp_connection</title>
<polygon fill="white" stroke="transparent" points="-4,4 -4,-117.5 690,-117.5 690,4 -4,4"/>
<!-- Node1 -->
<g id="node1" class="node">
<title>Node1</title>
<g id="a_node1"><a xlink:title=" ">
<polygon fill="#bfbfbf" stroke="black" points="561,-12.5 561,-42.5 686,-42.5 686,-12.5 561,-12.5"/>
<text text-anchor="start" x="569" y="-30.5" font-family="Helvetica,sans-Serif" font-size="10.00">automaton::core::network</text>
<text text-anchor="middle" x="623.5" y="-19.5" font-family="Helvetica,sans-Serif" font-size="10.00">::tcp_connection</text>
</a>
</g>
</g>
<!-- Node2 -->
<g id="node2" class="node">
<title>Node2</title>
<g id="a_node2"><a xlink:href="../../d9/dfe/classautomaton_1_1core_1_1network_1_1connection.html" target="_top" xlink:title=" ">
<polygon fill="white" stroke="black" points="389,-49.5 389,-79.5 514,-79.5 514,-49.5 389,-49.5"/>
<text text-anchor="start" x="397" y="-67.5" font-family="Helvetica,sans-Serif" font-size="10.00">automaton::core::network</text>
<text text-anchor="middle" x="451.5" y="-56.5" font-family="Helvetica,sans-Serif" font-size="10.00">::connection</text>
</a>
</g>
</g>
<!-- Node2&#45;&gt;Node1 -->
<g id="edge1" class="edge">
<title>Node2&#45;&gt;Node1</title>
<path fill="none" stroke="midnightblue" d="M524.45,-48.84C536.61,-46.19 549.12,-43.47 560.98,-40.89"/>
<polygon fill="midnightblue" stroke="midnightblue" points="523.38,-45.49 514.35,-51.04 524.87,-52.33 523.38,-45.49"/>
</g>
<!-- Node3 -->
<g id="node3" class="node">
<title>Node3</title>
<g id="a_node3"><a xlink:title=" ">
<polygon fill="white" stroke="#bfbfbf" points="175,-72 175,-113 309,-113 309,-72 175,-72"/>
<text text-anchor="start" x="183" y="-101" font-family="Helvetica,sans-Serif" font-size="10.00">std::shared_ptr&lt; automaton</text>
<text text-anchor="start" x="183" y="-90" font-family="Helvetica,sans-Serif" font-size="10.00">::core::network::connection</text>
<text text-anchor="middle" x="242" y="-79" font-family="Helvetica,sans-Serif" font-size="10.00">::connection_handler &gt;</text>
</a>
</g>
</g>
<!-- Node3&#45;&gt;Node2 -->
<g id="edge2" class="edge">
<title>Node3&#45;&gt;Node2</title>
<path fill="none" stroke="#9a32cd" stroke-dasharray="5,2" d="M319.24,-82.21C342.14,-79.12 366.95,-75.77 388.78,-72.83"/>
<polygon fill="#9a32cd" stroke="#9a32cd" points="318.67,-78.76 309.22,-83.56 319.6,-85.69 318.67,-78.76"/>
<text text-anchor="middle" x="344" y="-83.5" font-family="Helvetica,sans-Serif" font-size="10.00"> handler</text>
</g>
<!-- Node4 -->
<g id="node4" class="node">
<title>Node4</title>
<g id="a_node4"><a xlink:href="../../d6/d94/classautomaton_1_1core_1_1network_1_1connection_1_1connection__handler.html" target="_top" xlink:title=" ">
<polygon fill="white" stroke="black" points="0,-72 0,-113 125,-113 125,-72 0,-72"/>
<text text-anchor="start" x="8" y="-101" font-family="Helvetica,sans-Serif" font-size="10.00">automaton::core::network</text>
<text text-anchor="start" x="8" y="-90" font-family="Helvetica,sans-Serif" font-size="10.00">::connection::connection</text>
<text text-anchor="middle" x="62.5" y="-79" font-family="Helvetica,sans-Serif" font-size="10.00">_handler</text>
</a>
</g>
</g>
<!-- Node4&#45;&gt;Node3 -->
<g id="edge3" class="edge">
<title>Node4&#45;&gt;Node3</title>
<path fill="none" stroke="#9a32cd" stroke-dasharray="5,2" d="M135.44,-92.5C148.51,-92.5 162.09,-92.5 174.99,-92.5"/>
<polygon fill="#9a32cd" stroke="#9a32cd" points="135.08,-89 125.08,-92.5 135.08,-96 135.08,-89"/>
<text text-anchor="middle" x="150" y="-95.5" font-family="Helvetica,sans-Serif" font-size="10.00"> ptr</text>
</g>
<!-- Node5 -->
<g id="node5" class="node">
<title>Node5</title>
<g id="a_node5"><a xlink:title=" ">
<polygon fill="white" stroke="#bfbfbf" points="216.5,-34 216.5,-53 267.5,-53 267.5,-34 216.5,-34"/>
<text text-anchor="middle" x="242" y="-41" font-family="Helvetica,sans-Serif" font-size="10.00">uint32_t</text>
</a>
</g>
</g>
<!-- Node5&#45;&gt;Node2 -->
<g id="edge4" class="edge">
<title>Node5&#45;&gt;Node2</title>
<path fill="none" stroke="#9a32cd" stroke-dasharray="5,2" d="M278.09,-45.17C301.6,-46.47 333.2,-48.54 361,-51.5 370.06,-52.46 379.6,-53.66 388.95,-54.93"/>
<polygon fill="#9a32cd" stroke="#9a32cd" points="278.08,-41.67 267.91,-44.63 277.71,-48.66 278.08,-41.67"/>
<text text-anchor="middle" x="344" y="-54.5" font-family="Helvetica,sans-Serif" font-size="10.00"> id</text>
</g>
<!-- Node6 -->
<g id="node6" class="node">
<title>Node6</title>
<g id="a_node6"><a xlink:title=" ">
<polygon fill="white" stroke="#bfbfbf" points="379,-0.5 379,-30.5 524,-30.5 524,-0.5 379,-0.5"/>
<text text-anchor="start" x="387" y="-18.5" font-family="Helvetica,sans-Serif" font-size="10.00">std::enable_shared</text>
<text text-anchor="middle" x="451.5" y="-7.5" font-family="Helvetica,sans-Serif" font-size="10.00">_from_this&lt; tcp_connection &gt;</text>
</a>
</g>
</g>
<!-- Node6&#45;&gt;Node1 -->
<g id="edge5" class="edge">
<title>Node6&#45;&gt;Node1</title>
<path fill="none" stroke="midnightblue" d="M534.22,-21.27C543.21,-21.9 552.25,-22.54 560.94,-23.15"/>
<polygon fill="midnightblue" stroke="midnightblue" points="534.32,-17.77 524.1,-20.55 533.83,-24.75 534.32,-17.77"/>
</g>
</g>
</svg>
