<?xml version="1.0" encoding="UTF-8" standalone="no"?>
<!DOCTYPE svg PUBLIC "-//W3C//DTD SVG 1.1//EN"
 "http://www.w3.org/Graphics/SVG/1.1/DTD/svg11.dtd">
<!-- Generated by graphviz version 2.42.3 ()
 -->
<!-- Title: automaton::core::network::simulated_acceptor Pages: 1 -->
<!--zoomable 329 -->
<svg id="main" version="1.1" xmlns="http://www.w3.org/2000/svg" xmlns:xlink="http://www.w3.org/1999/xlink" xml:space="preserve" onload="init(evt)">
<style type="text/css"><![CDATA[
.edge:hover path { stroke: red; }
.edge:hover polygon { stroke: red; fill: red; }
]]></style>
<script type="text/javascript"><![CDATA[
var edges = document.getElementsByTagName('g');
if (edges && edges.length) {
  for (var i=0;i<edges.length;i++) {
    if (edges[i].id.substr(0,4)=='edge') {
      edges[i].setAttribute('class','edge');
    }
  }
}
]]></script>
        <defs>
                <circle id="rim" cx="0" cy="0" r="7"/>
                <circle id="rim2" cx="0" cy="0" r="3.5"/>
                <g id="zoomPlus">
                        <use xlink:href="#rim" fill="#404040">
                                <set attributeName="fill" to="#808080" begin="zoomplus.mouseover" end="zoomplus.mouseout"/>
                        </use>
                        <path d="M-4,0h8M0,-4v8" fill="none" stroke="white" stroke-width="1.5" pointer-events="none"/>
                </g>
                <g id="zoomMin">
                        <use xlink:href="#rim" fill="#404040">
                                <set attributeName="fill" to="#808080" begin="zoomminus.mouseover" end="zoomminus.mouseout"/>
                        </use>
                        <path d="M-4,0h8" fill="none" stroke="white" stroke-width="1.5" pointer-events="none"/>
                </g>
                <g id="dirArrow">
                        <path fill="none" stroke="white" stroke-width="1.5" d="M0,-3.0v7 M-2.5,-0.5L0,-3.0L2.5,-0.5"/>
                </g>
               <g id="resetDef">
                       <use xlink:href="#rim2" fill="#404040">
                               <set attributeName="fill" to="#808080" begin="reset.mouseover" end="reset.mouseout"/>
                       </use>
               </g>
        </defs>

<script type="text/javascript">
var viewWidth = 839;
var viewHeight = 329;
var sectionId = 'dynsection-1';
</script>
<script xlink:href="../../svgpan.js"/>
<svg id="graph" class="graph">
<g id="viewport">
<title>automaton::core::network::simulated_acceptor</title>
<polygon fill="white" stroke="transparent" points="-4,4 -4,-324.5 835,-324.5 835,4 -4,4"/>
<!-- Node1 -->
<g id="node1" class="node">
<title>Node1</title>
<g id="a_node1"><a xlink:title=" ">
<polygon fill="#bfbfbf" stroke="black" points="706,-146.5 706,-176.5 831,-176.5 831,-146.5 706,-146.5"/>
<text text-anchor="start" x="714" y="-164.5" font-family="Helvetica,sans-Serif" font-size="10.00">automaton::core::network</text>
<text text-anchor="middle" x="768.5" y="-153.5" font-family="Helvetica,sans-Serif" font-size="10.00">::simulated_acceptor</text>
</a>
</g>
</g>
<!-- Node2 -->
<g id="node2" class="node">
<title>Node2</title>
<g id="a_node2"><a xlink:href="../../db/d4c/classautomaton_1_1core_1_1network_1_1acceptor.html" target="_top" xlink:title=" ">
<polygon fill="white" stroke="black" points="440.5,-262.5 440.5,-292.5 565.5,-292.5 565.5,-262.5 440.5,-262.5"/>
<text text-anchor="start" x="448.5" y="-280.5" font-family="Helvetica,sans-Serif" font-size="10.00">automaton::core::network</text>
<text text-anchor="middle" x="503" y="-269.5" font-family="Helvetica,sans-Serif" font-size="10.00">::acceptor</text>
</a>
</g>
</g>
<!-- Node2&#45;&gt;Node1 -->
<g id="edge1" class="edge">
<title>Node2&#45;&gt;Node1</title>
<path fill="none" stroke="midnightblue" d="M575.9,-276.1C611.41,-272.81 653.84,-264.84 688,-246.5 719.15,-229.77 744.86,-196.19 758.02,-176.62"/>
<polygon fill="midnightblue" stroke="midnightblue" points="575.28,-272.63 565.6,-276.94 575.85,-279.61 575.28,-272.63"/>
</g>
<!-- Node3 -->
<g id="node3" class="node">
<title>Node3</title>
<g id="a_node3"><a xlink:title=" ">
<polygon fill="white" stroke="#bfbfbf" points="228.5,-223 228.5,-242 279.5,-242 279.5,-223 228.5,-223"/>
<text text-anchor="middle" x="254" y="-230" font-family="Helvetica,sans-Serif" font-size="10.00">uint32_t</text>
</a>
</g>
</g>
<!-- Node3&#45;&gt;Node1 -->
<g id="edge10" class="edge">
<title>Node3&#45;&gt;Node1</title>
<path fill="none" stroke="#9a32cd" stroke-dasharray="5,2" d="M289.72,-230.74C347.9,-227.52 468.68,-219.68 570,-205.5 622.92,-198.1 635.92,-194.44 688,-182.5 695.93,-180.68 704.27,-178.63 712.45,-176.54"/>
<polygon fill="#9a32cd" stroke="#9a32cd" points="289.4,-227.25 279.61,-231.29 289.78,-234.24 289.4,-227.25"/>
<text text-anchor="middle" x="503" y="-222.5" font-family="Helvetica,sans-Serif" font-size="10.00"> address</text>
</g>
<!-- Node3&#45;&gt;Node2 -->
<g id="edge2" class="edge">
<title>Node3&#45;&gt;Node2</title>
<path fill="none" stroke="#9a32cd" stroke-dasharray="5,2" d="M289.89,-238.86C328.91,-245.97 392.84,-257.61 440.33,-266.26"/>
<polygon fill="#9a32cd" stroke="#9a32cd" points="290.05,-235.33 279.59,-236.98 288.8,-242.22 290.05,-235.33"/>
<text text-anchor="middle" x="378.5" y="-264.5" font-family="Helvetica,sans-Serif" font-size="10.00"> id</text>
</g>
<!-- Node9 -->
<g id="node9" class="node">
<title>Node9</title>
<g id="a_node9"><a xlink:href="../../de/ddc/structautomaton_1_1core_1_1network_1_1acceptor__params.html" target="_top" xlink:title=" ">
<polygon fill="white" stroke="black" points="440.5,-106.5 440.5,-136.5 565.5,-136.5 565.5,-106.5 440.5,-106.5"/>
<text text-anchor="start" x="448.5" y="-124.5" font-family="Helvetica,sans-Serif" font-size="10.00">automaton::core::network</text>
<text text-anchor="middle" x="503" y="-113.5" font-family="Helvetica,sans-Serif" font-size="10.00">::acceptor_params</text>
</a>
</g>
</g>
<!-- Node3&#45;&gt;Node9 -->
<g id="edge9" class="edge">
<title>Node3&#45;&gt;Node9</title>
<path fill="none" stroke="#9a32cd" stroke-dasharray="5,2" d="M282.36,-218.3C317.47,-200.32 380.49,-168.87 436,-145.5 443.3,-142.43 451.15,-139.36 458.8,-136.51"/>
<polygon fill="#9a32cd" stroke="#9a32cd" points="280.52,-215.31 273.22,-222.99 283.72,-221.53 280.52,-215.31"/>
<text text-anchor="middle" x="378.5" y="-202.5" font-family="Helvetica,sans-Serif" font-size="10.00"> max_connections</text>
<text text-anchor="middle" x="378.5" y="-191.5" font-family="Helvetica,sans-Serif" font-size="10.00">bandwidth</text>
</g>
<!-- Node4 -->
<g id="node4" class="node">
<title>Node4</title>
<g id="a_node4"><a xlink:title=" ">
<polygon fill="white" stroke="#bfbfbf" points="187,-279 187,-320 321,-320 321,-279 187,-279"/>
<text text-anchor="start" x="195" y="-308" font-family="Helvetica,sans-Serif" font-size="10.00">std::shared_ptr&lt; automaton</text>
<text text-anchor="start" x="195" y="-297" font-family="Helvetica,sans-Serif" font-size="10.00">::core::network::acceptor</text>
<text text-anchor="middle" x="254" y="-286" font-family="Helvetica,sans-Serif" font-size="10.00">::acceptor_handler &gt;</text>
</a>
</g>
</g>
<!-- Node4&#45;&gt;Node2 -->
<g id="edge3" class="edge">
<title>Node4&#45;&gt;Node2</title>
<path fill="none" stroke="#9a32cd" stroke-dasharray="5,2" d="M331.37,-292.7C366.36,-289.58 407.29,-285.94 440.3,-283"/>
<polygon fill="#9a32cd" stroke="#9a32cd" points="330.84,-289.23 321.19,-293.6 331.46,-296.2 330.84,-289.23"/>
<text text-anchor="middle" x="378.5" y="-294.5" font-family="Helvetica,sans-Serif" font-size="10.00"> handler</text>
</g>
<!-- Node5 -->
<g id="node5" class="node">
<title>Node5</title>
<g id="a_node5"><a xlink:href="../../d0/d47/classautomaton_1_1core_1_1network_1_1acceptor_1_1acceptor__handler.html" target="_top" xlink:title=" ">
<polygon fill="white" stroke="black" points="0,-284.5 0,-314.5 137,-314.5 137,-284.5 0,-284.5"/>
<text text-anchor="start" x="8" y="-302.5" font-family="Helvetica,sans-Serif" font-size="10.00">automaton::core::network</text>
<text text-anchor="middle" x="68.5" y="-291.5" font-family="Helvetica,sans-Serif" font-size="10.00">::acceptor::acceptor_handler</text>
</a>
</g>
</g>
<!-- Node5&#45;&gt;Node4 -->
<g id="edge4" class="edge">
<title>Node5&#45;&gt;Node4</title>
<path fill="none" stroke="#9a32cd" stroke-dasharray="5,2" d="M147.06,-299.5C160.29,-299.5 173.92,-299.5 186.82,-299.5"/>
<polygon fill="#9a32cd" stroke="#9a32cd" points="147.05,-296 137.05,-299.5 147.05,-303 147.05,-296"/>
<text text-anchor="middle" x="162" y="-302.5" font-family="Helvetica,sans-Serif" font-size="10.00"> ptr</text>
</g>
<!-- Node6 -->
<g id="node6" class="node">
<title>Node6</title>
<g id="a_node6"><a xlink:title=" ">
<polygon fill="white" stroke="#bfbfbf" points="446.5,-155 446.5,-196 559.5,-196 559.5,-155 446.5,-155"/>
<text text-anchor="start" x="454.5" y="-184" font-family="Helvetica,sans-Serif" font-size="10.00">std::enable_shared</text>
<text text-anchor="start" x="454.5" y="-173" font-family="Helvetica,sans-Serif" font-size="10.00">_from_this&lt; simulated</text>
<text text-anchor="middle" x="503" y="-162" font-family="Helvetica,sans-Serif" font-size="10.00">_acceptor &gt;</text>
</a>
</g>
</g>
<!-- Node6&#45;&gt;Node1 -->
<g id="edge5" class="edge">
<title>Node6&#45;&gt;Node1</title>
<path fill="none" stroke="midnightblue" d="M569.59,-172.01C611.2,-169.8 664.68,-166.96 705.56,-164.79"/>
<polygon fill="midnightblue" stroke="midnightblue" points="569.36,-168.52 559.56,-172.55 569.73,-175.51 569.36,-168.52"/>
</g>
<!-- Node7 -->
<g id="node7" class="node">
<title>Node7</title>
<g id="a_node7"><a xlink:title=" ">
<polygon fill="white" stroke="#bfbfbf" points="436,-47 436,-88 570,-88 570,-47 436,-47"/>
<text text-anchor="start" x="444" y="-76" font-family="Helvetica,sans-Serif" font-size="10.00">std::shared_ptr&lt; automaton</text>
<text text-anchor="start" x="444" y="-65" font-family="Helvetica,sans-Serif" font-size="10.00">::core::network::connection</text>
<text text-anchor="middle" x="503" y="-54" font-family="Helvetica,sans-Serif" font-size="10.00">::connection_handler &gt;</text>
</a>
</g>
</g>
<!-- Node7&#45;&gt;Node1 -->
<g id="edge6" class="edge">
<title>Node7&#45;&gt;Node1</title>
<path fill="none" stroke="#9a32cd" stroke-dasharray="5,2" d="M580.04,-77.31C614,-83.38 653.96,-92.89 688,-107.5 711,-117.37 734.34,-134.21 749.73,-146.47"/>
<polygon fill="#9a32cd" stroke="#9a32cd" points="580.61,-73.86 570.17,-75.62 579.43,-80.76 580.61,-73.86"/>
<text text-anchor="start" x="588" y="-121.5" font-family="Helvetica,sans-Serif" font-size="10.00"> accepted_connections</text>
<text text-anchor="middle" x="638" y="-110.5" font-family="Helvetica,sans-Serif" font-size="10.00">_handler</text>
</g>
<!-- Node8 -->
<g id="node8" class="node">
<title>Node8</title>
<g id="a_node8"><a xlink:href="../../d6/d94/classautomaton_1_1core_1_1network_1_1connection_1_1connection__handler.html" target="_top" xlink:title=" ">
<polygon fill="white" stroke="black" points="191.5,-49 191.5,-90 316.5,-90 316.5,-49 191.5,-49"/>
<text text-anchor="start" x="199.5" y="-78" font-family="Helvetica,sans-Serif" font-size="10.00">automaton::core::network</text>
<text text-anchor="start" x="199.5" y="-67" font-family="Helvetica,sans-Serif" font-size="10.00">::connection::connection</text>
<text text-anchor="middle" x="254" y="-56" font-family="Helvetica,sans-Serif" font-size="10.00">_handler</text>
</a>
</g>
</g>
<!-- Node8&#45;&gt;Node7 -->
<g id="edge7" class="edge">
<title>Node8&#45;&gt;Node7</title>
<path fill="none" stroke="#9a32cd" stroke-dasharray="5,2" d="M326.69,-68.92C361.16,-68.64 402.2,-68.31 435.91,-68.04"/>
<polygon fill="#9a32cd" stroke="#9a32cd" points="326.66,-65.42 316.69,-69 326.72,-72.42 326.66,-65.42"/>
<text text-anchor="middle" x="378.5" y="-71.5" font-family="Helvetica,sans-Serif" font-size="10.00"> ptr</text>
</g>
<!-- Node9&#45;&gt;Node1 -->
<g id="edge8" class="edge">
<title>Node9&#45;&gt;Node1</title>
<path fill="none" stroke="#9a32cd" stroke-dasharray="5,2" d="M575.89,-132.41C616.52,-138.58 666.79,-146.21 705.65,-152.11"/>
<polygon fill="#9a32cd" stroke="#9a32cd" points="576.19,-128.92 565.78,-130.88 575.14,-135.84 576.19,-128.92"/>
<text text-anchor="middle" x="638" y="-151.5" font-family="Helvetica,sans-Serif" font-size="10.00"> parameters</text>
</g>
<!-- Node10 -->
<g id="node10" class="node">
<title>Node10</title>
<g id="a_node10"><a xlink:title="STL class.">
<polygon fill="white" stroke="#bfbfbf" points="473.5,-8 473.5,-27 532.5,-27 532.5,-8 473.5,-8"/>
<text text-anchor="middle" x="503" y="-15" font-family="Helvetica,sans-Serif" font-size="10.00">std::string</text>
</a>
</g>
</g>
<!-- Node10&#45;&gt;Node1 -->
<g id="edge11" class="edge">
<title>Node10&#45;&gt;Node1</title>
<path fill="none" stroke="#9a32cd" stroke-dasharray="5,2" d="M542.66,-20.03C581.96,-24.16 643.26,-35 688,-63.5 721.26,-84.68 747.05,-124.53 759.43,-146.32"/>
<polygon fill="#9a32cd" stroke="#9a32cd" points="542.97,-16.54 532.68,-19.08 542.3,-23.51 542.97,-16.54"/>
<text text-anchor="middle" x="638" y="-66.5" font-family="Helvetica,sans-Serif" font-size="10.00"> original_address</text>
</g>
<!-- Node11 -->
<g id="node11" class="node">
<title>Node11</title>
<g id="a_node11"><a xlink:title="STL class.">
<polygon fill="white" stroke="#bfbfbf" points="207.5,-0.5 207.5,-30.5 300.5,-30.5 300.5,-0.5 207.5,-0.5"/>
<text text-anchor="start" x="215.5" y="-18.5" font-family="Helvetica,sans-Serif" font-size="10.00">std::basic_string&lt;</text>
<text text-anchor="middle" x="254" y="-7.5" font-family="Helvetica,sans-Serif" font-size="10.00"> char &gt;</text>
</a>
</g>
</g>
<!-- Node11&#45;&gt;Node10 -->
<g id="edge12" class="edge">
<title>Node11&#45;&gt;Node10</title>
<path fill="none" stroke="midnightblue" d="M310.7,-15.95C361.18,-16.36 433.57,-16.95 473.26,-17.27"/>
<polygon fill="midnightblue" stroke="midnightblue" points="310.62,-12.45 300.59,-15.87 310.56,-19.45 310.62,-12.45"/>
</g>
</g>
</svg>
        <g id="navigator" transform="translate(0 0)" fill="#404254">
                <rect fill="#f2f5e9" fill-opacity="0.5" stroke="#606060" stroke-width=".5" x="0" y="0" width="60" height="60"/>
                <use id="zoomplus" xlink:href="#zoomPlus" x="17" y="9" onmousedown="handleZoom(evt,'in')"/>
                <use id="zoomminus" xlink:href="#zoomMin" x="42" y="9" onmousedown="handleZoom(evt,'out')"/>
                <use id="reset" xlink:href="#resetDef" x="30" y="36" onmousedown="handleReset()"/>
                <g id="arrowUp" xlink:href="#dirArrow" transform="translate(30 24)" onmousedown="handlePan(0,-1)">
                  <use xlink:href="#rim" fill="#404040">
                        <set attributeName="fill" to="#808080" begin="arrowUp.mouseover" end="arrowUp.mouseout"/>
                  </use>
                  <path fill="none" stroke="white" stroke-width="1.5" d="M0,-3.0v7 M-2.5,-0.5L0,-3.0L2.5,-0.5"/>
                </g>
                <g id="arrowRight" xlink:href="#dirArrow" transform="rotate(90) translate(36 -43)" onmousedown="handlePan(1,0)">
                  <use xlink:href="#rim" fill="#404040">
                        <set attributeName="fill" to="#808080" begin="arrowRight.mouseover" end="arrowRight.mouseout"/>
                  </use>
                  <path fill="none" stroke="white" stroke-width="1.5" d="M0,-3.0v7 M-2.5,-0.5L0,-3.0L2.5,-0.5"/>
                </g>
                <g id="arrowDown" xlink:href="#dirArrow" transform="rotate(180) translate(-30 -48)" onmousedown="handlePan(0,1)">
                  <use xlink:href="#rim" fill="#404040">
                        <set attributeName="fill" to="#808080" begin="arrowDown.mouseover" end="arrowDown.mouseout"/>
                  </use>
                  <path fill="none" stroke="white" stroke-width="1.5" d="M0,-3.0v7 M-2.5,-0.5L0,-3.0L2.5,-0.5"/>
                </g>
                <g id="arrowLeft" xlink:href="#dirArrow" transform="rotate(270) translate(-36 17)" onmousedown="handlePan(-1,0)">
                  <use xlink:href="#rim" fill="#404040">
                        <set attributeName="fill" to="#808080" begin="arrowLeft.mouseover" end="arrowLeft.mouseout"/>
                  </use>
                  <path fill="none" stroke="white" stroke-width="1.5" d="M0,-3.0v7 M-2.5,-0.5L0,-3.0L2.5,-0.5"/>
                </g>
        </g>
        <svg viewBox="0 0 15 15" width="100%" height="30px" preserveAspectRatio="xMaxYMin meet">
         <g id="arrow_out" transform="scale(0.3 0.3)">
          <a xlink:href="classautomaton_1_1core_1_1network_1_1simulated__acceptor__coll__graph_org.svg" target="_base">
           <rect id="button" ry="5" rx="5" y="6" x="6" height="38" width="38"
                fill="#f2f5e9" fill-opacity="0.5" stroke="#606060" stroke-width="1.0"/>
           <path id="arrow"
             d="M 11.500037,31.436501 C 11.940474,20.09759 22.043105,11.32322 32.158766,21.979434 L 37.068811,17.246167 C 37.068811,17.246167 37.088388,32 37.088388,32 L 22.160133,31.978069 C 22.160133,31.978069 26.997745,27.140456 26.997745,27.140456 C 18.528582,18.264221 13.291696,25.230495 11.500037,31.436501 z"
             style="fill:#404040;"/>
          </a>
         </g>
        </svg>
</svg>
