<?xml version="1.0" encoding="UTF-8" standalone="no"?>
<!DOCTYPE svg PUBLIC "-//W3C//DTD SVG 1.1//EN"
 "http://www.w3.org/Graphics/SVG/1.1/DTD/svg11.dtd">
<!-- Generated by graphviz version 2.44.0 ()
 -->
<!-- Title: automaton::core::network::simulated_acceptor Pages: 1 -->
<svg width="836pt" height="329pt"
 viewBox="0.00 0.00 836.00 328.50" xmlns="http://www.w3.org/2000/svg" xmlns:xlink="http://www.w3.org/1999/xlink">
<g id="graph0" class="graph" transform="scale(1 1) rotate(0) translate(4 324.5)">
<title>automaton::core::network::simulated_acceptor</title>
<polygon fill="white" stroke="transparent" points="-4,4 -4,-324.5 832,-324.5 832,4 -4,4"/>
<!-- Node1 -->
<g id="node1" class="node">
<title>Node1</title>
<g id="a_node1"><a xlink:title=" ">
<polygon fill="#bfbfbf" stroke="black" points="703,-146.5 703,-176.5 828,-176.5 828,-146.5 703,-146.5"/>
<text text-anchor="start" x="711" y="-164.5" font-family="Helvetica,sans-Serif" font-size="10.00">automaton::core::network</text>
<text text-anchor="middle" x="765.5" y="-153.5" font-family="Helvetica,sans-Serif" font-size="10.00">::simulated_acceptor</text>
</a>
</g>
</g>
<!-- Node2 -->
<g id="node2" class="node">
<title>Node2</title>
<g id="a_node2"><a xlink:href="../../db/d4c/classautomaton_1_1core_1_1network_1_1acceptor.html" target="_top" xlink:title=" ">
<polygon fill="white" stroke="black" points="437.5,-262.5 437.5,-292.5 562.5,-292.5 562.5,-262.5 437.5,-262.5"/>
<text text-anchor="start" x="445.5" y="-280.5" font-family="Helvetica,sans-Serif" font-size="10.00">automaton::core::network</text>
<text text-anchor="middle" x="500" y="-269.5" font-family="Helvetica,sans-Serif" font-size="10.00">::acceptor</text>
</a>
</g>
</g>
<!-- Node2&#45;&gt;Node1 -->
<g id="edge1" class="edge">
<title>Node2&#45;&gt;Node1</title>
<path fill="none" stroke="midnightblue" d="M572.9,-276.1C608.41,-272.81 650.84,-264.84 685,-246.5 716.15,-229.77 741.86,-196.19 755.02,-176.62"/>
<polygon fill="midnightblue" stroke="midnightblue" points="572.28,-272.63 562.6,-276.94 572.85,-279.61 572.28,-272.63"/>
</g>
<!-- Node3 -->
<g id="node3" class="node">
<title>Node3</title>
<g id="a_node3"><a xlink:title=" ">
<polygon fill="white" stroke="#bfbfbf" points="228.5,-223 228.5,-242 279.5,-242 279.5,-223 228.5,-223"/>
<text text-anchor="middle" x="254" y="-230" font-family="Helvetica,sans-Serif" font-size="10.00">uint32_t</text>
</a>
</g>
</g>
<!-- Node3&#45;&gt;Node1 -->
<g id="edge10" class="edge">
<title>Node3&#45;&gt;Node1</title>
<path fill="none" stroke="#9a32cd" stroke-dasharray="5,2" d="M289.83,-230.7C347.62,-227.43 466.89,-219.55 567,-205.5 619.91,-198.08 632.92,-194.44 685,-182.5 692.93,-180.68 701.27,-178.63 709.45,-176.54"/>
<polygon fill="#9a32cd" stroke="#9a32cd" points="289.56,-227.21 279.77,-231.25 289.95,-234.19 289.56,-227.21"/>
<text text-anchor="middle" x="500" y="-222.5" font-family="Helvetica,sans-Serif" font-size="10.00"> address</text>
</g>
<!-- Node3&#45;&gt;Node2 -->
<g id="edge2" class="edge">
<title>Node3&#45;&gt;Node2</title>
<path fill="none" stroke="#9a32cd" stroke-dasharray="5,2" d="M289.89,-238.93C328.26,-246.01 390.66,-257.52 437.32,-266.12"/>
<polygon fill="#9a32cd" stroke="#9a32cd" points="290.21,-235.43 279.74,-237.06 288.94,-242.32 290.21,-235.43"/>
<text text-anchor="middle" x="377" y="-264.5" font-family="Helvetica,sans-Serif" font-size="10.00"> id</text>
</g>
<!-- Node9 -->
<g id="node9" class="node">
<title>Node9</title>
<g id="a_node9"><a xlink:href="../../de/ddc/structautomaton_1_1core_1_1network_1_1acceptor__params.html" target="_top" xlink:title=" ">
<polygon fill="white" stroke="black" points="437.5,-106.5 437.5,-136.5 562.5,-136.5 562.5,-106.5 437.5,-106.5"/>
<text text-anchor="start" x="445.5" y="-124.5" font-family="Helvetica,sans-Serif" font-size="10.00">automaton::core::network</text>
<text text-anchor="middle" x="500" y="-113.5" font-family="Helvetica,sans-Serif" font-size="10.00">::acceptor_params</text>
</a>
</g>
</g>
<!-- Node3&#45;&gt;Node9 -->
<g id="edge9" class="edge">
<title>Node3&#45;&gt;Node9</title>
<path fill="none" stroke="#9a32cd" stroke-dasharray="5,2" d="M281.87,-218.26C316.37,-200.23 378.31,-168.73 433,-145.5 440.18,-142.45 447.9,-139.42 455.43,-136.6"/>
<polygon fill="#9a32cd" stroke="#9a32cd" points="280.13,-215.22 272.9,-222.96 283.38,-221.42 280.13,-215.22"/>
<text text-anchor="middle" x="377" y="-202.5" font-family="Helvetica,sans-Serif" font-size="10.00"> bandwidth</text>
<text text-anchor="middle" x="377" y="-191.5" font-family="Helvetica,sans-Serif" font-size="10.00">max_connections</text>
</g>
<!-- Node4 -->
<g id="node4" class="node">
<title>Node4</title>
<g id="a_node4"><a xlink:title=" ">
<polygon fill="white" stroke="#bfbfbf" points="187,-279 187,-320 321,-320 321,-279 187,-279"/>
<text text-anchor="start" x="195" y="-308" font-family="Helvetica,sans-Serif" font-size="10.00">std::shared_ptr&lt; automaton</text>
<text text-anchor="start" x="195" y="-297" font-family="Helvetica,sans-Serif" font-size="10.00">::core::network::acceptor</text>
<text text-anchor="middle" x="254" y="-286" font-family="Helvetica,sans-Serif" font-size="10.00">::acceptor_handler &gt;</text>
</a>
</g>
</g>
<!-- Node4&#45;&gt;Node2 -->
<g id="edge3" class="edge">
<title>Node4&#45;&gt;Node2</title>
<path fill="none" stroke="#9a32cd" stroke-dasharray="5,2" d="M331.4,-292.61C365.42,-289.54 404.98,-285.98 437.11,-283.08"/>
<polygon fill="#9a32cd" stroke="#9a32cd" points="330.68,-289.16 321.03,-293.55 331.3,-296.13 330.68,-289.16"/>
<text text-anchor="middle" x="377" y="-294.5" font-family="Helvetica,sans-Serif" font-size="10.00"> handler</text>
</g>
<!-- Node5 -->
<g id="node5" class="node">
<title>Node5</title>
<g id="a_node5"><a xlink:href="../../d0/d47/classautomaton_1_1core_1_1network_1_1acceptor_1_1acceptor__handler.html" target="_top" xlink:title=" ">
<polygon fill="white" stroke="black" points="0,-284.5 0,-314.5 137,-314.5 137,-284.5 0,-284.5"/>
<text text-anchor="start" x="8" y="-302.5" font-family="Helvetica,sans-Serif" font-size="10.00">automaton::core::network</text>
<text text-anchor="middle" x="68.5" y="-291.5" font-family="Helvetica,sans-Serif" font-size="10.00">::acceptor::acceptor_handler</text>
</a>
</g>
</g>
<!-- Node5&#45;&gt;Node4 -->
<g id="edge4" class="edge">
<title>Node5&#45;&gt;Node4</title>
<path fill="none" stroke="#9a32cd" stroke-dasharray="5,2" d="M147.06,-299.5C160.29,-299.5 173.92,-299.5 186.82,-299.5"/>
<polygon fill="#9a32cd" stroke="#9a32cd" points="147.05,-296 137.05,-299.5 147.05,-303 147.05,-296"/>
<text text-anchor="middle" x="162" y="-302.5" font-family="Helvetica,sans-Serif" font-size="10.00"> ptr</text>
</g>
<!-- Node6 -->
<g id="node6" class="node">
<title>Node6</title>
<g id="a_node6"><a xlink:title=" ">
<polygon fill="white" stroke="#bfbfbf" points="443.5,-155 443.5,-196 556.5,-196 556.5,-155 443.5,-155"/>
<text text-anchor="start" x="451.5" y="-184" font-family="Helvetica,sans-Serif" font-size="10.00">std::enable_shared</text>
<text text-anchor="start" x="451.5" y="-173" font-family="Helvetica,sans-Serif" font-size="10.00">_from_this&lt; simulated</text>
<text text-anchor="middle" x="500" y="-162" font-family="Helvetica,sans-Serif" font-size="10.00">_acceptor &gt;</text>
</a>
</g>
</g>
<!-- Node6&#45;&gt;Node1 -->
<g id="edge5" class="edge">
<title>Node6&#45;&gt;Node1</title>
<path fill="none" stroke="midnightblue" d="M566.59,-172.01C608.2,-169.8 661.68,-166.96 702.56,-164.79"/>
<polygon fill="midnightblue" stroke="midnightblue" points="566.36,-168.52 556.56,-172.55 566.73,-175.51 566.36,-168.52"/>
</g>
<!-- Node7 -->
<g id="node7" class="node">
<title>Node7</title>
<g id="a_node7"><a xlink:title=" ">
<polygon fill="white" stroke="#bfbfbf" points="433,-47 433,-88 567,-88 567,-47 433,-47"/>
<text text-anchor="start" x="441" y="-76" font-family="Helvetica,sans-Serif" font-size="10.00">std::shared_ptr&lt; automaton</text>
<text text-anchor="start" x="441" y="-65" font-family="Helvetica,sans-Serif" font-size="10.00">::core::network::connection</text>
<text text-anchor="middle" x="500" y="-54" font-family="Helvetica,sans-Serif" font-size="10.00">::connection_handler &gt;</text>
</a>
</g>
</g>
<!-- Node7&#45;&gt;Node1 -->
<g id="edge6" class="edge">
<title>Node7&#45;&gt;Node1</title>
<path fill="none" stroke="#9a32cd" stroke-dasharray="5,2" d="M577.04,-77.31C611,-83.38 650.96,-92.89 685,-107.5 708,-117.37 731.34,-134.21 746.73,-146.47"/>
<polygon fill="#9a32cd" stroke="#9a32cd" points="577.61,-73.86 567.17,-75.62 576.43,-80.76 577.61,-73.86"/>
<text text-anchor="start" x="585" y="-121.5" font-family="Helvetica,sans-Serif" font-size="10.00"> accepted_connections</text>
<text text-anchor="middle" x="635" y="-110.5" font-family="Helvetica,sans-Serif" font-size="10.00">_handler</text>
</g>
<!-- Node8 -->
<g id="node8" class="node">
<title>Node8</title>
<g id="a_node8"><a xlink:href="../../d6/d94/classautomaton_1_1core_1_1network_1_1connection_1_1connection__handler.html" target="_top" xlink:title=" ">
<polygon fill="white" stroke="black" points="191.5,-49 191.5,-90 316.5,-90 316.5,-49 191.5,-49"/>
<text text-anchor="start" x="199.5" y="-78" font-family="Helvetica,sans-Serif" font-size="10.00">automaton::core::network</text>
<text text-anchor="start" x="199.5" y="-67" font-family="Helvetica,sans-Serif" font-size="10.00">::connection::connection</text>
<text text-anchor="middle" x="254" y="-56" font-family="Helvetica,sans-Serif" font-size="10.00">_handler</text>
</a>
</g>
</g>
<!-- Node8&#45;&gt;Node7 -->
<g id="edge7" class="edge">
<title>Node8&#45;&gt;Node7</title>
<path fill="none" stroke="#9a32cd" stroke-dasharray="5,2" d="M326.76,-68.91C360.28,-68.64 399.94,-68.31 432.74,-68.04"/>
<polygon fill="#9a32cd" stroke="#9a32cd" points="326.54,-65.41 316.57,-69 326.6,-72.41 326.54,-65.41"/>
<text text-anchor="middle" x="377" y="-71.5" font-family="Helvetica,sans-Serif" font-size="10.00"> ptr</text>
</g>
<!-- Node9&#45;&gt;Node1 -->
<g id="edge8" class="edge">
<title>Node9&#45;&gt;Node1</title>
<path fill="none" stroke="#9a32cd" stroke-dasharray="5,2" d="M572.89,-132.41C613.52,-138.58 663.79,-146.21 702.65,-152.11"/>
<polygon fill="#9a32cd" stroke="#9a32cd" points="573.19,-128.92 562.78,-130.88 572.14,-135.84 573.19,-128.92"/>
<text text-anchor="middle" x="635" y="-151.5" font-family="Helvetica,sans-Serif" font-size="10.00"> parameters</text>
</g>
<!-- Node10 -->
<g id="node10" class="node">
<title>Node10</title>
<g id="a_node10"><a xlink:title="STL class.">
<polygon fill="white" stroke="#bfbfbf" points="470.5,-8 470.5,-27 529.5,-27 529.5,-8 470.5,-8"/>
<text text-anchor="middle" x="500" y="-15" font-family="Helvetica,sans-Serif" font-size="10.00">std::string</text>
</a>
</g>
</g>
<!-- Node10&#45;&gt;Node1 -->
<g id="edge11" class="edge">
<title>Node10&#45;&gt;Node1</title>
<path fill="none" stroke="#9a32cd" stroke-dasharray="5,2" d="M539.66,-20.03C578.96,-24.16 640.26,-35 685,-63.5 718.26,-84.68 744.05,-124.53 756.43,-146.32"/>
<polygon fill="#9a32cd" stroke="#9a32cd" points="539.97,-16.54 529.68,-19.08 539.3,-23.51 539.97,-16.54"/>
<text text-anchor="middle" x="635" y="-66.5" font-family="Helvetica,sans-Serif" font-size="10.00"> original_address</text>
</g>
<!-- Node11 -->
<g id="node11" class="node">
<title>Node11</title>
<g id="a_node11"><a xlink:title="STL class.">
<polygon fill="white" stroke="#bfbfbf" points="207.5,-0.5 207.5,-30.5 300.5,-30.5 300.5,-0.5 207.5,-0.5"/>
<text text-anchor="start" x="215.5" y="-18.5" font-family="Helvetica,sans-Serif" font-size="10.00">std::basic_string&lt;</text>
<text text-anchor="middle" x="254" y="-7.5" font-family="Helvetica,sans-Serif" font-size="10.00"> char &gt;</text>
</a>
</g>
</g>
<!-- Node11&#45;&gt;Node10 -->
<g id="edge12" class="edge">
<title>Node11&#45;&gt;Node10</title>
<path fill="none" stroke="midnightblue" d="M310.89,-15.96C360.63,-16.37 431.38,-16.95 470.4,-17.27"/>
<polygon fill="midnightblue" stroke="midnightblue" points="310.64,-12.46 300.61,-15.87 310.58,-19.46 310.64,-12.46"/>
</g>
</g>
</svg>
