<?xml version="1.0" encoding="UTF-8" standalone="no"?>
<!DOCTYPE svg PUBLIC "-//W3C//DTD SVG 1.1//EN"
 "http://www.w3.org/Graphics/SVG/1.1/DTD/svg11.dtd">
<!-- Generated by graphviz version 2.44.0 ()
 -->
<!-- Title: automaton::core::state::state_persistent::print_subtrie Pages: 1 -->
<svg width="270pt" height="208pt"
 viewBox="0.00 0.00 270.00 207.50" xmlns="http://www.w3.org/2000/svg" xmlns:xlink="http://www.w3.org/1999/xlink">
<g id="graph0" class="graph" transform="scale(1 1) rotate(0) translate(4 203.5)">
<title>automaton::core::state::state_persistent::print_subtrie</title>
<polygon fill="white" stroke="transparent" points="-4,4 -4,-203.5 266,-203.5 266,4 -4,4"/>
<!-- Node1 -->
<g id="node1" class="node">
<title>Node1</title>
<g id="a_node1"><a xlink:title=" ">
<polygon fill="#bfbfbf" stroke="black" points="0,-87.5 0,-128.5 114,-128.5 114,-87.5 0,-87.5"/>
<text text-anchor="start" x="8" y="-116.5" font-family="Helvetica,sans-Serif" font-size="10.00">automaton::core::state</text>
<text text-anchor="start" x="8" y="-105.5" font-family="Helvetica,sans-Serif" font-size="10.00">::state_persistent::print</text>
<text text-anchor="middle" x="57" y="-94.5" font-family="Helvetica,sans-Serif" font-size="10.00">_subtrie</text>
</a>
</g>
</g>
<!-- Node2 -->
<g id="node2" class="node">
<title>Node2</title>
<g id="a_node2"><a xlink:href="../../da/dd5/namespaceautomaton_1_1core_1_1io.html#ab19202c80dffefe2cd1a87a60d06a0b3" target="_top" xlink:title=" ">
<polygon fill="white" stroke="black" points="157,-169 157,-199 255,-199 255,-169 157,-169"/>
<text text-anchor="start" x="165" y="-187" font-family="Helvetica,sans-Serif" font-size="10.00">automaton::core::io</text>
<text text-anchor="middle" x="206" y="-176" font-family="Helvetica,sans-Serif" font-size="10.00">::bin2hex</text>
</a>
</g>
</g>
<!-- Node1&#45;&gt;Node2 -->
<g id="edge1" class="edge">
<title>Node1&#45;&gt;Node2</title>
<path fill="none" stroke="midnightblue" d="M92.49,-128.61C109.57,-138.53 130.63,-150.33 150,-160 153.12,-161.56 156.37,-163.12 159.66,-164.66"/>
<polygon fill="midnightblue" stroke="midnightblue" points="158.4,-167.93 168.95,-168.91 161.31,-161.57 158.4,-167.93"/>
</g>
<!-- Node3 -->
<g id="node3" class="node">
<title>Node3</title>
<g id="a_node3"><a xlink:href="../../dc/ddc/classautomaton_1_1core_1_1state_1_1state__persistent.html#aef03d00f618d670afe41420acc5d3a8b" target="_top" xlink:title=" ">
<polygon fill="white" stroke="black" points="150,-120 150,-150 262,-150 262,-120 150,-120"/>
<text text-anchor="start" x="158" y="-138" font-family="Helvetica,sans-Serif" font-size="10.00">automaton::core::state</text>
<text text-anchor="middle" x="206" y="-127" font-family="Helvetica,sans-Serif" font-size="10.00">::state_persistent::get</text>
</a>
</g>
</g>
<!-- Node1&#45;&gt;Node3 -->
<g id="edge2" class="edge">
<title>Node1&#45;&gt;Node3</title>
<path fill="none" stroke="midnightblue" d="M114.41,-118.36C122.79,-119.9 131.49,-121.5 140.03,-123.07"/>
<polygon fill="midnightblue" stroke="midnightblue" points="139.48,-126.52 149.95,-124.89 140.75,-119.64 139.48,-126.52"/>
</g>
<!-- Node4 -->
<g id="node4" class="node">
<title>Node4</title>
<g id="a_node4"><a xlink:href="../../dc/ddc/classautomaton_1_1core_1_1state_1_1state__persistent.html#a995b8f1b4d54db20e2ebeb1df1557d12" target="_top" xlink:title=" ">
<polygon fill="white" stroke="black" points="150,-60.5 150,-101.5 262,-101.5 262,-60.5 150,-60.5"/>
<text text-anchor="start" x="158" y="-89.5" font-family="Helvetica,sans-Serif" font-size="10.00">automaton::core::state</text>
<text text-anchor="start" x="158" y="-78.5" font-family="Helvetica,sans-Serif" font-size="10.00">::state_persistent::get</text>
<text text-anchor="middle" x="206" y="-67.5" font-family="Helvetica,sans-Serif" font-size="10.00">_node_children</text>
</a>
</g>
</g>
<!-- Node1&#45;&gt;Node4 -->
<g id="edge3" class="edge">
<title>Node1&#45;&gt;Node4</title>
<path fill="none" stroke="midnightblue" d="M114.41,-97.64C122.79,-96.1 131.49,-94.5 140.03,-92.93"/>
<polygon fill="midnightblue" stroke="midnightblue" points="140.75,-96.36 149.95,-91.11 139.48,-89.48 140.75,-96.36"/>
</g>
<!-- Node5 -->
<g id="node5" class="node">
<title>Node5</title>
<g id="a_node5"><a xlink:href="../../dc/ddc/classautomaton_1_1core_1_1state_1_1state__persistent.html#ad63f13bde5ebb43fbf481da20d636480" target="_top" xlink:title=" ">
<polygon fill="white" stroke="black" points="150,-0.5 150,-41.5 262,-41.5 262,-0.5 150,-0.5"/>
<text text-anchor="start" x="158" y="-29.5" font-family="Helvetica,sans-Serif" font-size="10.00">automaton::core::state</text>
<text text-anchor="start" x="158" y="-18.5" font-family="Helvetica,sans-Serif" font-size="10.00">::state_persistent::get</text>
<text text-anchor="middle" x="206" y="-7.5" font-family="Helvetica,sans-Serif" font-size="10.00">_node_hash</text>
</a>
</g>
</g>
<!-- Node1&#45;&gt;Node5 -->
<g id="edge4" class="edge">
<title>Node1&#45;&gt;Node5</title>
<path fill="none" stroke="midnightblue" d="M90.52,-87.24C108.01,-76.24 130.02,-62.62 150,-51 152.51,-49.54 155.1,-48.06 157.72,-46.57"/>
<polygon fill="midnightblue" stroke="midnightblue" points="159.67,-49.49 166.68,-41.55 156.24,-43.38 159.67,-49.49"/>
</g>
</g>
</svg>
