<?xml version="1.0" encoding="UTF-8" standalone="no"?>
<!DOCTYPE svg PUBLIC "-//W3C//DTD SVG 1.1//EN"
 "http://www.w3.org/Graphics/SVG/1.1/DTD/svg11.dtd">
<!-- Generated by graphviz version 2.42.3 ()
 -->
<!-- Title: Keccak_256_cryptopp.h Pages: 1 -->
<svg width="369pt" height="151pt"
 viewBox="0.00 0.00 369.00 151.00" xmlns="http://www.w3.org/2000/svg" xmlns:xlink="http://www.w3.org/1999/xlink">
<g id="graph0" class="graph" transform="scale(1 1) rotate(0) translate(4 147)">
<title>Keccak_256_cryptopp.h</title>
<polygon fill="white" stroke="transparent" points="-4,4 -4,-147 365,-147 365,4 -4,4"/>
<!-- Node1 -->
<g id="node1" class="node">
<title>Node1</title>
<g id="a_node1"><a xlink:title=" ">
<polygon fill="#bfbfbf" stroke="black" points="100.5,-123.5 100.5,-142.5 220.5,-142.5 220.5,-123.5 100.5,-123.5"/>
<text text-anchor="middle" x="160.5" y="-130.5" font-family="Helvetica,sans-Serif" font-size="10.00">Keccak_256_cryptopp.h</text>
</a>
</g>
</g>
<!-- Node2 -->
<g id="node2" class="node">
<title>Node2</title>
<g id="a_node2"><a xlink:title=" ">
<polygon fill="white" stroke="#bfbfbf" points="0,-62 0,-81 95,-81 95,-62 0,-62"/>
<text text-anchor="middle" x="47.5" y="-69" font-family="Helvetica,sans-Serif" font-size="10.00">cryptopp/cryptlib.h</text>
</a>
</g>
</g>
<!-- Node1&#45;&gt;Node2 -->
<g id="edge1" class="edge">
<title>Node1&#45;&gt;Node2</title>
<path fill="none" stroke="midnightblue" d="M144.31,-123.48C125.6,-113.62 94.58,-97.29 72.7,-85.77"/>
<polygon fill="midnightblue" stroke="midnightblue" points="74.14,-82.57 63.66,-81.01 70.88,-88.77 74.14,-82.57"/>
</g>
<!-- Node3 -->
<g id="node3" class="node">
<title>Node3</title>
<g id="a_node3"><a xlink:title=" ">
<polygon fill="white" stroke="#bfbfbf" points="113,-62 113,-81 208,-81 208,-62 113,-62"/>
<text text-anchor="middle" x="160.5" y="-69" font-family="Helvetica,sans-Serif" font-size="10.00">cryptopp/keccak.h</text>
</a>
</g>
</g>
<!-- Node1&#45;&gt;Node3 -->
<g id="edge2" class="edge">
<title>Node1&#45;&gt;Node3</title>
<path fill="none" stroke="midnightblue" d="M160.5,-123.48C160.5,-115.08 160.5,-101.98 160.5,-91.16"/>
<polygon fill="midnightblue" stroke="midnightblue" points="164,-91.01 160.5,-81.01 157,-91.01 164,-91.01"/>
</g>
<!-- Node4 -->
<g id="node4" class="node">
<title>Node4</title>
<g id="a_node4"><a xlink:href="../../d2/dab/hash__transformation_8h.html" target="_top" xlink:title=" ">
<polygon fill="white" stroke="black" points="226.5,-56.5 226.5,-86.5 342.5,-86.5 342.5,-56.5 226.5,-56.5"/>
<text text-anchor="start" x="234.5" y="-74.5" font-family="Helvetica,sans-Serif" font-size="10.00">automaton/core/crypto</text>
<text text-anchor="middle" x="284.5" y="-63.5" font-family="Helvetica,sans-Serif" font-size="10.00">/hash_transformation.h</text>
</a>
</g>
</g>
<!-- Node1&#45;&gt;Node4 -->
<g id="edge3" class="edge">
<title>Node1&#45;&gt;Node4</title>
<path fill="none" stroke="midnightblue" d="M178.27,-123.48C195.92,-115 223.57,-101.74 246.23,-90.86"/>
<polygon fill="midnightblue" stroke="midnightblue" points="247.77,-94 255.28,-86.52 244.75,-87.69 247.77,-94"/>
</g>
<!-- Node5 -->
<g id="node5" class="node">
<title>Node5</title>
<g id="a_node5"><a xlink:title=" ">
<polygon fill="white" stroke="#bfbfbf" points="194.5,-0.5 194.5,-19.5 248.5,-19.5 248.5,-0.5 194.5,-0.5"/>
<text text-anchor="middle" x="221.5" y="-7.5" font-family="Helvetica,sans-Serif" font-size="10.00">iostream</text>
</a>
</g>
</g>
<!-- Node4&#45;&gt;Node5 -->
<g id="edge4" class="edge">
<title>Node4&#45;&gt;Node5</title>
<path fill="none" stroke="midnightblue" d="M269.57,-56.4C260.13,-47.49 247.92,-35.95 238.17,-26.74"/>
<polygon fill="midnightblue" stroke="midnightblue" points="240.34,-23.98 230.67,-19.66 235.53,-29.07 240.34,-23.98"/>
</g>
<!-- Node6 -->
<g id="node6" class="node">
<title>Node6</title>
<g id="a_node6"><a xlink:title=" ">
<polygon fill="white" stroke="#bfbfbf" points="267,-0.5 267,-19.5 302,-19.5 302,-0.5 267,-0.5"/>
<text text-anchor="middle" x="284.5" y="-7.5" font-family="Helvetica,sans-Serif" font-size="10.00">map</text>
</a>
</g>
</g>
<!-- Node4&#45;&gt;Node6 -->
<g id="edge5" class="edge">
<title>Node4&#45;&gt;Node6</title>
<path fill="none" stroke="midnightblue" d="M284.5,-56.4C284.5,-48.47 284.5,-38.46 284.5,-29.86"/>
<polygon fill="midnightblue" stroke="midnightblue" points="288,-29.66 284.5,-19.66 281,-29.66 288,-29.66"/>
</g>
<!-- Node7 -->
<g id="node7" class="node">
<title>Node7</title>
<g id="a_node7"><a xlink:title=" ">
<polygon fill="white" stroke="#bfbfbf" points="320,-0.5 320,-19.5 361,-19.5 361,-0.5 320,-0.5"/>
<text text-anchor="middle" x="340.5" y="-7.5" font-family="Helvetica,sans-Serif" font-size="10.00">string</text>
</a>
</g>
</g>
<!-- Node4&#45;&gt;Node7 -->
<g id="edge6" class="edge">
<title>Node4&#45;&gt;Node7</title>
<path fill="none" stroke="midnightblue" d="M297.77,-56.4C306.08,-47.58 316.8,-36.18 325.42,-27.02"/>
<polygon fill="midnightblue" stroke="midnightblue" points="328.05,-29.34 332.35,-19.66 322.95,-24.54 328.05,-29.34"/>
</g>
</g>
</svg>
