<?xml version="1.0" encoding="UTF-8" standalone="no"?>
<!DOCTYPE svg PUBLIC "-//W3C//DTD SVG 1.1//EN"
 "http://www.w3.org/Graphics/SVG/1.1/DTD/svg11.dtd">
<!-- Generated by graphviz version 2.44.0 ()
 -->
<!-- Title: automaton::core::state::state_persistent::node Pages: 1 -->
<svg width="135pt" height="128pt"
 viewBox="0.00 0.00 134.50 128.00" xmlns="http://www.w3.org/2000/svg" xmlns:xlink="http://www.w3.org/1999/xlink">
<g id="graph0" class="graph" transform="scale(1 1) rotate(0) translate(4 124)">
<title>automaton::core::state::state_persistent::node</title>
<polygon fill="white" stroke="transparent" points="-4,4 -4,-124 130.5,-124 130.5,4 -4,4"/>
<!-- Node1 -->
<g id="node1" class="node">
<title>Node1</title>
<g id="a_node1"><a xlink:title=" ">
<polygon fill="#bfbfbf" stroke="black" points="1.5,-0.5 1.5,-30.5 117.5,-30.5 117.5,-0.5 1.5,-0.5"/>
<text text-anchor="start" x="9.5" y="-18.5" font-family="Helvetica,sans-Serif" font-size="10.00">automaton::core::state</text>
<text text-anchor="middle" x="59.5" y="-7.5" font-family="Helvetica,sans-Serif" font-size="10.00">::state_persistent::node</text>
</a>
</g>
</g>
<!-- Node2 -->
<g id="node2" class="node">
<title>Node2</title>
<g id="a_node2"><a xlink:title=" ">
<polygon fill="white" stroke="#bfbfbf" points="0,-100.5 0,-119.5 51,-119.5 51,-100.5 0,-100.5"/>
<text text-anchor="middle" x="25.5" y="-107.5" font-family="Helvetica,sans-Serif" font-size="10.00">uint64_t</text>
</a>
</g>
</g>
<!-- Node2&#45;&gt;Node1 -->
<g id="edge1" class="edge">
<title>Node2&#45;&gt;Node1</title>
<path fill="none" stroke="#9a32cd" stroke-dasharray="5,2" d="M30.18,-90.55C33.44,-78.54 38.14,-62.64 43.5,-49 45.94,-42.8 49.1,-36.16 51.97,-30.51"/>
<polygon fill="#9a32cd" stroke="#9a32cd" points="26.77,-89.74 27.62,-100.3 33.55,-91.52 26.77,-89.74"/>
<text text-anchor="middle" x="58" y="-74" font-family="Helvetica,sans-Serif" font-size="10.00"> hash_</text>
<text text-anchor="middle" x="58" y="-63" font-family="Helvetica,sans-Serif" font-size="10.00">prefix_</text>
<text text-anchor="middle" x="58" y="-52" font-family="Helvetica,sans-Serif" font-size="10.00">value_</text>
</g>
<!-- Node3 -->
<g id="node3" class="node">
<title>Node3</title>
<g id="a_node3"><a xlink:title=" ">
<polygon fill="white" stroke="#bfbfbf" points="69,-100.5 69,-119.5 120,-119.5 120,-100.5 69,-100.5"/>
<text text-anchor="middle" x="94.5" y="-107.5" font-family="Helvetica,sans-Serif" font-size="10.00">uint32_t</text>
</a>
</g>
</g>
<!-- Node3&#45;&gt;Node1 -->
<g id="edge2" class="edge">
<title>Node3&#45;&gt;Node1</title>
<path fill="none" stroke="#9a32cd" stroke-dasharray="5,2" d="M87.97,-90.77C83.66,-78.85 77.85,-62.96 72.5,-49 70.19,-42.98 67.57,-36.38 65.28,-30.7"/>
<polygon fill="#9a32cd" stroke="#9a32cd" points="84.77,-92.2 91.44,-100.43 91.35,-89.83 84.77,-92.2"/>
<text text-anchor="middle" x="105.5" y="-68.5" font-family="Helvetica,sans-Serif" font-size="10.00"> children_</text>
<text text-anchor="middle" x="105.5" y="-57.5" font-family="Helvetica,sans-Serif" font-size="10.00">parent_</text>
</g>
</g>
</svg>
