<?xml version="1.0" encoding="UTF-8" standalone="no"?>
<!DOCTYPE svg PUBLIC "-//W3C//DTD SVG 1.1//EN"
 "http://www.w3.org/Graphics/SVG/1.1/DTD/svg11.dtd">
<!-- Generated by graphviz version 2.42.3 ()
 -->
<!-- Title: persistent_storage.cc Pages: 1 -->
<svg width="429pt" height="162pt"
 viewBox="0.00 0.00 429.43 162.00" xmlns="http://www.w3.org/2000/svg" xmlns:xlink="http://www.w3.org/1999/xlink">
<g id="graph0" class="graph" transform="scale(1 1) rotate(0) translate(4 158)">
<title>persistent_storage.cc</title>
<polygon fill="white" stroke="transparent" points="-4,4 -4,-158 425.43,-158 425.43,4 -4,4"/>
<!-- Node1 -->
<g id="node1" class="node">
<title>Node1</title>
<g id="a_node1"><a xlink:title=" ">
<polygon fill="#bfbfbf" stroke="black" points="108.93,-134.5 108.93,-153.5 218.93,-153.5 218.93,-134.5 108.93,-134.5"/>
<text text-anchor="middle" x="163.93" y="-141.5" font-family="Helvetica,sans-Serif" font-size="10.00">persistent_storage.cc</text>
</a>
</g>
</g>
<!-- Node2 -->
<g id="node2" class="node">
<title>Node2</title>
<g id="a_node2"><a xlink:href="../../d2/d42/persistent__storage_8h.html" target="_top" xlink:title=" ">
<polygon fill="white" stroke="black" points="16.43,-67.5 16.43,-97.5 135.43,-97.5 135.43,-67.5 16.43,-67.5"/>
<text text-anchor="start" x="24.43" y="-85.5" font-family="Helvetica,sans-Serif" font-size="10.00">automaton/core/storage</text>
<text text-anchor="middle" x="75.93" y="-74.5" font-family="Helvetica,sans-Serif" font-size="10.00">/persistent_storage.h</text>
</a>
</g>
</g>
<!-- Node1&#45;&gt;Node2 -->
<g id="edge1" class="edge">
<title>Node1&#45;&gt;Node2</title>
<path fill="none" stroke="midnightblue" d="M151.33,-134.48C139.3,-126.34 120.73,-113.79 105.04,-103.18"/>
<polygon fill="midnightblue" stroke="midnightblue" points="106.92,-100.22 96.67,-97.52 103,-106.02 106.92,-100.22"/>
</g>
<!-- Node3 -->
<g id="node3" class="node">
<title>Node3</title>
<g id="a_node3"><a xlink:title=" ">
<polygon fill="white" stroke="#bfbfbf" points="6.43,-6 6.43,-25 47.43,-25 47.43,-6 6.43,-6"/>
<text text-anchor="middle" x="26.93" y="-13" font-family="Helvetica,sans-Serif" font-size="10.00">string</text>
</a>
</g>
</g>
<!-- Node1&#45;&gt;Node3 -->
<g id="edge4" class="edge">
<title>Node1&#45;&gt;Node3</title>
<path fill="none" stroke="midnightblue" d="M109.2,-134.45C69.04,-126.93 19.43,-114.59 6.93,-98 -7.27,-79.15 4.51,-51.52 15.08,-33.77"/>
<polygon fill="midnightblue" stroke="midnightblue" points="18.22,-35.36 20.65,-25.05 12.32,-31.59 18.22,-35.36"/>
</g>
<!-- Node4 -->
<g id="node4" class="node">
<title>Node4</title>
<g id="a_node4"><a xlink:title=" ">
<polygon fill="white" stroke="#bfbfbf" points="84.93,-0.5 84.93,-30.5 202.93,-30.5 202.93,-0.5 84.93,-0.5"/>
<text text-anchor="start" x="92.93" y="-18.5" font-family="Helvetica,sans-Serif" font-size="10.00">boost/iostreams/device</text>
<text text-anchor="middle" x="143.93" y="-7.5" font-family="Helvetica,sans-Serif" font-size="10.00">/mapped_file.hpp</text>
</a>
</g>
</g>
<!-- Node1&#45;&gt;Node4 -->
<g id="edge7" class="edge">
<title>Node1&#45;&gt;Node4</title>
<path fill="none" stroke="midnightblue" d="M162.56,-134.31C159.55,-115.3 152.31,-69.47 147.79,-40.9"/>
<polygon fill="midnightblue" stroke="midnightblue" points="151.23,-40.22 146.21,-30.89 144.31,-41.31 151.23,-40.22"/>
</g>
<!-- Node5 -->
<g id="node5" class="node">
<title>Node5</title>
<g id="a_node5"><a xlink:title=" ">
<polygon fill="white" stroke="#bfbfbf" points="191.93,-67.5 191.93,-97.5 297.93,-97.5 297.93,-67.5 191.93,-67.5"/>
<text text-anchor="start" x="199.93" y="-85.5" font-family="Helvetica,sans-Serif" font-size="10.00">boost/config/warning</text>
<text text-anchor="middle" x="244.93" y="-74.5" font-family="Helvetica,sans-Serif" font-size="10.00">_disable.hpp</text>
</a>
</g>
</g>
<!-- Node1&#45;&gt;Node5 -->
<g id="edge5" class="edge">
<title>Node1&#45;&gt;Node5</title>
<path fill="none" stroke="midnightblue" d="M175.54,-134.48C186.51,-126.42 203.38,-114.02 217.74,-103.47"/>
<polygon fill="midnightblue" stroke="midnightblue" points="219.86,-106.26 225.84,-97.52 215.71,-100.62 219.86,-106.26"/>
</g>
<!-- Node6 -->
<g id="node6" class="node">
<title>Node6</title>
<g id="a_node6"><a xlink:title=" ">
<polygon fill="white" stroke="#bfbfbf" points="316.43,-73 316.43,-92 421.43,-92 421.43,-73 316.43,-73"/>
<text text-anchor="middle" x="368.93" y="-80" font-family="Helvetica,sans-Serif" font-size="10.00">boost/filesystem.hpp</text>
</a>
</g>
</g>
<!-- Node1&#45;&gt;Node6 -->
<g id="edge6" class="edge">
<title>Node1&#45;&gt;Node6</title>
<path fill="none" stroke="midnightblue" d="M193.31,-134.48C229.23,-124.05 290.17,-106.36 329.98,-94.81"/>
<polygon fill="midnightblue" stroke="midnightblue" points="330.99,-98.16 339.62,-92.01 329.04,-91.44 330.99,-98.16"/>
</g>
<!-- Node2&#45;&gt;Node3 -->
<g id="edge2" class="edge">
<title>Node2&#45;&gt;Node3</title>
<path fill="none" stroke="midnightblue" d="M65.3,-67.4C57.74,-57.36 47.54,-43.84 39.56,-33.25"/>
<polygon fill="midnightblue" stroke="midnightblue" points="42.3,-31.07 33.49,-25.19 36.71,-35.29 42.3,-31.07"/>
</g>
<!-- Node2&#45;&gt;Node4 -->
<g id="edge3" class="edge">
<title>Node2&#45;&gt;Node4</title>
<path fill="none" stroke="midnightblue" d="M90.69,-67.4C99.78,-58.71 111.6,-47.4 121.8,-37.66"/>
<polygon fill="midnightblue" stroke="midnightblue" points="124.4,-40.02 129.21,-30.58 119.56,-34.96 124.4,-40.02"/>
</g>
</g>
</svg>
