<?xml version="1.0" encoding="UTF-8" standalone="no"?>
<!DOCTYPE svg PUBLIC "-//W3C//DTD SVG 1.1//EN"
 "http://www.w3.org/Graphics/SVG/1.1/DTD/svg11.dtd">
<!-- Generated by graphviz version 2.42.3 ()
 -->
<!-- Title: registry.h Pages: 1 -->
<svg width="1051pt" height="285pt"
 viewBox="0.00 0.00 1051.20 285.00" xmlns="http://www.w3.org/2000/svg" xmlns:xlink="http://www.w3.org/1999/xlink">
<g id="graph0" class="graph" transform="scale(1 1) rotate(0) translate(4 281)">
<title>registry.h</title>
<polygon fill="white" stroke="transparent" points="-4,4 -4,-281 1047.2,-281 1047.2,4 -4,4"/>
<!-- Node1 -->
<g id="node1" class="node">
<title>Node1</title>
<g id="a_node1"><a xlink:title=" ">
<polygon fill="#bfbfbf" stroke="black" points="313,-257.5 313,-276.5 369,-276.5 369,-257.5 313,-257.5"/>
<text text-anchor="middle" x="341" y="-264.5" font-family="Helvetica,sans-Serif" font-size="10.00">registry.h</text>
</a>
</g>
</g>
<!-- Node2 -->
<g id="node2" class="node">
<title>Node2</title>
<g id="a_node2"><a xlink:title=" ">
<polygon fill="white" stroke="#bfbfbf" points="0,-196 0,-215 54,-215 54,-196 0,-196"/>
<text text-anchor="middle" x="27" y="-203" font-family="Helvetica,sans-Serif" font-size="10.00">iostream</text>
</a>
</g>
</g>
<!-- Node1&#45;&gt;Node2 -->
<g id="edge1" class="edge">
<title>Node1&#45;&gt;Node2</title>
<path fill="none" stroke="midnightblue" d="M312.76,-263.01C262.83,-257.36 155.93,-243.61 68,-221 64.95,-220.22 61.81,-219.3 58.69,-218.33"/>
<polygon fill="midnightblue" stroke="midnightblue" points="59.5,-214.91 48.91,-215.05 57.28,-221.54 59.5,-214.91"/>
</g>
<!-- Node3 -->
<g id="node3" class="node">
<title>Node3</title>
<g id="a_node3"><a xlink:title=" ">
<polygon fill="white" stroke="#bfbfbf" points="510.5,-62 510.5,-81 561.5,-81 561.5,-62 510.5,-62"/>
<text text-anchor="middle" x="536" y="-69" font-family="Helvetica,sans-Serif" font-size="10.00">memory</text>
</a>
</g>
</g>
<!-- Node1&#45;&gt;Node3 -->
<g id="edge2" class="edge">
<title>Node1&#45;&gt;Node3</title>
<path fill="none" stroke="midnightblue" d="M369.23,-262.62C414.8,-256.58 501.62,-242.55 523,-221 557.25,-186.47 548.22,-122.62 541,-91.09"/>
<polygon fill="midnightblue" stroke="midnightblue" points="544.31,-89.92 538.5,-81.06 537.52,-91.61 544.31,-89.92"/>
</g>
<!-- Node4 -->
<g id="node4" class="node">
<title>Node4</title>
<g id="a_node4"><a xlink:title=" ">
<polygon fill="white" stroke="#bfbfbf" points="436.5,-0.5 436.5,-19.5 477.5,-19.5 477.5,-0.5 436.5,-0.5"/>
<text text-anchor="middle" x="457" y="-7.5" font-family="Helvetica,sans-Serif" font-size="10.00">string</text>
</a>
</g>
</g>
<!-- Node1&#45;&gt;Node4 -->
<g id="edge3" class="edge">
<title>Node1&#45;&gt;Node4</title>
<path fill="none" stroke="midnightblue" d="M369.3,-266.26C489.13,-266.68 952.47,-261.28 1036,-154 1106.77,-63.11 617.16,-22.19 487.79,-13.04"/>
<polygon fill="midnightblue" stroke="midnightblue" points="487.98,-9.54 477.76,-12.34 487.49,-16.52 487.98,-9.54"/>
</g>
<!-- Node5 -->
<g id="node5" class="node">
<title>Node5</title>
<g id="a_node5"><a xlink:title=" ">
<polygon fill="white" stroke="#bfbfbf" points="148.5,-196 148.5,-215 231.5,-215 231.5,-196 148.5,-196"/>
<text text-anchor="middle" x="190" y="-203" font-family="Helvetica,sans-Serif" font-size="10.00">unordered_map</text>
</a>
</g>
</g>
<!-- Node1&#45;&gt;Node5 -->
<g id="edge4" class="edge">
<title>Node1&#45;&gt;Node5</title>
<path fill="none" stroke="midnightblue" d="M319.37,-257.48C293.58,-247.31 250.29,-230.26 220.96,-218.7"/>
<polygon fill="midnightblue" stroke="midnightblue" points="222.18,-215.42 211.59,-215.01 219.62,-221.93 222.18,-215.42"/>
</g>
<!-- Node6 -->
<g id="node6" class="node">
<title>Node6</title>
<g id="a_node6"><a xlink:title=" ">
<polygon fill="white" stroke="#bfbfbf" points="132.5,-129 132.5,-148 171.5,-148 171.5,-129 132.5,-129"/>
<text text-anchor="middle" x="152" y="-136" font-family="Helvetica,sans-Serif" font-size="10.00">utility</text>
</a>
</g>
</g>
<!-- Node1&#45;&gt;Node6 -->
<g id="edge5" class="edge">
<title>Node1&#45;&gt;Node6</title>
<path fill="none" stroke="midnightblue" d="M312.7,-263.95C262.34,-259.64 160.46,-247.77 139,-221 124.55,-202.97 133.46,-175.32 142.04,-157.32"/>
<polygon fill="midnightblue" stroke="midnightblue" points="145.26,-158.7 146.74,-148.21 139.04,-155.49 145.26,-158.7"/>
</g>
<!-- Node7 -->
<g id="node7" class="node">
<title>Node7</title>
<g id="a_node7"><a xlink:title=" ">
<polygon fill="white" stroke="#bfbfbf" points="197,-0.5 197,-19.5 241,-19.5 241,-0.5 197,-0.5"/>
<text text-anchor="middle" x="219" y="-7.5" font-family="Helvetica,sans-Serif" font-size="10.00">vector</text>
</a>
</g>
</g>
<!-- Node1&#45;&gt;Node7 -->
<g id="edge6" class="edge">
<title>Node1&#45;&gt;Node7</title>
<path fill="none" stroke="midnightblue" d="M312.61,-264.12C260.32,-260.03 151.95,-248.38 128,-221 99.29,-188.17 107.87,-163.9 123,-123 138.27,-81.71 176.32,-45.38 199.67,-25.96"/>
<polygon fill="midnightblue" stroke="midnightblue" points="201.96,-28.6 207.54,-19.59 197.56,-23.16 201.96,-28.6"/>
</g>
<!-- Node8 -->
<g id="node8" class="node">
<title>Node8</title>
<g id="a_node8"><a xlink:title=" ">
<polygon fill="white" stroke="#bfbfbf" points="412.5,-196 412.5,-215 497.5,-215 497.5,-196 412.5,-196"/>
<text text-anchor="middle" x="455" y="-203" font-family="Helvetica,sans-Serif" font-size="10.00">boost/regex.hpp</text>
</a>
</g>
</g>
<!-- Node1&#45;&gt;Node8 -->
<g id="edge7" class="edge">
<title>Node1&#45;&gt;Node8</title>
<path fill="none" stroke="midnightblue" d="M357.33,-257.48C376.21,-247.62 407.51,-231.29 429.58,-219.77"/>
<polygon fill="midnightblue" stroke="midnightblue" points="431.45,-222.74 438.7,-215.01 428.21,-216.53 431.45,-222.74"/>
</g>
<!-- Node9 -->
<g id="node9" class="node">
<title>Node9</title>
<g id="a_node9"><a xlink:href="../../de/d06/factory_8h.html" target="_top" xlink:title=" ">
<polygon fill="white" stroke="black" points="288,-190.5 288,-220.5 394,-220.5 394,-190.5 288,-190.5"/>
<text text-anchor="start" x="296" y="-208.5" font-family="Helvetica,sans-Serif" font-size="10.00">automaton/core/data</text>
<text text-anchor="middle" x="341" y="-197.5" font-family="Helvetica,sans-Serif" font-size="10.00">/factory.h</text>
</a>
</g>
</g>
<!-- Node1&#45;&gt;Node9 -->
<g id="edge8" class="edge">
<title>Node1&#45;&gt;Node9</title>
<path fill="none" stroke="midnightblue" d="M341,-257.48C341,-250.47 341,-240.19 341,-230.7"/>
<polygon fill="midnightblue" stroke="midnightblue" points="344.5,-230.52 341,-220.52 337.5,-230.52 344.5,-230.52"/>
</g>
<!-- Node11 -->
<g id="node11" class="node">
<title>Node11</title>
<g id="a_node11"><a xlink:href="../../d1/d71/msg_8h.html" target="_top" xlink:title=" ">
<polygon fill="white" stroke="black" points="402,-123.5 402,-153.5 508,-153.5 508,-123.5 402,-123.5"/>
<text text-anchor="start" x="410" y="-141.5" font-family="Helvetica,sans-Serif" font-size="10.00">automaton/core/data</text>
<text text-anchor="middle" x="455" y="-130.5" font-family="Helvetica,sans-Serif" font-size="10.00">/msg.h</text>
</a>
</g>
</g>
<!-- Node1&#45;&gt;Node11 -->
<g id="edge22" class="edge">
<title>Node1&#45;&gt;Node11</title>
<path fill="none" stroke="midnightblue" d="M369.23,-262.43C411.86,-256.38 489.46,-242.65 506,-221 521.05,-201.3 501.47,-177.02 482.37,-160.11"/>
<polygon fill="midnightblue" stroke="midnightblue" points="484.51,-157.33 474.6,-153.57 480,-162.69 484.51,-157.33"/>
</g>
<!-- Node12 -->
<g id="node12" class="node">
<title>Node12</title>
<g id="a_node12"><a xlink:href="../../d7/de3/schema_8h.html" target="_top" xlink:title=" ">
<polygon fill="white" stroke="black" points="285,-56.5 285,-86.5 391,-86.5 391,-56.5 285,-56.5"/>
<text text-anchor="start" x="293" y="-74.5" font-family="Helvetica,sans-Serif" font-size="10.00">automaton/core/data</text>
<text text-anchor="middle" x="338" y="-63.5" font-family="Helvetica,sans-Serif" font-size="10.00">/schema.h</text>
</a>
</g>
</g>
<!-- Node1&#45;&gt;Node12 -->
<g id="edge23" class="edge">
<title>Node1&#45;&gt;Node12</title>
<path fill="none" stroke="midnightblue" d="M320.78,-257.49C306.23,-250.17 287.7,-238.06 279,-221 256.89,-177.63 292.82,-123.93 317.61,-94.45"/>
<polygon fill="midnightblue" stroke="midnightblue" points="320.33,-96.65 324.25,-86.81 315.05,-92.06 320.33,-96.65"/>
</g>
<!-- Node13 -->
<g id="node13" class="node">
<title>Node13</title>
<g id="a_node13"><a xlink:href="../../dc/dac/io_8h.html" target="_top" xlink:title=" ">
<polygon fill="white" stroke="black" points="648.5,-196 648.5,-215 761.5,-215 761.5,-196 648.5,-196"/>
<text text-anchor="middle" x="705" y="-203" font-family="Helvetica,sans-Serif" font-size="10.00">automaton/core/io/io.h</text>
</a>
</g>
</g>
<!-- Node1&#45;&gt;Node13 -->
<g id="edge24" class="edge">
<title>Node1&#45;&gt;Node13</title>
<path fill="none" stroke="midnightblue" d="M369.26,-261.38C427.73,-251.82 563.17,-229.68 643.01,-216.63"/>
<polygon fill="midnightblue" stroke="midnightblue" points="643.64,-220.08 652.94,-215.01 642.51,-213.17 643.64,-220.08"/>
</g>
<!-- Node9&#45;&gt;Node3 -->
<g id="edge10" class="edge">
<title>Node9&#45;&gt;Node3</title>
<path fill="none" stroke="midnightblue" d="M394.37,-192.08C442.92,-180.31 508.32,-163.13 517,-154 532.92,-137.26 536.39,-109.87 536.74,-91.53"/>
<polygon fill="midnightblue" stroke="midnightblue" points="540.24,-91.41 536.64,-81.44 533.24,-91.48 540.24,-91.41"/>
</g>
<!-- Node9&#45;&gt;Node4 -->
<g id="edge11" class="edge">
<title>Node9&#45;&gt;Node4</title>
<path fill="none" stroke="midnightblue" d="M349.53,-190.27C370.37,-155.5 423.85,-66.3 446.55,-28.42"/>
<polygon fill="midnightblue" stroke="midnightblue" points="449.72,-29.95 451.86,-19.58 443.71,-26.35 449.72,-29.95"/>
</g>
<!-- Node9&#45;&gt;Node6 -->
<g id="edge12" class="edge">
<title>Node9&#45;&gt;Node6</title>
<path fill="none" stroke="midnightblue" d="M299.99,-190.4C264.13,-178.06 212.96,-160.47 181.15,-149.52"/>
<polygon fill="midnightblue" stroke="midnightblue" points="182.14,-146.16 171.54,-146.22 179.86,-152.78 182.14,-146.16"/>
</g>
<!-- Node9&#45;&gt;Node7 -->
<g id="edge13" class="edge">
<title>Node9&#45;&gt;Node7</title>
<path fill="none" stroke="midnightblue" d="M322.17,-190.35C310.65,-180.99 296.2,-167.9 286,-154 256.36,-113.61 234.89,-58.02 225.04,-29.51"/>
<polygon fill="midnightblue" stroke="midnightblue" points="228.24,-28.05 221.73,-19.68 221.6,-30.28 228.24,-28.05"/>
</g>
<!-- Node10 -->
<g id="node10" class="node">
<title>Node10</title>
<g id="a_node10"><a xlink:title=" ">
<polygon fill="white" stroke="#bfbfbf" points="290.5,-0.5 290.5,-19.5 325.5,-19.5 325.5,-0.5 290.5,-0.5"/>
<text text-anchor="middle" x="308" y="-7.5" font-family="Helvetica,sans-Serif" font-size="10.00">map</text>
</a>
</g>
</g>
<!-- Node9&#45;&gt;Node10 -->
<g id="edge9" class="edge">
<title>Node9&#45;&gt;Node10</title>
<path fill="none" stroke="midnightblue" d="M329.99,-190.32C314.36,-169.21 286.49,-127.63 276,-87 272.56,-73.66 271.81,-69.12 276,-56 279.34,-45.54 286.1,-35.43 292.55,-27.45"/>
<polygon fill="midnightblue" stroke="midnightblue" points="295.35,-29.56 299.25,-19.71 290.06,-24.98 295.35,-29.56"/>
</g>
<!-- Node9&#45;&gt;Node11 -->
<g id="edge14" class="edge">
<title>Node9&#45;&gt;Node11</title>
<path fill="none" stroke="midnightblue" d="M365.74,-190.4C382.02,-181.11 403.54,-168.84 421.37,-158.67"/>
<polygon fill="midnightblue" stroke="midnightblue" points="423.36,-161.57 430.31,-153.58 419.89,-155.49 423.36,-161.57"/>
</g>
<!-- Node9&#45;&gt;Node12 -->
<g id="edge21" class="edge">
<title>Node9&#45;&gt;Node12</title>
<path fill="none" stroke="midnightblue" d="M340.68,-190.37C340.17,-168.04 339.18,-124.31 338.55,-96.85"/>
<polygon fill="midnightblue" stroke="midnightblue" points="342.05,-96.44 338.32,-86.52 335.05,-96.6 342.05,-96.44"/>
</g>
<!-- Node11&#45;&gt;Node3 -->
<g id="edge15" class="edge">
<title>Node11&#45;&gt;Node3</title>
<path fill="none" stroke="midnightblue" d="M472.58,-123.4C485.71,-112.86 503.63,-98.48 517.07,-87.69"/>
<polygon fill="midnightblue" stroke="midnightblue" points="519.56,-90.18 525.17,-81.19 515.18,-84.72 519.56,-90.18"/>
</g>
<!-- Node11&#45;&gt;Node4 -->
<g id="edge16" class="edge">
<title>Node11&#45;&gt;Node4</title>
<path fill="none" stroke="midnightblue" d="M455.22,-123.48C455.58,-100.72 456.29,-55.7 456.7,-30.06"/>
<polygon fill="midnightblue" stroke="midnightblue" points="460.2,-29.84 456.86,-19.79 453.2,-29.73 460.2,-29.84"/>
</g>
<!-- Node11&#45;&gt;Node12 -->
<g id="edge17" class="edge">
<title>Node11&#45;&gt;Node12</title>
<path fill="none" stroke="midnightblue" d="M429.61,-123.4C412.82,-114.07 390.61,-101.73 372.26,-91.53"/>
<polygon fill="midnightblue" stroke="midnightblue" points="373.78,-88.37 363.34,-86.58 370.38,-94.49 373.78,-88.37"/>
</g>
<!-- Node12&#45;&gt;Node4 -->
<g id="edge19" class="edge">
<title>Node12&#45;&gt;Node4</title>
<path fill="none" stroke="midnightblue" d="M366.2,-56.4C385.72,-46.64 411.53,-33.74 430.63,-24.18"/>
<polygon fill="midnightblue" stroke="midnightblue" points="432.31,-27.26 439.68,-19.66 429.17,-21 432.31,-27.26"/>
</g>
<!-- Node12&#45;&gt;Node7 -->
<g id="edge20" class="edge">
<title>Node12&#45;&gt;Node7</title>
<path fill="none" stroke="midnightblue" d="M309.8,-56.4C290.28,-46.64 264.47,-33.74 245.37,-24.18"/>
<polygon fill="midnightblue" stroke="midnightblue" points="246.83,-21 236.32,-19.66 243.69,-27.26 246.83,-21"/>
</g>
<!-- Node12&#45;&gt;Node10 -->
<g id="edge18" class="edge">
<title>Node12&#45;&gt;Node10</title>
<path fill="none" stroke="midnightblue" d="M330.89,-56.4C326.71,-48.11 321.39,-37.55 316.93,-28.71"/>
<polygon fill="midnightblue" stroke="midnightblue" points="319.99,-27.01 312.37,-19.66 313.74,-30.16 319.99,-27.01"/>
</g>
<!-- Node13&#45;&gt;Node4 -->
<g id="edge26" class="edge">
<title>Node13&#45;&gt;Node4</title>
<path fill="none" stroke="midnightblue" d="M688.55,-195.93C672.52,-187.01 648.12,-171.85 631,-154 595.49,-116.97 609.35,-88.91 570,-56 546.05,-35.97 512.06,-24.06 487.63,-17.58"/>
<polygon fill="midnightblue" stroke="midnightblue" points="488.35,-14.15 477.8,-15.13 486.65,-20.94 488.35,-14.15"/>
</g>
<!-- Node14 -->
<g id="node14" class="node">
<title>Node14</title>
<g id="a_node14"><a xlink:title=" ">
<polygon fill="white" stroke="#bfbfbf" points="640,-129 640,-148 686,-148 686,-129 640,-129"/>
<text text-anchor="middle" x="663" y="-136" font-family="Helvetica,sans-Serif" font-size="10.00">chrono</text>
</a>
</g>
</g>
<!-- Node13&#45;&gt;Node14 -->
<g id="edge25" class="edge">
<title>Node13&#45;&gt;Node14</title>
<path fill="none" stroke="midnightblue" d="M699.34,-195.73C692.91,-185.79 682.28,-169.34 674.17,-156.79"/>
<polygon fill="midnightblue" stroke="midnightblue" points="676.94,-154.63 668.57,-148.13 671.06,-158.43 676.94,-154.63"/>
</g>
<!-- Node15 -->
<g id="node15" class="node">
<title>Node15</title>
<g id="a_node15"><a xlink:title=" ">
<polygon fill="white" stroke="#bfbfbf" points="704,-129 704,-148 788,-148 788,-129 704,-129"/>
<text text-anchor="middle" x="746" y="-136" font-family="Helvetica,sans-Serif" font-size="10.00">g3log/g3log.hpp</text>
</a>
</g>
</g>
<!-- Node13&#45;&gt;Node15 -->
<g id="edge27" class="edge">
<title>Node13&#45;&gt;Node15</title>
<path fill="none" stroke="midnightblue" d="M710.53,-195.73C716.8,-185.79 727.18,-169.34 735.09,-156.79"/>
<polygon fill="midnightblue" stroke="midnightblue" points="738.18,-158.45 740.56,-148.13 732.26,-154.72 738.18,-158.45"/>
</g>
<!-- Node16 -->
<g id="node16" class="node">
<title>Node16</title>
<g id="a_node16"><a xlink:title=" ">
<polygon fill="white" stroke="#bfbfbf" points="806.5,-129 806.5,-148 909.5,-148 909.5,-129 806.5,-129"/>
<text text-anchor="middle" x="858" y="-136" font-family="Helvetica,sans-Serif" font-size="10.00">g3log/logworker.hpp</text>
</a>
</g>
</g>
<!-- Node13&#45;&gt;Node16 -->
<g id="edge28" class="edge">
<title>Node13&#45;&gt;Node16</title>
<path fill="none" stroke="midnightblue" d="M725.32,-195.87C751.72,-184.65 798.03,-164.98 828.36,-152.09"/>
<polygon fill="midnightblue" stroke="midnightblue" points="829.76,-155.3 837.6,-148.17 827.03,-148.86 829.76,-155.3"/>
</g>
<!-- Node17 -->
<g id="node17" class="node">
<title>Node17</title>
<g id="a_node17"><a xlink:title=" ">
<polygon fill="white" stroke="#bfbfbf" points="927.5,-129 927.5,-148 1026.5,-148 1026.5,-129 927.5,-129"/>
<text text-anchor="middle" x="977" y="-136" font-family="Helvetica,sans-Serif" font-size="10.00">g3log/loglevels.hpp</text>
</a>
</g>
</g>
<!-- Node13&#45;&gt;Node17 -->
<g id="edge29" class="edge">
<title>Node13&#45;&gt;Node17</title>
<path fill="none" stroke="midnightblue" d="M741.77,-195.98C784.43,-186.06 856.87,-169.1 919,-154 923.67,-152.87 928.55,-151.67 933.41,-150.46"/>
<polygon fill="midnightblue" stroke="midnightblue" points="934.42,-153.82 943.28,-148.01 932.73,-147.03 934.42,-153.82"/>
</g>
</g>
</svg>
