<?xml version="1.0" encoding="UTF-8" standalone="no"?>
<!DOCTYPE svg PUBLIC "-//W3C//DTD SVG 1.1//EN"
 "http://www.w3.org/Graphics/SVG/1.1/DTD/svg11.dtd">
<!-- Generated by graphviz version 2.44.0 ()
 -->
<!-- Title: http_server.cc Pages: 1 -->
<svg width="1700pt" height="218pt"
 viewBox="0.00 0.00 1699.62 218.00" xmlns="http://www.w3.org/2000/svg" xmlns:xlink="http://www.w3.org/1999/xlink">
<g id="graph0" class="graph" transform="scale(1 1) rotate(0) translate(4 214)">
<title>http_server.cc</title>
<polygon fill="white" stroke="transparent" points="-4,4 -4,-214 1695.62,-214 1695.62,4 -4,4"/>
<!-- Node1 -->
<g id="node1" class="node">
<title>Node1</title>
<g id="a_node1"><a xlink:title=" ">
<polygon fill="#bfbfbf" stroke="black" points="602.62,-190.5 602.62,-209.5 680.62,-209.5 680.62,-190.5 602.62,-190.5"/>
<text text-anchor="middle" x="641.62" y="-197.5" font-family="Helvetica,sans-Serif" font-size="10.00">http_server.cc</text>
</a>
</g>
</g>
<!-- Node2 -->
<g id="node2" class="node">
<title>Node2</title>
<g id="a_node2"><a xlink:href="../../dd/d95/http__server_8h.html" target="_top" xlink:title=" ">
<polygon fill="white" stroke="black" points="304.62,-123.5 304.62,-153.5 426.62,-153.5 426.62,-123.5 304.62,-123.5"/>
<text text-anchor="start" x="312.62" y="-141.5" font-family="Helvetica,sans-Serif" font-size="10.00">automaton/core/network</text>
<text text-anchor="middle" x="365.62" y="-130.5" font-family="Helvetica,sans-Serif" font-size="10.00">/http_server.h</text>
</a>
</g>
</g>
<!-- Node1&#45;&gt;Node2 -->
<g id="edge1" class="edge">
<title>Node1&#45;&gt;Node2</title>
<path fill="none" stroke="midnightblue" d="M602.37,-190.54C559.37,-181.27 489.53,-166.21 436.82,-154.85"/>
<polygon fill="midnightblue" stroke="midnightblue" points="437.36,-151.39 426.85,-152.7 435.89,-158.23 437.36,-151.39"/>
</g>
<!-- Node3 -->
<g id="node3" class="node">
<title>Node3</title>
<g id="a_node3"><a xlink:title=" ">
<polygon fill="white" stroke="#bfbfbf" points="16.12,-62 16.12,-81 61.12,-81 61.12,-62 16.12,-62"/>
<text text-anchor="middle" x="38.62" y="-69" font-family="Helvetica,sans-Serif" font-size="10.00">cstdlib</text>
</a>
</g>
</g>
<!-- Node1&#45;&gt;Node3 -->
<g id="edge17" class="edge">
<title>Node1&#45;&gt;Node3</title>
<path fill="none" stroke="midnightblue" d="M602.46,-199.42C525.34,-199.26 349,-194.09 207.62,-154 152.24,-138.29 92.78,-105.44 61.27,-86.59"/>
<polygon fill="midnightblue" stroke="midnightblue" points="62.79,-83.42 52.42,-81.23 59.16,-89.4 62.79,-83.42"/>
</g>
<!-- Node4 -->
<g id="node4" class="node">
<title>Node4</title>
<g id="a_node4"><a xlink:title=" ">
<polygon fill="white" stroke="#bfbfbf" points="79.62,-62 79.62,-81 133.62,-81 133.62,-62 79.62,-62"/>
<text text-anchor="middle" x="106.62" y="-69" font-family="Helvetica,sans-Serif" font-size="10.00">iostream</text>
</a>
</g>
</g>
<!-- Node1&#45;&gt;Node4 -->
<g id="edge18" class="edge">
<title>Node1&#45;&gt;Node4</title>
<path fill="none" stroke="midnightblue" d="M602.53,-197.44C537.68,-194.09 404.26,-183.86 295.62,-154 234.2,-137.12 166.69,-104.24 131.34,-85.82"/>
<polygon fill="midnightblue" stroke="midnightblue" points="132.73,-82.6 122.25,-81.03 129.47,-88.79 132.73,-82.6"/>
</g>
<!-- Node7 -->
<g id="node7" class="node">
<title>Node7</title>
<g id="a_node7"><a xlink:title=" ">
<polygon fill="white" stroke="#bfbfbf" points="195.12,-0.5 195.12,-19.5 236.12,-19.5 236.12,-0.5 195.12,-0.5"/>
<text text-anchor="middle" x="215.62" y="-7.5" font-family="Helvetica,sans-Serif" font-size="10.00">string</text>
</a>
</g>
</g>
<!-- Node1&#45;&gt;Node7 -->
<g id="edge20" class="edge">
<title>Node1&#45;&gt;Node7</title>
<path fill="none" stroke="midnightblue" d="M602.22,-199.28C473.13,-199.19 67.65,-190.55 6.62,-87 -32.66,-20.36 117.55,-11.48 184.71,-10.77"/>
<polygon fill="midnightblue" stroke="midnightblue" points="185.13,-14.26 195.11,-10.71 185.09,-7.26 185.13,-14.26"/>
</g>
<!-- Node8 -->
<g id="node8" class="node">
<title>Node8</title>
<g id="a_node8"><a xlink:title=" ">
<polygon fill="white" stroke="#bfbfbf" points="568.62,-62 568.62,-81 612.62,-81 612.62,-62 568.62,-62"/>
<text text-anchor="middle" x="590.62" y="-69" font-family="Helvetica,sans-Serif" font-size="10.00">thread</text>
</a>
</g>
</g>
<!-- Node1&#45;&gt;Node8 -->
<g id="edge21" class="edge">
<title>Node1&#45;&gt;Node8</title>
<path fill="none" stroke="midnightblue" d="M602.42,-193.3C578.75,-187.62 550.4,-176.34 535.62,-154 520.05,-130.48 547.49,-103.37 568.91,-87.1"/>
<polygon fill="midnightblue" stroke="midnightblue" points="571.24,-89.73 577.29,-81.03 567.14,-84.06 571.24,-89.73"/>
</g>
<!-- Node10 -->
<g id="node10" class="node">
<title>Node10</title>
<g id="a_node10"><a xlink:title=" ">
<polygon fill="white" stroke="#bfbfbf" points="631.12,-62 631.12,-81 758.12,-81 758.12,-62 631.12,-62"/>
<text text-anchor="middle" x="694.62" y="-69" font-family="Helvetica,sans-Serif" font-size="10.00">boost/asio/io_service.hpp</text>
</a>
</g>
</g>
<!-- Node1&#45;&gt;Node10 -->
<g id="edge25" class="edge">
<title>Node1&#45;&gt;Node10</title>
<path fill="none" stroke="midnightblue" d="M618.16,-190.41C602.46,-183.28 583,-171.46 573.62,-154 567.1,-141.86 565.98,-134.47 573.62,-123 586.7,-103.36 609.03,-91.35 630.97,-84"/>
<polygon fill="midnightblue" stroke="midnightblue" points="632.11,-87.31 640.65,-81.04 630.07,-80.62 632.11,-87.31"/>
</g>
<!-- Node11 -->
<g id="node11" class="node">
<title>Node11</title>
<g id="a_node11"><a xlink:title=" ">
<polygon fill="white" stroke="#bfbfbf" points="776.12,-62 776.12,-81 883.12,-81 883.12,-62 776.12,-62"/>
<text text-anchor="middle" x="829.62" y="-69" font-family="Helvetica,sans-Serif" font-size="10.00">boost/asio/ip/tcp.hpp</text>
</a>
</g>
</g>
<!-- Node1&#45;&gt;Node11 -->
<g id="edge26" class="edge">
<title>Node1&#45;&gt;Node11</title>
<path fill="none" stroke="midnightblue" d="M631.91,-190.27C616.42,-175.31 589.54,-144.31 606.62,-123 652.46,-65.78 696.14,-103.35 767.62,-87 772.67,-85.84 777.96,-84.62 783.22,-83.4"/>
<polygon fill="midnightblue" stroke="midnightblue" points="784.3,-86.75 793.24,-81.07 782.71,-79.93 784.3,-86.75"/>
</g>
<!-- Node12 -->
<g id="node12" class="node">
<title>Node12</title>
<g id="a_node12"><a xlink:href="../../dc/dac/io_8h.html" target="_top" xlink:title=" ">
<polygon fill="white" stroke="black" points="437.12,-62 437.12,-81 550.12,-81 550.12,-62 437.12,-62"/>
<text text-anchor="middle" x="493.62" y="-69" font-family="Helvetica,sans-Serif" font-size="10.00">automaton/core/io/io.h</text>
</a>
</g>
</g>
<!-- Node1&#45;&gt;Node12 -->
<g id="edge32" class="edge">
<title>Node1&#45;&gt;Node12</title>
<path fill="none" stroke="midnightblue" d="M602.49,-191.68C578.25,-185.36 547.97,-173.97 527.62,-154 510.22,-136.93 501.31,-109.62 497.07,-91.38"/>
<polygon fill="midnightblue" stroke="midnightblue" points="500.45,-90.45 494.99,-81.37 493.59,-91.87 500.45,-90.45"/>
</g>
<!-- Node17 -->
<g id="node17" class="node">
<title>Node17</title>
<g id="a_node17"><a xlink:title=" ">
<polygon fill="white" stroke="#bfbfbf" points="615.62,-129 615.62,-148 667.62,-148 667.62,-129 615.62,-129"/>
<text text-anchor="middle" x="641.62" y="-136" font-family="Helvetica,sans-Serif" font-size="10.00">sstream</text>
</a>
</g>
</g>
<!-- Node1&#45;&gt;Node17 -->
<g id="edge19" class="edge">
<title>Node1&#45;&gt;Node17</title>
<path fill="none" stroke="midnightblue" d="M641.62,-190.48C641.62,-182.08 641.62,-168.98 641.62,-158.16"/>
<polygon fill="midnightblue" stroke="midnightblue" points="645.12,-158.01 641.62,-148.01 638.12,-158.01 645.12,-158.01"/>
</g>
<!-- Node18 -->
<g id="node18" class="node">
<title>Node18</title>
<g id="a_node18"><a xlink:title=" ">
<polygon fill="white" stroke="#bfbfbf" points="686.12,-123.5 686.12,-153.5 809.12,-153.5 809.12,-123.5 686.12,-123.5"/>
<text text-anchor="start" x="694.12" y="-141.5" font-family="Helvetica,sans-Serif" font-size="10.00">boost/asio/basic_stream</text>
<text text-anchor="middle" x="747.62" y="-130.5" font-family="Helvetica,sans-Serif" font-size="10.00">_socket.hpp</text>
</a>
</g>
</g>
<!-- Node1&#45;&gt;Node18 -->
<g id="edge22" class="edge">
<title>Node1&#45;&gt;Node18</title>
<path fill="none" stroke="midnightblue" d="M656.81,-190.48C671.63,-182.15 694.69,-169.21 713.87,-158.45"/>
<polygon fill="midnightblue" stroke="midnightblue" points="715.63,-161.47 722.64,-153.52 712.2,-155.37 715.63,-161.47"/>
</g>
<!-- Node19 -->
<g id="node19" class="node">
<title>Node19</title>
<g id="a_node19"><a xlink:title=" ">
<polygon fill="white" stroke="#bfbfbf" points="827.12,-129 827.12,-148 934.12,-148 934.12,-129 827.12,-129"/>
<text text-anchor="middle" x="880.62" y="-136" font-family="Helvetica,sans-Serif" font-size="10.00">boost/asio/buffer.hpp</text>
</a>
</g>
</g>
<!-- Node1&#45;&gt;Node19 -->
<g id="edge23" class="edge">
<title>Node1&#45;&gt;Node19</title>
<path fill="none" stroke="midnightblue" d="M675.86,-190.48C718.19,-179.94 790.3,-161.99 836.67,-150.44"/>
<polygon fill="midnightblue" stroke="midnightblue" points="837.58,-153.82 846.44,-148.01 835.89,-147.03 837.58,-153.82"/>
</g>
<!-- Node20 -->
<g id="node20" class="node">
<title>Node20</title>
<g id="a_node20"><a xlink:title=" ">
<polygon fill="white" stroke="#bfbfbf" points="951.62,-129 951.62,-148 1053.62,-148 1053.62,-129 951.62,-129"/>
<text text-anchor="middle" x="1002.62" y="-136" font-family="Helvetica,sans-Serif" font-size="10.00">boost/asio/error.hpp</text>
</a>
</g>
</g>
<!-- Node1&#45;&gt;Node20 -->
<g id="edge24" class="edge">
<title>Node1&#45;&gt;Node20</title>
<path fill="none" stroke="midnightblue" d="M680.91,-194.33C738.73,-187.19 850,-172.44 943.62,-154 949.05,-152.93 954.74,-151.69 960.34,-150.39"/>
<polygon fill="midnightblue" stroke="midnightblue" points="961.36,-153.75 970.28,-148.02 959.74,-146.94 961.36,-153.75"/>
</g>
<!-- Node21 -->
<g id="node21" class="node">
<title>Node21</title>
<g id="a_node21"><a xlink:title=" ">
<polygon fill="white" stroke="#bfbfbf" points="1072.12,-129 1072.12,-148 1209.12,-148 1209.12,-129 1072.12,-129"/>
<text text-anchor="middle" x="1140.62" y="-136" font-family="Helvetica,sans-Serif" font-size="10.00">boost/asio/placeholders.hpp</text>
</a>
</g>
</g>
<!-- Node1&#45;&gt;Node21 -->
<g id="edge27" class="edge">
<title>Node1&#45;&gt;Node21</title>
<path fill="none" stroke="midnightblue" d="M680.63,-195.84C755.11,-189.6 922.61,-174.47 1062.62,-154 1070.76,-152.81 1079.34,-151.39 1087.73,-149.9"/>
<polygon fill="midnightblue" stroke="midnightblue" points="1088.59,-153.3 1097.8,-148.07 1087.34,-146.42 1088.59,-153.3"/>
</g>
<!-- Node22 -->
<g id="node22" class="node">
<title>Node22</title>
<g id="a_node22"><a xlink:title=" ">
<polygon fill="white" stroke="#bfbfbf" points="1227.12,-129 1227.12,-148 1352.12,-148 1352.12,-129 1227.12,-129"/>
<text text-anchor="middle" x="1289.62" y="-136" font-family="Helvetica,sans-Serif" font-size="10.00">boost/asio/read_until.hpp</text>
</a>
</g>
</g>
<!-- Node1&#45;&gt;Node22 -->
<g id="edge28" class="edge">
<title>Node1&#45;&gt;Node22</title>
<path fill="none" stroke="midnightblue" d="M680.63,-197.62C773.97,-193.97 1017.38,-182.29 1218.62,-154 1226.33,-152.92 1234.46,-151.51 1242.35,-150"/>
<polygon fill="midnightblue" stroke="midnightblue" points="1243.06,-153.43 1252.18,-148.05 1241.69,-146.56 1243.06,-153.43"/>
</g>
<!-- Node23 -->
<g id="node23" class="node">
<title>Node23</title>
<g id="a_node23"><a xlink:title=" ">
<polygon fill="white" stroke="#bfbfbf" points="1370.12,-129 1370.12,-148 1471.12,-148 1471.12,-129 1370.12,-129"/>
<text text-anchor="middle" x="1420.62" y="-136" font-family="Helvetica,sans-Serif" font-size="10.00">boost/asio/read.hpp</text>
</a>
</g>
</g>
<!-- Node1&#45;&gt;Node23 -->
<g id="edge29" class="edge">
<title>Node1&#45;&gt;Node23</title>
<path fill="none" stroke="midnightblue" d="M680.9,-199C789.74,-198.47 1104.1,-193.37 1361.62,-154 1367.63,-153.08 1373.93,-151.84 1380.07,-150.47"/>
<polygon fill="midnightblue" stroke="midnightblue" points="1381.28,-153.78 1390.2,-148.07 1379.67,-146.97 1381.28,-153.78"/>
</g>
<!-- Node24 -->
<g id="node24" class="node">
<title>Node24</title>
<g id="a_node24"><a xlink:title=" ">
<polygon fill="white" stroke="#bfbfbf" points="1489.62,-129 1489.62,-148 1593.62,-148 1593.62,-129 1489.62,-129"/>
<text text-anchor="middle" x="1541.62" y="-136" font-family="Helvetica,sans-Serif" font-size="10.00">boost/asio/write.hpp</text>
</a>
</g>
</g>
<!-- Node1&#45;&gt;Node24 -->
<g id="edge30" class="edge">
<title>Node1&#45;&gt;Node24</title>
<path fill="none" stroke="midnightblue" d="M680.75,-199.39C800.91,-200.06 1174.91,-198.17 1480.62,-154 1487.05,-153.07 1493.8,-151.79 1500.37,-150.36"/>
<polygon fill="midnightblue" stroke="midnightblue" points="1501.52,-153.69 1510.48,-148.04 1499.95,-146.87 1501.52,-153.69"/>
</g>
<!-- Node25 -->
<g id="node25" class="node">
<title>Node25</title>
<g id="a_node25"><a xlink:title=" ">
<polygon fill="white" stroke="#bfbfbf" points="1611.62,-129 1611.62,-148 1691.62,-148 1691.62,-129 1611.62,-129"/>
<text text-anchor="middle" x="1651.62" y="-136" font-family="Helvetica,sans-Serif" font-size="10.00">boost/bind.hpp</text>
</a>
</g>
</g>
<!-- Node1&#45;&gt;Node25 -->
<g id="edge31" class="edge">
<title>Node1&#45;&gt;Node25</title>
<path fill="none" stroke="midnightblue" d="M680.66,-198.43C837.33,-195.92 1420.74,-184.71 1602.62,-154 1607.4,-153.19 1612.37,-152.07 1617.23,-150.8"/>
<polygon fill="midnightblue" stroke="midnightblue" points="1618.29,-154.14 1626.96,-148.06 1616.39,-147.4 1618.29,-154.14"/>
</g>
<!-- Node2&#45;&gt;Node3 -->
<g id="edge2" class="edge">
<title>Node2&#45;&gt;Node3</title>
<path fill="none" stroke="midnightblue" d="M304.39,-131.64C243.98,-124.79 149.48,-111.18 70.62,-87 68.69,-86.41 66.73,-85.73 64.78,-85"/>
<polygon fill="midnightblue" stroke="midnightblue" points="65.82,-81.64 55.24,-81.01 63.12,-88.09 65.82,-81.64"/>
</g>
<!-- Node2&#45;&gt;Node4 -->
<g id="edge3" class="edge">
<title>Node2&#45;&gt;Node4</title>
<path fill="none" stroke="midnightblue" d="M304.35,-126.38C259.15,-117.51 196.42,-103.81 142.62,-87 140.34,-86.29 138,-85.5 135.66,-84.66"/>
<polygon fill="midnightblue" stroke="midnightblue" points="136.81,-81.35 126.22,-81.06 134.31,-87.89 136.81,-81.35"/>
</g>
<!-- Node5 -->
<g id="node5" class="node">
<title>Node5</title>
<g id="a_node5"><a xlink:title=" ">
<polygon fill="white" stroke="#bfbfbf" points="152.12,-62 152.12,-81 187.12,-81 187.12,-62 152.12,-62"/>
<text text-anchor="middle" x="169.62" y="-69" font-family="Helvetica,sans-Serif" font-size="10.00">map</text>
</a>
</g>
</g>
<!-- Node2&#45;&gt;Node5 -->
<g id="edge4" class="edge">
<title>Node2&#45;&gt;Node5</title>
<path fill="none" stroke="midnightblue" d="M314.08,-123.45C281.49,-114.12 238.67,-101.04 201.62,-87 200.01,-86.39 198.37,-85.74 196.72,-85.06"/>
<polygon fill="midnightblue" stroke="midnightblue" points="197.96,-81.79 187.39,-81.03 195.18,-88.21 197.96,-81.79"/>
</g>
<!-- Node6 -->
<g id="node6" class="node">
<title>Node6</title>
<g id="a_node6"><a xlink:title=" ">
<polygon fill="white" stroke="#bfbfbf" points="244.12,-62 244.12,-81 295.12,-81 295.12,-62 244.12,-62"/>
<text text-anchor="middle" x="269.62" y="-69" font-family="Helvetica,sans-Serif" font-size="10.00">memory</text>
</a>
</g>
</g>
<!-- Node2&#45;&gt;Node6 -->
<g id="edge5" class="edge">
<title>Node2&#45;&gt;Node6</title>
<path fill="none" stroke="midnightblue" d="M344.79,-123.4C328.84,-112.6 306.92,-97.76 290.87,-86.89"/>
<polygon fill="midnightblue" stroke="midnightblue" points="292.43,-83.72 282.18,-81.01 288.5,-89.51 292.43,-83.72"/>
</g>
<!-- Node2&#45;&gt;Node7 -->
<g id="edge6" class="edge">
<title>Node2&#45;&gt;Node7</title>
<path fill="none" stroke="midnightblue" d="M304.39,-126.76C279.55,-119.46 252.54,-107.27 234.62,-87 220.71,-71.27 216.67,-46.87 215.65,-29.98"/>
<polygon fill="midnightblue" stroke="midnightblue" points="219.14,-29.58 215.34,-19.69 212.14,-29.79 219.14,-29.58"/>
</g>
<!-- Node2&#45;&gt;Node8 -->
<g id="edge7" class="edge">
<title>Node2&#45;&gt;Node8</title>
<path fill="none" stroke="midnightblue" d="M426.78,-124.6C465.41,-115.72 516.07,-102.7 559.62,-87 561.23,-86.42 562.88,-85.78 564.52,-85.11"/>
<polygon fill="midnightblue" stroke="midnightblue" points="566.05,-88.27 573.8,-81.05 563.24,-81.86 566.05,-88.27"/>
</g>
<!-- Node9 -->
<g id="node9" class="node">
<title>Node9</title>
<g id="a_node9"><a xlink:title=" ">
<polygon fill="white" stroke="#bfbfbf" points="312.62,-56.5 312.62,-86.5 418.62,-86.5 418.62,-56.5 312.62,-56.5"/>
<text text-anchor="start" x="320.62" y="-74.5" font-family="Helvetica,sans-Serif" font-size="10.00">boost/config/warning</text>
<text text-anchor="middle" x="365.62" y="-63.5" font-family="Helvetica,sans-Serif" font-size="10.00">_disable.hpp</text>
</a>
</g>
</g>
<!-- Node2&#45;&gt;Node9 -->
<g id="edge8" class="edge">
<title>Node2&#45;&gt;Node9</title>
<path fill="none" stroke="midnightblue" d="M365.62,-123.4C365.62,-115.64 365.62,-105.81 365.62,-96.86"/>
<polygon fill="midnightblue" stroke="midnightblue" points="369.12,-96.58 365.62,-86.58 362.12,-96.58 369.12,-96.58"/>
</g>
<!-- Node2&#45;&gt;Node10 -->
<g id="edge9" class="edge">
<title>Node2&#45;&gt;Node10</title>
<path fill="none" stroke="midnightblue" d="M426.66,-125.48C478.53,-115.26 554.96,-100.19 621.62,-87 628.18,-85.7 635.06,-84.34 641.88,-82.98"/>
<polygon fill="midnightblue" stroke="midnightblue" points="642.65,-86.4 651.77,-81.02 641.28,-79.53 642.65,-86.4"/>
</g>
<!-- Node2&#45;&gt;Node11 -->
<g id="edge10" class="edge">
<title>Node2&#45;&gt;Node11</title>
<path fill="none" stroke="midnightblue" d="M426.87,-131.82C505.95,-124.03 647.67,-108.5 767.62,-87 773.54,-85.94 779.75,-84.67 785.86,-83.34"/>
<polygon fill="midnightblue" stroke="midnightblue" points="786.98,-86.67 795.96,-81.05 785.44,-79.84 786.98,-86.67"/>
</g>
<!-- Node2&#45;&gt;Node12 -->
<g id="edge11" class="edge">
<title>Node2&#45;&gt;Node12</title>
<path fill="none" stroke="midnightblue" d="M393.39,-123.4C415.55,-112.14 446.35,-96.5 467.94,-85.54"/>
<polygon fill="midnightblue" stroke="midnightblue" points="469.53,-88.66 476.87,-81.01 466.36,-82.41 469.53,-88.66"/>
</g>
<!-- Node12&#45;&gt;Node7 -->
<g id="edge13" class="edge">
<title>Node12&#45;&gt;Node7</title>
<path fill="none" stroke="midnightblue" d="M454.89,-61.94C445.94,-59.98 436.45,-57.91 427.62,-56 363.17,-42.08 287.61,-26.13 246.36,-17.45"/>
<polygon fill="midnightblue" stroke="midnightblue" points="246.9,-13.99 236.39,-15.36 245.46,-20.84 246.9,-13.99"/>
</g>
<!-- Node13 -->
<g id="node13" class="node">
<title>Node13</title>
<g id="a_node13"><a xlink:title=" ">
<polygon fill="white" stroke="#bfbfbf" points="331.62,-0.5 331.62,-19.5 377.62,-19.5 377.62,-0.5 331.62,-0.5"/>
<text text-anchor="middle" x="354.62" y="-7.5" font-family="Helvetica,sans-Serif" font-size="10.00">chrono</text>
</a>
</g>
</g>
<!-- Node12&#45;&gt;Node13 -->
<g id="edge12" class="edge">
<title>Node12&#45;&gt;Node13</title>
<path fill="none" stroke="midnightblue" d="M473.7,-61.98C450.17,-51.9 410.81,-35.05 383.83,-23.5"/>
<polygon fill="midnightblue" stroke="midnightblue" points="385.07,-20.23 374.5,-19.51 382.31,-26.66 385.07,-20.23"/>
</g>
<!-- Node14 -->
<g id="node14" class="node">
<title>Node14</title>
<g id="a_node14"><a xlink:title=" ">
<polygon fill="white" stroke="#bfbfbf" points="395.62,-0.5 395.62,-19.5 479.62,-19.5 479.62,-0.5 395.62,-0.5"/>
<text text-anchor="middle" x="437.62" y="-7.5" font-family="Helvetica,sans-Serif" font-size="10.00">g3log/g3log.hpp</text>
</a>
</g>
</g>
<!-- Node12&#45;&gt;Node14 -->
<g id="edge14" class="edge">
<title>Node12&#45;&gt;Node14</title>
<path fill="none" stroke="midnightblue" d="M485.59,-61.98C477.03,-52.87 463.26,-38.24 452.66,-26.98"/>
<polygon fill="midnightblue" stroke="midnightblue" points="455.03,-24.39 445.63,-19.51 449.93,-29.19 455.03,-24.39"/>
</g>
<!-- Node15 -->
<g id="node15" class="node">
<title>Node15</title>
<g id="a_node15"><a xlink:title=" ">
<polygon fill="white" stroke="#bfbfbf" points="498.12,-0.5 498.12,-19.5 601.12,-19.5 601.12,-0.5 498.12,-0.5"/>
<text text-anchor="middle" x="549.62" y="-7.5" font-family="Helvetica,sans-Serif" font-size="10.00">g3log/logworker.hpp</text>
</a>
</g>
</g>
<!-- Node12&#45;&gt;Node15 -->
<g id="edge15" class="edge">
<title>Node12&#45;&gt;Node15</title>
<path fill="none" stroke="midnightblue" d="M501.64,-61.98C510.21,-52.87 523.98,-38.24 534.58,-26.98"/>
<polygon fill="midnightblue" stroke="midnightblue" points="537.3,-29.19 541.61,-19.51 532.21,-24.39 537.3,-29.19"/>
</g>
<!-- Node16 -->
<g id="node16" class="node">
<title>Node16</title>
<g id="a_node16"><a xlink:title=" ">
<polygon fill="white" stroke="#bfbfbf" points="619.12,-0.5 619.12,-19.5 718.12,-19.5 718.12,-0.5 619.12,-0.5"/>
<text text-anchor="middle" x="668.62" y="-7.5" font-family="Helvetica,sans-Serif" font-size="10.00">g3log/loglevels.hpp</text>
</a>
</g>
</g>
<!-- Node12&#45;&gt;Node16 -->
<g id="edge16" class="edge">
<title>Node12&#45;&gt;Node16</title>
<path fill="none" stroke="midnightblue" d="M518.69,-61.98C548.97,-51.68 600.06,-34.31 634.06,-22.75"/>
<polygon fill="midnightblue" stroke="midnightblue" points="635.25,-26.04 643.59,-19.51 633,-19.41 635.25,-26.04"/>
</g>
</g>
</svg>
