<?xml version="1.0" encoding="UTF-8" standalone="no"?>
<!DOCTYPE svg PUBLIC "-//W3C//DTD SVG 1.1//EN"
 "http://www.w3.org/Graphics/SVG/1.1/DTD/svg11.dtd">
<!-- Generated by graphviz version 2.42.3 ()
 -->
<!-- Title: eth_contract_curl.cc Pages: 1 -->
<svg width="1710pt" height="296pt"
 viewBox="0.00 0.00 1710.37 296.00" xmlns="http://www.w3.org/2000/svg" xmlns:xlink="http://www.w3.org/1999/xlink">
<g id="graph0" class="graph" transform="scale(1 1) rotate(0) translate(4 292)">
<title>eth_contract_curl.cc</title>
<polygon fill="white" stroke="transparent" points="-4,4 -4,-292 1706.37,-292 1706.37,4 -4,4"/>
<!-- Node1 -->
<g id="node1" class="node">
<title>Node1</title>
<g id="a_node1"><a xlink:title=" ">
<polygon fill="#bfbfbf" stroke="black" points="827.28,-268.5 827.28,-287.5 931.28,-287.5 931.28,-268.5 827.28,-268.5"/>
<text text-anchor="middle" x="879.28" y="-275.5" font-family="Helvetica,sans-Serif" font-size="10.00">eth_contract_curl.cc</text>
</a>
</g>
</g>
<!-- Node2 -->
<g id="node2" class="node">
<title>Node2</title>
<g id="a_node2"><a xlink:href="../../de/de4/eth__contract__curl_8h.html" target="_top" xlink:title=" ">
<polygon fill="white" stroke="black" points="722.78,-190.5 722.78,-231.5 839.78,-231.5 839.78,-190.5 722.78,-190.5"/>
<text text-anchor="start" x="730.78" y="-219.5" font-family="Helvetica,sans-Serif" font-size="10.00">automaton/core/interop</text>
<text text-anchor="start" x="730.78" y="-208.5" font-family="Helvetica,sans-Serif" font-size="10.00">/ethereum/eth_contract</text>
<text text-anchor="middle" x="781.28" y="-197.5" font-family="Helvetica,sans-Serif" font-size="10.00">_curl.h</text>
</a>
</g>
</g>
<!-- Node1&#45;&gt;Node2 -->
<g id="edge1" class="edge">
<title>Node1&#45;&gt;Node2</title>
<path fill="none" stroke="midnightblue" d="M866.07,-268.23C854.06,-260.27 835.73,-248.11 819.19,-237.14"/>
<polygon fill="midnightblue" stroke="midnightblue" points="821.02,-234.15 810.75,-231.54 817.15,-239.99 821.02,-234.15"/>
</g>
<!-- Node5 -->
<g id="node5" class="node">
<title>Node5</title>
<g id="a_node5"><a xlink:title=" ">
<polygon fill="white" stroke="#bfbfbf" points="428.78,-0.5 428.78,-19.5 469.78,-19.5 469.78,-0.5 428.78,-0.5"/>
<text text-anchor="middle" x="449.28" y="-7.5" font-family="Helvetica,sans-Serif" font-size="10.00">string</text>
</a>
</g>
</g>
<!-- Node1&#45;&gt;Node5 -->
<g id="edge20" class="edge">
<title>Node1&#45;&gt;Node5</title>
<path fill="none" stroke="midnightblue" d="M827.28,-277.36C654.43,-278.14 106.37,-277 42.28,-232 0.86,-202.92 -8.79,-170.28 9.28,-123 23.56,-85.66 33.81,-74.43 69.28,-56 129.95,-24.48 338.7,-14.56 418.2,-11.88"/>
<polygon fill="midnightblue" stroke="midnightblue" points="418.65,-15.36 428.53,-11.54 418.42,-8.37 418.65,-15.36"/>
</g>
<!-- Node7 -->
<g id="node7" class="node">
<title>Node7</title>
<g id="a_node7"><a xlink:title=" ">
<polygon fill="white" stroke="#bfbfbf" points="994.78,-129 994.78,-148 1033.78,-148 1033.78,-129 994.78,-129"/>
<text text-anchor="middle" x="1014.28" y="-136" font-family="Helvetica,sans-Serif" font-size="10.00">utility</text>
</a>
</g>
</g>
<!-- Node1&#45;&gt;Node7 -->
<g id="edge21" class="edge">
<title>Node1&#45;&gt;Node7</title>
<path fill="none" stroke="midnightblue" d="M887.73,-268.4C909.89,-245.83 969.97,-184.63 998.65,-155.43"/>
<polygon fill="midnightblue" stroke="midnightblue" points="1001.33,-157.69 1005.84,-148.1 996.34,-152.78 1001.33,-157.69"/>
</g>
<!-- Node17 -->
<g id="node17" class="node">
<title>Node17</title>
<g id="a_node17"><a xlink:title=" ">
<polygon fill="white" stroke="#bfbfbf" points="1236.28,-201.5 1236.28,-220.5 1286.28,-220.5 1286.28,-201.5 1236.28,-201.5"/>
<text text-anchor="middle" x="1261.28" y="-208.5" font-family="Helvetica,sans-Serif" font-size="10.00">iomanip</text>
</a>
</g>
</g>
<!-- Node1&#45;&gt;Node17 -->
<g id="edge19" class="edge">
<title>Node1&#45;&gt;Node17</title>
<path fill="none" stroke="midnightblue" d="M931.31,-275.69C999.56,-272.74 1122.37,-263.14 1222.28,-232 1227.6,-230.34 1233.06,-228 1238.15,-225.5"/>
<polygon fill="midnightblue" stroke="midnightblue" points="1240.14,-228.41 1247.34,-220.64 1236.86,-222.22 1240.14,-228.41"/>
</g>
<!-- Node18 -->
<g id="node18" class="node">
<title>Node18</title>
<g id="a_node18"><a xlink:href="../../da/d44/_keccak__256__cryptopp_8h.html" target="_top" xlink:title=" ">
<polygon fill="white" stroke="black" points="235.78,-190.5 235.78,-231.5 348.78,-231.5 348.78,-190.5 235.78,-190.5"/>
<text text-anchor="start" x="243.78" y="-219.5" font-family="Helvetica,sans-Serif" font-size="10.00">automaton/core/crypto</text>
<text text-anchor="start" x="243.78" y="-208.5" font-family="Helvetica,sans-Serif" font-size="10.00">/cryptopp/Keccak_256</text>
<text text-anchor="middle" x="292.28" y="-197.5" font-family="Helvetica,sans-Serif" font-size="10.00">_cryptopp.h</text>
</a>
</g>
</g>
<!-- Node1&#45;&gt;Node18 -->
<g id="edge22" class="edge">
<title>Node1&#45;&gt;Node18</title>
<path fill="none" stroke="midnightblue" d="M827.19,-271.23C720.45,-259.41 477.04,-232.46 358.97,-219.38"/>
<polygon fill="midnightblue" stroke="midnightblue" points="359.29,-215.9 348.97,-218.28 358.52,-222.86 359.29,-215.9"/>
</g>
<!-- Node22 -->
<g id="node22" class="node">
<title>Node22</title>
<g id="a_node22"><a xlink:href="../../d3/d9c/eth__transaction_8h.html" target="_top" xlink:title=" ">
<polygon fill="white" stroke="black" points="50.78,-196 50.78,-226 187.78,-226 187.78,-196 50.78,-196"/>
<text text-anchor="start" x="58.78" y="-214" font-family="Helvetica,sans-Serif" font-size="10.00">automaton/core/interop</text>
<text text-anchor="middle" x="119.28" y="-203" font-family="Helvetica,sans-Serif" font-size="10.00">/ethereum/eth_transaction.h</text>
</a>
</g>
</g>
<!-- Node1&#45;&gt;Node22 -->
<g id="edge29" class="edge">
<title>Node1&#45;&gt;Node22</title>
<path fill="none" stroke="midnightblue" d="M827.11,-275.42C716.27,-271.63 449.32,-260.13 227.28,-232 217.81,-230.8 207.9,-229.3 198.1,-227.67"/>
<polygon fill="midnightblue" stroke="midnightblue" points="198.4,-224.17 187.95,-225.93 197.21,-231.07 198.4,-224.17"/>
</g>
<!-- Node23 -->
<g id="node23" class="node">
<title>Node23</title>
<g id="a_node23"><a xlink:href="../../dc/dbc/eth__helper__functions_8h.html" target="_top" xlink:title=" ">
<polygon fill="white" stroke="black" points="1018.78,-196 1018.78,-226 1179.78,-226 1179.78,-196 1018.78,-196"/>
<text text-anchor="start" x="1026.78" y="-214" font-family="Helvetica,sans-Serif" font-size="10.00">automaton/core/interop</text>
<text text-anchor="middle" x="1099.28" y="-203" font-family="Helvetica,sans-Serif" font-size="10.00">/ethereum/eth_helper_functions.h</text>
</a>
</g>
</g>
<!-- Node1&#45;&gt;Node23 -->
<g id="edge31" class="edge">
<title>Node1&#45;&gt;Node23</title>
<path fill="none" stroke="midnightblue" d="M908.5,-268.37C942.44,-258.34 999.25,-241.56 1042.07,-228.9"/>
<polygon fill="midnightblue" stroke="midnightblue" points="1043.21,-232.22 1051.8,-226.03 1041.22,-225.51 1043.21,-232.22"/>
</g>
<!-- Node29 -->
<g id="node29" class="node">
<title>Node29</title>
<g id="a_node29"><a xlink:href="../../dc/dac/io_8h.html" target="_top" xlink:title=" ">
<polygon fill="white" stroke="black" points="1519.78,-129 1519.78,-148 1632.78,-148 1632.78,-129 1519.78,-129"/>
<text text-anchor="middle" x="1576.28" y="-136" font-family="Helvetica,sans-Serif" font-size="10.00">automaton/core/io/io.h</text>
</a>
</g>
</g>
<!-- Node1&#45;&gt;Node29 -->
<g id="edge49" class="edge">
<title>Node1&#45;&gt;Node29</title>
<path fill="none" stroke="midnightblue" d="M931.39,-273.71C1007.73,-268.17 1145.67,-255.25 1189.28,-232 1211.5,-220.16 1205.03,-201.76 1227.28,-190 1331.22,-135.1 1373.08,-171.66 1489.28,-154 1498.18,-152.65 1507.57,-151.15 1516.77,-149.65"/>
<polygon fill="midnightblue" stroke="midnightblue" points="1517.34,-153.11 1526.64,-148.03 1516.2,-146.2 1517.34,-153.11"/>
</g>
<!-- Node3 -->
<g id="node3" class="node">
<title>Node3</title>
<g id="a_node3"><a xlink:title=" ">
<polygon fill="white" stroke="#bfbfbf" points="567.78,-129 567.78,-148 626.78,-148 626.78,-129 567.78,-129"/>
<text text-anchor="middle" x="597.28" y="-136" font-family="Helvetica,sans-Serif" font-size="10.00">functional</text>
</a>
</g>
</g>
<!-- Node2&#45;&gt;Node3 -->
<g id="edge2" class="edge">
<title>Node2&#45;&gt;Node3</title>
<path fill="none" stroke="midnightblue" d="M730.03,-190.36C697.83,-178.02 657.29,-162.49 629.53,-151.85"/>
<polygon fill="midnightblue" stroke="midnightblue" points="630.51,-148.48 619.92,-148.17 628.01,-155.02 630.51,-148.48"/>
</g>
<!-- Node4 -->
<g id="node4" class="node">
<title>Node4</title>
<g id="a_node4"><a xlink:title=" ">
<polygon fill="white" stroke="#bfbfbf" points="629.78,-62 629.78,-81 680.78,-81 680.78,-62 629.78,-62"/>
<text text-anchor="middle" x="655.28" y="-69" font-family="Helvetica,sans-Serif" font-size="10.00">memory</text>
</a>
</g>
</g>
<!-- Node2&#45;&gt;Node4 -->
<g id="edge3" class="edge">
<title>Node2&#45;&gt;Node4</title>
<path fill="none" stroke="midnightblue" d="M774.84,-190.17C767.9,-171.21 755.39,-142.69 737.28,-123 722.58,-107.01 701.68,-94.24 684.66,-85.54"/>
<polygon fill="midnightblue" stroke="midnightblue" points="686.18,-82.39 675.66,-81.14 683.1,-88.68 686.18,-82.39"/>
</g>
<!-- Node2&#45;&gt;Node5 -->
<g id="edge4" class="edge">
<title>Node2&#45;&gt;Node5</title>
<path fill="none" stroke="midnightblue" d="M722.62,-209.81C630.09,-208.13 456.79,-198.9 418.28,-154 389.93,-120.94 405.35,-97.59 418.28,-56 421.51,-45.62 428.06,-35.52 434.31,-27.53"/>
<polygon fill="midnightblue" stroke="midnightblue" points="437.07,-29.68 440.8,-19.77 431.7,-25.19 437.07,-29.68"/>
</g>
<!-- Node6 -->
<g id="node6" class="node">
<title>Node6</title>
<g id="a_node6"><a xlink:title=" ">
<polygon fill="white" stroke="#bfbfbf" points="644.78,-129 644.78,-148 727.78,-148 727.78,-129 644.78,-129"/>
<text text-anchor="middle" x="686.28" y="-136" font-family="Helvetica,sans-Serif" font-size="10.00">unordered_map</text>
</a>
</g>
</g>
<!-- Node2&#45;&gt;Node6 -->
<g id="edge5" class="edge">
<title>Node2&#45;&gt;Node6</title>
<path fill="none" stroke="midnightblue" d="M754.82,-190.36C739.36,-178.89 720.18,-164.65 706.04,-154.16"/>
<polygon fill="midnightblue" stroke="midnightblue" points="708.09,-151.32 697.97,-148.17 703.92,-156.94 708.09,-151.32"/>
</g>
<!-- Node2&#45;&gt;Node7 -->
<g id="edge6" class="edge">
<title>Node2&#45;&gt;Node7</title>
<path fill="none" stroke="midnightblue" d="M840.22,-197.39C881.78,-187.67 938.34,-172.72 986.28,-154 987.49,-153.53 988.71,-153.02 989.93,-152.49"/>
<polygon fill="midnightblue" stroke="midnightblue" points="991.64,-155.55 999.15,-148.08 988.62,-149.24 991.64,-155.55"/>
</g>
<!-- Node8 -->
<g id="node8" class="node">
<title>Node8</title>
<g id="a_node8"><a xlink:title=" ">
<polygon fill="white" stroke="#bfbfbf" points="784.28,-129 784.28,-148 828.28,-148 828.28,-129 784.28,-129"/>
<text text-anchor="middle" x="806.28" y="-136" font-family="Helvetica,sans-Serif" font-size="10.00">vector</text>
</a>
</g>
</g>
<!-- Node2&#45;&gt;Node8 -->
<g id="edge7" class="edge">
<title>Node2&#45;&gt;Node8</title>
<path fill="none" stroke="midnightblue" d="M788.25,-190.36C791.86,-180.19 796.23,-167.84 799.77,-157.86"/>
<polygon fill="midnightblue" stroke="midnightblue" points="803.17,-158.77 803.21,-148.17 796.57,-156.43 803.17,-158.77"/>
</g>
<!-- Node9 -->
<g id="node9" class="node">
<title>Node9</title>
<g id="a_node9"><a xlink:title=" ">
<polygon fill="white" stroke="#bfbfbf" points="846.78,-129 846.78,-148 905.78,-148 905.78,-129 846.78,-129"/>
<text text-anchor="middle" x="876.28" y="-136" font-family="Helvetica,sans-Serif" font-size="10.00">curl/curl.h</text>
</a>
</g>
</g>
<!-- Node2&#45;&gt;Node9 -->
<g id="edge8" class="edge">
<title>Node2&#45;&gt;Node9</title>
<path fill="none" stroke="midnightblue" d="M807.75,-190.36C823.21,-178.89 842.39,-164.65 856.53,-154.16"/>
<polygon fill="midnightblue" stroke="midnightblue" points="858.65,-156.94 864.6,-148.17 854.48,-151.32 858.65,-156.94"/>
</g>
<!-- Node10 -->
<g id="node10" class="node">
<title>Node10</title>
<g id="a_node10"><a xlink:title=" ">
<polygon fill="white" stroke="#bfbfbf" points="923.78,-129 923.78,-148 976.78,-148 976.78,-129 923.78,-129"/>
<text text-anchor="middle" x="950.28" y="-136" font-family="Helvetica,sans-Serif" font-size="10.00">json.hpp</text>
</a>
</g>
</g>
<!-- Node2&#45;&gt;Node10 -->
<g id="edge9" class="edge">
<title>Node2&#45;&gt;Node10</title>
<path fill="none" stroke="midnightblue" d="M828.36,-190.36C857.68,-178.13 894.52,-162.76 919.99,-152.14"/>
<polygon fill="midnightblue" stroke="midnightblue" points="921.61,-155.25 929.49,-148.17 918.92,-148.79 921.61,-155.25"/>
</g>
<!-- Node11 -->
<g id="node11" class="node">
<title>Node11</title>
<g id="a_node11"><a xlink:href="../../d4/d67/connection_8h.html" target="_top" xlink:title=" ">
<polygon fill="white" stroke="black" points="427.28,-123.5 427.28,-153.5 549.28,-153.5 549.28,-123.5 427.28,-123.5"/>
<text text-anchor="start" x="435.28" y="-141.5" font-family="Helvetica,sans-Serif" font-size="10.00">automaton/core/network</text>
<text text-anchor="middle" x="488.28" y="-130.5" font-family="Helvetica,sans-Serif" font-size="10.00">/connection.h</text>
</a>
</g>
</g>
<!-- Node2&#45;&gt;Node11 -->
<g id="edge10" class="edge">
<title>Node2&#45;&gt;Node11</title>
<path fill="none" stroke="midnightblue" d="M722.7,-195.9C674.79,-184.38 606.97,-168.06 556.6,-155.94"/>
<polygon fill="midnightblue" stroke="midnightblue" points="557.31,-152.51 546.77,-153.57 555.68,-159.32 557.31,-152.51"/>
</g>
<!-- Node11&#45;&gt;Node4 -->
<g id="edge12" class="edge">
<title>Node11&#45;&gt;Node4</title>
<path fill="none" stroke="midnightblue" d="M524.52,-123.4C554.21,-111.84 595.79,-95.66 624.04,-84.66"/>
<polygon fill="midnightblue" stroke="midnightblue" points="625.38,-87.9 633.43,-81.01 622.84,-81.37 625.38,-87.9"/>
</g>
<!-- Node11&#45;&gt;Node5 -->
<g id="edge13" class="edge">
<title>Node11&#45;&gt;Node5</title>
<path fill="none" stroke="midnightblue" d="M489,-123.48C489.38,-106.86 488.54,-78.57 480.28,-56 476.5,-45.66 469.78,-35.45 463.56,-27.38"/>
<polygon fill="midnightblue" stroke="midnightblue" points="466.21,-25.08 457.17,-19.55 460.78,-29.51 466.21,-25.08"/>
</g>
<!-- Node12 -->
<g id="node12" class="node">
<title>Node12</title>
<g id="a_node12"><a xlink:title=" ">
<polygon fill="white" stroke="#bfbfbf" points="318.78,-62 318.78,-81 353.78,-81 353.78,-62 318.78,-62"/>
<text text-anchor="middle" x="336.28" y="-69" font-family="Helvetica,sans-Serif" font-size="10.00">map</text>
</a>
</g>
</g>
<!-- Node11&#45;&gt;Node12 -->
<g id="edge11" class="edge">
<title>Node11&#45;&gt;Node12</title>
<path fill="none" stroke="midnightblue" d="M455.3,-123.4C427.86,-111.66 389.26,-95.16 363.55,-84.16"/>
<polygon fill="midnightblue" stroke="midnightblue" points="364.61,-80.81 354.04,-80.09 361.86,-87.24 364.61,-80.81"/>
</g>
<!-- Node13 -->
<g id="node13" class="node">
<title>Node13</title>
<g id="a_node13"><a xlink:title=" ">
<polygon fill="white" stroke="#bfbfbf" points="427.28,-62 427.28,-81 471.28,-81 471.28,-62 427.28,-62"/>
<text text-anchor="middle" x="449.28" y="-69" font-family="Helvetica,sans-Serif" font-size="10.00">thread</text>
</a>
</g>
</g>
<!-- Node11&#45;&gt;Node13 -->
<g id="edge14" class="edge">
<title>Node11&#45;&gt;Node13</title>
<path fill="none" stroke="midnightblue" d="M479.82,-123.4C473.92,-113.56 466.01,-100.38 459.72,-89.89"/>
<polygon fill="midnightblue" stroke="midnightblue" points="462.65,-87.97 454.5,-81.19 456.65,-91.57 462.65,-87.97"/>
</g>
<!-- Node14 -->
<g id="node14" class="node">
<title>Node14</title>
<g id="a_node14"><a xlink:href="../../d1/d13/status_8h.html" target="_top" xlink:title=" ">
<polygon fill="white" stroke="black" points="1090.78,-56.5 1090.78,-86.5 1215.78,-86.5 1215.78,-56.5 1090.78,-56.5"/>
<text text-anchor="start" x="1098.78" y="-74.5" font-family="Helvetica,sans-Serif" font-size="10.00">automaton/core/common</text>
<text text-anchor="middle" x="1153.28" y="-63.5" font-family="Helvetica,sans-Serif" font-size="10.00">/status.h</text>
</a>
</g>
</g>
<!-- Node11&#45;&gt;Node14 -->
<g id="edge15" class="edge">
<title>Node11&#45;&gt;Node14</title>
<path fill="none" stroke="midnightblue" d="M549.4,-124.55C552.73,-123.99 556.05,-123.47 559.28,-123 746.04,-96.09 968.05,-81.89 1080.39,-75.95"/>
<polygon fill="midnightblue" stroke="midnightblue" points="1080.78,-79.44 1090.58,-75.42 1080.41,-72.45 1080.78,-79.44"/>
</g>
<!-- Node14&#45;&gt;Node5 -->
<g id="edge17" class="edge">
<title>Node14&#45;&gt;Node5</title>
<path fill="none" stroke="midnightblue" d="M1090.77,-58.11C1085.88,-57.33 1081.01,-56.61 1076.28,-56 848.52,-26.48 571.52,-15.08 480.14,-11.96"/>
<polygon fill="midnightblue" stroke="midnightblue" points="480.05,-8.46 469.94,-11.62 479.82,-15.45 480.05,-8.46"/>
</g>
<!-- Node15 -->
<g id="node15" class="node">
<title>Node15</title>
<g id="a_node15"><a xlink:title=" ">
<polygon fill="white" stroke="#bfbfbf" points="1127.28,-0.5 1127.28,-19.5 1179.28,-19.5 1179.28,-0.5 1127.28,-0.5"/>
<text text-anchor="middle" x="1153.28" y="-7.5" font-family="Helvetica,sans-Serif" font-size="10.00">ostream</text>
</a>
</g>
</g>
<!-- Node14&#45;&gt;Node15 -->
<g id="edge16" class="edge">
<title>Node14&#45;&gt;Node15</title>
<path fill="none" stroke="midnightblue" d="M1153.28,-56.4C1153.28,-48.47 1153.28,-38.46 1153.28,-29.86"/>
<polygon fill="midnightblue" stroke="midnightblue" points="1156.78,-29.66 1153.28,-19.66 1149.78,-29.66 1156.78,-29.66"/>
</g>
<!-- Node16 -->
<g id="node16" class="node">
<title>Node16</title>
<g id="a_node16"><a xlink:title=" ">
<polygon fill="white" stroke="#bfbfbf" points="772.28,-0.5 772.28,-19.5 826.28,-19.5 826.28,-0.5 772.28,-0.5"/>
<text text-anchor="middle" x="799.28" y="-7.5" font-family="Helvetica,sans-Serif" font-size="10.00">iostream</text>
</a>
</g>
</g>
<!-- Node14&#45;&gt;Node16 -->
<g id="edge18" class="edge">
<title>Node14&#45;&gt;Node16</title>
<path fill="none" stroke="midnightblue" d="M1090.69,-58.58C1085.82,-57.69 1080.97,-56.82 1076.28,-56 990.58,-40.97 889.64,-25.01 836.44,-16.73"/>
<polygon fill="midnightblue" stroke="midnightblue" points="836.87,-13.26 826.45,-15.18 835.8,-20.17 836.87,-13.26"/>
</g>
<!-- Node19 -->
<g id="node19" class="node">
<title>Node19</title>
<g id="a_node19"><a xlink:title=" ">
<polygon fill="white" stroke="#bfbfbf" points="275.78,-129 275.78,-148 370.78,-148 370.78,-129 275.78,-129"/>
<text text-anchor="middle" x="323.28" y="-136" font-family="Helvetica,sans-Serif" font-size="10.00">cryptopp/cryptlib.h</text>
</a>
</g>
</g>
<!-- Node18&#45;&gt;Node19 -->
<g id="edge23" class="edge">
<title>Node18&#45;&gt;Node19</title>
<path fill="none" stroke="midnightblue" d="M300.92,-190.36C305.44,-180.08 310.94,-167.58 315.35,-157.54"/>
<polygon fill="midnightblue" stroke="midnightblue" points="318.65,-158.74 319.47,-148.17 312.24,-155.92 318.65,-158.74"/>
</g>
<!-- Node20 -->
<g id="node20" class="node">
<title>Node20</title>
<g id="a_node20"><a xlink:title=" ">
<polygon fill="white" stroke="#bfbfbf" points="27.78,-129 27.78,-148 122.78,-148 122.78,-129 27.78,-129"/>
<text text-anchor="middle" x="75.28" y="-136" font-family="Helvetica,sans-Serif" font-size="10.00">cryptopp/keccak.h</text>
</a>
</g>
</g>
<!-- Node18&#45;&gt;Node20 -->
<g id="edge24" class="edge">
<title>Node18&#45;&gt;Node20</title>
<path fill="none" stroke="midnightblue" d="M235.55,-191.57C196.29,-178.81 145.22,-162.22 111.4,-151.23"/>
<polygon fill="midnightblue" stroke="midnightblue" points="112.08,-147.77 101.49,-148.01 109.92,-154.43 112.08,-147.77"/>
</g>
<!-- Node21 -->
<g id="node21" class="node">
<title>Node21</title>
<g id="a_node21"><a xlink:href="../../d2/dab/hash__transformation_8h.html" target="_top" xlink:title=" ">
<polygon fill="white" stroke="black" points="141.28,-123.5 141.28,-153.5 257.28,-153.5 257.28,-123.5 141.28,-123.5"/>
<text text-anchor="start" x="149.28" y="-141.5" font-family="Helvetica,sans-Serif" font-size="10.00">automaton/core/crypto</text>
<text text-anchor="middle" x="199.28" y="-130.5" font-family="Helvetica,sans-Serif" font-size="10.00">/hash_transformation.h</text>
</a>
</g>
</g>
<!-- Node18&#45;&gt;Node21 -->
<g id="edge25" class="edge">
<title>Node18&#45;&gt;Node21</title>
<path fill="none" stroke="midnightblue" d="M266.38,-190.36C253.89,-180.89 238.92,-169.54 226.29,-159.97"/>
<polygon fill="midnightblue" stroke="midnightblue" points="228.06,-156.92 217.98,-153.67 223.83,-162.5 228.06,-156.92"/>
</g>
<!-- Node21&#45;&gt;Node5 -->
<g id="edge28" class="edge">
<title>Node21&#45;&gt;Node5</title>
<path fill="none" stroke="midnightblue" d="M207.19,-123.32C218.21,-104.91 239.94,-73.1 267.28,-56 314.71,-26.34 380.47,-16.22 418.59,-12.78"/>
<polygon fill="midnightblue" stroke="midnightblue" points="418.88,-16.26 428.56,-11.97 418.31,-9.29 418.88,-16.26"/>
</g>
<!-- Node21&#45;&gt;Node12 -->
<g id="edge27" class="edge">
<title>Node21&#45;&gt;Node12</title>
<path fill="none" stroke="midnightblue" d="M229.01,-123.4C252.97,-112.03 286.38,-96.18 309.52,-85.2"/>
<polygon fill="midnightblue" stroke="midnightblue" points="311.21,-88.27 318.75,-80.82 308.21,-81.95 311.21,-88.27"/>
</g>
<!-- Node21&#45;&gt;Node16 -->
<g id="edge26" class="edge">
<title>Node21&#45;&gt;Node16</title>
<path fill="none" stroke="midnightblue" d="M217.31,-123.44C246,-101.18 299.89,-59.94 310.28,-56 392.96,-24.64 662.73,-14.55 762.1,-11.86"/>
<polygon fill="midnightblue" stroke="midnightblue" points="762.36,-15.35 772.27,-11.59 762.18,-8.35 762.36,-15.35"/>
</g>
<!-- Node22&#45;&gt;Node5 -->
<g id="edge30" class="edge">
<title>Node22&#45;&gt;Node5</title>
<path fill="none" stroke="midnightblue" d="M80.53,-195.89C43.76,-180.29 -2.82,-153.3 19.28,-123 67.23,-57.27 328.08,-23.82 418.45,-14.08"/>
<polygon fill="midnightblue" stroke="midnightblue" points="419.02,-17.54 428.6,-13.01 418.28,-10.58 419.02,-17.54"/>
</g>
<!-- Node23&#45;&gt;Node5 -->
<g id="edge37" class="edge">
<title>Node23&#45;&gt;Node5</title>
<path fill="none" stroke="midnightblue" d="M1094.24,-195.67C1086.51,-175.95 1069.8,-140.87 1043.28,-123 948.96,-59.4 588.37,-23.2 480.16,-13.6"/>
<polygon fill="midnightblue" stroke="midnightblue" points="480.19,-10.09 469.93,-12.71 479.58,-17.06 480.19,-10.09"/>
</g>
<!-- Node23&#45;&gt;Node7 -->
<g id="edge38" class="edge">
<title>Node23&#45;&gt;Node7</title>
<path fill="none" stroke="midnightblue" d="M1082.08,-195.73C1067.81,-183.89 1047.55,-167.09 1032.9,-154.94"/>
<polygon fill="midnightblue" stroke="midnightblue" points="1034.94,-152.08 1025.01,-148.39 1030.47,-157.47 1034.94,-152.08"/>
</g>
<!-- Node23&#45;&gt;Node8 -->
<g id="edge39" class="edge">
<title>Node23&#45;&gt;Node8</title>
<path fill="none" stroke="midnightblue" d="M1018.72,-197.32C966.52,-187.98 897.48,-173.51 838.28,-154 836.42,-153.38 834.51,-152.69 832.61,-151.96"/>
<polygon fill="midnightblue" stroke="midnightblue" points="833.86,-148.69 823.29,-148.02 831.14,-155.13 833.86,-148.69"/>
</g>
<!-- Node23&#45;&gt;Node9 -->
<g id="edge33" class="edge">
<title>Node23&#45;&gt;Node9</title>
<path fill="none" stroke="midnightblue" d="M1050.22,-195.94C1013,-185.07 960.68,-169.33 915.28,-154 912.89,-153.19 910.42,-152.33 907.94,-151.45"/>
<polygon fill="midnightblue" stroke="midnightblue" points="909.07,-148.14 898.48,-148.02 906.68,-154.72 909.07,-148.14"/>
</g>
<!-- Node23&#45;&gt;Node10 -->
<g id="edge40" class="edge">
<title>Node23&#45;&gt;Node10</title>
<path fill="none" stroke="midnightblue" d="M1069.49,-195.9C1042.68,-183.22 1003.62,-164.73 977.6,-152.42"/>
<polygon fill="midnightblue" stroke="midnightblue" points="978.86,-149.15 968.32,-148.03 975.86,-155.47 978.86,-149.15"/>
</g>
<!-- Node23&#45;&gt;Node14 -->
<g id="edge42" class="edge">
<title>Node23&#45;&gt;Node14</title>
<path fill="none" stroke="midnightblue" d="M1162.52,-195.96C1173.1,-193.82 1183.98,-191.75 1194.28,-190 1255.7,-179.58 1431.16,-200.79 1472.28,-154 1481.38,-143.65 1481.23,-133.48 1472.28,-123 1464.31,-113.66 1317.87,-93.46 1226.2,-81.63"/>
<polygon fill="midnightblue" stroke="midnightblue" points="1226.5,-78.14 1216.14,-80.34 1225.61,-85.08 1226.5,-78.14"/>
</g>
<!-- Node24 -->
<g id="node24" class="node">
<title>Node24</title>
<g id="a_node24"><a xlink:title=" ">
<polygon fill="white" stroke="#bfbfbf" points="1090.78,-129 1090.78,-148 1183.78,-148 1183.78,-129 1090.78,-129"/>
<text text-anchor="middle" x="1137.28" y="-136" font-family="Helvetica,sans-Serif" font-size="10.00">cryptopp/integer.h</text>
</a>
</g>
</g>
<!-- Node23&#45;&gt;Node24 -->
<g id="edge32" class="edge">
<title>Node23&#45;&gt;Node24</title>
<path fill="none" stroke="midnightblue" d="M1106.97,-195.73C1112.94,-184.67 1121.24,-169.27 1127.65,-157.38"/>
<polygon fill="midnightblue" stroke="midnightblue" points="1130.83,-158.86 1132.49,-148.39 1124.67,-155.54 1130.83,-158.86"/>
</g>
<!-- Node25 -->
<g id="node25" class="node">
<title>Node25</title>
<g id="a_node25"><a xlink:title=" ">
<polygon fill="white" stroke="#bfbfbf" points="1201.28,-129 1201.28,-148 1245.28,-148 1245.28,-129 1201.28,-129"/>
<text text-anchor="middle" x="1223.28" y="-136" font-family="Helvetica,sans-Serif" font-size="10.00">cmath</text>
</a>
</g>
</g>
<!-- Node23&#45;&gt;Node25 -->
<g id="edge34" class="edge">
<title>Node23&#45;&gt;Node25</title>
<path fill="none" stroke="midnightblue" d="M1124.08,-195.9C1146,-183.44 1177.76,-165.38 1199.4,-153.08"/>
<polygon fill="midnightblue" stroke="midnightblue" points="1201.31,-156.02 1208.28,-148.03 1197.85,-149.93 1201.31,-156.02"/>
</g>
<!-- Node26 -->
<g id="node26" class="node">
<title>Node26</title>
<g id="a_node26"><a xlink:title=" ">
<polygon fill="white" stroke="#bfbfbf" points="1263.28,-129 1263.28,-148 1303.28,-148 1303.28,-129 1263.28,-129"/>
<text text-anchor="middle" x="1283.28" y="-136" font-family="Helvetica,sans-Serif" font-size="10.00">regex</text>
</a>
</g>
</g>
<!-- Node23&#45;&gt;Node26 -->
<g id="edge35" class="edge">
<title>Node23&#45;&gt;Node26</title>
<path fill="none" stroke="midnightblue" d="M1142.24,-195.99C1173.65,-185.38 1217.08,-169.96 1254.28,-154 1255.45,-153.5 1256.63,-152.98 1257.82,-152.44"/>
<polygon fill="midnightblue" stroke="midnightblue" points="1259.36,-155.58 1266.88,-148.12 1256.35,-149.26 1259.36,-155.58"/>
</g>
<!-- Node27 -->
<g id="node27" class="node">
<title>Node27</title>
<g id="a_node27"><a xlink:title=" ">
<polygon fill="white" stroke="#bfbfbf" points="1321.28,-129 1321.28,-148 1373.28,-148 1373.28,-129 1321.28,-129"/>
<text text-anchor="middle" x="1347.28" y="-136" font-family="Helvetica,sans-Serif" font-size="10.00">sstream</text>
</a>
</g>
</g>
<!-- Node23&#45;&gt;Node27 -->
<g id="edge36" class="edge">
<title>Node23&#45;&gt;Node27</title>
<path fill="none" stroke="midnightblue" d="M1161.92,-195.9C1204.71,-185.69 1262.46,-170.78 1312.28,-154 1314.2,-153.35 1316.16,-152.65 1318.13,-151.92"/>
<polygon fill="midnightblue" stroke="midnightblue" points="1319.82,-155.02 1327.84,-148.1 1317.25,-148.51 1319.82,-155.02"/>
</g>
<!-- Node28 -->
<g id="node28" class="node">
<title>Node28</title>
<g id="a_node28"><a xlink:title=" ">
<polygon fill="white" stroke="#bfbfbf" points="1391.78,-129 1391.78,-148 1462.78,-148 1462.78,-129 1391.78,-129"/>
<text text-anchor="middle" x="1427.28" y="-136" font-family="Helvetica,sans-Serif" font-size="10.00">gtest/gtest.h</text>
</a>
</g>
</g>
<!-- Node23&#45;&gt;Node28 -->
<g id="edge41" class="edge">
<title>Node23&#45;&gt;Node28</title>
<path fill="none" stroke="midnightblue" d="M1165.18,-195.96C1174.93,-193.93 1184.87,-191.89 1194.28,-190 1277.69,-173.24 1299.87,-175.09 1382.28,-154 1385.73,-153.12 1389.3,-152.12 1392.85,-151.07"/>
<polygon fill="midnightblue" stroke="midnightblue" points="1394.17,-154.33 1402.69,-148.03 1392.1,-147.64 1394.17,-154.33"/>
</g>
<!-- Node23&#45;&gt;Node29 -->
<g id="edge43" class="edge">
<title>Node23&#45;&gt;Node29</title>
<path fill="none" stroke="midnightblue" d="M1161.73,-196C1172.55,-193.82 1183.72,-191.72 1194.28,-190 1331.62,-167.64 1367.88,-175.94 1505.28,-154 1512.54,-152.84 1520.19,-151.46 1527.67,-150.01"/>
<polygon fill="midnightblue" stroke="midnightblue" points="1528.58,-153.39 1537.7,-148.01 1527.21,-146.53 1528.58,-153.39"/>
</g>
<!-- Node29&#45;&gt;Node5 -->
<g id="edge45" class="edge">
<title>Node29&#45;&gt;Node5</title>
<path fill="none" stroke="midnightblue" d="M1608.79,-128.97C1653.63,-115.75 1725.57,-88.44 1694.28,-56 1688.84,-50.36 671.87,-18.02 480.23,-11.97"/>
<polygon fill="midnightblue" stroke="midnightblue" points="480.12,-8.47 470.01,-11.65 479.9,-15.46 480.12,-8.47"/>
</g>
<!-- Node30 -->
<g id="node30" class="node">
<title>Node30</title>
<g id="a_node30"><a xlink:title=" ">
<polygon fill="white" stroke="#bfbfbf" points="1298.28,-62 1298.28,-81 1344.28,-81 1344.28,-62 1298.28,-62"/>
<text text-anchor="middle" x="1321.28" y="-69" font-family="Helvetica,sans-Serif" font-size="10.00">chrono</text>
</a>
</g>
</g>
<!-- Node29&#45;&gt;Node30 -->
<g id="edge44" class="edge">
<title>Node29&#45;&gt;Node30</title>
<path fill="none" stroke="midnightblue" d="M1536.43,-128.93C1477.06,-116.1 1370.5,-92.78 1353.28,-87 1351.62,-86.44 1349.92,-85.82 1348.21,-85.16"/>
<polygon fill="midnightblue" stroke="midnightblue" points="1349.21,-81.79 1338.63,-81.13 1346.49,-88.24 1349.21,-81.79"/>
</g>
<!-- Node31 -->
<g id="node31" class="node">
<title>Node31</title>
<g id="a_node31"><a xlink:title=" ">
<polygon fill="white" stroke="#bfbfbf" points="1362.28,-62 1362.28,-81 1446.28,-81 1446.28,-62 1362.28,-62"/>
<text text-anchor="middle" x="1404.28" y="-69" font-family="Helvetica,sans-Serif" font-size="10.00">g3log/g3log.hpp</text>
</a>
</g>
</g>
<!-- Node29&#45;&gt;Node31 -->
<g id="edge46" class="edge">
<title>Node29&#45;&gt;Node31</title>
<path fill="none" stroke="midnightblue" d="M1553.44,-128.87C1523.42,-117.52 1470.5,-97.52 1436.44,-84.65"/>
<polygon fill="midnightblue" stroke="midnightblue" points="1437.54,-81.32 1426.95,-81.06 1435.06,-87.87 1437.54,-81.32"/>
</g>
<!-- Node32 -->
<g id="node32" class="node">
<title>Node32</title>
<g id="a_node32"><a xlink:title=" ">
<polygon fill="white" stroke="#bfbfbf" points="1464.78,-62 1464.78,-81 1567.78,-81 1567.78,-62 1464.78,-62"/>
<text text-anchor="middle" x="1516.28" y="-69" font-family="Helvetica,sans-Serif" font-size="10.00">g3log/logworker.hpp</text>
</a>
</g>
</g>
<!-- Node29&#45;&gt;Node32 -->
<g id="edge47" class="edge">
<title>Node29&#45;&gt;Node32</title>
<path fill="none" stroke="midnightblue" d="M1568.19,-128.73C1558.75,-118.5 1542.93,-101.36 1531.23,-88.69"/>
<polygon fill="midnightblue" stroke="midnightblue" points="1533.6,-86.1 1524.25,-81.13 1528.46,-90.85 1533.6,-86.1"/>
</g>
<!-- Node33 -->
<g id="node33" class="node">
<title>Node33</title>
<g id="a_node33"><a xlink:title=" ">
<polygon fill="white" stroke="#bfbfbf" points="1585.78,-62 1585.78,-81 1684.78,-81 1684.78,-62 1585.78,-62"/>
<text text-anchor="middle" x="1635.28" y="-69" font-family="Helvetica,sans-Serif" font-size="10.00">g3log/loglevels.hpp</text>
</a>
</g>
</g>
<!-- Node29&#45;&gt;Node33 -->
<g id="edge48" class="edge">
<title>Node29&#45;&gt;Node33</title>
<path fill="none" stroke="midnightblue" d="M1584.24,-128.73C1593.53,-118.5 1609.08,-101.36 1620.59,-88.69"/>
<polygon fill="midnightblue" stroke="midnightblue" points="1623.32,-90.88 1627.45,-81.13 1618.14,-86.18 1623.32,-90.88"/>
</g>
</g>
</svg>
