<?xml version="1.0" encoding="UTF-8" standalone="no"?>
<!DOCTYPE svg PUBLIC "-//W3C//DTD SVG 1.1//EN"
 "http://www.w3.org/Graphics/SVG/1.1/DTD/svg11.dtd">
<!-- Generated by graphviz version 2.42.3 ()
 -->
<!-- Title: eth_contract_curl.cc Pages: 1 -->
<!--zoomable 307 -->
<svg id="main" version="1.1" xmlns="http://www.w3.org/2000/svg" xmlns:xlink="http://www.w3.org/1999/xlink" xml:space="preserve" onload="init(evt)">
<style type="text/css"><![CDATA[
.edge:hover path { stroke: red; }
.edge:hover polygon { stroke: red; fill: red; }
]]></style>
<script type="text/javascript"><![CDATA[
var edges = document.getElementsByTagName('g');
if (edges && edges.length) {
  for (var i=0;i<edges.length;i++) {
    if (edges[i].id.substr(0,4)=='edge') {
      edges[i].setAttribute('class','edge');
    }
  }
}
]]></script>
        <defs>
                <circle id="rim" cx="0" cy="0" r="7"/>
                <circle id="rim2" cx="0" cy="0" r="3.5"/>
                <g id="zoomPlus">
                        <use xlink:href="#rim" fill="#404040">
                                <set attributeName="fill" to="#808080" begin="zoomplus.mouseover" end="zoomplus.mouseout"/>
                        </use>
                        <path d="M-4,0h8M0,-4v8" fill="none" stroke="white" stroke-width="1.5" pointer-events="none"/>
                </g>
                <g id="zoomMin">
                        <use xlink:href="#rim" fill="#404040">
                                <set attributeName="fill" to="#808080" begin="zoomminus.mouseover" end="zoomminus.mouseout"/>
                        </use>
                        <path d="M-4,0h8" fill="none" stroke="white" stroke-width="1.5" pointer-events="none"/>
                </g>
                <g id="dirArrow">
                        <path fill="none" stroke="white" stroke-width="1.5" d="M0,-3.0v7 M-2.5,-0.5L0,-3.0L2.5,-0.5"/>
                </g>
               <g id="resetDef">
                       <use xlink:href="#rim2" fill="#404040">
                               <set attributeName="fill" to="#808080" begin="reset.mouseover" end="reset.mouseout"/>
                       </use>
               </g>
        </defs>

<script type="text/javascript">
var viewWidth = 1847;
var viewHeight = 307;
var sectionId = 'dynsection-0';
</script>
<script xlink:href="../../svgpan.js"/>
<svg id="graph" class="graph">
<g id="viewport">
<title>eth_contract_curl.cc</title>
<polygon fill="white" stroke="transparent" points="-4,4 -4,-303 1842.74,-303 1842.74,4 -4,4"/>
<!-- Node1 -->
<g id="node1" class="node">
<title>Node1</title>
<g id="a_node1"><a xlink:title=" ">
<polygon fill="#bfbfbf" stroke="black" points="964.26,-279.5 964.26,-298.5 1068.26,-298.5 1068.26,-279.5 964.26,-279.5"/>
<text text-anchor="middle" x="1016.26" y="-286.5" font-family="Helvetica,sans-Serif" font-size="10.00">eth_contract_curl.cc</text>
</a>
</g>
</g>
<!-- Node2 -->
<g id="node2" class="node">
<title>Node2</title>
<g id="a_node2"><a xlink:href="../../de/de4/eth__contract__curl_8h.html" target="_top" xlink:title=" ">
<polygon fill="white" stroke="black" points="297.76,-201.5 297.76,-242.5 414.76,-242.5 414.76,-201.5 297.76,-201.5"/>
<text text-anchor="start" x="305.76" y="-230.5" font-family="Helvetica,sans-Serif" font-size="10.00">automaton/core/interop</text>
<text text-anchor="start" x="305.76" y="-219.5" font-family="Helvetica,sans-Serif" font-size="10.00">/ethereum/eth_contract</text>
<text text-anchor="middle" x="356.26" y="-208.5" font-family="Helvetica,sans-Serif" font-size="10.00">_curl.h</text>
</a>
</g>
</g>
<!-- Node1&#45;&gt;Node2 -->
<g id="edge1" class="edge">
<title>Node1&#45;&gt;Node2</title>
<path fill="none" stroke="midnightblue" d="M964.2,-282.87C846.13,-271.24 558.02,-242.87 425.29,-229.8"/>
<polygon fill="midnightblue" stroke="midnightblue" points="425.54,-226.31 415.24,-228.81 424.85,-233.27 425.54,-226.31"/>
</g>
<!-- Node6 -->
<g id="node6" class="node">
<title>Node6</title>
<g id="a_node6"><a xlink:title=" ">
<polygon fill="white" stroke="#bfbfbf" points="1277.76,-0.5 1277.76,-19.5 1318.76,-19.5 1318.76,-0.5 1277.76,-0.5"/>
<text text-anchor="middle" x="1298.26" y="-7.5" font-family="Helvetica,sans-Serif" font-size="10.00">string</text>
</a>
</g>
</g>
<!-- Node1&#45;&gt;Node6 -->
<g id="edge16" class="edge">
<title>Node1&#45;&gt;Node6</title>
<path fill="none" stroke="midnightblue" d="M1068.5,-283.96C1234.68,-269.85 1745.31,-216.44 1832.26,-87 1839.95,-75.56 1841.59,-66.14 1832.26,-56 1798.1,-18.83 1438.01,-12.34 1329.22,-11.23"/>
<polygon fill="midnightblue" stroke="midnightblue" points="1328.96,-7.72 1318.92,-11.13 1328.89,-14.72 1328.96,-7.72"/>
</g>
<!-- Node8 -->
<g id="node8" class="node">
<title>Node8</title>
<g id="a_node8"><a xlink:title=" ">
<polygon fill="white" stroke="#bfbfbf" points="249.76,-134.5 249.76,-153.5 288.76,-153.5 288.76,-134.5 249.76,-134.5"/>
<text text-anchor="middle" x="269.26" y="-141.5" font-family="Helvetica,sans-Serif" font-size="10.00">utility</text>
</a>
</g>
</g>
<!-- Node1&#45;&gt;Node8 -->
<g id="edge17" class="edge">
<title>Node1&#45;&gt;Node8</title>
<path fill="none" stroke="midnightblue" d="M964.17,-288.39C805.96,-289.09 338.76,-287.33 288.26,-243 265.98,-223.44 265,-186.25 266.79,-163.73"/>
<polygon fill="midnightblue" stroke="midnightblue" points="270.28,-164.05 267.85,-153.73 263.32,-163.31 270.28,-164.05"/>
</g>
<!-- Node15 -->
<g id="node15" class="node">
<title>Node15</title>
<g id="a_node15"><a xlink:title=" ">
<polygon fill="white" stroke="#bfbfbf" points="1053.26,-212.5 1053.26,-231.5 1103.26,-231.5 1103.26,-212.5 1053.26,-212.5"/>
<text text-anchor="middle" x="1078.26" y="-219.5" font-family="Helvetica,sans-Serif" font-size="10.00">iomanip</text>
</a>
</g>
</g>
<!-- Node1&#45;&gt;Node15 -->
<g id="edge15" class="edge">
<title>Node1&#45;&gt;Node15</title>
<path fill="none" stroke="midnightblue" d="M1024.62,-279.23C1034.39,-269 1050.73,-251.86 1062.82,-239.19"/>
<polygon fill="midnightblue" stroke="midnightblue" points="1065.66,-241.28 1070.03,-231.63 1060.6,-236.45 1065.66,-241.28"/>
</g>
<!-- Node16 -->
<g id="node16" class="node">
<title>Node16</title>
<g id="a_node16"><a xlink:href="../../dc/dbc/eth__helper__functions_8h.html" target="_top" xlink:title=" ">
<polygon fill="white" stroke="black" points="873.76,-207 873.76,-237 1034.76,-237 1034.76,-207 873.76,-207"/>
<text text-anchor="start" x="881.76" y="-225" font-family="Helvetica,sans-Serif" font-size="10.00">automaton/core/interop</text>
<text text-anchor="middle" x="954.26" y="-214" font-family="Helvetica,sans-Serif" font-size="10.00">/ethereum/eth_helper_functions.h</text>
</a>
</g>
</g>
<!-- Node1&#45;&gt;Node16 -->
<g id="edge18" class="edge">
<title>Node1&#45;&gt;Node16</title>
<path fill="none" stroke="midnightblue" d="M1007.9,-279.23C999.44,-270.36 986.04,-256.31 974.74,-244.47"/>
<polygon fill="midnightblue" stroke="midnightblue" points="977.14,-241.91 967.7,-237.09 972.07,-246.74 977.14,-241.91"/>
</g>
<!-- Node29 -->
<g id="node29" class="node">
<title>Node29</title>
<g id="a_node29"><a xlink:href="../../dc/dac/io_8h.html" target="_top" xlink:title=" ">
<polygon fill="white" stroke="black" points="1518.76,-134.5 1518.76,-153.5 1631.76,-153.5 1631.76,-134.5 1518.76,-134.5"/>
<text text-anchor="middle" x="1575.26" y="-141.5" font-family="Helvetica,sans-Serif" font-size="10.00">automaton/core/io/io.h</text>
</a>
</g>
</g>
<!-- Node1&#45;&gt;Node29 -->
<g id="edge45" class="edge">
<title>Node1&#45;&gt;Node29</title>
<path fill="none" stroke="midnightblue" d="M1053.22,-279.44C1135.49,-260.25 1339.83,-211.78 1509.26,-165 1518.77,-162.38 1528.99,-159.37 1538.49,-156.5"/>
<polygon fill="midnightblue" stroke="midnightblue" points="1539.51,-159.84 1548.06,-153.58 1537.47,-153.15 1539.51,-159.84"/>
</g>
<!-- Node3 -->
<g id="node3" class="node">
<title>Node3</title>
<g id="a_node3"><a xlink:title=" ">
<polygon fill="white" stroke="#bfbfbf" points="306.76,-134.5 306.76,-153.5 365.76,-153.5 365.76,-134.5 306.76,-134.5"/>
<text text-anchor="middle" x="336.26" y="-141.5" font-family="Helvetica,sans-Serif" font-size="10.00">functional</text>
</a>
</g>
</g>
<!-- Node2&#45;&gt;Node3 -->
<g id="edge2" class="edge">
<title>Node2&#45;&gt;Node3</title>
<path fill="none" stroke="midnightblue" d="M351.11,-201.43C348.02,-189.7 344.12,-174.87 341.09,-163.36"/>
<polygon fill="midnightblue" stroke="midnightblue" points="344.44,-162.33 338.51,-153.55 337.67,-164.11 344.44,-162.33"/>
</g>
<!-- Node4 -->
<g id="node4" class="node">
<title>Node4</title>
<g id="a_node4"><a xlink:title=" ">
<polygon fill="white" stroke="#bfbfbf" points="18.76,-134.5 18.76,-153.5 69.76,-153.5 69.76,-134.5 18.76,-134.5"/>
<text text-anchor="middle" x="44.26" y="-141.5" font-family="Helvetica,sans-Serif" font-size="10.00">memory</text>
</a>
</g>
</g>
<!-- Node2&#45;&gt;Node4 -->
<g id="edge3" class="edge">
<title>Node2&#45;&gt;Node4</title>
<path fill="none" stroke="midnightblue" d="M297.72,-214.95C240.35,-207.7 151.15,-192.87 78.26,-165 73.9,-163.33 69.45,-161.13 65.26,-158.8"/>
<polygon fill="midnightblue" stroke="midnightblue" points="67.05,-155.79 56.67,-153.65 63.45,-161.8 67.05,-155.79"/>
</g>
<!-- Node5 -->
<g id="node5" class="node">
<title>Node5</title>
<g id="a_node5"><a xlink:title=" ">
<polygon fill="white" stroke="#bfbfbf" points="87.76,-134.5 87.76,-153.5 130.76,-153.5 130.76,-134.5 87.76,-134.5"/>
<text text-anchor="middle" x="109.26" y="-141.5" font-family="Helvetica,sans-Serif" font-size="10.00">mutex</text>
</a>
</g>
</g>
<!-- Node2&#45;&gt;Node5 -->
<g id="edge4" class="edge">
<title>Node2&#45;&gt;Node5</title>
<path fill="none" stroke="midnightblue" d="M297.37,-211.35C252.68,-202.72 190.41,-187.86 139.26,-165 135.68,-163.4 132.05,-161.38 128.62,-159.25"/>
<polygon fill="midnightblue" stroke="midnightblue" points="130.39,-156.22 120.14,-153.54 126.48,-162.03 130.39,-156.22"/>
</g>
<!-- Node2&#45;&gt;Node6 -->
<g id="edge5" class="edge">
<title>Node2&#45;&gt;Node6</title>
<path fill="none" stroke="midnightblue" d="M297.63,-220.34C208.55,-217.94 45.61,-207.68 9.26,-165 -2.84,-150.79 -3.26,-136.84 9.26,-123 98.18,-24.77 1065.18,-30.49 1197.26,-20 1220.77,-18.13 1247.32,-15.76 1267.3,-13.91"/>
<polygon fill="midnightblue" stroke="midnightblue" points="1267.75,-17.39 1277.38,-12.98 1267.1,-10.42 1267.75,-17.39"/>
</g>
<!-- Node7 -->
<g id="node7" class="node">
<title>Node7</title>
<g id="a_node7"><a xlink:title=" ">
<polygon fill="white" stroke="#bfbfbf" points="148.76,-134.5 148.76,-153.5 231.76,-153.5 231.76,-134.5 148.76,-134.5"/>
<text text-anchor="middle" x="190.26" y="-141.5" font-family="Helvetica,sans-Serif" font-size="10.00">unordered_map</text>
</a>
</g>
</g>
<!-- Node2&#45;&gt;Node7 -->
<g id="edge6" class="edge">
<title>Node2&#45;&gt;Node7</title>
<path fill="none" stroke="midnightblue" d="M313.51,-201.43C283.53,-187.7 244.3,-169.74 218.24,-157.81"/>
<polygon fill="midnightblue" stroke="midnightblue" points="219.49,-154.53 208.94,-153.55 216.58,-160.9 219.49,-154.53"/>
</g>
<!-- Node2&#45;&gt;Node8 -->
<g id="edge7" class="edge">
<title>Node2&#45;&gt;Node8</title>
<path fill="none" stroke="midnightblue" d="M333.86,-201.43C319.18,-188.61 300.28,-172.09 286.72,-160.25"/>
<polygon fill="midnightblue" stroke="midnightblue" points="288.89,-157.5 279.05,-153.55 284.28,-162.77 288.89,-157.5"/>
</g>
<!-- Node9 -->
<g id="node9" class="node">
<title>Node9</title>
<g id="a_node9"><a xlink:title=" ">
<polygon fill="white" stroke="#bfbfbf" points="384.26,-134.5 384.26,-153.5 428.26,-153.5 428.26,-134.5 384.26,-134.5"/>
<text text-anchor="middle" x="406.26" y="-141.5" font-family="Helvetica,sans-Serif" font-size="10.00">vector</text>
</a>
</g>
</g>
<!-- Node2&#45;&gt;Node9 -->
<g id="edge8" class="edge">
<title>Node2&#45;&gt;Node9</title>
<path fill="none" stroke="midnightblue" d="M369.14,-201.43C377.18,-189.21 387.42,-173.64 395.11,-161.96"/>
<polygon fill="midnightblue" stroke="midnightblue" points="398.06,-163.83 400.64,-153.55 392.22,-159.98 398.06,-163.83"/>
</g>
<!-- Node10 -->
<g id="node10" class="node">
<title>Node10</title>
<g id="a_node10"><a xlink:title=" ">
<polygon fill="white" stroke="#bfbfbf" points="446.76,-134.5 446.76,-153.5 505.76,-153.5 505.76,-134.5 446.76,-134.5"/>
<text text-anchor="middle" x="476.26" y="-141.5" font-family="Helvetica,sans-Serif" font-size="10.00">curl/curl.h</text>
</a>
</g>
</g>
<!-- Node2&#45;&gt;Node10 -->
<g id="edge9" class="edge">
<title>Node2&#45;&gt;Node10</title>
<path fill="none" stroke="midnightblue" d="M387.17,-201.43C408.17,-188.12 435.46,-170.84 454.27,-158.93"/>
<polygon fill="midnightblue" stroke="midnightblue" points="456.18,-161.86 462.76,-153.55 452.44,-155.95 456.18,-161.86"/>
</g>
<!-- Node11 -->
<g id="node11" class="node">
<title>Node11</title>
<g id="a_node11"><a xlink:title=" ">
<polygon fill="white" stroke="#bfbfbf" points="523.76,-134.5 523.76,-153.5 576.76,-153.5 576.76,-134.5 523.76,-134.5"/>
<text text-anchor="middle" x="550.26" y="-141.5" font-family="Helvetica,sans-Serif" font-size="10.00">json.hpp</text>
</a>
</g>
</g>
<!-- Node2&#45;&gt;Node11 -->
<g id="edge10" class="edge">
<title>Node2&#45;&gt;Node11</title>
<path fill="none" stroke="midnightblue" d="M414.96,-202.79C445.11,-192.79 482.16,-179.48 514.26,-165 518.56,-163.06 523.03,-160.8 527.3,-158.5"/>
<polygon fill="midnightblue" stroke="midnightblue" points="529.15,-161.47 536.18,-153.54 525.74,-155.36 529.15,-161.47"/>
</g>
<!-- Node12 -->
<g id="node12" class="node">
<title>Node12</title>
<g id="a_node12"><a xlink:href="../../d1/d13/status_8h.html" target="_top" xlink:title=" ">
<polygon fill="white" stroke="black" points="594.76,-129 594.76,-159 719.76,-159 719.76,-129 594.76,-129"/>
<text text-anchor="start" x="602.76" y="-147" font-family="Helvetica,sans-Serif" font-size="10.00">automaton/core/common</text>
<text text-anchor="middle" x="657.26" y="-136" font-family="Helvetica,sans-Serif" font-size="10.00">/status.h</text>
</a>
</g>
</g>
<!-- Node2&#45;&gt;Node12 -->
<g id="edge11" class="edge">
<title>Node2&#45;&gt;Node12</title>
<path fill="none" stroke="midnightblue" d="M415.22,-207.12C461.55,-196.08 527.64,-180.04 585.26,-165 589.29,-163.95 593.43,-162.85 597.61,-161.73"/>
<polygon fill="midnightblue" stroke="midnightblue" points="598.62,-165.08 607.35,-159.08 596.78,-158.32 598.62,-165.08"/>
</g>
<!-- Node12&#45;&gt;Node6 -->
<g id="edge13" class="edge">
<title>Node12&#45;&gt;Node6</title>
<path fill="none" stroke="midnightblue" d="M661.95,-128.91C669.46,-108.81 686.26,-72.5 714.26,-56 806.99,-1.35 1089.99,-28.78 1197.26,-20 1220.76,-18.08 1247.32,-15.7 1267.3,-13.88"/>
<polygon fill="midnightblue" stroke="midnightblue" points="1267.74,-17.35 1277.38,-12.95 1267.1,-10.38 1267.74,-17.35"/>
</g>
<!-- Node13 -->
<g id="node13" class="node">
<title>Node13</title>
<g id="a_node13"><a xlink:title=" ">
<polygon fill="white" stroke="#bfbfbf" points="723.26,-62 723.26,-81 775.26,-81 775.26,-62 723.26,-62"/>
<text text-anchor="middle" x="749.26" y="-69" font-family="Helvetica,sans-Serif" font-size="10.00">ostream</text>
</a>
</g>
</g>
<!-- Node12&#45;&gt;Node13 -->
<g id="edge12" class="edge">
<title>Node12&#45;&gt;Node13</title>
<path fill="none" stroke="midnightblue" d="M675.88,-128.73C691.56,-116.72 713.92,-99.58 729.83,-87.39"/>
<polygon fill="midnightblue" stroke="midnightblue" points="732.11,-90.05 737.92,-81.19 727.85,-84.5 732.11,-90.05"/>
</g>
<!-- Node14 -->
<g id="node14" class="node">
<title>Node14</title>
<g id="a_node14"><a xlink:title=" ">
<polygon fill="white" stroke="#bfbfbf" points="855.26,-0.5 855.26,-19.5 909.26,-19.5 909.26,-0.5 855.26,-0.5"/>
<text text-anchor="middle" x="882.26" y="-7.5" font-family="Helvetica,sans-Serif" font-size="10.00">iostream</text>
</a>
</g>
</g>
<!-- Node12&#45;&gt;Node14 -->
<g id="edge14" class="edge">
<title>Node12&#45;&gt;Node14</title>
<path fill="none" stroke="midnightblue" d="M656.97,-128.72C657.39,-109.39 661.18,-75.12 681.26,-56 704.46,-33.91 793.63,-20.7 845.07,-14.76"/>
<polygon fill="midnightblue" stroke="midnightblue" points="845.59,-18.22 855.14,-13.63 844.81,-11.27 845.59,-18.22"/>
</g>
<!-- Node16&#45;&gt;Node6 -->
<g id="edge24" class="edge">
<title>Node16&#45;&gt;Node6</title>
<path fill="none" stroke="midnightblue" d="M1013.64,-206.91C1023.82,-204.75 1034.32,-202.68 1044.26,-201 1111.99,-189.53 1305.61,-216.32 1351.26,-165 1383.46,-128.8 1371.61,-99.96 1351.26,-56 1345.34,-43.21 1333.79,-32.72 1322.99,-25.1"/>
<polygon fill="midnightblue" stroke="midnightblue" points="1324.88,-22.16 1314.6,-19.61 1321.05,-28.02 1324.88,-22.16"/>
</g>
<!-- Node16&#45;&gt;Node8 -->
<g id="edge25" class="edge">
<title>Node16&#45;&gt;Node8</title>
<path fill="none" stroke="midnightblue" d="M873.61,-219.43C722.13,-215.62 401,-203.18 297.26,-165 293.63,-163.66 290.04,-161.72 286.71,-159.57"/>
<polygon fill="midnightblue" stroke="midnightblue" points="288.76,-156.73 278.62,-153.63 284.62,-162.37 288.76,-156.73"/>
</g>
<!-- Node16&#45;&gt;Node9 -->
<g id="edge26" class="edge">
<title>Node16&#45;&gt;Node9</title>
<path fill="none" stroke="midnightblue" d="M873.67,-216.81C749.02,-209.58 515.66,-192.77 437.26,-165 433.23,-163.57 429.2,-161.53 425.44,-159.29"/>
<polygon fill="midnightblue" stroke="midnightblue" points="427.06,-156.17 416.8,-153.56 423.19,-162 427.06,-156.17"/>
</g>
<!-- Node16&#45;&gt;Node10 -->
<g id="edge20" class="edge">
<title>Node16&#45;&gt;Node10</title>
<path fill="none" stroke="midnightblue" d="M873.74,-219.33C784.09,-215.51 635.8,-203.34 514.26,-165 509.06,-163.36 503.73,-161.03 498.77,-158.53"/>
<polygon fill="midnightblue" stroke="midnightblue" points="500.28,-155.36 489.82,-153.66 496.93,-161.51 500.28,-155.36"/>
</g>
<!-- Node16&#45;&gt;Node11 -->
<g id="edge27" class="edge">
<title>Node16&#45;&gt;Node11</title>
<path fill="none" stroke="midnightblue" d="M873.4,-217.27C797.24,-211.79 680.88,-198.27 585.26,-165 580.68,-163.4 576.01,-161.2 571.63,-158.85"/>
<polygon fill="midnightblue" stroke="midnightblue" points="573.08,-155.64 562.69,-153.6 569.54,-161.68 573.08,-155.64"/>
</g>
<!-- Node16&#45;&gt;Node12 -->
<g id="edge31" class="edge">
<title>Node16&#45;&gt;Node12</title>
<path fill="none" stroke="midnightblue" d="M895.88,-206.93C850.39,-195.85 785.71,-179.86 729.26,-165 725.24,-163.94 721.1,-162.83 716.92,-161.71"/>
<polygon fill="midnightblue" stroke="midnightblue" points="717.75,-158.3 707.18,-159.05 715.91,-165.06 717.75,-158.3"/>
</g>
<!-- Node17 -->
<g id="node17" class="node">
<title>Node17</title>
<g id="a_node17"><a xlink:title=" ">
<polygon fill="white" stroke="#bfbfbf" points="1248.76,-134.5 1248.76,-153.5 1341.76,-153.5 1341.76,-134.5 1248.76,-134.5"/>
<text text-anchor="middle" x="1295.26" y="-141.5" font-family="Helvetica,sans-Serif" font-size="10.00">cryptopp/integer.h</text>
</a>
</g>
</g>
<!-- Node16&#45;&gt;Node17 -->
<g id="edge19" class="edge">
<title>Node16&#45;&gt;Node17</title>
<path fill="none" stroke="midnightblue" d="M1016.17,-206.93C1025.57,-204.88 1035.16,-202.85 1044.26,-201 1131.06,-183.39 1154.79,-188.21 1240.26,-165 1248.33,-162.81 1256.89,-159.96 1264.8,-157.1"/>
<polygon fill="midnightblue" stroke="midnightblue" points="1266.23,-160.31 1274.37,-153.53 1263.78,-153.75 1266.23,-160.31"/>
</g>
<!-- Node18 -->
<g id="node18" class="node">
<title>Node18</title>
<g id="a_node18"><a xlink:title=" ">
<polygon fill="white" stroke="#bfbfbf" points="1398.26,-134.5 1398.26,-153.5 1442.26,-153.5 1442.26,-134.5 1398.26,-134.5"/>
<text text-anchor="middle" x="1420.26" y="-141.5" font-family="Helvetica,sans-Serif" font-size="10.00">cmath</text>
</a>
</g>
</g>
<!-- Node16&#45;&gt;Node18 -->
<g id="edge21" class="edge">
<title>Node16&#45;&gt;Node18</title>
<path fill="none" stroke="midnightblue" d="M1013.14,-206.91C1023.47,-204.73 1034.15,-202.65 1044.26,-201 1194.23,-176.48 1239.38,-210.82 1384.26,-165 1389.2,-163.44 1394.23,-161.16 1398.9,-158.69"/>
<polygon fill="midnightblue" stroke="midnightblue" points="1400.92,-161.57 1407.83,-153.54 1397.42,-155.5 1400.92,-161.57"/>
</g>
<!-- Node19 -->
<g id="node19" class="node">
<title>Node19</title>
<g id="a_node19"><a xlink:title=" ">
<polygon fill="white" stroke="#bfbfbf" points="1460.26,-134.5 1460.26,-153.5 1500.26,-153.5 1500.26,-134.5 1460.26,-134.5"/>
<text text-anchor="middle" x="1480.26" y="-141.5" font-family="Helvetica,sans-Serif" font-size="10.00">regex</text>
</a>
</g>
</g>
<!-- Node16&#45;&gt;Node19 -->
<g id="edge22" class="edge">
<title>Node16&#45;&gt;Node19</title>
<path fill="none" stroke="midnightblue" d="M1012.15,-206.97C1022.78,-204.73 1033.82,-202.61 1044.26,-201 1223.72,-173.24 1280.43,-226.58 1451.26,-165 1454.99,-163.66 1458.69,-161.71 1462.14,-159.55"/>
<polygon fill="midnightblue" stroke="midnightblue" points="1464.38,-162.26 1470.51,-153.62 1460.33,-156.55 1464.38,-162.26"/>
</g>
<!-- Node20 -->
<g id="node20" class="node">
<title>Node20</title>
<g id="a_node20"><a xlink:title=" ">
<polygon fill="white" stroke="#bfbfbf" points="738.26,-134.5 738.26,-153.5 790.26,-153.5 790.26,-134.5 738.26,-134.5"/>
<text text-anchor="middle" x="764.26" y="-141.5" font-family="Helvetica,sans-Serif" font-size="10.00">sstream</text>
</a>
</g>
</g>
<!-- Node16&#45;&gt;Node20 -->
<g id="edge23" class="edge">
<title>Node16&#45;&gt;Node20</title>
<path fill="none" stroke="midnightblue" d="M909.01,-206.94C877.65,-196.65 835.23,-181.62 799.26,-165 795.19,-163.12 790.96,-160.92 786.91,-158.69"/>
<polygon fill="midnightblue" stroke="midnightblue" points="788.35,-155.48 777.94,-153.54 784.87,-161.56 788.35,-155.48"/>
</g>
<!-- Node21 -->
<g id="node21" class="node">
<title>Node21</title>
<g id="a_node21"><a xlink:title=" ">
<polygon fill="white" stroke="#bfbfbf" points="808.76,-134.5 808.76,-153.5 879.76,-153.5 879.76,-134.5 808.76,-134.5"/>
<text text-anchor="middle" x="844.26" y="-141.5" font-family="Helvetica,sans-Serif" font-size="10.00">secp256k1.h</text>
</a>
</g>
</g>
<!-- Node16&#45;&gt;Node21 -->
<g id="edge28" class="edge">
<title>Node16&#45;&gt;Node21</title>
<path fill="none" stroke="midnightblue" d="M933.83,-206.88C914.22,-193.33 884.74,-172.97 865.02,-159.34"/>
<polygon fill="midnightblue" stroke="midnightblue" points="866.94,-156.41 856.72,-153.61 862.96,-162.17 866.94,-156.41"/>
</g>
<!-- Node22 -->
<g id="node22" class="node">
<title>Node22</title>
<g id="a_node22"><a xlink:title=" ">
<polygon fill="white" stroke="#bfbfbf" points="897.76,-134.5 897.76,-153.5 1010.76,-153.5 1010.76,-134.5 897.76,-134.5"/>
<text text-anchor="middle" x="954.26" y="-141.5" font-family="Helvetica,sans-Serif" font-size="10.00">secp256k1_recovery.h</text>
</a>
</g>
</g>
<!-- Node16&#45;&gt;Node22 -->
<g id="edge29" class="edge">
<title>Node16&#45;&gt;Node22</title>
<path fill="none" stroke="midnightblue" d="M954.26,-206.7C954.26,-194.6 954.26,-177.15 954.26,-163.89"/>
<polygon fill="midnightblue" stroke="midnightblue" points="957.76,-163.56 954.26,-153.56 950.76,-163.56 957.76,-163.56"/>
</g>
<!-- Node23 -->
<g id="node23" class="node">
<title>Node23</title>
<g id="a_node23"><a xlink:title=" ">
<polygon fill="white" stroke="#bfbfbf" points="1028.76,-134.5 1028.76,-153.5 1099.76,-153.5 1099.76,-134.5 1028.76,-134.5"/>
<text text-anchor="middle" x="1064.26" y="-141.5" font-family="Helvetica,sans-Serif" font-size="10.00">gtest/gtest.h</text>
</a>
</g>
</g>
<!-- Node16&#45;&gt;Node23 -->
<g id="edge30" class="edge">
<title>Node16&#45;&gt;Node23</title>
<path fill="none" stroke="midnightblue" d="M974.7,-206.88C994.31,-193.33 1023.78,-172.97 1043.5,-159.34"/>
<polygon fill="midnightblue" stroke="midnightblue" points="1045.57,-162.17 1051.81,-153.61 1041.59,-156.41 1045.57,-162.17"/>
</g>
<!-- Node24 -->
<g id="node24" class="node">
<title>Node24</title>
<g id="a_node24"><a xlink:href="../../da/d44/_keccak__256__cryptopp_8h.html" target="_top" xlink:title=" ">
<polygon fill="white" stroke="black" points="1117.76,-123.5 1117.76,-164.5 1230.76,-164.5 1230.76,-123.5 1117.76,-123.5"/>
<text text-anchor="start" x="1125.76" y="-152.5" font-family="Helvetica,sans-Serif" font-size="10.00">automaton/core/crypto</text>
<text text-anchor="start" x="1125.76" y="-141.5" font-family="Helvetica,sans-Serif" font-size="10.00">/cryptopp/Keccak_256</text>
<text text-anchor="middle" x="1174.26" y="-130.5" font-family="Helvetica,sans-Serif" font-size="10.00">_cryptopp.h</text>
</a>
</g>
</g>
<!-- Node16&#45;&gt;Node24 -->
<g id="edge32" class="edge">
<title>Node16&#45;&gt;Node24</title>
<path fill="none" stroke="midnightblue" d="M994.87,-206.97C1026.55,-196.03 1071.22,-180.6 1108.06,-167.87"/>
<polygon fill="midnightblue" stroke="midnightblue" points="1109.42,-171.1 1117.73,-164.53 1107.13,-164.49 1109.42,-171.1"/>
</g>
<!-- Node16&#45;&gt;Node29 -->
<g id="edge39" class="edge">
<title>Node16&#45;&gt;Node29</title>
<path fill="none" stroke="midnightblue" d="M1011.65,-206.98C1022.44,-204.7 1033.66,-202.58 1044.26,-201 1249.28,-170.44 1305.54,-203.28 1509.26,-165 1519.94,-162.99 1531.34,-159.9 1541.61,-156.73"/>
<polygon fill="midnightblue" stroke="midnightblue" points="1542.98,-159.97 1551.44,-153.59 1540.85,-153.3 1542.98,-159.97"/>
</g>
<!-- Node25 -->
<g id="node25" class="node">
<title>Node25</title>
<g id="a_node25"><a xlink:title=" ">
<polygon fill="white" stroke="#bfbfbf" points="998.76,-62 998.76,-81 1093.76,-81 1093.76,-62 998.76,-62"/>
<text text-anchor="middle" x="1046.26" y="-69" font-family="Helvetica,sans-Serif" font-size="10.00">cryptopp/cryptlib.h</text>
</a>
</g>
</g>
<!-- Node24&#45;&gt;Node25 -->
<g id="edge33" class="edge">
<title>Node24&#45;&gt;Node25</title>
<path fill="none" stroke="midnightblue" d="M1138.61,-123.36C1117.09,-111.51 1090.22,-96.71 1071.02,-86.14"/>
<polygon fill="midnightblue" stroke="midnightblue" points="1072.46,-82.93 1062.01,-81.17 1069.08,-89.06 1072.46,-82.93"/>
</g>
<!-- Node26 -->
<g id="node26" class="node">
<title>Node26</title>
<g id="a_node26"><a xlink:title=" ">
<polygon fill="white" stroke="#bfbfbf" points="1246.76,-62 1246.76,-81 1341.76,-81 1341.76,-62 1246.76,-62"/>
<text text-anchor="middle" x="1294.26" y="-69" font-family="Helvetica,sans-Serif" font-size="10.00">cryptopp/keccak.h</text>
</a>
</g>
</g>
<!-- Node24&#45;&gt;Node26 -->
<g id="edge34" class="edge">
<title>Node24&#45;&gt;Node26</title>
<path fill="none" stroke="midnightblue" d="M1207.69,-123.36C1227.77,-111.57 1252.82,-96.85 1270.8,-86.28"/>
<polygon fill="midnightblue" stroke="midnightblue" points="1272.65,-89.26 1279.5,-81.17 1269.1,-83.22 1272.65,-89.26"/>
</g>
<!-- Node27 -->
<g id="node27" class="node">
<title>Node27</title>
<g id="a_node27"><a xlink:href="../../d2/dab/hash__transformation_8h.html" target="_top" xlink:title=" ">
<polygon fill="white" stroke="black" points="1112.26,-56.5 1112.26,-86.5 1228.26,-86.5 1228.26,-56.5 1112.26,-56.5"/>
<text text-anchor="start" x="1120.26" y="-74.5" font-family="Helvetica,sans-Serif" font-size="10.00">automaton/core/crypto</text>
<text text-anchor="middle" x="1170.26" y="-63.5" font-family="Helvetica,sans-Serif" font-size="10.00">/hash_transformation.h</text>
</a>
</g>
</g>
<!-- Node24&#45;&gt;Node27 -->
<g id="edge35" class="edge">
<title>Node24&#45;&gt;Node27</title>
<path fill="none" stroke="midnightblue" d="M1173.15,-123.36C1172.69,-115.23 1172.15,-105.7 1171.66,-97.11"/>
<polygon fill="midnightblue" stroke="midnightblue" points="1175.14,-96.68 1171.08,-86.89 1168.15,-97.07 1175.14,-96.68"/>
</g>
<!-- Node27&#45;&gt;Node6 -->
<g id="edge38" class="edge">
<title>Node27&#45;&gt;Node6</title>
<path fill="none" stroke="midnightblue" d="M1200.6,-56.4C1221.79,-46.55 1249.86,-33.5 1270.46,-23.92"/>
<polygon fill="midnightblue" stroke="midnightblue" points="1272.04,-27.05 1279.64,-19.66 1269.09,-20.7 1272.04,-27.05"/>
</g>
<!-- Node27&#45;&gt;Node14 -->
<g id="edge36" class="edge">
<title>Node27&#45;&gt;Node14</title>
<path fill="none" stroke="midnightblue" d="M1112.17,-57.88C1109.16,-57.24 1106.17,-56.61 1103.26,-56 1038.7,-42.44 963.39,-27.24 919.45,-18.43"/>
<polygon fill="midnightblue" stroke="midnightblue" points="920,-14.97 909.5,-16.43 918.62,-21.83 920,-14.97"/>
</g>
<!-- Node28 -->
<g id="node28" class="node">
<title>Node28</title>
<g id="a_node28"><a xlink:title=" ">
<polygon fill="white" stroke="#bfbfbf" points="1152.76,-0.5 1152.76,-19.5 1187.76,-19.5 1187.76,-0.5 1152.76,-0.5"/>
<text text-anchor="middle" x="1170.26" y="-7.5" font-family="Helvetica,sans-Serif" font-size="10.00">map</text>
</a>
</g>
</g>
<!-- Node27&#45;&gt;Node28 -->
<g id="edge37" class="edge">
<title>Node27&#45;&gt;Node28</title>
<path fill="none" stroke="midnightblue" d="M1170.26,-56.4C1170.26,-48.47 1170.26,-38.46 1170.26,-29.86"/>
<polygon fill="midnightblue" stroke="midnightblue" points="1173.76,-29.66 1170.26,-19.66 1166.76,-29.66 1173.76,-29.66"/>
</g>
<!-- Node29&#45;&gt;Node6 -->
<g id="edge41" class="edge">
<title>Node29&#45;&gt;Node6</title>
<path fill="none" stroke="midnightblue" d="M1561.6,-134.47C1544.75,-123.81 1515.37,-104.81 1491.26,-87 1473.73,-74.05 1472.56,-66.13 1453.26,-56 1412.92,-34.82 1361.28,-22.39 1328.98,-16.14"/>
<polygon fill="midnightblue" stroke="midnightblue" points="1329.29,-12.64 1318.82,-14.25 1328.01,-19.52 1329.29,-12.64"/>
</g>
<!-- Node30 -->
<g id="node30" class="node">
<title>Node30</title>
<g id="a_node30"><a xlink:title=" ">
<polygon fill="white" stroke="#bfbfbf" points="1398.26,-62 1398.26,-81 1444.26,-81 1444.26,-62 1398.26,-62"/>
<text text-anchor="middle" x="1421.26" y="-69" font-family="Helvetica,sans-Serif" font-size="10.00">chrono</text>
</a>
</g>
</g>
<!-- Node29&#45;&gt;Node30 -->
<g id="edge40" class="edge">
<title>Node29&#45;&gt;Node30</title>
<path fill="none" stroke="midnightblue" d="M1556.69,-134.5C1529.98,-122.27 1480.52,-99.63 1449.33,-85.35"/>
<polygon fill="midnightblue" stroke="midnightblue" points="1450.45,-82.01 1439.9,-81.03 1447.54,-88.38 1450.45,-82.01"/>
</g>
<!-- Node31 -->
<g id="node31" class="node">
<title>Node31</title>
<g id="a_node31"><a xlink:title=" ">
<polygon fill="white" stroke="#bfbfbf" points="1500.26,-62 1500.26,-81 1584.26,-81 1584.26,-62 1500.26,-62"/>
<text text-anchor="middle" x="1542.26" y="-69" font-family="Helvetica,sans-Serif" font-size="10.00">g3log/g3log.hpp</text>
</a>
</g>
</g>
<!-- Node29&#45;&gt;Node31 -->
<g id="edge42" class="edge">
<title>Node29&#45;&gt;Node31</title>
<path fill="none" stroke="midnightblue" d="M1571.22,-134.36C1566.12,-123.47 1557.23,-104.48 1550.65,-90.41"/>
<polygon fill="midnightblue" stroke="midnightblue" points="1553.75,-88.79 1546.34,-81.22 1547.41,-91.76 1553.75,-88.79"/>
</g>
<!-- Node32 -->
<g id="node32" class="node">
<title>Node32</title>
<g id="a_node32"><a xlink:title=" ">
<polygon fill="white" stroke="#bfbfbf" points="1602.76,-62 1602.76,-81 1705.76,-81 1705.76,-62 1602.76,-62"/>
<text text-anchor="middle" x="1654.26" y="-69" font-family="Helvetica,sans-Serif" font-size="10.00">g3log/logworker.hpp</text>
</a>
</g>
</g>
<!-- Node29&#45;&gt;Node32 -->
<g id="edge43" class="edge">
<title>Node29&#45;&gt;Node32</title>
<path fill="none" stroke="midnightblue" d="M1584.95,-134.36C1597.86,-122.83 1620.93,-102.24 1636.89,-88"/>
<polygon fill="midnightblue" stroke="midnightblue" points="1639.37,-90.49 1644.5,-81.22 1634.71,-85.26 1639.37,-90.49"/>
</g>
<!-- Node33 -->
<g id="node33" class="node">
<title>Node33</title>
<g id="a_node33"><a xlink:title=" ">
<polygon fill="white" stroke="#bfbfbf" points="1723.76,-62 1723.76,-81 1822.76,-81 1822.76,-62 1723.76,-62"/>
<text text-anchor="middle" x="1773.26" y="-69" font-family="Helvetica,sans-Serif" font-size="10.00">g3log/loglevels.hpp</text>
</a>
</g>
</g>
<!-- Node29&#45;&gt;Node33 -->
<g id="edge44" class="edge">
<title>Node29&#45;&gt;Node33</title>
<path fill="none" stroke="midnightblue" d="M1599.15,-134.5C1634.23,-122 1699.84,-98.64 1739.74,-84.44"/>
<polygon fill="midnightblue" stroke="midnightblue" points="1741.05,-87.69 1749.29,-81.03 1738.7,-81.09 1741.05,-87.69"/>
</g>
</g>
</svg>
        <g id="navigator" transform="translate(0 0)" fill="#404254">
                <rect fill="#f2f5e9" fill-opacity="0.5" stroke="#606060" stroke-width=".5" x="0" y="0" width="60" height="60"/>
                <use id="zoomplus" xlink:href="#zoomPlus" x="17" y="9" onmousedown="handleZoom(evt,'in')"/>
                <use id="zoomminus" xlink:href="#zoomMin" x="42" y="9" onmousedown="handleZoom(evt,'out')"/>
                <use id="reset" xlink:href="#resetDef" x="30" y="36" onmousedown="handleReset()"/>
                <g id="arrowUp" xlink:href="#dirArrow" transform="translate(30 24)" onmousedown="handlePan(0,-1)">
                  <use xlink:href="#rim" fill="#404040">
                        <set attributeName="fill" to="#808080" begin="arrowUp.mouseover" end="arrowUp.mouseout"/>
                  </use>
                  <path fill="none" stroke="white" stroke-width="1.5" d="M0,-3.0v7 M-2.5,-0.5L0,-3.0L2.5,-0.5"/>
                </g>
                <g id="arrowRight" xlink:href="#dirArrow" transform="rotate(90) translate(36 -43)" onmousedown="handlePan(1,0)">
                  <use xlink:href="#rim" fill="#404040">
                        <set attributeName="fill" to="#808080" begin="arrowRight.mouseover" end="arrowRight.mouseout"/>
                  </use>
                  <path fill="none" stroke="white" stroke-width="1.5" d="M0,-3.0v7 M-2.5,-0.5L0,-3.0L2.5,-0.5"/>
                </g>
                <g id="arrowDown" xlink:href="#dirArrow" transform="rotate(180) translate(-30 -48)" onmousedown="handlePan(0,1)">
                  <use xlink:href="#rim" fill="#404040">
                        <set attributeName="fill" to="#808080" begin="arrowDown.mouseover" end="arrowDown.mouseout"/>
                  </use>
                  <path fill="none" stroke="white" stroke-width="1.5" d="M0,-3.0v7 M-2.5,-0.5L0,-3.0L2.5,-0.5"/>
                </g>
                <g id="arrowLeft" xlink:href="#dirArrow" transform="rotate(270) translate(-36 17)" onmousedown="handlePan(-1,0)">
                  <use xlink:href="#rim" fill="#404040">
                        <set attributeName="fill" to="#808080" begin="arrowLeft.mouseover" end="arrowLeft.mouseout"/>
                  </use>
                  <path fill="none" stroke="white" stroke-width="1.5" d="M0,-3.0v7 M-2.5,-0.5L0,-3.0L2.5,-0.5"/>
                </g>
        </g>
        <svg viewBox="0 0 15 15" width="100%" height="30px" preserveAspectRatio="xMaxYMin meet">
         <g id="arrow_out" transform="scale(0.3 0.3)">
          <a xlink:href="eth__contract__curl_8cc__incl_org.svg" target="_base">
           <rect id="button" ry="5" rx="5" y="6" x="6" height="38" width="38"
                fill="#f2f5e9" fill-opacity="0.5" stroke="#606060" stroke-width="1.0"/>
           <path id="arrow"
             d="M 11.500037,31.436501 C 11.940474,20.09759 22.043105,11.32322 32.158766,21.979434 L 37.068811,17.246167 C 37.068811,17.246167 37.088388,32 37.088388,32 L 22.160133,31.978069 C 22.160133,31.978069 26.997745,27.140456 26.997745,27.140456 C 18.528582,18.264221 13.291696,25.230495 11.500037,31.436501 z"
             style="fill:#404040;"/>
          </a>
         </g>
        </svg>
</svg>
