<?xml version="1.0" encoding="UTF-8" standalone="no"?>
<!DOCTYPE svg PUBLIC "-//W3C//DTD SVG 1.1//EN"
 "http://www.w3.org/Graphics/SVG/1.1/DTD/svg11.dtd">
<!-- Generated by graphviz version 2.42.3 ()
 -->
<!-- Title: automaton::core::eth_contract::eth_contract Pages: 1 -->
<svg width="293pt" height="99pt"
 viewBox="0.00 0.00 293.00 98.50" xmlns="http://www.w3.org/2000/svg" xmlns:xlink="http://www.w3.org/1999/xlink">
<g id="graph0" class="graph" transform="scale(1 1) rotate(0) translate(4 94.5)">
<title>automaton::core::eth_contract::eth_contract</title>
<polygon fill="white" stroke="transparent" points="-4,4 -4,-94.5 289,-94.5 289,4 -4,4"/>
<!-- Node1 -->
<g id="node1" class="node">
<title>Node1</title>
<g id="a_node1"><a xlink:title=" ">
<polygon fill="#bfbfbf" stroke="black" points="169,-27.5 169,-57.5 285,-57.5 285,-27.5 169,-27.5"/>
<text text-anchor="start" x="177" y="-45.5" font-family="Helvetica,sans-Serif" font-size="10.00">automaton::core::eth</text>
<text text-anchor="middle" x="227" y="-34.5" font-family="Helvetica,sans-Serif" font-size="10.00">_contract::eth_contract</text>
</a>
</g>
</g>
<!-- Node2 -->
<g id="node2" class="node">
<title>Node2</title>
<g id="a_node2"><a xlink:href="../../d6/d94/classautomaton_1_1core_1_1network_1_1connection_1_1connection__handler.html" target="_top" xlink:title=" ">
<polygon fill="white" stroke="black" points="4,-49 4,-90 129,-90 129,-49 4,-49"/>
<text text-anchor="start" x="12" y="-78" font-family="Helvetica,sans-Serif" font-size="10.00">automaton::core::network</text>
<text text-anchor="start" x="12" y="-67" font-family="Helvetica,sans-Serif" font-size="10.00">::connection::connection</text>
<text text-anchor="middle" x="66.5" y="-56" font-family="Helvetica,sans-Serif" font-size="10.00">_handler</text>
</a>
</g>
</g>
<!-- Node2&#45;&gt;Node1 -->
<g id="edge1" class="edge">
<title>Node2&#45;&gt;Node1</title>
<path fill="none" stroke="midnightblue" d="M139.11,-57.3C149.07,-55.6 159.19,-53.88 168.84,-52.24"/>
<polygon fill="midnightblue" stroke="midnightblue" points="138.5,-53.85 129.23,-58.98 139.68,-60.75 138.5,-53.85"/>
</g>
<!-- Node3 -->
<g id="node3" class="node">
<title>Node3</title>
<g id="a_node3"><a xlink:title=" ">
<polygon fill="white" stroke="#bfbfbf" points="0,-0.5 0,-30.5 133,-30.5 133,-0.5 0,-0.5"/>
<text text-anchor="start" x="8" y="-18.5" font-family="Helvetica,sans-Serif" font-size="10.00">std::enable_shared</text>
<text text-anchor="middle" x="66.5" y="-7.5" font-family="Helvetica,sans-Serif" font-size="10.00">_from_this&lt; eth_contract &gt;</text>
</a>
</g>
</g>
<!-- Node3&#45;&gt;Node1 -->
<g id="edge2" class="edge">
<title>Node3&#45;&gt;Node1</title>
<path fill="none" stroke="midnightblue" d="M143.32,-28.42C151.86,-29.87 160.45,-31.33 168.7,-32.74"/>
<polygon fill="midnightblue" stroke="midnightblue" points="143.79,-24.94 133.34,-26.72 142.61,-31.85 143.79,-24.94"/>
</g>
</g>
</svg>
