<?xml version="1.0" encoding="UTF-8" standalone="no"?>
<!DOCTYPE svg PUBLIC "-//W3C//DTD SVG 1.1//EN"
 "http://www.w3.org/Graphics/SVG/1.1/DTD/svg11.dtd">
<!-- Generated by graphviz version 2.42.3 ()
 -->
<!-- Title: automaton::core::script::registry::instance Pages: 1 -->
<svg width="313pt" height="137pt"
 viewBox="0.00 0.00 313.00 137.00" xmlns="http://www.w3.org/2000/svg" xmlns:xlink="http://www.w3.org/1999/xlink">
<g id="graph0" class="graph" transform="scale(1 1) rotate(0) translate(4 133)">
<title>automaton::core::script::registry::instance</title>
<polygon fill="white" stroke="transparent" points="-4,4 -4,-133 309,-133 309,4 -4,4"/>
<!-- Node1 -->
<g id="node1" class="node">
<title>Node1</title>
<g id="a_node1"><a xlink:title=" ">
<polygon fill="#bfbfbf" stroke="black" points="191,-49.5 191,-79.5 305,-79.5 305,-49.5 191,-49.5"/>
<text text-anchor="start" x="199" y="-67.5" font-family="Helvetica,sans-Serif" font-size="10.00">automaton::core::script</text>
<text text-anchor="middle" x="248" y="-56.5" font-family="Helvetica,sans-Serif" font-size="10.00">::registry::instance</text>
</a>
</g>
</g>
<!-- Node2 -->
<g id="node2" class="node">
<title>Node2</title>
<g id="a_node2"><a xlink:href="../../db/d61/classautomaton_1_1core_1_1script_1_1module.html#a402d38a7a31db8472c4814350fd0c700" target="_top" xlink:title=" ">
<polygon fill="white" stroke="black" points="5.5,-98.5 5.5,-128.5 149.5,-128.5 149.5,-98.5 5.5,-98.5"/>
<text text-anchor="start" x="13.5" y="-116.5" font-family="Helvetica,sans-Serif" font-size="10.00">automaton::core::script</text>
<text text-anchor="middle" x="77.5" y="-105.5" font-family="Helvetica,sans-Serif" font-size="10.00">::module::add_implementation</text>
</a>
</g>
</g>
<!-- Node1&#45;&gt;Node2 -->
<g id="edge1" class="edge">
<title>Node1&#45;&gt;Node2</title>
<path fill="none" stroke="midnightblue" d="M185.47,-82.39C167.34,-87.66 147.7,-93.38 130.26,-98.45"/>
<polygon fill="midnightblue" stroke="midnightblue" points="186.44,-85.75 195.07,-79.6 184.49,-79.03 186.44,-85.75"/>
</g>
<!-- Node3 -->
<g id="node3" class="node">
<title>Node3</title>
<g id="a_node3"><a xlink:href="../../db/d61/classautomaton_1_1core_1_1script_1_1module.html#a1e8c6382f79518c7903084c64304f316" target="_top" xlink:title=" ">
<polygon fill="white" stroke="black" points="17.5,-49.5 17.5,-79.5 137.5,-79.5 137.5,-49.5 17.5,-49.5"/>
<text text-anchor="start" x="25.5" y="-67.5" font-family="Helvetica,sans-Serif" font-size="10.00">automaton::core::script</text>
<text text-anchor="middle" x="77.5" y="-56.5" font-family="Helvetica,sans-Serif" font-size="10.00">::module::bind_schemas</text>
</a>
</g>
</g>
<!-- Node1&#45;&gt;Node3 -->
<g id="edge2" class="edge">
<title>Node1&#45;&gt;Node3</title>
<path fill="none" stroke="midnightblue" d="M180.67,-64.5C166.44,-64.5 151.48,-64.5 137.54,-64.5"/>
<polygon fill="midnightblue" stroke="midnightblue" points="180.89,-68 190.89,-64.5 180.89,-61 180.89,-68"/>
</g>
<!-- Node4 -->
<g id="node4" class="node">
<title>Node4</title>
<g id="a_node4"><a xlink:href="../../db/d61/classautomaton_1_1core_1_1script_1_1module.html#a4989dd95f323d389ee5040453090b386" target="_top" xlink:title=" ">
<polygon fill="white" stroke="black" points="0,-0.5 0,-30.5 155,-30.5 155,-0.5 0,-0.5"/>
<text text-anchor="start" x="8" y="-18.5" font-family="Helvetica,sans-Serif" font-size="10.00">automaton::core::script</text>
<text text-anchor="middle" x="77.5" y="-7.5" font-family="Helvetica,sans-Serif" font-size="10.00">::module::check_implementation</text>
</a>
</g>
</g>
<!-- Node1&#45;&gt;Node4 -->
<g id="edge3" class="edge">
<title>Node1&#45;&gt;Node4</title>
<path fill="none" stroke="midnightblue" d="M185.47,-46.61C167.34,-41.34 147.7,-35.62 130.26,-30.55"/>
<polygon fill="midnightblue" stroke="midnightblue" points="184.49,-49.97 195.07,-49.4 186.44,-43.25 184.49,-49.97"/>
</g>
</g>
</svg>
