<?xml version="1.0" encoding="UTF-8" standalone="no"?>
<!DOCTYPE svg PUBLIC "-//W3C//DTD SVG 1.1//EN"
 "http://www.w3.org/Graphics/SVG/1.1/DTD/svg11.dtd">
<!-- Generated by graphviz version 2.44.0 ()
 -->
<!-- Title: automaton::core::io::bin2hex Pages: 1 -->
<svg width="537pt" height="911pt"
 viewBox="0.00 0.00 537.00 911.00" xmlns="http://www.w3.org/2000/svg" xmlns:xlink="http://www.w3.org/1999/xlink">
<g id="graph0" class="graph" transform="scale(1 1) rotate(0) translate(4 907)">
<title>automaton::core::io::bin2hex</title>
<polygon fill="white" stroke="transparent" points="-4,4 -4,-907 533,-907 533,4 -4,4"/>
<!-- Node1 -->
<g id="node1" class="node">
<title>Node1</title>
<g id="a_node1"><a xlink:title=" ">
<polygon fill="#bfbfbf" stroke="black" points="431,-436.5 431,-466.5 529,-466.5 529,-436.5 431,-436.5"/>
<text text-anchor="start" x="439" y="-454.5" font-family="Helvetica,sans-Serif" font-size="10.00">automaton::core::io</text>
<text text-anchor="middle" x="480" y="-443.5" font-family="Helvetica,sans-Serif" font-size="10.00">::bin2hex</text>
</a>
</g>
</g>
<!-- Node2 -->
<g id="node2" class="node">
<title>Node2</title>
<g id="a_node2"><a xlink:href="../../d0/d66/classautomaton_1_1core_1_1script_1_1engine.html#a0d3f6e578e8f9ff451d62cd5faf0acfc" target="_top" xlink:title=" ">
<polygon fill="white" stroke="black" points="265.5,-872.5 265.5,-902.5 379.5,-902.5 379.5,-872.5 265.5,-872.5"/>
<text text-anchor="start" x="273.5" y="-890.5" font-family="Helvetica,sans-Serif" font-size="10.00">automaton::core::script</text>
<text text-anchor="middle" x="322.5" y="-879.5" font-family="Helvetica,sans-Serif" font-size="10.00">::engine::bind_io</text>
</a>
</g>
</g>
<!-- Node1&#45;&gt;Node2 -->
<g id="edge1" class="edge">
<title>Node1&#45;&gt;Node2</title>
<path fill="none" stroke="midnightblue" d="M477.05,-476.93C470.4,-557.29 446.14,-803.96 395,-862.5 390.76,-867.35 385.52,-871.26 379.83,-874.42"/>
<polygon fill="midnightblue" stroke="midnightblue" points="480.56,-476.98 477.87,-466.73 473.58,-476.41 480.56,-476.98"/>
</g>
<!-- Node5 -->
<g id="node5" class="node">
<title>Node5</title>
<g id="a_node5"><a xlink:href="../../d4/de7/classautomaton_1_1core_1_1interop_1_1ethereum_1_1eth__contract.html#a06c060597ef2f9c3255fa00e8b716460" target="_top" xlink:title=" ">
<polygon fill="white" stroke="black" points="74,-651.5 74,-681.5 214,-681.5 214,-651.5 74,-651.5"/>
<text text-anchor="start" x="82" y="-669.5" font-family="Helvetica,sans-Serif" font-size="10.00">automaton::core::interop</text>
<text text-anchor="middle" x="144" y="-658.5" font-family="Helvetica,sans-Serif" font-size="10.00">::ethereum::eth_contract::call</text>
</a>
</g>
</g>
<!-- Node1&#45;&gt;Node5 -->
<g id="edge4" class="edge">
<title>Node1&#45;&gt;Node5</title>
<path fill="none" stroke="midnightblue" d="M468.02,-475.94C454.64,-502.93 429.47,-545.71 395,-569.5 340.18,-607.35 311.77,-582.53 250,-607.5 220.34,-619.49 188.63,-638.22 167.91,-651.35"/>
<polygon fill="midnightblue" stroke="midnightblue" points="471.25,-477.3 472.42,-466.77 464.94,-474.28 471.25,-477.3"/>
</g>
<!-- Node6 -->
<g id="node6" class="node">
<title>Node6</title>
<g id="a_node6"><a xlink:href="../../d4/dd8/miner__main_8cc.html#a9d75bf2c716740369baf0c7dd1de1635" target="_top" xlink:title=" ">
<polygon fill="white" stroke="black" points="279,-834 279,-853 366,-853 366,-834 279,-834"/>
<text text-anchor="middle" x="322.5" y="-841" font-family="Helvetica,sans-Serif" font-size="10.00">check_and_sign</text>
</a>
</g>
</g>
<!-- Node1&#45;&gt;Node6 -->
<g id="edge5" class="edge">
<title>Node1&#45;&gt;Node6</title>
<path fill="none" stroke="midnightblue" d="M476.69,-476.71C469.28,-552.13 443.7,-773.9 395,-824.5 387.34,-832.46 376.76,-837.21 366.08,-840.02"/>
<polygon fill="midnightblue" stroke="midnightblue" points="480.18,-476.97 477.65,-466.68 473.21,-476.3 480.18,-476.97"/>
</g>
<!-- Node8 -->
<g id="node8" class="node">
<title>Node8</title>
<g id="a_node8"><a xlink:href="../../d2/d91/namespaceautomaton_1_1core_1_1interop_1_1ethereum.html#a55009f57edd69b295860a7b8b685ab2b" target="_top" xlink:title=" ">
<polygon fill="white" stroke="black" points="257.5,-784.5 257.5,-814.5 387.5,-814.5 387.5,-784.5 257.5,-784.5"/>
<text text-anchor="start" x="265.5" y="-802.5" font-family="Helvetica,sans-Serif" font-size="10.00">automaton::core::interop</text>
<text text-anchor="middle" x="322.5" y="-791.5" font-family="Helvetica,sans-Serif" font-size="10.00">::ethereum::decode_param</text>
</a>
</g>
</g>
<!-- Node1&#45;&gt;Node8 -->
<g id="edge7" class="edge">
<title>Node1&#45;&gt;Node8</title>
<path fill="none" stroke="midnightblue" d="M475.58,-476.81C465.88,-545.17 436.19,-731.31 395,-775.5 391.79,-778.95 388.06,-781.9 384.03,-784.43"/>
<polygon fill="midnightblue" stroke="midnightblue" points="479.1,-476.92 477.02,-466.54 472.17,-475.96 479.1,-476.92"/>
</g>
<!-- Node10 -->
<g id="node10" class="node">
<title>Node10</title>
<g id="a_node10"><a xlink:href="../../dd/da5/classautomaton_1_1core_1_1state_1_1state__impl.html#a7c10dbf63eba4319f13b635ccbcc2f31" target="_top" xlink:title=" ">
<polygon fill="white" stroke="black" points="250,-676.5 250,-706.5 395,-706.5 395,-676.5 250,-676.5"/>
<text text-anchor="start" x="258" y="-694.5" font-family="Helvetica,sans-Serif" font-size="10.00">automaton::core::state</text>
<text text-anchor="middle" x="322.5" y="-683.5" font-family="Helvetica,sans-Serif" font-size="10.00">::state_impl::delete_node_tree</text>
</a>
</g>
</g>
<!-- Node1&#45;&gt;Node10 -->
<g id="edge9" class="edge">
<title>Node1&#45;&gt;Node10</title>
<path fill="none" stroke="midnightblue" d="M476.14,-476.75C469.76,-521.46 450.27,-614.77 395,-667.5 391.4,-670.93 387.29,-673.88 382.91,-676.4"/>
<polygon fill="midnightblue" stroke="midnightblue" points="479.63,-477.11 477.47,-466.74 472.69,-476.19 479.63,-477.11"/>
</g>
<!-- Node11 -->
<g id="node11" class="node">
<title>Node11</title>
<g id="a_node11"><a xlink:href="../../dc/ddc/classautomaton_1_1core_1_1state_1_1state__persistent.html#a92059ff6c9cf20de12f08161a0893cb8" target="_top" xlink:title=" ">
<polygon fill="white" stroke="black" points="261.5,-617 261.5,-658 383.5,-658 383.5,-617 261.5,-617"/>
<text text-anchor="start" x="269.5" y="-646" font-family="Helvetica,sans-Serif" font-size="10.00">automaton::core::state</text>
<text text-anchor="start" x="269.5" y="-635" font-family="Helvetica,sans-Serif" font-size="10.00">::state_persistent::delete</text>
<text text-anchor="middle" x="322.5" y="-624" font-family="Helvetica,sans-Serif" font-size="10.00">_node_tree</text>
</a>
</g>
</g>
<!-- Node1&#45;&gt;Node11 -->
<g id="edge10" class="edge">
<title>Node1&#45;&gt;Node11</title>
<path fill="none" stroke="midnightblue" d="M470.54,-476.4C458.37,-509.03 433.09,-566.35 395,-602.5 389.19,-608.02 382.34,-612.83 375.22,-616.98"/>
<polygon fill="midnightblue" stroke="midnightblue" points="473.93,-477.33 474.03,-466.73 467.35,-474.95 473.93,-477.33"/>
</g>
<!-- Node12 -->
<g id="node12" class="node">
<title>Node12</title>
<g id="a_node12"><a xlink:href="../../dd/da5/classautomaton_1_1core_1_1state_1_1state__impl.html#a911df9e6458f887a7c7cea8cdd4a8974" target="_top" xlink:title=" ">
<polygon fill="white" stroke="black" points="266.5,-480.5 266.5,-510.5 378.5,-510.5 378.5,-480.5 266.5,-480.5"/>
<text text-anchor="start" x="274.5" y="-498.5" font-family="Helvetica,sans-Serif" font-size="10.00">automaton::core::state</text>
<text text-anchor="middle" x="322.5" y="-487.5" font-family="Helvetica,sans-Serif" font-size="10.00">::state_impl::erase</text>
</a>
</g>
</g>
<!-- Node1&#45;&gt;Node12 -->
<g id="edge11" class="edge">
<title>Node1&#45;&gt;Node12</title>
<path fill="none" stroke="midnightblue" d="M420.81,-467.96C406.34,-472.06 390.91,-476.43 376.69,-480.45"/>
<polygon fill="midnightblue" stroke="midnightblue" points="421.98,-471.27 430.65,-465.18 420.08,-464.54 421.98,-471.27"/>
</g>
<!-- Node14 -->
<g id="node14" class="node">
<title>Node14</title>
<g id="a_node14"><a xlink:href="../../dc/ddc/classautomaton_1_1core_1_1state_1_1state__persistent.html#aa2f3110b1478d3c5f09ff1f74b31085e" target="_top" xlink:title=" ">
<polygon fill="white" stroke="black" points="263,-529.5 263,-559.5 382,-559.5 382,-529.5 263,-529.5"/>
<text text-anchor="start" x="271" y="-547.5" font-family="Helvetica,sans-Serif" font-size="10.00">automaton::core::state</text>
<text text-anchor="middle" x="322.5" y="-536.5" font-family="Helvetica,sans-Serif" font-size="10.00">::state_persistent::erase</text>
</a>
</g>
</g>
<!-- Node1&#45;&gt;Node14 -->
<g id="edge13" class="edge">
<title>Node1&#45;&gt;Node14</title>
<path fill="none" stroke="midnightblue" d="M456.86,-473.53C440.81,-488.48 417.98,-507.77 395,-520.5 389.04,-523.8 382.56,-526.75 376,-529.35"/>
<polygon fill="midnightblue" stroke="midnightblue" points="459.32,-476.01 464.16,-466.59 454.5,-470.94 459.32,-476.01"/>
</g>
<!-- Node15 -->
<g id="node15" class="node">
<title>Node15</title>
<g id="a_node15"><a xlink:href="../../d0/d6e/namespaceautomaton_1_1tools_1_1miner.html#aa5e69bff69f451ddf2bdc6183132118c" target="_top" xlink:title=" ">
<polygon fill="white" stroke="black" points="86,-237.5 86,-267.5 202,-267.5 202,-237.5 86,-237.5"/>
<text text-anchor="start" x="94" y="-255.5" font-family="Helvetica,sans-Serif" font-size="10.00">automaton::tools::miner</text>
<text text-anchor="middle" x="144" y="-244.5" font-family="Helvetica,sans-Serif" font-size="10.00">::gen_pub_key</text>
</a>
</g>
</g>
<!-- Node1&#45;&gt;Node15 -->
<g id="edge14" class="edge">
<title>Node1&#45;&gt;Node15</title>
<path fill="none" stroke="midnightblue" d="M469.32,-426.82C456.63,-397.72 431.6,-349.98 395,-323.5 340.94,-284.38 314.15,-302.9 250,-284.5 231.41,-279.17 211.05,-273.03 193.25,-267.57"/>
<polygon fill="midnightblue" stroke="midnightblue" points="466.19,-428.4 473.29,-436.27 472.64,-425.69 466.19,-428.4"/>
</g>
<!-- Node16 -->
<g id="node16" class="node">
<title>Node16</title>
<g id="a_node16"><a xlink:href="../../d4/d57/eth__contract__curl__test_8cc.html#ae66f6b31b5ad750f1fe042a706a4e3d4" target="_top" xlink:title=" ">
<polygon fill="white" stroke="black" points="0,-140 0,-159 38,-159 38,-140 0,-140"/>
<text text-anchor="middle" x="19" y="-147" font-family="Helvetica,sans-Serif" font-size="10.00">main</text>
</a>
</g>
</g>
<!-- Node1&#45;&gt;Node16 -->
<g id="edge19" class="edge">
<title>Node1&#45;&gt;Node16</title>
<path fill="none" stroke="midnightblue" d="M476.57,-425.98C469.2,-354.51 444.47,-155.1 395,-116.5 284.73,-30.47 96.77,-111.33 38.06,-140.18"/>
<polygon fill="midnightblue" stroke="midnightblue" points="473.13,-426.71 477.61,-436.31 480.09,-426.01 473.13,-426.71"/>
</g>
<!-- Node17 -->
<g id="node17" class="node">
<title>Node17</title>
<g id="a_node17"><a xlink:href="../../d2/d91/namespaceautomaton_1_1core_1_1interop_1_1ethereum.html#a2fe1212849a89d9403353fefbceac174" target="_top" xlink:title=" ">
<polygon fill="white" stroke="black" points="263,-725 263,-766 382,-766 382,-725 263,-725"/>
<text text-anchor="start" x="271" y="-754" font-family="Helvetica,sans-Serif" font-size="10.00">automaton::core::interop</text>
<text text-anchor="start" x="271" y="-743" font-family="Helvetica,sans-Serif" font-size="10.00">::ethereum::get_address</text>
<text text-anchor="middle" x="322.5" y="-732" font-family="Helvetica,sans-Serif" font-size="10.00">_from_prkey</text>
</a>
</g>
</g>
<!-- Node1&#45;&gt;Node17 -->
<g id="edge16" class="edge">
<title>Node1&#45;&gt;Node17</title>
<path fill="none" stroke="midnightblue" d="M477.91,-476.81C474.36,-528.47 459.25,-647 395,-716.5 391.27,-720.53 386.9,-724.02 382.2,-727.03"/>
<polygon fill="midnightblue" stroke="midnightblue" points="481.42,-476.76 478.52,-466.57 474.43,-476.34 481.42,-476.76"/>
</g>
<!-- Node18 -->
<g id="node18" class="node">
<title>Node18</title>
<g id="a_node18"><a xlink:href="../../dc/d64/classrpc__server__handler.html#a05709e7789930012ae393ca785ea1393" target="_top" xlink:title=" ">
<polygon fill="white" stroke="black" points="273,-333.5 273,-363.5 372,-363.5 372,-333.5 273,-333.5"/>
<text text-anchor="start" x="281" y="-351.5" font-family="Helvetica,sans-Serif" font-size="10.00">rpc_server_handler</text>
<text text-anchor="middle" x="322.5" y="-340.5" font-family="Helvetica,sans-Serif" font-size="10.00">::handle</text>
</a>
</g>
</g>
<!-- Node1&#45;&gt;Node18 -->
<g id="edge18" class="edge">
<title>Node1&#45;&gt;Node18</title>
<path fill="none" stroke="midnightblue" d="M459.87,-428.79C444.06,-411.27 420.18,-387.57 395,-372.5 387.92,-368.26 380,-364.66 372.07,-361.63"/>
<polygon fill="midnightblue" stroke="midnightblue" points="457.31,-431.17 466.55,-436.35 462.55,-426.54 457.31,-431.17"/>
</g>
<!-- Node19 -->
<g id="node19" class="node">
<title>Node19</title>
<g id="a_node19"><a xlink:href="../../d0/d6e/namespaceautomaton_1_1tools_1_1miner.html#a9b5364344553a5ca685f0b09f2708be2" target="_top" xlink:title=" ">
<polygon fill="white" stroke="black" points="86,-38.5 86,-68.5 202,-68.5 202,-38.5 86,-38.5"/>
<text text-anchor="start" x="94" y="-56.5" font-family="Helvetica,sans-Serif" font-size="10.00">automaton::tools::miner</text>
<text text-anchor="middle" x="144" y="-45.5" font-family="Helvetica,sans-Serif" font-size="10.00">::mine_key</text>
</a>
</g>
</g>
<!-- Node1&#45;&gt;Node19 -->
<g id="edge20" class="edge">
<title>Node1&#45;&gt;Node19</title>
<path fill="none" stroke="midnightblue" d="M476.95,-426.31C470.26,-351 446.53,-129.88 395,-83.5 343.02,-36.71 258.36,-36.69 202.17,-43.25"/>
<polygon fill="midnightblue" stroke="midnightblue" points="473.46,-426.66 477.81,-436.33 480.44,-426.06 473.46,-426.66"/>
</g>
<!-- Node20 -->
<g id="node20" class="node">
<title>Node20</title>
<g id="a_node20"><a xlink:href="../../dd/da5/classautomaton_1_1core_1_1state_1_1state__impl.html#a39c84cbe95866bb6a6506c024e08d8ca" target="_top" xlink:title=" ">
<polygon fill="white" stroke="black" points="260.5,-245.5 260.5,-275.5 384.5,-275.5 384.5,-245.5 260.5,-245.5"/>
<text text-anchor="start" x="268.5" y="-263.5" font-family="Helvetica,sans-Serif" font-size="10.00">automaton::core::state</text>
<text text-anchor="middle" x="322.5" y="-252.5" font-family="Helvetica,sans-Serif" font-size="10.00">::state_impl::print_subtrie</text>
</a>
</g>
</g>
<!-- Node1&#45;&gt;Node20 -->
<g id="edge22" class="edge">
<title>Node1&#45;&gt;Node20</title>
<path fill="none" stroke="midnightblue" d="M471.96,-426.66C460.93,-391.86 436.43,-328.6 395,-290.5 388.46,-284.49 380.54,-279.58 372.39,-275.61"/>
<polygon fill="midnightblue" stroke="midnightblue" points="468.69,-427.94 474.96,-436.49 475.39,-425.9 468.69,-427.94"/>
</g>
<!-- Node21 -->
<g id="node21" class="node">
<title>Node21</title>
<g id="a_node21"><a xlink:href="../../dc/ddc/classautomaton_1_1core_1_1state_1_1state__persistent.html#ae55d32ad4f187ac16c2f9e8de462d950" target="_top" xlink:title=" ">
<polygon fill="white" stroke="black" points="265.5,-186 265.5,-227 379.5,-227 379.5,-186 265.5,-186"/>
<text text-anchor="start" x="273.5" y="-215" font-family="Helvetica,sans-Serif" font-size="10.00">automaton::core::state</text>
<text text-anchor="start" x="273.5" y="-204" font-family="Helvetica,sans-Serif" font-size="10.00">::state_persistent::print</text>
<text text-anchor="middle" x="322.5" y="-193" font-family="Helvetica,sans-Serif" font-size="10.00">_subtrie</text>
</a>
</g>
</g>
<!-- Node1&#45;&gt;Node21 -->
<g id="edge23" class="edge">
<title>Node1&#45;&gt;Node21</title>
<path fill="none" stroke="midnightblue" d="M475.77,-426.3C468.82,-382.02 448.51,-289.79 395,-235.5 390.58,-231.02 385.37,-227.2 379.82,-223.96"/>
<polygon fill="midnightblue" stroke="midnightblue" points="472.35,-427.09 477.26,-436.47 479.27,-426.07 472.35,-427.09"/>
</g>
<!-- Node22 -->
<g id="node22" class="node">
<title>Node22</title>
<g id="a_node22"><a xlink:href="../../d3/d27/classautomaton_1_1core_1_1node_1_1luanode_1_1lua__node.html#a7c28bcbfcfab99e6f83f6beb0480abc4" target="_top" xlink:title=" ">
<polygon fill="white" stroke="black" points="267,-126 267,-167 378,-167 378,-126 267,-126"/>
<text text-anchor="start" x="275" y="-155" font-family="Helvetica,sans-Serif" font-size="10.00">automaton::core::node</text>
<text text-anchor="start" x="275" y="-144" font-family="Helvetica,sans-Serif" font-size="10.00">::luanode::lua_node::</text>
<text text-anchor="middle" x="322.5" y="-133" font-family="Helvetica,sans-Serif" font-size="10.00">process_cmd</text>
</a>
</g>
</g>
<!-- Node1&#45;&gt;Node22 -->
<g id="edge24" class="edge">
<title>Node1&#45;&gt;Node22</title>
<path fill="none" stroke="midnightblue" d="M478.18,-426.03C475.14,-372.96 460.94,-249.45 395,-176.5 390.22,-171.21 384.35,-166.82 378.05,-163.19"/>
<polygon fill="midnightblue" stroke="midnightblue" points="474.69,-426.42 478.67,-436.24 481.69,-426.08 474.69,-426.42"/>
</g>
<!-- Node23 -->
<g id="node23" class="node">
<title>Node23</title>
<g id="a_node23"><a xlink:href="../../d2/d91/namespaceautomaton_1_1core_1_1interop_1_1ethereum.html#a5773fc2e2807d4207030bb00a3eb5dea" target="_top" xlink:title=" ">
<polygon fill="white" stroke="black" points="254,-382 254,-423 391,-423 391,-382 254,-382"/>
<text text-anchor="start" x="262" y="-411" font-family="Helvetica,sans-Serif" font-size="10.00">automaton::core::interop</text>
<text text-anchor="start" x="262" y="-400" font-family="Helvetica,sans-Serif" font-size="10.00">::ethereum::secp256k1_sign</text>
<text text-anchor="middle" x="322.5" y="-389" font-family="Helvetica,sans-Serif" font-size="10.00">_and_verify</text>
</a>
</g>
</g>
<!-- Node1&#45;&gt;Node23 -->
<g id="edge25" class="edge">
<title>Node1&#45;&gt;Node23</title>
<path fill="none" stroke="midnightblue" d="M421.46,-433.37C410.8,-430.01 399.59,-426.48 388.71,-423.05"/>
<polygon fill="midnightblue" stroke="midnightblue" points="420.49,-436.73 431.08,-436.4 422.59,-430.05 420.49,-436.73"/>
</g>
<!-- Node24 -->
<g id="node24" class="node">
<title>Node24</title>
<g id="a_node24"><a xlink:href="../../dd/da0/classautomaton_1_1core_1_1interop_1_1ethereum_1_1eth__transaction.html#abe1d02f403b67b699353c9a180c0cb2e" target="_top" xlink:title=" ">
<polygon fill="white" stroke="black" points="77.5,-382 77.5,-423 210.5,-423 210.5,-382 77.5,-382"/>
<text text-anchor="start" x="85.5" y="-411" font-family="Helvetica,sans-Serif" font-size="10.00">automaton::core::interop</text>
<text text-anchor="start" x="85.5" y="-400" font-family="Helvetica,sans-Serif" font-size="10.00">::ethereum::eth_transaction</text>
<text text-anchor="middle" x="144" y="-389" font-family="Helvetica,sans-Serif" font-size="10.00">::sign_tx</text>
</a>
</g>
</g>
<!-- Node1&#45;&gt;Node24 -->
<g id="edge28" class="edge">
<title>Node1&#45;&gt;Node24</title>
<path fill="none" stroke="midnightblue" d="M420.64,-449.8C374.11,-447.7 307.47,-442.99 250,-432.5 236.76,-430.08 222.78,-426.7 209.5,-423.07"/>
<polygon fill="midnightblue" stroke="midnightblue" points="420.69,-453.31 430.83,-450.24 420.99,-446.31 420.69,-453.31"/>
</g>
<!-- Node25 -->
<g id="node25" class="node">
<title>Node25</title>
<g id="a_node25"><a xlink:href="../../df/dae/structautomaton_1_1core_1_1io_1_1blob.html#a131d546dc32d77225f08a3ba9b1f5ba6" target="_top" xlink:title=" ">
<polygon fill="white" stroke="black" points="273.5,-0.5 273.5,-30.5 371.5,-30.5 371.5,-0.5 273.5,-0.5"/>
<text text-anchor="start" x="281.5" y="-18.5" font-family="Helvetica,sans-Serif" font-size="10.00">automaton::core::io</text>
<text text-anchor="middle" x="322.5" y="-7.5" font-family="Helvetica,sans-Serif" font-size="10.00">::blob::tostring</text>
</a>
</g>
</g>
<!-- Node1&#45;&gt;Node25 -->
<g id="edge29" class="edge">
<title>Node1&#45;&gt;Node25</title>
<path fill="none" stroke="midnightblue" d="M476.81,-425.97C469.51,-346.41 443.72,-104.68 395,-45.5 388.84,-38.02 380.49,-32.37 371.67,-28.12"/>
<polygon fill="midnightblue" stroke="midnightblue" points="473.34,-426.44 477.72,-436.09 480.31,-425.82 473.34,-426.44"/>
</g>
<!-- Node3 -->
<g id="node3" class="node">
<title>Node3</title>
<g id="a_node3"><a xlink:href="../../d0/d66/classautomaton_1_1core_1_1script_1_1engine.html#a530ebf5615f9b5fe50c52ead2afe9677" target="_top" xlink:title=" ">
<polygon fill="white" stroke="black" points="87,-872.5 87,-902.5 201,-902.5 201,-872.5 87,-872.5"/>
<text text-anchor="start" x="95" y="-890.5" font-family="Helvetica,sans-Serif" font-size="10.00">automaton::core::script</text>
<text text-anchor="middle" x="144" y="-879.5" font-family="Helvetica,sans-Serif" font-size="10.00">::engine::bind_core</text>
</a>
</g>
</g>
<!-- Node2&#45;&gt;Node3 -->
<g id="edge2" class="edge">
<title>Node2&#45;&gt;Node3</title>
<path fill="none" stroke="midnightblue" d="M254.9,-887.5C237.17,-887.5 218.2,-887.5 201.1,-887.5"/>
<polygon fill="midnightblue" stroke="midnightblue" points="255.17,-891 265.17,-887.5 255.17,-884 255.17,-891"/>
</g>
<!-- Node4 -->
<g id="node4" class="node">
<title>Node4</title>
<g id="a_node4"><a xlink:href="../../dd/de7/core_8cc.html#a0ddf1224851353fc92bfbff6f499fa97" target="_top" xlink:title=" ">
<polygon fill="white" stroke="black" points="0,-878 0,-897 38,-897 38,-878 0,-878"/>
<text text-anchor="middle" x="19" y="-885" font-family="Helvetica,sans-Serif" font-size="10.00">main</text>
</a>
</g>
</g>
<!-- Node3&#45;&gt;Node4 -->
<g id="edge3" class="edge">
<title>Node3&#45;&gt;Node4</title>
<path fill="none" stroke="midnightblue" d="M76.55,-887.5C62.37,-887.5 48.54,-887.5 38.11,-887.5"/>
<polygon fill="midnightblue" stroke="midnightblue" points="76.9,-891 86.9,-887.5 76.9,-884 76.9,-891"/>
</g>
<!-- Node7 -->
<g id="node7" class="node">
<title>Node7</title>
<g id="a_node7"><a xlink:href="../../d4/dd8/miner__main_8cc.html#a0ddf1224851353fc92bfbff6f499fa97" target="_top" xlink:title=" ">
<polygon fill="white" stroke="black" points="125,-834 125,-853 163,-853 163,-834 125,-834"/>
<text text-anchor="middle" x="144" y="-841" font-family="Helvetica,sans-Serif" font-size="10.00">main</text>
</a>
</g>
</g>
<!-- Node6&#45;&gt;Node7 -->
<g id="edge6" class="edge">
<title>Node6&#45;&gt;Node7</title>
<path fill="none" stroke="midnightblue" d="M268.49,-843.5C232.77,-843.5 187.83,-843.5 163.21,-843.5"/>
<polygon fill="midnightblue" stroke="midnightblue" points="268.77,-847 278.77,-843.5 268.77,-840 268.77,-847"/>
</g>
<!-- Node9 -->
<g id="node9" class="node">
<title>Node9</title>
<g id="a_node9"><a xlink:href="../../d2/d91/namespaceautomaton_1_1core_1_1interop_1_1ethereum.html#abbec3fe45e7b6c13c5d534e5dfc4543b" target="_top" xlink:title=" ">
<polygon fill="white" stroke="black" points="84.5,-784.5 84.5,-814.5 203.5,-814.5 203.5,-784.5 84.5,-784.5"/>
<text text-anchor="start" x="92.5" y="-802.5" font-family="Helvetica,sans-Serif" font-size="10.00">automaton::core::interop</text>
<text text-anchor="middle" x="144" y="-791.5" font-family="Helvetica,sans-Serif" font-size="10.00">::ethereum::decode</text>
</a>
</g>
</g>
<!-- Node8&#45;&gt;Node9 -->
<g id="edge8" class="edge">
<title>Node8&#45;&gt;Node9</title>
<path fill="none" stroke="midnightblue" d="M246.87,-799.5C232.41,-799.5 217.46,-799.5 203.61,-799.5"/>
<polygon fill="midnightblue" stroke="midnightblue" points="247.28,-803 257.28,-799.5 247.28,-796 247.28,-803"/>
</g>
<!-- Node13 -->
<g id="node13" class="node">
<title>Node13</title>
<g id="a_node13"><a xlink:href="../../dd/da5/classautomaton_1_1core_1_1state_1_1state__impl.html#aadafbfba3fa8a047f52dfd5bfc376a01" target="_top" xlink:title=" ">
<polygon fill="white" stroke="black" points="88,-480.5 88,-510.5 200,-510.5 200,-480.5 88,-480.5"/>
<text text-anchor="start" x="96" y="-498.5" font-family="Helvetica,sans-Serif" font-size="10.00">automaton::core::state</text>
<text text-anchor="middle" x="144" y="-487.5" font-family="Helvetica,sans-Serif" font-size="10.00">::state_impl::set</text>
</a>
</g>
</g>
<!-- Node12&#45;&gt;Node13 -->
<g id="edge12" class="edge">
<title>Node12&#45;&gt;Node13</title>
<path fill="none" stroke="midnightblue" d="M256.09,-495.5C237.7,-495.5 217.89,-495.5 200.16,-495.5"/>
<polygon fill="midnightblue" stroke="midnightblue" points="256.14,-499 266.14,-495.5 256.14,-492 256.14,-499"/>
</g>
<!-- Node15&#45;&gt;Node16 -->
<g id="edge15" class="edge">
<title>Node15&#45;&gt;Node16</title>
<path fill="none" stroke="midnightblue" d="M117.13,-230.84C90.75,-208.75 51.03,-175.48 31.57,-159.19"/>
<polygon fill="midnightblue" stroke="midnightblue" points="114.94,-233.57 124.85,-237.3 119.43,-228.2 114.94,-233.57"/>
</g>
<!-- Node17&#45;&gt;Node5 -->
<g id="edge17" class="edge">
<title>Node17&#45;&gt;Node5</title>
<path fill="none" stroke="midnightblue" d="M260.4,-721C256.87,-719.5 253.39,-717.99 250,-716.5 224.69,-705.35 196.39,-691.82 175.56,-681.64"/>
<polygon fill="midnightblue" stroke="midnightblue" points="259.22,-724.3 269.8,-724.95 261.94,-717.85 259.22,-724.3"/>
</g>
<!-- Node19&#45;&gt;Node16 -->
<g id="edge21" class="edge">
<title>Node19&#45;&gt;Node16</title>
<path fill="none" stroke="midnightblue" d="M90.47,-73.13C84.68,-76.22 79.06,-79.67 74,-83.5 52.75,-99.58 34.68,-125.67 25.83,-139.75"/>
<polygon fill="midnightblue" stroke="midnightblue" points="92.24,-76.16 99.65,-68.59 89.14,-69.89 92.24,-76.16"/>
</g>
<!-- Node23&#45;&gt;Node24 -->
<g id="edge26" class="edge">
<title>Node23&#45;&gt;Node24</title>
<path fill="none" stroke="midnightblue" d="M243.68,-402.5C232.61,-402.5 221.32,-402.5 210.52,-402.5"/>
<polygon fill="midnightblue" stroke="midnightblue" points="243.77,-406 253.77,-402.5 243.77,-399 243.77,-406"/>
</g>
<!-- Node24&#45;&gt;Node16 -->
<g id="edge27" class="edge">
<title>Node24&#45;&gt;Node16</title>
<path fill="none" stroke="midnightblue" d="M125.85,-373.16C111.35,-347.89 90.38,-310.28 74,-276.5 53.2,-233.6 32.11,-180.65 23.75,-159.2"/>
<polygon fill="midnightblue" stroke="midnightblue" points="122.85,-374.96 130.88,-381.87 128.92,-371.46 122.85,-374.96"/>
</g>
</g>
</svg>
