<?xml version="1.0" encoding="UTF-8" standalone="no"?>
<!DOCTYPE svg PUBLIC "-//W3C//DTD SVG 1.1//EN"
 "http://www.w3.org/Graphics/SVG/1.1/DTD/svg11.dtd">
<!-- Generated by graphviz version 2.42.3 ()
 -->
<!-- Title: automaton::core::io::hex2bin Pages: 1 -->
<!--zoomable 187 -->
<svg id="main" version="1.1" xmlns="http://www.w3.org/2000/svg" xmlns:xlink="http://www.w3.org/1999/xlink" xml:space="preserve" onload="init(evt)">
<style type="text/css"><![CDATA[
.edge:hover path { stroke: red; }
.edge:hover polygon { stroke: red; fill: red; }
]]></style>
<script type="text/javascript"><![CDATA[
var edges = document.getElementsByTagName('g');
if (edges && edges.length) {
  for (var i=0;i<edges.length;i++) {
    if (edges[i].id.substr(0,4)=='edge') {
      edges[i].setAttribute('class','edge');
    }
  }
}
]]></script>
        <defs>
                <circle id="rim" cx="0" cy="0" r="7"/>
                <circle id="rim2" cx="0" cy="0" r="3.5"/>
                <g id="zoomPlus">
                        <use xlink:href="#rim" fill="#404040">
                                <set attributeName="fill" to="#808080" begin="zoomplus.mouseover" end="zoomplus.mouseout"/>
                        </use>
                        <path d="M-4,0h8M0,-4v8" fill="none" stroke="white" stroke-width="1.5" pointer-events="none"/>
                </g>
                <g id="zoomMin">
                        <use xlink:href="#rim" fill="#404040">
                                <set attributeName="fill" to="#808080" begin="zoomminus.mouseover" end="zoomminus.mouseout"/>
                        </use>
                        <path d="M-4,0h8" fill="none" stroke="white" stroke-width="1.5" pointer-events="none"/>
                </g>
                <g id="dirArrow">
                        <path fill="none" stroke="white" stroke-width="1.5" d="M0,-3.0v7 M-2.5,-0.5L0,-3.0L2.5,-0.5"/>
                </g>
               <g id="resetDef">
                       <use xlink:href="#rim2" fill="#404040">
                               <set attributeName="fill" to="#808080" begin="reset.mouseover" end="reset.mouseout"/>
                       </use>
               </g>
        </defs>

<script type="text/javascript">
var viewWidth = 606;
var viewHeight = 187;
var sectionId = 'dynsection-5';
</script>
<script xlink:href="../../svgpan.js"/>
<svg id="graph" class="graph">
<g id="viewport">
<title>automaton::core::io::hex2bin</title>
<polygon fill="white" stroke="transparent" points="-4,4 -4,-182.5 602,-182.5 602,4 -4,4"/>
<!-- Node1 -->
<g id="node1" class="node">
<title>Node1</title>
<g id="a_node1"><a xlink:title=" ">
<polygon fill="#bfbfbf" stroke="black" points="500,-77 500,-107 598,-107 598,-77 500,-77"/>
<text text-anchor="start" x="508" y="-95" font-family="Helvetica,sans-Serif" font-size="10.00">automaton::core::io</text>
<text text-anchor="middle" x="549" y="-84" font-family="Helvetica,sans-Serif" font-size="10.00">::hex2bin</text>
</a>
</g>
</g>
<!-- Node2 -->
<g id="node2" class="node">
<title>Node2</title>
<g id="a_node2"><a xlink:href="../../d0/d66/classautomaton_1_1core_1_1script_1_1engine.html#a0d3f6e578e8f9ff451d62cd5faf0acfc" target="_top" xlink:title=" ">
<polygon fill="white" stroke="black" points="340.5,-148 340.5,-178 454.5,-178 454.5,-148 340.5,-148"/>
<text text-anchor="start" x="348.5" y="-166" font-family="Helvetica,sans-Serif" font-size="10.00">automaton::core::script</text>
<text text-anchor="middle" x="397.5" y="-155" font-family="Helvetica,sans-Serif" font-size="10.00">::engine::bind_io</text>
</a>
</g>
</g>
<!-- Node1&#45;&gt;Node2 -->
<g id="edge1" class="edge">
<title>Node1&#45;&gt;Node2</title>
<path fill="none" stroke="midnightblue" d="M514.56,-112.32C499.41,-121.1 481.1,-131.14 464,-139 457.18,-142.13 449.82,-145.16 442.58,-147.94"/>
<polygon fill="midnightblue" stroke="midnightblue" points="516.69,-115.13 523.55,-107.05 513.15,-109.09 516.69,-115.13"/>
</g>
<!-- Node5 -->
<g id="node5" class="node">
<title>Node5</title>
<g id="a_node5"><a xlink:href="../../d2/d91/namespaceautomaton_1_1core_1_1interop_1_1ethereum.html#a1785a882c65e47ef40d0587235f82275" target="_top" xlink:title=" ">
<polygon fill="white" stroke="black" points="332.5,-99 332.5,-129 462.5,-129 462.5,-99 332.5,-99"/>
<text text-anchor="start" x="340.5" y="-117" font-family="Helvetica,sans-Serif" font-size="10.00">automaton::core::interop</text>
<text text-anchor="middle" x="397.5" y="-106" font-family="Helvetica,sans-Serif" font-size="10.00">::ethereum::encode_param</text>
</a>
</g>
</g>
<!-- Node1&#45;&gt;Node5 -->
<g id="edge4" class="edge">
<title>Node1&#45;&gt;Node5</title>
<path fill="none" stroke="midnightblue" d="M489.94,-100.54C480.99,-101.86 471.7,-103.23 462.62,-104.56"/>
<polygon fill="midnightblue" stroke="midnightblue" points="490.49,-104 499.87,-99.08 489.47,-97.08 490.49,-104"/>
</g>
<!-- Node8 -->
<g id="node8" class="node">
<title>Node8</title>
<g id="a_node8"><a xlink:href="../../d4/d57/eth__contract__curl__test_8cc.html#ae66f6b31b5ad750f1fe042a706a4e3d4" target="_top" xlink:title=" ">
<polygon fill="white" stroke="black" points="216.5,-36.5 216.5,-55.5 254.5,-55.5 254.5,-36.5 216.5,-36.5"/>
<text text-anchor="middle" x="235.5" y="-43.5" font-family="Helvetica,sans-Serif" font-size="10.00">main</text>
</a>
</g>
</g>
<!-- Node1&#45;&gt;Node8 -->
<g id="edge7" class="edge">
<title>Node1&#45;&gt;Node8</title>
<path fill="none" stroke="midnightblue" d="M489.41,-83.35C417.49,-72.73 299.55,-55.31 254.64,-48.68"/>
<polygon fill="midnightblue" stroke="midnightblue" points="489.27,-86.86 499.67,-84.86 490.29,-79.94 489.27,-86.86"/>
</g>
<!-- Node9 -->
<g id="node9" class="node">
<title>Node9</title>
<g id="a_node9"><a xlink:href="../../dd/da0/classautomaton_1_1core_1_1interop_1_1ethereum_1_1eth__transaction.html#abe1d02f403b67b699353c9a180c0cb2e" target="_top" xlink:title=" ">
<polygon fill="white" stroke="black" points="331,-0.5 331,-41.5 464,-41.5 464,-0.5 331,-0.5"/>
<text text-anchor="start" x="339" y="-29.5" font-family="Helvetica,sans-Serif" font-size="10.00">automaton::core::interop</text>
<text text-anchor="start" x="339" y="-18.5" font-family="Helvetica,sans-Serif" font-size="10.00">::ethereum::eth_transaction</text>
<text text-anchor="middle" x="397.5" y="-7.5" font-family="Helvetica,sans-Serif" font-size="10.00">::sign_tx</text>
</a>
</g>
</g>
<!-- Node1&#45;&gt;Node9 -->
<g id="edge8" class="edge">
<title>Node1&#45;&gt;Node9</title>
<path fill="none" stroke="midnightblue" d="M507.02,-72.54C486.77,-62.92 462.34,-51.32 441.79,-41.56"/>
<polygon fill="midnightblue" stroke="midnightblue" points="505.76,-75.81 516.29,-76.94 508.76,-69.49 505.76,-75.81"/>
</g>
<!-- Node3 -->
<g id="node3" class="node">
<title>Node3</title>
<g id="a_node3"><a xlink:href="../../d0/d66/classautomaton_1_1core_1_1script_1_1engine.html#a530ebf5615f9b5fe50c52ead2afe9677" target="_top" xlink:title=" ">
<polygon fill="white" stroke="black" points="178.5,-148 178.5,-178 292.5,-178 292.5,-148 178.5,-148"/>
<text text-anchor="start" x="186.5" y="-166" font-family="Helvetica,sans-Serif" font-size="10.00">automaton::core::script</text>
<text text-anchor="middle" x="235.5" y="-155" font-family="Helvetica,sans-Serif" font-size="10.00">::engine::bind_core</text>
</a>
</g>
</g>
<!-- Node2&#45;&gt;Node3 -->
<g id="edge2" class="edge">
<title>Node2&#45;&gt;Node3</title>
<path fill="none" stroke="midnightblue" d="M329.84,-163C317.48,-163 304.68,-163 292.67,-163"/>
<polygon fill="midnightblue" stroke="midnightblue" points="330.09,-166.5 340.09,-163 330.09,-159.5 330.09,-166.5"/>
</g>
<!-- Node4 -->
<g id="node4" class="node">
<title>Node4</title>
<g id="a_node4"><a xlink:href="../../dd/de7/core_8cc.html#a0ddf1224851353fc92bfbff6f499fa97" target="_top" xlink:title=" ">
<polygon fill="white" stroke="black" points="51,-153.5 51,-172.5 89,-172.5 89,-153.5 51,-153.5"/>
<text text-anchor="middle" x="70" y="-160.5" font-family="Helvetica,sans-Serif" font-size="10.00">main</text>
</a>
</g>
</g>
<!-- Node3&#45;&gt;Node4 -->
<g id="edge3" class="edge">
<title>Node3&#45;&gt;Node4</title>
<path fill="none" stroke="midnightblue" d="M167.88,-163C139.4,-163 108.37,-163 89.3,-163"/>
<polygon fill="midnightblue" stroke="midnightblue" points="168.23,-166.5 178.23,-163 168.23,-159.5 168.23,-166.5"/>
</g>
<!-- Node6 -->
<g id="node6" class="node">
<title>Node6</title>
<g id="a_node6"><a xlink:href="../../d2/d91/namespaceautomaton_1_1core_1_1interop_1_1ethereum.html#a47ab7911ff4d29153e849da3691c26b6" target="_top" xlink:title=" ">
<polygon fill="white" stroke="black" points="176,-99 176,-129 295,-129 295,-99 176,-99"/>
<text text-anchor="start" x="184" y="-117" font-family="Helvetica,sans-Serif" font-size="10.00">automaton::core::interop</text>
<text text-anchor="middle" x="235.5" y="-106" font-family="Helvetica,sans-Serif" font-size="10.00">::ethereum::encode</text>
</a>
</g>
</g>
<!-- Node5&#45;&gt;Node6 -->
<g id="edge5" class="edge">
<title>Node5&#45;&gt;Node6</title>
<path fill="none" stroke="midnightblue" d="M322.2,-114C313.15,-114 304.01,-114 295.23,-114"/>
<polygon fill="midnightblue" stroke="midnightblue" points="322.34,-117.5 332.34,-114 322.34,-110.5 322.34,-117.5"/>
</g>
<!-- Node7 -->
<g id="node7" class="node">
<title>Node7</title>
<g id="a_node7"><a xlink:href="../../d4/de7/classautomaton_1_1core_1_1interop_1_1ethereum_1_1eth__contract.html#adfdba68e86eb54b19df0a9d60bf98131" target="_top" xlink:title=" ">
<polygon fill="white" stroke="black" points="0,-99 0,-129 140,-129 140,-99 0,-99"/>
<text text-anchor="start" x="8" y="-117" font-family="Helvetica,sans-Serif" font-size="10.00">automaton::core::interop</text>
<text text-anchor="middle" x="70" y="-106" font-family="Helvetica,sans-Serif" font-size="10.00">::ethereum::eth_contract::call</text>
</a>
</g>
</g>
<!-- Node6&#45;&gt;Node7 -->
<g id="edge6" class="edge">
<title>Node6&#45;&gt;Node7</title>
<path fill="none" stroke="midnightblue" d="M165.7,-114C157.21,-114 148.52,-114 140.03,-114"/>
<polygon fill="midnightblue" stroke="midnightblue" points="165.93,-117.5 175.93,-114 165.93,-110.5 165.93,-117.5"/>
</g>
<!-- Node9&#45;&gt;Node8 -->
<g id="edge9" class="edge">
<title>Node9&#45;&gt;Node8</title>
<path fill="none" stroke="midnightblue" d="M320.85,-32.82C296.25,-36.66 271.1,-40.59 254.74,-43.15"/>
<polygon fill="midnightblue" stroke="midnightblue" points="321.62,-36.24 330.96,-31.24 320.54,-29.33 321.62,-36.24"/>
</g>
</g>
</svg>
        <g id="navigator" transform="translate(0 0)" fill="#404254">
                <rect fill="#f2f5e9" fill-opacity="0.5" stroke="#606060" stroke-width=".5" x="0" y="0" width="60" height="60"/>
                <use id="zoomplus" xlink:href="#zoomPlus" x="17" y="9" onmousedown="handleZoom(evt,'in')"/>
                <use id="zoomminus" xlink:href="#zoomMin" x="42" y="9" onmousedown="handleZoom(evt,'out')"/>
                <use id="reset" xlink:href="#resetDef" x="30" y="36" onmousedown="handleReset()"/>
                <g id="arrowUp" xlink:href="#dirArrow" transform="translate(30 24)" onmousedown="handlePan(0,-1)">
                  <use xlink:href="#rim" fill="#404040">
                        <set attributeName="fill" to="#808080" begin="arrowUp.mouseover" end="arrowUp.mouseout"/>
                  </use>
                  <path fill="none" stroke="white" stroke-width="1.5" d="M0,-3.0v7 M-2.5,-0.5L0,-3.0L2.5,-0.5"/>
                </g>
                <g id="arrowRight" xlink:href="#dirArrow" transform="rotate(90) translate(36 -43)" onmousedown="handlePan(1,0)">
                  <use xlink:href="#rim" fill="#404040">
                        <set attributeName="fill" to="#808080" begin="arrowRight.mouseover" end="arrowRight.mouseout"/>
                  </use>
                  <path fill="none" stroke="white" stroke-width="1.5" d="M0,-3.0v7 M-2.5,-0.5L0,-3.0L2.5,-0.5"/>
                </g>
                <g id="arrowDown" xlink:href="#dirArrow" transform="rotate(180) translate(-30 -48)" onmousedown="handlePan(0,1)">
                  <use xlink:href="#rim" fill="#404040">
                        <set attributeName="fill" to="#808080" begin="arrowDown.mouseover" end="arrowDown.mouseout"/>
                  </use>
                  <path fill="none" stroke="white" stroke-width="1.5" d="M0,-3.0v7 M-2.5,-0.5L0,-3.0L2.5,-0.5"/>
                </g>
                <g id="arrowLeft" xlink:href="#dirArrow" transform="rotate(270) translate(-36 17)" onmousedown="handlePan(-1,0)">
                  <use xlink:href="#rim" fill="#404040">
                        <set attributeName="fill" to="#808080" begin="arrowLeft.mouseover" end="arrowLeft.mouseout"/>
                  </use>
                  <path fill="none" stroke="white" stroke-width="1.5" d="M0,-3.0v7 M-2.5,-0.5L0,-3.0L2.5,-0.5"/>
                </g>
        </g>
        <svg viewBox="0 0 15 15" width="100%" height="30px" preserveAspectRatio="xMaxYMin meet">
         <g id="arrow_out" transform="scale(0.3 0.3)">
          <a xlink:href="namespaceautomaton_1_1core_1_1io_a6e93384a5c0d6481352d0ec3211a3d2d_icgraph_org.svg" target="_base">
           <rect id="button" ry="5" rx="5" y="6" x="6" height="38" width="38"
                fill="#f2f5e9" fill-opacity="0.5" stroke="#606060" stroke-width="1.0"/>
           <path id="arrow"
             d="M 11.500037,31.436501 C 11.940474,20.09759 22.043105,11.32322 32.158766,21.979434 L 37.068811,17.246167 C 37.068811,17.246167 37.088388,32 37.088388,32 L 22.160133,31.978069 C 22.160133,31.978069 26.997745,27.140456 26.997745,27.140456 C 18.528582,18.264221 13.291696,25.230495 11.500037,31.436501 z"
             style="fill:#404040;"/>
          </a>
         </g>
        </svg>
</svg>
