<?xml version="1.0" encoding="UTF-8" standalone="no"?>
<!DOCTYPE svg PUBLIC "-//W3C//DTD SVG 1.1//EN"
 "http://www.w3.org/Graphics/SVG/1.1/DTD/svg11.dtd">
<!-- Generated by graphviz version 2.44.0 ()
 -->
<!-- Title: automaton::core::io::dec2hex Pages: 1 -->
<svg width="504pt" height="73pt"
 viewBox="0.00 0.00 504.00 72.63" xmlns="http://www.w3.org/2000/svg" xmlns:xlink="http://www.w3.org/1999/xlink">
<g id="graph0" class="graph" transform="scale(1 1) rotate(0) translate(4 68.63)">
<title>automaton::core::io::dec2hex</title>
<polygon fill="white" stroke="transparent" points="-4,4 -4,-68.63 500,-68.63 500,4 -4,4"/>
<!-- Node1 -->
<g id="node1" class="node">
<title>Node1</title>
<g id="a_node1"><a xlink:title=" ">
<polygon fill="#bfbfbf" stroke="black" points="398,-15.1 398,-45.1 496,-45.1 496,-15.1 398,-15.1"/>
<text text-anchor="start" x="406" y="-33.1" font-family="Helvetica,sans-Serif" font-size="10.00">automaton::core::io</text>
<text text-anchor="middle" x="447" y="-22.1" font-family="Helvetica,sans-Serif" font-size="10.00">::dec2hex</text>
</a>
</g>
</g>
<!-- Node2 -->
<g id="node2" class="node">
<title>Node2</title>
<g id="a_node2"><a xlink:href="../../d4/d57/eth__contract__curl__test_8cc.html#ae66f6b31b5ad750f1fe042a706a4e3d4" target="_top" xlink:title=" ">
<polygon fill="white" stroke="black" points="0,-39.6 0,-58.6 38,-58.6 38,-39.6 0,-39.6"/>
<text text-anchor="middle" x="19" y="-46.6" font-family="Helvetica,sans-Serif" font-size="10.00">main</text>
</a>
</g>
</g>
<!-- Node1&#45;&gt;Node2 -->
<g id="edge1" class="edge">
<title>Node1&#45;&gt;Node2</title>
<path fill="none" stroke="midnightblue" d="M391.91,-47.87C382.06,-50.44 371.8,-52.69 362,-54.1 235.29,-72.26 201.8,-62.17 74,-55.1 62.13,-54.44 48.87,-52.97 38.45,-51.66"/>
<polygon fill="midnightblue" stroke="midnightblue" points="392.87,-51.24 401.59,-45.22 391.02,-44.49 392.87,-51.24"/>
</g>
<!-- Node3 -->
<g id="node3" class="node">
<title>Node3</title>
<g id="a_node3"><a xlink:href="../../d2/d91/namespaceautomaton_1_1core_1_1interop_1_1ethereum.html#a319b4b2957ed7961871807ec18b970ec" target="_top" xlink:title=" ">
<polygon fill="white" stroke="black" points="243,-15.1 243,-45.1 362,-45.1 362,-15.1 243,-15.1"/>
<text text-anchor="start" x="251" y="-33.1" font-family="Helvetica,sans-Serif" font-size="10.00">automaton::core::interop</text>
<text text-anchor="middle" x="302.5" y="-22.1" font-family="Helvetica,sans-Serif" font-size="10.00">::ethereum::rlp_encode</text>
</a>
</g>
</g>
<!-- Node1&#45;&gt;Node3 -->
<g id="edge2" class="edge">
<title>Node1&#45;&gt;Node3</title>
<path fill="none" stroke="midnightblue" d="M387.62,-30.1C379.19,-30.1 370.5,-30.1 362.06,-30.1"/>
<polygon fill="midnightblue" stroke="midnightblue" points="387.76,-33.6 397.76,-30.1 387.76,-26.6 387.76,-33.6"/>
</g>
<!-- Node4 -->
<g id="node4" class="node">
<title>Node4</title>
<g id="a_node4"><a xlink:href="../../dd/da0/classautomaton_1_1core_1_1interop_1_1ethereum_1_1eth__transaction.html#abe1d02f403b67b699353c9a180c0cb2e" target="_top" xlink:title=" ">
<polygon fill="white" stroke="black" points="74,-4.6 74,-45.6 207,-45.6 207,-4.6 74,-4.6"/>
<text text-anchor="start" x="82" y="-33.6" font-family="Helvetica,sans-Serif" font-size="10.00">automaton::core::interop</text>
<text text-anchor="start" x="82" y="-22.6" font-family="Helvetica,sans-Serif" font-size="10.00">::ethereum::eth_transaction</text>
<text text-anchor="middle" x="140.5" y="-11.6" font-family="Helvetica,sans-Serif" font-size="10.00">::sign_tx</text>
</a>
</g>
</g>
<!-- Node1&#45;&gt;Node4 -->
<g id="edge5" class="edge">
<title>Node1&#45;&gt;Node4</title>
<path fill="none" stroke="midnightblue" d="M394.31,-12.17C383.75,-9.23 372.61,-6.64 362,-5.1 309.66,2.53 295.64,0.04 243,-5.1 231.29,-6.24 218.93,-8.11 207.02,-10.25"/>
<polygon fill="midnightblue" stroke="midnightblue" points="393.65,-15.63 404.23,-15.08 395.62,-8.91 393.65,-15.63"/>
</g>
<!-- Node3&#45;&gt;Node4 -->
<g id="edge3" class="edge">
<title>Node3&#45;&gt;Node4</title>
<path fill="none" stroke="midnightblue" d="M232.64,-27.94C224.2,-27.68 215.58,-27.41 207.19,-27.15"/>
<polygon fill="midnightblue" stroke="midnightblue" points="232.73,-31.45 242.83,-28.26 232.94,-24.45 232.73,-31.45"/>
</g>
<!-- Node4&#45;&gt;Node2 -->
<g id="edge4" class="edge">
<title>Node4&#45;&gt;Node2</title>
<path fill="none" stroke="midnightblue" d="M63.86,-40.29C54.47,-42.17 45.64,-43.95 38.4,-45.4"/>
<polygon fill="midnightblue" stroke="midnightblue" points="64.69,-43.69 73.81,-38.29 63.31,-36.83 64.69,-43.69"/>
</g>
</g>
</svg>
