<?xml version="1.0" encoding="UTF-8" standalone="no"?>
<!DOCTYPE svg PUBLIC "-//W3C//DTD SVG 1.1//EN"
 "http://www.w3.org/Graphics/SVG/1.1/DTD/svg11.dtd">
<!-- Generated by graphviz version 2.44.0 ()
 -->
<!-- Title: automaton::core::io::init_logger Pages: 1 -->
<svg width="444pt" height="50pt"
 viewBox="0.00 0.00 444.00 50.00" xmlns="http://www.w3.org/2000/svg" xmlns:xlink="http://www.w3.org/1999/xlink">
<g id="graph0" class="graph" transform="scale(1 1) rotate(0) translate(4 46)">
<title>automaton::core::io::init_logger</title>
<polygon fill="white" stroke="transparent" points="-4,4 -4,-46 440,-46 440,4 -4,4"/>
<!-- Node1 -->
<g id="node1" class="node">
<title>Node1</title>
<g id="a_node1"><a xlink:title=" ">
<polygon fill="#bfbfbf" stroke="black" points="0,-6 0,-36 98,-36 98,-6 0,-6"/>
<text text-anchor="start" x="8" y="-24" font-family="Helvetica,sans-Serif" font-size="10.00">automaton::core::io</text>
<text text-anchor="middle" x="49" y="-13" font-family="Helvetica,sans-Serif" font-size="10.00">::init_logger</text>
</a>
</g>
</g>
<!-- Node2 -->
<g id="node2" class="node">
<title>Node2</title>
<g id="a_node2"><a xlink:href="../../dc/d03/structautomaton_1_1core_1_1io_1_1_color_cout_sink.html#a04e459317b8796bcd95e7e79f57697cc" target="_top" xlink:title=" ">
<polygon fill="white" stroke="black" points="134,-0.5 134,-41.5 274,-41.5 274,-0.5 134,-0.5"/>
<text text-anchor="start" x="142" y="-29.5" font-family="Helvetica,sans-Serif" font-size="10.00">automaton::core::io</text>
<text text-anchor="start" x="142" y="-18.5" font-family="Helvetica,sans-Serif" font-size="10.00">::ColorCoutSink::ReceiveLog</text>
<text text-anchor="middle" x="204" y="-7.5" font-family="Helvetica,sans-Serif" font-size="10.00">Message</text>
</a>
</g>
</g>
<!-- Node1&#45;&gt;Node2 -->
<g id="edge1" class="edge">
<title>Node1&#45;&gt;Node2</title>
<path fill="none" stroke="midnightblue" d="M98.41,-21C106.53,-21 115.13,-21 123.79,-21"/>
<polygon fill="midnightblue" stroke="midnightblue" points="123.94,-24.5 133.94,-21 123.94,-17.5 123.94,-24.5"/>
</g>
<!-- Node3 -->
<g id="node3" class="node">
<title>Node3</title>
<g id="a_node3"><a xlink:href="../../dc/d03/structautomaton_1_1core_1_1io_1_1_color_cout_sink.html#ae60584ed03ab505d562057919ae607ad" target="_top" xlink:title=" ">
<polygon fill="white" stroke="black" points="310,-6 310,-36 436,-36 436,-6 310,-6"/>
<text text-anchor="start" x="318" y="-24" font-family="Helvetica,sans-Serif" font-size="10.00">automaton::core::io</text>
<text text-anchor="middle" x="373" y="-13" font-family="Helvetica,sans-Serif" font-size="10.00">::ColorCoutSink::GetColor</text>
</a>
</g>
</g>
<!-- Node2&#45;&gt;Node3 -->
<g id="edge2" class="edge">
<title>Node2&#45;&gt;Node3</title>
<path fill="none" stroke="midnightblue" d="M274.37,-21C282.72,-21 291.26,-21 299.65,-21"/>
<polygon fill="midnightblue" stroke="midnightblue" points="299.78,-24.5 309.78,-21 299.78,-17.5 299.78,-24.5"/>
</g>
</g>
</svg>
