<?xml version="1.0" encoding="UTF-8" standalone="no"?>
<!DOCTYPE svg PUBLIC "-//W3C//DTD SVG 1.1//EN"
 "http://www.w3.org/Graphics/SVG/1.1/DTD/svg11.dtd">
<!-- Generated by graphviz version 2.42.3 ()
 -->
<!-- Title: automaton::core::io::bin2hex Pages: 1 -->
<!--zoomable 852 -->
<svg id="main" version="1.1" xmlns="http://www.w3.org/2000/svg" xmlns:xlink="http://www.w3.org/1999/xlink" xml:space="preserve" onload="init(evt)">
<style type="text/css"><![CDATA[
.edge:hover path { stroke: red; }
.edge:hover polygon { stroke: red; fill: red; }
]]></style>
<script type="text/javascript"><![CDATA[
var edges = document.getElementsByTagName('g');
if (edges && edges.length) {
  for (var i=0;i<edges.length;i++) {
    if (edges[i].id.substr(0,4)=='edge') {
      edges[i].setAttribute('class','edge');
    }
  }
}
]]></script>
        <defs>
                <circle id="rim" cx="0" cy="0" r="7"/>
                <circle id="rim2" cx="0" cy="0" r="3.5"/>
                <g id="zoomPlus">
                        <use xlink:href="#rim" fill="#404040">
                                <set attributeName="fill" to="#808080" begin="zoomplus.mouseover" end="zoomplus.mouseout"/>
                        </use>
                        <path d="M-4,0h8M0,-4v8" fill="none" stroke="white" stroke-width="1.5" pointer-events="none"/>
                </g>
                <g id="zoomMin">
                        <use xlink:href="#rim" fill="#404040">
                                <set attributeName="fill" to="#808080" begin="zoomminus.mouseover" end="zoomminus.mouseout"/>
                        </use>
                        <path d="M-4,0h8" fill="none" stroke="white" stroke-width="1.5" pointer-events="none"/>
                </g>
                <g id="dirArrow">
                        <path fill="none" stroke="white" stroke-width="1.5" d="M0,-3.0v7 M-2.5,-0.5L0,-3.0L2.5,-0.5"/>
                </g>
               <g id="resetDef">
                       <use xlink:href="#rim2" fill="#404040">
                               <set attributeName="fill" to="#808080" begin="reset.mouseover" end="reset.mouseout"/>
                       </use>
               </g>
        </defs>

<script type="text/javascript">
var viewWidth = 530;
var viewHeight = 852;
var sectionId = 'dynsection-0';
</script>
<script xlink:href="../../svgpan.js"/>
<svg id="graph" class="graph">
<g id="viewport">
<title>automaton::core::io::bin2hex</title>
<polygon fill="white" stroke="transparent" points="-4,4 -4,-848 526,-848 526,4 -4,4"/>
<!-- Node1 -->
<g id="node1" class="node">
<title>Node1</title>
<g id="a_node1"><a xlink:title=" ">
<polygon fill="#bfbfbf" stroke="black" points="424,-420.5 424,-450.5 522,-450.5 522,-420.5 424,-420.5"/>
<text text-anchor="start" x="432" y="-438.5" font-family="Helvetica,sans-Serif" font-size="10.00">automaton::core::io</text>
<text text-anchor="middle" x="473" y="-427.5" font-family="Helvetica,sans-Serif" font-size="10.00">::bin2hex</text>
</a>
</g>
</g>
<!-- Node2 -->
<g id="node2" class="node">
<title>Node2</title>
<g id="a_node2"><a xlink:href="../../d0/d66/classautomaton_1_1core_1_1script_1_1engine.html#a0d3f6e578e8f9ff451d62cd5faf0acfc" target="_top" xlink:title=" ">
<polygon fill="white" stroke="black" points="258.5,-813.5 258.5,-843.5 372.5,-843.5 372.5,-813.5 258.5,-813.5"/>
<text text-anchor="start" x="266.5" y="-831.5" font-family="Helvetica,sans-Serif" font-size="10.00">automaton::core::script</text>
<text text-anchor="middle" x="315.5" y="-820.5" font-family="Helvetica,sans-Serif" font-size="10.00">::engine::bind_io</text>
</a>
</g>
</g>
<!-- Node1&#45;&gt;Node2 -->
<g id="edge1" class="edge">
<title>Node1&#45;&gt;Node2</title>
<path fill="none" stroke="midnightblue" d="M469.45,-460.81C461.44,-535.51 434.53,-753.07 388,-804.5 383.7,-809.26 378.42,-813.07 372.7,-816.13"/>
<polygon fill="midnightblue" stroke="midnightblue" points="472.93,-461.17 470.49,-450.86 465.97,-460.44 472.93,-461.17"/>
</g>
<!-- Node5 -->
<g id="node5" class="node">
<title>Node5</title>
<g id="a_node5"><a xlink:href="../../d4/de7/classautomaton_1_1core_1_1interop_1_1ethereum_1_1eth__contract.html#adfdba68e86eb54b19df0a9d60bf98131" target="_top" xlink:title=" ">
<polygon fill="white" stroke="black" points="245.5,-764.5 245.5,-794.5 385.5,-794.5 385.5,-764.5 245.5,-764.5"/>
<text text-anchor="start" x="253.5" y="-782.5" font-family="Helvetica,sans-Serif" font-size="10.00">automaton::core::interop</text>
<text text-anchor="middle" x="315.5" y="-771.5" font-family="Helvetica,sans-Serif" font-size="10.00">::ethereum::eth_contract::call</text>
</a>
</g>
</g>
<!-- Node1&#45;&gt;Node5 -->
<g id="edge4" class="edge">
<title>Node1&#45;&gt;Node5</title>
<path fill="none" stroke="midnightblue" d="M472.85,-461.18C473.39,-520.76 466.32,-669.74 388,-754.5 384.43,-758.36 380.23,-761.63 375.68,-764.39"/>
<polygon fill="midnightblue" stroke="midnightblue" points="476.34,-460.76 472.67,-450.82 469.34,-460.88 476.34,-460.76"/>
</g>
<!-- Node6 -->
<g id="node6" class="node">
<title>Node6</title>
<g id="a_node6"><a xlink:href="../../d4/dd8/miner__main_8cc.html#a9d75bf2c716740369baf0c7dd1de1635" target="_top" xlink:title=" ">
<polygon fill="white" stroke="black" points="272,-726 272,-745 359,-745 359,-726 272,-726"/>
<text text-anchor="middle" x="315.5" y="-733" font-family="Helvetica,sans-Serif" font-size="10.00">check_and_sign</text>
</a>
</g>
</g>
<!-- Node1&#45;&gt;Node6 -->
<g id="edge5" class="edge">
<title>Node1&#45;&gt;Node6</title>
<path fill="none" stroke="midnightblue" d="M472.18,-460.76C471.13,-515.55 460.67,-646.03 388,-716.5 380.16,-724.1 369.65,-728.75 359.1,-731.57"/>
<polygon fill="midnightblue" stroke="midnightblue" points="475.68,-460.59 472.28,-450.56 468.68,-460.52 475.68,-460.59"/>
</g>
<!-- Node8 -->
<g id="node8" class="node">
<title>Node8</title>
<g id="a_node8"><a xlink:href="../../d2/d91/namespaceautomaton_1_1core_1_1interop_1_1ethereum.html#a4e999f5f941e39170753893811249a18" target="_top" xlink:title=" ">
<polygon fill="white" stroke="black" points="247,-676.5 247,-706.5 384,-706.5 384,-676.5 247,-676.5"/>
<text text-anchor="start" x="255" y="-694.5" font-family="Helvetica,sans-Serif" font-size="10.00">automaton::core::interop</text>
<text text-anchor="middle" x="315.5" y="-683.5" font-family="Helvetica,sans-Serif" font-size="10.00">::ethereum::check_and_sign</text>
</a>
</g>
</g>
<!-- Node1&#45;&gt;Node8 -->
<g id="edge7" class="edge">
<title>Node1&#45;&gt;Node8</title>
<path fill="none" stroke="midnightblue" d="M469.23,-460.53C462.9,-506.22 443.4,-603.76 388,-661.5 382.13,-667.62 374.82,-672.54 367.13,-676.49"/>
<polygon fill="midnightblue" stroke="midnightblue" points="472.7,-460.95 470.5,-450.59 465.76,-460.06 472.7,-460.95"/>
</g>
<!-- Node9 -->
<g id="node9" class="node">
<title>Node9</title>
<g id="a_node9"><a xlink:href="../../dd/da0/classautomaton_1_1core_1_1interop_1_1ethereum_1_1eth__transaction.html#abe1d02f403b67b699353c9a180c0cb2e" target="_top" xlink:title=" ">
<polygon fill="white" stroke="black" points="74,-638 74,-679 207,-679 207,-638 74,-638"/>
<text text-anchor="start" x="82" y="-667" font-family="Helvetica,sans-Serif" font-size="10.00">automaton::core::interop</text>
<text text-anchor="start" x="82" y="-656" font-family="Helvetica,sans-Serif" font-size="10.00">::ethereum::eth_transaction</text>
<text text-anchor="middle" x="140.5" y="-645" font-family="Helvetica,sans-Serif" font-size="10.00">::sign_tx</text>
</a>
</g>
</g>
<!-- Node1&#45;&gt;Node9 -->
<g id="edge26" class="edge">
<title>Node1&#45;&gt;Node9</title>
<path fill="none" stroke="midnightblue" d="M468.54,-460.77C461.46,-502.07 441.2,-583.41 388,-623.5 336.39,-662.39 261,-667.8 207.19,-665.56"/>
<polygon fill="midnightblue" stroke="midnightblue" points="472.03,-461.15 470.14,-450.72 465.12,-460.05 472.03,-461.15"/>
</g>
<!-- Node10 -->
<g id="node10" class="node">
<title>Node10</title>
<g id="a_node10"><a xlink:href="../../d4/d57/eth__contract__curl__test_8cc.html#ae66f6b31b5ad750f1fe042a706a4e3d4" target="_top" xlink:title=" ">
<polygon fill="white" stroke="black" points="0,-475 0,-494 38,-494 38,-475 0,-475"/>
<text text-anchor="middle" x="19" y="-482" font-family="Helvetica,sans-Serif" font-size="10.00">main</text>
</a>
</g>
</g>
<!-- Node1&#45;&gt;Node10 -->
<g id="edge20" class="edge">
<title>Node1&#45;&gt;Node10</title>
<path fill="none" stroke="midnightblue" d="M466.73,-460.79C457.69,-496.98 435.39,-562.28 388,-590.5 328.05,-626.2 133.49,-626.96 74,-590.5 38.61,-568.81 25.5,-515.83 21.51,-494.07"/>
<polygon fill="midnightblue" stroke="midnightblue" points="470.16,-461.52 469.04,-450.99 463.34,-459.92 470.16,-461.52"/>
</g>
<!-- Node11 -->
<g id="node11" class="node">
<title>Node11</title>
<g id="a_node11"><a xlink:href="../../d2/d91/namespaceautomaton_1_1core_1_1interop_1_1ethereum.html#a55009f57edd69b295860a7b8b685ab2b" target="_top" xlink:title=" ">
<polygon fill="white" stroke="black" points="250.5,-550.5 250.5,-580.5 380.5,-580.5 380.5,-550.5 250.5,-550.5"/>
<text text-anchor="start" x="258.5" y="-568.5" font-family="Helvetica,sans-Serif" font-size="10.00">automaton::core::interop</text>
<text text-anchor="middle" x="315.5" y="-557.5" font-family="Helvetica,sans-Serif" font-size="10.00">::ethereum::decode_param</text>
</a>
</g>
</g>
<!-- Node1&#45;&gt;Node11 -->
<g id="edge10" class="edge">
<title>Node1&#45;&gt;Node11</title>
<path fill="none" stroke="midnightblue" d="M458.57,-459.63C444.08,-483.6 418.87,-519.82 388,-541.5 383.18,-544.89 377.84,-547.82 372.32,-550.37"/>
<polygon fill="midnightblue" stroke="midnightblue" points="461.72,-461.19 463.77,-450.79 455.68,-457.64 461.72,-461.19"/>
</g>
<!-- Node13 -->
<g id="node13" class="node">
<title>Node13</title>
<g id="a_node13"><a xlink:href="../../dd/da5/classautomaton_1_1core_1_1state_1_1state__impl.html#a7c10dbf63eba4319f13b635ccbcc2f31" target="_top" xlink:title=" ">
<polygon fill="white" stroke="black" points="243,-501.5 243,-531.5 388,-531.5 388,-501.5 243,-501.5"/>
<text text-anchor="start" x="251" y="-519.5" font-family="Helvetica,sans-Serif" font-size="10.00">automaton::core::state</text>
<text text-anchor="middle" x="315.5" y="-508.5" font-family="Helvetica,sans-Serif" font-size="10.00">::state_impl::delete_node_tree</text>
</a>
</g>
</g>
<!-- Node1&#45;&gt;Node13 -->
<g id="edge12" class="edge">
<title>Node1&#45;&gt;Node13</title>
<path fill="none" stroke="midnightblue" d="M444.62,-456.89C428.74,-468.55 407.99,-482.6 388,-492.5 381.43,-495.76 374.31,-498.74 367.2,-501.4"/>
<polygon fill="midnightblue" stroke="midnightblue" points="446.99,-459.48 452.91,-450.69 442.8,-453.88 446.99,-459.48"/>
</g>
<!-- Node14 -->
<g id="node14" class="node">
<title>Node14</title>
<g id="a_node14"><a xlink:href="../../dc/ddc/classautomaton_1_1core_1_1state_1_1state__persistent.html#a92059ff6c9cf20de12f08161a0893cb8" target="_top" xlink:title=" ">
<polygon fill="white" stroke="black" points="254.5,-442 254.5,-483 376.5,-483 376.5,-442 254.5,-442"/>
<text text-anchor="start" x="262.5" y="-471" font-family="Helvetica,sans-Serif" font-size="10.00">automaton::core::state</text>
<text text-anchor="start" x="262.5" y="-460" font-family="Helvetica,sans-Serif" font-size="10.00">::state_persistent::delete</text>
<text text-anchor="middle" x="315.5" y="-449" font-family="Helvetica,sans-Serif" font-size="10.00">_node_tree</text>
</a>
</g>
</g>
<!-- Node1&#45;&gt;Node14 -->
<g id="edge13" class="edge">
<title>Node1&#45;&gt;Node14</title>
<path fill="none" stroke="midnightblue" d="M413.67,-445.63C401.56,-447.73 388.78,-449.95 376.61,-452.06"/>
<polygon fill="midnightblue" stroke="midnightblue" points="414.4,-449.05 423.65,-443.89 413.2,-442.16 414.4,-449.05"/>
</g>
<!-- Node15 -->
<g id="node15" class="node">
<title>Node15</title>
<g id="a_node15"><a xlink:href="../../dd/da5/classautomaton_1_1core_1_1state_1_1state__impl.html#a911df9e6458f887a7c7cea8cdd4a8974" target="_top" xlink:title=" ">
<polygon fill="white" stroke="black" points="259.5,-393.5 259.5,-423.5 371.5,-423.5 371.5,-393.5 259.5,-393.5"/>
<text text-anchor="start" x="267.5" y="-411.5" font-family="Helvetica,sans-Serif" font-size="10.00">automaton::core::state</text>
<text text-anchor="middle" x="315.5" y="-400.5" font-family="Helvetica,sans-Serif" font-size="10.00">::state_impl::erase</text>
</a>
</g>
</g>
<!-- Node1&#45;&gt;Node15 -->
<g id="edge14" class="edge">
<title>Node1&#45;&gt;Node15</title>
<path fill="none" stroke="midnightblue" d="M413.78,-425.39C399.97,-422.99 385.28,-420.44 371.61,-418.07"/>
<polygon fill="midnightblue" stroke="midnightblue" points="413.2,-428.84 423.65,-427.11 414.4,-421.95 413.2,-428.84"/>
</g>
<!-- Node17 -->
<g id="node17" class="node">
<title>Node17</title>
<g id="a_node17"><a xlink:href="../../dc/ddc/classautomaton_1_1core_1_1state_1_1state__persistent.html#aa2f3110b1478d3c5f09ff1f74b31085e" target="_top" xlink:title=" ">
<polygon fill="white" stroke="black" points="256,-344.5 256,-374.5 375,-374.5 375,-344.5 256,-344.5"/>
<text text-anchor="start" x="264" y="-362.5" font-family="Helvetica,sans-Serif" font-size="10.00">automaton::core::state</text>
<text text-anchor="middle" x="315.5" y="-351.5" font-family="Helvetica,sans-Serif" font-size="10.00">::state_persistent::erase</text>
</a>
</g>
</g>
<!-- Node1&#45;&gt;Node17 -->
<g id="edge16" class="edge">
<title>Node1&#45;&gt;Node17</title>
<path fill="none" stroke="midnightblue" d="M441.99,-414.57C426.37,-404.3 406.69,-392.28 388,-383.5 381.13,-380.27 373.7,-377.27 366.32,-374.57"/>
<polygon fill="midnightblue" stroke="midnightblue" points="440.41,-417.73 450.67,-420.38 444.3,-411.91 440.41,-417.73"/>
</g>
<!-- Node18 -->
<g id="node18" class="node">
<title>Node18</title>
<g id="a_node18"><a xlink:href="../../d0/d6e/namespaceautomaton_1_1tools_1_1miner.html#aa5e69bff69f451ddf2bdc6183132118c" target="_top" xlink:title=" ">
<polygon fill="white" stroke="black" points="82.5,-323.5 82.5,-353.5 198.5,-353.5 198.5,-323.5 82.5,-323.5"/>
<text text-anchor="start" x="90.5" y="-341.5" font-family="Helvetica,sans-Serif" font-size="10.00">automaton::tools::miner</text>
<text text-anchor="middle" x="140.5" y="-330.5" font-family="Helvetica,sans-Serif" font-size="10.00">::gen_pub_key</text>
</a>
</g>
</g>
<!-- Node1&#45;&gt;Node18 -->
<g id="edge17" class="edge">
<title>Node1&#45;&gt;Node18</title>
<path fill="none" stroke="midnightblue" d="M459.98,-411.19C446.34,-386.66 421.54,-350.23 388,-334.5 328.03,-306.38 250.49,-313.72 198.54,-323.92"/>
<polygon fill="midnightblue" stroke="midnightblue" points="457.02,-413.08 464.82,-420.25 463.2,-409.78 457.02,-413.08"/>
</g>
<!-- Node19 -->
<g id="node19" class="node">
<title>Node19</title>
<g id="a_node19"><a xlink:href="../../dc/d64/classrpc__server__handler.html#a05709e7789930012ae393ca785ea1393" target="_top" xlink:title=" ">
<polygon fill="white" stroke="black" points="266,-256.5 266,-286.5 365,-286.5 365,-256.5 266,-256.5"/>
<text text-anchor="start" x="274" y="-274.5" font-family="Helvetica,sans-Serif" font-size="10.00">rpc_server_handler</text>
<text text-anchor="middle" x="315.5" y="-263.5" font-family="Helvetica,sans-Serif" font-size="10.00">::handle</text>
</a>
</g>
</g>
<!-- Node1&#45;&gt;Node19 -->
<g id="edge19" class="edge">
<title>Node1&#45;&gt;Node19</title>
<path fill="none" stroke="midnightblue" d="M462.14,-410.89C449.16,-381.3 423.73,-331.84 388,-301.5 380.92,-295.49 372.46,-290.54 363.88,-286.51"/>
<polygon fill="midnightblue" stroke="midnightblue" points="458.92,-412.27 466.06,-420.11 465.36,-409.53 458.92,-412.27"/>
</g>
<!-- Node20 -->
<g id="node20" class="node">
<title>Node20</title>
<g id="a_node20"><a xlink:href="../../d0/d6e/namespaceautomaton_1_1tools_1_1miner.html#a9b5364344553a5ca685f0b09f2708be2" target="_top" xlink:title=" ">
<polygon fill="white" stroke="black" points="82.5,-233.5 82.5,-263.5 198.5,-263.5 198.5,-233.5 82.5,-233.5"/>
<text text-anchor="start" x="90.5" y="-251.5" font-family="Helvetica,sans-Serif" font-size="10.00">automaton::tools::miner</text>
<text text-anchor="middle" x="140.5" y="-240.5" font-family="Helvetica,sans-Serif" font-size="10.00">::mine_key</text>
</a>
</g>
</g>
<!-- Node1&#45;&gt;Node20 -->
<g id="edge21" class="edge">
<title>Node1&#45;&gt;Node20</title>
<path fill="none" stroke="midnightblue" d="M469.36,-410.45C463.4,-368.08 444.64,-283.31 388,-246.5 328.61,-207.9 242.99,-220.05 189.87,-233.46"/>
<polygon fill="midnightblue" stroke="midnightblue" points="465.9,-411.01 470.64,-420.49 472.85,-410.13 465.9,-411.01"/>
</g>
<!-- Node21 -->
<g id="node21" class="node">
<title>Node21</title>
<g id="a_node21"><a xlink:href="../../dd/da5/classautomaton_1_1core_1_1state_1_1state__impl.html#a39c84cbe95866bb6a6506c024e08d8ca" target="_top" xlink:title=" ">
<polygon fill="white" stroke="black" points="253.5,-168.5 253.5,-198.5 377.5,-198.5 377.5,-168.5 253.5,-168.5"/>
<text text-anchor="start" x="261.5" y="-186.5" font-family="Helvetica,sans-Serif" font-size="10.00">automaton::core::state</text>
<text text-anchor="middle" x="315.5" y="-175.5" font-family="Helvetica,sans-Serif" font-size="10.00">::state_impl::print_subtrie</text>
</a>
</g>
</g>
<!-- Node1&#45;&gt;Node21 -->
<g id="edge23" class="edge">
<title>Node1&#45;&gt;Node21</title>
<path fill="none" stroke="midnightblue" d="M469,-410.3C462.37,-365.15 442.46,-269.93 388,-213.5 382.11,-207.4 374.79,-202.48 367.1,-198.54"/>
<polygon fill="midnightblue" stroke="midnightblue" points="465.56,-410.96 470.38,-420.39 472.5,-410.01 465.56,-410.96"/>
</g>
<!-- Node22 -->
<g id="node22" class="node">
<title>Node22</title>
<g id="a_node22"><a xlink:href="../../dc/ddc/classautomaton_1_1core_1_1state_1_1state__persistent.html#ae55d32ad4f187ac16c2f9e8de462d950" target="_top" xlink:title=" ">
<polygon fill="white" stroke="black" points="258.5,-109 258.5,-150 372.5,-150 372.5,-109 258.5,-109"/>
<text text-anchor="start" x="266.5" y="-138" font-family="Helvetica,sans-Serif" font-size="10.00">automaton::core::state</text>
<text text-anchor="start" x="266.5" y="-127" font-family="Helvetica,sans-Serif" font-size="10.00">::state_persistent::print</text>
<text text-anchor="middle" x="315.5" y="-116" font-family="Helvetica,sans-Serif" font-size="10.00">_subtrie</text>
</a>
</g>
</g>
<!-- Node1&#45;&gt;Node22 -->
<g id="edge24" class="edge">
<title>Node1&#45;&gt;Node22</title>
<path fill="none" stroke="midnightblue" d="M471.33,-410.16C468.57,-356.81 454.9,-231.78 388,-158.5 383.66,-153.75 378.44,-149.76 372.82,-146.42"/>
<polygon fill="midnightblue" stroke="midnightblue" points="467.84,-410.57 471.76,-420.42 474.83,-410.28 467.84,-410.57"/>
</g>
<!-- Node23 -->
<g id="node23" class="node">
<title>Node23</title>
<g id="a_node23"><a xlink:href="../../d3/d27/classautomaton_1_1core_1_1node_1_1luanode_1_1lua__node.html#a7c28bcbfcfab99e6f83f6beb0480abc4" target="_top" xlink:title=" ">
<polygon fill="white" stroke="black" points="260,-49 260,-90 371,-90 371,-49 260,-49"/>
<text text-anchor="start" x="268" y="-78" font-family="Helvetica,sans-Serif" font-size="10.00">automaton::core::node</text>
<text text-anchor="start" x="268" y="-67" font-family="Helvetica,sans-Serif" font-size="10.00">::luanode::lua_node::</text>
<text text-anchor="middle" x="315.5" y="-56" font-family="Helvetica,sans-Serif" font-size="10.00">process_cmd</text>
</a>
</g>
</g>
<!-- Node1&#45;&gt;Node23 -->
<g id="edge25" class="edge">
<title>Node1&#45;&gt;Node23</title>
<path fill="none" stroke="midnightblue" d="M472.91,-410.05C473.73,-348.93 467.44,-192.07 388,-99.5 383.35,-94.09 377.57,-89.63 371.31,-85.96"/>
<polygon fill="midnightblue" stroke="midnightblue" points="469.41,-410.24 472.69,-420.32 476.41,-410.39 469.41,-410.24"/>
</g>
<!-- Node24 -->
<g id="node24" class="node">
<title>Node24</title>
<g id="a_node24"><a xlink:href="../../df/dae/structautomaton_1_1core_1_1io_1_1blob.html#a131d546dc32d77225f08a3ba9b1f5ba6" target="_top" xlink:title=" ">
<polygon fill="white" stroke="black" points="266.5,-0.5 266.5,-30.5 364.5,-30.5 364.5,-0.5 266.5,-0.5"/>
<text text-anchor="start" x="274.5" y="-18.5" font-family="Helvetica,sans-Serif" font-size="10.00">automaton::core::io</text>
<text text-anchor="middle" x="315.5" y="-7.5" font-family="Helvetica,sans-Serif" font-size="10.00">::blob::tostring</text>
</a>
</g>
</g>
<!-- Node1&#45;&gt;Node24 -->
<g id="edge27" class="edge">
<title>Node1&#45;&gt;Node24</title>
<path fill="none" stroke="midnightblue" d="M469.86,-409.96C462.77,-331.4 437.7,-95.26 388,-39.5 381.81,-32.56 373.56,-27.62 364.86,-24.11"/>
<polygon fill="midnightblue" stroke="midnightblue" points="466.41,-410.72 470.77,-420.37 473.38,-410.1 466.41,-410.72"/>
</g>
<!-- Node3 -->
<g id="node3" class="node">
<title>Node3</title>
<g id="a_node3"><a xlink:href="../../d0/d66/classautomaton_1_1core_1_1script_1_1engine.html#a530ebf5615f9b5fe50c52ead2afe9677" target="_top" xlink:title=" ">
<polygon fill="white" stroke="black" points="83.5,-813.5 83.5,-843.5 197.5,-843.5 197.5,-813.5 83.5,-813.5"/>
<text text-anchor="start" x="91.5" y="-831.5" font-family="Helvetica,sans-Serif" font-size="10.00">automaton::core::script</text>
<text text-anchor="middle" x="140.5" y="-820.5" font-family="Helvetica,sans-Serif" font-size="10.00">::engine::bind_core</text>
</a>
</g>
</g>
<!-- Node2&#45;&gt;Node3 -->
<g id="edge2" class="edge">
<title>Node2&#45;&gt;Node3</title>
<path fill="none" stroke="midnightblue" d="M248.13,-828.5C231.48,-828.5 213.78,-828.5 197.68,-828.5"/>
<polygon fill="midnightblue" stroke="midnightblue" points="248.33,-832 258.33,-828.5 248.33,-825 248.33,-832"/>
</g>
<!-- Node4 -->
<g id="node4" class="node">
<title>Node4</title>
<g id="a_node4"><a xlink:href="../../dd/de7/core_8cc.html#a0ddf1224851353fc92bfbff6f499fa97" target="_top" xlink:title=" ">
<polygon fill="white" stroke="black" points="0,-819 0,-838 38,-838 38,-819 0,-819"/>
<text text-anchor="middle" x="19" y="-826" font-family="Helvetica,sans-Serif" font-size="10.00">main</text>
</a>
</g>
</g>
<!-- Node3&#45;&gt;Node4 -->
<g id="edge3" class="edge">
<title>Node3&#45;&gt;Node4</title>
<path fill="none" stroke="midnightblue" d="M72.91,-828.5C60.06,-828.5 47.65,-828.5 38.08,-828.5"/>
<polygon fill="midnightblue" stroke="midnightblue" points="73.25,-832 83.25,-828.5 73.25,-825 73.25,-832"/>
</g>
<!-- Node7 -->
<g id="node7" class="node">
<title>Node7</title>
<g id="a_node7"><a xlink:href="../../d4/dd8/miner__main_8cc.html#a0ddf1224851353fc92bfbff6f499fa97" target="_top" xlink:title=" ">
<polygon fill="white" stroke="black" points="121.5,-726 121.5,-745 159.5,-745 159.5,-726 121.5,-726"/>
<text text-anchor="middle" x="140.5" y="-733" font-family="Helvetica,sans-Serif" font-size="10.00">main</text>
</a>
</g>
</g>
<!-- Node6&#45;&gt;Node7 -->
<g id="edge6" class="edge">
<title>Node6&#45;&gt;Node7</title>
<path fill="none" stroke="midnightblue" d="M261.72,-735.5C226.96,-735.5 183.59,-735.5 159.6,-735.5"/>
<polygon fill="midnightblue" stroke="midnightblue" points="261.74,-739 271.74,-735.5 261.74,-732 261.74,-739"/>
</g>
<!-- Node8&#45;&gt;Node9 -->
<g id="edge8" class="edge">
<title>Node8&#45;&gt;Node9</title>
<path fill="none" stroke="midnightblue" d="M236.5,-676.62C226.71,-674.75 216.77,-672.86 207.2,-671.03"/>
<polygon fill="midnightblue" stroke="midnightblue" points="236.14,-680.12 246.62,-678.55 237.46,-673.24 236.14,-680.12"/>
</g>
<!-- Node9&#45;&gt;Node10 -->
<g id="edge9" class="edge">
<title>Node9&#45;&gt;Node10</title>
<path fill="none" stroke="midnightblue" d="M82.85,-631.89C79.65,-629.3 76.67,-626.51 74,-623.5 38.79,-583.79 25.35,-518.54 21.38,-494.12"/>
<polygon fill="midnightblue" stroke="midnightblue" points="80.98,-634.86 91.13,-637.9 85.09,-629.2 80.98,-634.86"/>
</g>
<!-- Node12 -->
<g id="node12" class="node">
<title>Node12</title>
<g id="a_node12"><a xlink:href="../../d2/d91/namespaceautomaton_1_1core_1_1interop_1_1ethereum.html#abbec3fe45e7b6c13c5d534e5dfc4543b" target="_top" xlink:title=" ">
<polygon fill="white" stroke="black" points="81,-550.5 81,-580.5 200,-580.5 200,-550.5 81,-550.5"/>
<text text-anchor="start" x="89" y="-568.5" font-family="Helvetica,sans-Serif" font-size="10.00">automaton::core::interop</text>
<text text-anchor="middle" x="140.5" y="-557.5" font-family="Helvetica,sans-Serif" font-size="10.00">::ethereum::decode</text>
</a>
</g>
</g>
<!-- Node11&#45;&gt;Node12 -->
<g id="edge11" class="edge">
<title>Node11&#45;&gt;Node12</title>
<path fill="none" stroke="midnightblue" d="M240.01,-565.5C226.72,-565.5 213.04,-565.5 200.26,-565.5"/>
<polygon fill="midnightblue" stroke="midnightblue" points="240.08,-569 250.08,-565.5 240.08,-562 240.08,-569"/>
</g>
<!-- Node16 -->
<g id="node16" class="node">
<title>Node16</title>
<g id="a_node16"><a xlink:href="../../dd/da5/classautomaton_1_1core_1_1state_1_1state__impl.html#aadafbfba3fa8a047f52dfd5bfc376a01" target="_top" xlink:title=" ">
<polygon fill="white" stroke="black" points="84.5,-393.5 84.5,-423.5 196.5,-423.5 196.5,-393.5 84.5,-393.5"/>
<text text-anchor="start" x="92.5" y="-411.5" font-family="Helvetica,sans-Serif" font-size="10.00">automaton::core::state</text>
<text text-anchor="middle" x="140.5" y="-400.5" font-family="Helvetica,sans-Serif" font-size="10.00">::state_impl::set</text>
</a>
</g>
</g>
<!-- Node15&#45;&gt;Node16 -->
<g id="edge15" class="edge">
<title>Node15&#45;&gt;Node16</title>
<path fill="none" stroke="midnightblue" d="M249.27,-408.5C231.98,-408.5 213.49,-408.5 196.78,-408.5"/>
<polygon fill="midnightblue" stroke="midnightblue" points="249.29,-412 259.29,-408.5 249.29,-405 249.29,-412"/>
</g>
<!-- Node18&#45;&gt;Node10 -->
<g id="edge18" class="edge">
<title>Node18&#45;&gt;Node10</title>
<path fill="none" stroke="midnightblue" d="M102.99,-359.09C92.8,-365.97 82.27,-374.26 74,-383.5 48.15,-412.4 30.35,-455.87 23.33,-474.95"/>
<polygon fill="midnightblue" stroke="midnightblue" points="104.9,-362.02 111.41,-353.66 101.11,-356.14 104.9,-362.02"/>
</g>
<!-- Node20&#45;&gt;Node10 -->
<g id="edge22" class="edge">
<title>Node20&#45;&gt;Node10</title>
<path fill="none" stroke="midnightblue" d="M111.91,-270.36C98.84,-281.97 83.95,-297.19 74,-313.5 40.13,-369.05 25.57,-447.87 21.37,-474.94"/>
<polygon fill="midnightblue" stroke="midnightblue" points="114.45,-272.8 119.76,-263.63 109.89,-267.49 114.45,-272.8"/>
</g>
</g>
</svg>
        <g id="navigator" transform="translate(0 0)" fill="#404254">
                <rect fill="#f2f5e9" fill-opacity="0.5" stroke="#606060" stroke-width=".5" x="0" y="0" width="60" height="60"/>
                <use id="zoomplus" xlink:href="#zoomPlus" x="17" y="9" onmousedown="handleZoom(evt,'in')"/>
                <use id="zoomminus" xlink:href="#zoomMin" x="42" y="9" onmousedown="handleZoom(evt,'out')"/>
                <use id="reset" xlink:href="#resetDef" x="30" y="36" onmousedown="handleReset()"/>
                <g id="arrowUp" xlink:href="#dirArrow" transform="translate(30 24)" onmousedown="handlePan(0,-1)">
                  <use xlink:href="#rim" fill="#404040">
                        <set attributeName="fill" to="#808080" begin="arrowUp.mouseover" end="arrowUp.mouseout"/>
                  </use>
                  <path fill="none" stroke="white" stroke-width="1.5" d="M0,-3.0v7 M-2.5,-0.5L0,-3.0L2.5,-0.5"/>
                </g>
                <g id="arrowRight" xlink:href="#dirArrow" transform="rotate(90) translate(36 -43)" onmousedown="handlePan(1,0)">
                  <use xlink:href="#rim" fill="#404040">
                        <set attributeName="fill" to="#808080" begin="arrowRight.mouseover" end="arrowRight.mouseout"/>
                  </use>
                  <path fill="none" stroke="white" stroke-width="1.5" d="M0,-3.0v7 M-2.5,-0.5L0,-3.0L2.5,-0.5"/>
                </g>
                <g id="arrowDown" xlink:href="#dirArrow" transform="rotate(180) translate(-30 -48)" onmousedown="handlePan(0,1)">
                  <use xlink:href="#rim" fill="#404040">
                        <set attributeName="fill" to="#808080" begin="arrowDown.mouseover" end="arrowDown.mouseout"/>
                  </use>
                  <path fill="none" stroke="white" stroke-width="1.5" d="M0,-3.0v7 M-2.5,-0.5L0,-3.0L2.5,-0.5"/>
                </g>
                <g id="arrowLeft" xlink:href="#dirArrow" transform="rotate(270) translate(-36 17)" onmousedown="handlePan(-1,0)">
                  <use xlink:href="#rim" fill="#404040">
                        <set attributeName="fill" to="#808080" begin="arrowLeft.mouseover" end="arrowLeft.mouseout"/>
                  </use>
                  <path fill="none" stroke="white" stroke-width="1.5" d="M0,-3.0v7 M-2.5,-0.5L0,-3.0L2.5,-0.5"/>
                </g>
        </g>
        <svg viewBox="0 0 15 15" width="100%" height="30px" preserveAspectRatio="xMaxYMin meet">
         <g id="arrow_out" transform="scale(0.3 0.3)">
          <a xlink:href="namespaceautomaton_1_1core_1_1io_ab19202c80dffefe2cd1a87a60d06a0b3_icgraph_org.svg" target="_base">
           <rect id="button" ry="5" rx="5" y="6" x="6" height="38" width="38"
                fill="#f2f5e9" fill-opacity="0.5" stroke="#606060" stroke-width="1.0"/>
           <path id="arrow"
             d="M 11.500037,31.436501 C 11.940474,20.09759 22.043105,11.32322 32.158766,21.979434 L 37.068811,17.246167 C 37.068811,17.246167 37.088388,32 37.088388,32 L 22.160133,31.978069 C 22.160133,31.978069 26.997745,27.140456 26.997745,27.140456 C 18.528582,18.264221 13.291696,25.230495 11.500037,31.436501 z"
             style="fill:#404040;"/>
          </a>
         </g>
        </svg>
</svg>
