<?xml version="1.0" encoding="UTF-8" standalone="no"?>
<!DOCTYPE svg PUBLIC "-//W3C//DTD SVG 1.1//EN"
 "http://www.w3.org/Graphics/SVG/1.1/DTD/svg11.dtd">
<!-- Generated by graphviz version 2.44.0 ()
 -->
<!-- Title: automaton::core::io::hex2bin Pages: 1 -->
<svg width="606pt" height="225pt"
 viewBox="0.00 0.00 606.00 224.50" xmlns="http://www.w3.org/2000/svg" xmlns:xlink="http://www.w3.org/1999/xlink">
<g id="graph0" class="graph" transform="scale(1 1) rotate(0) translate(4 220.5)">
<title>automaton::core::io::hex2bin</title>
<polygon fill="white" stroke="transparent" points="-4,4 -4,-220.5 602,-220.5 602,4 -4,4"/>
<!-- Node1 -->
<g id="node1" class="node">
<title>Node1</title>
<g id="a_node1"><a xlink:title=" ">
<polygon fill="#bfbfbf" stroke="black" points="500,-93 500,-123 598,-123 598,-93 500,-93"/>
<text text-anchor="start" x="508" y="-111" font-family="Helvetica,sans-Serif" font-size="10.00">automaton::core::io</text>
<text text-anchor="middle" x="549" y="-100" font-family="Helvetica,sans-Serif" font-size="10.00">::hex2bin</text>
</a>
</g>
</g>
<!-- Node2 -->
<g id="node2" class="node">
<title>Node2</title>
<g id="a_node2"><a xlink:href="../../d0/d66/classautomaton_1_1core_1_1script_1_1engine.html#a0d3f6e578e8f9ff451d62cd5faf0acfc" target="_top" xlink:title=" ">
<polygon fill="white" stroke="black" points="340.5,-186 340.5,-216 454.5,-216 454.5,-186 340.5,-186"/>
<text text-anchor="start" x="348.5" y="-204" font-family="Helvetica,sans-Serif" font-size="10.00">automaton::core::script</text>
<text text-anchor="middle" x="397.5" y="-193" font-family="Helvetica,sans-Serif" font-size="10.00">::engine::bind_io</text>
</a>
</g>
</g>
<!-- Node1&#45;&gt;Node2 -->
<g id="edge1" class="edge">
<title>Node1&#45;&gt;Node2</title>
<path fill="none" stroke="midnightblue" d="M525.45,-130.11C509.37,-144.93 486.67,-164.04 464,-177 458.22,-180.31 451.9,-183.3 445.54,-185.96"/>
<polygon fill="midnightblue" stroke="midnightblue" points="527.89,-132.62 532.78,-123.22 523.09,-127.52 527.89,-132.62"/>
</g>
<!-- Node5 -->
<g id="node5" class="node">
<title>Node5</title>
<g id="a_node5"><a xlink:href="../../d2/d91/namespaceautomaton_1_1core_1_1interop_1_1ethereum.html#a1785a882c65e47ef40d0587235f82275" target="_top" xlink:title=" ">
<polygon fill="white" stroke="black" points="332.5,-137 332.5,-167 462.5,-167 462.5,-137 332.5,-137"/>
<text text-anchor="start" x="340.5" y="-155" font-family="Helvetica,sans-Serif" font-size="10.00">automaton::core::interop</text>
<text text-anchor="middle" x="397.5" y="-144" font-family="Helvetica,sans-Serif" font-size="10.00">::ethereum::encode_param</text>
</a>
</g>
</g>
<!-- Node1&#45;&gt;Node5 -->
<g id="edge4" class="edge">
<title>Node1&#45;&gt;Node5</title>
<path fill="none" stroke="midnightblue" d="M489.89,-125.1C476.61,-129.01 462.59,-133.14 449.63,-136.95"/>
<polygon fill="midnightblue" stroke="midnightblue" points="491.27,-128.35 499.87,-122.16 489.29,-121.63 491.27,-128.35"/>
</g>
<!-- Node8 -->
<g id="node8" class="node">
<title>Node8</title>
<g id="a_node8"><a xlink:href="../../d2/d91/namespaceautomaton_1_1core_1_1interop_1_1ethereum.html#a2fe1212849a89d9403353fefbceac174" target="_top" xlink:title=" ">
<polygon fill="white" stroke="black" points="176,-77.5 176,-118.5 295,-118.5 295,-77.5 176,-77.5"/>
<text text-anchor="start" x="184" y="-106.5" font-family="Helvetica,sans-Serif" font-size="10.00">automaton::core::interop</text>
<text text-anchor="start" x="184" y="-95.5" font-family="Helvetica,sans-Serif" font-size="10.00">::ethereum::get_address</text>
<text text-anchor="middle" x="235.5" y="-84.5" font-family="Helvetica,sans-Serif" font-size="10.00">_from_prkey</text>
</a>
</g>
</g>
<!-- Node1&#45;&gt;Node8 -->
<g id="edge7" class="edge">
<title>Node1&#45;&gt;Node8</title>
<path fill="none" stroke="midnightblue" d="M489.62,-106.13C434,-104.34 350.72,-101.67 295.04,-99.88"/>
<polygon fill="midnightblue" stroke="midnightblue" points="489.56,-109.63 499.67,-106.45 489.79,-102.63 489.56,-109.63"/>
</g>
<!-- Node9 -->
<g id="node9" class="node">
<title>Node9</title>
<g id="a_node9"><a xlink:href="../../d4/d57/eth__contract__curl__test_8cc.html#ae66f6b31b5ad750f1fe042a706a4e3d4" target="_top" xlink:title=" ">
<polygon fill="white" stroke="black" points="216.5,-25.5 216.5,-44.5 254.5,-44.5 254.5,-25.5 216.5,-25.5"/>
<text text-anchor="middle" x="235.5" y="-32.5" font-family="Helvetica,sans-Serif" font-size="10.00">main</text>
</a>
</g>
</g>
<!-- Node1&#45;&gt;Node9 -->
<g id="edge9" class="edge">
<title>Node1&#45;&gt;Node9</title>
<path fill="none" stroke="midnightblue" d="M489.85,-94.37C417.97,-77.53 299.64,-49.8 254.64,-39.25"/>
<polygon fill="midnightblue" stroke="midnightblue" points="489.14,-97.8 499.67,-96.67 490.73,-90.98 489.14,-97.8"/>
</g>
<!-- Node10 -->
<g id="node10" class="node">
<title>Node10</title>
<g id="a_node10"><a xlink:href="../../dd/da0/classautomaton_1_1core_1_1interop_1_1ethereum_1_1eth__transaction.html#abe1d02f403b67b699353c9a180c0cb2e" target="_top" xlink:title=" ">
<polygon fill="white" stroke="black" points="331,-0.5 331,-41.5 464,-41.5 464,-0.5 331,-0.5"/>
<text text-anchor="start" x="339" y="-29.5" font-family="Helvetica,sans-Serif" font-size="10.00">automaton::core::interop</text>
<text text-anchor="start" x="339" y="-18.5" font-family="Helvetica,sans-Serif" font-size="10.00">::ethereum::eth_transaction</text>
<text text-anchor="middle" x="397.5" y="-7.5" font-family="Helvetica,sans-Serif" font-size="10.00">::sign_tx</text>
</a>
</g>
</g>
<!-- Node1&#45;&gt;Node10 -->
<g id="edge10" class="edge">
<title>Node1&#45;&gt;Node10</title>
<path fill="none" stroke="midnightblue" d="M515.66,-87.31C500.17,-77.58 481.27,-65.95 464,-56 455.62,-51.17 446.53,-46.17 437.86,-41.51"/>
<polygon fill="midnightblue" stroke="midnightblue" points="514.02,-90.42 524.35,-92.8 517.76,-84.5 514.02,-90.42"/>
</g>
<!-- Node3 -->
<g id="node3" class="node">
<title>Node3</title>
<g id="a_node3"><a xlink:href="../../d0/d66/classautomaton_1_1core_1_1script_1_1engine.html#a530ebf5615f9b5fe50c52ead2afe9677" target="_top" xlink:title=" ">
<polygon fill="white" stroke="black" points="178.5,-186 178.5,-216 292.5,-216 292.5,-186 178.5,-186"/>
<text text-anchor="start" x="186.5" y="-204" font-family="Helvetica,sans-Serif" font-size="10.00">automaton::core::script</text>
<text text-anchor="middle" x="235.5" y="-193" font-family="Helvetica,sans-Serif" font-size="10.00">::engine::bind_core</text>
</a>
</g>
</g>
<!-- Node2&#45;&gt;Node3 -->
<g id="edge2" class="edge">
<title>Node2&#45;&gt;Node3</title>
<path fill="none" stroke="midnightblue" d="M329.84,-201C317.48,-201 304.68,-201 292.67,-201"/>
<polygon fill="midnightblue" stroke="midnightblue" points="330.09,-204.5 340.09,-201 330.09,-197.5 330.09,-204.5"/>
</g>
<!-- Node4 -->
<g id="node4" class="node">
<title>Node4</title>
<g id="a_node4"><a xlink:href="../../dd/de7/core_8cc.html#a0ddf1224851353fc92bfbff6f499fa97" target="_top" xlink:title=" ">
<polygon fill="white" stroke="black" points="51,-191.5 51,-210.5 89,-210.5 89,-191.5 51,-191.5"/>
<text text-anchor="middle" x="70" y="-198.5" font-family="Helvetica,sans-Serif" font-size="10.00">main</text>
</a>
</g>
</g>
<!-- Node3&#45;&gt;Node4 -->
<g id="edge3" class="edge">
<title>Node3&#45;&gt;Node4</title>
<path fill="none" stroke="midnightblue" d="M167.88,-201C139.4,-201 108.37,-201 89.3,-201"/>
<polygon fill="midnightblue" stroke="midnightblue" points="168.23,-204.5 178.23,-201 168.23,-197.5 168.23,-204.5"/>
</g>
<!-- Node6 -->
<g id="node6" class="node">
<title>Node6</title>
<g id="a_node6"><a xlink:href="../../d2/d91/namespaceautomaton_1_1core_1_1interop_1_1ethereum.html#a47ab7911ff4d29153e849da3691c26b6" target="_top" xlink:title=" ">
<polygon fill="white" stroke="black" points="176,-137 176,-167 295,-167 295,-137 176,-137"/>
<text text-anchor="start" x="184" y="-155" font-family="Helvetica,sans-Serif" font-size="10.00">automaton::core::interop</text>
<text text-anchor="middle" x="235.5" y="-144" font-family="Helvetica,sans-Serif" font-size="10.00">::ethereum::encode</text>
</a>
</g>
</g>
<!-- Node5&#45;&gt;Node6 -->
<g id="edge5" class="edge">
<title>Node5&#45;&gt;Node6</title>
<path fill="none" stroke="midnightblue" d="M322.2,-152C313.15,-152 304.01,-152 295.23,-152"/>
<polygon fill="midnightblue" stroke="midnightblue" points="322.34,-155.5 332.34,-152 322.34,-148.5 322.34,-155.5"/>
</g>
<!-- Node7 -->
<g id="node7" class="node">
<title>Node7</title>
<g id="a_node7"><a xlink:href="../../d4/de7/classautomaton_1_1core_1_1interop_1_1ethereum_1_1eth__contract.html#a06c060597ef2f9c3255fa00e8b716460" target="_top" xlink:title=" ">
<polygon fill="white" stroke="black" points="0,-110 0,-140 140,-140 140,-110 0,-110"/>
<text text-anchor="start" x="8" y="-128" font-family="Helvetica,sans-Serif" font-size="10.00">automaton::core::interop</text>
<text text-anchor="middle" x="70" y="-117" font-family="Helvetica,sans-Serif" font-size="10.00">::ethereum::eth_contract::call</text>
</a>
</g>
</g>
<!-- Node6&#45;&gt;Node7 -->
<g id="edge6" class="edge">
<title>Node6&#45;&gt;Node7</title>
<path fill="none" stroke="midnightblue" d="M165.98,-140.68C157.4,-139.27 148.62,-137.82 140.03,-136.4"/>
<polygon fill="midnightblue" stroke="midnightblue" points="165.5,-144.15 175.93,-142.33 166.64,-137.25 165.5,-144.15"/>
</g>
<!-- Node8&#45;&gt;Node7 -->
<g id="edge8" class="edge">
<title>Node8&#45;&gt;Node7</title>
<path fill="none" stroke="midnightblue" d="M165.98,-109.32C157.4,-110.73 148.62,-112.18 140.03,-113.6"/>
<polygon fill="midnightblue" stroke="midnightblue" points="166.64,-112.75 175.93,-107.67 165.5,-105.85 166.64,-112.75"/>
</g>
<!-- Node10&#45;&gt;Node9 -->
<g id="edge11" class="edge">
<title>Node10&#45;&gt;Node9</title>
<path fill="none" stroke="midnightblue" d="M320.85,-27.62C296.25,-29.77 271.1,-31.97 254.74,-33.4"/>
<polygon fill="midnightblue" stroke="midnightblue" points="321.3,-31.09 330.96,-26.73 320.69,-24.12 321.3,-31.09"/>
</g>
</g>
</svg>
