<?xml version="1.0" encoding="UTF-8" standalone="no"?>
<!DOCTYPE svg PUBLIC "-//W3C//DTD SVG 1.1//EN"
 "http://www.w3.org/Graphics/SVG/1.1/DTD/svg11.dtd">
<!-- Generated by graphviz version 2.42.3 ()
 -->
<!-- Title: lua_node.h Pages: 1 -->
<!--zoomable 419 -->
<svg id="main" version="1.1" xmlns="http://www.w3.org/2000/svg" xmlns:xlink="http://www.w3.org/1999/xlink" xml:space="preserve" onload="init(evt)">
<style type="text/css"><![CDATA[
.edge:hover path { stroke: red; }
.edge:hover polygon { stroke: red; fill: red; }
]]></style>
<script type="text/javascript"><![CDATA[
var edges = document.getElementsByTagName('g');
if (edges && edges.length) {
  for (var i=0;i<edges.length;i++) {
    if (edges[i].id.substr(0,4)=='edge') {
      edges[i].setAttribute('class','edge');
    }
  }
}
]]></script>
        <defs>
                <circle id="rim" cx="0" cy="0" r="7"/>
                <circle id="rim2" cx="0" cy="0" r="3.5"/>
                <g id="zoomPlus">
                        <use xlink:href="#rim" fill="#404040">
                                <set attributeName="fill" to="#808080" begin="zoomplus.mouseover" end="zoomplus.mouseout"/>
                        </use>
                        <path d="M-4,0h8M0,-4v8" fill="none" stroke="white" stroke-width="1.5" pointer-events="none"/>
                </g>
                <g id="zoomMin">
                        <use xlink:href="#rim" fill="#404040">
                                <set attributeName="fill" to="#808080" begin="zoomminus.mouseover" end="zoomminus.mouseout"/>
                        </use>
                        <path d="M-4,0h8" fill="none" stroke="white" stroke-width="1.5" pointer-events="none"/>
                </g>
                <g id="dirArrow">
                        <path fill="none" stroke="white" stroke-width="1.5" d="M0,-3.0v7 M-2.5,-0.5L0,-3.0L2.5,-0.5"/>
                </g>
               <g id="resetDef">
                       <use xlink:href="#rim2" fill="#404040">
                               <set attributeName="fill" to="#808080" begin="reset.mouseover" end="reset.mouseout"/>
                       </use>
               </g>
        </defs>

<script type="text/javascript">
var viewWidth = 1462;
var viewHeight = 419;
var sectionId = 'dynsection-0';
</script>
<script xlink:href="../../svgpan.js"/>
<svg id="graph" class="graph">
<g id="viewport">
<title>lua_node.h</title>
<polygon fill="white" stroke="transparent" points="-4,4 -4,-415 1457.93,-415 1457.93,4 -4,4"/>
<!-- Node1 -->
<g id="node1" class="node">
<title>Node1</title>
<g id="a_node1"><a xlink:title=" ">
<polygon fill="#bfbfbf" stroke="black" points="700.5,-391.5 700.5,-410.5 763.5,-410.5 763.5,-391.5 700.5,-391.5"/>
<text text-anchor="middle" x="732" y="-398.5" font-family="Helvetica,sans-Serif" font-size="10.00">lua_node.h</text>
</a>
</g>
</g>
<!-- Node2 -->
<g id="node2" class="node">
<title>Node2</title>
<g id="a_node2"><a xlink:title=" ">
<polygon fill="white" stroke="#bfbfbf" points="798.5,-263 798.5,-282 839.5,-282 839.5,-263 798.5,-263"/>
<text text-anchor="middle" x="819" y="-270" font-family="Helvetica,sans-Serif" font-size="10.00">future</text>
</a>
</g>
</g>
<!-- Node1&#45;&gt;Node2 -->
<g id="edge1" class="edge">
<title>Node1&#45;&gt;Node2</title>
<path fill="none" stroke="midnightblue" d="M745.02,-391.33C756.53,-383.11 773.15,-369.84 784,-355 798.24,-335.53 808.16,-309.36 813.72,-291.99"/>
<polygon fill="midnightblue" stroke="midnightblue" points="817.19,-292.59 816.73,-282 810.49,-290.56 817.19,-292.59"/>
</g>
<!-- Node3 -->
<g id="node3" class="node">
<title>Node3</title>
<g id="a_node3"><a xlink:title=" ">
<polygon fill="white" stroke="#bfbfbf" points="673.5,-62 673.5,-81 724.5,-81 724.5,-62 673.5,-62"/>
<text text-anchor="middle" x="699" y="-69" font-family="Helvetica,sans-Serif" font-size="10.00">memory</text>
</a>
</g>
</g>
<!-- Node1&#45;&gt;Node3 -->
<g id="edge2" class="edge">
<title>Node1&#45;&gt;Node3</title>
<path fill="none" stroke="midnightblue" d="M734.23,-391.45C736.46,-382.45 739.73,-367.84 741,-355 742.36,-341.29 742.14,-337.73 741,-324 733.71,-236.09 712.32,-132.66 703.2,-91.13"/>
<polygon fill="midnightblue" stroke="midnightblue" points="706.56,-90.12 700.97,-81.12 699.73,-91.64 706.56,-90.12"/>
</g>
<!-- Node4 -->
<g id="node4" class="node">
<title>Node4</title>
<g id="a_node4"><a xlink:title=" ">
<polygon fill="white" stroke="#bfbfbf" points="1312.5,-263 1312.5,-282 1355.5,-282 1355.5,-263 1312.5,-263"/>
<text text-anchor="middle" x="1334" y="-270" font-family="Helvetica,sans-Serif" font-size="10.00">mutex</text>
</a>
</g>
</g>
<!-- Node1&#45;&gt;Node4 -->
<g id="edge3" class="edge">
<title>Node1&#45;&gt;Node4</title>
<path fill="none" stroke="midnightblue" d="M763.95,-397.99C826.94,-393.59 971.36,-381.32 1090,-355 1169.01,-337.47 1258.42,-303.92 1303.92,-285.82"/>
<polygon fill="midnightblue" stroke="midnightblue" points="1305.22,-289.06 1313.2,-282.09 1302.62,-282.57 1305.22,-289.06"/>
</g>
<!-- Node5 -->
<g id="node5" class="node">
<title>Node5</title>
<g id="a_node5"><a xlink:title=" ">
<polygon fill="white" stroke="#bfbfbf" points="578.5,-0.5 578.5,-19.5 619.5,-19.5 619.5,-0.5 578.5,-0.5"/>
<text text-anchor="middle" x="599" y="-7.5" font-family="Helvetica,sans-Serif" font-size="10.00">string</text>
</a>
</g>
</g>
<!-- Node1&#45;&gt;Node5 -->
<g id="edge4" class="edge">
<title>Node1&#45;&gt;Node5</title>
<path fill="none" stroke="midnightblue" d="M700.38,-397.64C564.61,-387.09 38,-341.78 38,-273.5 38,-273.5 38,-273.5 38,-204.5 38,-84.68 150.79,-98.01 263,-56 369.85,-15.99 507.55,-10.77 568.11,-10.6"/>
<polygon fill="midnightblue" stroke="midnightblue" points="568.15,-14.1 578.16,-10.61 568.16,-7.1 568.15,-14.1"/>
</g>
<!-- Node6 -->
<g id="node6" class="node">
<title>Node6</title>
<g id="a_node6"><a xlink:title=" ">
<polygon fill="white" stroke="#bfbfbf" points="1276.5,-196 1276.5,-215 1359.5,-215 1359.5,-196 1276.5,-196"/>
<text text-anchor="middle" x="1318" y="-203" font-family="Helvetica,sans-Serif" font-size="10.00">unordered_map</text>
</a>
</g>
</g>
<!-- Node1&#45;&gt;Node6 -->
<g id="edge5" class="edge">
<title>Node1&#45;&gt;Node6</title>
<path fill="none" stroke="midnightblue" d="M763.75,-399.85C881.93,-398.52 1293.27,-386.76 1365,-288 1380.87,-266.14 1356.63,-238.52 1337.47,-221.69"/>
<polygon fill="midnightblue" stroke="midnightblue" points="1339.62,-218.93 1329.7,-215.19 1335.12,-224.29 1339.62,-218.93"/>
</g>
<!-- Node7 -->
<g id="node7" class="node">
<title>Node7</title>
<g id="a_node7"><a xlink:title=" ">
<polygon fill="white" stroke="#bfbfbf" points="111,-0.5 111,-19.5 155,-19.5 155,-0.5 111,-0.5"/>
<text text-anchor="middle" x="133" y="-7.5" font-family="Helvetica,sans-Serif" font-size="10.00">vector</text>
</a>
</g>
</g>
<!-- Node1&#45;&gt;Node7 -->
<g id="edge6" class="edge">
<title>Node1&#45;&gt;Node7</title>
<path fill="none" stroke="midnightblue" d="M700.29,-399.54C592.62,-397.69 241.81,-389.12 135,-355 68.24,-333.67 0,-343.59 0,-273.5 0,-273.5 0,-273.5 0,-137.5 0,-81.39 62.92,-42.62 102.21,-23.88"/>
<polygon fill="midnightblue" stroke="midnightblue" points="104.01,-26.91 111.63,-19.55 101.08,-20.55 104.01,-26.91"/>
</g>
<!-- Node8 -->
<g id="node8" class="node">
<title>Node8</title>
<g id="a_node8"><a xlink:href="../../d1/d71/msg_8h.html" target="_top" xlink:title=" ">
<polygon fill="white" stroke="black" points="504,-123.5 504,-153.5 610,-153.5 610,-123.5 504,-123.5"/>
<text text-anchor="start" x="512" y="-141.5" font-family="Helvetica,sans-Serif" font-size="10.00">automaton/core/data</text>
<text text-anchor="middle" x="557" y="-130.5" font-family="Helvetica,sans-Serif" font-size="10.00">/msg.h</text>
</a>
</g>
</g>
<!-- Node1&#45;&gt;Node8 -->
<g id="edge7" class="edge">
<title>Node1&#45;&gt;Node8</title>
<path fill="none" stroke="midnightblue" d="M731.77,-391.5C730.85,-368.63 726.32,-304.37 704,-257 687.58,-222.15 678.65,-214.6 649,-190 633.86,-177.43 615.12,-166.48 598.51,-158.02"/>
<polygon fill="midnightblue" stroke="midnightblue" points="600.06,-154.88 589.54,-153.58 596.95,-161.15 600.06,-154.88"/>
</g>
<!-- Node9 -->
<g id="node9" class="node">
<title>Node9</title>
<g id="a_node9"><a xlink:href="../../d7/de3/schema_8h.html" target="_top" xlink:title=" ">
<polygon fill="white" stroke="black" points="294,-56.5 294,-86.5 400,-86.5 400,-56.5 294,-56.5"/>
<text text-anchor="start" x="302" y="-74.5" font-family="Helvetica,sans-Serif" font-size="10.00">automaton/core/data</text>
<text text-anchor="middle" x="347" y="-63.5" font-family="Helvetica,sans-Serif" font-size="10.00">/schema.h</text>
</a>
</g>
</g>
<!-- Node1&#45;&gt;Node9 -->
<g id="edge14" class="edge">
<title>Node1&#45;&gt;Node9</title>
<path fill="none" stroke="midnightblue" d="M700.29,-398.47C630.45,-393.56 461.17,-373.07 355,-288 296.03,-240.75 292.44,-195.42 314,-123 316.97,-113.02 322.62,-103.17 328.41,-94.86"/>
<polygon fill="midnightblue" stroke="midnightblue" points="331.23,-96.93 334.39,-86.81 325.61,-92.75 331.23,-96.93"/>
</g>
<!-- Node11 -->
<g id="node11" class="node">
<title>Node11</title>
<g id="a_node11"><a xlink:href="../../d1/d55/engine_8h.html" target="_top" xlink:title=" ">
<polygon fill="white" stroke="black" points="584.5,-257.5 584.5,-287.5 695.5,-287.5 695.5,-257.5 584.5,-257.5"/>
<text text-anchor="start" x="592.5" y="-275.5" font-family="Helvetica,sans-Serif" font-size="10.00">automaton/core/script</text>
<text text-anchor="middle" x="640" y="-264.5" font-family="Helvetica,sans-Serif" font-size="10.00">/engine.h</text>
</a>
</g>
</g>
<!-- Node1&#45;&gt;Node11 -->
<g id="edge15" class="edge">
<title>Node1&#45;&gt;Node11</title>
<path fill="none" stroke="midnightblue" d="M725.68,-391.31C711.55,-371.88 677.05,-324.44 656.39,-296.04"/>
<polygon fill="midnightblue" stroke="midnightblue" points="659.18,-293.92 650.46,-287.89 653.52,-298.03 659.18,-293.92"/>
</g>
<!-- Node21 -->
<g id="node21" class="node">
<title>Node21</title>
<g id="a_node21"><a xlink:href="../../d5/dab/smart__protocol_8h.html" target="_top" xlink:title=" ">
<polygon fill="white" stroke="black" points="364,-257.5 364,-287.5 498,-287.5 498,-257.5 364,-257.5"/>
<text text-anchor="start" x="372" y="-275.5" font-family="Helvetica,sans-Serif" font-size="10.00">automaton/core/smartproto</text>
<text text-anchor="middle" x="431" y="-264.5" font-family="Helvetica,sans-Serif" font-size="10.00">/smart_protocol.h</text>
</a>
</g>
</g>
<!-- Node1&#45;&gt;Node21 -->
<g id="edge40" class="edge">
<title>Node1&#45;&gt;Node21</title>
<path fill="none" stroke="midnightblue" d="M711.31,-391.31C662.57,-370.82 539.71,-319.19 474.01,-291.58"/>
<polygon fill="midnightblue" stroke="midnightblue" points="475.32,-288.33 464.75,-287.68 472.61,-294.78 475.32,-288.33"/>
</g>
<!-- Node22 -->
<g id="node22" class="node">
<title>Node22</title>
<g id="a_node22"><a xlink:href="../../d1/d77/node_8h.html" target="_top" xlink:title=" ">
<polygon fill="white" stroke="black" points="973,-324.5 973,-354.5 1081,-354.5 1081,-324.5 973,-324.5"/>
<text text-anchor="start" x="981" y="-342.5" font-family="Helvetica,sans-Serif" font-size="10.00">automaton/core/node</text>
<text text-anchor="middle" x="1027" y="-331.5" font-family="Helvetica,sans-Serif" font-size="10.00">/node.h</text>
</a>
</g>
</g>
<!-- Node1&#45;&gt;Node22 -->
<g id="edge47" class="edge">
<title>Node1&#45;&gt;Node22</title>
<path fill="none" stroke="midnightblue" d="M763.57,-393.63C810.95,-384.08 901.44,-365.83 963,-353.41"/>
<polygon fill="midnightblue" stroke="midnightblue" points="963.88,-356.8 972.99,-351.39 962.5,-349.94 963.88,-356.8"/>
</g>
<!-- Node8&#45;&gt;Node3 -->
<g id="edge8" class="edge">
<title>Node8&#45;&gt;Node3</title>
<path fill="none" stroke="midnightblue" d="M587.81,-123.4C612.62,-112.04 647.18,-96.22 671.16,-85.24"/>
<polygon fill="midnightblue" stroke="midnightblue" points="672.78,-88.35 680.42,-81.01 669.87,-81.99 672.78,-88.35"/>
</g>
<!-- Node8&#45;&gt;Node5 -->
<g id="edge9" class="edge">
<title>Node8&#45;&gt;Node5</title>
<path fill="none" stroke="midnightblue" d="M546.53,-123.3C535.54,-106.5 521.35,-78.04 533,-56 540.74,-41.36 555.62,-30.58 569.3,-23.25"/>
<polygon fill="midnightblue" stroke="midnightblue" points="571.06,-26.29 578.47,-18.72 567.96,-20.01 571.06,-26.29"/>
</g>
<!-- Node8&#45;&gt;Node9 -->
<g id="edge10" class="edge">
<title>Node8&#45;&gt;Node9</title>
<path fill="none" stroke="midnightblue" d="M511.69,-123.48C479.65,-113.56 436.5,-100.2 402.4,-89.65"/>
<polygon fill="midnightblue" stroke="midnightblue" points="403.18,-86.22 392.59,-86.61 401.11,-92.91 403.18,-86.22"/>
</g>
<!-- Node9&#45;&gt;Node5 -->
<g id="edge12" class="edge">
<title>Node9&#45;&gt;Node5</title>
<path fill="none" stroke="midnightblue" d="M400.13,-57.95C451.25,-45.88 526.75,-28.06 568.48,-18.21"/>
<polygon fill="midnightblue" stroke="midnightblue" points="569.4,-21.59 578.32,-15.88 567.79,-14.77 569.4,-21.59"/>
</g>
<!-- Node9&#45;&gt;Node7 -->
<g id="edge13" class="edge">
<title>Node9&#45;&gt;Node7</title>
<path fill="none" stroke="midnightblue" d="M296.56,-56.47C255.91,-45.17 199.97,-29.62 165.18,-19.95"/>
<polygon fill="midnightblue" stroke="midnightblue" points="165.67,-16.45 155.1,-17.14 163.79,-23.19 165.67,-16.45"/>
</g>
<!-- Node10 -->
<g id="node10" class="node">
<title>Node10</title>
<g id="a_node10"><a xlink:title=" ">
<polygon fill="white" stroke="#bfbfbf" points="1024.5,-0.5 1024.5,-19.5 1059.5,-19.5 1059.5,-0.5 1024.5,-0.5"/>
<text text-anchor="middle" x="1042" y="-7.5" font-family="Helvetica,sans-Serif" font-size="10.00">map</text>
</a>
</g>
</g>
<!-- Node9&#45;&gt;Node10 -->
<g id="edge11" class="edge">
<title>Node9&#45;&gt;Node10</title>
<path fill="none" stroke="midnightblue" d="M400.3,-66.17C504.94,-57.65 744.6,-37.93 946,-20 968.97,-17.96 995.01,-15.51 1014.17,-13.68"/>
<polygon fill="midnightblue" stroke="midnightblue" points="1014.69,-17.14 1024.31,-12.71 1014.02,-10.18 1014.69,-17.14"/>
</g>
<!-- Node11&#45;&gt;Node3 -->
<g id="edge17" class="edge">
<title>Node11&#45;&gt;Node3</title>
<path fill="none" stroke="midnightblue" d="M647.74,-257.15C659.05,-235.48 679.83,-192.82 690,-154 695.51,-132.97 697.65,-108.02 698.48,-91.31"/>
<polygon fill="midnightblue" stroke="midnightblue" points="701.98,-91.34 698.87,-81.22 694.98,-91.07 701.98,-91.34"/>
</g>
<!-- Node11&#45;&gt;Node5 -->
<g id="edge18" class="edge">
<title>Node11&#45;&gt;Node5</title>
<path fill="none" stroke="midnightblue" d="M590.14,-257.41C568.97,-249.45 545.25,-237.68 528,-221 504.13,-197.93 502.53,-186.33 495,-154 484.67,-109.64 494.87,-90.16 525,-56 537.07,-42.31 554.34,-31.48 569.16,-23.88"/>
<polygon fill="midnightblue" stroke="midnightblue" points="571,-26.88 578.46,-19.36 567.94,-20.58 571,-26.88"/>
</g>
<!-- Node11&#45;&gt;Node7 -->
<g id="edge19" class="edge">
<title>Node11&#45;&gt;Node7</title>
<path fill="none" stroke="midnightblue" d="M584.17,-264.32C500.64,-253.29 350.46,-232.29 328,-221 237.87,-175.71 168.19,-70.44 143.1,-28.6"/>
<polygon fill="midnightblue" stroke="midnightblue" points="146.03,-26.67 137.94,-19.83 139.99,-30.22 146.03,-26.67"/>
</g>
<!-- Node12 -->
<g id="node12" class="node">
<title>Node12</title>
<g id="a_node12"><a xlink:title=" ">
<polygon fill="white" stroke="#bfbfbf" points="537,-196 537,-215 575,-215 575,-196 537,-196"/>
<text text-anchor="middle" x="556" y="-203" font-family="Helvetica,sans-Serif" font-size="10.00">array</text>
</a>
</g>
</g>
<!-- Node11&#45;&gt;Node12 -->
<g id="edge16" class="edge">
<title>Node11&#45;&gt;Node12</title>
<path fill="none" stroke="midnightblue" d="M621.77,-257.4C608.03,-246.76 589.22,-232.2 575.23,-221.38"/>
<polygon fill="midnightblue" stroke="midnightblue" points="577.29,-218.55 567.24,-215.19 573,-224.08 577.29,-218.55"/>
</g>
<!-- Node13 -->
<g id="node13" class="node">
<title>Node13</title>
<g id="a_node13"><a xlink:href="../../dd/de2/digital__signature_8h.html" target="_top" xlink:title=" ">
<polygon fill="white" stroke="black" points="542.5,-56.5 542.5,-86.5 655.5,-86.5 655.5,-56.5 542.5,-56.5"/>
<text text-anchor="start" x="550.5" y="-74.5" font-family="Helvetica,sans-Serif" font-size="10.00">automaton/core/crypto</text>
<text text-anchor="middle" x="599" y="-63.5" font-family="Helvetica,sans-Serif" font-size="10.00">/digital_signature.h</text>
</a>
</g>
</g>
<!-- Node11&#45;&gt;Node13 -->
<g id="edge20" class="edge">
<title>Node11&#45;&gt;Node13</title>
<path fill="none" stroke="midnightblue" d="M644.23,-257.24C648.47,-240.88 653.75,-213.29 649,-190 641.98,-155.6 624.51,-118.79 612.21,-95.72"/>
<polygon fill="midnightblue" stroke="midnightblue" points="615.16,-93.82 607.3,-86.72 609.01,-97.18 615.16,-93.82"/>
</g>
<!-- Node14 -->
<g id="node14" class="node">
<title>Node14</title>
<g id="a_node14"><a xlink:href="../../d2/dab/hash__transformation_8h.html" target="_top" xlink:title=" ">
<polygon fill="white" stroke="black" points="1027,-56.5 1027,-86.5 1143,-86.5 1143,-56.5 1027,-56.5"/>
<text text-anchor="start" x="1035" y="-74.5" font-family="Helvetica,sans-Serif" font-size="10.00">automaton/core/crypto</text>
<text text-anchor="middle" x="1085" y="-63.5" font-family="Helvetica,sans-Serif" font-size="10.00">/hash_transformation.h</text>
</a>
</g>
</g>
<!-- Node11&#45;&gt;Node14 -->
<g id="edge23" class="edge">
<title>Node11&#45;&gt;Node14</title>
<path fill="none" stroke="midnightblue" d="M671.65,-257.35C750.59,-222.04 956.19,-130.1 1044.13,-90.77"/>
<polygon fill="midnightblue" stroke="midnightblue" points="1045.81,-93.86 1053.51,-86.58 1042.96,-87.47 1045.81,-93.86"/>
</g>
<!-- Node16 -->
<g id="node16" class="node">
<title>Node16</title>
<g id="a_node16"><a xlink:href="../../d1/d8a/secure__random_8h.html" target="_top" xlink:title=" ">
<polygon fill="white" stroke="black" points="857.5,-56.5 857.5,-86.5 970.5,-86.5 970.5,-56.5 857.5,-56.5"/>
<text text-anchor="start" x="865.5" y="-74.5" font-family="Helvetica,sans-Serif" font-size="10.00">automaton/core/crypto</text>
<text text-anchor="middle" x="914" y="-63.5" font-family="Helvetica,sans-Serif" font-size="10.00">/secure_random.h</text>
</a>
</g>
</g>
<!-- Node11&#45;&gt;Node16 -->
<g id="edge27" class="edge">
<title>Node11&#45;&gt;Node16</title>
<path fill="none" stroke="midnightblue" d="M659.71,-257.19C707.69,-222.34 830.74,-132.97 886.18,-92.71"/>
<polygon fill="midnightblue" stroke="midnightblue" points="888.44,-95.39 894.47,-86.68 884.33,-89.73 888.44,-95.39"/>
</g>
<!-- Node18 -->
<g id="node18" class="node">
<title>Node18</title>
<g id="a_node18"><a xlink:href="../../de/d06/factory_8h.html" target="_top" xlink:title=" ">
<polygon fill="white" stroke="black" points="337,-190.5 337,-220.5 443,-220.5 443,-190.5 337,-190.5"/>
<text text-anchor="start" x="345" y="-208.5" font-family="Helvetica,sans-Serif" font-size="10.00">automaton/core/data</text>
<text text-anchor="middle" x="390" y="-197.5" font-family="Helvetica,sans-Serif" font-size="10.00">/factory.h</text>
</a>
</g>
</g>
<!-- Node11&#45;&gt;Node18 -->
<g id="edge31" class="edge">
<title>Node11&#45;&gt;Node18</title>
<path fill="none" stroke="midnightblue" d="M586.06,-257.48C547.07,-247.34 494.28,-233.61 453.29,-222.96"/>
<polygon fill="midnightblue" stroke="midnightblue" points="453.97,-219.52 443.41,-220.39 452.21,-226.29 453.97,-219.52"/>
</g>
<!-- Node20 -->
<g id="node20" class="node">
<title>Node20</title>
<g id="a_node20"><a xlink:title=" ">
<polygon fill="white" stroke="#bfbfbf" points="593.5,-196 593.5,-215 640.5,-215 640.5,-196 593.5,-196"/>
<text text-anchor="middle" x="617" y="-203" font-family="Helvetica,sans-Serif" font-size="10.00">sol.hpp</text>
</a>
</g>
</g>
<!-- Node11&#45;&gt;Node20 -->
<g id="edge39" class="edge">
<title>Node11&#45;&gt;Node20</title>
<path fill="none" stroke="midnightblue" d="M635.01,-257.4C631.64,-247.86 627.15,-235.18 623.5,-224.86"/>
<polygon fill="midnightblue" stroke="midnightblue" points="626.71,-223.45 620.08,-215.19 620.11,-225.79 626.71,-223.45"/>
</g>
<!-- Node13&#45;&gt;Node5 -->
<g id="edge21" class="edge">
<title>Node13&#45;&gt;Node5</title>
<path fill="none" stroke="midnightblue" d="M599,-56.4C599,-48.47 599,-38.46 599,-29.86"/>
<polygon fill="midnightblue" stroke="midnightblue" points="602.5,-29.66 599,-19.66 595.5,-29.66 602.5,-29.66"/>
</g>
<!-- Node13&#45;&gt;Node10 -->
<g id="edge22" class="edge">
<title>Node13&#45;&gt;Node10</title>
<path fill="none" stroke="midnightblue" d="M655.65,-57.51C658.47,-56.97 661.26,-56.47 664,-56 731.68,-44.45 938.51,-22.01 1014.02,-13.96"/>
<polygon fill="midnightblue" stroke="midnightblue" points="1014.61,-17.42 1024.18,-12.88 1013.87,-10.46 1014.61,-17.42"/>
</g>
<!-- Node14&#45;&gt;Node5 -->
<g id="edge26" class="edge">
<title>Node14&#45;&gt;Node5</title>
<path fill="none" stroke="midnightblue" d="M1026.98,-62.37C1011.41,-60.24 994.57,-57.99 979,-56 849.43,-39.47 694.72,-21.78 629.93,-14.47"/>
<polygon fill="midnightblue" stroke="midnightblue" points="629.94,-10.95 619.61,-13.31 629.16,-17.91 629.94,-10.95"/>
</g>
<!-- Node14&#45;&gt;Node10 -->
<g id="edge25" class="edge">
<title>Node14&#45;&gt;Node10</title>
<path fill="none" stroke="midnightblue" d="M1074.81,-56.4C1068.63,-47.84 1060.7,-36.87 1054.18,-27.86"/>
<polygon fill="midnightblue" stroke="midnightblue" points="1056.95,-25.71 1048.26,-19.66 1051.28,-29.81 1056.95,-25.71"/>
</g>
<!-- Node15 -->
<g id="node15" class="node">
<title>Node15</title>
<g id="a_node15"><a xlink:title=" ">
<polygon fill="white" stroke="#bfbfbf" points="1193,-0.5 1193,-19.5 1247,-19.5 1247,-0.5 1193,-0.5"/>
<text text-anchor="middle" x="1220" y="-7.5" font-family="Helvetica,sans-Serif" font-size="10.00">iostream</text>
</a>
</g>
</g>
<!-- Node14&#45;&gt;Node15 -->
<g id="edge24" class="edge">
<title>Node14&#45;&gt;Node15</title>
<path fill="none" stroke="midnightblue" d="M1116.99,-56.4C1139.44,-46.51 1169.21,-33.38 1190.98,-23.79"/>
<polygon fill="midnightblue" stroke="midnightblue" points="1192.62,-26.89 1200.36,-19.66 1189.79,-20.49 1192.62,-26.89"/>
</g>
<!-- Node16&#45;&gt;Node5 -->
<g id="edge30" class="edge">
<title>Node16&#45;&gt;Node5</title>
<path fill="none" stroke="midnightblue" d="M857.44,-58.85C852.56,-57.87 847.69,-56.91 843,-56 766.31,-41.1 675.81,-24.72 629.56,-16.44"/>
<polygon fill="midnightblue" stroke="midnightblue" points="630.05,-12.98 619.59,-14.66 628.82,-19.87 630.05,-12.98"/>
</g>
<!-- Node16&#45;&gt;Node10 -->
<g id="edge29" class="edge">
<title>Node16&#45;&gt;Node10</title>
<path fill="none" stroke="midnightblue" d="M944.33,-56.4C965.91,-46.37 994.61,-33.03 1015.31,-23.41"/>
<polygon fill="midnightblue" stroke="midnightblue" points="1016.89,-26.53 1024.49,-19.14 1013.94,-20.18 1016.89,-26.53"/>
</g>
<!-- Node17 -->
<g id="node17" class="node">
<title>Node17</title>
<g id="a_node17"><a xlink:title=" ">
<polygon fill="white" stroke="#bfbfbf" points="891,-0.5 891,-19.5 937,-19.5 937,-0.5 891,-0.5"/>
<text text-anchor="middle" x="914" y="-7.5" font-family="Helvetica,sans-Serif" font-size="10.00">cstdint</text>
</a>
</g>
</g>
<!-- Node16&#45;&gt;Node17 -->
<g id="edge28" class="edge">
<title>Node16&#45;&gt;Node17</title>
<path fill="none" stroke="midnightblue" d="M914,-56.4C914,-48.47 914,-38.46 914,-29.86"/>
<polygon fill="midnightblue" stroke="midnightblue" points="917.5,-29.66 914,-19.66 910.5,-29.66 917.5,-29.66"/>
</g>
<!-- Node18&#45;&gt;Node3 -->
<g id="edge33" class="edge">
<title>Node18&#45;&gt;Node3</title>
<path fill="none" stroke="midnightblue" d="M443.11,-192.98C510.15,-178.41 617.05,-155.08 619,-154 647.92,-137.98 673.1,-108.26 687.15,-89.48"/>
<polygon fill="midnightblue" stroke="midnightblue" points="690.08,-91.4 693.12,-81.25 684.41,-87.29 690.08,-91.4"/>
</g>
<!-- Node18&#45;&gt;Node5 -->
<g id="edge34" class="edge">
<title>Node18&#45;&gt;Node5</title>
<path fill="none" stroke="midnightblue" d="M398.42,-190.09C404.15,-180.08 411.81,-166.37 418,-154 439.37,-111.31 426.52,-87.95 462,-56 491.79,-29.18 537.91,-18.3 568.28,-13.92"/>
<polygon fill="midnightblue" stroke="midnightblue" points="568.84,-17.38 578.31,-12.63 567.95,-10.43 568.84,-17.38"/>
</g>
<!-- Node18&#45;&gt;Node7 -->
<g id="edge36" class="edge">
<title>Node18&#45;&gt;Node7</title>
<path fill="none" stroke="midnightblue" d="M371.1,-190.27C323.74,-154.61 200.35,-61.71 152.43,-25.63"/>
<polygon fill="midnightblue" stroke="midnightblue" points="154.49,-22.8 144.39,-19.58 150.28,-28.39 154.49,-22.8"/>
</g>
<!-- Node18&#45;&gt;Node8 -->
<g id="edge37" class="edge">
<title>Node18&#45;&gt;Node8</title>
<path fill="none" stroke="midnightblue" d="M426.24,-190.4C451.18,-180.69 484.53,-167.71 511.3,-157.29"/>
<polygon fill="midnightblue" stroke="midnightblue" points="512.78,-160.47 520.83,-153.58 510.25,-153.94 512.78,-160.47"/>
</g>
<!-- Node18&#45;&gt;Node9 -->
<g id="edge38" class="edge">
<title>Node18&#45;&gt;Node9</title>
<path fill="none" stroke="midnightblue" d="M379.93,-190.14C373.55,-180.38 365.66,-166.94 361,-154 354.36,-135.56 350.82,-113.62 348.96,-97.14"/>
<polygon fill="midnightblue" stroke="midnightblue" points="352.4,-96.33 347.93,-86.73 345.43,-97.02 352.4,-96.33"/>
</g>
<!-- Node18&#45;&gt;Node10 -->
<g id="edge32" class="edge">
<title>Node18&#45;&gt;Node10</title>
<path fill="none" stroke="midnightblue" d="M443.15,-198.54C570.28,-183.54 888.15,-141.54 979,-87 1002.8,-72.71 1021.71,-46.07 1032.38,-28.44"/>
<polygon fill="midnightblue" stroke="midnightblue" points="1035.46,-30.11 1037.45,-19.7 1029.4,-26.6 1035.46,-30.11"/>
</g>
<!-- Node19 -->
<g id="node19" class="node">
<title>Node19</title>
<g id="a_node19"><a xlink:title=" ">
<polygon fill="white" stroke="#bfbfbf" points="370.5,-129 370.5,-148 409.5,-148 409.5,-129 370.5,-129"/>
<text text-anchor="middle" x="390" y="-136" font-family="Helvetica,sans-Serif" font-size="10.00">utility</text>
</a>
</g>
</g>
<!-- Node18&#45;&gt;Node19 -->
<g id="edge35" class="edge">
<title>Node18&#45;&gt;Node19</title>
<path fill="none" stroke="midnightblue" d="M390,-190.4C390,-181.06 390,-168.71 390,-158.52"/>
<polygon fill="midnightblue" stroke="midnightblue" points="393.5,-158.19 390,-148.19 386.5,-158.19 393.5,-158.19"/>
</g>
<!-- Node21&#45;&gt;Node3 -->
<g id="edge41" class="edge">
<title>Node21&#45;&gt;Node3</title>
<path fill="none" stroke="midnightblue" d="M444.08,-257.31C461.55,-239.18 494.22,-208 528,-190 579.02,-162.81 607.64,-189.84 653,-154 673.67,-137.66 686.61,-109.32 693.32,-90.74"/>
<polygon fill="midnightblue" stroke="midnightblue" points="696.7,-91.68 696.56,-81.09 690.06,-89.45 696.7,-91.68"/>
</g>
<!-- Node21&#45;&gt;Node5 -->
<g id="edge42" class="edge">
<title>Node21&#45;&gt;Node5</title>
<path fill="none" stroke="midnightblue" d="M370.18,-257.47C349.61,-249.87 328.26,-238.34 314,-221 266.71,-163.49 236.23,-112.26 285,-56 321.46,-13.95 496.09,-10.25 567.98,-10.55"/>
<polygon fill="midnightblue" stroke="midnightblue" points="568.18,-14.05 578.2,-10.63 568.23,-7.05 568.18,-14.05"/>
</g>
<!-- Node21&#45;&gt;Node6 -->
<g id="edge43" class="edge">
<title>Node21&#45;&gt;Node6</title>
<path fill="none" stroke="midnightblue" d="M498.34,-264.04C522.49,-261.54 549.95,-258.91 575,-257 882.08,-233.57 963.19,-271.43 1267,-221 1272.09,-220.15 1277.4,-218.98 1282.58,-217.67"/>
<polygon fill="midnightblue" stroke="midnightblue" points="1283.58,-221.03 1292.31,-215.02 1281.74,-214.27 1283.58,-221.03"/>
</g>
<!-- Node21&#45;&gt;Node7 -->
<g id="edge44" class="edge">
<title>Node21&#45;&gt;Node7</title>
<path fill="none" stroke="midnightblue" d="M374.72,-257.4C347.15,-249.11 314.12,-237.07 287,-221 210.38,-175.6 176.9,-167.12 138,-87 129.26,-69.01 129.11,-45.74 130.44,-29.71"/>
<polygon fill="midnightblue" stroke="midnightblue" points="133.95,-29.83 131.57,-19.5 126.99,-29.06 133.95,-29.83"/>
</g>
<!-- Node21&#45;&gt;Node9 -->
<g id="edge46" class="edge">
<title>Node21&#45;&gt;Node9</title>
<path fill="none" stroke="midnightblue" d="M375.96,-257.49C357.46,-249.87 338.8,-238.32 328,-221 303.93,-182.39 321.66,-127.15 335.28,-96.07"/>
<polygon fill="midnightblue" stroke="midnightblue" points="338.51,-97.43 339.5,-86.88 332.15,-94.51 338.51,-97.43"/>
</g>
<!-- Node21&#45;&gt;Node18 -->
<g id="edge45" class="edge">
<title>Node21&#45;&gt;Node18</title>
<path fill="none" stroke="midnightblue" d="M422.1,-257.4C416.89,-249.13 410.19,-238.51 404.26,-229.1"/>
<polygon fill="midnightblue" stroke="midnightblue" points="407.17,-227.17 398.88,-220.58 401.25,-230.9 407.17,-227.17"/>
</g>
<!-- Node22&#45;&gt;Node2 -->
<g id="edge50" class="edge">
<title>Node22&#45;&gt;Node2</title>
<path fill="none" stroke="midnightblue" d="M973.14,-324.4C938.75,-315 893.4,-301.87 854,-288 852.09,-287.33 850.14,-286.61 848.18,-285.86"/>
<polygon fill="midnightblue" stroke="midnightblue" points="849.06,-282.45 838.48,-282.01 846.48,-288.95 849.06,-282.45"/>
</g>
<!-- Node22&#45;&gt;Node3 -->
<g id="edge52" class="edge">
<title>Node22&#45;&gt;Node3</title>
<path fill="none" stroke="midnightblue" d="M1037.57,-324.24C1048.67,-307.38 1062.96,-278.87 1051,-257 1050.17,-255.49 843.55,-123.75 842,-123 798.4,-101.77 784.68,-103.26 739,-87 736.77,-86.21 734.47,-85.38 732.15,-84.55"/>
<polygon fill="midnightblue" stroke="midnightblue" points="733.27,-81.23 722.67,-81.13 730.89,-87.82 733.27,-81.23"/>
</g>
<!-- Node22&#45;&gt;Node4 -->
<g id="edge53" class="edge">
<title>Node22&#45;&gt;Node4</title>
<path fill="none" stroke="midnightblue" d="M1081.21,-331.63C1136.46,-323.88 1224.25,-309.49 1298,-288 1300.43,-287.29 1302.93,-286.48 1305.42,-285.6"/>
<polygon fill="midnightblue" stroke="midnightblue" points="1306.71,-288.86 1314.82,-282.05 1304.23,-282.31 1306.71,-288.86"/>
</g>
<!-- Node22&#45;&gt;Node5 -->
<g id="edge55" class="edge">
<title>Node22&#45;&gt;Node5</title>
<path fill="none" stroke="midnightblue" d="M989.42,-324.41C969.14,-315.73 944.37,-303.33 925,-288 872.53,-246.46 788.17,-93.88 733,-56 701.29,-34.22 658.17,-22.24 629.51,-16.23"/>
<polygon fill="midnightblue" stroke="midnightblue" points="630.14,-12.78 619.65,-14.27 628.78,-19.65 630.14,-12.78"/>
</g>
<!-- Node22&#45;&gt;Node6 -->
<g id="edge56" class="edge">
<title>Node22&#45;&gt;Node6</title>
<path fill="none" stroke="midnightblue" d="M1081.06,-329C1118.31,-321.15 1168.23,-308.01 1209,-288 1244.98,-270.34 1281.13,-240.3 1301.44,-222.04"/>
<polygon fill="midnightblue" stroke="midnightblue" points="1303.87,-224.56 1308.88,-215.23 1299.14,-219.39 1303.87,-224.56"/>
</g>
<!-- Node22&#45;&gt;Node7 -->
<g id="edge57" class="edge">
<title>Node22&#45;&gt;Node7</title>
<path fill="none" stroke="midnightblue" d="M972.85,-337.32C834.44,-333.84 470.55,-321.67 355,-288 252.28,-258.07 217.06,-241.16 155,-154 128.73,-117.1 124,-101.2 127,-56 127.57,-47.34 128.77,-37.81 129.94,-29.75"/>
<polygon fill="midnightblue" stroke="midnightblue" points="133.44,-30.01 131.51,-19.59 126.52,-28.94 133.44,-30.01"/>
</g>
<!-- Node22&#45;&gt;Node8 -->
<g id="edge58" class="edge">
<title>Node22&#45;&gt;Node8</title>
<path fill="none" stroke="midnightblue" d="M973.47,-324.5C947.58,-316.26 916.81,-304.24 892,-288 841.24,-254.78 850.11,-219.3 797,-190 742.07,-159.69 670.86,-147.54 620.31,-142.69"/>
<polygon fill="midnightblue" stroke="midnightblue" points="620.44,-139.19 610.17,-141.79 619.82,-146.16 620.44,-139.19"/>
</g>
<!-- Node22&#45;&gt;Node10 -->
<g id="edge51" class="edge">
<title>Node22&#45;&gt;Node10</title>
<path fill="none" stroke="midnightblue" d="M1081.01,-325.18C1082.69,-324.78 1084.36,-324.39 1086,-324 1157.38,-307.25 1178.45,-314.02 1247,-288 1273.6,-277.9 1278.07,-270.7 1303,-257 1332.28,-240.91 1345.94,-245.18 1369,-221 1423.39,-163.95 1486.46,-114.83 1434,-56 1421.83,-42.35 1157.09,-20.15 1069.71,-13.17"/>
<polygon fill="midnightblue" stroke="midnightblue" points="1069.98,-9.68 1059.73,-12.38 1069.42,-16.66 1069.98,-9.68"/>
</g>
<!-- Node22&#45;&gt;Node21 -->
<g id="edge74" class="edge">
<title>Node22&#45;&gt;Node21</title>
<path fill="none" stroke="midnightblue" d="M972.79,-332.59C866.59,-321.01 630.84,-295.29 508.31,-281.93"/>
<polygon fill="midnightblue" stroke="midnightblue" points="508.57,-278.44 498.25,-280.83 507.81,-285.4 508.57,-278.44"/>
</g>
<!-- Node23 -->
<g id="node23" class="node">
<title>Node23</title>
<g id="a_node23"><a xlink:title=" ">
<polygon fill="white" stroke="#bfbfbf" points="1136.5,-263 1136.5,-282 1179.5,-282 1179.5,-263 1136.5,-263"/>
<text text-anchor="middle" x="1158" y="-270" font-family="Helvetica,sans-Serif" font-size="10.00">deque</text>
</a>
</g>
</g>
<!-- Node22&#45;&gt;Node23 -->
<g id="edge48" class="edge">
<title>Node22&#45;&gt;Node23</title>
<path fill="none" stroke="midnightblue" d="M1055.43,-324.4C1078.11,-313.14 1109.63,-297.5 1131.72,-286.54"/>
<polygon fill="midnightblue" stroke="midnightblue" points="1133.45,-289.59 1140.86,-282.01 1130.34,-283.32 1133.45,-289.59"/>
</g>
<!-- Node24 -->
<g id="node24" class="node">
<title>Node24</title>
<g id="a_node24"><a xlink:title=" ">
<polygon fill="white" stroke="#bfbfbf" points="934.5,-263 934.5,-282 993.5,-282 993.5,-263 934.5,-263"/>
<text text-anchor="middle" x="964" y="-270" font-family="Helvetica,sans-Serif" font-size="10.00">functional</text>
</a>
</g>
</g>
<!-- Node22&#45;&gt;Node24 -->
<g id="edge49" class="edge">
<title>Node22&#45;&gt;Node24</title>
<path fill="none" stroke="midnightblue" d="M1013.33,-324.4C1003.41,-314.16 989.97,-300.3 979.63,-289.62"/>
<polygon fill="midnightblue" stroke="midnightblue" points="981.9,-286.94 972.43,-282.19 976.87,-291.81 981.9,-286.94"/>
</g>
<!-- Node25 -->
<g id="node25" class="node">
<title>Node25</title>
<g id="a_node25"><a xlink:title=" ">
<polygon fill="white" stroke="#bfbfbf" points="1012,-263 1012,-282 1042,-282 1042,-263 1012,-263"/>
<text text-anchor="middle" x="1027" y="-270" font-family="Helvetica,sans-Serif" font-size="10.00">set</text>
</a>
</g>
</g>
<!-- Node22&#45;&gt;Node25 -->
<g id="edge54" class="edge">
<title>Node22&#45;&gt;Node25</title>
<path fill="none" stroke="midnightblue" d="M1027,-324.4C1027,-315.06 1027,-302.71 1027,-292.52"/>
<polygon fill="midnightblue" stroke="midnightblue" points="1030.5,-292.19 1027,-282.19 1023.5,-292.19 1030.5,-292.19"/>
</g>
<!-- Node26 -->
<g id="node26" class="node">
<title>Node26</title>
<g id="a_node26"><a xlink:href="../../d1/d31/acceptor_8h.html" target="_top" xlink:title=" ">
<polygon fill="white" stroke="black" points="1136,-190.5 1136,-220.5 1258,-220.5 1258,-190.5 1136,-190.5"/>
<text text-anchor="start" x="1144" y="-208.5" font-family="Helvetica,sans-Serif" font-size="10.00">automaton/core/network</text>
<text text-anchor="middle" x="1197" y="-197.5" font-family="Helvetica,sans-Serif" font-size="10.00">/acceptor.h</text>
</a>
</g>
</g>
<!-- Node22&#45;&gt;Node26 -->
<g id="edge59" class="edge">
<title>Node22&#45;&gt;Node26</title>
<path fill="none" stroke="midnightblue" d="M1081.33,-336.15C1117.21,-331.54 1162.22,-319.33 1188,-288 1200.96,-272.25 1202.23,-248.6 1200.84,-230.83"/>
<polygon fill="midnightblue" stroke="midnightblue" points="1204.29,-230.2 1199.71,-220.65 1197.33,-230.97 1204.29,-230.2"/>
</g>
<!-- Node29 -->
<g id="node29" class="node">
<title>Node29</title>
<g id="a_node29"><a xlink:href="../../d4/d67/connection_8h.html" target="_top" xlink:title=" ">
<polygon fill="white" stroke="black" points="1121,-123.5 1121,-153.5 1243,-153.5 1243,-123.5 1121,-123.5"/>
<text text-anchor="start" x="1129" y="-141.5" font-family="Helvetica,sans-Serif" font-size="10.00">automaton/core/network</text>
<text text-anchor="middle" x="1182" y="-130.5" font-family="Helvetica,sans-Serif" font-size="10.00">/connection.h</text>
</a>
</g>
</g>
<!-- Node22&#45;&gt;Node29 -->
<g id="edge73" class="edge">
<title>Node22&#45;&gt;Node29</title>
<path fill="none" stroke="midnightblue" d="M1046.93,-324.36C1058.89,-315.09 1073.72,-302.11 1084,-288 1112.01,-249.56 1099.33,-228.69 1127,-190 1134.83,-179.04 1145.37,-168.66 1155.12,-160.19"/>
<polygon fill="midnightblue" stroke="midnightblue" points="1157.63,-162.66 1163.06,-153.56 1153.14,-157.29 1157.63,-162.66"/>
</g>
<!-- Node26&#45;&gt;Node3 -->
<g id="edge61" class="edge">
<title>Node26&#45;&gt;Node3</title>
<path fill="none" stroke="midnightblue" d="M1142.91,-190.43C1104.2,-180.34 1050.88,-166.4 1004,-154 906.48,-128.21 791.54,-97.38 734.63,-82.08"/>
<polygon fill="midnightblue" stroke="midnightblue" points="735.26,-78.63 724.7,-79.41 733.44,-85.39 735.26,-78.63"/>
</g>
<!-- Node26&#45;&gt;Node5 -->
<g id="edge62" class="edge">
<title>Node26&#45;&gt;Node5</title>
<path fill="none" stroke="midnightblue" d="M1158.94,-190.42C1111.73,-173.23 1028.58,-143.88 956,-123 889.7,-103.93 866.85,-117.58 805,-87 785.46,-77.34 786.4,-65.93 767,-56 722.18,-33.06 664.47,-20.91 629.68,-15.23"/>
<polygon fill="midnightblue" stroke="midnightblue" points="630.07,-11.75 619.66,-13.67 629,-18.67 630.07,-11.75"/>
</g>
<!-- Node26&#45;&gt;Node10 -->
<g id="edge60" class="edge">
<title>Node26&#45;&gt;Node10</title>
<path fill="none" stroke="midnightblue" d="M1219.78,-190.44C1231.79,-181.62 1245.38,-169.07 1252,-154 1269.92,-113.22 1263.58,-86.38 1231,-56 1207.77,-34.34 1116.43,-20.2 1069.77,-14.23"/>
<polygon fill="midnightblue" stroke="midnightblue" points="1070.08,-10.74 1059.73,-12.99 1069.22,-17.69 1070.08,-10.74"/>
</g>
<!-- Node27 -->
<g id="node27" class="node">
<title>Node27</title>
<g id="a_node27"><a xlink:href="../../d1/d13/status_8h.html" target="_top" xlink:title=" ">
<polygon fill="white" stroke="black" points="1299.5,-56.5 1299.5,-86.5 1424.5,-86.5 1424.5,-56.5 1299.5,-56.5"/>
<text text-anchor="start" x="1307.5" y="-74.5" font-family="Helvetica,sans-Serif" font-size="10.00">automaton/core/common</text>
<text text-anchor="middle" x="1362" y="-63.5" font-family="Helvetica,sans-Serif" font-size="10.00">/status.h</text>
</a>
</g>
</g>
<!-- Node26&#45;&gt;Node27 -->
<g id="edge63" class="edge">
<title>Node26&#45;&gt;Node27</title>
<path fill="none" stroke="midnightblue" d="M1226.49,-190.35C1244.26,-181.17 1266.88,-168.28 1285,-154 1307.47,-136.3 1329.51,-112.06 1344.22,-94.63"/>
<polygon fill="midnightblue" stroke="midnightblue" points="1347.13,-96.61 1350.82,-86.67 1341.74,-92.14 1347.13,-96.61"/>
</g>
<!-- Node26&#45;&gt;Node29 -->
<g id="edge67" class="edge">
<title>Node26&#45;&gt;Node29</title>
<path fill="none" stroke="midnightblue" d="M1193.75,-190.4C1191.94,-182.56 1189.64,-172.6 1187.55,-163.57"/>
<polygon fill="midnightblue" stroke="midnightblue" points="1190.91,-162.53 1185.25,-153.58 1184.09,-164.11 1190.91,-162.53"/>
</g>
<!-- Node27&#45;&gt;Node5 -->
<g id="edge65" class="edge">
<title>Node27&#45;&gt;Node5</title>
<path fill="none" stroke="midnightblue" d="M1299.38,-64.02C1273.03,-61.38 1242.04,-58.4 1214,-56 990.04,-36.84 719.75,-18.84 629.78,-12.98"/>
<polygon fill="midnightblue" stroke="midnightblue" points="629.93,-9.49 619.72,-12.33 629.47,-16.47 629.93,-9.49"/>
</g>
<!-- Node27&#45;&gt;Node15 -->
<g id="edge66" class="edge">
<title>Node27&#45;&gt;Node15</title>
<path fill="none" stroke="midnightblue" d="M1328.35,-56.4C1304.52,-46.42 1272.85,-33.15 1249.91,-23.53"/>
<polygon fill="midnightblue" stroke="midnightblue" points="1251.24,-20.29 1240.66,-19.66 1248.53,-26.75 1251.24,-20.29"/>
</g>
<!-- Node28 -->
<g id="node28" class="node">
<title>Node28</title>
<g id="a_node28"><a xlink:title=" ">
<polygon fill="white" stroke="#bfbfbf" points="1336,-0.5 1336,-19.5 1388,-19.5 1388,-0.5 1336,-0.5"/>
<text text-anchor="middle" x="1362" y="-7.5" font-family="Helvetica,sans-Serif" font-size="10.00">ostream</text>
</a>
</g>
</g>
<!-- Node27&#45;&gt;Node28 -->
<g id="edge64" class="edge">
<title>Node27&#45;&gt;Node28</title>
<path fill="none" stroke="midnightblue" d="M1362,-56.4C1362,-48.47 1362,-38.46 1362,-29.86"/>
<polygon fill="midnightblue" stroke="midnightblue" points="1365.5,-29.66 1362,-19.66 1358.5,-29.66 1365.5,-29.66"/>
</g>
<!-- Node29&#45;&gt;Node3 -->
<g id="edge69" class="edge">
<title>Node29&#45;&gt;Node3</title>
<path fill="none" stroke="midnightblue" d="M1120.83,-129.27C1018.69,-115.52 816.57,-88.32 734.69,-77.3"/>
<polygon fill="midnightblue" stroke="midnightblue" points="735.02,-73.82 724.64,-75.95 734.08,-80.75 735.02,-73.82"/>
</g>
<!-- Node29&#45;&gt;Node5 -->
<g id="edge70" class="edge">
<title>Node29&#45;&gt;Node5</title>
<path fill="none" stroke="midnightblue" d="M1120.99,-131.75C1038.52,-123.38 896.26,-106.69 848,-87 826.19,-78.1 826.51,-65.6 805,-56 746.27,-29.78 671.11,-18.35 629.75,-13.77"/>
<polygon fill="midnightblue" stroke="midnightblue" points="630.06,-10.28 619.75,-12.72 629.33,-17.24 630.06,-10.28"/>
</g>
<!-- Node29&#45;&gt;Node10 -->
<g id="edge68" class="edge">
<title>Node29&#45;&gt;Node10</title>
<path fill="none" stroke="midnightblue" d="M1195.49,-123.32C1210.27,-106.03 1229.88,-76.58 1214,-56 1196.49,-33.32 1113.89,-19.86 1069.83,-14.19"/>
<polygon fill="midnightblue" stroke="midnightblue" points="1070.14,-10.7 1059.78,-12.94 1069.27,-17.64 1070.14,-10.7"/>
</g>
<!-- Node29&#45;&gt;Node27 -->
<g id="edge72" class="edge">
<title>Node29&#45;&gt;Node27</title>
<path fill="none" stroke="midnightblue" d="M1221.06,-123.4C1248.18,-113.6 1284.51,-100.48 1313.5,-90.02"/>
<polygon fill="midnightblue" stroke="midnightblue" points="1314.8,-93.26 1323.02,-86.58 1312.42,-86.68 1314.8,-93.26"/>
</g>
<!-- Node30 -->
<g id="node30" class="node">
<title>Node30</title>
<g id="a_node30"><a xlink:title=" ">
<polygon fill="white" stroke="#bfbfbf" points="1161,-62 1161,-81 1205,-81 1205,-62 1161,-62"/>
<text text-anchor="middle" x="1183" y="-69" font-family="Helvetica,sans-Serif" font-size="10.00">thread</text>
</a>
</g>
</g>
<!-- Node29&#45;&gt;Node30 -->
<g id="edge71" class="edge">
<title>Node29&#45;&gt;Node30</title>
<path fill="none" stroke="midnightblue" d="M1182.22,-123.4C1182.36,-114.06 1182.55,-101.71 1182.71,-91.52"/>
<polygon fill="midnightblue" stroke="midnightblue" points="1186.21,-91.25 1182.87,-81.19 1179.21,-91.14 1186.21,-91.25"/>
</g>
</g>
</svg>
        <g id="navigator" transform="translate(0 0)" fill="#404254">
                <rect fill="#f2f5e9" fill-opacity="0.5" stroke="#606060" stroke-width=".5" x="0" y="0" width="60" height="60"/>
                <use id="zoomplus" xlink:href="#zoomPlus" x="17" y="9" onmousedown="handleZoom(evt,'in')"/>
                <use id="zoomminus" xlink:href="#zoomMin" x="42" y="9" onmousedown="handleZoom(evt,'out')"/>
                <use id="reset" xlink:href="#resetDef" x="30" y="36" onmousedown="handleReset()"/>
                <g id="arrowUp" xlink:href="#dirArrow" transform="translate(30 24)" onmousedown="handlePan(0,-1)">
                  <use xlink:href="#rim" fill="#404040">
                        <set attributeName="fill" to="#808080" begin="arrowUp.mouseover" end="arrowUp.mouseout"/>
                  </use>
                  <path fill="none" stroke="white" stroke-width="1.5" d="M0,-3.0v7 M-2.5,-0.5L0,-3.0L2.5,-0.5"/>
                </g>
                <g id="arrowRight" xlink:href="#dirArrow" transform="rotate(90) translate(36 -43)" onmousedown="handlePan(1,0)">
                  <use xlink:href="#rim" fill="#404040">
                        <set attributeName="fill" to="#808080" begin="arrowRight.mouseover" end="arrowRight.mouseout"/>
                  </use>
                  <path fill="none" stroke="white" stroke-width="1.5" d="M0,-3.0v7 M-2.5,-0.5L0,-3.0L2.5,-0.5"/>
                </g>
                <g id="arrowDown" xlink:href="#dirArrow" transform="rotate(180) translate(-30 -48)" onmousedown="handlePan(0,1)">
                  <use xlink:href="#rim" fill="#404040">
                        <set attributeName="fill" to="#808080" begin="arrowDown.mouseover" end="arrowDown.mouseout"/>
                  </use>
                  <path fill="none" stroke="white" stroke-width="1.5" d="M0,-3.0v7 M-2.5,-0.5L0,-3.0L2.5,-0.5"/>
                </g>
                <g id="arrowLeft" xlink:href="#dirArrow" transform="rotate(270) translate(-36 17)" onmousedown="handlePan(-1,0)">
                  <use xlink:href="#rim" fill="#404040">
                        <set attributeName="fill" to="#808080" begin="arrowLeft.mouseover" end="arrowLeft.mouseout"/>
                  </use>
                  <path fill="none" stroke="white" stroke-width="1.5" d="M0,-3.0v7 M-2.5,-0.5L0,-3.0L2.5,-0.5"/>
                </g>
        </g>
        <svg viewBox="0 0 15 15" width="100%" height="30px" preserveAspectRatio="xMaxYMin meet">
         <g id="arrow_out" transform="scale(0.3 0.3)">
          <a xlink:href="lua__node_8h__incl_org.svg" target="_base">
           <rect id="button" ry="5" rx="5" y="6" x="6" height="38" width="38"
                fill="#f2f5e9" fill-opacity="0.5" stroke="#606060" stroke-width="1.0"/>
           <path id="arrow"
             d="M 11.500037,31.436501 C 11.940474,20.09759 22.043105,11.32322 32.158766,21.979434 L 37.068811,17.246167 C 37.068811,17.246167 37.088388,32 37.088388,32 L 22.160133,31.978069 C 22.160133,31.978069 26.997745,27.140456 26.997745,27.140456 C 18.528582,18.264221 13.291696,25.230495 11.500037,31.436501 z"
             style="fill:#404040;"/>
          </a>
         </g>
        </svg>
</svg>
