<?xml version="1.0" encoding="UTF-8" standalone="no"?>
<!DOCTYPE svg PUBLIC "-//W3C//DTD SVG 1.1//EN"
 "http://www.w3.org/Graphics/SVG/1.1/DTD/svg11.dtd">
<!-- Generated by graphviz version 2.44.0 ()
 -->
<!-- Title: automaton::core::network::acceptor::acceptor_handler::on_requested Pages: 1 -->
<svg width="330pt" height="50pt"
 viewBox="0.00 0.00 330.00 50.00" xmlns="http://www.w3.org/2000/svg" xmlns:xlink="http://www.w3.org/1999/xlink">
<g id="graph0" class="graph" transform="scale(1 1) rotate(0) translate(4 46)">
<title>automaton::core::network::acceptor::acceptor_handler::on_requested</title>
<polygon fill="white" stroke="transparent" points="-4,4 -4,-46 326,-46 326,4 -4,4"/>
<!-- Node1 -->
<g id="node1" class="node">
<title>Node1</title>
<g id="a_node1"><a xlink:title=" ">
<polygon fill="#bfbfbf" stroke="black" points="185,-0.5 185,-41.5 322,-41.5 322,-0.5 185,-0.5"/>
<text text-anchor="start" x="193" y="-29.5" font-family="Helvetica,sans-Serif" font-size="10.00">automaton::core::network</text>
<text text-anchor="start" x="193" y="-18.5" font-family="Helvetica,sans-Serif" font-size="10.00">::acceptor::acceptor_handler</text>
<text text-anchor="middle" x="253.5" y="-7.5" font-family="Helvetica,sans-Serif" font-size="10.00">::on_requested</text>
</a>
</g>
</g>
<!-- Node2 -->
<g id="node2" class="node">
<title>Node2</title>
<g id="a_node2"><a xlink:href="../../d9/db9/classautomaton_1_1core_1_1network_1_1tcp__acceptor.html#a1d59743caf748d0976bcb57db9460659" target="_top" xlink:title="The acceptor starts to listen for incoming connections. Asynchronous.">
<polygon fill="white" stroke="black" points="0,-6 0,-36 149,-36 149,-6 0,-6"/>
<text text-anchor="start" x="8" y="-24" font-family="Helvetica,sans-Serif" font-size="10.00">automaton::core::network</text>
<text text-anchor="middle" x="74.5" y="-13" font-family="Helvetica,sans-Serif" font-size="10.00">::tcp_acceptor::start_accepting</text>
</a>
</g>
</g>
<!-- Node1&#45;&gt;Node2 -->
<g id="edge1" class="edge">
<title>Node1&#45;&gt;Node2</title>
<path fill="none" stroke="midnightblue" d="M174.56,-21C166.08,-21 157.46,-21 149.03,-21"/>
<polygon fill="midnightblue" stroke="midnightblue" points="174.83,-24.5 184.83,-21 174.83,-17.5 174.83,-24.5"/>
</g>
</g>
</svg>
