<?xml version="1.0" encoding="UTF-8" standalone="no"?>
<!DOCTYPE svg PUBLIC "-//W3C//DTD SVG 1.1//EN"
 "http://www.w3.org/Graphics/SVG/1.1/DTD/svg11.dtd">
<!-- Generated by graphviz version 2.42.3 ()
 -->
<!-- Title: simulated_connection.h Pages: 1 -->
<!--zoomable 285 -->
<svg id="main" version="1.1" xmlns="http://www.w3.org/2000/svg" xmlns:xlink="http://www.w3.org/1999/xlink" xml:space="preserve" onload="init(evt)">
<style type="text/css"><![CDATA[
.edge:hover path { stroke: red; }
.edge:hover polygon { stroke: red; fill: red; }
]]></style>
<script type="text/javascript"><![CDATA[
var edges = document.getElementsByTagName('g');
if (edges && edges.length) {
  for (var i=0;i<edges.length;i++) {
    if (edges[i].id.substr(0,4)=='edge') {
      edges[i].setAttribute('class','edge');
    }
  }
}
]]></script>
        <defs>
                <circle id="rim" cx="0" cy="0" r="7"/>
                <circle id="rim2" cx="0" cy="0" r="3.5"/>
                <g id="zoomPlus">
                        <use xlink:href="#rim" fill="#404040">
                                <set attributeName="fill" to="#808080" begin="zoomplus.mouseover" end="zoomplus.mouseout"/>
                        </use>
                        <path d="M-4,0h8M0,-4v8" fill="none" stroke="white" stroke-width="1.5" pointer-events="none"/>
                </g>
                <g id="zoomMin">
                        <use xlink:href="#rim" fill="#404040">
                                <set attributeName="fill" to="#808080" begin="zoomminus.mouseover" end="zoomminus.mouseout"/>
                        </use>
                        <path d="M-4,0h8" fill="none" stroke="white" stroke-width="1.5" pointer-events="none"/>
                </g>
                <g id="dirArrow">
                        <path fill="none" stroke="white" stroke-width="1.5" d="M0,-3.0v7 M-2.5,-0.5L0,-3.0L2.5,-0.5"/>
                </g>
               <g id="resetDef">
                       <use xlink:href="#rim2" fill="#404040">
                               <set attributeName="fill" to="#808080" begin="reset.mouseover" end="reset.mouseout"/>
                       </use>
               </g>
        </defs>

<script type="text/javascript">
var viewWidth = 665;
var viewHeight = 285;
var sectionId = 'dynsection-0';
</script>
<script xlink:href="../../svgpan.js"/>
<svg id="graph" class="graph">
<g id="viewport">
<title>simulated_connection.h</title>
<polygon fill="white" stroke="transparent" points="-4,4 -4,-281 660.5,-281 660.5,4 -4,4"/>
<!-- Node1 -->
<g id="node1" class="node">
<title>Node1</title>
<g id="a_node1"><a xlink:title=" ">
<polygon fill="#bfbfbf" stroke="black" points="269,-257.5 269,-276.5 388,-276.5 388,-257.5 269,-257.5"/>
<text text-anchor="middle" x="328.5" y="-264.5" font-family="Helvetica,sans-Serif" font-size="10.00">simulated_connection.h</text>
</a>
</g>
</g>
<!-- Node2 -->
<g id="node2" class="node">
<title>Node2</title>
<g id="a_node2"><a xlink:title=" ">
<polygon fill="white" stroke="#bfbfbf" points="0,-196 0,-215 59,-215 59,-196 0,-196"/>
<text text-anchor="middle" x="29.5" y="-203" font-family="Helvetica,sans-Serif" font-size="10.00">functional</text>
</a>
</g>
</g>
<!-- Node1&#45;&gt;Node2 -->
<g id="edge1" class="edge">
<title>Node1&#45;&gt;Node2</title>
<path fill="none" stroke="midnightblue" d="M268.99,-257.97C216.98,-250.37 139.66,-237.65 73.5,-221 70.12,-220.15 66.63,-219.17 63.15,-218.14"/>
<polygon fill="midnightblue" stroke="midnightblue" points="64.11,-214.77 53.52,-215.11 62.01,-221.45 64.11,-214.77"/>
</g>
<!-- Node3 -->
<g id="node3" class="node">
<title>Node3</title>
<g id="a_node3"><a xlink:title=" ">
<polygon fill="white" stroke="#bfbfbf" points="184,-62 184,-81 235,-81 235,-62 184,-62"/>
<text text-anchor="middle" x="209.5" y="-69" font-family="Helvetica,sans-Serif" font-size="10.00">memory</text>
</a>
</g>
</g>
<!-- Node1&#45;&gt;Node3 -->
<g id="edge2" class="edge">
<title>Node1&#45;&gt;Node3</title>
<path fill="none" stroke="midnightblue" d="M268.77,-259.36C221.09,-252.68 159.83,-240.53 144.5,-221 111.46,-178.91 163.35,-117.43 192.24,-88.58"/>
<polygon fill="midnightblue" stroke="midnightblue" points="194.95,-90.82 199.69,-81.35 190.08,-85.8 194.95,-90.82"/>
</g>
<!-- Node4 -->
<g id="node4" class="node">
<title>Node4</title>
<g id="a_node4"><a xlink:title=" ">
<polygon fill="white" stroke="#bfbfbf" points="332,-196 332,-215 375,-215 375,-196 332,-196"/>
<text text-anchor="middle" x="353.5" y="-203" font-family="Helvetica,sans-Serif" font-size="10.00">mutex</text>
</a>
</g>
</g>
<!-- Node1&#45;&gt;Node4 -->
<g id="edge3" class="edge">
<title>Node1&#45;&gt;Node4</title>
<path fill="none" stroke="midnightblue" d="M332.08,-257.48C335.68,-248.9 341.35,-235.43 345.94,-224.48"/>
<polygon fill="midnightblue" stroke="midnightblue" points="349.28,-225.58 349.92,-215.01 342.82,-222.87 349.28,-225.58"/>
</g>
<!-- Node5 -->
<g id="node5" class="node">
<title>Node5</title>
<g id="a_node5"><a xlink:title=" ">
<polygon fill="white" stroke="#bfbfbf" points="393,-196 393,-215 436,-215 436,-196 393,-196"/>
<text text-anchor="middle" x="414.5" y="-203" font-family="Helvetica,sans-Serif" font-size="10.00">queue</text>
</a>
</g>
</g>
<!-- Node1&#45;&gt;Node5 -->
<g id="edge4" class="edge">
<title>Node1&#45;&gt;Node5</title>
<path fill="none" stroke="midnightblue" d="M340.82,-257.48C354.62,-247.93 377.2,-232.31 393.73,-220.87"/>
<polygon fill="midnightblue" stroke="midnightblue" points="395.97,-223.58 402.2,-215.01 391.99,-217.82 395.97,-223.58"/>
</g>
<!-- Node6 -->
<g id="node6" class="node">
<title>Node6</title>
<g id="a_node6"><a xlink:title=" ">
<polygon fill="white" stroke="#bfbfbf" points="216,-0.5 216,-19.5 257,-19.5 257,-0.5 216,-0.5"/>
<text text-anchor="middle" x="236.5" y="-7.5" font-family="Helvetica,sans-Serif" font-size="10.00">string</text>
</a>
</g>
</g>
<!-- Node1&#45;&gt;Node6 -->
<g id="edge5" class="edge">
<title>Node1&#45;&gt;Node6</title>
<path fill="none" stroke="midnightblue" d="M268.82,-260.54C216.98,-254.42 147.6,-242.42 130.5,-221 83.84,-162.55 116.79,-114.41 163.5,-56 174.79,-41.88 191.79,-31.04 206.54,-23.53"/>
<polygon fill="midnightblue" stroke="midnightblue" points="208.33,-26.56 215.83,-19.08 205.3,-20.24 208.33,-26.56"/>
</g>
<!-- Node7 -->
<g id="node7" class="node">
<title>Node7</title>
<g id="a_node7"><a xlink:title=" ">
<polygon fill="white" stroke="#bfbfbf" points="454,-196 454,-215 537,-215 537,-196 454,-196"/>
<text text-anchor="middle" x="495.5" y="-203" font-family="Helvetica,sans-Serif" font-size="10.00">unordered_map</text>
</a>
</g>
</g>
<!-- Node1&#45;&gt;Node7 -->
<g id="edge6" class="edge">
<title>Node1&#45;&gt;Node7</title>
<path fill="none" stroke="midnightblue" d="M352.43,-257.48C381.2,-247.22 429.66,-229.96 462.1,-218.4"/>
<polygon fill="midnightblue" stroke="midnightblue" points="463.37,-221.66 471.62,-215.01 461.02,-215.07 463.37,-221.66"/>
</g>
<!-- Node8 -->
<g id="node8" class="node">
<title>Node8</title>
<g id="a_node8"><a xlink:title=" ">
<polygon fill="white" stroke="#bfbfbf" points="555,-196 555,-215 594,-215 594,-196 555,-196"/>
<text text-anchor="middle" x="574.5" y="-203" font-family="Helvetica,sans-Serif" font-size="10.00">utility</text>
</a>
</g>
</g>
<!-- Node1&#45;&gt;Node8 -->
<g id="edge7" class="edge">
<title>Node1&#45;&gt;Node8</title>
<path fill="none" stroke="midnightblue" d="M388.45,-258.16C432.93,-251.26 494.6,-239.4 546.5,-221 547.75,-220.56 549.01,-220.07 550.27,-219.55"/>
<polygon fill="midnightblue" stroke="midnightblue" points="552.16,-222.53 559.73,-215.11 549.19,-216.19 552.16,-222.53"/>
</g>
<!-- Node9 -->
<g id="node9" class="node">
<title>Node9</title>
<g id="a_node9"><a xlink:title=" ">
<polygon fill="white" stroke="#bfbfbf" points="612.5,-196 612.5,-215 656.5,-215 656.5,-196 612.5,-196"/>
<text text-anchor="middle" x="634.5" y="-203" font-family="Helvetica,sans-Serif" font-size="10.00">vector</text>
</a>
</g>
</g>
<!-- Node1&#45;&gt;Node9 -->
<g id="edge8" class="edge">
<title>Node1&#45;&gt;Node9</title>
<path fill="none" stroke="midnightblue" d="M388.05,-261.03C444.5,-255.2 531.17,-243.36 603.5,-221 605.37,-220.42 607.28,-219.75 609.18,-219.02"/>
<polygon fill="midnightblue" stroke="midnightblue" points="610.62,-222.21 618.42,-215.04 607.86,-215.78 610.62,-222.21"/>
</g>
<!-- Node10 -->
<g id="node10" class="node">
<title>Node10</title>
<g id="a_node10"><a xlink:href="../../d1/d31/acceptor_8h.html" target="_top" xlink:title=" ">
<polygon fill="white" stroke="black" points="153.5,-190.5 153.5,-220.5 275.5,-220.5 275.5,-190.5 153.5,-190.5"/>
<text text-anchor="start" x="161.5" y="-208.5" font-family="Helvetica,sans-Serif" font-size="10.00">automaton/core/network</text>
<text text-anchor="middle" x="214.5" y="-197.5" font-family="Helvetica,sans-Serif" font-size="10.00">/acceptor.h</text>
</a>
</g>
</g>
<!-- Node1&#45;&gt;Node10 -->
<g id="edge9" class="edge">
<title>Node1&#45;&gt;Node10</title>
<path fill="none" stroke="midnightblue" d="M312.17,-257.48C296.08,-249.08 270.97,-235.97 250.24,-225.15"/>
<polygon fill="midnightblue" stroke="midnightblue" points="251.85,-222.05 241.37,-220.52 248.61,-228.25 251.85,-222.05"/>
</g>
<!-- Node15 -->
<g id="node15" class="node">
<title>Node15</title>
<g id="a_node15"><a xlink:href="../../d4/d67/connection_8h.html" target="_top" xlink:title=" ">
<polygon fill="white" stroke="black" points="267.5,-123.5 267.5,-153.5 389.5,-153.5 389.5,-123.5 267.5,-123.5"/>
<text text-anchor="start" x="275.5" y="-141.5" font-family="Helvetica,sans-Serif" font-size="10.00">automaton/core/network</text>
<text text-anchor="middle" x="328.5" y="-130.5" font-family="Helvetica,sans-Serif" font-size="10.00">/connection.h</text>
</a>
</g>
</g>
<!-- Node1&#45;&gt;Node15 -->
<g id="edge23" class="edge">
<title>Node1&#45;&gt;Node15</title>
<path fill="none" stroke="midnightblue" d="M327.26,-257.4C326.02,-248.36 324.2,-233.71 323.5,-221 322.74,-207.24 322.82,-203.76 323.5,-190 323.92,-181.43 324.75,-172.08 325.61,-163.78"/>
<polygon fill="midnightblue" stroke="midnightblue" points="329.11,-163.94 326.73,-153.62 322.15,-163.18 329.11,-163.94"/>
</g>
<!-- Node10&#45;&gt;Node3 -->
<g id="edge11" class="edge">
<title>Node10&#45;&gt;Node3</title>
<path fill="none" stroke="midnightblue" d="M213.96,-190.37C213.06,-166.5 211.23,-118.18 210.22,-91.41"/>
<polygon fill="midnightblue" stroke="midnightblue" points="213.7,-90.96 209.83,-81.1 206.71,-91.22 213.7,-90.96"/>
</g>
<!-- Node10&#45;&gt;Node6 -->
<g id="edge12" class="edge">
<title>Node10&#45;&gt;Node6</title>
<path fill="none" stroke="midnightblue" d="M204.17,-190.29C185.71,-163 151.09,-101.91 174.5,-56 181.5,-42.27 194.87,-31.75 207.4,-24.35"/>
<polygon fill="midnightblue" stroke="midnightblue" points="209.17,-27.37 216.28,-19.51 205.82,-21.22 209.17,-27.37"/>
</g>
<!-- Node11 -->
<g id="node11" class="node">
<title>Node11</title>
<g id="a_node11"><a xlink:title=" ">
<polygon fill="white" stroke="#bfbfbf" points="253,-62 253,-81 288,-81 288,-62 253,-62"/>
<text text-anchor="middle" x="270.5" y="-69" font-family="Helvetica,sans-Serif" font-size="10.00">map</text>
</a>
</g>
</g>
<!-- Node10&#45;&gt;Node11 -->
<g id="edge10" class="edge">
<title>Node10&#45;&gt;Node11</title>
<path fill="none" stroke="midnightblue" d="M220.49,-190.37C230.76,-166.18 251.67,-116.88 262.93,-90.35"/>
<polygon fill="midnightblue" stroke="midnightblue" points="266.17,-91.67 266.85,-81.1 259.73,-88.94 266.17,-91.67"/>
</g>
<!-- Node12 -->
<g id="node12" class="node">
<title>Node12</title>
<g id="a_node12"><a xlink:href="../../d1/d13/status_8h.html" target="_top" xlink:title=" ">
<polygon fill="white" stroke="black" points="406,-56.5 406,-86.5 531,-86.5 531,-56.5 406,-56.5"/>
<text text-anchor="start" x="414" y="-74.5" font-family="Helvetica,sans-Serif" font-size="10.00">automaton/core/common</text>
<text text-anchor="middle" x="468.5" y="-63.5" font-family="Helvetica,sans-Serif" font-size="10.00">/status.h</text>
</a>
</g>
</g>
<!-- Node10&#45;&gt;Node12 -->
<g id="edge13" class="edge">
<title>Node10&#45;&gt;Node12</title>
<path fill="none" stroke="midnightblue" d="M275.76,-196.98C313.43,-190.18 361.42,-177.48 398.5,-154 422.2,-138.99 442.21,-113.49 454.69,-95"/>
<polygon fill="midnightblue" stroke="midnightblue" points="457.66,-96.86 460.19,-86.57 451.8,-93.03 457.66,-96.86"/>
</g>
<!-- Node10&#45;&gt;Node15 -->
<g id="edge17" class="edge">
<title>Node10&#45;&gt;Node15</title>
<path fill="none" stroke="midnightblue" d="M239.24,-190.4C255.52,-181.11 277.04,-168.84 294.87,-158.67"/>
<polygon fill="midnightblue" stroke="midnightblue" points="296.86,-161.57 303.81,-153.58 293.39,-155.49 296.86,-161.57"/>
</g>
<!-- Node12&#45;&gt;Node6 -->
<g id="edge15" class="edge">
<title>Node12&#45;&gt;Node6</title>
<path fill="none" stroke="midnightblue" d="M413.81,-56.47C367.89,-44.7 303.99,-28.31 266.76,-18.76"/>
<polygon fill="midnightblue" stroke="midnightblue" points="267.56,-15.35 257,-16.26 265.82,-22.13 267.56,-15.35"/>
</g>
<!-- Node13 -->
<g id="node13" class="node">
<title>Node13</title>
<g id="a_node13"><a xlink:title=" ">
<polygon fill="white" stroke="#bfbfbf" points="477.5,-0.5 477.5,-19.5 529.5,-19.5 529.5,-0.5 477.5,-0.5"/>
<text text-anchor="middle" x="503.5" y="-7.5" font-family="Helvetica,sans-Serif" font-size="10.00">ostream</text>
</a>
</g>
</g>
<!-- Node12&#45;&gt;Node13 -->
<g id="edge14" class="edge">
<title>Node12&#45;&gt;Node13</title>
<path fill="none" stroke="midnightblue" d="M476.79,-56.4C481.72,-48.02 488.01,-37.33 493.25,-28.42"/>
<polygon fill="midnightblue" stroke="midnightblue" points="496.35,-30.05 498.41,-19.66 490.32,-26.5 496.35,-30.05"/>
</g>
<!-- Node14 -->
<g id="node14" class="node">
<title>Node14</title>
<g id="a_node14"><a xlink:title=" ">
<polygon fill="white" stroke="#bfbfbf" points="405.5,-0.5 405.5,-19.5 459.5,-19.5 459.5,-0.5 405.5,-0.5"/>
<text text-anchor="middle" x="432.5" y="-7.5" font-family="Helvetica,sans-Serif" font-size="10.00">iostream</text>
</a>
</g>
</g>
<!-- Node12&#45;&gt;Node14 -->
<g id="edge16" class="edge">
<title>Node12&#45;&gt;Node14</title>
<path fill="none" stroke="midnightblue" d="M459.97,-56.4C454.9,-48.02 448.43,-37.33 443.04,-28.42"/>
<polygon fill="midnightblue" stroke="midnightblue" points="445.91,-26.4 437.74,-19.66 439.92,-30.03 445.91,-26.4"/>
</g>
<!-- Node15&#45;&gt;Node3 -->
<g id="edge19" class="edge">
<title>Node15&#45;&gt;Node3</title>
<path fill="none" stroke="midnightblue" d="M302.68,-123.4C282.26,-112.24 253.95,-96.78 233.91,-85.83"/>
<polygon fill="midnightblue" stroke="midnightblue" points="235.53,-82.73 225.07,-81.01 232.17,-88.87 235.53,-82.73"/>
</g>
<!-- Node15&#45;&gt;Node6 -->
<g id="edge20" class="edge">
<title>Node15&#45;&gt;Node6</title>
<path fill="none" stroke="midnightblue" d="M325.69,-123.33C321.73,-106.06 313.15,-76.62 297.5,-56 287.92,-43.39 273.87,-32.69 261.67,-24.89"/>
<polygon fill="midnightblue" stroke="midnightblue" points="263.17,-21.71 252.8,-19.51 259.54,-27.69 263.17,-21.71"/>
</g>
<!-- Node15&#45;&gt;Node11 -->
<g id="edge18" class="edge">
<title>Node15&#45;&gt;Node11</title>
<path fill="none" stroke="midnightblue" d="M315.91,-123.4C306.87,-113.26 294.65,-99.57 285.17,-88.94"/>
<polygon fill="midnightblue" stroke="midnightblue" points="287.53,-86.33 278.26,-81.19 282.3,-90.99 287.53,-86.33"/>
</g>
<!-- Node15&#45;&gt;Node12 -->
<g id="edge22" class="edge">
<title>Node15&#45;&gt;Node12</title>
<path fill="none" stroke="midnightblue" d="M358.88,-123.4C379.43,-113.86 406.76,-101.16 429,-90.84"/>
<polygon fill="midnightblue" stroke="midnightblue" points="430.59,-93.96 438.18,-86.58 427.64,-87.61 430.59,-93.96"/>
</g>
<!-- Node16 -->
<g id="node16" class="node">
<title>Node16</title>
<g id="a_node16"><a xlink:title=" ">
<polygon fill="white" stroke="#bfbfbf" points="344.5,-62 344.5,-81 388.5,-81 388.5,-62 344.5,-62"/>
<text text-anchor="middle" x="366.5" y="-69" font-family="Helvetica,sans-Serif" font-size="10.00">thread</text>
</a>
</g>
</g>
<!-- Node15&#45;&gt;Node16 -->
<g id="edge21" class="edge">
<title>Node15&#45;&gt;Node16</title>
<path fill="none" stroke="midnightblue" d="M336.75,-123.4C342.49,-113.56 350.2,-100.38 356.33,-89.89"/>
<polygon fill="midnightblue" stroke="midnightblue" points="359.39,-91.59 361.42,-81.19 353.35,-88.06 359.39,-91.59"/>
</g>
</g>
</svg>
        <g id="navigator" transform="translate(0 0)" fill="#404254">
                <rect fill="#f2f5e9" fill-opacity="0.5" stroke="#606060" stroke-width=".5" x="0" y="0" width="60" height="60"/>
                <use id="zoomplus" xlink:href="#zoomPlus" x="17" y="9" onmousedown="handleZoom(evt,'in')"/>
                <use id="zoomminus" xlink:href="#zoomMin" x="42" y="9" onmousedown="handleZoom(evt,'out')"/>
                <use id="reset" xlink:href="#resetDef" x="30" y="36" onmousedown="handleReset()"/>
                <g id="arrowUp" xlink:href="#dirArrow" transform="translate(30 24)" onmousedown="handlePan(0,-1)">
                  <use xlink:href="#rim" fill="#404040">
                        <set attributeName="fill" to="#808080" begin="arrowUp.mouseover" end="arrowUp.mouseout"/>
                  </use>
                  <path fill="none" stroke="white" stroke-width="1.5" d="M0,-3.0v7 M-2.5,-0.5L0,-3.0L2.5,-0.5"/>
                </g>
                <g id="arrowRight" xlink:href="#dirArrow" transform="rotate(90) translate(36 -43)" onmousedown="handlePan(1,0)">
                  <use xlink:href="#rim" fill="#404040">
                        <set attributeName="fill" to="#808080" begin="arrowRight.mouseover" end="arrowRight.mouseout"/>
                  </use>
                  <path fill="none" stroke="white" stroke-width="1.5" d="M0,-3.0v7 M-2.5,-0.5L0,-3.0L2.5,-0.5"/>
                </g>
                <g id="arrowDown" xlink:href="#dirArrow" transform="rotate(180) translate(-30 -48)" onmousedown="handlePan(0,1)">
                  <use xlink:href="#rim" fill="#404040">
                        <set attributeName="fill" to="#808080" begin="arrowDown.mouseover" end="arrowDown.mouseout"/>
                  </use>
                  <path fill="none" stroke="white" stroke-width="1.5" d="M0,-3.0v7 M-2.5,-0.5L0,-3.0L2.5,-0.5"/>
                </g>
                <g id="arrowLeft" xlink:href="#dirArrow" transform="rotate(270) translate(-36 17)" onmousedown="handlePan(-1,0)">
                  <use xlink:href="#rim" fill="#404040">
                        <set attributeName="fill" to="#808080" begin="arrowLeft.mouseover" end="arrowLeft.mouseout"/>
                  </use>
                  <path fill="none" stroke="white" stroke-width="1.5" d="M0,-3.0v7 M-2.5,-0.5L0,-3.0L2.5,-0.5"/>
                </g>
        </g>
        <svg viewBox="0 0 15 15" width="100%" height="30px" preserveAspectRatio="xMaxYMin meet">
         <g id="arrow_out" transform="scale(0.3 0.3)">
          <a xlink:href="simulated__connection_8h__incl_org.svg" target="_base">
           <rect id="button" ry="5" rx="5" y="6" x="6" height="38" width="38"
                fill="#f2f5e9" fill-opacity="0.5" stroke="#606060" stroke-width="1.0"/>
           <path id="arrow"
             d="M 11.500037,31.436501 C 11.940474,20.09759 22.043105,11.32322 32.158766,21.979434 L 37.068811,17.246167 C 37.068811,17.246167 37.088388,32 37.088388,32 L 22.160133,31.978069 C 22.160133,31.978069 26.997745,27.140456 26.997745,27.140456 C 18.528582,18.264221 13.291696,25.230495 11.500037,31.436501 z"
             style="fill:#404040;"/>
          </a>
         </g>
        </svg>
</svg>
