<?xml version="1.0" encoding="UTF-8" standalone="no"?>
<!DOCTYPE svg PUBLIC "-//W3C//DTD SVG 1.1//EN"
 "http://www.w3.org/Graphics/SVG/1.1/DTD/svg11.dtd">
<!-- Generated by graphviz version 2.42.3 ()
 -->
<!-- Title: hash_transformation.h Pages: 1 -->
<svg width="1906pt" height="196pt"
 viewBox="0.00 0.00 1905.50 196.00" xmlns="http://www.w3.org/2000/svg" xmlns:xlink="http://www.w3.org/1999/xlink">
<g id="graph0" class="graph" transform="scale(1 1) rotate(0) translate(4 192)">
<title>hash_transformation.h</title>
<polygon fill="white" stroke="transparent" points="-4,4 -4,-192 1901.5,-192 1901.5,4 -4,4"/>
<!-- Node1 -->
<g id="node1" class="node">
<title>Node1</title>
<g id="a_node1"><a xlink:title=" ">
<polygon fill="#bfbfbf" stroke="black" points="1224.5,-168.5 1224.5,-187.5 1337.5,-187.5 1337.5,-168.5 1224.5,-168.5"/>
<text text-anchor="middle" x="1281" y="-175.5" font-family="Helvetica,sans-Serif" font-size="10.00">hash_transformation.h</text>
</a>
</g>
</g>
<!-- Node2 -->
<g id="node2" class="node">
<title>Node2</title>
<g id="a_node2"><a xlink:href="../../d1/d55/engine_8h.html" target="_top" xlink:title=" ">
<polygon fill="white" stroke="black" points="650.5,-112.5 650.5,-131.5 703.5,-131.5 703.5,-112.5 650.5,-112.5"/>
<text text-anchor="middle" x="677" y="-119.5" font-family="Helvetica,sans-Serif" font-size="10.00">engine.h</text>
</a>
</g>
</g>
<!-- Node1&#45;&gt;Node2 -->
<g id="edge1" class="edge">
<title>Node1&#45;&gt;Node2</title>
<path fill="none" stroke="midnightblue" d="M1214.17,-174.61C1108.38,-170.16 896.1,-158.54 718,-132 713.39,-131.31 708.52,-130.41 703.81,-129.43"/>
<polygon fill="midnightblue" stroke="midnightblue" points="1214.24,-178.11 1224.37,-175.03 1214.53,-171.12 1214.24,-178.11"/>
</g>
<!-- Node9 -->
<g id="node9" class="node">
<title>Node9</title>
<g id="a_node9"><a xlink:href="../../da/d44/_keccak__256__cryptopp_8h.html" target="_top" xlink:title=" ">
<polygon fill="white" stroke="black" points="297,-112.5 297,-131.5 417,-131.5 417,-112.5 297,-112.5"/>
<text text-anchor="middle" x="357" y="-119.5" font-family="Helvetica,sans-Serif" font-size="10.00">Keccak_256_cryptopp.h</text>
</a>
</g>
</g>
<!-- Node1&#45;&gt;Node9 -->
<g id="edge9" class="edge">
<title>Node1&#45;&gt;Node9</title>
<path fill="none" stroke="midnightblue" d="M1214.01,-173.09C1041.14,-162.98 582.01,-136.15 417.06,-126.51"/>
<polygon fill="midnightblue" stroke="midnightblue" points="1214.06,-176.59 1224.24,-173.68 1214.47,-169.61 1214.06,-176.59"/>
</g>
<!-- Node10 -->
<g id="node10" class="node">
<title>Node10</title>
<g id="a_node10"><a xlink:href="../../d5/dc4/_keccak__256__cryptopp_8cc.html" target="_top" xlink:title=" ">
<polygon fill="white" stroke="black" points="358.5,-56.5 358.5,-75.5 483.5,-75.5 483.5,-56.5 358.5,-56.5"/>
<text text-anchor="middle" x="421" y="-63.5" font-family="Helvetica,sans-Serif" font-size="10.00">Keccak_256_cryptopp.cc</text>
</a>
</g>
</g>
<!-- Node1&#45;&gt;Node10 -->
<g id="edge15" class="edge">
<title>Node1&#45;&gt;Node10</title>
<path fill="none" stroke="midnightblue" d="M1214.18,-177.05C1097.11,-176.09 847.68,-169.34 641,-132 567.32,-118.69 483.21,-89.87 443.72,-75.5"/>
<polygon fill="midnightblue" stroke="midnightblue" points="1214.39,-180.55 1224.42,-177.12 1214.44,-173.55 1214.39,-180.55"/>
</g>
<!-- Node14 -->
<g id="node14" class="node">
<title>Node14</title>
<g id="a_node14"><a xlink:href="../../d4/d13/_r_i_p_e_m_d160__cryptopp_8h.html" target="_top" xlink:title=" ">
<polygon fill="white" stroke="black" points="760.5,-112.5 760.5,-131.5 879.5,-131.5 879.5,-112.5 760.5,-112.5"/>
<text text-anchor="middle" x="820" y="-119.5" font-family="Helvetica,sans-Serif" font-size="10.00">RIPEMD160_cryptopp.h</text>
</a>
</g>
</g>
<!-- Node1&#45;&gt;Node14 -->
<g id="edge16" class="edge">
<title>Node1&#45;&gt;Node14</title>
<path fill="none" stroke="midnightblue" d="M1214.14,-169.71C1135.91,-161.09 1002.48,-146.13 888,-132 885.28,-131.66 882.5,-131.32 879.7,-130.96"/>
<polygon fill="midnightblue" stroke="midnightblue" points="1214.02,-173.21 1224.34,-170.83 1214.79,-166.26 1214.02,-173.21"/>
</g>
<!-- Node15 -->
<g id="node15" class="node">
<title>Node15</title>
<g id="a_node15"><a xlink:href="../../d2/de0/_r_i_p_e_m_d160__cryptopp_8cc.html" target="_top" xlink:title=" ">
<polygon fill="white" stroke="black" points="786.5,-56.5 786.5,-75.5 911.5,-75.5 911.5,-56.5 786.5,-56.5"/>
<text text-anchor="middle" x="849" y="-63.5" font-family="Helvetica,sans-Serif" font-size="10.00">RIPEMD160_cryptopp.cc</text>
</a>
</g>
</g>
<!-- Node1&#45;&gt;Node15 -->
<g id="edge19" class="edge">
<title>Node1&#45;&gt;Node15</title>
<path fill="none" stroke="midnightblue" d="M1214.16,-176.26C1078.65,-174.07 781.75,-165.47 751,-132 727.59,-106.52 778.14,-86.28 814.98,-75.52"/>
<polygon fill="midnightblue" stroke="midnightblue" points="1214.36,-179.77 1224.41,-176.42 1214.47,-172.77 1214.36,-179.77"/>
</g>
<!-- Node16 -->
<g id="node16" class="node">
<title>Node16</title>
<g id="a_node16"><a xlink:href="../../d4/d75/_s_h_a256__cryptopp_8h.html" target="_top" xlink:title=" ">
<polygon fill="white" stroke="black" points="897.5,-112.5 897.5,-131.5 1000.5,-131.5 1000.5,-112.5 897.5,-112.5"/>
<text text-anchor="middle" x="949" y="-119.5" font-family="Helvetica,sans-Serif" font-size="10.00">SHA256_cryptopp.h</text>
</a>
</g>
</g>
<!-- Node1&#45;&gt;Node16 -->
<g id="edge20" class="edge">
<title>Node1&#45;&gt;Node16</title>
<path fill="none" stroke="midnightblue" d="M1218.19,-166.78C1155.16,-156.53 1059.24,-140.93 1000.54,-131.38"/>
<polygon fill="midnightblue" stroke="midnightblue" points="1217.96,-170.29 1228.39,-168.44 1219.09,-163.38 1217.96,-170.29"/>
</g>
<!-- Node17 -->
<g id="node17" class="node">
<title>Node17</title>
<g id="a_node17"><a xlink:href="../../d1/d60/_s_h_a256__cryptopp_8cc.html" target="_top" xlink:title=" ">
<polygon fill="white" stroke="black" points="1029,-56.5 1029,-75.5 1137,-75.5 1137,-56.5 1029,-56.5"/>
<text text-anchor="middle" x="1083" y="-63.5" font-family="Helvetica,sans-Serif" font-size="10.00">SHA256_cryptopp.cc</text>
</a>
</g>
</g>
<!-- Node1&#45;&gt;Node17 -->
<g id="edge23" class="edge">
<title>Node1&#45;&gt;Node17</title>
<path fill="none" stroke="midnightblue" d="M1280.04,-158.12C1278.29,-143.55 1273.56,-123.94 1261,-112 1243.27,-95.15 1182.8,-82.33 1137.23,-74.76"/>
<polygon fill="midnightblue" stroke="midnightblue" points="1276.59,-158.79 1280.9,-168.47 1283.56,-158.22 1276.59,-158.79"/>
</g>
<!-- Node18 -->
<g id="node18" class="node">
<title>Node18</title>
<g id="a_node18"><a xlink:href="../../d3/d0d/_s_h_a3__256__cryptopp_8h.html" target="_top" xlink:title=" ">
<polygon fill="white" stroke="black" points="1018.5,-112.5 1018.5,-131.5 1131.5,-131.5 1131.5,-112.5 1018.5,-112.5"/>
<text text-anchor="middle" x="1075" y="-119.5" font-family="Helvetica,sans-Serif" font-size="10.00">SHA3_256_cryptopp.h</text>
</a>
</g>
</g>
<!-- Node1&#45;&gt;Node18 -->
<g id="edge24" class="edge">
<title>Node1&#45;&gt;Node18</title>
<path fill="none" stroke="midnightblue" d="M1238.38,-165.83C1199.49,-155.63 1142.84,-140.78 1107.49,-131.52"/>
<polygon fill="midnightblue" stroke="midnightblue" points="1237.8,-169.29 1248.36,-168.44 1239.57,-162.52 1237.8,-169.29"/>
</g>
<!-- Node19 -->
<g id="node19" class="node">
<title>Node19</title>
<g id="a_node19"><a xlink:href="../../dd/dc0/_s_h_a3__256__cryptopp_8cc.html" target="_top" xlink:title=" ">
<polygon fill="white" stroke="black" points="1161.5,-56.5 1161.5,-75.5 1280.5,-75.5 1280.5,-56.5 1161.5,-56.5"/>
<text text-anchor="middle" x="1221" y="-63.5" font-family="Helvetica,sans-Serif" font-size="10.00">SHA3_256_cryptopp.cc</text>
</a>
</g>
</g>
<!-- Node1&#45;&gt;Node19 -->
<g id="edge27" class="edge">
<title>Node1&#45;&gt;Node19</title>
<path fill="none" stroke="midnightblue" d="M1291.05,-159.57C1297.51,-145.88 1303.29,-126.74 1295,-112 1284.98,-94.18 1264.72,-82.59 1247.93,-75.64"/>
<polygon fill="midnightblue" stroke="midnightblue" points="1287.95,-157.95 1286.41,-168.44 1294.15,-161.2 1287.95,-157.95"/>
</g>
<!-- Node20 -->
<g id="node20" class="node">
<title>Node20</title>
<g id="a_node20"><a xlink:href="../../d0/d4e/_s_h_a512__cryptopp_8h.html" target="_top" xlink:title=" ">
<polygon fill="white" stroke="black" points="1149.5,-112.5 1149.5,-131.5 1252.5,-131.5 1252.5,-112.5 1149.5,-112.5"/>
<text text-anchor="middle" x="1201" y="-119.5" font-family="Helvetica,sans-Serif" font-size="10.00">SHA512_cryptopp.h</text>
</a>
</g>
</g>
<!-- Node1&#45;&gt;Node20 -->
<g id="edge28" class="edge">
<title>Node1&#45;&gt;Node20</title>
<path fill="none" stroke="midnightblue" d="M1259.7,-162.62C1245.08,-152.76 1226.17,-139.99 1213.82,-131.65"/>
<polygon fill="midnightblue" stroke="midnightblue" points="1257.9,-165.63 1268.15,-168.32 1261.82,-159.83 1257.9,-165.63"/>
</g>
<!-- Node21 -->
<g id="node21" class="node">
<title>Node21</title>
<g id="a_node21"><a xlink:href="../../dc/d9d/_s_h_a512__cryptopp_8cc.html" target="_top" xlink:title=" ">
<polygon fill="white" stroke="black" points="1302,-56.5 1302,-75.5 1410,-75.5 1410,-56.5 1302,-56.5"/>
<text text-anchor="middle" x="1356" y="-63.5" font-family="Helvetica,sans-Serif" font-size="10.00">SHA512_cryptopp.cc</text>
</a>
</g>
</g>
<!-- Node1&#45;&gt;Node21 -->
<g id="edge31" class="edge">
<title>Node1&#45;&gt;Node21</title>
<path fill="none" stroke="midnightblue" d="M1292.67,-160.13C1298.49,-151.7 1305.64,-141.32 1312,-132 1325.68,-111.97 1341.61,-88.37 1350.04,-75.85"/>
<polygon fill="midnightblue" stroke="midnightblue" points="1289.77,-158.17 1286.96,-168.39 1295.53,-162.15 1289.77,-158.17"/>
</g>
<!-- Node22 -->
<g id="node22" class="node">
<title>Node22</title>
<g id="a_node22"><a xlink:href="../../d8/d0d/hash__transformation_8cc.html" target="_top" xlink:title=" ">
<polygon fill="white" stroke="black" points="1385,-112.5 1385,-131.5 1503,-131.5 1503,-112.5 1385,-112.5"/>
<text text-anchor="middle" x="1444" y="-119.5" font-family="Helvetica,sans-Serif" font-size="10.00">hash_transformation.cc</text>
</a>
</g>
</g>
<!-- Node1&#45;&gt;Node22 -->
<g id="edge32" class="edge">
<title>Node1&#45;&gt;Node22</title>
<path fill="none" stroke="midnightblue" d="M1316.7,-165.17C1347.4,-155 1390.92,-140.59 1418.29,-131.52"/>
<polygon fill="midnightblue" stroke="midnightblue" points="1315.22,-161.98 1306.83,-168.44 1317.42,-168.62 1315.22,-161.98"/>
</g>
<!-- Node23 -->
<g id="node23" class="node">
<title>Node23</title>
<g id="a_node23"><a xlink:href="../../d1/d0c/dummy__state_8h.html" target="_top" xlink:title=" ">
<polygon fill="white" stroke="black" points="1521.5,-112.5 1521.5,-131.5 1604.5,-131.5 1604.5,-112.5 1521.5,-112.5"/>
<text text-anchor="middle" x="1563" y="-119.5" font-family="Helvetica,sans-Serif" font-size="10.00">dummy_state.h</text>
</a>
</g>
</g>
<!-- Node1&#45;&gt;Node23 -->
<g id="edge33" class="edge">
<title>Node1&#45;&gt;Node23</title>
<path fill="none" stroke="midnightblue" d="M1335.82,-166.5C1390.12,-156.1 1472.08,-140.41 1521.28,-130.99"/>
<polygon fill="midnightblue" stroke="midnightblue" points="1334.85,-163.13 1325.68,-168.44 1336.16,-170 1334.85,-163.13"/>
</g>
<!-- Node25 -->
<g id="node25" class="node">
<title>Node25</title>
<g id="a_node25"><a xlink:href="../../d6/d0a/state__impl_8h.html" target="_top" xlink:title=" ">
<polygon fill="white" stroke="black" points="1622.5,-112.5 1622.5,-131.5 1691.5,-131.5 1691.5,-112.5 1622.5,-112.5"/>
<text text-anchor="middle" x="1657" y="-119.5" font-family="Helvetica,sans-Serif" font-size="10.00">state_impl.h</text>
</a>
</g>
</g>
<!-- Node1&#45;&gt;Node25 -->
<g id="edge35" class="edge">
<title>Node1&#45;&gt;Node25</title>
<path fill="none" stroke="midnightblue" d="M1347.6,-169.31C1414.77,-161.23 1521.36,-147.56 1613,-132 1616.07,-131.48 1619.26,-130.9 1622.45,-130.29"/>
<polygon fill="midnightblue" stroke="midnightblue" points="1347.08,-165.84 1337.57,-170.5 1347.91,-172.79 1347.08,-165.84"/>
</g>
<!-- Node26 -->
<g id="node26" class="node">
<title>Node26</title>
<g id="a_node26"><a xlink:href="../../da/dd0/state__impl_8cc.html" target="_top" xlink:title=" ">
<polygon fill="white" stroke="black" points="1654,-56.5 1654,-75.5 1728,-75.5 1728,-56.5 1654,-56.5"/>
<text text-anchor="middle" x="1691" y="-63.5" font-family="Helvetica,sans-Serif" font-size="10.00">state_impl.cc</text>
</a>
</g>
</g>
<!-- Node1&#45;&gt;Node26 -->
<g id="edge37" class="edge">
<title>Node1&#45;&gt;Node26</title>
<path fill="none" stroke="midnightblue" d="M1348.02,-174.62C1460.42,-169.94 1676.95,-157.66 1700,-132 1714.01,-116.41 1703.23,-89.65 1696.06,-75.83"/>
<polygon fill="midnightblue" stroke="midnightblue" points="1347.66,-171.13 1337.81,-175.04 1347.94,-178.13 1347.66,-171.13"/>
</g>
<!-- Node27 -->
<g id="node27" class="node">
<title>Node27</title>
<g id="a_node27"><a xlink:href="../../da/db5/state__persistent_8h.html" target="_top" xlink:title=" ">
<polygon fill="white" stroke="black" points="1748,-112.5 1748,-131.5 1842,-131.5 1842,-112.5 1748,-112.5"/>
<text text-anchor="middle" x="1795" y="-119.5" font-family="Helvetica,sans-Serif" font-size="10.00">state_persistent.h</text>
</a>
</g>
</g>
<!-- Node1&#45;&gt;Node27 -->
<g id="edge38" class="edge">
<title>Node1&#45;&gt;Node27</title>
<path fill="none" stroke="midnightblue" d="M1347.75,-171.37C1436.21,-163.68 1597.06,-148.89 1734,-132 1738.46,-131.45 1743.1,-130.84 1747.74,-130.2"/>
<polygon fill="midnightblue" stroke="midnightblue" points="1347.25,-167.9 1337.59,-172.25 1347.86,-174.87 1347.25,-167.9"/>
</g>
<!-- Node28 -->
<g id="node28" class="node">
<title>Node28</title>
<g id="a_node28"><a xlink:href="../../d1/d67/state__persistent_8cc.html" target="_top" xlink:title=" ">
<polygon fill="white" stroke="black" points="1798.5,-56.5 1798.5,-75.5 1897.5,-75.5 1897.5,-56.5 1798.5,-56.5"/>
<text text-anchor="middle" x="1848" y="-63.5" font-family="Helvetica,sans-Serif" font-size="10.00">state_persistent.cc</text>
</a>
</g>
</g>
<!-- Node1&#45;&gt;Node28 -->
<g id="edge40" class="edge">
<title>Node1&#45;&gt;Node28</title>
<path fill="none" stroke="midnightblue" d="M1348.16,-176.7C1491.58,-175.34 1817.48,-168.27 1851,-132 1865.11,-116.73 1857.39,-89.83 1851.93,-75.91"/>
<polygon fill="midnightblue" stroke="midnightblue" points="1347.72,-173.2 1337.75,-176.79 1347.78,-180.2 1347.72,-173.2"/>
</g>
<!-- Node3 -->
<g id="node3" class="node">
<title>Node3</title>
<g id="a_node3"><a xlink:href="../../d9/d5a/lua__node_8h.html" target="_top" xlink:title=" ">
<polygon fill="white" stroke="black" points="705.5,-56.5 705.5,-75.5 768.5,-75.5 768.5,-56.5 705.5,-56.5"/>
<text text-anchor="middle" x="737" y="-63.5" font-family="Helvetica,sans-Serif" font-size="10.00">lua_node.h</text>
</a>
</g>
</g>
<!-- Node2&#45;&gt;Node3 -->
<g id="edge2" class="edge">
<title>Node2&#45;&gt;Node3</title>
<path fill="none" stroke="midnightblue" d="M694.18,-105.54C704.88,-95.91 718.26,-83.87 727.18,-75.83"/>
<polygon fill="midnightblue" stroke="midnightblue" points="691.73,-103.03 686.64,-112.32 696.41,-108.24 691.73,-103.03"/>
</g>
<!-- Node4 -->
<g id="node4" class="node">
<title>Node4</title>
<g id="a_node4"><a xlink:href="../../dd/de7/core_8cc.html" target="_top" xlink:title=" ">
<polygon fill="white" stroke="black" points="653,-0.5 653,-19.5 701,-19.5 701,-0.5 653,-0.5"/>
<text text-anchor="middle" x="677" y="-7.5" font-family="Helvetica,sans-Serif" font-size="10.00">core.cc</text>
</a>
</g>
</g>
<!-- Node2&#45;&gt;Node4 -->
<g id="edge5" class="edge">
<title>Node2&#45;&gt;Node4</title>
<path fill="none" stroke="midnightblue" d="M677,-102.35C677,-78.25 677,-37.31 677,-19.59"/>
<polygon fill="midnightblue" stroke="midnightblue" points="673.5,-102.37 677,-112.37 680.5,-102.37 673.5,-102.37"/>
</g>
<!-- Node6 -->
<g id="node6" class="node">
<title>Node6</title>
<g id="a_node6"><a xlink:href="../../df/de4/bind__crypto_8cc.html" target="_top" xlink:title=" ">
<polygon fill="white" stroke="black" points="929.5,-56.5 929.5,-75.5 1008.5,-75.5 1008.5,-56.5 929.5,-56.5"/>
<text text-anchor="middle" x="969" y="-63.5" font-family="Helvetica,sans-Serif" font-size="10.00">bind_crypto.cc</text>
</a>
</g>
</g>
<!-- Node2&#45;&gt;Node6 -->
<g id="edge6" class="edge">
<title>Node2&#45;&gt;Node6</title>
<path fill="none" stroke="midnightblue" d="M713.7,-114.21C768.76,-104.03 872.31,-84.88 929.15,-74.37"/>
<polygon fill="midnightblue" stroke="midnightblue" points="712.88,-110.8 703.69,-116.06 714.16,-117.69 712.88,-110.8"/>
</g>
<!-- Node7 -->
<g id="node7" class="node">
<title>Node7</title>
<g id="a_node7"><a xlink:href="../../d8/dd3/bind__data_8cc.html" target="_top" xlink:title=" ">
<polygon fill="white" stroke="black" points="501.5,-56.5 501.5,-75.5 572.5,-75.5 572.5,-56.5 501.5,-56.5"/>
<text text-anchor="middle" x="537" y="-63.5" font-family="Helvetica,sans-Serif" font-size="10.00">bind_data.cc</text>
</a>
</g>
</g>
<!-- Node2&#45;&gt;Node7 -->
<g id="edge7" class="edge">
<title>Node2&#45;&gt;Node7</title>
<path fill="none" stroke="midnightblue" d="M645.3,-108.77C619,-98.63 582.28,-84.47 559.08,-75.52"/>
<polygon fill="midnightblue" stroke="midnightblue" points="644.23,-112.11 654.82,-112.44 646.75,-105.58 644.23,-112.11"/>
</g>
<!-- Node8 -->
<g id="node8" class="node">
<title>Node8</title>
<g id="a_node8"><a xlink:href="../../db/d7f/engine_8cc.html" target="_top" xlink:title=" ">
<polygon fill="white" stroke="black" points="591,-56.5 591,-75.5 649,-75.5 649,-56.5 591,-56.5"/>
<text text-anchor="middle" x="620" y="-63.5" font-family="Helvetica,sans-Serif" font-size="10.00">engine.cc</text>
</a>
</g>
</g>
<!-- Node2&#45;&gt;Node8 -->
<g id="edge8" class="edge">
<title>Node2&#45;&gt;Node8</title>
<path fill="none" stroke="midnightblue" d="M660.38,-105.25C650.27,-95.67 637.72,-83.79 629.32,-75.83"/>
<polygon fill="midnightblue" stroke="midnightblue" points="658.18,-107.99 667.84,-112.32 662.99,-102.91 658.18,-107.99"/>
</g>
<!-- Node3&#45;&gt;Node4 -->
<g id="edge3" class="edge">
<title>Node3&#45;&gt;Node4</title>
<path fill="none" stroke="midnightblue" d="M719.82,-49.54C709.12,-39.91 695.74,-27.87 686.82,-19.83"/>
<polygon fill="midnightblue" stroke="midnightblue" points="717.59,-52.24 727.36,-56.32 722.27,-47.03 717.59,-52.24"/>
</g>
<!-- Node5 -->
<g id="node5" class="node">
<title>Node5</title>
<g id="a_node5"><a xlink:href="../../db/d7e/lua__node_8cc.html" target="_top" xlink:title=" ">
<polygon fill="white" stroke="black" points="719,-0.5 719,-19.5 787,-19.5 787,-0.5 719,-0.5"/>
<text text-anchor="middle" x="753" y="-7.5" font-family="Helvetica,sans-Serif" font-size="10.00">lua_node.cc</text>
</a>
</g>
</g>
<!-- Node3&#45;&gt;Node5 -->
<g id="edge4" class="edge">
<title>Node3&#45;&gt;Node5</title>
<path fill="none" stroke="midnightblue" d="M742.51,-46.4C745.19,-37.36 748.28,-26.94 750.41,-19.75"/>
<polygon fill="midnightblue" stroke="midnightblue" points="739.13,-45.5 739.64,-56.08 745.84,-47.49 739.13,-45.5"/>
</g>
<!-- Node9&#45;&gt;Node6 -->
<g id="edge14" class="edge">
<title>Node9&#45;&gt;Node6</title>
<path fill="none" stroke="midnightblue" d="M427.21,-117.69C533.98,-112.14 743.41,-99.21 920,-76 923.09,-75.59 926.28,-75.12 929.47,-74.62"/>
<polygon fill="midnightblue" stroke="midnightblue" points="427.01,-114.2 417.2,-118.21 427.37,-121.19 427.01,-114.2"/>
</g>
<!-- Node9&#45;&gt;Node10 -->
<g id="edge10" class="edge">
<title>Node9&#45;&gt;Node10</title>
<path fill="none" stroke="midnightblue" d="M374.99,-105.82C386.46,-96.15 400.91,-83.95 410.53,-75.83"/>
<polygon fill="midnightblue" stroke="midnightblue" points="372.67,-103.2 367.28,-112.32 377.18,-108.55 372.67,-103.2"/>
</g>
<!-- Node11 -->
<g id="node11" class="node">
<title>Node11</title>
<g id="a_node11"><a xlink:href="../../d8/da6/eth__contract__curl_8cc.html" target="_top" xlink:title=" ">
<polygon fill="white" stroke="black" points="0,-56.5 0,-75.5 104,-75.5 104,-56.5 0,-56.5"/>
<text text-anchor="middle" x="52" y="-63.5" font-family="Helvetica,sans-Serif" font-size="10.00">eth_contract_curl.cc</text>
</a>
</g>
</g>
<!-- Node9&#45;&gt;Node11 -->
<g id="edge11" class="edge">
<title>Node9&#45;&gt;Node11</title>
<path fill="none" stroke="midnightblue" d="M298.62,-110.66C240.98,-100.46 153.88,-85.04 100.1,-75.52"/>
<polygon fill="midnightblue" stroke="midnightblue" points="298.21,-114.15 308.67,-112.44 299.44,-107.25 298.21,-114.15"/>
</g>
<!-- Node12 -->
<g id="node12" class="node">
<title>Node12</title>
<g id="a_node12"><a xlink:href="../../d2/d4b/eth__contract__raw_8cc.html" target="_top" xlink:title=" ">
<polygon fill="white" stroke="black" points="122,-56.5 122,-75.5 226,-75.5 226,-56.5 122,-56.5"/>
<text text-anchor="middle" x="174" y="-63.5" font-family="Helvetica,sans-Serif" font-size="10.00">eth_contract_raw.cc</text>
</a>
</g>
</g>
<!-- Node9&#45;&gt;Node12 -->
<g id="edge12" class="edge">
<title>Node9&#45;&gt;Node12</title>
<path fill="none" stroke="midnightblue" d="M318.26,-109.57C283.74,-99.38 233.99,-84.7 202.86,-75.52"/>
<polygon fill="midnightblue" stroke="midnightblue" points="317.42,-112.97 328,-112.44 319.4,-106.26 317.42,-112.97"/>
</g>
<!-- Node13 -->
<g id="node13" class="node">
<title>Node13</title>
<g id="a_node13"><a xlink:href="../../da/d5c/eth__transaction_8cc.html" target="_top" xlink:title=" ">
<polygon fill="white" stroke="black" points="244,-56.5 244,-75.5 340,-75.5 340,-56.5 244,-56.5"/>
<text text-anchor="middle" x="292" y="-63.5" font-family="Helvetica,sans-Serif" font-size="10.00">eth_transaction.cc</text>
</a>
</g>
</g>
<!-- Node9&#45;&gt;Node13 -->
<g id="edge13" class="edge">
<title>Node9&#45;&gt;Node13</title>
<path fill="none" stroke="midnightblue" d="M338.73,-105.82C327.08,-96.15 312.4,-83.95 302.63,-75.83"/>
<polygon fill="midnightblue" stroke="midnightblue" points="336.63,-108.63 346.56,-112.32 341.1,-103.24 336.63,-108.63"/>
</g>
<!-- Node14&#45;&gt;Node6 -->
<g id="edge18" class="edge">
<title>Node14&#45;&gt;Node6</title>
<path fill="none" stroke="midnightblue" d="M853.37,-108.91C881.38,-98.75 920.7,-84.51 945.5,-75.52"/>
<polygon fill="midnightblue" stroke="midnightblue" points="851.82,-105.75 843.61,-112.44 854.2,-112.33 851.82,-105.75"/>
</g>
<!-- Node14&#45;&gt;Node15 -->
<g id="edge17" class="edge">
<title>Node14&#45;&gt;Node15</title>
<path fill="none" stroke="midnightblue" d="M829.68,-102.98C834.6,-93.82 840.36,-83.09 844.3,-75.75"/>
<polygon fill="midnightblue" stroke="midnightblue" points="826.44,-101.62 824.79,-112.08 832.6,-104.93 826.44,-101.62"/>
</g>
<!-- Node16&#45;&gt;Node6 -->
<g id="edge22" class="edge">
<title>Node16&#45;&gt;Node6</title>
<path fill="none" stroke="midnightblue" d="M955.78,-102.69C959.15,-93.59 963.07,-83.01 965.76,-75.75"/>
<polygon fill="midnightblue" stroke="midnightblue" points="952.49,-101.49 952.3,-112.08 959.06,-103.92 952.49,-101.49"/>
</g>
<!-- Node16&#45;&gt;Node17 -->
<g id="edge21" class="edge">
<title>Node16&#45;&gt;Node17</title>
<path fill="none" stroke="midnightblue" d="M979.68,-108.64C1004.82,-98.5 1039.75,-84.43 1061.87,-75.52"/>
<polygon fill="midnightblue" stroke="midnightblue" points="978.2,-105.46 970.23,-112.44 980.82,-111.95 978.2,-105.46"/>
</g>
<!-- Node18&#45;&gt;Node6 -->
<g id="edge26" class="edge">
<title>Node18&#45;&gt;Node6</title>
<path fill="none" stroke="midnightblue" d="M1048.94,-107.73C1029.32,-97.73 1002.97,-84.31 985.99,-75.65"/>
<polygon fill="midnightblue" stroke="midnightblue" points="1047.47,-110.9 1057.97,-112.32 1050.65,-104.67 1047.47,-110.9"/>
</g>
<!-- Node18&#45;&gt;Node19 -->
<g id="edge25" class="edge">
<title>Node18&#45;&gt;Node19</title>
<path fill="none" stroke="midnightblue" d="M1107.7,-108.91C1135.15,-98.75 1173.67,-84.51 1197.97,-75.52"/>
<polygon fill="midnightblue" stroke="midnightblue" points="1106.3,-105.69 1098.13,-112.44 1108.73,-112.26 1106.3,-105.69"/>
</g>
<!-- Node20&#45;&gt;Node6 -->
<g id="edge30" class="edge">
<title>Node20&#45;&gt;Node6</title>
<path fill="none" stroke="midnightblue" d="M1154.4,-110.15C1110.56,-99.95 1045.82,-84.88 1005.59,-75.52"/>
<polygon fill="midnightblue" stroke="midnightblue" points="1153.71,-113.59 1164.24,-112.44 1155.29,-106.77 1153.71,-113.59"/>
</g>
<!-- Node20&#45;&gt;Node21 -->
<g id="edge29" class="edge">
<title>Node20&#45;&gt;Node21</title>
<path fill="none" stroke="midnightblue" d="M1235.33,-109.04C1264.5,-98.88 1305.64,-84.55 1331.55,-75.52"/>
<polygon fill="midnightblue" stroke="midnightblue" points="1233.85,-105.85 1225.56,-112.44 1236.16,-112.46 1233.85,-105.85"/>
</g>
<!-- Node24 -->
<g id="node24" class="node">
<title>Node24</title>
<g id="a_node24"><a xlink:href="../../d8/d00/dummy__state_8cc.html" target="_top" xlink:title=" ">
<polygon fill="white" stroke="black" points="1519,-56.5 1519,-75.5 1607,-75.5 1607,-56.5 1519,-56.5"/>
<text text-anchor="middle" x="1563" y="-63.5" font-family="Helvetica,sans-Serif" font-size="10.00">dummy_state.cc</text>
</a>
</g>
</g>
<!-- Node23&#45;&gt;Node24 -->
<g id="edge34" class="edge">
<title>Node23&#45;&gt;Node24</title>
<path fill="none" stroke="midnightblue" d="M1563,-101.8C1563,-92.91 1563,-82.78 1563,-75.75"/>
<polygon fill="midnightblue" stroke="midnightblue" points="1559.5,-102.08 1563,-112.08 1566.5,-102.08 1559.5,-102.08"/>
</g>
<!-- Node25&#45;&gt;Node26 -->
<g id="edge36" class="edge">
<title>Node25&#45;&gt;Node26</title>
<path fill="none" stroke="midnightblue" d="M1667.98,-103.57C1673.83,-94.27 1680.77,-83.25 1685.49,-75.75"/>
<polygon fill="midnightblue" stroke="midnightblue" points="1664.98,-101.76 1662.61,-112.08 1670.9,-105.49 1664.98,-101.76"/>
</g>
<!-- Node27&#45;&gt;Node28 -->
<g id="edge39" class="edge">
<title>Node27&#45;&gt;Node28</title>
<path fill="none" stroke="midnightblue" d="M1810.98,-104.72C1820.32,-95.2 1831.75,-83.56 1839.41,-75.75"/>
<polygon fill="midnightblue" stroke="midnightblue" points="1808.26,-102.49 1803.75,-112.08 1813.25,-107.4 1808.26,-102.49"/>
</g>
</g>
</svg>
