<?xml version="1.0" encoding="UTF-8" standalone="no"?>
<!DOCTYPE svg PUBLIC "-//W3C//DTD SVG 1.1//EN"
 "http://www.w3.org/Graphics/SVG/1.1/DTD/svg11.dtd">
<!-- Generated by graphviz version 2.44.0 ()
 -->
<!-- Title: hash_transformation.h Pages: 1 -->
<!--zoomable 196 -->
<svg id="main" version="1.1" xmlns="http://www.w3.org/2000/svg" xmlns:xlink="http://www.w3.org/1999/xlink" xml:space="preserve" onload="init(evt)">
<style type="text/css"><![CDATA[
.edge:hover path { stroke: red; }
.edge:hover polygon { stroke: red; fill: red; }
]]></style>
<script type="text/javascript"><![CDATA[
var edges = document.getElementsByTagName('g');
if (edges && edges.length) {
  for (var i=0;i<edges.length;i++) {
    if (edges[i].id.substr(0,4)=='edge') {
      edges[i].setAttribute('class','edge');
    }
  }
}
]]></script>
        <defs>
                <circle id="rim" cx="0" cy="0" r="7"/>
                <circle id="rim2" cx="0" cy="0" r="3.5"/>
                <g id="zoomPlus">
                        <use xlink:href="#rim" fill="#404040">
                                <set attributeName="fill" to="#808080" begin="zoomplus.mouseover" end="zoomplus.mouseout"/>
                        </use>
                        <path d="M-4,0h8M0,-4v8" fill="none" stroke="white" stroke-width="1.5" pointer-events="none"/>
                </g>
                <g id="zoomMin">
                        <use xlink:href="#rim" fill="#404040">
                                <set attributeName="fill" to="#808080" begin="zoomminus.mouseover" end="zoomminus.mouseout"/>
                        </use>
                        <path d="M-4,0h8" fill="none" stroke="white" stroke-width="1.5" pointer-events="none"/>
                </g>
                <g id="dirArrow">
                        <path fill="none" stroke="white" stroke-width="1.5" d="M0,-3.0v7 M-2.5,-0.5L0,-3.0L2.5,-0.5"/>
                </g>
               <g id="resetDef">
                       <use xlink:href="#rim2" fill="#404040">
                               <set attributeName="fill" to="#808080" begin="reset.mouseover" end="reset.mouseout"/>
                       </use>
               </g>
        </defs>

<script type="text/javascript">
var viewWidth = 1658;
var viewHeight = 196;
var sectionId = 'dynsection-1';
</script>
<script xlink:href="../../svgpan.js"/>
<svg id="graph" class="graph">
<g id="viewport">
<title>hash_transformation.h</title>
<polygon fill="white" stroke="transparent" points="-4,4 -4,-192 1654,-192 1654,4 -4,4"/>
<!-- Node1 -->
<g id="node1" class="node">
<title>Node1</title>
<g id="a_node1"><a xlink:title=" ">
<polygon fill="#bfbfbf" stroke="black" points="949,-168.5 949,-187.5 1062,-187.5 1062,-168.5 949,-168.5"/>
<text text-anchor="middle" x="1005.5" y="-175.5" font-family="Helvetica,sans-Serif" font-size="10.00">hash_transformation.h</text>
</a>
</g>
</g>
<!-- Node2 -->
<g id="node2" class="node">
<title>Node2</title>
<g id="a_node2"><a xlink:href="../../d5/dc4/_keccak__256__cryptopp_8cc.html" target="_top" xlink:title=" ">
<polygon fill="white" stroke="black" points="0,-56.5 0,-75.5 125,-75.5 125,-56.5 0,-56.5"/>
<text text-anchor="middle" x="62.5" y="-63.5" font-family="Helvetica,sans-Serif" font-size="10.00">Keccak_256_cryptopp.cc</text>
</a>
</g>
</g>
<!-- Node1&#45;&gt;Node2 -->
<g id="edge1" class="edge">
<title>Node1&#45;&gt;Node2</title>
<path fill="none" stroke="midnightblue" d="M938.88,-175.2C781.05,-170.59 387.86,-156.91 258.5,-132 192.14,-119.22 117.24,-90.02 82.35,-75.51"/>
<polygon fill="midnightblue" stroke="midnightblue" points="938.84,-178.7 948.93,-175.49 939.04,-171.71 938.84,-178.7"/>
</g>
<!-- Node3 -->
<g id="node3" class="node">
<title>Node3</title>
<g id="a_node3"><a xlink:href="../../da/d44/_keccak__256__cryptopp_8h.html" target="_top" xlink:title=" ">
<polygon fill="white" stroke="black" points="267.5,-112.5 267.5,-131.5 387.5,-131.5 387.5,-112.5 267.5,-112.5"/>
<text text-anchor="middle" x="327.5" y="-119.5" font-family="Helvetica,sans-Serif" font-size="10.00">Keccak_256_cryptopp.h</text>
</a>
</g>
</g>
<!-- Node1&#45;&gt;Node3 -->
<g id="edge2" class="edge">
<title>Node1&#45;&gt;Node3</title>
<path fill="none" stroke="midnightblue" d="M938.94,-172.97C827.87,-166.03 597.73,-150.75 403.5,-132 398.34,-131.5 392.99,-130.95 387.63,-130.36"/>
<polygon fill="midnightblue" stroke="midnightblue" points="938.79,-176.47 948.99,-173.59 939.23,-169.48 938.79,-176.47"/>
</g>
<!-- Node10 -->
<g id="node10" class="node">
<title>Node10</title>
<g id="a_node10"><a xlink:href="../../d2/de0/_r_i_p_e_m_d160__cryptopp_8cc.html" target="_top" xlink:title=" ">
<polygon fill="white" stroke="black" points="398,-56.5 398,-75.5 523,-75.5 523,-56.5 398,-56.5"/>
<text text-anchor="middle" x="460.5" y="-63.5" font-family="Helvetica,sans-Serif" font-size="10.00">RIPEMD160_cryptopp.cc</text>
</a>
</g>
</g>
<!-- Node1&#45;&gt;Node10 -->
<g id="edge10" class="edge">
<title>Node1&#45;&gt;Node10</title>
<path fill="none" stroke="midnightblue" d="M938.45,-176.69C795.29,-175.32 469.96,-168.21 436.5,-132 421.48,-115.74 440.45,-89.28 452.31,-75.67"/>
<polygon fill="midnightblue" stroke="midnightblue" points="938.82,-180.19 948.85,-176.78 938.88,-173.19 938.82,-180.19"/>
</g>
<!-- Node11 -->
<g id="node11" class="node">
<title>Node11</title>
<g id="a_node11"><a xlink:href="../../d4/d13/_r_i_p_e_m_d160__cryptopp_8h.html" target="_top" xlink:title=" ">
<polygon fill="white" stroke="black" points="446,-112.5 446,-131.5 565,-131.5 565,-112.5 446,-112.5"/>
<text text-anchor="middle" x="505.5" y="-119.5" font-family="Helvetica,sans-Serif" font-size="10.00">RIPEMD160_cryptopp.h</text>
</a>
</g>
</g>
<!-- Node1&#45;&gt;Node11 -->
<g id="edge11" class="edge">
<title>Node1&#45;&gt;Node11</title>
<path fill="none" stroke="midnightblue" d="M938.81,-170.28C854.92,-161.76 706.47,-146.43 579.5,-132 574.87,-131.47 570.08,-130.92 565.26,-130.35"/>
<polygon fill="midnightblue" stroke="midnightblue" points="938.66,-173.79 948.96,-171.31 939.37,-166.82 938.66,-173.79"/>
</g>
<!-- Node12 -->
<g id="node12" class="node">
<title>Node12</title>
<g id="a_node12"><a xlink:href="../../d1/d60/_s_h_a256__cryptopp_8cc.html" target="_top" xlink:title=" ">
<polygon fill="white" stroke="black" points="541.5,-56.5 541.5,-75.5 649.5,-75.5 649.5,-56.5 541.5,-56.5"/>
<text text-anchor="middle" x="595.5" y="-63.5" font-family="Helvetica,sans-Serif" font-size="10.00">SHA256_cryptopp.cc</text>
</a>
</g>
</g>
<!-- Node1&#45;&gt;Node12 -->
<g id="edge14" class="edge">
<title>Node1&#45;&gt;Node12</title>
<path fill="none" stroke="midnightblue" d="M938.51,-173.42C832.76,-167.17 636.6,-152.9 612.5,-132 596.11,-117.78 594.56,-89.91 594.94,-75.73"/>
<polygon fill="midnightblue" stroke="midnightblue" points="938.58,-176.93 948.76,-174.02 938.98,-169.94 938.58,-176.93"/>
</g>
<!-- Node13 -->
<g id="node13" class="node">
<title>Node13</title>
<g id="a_node13"><a xlink:href="../../d4/d75/_s_h_a256__cryptopp_8h.html" target="_top" xlink:title=" ">
<polygon fill="white" stroke="black" points="622,-112.5 622,-131.5 725,-131.5 725,-112.5 622,-112.5"/>
<text text-anchor="middle" x="673.5" y="-119.5" font-family="Helvetica,sans-Serif" font-size="10.00">SHA256_cryptopp.h</text>
</a>
</g>
</g>
<!-- Node1&#45;&gt;Node13 -->
<g id="edge15" class="edge">
<title>Node1&#45;&gt;Node13</title>
<path fill="none" stroke="midnightblue" d="M942.69,-166.78C879.66,-156.53 783.74,-140.93 725.04,-131.38"/>
<polygon fill="midnightblue" stroke="midnightblue" points="942.46,-170.29 952.89,-168.44 943.59,-163.38 942.46,-170.29"/>
</g>
<!-- Node14 -->
<g id="node14" class="node">
<title>Node14</title>
<g id="a_node14"><a xlink:href="../../dd/dc0/_s_h_a3__256__cryptopp_8cc.html" target="_top" xlink:title=" ">
<polygon fill="white" stroke="black" points="765,-56.5 765,-75.5 884,-75.5 884,-56.5 765,-56.5"/>
<text text-anchor="middle" x="824.5" y="-63.5" font-family="Helvetica,sans-Serif" font-size="10.00">SHA3_256_cryptopp.cc</text>
</a>
</g>
</g>
<!-- Node1&#45;&gt;Node14 -->
<g id="edge18" class="edge">
<title>Node1&#45;&gt;Node14</title>
<path fill="none" stroke="midnightblue" d="M1004.4,-157.73C1002.56,-143.26 997.78,-123.96 985.5,-112 969.65,-96.56 915.55,-83.54 874.4,-75.55"/>
<polygon fill="midnightblue" stroke="midnightblue" points="1000.95,-158.42 1005.34,-168.07 1007.92,-157.79 1000.95,-158.42"/>
</g>
<!-- Node15 -->
<g id="node15" class="node">
<title>Node15</title>
<g id="a_node15"><a xlink:href="../../d3/d0d/_s_h_a3__256__cryptopp_8h.html" target="_top" xlink:title=" ">
<polygon fill="white" stroke="black" points="743,-112.5 743,-131.5 856,-131.5 856,-112.5 743,-112.5"/>
<text text-anchor="middle" x="799.5" y="-119.5" font-family="Helvetica,sans-Serif" font-size="10.00">SHA3_256_cryptopp.h</text>
</a>
</g>
</g>
<!-- Node1&#45;&gt;Node15 -->
<g id="edge19" class="edge">
<title>Node1&#45;&gt;Node15</title>
<path fill="none" stroke="midnightblue" d="M962.88,-165.83C923.99,-155.63 867.34,-140.78 831.99,-131.52"/>
<polygon fill="midnightblue" stroke="midnightblue" points="962.3,-169.29 972.86,-168.44 964.07,-162.52 962.3,-169.29"/>
</g>
<!-- Node16 -->
<g id="node16" class="node">
<title>Node16</title>
<g id="a_node16"><a xlink:href="../../dc/d9d/_s_h_a512__cryptopp_8cc.html" target="_top" xlink:title=" ">
<polygon fill="white" stroke="black" points="902.5,-56.5 902.5,-75.5 1010.5,-75.5 1010.5,-56.5 902.5,-56.5"/>
<text text-anchor="middle" x="956.5" y="-63.5" font-family="Helvetica,sans-Serif" font-size="10.00">SHA512_cryptopp.cc</text>
</a>
</g>
</g>
<!-- Node1&#45;&gt;Node16 -->
<g id="edge22" class="edge">
<title>Node1&#45;&gt;Node16</title>
<path fill="none" stroke="midnightblue" d="M1015.63,-158.89C1021.77,-145.35 1027.08,-126.72 1019.5,-112 1010.7,-94.91 992.08,-82.87 977.35,-75.57"/>
<polygon fill="midnightblue" stroke="midnightblue" points="1012.37,-157.6 1010.98,-168.1 1018.62,-160.75 1012.37,-157.6"/>
</g>
<!-- Node17 -->
<g id="node17" class="node">
<title>Node17</title>
<g id="a_node17"><a xlink:href="../../d0/d4e/_s_h_a512__cryptopp_8h.html" target="_top" xlink:title=" ">
<polygon fill="white" stroke="black" points="874,-112.5 874,-131.5 977,-131.5 977,-112.5 874,-112.5"/>
<text text-anchor="middle" x="925.5" y="-119.5" font-family="Helvetica,sans-Serif" font-size="10.00">SHA512_cryptopp.h</text>
</a>
</g>
</g>
<!-- Node1&#45;&gt;Node17 -->
<g id="edge23" class="edge">
<title>Node1&#45;&gt;Node17</title>
<path fill="none" stroke="midnightblue" d="M984.2,-162.62C969.58,-152.76 950.67,-139.99 938.32,-131.65"/>
<polygon fill="midnightblue" stroke="midnightblue" points="982.4,-165.63 992.65,-168.32 986.32,-159.83 982.4,-165.63"/>
</g>
<!-- Node18 -->
<g id="node18" class="node">
<title>Node18</title>
<g id="a_node18"><a xlink:href="../../d8/d0d/hash__transformation_8cc.html" target="_top" xlink:title=" ">
<polygon fill="white" stroke="black" points="1143.5,-112.5 1143.5,-131.5 1261.5,-131.5 1261.5,-112.5 1143.5,-112.5"/>
<text text-anchor="middle" x="1202.5" y="-119.5" font-family="Helvetica,sans-Serif" font-size="10.00">hash_transformation.cc</text>
</a>
</g>
</g>
<!-- Node1&#45;&gt;Node18 -->
<g id="edge26" class="edge">
<title>Node1&#45;&gt;Node18</title>
<path fill="none" stroke="midnightblue" d="M1046.73,-165.7C1083.91,-155.51 1137.77,-140.74 1171.43,-131.52"/>
<polygon fill="midnightblue" stroke="midnightblue" points="1045.43,-162.42 1036.72,-168.44 1047.28,-169.18 1045.43,-162.42"/>
</g>
<!-- Node19 -->
<g id="node19" class="node">
<title>Node19</title>
<g id="a_node19"><a xlink:href="../../d1/d55/engine_8h.html" target="_top" xlink:title=" ">
<polygon fill="white" stroke="black" points="1072,-112.5 1072,-131.5 1125,-131.5 1125,-112.5 1072,-112.5"/>
<text text-anchor="middle" x="1098.5" y="-119.5" font-family="Helvetica,sans-Serif" font-size="10.00">engine.h</text>
</a>
</g>
</g>
<!-- Node1&#45;&gt;Node19 -->
<g id="edge27" class="edge">
<title>Node1&#45;&gt;Node19</title>
<path fill="none" stroke="midnightblue" d="M1029.31,-163.18C1046.42,-153.24 1068.97,-140.15 1083.6,-131.65"/>
<polygon fill="midnightblue" stroke="midnightblue" points="1027.33,-160.28 1020.44,-168.32 1030.85,-166.33 1027.33,-160.28"/>
</g>
<!-- Node25 -->
<g id="node25" class="node">
<title>Node25</title>
<g id="a_node25"><a xlink:href="../../d1/d0c/dummy__state_8h.html" target="_top" xlink:title=" ">
<polygon fill="white" stroke="black" points="1280,-112.5 1280,-131.5 1363,-131.5 1363,-112.5 1280,-112.5"/>
<text text-anchor="middle" x="1321.5" y="-119.5" font-family="Helvetica,sans-Serif" font-size="10.00">dummy_state.h</text>
</a>
</g>
</g>
<!-- Node1&#45;&gt;Node25 -->
<g id="edge35" class="edge">
<title>Node1&#45;&gt;Node25</title>
<path fill="none" stroke="midnightblue" d="M1066.36,-166.78C1120.09,-157.73 1200.52,-144.12 1270.5,-132 1273.51,-131.48 1276.62,-130.94 1279.76,-130.39"/>
<polygon fill="midnightblue" stroke="midnightblue" points="1065.6,-163.36 1056.32,-168.47 1066.76,-170.26 1065.6,-163.36"/>
</g>
<!-- Node27 -->
<g id="node27" class="node">
<title>Node27</title>
<g id="a_node27"><a xlink:href="../../da/dd0/state__impl_8cc.html" target="_top" xlink:title=" ">
<polygon fill="white" stroke="black" points="1430.5,-56.5 1430.5,-75.5 1504.5,-75.5 1504.5,-56.5 1430.5,-56.5"/>
<text text-anchor="middle" x="1467.5" y="-63.5" font-family="Helvetica,sans-Serif" font-size="10.00">state_impl.cc</text>
</a>
</g>
</g>
<!-- Node1&#45;&gt;Node27 -->
<g id="edge37" class="edge">
<title>Node1&#45;&gt;Node27</title>
<path fill="none" stroke="midnightblue" d="M1072.23,-174.86C1191.47,-170.39 1431.25,-158.22 1458.5,-132 1473.77,-117.31 1471.6,-89.65 1469.27,-75.63"/>
<polygon fill="midnightblue" stroke="midnightblue" points="1071.99,-171.37 1062.12,-175.23 1072.25,-178.36 1071.99,-171.37"/>
</g>
<!-- Node28 -->
<g id="node28" class="node">
<title>Node28</title>
<g id="a_node28"><a xlink:href="../../d6/d0a/state__impl_8h.html" target="_top" xlink:title=" ">
<polygon fill="white" stroke="black" points="1381,-112.5 1381,-131.5 1450,-131.5 1450,-112.5 1381,-112.5"/>
<text text-anchor="middle" x="1415.5" y="-119.5" font-family="Helvetica,sans-Serif" font-size="10.00">state_impl.h</text>
</a>
</g>
</g>
<!-- Node1&#45;&gt;Node28 -->
<g id="edge38" class="edge">
<title>Node1&#45;&gt;Node28</title>
<path fill="none" stroke="midnightblue" d="M1072.18,-170.41C1145.71,-162.77 1267.41,-149.02 1371.5,-132 1374.58,-131.5 1377.77,-130.93 1380.96,-130.33"/>
<polygon fill="midnightblue" stroke="midnightblue" points="1071.72,-166.94 1062.13,-171.45 1072.43,-173.9 1071.72,-166.94"/>
</g>
<!-- Node29 -->
<g id="node29" class="node">
<title>Node29</title>
<g id="a_node29"><a xlink:href="../../d1/d67/state__persistent_8cc.html" target="_top" xlink:title=" ">
<polygon fill="white" stroke="black" points="1551,-56.5 1551,-75.5 1650,-75.5 1650,-56.5 1551,-56.5"/>
<text text-anchor="middle" x="1600.5" y="-63.5" font-family="Helvetica,sans-Serif" font-size="10.00">state_persistent.cc</text>
</a>
</g>
</g>
<!-- Node1&#45;&gt;Node29 -->
<g id="edge40" class="edge">
<title>Node1&#45;&gt;Node29</title>
<path fill="none" stroke="midnightblue" d="M1072.62,-177.02C1222.39,-176.37 1573.59,-170.69 1609.5,-132 1623.76,-116.64 1612.87,-89.78 1605.62,-75.89"/>
<polygon fill="midnightblue" stroke="midnightblue" points="1072.17,-173.52 1062.19,-177.06 1072.2,-180.52 1072.17,-173.52"/>
</g>
<!-- Node30 -->
<g id="node30" class="node">
<title>Node30</title>
<g id="a_node30"><a xlink:href="../../da/db5/state__persistent_8h.html" target="_top" xlink:title=" ">
<polygon fill="white" stroke="black" points="1506.5,-112.5 1506.5,-131.5 1600.5,-131.5 1600.5,-112.5 1506.5,-112.5"/>
<text text-anchor="middle" x="1553.5" y="-119.5" font-family="Helvetica,sans-Serif" font-size="10.00">state_persistent.h</text>
</a>
</g>
</g>
<!-- Node1&#45;&gt;Node30 -->
<g id="edge41" class="edge">
<title>Node1&#45;&gt;Node30</title>
<path fill="none" stroke="midnightblue" d="M1072.43,-171.97C1166.42,-164.65 1342.78,-149.95 1492.5,-132 1496.96,-131.46 1501.61,-130.86 1506.25,-130.23"/>
<polygon fill="midnightblue" stroke="midnightblue" points="1071.92,-168.5 1062.22,-172.77 1072.46,-175.48 1071.92,-168.5"/>
</g>
<!-- Node3&#45;&gt;Node2 -->
<g id="edge3" class="edge">
<title>Node3&#45;&gt;Node2</title>
<path fill="none" stroke="midnightblue" d="M275.53,-110.41C225.45,-100.2 150.64,-84.96 104.29,-75.52"/>
<polygon fill="midnightblue" stroke="midnightblue" points="275.01,-113.88 285.51,-112.44 276.41,-107.02 275.01,-113.88"/>
</g>
<!-- Node4 -->
<g id="node4" class="node">
<title>Node4</title>
<g id="a_node4"><a xlink:href="../../d2/d4b/eth__contract__raw_8cc.html" target="_top" xlink:title=" ">
<polygon fill="white" stroke="black" points="275.5,-56.5 275.5,-75.5 379.5,-75.5 379.5,-56.5 275.5,-56.5"/>
<text text-anchor="middle" x="327.5" y="-63.5" font-family="Helvetica,sans-Serif" font-size="10.00">eth_contract_raw.cc</text>
</a>
</g>
</g>
<!-- Node3&#45;&gt;Node4 -->
<g id="edge4" class="edge">
<title>Node3&#45;&gt;Node4</title>
<path fill="none" stroke="midnightblue" d="M327.5,-101.8C327.5,-92.91 327.5,-82.78 327.5,-75.75"/>
<polygon fill="midnightblue" stroke="midnightblue" points="324,-102.08 327.5,-112.08 331,-102.08 324,-102.08"/>
</g>
<!-- Node5 -->
<g id="node5" class="node">
<title>Node5</title>
<g id="a_node5"><a xlink:href="../../dc/dbc/eth__helper__functions_8h.html" target="_top" xlink:title=" ">
<polygon fill="white" stroke="black" points="143.5,-56.5 143.5,-75.5 257.5,-75.5 257.5,-56.5 143.5,-56.5"/>
<text text-anchor="middle" x="200.5" y="-63.5" font-family="Helvetica,sans-Serif" font-size="10.00">eth_helper_functions.h</text>
</a>
</g>
</g>
<!-- Node3&#45;&gt;Node5 -->
<g id="edge5" class="edge">
<title>Node3&#45;&gt;Node5</title>
<path fill="none" stroke="midnightblue" d="M298.11,-108.5C274.3,-98.38 241.39,-84.39 220.53,-75.52"/>
<polygon fill="midnightblue" stroke="midnightblue" points="296.8,-111.75 307.38,-112.44 299.54,-105.31 296.8,-111.75"/>
</g>
<!-- Node9 -->
<g id="node9" class="node">
<title>Node9</title>
<g id="a_node9"><a xlink:href="../../df/de4/bind__crypto_8cc.html" target="_top" xlink:title=" ">
<polygon fill="white" stroke="black" points="668,-56.5 668,-75.5 747,-75.5 747,-56.5 668,-56.5"/>
<text text-anchor="middle" x="707.5" y="-63.5" font-family="Helvetica,sans-Serif" font-size="10.00">bind_crypto.cc</text>
</a>
</g>
</g>
<!-- Node3&#45;&gt;Node9 -->
<g id="edge9" class="edge">
<title>Node3&#45;&gt;Node9</title>
<path fill="none" stroke="midnightblue" d="M397.76,-112.41C464.86,-103.98 568.76,-90.33 658.5,-76 661.57,-75.51 664.75,-74.98 667.95,-74.43"/>
<polygon fill="midnightblue" stroke="midnightblue" points="397.21,-108.95 387.72,-113.67 398.08,-115.9 397.21,-108.95"/>
</g>
<!-- Node6 -->
<g id="node6" class="node">
<title>Node6</title>
<g id="a_node6"><a xlink:href="../../d8/da6/eth__contract__curl_8cc.html" target="_top" xlink:title=" ">
<polygon fill="white" stroke="black" points="15.5,-0.5 15.5,-19.5 119.5,-19.5 119.5,-0.5 15.5,-0.5"/>
<text text-anchor="middle" x="67.5" y="-7.5" font-family="Helvetica,sans-Serif" font-size="10.00">eth_contract_curl.cc</text>
</a>
</g>
</g>
<!-- Node5&#45;&gt;Node6 -->
<g id="edge6" class="edge">
<title>Node5&#45;&gt;Node6</title>
<path fill="none" stroke="midnightblue" d="M170.05,-52.64C145.09,-42.5 110.42,-28.43 88.48,-19.52"/>
<polygon fill="midnightblue" stroke="midnightblue" points="168.84,-55.92 179.43,-56.44 171.48,-49.44 168.84,-55.92"/>
</g>
<!-- Node7 -->
<g id="node7" class="node">
<title>Node7</title>
<g id="a_node7"><a xlink:href="../../d4/d57/eth__contract__curl__test_8cc.html" target="_top" xlink:title=" ">
<polygon fill="white" stroke="black" points="137.5,-0.5 137.5,-19.5 263.5,-19.5 263.5,-0.5 137.5,-0.5"/>
<text text-anchor="middle" x="200.5" y="-7.5" font-family="Helvetica,sans-Serif" font-size="10.00">eth_contract_curl_test.cc</text>
</a>
</g>
</g>
<!-- Node5&#45;&gt;Node7 -->
<g id="edge7" class="edge">
<title>Node5&#45;&gt;Node7</title>
<path fill="none" stroke="midnightblue" d="M200.5,-45.8C200.5,-36.91 200.5,-26.78 200.5,-19.75"/>
<polygon fill="midnightblue" stroke="midnightblue" points="197,-46.08 200.5,-56.08 204,-46.08 197,-46.08"/>
</g>
<!-- Node8 -->
<g id="node8" class="node">
<title>Node8</title>
<g id="a_node8"><a xlink:href="../../da/d5c/eth__transaction_8cc.html" target="_top" xlink:title=" ">
<polygon fill="white" stroke="black" points="281.5,-0.5 281.5,-19.5 377.5,-19.5 377.5,-0.5 281.5,-0.5"/>
<text text-anchor="middle" x="329.5" y="-7.5" font-family="Helvetica,sans-Serif" font-size="10.00">eth_transaction.cc</text>
</a>
</g>
</g>
<!-- Node5&#45;&gt;Node8 -->
<g id="edge8" class="edge">
<title>Node5&#45;&gt;Node8</title>
<path fill="none" stroke="midnightblue" d="M230.35,-52.5C254.54,-42.38 287.96,-28.39 309.16,-19.52"/>
<polygon fill="midnightblue" stroke="midnightblue" points="228.81,-49.35 220.94,-56.44 231.52,-55.81 228.81,-49.35"/>
</g>
<!-- Node11&#45;&gt;Node9 -->
<g id="edge13" class="edge">
<title>Node11&#45;&gt;Node9</title>
<path fill="none" stroke="midnightblue" d="M547.29,-109.83C585.43,-99.63 640.98,-84.78 675.64,-75.52"/>
<polygon fill="midnightblue" stroke="midnightblue" points="546.26,-106.48 537.51,-112.44 548.07,-113.24 546.26,-106.48"/>
</g>
<!-- Node11&#45;&gt;Node10 -->
<g id="edge12" class="edge">
<title>Node11&#45;&gt;Node10</title>
<path fill="none" stroke="midnightblue" d="M491.45,-104.14C483.61,-94.74 474.17,-83.4 467.79,-75.75"/>
<polygon fill="midnightblue" stroke="midnightblue" points="488.98,-106.64 498.07,-112.08 494.36,-102.16 488.98,-106.64"/>
</g>
<!-- Node13&#45;&gt;Node9 -->
<g id="edge17" class="edge">
<title>Node13&#45;&gt;Node9</title>
<path fill="none" stroke="midnightblue" d="M684.48,-103.57C690.33,-94.27 697.27,-83.25 701.99,-75.75"/>
<polygon fill="midnightblue" stroke="midnightblue" points="681.48,-101.76 679.11,-112.08 687.4,-105.49 681.48,-101.76"/>
</g>
<!-- Node13&#45;&gt;Node12 -->
<g id="edge16" class="edge">
<title>Node13&#45;&gt;Node12</title>
<path fill="none" stroke="midnightblue" d="M652.73,-106.62C638.48,-96.76 620.04,-83.99 608,-75.65"/>
<polygon fill="midnightblue" stroke="midnightblue" points="650.75,-109.51 660.97,-112.32 654.74,-103.75 650.75,-109.51"/>
</g>
<!-- Node15&#45;&gt;Node9 -->
<g id="edge21" class="edge">
<title>Node15&#45;&gt;Node9</title>
<path fill="none" stroke="midnightblue" d="M775.95,-107.18C759.02,-97.24 736.72,-84.15 722.24,-75.65"/>
<polygon fill="midnightblue" stroke="midnightblue" points="774.32,-110.28 784.72,-112.32 777.87,-104.24 774.32,-110.28"/>
</g>
<!-- Node15&#45;&gt;Node14 -->
<g id="edge20" class="edge">
<title>Node15&#45;&gt;Node14</title>
<path fill="none" stroke="midnightblue" d="M807.84,-102.98C812.08,-93.82 817.05,-83.09 820.45,-75.75"/>
<polygon fill="midnightblue" stroke="midnightblue" points="804.65,-101.54 803.63,-112.08 811.01,-104.48 804.65,-101.54"/>
</g>
<!-- Node17&#45;&gt;Node9 -->
<g id="edge25" class="edge">
<title>Node17&#45;&gt;Node9</title>
<path fill="none" stroke="midnightblue" d="M881.19,-110.02C840.01,-99.82 779.53,-84.84 741.88,-75.52"/>
<polygon fill="midnightblue" stroke="midnightblue" points="880.41,-113.44 890.96,-112.44 882.09,-106.64 880.41,-113.44"/>
</g>
<!-- Node17&#45;&gt;Node16 -->
<g id="edge24" class="edge">
<title>Node17&#45;&gt;Node16</title>
<path fill="none" stroke="midnightblue" d="M935.68,-103.27C940.97,-94.05 947.22,-83.17 951.48,-75.75"/>
<polygon fill="midnightblue" stroke="midnightblue" points="932.56,-101.67 930.62,-112.08 938.63,-105.15 932.56,-101.67"/>
</g>
<!-- Node19&#45;&gt;Node9 -->
<g id="edge32" class="edge">
<title>Node19&#45;&gt;Node9</title>
<path fill="none" stroke="midnightblue" d="M1061.52,-116.82C998.55,-109.56 866.51,-93.68 755.5,-76 752.74,-75.56 749.89,-75.08 747.02,-74.59"/>
<polygon fill="midnightblue" stroke="midnightblue" points="1061.41,-120.33 1071.74,-118 1062.21,-113.38 1061.41,-120.33"/>
</g>
<!-- Node20 -->
<g id="node20" class="node">
<title>Node20</title>
<g id="a_node20"><a xlink:href="../../dd/de7/core_8cc.html" target="_top" xlink:title=" ">
<polygon fill="white" stroke="black" points="1186.5,-0.5 1186.5,-19.5 1234.5,-19.5 1234.5,-0.5 1186.5,-0.5"/>
<text text-anchor="middle" x="1210.5" y="-7.5" font-family="Helvetica,sans-Serif" font-size="10.00">core.cc</text>
</a>
</g>
</g>
<!-- Node19&#45;&gt;Node20 -->
<g id="edge28" class="edge">
<title>Node19&#45;&gt;Node20</title>
<path fill="none" stroke="midnightblue" d="M1134.96,-111.82C1183.75,-99.45 1264.45,-78.67 1266.5,-76 1282.64,-54.97 1249.26,-31.76 1227.42,-19.57"/>
<polygon fill="midnightblue" stroke="midnightblue" points="1133.9,-108.48 1125.07,-114.32 1135.62,-115.26 1133.9,-108.48"/>
</g>
<!-- Node21 -->
<g id="node21" class="node">
<title>Node21</title>
<g id="a_node21"><a xlink:href="../../d9/d5a/lua__node_8h.html" target="_top" xlink:title=" ">
<polygon fill="white" stroke="black" points="1029,-56.5 1029,-75.5 1092,-75.5 1092,-56.5 1029,-56.5"/>
<text text-anchor="middle" x="1060.5" y="-63.5" font-family="Helvetica,sans-Serif" font-size="10.00">lua_node.h</text>
</a>
</g>
</g>
<!-- Node19&#45;&gt;Node21 -->
<g id="edge29" class="edge">
<title>Node19&#45;&gt;Node21</title>
<path fill="none" stroke="midnightblue" d="M1086.44,-103.86C1079.86,-94.5 1071.99,-83.33 1066.66,-75.75"/>
<polygon fill="midnightblue" stroke="midnightblue" points="1083.61,-105.92 1092.23,-112.08 1089.33,-101.89 1083.61,-105.92"/>
</g>
<!-- Node23 -->
<g id="node23" class="node">
<title>Node23</title>
<g id="a_node23"><a xlink:href="../../d8/dd3/bind__data_8cc.html" target="_top" xlink:title=" ">
<polygon fill="white" stroke="black" points="1110,-56.5 1110,-75.5 1181,-75.5 1181,-56.5 1110,-56.5"/>
<text text-anchor="middle" x="1145.5" y="-63.5" font-family="Helvetica,sans-Serif" font-size="10.00">bind_data.cc</text>
</a>
</g>
</g>
<!-- Node19&#45;&gt;Node23 -->
<g id="edge33" class="edge">
<title>Node19&#45;&gt;Node23</title>
<path fill="none" stroke="midnightblue" d="M1112.92,-104.43C1121.16,-94.97 1131.15,-83.48 1137.88,-75.75"/>
<polygon fill="midnightblue" stroke="midnightblue" points="1110.19,-102.24 1106.26,-112.08 1115.47,-106.84 1110.19,-102.24"/>
</g>
<!-- Node24 -->
<g id="node24" class="node">
<title>Node24</title>
<g id="a_node24"><a xlink:href="../../db/d7f/engine_8cc.html" target="_top" xlink:title=" ">
<polygon fill="white" stroke="black" points="1199.5,-56.5 1199.5,-75.5 1257.5,-75.5 1257.5,-56.5 1199.5,-56.5"/>
<text text-anchor="middle" x="1228.5" y="-63.5" font-family="Helvetica,sans-Serif" font-size="10.00">engine.cc</text>
</a>
</g>
</g>
<!-- Node19&#45;&gt;Node24 -->
<g id="edge34" class="edge">
<title>Node19&#45;&gt;Node24</title>
<path fill="none" stroke="midnightblue" d="M1128.59,-108.5C1152.96,-98.38 1186.64,-84.39 1208,-75.52"/>
<polygon fill="midnightblue" stroke="midnightblue" points="1126.99,-105.38 1119.1,-112.44 1129.68,-111.84 1126.99,-105.38"/>
</g>
<!-- Node21&#45;&gt;Node20 -->
<g id="edge30" class="edge">
<title>Node21&#45;&gt;Node20</title>
<path fill="none" stroke="midnightblue" d="M1093.72,-53.04C1121.95,-42.88 1161.76,-28.55 1186.84,-19.52"/>
<polygon fill="midnightblue" stroke="midnightblue" points="1092.49,-49.76 1084.27,-56.44 1094.86,-56.35 1092.49,-49.76"/>
</g>
<!-- Node22 -->
<g id="node22" class="node">
<title>Node22</title>
<g id="a_node22"><a xlink:href="../../db/d7e/lua__node_8cc.html" target="_top" xlink:title=" ">
<polygon fill="white" stroke="black" points="1026.5,-0.5 1026.5,-19.5 1094.5,-19.5 1094.5,-0.5 1026.5,-0.5"/>
<text text-anchor="middle" x="1060.5" y="-7.5" font-family="Helvetica,sans-Serif" font-size="10.00">lua_node.cc</text>
</a>
</g>
</g>
<!-- Node21&#45;&gt;Node22 -->
<g id="edge31" class="edge">
<title>Node21&#45;&gt;Node22</title>
<path fill="none" stroke="midnightblue" d="M1060.5,-45.8C1060.5,-36.91 1060.5,-26.78 1060.5,-19.75"/>
<polygon fill="midnightblue" stroke="midnightblue" points="1057,-46.08 1060.5,-56.08 1064,-46.08 1057,-46.08"/>
</g>
<!-- Node26 -->
<g id="node26" class="node">
<title>Node26</title>
<g id="a_node26"><a xlink:href="../../d8/d00/dummy__state_8cc.html" target="_top" xlink:title=" ">
<polygon fill="white" stroke="black" points="1313.5,-56.5 1313.5,-75.5 1401.5,-75.5 1401.5,-56.5 1313.5,-56.5"/>
<text text-anchor="middle" x="1357.5" y="-63.5" font-family="Helvetica,sans-Serif" font-size="10.00">dummy_state.cc</text>
</a>
</g>
</g>
<!-- Node25&#45;&gt;Node26 -->
<g id="edge36" class="edge">
<title>Node25&#45;&gt;Node26</title>
<path fill="none" stroke="midnightblue" d="M1333.12,-103.57C1339.32,-94.27 1346.67,-83.25 1351.67,-75.75"/>
<polygon fill="midnightblue" stroke="midnightblue" points="1330.08,-101.82 1327.44,-112.08 1335.9,-105.7 1330.08,-101.82"/>
</g>
<!-- Node28&#45;&gt;Node27 -->
<g id="edge39" class="edge">
<title>Node28&#45;&gt;Node27</title>
<path fill="none" stroke="midnightblue" d="M1431.18,-104.72C1440.34,-95.2 1451.55,-83.56 1459.07,-75.75"/>
<polygon fill="midnightblue" stroke="midnightblue" points="1428.5,-102.45 1424.09,-112.08 1433.54,-107.31 1428.5,-102.45"/>
</g>
<!-- Node30&#45;&gt;Node29 -->
<g id="edge42" class="edge">
<title>Node30&#45;&gt;Node29</title>
<path fill="none" stroke="midnightblue" d="M1567.92,-104.43C1576.16,-94.97 1586.15,-83.48 1592.88,-75.75"/>
<polygon fill="midnightblue" stroke="midnightblue" points="1565.19,-102.24 1561.26,-112.08 1570.47,-106.84 1565.19,-102.24"/>
</g>
</g>
</svg>
        <g id="navigator" transform="translate(0 0)" fill="#404254">
                <rect fill="#f2f5e9" fill-opacity="0.5" stroke="#606060" stroke-width=".5" x="0" y="0" width="60" height="60"/>
                <use id="zoomplus" xlink:href="#zoomPlus" x="17" y="9" onmousedown="handleZoom(evt,'in')"/>
                <use id="zoomminus" xlink:href="#zoomMin" x="42" y="9" onmousedown="handleZoom(evt,'out')"/>
                <use id="reset" xlink:href="#resetDef" x="30" y="36" onmousedown="handleReset()"/>
                <g id="arrowUp" xlink:href="#dirArrow" transform="translate(30 24)" onmousedown="handlePan(0,-1)">
                  <use xlink:href="#rim" fill="#404040">
                        <set attributeName="fill" to="#808080" begin="arrowUp.mouseover" end="arrowUp.mouseout"/>
                  </use>
                  <path fill="none" stroke="white" stroke-width="1.5" d="M0,-3.0v7 M-2.5,-0.5L0,-3.0L2.5,-0.5"/>
                </g>
                <g id="arrowRight" xlink:href="#dirArrow" transform="rotate(90) translate(36 -43)" onmousedown="handlePan(1,0)">
                  <use xlink:href="#rim" fill="#404040">
                        <set attributeName="fill" to="#808080" begin="arrowRight.mouseover" end="arrowRight.mouseout"/>
                  </use>
                  <path fill="none" stroke="white" stroke-width="1.5" d="M0,-3.0v7 M-2.5,-0.5L0,-3.0L2.5,-0.5"/>
                </g>
                <g id="arrowDown" xlink:href="#dirArrow" transform="rotate(180) translate(-30 -48)" onmousedown="handlePan(0,1)">
                  <use xlink:href="#rim" fill="#404040">
                        <set attributeName="fill" to="#808080" begin="arrowDown.mouseover" end="arrowDown.mouseout"/>
                  </use>
                  <path fill="none" stroke="white" stroke-width="1.5" d="M0,-3.0v7 M-2.5,-0.5L0,-3.0L2.5,-0.5"/>
                </g>
                <g id="arrowLeft" xlink:href="#dirArrow" transform="rotate(270) translate(-36 17)" onmousedown="handlePan(-1,0)">
                  <use xlink:href="#rim" fill="#404040">
                        <set attributeName="fill" to="#808080" begin="arrowLeft.mouseover" end="arrowLeft.mouseout"/>
                  </use>
                  <path fill="none" stroke="white" stroke-width="1.5" d="M0,-3.0v7 M-2.5,-0.5L0,-3.0L2.5,-0.5"/>
                </g>
        </g>
        <svg viewBox="0 0 15 15" width="100%" height="30px" preserveAspectRatio="xMaxYMin meet">
         <g id="arrow_out" transform="scale(0.3 0.3)">
          <a xlink:href="hash__transformation_8h__dep__incl_org.svg" target="_base">
           <rect id="button" ry="5" rx="5" y="6" x="6" height="38" width="38"
                fill="#f2f5e9" fill-opacity="0.5" stroke="#606060" stroke-width="1.0"/>
           <path id="arrow"
             d="M 11.500037,31.436501 C 11.940474,20.09759 22.043105,11.32322 32.158766,21.979434 L 37.068811,17.246167 C 37.068811,17.246167 37.088388,32 37.088388,32 L 22.160133,31.978069 C 22.160133,31.978069 26.997745,27.140456 26.997745,27.140456 C 18.528582,18.264221 13.291696,25.230495 11.500037,31.436501 z"
             style="fill:#404040;"/>
          </a>
         </g>
        </svg>
</svg>
