<?xml version="1.0" encoding="UTF-8" standalone="no"?>
<!DOCTYPE svg PUBLIC "-//W3C//DTD SVG 1.1//EN"
 "http://www.w3.org/Graphics/SVG/1.1/DTD/svg11.dtd">
<!-- Generated by graphviz version 2.42.3 ()
 -->
<!-- Title: hash_transformation.h Pages: 1 -->
<!--zoomable 196 -->
<svg id="main" version="1.1" xmlns="http://www.w3.org/2000/svg" xmlns:xlink="http://www.w3.org/1999/xlink" xml:space="preserve" onload="init(evt)">
<style type="text/css"><![CDATA[
.edge:hover path { stroke: red; }
.edge:hover polygon { stroke: red; fill: red; }
]]></style>
<script type="text/javascript"><![CDATA[
var edges = document.getElementsByTagName('g');
if (edges && edges.length) {
  for (var i=0;i<edges.length;i++) {
    if (edges[i].id.substr(0,4)=='edge') {
      edges[i].setAttribute('class','edge');
    }
  }
}
]]></script>
        <defs>
                <circle id="rim" cx="0" cy="0" r="7"/>
                <circle id="rim2" cx="0" cy="0" r="3.5"/>
                <g id="zoomPlus">
                        <use xlink:href="#rim" fill="#404040">
                                <set attributeName="fill" to="#808080" begin="zoomplus.mouseover" end="zoomplus.mouseout"/>
                        </use>
                        <path d="M-4,0h8M0,-4v8" fill="none" stroke="white" stroke-width="1.5" pointer-events="none"/>
                </g>
                <g id="zoomMin">
                        <use xlink:href="#rim" fill="#404040">
                                <set attributeName="fill" to="#808080" begin="zoomminus.mouseover" end="zoomminus.mouseout"/>
                        </use>
                        <path d="M-4,0h8" fill="none" stroke="white" stroke-width="1.5" pointer-events="none"/>
                </g>
                <g id="dirArrow">
                        <path fill="none" stroke="white" stroke-width="1.5" d="M0,-3.0v7 M-2.5,-0.5L0,-3.0L2.5,-0.5"/>
                </g>
               <g id="resetDef">
                       <use xlink:href="#rim2" fill="#404040">
                               <set attributeName="fill" to="#808080" begin="reset.mouseover" end="reset.mouseout"/>
                       </use>
               </g>
        </defs>

<script type="text/javascript">
var viewWidth = 1806;
var viewHeight = 196;
var sectionId = 'dynsection-1';
</script>
<script xlink:href="../../svgpan.js"/>
<svg id="graph" class="graph">
<g id="viewport">
<title>hash_transformation.h</title>
<polygon fill="white" stroke="transparent" points="-4,4 -4,-192 1802,-192 1802,4 -4,4"/>
<!-- Node1 -->
<g id="node1" class="node">
<title>Node1</title>
<g id="a_node1"><a xlink:title=" ">
<polygon fill="#bfbfbf" stroke="black" points="1141.5,-168.5 1141.5,-187.5 1254.5,-187.5 1254.5,-168.5 1141.5,-168.5"/>
<text text-anchor="middle" x="1198" y="-175.5" font-family="Helvetica,sans-Serif" font-size="10.00">hash_transformation.h</text>
</a>
</g>
</g>
<!-- Node2 -->
<g id="node2" class="node">
<title>Node2</title>
<g id="a_node2"><a xlink:href="../../d1/d55/engine_8h.html" target="_top" xlink:title=" ">
<polygon fill="white" stroke="black" points="204.5,-112.5 204.5,-131.5 257.5,-131.5 257.5,-112.5 204.5,-112.5"/>
<text text-anchor="middle" x="231" y="-119.5" font-family="Helvetica,sans-Serif" font-size="10.00">engine.h</text>
</a>
</g>
</g>
<!-- Node1&#45;&gt;Node2 -->
<g id="edge1" class="edge">
<title>Node1&#45;&gt;Node2</title>
<path fill="none" stroke="midnightblue" d="M1131.48,-173.29C938.75,-162.52 385.54,-131.63 257.62,-124.49"/>
<polygon fill="midnightblue" stroke="midnightblue" points="1131.3,-176.78 1141.48,-173.84 1131.69,-169.79 1131.3,-176.78"/>
</g>
<!-- Node9 -->
<g id="node9" class="node">
<title>Node9</title>
<g id="a_node9"><a xlink:href="../../da/d44/_keccak__256__cryptopp_8h.html" target="_top" xlink:title=" ">
<polygon fill="white" stroke="black" points="501,-112.5 501,-131.5 621,-131.5 621,-112.5 501,-112.5"/>
<text text-anchor="middle" x="561" y="-119.5" font-family="Helvetica,sans-Serif" font-size="10.00">Keccak_256_cryptopp.h</text>
</a>
</g>
</g>
<!-- Node1&#45;&gt;Node9 -->
<g id="edge9" class="edge">
<title>Node1&#45;&gt;Node9</title>
<path fill="none" stroke="midnightblue" d="M1131,-172.54C1025.42,-165.32 813.92,-150.02 635,-132 630.49,-131.55 625.84,-131.05 621.15,-130.53"/>
<polygon fill="midnightblue" stroke="midnightblue" points="1130.98,-176.05 1141.19,-173.24 1131.45,-169.07 1130.98,-176.05"/>
</g>
<!-- Node10 -->
<g id="node10" class="node">
<title>Node10</title>
<g id="a_node10"><a xlink:href="../../d5/dc4/_keccak__256__cryptopp_8cc.html" target="_top" xlink:title=" ">
<polygon fill="white" stroke="black" points="287.5,-56.5 287.5,-75.5 412.5,-75.5 412.5,-56.5 287.5,-56.5"/>
<text text-anchor="middle" x="350" y="-63.5" font-family="Helvetica,sans-Serif" font-size="10.00">Keccak_256_cryptopp.cc</text>
</a>
</g>
</g>
<!-- Node1&#45;&gt;Node10 -->
<g id="edge17" class="edge">
<title>Node1&#45;&gt;Node10</title>
<path fill="none" stroke="midnightblue" d="M1131.11,-175.84C979.13,-172.69 611.78,-162.13 492,-132 442.57,-119.56 389.16,-90.34 364.27,-75.69"/>
<polygon fill="midnightblue" stroke="midnightblue" points="1131.17,-179.34 1141.24,-176.04 1131.31,-172.34 1131.17,-179.34"/>
</g>
<!-- Node16 -->
<g id="node16" class="node">
<title>Node16</title>
<g id="a_node16"><a xlink:href="../../d4/d13/_r_i_p_e_m_d160__cryptopp_8h.html" target="_top" xlink:title=" ">
<polygon fill="white" stroke="black" points="677.5,-112.5 677.5,-131.5 796.5,-131.5 796.5,-112.5 677.5,-112.5"/>
<text text-anchor="middle" x="737" y="-119.5" font-family="Helvetica,sans-Serif" font-size="10.00">RIPEMD160_cryptopp.h</text>
</a>
</g>
</g>
<!-- Node1&#45;&gt;Node16 -->
<g id="edge18" class="edge">
<title>Node1&#45;&gt;Node16</title>
<path fill="none" stroke="midnightblue" d="M1131.14,-169.71C1052.91,-161.09 919.48,-146.13 805,-132 802.28,-131.66 799.5,-131.32 796.7,-130.96"/>
<polygon fill="midnightblue" stroke="midnightblue" points="1131.02,-173.21 1141.34,-170.83 1131.79,-166.26 1131.02,-173.21"/>
</g>
<!-- Node17 -->
<g id="node17" class="node">
<title>Node17</title>
<g id="a_node17"><a xlink:href="../../d2/de0/_r_i_p_e_m_d160__cryptopp_8cc.html" target="_top" xlink:title=" ">
<polygon fill="white" stroke="black" points="685.5,-56.5 685.5,-75.5 810.5,-75.5 810.5,-56.5 685.5,-56.5"/>
<text text-anchor="middle" x="748" y="-63.5" font-family="Helvetica,sans-Serif" font-size="10.00">RIPEMD160_cryptopp.cc</text>
</a>
</g>
</g>
<!-- Node1&#45;&gt;Node17 -->
<g id="edge21" class="edge">
<title>Node1&#45;&gt;Node17</title>
<path fill="none" stroke="midnightblue" d="M1131.16,-176.26C995.65,-174.07 698.75,-165.47 668,-132 646.87,-109 691.72,-87.16 722.41,-75.58"/>
<polygon fill="midnightblue" stroke="midnightblue" points="1131.36,-179.77 1141.41,-176.42 1131.47,-172.77 1131.36,-179.77"/>
</g>
<!-- Node18 -->
<g id="node18" class="node">
<title>Node18</title>
<g id="a_node18"><a xlink:href="../../d4/d75/_s_h_a256__cryptopp_8h.html" target="_top" xlink:title=" ">
<polygon fill="white" stroke="black" points="814.5,-112.5 814.5,-131.5 917.5,-131.5 917.5,-112.5 814.5,-112.5"/>
<text text-anchor="middle" x="866" y="-119.5" font-family="Helvetica,sans-Serif" font-size="10.00">SHA256_cryptopp.h</text>
</a>
</g>
</g>
<!-- Node1&#45;&gt;Node18 -->
<g id="edge22" class="edge">
<title>Node1&#45;&gt;Node18</title>
<path fill="none" stroke="midnightblue" d="M1135.19,-166.78C1072.16,-156.53 976.24,-140.93 917.54,-131.38"/>
<polygon fill="midnightblue" stroke="midnightblue" points="1134.96,-170.29 1145.39,-168.44 1136.09,-163.38 1134.96,-170.29"/>
</g>
<!-- Node19 -->
<g id="node19" class="node">
<title>Node19</title>
<g id="a_node19"><a xlink:href="../../d1/d60/_s_h_a256__cryptopp_8cc.html" target="_top" xlink:title=" ">
<polygon fill="white" stroke="black" points="942,-56.5 942,-75.5 1050,-75.5 1050,-56.5 942,-56.5"/>
<text text-anchor="middle" x="996" y="-63.5" font-family="Helvetica,sans-Serif" font-size="10.00">SHA256_cryptopp.cc</text>
</a>
</g>
</g>
<!-- Node1&#45;&gt;Node19 -->
<g id="edge25" class="edge">
<title>Node1&#45;&gt;Node19</title>
<path fill="none" stroke="midnightblue" d="M1197.06,-158.1C1195.32,-143.52 1190.59,-123.9 1178,-112 1159.67,-94.67 1096.82,-81.83 1050.07,-74.39"/>
<polygon fill="midnightblue" stroke="midnightblue" points="1193.61,-158.78 1197.91,-168.46 1200.58,-158.21 1193.61,-158.78"/>
</g>
<!-- Node20 -->
<g id="node20" class="node">
<title>Node20</title>
<g id="a_node20"><a xlink:href="../../d3/d0d/_s_h_a3__256__cryptopp_8h.html" target="_top" xlink:title=" ">
<polygon fill="white" stroke="black" points="935.5,-112.5 935.5,-131.5 1048.5,-131.5 1048.5,-112.5 935.5,-112.5"/>
<text text-anchor="middle" x="992" y="-119.5" font-family="Helvetica,sans-Serif" font-size="10.00">SHA3_256_cryptopp.h</text>
</a>
</g>
</g>
<!-- Node1&#45;&gt;Node20 -->
<g id="edge26" class="edge">
<title>Node1&#45;&gt;Node20</title>
<path fill="none" stroke="midnightblue" d="M1155.38,-165.83C1116.49,-155.63 1059.84,-140.78 1024.49,-131.52"/>
<polygon fill="midnightblue" stroke="midnightblue" points="1154.8,-169.29 1165.36,-168.44 1156.57,-162.52 1154.8,-169.29"/>
</g>
<!-- Node21 -->
<g id="node21" class="node">
<title>Node21</title>
<g id="a_node21"><a xlink:href="../../dd/dc0/_s_h_a3__256__cryptopp_8cc.html" target="_top" xlink:title=" ">
<polygon fill="white" stroke="black" points="1076.5,-56.5 1076.5,-75.5 1195.5,-75.5 1195.5,-56.5 1076.5,-56.5"/>
<text text-anchor="middle" x="1136" y="-63.5" font-family="Helvetica,sans-Serif" font-size="10.00">SHA3_256_cryptopp.cc</text>
</a>
</g>
</g>
<!-- Node1&#45;&gt;Node21 -->
<g id="edge29" class="edge">
<title>Node1&#45;&gt;Node21</title>
<path fill="none" stroke="midnightblue" d="M1208.1,-159.55C1214.58,-145.84 1220.37,-126.69 1212,-112 1201.75,-94.02 1181.17,-82.49 1164.02,-75.6"/>
<polygon fill="midnightblue" stroke="midnightblue" points="1204.99,-157.94 1203.44,-168.42 1211.19,-161.19 1204.99,-157.94"/>
</g>
<!-- Node22 -->
<g id="node22" class="node">
<title>Node22</title>
<g id="a_node22"><a xlink:href="../../d0/d4e/_s_h_a512__cryptopp_8h.html" target="_top" xlink:title=" ">
<polygon fill="white" stroke="black" points="1066.5,-112.5 1066.5,-131.5 1169.5,-131.5 1169.5,-112.5 1066.5,-112.5"/>
<text text-anchor="middle" x="1118" y="-119.5" font-family="Helvetica,sans-Serif" font-size="10.00">SHA512_cryptopp.h</text>
</a>
</g>
</g>
<!-- Node1&#45;&gt;Node22 -->
<g id="edge30" class="edge">
<title>Node1&#45;&gt;Node22</title>
<path fill="none" stroke="midnightblue" d="M1176.7,-162.62C1162.08,-152.76 1143.17,-139.99 1130.82,-131.65"/>
<polygon fill="midnightblue" stroke="midnightblue" points="1174.9,-165.63 1185.15,-168.32 1178.82,-159.83 1174.9,-165.63"/>
</g>
<!-- Node23 -->
<g id="node23" class="node">
<title>Node23</title>
<g id="a_node23"><a xlink:href="../../dc/d9d/_s_h_a512__cryptopp_8cc.html" target="_top" xlink:title=" ">
<polygon fill="white" stroke="black" points="1218,-56.5 1218,-75.5 1326,-75.5 1326,-56.5 1218,-56.5"/>
<text text-anchor="middle" x="1272" y="-63.5" font-family="Helvetica,sans-Serif" font-size="10.00">SHA512_cryptopp.cc</text>
</a>
</g>
</g>
<!-- Node1&#45;&gt;Node23 -->
<g id="edge33" class="edge">
<title>Node1&#45;&gt;Node23</title>
<path fill="none" stroke="midnightblue" d="M1209.71,-160.16C1215.54,-151.73 1222.68,-141.35 1229,-132 1242.48,-112.04 1258,-88.41 1266.21,-75.87"/>
<polygon fill="midnightblue" stroke="midnightblue" points="1206.82,-158.19 1203.99,-168.41 1212.57,-162.18 1206.82,-158.19"/>
</g>
<!-- Node24 -->
<g id="node24" class="node">
<title>Node24</title>
<g id="a_node24"><a xlink:href="../../d8/d0d/hash__transformation_8cc.html" target="_top" xlink:title=" ">
<polygon fill="white" stroke="black" points="1302,-112.5 1302,-131.5 1420,-131.5 1420,-112.5 1302,-112.5"/>
<text text-anchor="middle" x="1361" y="-119.5" font-family="Helvetica,sans-Serif" font-size="10.00">hash_transformation.cc</text>
</a>
</g>
</g>
<!-- Node1&#45;&gt;Node24 -->
<g id="edge34" class="edge">
<title>Node1&#45;&gt;Node24</title>
<path fill="none" stroke="midnightblue" d="M1233.7,-165.17C1264.4,-155 1307.92,-140.59 1335.29,-131.52"/>
<polygon fill="midnightblue" stroke="midnightblue" points="1232.22,-161.98 1223.83,-168.44 1234.42,-168.62 1232.22,-161.98"/>
</g>
<!-- Node25 -->
<g id="node25" class="node">
<title>Node25</title>
<g id="a_node25"><a xlink:href="../../d1/d0c/dummy__state_8h.html" target="_top" xlink:title=" ">
<polygon fill="white" stroke="black" points="1438.5,-112.5 1438.5,-131.5 1521.5,-131.5 1521.5,-112.5 1438.5,-112.5"/>
<text text-anchor="middle" x="1480" y="-119.5" font-family="Helvetica,sans-Serif" font-size="10.00">dummy_state.h</text>
</a>
</g>
</g>
<!-- Node1&#45;&gt;Node25 -->
<g id="edge35" class="edge">
<title>Node1&#45;&gt;Node25</title>
<path fill="none" stroke="midnightblue" d="M1252.82,-166.5C1307.12,-156.1 1389.08,-140.41 1438.28,-130.99"/>
<polygon fill="midnightblue" stroke="midnightblue" points="1251.85,-163.13 1242.68,-168.44 1253.16,-170 1251.85,-163.13"/>
</g>
<!-- Node27 -->
<g id="node27" class="node">
<title>Node27</title>
<g id="a_node27"><a xlink:href="../../d6/d0a/state__impl_8h.html" target="_top" xlink:title=" ">
<polygon fill="white" stroke="black" points="1578.5,-112.5 1578.5,-131.5 1647.5,-131.5 1647.5,-112.5 1578.5,-112.5"/>
<text text-anchor="middle" x="1613" y="-119.5" font-family="Helvetica,sans-Serif" font-size="10.00">state_impl.h</text>
</a>
</g>
</g>
<!-- Node1&#45;&gt;Node27 -->
<g id="edge37" class="edge">
<title>Node1&#45;&gt;Node27</title>
<path fill="none" stroke="midnightblue" d="M1264.61,-170.01C1338.09,-162.02 1459.74,-147.97 1564,-132 1568.62,-131.29 1573.47,-130.48 1578.24,-129.65"/>
<polygon fill="midnightblue" stroke="midnightblue" points="1264.14,-166.54 1254.57,-171.1 1264.89,-173.5 1264.14,-166.54"/>
</g>
<!-- Node28 -->
<g id="node28" class="node">
<title>Node28</title>
<g id="a_node28"><a xlink:href="../../da/dd0/state__impl_8cc.html" target="_top" xlink:title=" ">
<polygon fill="white" stroke="black" points="1559,-56.5 1559,-75.5 1633,-75.5 1633,-56.5 1559,-56.5"/>
<text text-anchor="middle" x="1596" y="-63.5" font-family="Helvetica,sans-Serif" font-size="10.00">state_impl.cc</text>
</a>
</g>
</g>
<!-- Node1&#45;&gt;Node28 -->
<g id="edge39" class="edge">
<title>Node1&#45;&gt;Node28</title>
<path fill="none" stroke="midnightblue" d="M1264.74,-172.94C1347.91,-167.04 1484.64,-154.26 1530,-132 1557.14,-118.68 1580.01,-89.87 1590.25,-75.5"/>
<polygon fill="midnightblue" stroke="midnightblue" points="1264.36,-169.46 1254.62,-173.65 1264.84,-176.45 1264.36,-169.46"/>
</g>
<!-- Node29 -->
<g id="node29" class="node">
<title>Node29</title>
<g id="a_node29"><a xlink:href="../../da/db5/state__persistent_8h.html" target="_top" xlink:title=" ">
<polygon fill="white" stroke="black" points="1704,-112.5 1704,-131.5 1798,-131.5 1798,-112.5 1704,-112.5"/>
<text text-anchor="middle" x="1751" y="-119.5" font-family="Helvetica,sans-Serif" font-size="10.00">state_persistent.h</text>
</a>
</g>
</g>
<!-- Node1&#45;&gt;Node29 -->
<g id="edge40" class="edge">
<title>Node1&#45;&gt;Node29</title>
<path fill="none" stroke="midnightblue" d="M1264.56,-172.09C1359.25,-164.83 1538.18,-150.13 1690,-132 1694.46,-131.47 1699.11,-130.87 1703.75,-130.24"/>
<polygon fill="midnightblue" stroke="midnightblue" points="1264.26,-168.6 1254.55,-172.85 1264.79,-175.58 1264.26,-168.6"/>
</g>
<!-- Node30 -->
<g id="node30" class="node">
<title>Node30</title>
<g id="a_node30"><a xlink:href="../../d1/d67/state__persistent_8cc.html" target="_top" xlink:title=" ">
<polygon fill="white" stroke="black" points="1676.5,-56.5 1676.5,-75.5 1775.5,-75.5 1775.5,-56.5 1676.5,-56.5"/>
<text text-anchor="middle" x="1726" y="-63.5" font-family="Helvetica,sans-Serif" font-size="10.00">state_persistent.cc</text>
</a>
</g>
</g>
<!-- Node1&#45;&gt;Node30 -->
<g id="edge42" class="edge">
<title>Node1&#45;&gt;Node30</title>
<path fill="none" stroke="midnightblue" d="M1265.09,-175.64C1374.97,-172.54 1587.9,-162.67 1656,-132 1684.43,-119.2 1708.85,-90.14 1719.82,-75.61"/>
<polygon fill="midnightblue" stroke="midnightblue" points="1264.69,-172.15 1254.79,-175.92 1264.88,-179.15 1264.69,-172.15"/>
</g>
<!-- Node3 -->
<g id="node3" class="node">
<title>Node3</title>
<g id="a_node3"><a xlink:href="../../d9/d5a/lua__node_8h.html" target="_top" xlink:title=" ">
<polygon fill="white" stroke="black" points="2.5,-56.5 2.5,-75.5 65.5,-75.5 65.5,-56.5 2.5,-56.5"/>
<text text-anchor="middle" x="34" y="-63.5" font-family="Helvetica,sans-Serif" font-size="10.00">lua_node.h</text>
</a>
</g>
</g>
<!-- Node2&#45;&gt;Node3 -->
<g id="edge2" class="edge">
<title>Node2&#45;&gt;Node3</title>
<path fill="none" stroke="midnightblue" d="M194.52,-111C157.41,-100.83 100.48,-85.22 65.34,-75.59"/>
<polygon fill="midnightblue" stroke="midnightblue" points="193.86,-114.45 204.43,-113.72 195.71,-107.7 193.86,-114.45"/>
</g>
<!-- Node4 -->
<g id="node4" class="node">
<title>Node4</title>
<g id="a_node4"><a xlink:href="../../dd/de7/core_8cc.html" target="_top" xlink:title=" ">
<polygon fill="white" stroke="black" points="161,-0.5 161,-19.5 209,-19.5 209,-0.5 161,-0.5"/>
<text text-anchor="middle" x="185" y="-7.5" font-family="Helvetica,sans-Serif" font-size="10.00">core.cc</text>
</a>
</g>
</g>
<!-- Node2&#45;&gt;Node4 -->
<g id="edge5" class="edge">
<title>Node2&#45;&gt;Node4</title>
<path fill="none" stroke="midnightblue" d="M238.88,-102.52C243.4,-89.03 246.93,-70.62 240,-56 232.23,-39.61 215.25,-27.21 202.2,-19.61"/>
<polygon fill="midnightblue" stroke="midnightblue" points="235.52,-101.52 235.23,-112.11 242.06,-104.01 235.52,-101.52"/>
</g>
<!-- Node6 -->
<g id="node6" class="node">
<title>Node6</title>
<g id="a_node6"><a xlink:href="../../df/de4/bind__crypto_8cc.html" target="_top" xlink:title=" ">
<polygon fill="white" stroke="black" points="828.5,-56.5 828.5,-75.5 907.5,-75.5 907.5,-56.5 828.5,-56.5"/>
<text text-anchor="middle" x="868" y="-63.5" font-family="Helvetica,sans-Serif" font-size="10.00">bind_crypto.cc</text>
</a>
</g>
</g>
<!-- Node2&#45;&gt;Node6 -->
<g id="edge6" class="edge">
<title>Node2&#45;&gt;Node6</title>
<path fill="none" stroke="midnightblue" d="M267.78,-119.53C360.55,-115.54 611.5,-102.92 819,-76 822.09,-75.6 825.28,-75.13 828.48,-74.63"/>
<polygon fill="midnightblue" stroke="midnightblue" points="267.61,-116.04 257.77,-119.96 267.91,-123.03 267.61,-116.04"/>
</g>
<!-- Node7 -->
<g id="node7" class="node">
<title>Node7</title>
<g id="a_node7"><a xlink:href="../../d8/dd3/bind__data_8cc.html" target="_top" xlink:title=" ">
<polygon fill="white" stroke="black" points="83.5,-56.5 83.5,-75.5 154.5,-75.5 154.5,-56.5 83.5,-56.5"/>
<text text-anchor="middle" x="119" y="-63.5" font-family="Helvetica,sans-Serif" font-size="10.00">bind_data.cc</text>
</a>
</g>
</g>
<!-- Node2&#45;&gt;Node7 -->
<g id="edge7" class="edge">
<title>Node2&#45;&gt;Node7</title>
<path fill="none" stroke="midnightblue" d="M203.75,-107.86C182.98,-97.85 154.98,-84.35 136.95,-75.65"/>
<polygon fill="midnightblue" stroke="midnightblue" points="202.48,-111.13 213.01,-112.32 205.52,-104.83 202.48,-111.13"/>
</g>
<!-- Node8 -->
<g id="node8" class="node">
<title>Node8</title>
<g id="a_node8"><a xlink:href="../../db/d7f/engine_8cc.html" target="_top" xlink:title=" ">
<polygon fill="white" stroke="black" points="173,-56.5 173,-75.5 231,-75.5 231,-56.5 173,-56.5"/>
<text text-anchor="middle" x="202" y="-63.5" font-family="Helvetica,sans-Serif" font-size="10.00">engine.cc</text>
</a>
</g>
</g>
<!-- Node2&#45;&gt;Node8 -->
<g id="edge8" class="edge">
<title>Node2&#45;&gt;Node8</title>
<path fill="none" stroke="midnightblue" d="M221.32,-102.98C216.4,-93.82 210.64,-83.09 206.7,-75.75"/>
<polygon fill="midnightblue" stroke="midnightblue" points="218.4,-104.93 226.21,-112.08 224.56,-101.62 218.4,-104.93"/>
</g>
<!-- Node3&#45;&gt;Node4 -->
<g id="edge3" class="edge">
<title>Node3&#45;&gt;Node4</title>
<path fill="none" stroke="midnightblue" d="M67.45,-53.04C95.86,-42.88 135.94,-28.55 161.19,-19.52"/>
<polygon fill="midnightblue" stroke="midnightblue" points="66.16,-49.78 57.93,-56.44 68.52,-56.37 66.16,-49.78"/>
</g>
<!-- Node5 -->
<g id="node5" class="node">
<title>Node5</title>
<g id="a_node5"><a xlink:href="../../db/d7e/lua__node_8cc.html" target="_top" xlink:title=" ">
<polygon fill="white" stroke="black" points="0,-0.5 0,-19.5 68,-19.5 68,-0.5 0,-0.5"/>
<text text-anchor="middle" x="34" y="-7.5" font-family="Helvetica,sans-Serif" font-size="10.00">lua_node.cc</text>
</a>
</g>
</g>
<!-- Node3&#45;&gt;Node5 -->
<g id="edge4" class="edge">
<title>Node3&#45;&gt;Node5</title>
<path fill="none" stroke="midnightblue" d="M34,-45.8C34,-36.91 34,-26.78 34,-19.75"/>
<polygon fill="midnightblue" stroke="midnightblue" points="30.5,-46.08 34,-56.08 37.5,-46.08 30.5,-46.08"/>
</g>
<!-- Node9&#45;&gt;Node6 -->
<g id="edge16" class="edge">
<title>Node9&#45;&gt;Node6</title>
<path fill="none" stroke="midnightblue" d="M621.08,-110.68C673.38,-101.65 751.24,-88.13 819,-76 822.06,-75.45 825.24,-74.88 828.43,-74.3"/>
<polygon fill="midnightblue" stroke="midnightblue" points="620.23,-107.27 610.97,-112.42 621.41,-114.17 620.23,-107.27"/>
</g>
<!-- Node9&#45;&gt;Node10 -->
<g id="edge10" class="edge">
<title>Node9&#45;&gt;Node10</title>
<path fill="none" stroke="midnightblue" d="M517.86,-109.96C478.01,-99.76 419.64,-84.82 383.28,-75.52"/>
<polygon fill="midnightblue" stroke="midnightblue" points="517.01,-113.35 527.57,-112.44 518.75,-106.57 517.01,-113.35"/>
</g>
<!-- Node11 -->
<g id="node11" class="node">
<title>Node11</title>
<g id="a_node11"><a xlink:href="../../dc/dbc/eth__helper__functions_8h.html" target="_top" xlink:title=" ">
<polygon fill="white" stroke="black" points="553,-56.5 553,-75.5 667,-75.5 667,-56.5 553,-56.5"/>
<text text-anchor="middle" x="610" y="-63.5" font-family="Helvetica,sans-Serif" font-size="10.00">eth_helper_functions.h</text>
</a>
</g>
</g>
<!-- Node9&#45;&gt;Node11 -->
<g id="edge11" class="edge">
<title>Node9&#45;&gt;Node11</title>
<path fill="none" stroke="midnightblue" d="M576.03,-104.43C584.62,-94.97 595.04,-83.48 602.06,-75.75"/>
<polygon fill="midnightblue" stroke="midnightblue" points="573.22,-102.33 569.09,-112.08 578.4,-107.03 573.22,-102.33"/>
</g>
<!-- Node15 -->
<g id="node15" class="node">
<title>Node15</title>
<g id="a_node15"><a xlink:href="../../d2/d4b/eth__contract__raw_8cc.html" target="_top" xlink:title=" ">
<polygon fill="white" stroke="black" points="431,-56.5 431,-75.5 535,-75.5 535,-56.5 431,-56.5"/>
<text text-anchor="middle" x="483" y="-63.5" font-family="Helvetica,sans-Serif" font-size="10.00">eth_contract_raw.cc</text>
</a>
</g>
</g>
<!-- Node9&#45;&gt;Node15 -->
<g id="edge15" class="edge">
<title>Node9&#45;&gt;Node15</title>
<path fill="none" stroke="midnightblue" d="M540.23,-106.62C525.98,-96.76 507.54,-83.99 495.5,-75.65"/>
<polygon fill="midnightblue" stroke="midnightblue" points="538.25,-109.51 548.47,-112.32 542.24,-103.75 538.25,-109.51"/>
</g>
<!-- Node12 -->
<g id="node12" class="node">
<title>Node12</title>
<g id="a_node12"><a xlink:href="../../d8/da6/eth__contract__curl_8cc.html" target="_top" xlink:title=" ">
<polygon fill="white" stroke="black" points="425,-0.5 425,-19.5 529,-19.5 529,-0.5 425,-0.5"/>
<text text-anchor="middle" x="477" y="-7.5" font-family="Helvetica,sans-Serif" font-size="10.00">eth_contract_curl.cc</text>
</a>
</g>
</g>
<!-- Node11&#45;&gt;Node12 -->
<g id="edge12" class="edge">
<title>Node11&#45;&gt;Node12</title>
<path fill="none" stroke="midnightblue" d="M579.55,-52.64C554.59,-42.5 519.92,-28.43 497.98,-19.52"/>
<polygon fill="midnightblue" stroke="midnightblue" points="578.34,-55.92 588.93,-56.44 580.98,-49.44 578.34,-55.92"/>
</g>
<!-- Node13 -->
<g id="node13" class="node">
<title>Node13</title>
<g id="a_node13"><a xlink:href="../../d4/d57/eth__contract__curl__test_8cc.html" target="_top" xlink:title=" ">
<polygon fill="white" stroke="black" points="547,-0.5 547,-19.5 673,-19.5 673,-0.5 547,-0.5"/>
<text text-anchor="middle" x="610" y="-7.5" font-family="Helvetica,sans-Serif" font-size="10.00">eth_contract_curl_test.cc</text>
</a>
</g>
</g>
<!-- Node11&#45;&gt;Node13 -->
<g id="edge13" class="edge">
<title>Node11&#45;&gt;Node13</title>
<path fill="none" stroke="midnightblue" d="M610,-45.8C610,-36.91 610,-26.78 610,-19.75"/>
<polygon fill="midnightblue" stroke="midnightblue" points="606.5,-46.08 610,-56.08 613.5,-46.08 606.5,-46.08"/>
</g>
<!-- Node14 -->
<g id="node14" class="node">
<title>Node14</title>
<g id="a_node14"><a xlink:href="../../da/d5c/eth__transaction_8cc.html" target="_top" xlink:title=" ">
<polygon fill="white" stroke="black" points="691,-0.5 691,-19.5 787,-19.5 787,-0.5 691,-0.5"/>
<text text-anchor="middle" x="739" y="-7.5" font-family="Helvetica,sans-Serif" font-size="10.00">eth_transaction.cc</text>
</a>
</g>
</g>
<!-- Node11&#45;&gt;Node14 -->
<g id="edge14" class="edge">
<title>Node11&#45;&gt;Node14</title>
<path fill="none" stroke="midnightblue" d="M639.85,-52.5C664.04,-42.38 697.46,-28.39 718.66,-19.52"/>
<polygon fill="midnightblue" stroke="midnightblue" points="638.31,-49.35 630.44,-56.44 641.02,-55.81 638.31,-49.35"/>
</g>
<!-- Node16&#45;&gt;Node6 -->
<g id="edge20" class="edge">
<title>Node16&#45;&gt;Node6</title>
<path fill="none" stroke="midnightblue" d="M767.32,-108.5C791.88,-98.38 825.82,-84.39 847.34,-75.52"/>
<polygon fill="midnightblue" stroke="midnightblue" points="765.67,-105.4 757.76,-112.44 768.34,-111.87 765.67,-105.4"/>
</g>
<!-- Node16&#45;&gt;Node17 -->
<g id="edge19" class="edge">
<title>Node16&#45;&gt;Node17</title>
<path fill="none" stroke="midnightblue" d="M740.85,-102.1C742.68,-93.14 744.77,-82.86 746.22,-75.75"/>
<polygon fill="midnightblue" stroke="midnightblue" points="737.38,-101.59 738.82,-112.08 744.24,-102.98 737.38,-101.59"/>
</g>
<!-- Node18&#45;&gt;Node6 -->
<g id="edge24" class="edge">
<title>Node18&#45;&gt;Node6</title>
<path fill="none" stroke="midnightblue" d="M866.71,-101.8C867.04,-92.91 867.42,-82.78 867.68,-75.75"/>
<polygon fill="midnightblue" stroke="midnightblue" points="863.2,-101.96 866.33,-112.08 870.2,-102.22 863.2,-101.96"/>
</g>
<!-- Node18&#45;&gt;Node19 -->
<g id="edge23" class="edge">
<title>Node18&#45;&gt;Node19</title>
<path fill="none" stroke="midnightblue" d="M896.09,-108.5C920.46,-98.38 954.14,-84.39 975.5,-75.52"/>
<polygon fill="midnightblue" stroke="midnightblue" points="894.49,-105.38 886.6,-112.44 897.18,-111.84 894.49,-105.38"/>
</g>
<!-- Node20&#45;&gt;Node6 -->
<g id="edge28" class="edge">
<title>Node20&#45;&gt;Node6</title>
<path fill="none" stroke="midnightblue" d="M962.99,-108.37C939.77,-98.26 907.84,-84.35 887.56,-75.52"/>
<polygon fill="midnightblue" stroke="midnightblue" points="961.79,-111.66 972.35,-112.44 964.58,-105.24 961.79,-111.66"/>
</g>
<!-- Node20&#45;&gt;Node21 -->
<g id="edge27" class="edge">
<title>Node20&#45;&gt;Node21</title>
<path fill="none" stroke="midnightblue" d="M1024.25,-108.91C1051.32,-98.75 1089.32,-84.51 1113.29,-75.52"/>
<polygon fill="midnightblue" stroke="midnightblue" points="1022.95,-105.66 1014.82,-112.44 1025.41,-112.21 1022.95,-105.66"/>
</g>
<!-- Node22&#45;&gt;Node6 -->
<g id="edge32" class="edge">
<title>Node22&#45;&gt;Node6</title>
<path fill="none" stroke="midnightblue" d="M1068.38,-110.28C1021.13,-100.08 950.96,-84.92 907.43,-75.52"/>
<polygon fill="midnightblue" stroke="midnightblue" points="1067.87,-113.75 1078.39,-112.44 1069.35,-106.91 1067.87,-113.75"/>
</g>
<!-- Node22&#45;&gt;Node23 -->
<g id="edge31" class="edge">
<title>Node22&#45;&gt;Node23</title>
<path fill="none" stroke="midnightblue" d="M1152.11,-109.04C1181.09,-98.88 1221.96,-84.55 1247.71,-75.52"/>
<polygon fill="midnightblue" stroke="midnightblue" points="1150.68,-105.83 1142.4,-112.44 1153,-112.44 1150.68,-105.83"/>
</g>
<!-- Node26 -->
<g id="node26" class="node">
<title>Node26</title>
<g id="a_node26"><a xlink:href="../../d8/d00/dummy__state_8cc.html" target="_top" xlink:title=" ">
<polygon fill="white" stroke="black" points="1436,-56.5 1436,-75.5 1524,-75.5 1524,-56.5 1436,-56.5"/>
<text text-anchor="middle" x="1480" y="-63.5" font-family="Helvetica,sans-Serif" font-size="10.00">dummy_state.cc</text>
</a>
</g>
</g>
<!-- Node25&#45;&gt;Node26 -->
<g id="edge36" class="edge">
<title>Node25&#45;&gt;Node26</title>
<path fill="none" stroke="midnightblue" d="M1480,-101.8C1480,-92.91 1480,-82.78 1480,-75.75"/>
<polygon fill="midnightblue" stroke="midnightblue" points="1476.5,-102.08 1480,-112.08 1483.5,-102.08 1476.5,-102.08"/>
</g>
<!-- Node27&#45;&gt;Node28 -->
<g id="edge38" class="edge">
<title>Node27&#45;&gt;Node28</title>
<path fill="none" stroke="midnightblue" d="M1607.14,-102.4C1604.3,-93.36 1601.02,-82.94 1598.75,-75.75"/>
<polygon fill="midnightblue" stroke="midnightblue" points="1603.85,-103.6 1610.19,-112.08 1610.53,-101.49 1603.85,-103.6"/>
</g>
<!-- Node29&#45;&gt;Node30 -->
<g id="edge41" class="edge">
<title>Node29&#45;&gt;Node30</title>
<path fill="none" stroke="midnightblue" d="M1742.66,-102.98C1738.42,-93.82 1733.45,-83.09 1730.05,-75.75"/>
<polygon fill="midnightblue" stroke="midnightblue" points="1739.49,-104.48 1746.87,-112.08 1745.85,-101.54 1739.49,-104.48"/>
</g>
</g>
</svg>
        <g id="navigator" transform="translate(0 0)" fill="#404254">
                <rect fill="#f2f5e9" fill-opacity="0.5" stroke="#606060" stroke-width=".5" x="0" y="0" width="60" height="60"/>
                <use id="zoomplus" xlink:href="#zoomPlus" x="17" y="9" onmousedown="handleZoom(evt,'in')"/>
                <use id="zoomminus" xlink:href="#zoomMin" x="42" y="9" onmousedown="handleZoom(evt,'out')"/>
                <use id="reset" xlink:href="#resetDef" x="30" y="36" onmousedown="handleReset()"/>
                <g id="arrowUp" xlink:href="#dirArrow" transform="translate(30 24)" onmousedown="handlePan(0,-1)">
                  <use xlink:href="#rim" fill="#404040">
                        <set attributeName="fill" to="#808080" begin="arrowUp.mouseover" end="arrowUp.mouseout"/>
                  </use>
                  <path fill="none" stroke="white" stroke-width="1.5" d="M0,-3.0v7 M-2.5,-0.5L0,-3.0L2.5,-0.5"/>
                </g>
                <g id="arrowRight" xlink:href="#dirArrow" transform="rotate(90) translate(36 -43)" onmousedown="handlePan(1,0)">
                  <use xlink:href="#rim" fill="#404040">
                        <set attributeName="fill" to="#808080" begin="arrowRight.mouseover" end="arrowRight.mouseout"/>
                  </use>
                  <path fill="none" stroke="white" stroke-width="1.5" d="M0,-3.0v7 M-2.5,-0.5L0,-3.0L2.5,-0.5"/>
                </g>
                <g id="arrowDown" xlink:href="#dirArrow" transform="rotate(180) translate(-30 -48)" onmousedown="handlePan(0,1)">
                  <use xlink:href="#rim" fill="#404040">
                        <set attributeName="fill" to="#808080" begin="arrowDown.mouseover" end="arrowDown.mouseout"/>
                  </use>
                  <path fill="none" stroke="white" stroke-width="1.5" d="M0,-3.0v7 M-2.5,-0.5L0,-3.0L2.5,-0.5"/>
                </g>
                <g id="arrowLeft" xlink:href="#dirArrow" transform="rotate(270) translate(-36 17)" onmousedown="handlePan(-1,0)">
                  <use xlink:href="#rim" fill="#404040">
                        <set attributeName="fill" to="#808080" begin="arrowLeft.mouseover" end="arrowLeft.mouseout"/>
                  </use>
                  <path fill="none" stroke="white" stroke-width="1.5" d="M0,-3.0v7 M-2.5,-0.5L0,-3.0L2.5,-0.5"/>
                </g>
        </g>
        <svg viewBox="0 0 15 15" width="100%" height="30px" preserveAspectRatio="xMaxYMin meet">
         <g id="arrow_out" transform="scale(0.3 0.3)">
          <a xlink:href="hash__transformation_8h__dep__incl_org.svg" target="_base">
           <rect id="button" ry="5" rx="5" y="6" x="6" height="38" width="38"
                fill="#f2f5e9" fill-opacity="0.5" stroke="#606060" stroke-width="1.0"/>
           <path id="arrow"
             d="M 11.500037,31.436501 C 11.940474,20.09759 22.043105,11.32322 32.158766,21.979434 L 37.068811,17.246167 C 37.068811,17.246167 37.088388,32 37.088388,32 L 22.160133,31.978069 C 22.160133,31.978069 26.997745,27.140456 26.997745,27.140456 C 18.528582,18.264221 13.291696,25.230495 11.500037,31.436501 z"
             style="fill:#404040;"/>
          </a>
         </g>
        </svg>
</svg>
