<?xml version="1.0" encoding="UTF-8" standalone="no"?>
<!DOCTYPE svg PUBLIC "-//W3C//DTD SVG 1.1//EN"
 "http://www.w3.org/Graphics/SVG/1.1/DTD/svg11.dtd">
<!-- Generated by graphviz version 2.42.3 ()
 -->
<!-- Title: acceptor.h Pages: 1 -->
<svg width="374pt" height="218pt"
 viewBox="0.00 0.00 374.34 218.00" xmlns="http://www.w3.org/2000/svg" xmlns:xlink="http://www.w3.org/1999/xlink">
<g id="graph0" class="graph" transform="scale(1 1) rotate(0) translate(4 214)">
<title>acceptor.h</title>
<polygon fill="white" stroke="transparent" points="-4,4 -4,-214 370.34,-214 370.34,4 -4,4"/>
<!-- Node1 -->
<g id="node1" class="node">
<title>Node1</title>
<g id="a_node1"><a xlink:title=" ">
<polygon fill="#bfbfbf" stroke="black" points="43.84,-190.5 43.84,-209.5 105.84,-209.5 105.84,-190.5 43.84,-190.5"/>
<text text-anchor="middle" x="74.84" y="-197.5" font-family="Helvetica,sans-Serif" font-size="10.00">acceptor.h</text>
</a>
</g>
</g>
<!-- Node2 -->
<g id="node2" class="node">
<title>Node2</title>
<g id="a_node2"><a xlink:title=" ">
<polygon fill="white" stroke="#bfbfbf" points="19.34,-62 19.34,-81 54.34,-81 54.34,-62 19.34,-62"/>
<text text-anchor="middle" x="36.84" y="-69" font-family="Helvetica,sans-Serif" font-size="10.00">map</text>
</a>
</g>
</g>
<!-- Node1&#45;&gt;Node2 -->
<g id="edge1" class="edge">
<title>Node1&#45;&gt;Node2</title>
<path fill="none" stroke="midnightblue" d="M72.22,-190.31C66.1,-169.9 50.68,-118.6 42.37,-90.91"/>
<polygon fill="midnightblue" stroke="midnightblue" points="45.7,-89.83 39.47,-81.26 38.99,-91.84 45.7,-89.83"/>
</g>
<!-- Node3 -->
<g id="node3" class="node">
<title>Node3</title>
<g id="a_node3"><a xlink:title=" ">
<polygon fill="white" stroke="#bfbfbf" points="72.34,-62 72.34,-81 123.34,-81 123.34,-62 72.34,-62"/>
<text text-anchor="middle" x="97.84" y="-69" font-family="Helvetica,sans-Serif" font-size="10.00">memory</text>
</a>
</g>
</g>
<!-- Node1&#45;&gt;Node3 -->
<g id="edge2" class="edge">
<title>Node1&#45;&gt;Node3</title>
<path fill="none" stroke="midnightblue" d="M76.42,-190.31C80.11,-169.99 89.37,-119.05 94.42,-91.28"/>
<polygon fill="midnightblue" stroke="midnightblue" points="97.9,-91.72 96.24,-81.26 91.01,-90.47 97.9,-91.72"/>
</g>
<!-- Node4 -->
<g id="node4" class="node">
<title>Node4</title>
<g id="a_node4"><a xlink:title=" ">
<polygon fill="white" stroke="#bfbfbf" points="131.34,-0.5 131.34,-19.5 172.34,-19.5 172.34,-0.5 131.34,-0.5"/>
<text text-anchor="middle" x="151.84" y="-7.5" font-family="Helvetica,sans-Serif" font-size="10.00">string</text>
</a>
</g>
</g>
<!-- Node1&#45;&gt;Node4 -->
<g id="edge3" class="edge">
<title>Node1&#45;&gt;Node4</title>
<path fill="none" stroke="midnightblue" d="M64.94,-190.29C39.57,-166.93 -23.51,-101.55 9.84,-56 35.2,-21.35 87.39,-12.72 120.95,-10.93"/>
<polygon fill="midnightblue" stroke="midnightblue" points="121.26,-14.42 131.13,-10.57 121.01,-7.43 121.26,-14.42"/>
</g>
<!-- Node5 -->
<g id="node5" class="node">
<title>Node5</title>
<g id="a_node5"><a xlink:href="../../d1/d13/status_8h.html" target="_top" xlink:title=" ">
<polygon fill="white" stroke="black" points="241.34,-56.5 241.34,-86.5 366.34,-86.5 366.34,-56.5 241.34,-56.5"/>
<text text-anchor="start" x="249.34" y="-74.5" font-family="Helvetica,sans-Serif" font-size="10.00">automaton/core/common</text>
<text text-anchor="middle" x="303.84" y="-63.5" font-family="Helvetica,sans-Serif" font-size="10.00">/status.h</text>
</a>
</g>
</g>
<!-- Node1&#45;&gt;Node5 -->
<g id="edge4" class="edge">
<title>Node1&#45;&gt;Node5</title>
<path fill="none" stroke="midnightblue" d="M106.01,-195.6C139.75,-190.74 194.07,-179.41 233.84,-154 257.48,-138.9 277.5,-113.41 290,-94.96"/>
<polygon fill="midnightblue" stroke="midnightblue" points="292.96,-96.82 295.51,-86.54 287.1,-92.99 292.96,-96.82"/>
</g>
<!-- Node8 -->
<g id="node8" class="node">
<title>Node8</title>
<g id="a_node8"><a xlink:href="../../d4/d67/connection_8h.html" target="_top" xlink:title=" ">
<polygon fill="white" stroke="black" points="102.84,-123.5 102.84,-153.5 224.84,-153.5 224.84,-123.5 102.84,-123.5"/>
<text text-anchor="start" x="110.84" y="-141.5" font-family="Helvetica,sans-Serif" font-size="10.00">automaton/core/network</text>
<text text-anchor="middle" x="163.84" y="-130.5" font-family="Helvetica,sans-Serif" font-size="10.00">/connection.h</text>
</a>
</g>
</g>
<!-- Node1&#45;&gt;Node8 -->
<g id="edge8" class="edge">
<title>Node1&#45;&gt;Node8</title>
<path fill="none" stroke="midnightblue" d="M87.59,-190.48C99.75,-182.34 118.53,-169.79 134.4,-159.18"/>
<polygon fill="midnightblue" stroke="midnightblue" points="136.49,-161.99 142.86,-153.52 132.6,-156.17 136.49,-161.99"/>
</g>
<!-- Node5&#45;&gt;Node4 -->
<g id="edge6" class="edge">
<title>Node5&#45;&gt;Node4</title>
<path fill="none" stroke="midnightblue" d="M267.81,-56.4C241.73,-46.19 206.87,-32.54 182.2,-22.89"/>
<polygon fill="midnightblue" stroke="midnightblue" points="183.22,-19.53 172.64,-19.14 180.67,-26.05 183.22,-19.53"/>
</g>
<!-- Node6 -->
<g id="node6" class="node">
<title>Node6</title>
<g id="a_node6"><a xlink:title=" ">
<polygon fill="white" stroke="#bfbfbf" points="241.84,-0.5 241.84,-19.5 293.84,-19.5 293.84,-0.5 241.84,-0.5"/>
<text text-anchor="middle" x="267.84" y="-7.5" font-family="Helvetica,sans-Serif" font-size="10.00">ostream</text>
</a>
</g>
</g>
<!-- Node5&#45;&gt;Node6 -->
<g id="edge5" class="edge">
<title>Node5&#45;&gt;Node6</title>
<path fill="none" stroke="midnightblue" d="M295.3,-56.4C290.24,-48.02 283.77,-37.33 278.38,-28.42"/>
<polygon fill="midnightblue" stroke="midnightblue" points="281.25,-26.4 273.07,-19.66 275.26,-30.03 281.25,-26.4"/>
</g>
<!-- Node7 -->
<g id="node7" class="node">
<title>Node7</title>
<g id="a_node7"><a xlink:title=" ">
<polygon fill="white" stroke="#bfbfbf" points="311.84,-0.5 311.84,-19.5 365.84,-19.5 365.84,-0.5 311.84,-0.5"/>
<text text-anchor="middle" x="338.84" y="-7.5" font-family="Helvetica,sans-Serif" font-size="10.00">iostream</text>
</a>
</g>
</g>
<!-- Node5&#45;&gt;Node7 -->
<g id="edge7" class="edge">
<title>Node5&#45;&gt;Node7</title>
<path fill="none" stroke="midnightblue" d="M312.13,-56.4C317.06,-48.02 323.35,-37.33 328.59,-28.42"/>
<polygon fill="midnightblue" stroke="midnightblue" points="331.69,-30.05 333.74,-19.66 325.66,-26.5 331.69,-30.05"/>
</g>
<!-- Node8&#45;&gt;Node2 -->
<g id="edge9" class="edge">
<title>Node8&#45;&gt;Node2</title>
<path fill="none" stroke="midnightblue" d="M134.93,-123.48C114.63,-113.53 86.93,-99.73 62.84,-87 62.17,-86.65 61.49,-86.29 60.81,-85.92"/>
<polygon fill="midnightblue" stroke="midnightblue" points="62.35,-82.78 51.9,-81.05 58.99,-88.92 62.35,-82.78"/>
</g>
<!-- Node8&#45;&gt;Node3 -->
<g id="edge10" class="edge">
<title>Node8&#45;&gt;Node3</title>
<path fill="none" stroke="midnightblue" d="M149.52,-123.4C139.02,-113.06 124.77,-99.02 113.89,-88.31"/>
<polygon fill="midnightblue" stroke="midnightblue" points="116.25,-85.72 106.66,-81.19 111.33,-90.71 116.25,-85.72"/>
</g>
<!-- Node8&#45;&gt;Node4 -->
<g id="edge11" class="edge">
<title>Node8&#45;&gt;Node4</title>
<path fill="none" stroke="midnightblue" d="M162.51,-123.48C160.35,-100.72 156.08,-55.7 153.64,-30.06"/>
<polygon fill="midnightblue" stroke="midnightblue" points="157.1,-29.41 152.67,-19.79 150.13,-30.07 157.1,-29.41"/>
</g>
<!-- Node8&#45;&gt;Node5 -->
<g id="edge13" class="edge">
<title>Node8&#45;&gt;Node5</title>
<path fill="none" stroke="midnightblue" d="M194.21,-123.4C214.76,-113.86 242.1,-101.16 264.34,-90.84"/>
<polygon fill="midnightblue" stroke="midnightblue" points="265.92,-93.96 273.52,-86.58 262.97,-87.61 265.92,-93.96"/>
</g>
<!-- Node9 -->
<g id="node9" class="node">
<title>Node9</title>
<g id="a_node9"><a xlink:title=" ">
<polygon fill="white" stroke="#bfbfbf" points="179.84,-62 179.84,-81 223.84,-81 223.84,-62 179.84,-62"/>
<text text-anchor="middle" x="201.84" y="-69" font-family="Helvetica,sans-Serif" font-size="10.00">thread</text>
</a>
</g>
</g>
<!-- Node8&#45;&gt;Node9 -->
<g id="edge12" class="edge">
<title>Node8&#45;&gt;Node9</title>
<path fill="none" stroke="midnightblue" d="M172.08,-123.4C177.83,-113.56 185.54,-100.38 191.67,-89.89"/>
<polygon fill="midnightblue" stroke="midnightblue" points="194.73,-91.59 196.75,-81.19 188.68,-88.06 194.73,-91.59"/>
</g>
</g>
</svg>
