<?xml version="1.0" encoding="UTF-8" standalone="no"?>
<!DOCTYPE svg PUBLIC "-//W3C//DTD SVG 1.1//EN"
 "http://www.w3.org/Graphics/SVG/1.1/DTD/svg11.dtd">
<!-- Generated by graphviz version 2.44.0 ()
 -->
<!-- Title: persistent_vector.h Pages: 1 -->
<svg width="186pt" height="162pt"
 viewBox="0.00 0.00 185.50 162.00" xmlns="http://www.w3.org/2000/svg" xmlns:xlink="http://www.w3.org/1999/xlink">
<g id="graph0" class="graph" transform="scale(1 1) rotate(0) translate(4 158)">
<title>persistent_vector.h</title>
<polygon fill="white" stroke="transparent" points="-4,4 -4,-158 181.5,-158 181.5,4 -4,4"/>
<!-- Node1 -->
<g id="node1" class="node">
<title>Node1</title>
<g id="a_node1"><a xlink:title=" ">
<polygon fill="#bfbfbf" stroke="black" points="15,-134.5 15,-153.5 114,-153.5 114,-134.5 15,-134.5"/>
<text text-anchor="middle" x="64.5" y="-141.5" font-family="Helvetica,sans-Serif" font-size="10.00">persistent_vector.h</text>
</a>
</g>
</g>
<!-- Node2 -->
<g id="node2" class="node">
<title>Node2</title>
<g id="a_node2"><a xlink:title=" ">
<polygon fill="white" stroke="#bfbfbf" points="0,-6 0,-25 41,-25 41,-6 0,-6"/>
<text text-anchor="middle" x="20.5" y="-13" font-family="Helvetica,sans-Serif" font-size="10.00">string</text>
</a>
</g>
</g>
<!-- Node1&#45;&gt;Node2 -->
<g id="edge1" class="edge">
<title>Node1&#45;&gt;Node2</title>
<path fill="none" stroke="midnightblue" d="M59.04,-134.34C53.67,-125.5 45.56,-111.23 40.5,-98 32.55,-77.21 26.97,-52.22 23.76,-35.43"/>
<polygon fill="midnightblue" stroke="midnightblue" points="27.14,-34.49 21.91,-25.28 20.26,-35.75 27.14,-34.49"/>
</g>
<!-- Node3 -->
<g id="node3" class="node">
<title>Node3</title>
<g id="a_node3"><a xlink:href="../../d2/d42/persistent__storage_8h.html" target="_top" xlink:title=" ">
<polygon fill="white" stroke="black" points="49,-67.5 49,-97.5 168,-97.5 168,-67.5 49,-67.5"/>
<text text-anchor="start" x="57" y="-85.5" font-family="Helvetica,sans-Serif" font-size="10.00">automaton/core/storage</text>
<text text-anchor="middle" x="108.5" y="-74.5" font-family="Helvetica,sans-Serif" font-size="10.00">/persistent_storage.h</text>
</a>
</g>
</g>
<!-- Node1&#45;&gt;Node3 -->
<g id="edge2" class="edge">
<title>Node1&#45;&gt;Node3</title>
<path fill="none" stroke="midnightblue" d="M70.8,-134.48C76.37,-126.94 84.74,-115.63 92.18,-105.57"/>
<polygon fill="midnightblue" stroke="midnightblue" points="95,-107.64 98.13,-97.52 89.37,-103.48 95,-107.64"/>
</g>
<!-- Node3&#45;&gt;Node2 -->
<g id="edge3" class="edge">
<title>Node3&#45;&gt;Node2</title>
<path fill="none" stroke="midnightblue" d="M89.41,-67.4C74.92,-56.7 55.07,-42.03 40.39,-31.19"/>
<polygon fill="midnightblue" stroke="midnightblue" points="42.14,-28.13 32.02,-25.01 37.98,-33.76 42.14,-28.13"/>
</g>
<!-- Node4 -->
<g id="node4" class="node">
<title>Node4</title>
<g id="a_node4"><a xlink:title=" ">
<polygon fill="white" stroke="#bfbfbf" points="59.5,-0.5 59.5,-30.5 177.5,-30.5 177.5,-0.5 59.5,-0.5"/>
<text text-anchor="start" x="67.5" y="-18.5" font-family="Helvetica,sans-Serif" font-size="10.00">boost/iostreams/device</text>
<text text-anchor="middle" x="118.5" y="-7.5" font-family="Helvetica,sans-Serif" font-size="10.00">/mapped_file.hpp</text>
</a>
</g>
</g>
<!-- Node3&#45;&gt;Node4 -->
<g id="edge4" class="edge">
<title>Node3&#45;&gt;Node4</title>
<path fill="none" stroke="midnightblue" d="M110.67,-67.4C111.88,-59.56 113.41,-49.6 114.8,-40.57"/>
<polygon fill="midnightblue" stroke="midnightblue" points="118.27,-40.99 116.33,-30.58 111.35,-39.93 118.27,-40.99"/>
</g>
</g>
</svg>
