<?xml version="1.0" encoding="UTF-8" standalone="no"?>
<!DOCTYPE svg PUBLIC "-//W3C//DTD SVG 1.1//EN"
 "http://www.w3.org/Graphics/SVG/1.1/DTD/svg11.dtd">
<!-- Generated by graphviz version 2.44.0 ()
 -->
<!-- Title: automaton::core::network::tcp_connection::connect Pages: 1 -->
<svg width="316pt" height="159pt"
 viewBox="0.00 0.00 316.00 158.50" xmlns="http://www.w3.org/2000/svg" xmlns:xlink="http://www.w3.org/1999/xlink">
<g id="graph0" class="graph" transform="scale(1 1) rotate(0) translate(4 154.5)">
<title>automaton::core::network::tcp_connection::connect</title>
<polygon fill="white" stroke="transparent" points="-4,4 -4,-154.5 312,-154.5 312,4 -4,4"/>
<!-- Node1 -->
<g id="node1" class="node">
<title>Node1</title>
<g id="a_node1"><a xlink:title=" ">
<polygon fill="#bfbfbf" stroke="black" points="0,-66 0,-96 126,-96 126,-66 0,-66"/>
<text text-anchor="start" x="8" y="-84" font-family="Helvetica,sans-Serif" font-size="10.00">automaton::core::network</text>
<text text-anchor="middle" x="63" y="-73" font-family="Helvetica,sans-Serif" font-size="10.00">::tcp_connection::connect</text>
</a>
</g>
</g>
<!-- Node2 -->
<g id="node2" class="node">
<title>Node2</title>
<g id="a_node2"><a xlink:href="../../d3/d6a/classautomaton_1_1core_1_1network_1_1tcp__connection.html#a83e55104ecb4ae8ecb04a9de358aafb9" target="_top" xlink:title=" ">
<polygon fill="white" stroke="black" points="169,-120 169,-150 301,-150 301,-120 169,-120"/>
<text text-anchor="start" x="177" y="-138" font-family="Helvetica,sans-Serif" font-size="10.00">automaton::core::network</text>
<text text-anchor="middle" x="235" y="-127" font-family="Helvetica,sans-Serif" font-size="10.00">::tcp_connection::get_state</text>
</a>
</g>
</g>
<!-- Node1&#45;&gt;Node2 -->
<g id="edge1" class="edge">
<title>Node1&#45;&gt;Node2</title>
<path fill="none" stroke="midnightblue" d="M111.35,-96.04C131.72,-102.51 155.69,-110.13 177.02,-116.9"/>
<polygon fill="midnightblue" stroke="midnightblue" points="176.01,-120.25 186.6,-119.95 178.13,-113.58 176.01,-120.25"/>
</g>
<!-- Node3 -->
<g id="node3" class="node">
<title>Node3</title>
<g id="a_node3"><a xlink:href="../../d6/d94/classautomaton_1_1core_1_1network_1_1connection_1_1connection__handler.html#a52824e75e685277e68856357b71d4aff" target="_top" xlink:title=" ">
<polygon fill="white" stroke="black" points="172.5,-60.5 172.5,-101.5 297.5,-101.5 297.5,-60.5 172.5,-60.5"/>
<text text-anchor="start" x="180.5" y="-89.5" font-family="Helvetica,sans-Serif" font-size="10.00">automaton::core::network</text>
<text text-anchor="start" x="180.5" y="-78.5" font-family="Helvetica,sans-Serif" font-size="10.00">::connection::connection</text>
<text text-anchor="middle" x="235" y="-67.5" font-family="Helvetica,sans-Serif" font-size="10.00">_handler::on_connected</text>
</a>
</g>
</g>
<!-- Node1&#45;&gt;Node3 -->
<g id="edge2" class="edge">
<title>Node1&#45;&gt;Node3</title>
<path fill="none" stroke="midnightblue" d="M126.34,-81C137.92,-81 150.1,-81 161.94,-81"/>
<polygon fill="midnightblue" stroke="midnightblue" points="162.24,-84.5 172.24,-81 162.24,-77.5 162.24,-84.5"/>
</g>
<!-- Node4 -->
<g id="node4" class="node">
<title>Node4</title>
<g id="a_node4"><a xlink:href="../../d6/d94/classautomaton_1_1core_1_1network_1_1connection_1_1connection__handler.html#a0ed6f9fe2c3e17699a7577a64bb326cc" target="_top" xlink:title=" ">
<polygon fill="white" stroke="black" points="162,-0.5 162,-41.5 308,-41.5 308,-0.5 162,-0.5"/>
<text text-anchor="start" x="170" y="-29.5" font-family="Helvetica,sans-Serif" font-size="10.00">automaton::core::network</text>
<text text-anchor="start" x="170" y="-18.5" font-family="Helvetica,sans-Serif" font-size="10.00">::connection::connection</text>
<text text-anchor="middle" x="235" y="-7.5" font-family="Helvetica,sans-Serif" font-size="10.00">_handler::on_connection_error</text>
</a>
</g>
</g>
<!-- Node1&#45;&gt;Node4 -->
<g id="edge3" class="edge">
<title>Node1&#45;&gt;Node4</title>
<path fill="none" stroke="midnightblue" d="M106.9,-65.86C124.82,-59.53 146.08,-52.03 166.03,-44.99"/>
<polygon fill="midnightblue" stroke="midnightblue" points="167.44,-48.2 175.7,-41.58 165.11,-41.6 167.44,-48.2"/>
</g>
</g>
</svg>
