<?xml version="1.0" encoding="UTF-8" standalone="no"?>
<!DOCTYPE svg PUBLIC "-//W3C//DTD SVG 1.1//EN"
 "http://www.w3.org/Graphics/SVG/1.1/DTD/svg11.dtd">
<!-- Generated by graphviz version 2.44.0 ()
 -->
<!-- Title: automaton::core::data::schema::field_info Pages: 1 -->
<svg width="306pt" height="185pt"
 viewBox="0.00 0.00 306.00 185.00" xmlns="http://www.w3.org/2000/svg" xmlns:xlink="http://www.w3.org/1999/xlink">
<g id="graph0" class="graph" transform="scale(1 1) rotate(0) translate(4 181)">
<title>automaton::core::data::schema::field_info</title>
<polygon fill="white" stroke="transparent" points="-4,4 -4,-181 302,-181 302,4 -4,4"/>
<!-- Node1 -->
<g id="node1" class="node">
<title>Node1</title>
<g id="a_node1"><a xlink:title=" ">
<polygon fill="#bfbfbf" stroke="black" points="70,-0.5 70,-30.5 179,-30.5 179,-0.5 70,-0.5"/>
<text text-anchor="start" x="78" y="-18.5" font-family="Helvetica,sans-Serif" font-size="10.00">automaton::core::data</text>
<text text-anchor="middle" x="124.5" y="-7.5" font-family="Helvetica,sans-Serif" font-size="10.00">::schema::field_info</text>
</a>
</g>
</g>
<!-- Node2 -->
<g id="node2" class="node">
<title>Node2</title>
<g id="a_node2"><a xlink:title=" ">
<polygon fill="white" stroke="#bfbfbf" points="0,-89.5 0,-108.5 51,-108.5 51,-89.5 0,-89.5"/>
<text text-anchor="middle" x="25.5" y="-96.5" font-family="Helvetica,sans-Serif" font-size="10.00">uint32_t</text>
</a>
</g>
</g>
<!-- Node2&#45;&gt;Node1 -->
<g id="edge1" class="edge">
<title>Node2&#45;&gt;Node1</title>
<path fill="none" stroke="#9a32cd" stroke-dasharray="5,2" d="M36.01,-81.02C42.92,-70.84 52.66,-58.14 63.5,-49 72.03,-41.81 82.42,-35.55 92.18,-30.5"/>
<polygon fill="#9a32cd" stroke="#9a32cd" points="33.02,-79.2 30.52,-89.49 38.9,-83.01 33.02,-79.2"/>
<text text-anchor="middle" x="71.5" y="-57.5" font-family="Helvetica,sans-Serif" font-size="10.00"> tag</text>
</g>
<!-- Node3 -->
<g id="node3" class="node">
<title>Node3</title>
<g id="a_node3"><a xlink:title=" ">
<polygon fill="white" stroke="#bfbfbf" points="69,-89.5 69,-108.5 104,-108.5 104,-89.5 69,-89.5"/>
<text text-anchor="middle" x="86.5" y="-96.5" font-family="Helvetica,sans-Serif" font-size="10.00">bool</text>
</a>
</g>
</g>
<!-- Node3&#45;&gt;Node1 -->
<g id="edge2" class="edge">
<title>Node3&#45;&gt;Node1</title>
<path fill="none" stroke="#9a32cd" stroke-dasharray="5,2" d="M83.42,-79.22C82.7,-69.75 83.17,-58.32 87.5,-49 90.82,-41.87 96.53,-35.66 102.48,-30.64"/>
<polygon fill="#9a32cd" stroke="#9a32cd" points="79.95,-79.7 84.64,-89.21 86.9,-78.85 79.95,-79.7"/>
<text text-anchor="middle" x="114" y="-57.5" font-family="Helvetica,sans-Serif" font-size="10.00"> is_repeated</text>
</g>
<!-- Node4 -->
<g id="node4" class="node">
<title>Node4</title>
<g id="a_node4"><a xlink:title="STL class.">
<polygon fill="white" stroke="#bfbfbf" points="133,-89.5 133,-108.5 192,-108.5 192,-89.5 133,-89.5"/>
<text text-anchor="middle" x="162.5" y="-96.5" font-family="Helvetica,sans-Serif" font-size="10.00">std::string</text>
</a>
</g>
</g>
<!-- Node4&#45;&gt;Node1 -->
<g id="edge3" class="edge">
<title>Node4&#45;&gt;Node1</title>
<path fill="none" stroke="#9a32cd" stroke-dasharray="5,2" d="M154.57,-79.92C150.45,-70.64 145.29,-59.18 140.5,-49 137.66,-42.97 134.43,-36.36 131.62,-30.69"/>
<polygon fill="#9a32cd" stroke="#9a32cd" points="151.46,-81.55 158.7,-89.28 157.86,-78.72 151.46,-81.55"/>
<text text-anchor="middle" x="192.5" y="-63" font-family="Helvetica,sans-Serif" font-size="10.00"> fully_qualified_type</text>
<text text-anchor="middle" x="192.5" y="-52" font-family="Helvetica,sans-Serif" font-size="10.00">name</text>
</g>
<!-- Node5 -->
<g id="node5" class="node">
<title>Node5</title>
<g id="a_node5"><a xlink:title="STL class.">
<polygon fill="white" stroke="#bfbfbf" points="116,-146.5 116,-176.5 209,-176.5 209,-146.5 116,-146.5"/>
<text text-anchor="start" x="124" y="-164.5" font-family="Helvetica,sans-Serif" font-size="10.00">std::basic_string&lt;</text>
<text text-anchor="middle" x="162.5" y="-153.5" font-family="Helvetica,sans-Serif" font-size="10.00"> char &gt;</text>
</a>
</g>
</g>
<!-- Node5&#45;&gt;Node4 -->
<g id="edge4" class="edge">
<title>Node5&#45;&gt;Node4</title>
<path fill="none" stroke="midnightblue" d="M162.5,-136.35C162.5,-126.51 162.5,-115.78 162.5,-108.54"/>
<polygon fill="midnightblue" stroke="midnightblue" points="159,-136.47 162.5,-146.47 166,-136.47 159,-136.47"/>
</g>
<!-- Node6 -->
<g id="node6" class="node">
<title>Node6</title>
<g id="a_node6"><a xlink:title=" ">
<polygon fill="white" stroke="#bfbfbf" points="241,-89.5 241,-108.5 298,-108.5 298,-89.5 241,-89.5"/>
<text text-anchor="middle" x="269.5" y="-96.5" font-family="Helvetica,sans-Serif" font-size="10.00">field_type</text>
</a>
</g>
</g>
<!-- Node6&#45;&gt;Node1 -->
<g id="edge5" class="edge">
<title>Node6&#45;&gt;Node1</title>
<path fill="none" stroke="#9a32cd" stroke-dasharray="5,2" d="M262.2,-80.22C257.03,-69.71 249.13,-56.95 238.5,-49 221.36,-36.18 199.33,-28.41 179.22,-23.71"/>
<polygon fill="#9a32cd" stroke="#9a32cd" points="259.02,-81.68 266.31,-89.37 265.41,-78.81 259.02,-81.68"/>
<text text-anchor="middle" x="267" y="-57.5" font-family="Helvetica,sans-Serif" font-size="10.00"> type</text>
</g>
</g>
</svg>
