<?xml version="1.0" encoding="UTF-8" standalone="no"?>
<!DOCTYPE svg PUBLIC "-//W3C//DTD SVG 1.1//EN"
 "http://www.w3.org/Graphics/SVG/1.1/DTD/svg11.dtd">
<!-- Generated by graphviz version 2.42.3 ()
 -->
<!-- Title: automaton::core::data::schema::field_info Pages: 1 -->
<svg width="280pt" height="196pt"
 viewBox="0.00 0.00 280.00 196.00" xmlns="http://www.w3.org/2000/svg" xmlns:xlink="http://www.w3.org/1999/xlink">
<g id="graph0" class="graph" transform="scale(1 1) rotate(0) translate(4 192)">
<title>automaton::core::data::schema::field_info</title>
<polygon fill="white" stroke="transparent" points="-4,4 -4,-192 276,-192 276,4 -4,4"/>
<!-- Node1 -->
<g id="node1" class="node">
<title>Node1</title>
<g id="a_node1"><a xlink:title=" ">
<polygon fill="#bfbfbf" stroke="black" points="70,-0.5 70,-30.5 179,-30.5 179,-0.5 70,-0.5"/>
<text text-anchor="start" x="78" y="-18.5" font-family="Helvetica,sans-Serif" font-size="10.00">automaton::core::data</text>
<text text-anchor="middle" x="124.5" y="-7.5" font-family="Helvetica,sans-Serif" font-size="10.00">::schema::field_info</text>
</a>
</g>
</g>
<!-- Node2 -->
<g id="node2" class="node">
<title>Node2</title>
<g id="a_node2"><a xlink:title=" ">
<polygon fill="white" stroke="#bfbfbf" points="0,-100.5 0,-119.5 51,-119.5 51,-100.5 0,-100.5"/>
<text text-anchor="middle" x="25.5" y="-107.5" font-family="Helvetica,sans-Serif" font-size="10.00">uint32_t</text>
</a>
</g>
</g>
<!-- Node2&#45;&gt;Node1 -->
<g id="edge1" class="edge">
<title>Node2&#45;&gt;Node1</title>
<path fill="none" stroke="#9a32cd" stroke-dasharray="5,2" d="M33.41,-90.96C39.79,-78.02 49.79,-60.85 62.5,-49 70.41,-41.62 80.31,-35.45 89.87,-30.53"/>
<polygon fill="#9a32cd" stroke="#9a32cd" points="30.14,-89.71 29.09,-100.25 36.48,-92.66 30.14,-89.71"/>
<text text-anchor="middle" x="70.5" y="-63" font-family="Helvetica,sans-Serif" font-size="10.00"> tag</text>
</g>
<!-- Node3 -->
<g id="node3" class="node">
<title>Node3</title>
<g id="a_node3"><a xlink:title=" ">
<polygon fill="white" stroke="#bfbfbf" points="69,-100.5 69,-119.5 104,-119.5 104,-100.5 69,-100.5"/>
<text text-anchor="middle" x="86.5" y="-107.5" font-family="Helvetica,sans-Serif" font-size="10.00">bool</text>
</a>
</g>
</g>
<!-- Node3&#45;&gt;Node1 -->
<g id="edge2" class="edge">
<title>Node3&#45;&gt;Node1</title>
<path fill="none" stroke="#9a32cd" stroke-dasharray="5,2" d="M83.04,-90.36C81.64,-78.06 81.54,-61.89 87.5,-49 90.8,-41.86 96.51,-35.66 102.47,-30.64"/>
<polygon fill="#9a32cd" stroke="#9a32cd" points="79.6,-91.01 84.55,-100.37 86.52,-89.96 79.6,-91.01"/>
<text text-anchor="middle" x="114" y="-63" font-family="Helvetica,sans-Serif" font-size="10.00"> is_repeated</text>
</g>
<!-- Node4 -->
<g id="node4" class="node">
<title>Node4</title>
<g id="a_node4"><a xlink:title="STL class.">
<polygon fill="white" stroke="#bfbfbf" points="133,-100.5 133,-119.5 192,-119.5 192,-100.5 133,-100.5"/>
<text text-anchor="middle" x="162.5" y="-107.5" font-family="Helvetica,sans-Serif" font-size="10.00">std::string</text>
</a>
</g>
</g>
<!-- Node4&#45;&gt;Node1 -->
<g id="edge3" class="edge">
<title>Node4&#45;&gt;Node1</title>
<path fill="none" stroke="#9a32cd" stroke-dasharray="5,2" d="M156.33,-90.62C152.17,-78.64 146.38,-62.74 140.5,-49 137.88,-42.87 134.68,-36.25 131.84,-30.59"/>
<polygon fill="#9a32cd" stroke="#9a32cd" points="153.1,-92.01 159.65,-100.34 159.73,-89.75 153.1,-92.01"/>
<text text-anchor="middle" x="182.5" y="-74" font-family="Helvetica,sans-Serif" font-size="10.00"> name</text>
<text text-anchor="start" x="153.5" y="-63" font-family="Helvetica,sans-Serif" font-size="10.00">fully_qualified</text>
<text text-anchor="middle" x="182.5" y="-52" font-family="Helvetica,sans-Serif" font-size="10.00">_type</text>
</g>
<!-- Node5 -->
<g id="node5" class="node">
<title>Node5</title>
<g id="a_node5"><a xlink:title="STL class.">
<polygon fill="white" stroke="#bfbfbf" points="116,-157.5 116,-187.5 209,-187.5 209,-157.5 116,-157.5"/>
<text text-anchor="start" x="124" y="-175.5" font-family="Helvetica,sans-Serif" font-size="10.00">std::basic_string&lt;</text>
<text text-anchor="middle" x="162.5" y="-164.5" font-family="Helvetica,sans-Serif" font-size="10.00"> char &gt;</text>
</a>
</g>
</g>
<!-- Node5&#45;&gt;Node4 -->
<g id="edge4" class="edge">
<title>Node5&#45;&gt;Node4</title>
<path fill="none" stroke="midnightblue" d="M162.5,-147.35C162.5,-137.51 162.5,-126.78 162.5,-119.54"/>
<polygon fill="midnightblue" stroke="midnightblue" points="159,-147.47 162.5,-157.47 166,-147.47 159,-147.47"/>
</g>
<!-- Node6 -->
<g id="node6" class="node">
<title>Node6</title>
<g id="a_node6"><a xlink:title=" ">
<polygon fill="white" stroke="#bfbfbf" points="215,-100.5 215,-119.5 272,-119.5 272,-100.5 215,-100.5"/>
<text text-anchor="middle" x="243.5" y="-107.5" font-family="Helvetica,sans-Serif" font-size="10.00">field_type</text>
</a>
</g>
</g>
<!-- Node6&#45;&gt;Node1 -->
<g id="edge5" class="edge">
<title>Node6&#45;&gt;Node1</title>
<path fill="none" stroke="#9a32cd" stroke-dasharray="5,2" d="M238.98,-90.49C234.88,-77.29 227.59,-60 215.5,-49 205.33,-39.74 192.34,-33.08 179.37,-28.3"/>
<polygon fill="#9a32cd" stroke="#9a32cd" points="235.68,-91.68 241.71,-100.39 242.43,-89.82 235.68,-91.68"/>
<text text-anchor="middle" x="246" y="-63" font-family="Helvetica,sans-Serif" font-size="10.00"> type</text>
</g>
</g>
</svg>
