<?xml version="1.0" encoding="UTF-8" standalone="no"?>
<!DOCTYPE svg PUBLIC "-//W3C//DTD SVG 1.1//EN"
 "http://www.w3.org/Graphics/SVG/1.1/DTD/svg11.dtd">
<!-- Generated by graphviz version 2.44.0 ()
 -->
<!-- Title: automaton::core::storage::persistent_storage Pages: 1 -->
<svg width="340pt" height="99pt"
 viewBox="0.00 0.00 340.00 98.50" xmlns="http://www.w3.org/2000/svg" xmlns:xlink="http://www.w3.org/1999/xlink">
<g id="graph0" class="graph" transform="scale(1 1) rotate(0) translate(4 94.5)">
<title>automaton::core::storage::persistent_storage</title>
<polygon fill="white" stroke="transparent" points="-4,4 -4,-94.5 336,-94.5 336,4 -4,4"/>
<!-- Node1 -->
<g id="node1" class="node">
<title>Node1</title>
<g id="a_node1"><a xlink:title=" ">
<polygon fill="#bfbfbf" stroke="black" points="0,-33 0,-63 122,-63 122,-33 0,-33"/>
<text text-anchor="start" x="8" y="-51" font-family="Helvetica,sans-Serif" font-size="10.00">automaton::core::storage</text>
<text text-anchor="middle" x="61" y="-40" font-family="Helvetica,sans-Serif" font-size="10.00">::persistent_storage</text>
</a>
</g>
</g>
<!-- Node2 -->
<g id="node2" class="node">
<title>Node2</title>
<g id="a_node2"><a xlink:href="../../d5/dd6/classautomaton_1_1core_1_1storage_1_1persistent__vector.html" target="_top" xlink:title=" ">
<polygon fill="white" stroke="black" points="184,-60 184,-90 306,-90 306,-60 184,-60"/>
<text text-anchor="start" x="192" y="-78" font-family="Helvetica,sans-Serif" font-size="10.00">automaton::core::storage</text>
<text text-anchor="middle" x="245" y="-67" font-family="Helvetica,sans-Serif" font-size="10.00">::persistent_vector&lt; T &gt;</text>
</a>
</g>
</g>
<!-- Node1&#45;&gt;Node2 -->
<g id="edge1" class="edge">
<title>Node1&#45;&gt;Node2</title>
<path fill="none" stroke="darkgreen" d="M132.04,-58.39C149.17,-60.93 167.35,-63.63 183.97,-66.09"/>
<polygon fill="darkgreen" stroke="darkgreen" points="132.5,-54.92 122.1,-56.92 131.48,-61.85 132.5,-54.92"/>
</g>
<!-- Node3 -->
<g id="node3" class="node">
<title>Node3</title>
<g id="a_node3"><a xlink:href="../../d5/dd6/classautomaton_1_1core_1_1storage_1_1persistent__vector.html" target="_top" xlink:title=" ">
<polygon fill="white" stroke="black" points="158,-0.5 158,-41.5 332,-41.5 332,-0.5 158,-0.5"/>
<text text-anchor="start" x="166" y="-29.5" font-family="Helvetica,sans-Serif" font-size="10.00">automaton::core::storage</text>
<text text-anchor="start" x="166" y="-18.5" font-family="Helvetica,sans-Serif" font-size="10.00">::persistent_vector&lt; automaton</text>
<text text-anchor="middle" x="245" y="-7.5" font-family="Helvetica,sans-Serif" font-size="10.00">::core::state::state_persistent::node &gt;</text>
</a>
</g>
</g>
<!-- Node1&#45;&gt;Node3 -->
<g id="edge2" class="edge">
<title>Node1&#45;&gt;Node3</title>
<path fill="none" stroke="darkgreen" d="M132.23,-37.58C140.66,-36.33 149.33,-35.04 157.95,-33.77"/>
<polygon fill="darkgreen" stroke="darkgreen" points="131.48,-34.15 122.1,-39.08 132.5,-41.08 131.48,-34.15"/>
</g>
</g>
</svg>
