<?xml version="1.0" encoding="UTF-8" standalone="no"?>
<!DOCTYPE svg PUBLIC "-//W3C//DTD SVG 1.1//EN"
 "http://www.w3.org/Graphics/SVG/1.1/DTD/svg11.dtd">
<!-- Generated by graphviz version 2.42.3 ()
 -->
<!-- Title: eth_contract_raw.cc Pages: 1 -->
<!--zoomable 363 -->
<svg id="main" version="1.1" xmlns="http://www.w3.org/2000/svg" xmlns:xlink="http://www.w3.org/1999/xlink" xml:space="preserve" onload="init(evt)">
<style type="text/css"><![CDATA[
.edge:hover path { stroke: red; }
.edge:hover polygon { stroke: red; fill: red; }
]]></style>
<script type="text/javascript"><![CDATA[
var edges = document.getElementsByTagName('g');
if (edges && edges.length) {
  for (var i=0;i<edges.length;i++) {
    if (edges[i].id.substr(0,4)=='edge') {
      edges[i].setAttribute('class','edge');
    }
  }
}
]]></script>
        <defs>
                <circle id="rim" cx="0" cy="0" r="7"/>
                <circle id="rim2" cx="0" cy="0" r="3.5"/>
                <g id="zoomPlus">
                        <use xlink:href="#rim" fill="#404040">
                                <set attributeName="fill" to="#808080" begin="zoomplus.mouseover" end="zoomplus.mouseout"/>
                        </use>
                        <path d="M-4,0h8M0,-4v8" fill="none" stroke="white" stroke-width="1.5" pointer-events="none"/>
                </g>
                <g id="zoomMin">
                        <use xlink:href="#rim" fill="#404040">
                                <set attributeName="fill" to="#808080" begin="zoomminus.mouseover" end="zoomminus.mouseout"/>
                        </use>
                        <path d="M-4,0h8" fill="none" stroke="white" stroke-width="1.5" pointer-events="none"/>
                </g>
                <g id="dirArrow">
                        <path fill="none" stroke="white" stroke-width="1.5" d="M0,-3.0v7 M-2.5,-0.5L0,-3.0L2.5,-0.5"/>
                </g>
               <g id="resetDef">
                       <use xlink:href="#rim2" fill="#404040">
                               <set attributeName="fill" to="#808080" begin="reset.mouseover" end="reset.mouseout"/>
                       </use>
               </g>
        </defs>

<script type="text/javascript">
var viewWidth = 2319;
var viewHeight = 363;
var sectionId = 'dynsection-0';
</script>
<script xlink:href="../../svgpan.js"/>
<svg id="graph" class="graph">
<g id="viewport">
<title>eth_contract_raw.cc</title>
<polygon fill="white" stroke="transparent" points="-4,4 -4,-359 2315,-359 2315,4 -4,4"/>
<!-- Node1 -->
<g id="node1" class="node">
<title>Node1</title>
<g id="a_node1"><a xlink:title=" ">
<polygon fill="#bfbfbf" stroke="black" points="1422.5,-335.5 1422.5,-354.5 1526.5,-354.5 1526.5,-335.5 1422.5,-335.5"/>
<text text-anchor="middle" x="1474.5" y="-342.5" font-family="Helvetica,sans-Serif" font-size="10.00">eth_contract_raw.cc</text>
</a>
</g>
</g>
<!-- Node2 -->
<g id="node2" class="node">
<title>Node2</title>
<g id="a_node2"><a xlink:href="../../df/df6/eth__contract__raw_8h.html" target="_top" xlink:title=" ">
<polygon fill="white" stroke="black" points="350.5,-268.5 350.5,-298.5 496.5,-298.5 496.5,-268.5 350.5,-268.5"/>
<text text-anchor="start" x="358.5" y="-286.5" font-family="Helvetica,sans-Serif" font-size="10.00">automaton/core/interop</text>
<text text-anchor="middle" x="423.5" y="-275.5" font-family="Helvetica,sans-Serif" font-size="10.00">/ethereum/eth_contract_raw.h</text>
</a>
</g>
</g>
<!-- Node1&#45;&gt;Node2 -->
<g id="edge1" class="edge">
<title>Node1&#45;&gt;Node2</title>
<path fill="none" stroke="midnightblue" d="M1422.49,-341.11C1294.88,-334.02 956.13,-315.14 673.5,-299 617.88,-295.82 555.31,-292.2 506.68,-289.36"/>
<polygon fill="midnightblue" stroke="midnightblue" points="506.7,-285.86 496.52,-288.77 506.3,-292.85 506.7,-285.86"/>
</g>
<!-- Node5 -->
<g id="node5" class="node">
<title>Node5</title>
<g id="a_node5"><a xlink:title=" ">
<polygon fill="white" stroke="#bfbfbf" points="753,-0.5 753,-19.5 794,-19.5 794,-0.5 753,-0.5"/>
<text text-anchor="middle" x="773.5" y="-7.5" font-family="Helvetica,sans-Serif" font-size="10.00">string</text>
</a>
</g>
</g>
<!-- Node1&#45;&gt;Node5 -->
<g id="edge18" class="edge">
<title>Node1&#45;&gt;Node5</title>
<path fill="none" stroke="midnightblue" d="M1526.55,-337.18C1631.27,-322 1857.5,-281.19 1857.5,-212 1857.5,-212 1857.5,-212 1857.5,-137.5 1857.5,-24.52 959.69,-33.35 847.5,-20 833.3,-18.31 817.58,-16.4 804.29,-14.78"/>
<polygon fill="midnightblue" stroke="midnightblue" points="804.58,-11.29 794.23,-13.55 803.73,-18.24 804.58,-11.29"/>
</g>
<!-- Node7 -->
<g id="node7" class="node">
<title>Node7</title>
<g id="a_node7"><a xlink:title=" ">
<polygon fill="white" stroke="#bfbfbf" points="471,-201.5 471,-220.5 510,-220.5 510,-201.5 471,-201.5"/>
<text text-anchor="middle" x="490.5" y="-208.5" font-family="Helvetica,sans-Serif" font-size="10.00">utility</text>
</a>
</g>
</g>
<!-- Node1&#45;&gt;Node7 -->
<g id="edge19" class="edge">
<title>Node1&#45;&gt;Node7</title>
<path fill="none" stroke="midnightblue" d="M1422.3,-341.43C1247.82,-332.3 686.47,-298.33 519.5,-232 515.88,-230.56 512.26,-228.6 508.87,-226.46"/>
<polygon fill="midnightblue" stroke="midnightblue" points="510.78,-223.52 500.58,-220.64 506.76,-229.25 510.78,-223.52"/>
</g>
<!-- Node15 -->
<g id="node15" class="node">
<title>Node15</title>
<g id="a_node15"><a xlink:title=" ">
<polygon fill="white" stroke="#bfbfbf" points="2032.5,-274 2032.5,-293 2082.5,-293 2082.5,-274 2032.5,-274"/>
<text text-anchor="middle" x="2057.5" y="-281" font-family="Helvetica,sans-Serif" font-size="10.00">iomanip</text>
</a>
</g>
</g>
<!-- Node1&#45;&gt;Node15 -->
<g id="edge17" class="edge">
<title>Node1&#45;&gt;Node15</title>
<path fill="none" stroke="midnightblue" d="M1526.71,-341.86C1644.97,-336.66 1930.2,-322.07 2023.5,-299 2025.87,-298.42 2028.28,-297.68 2030.67,-296.86"/>
<polygon fill="midnightblue" stroke="midnightblue" points="2032.18,-300.03 2040.22,-293.13 2029.64,-293.51 2032.18,-300.03"/>
</g>
<!-- Node16 -->
<g id="node16" class="node">
<title>Node16</title>
<g id="a_node16"><a xlink:title=" ">
<polygon fill="white" stroke="#bfbfbf" points="2101,-274 2101,-293 2154,-293 2154,-274 2101,-274"/>
<text text-anchor="middle" x="2127.5" y="-281" font-family="Helvetica,sans-Serif" font-size="10.00">json.hpp</text>
</a>
</g>
</g>
<!-- Node1&#45;&gt;Node16 -->
<g id="edge20" class="edge">
<title>Node1&#45;&gt;Node16</title>
<path fill="none" stroke="midnightblue" d="M1526.85,-342.26C1655.54,-337.66 1984.65,-323.78 2091.5,-299 2094.33,-298.34 2097.23,-297.5 2100.09,-296.54"/>
<polygon fill="midnightblue" stroke="midnightblue" points="2101.4,-299.79 2109.54,-293 2098.95,-293.23 2101.4,-299.79"/>
</g>
<!-- Node17 -->
<g id="node17" class="node">
<title>Node17</title>
<g id="a_node17"><a xlink:href="../../da/d44/_keccak__256__cryptopp_8h.html" target="_top" xlink:title=" ">
<polygon fill="white" stroke="black" points="47,-190.5 47,-231.5 160,-231.5 160,-190.5 47,-190.5"/>
<text text-anchor="start" x="55" y="-219.5" font-family="Helvetica,sans-Serif" font-size="10.00">automaton/core/crypto</text>
<text text-anchor="start" x="55" y="-208.5" font-family="Helvetica,sans-Serif" font-size="10.00">/cryptopp/Keccak_256</text>
<text text-anchor="middle" x="103.5" y="-197.5" font-family="Helvetica,sans-Serif" font-size="10.00">_cryptopp.h</text>
</a>
</g>
</g>
<!-- Node1&#45;&gt;Node17 -->
<g id="edge21" class="edge">
<title>Node1&#45;&gt;Node17</title>
<path fill="none" stroke="midnightblue" d="M1422.27,-344.07C1228.69,-344 552.49,-340.69 341.5,-299 274.68,-285.8 201.62,-256.74 154.32,-235.84"/>
<polygon fill="midnightblue" stroke="midnightblue" points="155.48,-232.52 144.92,-231.64 152.63,-238.91 155.48,-232.52"/>
</g>
<!-- Node21 -->
<g id="node21" class="node">
<title>Node21</title>
<g id="a_node21"><a xlink:href="../../dc/dac/io_8h.html" target="_top" xlink:title=" ">
<polygon fill="white" stroke="black" points="1901,-274 1901,-293 2014,-293 2014,-274 1901,-274"/>
<text text-anchor="middle" x="1957.5" y="-281" font-family="Helvetica,sans-Serif" font-size="10.00">automaton/core/io/io.h</text>
</a>
</g>
</g>
<!-- Node1&#45;&gt;Node21 -->
<g id="edge28" class="edge">
<title>Node1&#45;&gt;Node21</title>
<path fill="none" stroke="midnightblue" d="M1526.64,-339C1602.63,-331.5 1748.21,-316.37 1871.5,-299 1880.64,-297.71 1890.3,-296.22 1899.72,-294.68"/>
<polygon fill="midnightblue" stroke="midnightblue" points="1900.51,-298.1 1909.81,-293.01 1899.37,-291.19 1900.51,-298.1"/>
</g>
<!-- Node26 -->
<g id="node26" class="node">
<title>Node26</title>
<g id="a_node26"><a xlink:href="../../d8/d3f/tcp__implementation_8h.html" target="_top" xlink:title=" ">
<polygon fill="white" stroke="black" points="964.5,-268.5 964.5,-298.5 1086.5,-298.5 1086.5,-268.5 964.5,-268.5"/>
<text text-anchor="start" x="972.5" y="-286.5" font-family="Helvetica,sans-Serif" font-size="10.00">automaton/core/network</text>
<text text-anchor="middle" x="1025.5" y="-275.5" font-family="Helvetica,sans-Serif" font-size="10.00">/tcp_implementation.h</text>
</a>
</g>
</g>
<!-- Node1&#45;&gt;Node26 -->
<g id="edge34" class="edge">
<title>Node1&#45;&gt;Node26</title>
<path fill="none" stroke="midnightblue" d="M1422.12,-337.06C1341.7,-326.4 1187.67,-305.99 1097.04,-293.98"/>
<polygon fill="midnightblue" stroke="midnightblue" points="1097.23,-290.47 1086.85,-292.63 1096.31,-297.41 1097.23,-290.47"/>
</g>
<!-- Node3 -->
<g id="node3" class="node">
<title>Node3</title>
<g id="a_node3"><a xlink:title=" ">
<polygon fill="white" stroke="#bfbfbf" points="178,-201.5 178,-220.5 237,-220.5 237,-201.5 178,-201.5"/>
<text text-anchor="middle" x="207.5" y="-208.5" font-family="Helvetica,sans-Serif" font-size="10.00">functional</text>
</a>
</g>
</g>
<!-- Node2&#45;&gt;Node3 -->
<g id="edge2" class="edge">
<title>Node2&#45;&gt;Node3</title>
<path fill="none" stroke="midnightblue" d="M362.31,-268.49C327.48,-259.7 283.38,-247.15 245.5,-232 240.73,-230.09 235.78,-227.76 231.09,-225.38"/>
<polygon fill="midnightblue" stroke="midnightblue" points="232.43,-222.13 221.96,-220.52 229.14,-228.31 232.43,-222.13"/>
</g>
<!-- Node4 -->
<g id="node4" class="node">
<title>Node4</title>
<g id="a_node4"><a xlink:title=" ">
<polygon fill="white" stroke="#bfbfbf" points="651,-62 651,-81 702,-81 702,-62 651,-62"/>
<text text-anchor="middle" x="676.5" y="-69" font-family="Helvetica,sans-Serif" font-size="10.00">memory</text>
</a>
</g>
</g>
<!-- Node2&#45;&gt;Node4 -->
<g id="edge3" class="edge">
<title>Node2&#45;&gt;Node4</title>
<path fill="none" stroke="midnightblue" d="M420.14,-268.27C416.37,-248.5 412.87,-212.61 430.5,-190 461.61,-150.1 492.46,-174.98 538.5,-154 581.99,-134.18 629.24,-104.27 655.63,-86.73"/>
<polygon fill="midnightblue" stroke="midnightblue" points="657.7,-89.56 664.05,-81.08 653.8,-83.74 657.7,-89.56"/>
</g>
<!-- Node2&#45;&gt;Node5 -->
<g id="edge4" class="edge">
<title>Node2&#45;&gt;Node5</title>
<path fill="none" stroke="midnightblue" d="M416.63,-268.26C408.33,-248.79 397.38,-213.61 413.5,-190 438.25,-153.73 471.14,-181.34 505.5,-154 546.79,-121.15 528.83,-85.6 572.5,-56 624.78,-20.56 700.6,-12.6 742.59,-11.08"/>
<polygon fill="midnightblue" stroke="midnightblue" points="742.85,-14.57 752.75,-10.81 742.66,-7.57 742.85,-14.57"/>
</g>
<!-- Node6 -->
<g id="node6" class="node">
<title>Node6</title>
<g id="a_node6"><a xlink:title=" ">
<polygon fill="white" stroke="#bfbfbf" points="255,-201.5 255,-220.5 338,-220.5 338,-201.5 255,-201.5"/>
<text text-anchor="middle" x="296.5" y="-208.5" font-family="Helvetica,sans-Serif" font-size="10.00">unordered_map</text>
</a>
</g>
</g>
<!-- Node2&#45;&gt;Node6 -->
<g id="edge5" class="edge">
<title>Node2&#45;&gt;Node6</title>
<path fill="none" stroke="midnightblue" d="M398.1,-268.4C375.56,-255.89 342.84,-237.72 320.67,-225.42"/>
<polygon fill="midnightblue" stroke="midnightblue" points="322.31,-222.33 311.87,-220.53 318.92,-228.45 322.31,-222.33"/>
</g>
<!-- Node2&#45;&gt;Node7 -->
<g id="edge6" class="edge">
<title>Node2&#45;&gt;Node7</title>
<path fill="none" stroke="midnightblue" d="M437.06,-268.23C447.99,-256.73 463.39,-240.53 474.85,-228.47"/>
<polygon fill="midnightblue" stroke="midnightblue" points="477.7,-230.55 482.05,-220.89 472.62,-225.73 477.7,-230.55"/>
</g>
<!-- Node8 -->
<g id="node8" class="node">
<title>Node8</title>
<g id="a_node8"><a xlink:title=" ">
<polygon fill="white" stroke="#bfbfbf" points="528.5,-201.5 528.5,-220.5 572.5,-220.5 572.5,-201.5 528.5,-201.5"/>
<text text-anchor="middle" x="550.5" y="-208.5" font-family="Helvetica,sans-Serif" font-size="10.00">vector</text>
</a>
</g>
</g>
<!-- Node2&#45;&gt;Node8 -->
<g id="edge7" class="edge">
<title>Node2&#45;&gt;Node8</title>
<path fill="none" stroke="midnightblue" d="M451.22,-268.42C470.32,-258.56 496.18,-244.89 518.5,-232 521.82,-230.09 525.28,-228 528.66,-225.93"/>
<polygon fill="midnightblue" stroke="midnightblue" points="530.61,-228.84 537.24,-220.58 526.9,-222.9 530.61,-228.84"/>
</g>
<!-- Node9 -->
<g id="node9" class="node">
<title>Node9</title>
<g id="a_node9"><a xlink:href="../../d4/d67/connection_8h.html" target="_top" xlink:title=" ">
<polygon fill="white" stroke="black" points="742.5,-123.5 742.5,-153.5 864.5,-153.5 864.5,-123.5 742.5,-123.5"/>
<text text-anchor="start" x="750.5" y="-141.5" font-family="Helvetica,sans-Serif" font-size="10.00">automaton/core/network</text>
<text text-anchor="middle" x="803.5" y="-130.5" font-family="Helvetica,sans-Serif" font-size="10.00">/connection.h</text>
</a>
</g>
</g>
<!-- Node2&#45;&gt;Node9 -->
<g id="edge8" class="edge">
<title>Node2&#45;&gt;Node9</title>
<path fill="none" stroke="midnightblue" d="M425,-268.32C428,-247.58 436.75,-209.36 461.5,-190 482.45,-173.61 638.41,-155.7 732.33,-146.24"/>
<polygon fill="midnightblue" stroke="midnightblue" points="732.74,-149.71 742.34,-145.24 732.04,-142.75 732.74,-149.71"/>
</g>
<!-- Node9&#45;&gt;Node4 -->
<g id="edge10" class="edge">
<title>Node9&#45;&gt;Node4</title>
<path fill="none" stroke="midnightblue" d="M775.94,-123.4C754.05,-112.19 723.67,-96.64 702.26,-85.69"/>
<polygon fill="midnightblue" stroke="midnightblue" points="703.62,-82.45 693.12,-81.01 700.43,-88.68 703.62,-82.45"/>
</g>
<!-- Node9&#45;&gt;Node5 -->
<g id="edge11" class="edge">
<title>Node9&#45;&gt;Node5</title>
<path fill="none" stroke="midnightblue" d="M781.13,-123.35C769.33,-114.5 755.99,-101.95 749.5,-87 741.02,-67.45 751.43,-43.91 761.07,-28.26"/>
<polygon fill="midnightblue" stroke="midnightblue" points="764.18,-29.91 766.8,-19.64 758.35,-26.03 764.18,-29.91"/>
</g>
<!-- Node10 -->
<g id="node10" class="node">
<title>Node10</title>
<g id="a_node10"><a xlink:title=" ">
<polygon fill="white" stroke="#bfbfbf" points="591,-62 591,-81 626,-81 626,-62 591,-62"/>
<text text-anchor="middle" x="608.5" y="-69" font-family="Helvetica,sans-Serif" font-size="10.00">map</text>
</a>
</g>
</g>
<!-- Node9&#45;&gt;Node10 -->
<g id="edge9" class="edge">
<title>Node9&#45;&gt;Node10</title>
<path fill="none" stroke="midnightblue" d="M754.46,-123.5C722.35,-113.99 679.6,-100.69 642.5,-87 640.21,-86.16 637.86,-85.24 635.5,-84.3"/>
<polygon fill="midnightblue" stroke="midnightblue" points="636.59,-80.96 626.01,-80.36 633.91,-87.43 636.59,-80.96"/>
</g>
<!-- Node11 -->
<g id="node11" class="node">
<title>Node11</title>
<g id="a_node11"><a xlink:title=" ">
<polygon fill="white" stroke="#bfbfbf" points="758.5,-62 758.5,-81 802.5,-81 802.5,-62 758.5,-62"/>
<text text-anchor="middle" x="780.5" y="-69" font-family="Helvetica,sans-Serif" font-size="10.00">thread</text>
</a>
</g>
</g>
<!-- Node9&#45;&gt;Node11 -->
<g id="edge12" class="edge">
<title>Node9&#45;&gt;Node11</title>
<path fill="none" stroke="midnightblue" d="M798.51,-123.4C795.14,-113.86 790.65,-101.18 787,-90.86"/>
<polygon fill="midnightblue" stroke="midnightblue" points="790.21,-89.45 783.58,-81.19 783.61,-91.79 790.21,-89.45"/>
</g>
<!-- Node12 -->
<g id="node12" class="node">
<title>Node12</title>
<g id="a_node12"><a xlink:href="../../d1/d13/status_8h.html" target="_top" xlink:title=" ">
<polygon fill="white" stroke="black" points="820,-56.5 820,-86.5 945,-86.5 945,-56.5 820,-56.5"/>
<text text-anchor="start" x="828" y="-74.5" font-family="Helvetica,sans-Serif" font-size="10.00">automaton/core/common</text>
<text text-anchor="middle" x="882.5" y="-63.5" font-family="Helvetica,sans-Serif" font-size="10.00">/status.h</text>
</a>
</g>
</g>
<!-- Node9&#45;&gt;Node12 -->
<g id="edge13" class="edge">
<title>Node9&#45;&gt;Node12</title>
<path fill="none" stroke="midnightblue" d="M820.64,-123.4C831.41,-114.54 845.48,-102.96 857.48,-93.09"/>
<polygon fill="midnightblue" stroke="midnightblue" points="859.89,-95.63 865.39,-86.58 855.45,-90.23 859.89,-95.63"/>
</g>
<!-- Node12&#45;&gt;Node5 -->
<g id="edge15" class="edge">
<title>Node12&#45;&gt;Node5</title>
<path fill="none" stroke="midnightblue" d="M856.67,-56.4C839.03,-46.77 815.8,-34.09 798.37,-24.58"/>
<polygon fill="midnightblue" stroke="midnightblue" points="799.81,-21.38 789.36,-19.66 796.46,-27.52 799.81,-21.38"/>
</g>
<!-- Node13 -->
<g id="node13" class="node">
<title>Node13</title>
<g id="a_node13"><a xlink:title=" ">
<polygon fill="white" stroke="#bfbfbf" points="856.5,-0.5 856.5,-19.5 908.5,-19.5 908.5,-0.5 856.5,-0.5"/>
<text text-anchor="middle" x="882.5" y="-7.5" font-family="Helvetica,sans-Serif" font-size="10.00">ostream</text>
</a>
</g>
</g>
<!-- Node12&#45;&gt;Node13 -->
<g id="edge14" class="edge">
<title>Node12&#45;&gt;Node13</title>
<path fill="none" stroke="midnightblue" d="M882.5,-56.4C882.5,-48.47 882.5,-38.46 882.5,-29.86"/>
<polygon fill="midnightblue" stroke="midnightblue" points="886,-29.66 882.5,-19.66 879,-29.66 886,-29.66"/>
</g>
<!-- Node14 -->
<g id="node14" class="node">
<title>Node14</title>
<g id="a_node14"><a xlink:title=" ">
<polygon fill="white" stroke="#bfbfbf" points="411.5,-0.5 411.5,-19.5 465.5,-19.5 465.5,-0.5 411.5,-0.5"/>
<text text-anchor="middle" x="438.5" y="-7.5" font-family="Helvetica,sans-Serif" font-size="10.00">iostream</text>
</a>
</g>
</g>
<!-- Node12&#45;&gt;Node14 -->
<g id="edge16" class="edge">
<title>Node12&#45;&gt;Node14</title>
<path fill="none" stroke="midnightblue" d="M819.83,-57.41C817.02,-56.92 814.23,-56.44 811.5,-56 689.27,-36.18 543.2,-21.01 475.87,-14.49"/>
<polygon fill="midnightblue" stroke="midnightblue" points="476.04,-10.99 465.75,-13.52 475.37,-17.96 476.04,-10.99"/>
</g>
<!-- Node18 -->
<g id="node18" class="node">
<title>Node18</title>
<g id="a_node18"><a xlink:title=" ">
<polygon fill="white" stroke="#bfbfbf" points="0,-129 0,-148 95,-148 95,-129 0,-129"/>
<text text-anchor="middle" x="47.5" y="-136" font-family="Helvetica,sans-Serif" font-size="10.00">cryptopp/cryptlib.h</text>
</a>
</g>
</g>
<!-- Node17&#45;&gt;Node18 -->
<g id="edge22" class="edge">
<title>Node17&#45;&gt;Node18</title>
<path fill="none" stroke="midnightblue" d="M87.9,-190.36C79.39,-179.65 68.96,-166.52 60.84,-156.29"/>
<polygon fill="midnightblue" stroke="midnightblue" points="63.35,-153.83 54.39,-148.17 57.87,-158.18 63.35,-153.83"/>
</g>
<!-- Node19 -->
<g id="node19" class="node">
<title>Node19</title>
<g id="a_node19"><a xlink:title=" ">
<polygon fill="white" stroke="#bfbfbf" points="113,-129 113,-148 208,-148 208,-129 113,-129"/>
<text text-anchor="middle" x="160.5" y="-136" font-family="Helvetica,sans-Serif" font-size="10.00">cryptopp/keccak.h</text>
</a>
</g>
</g>
<!-- Node17&#45;&gt;Node19 -->
<g id="edge23" class="edge">
<title>Node17&#45;&gt;Node19</title>
<path fill="none" stroke="midnightblue" d="M119.38,-190.36C128.13,-179.54 138.87,-166.26 147.18,-155.98"/>
<polygon fill="midnightblue" stroke="midnightblue" points="149.92,-158.15 153.49,-148.17 144.48,-153.75 149.92,-158.15"/>
</g>
<!-- Node20 -->
<g id="node20" class="node">
<title>Node20</title>
<g id="a_node20"><a xlink:href="../../d2/dab/hash__transformation_8h.html" target="_top" xlink:title=" ">
<polygon fill="white" stroke="black" points="380.5,-123.5 380.5,-153.5 496.5,-153.5 496.5,-123.5 380.5,-123.5"/>
<text text-anchor="start" x="388.5" y="-141.5" font-family="Helvetica,sans-Serif" font-size="10.00">automaton/core/crypto</text>
<text text-anchor="middle" x="438.5" y="-130.5" font-family="Helvetica,sans-Serif" font-size="10.00">/hash_transformation.h</text>
</a>
</g>
</g>
<!-- Node17&#45;&gt;Node20 -->
<g id="edge24" class="edge">
<title>Node17&#45;&gt;Node20</title>
<path fill="none" stroke="midnightblue" d="M160.11,-192.17C162.94,-191.41 165.75,-190.68 168.5,-190 236.61,-173.21 315.59,-159.04 370.46,-150.03"/>
<polygon fill="midnightblue" stroke="midnightblue" points="371.11,-153.47 380.42,-148.4 369.99,-146.56 371.11,-153.47"/>
</g>
<!-- Node20&#45;&gt;Node5 -->
<g id="edge27" class="edge">
<title>Node20&#45;&gt;Node5</title>
<path fill="none" stroke="midnightblue" d="M446.7,-123.34C458.33,-104.63 481.47,-72.17 510.5,-56 550.01,-33.99 682.27,-19.37 742.8,-13.68"/>
<polygon fill="midnightblue" stroke="midnightblue" points="743.25,-17.15 752.89,-12.75 742.61,-10.18 743.25,-17.15"/>
</g>
<!-- Node20&#45;&gt;Node10 -->
<g id="edge26" class="edge">
<title>Node20&#45;&gt;Node10</title>
<path fill="none" stroke="midnightblue" d="M475.39,-123.4C507.36,-111.17 552.87,-93.77 581.53,-82.81"/>
<polygon fill="midnightblue" stroke="midnightblue" points="582.83,-86.06 590.92,-79.22 580.33,-79.52 582.83,-86.06"/>
</g>
<!-- Node20&#45;&gt;Node14 -->
<g id="edge25" class="edge">
<title>Node20&#45;&gt;Node14</title>
<path fill="none" stroke="midnightblue" d="M438.5,-123.48C438.5,-100.72 438.5,-55.7 438.5,-30.06"/>
<polygon fill="midnightblue" stroke="midnightblue" points="442,-29.79 438.5,-19.79 435,-29.79 442,-29.79"/>
</g>
<!-- Node21&#45;&gt;Node5 -->
<g id="edge30" class="edge">
<title>Node21&#45;&gt;Node5</title>
<path fill="none" stroke="midnightblue" d="M1948.05,-273.74C1938.46,-264.32 1923.86,-248.48 1915.5,-232 1879.03,-160.09 1934.17,-106.73 1871.5,-56 1827.25,-20.19 904.25,-24.44 847.5,-20 833.25,-18.88 817.52,-17.06 804.24,-15.34"/>
<polygon fill="midnightblue" stroke="midnightblue" points="804.56,-11.85 794.19,-14 803.64,-18.79 804.56,-11.85"/>
</g>
<!-- Node22 -->
<g id="node22" class="node">
<title>Node22</title>
<g id="a_node22"><a xlink:title=" ">
<polygon fill="white" stroke="#bfbfbf" points="2041.5,-201.5 2041.5,-220.5 2087.5,-220.5 2087.5,-201.5 2041.5,-201.5"/>
<text text-anchor="middle" x="2064.5" y="-208.5" font-family="Helvetica,sans-Serif" font-size="10.00">chrono</text>
</a>
</g>
</g>
<!-- Node21&#45;&gt;Node22 -->
<g id="edge29" class="edge">
<title>Node21&#45;&gt;Node22</title>
<path fill="none" stroke="midnightblue" d="M1970.62,-273.86C1988.59,-262.02 2021.09,-240.6 2042.73,-226.34"/>
<polygon fill="midnightblue" stroke="midnightblue" points="2044.85,-229.14 2051.27,-220.72 2041,-223.29 2044.85,-229.14"/>
</g>
<!-- Node23 -->
<g id="node23" class="node">
<title>Node23</title>
<g id="a_node23"><a xlink:title=" ">
<polygon fill="white" stroke="#bfbfbf" points="2105.5,-201.5 2105.5,-220.5 2189.5,-220.5 2189.5,-201.5 2105.5,-201.5"/>
<text text-anchor="middle" x="2147.5" y="-208.5" font-family="Helvetica,sans-Serif" font-size="10.00">g3log/g3log.hpp</text>
</a>
</g>
</g>
<!-- Node21&#45;&gt;Node23 -->
<g id="edge31" class="edge">
<title>Node21&#45;&gt;Node23</title>
<path fill="none" stroke="midnightblue" d="M1981.67,-273.93C2009.46,-264.02 2056.39,-247.15 2096.5,-232 2102.81,-229.62 2109.53,-227.02 2115.96,-224.51"/>
<polygon fill="midnightblue" stroke="midnightblue" points="2117.68,-227.6 2125.71,-220.69 2115.12,-221.08 2117.68,-227.6"/>
</g>
<!-- Node24 -->
<g id="node24" class="node">
<title>Node24</title>
<g id="a_node24"><a xlink:title=" ">
<polygon fill="white" stroke="#bfbfbf" points="2208,-201.5 2208,-220.5 2311,-220.5 2311,-201.5 2208,-201.5"/>
<text text-anchor="middle" x="2259.5" y="-208.5" font-family="Helvetica,sans-Serif" font-size="10.00">g3log/logworker.hpp</text>
</a>
</g>
</g>
<!-- Node21&#45;&gt;Node24 -->
<g id="edge32" class="edge">
<title>Node21&#45;&gt;Node24</title>
<path fill="none" stroke="midnightblue" d="M1995.87,-273.98C2004.93,-271.99 2014.55,-269.9 2023.5,-268 2101.17,-251.48 2121.76,-252.4 2198.5,-232 2207.5,-229.61 2217.12,-226.65 2226,-223.74"/>
<polygon fill="midnightblue" stroke="midnightblue" points="2227.27,-227.01 2235.64,-220.52 2225.05,-220.37 2227.27,-227.01"/>
</g>
<!-- Node25 -->
<g id="node25" class="node">
<title>Node25</title>
<g id="a_node25"><a xlink:title=" ">
<polygon fill="white" stroke="#bfbfbf" points="1924,-201.5 1924,-220.5 2023,-220.5 2023,-201.5 1924,-201.5"/>
<text text-anchor="middle" x="1973.5" y="-208.5" font-family="Helvetica,sans-Serif" font-size="10.00">g3log/loglevels.hpp</text>
</a>
</g>
</g>
<!-- Node21&#45;&gt;Node25 -->
<g id="edge33" class="edge">
<title>Node21&#45;&gt;Node25</title>
<path fill="none" stroke="midnightblue" d="M1959.46,-273.86C1961.88,-263.18 1966.07,-244.72 1969.25,-230.73"/>
<polygon fill="midnightblue" stroke="midnightblue" points="1972.72,-231.24 1971.52,-220.72 1965.9,-229.69 1972.72,-231.24"/>
</g>
<!-- Node26&#45;&gt;Node4 -->
<g id="edge36" class="edge">
<title>Node26&#45;&gt;Node4</title>
<path fill="none" stroke="midnightblue" d="M964.4,-281.68C879.36,-279.17 731.66,-269.39 695.5,-232 658.73,-193.99 666.01,-124.77 672.26,-91.43"/>
<polygon fill="midnightblue" stroke="midnightblue" points="675.76,-91.75 674.35,-81.25 668.91,-90.34 675.76,-91.75"/>
</g>
<!-- Node26&#45;&gt;Node5 -->
<g id="edge38" class="edge">
<title>Node26&#45;&gt;Node5</title>
<path fill="none" stroke="midnightblue" d="M964.23,-280.1C875.49,-275.58 716.64,-263.27 669.5,-232 633.14,-207.88 555.42,-90.2 582.5,-56 602.15,-31.18 693.95,-18.68 742.77,-13.69"/>
<polygon fill="midnightblue" stroke="midnightblue" points="743.17,-17.17 752.78,-12.72 742.49,-10.2 743.17,-17.17"/>
</g>
<!-- Node26&#45;&gt;Node7 -->
<g id="edge39" class="edge">
<title>Node26&#45;&gt;Node7</title>
<path fill="none" stroke="midnightblue" d="M964.09,-280.2C847.74,-275.22 599.69,-261.42 519.5,-232 515.78,-230.63 512.08,-228.68 508.64,-226.52"/>
<polygon fill="midnightblue" stroke="midnightblue" points="510.45,-223.51 500.26,-220.59 506.4,-229.22 510.45,-223.51"/>
</g>
<!-- Node26&#45;&gt;Node8 -->
<g id="edge40" class="edge">
<title>Node26&#45;&gt;Node8</title>
<path fill="none" stroke="midnightblue" d="M964.28,-282.92C877.97,-281.86 716.51,-273.76 586.5,-232 581.57,-230.42 576.55,-228.13 571.88,-225.66"/>
<polygon fill="midnightblue" stroke="midnightblue" points="573.35,-222.47 562.94,-220.51 569.86,-228.53 573.35,-222.47"/>
</g>
<!-- Node26&#45;&gt;Node9 -->
<g id="edge54" class="edge">
<title>Node26&#45;&gt;Node9</title>
<path fill="none" stroke="midnightblue" d="M1086.67,-280.77C1265.47,-275.43 1776.18,-257.95 1800.5,-232 1813.26,-218.38 1813.36,-203.53 1800.5,-190 1768.67,-156.52 1098.11,-143.78 874.99,-140.45"/>
<polygon fill="midnightblue" stroke="midnightblue" points="874.76,-136.95 864.71,-140.3 874.66,-143.95 874.76,-136.95"/>
</g>
<!-- Node26&#45;&gt;Node14 -->
<g id="edge35" class="edge">
<title>Node26&#45;&gt;Node14</title>
<path fill="none" stroke="midnightblue" d="M964.34,-279.35C867.8,-273.62 685.06,-259.45 626.5,-232 601.73,-220.39 606.01,-202.15 581.5,-190 496.66,-147.93 432.54,-226.4 371.5,-154 337.9,-114.15 391.16,-54.62 420.8,-26.62"/>
<polygon fill="midnightblue" stroke="midnightblue" points="423.44,-28.94 428.44,-19.6 418.71,-23.79 423.44,-28.94"/>
</g>
<!-- Node27 -->
<g id="node27" class="node">
<title>Node27</title>
<g id="a_node27"><a xlink:title=" ">
<polygon fill="white" stroke="#bfbfbf" points="845,-201.5 845,-220.5 888,-220.5 888,-201.5 845,-201.5"/>
<text text-anchor="middle" x="866.5" y="-208.5" font-family="Helvetica,sans-Serif" font-size="10.00">mutex</text>
</a>
</g>
</g>
<!-- Node26&#45;&gt;Node27 -->
<g id="edge37" class="edge">
<title>Node26&#45;&gt;Node27</title>
<path fill="none" stroke="midnightblue" d="M983.95,-268.47C958.46,-259.28 925.45,-246.35 897.5,-232 894.05,-230.23 890.5,-228.18 887.08,-226.07"/>
<polygon fill="midnightblue" stroke="midnightblue" points="888.84,-223.04 878.54,-220.56 885.04,-228.92 888.84,-223.04"/>
</g>
<!-- Node28 -->
<g id="node28" class="node">
<title>Node28</title>
<g id="a_node28"><a xlink:title=" ">
<polygon fill="white" stroke="#bfbfbf" points="906.5,-196 906.5,-226 1012.5,-226 1012.5,-196 906.5,-196"/>
<text text-anchor="start" x="914.5" y="-214" font-family="Helvetica,sans-Serif" font-size="10.00">boost/config/warning</text>
<text text-anchor="middle" x="959.5" y="-203" font-family="Helvetica,sans-Serif" font-size="10.00">_disable.hpp</text>
</a>
</g>
</g>
<!-- Node26&#45;&gt;Node28 -->
<g id="edge41" class="edge">
<title>Node26&#45;&gt;Node28</title>
<path fill="none" stroke="midnightblue" d="M1012.14,-268.23C1002.84,-258.3 990.26,-244.86 979.73,-233.61"/>
<polygon fill="midnightblue" stroke="midnightblue" points="982.23,-231.15 972.84,-226.25 977.12,-235.94 982.23,-231.15"/>
</g>
<!-- Node29 -->
<g id="node29" class="node">
<title>Node29</title>
<g id="a_node29"><a xlink:title=" ">
<polygon fill="white" stroke="#bfbfbf" points="1031,-196 1031,-226 1154,-226 1154,-196 1031,-196"/>
<text text-anchor="start" x="1039" y="-214" font-family="Helvetica,sans-Serif" font-size="10.00">boost/asio/basic_stream</text>
<text text-anchor="middle" x="1092.5" y="-203" font-family="Helvetica,sans-Serif" font-size="10.00">_socket.hpp</text>
</a>
</g>
</g>
<!-- Node26&#45;&gt;Node29 -->
<g id="edge42" class="edge">
<title>Node26&#45;&gt;Node29</title>
<path fill="none" stroke="midnightblue" d="M1039.06,-268.23C1048.5,-258.3 1061.27,-244.86 1071.96,-233.61"/>
<polygon fill="midnightblue" stroke="midnightblue" points="1074.61,-235.91 1078.96,-226.25 1069.54,-231.08 1074.61,-235.91"/>
</g>
<!-- Node30 -->
<g id="node30" class="node">
<title>Node30</title>
<g id="a_node30"><a xlink:title=" ">
<polygon fill="white" stroke="#bfbfbf" points="1172,-201.5 1172,-220.5 1279,-220.5 1279,-201.5 1172,-201.5"/>
<text text-anchor="middle" x="1225.5" y="-208.5" font-family="Helvetica,sans-Serif" font-size="10.00">boost/asio/buffer.hpp</text>
</a>
</g>
</g>
<!-- Node26&#45;&gt;Node30 -->
<g id="edge43" class="edge">
<title>Node26&#45;&gt;Node30</title>
<path fill="none" stroke="midnightblue" d="M1065.49,-268.4C1102.43,-255.38 1156.7,-236.25 1191.57,-223.96"/>
<polygon fill="midnightblue" stroke="midnightblue" points="1193.02,-227.16 1201.29,-220.53 1190.7,-220.56 1193.02,-227.16"/>
</g>
<!-- Node31 -->
<g id="node31" class="node">
<title>Node31</title>
<g id="a_node31"><a xlink:title=" ">
<polygon fill="white" stroke="#bfbfbf" points="1296.5,-201.5 1296.5,-220.5 1398.5,-220.5 1398.5,-201.5 1296.5,-201.5"/>
<text text-anchor="middle" x="1347.5" y="-208.5" font-family="Helvetica,sans-Serif" font-size="10.00">boost/asio/error.hpp</text>
</a>
</g>
</g>
<!-- Node26&#45;&gt;Node31 -->
<g id="edge44" class="edge">
<title>Node26&#45;&gt;Node31</title>
<path fill="none" stroke="midnightblue" d="M1086.62,-273.21C1140.27,-264.47 1220.17,-250.05 1288.5,-232 1297.22,-229.7 1306.52,-226.77 1315.09,-223.88"/>
<polygon fill="midnightblue" stroke="midnightblue" points="1316.45,-227.11 1324.75,-220.53 1314.15,-220.5 1316.45,-227.11"/>
</g>
<!-- Node32 -->
<g id="node32" class="node">
<title>Node32</title>
<g id="a_node32"><a xlink:title=" ">
<polygon fill="white" stroke="#bfbfbf" points="1417,-201.5 1417,-220.5 1544,-220.5 1544,-201.5 1417,-201.5"/>
<text text-anchor="middle" x="1480.5" y="-208.5" font-family="Helvetica,sans-Serif" font-size="10.00">boost/asio/io_service.hpp</text>
</a>
</g>
</g>
<!-- Node26&#45;&gt;Node32 -->
<g id="edge45" class="edge">
<title>Node26&#45;&gt;Node32</title>
<path fill="none" stroke="midnightblue" d="M1086.79,-276.99C1162.6,-269.58 1295.37,-254.66 1407.5,-232 1419.04,-229.67 1431.44,-226.52 1442.69,-223.41"/>
<polygon fill="midnightblue" stroke="midnightblue" points="1443.97,-226.69 1452.63,-220.59 1442.06,-219.95 1443.97,-226.69"/>
</g>
<!-- Node33 -->
<g id="node33" class="node">
<title>Node33</title>
<g id="a_node33"><a xlink:title=" ">
<polygon fill="white" stroke="#bfbfbf" points="1562,-201.5 1562,-220.5 1669,-220.5 1669,-201.5 1562,-201.5"/>
<text text-anchor="middle" x="1615.5" y="-208.5" font-family="Helvetica,sans-Serif" font-size="10.00">boost/asio/ip/tcp.hpp</text>
</a>
</g>
</g>
<!-- Node26&#45;&gt;Node33 -->
<g id="edge46" class="edge">
<title>Node26&#45;&gt;Node33</title>
<path fill="none" stroke="midnightblue" d="M1086.72,-280.94C1185.76,-277.46 1386.89,-266.42 1553.5,-232 1563.45,-229.95 1574.04,-226.87 1583.61,-223.75"/>
<polygon fill="midnightblue" stroke="midnightblue" points="1584.8,-227.04 1593.14,-220.51 1582.55,-220.41 1584.8,-227.04"/>
</g>
<!-- Node34 -->
<g id="node34" class="node">
<title>Node34</title>
<g id="a_node34"><a xlink:title=" ">
<polygon fill="white" stroke="#bfbfbf" points="1687.5,-201.5 1687.5,-220.5 1791.5,-220.5 1791.5,-201.5 1687.5,-201.5"/>
<text text-anchor="middle" x="1739.5" y="-208.5" font-family="Helvetica,sans-Serif" font-size="10.00">boost/asio/write.hpp</text>
</a>
</g>
</g>
<!-- Node26&#45;&gt;Node34 -->
<g id="edge47" class="edge">
<title>Node26&#45;&gt;Node34</title>
<path fill="none" stroke="midnightblue" d="M1086.93,-282.62C1203.46,-281.79 1464.13,-274.79 1678.5,-232 1688.29,-230.05 1698.7,-227.01 1708.1,-223.89"/>
<polygon fill="midnightblue" stroke="midnightblue" points="1709.52,-227.1 1717.82,-220.52 1707.22,-220.49 1709.52,-227.1"/>
</g>
<!-- Node35 -->
<g id="node35" class="node">
<title>Node35</title>
<g id="a_node35"><a xlink:href="../../d1/d31/acceptor_8h.html" target="_top" xlink:title=" ">
<polygon fill="white" stroke="black" points="704.5,-196 704.5,-226 826.5,-226 826.5,-196 704.5,-196"/>
<text text-anchor="start" x="712.5" y="-214" font-family="Helvetica,sans-Serif" font-size="10.00">automaton/core/network</text>
<text text-anchor="middle" x="765.5" y="-203" font-family="Helvetica,sans-Serif" font-size="10.00">/acceptor.h</text>
</a>
</g>
</g>
<!-- Node26&#45;&gt;Node35 -->
<g id="edge48" class="edge">
<title>Node26&#45;&gt;Node35</title>
<path fill="none" stroke="midnightblue" d="M972.09,-268.43C934.21,-258.41 882.19,-244.54 836.5,-232 832.72,-230.96 828.82,-229.89 824.9,-228.8"/>
<polygon fill="midnightblue" stroke="midnightblue" points="825.7,-225.39 815.13,-226.07 823.82,-232.13 825.7,-225.39"/>
</g>
<!-- Node35&#45;&gt;Node4 -->
<g id="edge50" class="edge">
<title>Node35&#45;&gt;Node4</title>
<path fill="none" stroke="midnightblue" d="M756.31,-195.8C739.86,-170.39 705.45,-117.23 687.67,-89.76"/>
<polygon fill="midnightblue" stroke="midnightblue" points="690.5,-87.69 682.13,-81.2 684.63,-91.5 690.5,-87.69"/>
</g>
<!-- Node35&#45;&gt;Node5 -->
<g id="edge51" class="edge">
<title>Node35&#45;&gt;Node5</title>
<path fill="none" stroke="midnightblue" d="M810.2,-195.96C880.26,-171.64 1003.18,-118.27 954.5,-56 936.18,-32.57 850.96,-19.6 804.28,-14.13"/>
<polygon fill="midnightblue" stroke="midnightblue" points="804.45,-10.63 794.12,-12.99 803.67,-17.59 804.45,-10.63"/>
</g>
<!-- Node35&#45;&gt;Node9 -->
<g id="edge53" class="edge">
<title>Node35&#45;&gt;Node9</title>
<path fill="none" stroke="midnightblue" d="M773.19,-195.73C778.29,-186.27 785.1,-173.64 790.97,-162.75"/>
<polygon fill="midnightblue" stroke="midnightblue" points="794.16,-164.21 795.82,-153.75 788,-160.89 794.16,-164.21"/>
</g>
<!-- Node35&#45;&gt;Node10 -->
<g id="edge49" class="edge">
<title>Node35&#45;&gt;Node10</title>
<path fill="none" stroke="midnightblue" d="M749.29,-195.8C719.64,-169.84 656.91,-114.9 626.19,-88"/>
<polygon fill="midnightblue" stroke="midnightblue" points="628.26,-85.16 618.43,-81.2 623.65,-90.42 628.26,-85.16"/>
</g>
<!-- Node35&#45;&gt;Node12 -->
<g id="edge52" class="edge">
<title>Node35&#45;&gt;Node12</title>
<path fill="none" stroke="midnightblue" d="M815.19,-195.98C836.57,-187.36 859.76,-174.03 873.5,-154 884.97,-137.28 886.46,-113.93 885.53,-96.51"/>
<polygon fill="midnightblue" stroke="midnightblue" points="889.02,-96.22 884.7,-86.54 882.04,-96.8 889.02,-96.22"/>
</g>
</g>
</svg>
        <g id="navigator" transform="translate(0 0)" fill="#404254">
                <rect fill="#f2f5e9" fill-opacity="0.5" stroke="#606060" stroke-width=".5" x="0" y="0" width="60" height="60"/>
                <use id="zoomplus" xlink:href="#zoomPlus" x="17" y="9" onmousedown="handleZoom(evt,'in')"/>
                <use id="zoomminus" xlink:href="#zoomMin" x="42" y="9" onmousedown="handleZoom(evt,'out')"/>
                <use id="reset" xlink:href="#resetDef" x="30" y="36" onmousedown="handleReset()"/>
                <g id="arrowUp" xlink:href="#dirArrow" transform="translate(30 24)" onmousedown="handlePan(0,-1)">
                  <use xlink:href="#rim" fill="#404040">
                        <set attributeName="fill" to="#808080" begin="arrowUp.mouseover" end="arrowUp.mouseout"/>
                  </use>
                  <path fill="none" stroke="white" stroke-width="1.5" d="M0,-3.0v7 M-2.5,-0.5L0,-3.0L2.5,-0.5"/>
                </g>
                <g id="arrowRight" xlink:href="#dirArrow" transform="rotate(90) translate(36 -43)" onmousedown="handlePan(1,0)">
                  <use xlink:href="#rim" fill="#404040">
                        <set attributeName="fill" to="#808080" begin="arrowRight.mouseover" end="arrowRight.mouseout"/>
                  </use>
                  <path fill="none" stroke="white" stroke-width="1.5" d="M0,-3.0v7 M-2.5,-0.5L0,-3.0L2.5,-0.5"/>
                </g>
                <g id="arrowDown" xlink:href="#dirArrow" transform="rotate(180) translate(-30 -48)" onmousedown="handlePan(0,1)">
                  <use xlink:href="#rim" fill="#404040">
                        <set attributeName="fill" to="#808080" begin="arrowDown.mouseover" end="arrowDown.mouseout"/>
                  </use>
                  <path fill="none" stroke="white" stroke-width="1.5" d="M0,-3.0v7 M-2.5,-0.5L0,-3.0L2.5,-0.5"/>
                </g>
                <g id="arrowLeft" xlink:href="#dirArrow" transform="rotate(270) translate(-36 17)" onmousedown="handlePan(-1,0)">
                  <use xlink:href="#rim" fill="#404040">
                        <set attributeName="fill" to="#808080" begin="arrowLeft.mouseover" end="arrowLeft.mouseout"/>
                  </use>
                  <path fill="none" stroke="white" stroke-width="1.5" d="M0,-3.0v7 M-2.5,-0.5L0,-3.0L2.5,-0.5"/>
                </g>
        </g>
        <svg viewBox="0 0 15 15" width="100%" height="30px" preserveAspectRatio="xMaxYMin meet">
         <g id="arrow_out" transform="scale(0.3 0.3)">
          <a xlink:href="eth__contract__raw_8cc__incl_org.svg" target="_base">
           <rect id="button" ry="5" rx="5" y="6" x="6" height="38" width="38"
                fill="#f2f5e9" fill-opacity="0.5" stroke="#606060" stroke-width="1.0"/>
           <path id="arrow"
             d="M 11.500037,31.436501 C 11.940474,20.09759 22.043105,11.32322 32.158766,21.979434 L 37.068811,17.246167 C 37.068811,17.246167 37.088388,32 37.088388,32 L 22.160133,31.978069 C 22.160133,31.978069 26.997745,27.140456 26.997745,27.140456 C 18.528582,18.264221 13.291696,25.230495 11.500037,31.436501 z"
             style="fill:#404040;"/>
          </a>
         </g>
        </svg>
</svg>
