<?xml version="1.0" encoding="UTF-8" standalone="no"?>
<!DOCTYPE svg PUBLIC "-//W3C//DTD SVG 1.1//EN"
 "http://www.w3.org/Graphics/SVG/1.1/DTD/svg11.dtd">
<!-- Generated by graphviz version 2.42.3 ()
 -->
<!-- Title: secp256k1_cryptopp.cc Pages: 1 -->
<svg width="959pt" height="218pt"
 viewBox="0.00 0.00 959.11 218.00" xmlns="http://www.w3.org/2000/svg" xmlns:xlink="http://www.w3.org/1999/xlink">
<g id="graph0" class="graph" transform="scale(1 1) rotate(0) translate(4 214)">
<title>secp256k1_cryptopp.cc</title>
<polygon fill="white" stroke="transparent" points="-4,4 -4,-214 955.11,-214 955.11,4 -4,4"/>
<!-- Node1 -->
<g id="node1" class="node">
<title>Node1</title>
<g id="a_node1"><a xlink:title=" ">
<polygon fill="#bfbfbf" stroke="black" points="484,-190.5 484,-209.5 603,-209.5 603,-190.5 484,-190.5"/>
<text text-anchor="middle" x="543.5" y="-197.5" font-family="Helvetica,sans-Serif" font-size="10.00">secp256k1_cryptopp.cc</text>
</a>
</g>
</g>
<!-- Node2 -->
<g id="node2" class="node">
<title>Node2</title>
<g id="a_node2"><a xlink:title=" ">
<polygon fill="white" stroke="#bfbfbf" points="0,-129 0,-148 95,-148 95,-129 0,-129"/>
<text text-anchor="middle" x="47.5" y="-136" font-family="Helvetica,sans-Serif" font-size="10.00">cryptopp/cryptlib.h</text>
</a>
</g>
</g>
<!-- Node1&#45;&gt;Node2 -->
<g id="edge1" class="edge">
<title>Node1&#45;&gt;Node2</title>
<path fill="none" stroke="midnightblue" d="M483.68,-195.76C398.65,-190.51 238.22,-178.19 103.5,-154 98.06,-153.02 92.38,-151.8 86.8,-150.47"/>
<polygon fill="midnightblue" stroke="midnightblue" points="87.51,-147.04 76.96,-148.02 85.82,-153.84 87.51,-147.04"/>
</g>
<!-- Node3 -->
<g id="node3" class="node">
<title>Node3</title>
<g id="a_node3"><a xlink:title=" ">
<polygon fill="white" stroke="#bfbfbf" points="113,-129 113,-148 214,-148 214,-129 113,-129"/>
<text text-anchor="middle" x="163.5" y="-136" font-family="Helvetica,sans-Serif" font-size="10.00">cryptopp/eccrypto.h</text>
</a>
</g>
</g>
<!-- Node1&#45;&gt;Node3 -->
<g id="edge2" class="edge">
<title>Node1&#45;&gt;Node3</title>
<path fill="none" stroke="midnightblue" d="M483.74,-192.47C419.05,-184.96 312.99,-171.42 222.5,-154 217.06,-152.95 211.37,-151.73 205.77,-150.44"/>
<polygon fill="midnightblue" stroke="midnightblue" points="206.37,-146.98 195.83,-148.07 204.75,-153.79 206.37,-146.98"/>
</g>
<!-- Node4 -->
<g id="node4" class="node">
<title>Node4</title>
<g id="a_node4"><a xlink:title=" ">
<polygon fill="white" stroke="#bfbfbf" points="232,-129 232,-148 325,-148 325,-129 232,-129"/>
<text text-anchor="middle" x="278.5" y="-136" font-family="Helvetica,sans-Serif" font-size="10.00">cryptopp/integer.h</text>
</a>
</g>
</g>
<!-- Node1&#45;&gt;Node4 -->
<g id="edge3" class="edge">
<title>Node1&#45;&gt;Node4</title>
<path fill="none" stroke="midnightblue" d="M501.35,-190.46C459.06,-181.76 392.1,-167.65 334.5,-154 329.86,-152.9 325.01,-151.71 320.19,-150.5"/>
<polygon fill="midnightblue" stroke="midnightblue" points="320.98,-147.09 310.43,-148.01 319.25,-153.87 320.98,-147.09"/>
</g>
<!-- Node5 -->
<g id="node5" class="node">
<title>Node5</title>
<g id="a_node5"><a xlink:title=" ">
<polygon fill="white" stroke="#bfbfbf" points="343.5,-129 343.5,-148 425.5,-148 425.5,-129 343.5,-129"/>
<text text-anchor="middle" x="384.5" y="-136" font-family="Helvetica,sans-Serif" font-size="10.00">cryptopp/oids.h</text>
</a>
</g>
</g>
<!-- Node1&#45;&gt;Node5 -->
<g id="edge4" class="edge">
<title>Node1&#45;&gt;Node5</title>
<path fill="none" stroke="midnightblue" d="M520.72,-190.48C493.45,-180.27 447.59,-163.11 416.7,-151.55"/>
<polygon fill="midnightblue" stroke="midnightblue" points="417.83,-148.24 407.24,-148.01 415.38,-154.79 417.83,-148.24"/>
</g>
<!-- Node6 -->
<g id="node6" class="node">
<title>Node6</title>
<g id="a_node6"><a xlink:title=" ">
<polygon fill="white" stroke="#bfbfbf" points="443.5,-129 443.5,-148 531.5,-148 531.5,-129 443.5,-129"/>
<text text-anchor="middle" x="487.5" y="-136" font-family="Helvetica,sans-Serif" font-size="10.00">cryptopp/osrng.h</text>
</a>
</g>
</g>
<!-- Node1&#45;&gt;Node6 -->
<g id="edge5" class="edge">
<title>Node1&#45;&gt;Node6</title>
<path fill="none" stroke="midnightblue" d="M535.48,-190.48C526.91,-181.37 513.14,-166.74 502.54,-155.48"/>
<polygon fill="midnightblue" stroke="midnightblue" points="504.91,-152.89 495.51,-148.01 499.81,-157.69 504.91,-152.89"/>
</g>
<!-- Node7 -->
<g id="node7" class="node">
<title>Node7</title>
<g id="a_node7"><a xlink:title=" ">
<polygon fill="white" stroke="#bfbfbf" points="550,-129 550,-148 651,-148 651,-129 550,-129"/>
<text text-anchor="middle" x="600.5" y="-136" font-family="Helvetica,sans-Serif" font-size="10.00">cryptopp/randpool.h</text>
</a>
</g>
</g>
<!-- Node1&#45;&gt;Node7 -->
<g id="edge6" class="edge">
<title>Node1&#45;&gt;Node7</title>
<path fill="none" stroke="midnightblue" d="M551.67,-190.48C560.39,-181.37 574.4,-166.74 585.19,-155.48"/>
<polygon fill="midnightblue" stroke="midnightblue" points="587.96,-157.65 592.35,-148.01 582.9,-152.81 587.96,-157.65"/>
</g>
<!-- Node8 -->
<g id="node8" class="node">
<title>Node8</title>
<g id="a_node8"><a xlink:title=" ">
<polygon fill="white" stroke="#bfbfbf" points="669.5,-129 669.5,-148 723.5,-148 723.5,-129 669.5,-129"/>
<text text-anchor="middle" x="696.5" y="-136" font-family="Helvetica,sans-Serif" font-size="10.00">iostream</text>
</a>
</g>
</g>
<!-- Node1&#45;&gt;Node8 -->
<g id="edge7" class="edge">
<title>Node1&#45;&gt;Node8</title>
<path fill="none" stroke="midnightblue" d="M565.75,-190.4C589.1,-181.36 626.9,-166.71 659.5,-154 661.33,-153.29 663.21,-152.55 665.11,-151.81"/>
<polygon fill="midnightblue" stroke="midnightblue" points="666.56,-155 674.59,-148.1 664,-148.48 666.56,-155"/>
</g>
<!-- Node9 -->
<g id="node9" class="node">
<title>Node9</title>
<g id="a_node9"><a xlink:title=" ">
<polygon fill="white" stroke="#bfbfbf" points="756,-0.5 756,-19.5 797,-19.5 797,-0.5 756,-0.5"/>
<text text-anchor="middle" x="776.5" y="-7.5" font-family="Helvetica,sans-Serif" font-size="10.00">string</text>
</a>
</g>
</g>
<!-- Node1&#45;&gt;Node9 -->
<g id="edge8" class="edge">
<title>Node1&#45;&gt;Node9</title>
<path fill="none" stroke="midnightblue" d="M603.43,-191.29C651.5,-183.94 713.92,-171.41 732.5,-154 767.79,-120.92 775.02,-60.31 776.34,-29.71"/>
<polygon fill="midnightblue" stroke="midnightblue" points="779.84,-29.67 776.6,-19.58 772.85,-29.48 779.84,-29.67"/>
</g>
<!-- Node10 -->
<g id="node10" class="node">
<title>Node10</title>
<g id="a_node10"><a xlink:href="../../d7/d15/secp256k1__cryptopp_8h.html" target="_top" xlink:title=" ">
<polygon fill="white" stroke="black" points="779.5,-123.5 779.5,-153.5 935.5,-153.5 935.5,-123.5 779.5,-123.5"/>
<text text-anchor="start" x="787.5" y="-141.5" font-family="Helvetica,sans-Serif" font-size="10.00">automaton/core/crypto</text>
<text text-anchor="middle" x="857.5" y="-130.5" font-family="Helvetica,sans-Serif" font-size="10.00">/cryptopp/secp256k1_cryptopp.h</text>
</a>
</g>
</g>
<!-- Node1&#45;&gt;Node10 -->
<g id="edge9" class="edge">
<title>Node1&#45;&gt;Node10</title>
<path fill="none" stroke="midnightblue" d="M588.49,-190.48C636.58,-181.36 713.93,-166.71 773.37,-155.44"/>
<polygon fill="midnightblue" stroke="midnightblue" points="774.32,-158.82 783.5,-153.52 773.02,-151.95 774.32,-158.82"/>
</g>
<!-- Node11 -->
<g id="node11" class="node">
<title>Node11</title>
<g id="a_node11"><a xlink:href="../../dd/de2/digital__signature_8h.html" target="_top" xlink:title=" ">
<polygon fill="white" stroke="black" points="801,-56.5 801,-86.5 914,-86.5 914,-56.5 801,-56.5"/>
<text text-anchor="start" x="809" y="-74.5" font-family="Helvetica,sans-Serif" font-size="10.00">automaton/core/crypto</text>
<text text-anchor="middle" x="857.5" y="-63.5" font-family="Helvetica,sans-Serif" font-size="10.00">/digital_signature.h</text>
</a>
</g>
</g>
<!-- Node1&#45;&gt;Node11 -->
<g id="edge13" class="edge">
<title>Node1&#45;&gt;Node11</title>
<path fill="none" stroke="midnightblue" d="M603.2,-196.61C709.4,-191.75 922.18,-178.97 944.5,-154 965.15,-130.9 931.89,-106.94 900.71,-91.03"/>
<polygon fill="midnightblue" stroke="midnightblue" points="902.11,-87.82 891.59,-86.57 899.03,-94.11 902.11,-87.82"/>
</g>
<!-- Node10&#45;&gt;Node11 -->
<g id="edge10" class="edge">
<title>Node10&#45;&gt;Node11</title>
<path fill="none" stroke="midnightblue" d="M857.5,-123.4C857.5,-115.64 857.5,-105.81 857.5,-96.86"/>
<polygon fill="midnightblue" stroke="midnightblue" points="861,-96.58 857.5,-86.58 854,-96.58 861,-96.58"/>
</g>
<!-- Node11&#45;&gt;Node9 -->
<g id="edge11" class="edge">
<title>Node11&#45;&gt;Node9</title>
<path fill="none" stroke="midnightblue" d="M838.3,-56.4C825.68,-47.13 809.21,-35.03 796.44,-25.65"/>
<polygon fill="midnightblue" stroke="midnightblue" points="798.42,-22.76 788.29,-19.66 794.27,-28.4 798.42,-22.76"/>
</g>
<!-- Node12 -->
<g id="node12" class="node">
<title>Node12</title>
<g id="a_node12"><a xlink:title=" ">
<polygon fill="white" stroke="#bfbfbf" points="840,-0.5 840,-19.5 875,-19.5 875,-0.5 840,-0.5"/>
<text text-anchor="middle" x="857.5" y="-7.5" font-family="Helvetica,sans-Serif" font-size="10.00">map</text>
</a>
</g>
</g>
<!-- Node11&#45;&gt;Node12 -->
<g id="edge12" class="edge">
<title>Node11&#45;&gt;Node12</title>
<path fill="none" stroke="midnightblue" d="M857.5,-56.4C857.5,-48.47 857.5,-38.46 857.5,-29.86"/>
<polygon fill="midnightblue" stroke="midnightblue" points="861,-29.66 857.5,-19.66 854,-29.66 861,-29.66"/>
</g>
</g>
</svg>
