<?xml version="1.0" encoding="UTF-8" standalone="no"?>
<!DOCTYPE svg PUBLIC "-//W3C//DTD SVG 1.1//EN"
 "http://www.w3.org/Graphics/SVG/1.1/DTD/svg11.dtd">
<!-- Generated by graphviz version 2.42.3 ()
 -->
<!-- Title: automaton::core::interop::ethereum::eth_transaction Pages: 1 -->
<svg width="141pt" height="240pt"
 viewBox="0.00 0.00 141.00 240.00" xmlns="http://www.w3.org/2000/svg" xmlns:xlink="http://www.w3.org/1999/xlink">
<g id="graph0" class="graph" transform="scale(1 1) rotate(0) translate(4 236)">
<title>automaton::core::interop::ethereum::eth_transaction</title>
<polygon fill="white" stroke="transparent" points="-4,4 -4,-236 137,-236 137,4 -4,4"/>
<!-- Node1 -->
<g id="node1" class="node">
<title>Node1</title>
<g id="a_node1"><a xlink:title=" ">
<polygon fill="#bfbfbf" stroke="black" points="0,-0.5 0,-30.5 133,-30.5 133,-0.5 0,-0.5"/>
<text text-anchor="start" x="8" y="-18.5" font-family="Helvetica,sans-Serif" font-size="10.00">automaton::core::interop</text>
<text text-anchor="middle" x="66.5" y="-7.5" font-family="Helvetica,sans-Serif" font-size="10.00">::ethereum::eth_transaction</text>
</a>
</g>
</g>
<!-- Node2 -->
<g id="node2" class="node">
<title>Node2</title>
<g id="a_node2"><a xlink:title="STL class.">
<polygon fill="white" stroke="#bfbfbf" points="37,-144.5 37,-163.5 96,-163.5 96,-144.5 37,-144.5"/>
<text text-anchor="middle" x="66.5" y="-151.5" font-family="Helvetica,sans-Serif" font-size="10.00">std::string</text>
</a>
</g>
</g>
<!-- Node2&#45;&gt;Node1 -->
<g id="edge1" class="edge">
<title>Node2&#45;&gt;Node1</title>
<path fill="none" stroke="#9a32cd" stroke-dasharray="5,2" d="M66.5,-134.15C66.5,-106.41 66.5,-55.2 66.5,-30.52"/>
<polygon fill="#9a32cd" stroke="#9a32cd" points="63,-134.46 66.5,-144.46 70,-134.46 63,-134.46"/>
<text text-anchor="middle" x="89" y="-118" font-family="Helvetica,sans-Serif" font-size="10.00"> gas_price</text>
<text text-anchor="middle" x="89" y="-107" font-family="Helvetica,sans-Serif" font-size="10.00">chain_id</text>
<text text-anchor="middle" x="89" y="-96" font-family="Helvetica,sans-Serif" font-size="10.00">gas_limit</text>
<text text-anchor="middle" x="89" y="-85" font-family="Helvetica,sans-Serif" font-size="10.00">nonce</text>
<text text-anchor="middle" x="89" y="-74" font-family="Helvetica,sans-Serif" font-size="10.00">value</text>
<text text-anchor="middle" x="89" y="-63" font-family="Helvetica,sans-Serif" font-size="10.00">data</text>
<text text-anchor="middle" x="89" y="-52" font-family="Helvetica,sans-Serif" font-size="10.00">to</text>
</g>
<!-- Node3 -->
<g id="node3" class="node">
<title>Node3</title>
<g id="a_node3"><a xlink:title="STL class.">
<polygon fill="white" stroke="#bfbfbf" points="20,-201.5 20,-231.5 113,-231.5 113,-201.5 20,-201.5"/>
<text text-anchor="start" x="28" y="-219.5" font-family="Helvetica,sans-Serif" font-size="10.00">std::basic_string&lt;</text>
<text text-anchor="middle" x="66.5" y="-208.5" font-family="Helvetica,sans-Serif" font-size="10.00"> char &gt;</text>
</a>
</g>
</g>
<!-- Node3&#45;&gt;Node2 -->
<g id="edge2" class="edge">
<title>Node3&#45;&gt;Node2</title>
<path fill="none" stroke="midnightblue" d="M66.5,-191.35C66.5,-181.51 66.5,-170.78 66.5,-163.54"/>
<polygon fill="midnightblue" stroke="midnightblue" points="63,-191.47 66.5,-201.47 70,-191.47 63,-191.47"/>
</g>
</g>
</svg>
