<?xml version="1.0" encoding="UTF-8" standalone="no"?>
<!DOCTYPE svg PUBLIC "-//W3C//DTD SVG 1.1//EN"
 "http://www.w3.org/Graphics/SVG/1.1/DTD/svg11.dtd">
<!-- Generated by graphviz version 2.42.3 ()
 -->
<!-- Title: acceptor.h Pages: 1 -->
<!--zoomable 196 -->
<svg id="main" version="1.1" xmlns="http://www.w3.org/2000/svg" xmlns:xlink="http://www.w3.org/1999/xlink" xml:space="preserve" onload="init(evt)">
<style type="text/css"><![CDATA[
.edge:hover path { stroke: red; }
.edge:hover polygon { stroke: red; fill: red; }
]]></style>
<script type="text/javascript"><![CDATA[
var edges = document.getElementsByTagName('g');
if (edges && edges.length) {
  for (var i=0;i<edges.length;i++) {
    if (edges[i].id.substr(0,4)=='edge') {
      edges[i].setAttribute('class','edge');
    }
  }
}
]]></script>
        <defs>
                <circle id="rim" cx="0" cy="0" r="7"/>
                <circle id="rim2" cx="0" cy="0" r="3.5"/>
                <g id="zoomPlus">
                        <use xlink:href="#rim" fill="#404040">
                                <set attributeName="fill" to="#808080" begin="zoomplus.mouseover" end="zoomplus.mouseout"/>
                        </use>
                        <path d="M-4,0h8M0,-4v8" fill="none" stroke="white" stroke-width="1.5" pointer-events="none"/>
                </g>
                <g id="zoomMin">
                        <use xlink:href="#rim" fill="#404040">
                                <set attributeName="fill" to="#808080" begin="zoomminus.mouseover" end="zoomminus.mouseout"/>
                        </use>
                        <path d="M-4,0h8" fill="none" stroke="white" stroke-width="1.5" pointer-events="none"/>
                </g>
                <g id="dirArrow">
                        <path fill="none" stroke="white" stroke-width="1.5" d="M0,-3.0v7 M-2.5,-0.5L0,-3.0L2.5,-0.5"/>
                </g>
               <g id="resetDef">
                       <use xlink:href="#rim2" fill="#404040">
                               <set attributeName="fill" to="#808080" begin="reset.mouseover" end="reset.mouseout"/>
                       </use>
               </g>
        </defs>

<script type="text/javascript">
var viewWidth = 1207;
var viewHeight = 196;
var sectionId = 'dynsection-1';
</script>
<script xlink:href="../../svgpan.js"/>
<svg id="graph" class="graph">
<g id="viewport">
<title>acceptor.h</title>
<polygon fill="white" stroke="transparent" points="-4,4 -4,-192 1202.56,-192 1202.56,4 -4,4"/>
<!-- Node1 -->
<g id="node1" class="node">
<title>Node1</title>
<g id="a_node1"><a xlink:title=" ">
<polygon fill="#bfbfbf" stroke="black" points="800.56,-168.5 800.56,-187.5 862.56,-187.5 862.56,-168.5 800.56,-168.5"/>
<text text-anchor="middle" x="831.56" y="-175.5" font-family="Helvetica,sans-Serif" font-size="10.00">acceptor.h</text>
</a>
</g>
</g>
<!-- Node2 -->
<g id="node2" class="node">
<title>Node2</title>
<g id="a_node2"><a xlink:href="../../d3/ddf/simulated__connection_8h.html" target="_top" xlink:title=" ">
<polygon fill="white" stroke="black" points="17.06,-112.5 17.06,-131.5 136.06,-131.5 136.06,-112.5 17.06,-112.5"/>
<text text-anchor="middle" x="76.56" y="-119.5" font-family="Helvetica,sans-Serif" font-size="10.00">simulated_connection.h</text>
</a>
</g>
</g>
<!-- Node1&#45;&gt;Node2 -->
<g id="edge1" class="edge">
<title>Node1&#45;&gt;Node2</title>
<path fill="none" stroke="midnightblue" d="M790.56,-174.07C664.77,-165.07 283.91,-137.83 136.09,-127.26"/>
<polygon fill="midnightblue" stroke="midnightblue" points="790.33,-177.56 800.55,-174.78 790.83,-170.58 790.33,-177.56"/>
</g>
<!-- Node5 -->
<g id="node5" class="node">
<title>Node5</title>
<g id="a_node5"><a xlink:href="../../d8/d3f/tcp__implementation_8h.html" target="_top" xlink:title=" ">
<polygon fill="white" stroke="black" points="496.06,-112.5 496.06,-131.5 605.06,-131.5 605.06,-112.5 496.06,-112.5"/>
<text text-anchor="middle" x="550.56" y="-119.5" font-family="Helvetica,sans-Serif" font-size="10.00">tcp_implementation.h</text>
</a>
</g>
</g>
<!-- Node1&#45;&gt;Node5 -->
<g id="edge4" class="edge">
<title>Node1&#45;&gt;Node5</title>
<path fill="none" stroke="midnightblue" d="M790.52,-169.11C738.45,-159.11 648.99,-141.91 595.24,-131.59"/>
<polygon fill="midnightblue" stroke="midnightblue" points="789.93,-172.56 800.41,-171.01 791.25,-165.69 789.93,-172.56"/>
</g>
<!-- Node10 -->
<g id="node10" class="node">
<title>Node10</title>
<g id="a_node10"><a xlink:href="../../d1/d77/node_8h.html" target="_top" xlink:title=" ">
<polygon fill="white" stroke="black" points="809.06,-112.5 809.06,-131.5 854.06,-131.5 854.06,-112.5 809.06,-112.5"/>
<text text-anchor="middle" x="831.56" y="-119.5" font-family="Helvetica,sans-Serif" font-size="10.00">node.h</text>
</a>
</g>
</g>
<!-- Node1&#45;&gt;Node10 -->
<g id="edge10" class="edge">
<title>Node1&#45;&gt;Node10</title>
<path fill="none" stroke="midnightblue" d="M831.56,-157.8C831.56,-148.91 831.56,-138.78 831.56,-131.75"/>
<polygon fill="midnightblue" stroke="midnightblue" points="828.06,-158.08 831.56,-168.08 835.06,-158.08 828.06,-158.08"/>
</g>
<!-- Node17 -->
<g id="node17" class="node">
<title>Node17</title>
<g id="a_node17"><a xlink:href="../../d5/d4e/acceptor_8cc.html" target="_top" xlink:title=" ">
<polygon fill="white" stroke="black" points="872.06,-112.5 872.06,-131.5 939.06,-131.5 939.06,-112.5 872.06,-112.5"/>
<text text-anchor="middle" x="905.56" y="-119.5" font-family="Helvetica,sans-Serif" font-size="10.00">acceptor.cc</text>
</a>
</g>
</g>
<!-- Node1&#45;&gt;Node17 -->
<g id="edge20" class="edge">
<title>Node1&#45;&gt;Node17</title>
<path fill="none" stroke="midnightblue" d="M851.59,-162.38C864.97,-152.62 882.12,-140.11 893.45,-131.83"/>
<polygon fill="midnightblue" stroke="midnightblue" points="849.46,-159.6 843.45,-168.32 853.59,-165.26 849.46,-159.6"/>
</g>
<!-- Node18 -->
<g id="node18" class="node">
<title>Node18</title>
<g id="a_node18"><a xlink:href="../../d5/dcb/zmq__connection_8h.html" target="_top" xlink:title=" ">
<polygon fill="white" stroke="black" points="1047.06,-112.5 1047.06,-131.5 1142.06,-131.5 1142.06,-112.5 1047.06,-112.5"/>
<text text-anchor="middle" x="1094.56" y="-119.5" font-family="Helvetica,sans-Serif" font-size="10.00">zmq_connection.h</text>
</a>
</g>
</g>
<!-- Node1&#45;&gt;Node18 -->
<g id="edge21" class="edge">
<title>Node1&#45;&gt;Node18</title>
<path fill="none" stroke="midnightblue" d="M872.74,-168.55C921.91,-158.45 1003.69,-141.66 1053.02,-131.53"/>
<polygon fill="midnightblue" stroke="midnightblue" points="871.85,-165.15 862.76,-170.59 873.26,-172.01 871.85,-165.15"/>
</g>
<!-- Node3 -->
<g id="node3" class="node">
<title>Node3</title>
<g id="a_node3"><a xlink:href="../../dd/de7/core_8cc.html" target="_top" xlink:title=" ">
<polygon fill="white" stroke="black" points="718.56,-0.5 718.56,-19.5 766.56,-19.5 766.56,-0.5 718.56,-0.5"/>
<text text-anchor="middle" x="742.56" y="-7.5" font-family="Helvetica,sans-Serif" font-size="10.00">core.cc</text>
</a>
</g>
</g>
<!-- Node2&#45;&gt;Node3 -->
<g id="edge2" class="edge">
<title>Node2&#45;&gt;Node3</title>
<path fill="none" stroke="midnightblue" d="M45.52,-108.25C18.88,-95.57 -12.57,-75.27 5.56,-56 30.57,-29.42 594.39,-14.52 718.53,-11.55"/>
<polygon fill="midnightblue" stroke="midnightblue" points="44.11,-111.45 54.66,-112.41 47,-105.08 44.11,-111.45"/>
</g>
<!-- Node4 -->
<g id="node4" class="node">
<title>Node4</title>
<g id="a_node4"><a xlink:href="../../d6/d86/simulated__connection_8cc.html" target="_top" xlink:title=" ">
<polygon fill="white" stroke="black" points="14.56,-56.5 14.56,-75.5 138.56,-75.5 138.56,-56.5 14.56,-56.5"/>
<text text-anchor="middle" x="76.56" y="-63.5" font-family="Helvetica,sans-Serif" font-size="10.00">simulated_connection.cc</text>
</a>
</g>
</g>
<!-- Node2&#45;&gt;Node4 -->
<g id="edge3" class="edge">
<title>Node2&#45;&gt;Node4</title>
<path fill="none" stroke="midnightblue" d="M76.56,-101.8C76.56,-92.91 76.56,-82.78 76.56,-75.75"/>
<polygon fill="midnightblue" stroke="midnightblue" points="73.06,-102.08 76.56,-112.08 80.06,-102.08 73.06,-102.08"/>
</g>
<!-- Node5&#45;&gt;Node3 -->
<g id="edge5" class="edge">
<title>Node5&#45;&gt;Node3</title>
<path fill="none" stroke="midnightblue" d="M604.54,-110C630.5,-103.02 661.2,-92.18 685.56,-76 708.56,-60.72 727.94,-33.83 737.03,-19.91"/>
<polygon fill="midnightblue" stroke="midnightblue" points="603.65,-106.61 594.84,-112.48 605.39,-113.39 603.65,-106.61"/>
</g>
<!-- Node6 -->
<g id="node6" class="node">
<title>Node6</title>
<g id="a_node6"><a xlink:href="../../d2/d4b/eth__contract__raw_8cc.html" target="_top" xlink:title=" ">
<polygon fill="white" stroke="black" points="296.56,-56.5 296.56,-75.5 400.56,-75.5 400.56,-56.5 296.56,-56.5"/>
<text text-anchor="middle" x="348.56" y="-63.5" font-family="Helvetica,sans-Serif" font-size="10.00">eth_contract_raw.cc</text>
</a>
</g>
</g>
<!-- Node5&#45;&gt;Node6 -->
<g id="edge6" class="edge">
<title>Node5&#45;&gt;Node6</title>
<path fill="none" stroke="midnightblue" d="M508.77,-109.83C470.63,-99.63 415.08,-84.78 380.42,-75.52"/>
<polygon fill="midnightblue" stroke="midnightblue" points="507.99,-113.24 518.55,-112.44 509.79,-106.48 507.99,-113.24"/>
</g>
<!-- Node7 -->
<g id="node7" class="node">
<title>Node7</title>
<g id="a_node7"><a xlink:href="../../df/d01/eth__contract__raw__test_8cc.html" target="_top" xlink:title=" ">
<polygon fill="white" stroke="black" points="418.56,-56.5 418.56,-75.5 544.56,-75.5 544.56,-56.5 418.56,-56.5"/>
<text text-anchor="middle" x="481.56" y="-63.5" font-family="Helvetica,sans-Serif" font-size="10.00">eth_contract_raw_test.cc</text>
</a>
</g>
</g>
<!-- Node5&#45;&gt;Node7 -->
<g id="edge7" class="edge">
<title>Node5&#45;&gt;Node7</title>
<path fill="none" stroke="midnightblue" d="M531.52,-106.1C519.1,-96.38 503.32,-84.03 492.85,-75.83"/>
<polygon fill="midnightblue" stroke="midnightblue" points="529.44,-108.92 539.47,-112.32 533.75,-103.4 529.44,-108.92"/>
</g>
<!-- Node8 -->
<g id="node8" class="node">
<title>Node8</title>
<g id="a_node8"><a xlink:href="../../d5/dc9/tcp__implementation_8cc.html" target="_top" xlink:title=" ">
<polygon fill="white" stroke="black" points="562.56,-56.5 562.56,-75.5 676.56,-75.5 676.56,-56.5 562.56,-56.5"/>
<text text-anchor="middle" x="619.56" y="-63.5" font-family="Helvetica,sans-Serif" font-size="10.00">tcp_implementation.cc</text>
</a>
</g>
</g>
<!-- Node5&#45;&gt;Node8 -->
<g id="edge8" class="edge">
<title>Node5&#45;&gt;Node8</title>
<path fill="none" stroke="midnightblue" d="M569.6,-106.1C582.01,-96.38 597.8,-84.03 608.27,-75.83"/>
<polygon fill="midnightblue" stroke="midnightblue" points="567.36,-103.4 561.64,-112.32 571.68,-108.92 567.36,-103.4"/>
</g>
<!-- Node9 -->
<g id="node9" class="node">
<title>Node9</title>
<g id="a_node9"><a xlink:href="../../d8/d4a/rpc__server__core__test_8cc.html" target="_top" xlink:title=" ">
<polygon fill="white" stroke="black" points="157.06,-56.5 157.06,-75.5 278.06,-75.5 278.06,-56.5 157.06,-56.5"/>
<text text-anchor="middle" x="217.56" y="-63.5" font-family="Helvetica,sans-Serif" font-size="10.00">rpc_server_core_test.cc</text>
</a>
</g>
</g>
<!-- Node5&#45;&gt;Node9 -->
<g id="edge9" class="edge">
<title>Node5&#45;&gt;Node9</title>
<path fill="none" stroke="midnightblue" d="M487.6,-110.79C424.68,-100.59 329.04,-85.08 270.08,-75.52"/>
<polygon fill="midnightblue" stroke="midnightblue" points="487.36,-114.3 497.79,-112.44 488.48,-107.39 487.36,-114.3"/>
</g>
<!-- Node10&#45;&gt;Node3 -->
<g id="edge17" class="edge">
<title>Node10&#45;&gt;Node3</title>
<path fill="none" stroke="midnightblue" d="M801.3,-107.74C787.39,-100.25 771.75,-89.63 761.56,-76 748.75,-58.86 744.55,-33.24 743.19,-19.86"/>
<polygon fill="midnightblue" stroke="midnightblue" points="800.06,-111.03 810.56,-112.42 803.22,-104.79 800.06,-111.03"/>
</g>
<!-- Node11 -->
<g id="node11" class="node">
<title>Node11</title>
<g id="a_node11"><a xlink:href="../../d9/d5a/lua__node_8h.html" target="_top" xlink:title=" ">
<polygon fill="white" stroke="black" points="916.06,-56.5 916.06,-75.5 979.06,-75.5 979.06,-56.5 916.06,-56.5"/>
<text text-anchor="middle" x="947.56" y="-63.5" font-family="Helvetica,sans-Serif" font-size="10.00">lua_node.h</text>
</a>
</g>
</g>
<!-- Node10&#45;&gt;Node11 -->
<g id="edge11" class="edge">
<title>Node10&#45;&gt;Node11</title>
<path fill="none" stroke="midnightblue" d="M859.28,-108.1C880.95,-98.01 910.46,-84.27 929.26,-75.52"/>
<polygon fill="midnightblue" stroke="midnightblue" points="857.53,-105.05 849.94,-112.44 860.48,-111.4 857.53,-105.05"/>
</g>
<!-- Node13 -->
<g id="node13" class="node">
<title>Node13</title>
<g id="a_node13"><a xlink:href="../../dc/d32/node__updater_8h.html" target="_top" xlink:title=" ">
<polygon fill="white" stroke="black" points="997.06,-56.5 997.06,-75.5 1080.06,-75.5 1080.06,-56.5 997.06,-56.5"/>
<text text-anchor="middle" x="1038.56" y="-63.5" font-family="Helvetica,sans-Serif" font-size="10.00">node_updater.h</text>
</a>
</g>
</g>
<!-- Node10&#45;&gt;Node13 -->
<g id="edge14" class="edge">
<title>Node10&#45;&gt;Node13</title>
<path fill="none" stroke="midnightblue" d="M863.93,-111.68C917.76,-97.07 970.19,-83.87 1003.74,-75.55"/>
<polygon fill="midnightblue" stroke="midnightblue" points="862.95,-108.32 854.22,-114.33 864.79,-115.08 862.95,-108.32"/>
</g>
<!-- Node15 -->
<g id="node15" class="node">
<title>Node15</title>
<g id="a_node15"><a xlink:href="../../dc/dfd/node_8cc.html" target="_top" xlink:title=" ">
<polygon fill="white" stroke="black" points="770.56,-56.5 770.56,-75.5 820.56,-75.5 820.56,-56.5 770.56,-56.5"/>
<text text-anchor="middle" x="795.56" y="-63.5" font-family="Helvetica,sans-Serif" font-size="10.00">node.cc</text>
</a>
</g>
</g>
<!-- Node10&#45;&gt;Node15 -->
<g id="edge18" class="edge">
<title>Node10&#45;&gt;Node15</title>
<path fill="none" stroke="midnightblue" d="M819.94,-103.57C813.74,-94.27 806.39,-83.25 801.39,-75.75"/>
<polygon fill="midnightblue" stroke="midnightblue" points="817.15,-105.7 825.61,-112.08 822.98,-101.82 817.15,-105.7"/>
</g>
<!-- Node16 -->
<g id="node16" class="node">
<title>Node16</title>
<g id="a_node16"><a xlink:href="../../df/dd2/testnet_8cc.html" target="_top" xlink:title=" ">
<polygon fill="white" stroke="black" points="839.06,-56.5 839.06,-75.5 898.06,-75.5 898.06,-56.5 839.06,-56.5"/>
<text text-anchor="middle" x="868.56" y="-63.5" font-family="Helvetica,sans-Serif" font-size="10.00">testnet.cc</text>
</a>
</g>
</g>
<!-- Node10&#45;&gt;Node16 -->
<g id="edge19" class="edge">
<title>Node10&#45;&gt;Node16</title>
<path fill="none" stroke="midnightblue" d="M843.5,-103.57C849.87,-94.27 857.43,-83.25 862.56,-75.75"/>
<polygon fill="midnightblue" stroke="midnightblue" points="840.43,-101.86 837.67,-112.08 846.21,-105.81 840.43,-101.86"/>
</g>
<!-- Node11&#45;&gt;Node3 -->
<g id="edge12" class="edge">
<title>Node11&#45;&gt;Node3</title>
<path fill="none" stroke="midnightblue" d="M906.09,-54.08C864.26,-43.06 801.09,-26.42 766.79,-17.38"/>
<polygon fill="midnightblue" stroke="midnightblue" points="905.41,-57.52 915.98,-56.68 907.2,-50.75 905.41,-57.52"/>
</g>
<!-- Node12 -->
<g id="node12" class="node">
<title>Node12</title>
<g id="a_node12"><a xlink:href="../../db/d7e/lua__node_8cc.html" target="_top" xlink:title=" ">
<polygon fill="white" stroke="black" points="910.56,-0.5 910.56,-19.5 978.56,-19.5 978.56,-0.5 910.56,-0.5"/>
<text text-anchor="middle" x="944.56" y="-7.5" font-family="Helvetica,sans-Serif" font-size="10.00">lua_node.cc</text>
</a>
</g>
</g>
<!-- Node11&#45;&gt;Node12 -->
<g id="edge13" class="edge">
<title>Node11&#45;&gt;Node12</title>
<path fill="none" stroke="midnightblue" d="M946.49,-45.8C946,-36.91 945.44,-26.78 945.04,-19.75"/>
<polygon fill="midnightblue" stroke="midnightblue" points="943.01,-46.29 947.06,-56.08 950,-45.9 943.01,-46.29"/>
</g>
<!-- Node13&#45;&gt;Node3 -->
<g id="edge15" class="edge">
<title>Node13&#45;&gt;Node3</title>
<path fill="none" stroke="midnightblue" d="M986.81,-55.56C922.31,-43.79 814.73,-24.17 766.84,-15.43"/>
<polygon fill="midnightblue" stroke="midnightblue" points="986.31,-59.03 996.78,-57.38 987.57,-52.14 986.31,-59.03"/>
</g>
<!-- Node14 -->
<g id="node14" class="node">
<title>Node14</title>
<g id="a_node14"><a xlink:href="../../d1/d13/node__updater_8cc.html" target="_top" xlink:title=" ">
<polygon fill="white" stroke="black" points="996.56,-0.5 996.56,-19.5 1084.56,-19.5 1084.56,-0.5 996.56,-0.5"/>
<text text-anchor="middle" x="1040.56" y="-7.5" font-family="Helvetica,sans-Serif" font-size="10.00">node_updater.cc</text>
</a>
</g>
</g>
<!-- Node13&#45;&gt;Node14 -->
<g id="edge16" class="edge">
<title>Node13&#45;&gt;Node14</title>
<path fill="none" stroke="midnightblue" d="M1039.27,-45.8C1039.6,-36.91 1039.97,-26.78 1040.23,-19.75"/>
<polygon fill="midnightblue" stroke="midnightblue" points="1035.76,-45.96 1038.89,-56.08 1042.76,-46.22 1035.76,-45.96"/>
</g>
<!-- Node19 -->
<g id="node19" class="node">
<title>Node19</title>
<g id="a_node19"><a xlink:href="../../d1/d34/zmq__connection_8cc.html" target="_top" xlink:title=" ">
<polygon fill="white" stroke="black" points="1098.56,-56.5 1098.56,-75.5 1198.56,-75.5 1198.56,-56.5 1098.56,-56.5"/>
<text text-anchor="middle" x="1148.56" y="-63.5" font-family="Helvetica,sans-Serif" font-size="10.00">zmq_connection.cc</text>
</a>
</g>
</g>
<!-- Node18&#45;&gt;Node19 -->
<g id="edge22" class="edge">
<title>Node18&#45;&gt;Node19</title>
<path fill="none" stroke="midnightblue" d="M1110.56,-105C1120.13,-95.43 1131.92,-83.64 1139.81,-75.75"/>
<polygon fill="midnightblue" stroke="midnightblue" points="1108.07,-102.54 1103.48,-112.08 1113.02,-107.49 1108.07,-102.54"/>
</g>
</g>
</svg>
        <g id="navigator" transform="translate(0 0)" fill="#404254">
                <rect fill="#f2f5e9" fill-opacity="0.5" stroke="#606060" stroke-width=".5" x="0" y="0" width="60" height="60"/>
                <use id="zoomplus" xlink:href="#zoomPlus" x="17" y="9" onmousedown="handleZoom(evt,'in')"/>
                <use id="zoomminus" xlink:href="#zoomMin" x="42" y="9" onmousedown="handleZoom(evt,'out')"/>
                <use id="reset" xlink:href="#resetDef" x="30" y="36" onmousedown="handleReset()"/>
                <g id="arrowUp" xlink:href="#dirArrow" transform="translate(30 24)" onmousedown="handlePan(0,-1)">
                  <use xlink:href="#rim" fill="#404040">
                        <set attributeName="fill" to="#808080" begin="arrowUp.mouseover" end="arrowUp.mouseout"/>
                  </use>
                  <path fill="none" stroke="white" stroke-width="1.5" d="M0,-3.0v7 M-2.5,-0.5L0,-3.0L2.5,-0.5"/>
                </g>
                <g id="arrowRight" xlink:href="#dirArrow" transform="rotate(90) translate(36 -43)" onmousedown="handlePan(1,0)">
                  <use xlink:href="#rim" fill="#404040">
                        <set attributeName="fill" to="#808080" begin="arrowRight.mouseover" end="arrowRight.mouseout"/>
                  </use>
                  <path fill="none" stroke="white" stroke-width="1.5" d="M0,-3.0v7 M-2.5,-0.5L0,-3.0L2.5,-0.5"/>
                </g>
                <g id="arrowDown" xlink:href="#dirArrow" transform="rotate(180) translate(-30 -48)" onmousedown="handlePan(0,1)">
                  <use xlink:href="#rim" fill="#404040">
                        <set attributeName="fill" to="#808080" begin="arrowDown.mouseover" end="arrowDown.mouseout"/>
                  </use>
                  <path fill="none" stroke="white" stroke-width="1.5" d="M0,-3.0v7 M-2.5,-0.5L0,-3.0L2.5,-0.5"/>
                </g>
                <g id="arrowLeft" xlink:href="#dirArrow" transform="rotate(270) translate(-36 17)" onmousedown="handlePan(-1,0)">
                  <use xlink:href="#rim" fill="#404040">
                        <set attributeName="fill" to="#808080" begin="arrowLeft.mouseover" end="arrowLeft.mouseout"/>
                  </use>
                  <path fill="none" stroke="white" stroke-width="1.5" d="M0,-3.0v7 M-2.5,-0.5L0,-3.0L2.5,-0.5"/>
                </g>
        </g>
        <svg viewBox="0 0 15 15" width="100%" height="30px" preserveAspectRatio="xMaxYMin meet">
         <g id="arrow_out" transform="scale(0.3 0.3)">
          <a xlink:href="acceptor_8h__dep__incl_org.svg" target="_base">
           <rect id="button" ry="5" rx="5" y="6" x="6" height="38" width="38"
                fill="#f2f5e9" fill-opacity="0.5" stroke="#606060" stroke-width="1.0"/>
           <path id="arrow"
             d="M 11.500037,31.436501 C 11.940474,20.09759 22.043105,11.32322 32.158766,21.979434 L 37.068811,17.246167 C 37.068811,17.246167 37.088388,32 37.088388,32 L 22.160133,31.978069 C 22.160133,31.978069 26.997745,27.140456 26.997745,27.140456 C 18.528582,18.264221 13.291696,25.230495 11.500037,31.436501 z"
             style="fill:#404040;"/>
          </a>
         </g>
        </svg>
</svg>
