<?xml version="1.0" encoding="UTF-8" standalone="no"?>
<!DOCTYPE svg PUBLIC "-//W3C//DTD SVG 1.1//EN"
 "http://www.w3.org/Graphics/SVG/1.1/DTD/svg11.dtd">
<!-- Generated by graphviz version 2.44.0 ()
 -->
<!-- Title: smart_protocol.h Pages: 1 -->
<!--zoomable 285 -->
<svg id="main" version="1.1" xmlns="http://www.w3.org/2000/svg" xmlns:xlink="http://www.w3.org/1999/xlink" xml:space="preserve" onload="init(evt)">
<style type="text/css"><![CDATA[
.edge:hover path { stroke: red; }
.edge:hover polygon { stroke: red; fill: red; }
]]></style>
<script type="text/javascript"><![CDATA[
var edges = document.getElementsByTagName('g');
if (edges && edges.length) {
  for (var i=0;i<edges.length;i++) {
    if (edges[i].id.substr(0,4)=='edge') {
      edges[i].setAttribute('class','edge');
    }
  }
}
]]></script>
        <defs>
                <circle id="rim" cx="0" cy="0" r="7"/>
                <circle id="rim2" cx="0" cy="0" r="3.5"/>
                <g id="zoomPlus">
                        <use xlink:href="#rim" fill="#404040">
                                <set attributeName="fill" to="#808080" begin="zoomplus.mouseover" end="zoomplus.mouseout"/>
                        </use>
                        <path d="M-4,0h8M0,-4v8" fill="none" stroke="white" stroke-width="1.5" pointer-events="none"/>
                </g>
                <g id="zoomMin">
                        <use xlink:href="#rim" fill="#404040">
                                <set attributeName="fill" to="#808080" begin="zoomminus.mouseover" end="zoomminus.mouseout"/>
                        </use>
                        <path d="M-4,0h8" fill="none" stroke="white" stroke-width="1.5" pointer-events="none"/>
                </g>
                <g id="dirArrow">
                        <path fill="none" stroke="white" stroke-width="1.5" d="M0,-3.0v7 M-2.5,-0.5L0,-3.0L2.5,-0.5"/>
                </g>
               <g id="resetDef">
                       <use xlink:href="#rim2" fill="#404040">
                               <set attributeName="fill" to="#808080" begin="reset.mouseover" end="reset.mouseout"/>
                       </use>
               </g>
        </defs>

<script type="text/javascript">
var viewWidth = 537;
var viewHeight = 285;
var sectionId = 'dynsection-0';
</script>
<script xlink:href="../../svgpan.js"/>
<svg id="graph" class="graph">
<g id="viewport">
<title>smart_protocol.h</title>
<polygon fill="white" stroke="transparent" points="-4,4 -4,-281 533.21,-281 533.21,4 -4,4"/>
<!-- Node1 -->
<g id="node1" class="node">
<title>Node1</title>
<g id="a_node1"><a xlink:title=" ">
<polygon fill="#bfbfbf" stroke="black" points="277.21,-257.5 277.21,-276.5 366.21,-276.5 366.21,-257.5 277.21,-257.5"/>
<text text-anchor="middle" x="321.71" y="-264.5" font-family="Helvetica,sans-Serif" font-size="10.00">smart_protocol.h</text>
</a>
</g>
</g>
<!-- Node2 -->
<g id="node2" class="node">
<title>Node2</title>
<g id="a_node2"><a xlink:title=" ">
<polygon fill="white" stroke="#bfbfbf" points="62.21,-62 62.21,-81 113.21,-81 113.21,-62 62.21,-62"/>
<text text-anchor="middle" x="87.71" y="-69" font-family="Helvetica,sans-Serif" font-size="10.00">memory</text>
</a>
</g>
</g>
<!-- Node1&#45;&gt;Node2 -->
<g id="edge1" class="edge">
<title>Node1&#45;&gt;Node2</title>
<path fill="none" stroke="midnightblue" d="M277.18,-264.7C208.7,-259.95 79.88,-239.47 26.71,-154 19.43,-142.3 20.84,-135.47 26.71,-123 34.03,-107.43 48.76,-95.02 61.92,-86.4"/>
<polygon fill="midnightblue" stroke="midnightblue" points="63.96,-89.25 70.66,-81.04 60.31,-83.28 63.96,-89.25"/>
</g>
<!-- Node3 -->
<g id="node3" class="node">
<title>Node3</title>
<g id="a_node3"><a xlink:title=" ">
<polygon fill="white" stroke="#bfbfbf" points="54.21,-0.5 54.21,-19.5 95.21,-19.5 95.21,-0.5 54.21,-0.5"/>
<text text-anchor="middle" x="74.71" y="-7.5" font-family="Helvetica,sans-Serif" font-size="10.00">string</text>
</a>
</g>
</g>
<!-- Node1&#45;&gt;Node3 -->
<g id="edge2" class="edge">
<title>Node1&#45;&gt;Node3</title>
<path fill="none" stroke="midnightblue" d="M277.01,-263.28C210.25,-258.42 88.59,-246.32 53.71,-221 -6.89,-177.02 -12.86,-123.42 19.71,-56 25.93,-43.11 37.81,-32.67 48.93,-25.09"/>
<polygon fill="midnightblue" stroke="midnightblue" points="50.98,-27.94 57.57,-19.65 47.25,-22.02 50.98,-27.94"/>
</g>
<!-- Node4 -->
<g id="node4" class="node">
<title>Node4</title>
<g id="a_node4"><a xlink:title=" ">
<polygon fill="white" stroke="#bfbfbf" points="446.21,-196 446.21,-215 529.21,-215 529.21,-196 446.21,-196"/>
<text text-anchor="middle" x="487.71" y="-203" font-family="Helvetica,sans-Serif" font-size="10.00">unordered_map</text>
</a>
</g>
</g>
<!-- Node1&#45;&gt;Node4 -->
<g id="edge3" class="edge">
<title>Node1&#45;&gt;Node4</title>
<path fill="none" stroke="midnightblue" d="M345.49,-257.48C374.09,-247.22 422.26,-229.96 454.51,-218.4"/>
<polygon fill="midnightblue" stroke="midnightblue" points="455.73,-221.68 463.97,-215.01 453.37,-215.09 455.73,-221.68"/>
</g>
<!-- Node5 -->
<g id="node5" class="node">
<title>Node5</title>
<g id="a_node5"><a xlink:title=" ">
<polygon fill="white" stroke="#bfbfbf" points="319.71,-0.5 319.71,-19.5 363.71,-19.5 363.71,-0.5 319.71,-0.5"/>
<text text-anchor="middle" x="341.71" y="-7.5" font-family="Helvetica,sans-Serif" font-size="10.00">vector</text>
</a>
</g>
</g>
<!-- Node1&#45;&gt;Node5 -->
<g id="edge4" class="edge">
<title>Node1&#45;&gt;Node5</title>
<path fill="none" stroke="midnightblue" d="M322.58,-257.44C325.2,-231.69 333.04,-152.67 337.71,-87 339.08,-67.68 340.19,-45.56 340.89,-30.18"/>
<polygon fill="midnightblue" stroke="midnightblue" points="344.4,-30.04 341.34,-19.9 337.41,-29.74 344.4,-30.04"/>
</g>
<!-- Node6 -->
<g id="node6" class="node">
<title>Node6</title>
<g id="a_node6"><a xlink:href="../../de/d06/factory_8h.html" target="_top" xlink:title=" ">
<polygon fill="white" stroke="black" points="171.71,-190.5 171.71,-220.5 277.71,-220.5 277.71,-190.5 171.71,-190.5"/>
<text text-anchor="start" x="179.71" y="-208.5" font-family="Helvetica,sans-Serif" font-size="10.00">automaton/core/data</text>
<text text-anchor="middle" x="224.71" y="-197.5" font-family="Helvetica,sans-Serif" font-size="10.00">/factory.h</text>
</a>
</g>
</g>
<!-- Node1&#45;&gt;Node6 -->
<g id="edge5" class="edge">
<title>Node1&#45;&gt;Node6</title>
<path fill="none" stroke="midnightblue" d="M307.81,-257.48C294.43,-249.27 273.71,-236.56 256.31,-225.88"/>
<polygon fill="midnightblue" stroke="midnightblue" points="257.92,-222.77 247.57,-220.52 254.26,-228.74 257.92,-222.77"/>
</g>
<!-- Node10 -->
<g id="node10" class="node">
<title>Node10</title>
<g id="a_node10"><a xlink:href="../../d7/de3/schema_8h.html" target="_top" xlink:title=" ">
<polygon fill="white" stroke="black" points="169.71,-56.5 169.71,-86.5 275.71,-86.5 275.71,-56.5 169.71,-56.5"/>
<text text-anchor="start" x="177.71" y="-74.5" font-family="Helvetica,sans-Serif" font-size="10.00">automaton/core/data</text>
<text text-anchor="middle" x="222.71" y="-63.5" font-family="Helvetica,sans-Serif" font-size="10.00">/schema.h</text>
</a>
</g>
</g>
<!-- Node1&#45;&gt;Node10 -->
<g id="edge19" class="edge">
<title>Node1&#45;&gt;Node10</title>
<path fill="none" stroke="midnightblue" d="M318.93,-257.25C311.46,-234.32 289.62,-170.92 261.71,-123 256.02,-113.24 248.67,-103.24 241.89,-94.74"/>
<polygon fill="midnightblue" stroke="midnightblue" points="244.43,-92.32 235.38,-86.8 239.02,-96.76 244.43,-92.32"/>
</g>
<!-- Node6&#45;&gt;Node2 -->
<g id="edge7" class="edge">
<title>Node6&#45;&gt;Node2</title>
<path fill="none" stroke="midnightblue" d="M180.19,-190.43C160.5,-182.36 138.33,-170.5 122.71,-154 105.87,-136.23 96.44,-109.09 91.72,-91.08"/>
<polygon fill="midnightblue" stroke="midnightblue" points="95.09,-90.12 89.36,-81.21 88.28,-91.75 95.09,-90.12"/>
</g>
<!-- Node6&#45;&gt;Node3 -->
<g id="edge8" class="edge">
<title>Node6&#45;&gt;Node3</title>
<path fill="none" stroke="midnightblue" d="M171.35,-198.25C118.94,-190.89 44.34,-176.69 26.71,-154 -3.58,-115.02 36.76,-55.91 60.14,-27.45"/>
<polygon fill="midnightblue" stroke="midnightblue" points="62.95,-29.55 66.75,-19.66 57.61,-25.02 62.95,-29.55"/>
</g>
<!-- Node6&#45;&gt;Node5 -->
<g id="edge10" class="edge">
<title>Node6&#45;&gt;Node5</title>
<path fill="none" stroke="midnightblue" d="M245.39,-190.3C257.55,-181.1 272.5,-168.21 282.71,-154 311.34,-114.14 329.16,-58.32 337.01,-29.64"/>
<polygon fill="midnightblue" stroke="midnightblue" points="340.45,-30.31 339.61,-19.75 333.68,-28.53 340.45,-30.31"/>
</g>
<!-- Node7 -->
<g id="node7" class="node">
<title>Node7</title>
<g id="a_node7"><a xlink:title=" ">
<polygon fill="white" stroke="#bfbfbf" points="235.21,-0.5 235.21,-19.5 270.21,-19.5 270.21,-0.5 235.21,-0.5"/>
<text text-anchor="middle" x="252.71" y="-7.5" font-family="Helvetica,sans-Serif" font-size="10.00">map</text>
</a>
</g>
</g>
<!-- Node6&#45;&gt;Node7 -->
<g id="edge6" class="edge">
<title>Node6&#45;&gt;Node7</title>
<path fill="none" stroke="midnightblue" d="M236.96,-190.25C244.85,-180.53 254.86,-167.1 261.71,-154 276.29,-126.1 279.52,-118.05 284.71,-87 286.97,-73.41 288.9,-69.12 284.71,-56 281.37,-45.54 274.61,-35.43 268.16,-27.45"/>
<polygon fill="midnightblue" stroke="midnightblue" points="270.65,-24.98 261.46,-19.71 265.36,-29.56 270.65,-24.98"/>
</g>
<!-- Node8 -->
<g id="node8" class="node">
<title>Node8</title>
<g id="a_node8"><a xlink:title=" ">
<polygon fill="white" stroke="#bfbfbf" points="36.21,-129 36.21,-148 75.21,-148 75.21,-129 36.21,-129"/>
<text text-anchor="middle" x="55.71" y="-136" font-family="Helvetica,sans-Serif" font-size="10.00">utility</text>
</a>
</g>
</g>
<!-- Node6&#45;&gt;Node8 -->
<g id="edge9" class="edge">
<title>Node6&#45;&gt;Node8</title>
<path fill="none" stroke="midnightblue" d="M185.83,-190.49C158.76,-180.6 121.88,-166.87 89.71,-154 88.11,-153.36 86.47,-152.7 84.82,-152.02"/>
<polygon fill="midnightblue" stroke="midnightblue" points="86,-148.72 75.42,-148.09 83.29,-155.17 86,-148.72"/>
</g>
<!-- Node9 -->
<g id="node9" class="node">
<title>Node9</title>
<g id="a_node9"><a xlink:href="../../d1/d71/msg_8h.html" target="_top" xlink:title=" ">
<polygon fill="white" stroke="black" points="131.71,-123.5 131.71,-153.5 237.71,-153.5 237.71,-123.5 131.71,-123.5"/>
<text text-anchor="start" x="139.71" y="-141.5" font-family="Helvetica,sans-Serif" font-size="10.00">automaton/core/data</text>
<text text-anchor="middle" x="184.71" y="-130.5" font-family="Helvetica,sans-Serif" font-size="10.00">/msg.h</text>
</a>
</g>
</g>
<!-- Node6&#45;&gt;Node9 -->
<g id="edge11" class="edge">
<title>Node6&#45;&gt;Node9</title>
<path fill="none" stroke="midnightblue" d="M216.03,-190.4C210.94,-182.13 204.4,-171.51 198.61,-162.1"/>
<polygon fill="midnightblue" stroke="midnightblue" points="201.59,-160.26 193.37,-153.58 195.63,-163.93 201.59,-160.26"/>
</g>
<!-- Node6&#45;&gt;Node10 -->
<g id="edge18" class="edge">
<title>Node6&#45;&gt;Node10</title>
<path fill="none" stroke="midnightblue" d="M232.7,-190.44C237.83,-180.59 244.01,-166.92 246.71,-154 249.52,-140.51 249.74,-136.44 246.71,-123 244.62,-113.74 240.63,-104.19 236.49,-95.92"/>
<polygon fill="midnightblue" stroke="midnightblue" points="239.47,-94.07 231.67,-86.9 233.29,-97.37 239.47,-94.07"/>
</g>
<!-- Node9&#45;&gt;Node2 -->
<g id="edge12" class="edge">
<title>Node9&#45;&gt;Node2</title>
<path fill="none" stroke="midnightblue" d="M163.66,-123.4C147.39,-112.5 124.98,-97.48 108.72,-86.58"/>
<polygon fill="midnightblue" stroke="midnightblue" points="110.66,-83.67 100.4,-81.01 106.76,-89.48 110.66,-83.67"/>
</g>
<!-- Node9&#45;&gt;Node3 -->
<g id="edge13" class="edge">
<title>Node9&#45;&gt;Node3</title>
<path fill="none" stroke="midnightblue" d="M174.83,-123.44C162.9,-106.79 141.92,-78.47 121.71,-56 112.36,-45.61 101.06,-34.75 91.89,-26.3"/>
<polygon fill="midnightblue" stroke="midnightblue" points="94.23,-23.7 84.48,-19.57 89.53,-28.88 94.23,-23.7"/>
</g>
<!-- Node9&#45;&gt;Node10 -->
<g id="edge14" class="edge">
<title>Node9&#45;&gt;Node10</title>
<path fill="none" stroke="midnightblue" d="M192.95,-123.4C197.73,-115.22 203.87,-104.73 209.32,-95.39"/>
<polygon fill="midnightblue" stroke="midnightblue" points="212.45,-96.98 214.48,-86.58 206.41,-93.44 212.45,-96.98"/>
</g>
<!-- Node10&#45;&gt;Node3 -->
<g id="edge16" class="edge">
<title>Node10&#45;&gt;Node3</title>
<path fill="none" stroke="midnightblue" d="M187.63,-56.4C162.39,-46.25 128.7,-32.71 104.7,-23.06"/>
<polygon fill="midnightblue" stroke="midnightblue" points="105.97,-19.8 95.38,-19.31 103.35,-26.29 105.97,-19.8"/>
</g>
<!-- Node10&#45;&gt;Node5 -->
<g id="edge17" class="edge">
<title>Node10&#45;&gt;Node5</title>
<path fill="none" stroke="midnightblue" d="M250.91,-56.4C270.43,-46.64 296.23,-33.74 315.34,-24.18"/>
<polygon fill="midnightblue" stroke="midnightblue" points="317.01,-27.26 324.39,-19.66 313.88,-21 317.01,-27.26"/>
</g>
<!-- Node10&#45;&gt;Node7 -->
<g id="edge15" class="edge">
<title>Node10&#45;&gt;Node7</title>
<path fill="none" stroke="midnightblue" d="M229.82,-56.4C234,-48.11 239.32,-37.55 243.78,-28.71"/>
<polygon fill="midnightblue" stroke="midnightblue" points="246.96,-30.16 248.34,-19.66 240.71,-27.01 246.96,-30.16"/>
</g>
</g>
</svg>
        <g id="navigator" transform="translate(0 0)" fill="#404254">
                <rect fill="#f2f5e9" fill-opacity="0.5" stroke="#606060" stroke-width=".5" x="0" y="0" width="60" height="60"/>
                <use id="zoomplus" xlink:href="#zoomPlus" x="17" y="9" onmousedown="handleZoom(evt,'in')"/>
                <use id="zoomminus" xlink:href="#zoomMin" x="42" y="9" onmousedown="handleZoom(evt,'out')"/>
                <use id="reset" xlink:href="#resetDef" x="30" y="36" onmousedown="handleReset()"/>
                <g id="arrowUp" xlink:href="#dirArrow" transform="translate(30 24)" onmousedown="handlePan(0,-1)">
                  <use xlink:href="#rim" fill="#404040">
                        <set attributeName="fill" to="#808080" begin="arrowUp.mouseover" end="arrowUp.mouseout"/>
                  </use>
                  <path fill="none" stroke="white" stroke-width="1.5" d="M0,-3.0v7 M-2.5,-0.5L0,-3.0L2.5,-0.5"/>
                </g>
                <g id="arrowRight" xlink:href="#dirArrow" transform="rotate(90) translate(36 -43)" onmousedown="handlePan(1,0)">
                  <use xlink:href="#rim" fill="#404040">
                        <set attributeName="fill" to="#808080" begin="arrowRight.mouseover" end="arrowRight.mouseout"/>
                  </use>
                  <path fill="none" stroke="white" stroke-width="1.5" d="M0,-3.0v7 M-2.5,-0.5L0,-3.0L2.5,-0.5"/>
                </g>
                <g id="arrowDown" xlink:href="#dirArrow" transform="rotate(180) translate(-30 -48)" onmousedown="handlePan(0,1)">
                  <use xlink:href="#rim" fill="#404040">
                        <set attributeName="fill" to="#808080" begin="arrowDown.mouseover" end="arrowDown.mouseout"/>
                  </use>
                  <path fill="none" stroke="white" stroke-width="1.5" d="M0,-3.0v7 M-2.5,-0.5L0,-3.0L2.5,-0.5"/>
                </g>
                <g id="arrowLeft" xlink:href="#dirArrow" transform="rotate(270) translate(-36 17)" onmousedown="handlePan(-1,0)">
                  <use xlink:href="#rim" fill="#404040">
                        <set attributeName="fill" to="#808080" begin="arrowLeft.mouseover" end="arrowLeft.mouseout"/>
                  </use>
                  <path fill="none" stroke="white" stroke-width="1.5" d="M0,-3.0v7 M-2.5,-0.5L0,-3.0L2.5,-0.5"/>
                </g>
        </g>
        <svg viewBox="0 0 15 15" width="100%" height="30px" preserveAspectRatio="xMaxYMin meet">
         <g id="arrow_out" transform="scale(0.3 0.3)">
          <a xlink:href="smart__protocol_8h__incl_org.svg" target="_base">
           <rect id="button" ry="5" rx="5" y="6" x="6" height="38" width="38"
                fill="#f2f5e9" fill-opacity="0.5" stroke="#606060" stroke-width="1.0"/>
           <path id="arrow"
             d="M 11.500037,31.436501 C 11.940474,20.09759 22.043105,11.32322 32.158766,21.979434 L 37.068811,17.246167 C 37.068811,17.246167 37.088388,32 37.088388,32 L 22.160133,31.978069 C 22.160133,31.978069 26.997745,27.140456 26.997745,27.140456 C 18.528582,18.264221 13.291696,25.230495 11.500037,31.436501 z"
             style="fill:#404040;"/>
          </a>
         </g>
        </svg>
</svg>
