<?xml version="1.0" encoding="UTF-8" standalone="no"?>
<!DOCTYPE svg PUBLIC "-//W3C//DTD SVG 1.1//EN"
 "http://www.w3.org/Graphics/SVG/1.1/DTD/svg11.dtd">
<!-- Generated by graphviz version 2.42.3 ()
 -->
<!-- Title: simulated_connection.cc Pages: 1 -->
<svg width="1285pt" height="352pt"
 viewBox="0.00 0.00 1285.22 352.00" xmlns="http://www.w3.org/2000/svg" xmlns:xlink="http://www.w3.org/1999/xlink">
<g id="graph0" class="graph" transform="scale(1 1) rotate(0) translate(4 348)">
<title>simulated_connection.cc</title>
<polygon fill="white" stroke="transparent" points="-4,4 -4,-348 1281.22,-348 1281.22,4 -4,4"/>
<!-- Node1 -->
<g id="node1" class="node">
<title>Node1</title>
<g id="a_node1"><a xlink:title=" ">
<polygon fill="#bfbfbf" stroke="black" points="901.22,-324.5 901.22,-343.5 1025.22,-343.5 1025.22,-324.5 901.22,-324.5"/>
<text text-anchor="middle" x="963.22" y="-331.5" font-family="Helvetica,sans-Serif" font-size="10.00">simulated_connection.cc</text>
</a>
</g>
</g>
<!-- Node2 -->
<g id="node2" class="node">
<title>Node2</title>
<g id="a_node2"><a xlink:href="../../d3/ddf/simulated__connection_8h.html" target="_top" xlink:title=" ">
<polygon fill="white" stroke="black" points="285.22,-257.5 285.22,-287.5 407.22,-287.5 407.22,-257.5 285.22,-257.5"/>
<text text-anchor="start" x="293.22" y="-275.5" font-family="Helvetica,sans-Serif" font-size="10.00">automaton/core/network</text>
<text text-anchor="middle" x="346.22" y="-264.5" font-family="Helvetica,sans-Serif" font-size="10.00">/simulated_connection.h</text>
</a>
</g>
</g>
<!-- Node1&#45;&gt;Node2 -->
<g id="edge1" class="edge">
<title>Node1&#45;&gt;Node2</title>
<path fill="none" stroke="midnightblue" d="M900.95,-326.99C785.62,-315.87 539.48,-292.14 417.61,-280.38"/>
<polygon fill="midnightblue" stroke="midnightblue" points="417.92,-276.9 407.63,-279.42 417.25,-283.87 417.92,-276.9"/>
</g>
<!-- Node4 -->
<g id="node4" class="node">
<title>Node4</title>
<g id="a_node4"><a xlink:title=" ">
<polygon fill="white" stroke="#bfbfbf" points="299.72,-62 299.72,-81 350.72,-81 350.72,-62 299.72,-62"/>
<text text-anchor="middle" x="325.22" y="-69" font-family="Helvetica,sans-Serif" font-size="10.00">memory</text>
</a>
</g>
</g>
<!-- Node1&#45;&gt;Node4 -->
<g id="edge29" class="edge">
<title>Node1&#45;&gt;Node4</title>
<path fill="none" stroke="midnightblue" d="M901.21,-332.77C780.24,-331.47 504.62,-324.36 276.22,-288 157.52,-269.1 87.93,-315.93 14.22,-221 -62.36,-122.38 192.56,-85.87 289.41,-75.74"/>
<polygon fill="midnightblue" stroke="midnightblue" points="290.02,-79.19 299.62,-74.71 289.31,-72.23 290.02,-79.19"/>
</g>
<!-- Node9 -->
<g id="node9" class="node">
<title>Node9</title>
<g id="a_node9"><a xlink:title=" ">
<polygon fill="white" stroke="#bfbfbf" points="603.72,-196 603.72,-215 642.72,-215 642.72,-196 603.72,-196"/>
<text text-anchor="middle" x="623.22" y="-203" font-family="Helvetica,sans-Serif" font-size="10.00">utility</text>
</a>
</g>
</g>
<!-- Node1&#45;&gt;Node9 -->
<g id="edge33" class="edge">
<title>Node1&#45;&gt;Node9</title>
<path fill="none" stroke="midnightblue" d="M901.17,-330.96C822.95,-327.22 694.21,-316.75 657.22,-288 637.58,-272.73 629.18,-244.08 625.66,-225.14"/>
<polygon fill="midnightblue" stroke="midnightblue" points="629.08,-224.39 624.07,-215.05 622.16,-225.47 629.08,-224.39"/>
</g>
<!-- Node12 -->
<g id="node12" class="node">
<title>Node12</title>
<g id="a_node12"><a xlink:title=" ">
<polygon fill="white" stroke="#bfbfbf" points="653.72,-62 653.72,-81 688.72,-81 688.72,-62 653.72,-62"/>
<text text-anchor="middle" x="671.22" y="-69" font-family="Helvetica,sans-Serif" font-size="10.00">map</text>
</a>
</g>
</g>
<!-- Node1&#45;&gt;Node12 -->
<g id="edge28" class="edge">
<title>Node1&#45;&gt;Node12</title>
<path fill="none" stroke="midnightblue" d="M901.09,-326.07C837.65,-315.37 742.05,-288.4 695.22,-221 667.6,-181.26 667.39,-121.23 669.38,-91.12"/>
<polygon fill="midnightblue" stroke="midnightblue" points="672.87,-91.4 670.2,-81.15 665.89,-90.83 672.87,-91.4"/>
</g>
<!-- Node15 -->
<g id="node15" class="node">
<title>Node15</title>
<g id="a_node15"><a xlink:title=" ">
<polygon fill="white" stroke="#bfbfbf" points="871.22,-0.5 871.22,-19.5 925.22,-19.5 925.22,-0.5 871.22,-0.5"/>
<text text-anchor="middle" x="898.22" y="-7.5" font-family="Helvetica,sans-Serif" font-size="10.00">iostream</text>
</a>
</g>
</g>
<!-- Node1&#45;&gt;Node15 -->
<g id="edge27" class="edge">
<title>Node1&#45;&gt;Node15</title>
<path fill="none" stroke="midnightblue" d="M962.83,-324.31C962.62,-308.55 964.58,-275.21 983.22,-257 1032.57,-208.79 1091.46,-275.15 1134.22,-221 1142.76,-210.19 1140.35,-202.34 1134.22,-190 1091.04,-103.07 983.24,-47.02 929.58,-23.57"/>
<polygon fill="midnightblue" stroke="midnightblue" points="930.79,-20.28 920.22,-19.57 928.04,-26.72 930.79,-20.28"/>
</g>
<!-- Node18 -->
<g id="node18" class="node">
<title>Node18</title>
<g id="a_node18"><a xlink:title=" ">
<polygon fill="white" stroke="#bfbfbf" points="991.72,-263 991.72,-282 1036.72,-282 1036.72,-263 991.72,-263"/>
<text text-anchor="middle" x="1014.22" y="-270" font-family="Helvetica,sans-Serif" font-size="10.00">cstdlib</text>
</a>
</g>
</g>
<!-- Node1&#45;&gt;Node18 -->
<g id="edge25" class="edge">
<title>Node1&#45;&gt;Node18</title>
<path fill="none" stroke="midnightblue" d="M970.52,-324.48C978.25,-315.46 990.62,-301.02 1000.24,-289.81"/>
<polygon fill="midnightblue" stroke="midnightblue" points="1003.07,-291.88 1006.92,-282.01 997.76,-287.32 1003.07,-291.88"/>
</g>
<!-- Node19 -->
<g id="node19" class="node">
<title>Node19</title>
<g id="a_node19"><a xlink:title=" ">
<polygon fill="white" stroke="#bfbfbf" points="1055.22,-263 1055.22,-282 1101.22,-282 1101.22,-263 1055.22,-263"/>
<text text-anchor="middle" x="1078.22" y="-270" font-family="Helvetica,sans-Serif" font-size="10.00">cstring</text>
</a>
</g>
</g>
<!-- Node1&#45;&gt;Node19 -->
<g id="edge26" class="edge">
<title>Node1&#45;&gt;Node19</title>
<path fill="none" stroke="midnightblue" d="M979.69,-324.48C998.82,-314.58 1030.59,-298.14 1052.87,-286.62"/>
<polygon fill="midnightblue" stroke="midnightblue" points="1054.5,-289.71 1061.77,-282.01 1051.28,-283.5 1054.5,-289.71"/>
</g>
<!-- Node20 -->
<g id="node20" class="node">
<title>Node20</title>
<g id="a_node20"><a xlink:title=" ">
<polygon fill="white" stroke="#bfbfbf" points="1119.22,-263 1119.22,-282 1159.22,-282 1159.22,-263 1119.22,-263"/>
<text text-anchor="middle" x="1139.22" y="-270" font-family="Helvetica,sans-Serif" font-size="10.00">regex</text>
</a>
</g>
</g>
<!-- Node1&#45;&gt;Node20 -->
<g id="edge30" class="edge">
<title>Node1&#45;&gt;Node20</title>
<path fill="none" stroke="midnightblue" d="M996.75,-324.45C1026.9,-316.36 1072.18,-303.21 1110.22,-288 1111.42,-287.52 1112.65,-287.01 1113.87,-286.47"/>
<polygon fill="midnightblue" stroke="midnightblue" points="1115.61,-289.53 1123.18,-282.12 1112.64,-283.19 1115.61,-289.53"/>
</g>
<!-- Node21 -->
<g id="node21" class="node">
<title>Node21</title>
<g id="a_node21"><a xlink:title=" ">
<polygon fill="white" stroke="#bfbfbf" points="1177.22,-263 1177.22,-282 1207.22,-282 1207.22,-263 1177.22,-263"/>
<text text-anchor="middle" x="1192.22" y="-270" font-family="Helvetica,sans-Serif" font-size="10.00">set</text>
</a>
</g>
</g>
<!-- Node1&#45;&gt;Node21 -->
<g id="edge31" class="edge">
<title>Node1&#45;&gt;Node21</title>
<path fill="none" stroke="midnightblue" d="M1025.33,-324.79C1066.81,-318.01 1122.02,-306.44 1168.22,-288 1168.93,-287.72 1169.64,-287.41 1170.36,-287.09"/>
<polygon fill="midnightblue" stroke="midnightblue" points="1172.22,-290.07 1179.42,-282.29 1168.94,-283.88 1172.22,-290.07"/>
</g>
<!-- Node22 -->
<g id="node22" class="node">
<title>Node22</title>
<g id="a_node22"><a xlink:title=" ">
<polygon fill="white" stroke="#bfbfbf" points="1225.22,-263 1225.22,-282 1277.22,-282 1277.22,-263 1225.22,-263"/>
<text text-anchor="middle" x="1251.22" y="-270" font-family="Helvetica,sans-Serif" font-size="10.00">sstream</text>
</a>
</g>
</g>
<!-- Node1&#45;&gt;Node22 -->
<g id="edge32" class="edge">
<title>Node1&#45;&gt;Node22</title>
<path fill="none" stroke="midnightblue" d="M1025.43,-325.76C1077.18,-318.84 1152.41,-306.65 1216.22,-288 1218.51,-287.33 1220.85,-286.56 1223.19,-285.73"/>
<polygon fill="midnightblue" stroke="midnightblue" points="1224.53,-288.96 1232.6,-282.09 1222.01,-282.43 1224.53,-288.96"/>
</g>
<!-- Node23 -->
<g id="node23" class="node">
<title>Node23</title>
<g id="a_node23"><a xlink:href="../../dc/dac/io_8h.html" target="_top" xlink:title=" ">
<polygon fill="white" stroke="black" points="821.72,-263 821.72,-282 934.72,-282 934.72,-263 821.72,-263"/>
<text text-anchor="middle" x="878.22" y="-270" font-family="Helvetica,sans-Serif" font-size="10.00">automaton/core/io/io.h</text>
</a>
</g>
</g>
<!-- Node1&#45;&gt;Node23 -->
<g id="edge34" class="edge">
<title>Node1&#45;&gt;Node23</title>
<path fill="none" stroke="midnightblue" d="M951.04,-324.48C937.41,-314.93 915.08,-299.31 898.74,-287.87"/>
<polygon fill="midnightblue" stroke="midnightblue" points="900.57,-284.88 890.37,-282.01 896.56,-290.61 900.57,-284.88"/>
</g>
<!-- Node3 -->
<g id="node3" class="node">
<title>Node3</title>
<g id="a_node3"><a xlink:title=" ">
<polygon fill="white" stroke="#bfbfbf" points="23.72,-196 23.72,-215 82.72,-215 82.72,-196 23.72,-196"/>
<text text-anchor="middle" x="53.22" y="-203" font-family="Helvetica,sans-Serif" font-size="10.00">functional</text>
</a>
</g>
</g>
<!-- Node2&#45;&gt;Node3 -->
<g id="edge2" class="edge">
<title>Node2&#45;&gt;Node3</title>
<path fill="none" stroke="midnightblue" d="M284.99,-262.36C232.9,-253.88 156.38,-239.74 91.22,-221 88.63,-220.26 85.98,-219.41 83.33,-218.52"/>
<polygon fill="midnightblue" stroke="midnightblue" points="84.5,-215.22 73.91,-215.12 82.13,-221.81 84.5,-215.22"/>
</g>
<!-- Node2&#45;&gt;Node4 -->
<g id="edge3" class="edge">
<title>Node2&#45;&gt;Node4</title>
<path fill="none" stroke="midnightblue" d="M357.76,-257.49C364.9,-247.88 373.41,-234.46 377.22,-221 380.96,-207.74 381.46,-203.11 377.22,-190 371.14,-171.22 360.11,-171.62 351.22,-154 340.9,-133.55 333.58,-108.16 329.39,-91.21"/>
<polygon fill="midnightblue" stroke="midnightblue" points="332.78,-90.35 327.08,-81.42 325.97,-91.96 332.78,-90.35"/>
</g>
<!-- Node5 -->
<g id="node5" class="node">
<title>Node5</title>
<g id="a_node5"><a xlink:title=" ">
<polygon fill="white" stroke="#bfbfbf" points="100.72,-196 100.72,-215 143.72,-215 143.72,-196 100.72,-196"/>
<text text-anchor="middle" x="122.22" y="-203" font-family="Helvetica,sans-Serif" font-size="10.00">mutex</text>
</a>
</g>
</g>
<!-- Node2&#45;&gt;Node5 -->
<g id="edge4" class="edge">
<title>Node2&#45;&gt;Node5</title>
<path fill="none" stroke="midnightblue" d="M284.98,-258.79C246.33,-249.98 195.66,-236.98 152.22,-221 150.79,-220.48 149.34,-219.91 147.89,-219.31"/>
<polygon fill="midnightblue" stroke="midnightblue" points="149.03,-215.98 138.47,-215.07 146.15,-222.36 149.03,-215.98"/>
</g>
<!-- Node6 -->
<g id="node6" class="node">
<title>Node6</title>
<g id="a_node6"><a xlink:title=" ">
<polygon fill="white" stroke="#bfbfbf" points="161.72,-196 161.72,-215 204.72,-215 204.72,-196 161.72,-196"/>
<text text-anchor="middle" x="183.22" y="-203" font-family="Helvetica,sans-Serif" font-size="10.00">queue</text>
</a>
</g>
</g>
<!-- Node2&#45;&gt;Node6 -->
<g id="edge5" class="edge">
<title>Node2&#45;&gt;Node6</title>
<path fill="none" stroke="midnightblue" d="M306.57,-257.48C279.94,-247.8 244.18,-234.33 213.22,-221 212.02,-220.49 210.8,-219.95 209.58,-219.4"/>
<polygon fill="midnightblue" stroke="midnightblue" points="210.77,-216.09 200.23,-215.04 207.82,-222.44 210.77,-216.09"/>
</g>
<!-- Node7 -->
<g id="node7" class="node">
<title>Node7</title>
<g id="a_node7"><a xlink:title=" ">
<polygon fill="white" stroke="#bfbfbf" points="400.72,-0.5 400.72,-19.5 441.72,-19.5 441.72,-0.5 400.72,-0.5"/>
<text text-anchor="middle" x="421.22" y="-7.5" font-family="Helvetica,sans-Serif" font-size="10.00">string</text>
</a>
</g>
</g>
<!-- Node2&#45;&gt;Node7 -->
<g id="edge6" class="edge">
<title>Node2&#45;&gt;Node7</title>
<path fill="none" stroke="midnightblue" d="M285.21,-271.32C199.08,-269.62 48.46,-260.85 14.22,-221 5.24,-210.55 6.91,-201.68 14.22,-190 98.53,-55.34 310.35,-21.51 390.15,-13.41"/>
<polygon fill="midnightblue" stroke="midnightblue" points="390.88,-16.86 400.51,-12.44 390.22,-9.89 390.88,-16.86"/>
</g>
<!-- Node8 -->
<g id="node8" class="node">
<title>Node8</title>
<g id="a_node8"><a xlink:title=" ">
<polygon fill="white" stroke="#bfbfbf" points="222.72,-196 222.72,-215 305.72,-215 305.72,-196 222.72,-196"/>
<text text-anchor="middle" x="264.22" y="-203" font-family="Helvetica,sans-Serif" font-size="10.00">unordered_map</text>
</a>
</g>
</g>
<!-- Node2&#45;&gt;Node8 -->
<g id="edge7" class="edge">
<title>Node2&#45;&gt;Node8</title>
<path fill="none" stroke="midnightblue" d="M328.42,-257.4C315.13,-246.86 296.99,-232.48 283.38,-221.69"/>
<polygon fill="midnightblue" stroke="midnightblue" points="285.2,-218.66 275.19,-215.19 280.85,-224.15 285.2,-218.66"/>
</g>
<!-- Node2&#45;&gt;Node9 -->
<g id="edge8" class="edge">
<title>Node2&#45;&gt;Node9</title>
<path fill="none" stroke="midnightblue" d="M407.43,-261.99C456.84,-253.54 527.83,-239.63 588.22,-221 590.36,-220.34 592.56,-219.6 594.75,-218.8"/>
<polygon fill="midnightblue" stroke="midnightblue" points="596.14,-222.02 604.2,-215.14 593.61,-215.49 596.14,-222.02"/>
</g>
<!-- Node10 -->
<g id="node10" class="node">
<title>Node10</title>
<g id="a_node10"><a xlink:title=" ">
<polygon fill="white" stroke="#bfbfbf" points="324.22,-196 324.22,-215 368.22,-215 368.22,-196 324.22,-196"/>
<text text-anchor="middle" x="346.22" y="-203" font-family="Helvetica,sans-Serif" font-size="10.00">vector</text>
</a>
</g>
</g>
<!-- Node2&#45;&gt;Node10 -->
<g id="edge9" class="edge">
<title>Node2&#45;&gt;Node10</title>
<path fill="none" stroke="midnightblue" d="M346.22,-257.4C346.22,-248.06 346.22,-235.71 346.22,-225.52"/>
<polygon fill="midnightblue" stroke="midnightblue" points="349.72,-225.19 346.22,-215.19 342.72,-225.19 349.72,-225.19"/>
</g>
<!-- Node11 -->
<g id="node11" class="node">
<title>Node11</title>
<g id="a_node11"><a xlink:href="../../d1/d31/acceptor_8h.html" target="_top" xlink:title=" ">
<polygon fill="white" stroke="black" points="424.22,-190.5 424.22,-220.5 546.22,-220.5 546.22,-190.5 424.22,-190.5"/>
<text text-anchor="start" x="432.22" y="-208.5" font-family="Helvetica,sans-Serif" font-size="10.00">automaton/core/network</text>
<text text-anchor="middle" x="485.22" y="-197.5" font-family="Helvetica,sans-Serif" font-size="10.00">/acceptor.h</text>
</a>
</g>
</g>
<!-- Node2&#45;&gt;Node11 -->
<g id="edge10" class="edge">
<title>Node2&#45;&gt;Node11</title>
<path fill="none" stroke="midnightblue" d="M376.38,-257.4C396.78,-247.86 423.92,-235.16 446,-224.84"/>
<polygon fill="midnightblue" stroke="midnightblue" points="447.54,-227.98 455.12,-220.58 444.57,-221.64 447.54,-227.98"/>
</g>
<!-- Node16 -->
<g id="node16" class="node">
<title>Node16</title>
<g id="a_node16"><a xlink:href="../../d4/d67/connection_8h.html" target="_top" xlink:title=" ">
<polygon fill="white" stroke="black" points="424.22,-123.5 424.22,-153.5 546.22,-153.5 546.22,-123.5 424.22,-123.5"/>
<text text-anchor="start" x="432.22" y="-141.5" font-family="Helvetica,sans-Serif" font-size="10.00">automaton/core/network</text>
<text text-anchor="middle" x="485.22" y="-130.5" font-family="Helvetica,sans-Serif" font-size="10.00">/connection.h</text>
</a>
</g>
</g>
<!-- Node2&#45;&gt;Node16 -->
<g id="edge24" class="edge">
<title>Node2&#45;&gt;Node16</title>
<path fill="none" stroke="midnightblue" d="M407.42,-265.05C462.35,-257.85 537.06,-244.06 555.22,-221 572.35,-199.24 546.05,-175.3 520.95,-159.03"/>
<polygon fill="midnightblue" stroke="midnightblue" points="522.54,-155.9 512.19,-153.62 518.85,-161.85 522.54,-155.9"/>
</g>
<!-- Node11&#45;&gt;Node4 -->
<g id="edge12" class="edge">
<title>Node11&#45;&gt;Node4</title>
<path fill="none" stroke="midnightblue" d="M445.27,-190.47C424.93,-182.01 400.67,-169.8 382.22,-154 361.07,-135.89 343.95,-108.26 334.17,-90.29"/>
<polygon fill="midnightblue" stroke="midnightblue" points="337.15,-88.42 329.4,-81.19 330.95,-91.67 337.15,-88.42"/>
</g>
<!-- Node11&#45;&gt;Node7 -->
<g id="edge13" class="edge">
<title>Node11&#45;&gt;Node7</title>
<path fill="none" stroke="midnightblue" d="M453.88,-190.44C439.3,-182.11 423.41,-170.01 415.22,-154 394.53,-113.58 406.44,-58 414.94,-29.5"/>
<polygon fill="midnightblue" stroke="midnightblue" points="418.37,-30.27 418.07,-19.68 411.7,-28.15 418.37,-30.27"/>
</g>
<!-- Node11&#45;&gt;Node12 -->
<g id="edge11" class="edge">
<title>Node11&#45;&gt;Node12</title>
<path fill="none" stroke="midnightblue" d="M513.98,-190.45C532.34,-181.02 556.34,-167.83 576.22,-154 605.76,-133.44 636.84,-105.37 655.11,-88.11"/>
<polygon fill="midnightblue" stroke="midnightblue" points="657.73,-90.45 662.54,-81.01 652.89,-85.39 657.73,-90.45"/>
</g>
<!-- Node13 -->
<g id="node13" class="node">
<title>Node13</title>
<g id="a_node13"><a xlink:href="../../d1/d13/status_8h.html" target="_top" xlink:title=" ">
<polygon fill="white" stroke="black" points="510.72,-56.5 510.72,-86.5 635.72,-86.5 635.72,-56.5 510.72,-56.5"/>
<text text-anchor="start" x="518.72" y="-74.5" font-family="Helvetica,sans-Serif" font-size="10.00">automaton/core/common</text>
<text text-anchor="middle" x="573.22" y="-63.5" font-family="Helvetica,sans-Serif" font-size="10.00">/status.h</text>
</a>
</g>
</g>
<!-- Node11&#45;&gt;Node13 -->
<g id="edge14" class="edge">
<title>Node11&#45;&gt;Node13</title>
<path fill="none" stroke="midnightblue" d="M513.72,-190.45C528.27,-181.86 545.01,-169.53 555.22,-154 566.38,-137.02 570.72,-114.17 572.35,-96.99"/>
<polygon fill="midnightblue" stroke="midnightblue" points="575.87,-96.86 573.08,-86.64 568.89,-96.37 575.87,-96.86"/>
</g>
<!-- Node11&#45;&gt;Node16 -->
<g id="edge18" class="edge">
<title>Node11&#45;&gt;Node16</title>
<path fill="none" stroke="midnightblue" d="M485.22,-190.4C485.22,-182.64 485.22,-172.81 485.22,-163.86"/>
<polygon fill="midnightblue" stroke="midnightblue" points="488.72,-163.58 485.22,-153.58 481.72,-163.58 488.72,-163.58"/>
</g>
<!-- Node13&#45;&gt;Node7 -->
<g id="edge16" class="edge">
<title>Node13&#45;&gt;Node7</title>
<path fill="none" stroke="midnightblue" d="M537.2,-56.4C511.12,-46.19 476.26,-32.54 451.58,-22.89"/>
<polygon fill="midnightblue" stroke="midnightblue" points="452.6,-19.53 442.02,-19.14 450.05,-26.05 452.6,-19.53"/>
</g>
<!-- Node14 -->
<g id="node14" class="node">
<title>Node14</title>
<g id="a_node14"><a xlink:title=" ">
<polygon fill="white" stroke="#bfbfbf" points="547.22,-0.5 547.22,-19.5 599.22,-19.5 599.22,-0.5 547.22,-0.5"/>
<text text-anchor="middle" x="573.22" y="-7.5" font-family="Helvetica,sans-Serif" font-size="10.00">ostream</text>
</a>
</g>
</g>
<!-- Node13&#45;&gt;Node14 -->
<g id="edge15" class="edge">
<title>Node13&#45;&gt;Node14</title>
<path fill="none" stroke="midnightblue" d="M573.22,-56.4C573.22,-48.47 573.22,-38.46 573.22,-29.86"/>
<polygon fill="midnightblue" stroke="midnightblue" points="576.72,-29.66 573.22,-19.66 569.72,-29.66 576.72,-29.66"/>
</g>
<!-- Node13&#45;&gt;Node15 -->
<g id="edge17" class="edge">
<title>Node13&#45;&gt;Node15</title>
<path fill="none" stroke="midnightblue" d="M635.92,-57.6C638.72,-57.05 641.5,-56.52 644.22,-56 721.22,-41.32 811.68,-25.67 861.19,-17.25"/>
<polygon fill="midnightblue" stroke="midnightblue" points="861.84,-20.69 871.11,-15.56 860.66,-13.79 861.84,-20.69"/>
</g>
<!-- Node16&#45;&gt;Node4 -->
<g id="edge20" class="edge">
<title>Node16&#45;&gt;Node4</title>
<path fill="none" stroke="midnightblue" d="M450.5,-123.4C422.18,-111.89 382.56,-95.8 355.51,-84.81"/>
<polygon fill="midnightblue" stroke="midnightblue" points="356.74,-81.53 346.16,-81.01 354.1,-88.01 356.74,-81.53"/>
</g>
<!-- Node16&#45;&gt;Node7 -->
<g id="edge21" class="edge">
<title>Node16&#45;&gt;Node7</title>
<path fill="none" stroke="midnightblue" d="M468.87,-123.08C459.2,-113.7 447.46,-100.7 440.22,-87 430.7,-69 425.82,-46.07 423.4,-30.13"/>
<polygon fill="midnightblue" stroke="midnightblue" points="426.83,-29.38 422.05,-19.92 419.89,-30.3 426.83,-29.38"/>
</g>
<!-- Node16&#45;&gt;Node12 -->
<g id="edge19" class="edge">
<title>Node16&#45;&gt;Node12</title>
<path fill="none" stroke="midnightblue" d="M538.02,-123.4C569.39,-114.36 609.67,-101.61 644.22,-87 645.22,-86.58 646.24,-86.13 647.26,-85.66"/>
<polygon fill="midnightblue" stroke="midnightblue" points="648.94,-88.73 656.32,-81.13 645.81,-82.47 648.94,-88.73"/>
</g>
<!-- Node16&#45;&gt;Node13 -->
<g id="edge23" class="edge">
<title>Node16&#45;&gt;Node13</title>
<path fill="none" stroke="midnightblue" d="M504.31,-123.4C516.54,-114.37 532.58,-102.51 546.12,-92.52"/>
<polygon fill="midnightblue" stroke="midnightblue" points="548.2,-95.33 554.16,-86.58 544.04,-89.7 548.2,-95.33"/>
</g>
<!-- Node17 -->
<g id="node17" class="node">
<title>Node17</title>
<g id="a_node17"><a xlink:title=" ">
<polygon fill="white" stroke="#bfbfbf" points="449.22,-62 449.22,-81 493.22,-81 493.22,-62 449.22,-62"/>
<text text-anchor="middle" x="471.22" y="-69" font-family="Helvetica,sans-Serif" font-size="10.00">thread</text>
</a>
</g>
</g>
<!-- Node16&#45;&gt;Node17 -->
<g id="edge22" class="edge">
<title>Node16&#45;&gt;Node17</title>
<path fill="none" stroke="midnightblue" d="M482.18,-123.4C480.15,-113.96 477.45,-101.45 475.24,-91.19"/>
<polygon fill="midnightblue" stroke="midnightblue" points="478.62,-90.23 473.09,-81.19 471.77,-91.71 478.62,-90.23"/>
</g>
<!-- Node23&#45;&gt;Node7 -->
<g id="edge36" class="edge">
<title>Node23&#45;&gt;Node7</title>
<path fill="none" stroke="midnightblue" d="M821.64,-266.36C789.68,-260.46 751.57,-247.85 728.22,-221 679.25,-164.7 750.61,-108.12 697.22,-56 679.82,-39.02 520.71,-21.06 452.27,-14.05"/>
<polygon fill="midnightblue" stroke="midnightblue" points="452.41,-10.55 442.1,-13.02 451.7,-17.51 452.41,-10.55"/>
</g>
<!-- Node24 -->
<g id="node24" class="node">
<title>Node24</title>
<g id="a_node24"><a xlink:title=" ">
<polygon fill="white" stroke="#bfbfbf" points="855.22,-196 855.22,-215 901.22,-215 901.22,-196 855.22,-196"/>
<text text-anchor="middle" x="878.22" y="-203" font-family="Helvetica,sans-Serif" font-size="10.00">chrono</text>
</a>
</g>
</g>
<!-- Node23&#45;&gt;Node24 -->
<g id="edge35" class="edge">
<title>Node23&#45;&gt;Node24</title>
<path fill="none" stroke="midnightblue" d="M878.22,-262.73C878.22,-253.18 878.22,-237.62 878.22,-225.28"/>
<polygon fill="midnightblue" stroke="midnightblue" points="881.72,-225.13 878.22,-215.13 874.72,-225.13 881.72,-225.13"/>
</g>
<!-- Node25 -->
<g id="node25" class="node">
<title>Node25</title>
<g id="a_node25"><a xlink:title=" ">
<polygon fill="white" stroke="#bfbfbf" points="919.22,-196 919.22,-215 1003.22,-215 1003.22,-196 919.22,-196"/>
<text text-anchor="middle" x="961.22" y="-203" font-family="Helvetica,sans-Serif" font-size="10.00">g3log/g3log.hpp</text>
</a>
</g>
</g>
<!-- Node23&#45;&gt;Node25 -->
<g id="edge37" class="edge">
<title>Node23&#45;&gt;Node25</title>
<path fill="none" stroke="midnightblue" d="M889.41,-262.73C902.85,-252.21 925.62,-234.38 941.91,-221.62"/>
<polygon fill="midnightblue" stroke="midnightblue" points="944.49,-224.05 950.2,-215.13 940.17,-218.54 944.49,-224.05"/>
</g>
<!-- Node26 -->
<g id="node26" class="node">
<title>Node26</title>
<g id="a_node26"><a xlink:title=" ">
<polygon fill="white" stroke="#bfbfbf" points="1021.72,-196 1021.72,-215 1124.72,-215 1124.72,-196 1021.72,-196"/>
<text text-anchor="middle" x="1073.22" y="-203" font-family="Helvetica,sans-Serif" font-size="10.00">g3log/logworker.hpp</text>
</a>
</g>
</g>
<!-- Node23&#45;&gt;Node26 -->
<g id="edge38" class="edge">
<title>Node23&#45;&gt;Node26</title>
<path fill="none" stroke="midnightblue" d="M904.11,-262.87C938.44,-251.42 999.18,-231.18 1037.75,-218.32"/>
<polygon fill="midnightblue" stroke="midnightblue" points="1039.15,-221.55 1047.53,-215.06 1036.93,-214.91 1039.15,-221.55"/>
</g>
<!-- Node27 -->
<g id="node27" class="node">
<title>Node27</title>
<g id="a_node27"><a xlink:title=" ">
<polygon fill="white" stroke="#bfbfbf" points="737.72,-196 737.72,-215 836.72,-215 836.72,-196 737.72,-196"/>
<text text-anchor="middle" x="787.22" y="-203" font-family="Helvetica,sans-Serif" font-size="10.00">g3log/loglevels.hpp</text>
</a>
</g>
</g>
<!-- Node23&#45;&gt;Node27 -->
<g id="edge39" class="edge">
<title>Node23&#45;&gt;Node27</title>
<path fill="none" stroke="midnightblue" d="M865.94,-262.73C851.07,-252.11 825.79,-234.05 807.89,-221.26"/>
<polygon fill="midnightblue" stroke="midnightblue" points="809.47,-218.09 799.3,-215.13 805.4,-223.79 809.47,-218.09"/>
</g>
</g>
</svg>
