<?xml version="1.0" encoding="UTF-8" standalone="no"?>
<!DOCTYPE svg PUBLIC "-//W3C//DTD SVG 1.1//EN"
 "http://www.w3.org/Graphics/SVG/1.1/DTD/svg11.dtd">
<!-- Generated by graphviz version 2.42.3 ()
 -->
<!-- Title: automaton::core::cli::cli::cli Pages: 1 -->
<svg width="244pt" height="137pt"
 viewBox="0.00 0.00 244.00 137.00" xmlns="http://www.w3.org/2000/svg" xmlns:xlink="http://www.w3.org/1999/xlink">
<g id="graph0" class="graph" transform="scale(1 1) rotate(0) translate(4 133)">
<title>automaton::core::cli::cli::cli</title>
<polygon fill="white" stroke="transparent" points="-4,4 -4,-133 240,-133 240,4 -4,4"/>
<!-- Node1 -->
<g id="node1" class="node">
<title>Node1</title>
<g id="a_node1"><a xlink:title=" ">
<polygon fill="#bfbfbf" stroke="black" points="0,-49.5 0,-79.5 100,-79.5 100,-49.5 0,-49.5"/>
<text text-anchor="start" x="8" y="-67.5" font-family="Helvetica,sans-Serif" font-size="10.00">automaton::core::cli</text>
<text text-anchor="middle" x="50" y="-56.5" font-family="Helvetica,sans-Serif" font-size="10.00">::cli::cli</text>
</a>
</g>
</g>
<!-- Node2 -->
<g id="node2" class="node">
<title>Node2</title>
<g id="a_node2"><a xlink:href="../../dd/d46/namespaceautomaton_1_1core_1_1cli.html#a3cf2e101dd7ca17bb33080cb25af842d" target="_top" xlink:title=" ">
<polygon fill="white" stroke="black" points="136,-98.5 136,-128.5 236,-128.5 236,-98.5 136,-98.5"/>
<text text-anchor="start" x="144" y="-116.5" font-family="Helvetica,sans-Serif" font-size="10.00">automaton::core::cli</text>
<text text-anchor="middle" x="186" y="-105.5" font-family="Helvetica,sans-Serif" font-size="10.00">::hook_color</text>
</a>
</g>
</g>
<!-- Node1&#45;&gt;Node2 -->
<g id="edge1" class="edge">
<title>Node1&#45;&gt;Node2</title>
<path fill="none" stroke="midnightblue" d="M92.3,-79.6C105.54,-84.45 120.37,-89.87 134.21,-94.93"/>
<polygon fill="midnightblue" stroke="midnightblue" points="133.01,-98.22 143.61,-98.36 135.42,-91.64 133.01,-98.22"/>
</g>
<!-- Node3 -->
<g id="node3" class="node">
<title>Node3</title>
<g id="a_node3"><a xlink:href="../../dd/d46/namespaceautomaton_1_1core_1_1cli.html#ab9da9d88cd2e354bf0775c5fb7d2aab8" target="_top" xlink:title=" ">
<polygon fill="white" stroke="black" points="136,-49.5 136,-79.5 236,-79.5 236,-49.5 136,-49.5"/>
<text text-anchor="start" x="144" y="-67.5" font-family="Helvetica,sans-Serif" font-size="10.00">automaton::core::cli</text>
<text text-anchor="middle" x="186" y="-56.5" font-family="Helvetica,sans-Serif" font-size="10.00">::hook_completion</text>
</a>
</g>
</g>
<!-- Node1&#45;&gt;Node3 -->
<g id="edge2" class="edge">
<title>Node1&#45;&gt;Node3</title>
<path fill="none" stroke="midnightblue" d="M100.14,-64.5C108.42,-64.5 117.1,-64.5 125.61,-64.5"/>
<polygon fill="midnightblue" stroke="midnightblue" points="125.87,-68 135.87,-64.5 125.87,-61 125.87,-68"/>
</g>
<!-- Node4 -->
<g id="node4" class="node">
<title>Node4</title>
<g id="a_node4"><a xlink:href="../../dd/d46/namespaceautomaton_1_1core_1_1cli.html#a39313ae0b3edfd4ba3b2072ce8c9a0b8" target="_top" xlink:title=" ">
<polygon fill="white" stroke="black" points="136,-0.5 136,-30.5 236,-30.5 236,-0.5 136,-0.5"/>
<text text-anchor="start" x="144" y="-18.5" font-family="Helvetica,sans-Serif" font-size="10.00">automaton::core::cli</text>
<text text-anchor="middle" x="186" y="-7.5" font-family="Helvetica,sans-Serif" font-size="10.00">::hook_hint</text>
</a>
</g>
</g>
<!-- Node1&#45;&gt;Node4 -->
<g id="edge3" class="edge">
<title>Node1&#45;&gt;Node4</title>
<path fill="none" stroke="midnightblue" d="M92.3,-49.4C105.54,-44.55 120.37,-39.13 134.21,-34.07"/>
<polygon fill="midnightblue" stroke="midnightblue" points="135.42,-37.36 143.61,-30.64 133.01,-30.78 135.42,-37.36"/>
</g>
</g>
</svg>
