<?xml version="1.0" encoding="UTF-8" standalone="no"?>
<!DOCTYPE svg PUBLIC "-//W3C//DTD SVG 1.1//EN"
 "http://www.w3.org/Graphics/SVG/1.1/DTD/svg11.dtd">
<!-- Generated by graphviz version 2.42.3 ()
 -->
<!-- Title: main Pages: 1 -->
<svg width="600pt" height="1494pt"
 viewBox="0.00 0.00 600.00 1494.00" xmlns="http://www.w3.org/2000/svg" xmlns:xlink="http://www.w3.org/1999/xlink">
<g id="graph0" class="graph" transform="scale(1 1) rotate(0) translate(4 1490)">
<title>main</title>
<polygon fill="white" stroke="transparent" points="-4,4 -4,-1490 596,-1490 596,4 -4,4"/>
<!-- Node1 -->
<g id="node1" class="node">
<title>Node1</title>
<g id="a_node1"><a xlink:title=" ">
<polygon fill="#bfbfbf" stroke="black" points="0,-569 0,-588 38,-588 38,-569 0,-569"/>
<text text-anchor="middle" x="19" y="-576" font-family="Helvetica,sans-Serif" font-size="10.00">main</text>
</a>
</g>
</g>
<!-- Node2 -->
<g id="node2" class="node">
<title>Node2</title>
<g id="a_node2"><a xlink:href="../../d0/d66/classautomaton_1_1core_1_1script_1_1engine.html#a530ebf5615f9b5fe50c52ead2afe9677" target="_top" xlink:title=" ">
<polygon fill="white" stroke="black" points="86.5,-1127.5 86.5,-1157.5 200.5,-1157.5 200.5,-1127.5 86.5,-1127.5"/>
<text text-anchor="start" x="94.5" y="-1145.5" font-family="Helvetica,sans-Serif" font-size="10.00">automaton::core::script</text>
<text text-anchor="middle" x="143.5" y="-1134.5" font-family="Helvetica,sans-Serif" font-size="10.00">::engine::bind_core</text>
</a>
</g>
</g>
<!-- Node1&#45;&gt;Node2 -->
<g id="edge1" class="edge">
<title>Node1&#45;&gt;Node2</title>
<path fill="none" stroke="midnightblue" d="M20.36,-588.37C22.95,-658.1 39.84,-1075.09 74,-1118.5 75.29,-1120.13 76.69,-1121.66 78.19,-1123.08"/>
<polygon fill="midnightblue" stroke="midnightblue" points="76.35,-1126.07 86.43,-1129.35 80.59,-1120.5 76.35,-1126.07"/>
</g>
<!-- Node41 -->
<g id="node20" class="node">
<title>Node41</title>
<g id="a_node20"><a xlink:href="../../da/d77/classautomaton_1_1core_1_1node_1_1node.html#a0c6c5c4656130dbadbb2fbb42e3c68ee" target="_top" xlink:title=" ">
<polygon fill="white" stroke="black" points="88,-1078.5 88,-1108.5 199,-1108.5 199,-1078.5 88,-1078.5"/>
<text text-anchor="start" x="96" y="-1096.5" font-family="Helvetica,sans-Serif" font-size="10.00">automaton::core::node</text>
<text text-anchor="middle" x="143.5" y="-1085.5" font-family="Helvetica,sans-Serif" font-size="10.00">::node::get_acceptor</text>
</a>
</g>
</g>
<!-- Node1&#45;&gt;Node41 -->
<g id="edge19" class="edge">
<title>Node1&#45;&gt;Node41</title>
<path fill="none" stroke="midnightblue" d="M20.46,-588.3C23.6,-654.13 42.85,-1030.31 74,-1069.5 75.65,-1071.57 77.48,-1073.46 79.47,-1075.19"/>
<polygon fill="midnightblue" stroke="midnightblue" points="77.6,-1078.16 87.78,-1081.09 81.65,-1072.45 77.6,-1078.16"/>
</g>
<!-- Node42 -->
<g id="node21" class="node">
<title>Node42</title>
<g id="a_node21"><a xlink:href="../../db/d4c/classautomaton_1_1core_1_1network_1_1acceptor.html#a4318196efe54fe48e0acbdb7fef07430" target="_top" xlink:title=" ">
<polygon fill="white" stroke="black" points="81,-1029.5 81,-1059.5 206,-1059.5 206,-1029.5 81,-1029.5"/>
<text text-anchor="start" x="89" y="-1047.5" font-family="Helvetica,sans-Serif" font-size="10.00">automaton::core::network</text>
<text text-anchor="middle" x="143.5" y="-1036.5" font-family="Helvetica,sans-Serif" font-size="10.00">::acceptor::get_address</text>
</a>
</g>
</g>
<!-- Node1&#45;&gt;Node42 -->
<g id="edge20" class="edge">
<title>Node1&#45;&gt;Node42</title>
<path fill="none" stroke="midnightblue" d="M19.84,-588.33C19.1,-647.03 18.02,-950.94 74,-1020.5 74.6,-1021.25 75.23,-1021.98 75.89,-1022.69"/>
<polygon fill="midnightblue" stroke="midnightblue" points="73.82,-1025.52 83.67,-1029.4 78.39,-1020.22 73.82,-1025.52"/>
</g>
<!-- Node43 -->
<g id="node22" class="node">
<title>Node43</title>
<g id="a_node22"><a xlink:href="../../da/dd5/namespaceautomaton_1_1core_1_1io.html#ad9c8bfce502db2612ac8dd9ad1dd60cd" target="_top" xlink:title=" ">
<polygon fill="white" stroke="black" points="94.5,-980.5 94.5,-1010.5 192.5,-1010.5 192.5,-980.5 94.5,-980.5"/>
<text text-anchor="start" x="102.5" y="-998.5" font-family="Helvetica,sans-Serif" font-size="10.00">automaton::core::io</text>
<text text-anchor="middle" x="143.5" y="-987.5" font-family="Helvetica,sans-Serif" font-size="10.00">::get_file_contents</text>
</a>
</g>
</g>
<!-- Node1&#45;&gt;Node43 -->
<g id="edge21" class="edge">
<title>Node1&#45;&gt;Node43</title>
<path fill="none" stroke="midnightblue" d="M20.01,-588.29C20.25,-642.98 23.99,-910.31 74,-971.5 77.17,-975.38 81.01,-978.64 85.24,-981.37"/>
<polygon fill="midnightblue" stroke="midnightblue" points="83.89,-984.61 94.36,-986.26 87.2,-978.45 83.89,-984.61"/>
</g>
<!-- Node44 -->
<g id="node23" class="node">
<title>Node44</title>
<g id="a_node23"><a xlink:href="../../da/d77/classautomaton_1_1core_1_1node_1_1node.html#a97048e4d8665dd38f9a392de26160a0e" target="_top" xlink:title=" ">
<polygon fill="white" stroke="black" points="88,-931.5 88,-961.5 199,-961.5 199,-931.5 88,-931.5"/>
<text text-anchor="start" x="96" y="-949.5" font-family="Helvetica,sans-Serif" font-size="10.00">automaton::core::node</text>
<text text-anchor="middle" x="143.5" y="-938.5" font-family="Helvetica,sans-Serif" font-size="10.00">::node::get_peer_info</text>
</a>
</g>
</g>
<!-- Node1&#45;&gt;Node44 -->
<g id="edge22" class="edge">
<title>Node1&#45;&gt;Node44</title>
<path fill="none" stroke="midnightblue" d="M20.21,-588.05C21.52,-638.05 29.88,-869.56 74,-922.5 75.69,-924.53 77.57,-926.39 79.59,-928.1"/>
<polygon fill="midnightblue" stroke="midnightblue" points="77.78,-931.1 87.99,-933.92 81.76,-925.35 77.78,-931.1"/>
</g>
<!-- Node45 -->
<g id="node24" class="node">
<title>Node45</title>
<g id="a_node24"><a xlink:href="../../d7/ded/classautomaton_1_1core_1_1network_1_1simulation.html#ad00c2b3b98e9eb6b251f39549d46baf4" target="_top" xlink:title=" ">
<polygon fill="white" stroke="black" points="79.5,-882.5 79.5,-912.5 207.5,-912.5 207.5,-882.5 79.5,-882.5"/>
<text text-anchor="start" x="87.5" y="-900.5" font-family="Helvetica,sans-Serif" font-size="10.00">automaton::core::network</text>
<text text-anchor="middle" x="143.5" y="-889.5" font-family="Helvetica,sans-Serif" font-size="10.00">::simulation::get_simulator</text>
</a>
</g>
</g>
<!-- Node1&#45;&gt;Node45 -->
<g id="edge23" class="edge">
<title>Node1&#45;&gt;Node45</title>
<path fill="none" stroke="midnightblue" d="M20.49,-588.16C23.01,-633.97 35.85,-828.88 74,-873.5 74.74,-874.36 75.51,-875.19 76.31,-875.99"/>
<polygon fill="midnightblue" stroke="midnightblue" points="74.25,-878.83 84.21,-882.43 78.67,-873.4 74.25,-878.83"/>
</g>
<!-- Node46 -->
<g id="node25" class="node">
<title>Node46</title>
<g id="a_node25"><a xlink:href="../../d4/d6e/classautomaton_1_1core_1_1cli_1_1cli.html#ad44d8ea274d8f0d00c4f55e1a42d9874" target="_top" xlink:title=" ">
<polygon fill="white" stroke="black" points="93.5,-833.5 93.5,-863.5 193.5,-863.5 193.5,-833.5 93.5,-833.5"/>
<text text-anchor="start" x="101.5" y="-851.5" font-family="Helvetica,sans-Serif" font-size="10.00">automaton::core::cli</text>
<text text-anchor="middle" x="143.5" y="-840.5" font-family="Helvetica,sans-Serif" font-size="10.00">::cli::hints_add</text>
</a>
</g>
</g>
<!-- Node1&#45;&gt;Node46 -->
<g id="edge24" class="edge">
<title>Node1&#45;&gt;Node46</title>
<path fill="none" stroke="midnightblue" d="M20.88,-588.16C24.77,-629.14 41.74,-788.09 74,-824.5 77.04,-827.94 80.61,-830.88 84.48,-833.4"/>
<polygon fill="midnightblue" stroke="midnightblue" points="82.93,-836.54 93.38,-838.28 86.29,-830.4 82.93,-836.54"/>
</g>
<!-- Node47 -->
<g id="node26" class="node">
<title>Node47</title>
<g id="a_node26"><a xlink:href="../../d4/d6e/classautomaton_1_1core_1_1cli_1_1cli.html#aa08beef9f6f141e827121be95eb47a6f" target="_top" xlink:title=" ">
<polygon fill="white" stroke="black" points="93.5,-784.5 93.5,-814.5 193.5,-814.5 193.5,-784.5 93.5,-784.5"/>
<text text-anchor="start" x="101.5" y="-802.5" font-family="Helvetica,sans-Serif" font-size="10.00">automaton::core::cli</text>
<text text-anchor="middle" x="143.5" y="-791.5" font-family="Helvetica,sans-Serif" font-size="10.00">::cli::hints_clear</text>
</a>
</g>
</g>
<!-- Node1&#45;&gt;Node47 -->
<g id="edge25" class="edge">
<title>Node1&#45;&gt;Node47</title>
<path fill="none" stroke="midnightblue" d="M19.7,-588.19C19.28,-619.63 22.23,-720.01 74,-775.5 77.08,-778.8 80.64,-781.65 84.49,-784.11"/>
<polygon fill="midnightblue" stroke="midnightblue" points="82.83,-787.19 93.29,-788.88 86.17,-781.04 82.83,-787.19"/>
</g>
<!-- Node48 -->
<g id="node27" class="node">
<title>Node48</title>
<g id="a_node27"><a xlink:href="../../d4/d6e/classautomaton_1_1core_1_1cli_1_1cli.html#a58134c69fbc6b2bc89867c36df765e97" target="_top" xlink:title=" ">
<polygon fill="white" stroke="black" points="93.5,-735.5 93.5,-765.5 193.5,-765.5 193.5,-735.5 93.5,-735.5"/>
<text text-anchor="start" x="101.5" y="-753.5" font-family="Helvetica,sans-Serif" font-size="10.00">automaton::core::cli</text>
<text text-anchor="middle" x="143.5" y="-742.5" font-family="Helvetica,sans-Serif" font-size="10.00">::cli::history_add</text>
</a>
</g>
</g>
<!-- Node1&#45;&gt;Node48 -->
<g id="edge26" class="edge">
<title>Node1&#45;&gt;Node48</title>
<path fill="none" stroke="midnightblue" d="M20.75,-588.32C23.27,-614.51 33.71,-686.72 74,-726.5 77.08,-729.54 80.56,-732.19 84.28,-734.51"/>
<polygon fill="midnightblue" stroke="midnightblue" points="82.87,-737.72 93.34,-739.34 86.16,-731.54 82.87,-737.72"/>
</g>
<!-- Node49 -->
<g id="node28" class="node">
<title>Node49</title>
<g id="a_node28"><a xlink:href="../../d0/d66/classautomaton_1_1core_1_1script_1_1engine.html#a34e6a10f642700bea5fb9f8c625f3a66" target="_top" xlink:title=" ">
<polygon fill="white" stroke="black" points="83,-686.5 83,-716.5 204,-716.5 204,-686.5 83,-686.5"/>
<text text-anchor="start" x="91" y="-704.5" font-family="Helvetica,sans-Serif" font-size="10.00">automaton::core::script</text>
<text text-anchor="middle" x="143.5" y="-693.5" font-family="Helvetica,sans-Serif" font-size="10.00">::engine::import_schema</text>
</a>
</g>
</g>
<!-- Node1&#45;&gt;Node49 -->
<g id="edge27" class="edge">
<title>Node1&#45;&gt;Node49</title>
<path fill="none" stroke="midnightblue" d="M22.69,-588.17C28.64,-607.82 44.76,-652.66 74,-677.5 75.51,-678.78 77.1,-680 78.74,-681.16"/>
<polygon fill="midnightblue" stroke="midnightblue" points="77.02,-684.2 87.38,-686.41 80.66,-678.22 77.02,-684.2"/>
</g>
<!-- Node51 -->
<g id="node30" class="node">
<title>Node51</title>
<g id="a_node30"><a xlink:href="../../da/dd5/namespaceautomaton_1_1core_1_1io.html#a0fe91ded07b9c462de585336755ff458" target="_top" xlink:title=" ">
<polygon fill="white" stroke="black" points="94.5,-637.5 94.5,-667.5 192.5,-667.5 192.5,-637.5 94.5,-637.5"/>
<text text-anchor="start" x="102.5" y="-655.5" font-family="Helvetica,sans-Serif" font-size="10.00">automaton::core::io</text>
<text text-anchor="middle" x="143.5" y="-644.5" font-family="Helvetica,sans-Serif" font-size="10.00">::init_logger</text>
</a>
</g>
</g>
<!-- Node1&#45;&gt;Node51 -->
<g id="edge29" class="edge">
<title>Node1&#45;&gt;Node51</title>
<path fill="none" stroke="midnightblue" d="M28.24,-588.24C38.1,-599.35 55.61,-617.43 74,-628.5 77.42,-630.56 81.05,-632.48 84.78,-634.26"/>
<polygon fill="midnightblue" stroke="midnightblue" points="83.63,-637.58 94.19,-638.4 86.45,-631.17 83.63,-637.58"/>
</g>
<!-- Node54 -->
<g id="node32" class="node">
<title>Node54</title>
<g id="a_node32"><a xlink:href="../../d4/d6e/classautomaton_1_1core_1_1cli_1_1cli.html#a7ca4a29fec70c7d3a070f139558ae729" target="_top" xlink:title=" ">
<polygon fill="white" stroke="black" points="93.5,-588.5 93.5,-618.5 193.5,-618.5 193.5,-588.5 93.5,-588.5"/>
<text text-anchor="start" x="101.5" y="-606.5" font-family="Helvetica,sans-Serif" font-size="10.00">automaton::core::cli</text>
<text text-anchor="middle" x="143.5" y="-595.5" font-family="Helvetica,sans-Serif" font-size="10.00">::cli::input</text>
</a>
</g>
</g>
<!-- Node1&#45;&gt;Node54 -->
<g id="edge31" class="edge">
<title>Node1&#45;&gt;Node54</title>
<path fill="none" stroke="midnightblue" d="M38.08,-582.19C50.15,-584.65 66.77,-588.04 83.2,-591.4"/>
<polygon fill="midnightblue" stroke="midnightblue" points="82.87,-594.9 93.37,-593.47 84.27,-588.04 82.87,-594.9"/>
</g>
<!-- Node55 -->
<g id="node33" class="node">
<title>Node55</title>
<g id="a_node33"><a xlink:href="../../da/d77/classautomaton_1_1core_1_1node_1_1node.html#a0d8b56087e7a6409e7c8159542ca2ecd" target="_top" xlink:title=" ">
<polygon fill="white" stroke="black" points="74,-539.5 74,-569.5 213,-569.5 213,-539.5 74,-539.5"/>
<text text-anchor="start" x="82" y="-557.5" font-family="Helvetica,sans-Serif" font-size="10.00">automaton::core::node</text>
<text text-anchor="middle" x="143.5" y="-546.5" font-family="Helvetica,sans-Serif" font-size="10.00">::node::list_connected_peers</text>
</a>
</g>
</g>
<!-- Node1&#45;&gt;Node55 -->
<g id="edge32" class="edge">
<title>Node1&#45;&gt;Node55</title>
<path fill="none" stroke="midnightblue" d="M38.08,-574.96C45.34,-573.54 54.24,-571.79 63.77,-569.93"/>
<polygon fill="midnightblue" stroke="midnightblue" points="64.73,-573.3 73.87,-567.95 63.39,-566.43 64.73,-573.3"/>
</g>
<!-- Node56 -->
<g id="node34" class="node">
<title>Node56</title>
<g id="a_node34"><a xlink:href="../../da/d77/classautomaton_1_1core_1_1node_1_1node.html#a4cc368aa72572d4cb7c1180f605e9e99" target="_top" xlink:title=" ">
<polygon fill="white" stroke="black" points="82.5,-490.5 82.5,-520.5 204.5,-520.5 204.5,-490.5 82.5,-490.5"/>
<text text-anchor="start" x="90.5" y="-508.5" font-family="Helvetica,sans-Serif" font-size="10.00">automaton::core::node</text>
<text text-anchor="middle" x="143.5" y="-497.5" font-family="Helvetica,sans-Serif" font-size="10.00">::node::list_known_peers</text>
</a>
</g>
</g>
<!-- Node1&#45;&gt;Node56 -->
<g id="edge33" class="edge">
<title>Node1&#45;&gt;Node56</title>
<path fill="none" stroke="midnightblue" d="M28.7,-568.83C38.72,-558.19 56.12,-541.17 74,-530.5 77.39,-528.48 80.97,-526.58 84.64,-524.8"/>
<polygon fill="midnightblue" stroke="midnightblue" points="86.22,-527.92 93.91,-520.63 83.35,-521.54 86.22,-527.92"/>
</g>
<!-- Node57 -->
<g id="node35" class="node">
<title>Node57</title>
<g id="a_node35"><a xlink:href="../../d4/d63/classautomaton_1_1core_1_1testnet_1_1testnet.html#a3fca31d08286bc2df31301b68c2345a8" target="_top" xlink:title=" ">
<polygon fill="white" stroke="black" points="83.5,-441.5 83.5,-471.5 203.5,-471.5 203.5,-441.5 83.5,-441.5"/>
<text text-anchor="start" x="91.5" y="-459.5" font-family="Helvetica,sans-Serif" font-size="10.00">automaton::core::testnet</text>
<text text-anchor="middle" x="143.5" y="-448.5" font-family="Helvetica,sans-Serif" font-size="10.00">::testnet::list_nodes</text>
</a>
</g>
</g>
<!-- Node1&#45;&gt;Node57 -->
<g id="edge34" class="edge">
<title>Node1&#45;&gt;Node57</title>
<path fill="none" stroke="midnightblue" d="M22.87,-568.76C29.04,-549.41 45.41,-505.9 74,-481.5 75.98,-479.81 78.08,-478.23 80.28,-476.75"/>
<polygon fill="midnightblue" stroke="midnightblue" points="82.28,-479.64 89.13,-471.56 78.73,-473.6 82.28,-479.64"/>
</g>
<!-- Node58 -->
<g id="node36" class="node">
<title>Node58</title>
<g id="a_node36"><a xlink:href="../../d4/d6e/classautomaton_1_1core_1_1cli_1_1cli.html#ae12477f3983de31fb578d2d0ccf9256f" target="_top" xlink:title=" ">
<polygon fill="white" stroke="black" points="93.5,-392.5 93.5,-422.5 193.5,-422.5 193.5,-392.5 93.5,-392.5"/>
<text text-anchor="start" x="101.5" y="-410.5" font-family="Helvetica,sans-Serif" font-size="10.00">automaton::core::cli</text>
<text text-anchor="middle" x="143.5" y="-399.5" font-family="Helvetica,sans-Serif" font-size="10.00">::cli::print</text>
</a>
</g>
</g>
<!-- Node1&#45;&gt;Node58 -->
<g id="edge35" class="edge">
<title>Node1&#45;&gt;Node58</title>
<path fill="none" stroke="midnightblue" d="M20.82,-568.84C23.52,-543.07 34.36,-471.97 74,-432.5 77.08,-429.44 80.56,-426.74 84.29,-424.38"/>
<polygon fill="midnightblue" stroke="midnightblue" points="86.24,-427.3 93.34,-419.43 82.89,-421.16 86.24,-427.3"/>
</g>
<!-- Node59 -->
<g id="node37" class="node">
<title>Node59</title>
<g id="a_node37"><a xlink:href="../../d9/d1d/classautomaton_1_1core_1_1network_1_1http__server.html#abd390bba865ef80999c30cc7bb9a29dd" target="_top" xlink:title=" ">
<polygon fill="white" stroke="black" points="81,-343.5 81,-373.5 206,-373.5 206,-343.5 81,-343.5"/>
<text text-anchor="start" x="89" y="-361.5" font-family="Helvetica,sans-Serif" font-size="10.00">automaton::core::network</text>
<text text-anchor="middle" x="143.5" y="-350.5" font-family="Helvetica,sans-Serif" font-size="10.00">::http_server::run</text>
</a>
</g>
</g>
<!-- Node1&#45;&gt;Node59 -->
<g id="edge36" class="edge">
<title>Node1&#45;&gt;Node59</title>
<path fill="none" stroke="midnightblue" d="M19.77,-568.94C19.53,-537.89 23.01,-438.73 74,-383.5 75.35,-382.03 76.8,-380.66 78.32,-379.36"/>
<polygon fill="midnightblue" stroke="midnightblue" points="80.39,-382.18 86.49,-373.51 76.32,-376.49 80.39,-382.18"/>
</g>
<!-- Node60 -->
<g id="node38" class="node">
<title>Node60</title>
<g id="a_node38"><a xlink:href="../../d3/d27/classautomaton_1_1core_1_1node_1_1luanode_1_1lua__node.html#acf91e8d97c1326ed3c6e2ca2363377da" target="_top" xlink:title=" ">
<polygon fill="white" stroke="black" points="88,-284 88,-325 199,-325 199,-284 88,-284"/>
<text text-anchor="start" x="96" y="-313" font-family="Helvetica,sans-Serif" font-size="10.00">automaton::core::node</text>
<text text-anchor="start" x="96" y="-302" font-family="Helvetica,sans-Serif" font-size="10.00">::luanode::lua_node::</text>
<text text-anchor="middle" x="143.5" y="-291" font-family="Helvetica,sans-Serif" font-size="10.00">script</text>
</a>
</g>
</g>
<!-- Node1&#45;&gt;Node60 -->
<g id="edge37" class="edge">
<title>Node1&#45;&gt;Node60</title>
<path fill="none" stroke="midnightblue" d="M20.96,-568.97C25.19,-528.58 43.35,-371.79 74,-334.5 75.69,-332.44 77.56,-330.51 79.56,-328.72"/>
<polygon fill="midnightblue" stroke="midnightblue" points="82,-331.26 87.83,-322.41 77.75,-325.69 82,-331.26"/>
</g>
<!-- Node62 -->
<g id="node40" class="node">
<title>Node62</title>
<g id="a_node40"><a xlink:href="../../d7/ded/classautomaton_1_1core_1_1network_1_1simulation.html#a817ac2eec0452beaf2263b971227b135" target="_top" xlink:title=" ">
<polygon fill="white" stroke="black" points="74,-235.5 74,-265.5 213,-265.5 213,-235.5 74,-235.5"/>
<text text-anchor="start" x="82" y="-253.5" font-family="Helvetica,sans-Serif" font-size="10.00">automaton::core::network</text>
<text text-anchor="middle" x="143.5" y="-242.5" font-family="Helvetica,sans-Serif" font-size="10.00">::simulation::simulation_start</text>
</a>
</g>
</g>
<!-- Node1&#45;&gt;Node62 -->
<g id="edge39" class="edge">
<title>Node1&#45;&gt;Node62</title>
<path fill="none" stroke="midnightblue" d="M20.43,-568.85C22.72,-522.24 34.76,-320.64 74,-274.5 74.73,-273.64 75.5,-272.8 76.3,-272"/>
<polygon fill="midnightblue" stroke="midnightblue" points="78.66,-274.59 84.19,-265.55 74.24,-269.17 78.66,-274.59"/>
</g>
<!-- Node66 -->
<g id="node43" class="node">
<title>Node66</title>
<g id="a_node43"><a xlink:href="../../d7/ded/classautomaton_1_1core_1_1network_1_1simulation.html#a7fa5c63fedd6c06f094bd99f1112c42e" target="_top" xlink:title=" ">
<polygon fill="white" stroke="black" points="74.5,-186.5 74.5,-216.5 212.5,-216.5 212.5,-186.5 74.5,-186.5"/>
<text text-anchor="start" x="82.5" y="-204.5" font-family="Helvetica,sans-Serif" font-size="10.00">automaton::core::network</text>
<text text-anchor="middle" x="143.5" y="-193.5" font-family="Helvetica,sans-Serif" font-size="10.00">::simulation::simulation_stop</text>
</a>
</g>
</g>
<!-- Node1&#45;&gt;Node66 -->
<g id="edge42" class="edge">
<title>Node1&#45;&gt;Node66</title>
<path fill="none" stroke="midnightblue" d="M20.19,-568.74C21.39,-517.64 29.32,-281.01 74,-226.5 74.98,-225.31 76.02,-224.17 77.11,-223.09"/>
<polygon fill="midnightblue" stroke="midnightblue" points="79.44,-225.71 85.03,-216.7 75.05,-220.26 79.44,-225.71"/>
</g>
<!-- Node67 -->
<g id="node44" class="node">
<title>Node67</title>
<g id="a_node44"><a xlink:href="../../d9/d1d/classautomaton_1_1core_1_1network_1_1http__server.html#a906720dae3537e39e4c1c6ab8036f297" target="_top" xlink:title=" ">
<polygon fill="white" stroke="black" points="81,-137.5 81,-167.5 206,-167.5 206,-137.5 81,-137.5"/>
<text text-anchor="start" x="89" y="-155.5" font-family="Helvetica,sans-Serif" font-size="10.00">automaton::core::network</text>
<text text-anchor="middle" x="143.5" y="-144.5" font-family="Helvetica,sans-Serif" font-size="10.00">::http_server::stop</text>
</a>
</g>
</g>
<!-- Node1&#45;&gt;Node67 -->
<g id="edge43" class="edge">
<title>Node1&#45;&gt;Node67</title>
<path fill="none" stroke="midnightblue" d="M19.99,-568.88C20.13,-513.97 23.37,-240.45 74,-177.5 74.97,-176.3 76,-175.15 77.08,-174.06"/>
<polygon fill="midnightblue" stroke="midnightblue" points="79.42,-176.68 84.96,-167.64 74.99,-171.25 79.42,-176.68"/>
</g>
<!-- Node68 -->
<g id="node45" class="node">
<title>Node68</title>
<g id="a_node45"><a xlink:href="../../dd/de7/core_8cc.html#ae198931bc57f3b2bca912e289b78f311" target="_top" xlink:title=" ">
<polygon fill="white" stroke="black" points="105,-99 105,-118 182,-118 182,-99 105,-99"/>
<text text-anchor="middle" x="143.5" y="-106" font-family="Helvetica,sans-Serif" font-size="10.00">string_replace</text>
</a>
</g>
</g>
<!-- Node1&#45;&gt;Node68 -->
<g id="edge44" class="edge">
<title>Node1&#45;&gt;Node68</title>
<path fill="none" stroke="midnightblue" d="M19.77,-568.83C18.57,-509.79 15.11,-197.98 74,-128.5 79.53,-121.98 87.05,-117.52 95.09,-114.49"/>
<polygon fill="midnightblue" stroke="midnightblue" points="96.15,-117.82 104.69,-111.54 94.1,-111.13 96.15,-117.82"/>
</g>
<!-- Node69 -->
<g id="node46" class="node">
<title>Node69</title>
<g id="a_node46"><a xlink:href="../../d9/d2e/namespaceautomaton_1_1core_1_1network.html#af0be6f795bbdb2729d2f34ce640d481c" target="_top" xlink:title=" ">
<polygon fill="white" stroke="black" points="81,-49.5 81,-79.5 206,-79.5 206,-49.5 81,-49.5"/>
<text text-anchor="start" x="89" y="-67.5" font-family="Helvetica,sans-Serif" font-size="10.00">automaton::core::network</text>
<text text-anchor="middle" x="143.5" y="-56.5" font-family="Helvetica,sans-Serif" font-size="10.00">::tcp_init</text>
</a>
</g>
</g>
<!-- Node1&#45;&gt;Node69 -->
<g id="edge45" class="edge">
<title>Node1&#45;&gt;Node69</title>
<path fill="none" stroke="midnightblue" d="M20.46,-568.74C23.66,-503.21 43.22,-128.72 74,-89.5 74.95,-88.29 75.97,-87.13 77.04,-86.03"/>
<polygon fill="midnightblue" stroke="midnightblue" points="79.39,-88.64 84.86,-79.56 74.92,-83.25 79.39,-88.64"/>
</g>
<!-- Node73 -->
<g id="node50" class="node">
<title>Node73</title>
<g id="a_node50"><a xlink:href="../../d9/d2e/namespaceautomaton_1_1core_1_1network.html#ae04f556746d9ab19ca08ad9ff7ef0b8d" target="_top" xlink:title=" ">
<polygon fill="white" stroke="black" points="81,-0.5 81,-30.5 206,-30.5 206,-0.5 81,-0.5"/>
<text text-anchor="start" x="89" y="-18.5" font-family="Helvetica,sans-Serif" font-size="10.00">automaton::core::network</text>
<text text-anchor="middle" x="143.5" y="-7.5" font-family="Helvetica,sans-Serif" font-size="10.00">::tcp_release</text>
</a>
</g>
</g>
<!-- Node1&#45;&gt;Node73 -->
<g id="edge49" class="edge">
<title>Node1&#45;&gt;Node73</title>
<path fill="none" stroke="midnightblue" d="M20.36,-568.67C23.02,-499.23 40.24,-83.96 74,-40.5 74.95,-39.28 75.96,-38.12 77.03,-37.02"/>
<polygon fill="midnightblue" stroke="midnightblue" points="79.37,-39.62 84.81,-30.53 74.89,-34.24 79.37,-39.62"/>
</g>
<!-- Node3 -->
<g id="node3" class="node">
<title>Node3</title>
<g id="a_node3"><a xlink:href="../../d0/d66/classautomaton_1_1core_1_1script_1_1engine.html#a925a6d6835a27a653e42b5e0eceaa19d" target="_top" xlink:title=" ">
<polygon fill="white" stroke="black" points="272.5,-1249.5 272.5,-1279.5 386.5,-1279.5 386.5,-1249.5 272.5,-1249.5"/>
<text text-anchor="start" x="280.5" y="-1267.5" font-family="Helvetica,sans-Serif" font-size="10.00">automaton::core::script</text>
<text text-anchor="middle" x="329.5" y="-1256.5" font-family="Helvetica,sans-Serif" font-size="10.00">::engine::bind_crypto</text>
</a>
</g>
</g>
<!-- Node2&#45;&gt;Node3 -->
<g id="edge2" class="edge">
<title>Node2&#45;&gt;Node3</title>
<path fill="none" stroke="midnightblue" d="M156.71,-1157.73C174.71,-1179.2 210.44,-1218.25 249,-1240.5 253.41,-1243.05 258.12,-1245.35 262.97,-1247.42"/>
<polygon fill="midnightblue" stroke="midnightblue" points="261.81,-1250.73 272.39,-1251.14 264.37,-1244.21 261.81,-1250.73"/>
</g>
<!-- Node4 -->
<g id="node4" class="node">
<title>Node4</title>
<g id="a_node4"><a xlink:href="../../d0/d66/classautomaton_1_1core_1_1script_1_1engine.html#a4f4719e361bd2060b567ce3b3462a29e" target="_top" xlink:title=" ">
<polygon fill="white" stroke="red" points="272.5,-1200.5 272.5,-1230.5 386.5,-1230.5 386.5,-1200.5 272.5,-1200.5"/>
<text text-anchor="start" x="280.5" y="-1218.5" font-family="Helvetica,sans-Serif" font-size="10.00">automaton::core::script</text>
<text text-anchor="middle" x="329.5" y="-1207.5" font-family="Helvetica,sans-Serif" font-size="10.00">::engine::bind_data</text>
</a>
</g>
</g>
<!-- Node2&#45;&gt;Node4 -->
<g id="edge3" class="edge">
<title>Node2&#45;&gt;Node4</title>
<path fill="none" stroke="midnightblue" d="M173.73,-1157.61C194.42,-1167.95 222.99,-1181.54 249,-1191.5 254.13,-1193.47 259.5,-1195.38 264.92,-1197.21"/>
<polygon fill="midnightblue" stroke="midnightblue" points="264.09,-1200.62 274.69,-1200.41 266.27,-1193.97 264.09,-1200.62"/>
</g>
<!-- Node34 -->
<g id="node16" class="node">
<title>Node34</title>
<g id="a_node16"><a xlink:href="../../d0/d66/classautomaton_1_1core_1_1script_1_1engine.html#a0d3f6e578e8f9ff451d62cd5faf0acfc" target="_top" xlink:title=" ">
<polygon fill="white" stroke="red" points="272.5,-1151.5 272.5,-1181.5 386.5,-1181.5 386.5,-1151.5 272.5,-1151.5"/>
<text text-anchor="start" x="280.5" y="-1169.5" font-family="Helvetica,sans-Serif" font-size="10.00">automaton::core::script</text>
<text text-anchor="middle" x="329.5" y="-1158.5" font-family="Helvetica,sans-Serif" font-size="10.00">::engine::bind_io</text>
</a>
</g>
</g>
<!-- Node2&#45;&gt;Node34 -->
<g id="edge15" class="edge">
<title>Node2&#45;&gt;Node34</title>
<path fill="none" stroke="midnightblue" d="M200.71,-1149.83C220.14,-1152.37 242.11,-1155.23 262.27,-1157.86"/>
<polygon fill="midnightblue" stroke="midnightblue" points="261.95,-1161.35 272.32,-1159.17 262.86,-1154.41 261.95,-1161.35"/>
</g>
<!-- Node38 -->
<g id="node17" class="node">
<title>Node38</title>
<g id="a_node17"><a xlink:href="../../d0/d66/classautomaton_1_1core_1_1script_1_1engine.html#aeb84ea6917ae352451bdc810429d69f6" target="_top" xlink:title=" ">
<polygon fill="white" stroke="black" points="272.5,-1102.5 272.5,-1132.5 386.5,-1132.5 386.5,-1102.5 272.5,-1102.5"/>
<text text-anchor="start" x="280.5" y="-1120.5" font-family="Helvetica,sans-Serif" font-size="10.00">automaton::core::script</text>
<text text-anchor="middle" x="329.5" y="-1109.5" font-family="Helvetica,sans-Serif" font-size="10.00">::engine::bind_log</text>
</a>
</g>
</g>
<!-- Node2&#45;&gt;Node38 -->
<g id="edge16" class="edge">
<title>Node2&#45;&gt;Node38</title>
<path fill="none" stroke="midnightblue" d="M200.71,-1134.86C220.14,-1132.22 242.11,-1129.24 262.27,-1126.5"/>
<polygon fill="midnightblue" stroke="midnightblue" points="262.88,-1129.95 272.32,-1125.13 261.94,-1123.01 262.88,-1129.95"/>
</g>
<!-- Node39 -->
<g id="node18" class="node">
<title>Node39</title>
<g id="a_node18"><a xlink:href="../../d0/d66/classautomaton_1_1core_1_1script_1_1engine.html#af82abc3d77ec145e5ed3368f246c2c49" target="_top" xlink:title=" ">
<polygon fill="white" stroke="black" points="272.5,-1053.5 272.5,-1083.5 386.5,-1083.5 386.5,-1053.5 272.5,-1053.5"/>
<text text-anchor="start" x="280.5" y="-1071.5" font-family="Helvetica,sans-Serif" font-size="10.00">automaton::core::script</text>
<text text-anchor="middle" x="329.5" y="-1060.5" font-family="Helvetica,sans-Serif" font-size="10.00">::engine::bind_network</text>
</a>
</g>
</g>
<!-- Node2&#45;&gt;Node39 -->
<g id="edge17" class="edge">
<title>Node2&#45;&gt;Node39</title>
<path fill="none" stroke="midnightblue" d="M192.73,-1127.46C199.66,-1124.77 206.6,-1121.77 213,-1118.5 230.35,-1109.64 231.51,-1102.08 249,-1093.5 253.59,-1091.25 258.43,-1089.14 263.36,-1087.18"/>
<polygon fill="midnightblue" stroke="midnightblue" points="264.78,-1090.39 272.92,-1083.6 262.32,-1083.84 264.78,-1090.39"/>
</g>
<!-- Node40 -->
<g id="node19" class="node">
<title>Node40</title>
<g id="a_node19"><a xlink:href="../../d0/d66/classautomaton_1_1core_1_1script_1_1engine.html#acaf7ede2105fc5d981c021e1774785b6" target="_top" xlink:title=" ">
<polygon fill="white" stroke="black" points="272.5,-1004.5 272.5,-1034.5 386.5,-1034.5 386.5,-1004.5 272.5,-1004.5"/>
<text text-anchor="start" x="280.5" y="-1022.5" font-family="Helvetica,sans-Serif" font-size="10.00">automaton::core::script</text>
<text text-anchor="middle" x="329.5" y="-1011.5" font-family="Helvetica,sans-Serif" font-size="10.00">::engine::bind_state</text>
</a>
</g>
</g>
<!-- Node2&#45;&gt;Node40 -->
<g id="edge18" class="edge">
<title>Node2&#45;&gt;Node40</title>
<path fill="none" stroke="midnightblue" d="M200.13,-1127.42C204.76,-1124.89 209.14,-1121.94 213,-1118.5 240.31,-1094.18 221.3,-1068.38 249,-1044.5 253.25,-1040.84 258.03,-1037.71 263.09,-1035.05"/>
<polygon fill="midnightblue" stroke="midnightblue" points="264.83,-1038.1 272.44,-1030.72 261.89,-1031.74 264.83,-1038.1"/>
</g>
<!-- Node5 -->
<g id="node5" class="node">
<title>Node5</title>
<g id="a_node5"><a xlink:href="../../df/d83/classautomaton_1_1core_1_1data_1_1msg.html#a3aea46e694ea2016c61f9495c4b558bc" target="_top" xlink:title=" ">
<polygon fill="white" stroke="black" points="464.5,-1455.5 464.5,-1485.5 573.5,-1485.5 573.5,-1455.5 464.5,-1455.5"/>
<text text-anchor="start" x="472.5" y="-1473.5" font-family="Helvetica,sans-Serif" font-size="10.00">automaton::core::data</text>
<text text-anchor="middle" x="519" y="-1462.5" font-family="Helvetica,sans-Serif" font-size="10.00">::msg::get_blob</text>
</a>
</g>
</g>
<!-- Node4&#45;&gt;Node5 -->
<g id="edge4" class="edge">
<title>Node4&#45;&gt;Node5</title>
<path fill="none" stroke="midnightblue" d="M386.88,-1224.67C395.63,-1228.33 403.8,-1233.43 410,-1240.5 471.25,-1310.4 385.34,-1376.08 446,-1446.5 448.81,-1449.76 452.07,-1452.57 455.62,-1455.01"/>
<polygon fill="midnightblue" stroke="midnightblue" points="453.95,-1458.09 464.36,-1460.03 457.43,-1452.02 453.95,-1458.09"/>
</g>
<!-- Node6 -->
<g id="node6" class="node">
<title>Node6</title>
<g id="a_node6"><a xlink:href="../../df/d83/classautomaton_1_1core_1_1data_1_1msg.html#adcf5eb437d93d109540a16b2b6d8d6a9" target="_top" xlink:title=" ">
<polygon fill="white" stroke="black" points="464.5,-1396 464.5,-1437 573.5,-1437 573.5,-1396 464.5,-1396"/>
<text text-anchor="start" x="472.5" y="-1425" font-family="Helvetica,sans-Serif" font-size="10.00">automaton::core::data</text>
<text text-anchor="start" x="472.5" y="-1414" font-family="Helvetica,sans-Serif" font-size="10.00">::msg::get_field_info</text>
<text text-anchor="middle" x="519" y="-1403" font-family="Helvetica,sans-Serif" font-size="10.00">_by_tag</text>
</a>
</g>
</g>
<!-- Node4&#45;&gt;Node6 -->
<g id="edge5" class="edge">
<title>Node4&#45;&gt;Node6</title>
<path fill="none" stroke="midnightblue" d="M386.89,-1225.19C395.53,-1228.8 403.67,-1233.74 410,-1240.5 456,-1289.57 401.95,-1336.67 446,-1387.5 448.83,-1390.77 452.08,-1393.67 455.6,-1396.25"/>
<polygon fill="midnightblue" stroke="midnightblue" points="453.91,-1399.32 464.24,-1401.7 457.65,-1393.4 453.91,-1399.32"/>
</g>
<!-- Node7 -->
<g id="node7" class="node">
<title>Node7</title>
<g id="a_node7"><a xlink:href="../../df/d83/classautomaton_1_1core_1_1data_1_1msg.html#ae7a2dadc5374c8ce717a879d7315b12a" target="_top" xlink:title=" ">
<polygon fill="white" stroke="black" points="464.5,-1347.5 464.5,-1377.5 573.5,-1377.5 573.5,-1347.5 464.5,-1347.5"/>
<text text-anchor="start" x="472.5" y="-1365.5" font-family="Helvetica,sans-Serif" font-size="10.00">automaton::core::data</text>
<text text-anchor="middle" x="519" y="-1354.5" font-family="Helvetica,sans-Serif" font-size="10.00">::msg::get_field_tag</text>
</a>
</g>
</g>
<!-- Node4&#45;&gt;Node7 -->
<g id="edge6" class="edge">
<title>Node4&#45;&gt;Node7</title>
<path fill="none" stroke="midnightblue" d="M386.68,-1225.98C395.24,-1229.5 403.4,-1234.21 410,-1240.5 443.58,-1272.52 412.7,-1306.19 446,-1338.5 448.84,-1341.26 452.01,-1343.7 455.39,-1345.86"/>
<polygon fill="midnightblue" stroke="midnightblue" points="453.71,-1348.93 464.16,-1350.68 457.08,-1342.8 453.71,-1348.93"/>
</g>
<!-- Node8 -->
<g id="node8" class="node">
<title>Node8</title>
<g id="a_node8"><a xlink:href="../../df/d83/classautomaton_1_1core_1_1data_1_1msg.html#aec5ae04b8137712edbea43dc5d870870" target="_top" xlink:title=" ">
<polygon fill="white" stroke="black" points="464.5,-1298.5 464.5,-1328.5 573.5,-1328.5 573.5,-1298.5 464.5,-1298.5"/>
<text text-anchor="start" x="472.5" y="-1316.5" font-family="Helvetica,sans-Serif" font-size="10.00">automaton::core::data</text>
<text text-anchor="middle" x="519" y="-1305.5" font-family="Helvetica,sans-Serif" font-size="10.00">::msg::get_int32</text>
</a>
</g>
</g>
<!-- Node4&#45;&gt;Node8 -->
<g id="edge7" class="edge">
<title>Node4&#45;&gt;Node8</title>
<path fill="none" stroke="midnightblue" d="M386.53,-1228.14C394.82,-1231.39 402.94,-1235.45 410,-1240.5 431.98,-1256.22 424.16,-1273.59 446,-1289.5 448.86,-1291.58 451.9,-1293.49 455.07,-1295.24"/>
<polygon fill="midnightblue" stroke="midnightblue" points="453.74,-1298.48 464.26,-1299.75 456.83,-1292.2 453.74,-1298.48"/>
</g>
<!-- Node9 -->
<g id="node9" class="node">
<title>Node9</title>
<g id="a_node9"><a xlink:href="../../df/d83/classautomaton_1_1core_1_1data_1_1msg.html#ac548cc4d404e34c95064c7ef712703a3" target="_top" xlink:title=" ">
<polygon fill="white" stroke="black" points="464.5,-1249.5 464.5,-1279.5 573.5,-1279.5 573.5,-1249.5 464.5,-1249.5"/>
<text text-anchor="start" x="472.5" y="-1267.5" font-family="Helvetica,sans-Serif" font-size="10.00">automaton::core::data</text>
<text text-anchor="middle" x="519" y="-1256.5" font-family="Helvetica,sans-Serif" font-size="10.00">::msg::get_int64</text>
</a>
</g>
</g>
<!-- Node4&#45;&gt;Node9 -->
<g id="edge8" class="edge">
<title>Node4&#45;&gt;Node9</title>
<path fill="none" stroke="midnightblue" d="M386.5,-1230.14C407.84,-1235.71 432.31,-1242.11 454.3,-1247.85"/>
<polygon fill="midnightblue" stroke="midnightblue" points="453.66,-1251.3 464.22,-1250.44 455.43,-1244.53 453.66,-1251.3"/>
</g>
<!-- Node10 -->
<g id="node10" class="node">
<title>Node10</title>
<g id="a_node10"><a xlink:href="../../df/d83/classautomaton_1_1core_1_1data_1_1msg.html#ab5c755bb322166fc1eef32b0c8eab679" target="_top" xlink:title=" ">
<polygon fill="white" stroke="black" points="464.5,-1200.5 464.5,-1230.5 573.5,-1230.5 573.5,-1200.5 464.5,-1200.5"/>
<text text-anchor="start" x="472.5" y="-1218.5" font-family="Helvetica,sans-Serif" font-size="10.00">automaton::core::data</text>
<text text-anchor="middle" x="519" y="-1207.5" font-family="Helvetica,sans-Serif" font-size="10.00">::msg::get_message</text>
</a>
</g>
</g>
<!-- Node4&#45;&gt;Node10 -->
<g id="edge9" class="edge">
<title>Node4&#45;&gt;Node10</title>
<path fill="none" stroke="midnightblue" d="M386.5,-1215.5C407.74,-1215.5 432.08,-1215.5 454.01,-1215.5"/>
<polygon fill="midnightblue" stroke="midnightblue" points="454.22,-1219 464.22,-1215.5 454.22,-1212 454.22,-1219"/>
</g>
<!-- Node11 -->
<g id="node11" class="node">
<title>Node11</title>
<g id="a_node11"><a xlink:href="../../df/d83/classautomaton_1_1core_1_1data_1_1msg.html#a16c733332be25b896b2cfeb49f884dcb" target="_top" xlink:title=" ">
<polygon fill="white" stroke="black" points="457,-1151.5 457,-1181.5 581,-1181.5 581,-1151.5 457,-1151.5"/>
<text text-anchor="start" x="465" y="-1169.5" font-family="Helvetica,sans-Serif" font-size="10.00">automaton::core::data</text>
<text text-anchor="middle" x="519" y="-1158.5" font-family="Helvetica,sans-Serif" font-size="10.00">::msg::get_repeated_blob</text>
</a>
</g>
</g>
<!-- Node4&#45;&gt;Node11 -->
<g id="edge10" class="edge">
<title>Node4&#45;&gt;Node11</title>
<path fill="none" stroke="midnightblue" d="M386.5,-1200.86C406.62,-1195.61 429.53,-1189.62 450.53,-1184.13"/>
<polygon fill="midnightblue" stroke="midnightblue" points="451.55,-1187.48 460.34,-1181.57 449.78,-1180.71 451.55,-1187.48"/>
</g>
<!-- Node12 -->
<g id="node12" class="node">
<title>Node12</title>
<g id="a_node12"><a xlink:href="../../df/d83/classautomaton_1_1core_1_1data_1_1msg.html#a2ac6900e4b5cadd69553007d58cdb628" target="_top" xlink:title=" ">
<polygon fill="white" stroke="black" points="446,-1102.5 446,-1132.5 592,-1132.5 592,-1102.5 446,-1102.5"/>
<text text-anchor="start" x="454" y="-1120.5" font-family="Helvetica,sans-Serif" font-size="10.00">automaton::core::data</text>
<text text-anchor="middle" x="519" y="-1109.5" font-family="Helvetica,sans-Serif" font-size="10.00">::msg::get_repeated_field_size</text>
</a>
</g>
</g>
<!-- Node4&#45;&gt;Node12 -->
<g id="edge11" class="edge">
<title>Node4&#45;&gt;Node12</title>
<path fill="none" stroke="midnightblue" d="M386.52,-1203.62C394.82,-1200.46 402.94,-1196.49 410,-1191.5 432.07,-1175.9 424.26,-1158.54 446,-1142.5 448.53,-1140.64 451.2,-1138.9 453.98,-1137.29"/>
<polygon fill="midnightblue" stroke="midnightblue" points="455.87,-1140.26 463.14,-1132.55 452.65,-1134.04 455.87,-1140.26"/>
</g>
<!-- Node13 -->
<g id="node13" class="node">
<title>Node13</title>
<g id="a_node13"><a xlink:href="../../df/d83/classautomaton_1_1core_1_1data_1_1msg.html#a4c83d07c5bbb616171055a63a3299254" target="_top" xlink:title=" ">
<polygon fill="white" stroke="black" points="455.5,-1053.5 455.5,-1083.5 582.5,-1083.5 582.5,-1053.5 455.5,-1053.5"/>
<text text-anchor="start" x="463.5" y="-1071.5" font-family="Helvetica,sans-Serif" font-size="10.00">automaton::core::data</text>
<text text-anchor="middle" x="519" y="-1060.5" font-family="Helvetica,sans-Serif" font-size="10.00">::msg::get_repeated_int32</text>
</a>
</g>
</g>
<!-- Node4&#45;&gt;Node13 -->
<g id="edge12" class="edge">
<title>Node4&#45;&gt;Node13</title>
<path fill="none" stroke="midnightblue" d="M386.66,-1205.77C395.22,-1202.35 403.39,-1197.73 410,-1191.5 443.76,-1159.67 412.9,-1126.02 446,-1093.5 447.61,-1091.92 449.33,-1090.44 451.13,-1089.05"/>
<polygon fill="midnightblue" stroke="midnightblue" points="453.06,-1091.96 459.49,-1083.54 449.21,-1086.12 453.06,-1091.96"/>
</g>
<!-- Node14 -->
<g id="node14" class="node">
<title>Node14</title>
<g id="a_node14"><a xlink:href="../../df/d83/classautomaton_1_1core_1_1data_1_1msg.html#a789b7a2e0816a475e0636e3abc7cf51b" target="_top" xlink:title=" ">
<polygon fill="white" stroke="black" points="455.5,-1004.5 455.5,-1034.5 582.5,-1034.5 582.5,-1004.5 455.5,-1004.5"/>
<text text-anchor="start" x="463.5" y="-1022.5" font-family="Helvetica,sans-Serif" font-size="10.00">automaton::core::data</text>
<text text-anchor="middle" x="519" y="-1011.5" font-family="Helvetica,sans-Serif" font-size="10.00">::msg::get_repeated_int64</text>
</a>
</g>
</g>
<!-- Node4&#45;&gt;Node14 -->
<g id="edge13" class="edge">
<title>Node4&#45;&gt;Node14</title>
<path fill="none" stroke="midnightblue" d="M386.86,-1206.55C395.51,-1203.04 403.65,-1198.2 410,-1191.5 456.29,-1142.69 400.73,-1094.25 446,-1044.5 447.19,-1043.19 448.46,-1041.95 449.79,-1040.77"/>
<polygon fill="midnightblue" stroke="midnightblue" points="452.03,-1043.47 457.99,-1034.71 447.87,-1037.83 452.03,-1043.47"/>
</g>
<!-- Node15 -->
<g id="node15" class="node">
<title>Node15</title>
<g id="a_node15"><a xlink:href="../../df/d83/classautomaton_1_1core_1_1data_1_1msg.html#a9980d8eee10bed937b188dd0e5ffc654" target="_top" xlink:title=" ">
<polygon fill="white" stroke="black" points="446,-955.5 446,-985.5 592,-985.5 592,-955.5 446,-955.5"/>
<text text-anchor="start" x="454" y="-973.5" font-family="Helvetica,sans-Serif" font-size="10.00">automaton::core::data</text>
<text text-anchor="middle" x="519" y="-962.5" font-family="Helvetica,sans-Serif" font-size="10.00">::msg::get_repeated_message</text>
</a>
</g>
</g>
<!-- Node4&#45;&gt;Node15 -->
<g id="edge14" class="edge">
<title>Node4&#45;&gt;Node15</title>
<path fill="none" stroke="midnightblue" d="M386.79,-1207.02C395.55,-1203.47 403.75,-1198.49 410,-1191.5 469.04,-1125.48 388.33,-1062.72 446,-995.5 447.02,-994.31 448.11,-993.17 449.24,-992.09"/>
<polygon fill="midnightblue" stroke="midnightblue" points="451.68,-994.62 457.41,-985.71 447.38,-989.11 451.68,-994.62"/>
</g>
<!-- Node50 -->
<g id="node29" class="node">
<title>Node50</title>
<g id="a_node29"><a xlink:href="../../df/d35/classautomaton_1_1core_1_1data_1_1schema.html#af33724e84bb7eb5ef96e7fefec55bc9a" target="_top" xlink:title=" ">
<polygon fill="white" stroke="black" points="253,-688.5 253,-718.5 406,-718.5 406,-688.5 253,-688.5"/>
<text text-anchor="start" x="261" y="-706.5" font-family="Helvetica,sans-Serif" font-size="10.00">automaton::core::data</text>
<text text-anchor="middle" x="329.5" y="-695.5" font-family="Helvetica,sans-Serif" font-size="10.00">::schema::get_message_names</text>
</a>
</g>
</g>
<!-- Node49&#45;&gt;Node50 -->
<g id="edge28" class="edge">
<title>Node49&#45;&gt;Node50</title>
<path fill="none" stroke="midnightblue" d="M204.24,-702.15C216.49,-702.28 229.62,-702.43 242.59,-702.57"/>
<polygon fill="midnightblue" stroke="midnightblue" points="242.9,-706.07 252.93,-702.68 242.97,-699.07 242.9,-706.07"/>
</g>
<!-- Node52 -->
<g id="node31" class="node">
<title>Node52</title>
<g id="a_node31"><a xlink:href="../../dc/d03/structautomaton_1_1core_1_1io_1_1_color_cout_sink.html#a04e459317b8796bcd95e7e79f57697cc" target="_top" xlink:title=" ">
<polygon fill="white" stroke="red" points="259.5,-629 259.5,-670 399.5,-670 399.5,-629 259.5,-629"/>
<text text-anchor="start" x="267.5" y="-658" font-family="Helvetica,sans-Serif" font-size="10.00">automaton::core::io</text>
<text text-anchor="start" x="267.5" y="-647" font-family="Helvetica,sans-Serif" font-size="10.00">::ColorCoutSink::ReceiveLog</text>
<text text-anchor="middle" x="329.5" y="-636" font-family="Helvetica,sans-Serif" font-size="10.00">Message</text>
</a>
</g>
</g>
<!-- Node51&#45;&gt;Node52 -->
<g id="edge30" class="edge">
<title>Node51&#45;&gt;Node52</title>
<path fill="none" stroke="midnightblue" d="M192.84,-651.71C210.08,-651.43 229.98,-651.11 249.14,-650.79"/>
<polygon fill="midnightblue" stroke="midnightblue" points="249.43,-654.29 259.38,-650.63 249.32,-647.29 249.43,-654.29"/>
</g>
<!-- Node61 -->
<g id="node39" class="node">
<title>Node61</title>
<g id="a_node39"><a xlink:href="../../da/d77/classautomaton_1_1core_1_1node_1_1node.html#a91f72749c7a4e356c284f6daba403eba" target="_top" xlink:title=" ">
<polygon fill="white" stroke="black" points="274,-289.5 274,-319.5 385,-319.5 385,-289.5 274,-289.5"/>
<text text-anchor="start" x="282" y="-307.5" font-family="Helvetica,sans-Serif" font-size="10.00">automaton::core::node</text>
<text text-anchor="middle" x="329.5" y="-296.5" font-family="Helvetica,sans-Serif" font-size="10.00">::node::add_task</text>
</a>
</g>
</g>
<!-- Node60&#45;&gt;Node61 -->
<g id="edge38" class="edge">
<title>Node60&#45;&gt;Node61</title>
<path fill="none" stroke="midnightblue" d="M199.21,-304.5C219.42,-304.5 242.52,-304.5 263.55,-304.5"/>
<polygon fill="midnightblue" stroke="midnightblue" points="263.69,-308 273.69,-304.5 263.69,-301 263.69,-308"/>
</g>
<!-- Node63 -->
<g id="node41" class="node">
<title>Node63</title>
<g id="a_node41"><a xlink:href="../../d7/ded/classautomaton_1_1core_1_1network_1_1simulation.html#add71950763ba9165618ebf8fbef948d4" target="_top" xlink:title=" ">
<polygon fill="white" stroke="red" points="267,-238.5 267,-268.5 392,-268.5 392,-238.5 267,-238.5"/>
<text text-anchor="start" x="275" y="-256.5" font-family="Helvetica,sans-Serif" font-size="10.00">automaton::core::network</text>
<text text-anchor="middle" x="329.5" y="-245.5" font-family="Helvetica,sans-Serif" font-size="10.00">::simulation::process</text>
</a>
</g>
</g>
<!-- Node62&#45;&gt;Node63 -->
<g id="edge40" class="edge">
<title>Node62&#45;&gt;Node63</title>
<path fill="none" stroke="midnightblue" d="M213.01,-251.62C227.24,-251.85 242.27,-252.09 256.61,-252.33"/>
<polygon fill="midnightblue" stroke="midnightblue" points="256.85,-255.83 266.91,-252.5 256.97,-248.83 256.85,-255.83"/>
</g>
<!-- Node65 -->
<g id="node42" class="node">
<title>Node65</title>
<g id="a_node42"><a xlink:href="../../d7/ded/classautomaton_1_1core_1_1network_1_1simulation.html#ac159323877f3e3eed201ca4203399d3d" target="_top" xlink:title=" ">
<polygon fill="white" stroke="black" points="256.5,-189.5 256.5,-219.5 402.5,-219.5 402.5,-189.5 256.5,-189.5"/>
<text text-anchor="start" x="264.5" y="-207.5" font-family="Helvetica,sans-Serif" font-size="10.00">automaton::core::network</text>
<text text-anchor="middle" x="329.5" y="-196.5" font-family="Helvetica,sans-Serif" font-size="10.00">::simulation::process_handlers</text>
</a>
</g>
</g>
<!-- Node62&#45;&gt;Node65 -->
<g id="edge41" class="edge">
<title>Node62&#45;&gt;Node65</title>
<path fill="none" stroke="midnightblue" d="M204.75,-235.44C221.99,-231.13 240.93,-226.39 258.7,-221.95"/>
<polygon fill="midnightblue" stroke="midnightblue" points="259.58,-225.34 268.43,-219.52 257.88,-218.55 259.58,-225.34"/>
</g>
<!-- Node70 -->
<g id="node47" class="node">
<title>Node70</title>
<g id="a_node47"><a xlink:href="../../db/d4c/classautomaton_1_1core_1_1network_1_1acceptor.html#ac7087f848c433c0894d668d22a800d0c" target="_top" xlink:title=" ">
<polygon fill="white" stroke="black" points="249,-103.5 249,-133.5 410,-133.5 410,-103.5 249,-103.5"/>
<text text-anchor="start" x="257" y="-121.5" font-family="Helvetica,sans-Serif" font-size="10.00">automaton::core::network</text>
<text text-anchor="middle" x="329.5" y="-110.5" font-family="Helvetica,sans-Serif" font-size="10.00">::acceptor::register_acceptor_type</text>
</a>
</g>
</g>
<!-- Node69&#45;&gt;Node70 -->
<g id="edge46" class="edge">
<title>Node69&#45;&gt;Node70</title>
<path fill="none" stroke="midnightblue" d="M195.75,-79.54C217.99,-86.07 244.21,-93.76 267.45,-100.58"/>
<polygon fill="midnightblue" stroke="midnightblue" points="266.62,-103.99 277.2,-103.45 268.59,-97.27 266.62,-103.99"/>
</g>
<!-- Node71 -->
<g id="node48" class="node">
<title>Node71</title>
<g id="a_node48"><a xlink:href="../../d9/dfe/classautomaton_1_1core_1_1network_1_1connection.html#a437d58abd85c1a164dac2409469e2e11" target="_top" xlink:title=" ">
<polygon fill="white" stroke="black" points="267,-44 267,-85 392,-85 392,-44 267,-44"/>
<text text-anchor="start" x="275" y="-73" font-family="Helvetica,sans-Serif" font-size="10.00">automaton::core::network</text>
<text text-anchor="start" x="275" y="-62" font-family="Helvetica,sans-Serif" font-size="10.00">::connection::register</text>
<text text-anchor="middle" x="329.5" y="-51" font-family="Helvetica,sans-Serif" font-size="10.00">_connection_type</text>
</a>
</g>
</g>
<!-- Node69&#45;&gt;Node71 -->
<g id="edge47" class="edge">
<title>Node69&#45;&gt;Node71</title>
<path fill="none" stroke="midnightblue" d="M206.03,-64.5C222.2,-64.5 239.8,-64.5 256.48,-64.5"/>
<polygon fill="midnightblue" stroke="midnightblue" points="256.72,-68 266.72,-64.5 256.72,-61 256.72,-68"/>
</g>
<!-- Node72 -->
<g id="node49" class="node">
<title>Node72</title>
<g id="a_node49"><a xlink:href="../../de/d12/namespaceel_1_1base_1_1debug.html#af8af3a0ae3755b37ede9f5b4c9e8173c" target="_top" xlink:title=" ">
<polygon fill="white" stroke="black" points="262,-6 262,-25 397,-25 397,-6 262,-6"/>
<text text-anchor="middle" x="329.5" y="-13" font-family="Helvetica,sans-Serif" font-size="10.00">el::base::debug::StackTrace</text>
</a>
</g>
</g>
<!-- Node69&#45;&gt;Node72 -->
<g id="edge48" class="edge">
<title>Node69&#45;&gt;Node72</title>
<path fill="none" stroke="midnightblue" d="M195.13,-49.47C212.2,-44.53 231.38,-39.13 249,-34.5 258.07,-32.12 267.76,-29.7 277.14,-27.42"/>
<polygon fill="midnightblue" stroke="midnightblue" points="278.25,-30.75 287.15,-25.01 276.61,-23.94 278.25,-30.75"/>
</g>
</g>
</svg>
