<?xml version="1.0" encoding="UTF-8" standalone="no"?>
<!DOCTYPE svg PUBLIC "-//W3C//DTD SVG 1.1//EN"
 "http://www.w3.org/Graphics/SVG/1.1/DTD/svg11.dtd">
<!-- Generated by graphviz version 2.44.0 ()
 -->
<!-- Title: registry.cc Pages: 1 -->
<!--zoomable 419 -->
<svg id="main" version="1.1" xmlns="http://www.w3.org/2000/svg" xmlns:xlink="http://www.w3.org/1999/xlink" xml:space="preserve" onload="init(evt)">
<style type="text/css"><![CDATA[
.edge:hover path { stroke: red; }
.edge:hover polygon { stroke: red; fill: red; }
]]></style>
<script type="text/javascript"><![CDATA[
var edges = document.getElementsByTagName('g');
if (edges && edges.length) {
  for (var i=0;i<edges.length;i++) {
    if (edges[i].id.substr(0,4)=='edge') {
      edges[i].setAttribute('class','edge');
    }
  }
}
]]></script>
        <defs>
                <circle id="rim" cx="0" cy="0" r="7"/>
                <circle id="rim2" cx="0" cy="0" r="3.5"/>
                <g id="zoomPlus">
                        <use xlink:href="#rim" fill="#404040">
                                <set attributeName="fill" to="#808080" begin="zoomplus.mouseover" end="zoomplus.mouseout"/>
                        </use>
                        <path d="M-4,0h8M0,-4v8" fill="none" stroke="white" stroke-width="1.5" pointer-events="none"/>
                </g>
                <g id="zoomMin">
                        <use xlink:href="#rim" fill="#404040">
                                <set attributeName="fill" to="#808080" begin="zoomminus.mouseover" end="zoomminus.mouseout"/>
                        </use>
                        <path d="M-4,0h8" fill="none" stroke="white" stroke-width="1.5" pointer-events="none"/>
                </g>
                <g id="dirArrow">
                        <path fill="none" stroke="white" stroke-width="1.5" d="M0,-3.0v7 M-2.5,-0.5L0,-3.0L2.5,-0.5"/>
                </g>
               <g id="resetDef">
                       <use xlink:href="#rim2" fill="#404040">
                               <set attributeName="fill" to="#808080" begin="reset.mouseover" end="reset.mouseout"/>
                       </use>
               </g>
        </defs>

<script type="text/javascript">
var viewWidth = 2527;
var viewHeight = 419;
var sectionId = 'dynsection-0';
</script>
<script xlink:href="../../svgpan.js"/>
<svg id="graph" class="graph">
<g id="viewport">
<title>registry.cc</title>
<polygon fill="white" stroke="transparent" points="-4,4 -4,-415 2523,-415 2523,4 -4,4"/>
<!-- Node1 -->
<g id="node1" class="node">
<title>Node1</title>
<g id="a_node1"><a xlink:title=" ">
<polygon fill="#bfbfbf" stroke="black" points="357.5,-391.5 357.5,-410.5 418.5,-410.5 418.5,-391.5 357.5,-391.5"/>
<text text-anchor="middle" x="388" y="-398.5" font-family="Helvetica,sans-Serif" font-size="10.00">registry.cc</text>
</a>
</g>
</g>
<!-- Node2 -->
<g id="node2" class="node">
<title>Node2</title>
<g id="a_node2"><a xlink:href="../../dc/d27/registry_8h.html" target="_top" xlink:title=" ">
<polygon fill="white" stroke="black" points="634.5,-257.5 634.5,-287.5 745.5,-287.5 745.5,-257.5 634.5,-257.5"/>
<text text-anchor="start" x="642.5" y="-275.5" font-family="Helvetica,sans-Serif" font-size="10.00">automaton/core/script</text>
<text text-anchor="middle" x="690" y="-264.5" font-family="Helvetica,sans-Serif" font-size="10.00">/registry.h</text>
</a>
</g>
</g>
<!-- Node1&#45;&gt;Node2 -->
<g id="edge1" class="edge">
<title>Node1&#45;&gt;Node2</title>
<path fill="none" stroke="midnightblue" d="M402.26,-391.49C416.63,-382.76 439.29,-368.58 458,-355 475.64,-342.2 476.56,-333.86 496,-324 536.17,-303.62 585.32,-290.94 624.09,-283.38"/>
<polygon fill="midnightblue" stroke="midnightblue" points="625.04,-286.76 634.22,-281.48 623.75,-279.88 625.04,-286.76"/>
</g>
<!-- Node5 -->
<g id="node5" class="node">
<title>Node5</title>
<g id="a_node5"><a xlink:title=" ">
<polygon fill="white" stroke="#bfbfbf" points="534.5,-0.5 534.5,-19.5 575.5,-19.5 575.5,-0.5 534.5,-0.5"/>
<text text-anchor="middle" x="555" y="-7.5" font-family="Helvetica,sans-Serif" font-size="10.00">string</text>
</a>
</g>
</g>
<!-- Node1&#45;&gt;Node5 -->
<g id="edge34" class="edge">
<title>Node1&#45;&gt;Node5</title>
<path fill="none" stroke="midnightblue" d="M357.23,-396.69C265.46,-385.98 0,-348.51 0,-273.5 0,-273.5 0,-273.5 0,-137.5 0,-29.09 407.65,-13.59 524.21,-11.37"/>
<polygon fill="midnightblue" stroke="midnightblue" points="524.32,-14.87 534.26,-11.2 524.2,-7.87 524.32,-14.87"/>
</g>
<!-- Node14 -->
<g id="node14" class="node">
<title>Node14</title>
<g id="a_node14"><a xlink:href="../../dc/dac/io_8h.html" target="_top" xlink:title=" ">
<polygon fill="white" stroke="black" points="195.5,-196 195.5,-215 308.5,-215 308.5,-196 195.5,-196"/>
<text text-anchor="middle" x="252" y="-203" font-family="Helvetica,sans-Serif" font-size="10.00">automaton/core/io/io.h</text>
</a>
</g>
</g>
<!-- Node1&#45;&gt;Node14 -->
<g id="edge68" class="edge">
<title>Node1&#45;&gt;Node14</title>
<path fill="none" stroke="midnightblue" d="M361.7,-391.48C342.51,-384.21 316.82,-372.19 299,-355 274.51,-331.39 272.48,-320.36 262,-288 255.29,-267.28 253.03,-242.27 252.29,-225.47"/>
<polygon fill="midnightblue" stroke="midnightblue" points="255.79,-225.19 251.99,-215.3 248.79,-225.4 255.79,-225.19"/>
</g>
<!-- Node19 -->
<g id="node19" class="node">
<title>Node19</title>
<g id="a_node19"><a xlink:title=" ">
<polygon fill="white" stroke="#bfbfbf" points="325,-330 325,-349 381,-349 381,-330 325,-330"/>
<text text-anchor="middle" x="353" y="-337" font-family="Helvetica,sans-Serif" font-size="10.00">algorithm</text>
</a>
</g>
</g>
<!-- Node1&#45;&gt;Node19 -->
<g id="edge31" class="edge">
<title>Node1&#45;&gt;Node19</title>
<path fill="none" stroke="midnightblue" d="M382.99,-391.48C377.84,-382.73 369.69,-368.87 363.18,-357.81"/>
<polygon fill="midnightblue" stroke="midnightblue" points="366.09,-355.85 358.01,-349.01 360.06,-359.4 366.09,-355.85"/>
</g>
<!-- Node20 -->
<g id="node20" class="node">
<title>Node20</title>
<g id="a_node20"><a xlink:title=" ">
<polygon fill="white" stroke="#bfbfbf" points="399,-330 399,-349 449,-349 449,-330 399,-330"/>
<text text-anchor="middle" x="424" y="-337" font-family="Helvetica,sans-Serif" font-size="10.00">iomanip</text>
</a>
</g>
</g>
<!-- Node1&#45;&gt;Node20 -->
<g id="edge32" class="edge">
<title>Node1&#45;&gt;Node20</title>
<path fill="none" stroke="midnightblue" d="M393.16,-391.48C398.45,-382.73 406.84,-368.87 413.53,-357.81"/>
<polygon fill="midnightblue" stroke="midnightblue" points="416.67,-359.38 418.85,-349.01 410.68,-355.75 416.67,-359.38"/>
</g>
<!-- Node21 -->
<g id="node21" class="node">
<title>Node21</title>
<g id="a_node21"><a xlink:title=" ">
<polygon fill="white" stroke="#bfbfbf" points="271,-263 271,-282 323,-282 323,-263 271,-263"/>
<text text-anchor="middle" x="297" y="-270" font-family="Helvetica,sans-Serif" font-size="10.00">sstream</text>
</a>
</g>
</g>
<!-- Node1&#45;&gt;Node21 -->
<g id="edge33" class="edge">
<title>Node1&#45;&gt;Node21</title>
<path fill="none" stroke="midnightblue" d="M365.46,-391.46C349.29,-384.18 328.26,-372.15 316,-355 302.76,-336.48 298.61,-310.1 297.38,-292.42"/>
<polygon fill="midnightblue" stroke="midnightblue" points="300.87,-292.06 296.93,-282.23 293.88,-292.37 300.87,-292.06"/>
</g>
<!-- Node22 -->
<g id="node22" class="node">
<title>Node22</title>
<g id="a_node22"><a xlink:title=" ">
<polygon fill="white" stroke="#bfbfbf" points="505,-330 505,-349 583,-349 583,-330 505,-330"/>
<text text-anchor="middle" x="544" y="-337" font-family="Helvetica,sans-Serif" font-size="10.00">unordered_set</text>
</a>
</g>
</g>
<!-- Node1&#45;&gt;Node22 -->
<g id="edge35" class="edge">
<title>Node1&#45;&gt;Node22</title>
<path fill="none" stroke="midnightblue" d="M410.35,-391.48C436.99,-381.31 481.71,-364.26 512.01,-352.7"/>
<polygon fill="midnightblue" stroke="midnightblue" points="513.59,-355.84 521.69,-349.01 511.1,-349.3 513.59,-355.84"/>
</g>
<!-- Node23 -->
<g id="node23" class="node">
<title>Node23</title>
<g id="a_node23"><a xlink:href="../../dc/dd5/protobuf__factory_8h.html" target="_top" xlink:title=" ">
<polygon fill="white" stroke="black" points="1590.5,-324.5 1590.5,-354.5 1725.5,-354.5 1725.5,-324.5 1590.5,-324.5"/>
<text text-anchor="start" x="1598.5" y="-342.5" font-family="Helvetica,sans-Serif" font-size="10.00">automaton/core/data</text>
<text text-anchor="middle" x="1658" y="-331.5" font-family="Helvetica,sans-Serif" font-size="10.00">/protobuf/protobuf_factory.h</text>
</a>
</g>
</g>
<!-- Node1&#45;&gt;Node23 -->
<g id="edge36" class="edge">
<title>Node1&#45;&gt;Node23</title>
<path fill="none" stroke="midnightblue" d="M418.76,-398.56C580.47,-390.98 1333.93,-355.68 1580.02,-344.15"/>
<polygon fill="midnightblue" stroke="midnightblue" points="1580.48,-347.64 1590.31,-343.67 1580.16,-340.64 1580.48,-347.64"/>
</g>
<!-- Node3 -->
<g id="node3" class="node">
<title>Node3</title>
<g id="a_node3"><a xlink:title=" ">
<polygon fill="white" stroke="#bfbfbf" points="851,-196 851,-215 905,-215 905,-196 851,-196"/>
<text text-anchor="middle" x="878" y="-203" font-family="Helvetica,sans-Serif" font-size="10.00">iostream</text>
</a>
</g>
</g>
<!-- Node2&#45;&gt;Node3 -->
<g id="edge2" class="edge">
<title>Node2&#45;&gt;Node3</title>
<path fill="none" stroke="midnightblue" d="M731.22,-257.45C760.71,-247.37 801.33,-233.44 837,-221 839.37,-220.17 841.82,-219.32 844.28,-218.45"/>
<polygon fill="midnightblue" stroke="midnightblue" points="845.46,-221.75 853.73,-215.12 843.14,-215.14 845.46,-221.75"/>
</g>
<!-- Node4 -->
<g id="node4" class="node">
<title>Node4</title>
<g id="a_node4"><a xlink:title=" ">
<polygon fill="white" stroke="#bfbfbf" points="946.5,-62 946.5,-81 997.5,-81 997.5,-62 946.5,-62"/>
<text text-anchor="middle" x="972" y="-69" font-family="Helvetica,sans-Serif" font-size="10.00">memory</text>
</a>
</g>
</g>
<!-- Node2&#45;&gt;Node4 -->
<g id="edge3" class="edge">
<title>Node2&#45;&gt;Node4</title>
<path fill="none" stroke="midnightblue" d="M693.21,-257.41C697.91,-239.67 708.19,-209.21 727,-190 786.72,-129.01 884.41,-95.54 936.56,-81.15"/>
<polygon fill="midnightblue" stroke="midnightblue" points="937.61,-84.5 946.36,-78.53 935.8,-77.73 937.61,-84.5"/>
</g>
<!-- Node2&#45;&gt;Node5 -->
<g id="edge4" class="edge">
<title>Node2&#45;&gt;Node5</title>
<path fill="none" stroke="midnightblue" d="M634.2,-266.91C603.37,-261.19 567.46,-248.58 548,-221 506.28,-161.88 533.41,-68.31 547.75,-29.16"/>
<polygon fill="midnightblue" stroke="midnightblue" points="551.09,-30.22 551.38,-19.63 544.55,-27.73 551.09,-30.22"/>
</g>
<!-- Node6 -->
<g id="node6" class="node">
<title>Node6</title>
<g id="a_node6"><a xlink:title=" ">
<polygon fill="white" stroke="#bfbfbf" points="417.5,-196 417.5,-215 500.5,-215 500.5,-196 417.5,-196"/>
<text text-anchor="middle" x="459" y="-203" font-family="Helvetica,sans-Serif" font-size="10.00">unordered_map</text>
</a>
</g>
</g>
<!-- Node2&#45;&gt;Node6 -->
<g id="edge5" class="edge">
<title>Node2&#45;&gt;Node6</title>
<path fill="none" stroke="midnightblue" d="M640.16,-257.48C597.94,-245.6 538.2,-228.79 499.04,-217.77"/>
<polygon fill="midnightblue" stroke="midnightblue" points="499.88,-214.37 489.31,-215.03 497.99,-221.11 499.88,-214.37"/>
</g>
<!-- Node7 -->
<g id="node7" class="node">
<title>Node7</title>
<g id="a_node7"><a xlink:title=" ">
<polygon fill="white" stroke="#bfbfbf" points="1400.5,-129 1400.5,-148 1439.5,-148 1439.5,-129 1400.5,-129"/>
<text text-anchor="middle" x="1420" y="-136" font-family="Helvetica,sans-Serif" font-size="10.00">utility</text>
</a>
</g>
</g>
<!-- Node2&#45;&gt;Node7 -->
<g id="edge6" class="edge">
<title>Node2&#45;&gt;Node7</title>
<path fill="none" stroke="midnightblue" d="M724.73,-257.43C746.57,-248.09 775.06,-235 799,-221 819.34,-209.11 819.92,-198.21 842,-190 893.63,-170.81 1278.94,-147.55 1390.08,-141.18"/>
<polygon fill="midnightblue" stroke="midnightblue" points="1390.46,-144.66 1400.25,-140.6 1390.06,-137.68 1390.46,-144.66"/>
</g>
<!-- Node8 -->
<g id="node8" class="node">
<title>Node8</title>
<g id="a_node8"><a xlink:title=" ">
<polygon fill="white" stroke="#bfbfbf" points="1309,-0.5 1309,-19.5 1353,-19.5 1353,-0.5 1309,-0.5"/>
<text text-anchor="middle" x="1331" y="-7.5" font-family="Helvetica,sans-Serif" font-size="10.00">vector</text>
</a>
</g>
</g>
<!-- Node2&#45;&gt;Node8 -->
<g id="edge7" class="edge">
<title>Node2&#45;&gt;Node8</title>
<path fill="none" stroke="midnightblue" d="M689.51,-257.47C689.48,-240.59 691.25,-211.81 702,-190 720.35,-152.79 732.46,-145.98 767,-123 834.96,-77.79 858.79,-75.7 938,-56 1069.27,-23.36 1231.18,-14.31 1298.88,-11.87"/>
<polygon fill="midnightblue" stroke="midnightblue" points="1299.04,-15.36 1308.92,-11.53 1298.81,-8.37 1299.04,-15.36"/>
</g>
<!-- Node9 -->
<g id="node9" class="node">
<title>Node9</title>
<g id="a_node9"><a xlink:title=" ">
<polygon fill="white" stroke="#bfbfbf" points="557.5,-196 557.5,-215 642.5,-215 642.5,-196 557.5,-196"/>
<text text-anchor="middle" x="600" y="-203" font-family="Helvetica,sans-Serif" font-size="10.00">boost/regex.hpp</text>
</a>
</g>
</g>
<!-- Node2&#45;&gt;Node9 -->
<g id="edge8" class="edge">
<title>Node2&#45;&gt;Node9</title>
<path fill="none" stroke="midnightblue" d="M670.47,-257.4C655.52,-246.6 634.97,-231.76 619.92,-220.89"/>
<polygon fill="midnightblue" stroke="midnightblue" points="621.93,-218.02 611.78,-215.01 617.84,-223.7 621.93,-218.02"/>
</g>
<!-- Node10 -->
<g id="node10" class="node">
<title>Node10</title>
<g id="a_node10"><a xlink:href="../../de/d06/factory_8h.html" target="_top" xlink:title=" ">
<polygon fill="white" stroke="black" points="1289,-190.5 1289,-220.5 1395,-220.5 1395,-190.5 1289,-190.5"/>
<text text-anchor="start" x="1297" y="-208.5" font-family="Helvetica,sans-Serif" font-size="10.00">automaton/core/data</text>
<text text-anchor="middle" x="1342" y="-197.5" font-family="Helvetica,sans-Serif" font-size="10.00">/factory.h</text>
</a>
</g>
</g>
<!-- Node2&#45;&gt;Node10 -->
<g id="edge9" class="edge">
<title>Node2&#45;&gt;Node10</title>
<path fill="none" stroke="midnightblue" d="M745.59,-265.96C866.27,-253.93 1151.62,-225.48 1278.86,-212.8"/>
<polygon fill="midnightblue" stroke="midnightblue" points="1279.24,-216.27 1288.84,-211.8 1278.54,-209.31 1279.24,-216.27"/>
</g>
<!-- Node12 -->
<g id="node12" class="node">
<title>Node12</title>
<g id="a_node12"><a xlink:href="../../d1/d71/msg_8h.html" target="_top" xlink:title=" ">
<polygon fill="white" stroke="black" points="1000,-123.5 1000,-153.5 1106,-153.5 1106,-123.5 1000,-123.5"/>
<text text-anchor="start" x="1008" y="-141.5" font-family="Helvetica,sans-Serif" font-size="10.00">automaton/core/data</text>
<text text-anchor="middle" x="1053" y="-130.5" font-family="Helvetica,sans-Serif" font-size="10.00">/msg.h</text>
</a>
</g>
</g>
<!-- Node2&#45;&gt;Node12 -->
<g id="edge23" class="edge">
<title>Node2&#45;&gt;Node12</title>
<path fill="none" stroke="midnightblue" d="M699.68,-257.37C713.28,-238.71 739.9,-206.3 771,-190 840.02,-153.82 930.19,-143.01 989.77,-140.07"/>
<polygon fill="midnightblue" stroke="midnightblue" points="989.95,-143.56 999.79,-139.63 989.65,-136.57 989.95,-143.56"/>
</g>
<!-- Node13 -->
<g id="node13" class="node">
<title>Node13</title>
<g id="a_node13"><a xlink:href="../../d7/de3/schema_8h.html" target="_top" xlink:title=" ">
<polygon fill="white" stroke="black" points="1238,-56.5 1238,-86.5 1344,-86.5 1344,-56.5 1238,-56.5"/>
<text text-anchor="start" x="1246" y="-74.5" font-family="Helvetica,sans-Serif" font-size="10.00">automaton/core/data</text>
<text text-anchor="middle" x="1291" y="-63.5" font-family="Helvetica,sans-Serif" font-size="10.00">/schema.h</text>
</a>
</g>
</g>
<!-- Node2&#45;&gt;Node13 -->
<g id="edge24" class="edge">
<title>Node2&#45;&gt;Node13</title>
<path fill="none" stroke="midnightblue" d="M712.92,-257.31C728.1,-247.62 748.21,-234.19 765,-221 781.08,-208.37 780.38,-198.46 799,-190 927.7,-131.54 978.9,-192.19 1115,-154 1167.3,-139.32 1223.58,-110.78 1258.05,-91.67"/>
<polygon fill="midnightblue" stroke="midnightblue" points="1260.17,-94.5 1267.18,-86.55 1256.74,-88.39 1260.17,-94.5"/>
</g>
<!-- Node2&#45;&gt;Node14 -->
<g id="edge25" class="edge">
<title>Node2&#45;&gt;Node14</title>
<path fill="none" stroke="midnightblue" d="M634.08,-263.2C553.44,-251.23 404.75,-229.17 318.56,-216.38"/>
<polygon fill="midnightblue" stroke="midnightblue" points="319.03,-212.91 308.62,-214.9 318,-219.83 319.03,-212.91"/>
</g>
<!-- Node10&#45;&gt;Node4 -->
<g id="edge11" class="edge">
<title>Node10&#45;&gt;Node4</title>
<path fill="none" stroke="midnightblue" d="M1300.34,-190.49C1271.06,-180.55 1231.03,-166.76 1196,-154 1159.78,-140.81 1151.18,-136.31 1115,-123 1078.09,-109.42 1035.56,-94.49 1006.54,-84.42"/>
<polygon fill="midnightblue" stroke="midnightblue" points="1007.47,-81.03 996.87,-81.06 1005.17,-87.65 1007.47,-81.03"/>
</g>
<!-- Node10&#45;&gt;Node5 -->
<g id="edge12" class="edge">
<title>Node10&#45;&gt;Node5</title>
<path fill="none" stroke="midnightblue" d="M1319.92,-190.4C1270.79,-159.84 1147.81,-87.68 1034,-56 948.86,-32.3 677.16,-17.03 585.52,-12.45"/>
<polygon fill="midnightblue" stroke="midnightblue" points="585.66,-8.95 575.5,-11.96 585.32,-15.95 585.66,-8.95"/>
</g>
<!-- Node10&#45;&gt;Node7 -->
<g id="edge13" class="edge">
<title>Node10&#45;&gt;Node7</title>
<path fill="none" stroke="midnightblue" d="M1358.92,-190.4C1371.57,-179.86 1388.83,-165.48 1401.77,-154.69"/>
<polygon fill="midnightblue" stroke="midnightblue" points="1404.12,-157.29 1409.57,-148.19 1399.64,-151.91 1404.12,-157.29"/>
</g>
<!-- Node10&#45;&gt;Node8 -->
<g id="edge14" class="edge">
<title>Node10&#45;&gt;Node8</title>
<path fill="none" stroke="midnightblue" d="M1345.82,-190.36C1352.41,-163.71 1364.19,-104.36 1353,-56 1350.77,-46.36 1346.18,-36.41 1341.76,-28.31"/>
<polygon fill="midnightblue" stroke="midnightblue" points="1344.7,-26.4 1336.64,-19.52 1338.65,-29.92 1344.7,-26.4"/>
</g>
<!-- Node11 -->
<g id="node11" class="node">
<title>Node11</title>
<g id="a_node11"><a xlink:title=" ">
<polygon fill="white" stroke="#bfbfbf" points="2425.5,-0.5 2425.5,-19.5 2460.5,-19.5 2460.5,-0.5 2425.5,-0.5"/>
<text text-anchor="middle" x="2443" y="-7.5" font-family="Helvetica,sans-Serif" font-size="10.00">map</text>
</a>
</g>
</g>
<!-- Node10&#45;&gt;Node11 -->
<g id="edge10" class="edge">
<title>Node10&#45;&gt;Node11</title>
<path fill="none" stroke="midnightblue" d="M1395.23,-192.03C1398.53,-191.32 1401.81,-190.64 1405,-190 1804.42,-109.66 2294.81,-33.58 2415.3,-15.2"/>
<polygon fill="midnightblue" stroke="midnightblue" points="2416.13,-18.61 2425.49,-13.65 2415.08,-11.69 2416.13,-18.61"/>
</g>
<!-- Node10&#45;&gt;Node12 -->
<g id="edge15" class="edge">
<title>Node10&#45;&gt;Node12</title>
<path fill="none" stroke="midnightblue" d="M1288.99,-192.58C1240.26,-181.62 1167.94,-165.35 1116.22,-153.72"/>
<polygon fill="midnightblue" stroke="midnightblue" points="1116.68,-150.24 1106.16,-151.46 1115.15,-157.07 1116.68,-150.24"/>
</g>
<!-- Node10&#45;&gt;Node13 -->
<g id="edge22" class="edge">
<title>Node10&#45;&gt;Node13</title>
<path fill="none" stroke="midnightblue" d="M1336.54,-190.37C1327.84,-167.85 1310.72,-123.53 1300.13,-96.12"/>
<polygon fill="midnightblue" stroke="midnightblue" points="1303.29,-94.59 1296.42,-86.52 1296.76,-97.11 1303.29,-94.59"/>
</g>
<!-- Node12&#45;&gt;Node4 -->
<g id="edge16" class="edge">
<title>Node12&#45;&gt;Node4</title>
<path fill="none" stroke="midnightblue" d="M1035.42,-123.4C1022.29,-112.86 1004.37,-98.48 990.93,-87.69"/>
<polygon fill="midnightblue" stroke="midnightblue" points="992.82,-84.72 982.83,-81.19 988.44,-90.18 992.82,-84.72"/>
</g>
<!-- Node12&#45;&gt;Node5 -->
<g id="edge17" class="edge">
<title>Node12&#45;&gt;Node5</title>
<path fill="none" stroke="midnightblue" d="M1049.44,-123.5C1043.85,-104.66 1031.09,-71.71 1007,-56 937.35,-10.55 675.63,-9.45 585.63,-10.47"/>
<polygon fill="midnightblue" stroke="midnightblue" points="585.48,-6.97 575.52,-10.6 585.57,-13.97 585.48,-6.97"/>
</g>
<!-- Node12&#45;&gt;Node13 -->
<g id="edge18" class="edge">
<title>Node12&#45;&gt;Node13</title>
<path fill="none" stroke="midnightblue" d="M1104.35,-123.48C1140.98,-113.47 1190.41,-99.97 1229.2,-89.38"/>
<polygon fill="midnightblue" stroke="midnightblue" points="1230.61,-92.62 1239.33,-86.61 1228.76,-85.87 1230.61,-92.62"/>
</g>
<!-- Node13&#45;&gt;Node5 -->
<g id="edge20" class="edge">
<title>Node13&#45;&gt;Node5</title>
<path fill="none" stroke="midnightblue" d="M1237.73,-58.24C1233.1,-57.4 1228.48,-56.63 1224,-56 979.55,-21.51 680.99,-13.28 585.74,-11.47"/>
<polygon fill="midnightblue" stroke="midnightblue" points="585.7,-7.97 575.64,-11.29 585.58,-14.97 585.7,-7.97"/>
</g>
<!-- Node13&#45;&gt;Node8 -->
<g id="edge21" class="edge">
<title>Node13&#45;&gt;Node8</title>
<path fill="none" stroke="midnightblue" d="M1300.48,-56.4C1306.17,-47.93 1313.45,-37.1 1319.48,-28.14"/>
<polygon fill="midnightblue" stroke="midnightblue" points="1322.51,-29.91 1325.18,-19.66 1316.7,-26 1322.51,-29.91"/>
</g>
<!-- Node13&#45;&gt;Node11 -->
<g id="edge19" class="edge">
<title>Node13&#45;&gt;Node11</title>
<path fill="none" stroke="midnightblue" d="M1344.25,-67.75C1546.72,-57.29 2264.79,-20.2 2415.23,-12.43"/>
<polygon fill="midnightblue" stroke="midnightblue" points="2415.64,-15.92 2425.44,-11.91 2415.28,-8.93 2415.64,-15.92"/>
</g>
<!-- Node14&#45;&gt;Node5 -->
<g id="edge27" class="edge">
<title>Node14&#45;&gt;Node5</title>
<path fill="none" stroke="midnightblue" d="M296.04,-195.95C340.38,-186.59 404.88,-170.67 424,-154 459.98,-122.62 435.19,-90.68 468,-56 483.55,-39.56 506.45,-28.05 524.85,-20.79"/>
<polygon fill="midnightblue" stroke="midnightblue" points="526.11,-24.05 534.26,-17.28 523.67,-17.49 526.11,-24.05"/>
</g>
<!-- Node15 -->
<g id="node15" class="node">
<title>Node15</title>
<g id="a_node15"><a xlink:title=" ">
<polygon fill="white" stroke="#bfbfbf" points="146,-129 146,-148 192,-148 192,-129 146,-129"/>
<text text-anchor="middle" x="169" y="-136" font-family="Helvetica,sans-Serif" font-size="10.00">chrono</text>
</a>
</g>
</g>
<!-- Node14&#45;&gt;Node15 -->
<g id="edge26" class="edge">
<title>Node14&#45;&gt;Node15</title>
<path fill="none" stroke="midnightblue" d="M240.81,-195.73C227.37,-185.21 204.6,-167.38 188.3,-154.62"/>
<polygon fill="midnightblue" stroke="midnightblue" points="190.05,-151.54 180.02,-148.13 185.73,-157.05 190.05,-151.54"/>
</g>
<!-- Node16 -->
<g id="node16" class="node">
<title>Node16</title>
<g id="a_node16"><a xlink:title=" ">
<polygon fill="white" stroke="#bfbfbf" points="210,-129 210,-148 294,-148 294,-129 210,-129"/>
<text text-anchor="middle" x="252" y="-136" font-family="Helvetica,sans-Serif" font-size="10.00">g3log/g3log.hpp</text>
</a>
</g>
</g>
<!-- Node14&#45;&gt;Node16 -->
<g id="edge28" class="edge">
<title>Node14&#45;&gt;Node16</title>
<path fill="none" stroke="midnightblue" d="M252,-195.73C252,-186.18 252,-170.62 252,-158.28"/>
<polygon fill="midnightblue" stroke="midnightblue" points="255.5,-158.13 252,-148.13 248.5,-158.13 255.5,-158.13"/>
</g>
<!-- Node17 -->
<g id="node17" class="node">
<title>Node17</title>
<g id="a_node17"><a xlink:title=" ">
<polygon fill="white" stroke="#bfbfbf" points="312.5,-129 312.5,-148 415.5,-148 415.5,-129 312.5,-129"/>
<text text-anchor="middle" x="364" y="-136" font-family="Helvetica,sans-Serif" font-size="10.00">g3log/logworker.hpp</text>
</a>
</g>
</g>
<!-- Node14&#45;&gt;Node17 -->
<g id="edge29" class="edge">
<title>Node14&#45;&gt;Node17</title>
<path fill="none" stroke="midnightblue" d="M267.1,-195.73C285.91,-184.82 318.25,-166.05 340.36,-153.22"/>
<polygon fill="midnightblue" stroke="midnightblue" points="342.24,-156.17 349.13,-148.13 338.73,-150.12 342.24,-156.17"/>
</g>
<!-- Node18 -->
<g id="node18" class="node">
<title>Node18</title>
<g id="a_node18"><a xlink:title=" ">
<polygon fill="white" stroke="#bfbfbf" points="28.5,-129 28.5,-148 127.5,-148 127.5,-129 28.5,-129"/>
<text text-anchor="middle" x="78" y="-136" font-family="Helvetica,sans-Serif" font-size="10.00">g3log/loglevels.hpp</text>
</a>
</g>
</g>
<!-- Node14&#45;&gt;Node18 -->
<g id="edge30" class="edge">
<title>Node14&#45;&gt;Node18</title>
<path fill="none" stroke="midnightblue" d="M228.89,-195.87C198.52,-184.52 144.99,-164.52 110.53,-151.65"/>
<polygon fill="midnightblue" stroke="midnightblue" points="111.52,-148.28 100.92,-148.06 109.07,-154.84 111.52,-148.28"/>
</g>
<!-- Node23&#45;&gt;Node3 -->
<g id="edge44" class="edge">
<title>Node23&#45;&gt;Node3</title>
<path fill="none" stroke="midnightblue" d="M1590.24,-335.18C1493.95,-329.65 1312.3,-316.26 1160,-288 1048.59,-267.32 1021.41,-257.12 914,-221 911.87,-220.28 909.69,-219.51 907.5,-218.7"/>
<polygon fill="midnightblue" stroke="midnightblue" points="908.62,-215.38 898.03,-215.05 906.1,-221.91 908.62,-215.38"/>
</g>
<!-- Node23&#45;&gt;Node4 -->
<g id="edge46" class="edge">
<title>Node23&#45;&gt;Node4</title>
<path fill="none" stroke="midnightblue" d="M1590.47,-337.39C1391.92,-333.78 812.29,-320.66 626,-288 526.16,-270.5 468.23,-302.52 408,-221 399.81,-209.92 399.31,-200.69 408,-190 441.96,-148.24 817.56,-93.63 936.26,-77.31"/>
<polygon fill="midnightblue" stroke="midnightblue" points="936.86,-80.76 946.29,-75.94 935.91,-73.82 936.86,-80.76"/>
</g>
<!-- Node23&#45;&gt;Node5 -->
<g id="edge49" class="edge">
<title>Node23&#45;&gt;Node5</title>
<path fill="none" stroke="midnightblue" d="M1590.11,-337.41C1341.27,-333.19 491.07,-316.72 441,-288 399.74,-264.33 376.32,-232.33 398,-190 410.48,-165.63 428.46,-173.18 448,-154 488.97,-113.78 526.65,-56.93 544.37,-28.55"/>
<polygon fill="midnightblue" stroke="midnightblue" points="547.51,-30.12 549.77,-19.77 541.55,-26.45 547.51,-30.12"/>
</g>
<!-- Node23&#45;&gt;Node7 -->
<g id="edge50" class="edge">
<title>Node23&#45;&gt;Node7</title>
<path fill="none" stroke="midnightblue" d="M1725.77,-334.68C1914.21,-322.85 2425.01,-281.93 2338,-190 2306.76,-156.99 1604.33,-142.74 1449.86,-140"/>
<polygon fill="midnightblue" stroke="midnightblue" points="1449.76,-136.5 1439.7,-139.82 1449.64,-143.5 1449.76,-136.5"/>
</g>
<!-- Node23&#45;&gt;Node8 -->
<g id="edge51" class="edge">
<title>Node23&#45;&gt;Node8</title>
<path fill="none" stroke="midnightblue" d="M1725.8,-336.74C1915.07,-331.5 2436.94,-314.68 2462,-288 2471.43,-277.96 2468.08,-269.36 2462,-257 2360.55,-50.82 1537.64,-16.69 1363.36,-11.76"/>
<polygon fill="midnightblue" stroke="midnightblue" points="1363.37,-8.26 1353.27,-11.49 1363.18,-15.26 1363.37,-8.26"/>
</g>
<!-- Node23&#45;&gt;Node10 -->
<g id="edge52" class="edge">
<title>Node23&#45;&gt;Node10</title>
<path fill="none" stroke="midnightblue" d="M1592.81,-324.47C1558.24,-315.95 1515.49,-303.68 1479,-288 1439.48,-271.02 1397.45,-244.61 1370.52,-226.49"/>
<polygon fill="midnightblue" stroke="midnightblue" points="1372.23,-223.42 1361.99,-220.69 1368.29,-229.21 1372.23,-223.42"/>
</g>
<!-- Node23&#45;&gt;Node11 -->
<g id="edge45" class="edge">
<title>Node23&#45;&gt;Node11</title>
<path fill="none" stroke="midnightblue" d="M1725.81,-338.16C1911.04,-336.69 2415.94,-328.94 2478,-288 2511.85,-265.67 2519,-247.05 2519,-206.5 2519,-206.5 2519,-206.5 2519,-137.5 2519,-92.12 2482.62,-48.98 2460.2,-26.7"/>
<polygon fill="midnightblue" stroke="midnightblue" points="2462.57,-24.13 2452.94,-19.73 2457.72,-29.18 2462.57,-24.13"/>
</g>
<!-- Node23&#45;&gt;Node13 -->
<g id="edge67" class="edge">
<title>Node23&#45;&gt;Node13</title>
<path fill="none" stroke="midnightblue" d="M1725.7,-336.35C1858.11,-331.55 2146.64,-317.91 2241,-288 2305.01,-267.71 2400.8,-240.02 2356,-190 2288.8,-114.98 1573.15,-82.8 1354.25,-74.67"/>
<polygon fill="midnightblue" stroke="midnightblue" points="1354.33,-71.17 1344.21,-74.3 1354.07,-78.16 1354.33,-71.17"/>
</g>
<!-- Node23&#45;&gt;Node21 -->
<g id="edge47" class="edge">
<title>Node23&#45;&gt;Node21</title>
<path fill="none" stroke="midnightblue" d="M1590.37,-338.67C1356.15,-338.82 580.69,-335.62 337,-288 333.56,-287.33 330.02,-286.41 326.54,-285.35"/>
<polygon fill="midnightblue" stroke="midnightblue" points="327.6,-282.02 317,-282.12 325.35,-288.65 327.6,-282.02"/>
</g>
<!-- Node24 -->
<g id="node24" class="node">
<title>Node24</title>
<g id="a_node24"><a xlink:title=" ">
<polygon fill="white" stroke="#bfbfbf" points="2024.5,-196 2024.5,-215 2161.5,-215 2161.5,-196 2024.5,-196"/>
<text text-anchor="middle" x="2093" y="-203" font-family="Helvetica,sans-Serif" font-size="10.00">google/protobuf/descriptor.h</text>
</a>
</g>
</g>
<!-- Node23&#45;&gt;Node24 -->
<g id="edge37" class="edge">
<title>Node23&#45;&gt;Node24</title>
<path fill="none" stroke="midnightblue" d="M1704.14,-324.5C1790.64,-298.25 1975.6,-242.12 2055.24,-217.96"/>
<polygon fill="midnightblue" stroke="midnightblue" points="2056.32,-221.29 2064.87,-215.04 2054.28,-214.59 2056.32,-221.29"/>
</g>
<!-- Node25 -->
<g id="node25" class="node">
<title>Node25</title>
<g id="a_node25"><a xlink:title=" ">
<polygon fill="white" stroke="#bfbfbf" points="2179.5,-196 2179.5,-215 2328.5,-215 2328.5,-196 2179.5,-196"/>
<text text-anchor="middle" x="2254" y="-203" font-family="Helvetica,sans-Serif" font-size="10.00">google/protobuf/descriptor.pb.h</text>
</a>
</g>
</g>
<!-- Node23&#45;&gt;Node25 -->
<g id="edge38" class="edge">
<title>Node23&#45;&gt;Node25</title>
<path fill="none" stroke="midnightblue" d="M1722.74,-324.43C1769.06,-314.34 1832.88,-300.4 1889,-288 2002.91,-262.83 2136.71,-232.85 2206.38,-217.2"/>
<polygon fill="midnightblue" stroke="midnightblue" points="2207.19,-220.61 2216.18,-215 2205.66,-213.78 2207.19,-220.61"/>
</g>
<!-- Node26 -->
<g id="node26" class="node">
<title>Node26</title>
<g id="a_node26"><a xlink:title=" ">
<polygon fill="white" stroke="#bfbfbf" points="923,-190.5 923,-220.5 1045,-220.5 1045,-190.5 923,-190.5"/>
<text text-anchor="start" x="931" y="-208.5" font-family="Helvetica,sans-Serif" font-size="10.00">google/protobuf/dynamic</text>
<text text-anchor="middle" x="984" y="-197.5" font-family="Helvetica,sans-Serif" font-size="10.00">_message.h</text>
</a>
</g>
</g>
<!-- Node23&#45;&gt;Node26 -->
<g id="edge39" class="edge">
<title>Node23&#45;&gt;Node26</title>
<path fill="none" stroke="midnightblue" d="M1590.32,-331.6C1516.73,-323.53 1395.87,-308.6 1293,-288 1203.59,-270.09 1101.63,-241.59 1040.08,-223.47"/>
<polygon fill="midnightblue" stroke="midnightblue" points="1040.77,-220.03 1030.18,-220.55 1038.78,-226.74 1040.77,-220.03"/>
</g>
<!-- Node27 -->
<g id="node27" class="node">
<title>Node27</title>
<g id="a_node27"><a xlink:title=" ">
<polygon fill="white" stroke="#bfbfbf" points="1063,-190.5 1063,-220.5 1157,-220.5 1157,-190.5 1063,-190.5"/>
<text text-anchor="start" x="1071" y="-208.5" font-family="Helvetica,sans-Serif" font-size="10.00">google/protobuf/io</text>
<text text-anchor="middle" x="1110" y="-197.5" font-family="Helvetica,sans-Serif" font-size="10.00">/tokenizer.h</text>
</a>
</g>
</g>
<!-- Node23&#45;&gt;Node27 -->
<g id="edge40" class="edge">
<title>Node23&#45;&gt;Node27</title>
<path fill="none" stroke="midnightblue" d="M1590.5,-325.44C1541.84,-315.78 1474.67,-301.92 1416,-288 1328.72,-267.29 1228.39,-239.87 1167.1,-222.71"/>
<polygon fill="midnightblue" stroke="midnightblue" points="1167.81,-219.27 1157.24,-219.94 1165.92,-226.01 1167.81,-219.27"/>
</g>
<!-- Node28 -->
<g id="node28" class="node">
<title>Node28</title>
<g id="a_node28"><a xlink:title=" ">
<polygon fill="white" stroke="#bfbfbf" points="1593.5,-190.5 1593.5,-220.5 1722.5,-220.5 1722.5,-190.5 1593.5,-190.5"/>
<text text-anchor="start" x="1601.5" y="-208.5" font-family="Helvetica,sans-Serif" font-size="10.00">google/protobuf/io</text>
<text text-anchor="middle" x="1658" y="-197.5" font-family="Helvetica,sans-Serif" font-size="10.00">/zero_copy_stream_impl.h</text>
</a>
</g>
</g>
<!-- Node23&#45;&gt;Node28 -->
<g id="edge41" class="edge">
<title>Node23&#45;&gt;Node28</title>
<path fill="none" stroke="midnightblue" d="M1658,-324.37C1658,-302.04 1658,-258.31 1658,-230.85"/>
<polygon fill="midnightblue" stroke="midnightblue" points="1661.5,-230.52 1658,-220.52 1654.5,-230.52 1661.5,-230.52"/>
</g>
<!-- Node29 -->
<g id="node29" class="node">
<title>Node29</title>
<g id="a_node29"><a xlink:title=" ">
<polygon fill="white" stroke="#bfbfbf" points="1740.5,-196 1740.5,-215 1853.5,-215 1853.5,-196 1740.5,-196"/>
<text text-anchor="middle" x="1797" y="-203" font-family="Helvetica,sans-Serif" font-size="10.00">google/protobuf/map.h</text>
</a>
</g>
</g>
<!-- Node23&#45;&gt;Node29 -->
<g id="edge42" class="edge">
<title>Node23&#45;&gt;Node29</title>
<path fill="none" stroke="midnightblue" d="M1672.88,-324.37C1699.02,-299.54 1753.05,-248.24 1780.38,-222.28"/>
<polygon fill="midnightblue" stroke="midnightblue" points="1783.11,-224.52 1787.95,-215.1 1778.29,-219.45 1783.11,-224.52"/>
</g>
<!-- Node30 -->
<g id="node30" class="node">
<title>Node30</title>
<g id="a_node30"><a xlink:title=" ">
<polygon fill="white" stroke="#bfbfbf" points="1872,-196 1872,-215 2006,-215 2006,-196 1872,-196"/>
<text text-anchor="middle" x="1939" y="-203" font-family="Helvetica,sans-Serif" font-size="10.00">google/protobuf/message.h</text>
</a>
</g>
</g>
<!-- Node23&#45;&gt;Node30 -->
<g id="edge43" class="edge">
<title>Node23&#45;&gt;Node30</title>
<path fill="none" stroke="midnightblue" d="M1687.81,-324.5C1742.59,-298.76 1858.52,-244.3 1911.52,-219.41"/>
<polygon fill="midnightblue" stroke="midnightblue" points="1913.09,-222.54 1920.66,-215.12 1910.12,-216.2 1913.09,-222.54"/>
</g>
<!-- Node31 -->
<g id="node31" class="node">
<title>Node31</title>
<g id="a_node31"><a xlink:title=" ">
<polygon fill="white" stroke="#bfbfbf" points="2411.5,-263 2411.5,-282 2452.5,-282 2452.5,-263 2411.5,-263"/>
<text text-anchor="middle" x="2432" y="-270" font-family="Helvetica,sans-Serif" font-size="10.00">stack</text>
</a>
</g>
</g>
<!-- Node23&#45;&gt;Node31 -->
<g id="edge48" class="edge">
<title>Node23&#45;&gt;Node31</title>
<path fill="none" stroke="midnightblue" d="M1725.6,-336.68C1883.06,-331.98 2270.47,-317.69 2397,-288 2399.67,-287.37 2402.4,-286.57 2405.09,-285.65"/>
<polygon fill="midnightblue" stroke="midnightblue" points="2406.48,-288.87 2414.56,-282.03 2403.97,-282.34 2406.48,-288.87"/>
</g>
<!-- Node32 -->
<g id="node32" class="node">
<title>Node32</title>
<g id="a_node32"><a xlink:href="../../d5/de1/protobuf__msg_8h.html" target="_top" xlink:title=" ">
<polygon fill="white" stroke="black" points="1487.5,-257.5 1487.5,-287.5 1612.5,-287.5 1612.5,-257.5 1487.5,-257.5"/>
<text text-anchor="start" x="1495.5" y="-275.5" font-family="Helvetica,sans-Serif" font-size="10.00">automaton/core/data</text>
<text text-anchor="middle" x="1550" y="-264.5" font-family="Helvetica,sans-Serif" font-size="10.00">/protobuf/protobuf_msg.h</text>
</a>
</g>
</g>
<!-- Node23&#45;&gt;Node32 -->
<g id="edge53" class="edge">
<title>Node23&#45;&gt;Node32</title>
<path fill="none" stroke="midnightblue" d="M1634.57,-324.4C1619.28,-315.2 1599.12,-303.07 1582.32,-292.95"/>
<polygon fill="midnightblue" stroke="midnightblue" points="1583.76,-289.73 1573.39,-287.58 1580.15,-295.73 1583.76,-289.73"/>
</g>
<!-- Node32&#45;&gt;Node4 -->
<g id="edge62" class="edge">
<title>Node32&#45;&gt;Node4</title>
<path fill="none" stroke="midnightblue" d="M1487.34,-265.28C1409.21,-256.85 1280.62,-240.59 1237,-221 1217.12,-212.07 1218.83,-199.04 1199,-190 1113.64,-151.07 1059.22,-218.4 991,-154 974.03,-137.98 970.87,-109.97 970.88,-91.33"/>
<polygon fill="midnightblue" stroke="midnightblue" points="974.38,-91.22 971.2,-81.12 967.39,-91.01 974.38,-91.22"/>
</g>
<!-- Node32&#45;&gt;Node5 -->
<g id="edge63" class="edge">
<title>Node32&#45;&gt;Node5</title>
<path fill="none" stroke="midnightblue" d="M1487.31,-267.03C1400.47,-260.06 1248.65,-244.89 1199,-221 1180.87,-212.27 1183.96,-199.08 1166,-190 1086.95,-150.05 1055.67,-176.49 970,-154 823.12,-115.44 653.45,-50.27 585.47,-23.27"/>
<polygon fill="midnightblue" stroke="midnightblue" points="586.4,-19.88 575.82,-19.43 583.81,-26.38 586.4,-19.88"/>
</g>
<!-- Node32&#45;&gt;Node10 -->
<g id="edge64" class="edge">
<title>Node32&#45;&gt;Node10</title>
<path fill="none" stroke="midnightblue" d="M1505.12,-257.48C1473.38,-247.56 1430.64,-234.2 1396.87,-223.65"/>
<polygon fill="midnightblue" stroke="midnightblue" points="1397.74,-220.25 1387.15,-220.61 1395.66,-226.93 1397.74,-220.25"/>
</g>
<!-- Node32&#45;&gt;Node12 -->
<g id="edge65" class="edge">
<title>Node32&#45;&gt;Node12</title>
<path fill="none" stroke="midnightblue" d="M1487.44,-267.59C1431.23,-262.28 1347.4,-249.87 1280,-221 1258.34,-211.72 1258.25,-200.17 1237,-190 1225.82,-184.65 1164.8,-168.29 1116.06,-155.63"/>
<polygon fill="midnightblue" stroke="midnightblue" points="1116.73,-152.19 1106.18,-153.07 1114.98,-158.96 1116.73,-152.19"/>
</g>
<!-- Node32&#45;&gt;Node13 -->
<g id="edge66" class="edge">
<title>Node32&#45;&gt;Node13</title>
<path fill="none" stroke="midnightblue" d="M1552.91,-257.21C1555.63,-240.08 1557.71,-211.05 1546,-190 1507.78,-121.3 1416.52,-92.53 1354.21,-80.64"/>
<polygon fill="midnightblue" stroke="midnightblue" points="1354.55,-77.15 1344.09,-78.81 1353.3,-84.03 1354.55,-77.15"/>
</g>
<!-- Node32&#45;&gt;Node24 -->
<g id="edge55" class="edge">
<title>Node32&#45;&gt;Node24</title>
<path fill="none" stroke="midnightblue" d="M1612.62,-266.21C1702.1,-258.32 1871.59,-242.09 2015,-221 2023.14,-219.8 2031.72,-218.38 2040.11,-216.89"/>
<polygon fill="midnightblue" stroke="midnightblue" points="2040.97,-220.29 2050.18,-215.06 2039.72,-213.4 2040.97,-220.29"/>
</g>
<!-- Node32&#45;&gt;Node25 -->
<g id="edge56" class="edge">
<title>Node32&#45;&gt;Node25</title>
<path fill="none" stroke="midnightblue" d="M1612.78,-268.31C1725.09,-262.16 1967.67,-246.97 2171,-221 2180.27,-219.82 2190.08,-218.32 2199.59,-216.74"/>
<polygon fill="midnightblue" stroke="midnightblue" points="2200.48,-220.14 2209.75,-215.01 2199.3,-213.24 2200.48,-220.14"/>
</g>
<!-- Node32&#45;&gt;Node26 -->
<g id="edge57" class="edge">
<title>Node32&#45;&gt;Node26</title>
<path fill="none" stroke="midnightblue" d="M1487.49,-267.21C1395.12,-260.41 1216.57,-245.51 1055.13,-221.07"/>
<polygon fill="midnightblue" stroke="midnightblue" points="1055.43,-217.58 1045.02,-219.52 1054.37,-224.5 1055.43,-217.58"/>
</g>
<!-- Node32&#45;&gt;Node27 -->
<g id="edge58" class="edge">
<title>Node32&#45;&gt;Node27</title>
<path fill="none" stroke="midnightblue" d="M1487.32,-265.11C1411.92,-256.97 1281.64,-241.47 1171,-221 1169.74,-220.77 1168.46,-220.52 1167.17,-220.27"/>
<polygon fill="midnightblue" stroke="midnightblue" points="1167.69,-216.81 1157.19,-218.21 1166.28,-223.66 1167.69,-216.81"/>
</g>
<!-- Node32&#45;&gt;Node28 -->
<g id="edge59" class="edge">
<title>Node32&#45;&gt;Node28</title>
<path fill="none" stroke="midnightblue" d="M1573.43,-257.4C1588.72,-248.2 1608.88,-236.07 1625.68,-225.95"/>
<polygon fill="midnightblue" stroke="midnightblue" points="1627.85,-228.73 1634.61,-220.58 1624.24,-222.73 1627.85,-228.73"/>
</g>
<!-- Node32&#45;&gt;Node29 -->
<g id="edge60" class="edge">
<title>Node32&#45;&gt;Node29</title>
<path fill="none" stroke="midnightblue" d="M1603.29,-257.48C1648.62,-245.55 1712.85,-228.64 1754.72,-217.63"/>
<polygon fill="midnightblue" stroke="midnightblue" points="1755.81,-220.96 1764.59,-215.03 1754.03,-214.19 1755.81,-220.96"/>
</g>
<!-- Node32&#45;&gt;Node30 -->
<g id="edge61" class="edge">
<title>Node32&#45;&gt;Node30</title>
<path fill="none" stroke="midnightblue" d="M1612.74,-261.92C1676,-252.13 1776.4,-236.24 1863,-221 1870.19,-219.74 1877.74,-218.35 1885.19,-216.96"/>
<polygon fill="midnightblue" stroke="midnightblue" points="1886.05,-220.36 1895.23,-215.07 1884.76,-213.48 1886.05,-220.36"/>
</g>
<!-- Node33 -->
<g id="node33" class="node">
<title>Node33</title>
<g id="a_node33"><a xlink:title=" ">
<polygon fill="white" stroke="#bfbfbf" points="1413.5,-190.5 1413.5,-220.5 1536.5,-220.5 1536.5,-190.5 1413.5,-190.5"/>
<text text-anchor="start" x="1421.5" y="-208.5" font-family="Helvetica,sans-Serif" font-size="10.00">google/protobuf/compiler</text>
<text text-anchor="middle" x="1475" y="-197.5" font-family="Helvetica,sans-Serif" font-size="10.00">/parser.h</text>
</a>
</g>
</g>
<!-- Node32&#45;&gt;Node33 -->
<g id="edge54" class="edge">
<title>Node32&#45;&gt;Node33</title>
<path fill="none" stroke="midnightblue" d="M1533.73,-257.4C1523.6,-248.62 1510.4,-237.18 1499.08,-227.37"/>
<polygon fill="midnightblue" stroke="midnightblue" points="1501.09,-224.48 1491.24,-220.58 1496.51,-229.77 1501.09,-224.48"/>
</g>
</g>
</svg>
        <g id="navigator" transform="translate(0 0)" fill="#404254">
                <rect fill="#f2f5e9" fill-opacity="0.5" stroke="#606060" stroke-width=".5" x="0" y="0" width="60" height="60"/>
                <use id="zoomplus" xlink:href="#zoomPlus" x="17" y="9" onmousedown="handleZoom(evt,'in')"/>
                <use id="zoomminus" xlink:href="#zoomMin" x="42" y="9" onmousedown="handleZoom(evt,'out')"/>
                <use id="reset" xlink:href="#resetDef" x="30" y="36" onmousedown="handleReset()"/>
                <g id="arrowUp" xlink:href="#dirArrow" transform="translate(30 24)" onmousedown="handlePan(0,-1)">
                  <use xlink:href="#rim" fill="#404040">
                        <set attributeName="fill" to="#808080" begin="arrowUp.mouseover" end="arrowUp.mouseout"/>
                  </use>
                  <path fill="none" stroke="white" stroke-width="1.5" d="M0,-3.0v7 M-2.5,-0.5L0,-3.0L2.5,-0.5"/>
                </g>
                <g id="arrowRight" xlink:href="#dirArrow" transform="rotate(90) translate(36 -43)" onmousedown="handlePan(1,0)">
                  <use xlink:href="#rim" fill="#404040">
                        <set attributeName="fill" to="#808080" begin="arrowRight.mouseover" end="arrowRight.mouseout"/>
                  </use>
                  <path fill="none" stroke="white" stroke-width="1.5" d="M0,-3.0v7 M-2.5,-0.5L0,-3.0L2.5,-0.5"/>
                </g>
                <g id="arrowDown" xlink:href="#dirArrow" transform="rotate(180) translate(-30 -48)" onmousedown="handlePan(0,1)">
                  <use xlink:href="#rim" fill="#404040">
                        <set attributeName="fill" to="#808080" begin="arrowDown.mouseover" end="arrowDown.mouseout"/>
                  </use>
                  <path fill="none" stroke="white" stroke-width="1.5" d="M0,-3.0v7 M-2.5,-0.5L0,-3.0L2.5,-0.5"/>
                </g>
                <g id="arrowLeft" xlink:href="#dirArrow" transform="rotate(270) translate(-36 17)" onmousedown="handlePan(-1,0)">
                  <use xlink:href="#rim" fill="#404040">
                        <set attributeName="fill" to="#808080" begin="arrowLeft.mouseover" end="arrowLeft.mouseout"/>
                  </use>
                  <path fill="none" stroke="white" stroke-width="1.5" d="M0,-3.0v7 M-2.5,-0.5L0,-3.0L2.5,-0.5"/>
                </g>
        </g>
        <svg viewBox="0 0 15 15" width="100%" height="30px" preserveAspectRatio="xMaxYMin meet">
         <g id="arrow_out" transform="scale(0.3 0.3)">
          <a xlink:href="registry_8cc__incl_org.svg" target="_base">
           <rect id="button" ry="5" rx="5" y="6" x="6" height="38" width="38"
                fill="#f2f5e9" fill-opacity="0.5" stroke="#606060" stroke-width="1.0"/>
           <path id="arrow"
             d="M 11.500037,31.436501 C 11.940474,20.09759 22.043105,11.32322 32.158766,21.979434 L 37.068811,17.246167 C 37.068811,17.246167 37.088388,32 37.088388,32 L 22.160133,31.978069 C 22.160133,31.978069 26.997745,27.140456 26.997745,27.140456 C 18.528582,18.264221 13.291696,25.230495 11.500037,31.436501 z"
             style="fill:#404040;"/>
          </a>
         </g>
        </svg>
</svg>
