<?xml version="1.0" encoding="UTF-8" standalone="no"?>
<!DOCTYPE svg PUBLIC "-//W3C//DTD SVG 1.1//EN"
 "http://www.w3.org/Graphics/SVG/1.1/DTD/svg11.dtd">
<!-- Generated by graphviz version 2.42.3 ()
 -->
<!-- Title: testnet.h Pages: 1 -->
<svg width="134pt" height="84pt"
 viewBox="0.00 0.00 133.50 84.00" xmlns="http://www.w3.org/2000/svg" xmlns:xlink="http://www.w3.org/1999/xlink">
<g id="graph0" class="graph" transform="scale(1 1) rotate(0) translate(4 80)">
<title>testnet.h</title>
<polygon fill="white" stroke="transparent" points="-4,4 -4,-80 129.5,-80 129.5,4 -4,4"/>
<!-- Node1 -->
<g id="node1" class="node">
<title>Node1</title>
<g id="a_node1"><a xlink:title=" ">
<polygon fill="#bfbfbf" stroke="black" points="33,-56.5 33,-75.5 87,-75.5 87,-56.5 33,-56.5"/>
<text text-anchor="middle" x="60" y="-63.5" font-family="Helvetica,sans-Serif" font-size="10.00">testnet.h</text>
</a>
</g>
</g>
<!-- Node2 -->
<g id="node2" class="node">
<title>Node2</title>
<g id="a_node2"><a xlink:href="../../dd/de7/core_8cc.html" target="_top" xlink:title=" ">
<polygon fill="white" stroke="black" points="0,-0.5 0,-19.5 48,-19.5 48,-0.5 0,-0.5"/>
<text text-anchor="middle" x="24" y="-7.5" font-family="Helvetica,sans-Serif" font-size="10.00">core.cc</text>
</a>
</g>
</g>
<!-- Node1&#45;&gt;Node2 -->
<g id="edge1" class="edge">
<title>Node1&#45;&gt;Node2</title>
<path fill="none" stroke="midnightblue" d="M48.38,-47.57C42.18,-38.27 34.83,-27.25 29.83,-19.75"/>
<polygon fill="midnightblue" stroke="midnightblue" points="45.6,-49.7 54.06,-56.08 51.42,-45.82 45.6,-49.7"/>
</g>
<!-- Node3 -->
<g id="node3" class="node">
<title>Node3</title>
<g id="a_node3"><a xlink:href="../../df/dd2/testnet_8cc.html" target="_top" xlink:title=" ">
<polygon fill="white" stroke="black" points="66.5,-0.5 66.5,-19.5 125.5,-19.5 125.5,-0.5 66.5,-0.5"/>
<text text-anchor="middle" x="96" y="-7.5" font-family="Helvetica,sans-Serif" font-size="10.00">testnet.cc</text>
</a>
</g>
</g>
<!-- Node1&#45;&gt;Node3 -->
<g id="edge2" class="edge">
<title>Node1&#45;&gt;Node3</title>
<path fill="none" stroke="midnightblue" d="M71.62,-47.57C77.82,-38.27 85.17,-27.25 90.17,-19.75"/>
<polygon fill="midnightblue" stroke="midnightblue" points="68.58,-45.82 65.94,-56.08 74.4,-49.7 68.58,-45.82"/>
</g>
</g>
</svg>
