<?xml version="1.0" encoding="UTF-8" standalone="no"?>
<!DOCTYPE svg PUBLIC "-//W3C//DTD SVG 1.1//EN"
 "http://www.w3.org/Graphics/SVG/1.1/DTD/svg11.dtd">
<!-- Generated by graphviz version 2.44.0 ()
 -->
<!-- Title: automaton::core::common::versions::automaton_core_version_string Pages: 1 -->
<svg width="300pt" height="170pt"
 viewBox="0.00 0.00 300.00 170.00" xmlns="http://www.w3.org/2000/svg" xmlns:xlink="http://www.w3.org/1999/xlink">
<g id="graph0" class="graph" transform="scale(1 1) rotate(0) translate(4 166)">
<title>automaton::core::common::versions::automaton_core_version_string</title>
<polygon fill="white" stroke="transparent" points="-4,4 -4,-166 296,-166 296,4 -4,4"/>
<!-- Node1 -->
<g id="node1" class="node">
<title>Node1</title>
<g id="a_node1"><a xlink:title=" ">
<polygon fill="#bfbfbf" stroke="black" points="0,-60.5 0,-101.5 128,-101.5 128,-60.5 0,-60.5"/>
<text text-anchor="start" x="8" y="-89.5" font-family="Helvetica,sans-Serif" font-size="10.00">automaton::core::common</text>
<text text-anchor="start" x="8" y="-78.5" font-family="Helvetica,sans-Serif" font-size="10.00">::versions::automaton</text>
<text text-anchor="middle" x="64" y="-67.5" font-family="Helvetica,sans-Serif" font-size="10.00">_core_version_string</text>
</a>
</g>
</g>
<!-- Node2 -->
<g id="node2" class="node">
<title>Node2</title>
<g id="a_node2"><a xlink:href="../../de/dc2/classautomaton_1_1core_1_1common_1_1versions.html#a2c643b2990d76a9c3b1e121bd826a7e8" target="_top" xlink:title=" ">
<polygon fill="white" stroke="black" points="164,-120.5 164,-161.5 292,-161.5 292,-120.5 164,-120.5"/>
<text text-anchor="start" x="172" y="-149.5" font-family="Helvetica,sans-Serif" font-size="10.00">automaton::core::common</text>
<text text-anchor="start" x="172" y="-138.5" font-family="Helvetica,sans-Serif" font-size="10.00">::versions::automaton</text>
<text text-anchor="middle" x="228" y="-127.5" font-family="Helvetica,sans-Serif" font-size="10.00">_core_major</text>
</a>
</g>
</g>
<!-- Node1&#45;&gt;Node2 -->
<g id="edge1" class="edge">
<title>Node1&#45;&gt;Node2</title>
<path fill="none" stroke="midnightblue" d="M120.75,-101.65C133.93,-106.53 148.11,-111.78 161.67,-116.81"/>
<polygon fill="midnightblue" stroke="midnightblue" points="160.83,-120.22 171.42,-120.42 163.26,-113.66 160.83,-120.22"/>
</g>
<!-- Node3 -->
<g id="node3" class="node">
<title>Node3</title>
<g id="a_node3"><a xlink:href="../../de/dc2/classautomaton_1_1core_1_1common_1_1versions.html#ae832611525749b43a958d97d0157ebd2" target="_top" xlink:title=" ">
<polygon fill="white" stroke="black" points="164,-60.5 164,-101.5 292,-101.5 292,-60.5 164,-60.5"/>
<text text-anchor="start" x="172" y="-89.5" font-family="Helvetica,sans-Serif" font-size="10.00">automaton::core::common</text>
<text text-anchor="start" x="172" y="-78.5" font-family="Helvetica,sans-Serif" font-size="10.00">::versions::automaton</text>
<text text-anchor="middle" x="228" y="-67.5" font-family="Helvetica,sans-Serif" font-size="10.00">_core_minor</text>
</a>
</g>
</g>
<!-- Node1&#45;&gt;Node3 -->
<g id="edge2" class="edge">
<title>Node1&#45;&gt;Node3</title>
<path fill="none" stroke="midnightblue" d="M128.1,-81C136.43,-81 145.04,-81 153.53,-81"/>
<polygon fill="midnightblue" stroke="midnightblue" points="153.81,-84.5 163.81,-81 153.81,-77.5 153.81,-84.5"/>
</g>
<!-- Node4 -->
<g id="node4" class="node">
<title>Node4</title>
<g id="a_node4"><a xlink:href="../../de/dc2/classautomaton_1_1core_1_1common_1_1versions.html#aca9c734b69f2a237617be979f62a4a83" target="_top" xlink:title=" ">
<polygon fill="white" stroke="black" points="164,-0.5 164,-41.5 292,-41.5 292,-0.5 164,-0.5"/>
<text text-anchor="start" x="172" y="-29.5" font-family="Helvetica,sans-Serif" font-size="10.00">automaton::core::common</text>
<text text-anchor="start" x="172" y="-18.5" font-family="Helvetica,sans-Serif" font-size="10.00">::versions::automaton</text>
<text text-anchor="middle" x="228" y="-7.5" font-family="Helvetica,sans-Serif" font-size="10.00">_core_revision</text>
</a>
</g>
</g>
<!-- Node1&#45;&gt;Node4 -->
<g id="edge3" class="edge">
<title>Node1&#45;&gt;Node4</title>
<path fill="none" stroke="midnightblue" d="M120.75,-60.35C133.93,-55.47 148.11,-50.22 161.67,-45.19"/>
<polygon fill="midnightblue" stroke="midnightblue" points="163.26,-48.34 171.42,-41.58 160.83,-41.78 163.26,-48.34"/>
</g>
</g>
</svg>
