<?xml version="1.0" encoding="UTF-8" standalone="no"?>
<!DOCTYPE svg PUBLIC "-//W3C//DTD SVG 1.1//EN"
 "http://www.w3.org/Graphics/SVG/1.1/DTD/svg11.dtd">
<!-- Generated by graphviz version 2.44.0 ()
 -->
<!-- Title: automaton::core::data::protobuf::io_error_collector::get_number_errors Pages: 1 -->
<svg width="294pt" height="61pt"
 viewBox="0.00 0.00 294.00 61.00" xmlns="http://www.w3.org/2000/svg" xmlns:xlink="http://www.w3.org/1999/xlink">
<g id="graph0" class="graph" transform="scale(1 1) rotate(0) translate(4 57)">
<title>automaton::core::data::protobuf::io_error_collector::get_number_errors</title>
<polygon fill="white" stroke="transparent" points="-4,4 -4,-57 290,-57 290,4 -4,4"/>
<!-- Node1 -->
<g id="node1" class="node">
<title>Node1</title>
<g id="a_node1"><a xlink:title=" ">
<polygon fill="#bfbfbf" stroke="black" points="172,-0.5 172,-52.5 286,-52.5 286,-0.5 172,-0.5"/>
<text text-anchor="start" x="180" y="-40.5" font-family="Helvetica,sans-Serif" font-size="10.00">automaton::core::data</text>
<text text-anchor="start" x="180" y="-29.5" font-family="Helvetica,sans-Serif" font-size="10.00">::protobuf::io_error</text>
<text text-anchor="start" x="180" y="-18.5" font-family="Helvetica,sans-Serif" font-size="10.00">_collector::get_number</text>
<text text-anchor="middle" x="229" y="-7.5" font-family="Helvetica,sans-Serif" font-size="10.00">_errors</text>
</a>
</g>
</g>
<!-- Node2 -->
<g id="node2" class="node">
<title>Node2</title>
<g id="a_node2"><a xlink:href="../../d7/d8c/classautomaton_1_1core_1_1data_1_1protobuf_1_1protobuf__schema.html#acac49375447aff76e250588495ad62fc" target="_top" xlink:title=" ">
<polygon fill="white" stroke="black" points="0,-6 0,-47 136,-47 136,-6 0,-6"/>
<text text-anchor="start" x="8" y="-35" font-family="Helvetica,sans-Serif" font-size="10.00">automaton::core::data</text>
<text text-anchor="start" x="8" y="-24" font-family="Helvetica,sans-Serif" font-size="10.00">::protobuf::protobuf</text>
<text text-anchor="middle" x="68" y="-13" font-family="Helvetica,sans-Serif" font-size="10.00">_schema::protobuf_schema</text>
</a>
</g>
</g>
<!-- Node1&#45;&gt;Node2 -->
<g id="edge1" class="edge">
<title>Node1&#45;&gt;Node2</title>
<path fill="none" stroke="midnightblue" d="M161.79,-26.5C153.35,-26.5 144.72,-26.5 136.27,-26.5"/>
<polygon fill="midnightblue" stroke="midnightblue" points="161.94,-30 171.94,-26.5 161.94,-23 161.94,-30"/>
</g>
</g>
</svg>
