<?xml version="1.0" encoding="UTF-8" standalone="no"?>
<!DOCTYPE svg PUBLIC "-//W3C//DTD SVG 1.1//EN"
 "http://www.w3.org/Graphics/SVG/1.1/DTD/svg11.dtd">
<!-- Generated by graphviz version 2.44.0 ()
 -->
<!-- Title: automaton::core::crypto::hash_transformation Pages: 1 -->
<svg width="312pt" height="257pt"
 viewBox="0.00 0.00 312.00 256.50" xmlns="http://www.w3.org/2000/svg" xmlns:xlink="http://www.w3.org/1999/xlink">
<g id="graph0" class="graph" transform="scale(1 1) rotate(0) translate(4 252.5)">
<title>automaton::core::crypto::hash_transformation</title>
<polygon fill="white" stroke="transparent" points="-4,4 -4,-252.5 308,-252.5 308,4 -4,4"/>
<!-- Node1 -->
<g id="node1" class="node">
<title>Node1</title>
<g id="a_node1"><a xlink:title=" ">
<polygon fill="#bfbfbf" stroke="black" points="0,-98.5 0,-128.5 116,-128.5 116,-98.5 0,-98.5"/>
<text text-anchor="start" x="8" y="-116.5" font-family="Helvetica,sans-Serif" font-size="10.00">automaton::core::crypto</text>
<text text-anchor="middle" x="58" y="-105.5" font-family="Helvetica,sans-Serif" font-size="10.00">::hash_transformation</text>
</a>
</g>
</g>
<!-- Node2 -->
<g id="node2" class="node">
<title>Node2</title>
<g id="a_node2"><a xlink:href="../../dd/db1/classautomaton_1_1core_1_1crypto_1_1cryptopp_1_1_keccak__256__cryptopp.html" target="_top" xlink:title=" ">
<polygon fill="white" stroke="black" points="170,-207 170,-248 286,-248 286,-207 170,-207"/>
<text text-anchor="start" x="178" y="-236" font-family="Helvetica,sans-Serif" font-size="10.00">automaton::core::crypto</text>
<text text-anchor="start" x="178" y="-225" font-family="Helvetica,sans-Serif" font-size="10.00">::cryptopp::Keccak_256</text>
<text text-anchor="middle" x="228" y="-214" font-family="Helvetica,sans-Serif" font-size="10.00">_cryptopp</text>
</a>
</g>
</g>
<!-- Node1&#45;&gt;Node2 -->
<g id="edge1" class="edge">
<title>Node1&#45;&gt;Node2</title>
<path fill="none" stroke="midnightblue" d="M79.52,-136.04C97.27,-154.49 124.38,-180.28 152,-197.5 157.59,-200.99 163.66,-204.21 169.84,-207.14"/>
<polygon fill="midnightblue" stroke="midnightblue" points="81.92,-133.48 72.51,-128.62 76.84,-138.29 81.92,-133.48"/>
</g>
<!-- Node3 -->
<g id="node3" class="node">
<title>Node3</title>
<g id="a_node3"><a xlink:href="../../d1/daa/classautomaton_1_1core_1_1crypto_1_1cryptopp_1_1_r_i_p_e_m_d160__cryptopp.html" target="_top" xlink:title=" ">
<polygon fill="white" stroke="black" points="170,-147 170,-188 286,-188 286,-147 170,-147"/>
<text text-anchor="start" x="178" y="-176" font-family="Helvetica,sans-Serif" font-size="10.00">automaton::core::crypto</text>
<text text-anchor="start" x="178" y="-165" font-family="Helvetica,sans-Serif" font-size="10.00">::cryptopp::RIPEMD160</text>
<text text-anchor="middle" x="228" y="-154" font-family="Helvetica,sans-Serif" font-size="10.00">_cryptopp</text>
</a>
</g>
</g>
<!-- Node1&#45;&gt;Node3 -->
<g id="edge2" class="edge">
<title>Node1&#45;&gt;Node3</title>
<path fill="none" stroke="midnightblue" d="M115.36,-131.62C132.95,-137.27 152.36,-143.51 170,-149.18"/>
<polygon fill="midnightblue" stroke="midnightblue" points="116.39,-128.27 105.8,-128.54 114.25,-134.93 116.39,-128.27"/>
</g>
<!-- Node4 -->
<g id="node4" class="node">
<title>Node4</title>
<g id="a_node4"><a xlink:href="../../de/dd4/classautomaton_1_1core_1_1crypto_1_1cryptopp_1_1_s_h_a256__cryptopp.html" target="_top" xlink:title=" ">
<polygon fill="white" stroke="black" points="157.5,-98.5 157.5,-128.5 298.5,-128.5 298.5,-98.5 157.5,-98.5"/>
<text text-anchor="start" x="165.5" y="-116.5" font-family="Helvetica,sans-Serif" font-size="10.00">automaton::core::crypto</text>
<text text-anchor="middle" x="228" y="-105.5" font-family="Helvetica,sans-Serif" font-size="10.00">::cryptopp::SHA256_cryptopp</text>
</a>
</g>
</g>
<!-- Node1&#45;&gt;Node4 -->
<g id="edge3" class="edge">
<title>Node1&#45;&gt;Node4</title>
<path fill="none" stroke="midnightblue" d="M126.42,-113.5C136.62,-113.5 147.17,-113.5 157.42,-113.5"/>
<polygon fill="midnightblue" stroke="midnightblue" points="126.35,-110 116.35,-113.5 126.35,-117 126.35,-110"/>
</g>
<!-- Node5 -->
<g id="node5" class="node">
<title>Node5</title>
<g id="a_node5"><a xlink:href="../../db/d28/classautomaton_1_1core_1_1crypto_1_1cryptopp_1_1_s_h_a3__256__cryptopp.html" target="_top" xlink:title=" ">
<polygon fill="white" stroke="black" points="152,-49.5 152,-79.5 304,-79.5 304,-49.5 152,-49.5"/>
<text text-anchor="start" x="160" y="-67.5" font-family="Helvetica,sans-Serif" font-size="10.00">automaton::core::crypto</text>
<text text-anchor="middle" x="228" y="-56.5" font-family="Helvetica,sans-Serif" font-size="10.00">::cryptopp::SHA3_256_cryptopp</text>
</a>
</g>
</g>
<!-- Node1&#45;&gt;Node5 -->
<g id="edge4" class="edge">
<title>Node1&#45;&gt;Node5</title>
<path fill="none" stroke="midnightblue" d="M120.6,-95.53C138.6,-90.28 158.08,-84.6 175.39,-79.55"/>
<polygon fill="midnightblue" stroke="midnightblue" points="119.4,-92.24 110.78,-98.4 121.36,-98.96 119.4,-92.24"/>
</g>
<!-- Node6 -->
<g id="node6" class="node">
<title>Node6</title>
<g id="a_node6"><a xlink:href="../../d1/de8/classautomaton_1_1core_1_1crypto_1_1cryptopp_1_1_s_h_a512__cryptopp.html" target="_top" xlink:title=" ">
<polygon fill="white" stroke="black" points="157.5,-0.5 157.5,-30.5 298.5,-30.5 298.5,-0.5 157.5,-0.5"/>
<text text-anchor="start" x="165.5" y="-18.5" font-family="Helvetica,sans-Serif" font-size="10.00">automaton::core::crypto</text>
<text text-anchor="middle" x="228" y="-7.5" font-family="Helvetica,sans-Serif" font-size="10.00">::cryptopp::SHA512_cryptopp</text>
</a>
</g>
</g>
<!-- Node1&#45;&gt;Node6 -->
<g id="edge5" class="edge">
<title>Node1&#45;&gt;Node6</title>
<path fill="none" stroke="midnightblue" d="M82.22,-91.54C100.13,-75.58 126.14,-54.42 152,-40.5 158.89,-36.79 166.43,-33.5 173.99,-30.61"/>
<polygon fill="midnightblue" stroke="midnightblue" points="79.65,-89.16 74.59,-98.47 84.35,-94.34 79.65,-89.16"/>
</g>
</g>
</svg>
