<?xml version="1.0" encoding="UTF-8" standalone="no"?>
<!DOCTYPE svg PUBLIC "-//W3C//DTD SVG 1.1//EN"
 "http://www.w3.org/Graphics/SVG/1.1/DTD/svg11.dtd">
<!-- Generated by graphviz version 2.44.0 ()
 -->
<!-- Title: automaton::core::state::state_impl::print_subtrie Pages: 1 -->
<svg width="305pt" height="196pt"
 viewBox="0.00 0.00 305.00 196.00" xmlns="http://www.w3.org/2000/svg" xmlns:xlink="http://www.w3.org/1999/xlink">
<g id="graph0" class="graph" transform="scale(1 1) rotate(0) translate(4 192)">
<title>automaton::core::state::state_impl::print_subtrie</title>
<polygon fill="white" stroke="transparent" points="-4,4 -4,-192 301,-192 301,4 -4,4"/>
<!-- Node1 -->
<g id="node1" class="node">
<title>Node1</title>
<g id="a_node1"><a xlink:title=" ">
<polygon fill="#bfbfbf" stroke="black" points="0,-81.5 0,-111.5 124,-111.5 124,-81.5 0,-81.5"/>
<text text-anchor="start" x="8" y="-99.5" font-family="Helvetica,sans-Serif" font-size="10.00">automaton::core::state</text>
<text text-anchor="middle" x="62" y="-88.5" font-family="Helvetica,sans-Serif" font-size="10.00">::state_impl::print_subtrie</text>
</a>
</g>
</g>
<!-- Node2 -->
<g id="node2" class="node">
<title>Node2</title>
<g id="a_node2"><a xlink:href="../../da/dd5/namespaceautomaton_1_1core_1_1io.html#ab19202c80dffefe2cd1a87a60d06a0b3" target="_top" xlink:title=" ">
<polygon fill="white" stroke="black" points="179.5,-157.5 179.5,-187.5 277.5,-187.5 277.5,-157.5 179.5,-157.5"/>
<text text-anchor="start" x="187.5" y="-175.5" font-family="Helvetica,sans-Serif" font-size="10.00">automaton::core::io</text>
<text text-anchor="middle" x="228.5" y="-164.5" font-family="Helvetica,sans-Serif" font-size="10.00">::bin2hex</text>
</a>
</g>
</g>
<!-- Node1&#45;&gt;Node2 -->
<g id="edge1" class="edge">
<title>Node1&#45;&gt;Node2</title>
<path fill="none" stroke="midnightblue" d="M88.82,-111.72C108.06,-122.72 135.19,-137.51 160,-148.5 164.08,-150.31 168.33,-152.08 172.64,-153.78"/>
<polygon fill="midnightblue" stroke="midnightblue" points="171.52,-157.1 182.11,-157.42 174.03,-150.57 171.52,-157.1"/>
</g>
<!-- Node3 -->
<g id="node3" class="node">
<title>Node3</title>
<g id="a_node3"><a xlink:href="../../dd/da5/classautomaton_1_1core_1_1state_1_1state__impl.html#a2fd04747c7c8c61e6dde2439743fdebb" target="_top" xlink:title=" ">
<polygon fill="white" stroke="black" points="172.5,-108.5 172.5,-138.5 284.5,-138.5 284.5,-108.5 172.5,-108.5"/>
<text text-anchor="start" x="180.5" y="-126.5" font-family="Helvetica,sans-Serif" font-size="10.00">automaton::core::state</text>
<text text-anchor="middle" x="228.5" y="-115.5" font-family="Helvetica,sans-Serif" font-size="10.00">::state_impl::get</text>
</a>
</g>
</g>
<!-- Node1&#45;&gt;Node3 -->
<g id="edge2" class="edge">
<title>Node1&#45;&gt;Node3</title>
<path fill="none" stroke="midnightblue" d="M124.25,-106.55C136.72,-108.6 149.88,-110.76 162.48,-112.83"/>
<polygon fill="midnightblue" stroke="midnightblue" points="162,-116.3 172.43,-114.46 163.13,-109.39 162,-116.3"/>
</g>
<!-- Node4 -->
<g id="node4" class="node">
<title>Node4</title>
<g id="a_node4"><a xlink:href="../../dd/da5/classautomaton_1_1core_1_1state_1_1state__impl.html#abb0420a7a6e538eeb4c9c5af355ca249" target="_top" xlink:title=" ">
<polygon fill="white" stroke="black" points="172.5,-49 172.5,-90 284.5,-90 284.5,-49 172.5,-49"/>
<text text-anchor="start" x="180.5" y="-78" font-family="Helvetica,sans-Serif" font-size="10.00">automaton::core::state</text>
<text text-anchor="start" x="180.5" y="-67" font-family="Helvetica,sans-Serif" font-size="10.00">::state_impl::get_node</text>
<text text-anchor="middle" x="228.5" y="-56" font-family="Helvetica,sans-Serif" font-size="10.00">_children</text>
</a>
</g>
</g>
<!-- Node1&#45;&gt;Node4 -->
<g id="edge3" class="edge">
<title>Node1&#45;&gt;Node4</title>
<path fill="none" stroke="midnightblue" d="M124.25,-86.45C136.72,-84.4 149.88,-82.24 162.48,-80.17"/>
<polygon fill="midnightblue" stroke="midnightblue" points="163.13,-83.61 172.43,-78.54 162,-76.7 163.13,-83.61"/>
</g>
<!-- Node5 -->
<g id="node5" class="node">
<title>Node5</title>
<g id="a_node5"><a xlink:href="../../dd/da5/classautomaton_1_1core_1_1state_1_1state__impl.html#a0e201b34d522c7185f78b86b7191b108" target="_top" xlink:title=" ">
<polygon fill="white" stroke="black" points="160,-0.5 160,-30.5 297,-30.5 297,-0.5 160,-0.5"/>
<text text-anchor="start" x="168" y="-18.5" font-family="Helvetica,sans-Serif" font-size="10.00">automaton::core::state</text>
<text text-anchor="middle" x="228.5" y="-7.5" font-family="Helvetica,sans-Serif" font-size="10.00">::state_impl::get_node_hash</text>
</a>
</g>
</g>
<!-- Node1&#45;&gt;Node5 -->
<g id="edge4" class="edge">
<title>Node1&#45;&gt;Node5</title>
<path fill="none" stroke="midnightblue" d="M85.85,-81.4C105.09,-69.09 133.62,-51.8 160,-39.5 163.8,-37.73 167.78,-36 171.81,-34.35"/>
<polygon fill="midnightblue" stroke="midnightblue" points="173.26,-37.54 181.28,-30.62 170.69,-31.03 173.26,-37.54"/>
</g>
</g>
</svg>
