<?xml version="1.0" encoding="UTF-8" standalone="no"?>
<!DOCTYPE svg PUBLIC "-//W3C//DTD SVG 1.1//EN"
 "http://www.w3.org/Graphics/SVG/1.1/DTD/svg11.dtd">
<!-- Generated by graphviz version 2.44.0 ()
 -->
<!-- Title: automaton::core::network::simulation::process_handlers Pages: 1 -->
<svg width="403pt" height="39pt"
 viewBox="0.00 0.00 403.00 39.00" xmlns="http://www.w3.org/2000/svg" xmlns:xlink="http://www.w3.org/1999/xlink">
<g id="graph0" class="graph" transform="scale(1 1) rotate(0) translate(4 35)">
<title>automaton::core::network::simulation::process_handlers</title>
<polygon fill="white" stroke="transparent" points="-4,4 -4,-35 399,-35 399,4 -4,4"/>
<!-- Node1 -->
<g id="node1" class="node">
<title>Node1</title>
<g id="a_node1"><a xlink:title=" ">
<polygon fill="#bfbfbf" stroke="black" points="249,-0.5 249,-30.5 395,-30.5 395,-0.5 249,-0.5"/>
<text text-anchor="start" x="257" y="-18.5" font-family="Helvetica,sans-Serif" font-size="10.00">automaton::core::network</text>
<text text-anchor="middle" x="322" y="-7.5" font-family="Helvetica,sans-Serif" font-size="10.00">::simulation::process_handlers</text>
</a>
</g>
</g>
<!-- Node2 -->
<g id="node2" class="node">
<title>Node2</title>
<g id="a_node2"><a xlink:href="../../d7/ded/classautomaton_1_1core_1_1network_1_1simulation.html#a817ac2eec0452beaf2263b971227b135" target="_top" xlink:title=" ">
<polygon fill="white" stroke="black" points="74,-0.5 74,-30.5 213,-30.5 213,-0.5 74,-0.5"/>
<text text-anchor="start" x="82" y="-18.5" font-family="Helvetica,sans-Serif" font-size="10.00">automaton::core::network</text>
<text text-anchor="middle" x="143.5" y="-7.5" font-family="Helvetica,sans-Serif" font-size="10.00">::simulation::simulation_start</text>
</a>
</g>
</g>
<!-- Node1&#45;&gt;Node2 -->
<g id="edge1" class="edge">
<title>Node1&#45;&gt;Node2</title>
<path fill="none" stroke="midnightblue" d="M238.91,-15.5C230.3,-15.5 221.61,-15.5 213.18,-15.5"/>
<polygon fill="midnightblue" stroke="midnightblue" points="238.96,-19 248.96,-15.5 238.96,-12 238.96,-19"/>
</g>
<!-- Node3 -->
<g id="node3" class="node">
<title>Node3</title>
<g id="a_node3"><a xlink:href="../../dd/de7/core_8cc.html#a0ddf1224851353fc92bfbff6f499fa97" target="_top" xlink:title=" ">
<polygon fill="white" stroke="black" points="0,-6 0,-25 38,-25 38,-6 0,-6"/>
<text text-anchor="middle" x="19" y="-13" font-family="Helvetica,sans-Serif" font-size="10.00">main</text>
</a>
</g>
</g>
<!-- Node2&#45;&gt;Node3 -->
<g id="edge2" class="edge">
<title>Node2&#45;&gt;Node3</title>
<path fill="none" stroke="midnightblue" d="M63.44,-15.5C54.14,-15.5 45.44,-15.5 38.3,-15.5"/>
<polygon fill="midnightblue" stroke="midnightblue" points="63.73,-19 73.73,-15.5 63.73,-12 63.73,-19"/>
</g>
</g>
</svg>
