<?xml version="1.0" encoding="UTF-8" standalone="no"?>
<!DOCTYPE svg PUBLIC "-//W3C//DTD SVG 1.1//EN"
 "http://www.w3.org/Graphics/SVG/1.1/DTD/svg11.dtd">
<!-- Generated by graphviz version 2.44.0 ()
 -->
<!-- Title: automaton::core::network::simulation::handle_request Pages: 1 -->
<!--zoomable 389 -->
<svg id="main" version="1.1" xmlns="http://www.w3.org/2000/svg" xmlns:xlink="http://www.w3.org/1999/xlink" xml:space="preserve" onload="init(evt)">
<style type="text/css"><![CDATA[
.edge:hover path { stroke: red; }
.edge:hover polygon { stroke: red; fill: red; }
]]></style>
<script type="text/javascript"><![CDATA[
var edges = document.getElementsByTagName('g');
if (edges && edges.length) {
  for (var i=0;i<edges.length;i++) {
    if (edges[i].id.substr(0,4)=='edge') {
      edges[i].setAttribute('class','edge');
    }
  }
}
]]></script>
        <defs>
                <circle id="rim" cx="0" cy="0" r="7"/>
                <circle id="rim2" cx="0" cy="0" r="3.5"/>
                <g id="zoomPlus">
                        <use xlink:href="#rim" fill="#404040">
                                <set attributeName="fill" to="#808080" begin="zoomplus.mouseover" end="zoomplus.mouseout"/>
                        </use>
                        <path d="M-4,0h8M0,-4v8" fill="none" stroke="white" stroke-width="1.5" pointer-events="none"/>
                </g>
                <g id="zoomMin">
                        <use xlink:href="#rim" fill="#404040">
                                <set attributeName="fill" to="#808080" begin="zoomminus.mouseover" end="zoomminus.mouseout"/>
                        </use>
                        <path d="M-4,0h8" fill="none" stroke="white" stroke-width="1.5" pointer-events="none"/>
                </g>
                <g id="dirArrow">
                        <path fill="none" stroke="white" stroke-width="1.5" d="M0,-3.0v7 M-2.5,-0.5L0,-3.0L2.5,-0.5"/>
                </g>
               <g id="resetDef">
                       <use xlink:href="#rim2" fill="#404040">
                               <set attributeName="fill" to="#808080" begin="reset.mouseover" end="reset.mouseout"/>
                       </use>
               </g>
        </defs>

<script type="text/javascript">
var viewWidth = 506;
var viewHeight = 389;
var sectionId = 'dynsection-17';
</script>
<script xlink:href="../../svgpan.js"/>
<svg id="graph" class="graph">
<g id="viewport">
<title>automaton::core::network::simulation::handle_request</title>
<polygon fill="white" stroke="transparent" points="-4,4 -4,-385 502,-385 502,4 -4,4"/>
<!-- Node1 -->
<g id="node1" class="node">
<title>Node1</title>
<g id="a_node1"><a xlink:title=" ">
<polygon fill="#bfbfbf" stroke="black" points="0,-175.5 0,-205.5 136,-205.5 136,-175.5 0,-175.5"/>
<text text-anchor="start" x="8" y="-193.5" font-family="Helvetica,sans-Serif" font-size="10.00">automaton::core::network</text>
<text text-anchor="middle" x="68" y="-182.5" font-family="Helvetica,sans-Serif" font-size="10.00">::simulation::handle_request</text>
</a>
</g>
</g>
<!-- Node2 -->
<g id="node2" class="node">
<title>Node2</title>
<g id="a_node2"><a xlink:href="../../d7/ded/classautomaton_1_1core_1_1network_1_1simulation.html#a7d2359981ca36bde9b728fe02ecbc01d" target="_top" xlink:title=" ">
<polygon fill="white" stroke="black" points="172,-350.5 172,-380.5 310,-380.5 310,-350.5 172,-350.5"/>
<text text-anchor="start" x="180" y="-368.5" font-family="Helvetica,sans-Serif" font-size="10.00">automaton::core::network</text>
<text text-anchor="middle" x="241" y="-357.5" font-family="Helvetica,sans-Serif" font-size="10.00">::simulation::add_connection</text>
</a>
</g>
</g>
<!-- Node1&#45;&gt;Node2 -->
<g id="edge1" class="edge">
<title>Node1&#45;&gt;Node2</title>
<path fill="none" stroke="midnightblue" d="M76.25,-205.68C90.73,-234.54 125.82,-297.83 172,-335.5 176.61,-339.26 181.77,-342.64 187.13,-345.66"/>
<polygon fill="midnightblue" stroke="midnightblue" points="185.78,-348.9 196.27,-350.39 188.99,-342.68 185.78,-348.9"/>
</g>
<!-- Node3 -->
<g id="node3" class="node">
<title>Node3</title>
<g id="a_node3"><a xlink:href="../../d7/ded/classautomaton_1_1core_1_1network_1_1simulation.html#a2fd9860eee7ca8e52875ccfa65c0e978" target="_top" xlink:title=" ">
<polygon fill="white" stroke="black" points="346,-273.5 346,-303.5 498,-303.5 498,-273.5 346,-273.5"/>
<text text-anchor="start" x="354" y="-291.5" font-family="Helvetica,sans-Serif" font-size="10.00">automaton::core::network</text>
<text text-anchor="middle" x="422" y="-280.5" font-family="Helvetica,sans-Serif" font-size="10.00">::simulation::add_handlers_task</text>
</a>
</g>
</g>
<!-- Node1&#45;&gt;Node3 -->
<g id="edge2" class="edge">
<title>Node1&#45;&gt;Node3</title>
<path fill="none" stroke="midnightblue" d="M79.9,-205.63C96.76,-227.6 131.46,-267.44 172,-283.5 223.71,-303.99 286.32,-305.15 335.83,-301.23"/>
<polygon fill="midnightblue" stroke="midnightblue" points="336.21,-304.71 345.86,-300.36 335.6,-297.74 336.21,-304.71"/>
</g>
<!-- Node4 -->
<g id="node4" class="node">
<title>Node4</title>
<g id="a_node4"><a xlink:href="../../d7/ded/classautomaton_1_1core_1_1network_1_1simulation.html#a05ab8136b235c876c4f4176debd962df" target="_top" xlink:title=" ">
<polygon fill="white" stroke="black" points="359.5,-224.5 359.5,-254.5 484.5,-254.5 484.5,-224.5 359.5,-224.5"/>
<text text-anchor="start" x="367.5" y="-242.5" font-family="Helvetica,sans-Serif" font-size="10.00">automaton::core::network</text>
<text text-anchor="middle" x="422" y="-231.5" font-family="Helvetica,sans-Serif" font-size="10.00">::simulation::add_task</text>
</a>
</g>
</g>
<!-- Node1&#45;&gt;Node4 -->
<g id="edge3" class="edge">
<title>Node1&#45;&gt;Node4</title>
<path fill="none" stroke="midnightblue" d="M83.67,-205.74C102.24,-223.82 136.16,-252.96 172,-264.5 236.75,-285.35 315.43,-271.34 366.79,-257.32"/>
<polygon fill="midnightblue" stroke="midnightblue" points="368.01,-260.61 376.68,-254.53 366.11,-253.88 368.01,-260.61"/>
</g>
<!-- Node5 -->
<g id="node5" class="node">
<title>Node5</title>
<g id="a_node5"><a xlink:href="../../d7/ded/classautomaton_1_1core_1_1network_1_1simulation.html#a2b13795490aa2cd0006bbeb7f708f142" target="_top" xlink:title=" ">
<polygon fill="white" stroke="black" points="178,-49.5 178,-79.5 304,-79.5 304,-49.5 178,-49.5"/>
<text text-anchor="start" x="186" y="-67.5" font-family="Helvetica,sans-Serif" font-size="10.00">automaton::core::network</text>
<text text-anchor="middle" x="241" y="-56.5" font-family="Helvetica,sans-Serif" font-size="10.00">::simulation::get_acceptor</text>
</a>
</g>
</g>
<!-- Node1&#45;&gt;Node5 -->
<g id="edge4" class="edge">
<title>Node1&#45;&gt;Node5</title>
<path fill="none" stroke="midnightblue" d="M82.37,-175.17C100.87,-154.68 136.08,-118.18 172,-94.5 177.72,-90.73 183.99,-87.23 190.34,-84.06"/>
<polygon fill="midnightblue" stroke="midnightblue" points="192.1,-87.1 199.64,-79.65 189.1,-80.77 192.1,-87.1"/>
</g>
<!-- Node6 -->
<g id="node6" class="node">
<title>Node6</title>
<g id="a_node6"><a xlink:href="../../d7/ded/classautomaton_1_1core_1_1network_1_1simulation.html#a8df9259f277318e270877ed98f4be2e1" target="_top" xlink:title=" ">
<polygon fill="white" stroke="black" points="354,-175.5 354,-205.5 490,-205.5 490,-175.5 354,-175.5"/>
<text text-anchor="start" x="362" y="-193.5" font-family="Helvetica,sans-Serif" font-size="10.00">automaton::core::network</text>
<text text-anchor="middle" x="422" y="-182.5" font-family="Helvetica,sans-Serif" font-size="10.00">::simulation::get_connection</text>
</a>
</g>
</g>
<!-- Node1&#45;&gt;Node6 -->
<g id="edge5" class="edge">
<title>Node1&#45;&gt;Node6</title>
<path fill="none" stroke="midnightblue" d="M123.12,-175.44C138.76,-171.76 155.95,-168.35 172,-166.5 232.93,-159.49 249.01,-159.98 310,-166.5 323.88,-167.98 338.58,-170.48 352.57,-173.32"/>
<polygon fill="midnightblue" stroke="midnightblue" points="352.11,-176.8 362.62,-175.44 353.56,-169.95 352.11,-176.8"/>
</g>
<!-- Node7 -->
<g id="node7" class="node">
<title>Node7</title>
<g id="a_node7"><a xlink:href="../../d7/ded/classautomaton_1_1core_1_1network_1_1simulation.html#ad00c2b3b98e9eb6b251f39549d46baf4" target="_top" xlink:title=" ">
<polygon fill="white" stroke="black" points="177,-0.5 177,-30.5 305,-30.5 305,-0.5 177,-0.5"/>
<text text-anchor="start" x="185" y="-18.5" font-family="Helvetica,sans-Serif" font-size="10.00">automaton::core::network</text>
<text text-anchor="middle" x="241" y="-7.5" font-family="Helvetica,sans-Serif" font-size="10.00">::simulation::get_simulator</text>
</a>
</g>
</g>
<!-- Node1&#45;&gt;Node7 -->
<g id="edge6" class="edge">
<title>Node1&#45;&gt;Node7</title>
<path fill="none" stroke="midnightblue" d="M75.4,-175.29C88.86,-145.09 122.95,-77.23 172,-39.5 173.81,-38.1 175.72,-36.79 177.68,-35.54"/>
<polygon fill="midnightblue" stroke="midnightblue" points="179.63,-38.46 186.66,-30.54 176.23,-32.35 179.63,-38.46"/>
</g>
<!-- Node8 -->
<g id="node8" class="node">
<title>Node8</title>
<g id="a_node8"><a xlink:href="../../d7/ded/classautomaton_1_1core_1_1network_1_1simulation.html#a6ac8458190dbb7d9291a43c49b574e51" target="_top" xlink:title=" ">
<polygon fill="white" stroke="black" points="359.5,-126.5 359.5,-156.5 484.5,-156.5 484.5,-126.5 359.5,-126.5"/>
<text text-anchor="start" x="367.5" y="-144.5" font-family="Helvetica,sans-Serif" font-size="10.00">automaton::core::network</text>
<text text-anchor="middle" x="422" y="-133.5" font-family="Helvetica,sans-Serif" font-size="10.00">::simulation::get_time</text>
</a>
</g>
</g>
<!-- Node1&#45;&gt;Node8 -->
<g id="edge7" class="edge">
<title>Node1&#45;&gt;Node8</title>
<path fill="none" stroke="midnightblue" d="M107.01,-175.34C126.19,-168.36 149.99,-160.72 172,-156.5 230.99,-145.19 299.15,-141.73 349.23,-140.94"/>
<polygon fill="midnightblue" stroke="midnightblue" points="349.35,-144.43 359.31,-140.81 349.27,-137.43 349.35,-144.43"/>
</g>
<!-- Node9 -->
<g id="node9" class="node">
<title>Node9</title>
<g id="a_node9"><a xlink:href="../../d7/ded/classautomaton_1_1core_1_1network_1_1simulation.html#a9e6d08f2e6a8c78b10654cb18df20608" target="_top" xlink:title=" ">
<polygon fill="white" stroke="black" points="174.5,-175.5 174.5,-205.5 307.5,-205.5 307.5,-175.5 174.5,-175.5"/>
<text text-anchor="start" x="182.5" y="-193.5" font-family="Helvetica,sans-Serif" font-size="10.00">automaton::core::network</text>
<text text-anchor="middle" x="241" y="-182.5" font-family="Helvetica,sans-Serif" font-size="10.00">::simulation::handle_accept</text>
</a>
</g>
</g>
<!-- Node1&#45;&gt;Node9 -->
<g id="edge8" class="edge">
<title>Node1&#45;&gt;Node9</title>
<path fill="none" stroke="midnightblue" d="M136.09,-190.5C145.3,-190.5 154.81,-190.5 164.16,-190.5"/>
<polygon fill="midnightblue" stroke="midnightblue" points="164.22,-194 174.22,-190.5 164.22,-187 164.22,-194"/>
</g>
<!-- Node10 -->
<g id="node10" class="node">
<title>Node10</title>
<g id="a_node10"><a xlink:href="../../d7/ded/classautomaton_1_1core_1_1network_1_1simulation.html#aa2a32232ba35a9a200d072d4bd34e326" target="_top" xlink:title=" ">
<polygon fill="white" stroke="black" points="175.5,-224.5 175.5,-254.5 306.5,-254.5 306.5,-224.5 175.5,-224.5"/>
<text text-anchor="start" x="183.5" y="-242.5" font-family="Helvetica,sans-Serif" font-size="10.00">automaton::core::network</text>
<text text-anchor="middle" x="241" y="-231.5" font-family="Helvetica,sans-Serif" font-size="10.00">::simulation::handle_refuse</text>
</a>
</g>
</g>
<!-- Node1&#45;&gt;Node10 -->
<g id="edge13" class="edge">
<title>Node1&#45;&gt;Node10</title>
<path fill="none" stroke="midnightblue" d="M121.7,-205.6C139.42,-210.68 159.35,-216.39 177.73,-221.66"/>
<polygon fill="midnightblue" stroke="midnightblue" points="176.9,-225.06 187.47,-224.45 178.82,-218.33 176.9,-225.06"/>
</g>
<!-- Node9&#45;&gt;Node3 -->
<g id="edge9" class="edge">
<title>Node9&#45;&gt;Node3</title>
<path fill="none" stroke="midnightblue" d="M293.12,-205.5C299.09,-208.33 304.87,-211.64 310,-215.5 331.6,-231.74 324.06,-248.72 346,-264.5 348.09,-266 350.27,-267.41 352.53,-268.74"/>
<polygon fill="midnightblue" stroke="midnightblue" points="351.06,-271.92 361.55,-273.43 354.3,-265.71 351.06,-271.92"/>
</g>
<!-- Node9&#45;&gt;Node4 -->
<g id="edge10" class="edge">
<title>Node9&#45;&gt;Node4</title>
<path fill="none" stroke="midnightblue" d="M297.17,-205.6C315.88,-210.73 336.96,-216.5 356.35,-221.8"/>
<polygon fill="midnightblue" stroke="midnightblue" points="355.45,-225.18 366.02,-224.45 357.29,-218.43 355.45,-225.18"/>
</g>
<!-- Node9&#45;&gt;Node6 -->
<g id="edge11" class="edge">
<title>Node9&#45;&gt;Node6</title>
<path fill="none" stroke="midnightblue" d="M307.64,-190.5C319.41,-190.5 331.77,-190.5 343.83,-190.5"/>
<polygon fill="midnightblue" stroke="midnightblue" points="343.87,-194 353.87,-190.5 343.87,-187 343.87,-194"/>
</g>
<!-- Node9&#45;&gt;Node8 -->
<g id="edge12" class="edge">
<title>Node9&#45;&gt;Node8</title>
<path fill="none" stroke="midnightblue" d="M297.17,-175.4C315.88,-170.27 336.96,-164.5 356.35,-159.2"/>
<polygon fill="midnightblue" stroke="midnightblue" points="357.29,-162.57 366.02,-156.55 355.45,-155.82 357.29,-162.57"/>
</g>
<!-- Node10&#45;&gt;Node3 -->
<g id="edge14" class="edge">
<title>Node10&#45;&gt;Node3</title>
<path fill="none" stroke="midnightblue" d="M297.17,-254.6C315.88,-259.73 336.96,-265.5 356.35,-270.8"/>
<polygon fill="midnightblue" stroke="midnightblue" points="355.45,-274.18 366.02,-273.45 357.29,-267.43 355.45,-274.18"/>
</g>
<!-- Node10&#45;&gt;Node4 -->
<g id="edge15" class="edge">
<title>Node10&#45;&gt;Node4</title>
<path fill="none" stroke="midnightblue" d="M306.62,-239.5C320.48,-239.5 335.21,-239.5 349.32,-239.5"/>
<polygon fill="midnightblue" stroke="midnightblue" points="349.46,-243 359.46,-239.5 349.46,-236 349.46,-243"/>
</g>
<!-- Node10&#45;&gt;Node6 -->
<g id="edge16" class="edge">
<title>Node10&#45;&gt;Node6</title>
<path fill="none" stroke="midnightblue" d="M297.17,-224.4C315.88,-219.27 336.96,-213.5 356.35,-208.2"/>
<polygon fill="midnightblue" stroke="midnightblue" points="357.29,-211.57 366.02,-205.55 355.45,-204.82 357.29,-211.57"/>
</g>
<!-- Node10&#45;&gt;Node8 -->
<g id="edge17" class="edge">
<title>Node10&#45;&gt;Node8</title>
<path fill="none" stroke="midnightblue" d="M294.87,-224.47C300.22,-221.9 305.37,-218.93 310,-215.5 331.7,-199.4 324.16,-182.41 346,-166.5 348.66,-164.56 351.49,-162.77 354.41,-161.1"/>
<polygon fill="midnightblue" stroke="midnightblue" points="356.13,-164.16 363.47,-156.51 352.97,-157.91 356.13,-164.16"/>
</g>
</g>
</svg>
        <g id="navigator" transform="translate(0 0)" fill="#404254">
                <rect fill="#f2f5e9" fill-opacity="0.5" stroke="#606060" stroke-width=".5" x="0" y="0" width="60" height="60"/>
                <use id="zoomplus" xlink:href="#zoomPlus" x="17" y="9" onmousedown="handleZoom(evt,'in')"/>
                <use id="zoomminus" xlink:href="#zoomMin" x="42" y="9" onmousedown="handleZoom(evt,'out')"/>
                <use id="reset" xlink:href="#resetDef" x="30" y="36" onmousedown="handleReset()"/>
                <g id="arrowUp" xlink:href="#dirArrow" transform="translate(30 24)" onmousedown="handlePan(0,-1)">
                  <use xlink:href="#rim" fill="#404040">
                        <set attributeName="fill" to="#808080" begin="arrowUp.mouseover" end="arrowUp.mouseout"/>
                  </use>
                  <path fill="none" stroke="white" stroke-width="1.5" d="M0,-3.0v7 M-2.5,-0.5L0,-3.0L2.5,-0.5"/>
                </g>
                <g id="arrowRight" xlink:href="#dirArrow" transform="rotate(90) translate(36 -43)" onmousedown="handlePan(1,0)">
                  <use xlink:href="#rim" fill="#404040">
                        <set attributeName="fill" to="#808080" begin="arrowRight.mouseover" end="arrowRight.mouseout"/>
                  </use>
                  <path fill="none" stroke="white" stroke-width="1.5" d="M0,-3.0v7 M-2.5,-0.5L0,-3.0L2.5,-0.5"/>
                </g>
                <g id="arrowDown" xlink:href="#dirArrow" transform="rotate(180) translate(-30 -48)" onmousedown="handlePan(0,1)">
                  <use xlink:href="#rim" fill="#404040">
                        <set attributeName="fill" to="#808080" begin="arrowDown.mouseover" end="arrowDown.mouseout"/>
                  </use>
                  <path fill="none" stroke="white" stroke-width="1.5" d="M0,-3.0v7 M-2.5,-0.5L0,-3.0L2.5,-0.5"/>
                </g>
                <g id="arrowLeft" xlink:href="#dirArrow" transform="rotate(270) translate(-36 17)" onmousedown="handlePan(-1,0)">
                  <use xlink:href="#rim" fill="#404040">
                        <set attributeName="fill" to="#808080" begin="arrowLeft.mouseover" end="arrowLeft.mouseout"/>
                  </use>
                  <path fill="none" stroke="white" stroke-width="1.5" d="M0,-3.0v7 M-2.5,-0.5L0,-3.0L2.5,-0.5"/>
                </g>
        </g>
        <svg viewBox="0 0 15 15" width="100%" height="30px" preserveAspectRatio="xMaxYMin meet">
         <g id="arrow_out" transform="scale(0.3 0.3)">
          <a xlink:href="classautomaton_1_1core_1_1network_1_1simulation_a5e20734a31d56e5dd9e180274df3d1d8_cgraph_org.svg" target="_base">
           <rect id="button" ry="5" rx="5" y="6" x="6" height="38" width="38"
                fill="#f2f5e9" fill-opacity="0.5" stroke="#606060" stroke-width="1.0"/>
           <path id="arrow"
             d="M 11.500037,31.436501 C 11.940474,20.09759 22.043105,11.32322 32.158766,21.979434 L 37.068811,17.246167 C 37.068811,17.246167 37.088388,32 37.088388,32 L 22.160133,31.978069 C 22.160133,31.978069 26.997745,27.140456 26.997745,27.140456 C 18.528582,18.264221 13.291696,25.230495 11.500037,31.436501 z"
             style="fill:#404040;"/>
          </a>
         </g>
        </svg>
</svg>
