<?xml version="1.0" encoding="UTF-8" standalone="no"?>
<!DOCTYPE svg PUBLIC "-//W3C//DTD SVG 1.1//EN"
 "http://www.w3.org/Graphics/SVG/1.1/DTD/svg11.dtd">
<!-- Generated by graphviz version 2.44.0 ()
 -->
<!-- Title: automaton::core::network::simulation::get_simulator Pages: 1 -->
<svg width="809pt" height="508pt"
 viewBox="0.00 0.00 809.00 508.34" xmlns="http://www.w3.org/2000/svg" xmlns:xlink="http://www.w3.org/1999/xlink">
<g id="graph0" class="graph" transform="scale(1 1) rotate(0) translate(4 504.34)">
<title>automaton::core::network::simulation::get_simulator</title>
<polygon fill="white" stroke="transparent" points="-4,4 -4,-504.34 805,-504.34 805,4 -4,4"/>
<!-- Node1 -->
<g id="node1" class="node">
<title>Node1</title>
<g id="a_node1"><a xlink:title=" ">
<polygon fill="#bfbfbf" stroke="black" points="673,-240 673,-270 801,-270 801,-240 673,-240"/>
<text text-anchor="start" x="681" y="-258" font-family="Helvetica,sans-Serif" font-size="10.00">automaton::core::network</text>
<text text-anchor="middle" x="737" y="-247" font-family="Helvetica,sans-Serif" font-size="10.00">::simulation::get_simulator</text>
</a>
</g>
</g>
<!-- Node2 -->
<g id="node2" class="node">
<title>Node2</title>
<g id="a_node2"><a xlink:href="../../db/dd7/classautomaton_1_1core_1_1network_1_1simulated__connection.html#a551ef9c366ca5cea2fb54a4d51047cd9" target="_top" xlink:title=" ">
<polygon fill="white" stroke="black" points="331,-401.5 331,-442.5 456,-442.5 456,-401.5 331,-401.5"/>
<text text-anchor="start" x="339" y="-430.5" font-family="Helvetica,sans-Serif" font-size="10.00">automaton::core::network</text>
<text text-anchor="start" x="339" y="-419.5" font-family="Helvetica,sans-Serif" font-size="10.00">::simulated_connection</text>
<text text-anchor="middle" x="393.5" y="-408.5" font-family="Helvetica,sans-Serif" font-size="10.00">::async_read</text>
</a>
</g>
</g>
<!-- Node1&#45;&gt;Node2 -->
<g id="edge1" class="edge">
<title>Node1&#45;&gt;Node2</title>
<path fill="none" stroke="midnightblue" d="M729.59,-279.92C718.22,-318.25 690.54,-390.44 637,-421 581.97,-452.41 507.83,-447.23 456.07,-437.63"/>
<polygon fill="midnightblue" stroke="midnightblue" points="733.02,-280.64 732.37,-270.07 726.28,-278.74 733.02,-280.64"/>
</g>
<!-- Node3 -->
<g id="node3" class="node">
<title>Node3</title>
<g id="a_node3"><a xlink:href="../../db/dd7/classautomaton_1_1core_1_1network_1_1simulated__connection.html#a820ba31e256235c99d7e4aba79ecfcbe" target="_top" xlink:title=" ">
<polygon fill="white" stroke="black" points="0,-395.5 0,-436.5 125,-436.5 125,-395.5 0,-395.5"/>
<text text-anchor="start" x="8" y="-424.5" font-family="Helvetica,sans-Serif" font-size="10.00">automaton::core::network</text>
<text text-anchor="start" x="8" y="-413.5" font-family="Helvetica,sans-Serif" font-size="10.00">::simulated_connection</text>
<text text-anchor="middle" x="62.5" y="-402.5" font-family="Helvetica,sans-Serif" font-size="10.00">::async_send</text>
</a>
</g>
</g>
<!-- Node1&#45;&gt;Node3 -->
<g id="edge2" class="edge">
<title>Node1&#45;&gt;Node3</title>
<path fill="none" stroke="midnightblue" d="M731.46,-280.13C722.23,-323.02 696.83,-409.33 637,-447 470.35,-551.92 219.49,-476.5 113.55,-436.55"/>
<polygon fill="midnightblue" stroke="midnightblue" points="734.91,-280.72 733.47,-270.22 728.05,-279.33 734.91,-280.72"/>
</g>
<!-- Node4 -->
<g id="node4" class="node">
<title>Node4</title>
<g id="a_node4"><a xlink:href="../../db/dd7/classautomaton_1_1core_1_1network_1_1simulated__connection.html#aea2f4c6fc72ef5f4a4cae5818beaa877" target="_top" xlink:title=" ">
<polygon fill="white" stroke="black" points="506.5,-234.5 506.5,-275.5 631.5,-275.5 631.5,-234.5 506.5,-234.5"/>
<text text-anchor="start" x="514.5" y="-263.5" font-family="Helvetica,sans-Serif" font-size="10.00">automaton::core::network</text>
<text text-anchor="start" x="514.5" y="-252.5" font-family="Helvetica,sans-Serif" font-size="10.00">::simulated_connection</text>
<text text-anchor="middle" x="569" y="-241.5" font-family="Helvetica,sans-Serif" font-size="10.00">::cancel_operations</text>
</a>
</g>
</g>
<!-- Node1&#45;&gt;Node4 -->
<g id="edge3" class="edge">
<title>Node1&#45;&gt;Node4</title>
<path fill="none" stroke="midnightblue" d="M662.55,-255C652.25,-255 641.74,-255 631.68,-255"/>
<polygon fill="midnightblue" stroke="midnightblue" points="662.77,-258.5 672.77,-255 662.77,-251.5 662.77,-258.5"/>
</g>
<!-- Node5 -->
<g id="node5" class="node">
<title>Node5</title>
<g id="a_node5"><a xlink:href="../../db/dd7/classautomaton_1_1core_1_1network_1_1simulated__connection.html#aa5e9e8e5c65f2479258629e46844e0a4" target="_top" xlink:title=" ">
<polygon fill="white" stroke="black" points="331,-163.5 331,-204.5 456,-204.5 456,-163.5 331,-163.5"/>
<text text-anchor="start" x="339" y="-192.5" font-family="Helvetica,sans-Serif" font-size="10.00">automaton::core::network</text>
<text text-anchor="start" x="339" y="-181.5" font-family="Helvetica,sans-Serif" font-size="10.00">::simulated_connection</text>
<text text-anchor="middle" x="393.5" y="-170.5" font-family="Helvetica,sans-Serif" font-size="10.00">::connect</text>
</a>
</g>
</g>
<!-- Node1&#45;&gt;Node5 -->
<g id="edge4" class="edge">
<title>Node1&#45;&gt;Node5</title>
<path fill="none" stroke="midnightblue" d="M680.87,-236.94C666.67,-232.67 651.35,-228.37 637,-225 576.11,-210.69 505.49,-199.33 456.22,-192.23"/>
<polygon fill="midnightblue" stroke="midnightblue" points="679.9,-240.31 690.49,-239.89 681.95,-233.61 679.9,-240.31"/>
</g>
<!-- Node6 -->
<g id="node6" class="node">
<title>Node6</title>
<g id="a_node6"><a xlink:href="../../db/dd7/classautomaton_1_1core_1_1network_1_1simulated__connection.html#a34e308f58cd58799f4e66b0a19c71cf1" target="_top" xlink:title=" ">
<polygon fill="white" stroke="black" points="506.5,-87.5 506.5,-128.5 631.5,-128.5 631.5,-87.5 506.5,-87.5"/>
<text text-anchor="start" x="514.5" y="-116.5" font-family="Helvetica,sans-Serif" font-size="10.00">automaton::core::network</text>
<text text-anchor="start" x="514.5" y="-105.5" font-family="Helvetica,sans-Serif" font-size="10.00">::simulated_connection</text>
<text text-anchor="middle" x="569" y="-94.5" font-family="Helvetica,sans-Serif" font-size="10.00">::disconnect</text>
</a>
</g>
</g>
<!-- Node1&#45;&gt;Node6 -->
<g id="edge5" class="edge">
<title>Node1&#45;&gt;Node6</title>
<path fill="none" stroke="midnightblue" d="M720.93,-231.1C703.46,-205.01 672.48,-163.45 637,-137 632.94,-133.97 628.51,-131.18 623.92,-128.63"/>
<polygon fill="midnightblue" stroke="midnightblue" points="718.12,-233.19 726.53,-239.63 723.97,-229.35 718.12,-233.19"/>
</g>
<!-- Node7 -->
<g id="node7" class="node">
<title>Node7</title>
<g id="a_node7"><a xlink:href="../../d7/ded/classautomaton_1_1core_1_1network_1_1simulation.html#abac703be4668bd6ebf00deff3c310f2e" target="_top" xlink:title=" ">
<polygon fill="white" stroke="black" points="322,-340 322,-370 465,-370 465,-340 322,-340"/>
<text text-anchor="start" x="330" y="-358" font-family="Helvetica,sans-Serif" font-size="10.00">automaton::core::network</text>
<text text-anchor="middle" x="393.5" y="-347" font-family="Helvetica,sans-Serif" font-size="10.00">::simulation::handle_message</text>
</a>
</g>
</g>
<!-- Node1&#45;&gt;Node7 -->
<g id="edge6" class="edge">
<title>Node1&#45;&gt;Node7</title>
<path fill="none" stroke="midnightblue" d="M709.38,-276.29C690.32,-290.39 663.46,-308.07 637,-318 581.48,-338.84 514.61,-347.96 465.16,-351.94"/>
<polygon fill="midnightblue" stroke="midnightblue" points="711.69,-278.93 717.55,-270.1 707.46,-273.35 711.69,-278.93"/>
</g>
<!-- Node8 -->
<g id="node8" class="node">
<title>Node8</title>
<g id="a_node8"><a xlink:href="../../db/dd7/classautomaton_1_1core_1_1network_1_1simulated__connection.html#a6af3ffae84db8b49436c6eb0423d66fb" target="_top" xlink:title=" ">
<polygon fill="white" stroke="black" points="161,-334.5 161,-375.5 286,-375.5 286,-334.5 161,-334.5"/>
<text text-anchor="start" x="169" y="-363.5" font-family="Helvetica,sans-Serif" font-size="10.00">automaton::core::network</text>
<text text-anchor="start" x="169" y="-352.5" font-family="Helvetica,sans-Serif" font-size="10.00">::simulated_connection</text>
<text text-anchor="middle" x="223.5" y="-341.5" font-family="Helvetica,sans-Serif" font-size="10.00">::handle_send</text>
</a>
</g>
</g>
<!-- Node1&#45;&gt;Node8 -->
<g id="edge15" class="edge">
<title>Node1&#45;&gt;Node8</title>
<path fill="none" stroke="midnightblue" d="M681.76,-273.03C667.33,-277.39 651.67,-281.73 637,-285 498.91,-315.82 460.85,-303.84 322,-331 310.37,-333.28 298.03,-336.04 286.19,-338.86"/>
<polygon fill="midnightblue" stroke="midnightblue" points="683,-276.31 691.53,-270.02 680.94,-269.62 683,-276.31"/>
</g>
<!-- Node9 -->
<g id="node9" class="node">
<title>Node9</title>
<g id="a_node9"><a xlink:href="../../db/dd7/classautomaton_1_1core_1_1network_1_1simulated__connection.html#a74f89bae76a2fdc9b359c6e86828c96d" target="_top" xlink:title=" ">
<polygon fill="white" stroke="black" points="506.5,-370.5 506.5,-411.5 631.5,-411.5 631.5,-370.5 506.5,-370.5"/>
<text text-anchor="start" x="514.5" y="-399.5" font-family="Helvetica,sans-Serif" font-size="10.00">automaton::core::network</text>
<text text-anchor="start" x="514.5" y="-388.5" font-family="Helvetica,sans-Serif" font-size="10.00">::simulated_connection</text>
<text text-anchor="middle" x="569" y="-377.5" font-family="Helvetica,sans-Serif" font-size="10.00">::handle_read</text>
</a>
</g>
</g>
<!-- Node1&#45;&gt;Node9 -->
<g id="edge10" class="edge">
<title>Node1&#45;&gt;Node9</title>
<path fill="none" stroke="midnightblue" d="M717.22,-277.98C698.5,-299.9 668.12,-332.91 637,-356 630.04,-361.16 622.22,-365.99 614.44,-370.31"/>
<polygon fill="midnightblue" stroke="midnightblue" points="720.04,-280.06 723.8,-270.16 714.68,-275.56 720.04,-280.06"/>
</g>
<!-- Node10 -->
<g id="node10" class="node">
<title>Node10</title>
<g id="a_node10"><a xlink:href="../../d7/ded/classautomaton_1_1core_1_1network_1_1simulation.html#a5e20734a31d56e5dd9e180274df3d1d8" target="_top" xlink:title=" ">
<polygon fill="white" stroke="black" points="501,-147 501,-177 637,-177 637,-147 501,-147"/>
<text text-anchor="start" x="509" y="-165" font-family="Helvetica,sans-Serif" font-size="10.00">automaton::core::network</text>
<text text-anchor="middle" x="569" y="-154" font-family="Helvetica,sans-Serif" font-size="10.00">::simulation::handle_request</text>
</a>
</g>
</g>
<!-- Node1&#45;&gt;Node10 -->
<g id="edge13" class="edge">
<title>Node1&#45;&gt;Node10</title>
<path fill="none" stroke="midnightblue" d="M705.78,-234.15C686.52,-221.27 660.8,-204.81 637,-192 627.24,-186.74 616.37,-181.6 606.28,-177.09"/>
<polygon fill="midnightblue" stroke="midnightblue" points="703.9,-237.1 714.15,-239.79 707.81,-231.29 703.9,-237.1"/>
</g>
<!-- Node11 -->
<g id="node11" class="node">
<title>Node11</title>
<g id="a_node11"><a xlink:href="../../df/db6/classautomaton_1_1core_1_1network_1_1simulated__acceptor.html#ae563d5c6da0cc1d68a9e19995c9656bf" target="_top" xlink:title=" ">
<polygon fill="white" stroke="black" points="506.5,-39 506.5,-69 631.5,-69 631.5,-39 506.5,-39"/>
<text text-anchor="start" x="514.5" y="-57" font-family="Helvetica,sans-Serif" font-size="10.00">automaton::core::network</text>
<text text-anchor="middle" x="569" y="-46" font-family="Helvetica,sans-Serif" font-size="10.00">::simulated_acceptor::init</text>
</a>
</g>
</g>
<!-- Node1&#45;&gt;Node11 -->
<g id="edge16" class="edge">
<title>Node1&#45;&gt;Node11</title>
<path fill="none" stroke="midnightblue" d="M728.4,-230.07C715.58,-192.04 686.13,-119.58 637,-78 632.94,-74.57 628.36,-71.61 623.54,-69.07"/>
<polygon fill="midnightblue" stroke="midnightblue" points="725.15,-231.4 731.58,-239.83 731.81,-229.23 725.15,-231.4"/>
</g>
<!-- Node12 -->
<g id="node12" class="node">
<title>Node12</title>
<g id="a_node12"><a xlink:href="../../dd/de7/core_8cc.html#a0ddf1224851353fc92bfbff6f499fa97" target="_top" xlink:title=" ">
<polygon fill="white" stroke="black" points="550,-0.5 550,-19.5 588,-19.5 588,-0.5 550,-0.5"/>
<text text-anchor="middle" x="569" y="-7.5" font-family="Helvetica,sans-Serif" font-size="10.00">main</text>
</a>
</g>
</g>
<!-- Node1&#45;&gt;Node12 -->
<g id="edge17" class="edge">
<title>Node1&#45;&gt;Node12</title>
<path fill="none" stroke="midnightblue" d="M732.16,-229.85C723.69,-183.19 699,-83.06 637,-29 623.42,-17.16 602.95,-12.67 588.21,-10.98"/>
<polygon fill="midnightblue" stroke="midnightblue" points="728.71,-230.47 733.85,-239.74 735.61,-229.29 728.71,-230.47"/>
</g>
<!-- Node7&#45;&gt;Node8 -->
<g id="edge7" class="edge">
<title>Node7&#45;&gt;Node8</title>
<path fill="none" stroke="midnightblue" d="M311.69,-348.25C303.09,-348.23 294.45,-348.3 286.12,-348.47"/>
<polygon fill="midnightblue" stroke="midnightblue" points="311.72,-351.75 321.74,-348.33 311.76,-344.75 311.72,-351.75"/>
</g>
<!-- Node8&#45;&gt;Node3 -->
<g id="edge8" class="edge">
<title>Node8&#45;&gt;Node3</title>
<path fill="none" stroke="midnightblue" d="M159.14,-379.31C145.18,-384.66 130.53,-390.28 117,-395.47"/>
<polygon fill="midnightblue" stroke="midnightblue" points="160.59,-382.5 168.67,-375.65 158.08,-375.97 160.59,-382.5"/>
</g>
<!-- Node8&#45;&gt;Node7 -->
<g id="edge9" class="edge">
<title>Node8&#45;&gt;Node7</title>
<path fill="none" stroke="midnightblue" d="M296.3,-361.69C304.73,-361.77 313.32,-361.77 321.74,-361.67"/>
<polygon fill="midnightblue" stroke="midnightblue" points="296.17,-358.18 286.12,-361.53 296.07,-365.18 296.17,-358.18"/>
</g>
<!-- Node9&#45;&gt;Node2 -->
<g id="edge11" class="edge">
<title>Node9&#45;&gt;Node2</title>
<path fill="none" stroke="midnightblue" d="M496.29,-403.81C483,-406.19 469.22,-408.65 456.25,-410.97"/>
<polygon fill="midnightblue" stroke="midnightblue" points="497.11,-407.22 506.34,-402.02 495.88,-400.33 497.11,-407.22"/>
</g>
<!-- Node9&#45;&gt;Node7 -->
<g id="edge12" class="edge">
<title>Node9&#45;&gt;Node7</title>
<path fill="none" stroke="midnightblue" d="M496.51,-376.17C486.15,-374.02 475.48,-371.8 465.13,-369.66"/>
<polygon fill="midnightblue" stroke="midnightblue" points="495.84,-379.6 506.34,-378.21 497.26,-372.75 495.84,-379.6"/>
</g>
<!-- Node10&#45;&gt;Node5 -->
<g id="edge14" class="edge">
<title>Node10&#45;&gt;Node5</title>
<path fill="none" stroke="midnightblue" d="M490.77,-171.79C479.13,-173.27 467.26,-174.77 456.01,-176.2"/>
<polygon fill="midnightblue" stroke="midnightblue" points="491.44,-175.24 500.92,-170.51 490.56,-168.29 491.44,-175.24"/>
</g>
</g>
</svg>
