<?xml version="1.0" encoding="UTF-8" standalone="no"?>
<!DOCTYPE svg PUBLIC "-//W3C//DTD SVG 1.1//EN"
 "http://www.w3.org/Graphics/SVG/1.1/DTD/svg11.dtd">
<!-- Generated by graphviz version 2.44.0 ()
 -->
<!-- Title: automaton::core::network::simulation::add_task Pages: 1 -->
<svg width="821pt" height="270pt"
 viewBox="0.00 0.00 821.00 269.50" xmlns="http://www.w3.org/2000/svg" xmlns:xlink="http://www.w3.org/1999/xlink">
<g id="graph0" class="graph" transform="scale(1 1) rotate(0) translate(4 265.5)">
<title>automaton::core::network::simulation::add_task</title>
<polygon fill="white" stroke="transparent" points="-4,4 -4,-265.5 817,-265.5 817,4 -4,4"/>
<!-- Node1 -->
<g id="node1" class="node">
<title>Node1</title>
<g id="a_node1"><a xlink:title=" ">
<polygon fill="#bfbfbf" stroke="black" points="688,-118 688,-148 813,-148 813,-118 688,-118"/>
<text text-anchor="start" x="696" y="-136" font-family="Helvetica,sans-Serif" font-size="10.00">automaton::core::network</text>
<text text-anchor="middle" x="750.5" y="-125" font-family="Helvetica,sans-Serif" font-size="10.00">::simulation::add_task</text>
</a>
</g>
</g>
<!-- Node2 -->
<g id="node2" class="node">
<title>Node2</title>
<g id="a_node2"><a xlink:href="../../d7/ded/classautomaton_1_1core_1_1network_1_1simulation.html#a9e6d08f2e6a8c78b10654cb18df20608" target="_top" xlink:title=" ">
<polygon fill="white" stroke="black" points="510,-231 510,-261 643,-261 643,-231 510,-231"/>
<text text-anchor="start" x="518" y="-249" font-family="Helvetica,sans-Serif" font-size="10.00">automaton::core::network</text>
<text text-anchor="middle" x="576.5" y="-238" font-family="Helvetica,sans-Serif" font-size="10.00">::simulation::handle_accept</text>
</a>
</g>
</g>
<!-- Node1&#45;&gt;Node2 -->
<g id="edge1" class="edge">
<title>Node1&#45;&gt;Node2</title>
<path fill="none" stroke="midnightblue" d="M727.4,-155.49C708.62,-173.64 680.29,-198.89 652,-216 642.58,-221.7 631.87,-226.74 621.58,-230.98"/>
<polygon fill="midnightblue" stroke="midnightblue" points="730.15,-157.69 734.83,-148.19 725.24,-152.7 730.15,-157.69"/>
</g>
<!-- Node3 -->
<g id="node3" class="node">
<title>Node3</title>
<g id="a_node3"><a xlink:href="../../d7/ded/classautomaton_1_1core_1_1network_1_1simulation.html#a5e20734a31d56e5dd9e180274df3d1d8" target="_top" xlink:title=" ">
<polygon fill="white" stroke="black" points="325.5,-187 325.5,-217 461.5,-217 461.5,-187 325.5,-187"/>
<text text-anchor="start" x="333.5" y="-205" font-family="Helvetica,sans-Serif" font-size="10.00">automaton::core::network</text>
<text text-anchor="middle" x="393.5" y="-194" font-family="Helvetica,sans-Serif" font-size="10.00">::simulation::handle_request</text>
</a>
</g>
</g>
<!-- Node1&#45;&gt;Node3 -->
<g id="edge14" class="edge">
<title>Node1&#45;&gt;Node3</title>
<path fill="none" stroke="midnightblue" d="M717.98,-153.27C699.51,-164.08 675.29,-176.46 652,-183 589.1,-200.66 514.35,-204.37 461.64,-204.29"/>
<polygon fill="midnightblue" stroke="midnightblue" points="719.78,-156.27 726.56,-148.12 716.18,-150.27 719.78,-156.27"/>
</g>
<!-- Node5 -->
<g id="node5" class="node">
<title>Node5</title>
<g id="a_node5"><a xlink:href="../../d7/ded/classautomaton_1_1core_1_1network_1_1simulation.html#af15311fe128c1b858287e14251a01cf9" target="_top" xlink:title=" ">
<polygon fill="white" stroke="black" points="514,-94 514,-124 639,-124 639,-94 514,-94"/>
<text text-anchor="start" x="522" y="-112" font-family="Helvetica,sans-Serif" font-size="10.00">automaton::core::network</text>
<text text-anchor="middle" x="576.5" y="-101" font-family="Helvetica,sans-Serif" font-size="10.00">::simulation::handle_ack</text>
</a>
</g>
</g>
<!-- Node1&#45;&gt;Node5 -->
<g id="edge4" class="edge">
<title>Node1&#45;&gt;Node5</title>
<path fill="none" stroke="midnightblue" d="M677.75,-122.99C664.96,-121.2 651.74,-119.36 639.26,-117.62"/>
<polygon fill="midnightblue" stroke="midnightblue" points="677.5,-126.49 687.89,-124.4 678.47,-119.55 677.5,-126.49"/>
</g>
<!-- Node6 -->
<g id="node6" class="node">
<title>Node6</title>
<g id="a_node6"><a xlink:href="../../d7/ded/classautomaton_1_1core_1_1network_1_1simulation.html#abac703be4668bd6ebf00deff3c310f2e" target="_top" xlink:title=" ">
<polygon fill="white" stroke="black" points="322,-77 322,-107 465,-107 465,-77 322,-77"/>
<text text-anchor="start" x="330" y="-95" font-family="Helvetica,sans-Serif" font-size="10.00">automaton::core::network</text>
<text text-anchor="middle" x="393.5" y="-84" font-family="Helvetica,sans-Serif" font-size="10.00">::simulation::handle_message</text>
</a>
</g>
</g>
<!-- Node1&#45;&gt;Node6 -->
<g id="edge11" class="edge">
<title>Node1&#45;&gt;Node6</title>
<path fill="none" stroke="midnightblue" d="M717.79,-112.76C699.37,-102.22 675.27,-90.42 652,-85 590.04,-70.58 517.43,-74.34 465.14,-80.54"/>
<polygon fill="midnightblue" stroke="midnightblue" points="716.21,-115.9 726.6,-117.96 719.77,-109.87 716.21,-115.9"/>
</g>
<!-- Node9 -->
<g id="node9" class="node">
<title>Node9</title>
<g id="a_node9"><a xlink:href="../../d7/ded/classautomaton_1_1core_1_1network_1_1simulation.html#a88f01d284e8f9f0a15f32361c1f788aa" target="_top" xlink:title=" ">
<polygon fill="white" stroke="black" points="501,-6 501,-36 652,-36 652,-6 501,-6"/>
<text text-anchor="start" x="509" y="-24" font-family="Helvetica,sans-Serif" font-size="10.00">automaton::core::network</text>
<text text-anchor="middle" x="576.5" y="-13" font-family="Helvetica,sans-Serif" font-size="10.00">::simulation::handle_disconnect</text>
</a>
</g>
</g>
<!-- Node1&#45;&gt;Node9 -->
<g id="edge9" class="edge">
<title>Node1&#45;&gt;Node9</title>
<path fill="none" stroke="midnightblue" d="M727.02,-110.49C708.21,-92.59 680.04,-67.84 652,-51 642.56,-45.33 631.85,-40.3 621.55,-36.06"/>
<polygon fill="midnightblue" stroke="midnightblue" points="724.85,-113.26 734.47,-117.7 729.72,-108.23 724.85,-113.26"/>
</g>
<!-- Node11 -->
<g id="node11" class="node">
<title>Node11</title>
<g id="a_node11"><a xlink:href="../../d7/ded/classautomaton_1_1core_1_1network_1_1simulation.html#aa2a32232ba35a9a200d072d4bd34e326" target="_top" xlink:title=" ">
<polygon fill="white" stroke="black" points="511,-143 511,-173 642,-173 642,-143 511,-143"/>
<text text-anchor="start" x="519" y="-161" font-family="Helvetica,sans-Serif" font-size="10.00">automaton::core::network</text>
<text text-anchor="middle" x="576.5" y="-150" font-family="Helvetica,sans-Serif" font-size="10.00">::simulation::handle_refuse</text>
</a>
</g>
</g>
<!-- Node1&#45;&gt;Node11 -->
<g id="edge12" class="edge">
<title>Node1&#45;&gt;Node11</title>
<path fill="none" stroke="midnightblue" d="M677.66,-143.44C665.89,-145.15 653.75,-146.92 642.16,-148.6"/>
<polygon fill="midnightblue" stroke="midnightblue" points="678.5,-146.86 687.89,-141.95 677.49,-139.93 678.5,-146.86"/>
</g>
<!-- Node2&#45;&gt;Node3 -->
<g id="edge2" class="edge">
<title>Node2&#45;&gt;Node3</title>
<path fill="none" stroke="midnightblue" d="M503.57,-228.51C487.93,-224.71 471.52,-220.72 456.31,-217.03"/>
<polygon fill="midnightblue" stroke="midnightblue" points="503.17,-232.02 513.72,-230.98 504.83,-225.22 503.17,-232.02"/>
</g>
<!-- Node4 -->
<g id="node4" class="node">
<title>Node4</title>
<g id="a_node4"><a xlink:href="../../db/dd7/classautomaton_1_1core_1_1network_1_1simulated__connection.html#aa5e9e8e5c65f2479258629e46844e0a4" target="_top" xlink:title=" ">
<polygon fill="white" stroke="black" points="161,-181.5 161,-222.5 286,-222.5 286,-181.5 161,-181.5"/>
<text text-anchor="start" x="169" y="-210.5" font-family="Helvetica,sans-Serif" font-size="10.00">automaton::core::network</text>
<text text-anchor="start" x="169" y="-199.5" font-family="Helvetica,sans-Serif" font-size="10.00">::simulated_connection</text>
<text text-anchor="middle" x="223.5" y="-188.5" font-family="Helvetica,sans-Serif" font-size="10.00">::connect</text>
</a>
</g>
</g>
<!-- Node3&#45;&gt;Node4 -->
<g id="edge3" class="edge">
<title>Node3&#45;&gt;Node4</title>
<path fill="none" stroke="midnightblue" d="M315.09,-202C305.4,-202 295.58,-202 286.17,-202"/>
<polygon fill="midnightblue" stroke="midnightblue" points="315.14,-205.5 325.14,-202 315.14,-198.5 315.14,-205.5"/>
</g>
<!-- Node5&#45;&gt;Node6 -->
<g id="edge5" class="edge">
<title>Node5&#45;&gt;Node6</title>
<path fill="none" stroke="midnightblue" d="M503.89,-102.27C491.17,-101.08 477.92,-99.83 465.21,-98.64"/>
<polygon fill="midnightblue" stroke="midnightblue" points="503.69,-105.77 513.97,-103.22 504.34,-98.8 503.69,-105.77"/>
</g>
<!-- Node7 -->
<g id="node7" class="node">
<title>Node7</title>
<g id="a_node7"><a xlink:href="../../db/dd7/classautomaton_1_1core_1_1network_1_1simulated__connection.html#a6af3ffae84db8b49436c6eb0423d66fb" target="_top" xlink:title=" ">
<polygon fill="white" stroke="black" points="161,-71.5 161,-112.5 286,-112.5 286,-71.5 161,-71.5"/>
<text text-anchor="start" x="169" y="-100.5" font-family="Helvetica,sans-Serif" font-size="10.00">automaton::core::network</text>
<text text-anchor="start" x="169" y="-89.5" font-family="Helvetica,sans-Serif" font-size="10.00">::simulated_connection</text>
<text text-anchor="middle" x="223.5" y="-78.5" font-family="Helvetica,sans-Serif" font-size="10.00">::handle_send</text>
</a>
</g>
</g>
<!-- Node6&#45;&gt;Node7 -->
<g id="edge6" class="edge">
<title>Node6&#45;&gt;Node7</title>
<path fill="none" stroke="midnightblue" d="M311.69,-85.25C303.09,-85.23 294.45,-85.3 286.12,-85.47"/>
<polygon fill="midnightblue" stroke="midnightblue" points="311.72,-88.75 321.74,-85.33 311.76,-81.75 311.72,-88.75"/>
</g>
<!-- Node7&#45;&gt;Node6 -->
<g id="edge8" class="edge">
<title>Node7&#45;&gt;Node6</title>
<path fill="none" stroke="midnightblue" d="M296.3,-98.69C304.73,-98.77 313.32,-98.77 321.74,-98.67"/>
<polygon fill="midnightblue" stroke="midnightblue" points="296.17,-95.18 286.12,-98.53 296.07,-102.18 296.17,-95.18"/>
</g>
<!-- Node8 -->
<g id="node8" class="node">
<title>Node8</title>
<g id="a_node8"><a xlink:href="../../db/dd7/classautomaton_1_1core_1_1network_1_1simulated__connection.html#a820ba31e256235c99d7e4aba79ecfcbe" target="_top" xlink:title=" ">
<polygon fill="white" stroke="black" points="0,-71.5 0,-112.5 125,-112.5 125,-71.5 0,-71.5"/>
<text text-anchor="start" x="8" y="-100.5" font-family="Helvetica,sans-Serif" font-size="10.00">automaton::core::network</text>
<text text-anchor="start" x="8" y="-89.5" font-family="Helvetica,sans-Serif" font-size="10.00">::simulated_connection</text>
<text text-anchor="middle" x="62.5" y="-78.5" font-family="Helvetica,sans-Serif" font-size="10.00">::async_send</text>
</a>
</g>
</g>
<!-- Node7&#45;&gt;Node8 -->
<g id="edge7" class="edge">
<title>Node7&#45;&gt;Node8</title>
<path fill="none" stroke="midnightblue" d="M150.41,-92C142.01,-92 133.5,-92 125.26,-92"/>
<polygon fill="midnightblue" stroke="midnightblue" points="150.57,-95.5 160.57,-92 150.57,-88.5 150.57,-95.5"/>
</g>
<!-- Node10 -->
<g id="node10" class="node">
<title>Node10</title>
<g id="a_node10"><a xlink:href="../../db/dd7/classautomaton_1_1core_1_1network_1_1simulated__connection.html#a34e308f58cd58799f4e66b0a19c71cf1" target="_top" xlink:title=" ">
<polygon fill="white" stroke="black" points="331,-0.5 331,-41.5 456,-41.5 456,-0.5 331,-0.5"/>
<text text-anchor="start" x="339" y="-29.5" font-family="Helvetica,sans-Serif" font-size="10.00">automaton::core::network</text>
<text text-anchor="start" x="339" y="-18.5" font-family="Helvetica,sans-Serif" font-size="10.00">::simulated_connection</text>
<text text-anchor="middle" x="393.5" y="-7.5" font-family="Helvetica,sans-Serif" font-size="10.00">::disconnect</text>
</a>
</g>
</g>
<!-- Node9&#45;&gt;Node10 -->
<g id="edge10" class="edge">
<title>Node9&#45;&gt;Node10</title>
<path fill="none" stroke="midnightblue" d="M490.64,-21C478.97,-21 467.18,-21 456.05,-21"/>
<polygon fill="midnightblue" stroke="midnightblue" points="490.84,-24.5 500.84,-21 490.84,-17.5 490.84,-24.5"/>
</g>
<!-- Node11&#45;&gt;Node3 -->
<g id="edge13" class="edge">
<title>Node11&#45;&gt;Node3</title>
<path fill="none" stroke="midnightblue" d="M503.57,-175.49C487.93,-179.29 471.52,-183.28 456.31,-186.97"/>
<polygon fill="midnightblue" stroke="midnightblue" points="504.83,-178.78 513.72,-173.02 503.17,-171.98 504.83,-178.78"/>
</g>
</g>
</svg>
