<?xml version="1.0" encoding="UTF-8" standalone="no"?>
<!DOCTYPE svg PUBLIC "-//W3C//DTD SVG 1.1//EN"
 "http://www.w3.org/Graphics/SVG/1.1/DTD/svg11.dtd">
<!-- Generated by graphviz version 2.42.3 ()
 -->
<!-- Title: automaton::core::network::simulation::get_time Pages: 1 -->
<!--zoomable 316 -->
<svg id="main" version="1.1" xmlns="http://www.w3.org/2000/svg" xmlns:xlink="http://www.w3.org/1999/xlink" xml:space="preserve" onload="init(evt)">
<style type="text/css"><![CDATA[
.edge:hover path { stroke: red; }
.edge:hover polygon { stroke: red; fill: red; }
]]></style>
<script type="text/javascript"><![CDATA[
var edges = document.getElementsByTagName('g');
if (edges && edges.length) {
  for (var i=0;i<edges.length;i++) {
    if (edges[i].id.substr(0,4)=='edge') {
      edges[i].setAttribute('class','edge');
    }
  }
}
]]></script>
        <defs>
                <circle id="rim" cx="0" cy="0" r="7"/>
                <circle id="rim2" cx="0" cy="0" r="3.5"/>
                <g id="zoomPlus">
                        <use xlink:href="#rim" fill="#404040">
                                <set attributeName="fill" to="#808080" begin="zoomplus.mouseover" end="zoomplus.mouseout"/>
                        </use>
                        <path d="M-4,0h8M0,-4v8" fill="none" stroke="white" stroke-width="1.5" pointer-events="none"/>
                </g>
                <g id="zoomMin">
                        <use xlink:href="#rim" fill="#404040">
                                <set attributeName="fill" to="#808080" begin="zoomminus.mouseover" end="zoomminus.mouseout"/>
                        </use>
                        <path d="M-4,0h8" fill="none" stroke="white" stroke-width="1.5" pointer-events="none"/>
                </g>
                <g id="dirArrow">
                        <path fill="none" stroke="white" stroke-width="1.5" d="M0,-3.0v7 M-2.5,-0.5L0,-3.0L2.5,-0.5"/>
                </g>
               <g id="resetDef">
                       <use xlink:href="#rim2" fill="#404040">
                               <set attributeName="fill" to="#808080" begin="reset.mouseover" end="reset.mouseout"/>
                       </use>
               </g>
        </defs>

<script type="text/javascript">
var viewWidth = 821;
var viewHeight = 316;
var sectionId = 'dynsection-6';
</script>
<script xlink:href="../../svgpan.js"/>
<svg id="graph" class="graph">
<g id="viewport">
<title>automaton::core::network::simulation::get_time</title>
<polygon fill="white" stroke="transparent" points="-4,4 -4,-312 817,-312 817,4 -4,4"/>
<!-- Node1 -->
<g id="node1" class="node">
<title>Node1</title>
<g id="a_node1"><a xlink:title=" ">
<polygon fill="#bfbfbf" stroke="black" points="688,-140.5 688,-170.5 813,-170.5 813,-140.5 688,-140.5"/>
<text text-anchor="start" x="696" y="-158.5" font-family="Helvetica,sans-Serif" font-size="10.00">automaton::core::network</text>
<text text-anchor="middle" x="750.5" y="-147.5" font-family="Helvetica,sans-Serif" font-size="10.00">::simulation::get_time</text>
</a>
</g>
</g>
<!-- Node2 -->
<g id="node2" class="node">
<title>Node2</title>
<g id="a_node2"><a xlink:href="../../d7/ded/classautomaton_1_1core_1_1network_1_1simulation.html#a9e6d08f2e6a8c78b10654cb18df20608" target="_top" xlink:title=" ">
<polygon fill="white" stroke="black" points="510,-277.5 510,-307.5 643,-307.5 643,-277.5 510,-277.5"/>
<text text-anchor="start" x="518" y="-295.5" font-family="Helvetica,sans-Serif" font-size="10.00">automaton::core::network</text>
<text text-anchor="middle" x="576.5" y="-284.5" font-family="Helvetica,sans-Serif" font-size="10.00">::simulation::handle_accept</text>
</a>
</g>
</g>
<!-- Node1&#45;&gt;Node2 -->
<g id="edge1" class="edge">
<title>Node1&#45;&gt;Node2</title>
<path fill="none" stroke="midnightblue" d="M733.27,-178.75C715.63,-202.55 685.45,-239.25 652,-262.5 643.53,-268.39 633.73,-273.38 624.08,-277.5"/>
<polygon fill="midnightblue" stroke="midnightblue" points="736.14,-180.76 739.18,-170.61 730.47,-176.64 736.14,-180.76"/>
</g>
<!-- Node3 -->
<g id="node3" class="node">
<title>Node3</title>
<g id="a_node3"><a xlink:href="../../d7/ded/classautomaton_1_1core_1_1network_1_1simulation.html#a5e20734a31d56e5dd9e180274df3d1d8" target="_top" xlink:title=" ">
<polygon fill="white" stroke="black" points="325.5,-233.5 325.5,-263.5 461.5,-263.5 461.5,-233.5 325.5,-233.5"/>
<text text-anchor="start" x="333.5" y="-251.5" font-family="Helvetica,sans-Serif" font-size="10.00">automaton::core::network</text>
<text text-anchor="middle" x="393.5" y="-240.5" font-family="Helvetica,sans-Serif" font-size="10.00">::simulation::handle_request</text>
</a>
</g>
</g>
<!-- Node1&#45;&gt;Node3 -->
<g id="edge14" class="edge">
<title>Node1&#45;&gt;Node3</title>
<path fill="none" stroke="midnightblue" d="M728.07,-177.7C709.69,-195.15 681.57,-218.32 652,-229.5 590.47,-252.76 514.86,-255.6 461.54,-253.78"/>
<polygon fill="midnightblue" stroke="midnightblue" points="730.61,-180.11 735.32,-170.62 725.72,-175.1 730.61,-180.11"/>
</g>
<!-- Node5 -->
<g id="node5" class="node">
<title>Node5</title>
<g id="a_node5"><a xlink:href="../../d7/ded/classautomaton_1_1core_1_1network_1_1simulation.html#af15311fe128c1b858287e14251a01cf9" target="_top" xlink:title=" ">
<polygon fill="white" stroke="black" points="514,-140.5 514,-170.5 639,-170.5 639,-140.5 514,-140.5"/>
<text text-anchor="start" x="522" y="-158.5" font-family="Helvetica,sans-Serif" font-size="10.00">automaton::core::network</text>
<text text-anchor="middle" x="576.5" y="-147.5" font-family="Helvetica,sans-Serif" font-size="10.00">::simulation::handle_ack</text>
</a>
</g>
</g>
<!-- Node1&#45;&gt;Node5 -->
<g id="edge4" class="edge">
<title>Node1&#45;&gt;Node5</title>
<path fill="none" stroke="midnightblue" d="M677.75,-155.5C664.96,-155.5 651.74,-155.5 639.26,-155.5"/>
<polygon fill="midnightblue" stroke="midnightblue" points="677.89,-159 687.89,-155.5 677.89,-152 677.89,-159"/>
</g>
<!-- Node6 -->
<g id="node6" class="node">
<title>Node6</title>
<g id="a_node6"><a xlink:href="../../d7/ded/classautomaton_1_1core_1_1network_1_1simulation.html#abac703be4668bd6ebf00deff3c310f2e" target="_top" xlink:title=" ">
<polygon fill="white" stroke="black" points="322,-124.5 322,-154.5 465,-154.5 465,-124.5 322,-124.5"/>
<text text-anchor="start" x="330" y="-142.5" font-family="Helvetica,sans-Serif" font-size="10.00">automaton::core::network</text>
<text text-anchor="middle" x="393.5" y="-131.5" font-family="Helvetica,sans-Serif" font-size="10.00">::simulation::handle_message</text>
</a>
</g>
</g>
<!-- Node1&#45;&gt;Node6 -->
<g id="edge11" class="edge">
<title>Node1&#45;&gt;Node6</title>
<path fill="none" stroke="midnightblue" d="M688.41,-138.08C676.44,-135.34 663.9,-132.94 652,-131.5 589.17,-123.88 517.13,-127.13 465.25,-131.56"/>
<polygon fill="midnightblue" stroke="midnightblue" points="687.78,-141.53 698.32,-140.44 689.4,-134.72 687.78,-141.53"/>
</g>
<!-- Node9 -->
<g id="node9" class="node">
<title>Node9</title>
<g id="a_node9"><a xlink:href="../../d7/ded/classautomaton_1_1core_1_1network_1_1simulation.html#a88f01d284e8f9f0a15f32361c1f788aa" target="_top" xlink:title=" ">
<polygon fill="white" stroke="black" points="501,-52.5 501,-82.5 652,-82.5 652,-52.5 501,-52.5"/>
<text text-anchor="start" x="509" y="-70.5" font-family="Helvetica,sans-Serif" font-size="10.00">automaton::core::network</text>
<text text-anchor="middle" x="576.5" y="-59.5" font-family="Helvetica,sans-Serif" font-size="10.00">::simulation::handle_disconnect</text>
</a>
</g>
</g>
<!-- Node1&#45;&gt;Node9 -->
<g id="edge9" class="edge">
<title>Node1&#45;&gt;Node9</title>
<path fill="none" stroke="midnightblue" d="M717.72,-134.9C698.99,-123.2 674.6,-108.69 652,-97.5 641.25,-92.18 629.32,-87.05 618.21,-82.58"/>
<polygon fill="midnightblue" stroke="midnightblue" points="716.1,-138.02 726.42,-140.4 719.83,-132.1 716.1,-138.02"/>
</g>
<!-- Node11 -->
<g id="node11" class="node">
<title>Node11</title>
<g id="a_node11"><a xlink:href="../../d7/ded/classautomaton_1_1core_1_1network_1_1simulation.html#aa2a32232ba35a9a200d072d4bd34e326" target="_top" xlink:title=" ">
<polygon fill="white" stroke="black" points="511,-189.5 511,-219.5 642,-219.5 642,-189.5 511,-189.5"/>
<text text-anchor="start" x="519" y="-207.5" font-family="Helvetica,sans-Serif" font-size="10.00">automaton::core::network</text>
<text text-anchor="middle" x="576.5" y="-196.5" font-family="Helvetica,sans-Serif" font-size="10.00">::simulation::handle_refuse</text>
</a>
</g>
</g>
<!-- Node1&#45;&gt;Node11 -->
<g id="edge12" class="edge">
<title>Node1&#45;&gt;Node11</title>
<path fill="none" stroke="midnightblue" d="M686.69,-173.39C668.19,-178.66 648.14,-184.38 630.33,-189.45"/>
<polygon fill="midnightblue" stroke="midnightblue" points="687.83,-176.71 696.49,-170.6 685.91,-169.98 687.83,-176.71"/>
</g>
<!-- Node12 -->
<g id="node12" class="node">
<title>Node12</title>
<g id="a_node12"><a xlink:href="../../d7/ded/classautomaton_1_1core_1_1network_1_1simulation.html#add71950763ba9165618ebf8fbef948d4" target="_top" xlink:title=" ">
<polygon fill="white" stroke="black" points="514,-2.5 514,-32.5 639,-32.5 639,-2.5 514,-2.5"/>
<text text-anchor="start" x="522" y="-20.5" font-family="Helvetica,sans-Serif" font-size="10.00">automaton::core::network</text>
<text text-anchor="middle" x="576.5" y="-9.5" font-family="Helvetica,sans-Serif" font-size="10.00">::simulation::process</text>
</a>
</g>
</g>
<!-- Node1&#45;&gt;Node12 -->
<g id="edge15" class="edge">
<title>Node1&#45;&gt;Node12</title>
<path fill="none" stroke="midnightblue" d="M734.68,-131.74C717.65,-106.27 687.44,-66.3 652,-42.5 646.34,-38.7 640.04,-35.43 633.58,-32.62"/>
<polygon fill="midnightblue" stroke="midnightblue" points="731.95,-133.95 740.34,-140.41 737.81,-130.13 731.95,-133.95"/>
</g>
<!-- Node2&#45;&gt;Node3 -->
<g id="edge2" class="edge">
<title>Node2&#45;&gt;Node3</title>
<path fill="none" stroke="midnightblue" d="M503.57,-275.01C487.93,-271.21 471.52,-267.22 456.31,-263.53"/>
<polygon fill="midnightblue" stroke="midnightblue" points="503.17,-278.52 513.72,-277.48 504.83,-271.72 503.17,-278.52"/>
</g>
<!-- Node4 -->
<g id="node4" class="node">
<title>Node4</title>
<g id="a_node4"><a xlink:href="../../db/dd7/classautomaton_1_1core_1_1network_1_1simulated__connection.html#aa5e9e8e5c65f2479258629e46844e0a4" target="_top" xlink:title=" ">
<polygon fill="white" stroke="black" points="161,-228 161,-269 286,-269 286,-228 161,-228"/>
<text text-anchor="start" x="169" y="-257" font-family="Helvetica,sans-Serif" font-size="10.00">automaton::core::network</text>
<text text-anchor="start" x="169" y="-246" font-family="Helvetica,sans-Serif" font-size="10.00">::simulated_connection</text>
<text text-anchor="middle" x="223.5" y="-235" font-family="Helvetica,sans-Serif" font-size="10.00">::connect</text>
</a>
</g>
</g>
<!-- Node3&#45;&gt;Node4 -->
<g id="edge3" class="edge">
<title>Node3&#45;&gt;Node4</title>
<path fill="none" stroke="midnightblue" d="M315.09,-248.5C305.4,-248.5 295.58,-248.5 286.17,-248.5"/>
<polygon fill="midnightblue" stroke="midnightblue" points="315.14,-252 325.14,-248.5 315.14,-245 315.14,-252"/>
</g>
<!-- Node5&#45;&gt;Node6 -->
<g id="edge5" class="edge">
<title>Node5&#45;&gt;Node6</title>
<path fill="none" stroke="midnightblue" d="M503.89,-149.17C491.17,-148.05 477.92,-146.87 465.21,-145.75"/>
<polygon fill="midnightblue" stroke="midnightblue" points="503.7,-152.67 513.97,-150.06 504.32,-145.69 503.7,-152.67"/>
</g>
<!-- Node7 -->
<g id="node7" class="node">
<title>Node7</title>
<g id="a_node7"><a xlink:href="../../db/dd7/classautomaton_1_1core_1_1network_1_1simulated__connection.html#a6af3ffae84db8b49436c6eb0423d66fb" target="_top" xlink:title=" ">
<polygon fill="white" stroke="black" points="161,-119 161,-160 286,-160 286,-119 161,-119"/>
<text text-anchor="start" x="169" y="-148" font-family="Helvetica,sans-Serif" font-size="10.00">automaton::core::network</text>
<text text-anchor="start" x="169" y="-137" font-family="Helvetica,sans-Serif" font-size="10.00">::simulated_connection</text>
<text text-anchor="middle" x="223.5" y="-126" font-family="Helvetica,sans-Serif" font-size="10.00">::handle_send</text>
</a>
</g>
</g>
<!-- Node6&#45;&gt;Node7 -->
<g id="edge6" class="edge">
<title>Node6&#45;&gt;Node7</title>
<path fill="none" stroke="midnightblue" d="M311.69,-132.75C303.09,-132.73 294.45,-132.8 286.12,-132.97"/>
<polygon fill="midnightblue" stroke="midnightblue" points="311.72,-136.25 321.74,-132.83 311.76,-129.25 311.72,-136.25"/>
</g>
<!-- Node7&#45;&gt;Node6 -->
<g id="edge8" class="edge">
<title>Node7&#45;&gt;Node6</title>
<path fill="none" stroke="midnightblue" d="M296.3,-146.19C304.73,-146.27 313.32,-146.27 321.74,-146.17"/>
<polygon fill="midnightblue" stroke="midnightblue" points="296.17,-142.68 286.12,-146.03 296.07,-149.68 296.17,-142.68"/>
</g>
<!-- Node8 -->
<g id="node8" class="node">
<title>Node8</title>
<g id="a_node8"><a xlink:href="../../db/dd7/classautomaton_1_1core_1_1network_1_1simulated__connection.html#a820ba31e256235c99d7e4aba79ecfcbe" target="_top" xlink:title=" ">
<polygon fill="white" stroke="black" points="0,-119 0,-160 125,-160 125,-119 0,-119"/>
<text text-anchor="start" x="8" y="-148" font-family="Helvetica,sans-Serif" font-size="10.00">automaton::core::network</text>
<text text-anchor="start" x="8" y="-137" font-family="Helvetica,sans-Serif" font-size="10.00">::simulated_connection</text>
<text text-anchor="middle" x="62.5" y="-126" font-family="Helvetica,sans-Serif" font-size="10.00">::async_send</text>
</a>
</g>
</g>
<!-- Node7&#45;&gt;Node8 -->
<g id="edge7" class="edge">
<title>Node7&#45;&gt;Node8</title>
<path fill="none" stroke="midnightblue" d="M150.41,-139.5C142.01,-139.5 133.5,-139.5 125.26,-139.5"/>
<polygon fill="midnightblue" stroke="midnightblue" points="150.57,-143 160.57,-139.5 150.57,-136 150.57,-143"/>
</g>
<!-- Node10 -->
<g id="node10" class="node">
<title>Node10</title>
<g id="a_node10"><a xlink:href="../../db/dd7/classautomaton_1_1core_1_1network_1_1simulated__connection.html#a34e308f58cd58799f4e66b0a19c71cf1" target="_top" xlink:title=" ">
<polygon fill="white" stroke="black" points="331,-49 331,-90 456,-90 456,-49 331,-49"/>
<text text-anchor="start" x="339" y="-78" font-family="Helvetica,sans-Serif" font-size="10.00">automaton::core::network</text>
<text text-anchor="start" x="339" y="-67" font-family="Helvetica,sans-Serif" font-size="10.00">::simulated_connection</text>
<text text-anchor="middle" x="393.5" y="-56" font-family="Helvetica,sans-Serif" font-size="10.00">::disconnect</text>
</a>
</g>
</g>
<!-- Node9&#45;&gt;Node10 -->
<g id="edge10" class="edge">
<title>Node9&#45;&gt;Node10</title>
<path fill="none" stroke="midnightblue" d="M490.64,-68.44C478.97,-68.57 467.18,-68.7 456.05,-68.82"/>
<polygon fill="midnightblue" stroke="midnightblue" points="490.87,-71.94 500.84,-68.33 490.8,-64.94 490.87,-71.94"/>
</g>
<!-- Node11&#45;&gt;Node3 -->
<g id="edge13" class="edge">
<title>Node11&#45;&gt;Node3</title>
<path fill="none" stroke="midnightblue" d="M503.57,-221.99C487.93,-225.79 471.52,-229.78 456.31,-233.47"/>
<polygon fill="midnightblue" stroke="midnightblue" points="504.83,-225.28 513.72,-219.52 503.17,-218.48 504.83,-225.28"/>
</g>
<!-- Node13 -->
<g id="node13" class="node">
<title>Node13</title>
<g id="a_node13"><a xlink:href="../../d7/ded/classautomaton_1_1core_1_1network_1_1simulation.html#a817ac2eec0452beaf2263b971227b135" target="_top" xlink:title=" ">
<polygon fill="white" stroke="black" points="324,-0.5 324,-30.5 463,-30.5 463,-0.5 324,-0.5"/>
<text text-anchor="start" x="332" y="-18.5" font-family="Helvetica,sans-Serif" font-size="10.00">automaton::core::network</text>
<text text-anchor="middle" x="393.5" y="-7.5" font-family="Helvetica,sans-Serif" font-size="10.00">::simulation::simulation_start</text>
</a>
</g>
</g>
<!-- Node12&#45;&gt;Node13 -->
<g id="edge16" class="edge">
<title>Node12&#45;&gt;Node13</title>
<path fill="none" stroke="midnightblue" d="M503.82,-16.71C490.38,-16.56 476.35,-16.4 463.01,-16.26"/>
<polygon fill="midnightblue" stroke="midnightblue" points="503.93,-20.21 513.97,-16.82 504.01,-13.21 503.93,-20.21"/>
</g>
<!-- Node14 -->
<g id="node14" class="node">
<title>Node14</title>
<g id="a_node14"><a xlink:href="../../dd/de7/core_8cc.html#a0ddf1224851353fc92bfbff6f499fa97" target="_top" xlink:title=" ">
<polygon fill="white" stroke="black" points="204.5,-6 204.5,-25 242.5,-25 242.5,-6 204.5,-6"/>
<text text-anchor="middle" x="223.5" y="-13" font-family="Helvetica,sans-Serif" font-size="10.00">main</text>
</a>
</g>
</g>
<!-- Node13&#45;&gt;Node14 -->
<g id="edge17" class="edge">
<title>Node13&#45;&gt;Node14</title>
<path fill="none" stroke="midnightblue" d="M313.57,-15.5C287.03,-15.5 259.81,-15.5 242.56,-15.5"/>
<polygon fill="midnightblue" stroke="midnightblue" points="313.68,-19 323.68,-15.5 313.68,-12 313.68,-19"/>
</g>
</g>
</svg>
        <g id="navigator" transform="translate(0 0)" fill="#404254">
                <rect fill="#f2f5e9" fill-opacity="0.5" stroke="#606060" stroke-width=".5" x="0" y="0" width="60" height="60"/>
                <use id="zoomplus" xlink:href="#zoomPlus" x="17" y="9" onmousedown="handleZoom(evt,'in')"/>
                <use id="zoomminus" xlink:href="#zoomMin" x="42" y="9" onmousedown="handleZoom(evt,'out')"/>
                <use id="reset" xlink:href="#resetDef" x="30" y="36" onmousedown="handleReset()"/>
                <g id="arrowUp" xlink:href="#dirArrow" transform="translate(30 24)" onmousedown="handlePan(0,-1)">
                  <use xlink:href="#rim" fill="#404040">
                        <set attributeName="fill" to="#808080" begin="arrowUp.mouseover" end="arrowUp.mouseout"/>
                  </use>
                  <path fill="none" stroke="white" stroke-width="1.5" d="M0,-3.0v7 M-2.5,-0.5L0,-3.0L2.5,-0.5"/>
                </g>
                <g id="arrowRight" xlink:href="#dirArrow" transform="rotate(90) translate(36 -43)" onmousedown="handlePan(1,0)">
                  <use xlink:href="#rim" fill="#404040">
                        <set attributeName="fill" to="#808080" begin="arrowRight.mouseover" end="arrowRight.mouseout"/>
                  </use>
                  <path fill="none" stroke="white" stroke-width="1.5" d="M0,-3.0v7 M-2.5,-0.5L0,-3.0L2.5,-0.5"/>
                </g>
                <g id="arrowDown" xlink:href="#dirArrow" transform="rotate(180) translate(-30 -48)" onmousedown="handlePan(0,1)">
                  <use xlink:href="#rim" fill="#404040">
                        <set attributeName="fill" to="#808080" begin="arrowDown.mouseover" end="arrowDown.mouseout"/>
                  </use>
                  <path fill="none" stroke="white" stroke-width="1.5" d="M0,-3.0v7 M-2.5,-0.5L0,-3.0L2.5,-0.5"/>
                </g>
                <g id="arrowLeft" xlink:href="#dirArrow" transform="rotate(270) translate(-36 17)" onmousedown="handlePan(-1,0)">
                  <use xlink:href="#rim" fill="#404040">
                        <set attributeName="fill" to="#808080" begin="arrowLeft.mouseover" end="arrowLeft.mouseout"/>
                  </use>
                  <path fill="none" stroke="white" stroke-width="1.5" d="M0,-3.0v7 M-2.5,-0.5L0,-3.0L2.5,-0.5"/>
                </g>
        </g>
        <svg viewBox="0 0 15 15" width="100%" height="30px" preserveAspectRatio="xMaxYMin meet">
         <g id="arrow_out" transform="scale(0.3 0.3)">
          <a xlink:href="classautomaton_1_1core_1_1network_1_1simulation_a6ac8458190dbb7d9291a43c49b574e51_icgraph_org.svg" target="_base">
           <rect id="button" ry="5" rx="5" y="6" x="6" height="38" width="38"
                fill="#f2f5e9" fill-opacity="0.5" stroke="#606060" stroke-width="1.0"/>
           <path id="arrow"
             d="M 11.500037,31.436501 C 11.940474,20.09759 22.043105,11.32322 32.158766,21.979434 L 37.068811,17.246167 C 37.068811,17.246167 37.088388,32 37.088388,32 L 22.160133,31.978069 C 22.160133,31.978069 26.997745,27.140456 26.997745,27.140456 C 18.528582,18.264221 13.291696,25.230495 11.500037,31.436501 z"
             style="fill:#404040;"/>
          </a>
         </g>
        </svg>
</svg>
