<?xml version="1.0" encoding="UTF-8" standalone="no"?>
<!DOCTYPE svg PUBLIC "-//W3C//DTD SVG 1.1//EN"
 "http://www.w3.org/Graphics/SVG/1.1/DTD/svg11.dtd">
<!-- Generated by graphviz version 2.44.0 ()
 -->
<!-- Title: automaton::core::script::module::implementation_info Pages: 1 -->
<svg width="1303pt" height="221pt"
 viewBox="0.00 0.00 1303.00 220.50" xmlns="http://www.w3.org/2000/svg" xmlns:xlink="http://www.w3.org/1999/xlink">
<g id="graph0" class="graph" transform="scale(1 1) rotate(0) translate(4 216.5)">
<title>automaton::core::script::module::implementation_info</title>
<polygon fill="white" stroke="transparent" points="-4,4 -4,-216.5 1299,-216.5 1299,4 -4,4"/>
<!-- Node1 -->
<g id="node1" class="node">
<title>Node1</title>
<g id="a_node1"><a xlink:title=" ">
<polygon fill="#bfbfbf" stroke="black" points="1151,-68.5 1151,-98.5 1295,-98.5 1295,-68.5 1151,-68.5"/>
<text text-anchor="start" x="1159" y="-86.5" font-family="Helvetica,sans-Serif" font-size="10.00">automaton::core::script</text>
<text text-anchor="middle" x="1223" y="-75.5" font-family="Helvetica,sans-Serif" font-size="10.00">::module::implementation_info</text>
</a>
</g>
</g>
<!-- Node2 -->
<g id="node2" class="node">
<title>Node2</title>
<g id="a_node2"><a xlink:title=" ">
<polygon fill="white" stroke="#bfbfbf" points="951.5,-88 951.5,-129 1067.5,-129 1067.5,-88 951.5,-88"/>
<text text-anchor="start" x="959.5" y="-117" font-family="Helvetica,sans-Serif" font-size="10.00">std::vector&lt; automaton</text>
<text text-anchor="start" x="959.5" y="-106" font-family="Helvetica,sans-Serif" font-size="10.00">::core::script::module</text>
<text text-anchor="middle" x="1009.5" y="-95" font-family="Helvetica,sans-Serif" font-size="10.00">::concept_info &gt;</text>
</a>
</g>
</g>
<!-- Node2&#45;&gt;Node1 -->
<g id="edge1" class="edge">
<title>Node2&#45;&gt;Node1</title>
<path fill="none" stroke="#9a32cd" stroke-dasharray="5,2" d="M1077.85,-100.54C1101.08,-97.79 1127.19,-94.71 1150.73,-91.92"/>
<polygon fill="#9a32cd" stroke="#9a32cd" points="1077.25,-97.08 1067.73,-101.73 1078.08,-104.04 1077.25,-97.08"/>
<text text-anchor="middle" x="1111.5" y="-101.5" font-family="Helvetica,sans-Serif" font-size="10.00"> concepts</text>
</g>
<!-- Node3 -->
<g id="node3" class="node">
<title>Node3</title>
<g id="a_node3"><a xlink:href="../../d5/d19/structautomaton_1_1core_1_1script_1_1module_1_1concept__info.html" target="_top" xlink:title=" ">
<polygon fill="white" stroke="black" points="754,-93.5 754,-123.5 868,-123.5 868,-93.5 754,-93.5"/>
<text text-anchor="start" x="762" y="-111.5" font-family="Helvetica,sans-Serif" font-size="10.00">automaton::core::script</text>
<text text-anchor="middle" x="811" y="-100.5" font-family="Helvetica,sans-Serif" font-size="10.00">::module::concept_info</text>
</a>
</g>
</g>
<!-- Node3&#45;&gt;Node2 -->
<g id="edge2" class="edge">
<title>Node3&#45;&gt;Node2</title>
<path fill="none" stroke="#9a32cd" stroke-dasharray="5,2" d="M878.36,-108.5C902.05,-108.5 928.51,-108.5 951.36,-108.5"/>
<polygon fill="#9a32cd" stroke="#9a32cd" points="878.05,-105 868.05,-108.5 878.05,-112 878.05,-105"/>
<text text-anchor="middle" x="907.5" y="-111.5" font-family="Helvetica,sans-Serif" font-size="10.00"> elements</text>
</g>
<!-- Node4 -->
<g id="node4" class="node">
<title>Node4</title>
<g id="a_node4"><a xlink:title=" ">
<polygon fill="white" stroke="#bfbfbf" points="498,-126 498,-167 614,-167 614,-126 498,-126"/>
<text text-anchor="start" x="506" y="-155" font-family="Helvetica,sans-Serif" font-size="10.00">std::vector&lt; automaton</text>
<text text-anchor="start" x="506" y="-144" font-family="Helvetica,sans-Serif" font-size="10.00">::core::script::module</text>
<text text-anchor="middle" x="556" y="-133" font-family="Helvetica,sans-Serif" font-size="10.00">::method_info &gt;</text>
</a>
</g>
</g>
<!-- Node4&#45;&gt;Node3 -->
<g id="edge3" class="edge">
<title>Node4&#45;&gt;Node3</title>
<path fill="none" stroke="#9a32cd" stroke-dasharray="5,2" d="M624.15,-136.41C664.66,-130.33 715.66,-122.67 753.99,-116.91"/>
<polygon fill="#9a32cd" stroke="#9a32cd" points="623.46,-132.98 614.09,-137.92 624.5,-139.9 623.46,-132.98"/>
<text text-anchor="middle" x="684" y="-136.5" font-family="Helvetica,sans-Serif" font-size="10.00"> methods</text>
</g>
<!-- Node5 -->
<g id="node5" class="node">
<title>Node5</title>
<g id="a_node5"><a xlink:href="../../d9/d6f/structautomaton_1_1core_1_1script_1_1module_1_1method__info.html" target="_top" xlink:title=" ">
<polygon fill="white" stroke="black" points="305,-131.5 305,-161.5 419,-161.5 419,-131.5 305,-131.5"/>
<text text-anchor="start" x="313" y="-149.5" font-family="Helvetica,sans-Serif" font-size="10.00">automaton::core::script</text>
<text text-anchor="middle" x="362" y="-138.5" font-family="Helvetica,sans-Serif" font-size="10.00">::module::method_info</text>
</a>
</g>
</g>
<!-- Node5&#45;&gt;Node4 -->
<g id="edge4" class="edge">
<title>Node5&#45;&gt;Node4</title>
<path fill="none" stroke="#9a32cd" stroke-dasharray="5,2" d="M429.14,-146.5C451.51,-146.5 476.27,-146.5 497.88,-146.5"/>
<polygon fill="#9a32cd" stroke="#9a32cd" points="429.05,-143 419.05,-146.5 429.05,-150 429.05,-143"/>
<text text-anchor="middle" x="458.5" y="-149.5" font-family="Helvetica,sans-Serif" font-size="10.00"> elements</text>
</g>
<!-- Node6 -->
<g id="node6" class="node">
<title>Node6</title>
<g id="a_node6"><a xlink:title=" ">
<polygon fill="white" stroke="#bfbfbf" points="134,-173 134,-192 185,-192 185,-173 134,-173"/>
<text text-anchor="middle" x="159.5" y="-180" font-family="Helvetica,sans-Serif" font-size="10.00">uint32_t</text>
</a>
</g>
</g>
<!-- Node6&#45;&gt;Node1 -->
<g id="edge11" class="edge">
<title>Node6&#45;&gt;Node1</title>
<path fill="none" stroke="#9a32cd" stroke-dasharray="5,2" d="M195.13,-187.79C235.02,-193.41 302.58,-201.5 361,-201.5 361,-201.5 361,-201.5 1010.5,-201.5 1093.75,-201.5 1174.74,-130.91 1207.17,-98.93"/>
<polygon fill="#9a32cd" stroke="#9a32cd" points="195.52,-184.31 185.12,-186.34 194.52,-191.23 195.52,-184.31"/>
<text text-anchor="middle" x="684" y="-204.5" font-family="Helvetica,sans-Serif" font-size="10.00"> constructor_schema_id</text>
</g>
<!-- Node6&#45;&gt;Node5 -->
<g id="edge5" class="edge">
<title>Node6&#45;&gt;Node5</title>
<path fill="none" stroke="#9a32cd" stroke-dasharray="5,2" d="M193.15,-169.51C197.75,-167.99 202.46,-166.6 207,-165.5 238.95,-157.8 275.42,-153.12 304.85,-150.33"/>
<polygon fill="#9a32cd" stroke="#9a32cd" points="191.62,-166.34 183.36,-172.97 193.95,-172.94 191.62,-166.34"/>
<text text-anchor="middle" x="247" y="-179.5" font-family="Helvetica,sans-Serif" font-size="10.00"> input_schema_id</text>
<text text-anchor="middle" x="247" y="-168.5" font-family="Helvetica,sans-Serif" font-size="10.00">output_schema_id</text>
</g>
<!-- Node7 -->
<g id="node7" class="node">
<title>Node7</title>
<g id="a_node7"><a xlink:title="STL class.">
<polygon fill="white" stroke="#bfbfbf" points="130,-88 130,-107 189,-107 189,-88 130,-88"/>
<text text-anchor="middle" x="159.5" y="-95" font-family="Helvetica,sans-Serif" font-size="10.00">std::string</text>
</a>
</g>
</g>
<!-- Node7&#45;&gt;Node1 -->
<g id="edge12" class="edge">
<title>Node7&#45;&gt;Node1</title>
<path fill="none" stroke="#9a32cd" stroke-dasharray="5,2" d="M198.69,-85.85C238.73,-74.68 303.68,-59.5 361,-59.5 361,-59.5 361,-59.5 1010.5,-59.5 1057.43,-59.5 1109.85,-65.41 1150.76,-71.36"/>
<polygon fill="#9a32cd" stroke="#9a32cd" points="197.72,-82.48 189.06,-88.59 199.64,-89.22 197.72,-82.48"/>
<text text-anchor="middle" x="684" y="-62.5" font-family="Helvetica,sans-Serif" font-size="10.00"> name</text>
</g>
<!-- Node7&#45;&gt;Node3 -->
<g id="edge8" class="edge">
<title>Node7&#45;&gt;Node3</title>
<path fill="none" stroke="#9a32cd" stroke-dasharray="5,2" d="M199.24,-98.16C309.31,-100.02 624.2,-105.35 753.52,-107.54"/>
<polygon fill="#9a32cd" stroke="#9a32cd" points="199.3,-94.66 189.25,-97.99 199.19,-101.66 199.3,-94.66"/>
<text text-anchor="middle" x="458.5" y="-105.5" font-family="Helvetica,sans-Serif" font-size="10.00"> name</text>
</g>
<!-- Node7&#45;&gt;Node5 -->
<g id="edge6" class="edge">
<title>Node7&#45;&gt;Node5</title>
<path fill="none" stroke="#9a32cd" stroke-dasharray="5,2" d="M199.28,-106.98C229.19,-114.29 271,-124.51 304.61,-132.72"/>
<polygon fill="#9a32cd" stroke="#9a32cd" points="199.77,-103.49 189.23,-104.52 198.11,-110.29 199.77,-103.49"/>
<text text-anchor="middle" x="247" y="-130.5" font-family="Helvetica,sans-Serif" font-size="10.00"> name</text>
</g>
<!-- Node8 -->
<g id="node8" class="node">
<title>Node8</title>
<g id="a_node8"><a xlink:title="STL class.">
<polygon fill="white" stroke="#bfbfbf" points="0,-82.5 0,-112.5 93,-112.5 93,-82.5 0,-82.5"/>
<text text-anchor="start" x="8" y="-100.5" font-family="Helvetica,sans-Serif" font-size="10.00">std::basic_string&lt;</text>
<text text-anchor="middle" x="46.5" y="-89.5" font-family="Helvetica,sans-Serif" font-size="10.00"> char &gt;</text>
</a>
</g>
</g>
<!-- Node8&#45;&gt;Node7 -->
<g id="edge7" class="edge">
<title>Node8&#45;&gt;Node7</title>
<path fill="none" stroke="midnightblue" d="M103.58,-97.5C112.73,-97.5 121.86,-97.5 129.97,-97.5"/>
<polygon fill="midnightblue" stroke="midnightblue" points="103.29,-94 93.29,-97.5 103.29,-101 103.29,-94"/>
</g>
<!-- Node9 -->
<g id="node9" class="node">
<title>Node9</title>
<g id="a_node9"><a xlink:title=" ">
<polygon fill="white" stroke="#bfbfbf" points="947,-0.5 947,-30.5 1072,-30.5 1072,-0.5 947,-0.5"/>
<text text-anchor="start" x="955" y="-18.5" font-family="Helvetica,sans-Serif" font-size="10.00">std::unique_ptr&lt; common</text>
<text text-anchor="middle" x="1009.5" y="-7.5" font-family="Helvetica,sans-Serif" font-size="10.00">::obj &gt;</text>
</a>
</g>
</g>
<!-- Node9&#45;&gt;Node1 -->
<g id="edge9" class="edge">
<title>Node9&#45;&gt;Node1</title>
<path fill="none" stroke="#9a32cd" stroke-dasharray="5,2" d="M1082.6,-22.4C1099.42,-25.18 1117.06,-29.07 1133,-34.5 1157.04,-42.7 1182.2,-57.18 1199.6,-68.28"/>
<polygon fill="#9a32cd" stroke="#9a32cd" points="1082.68,-18.87 1072.26,-20.81 1081.61,-25.79 1082.68,-18.87"/>
<text text-anchor="middle" x="1111.5" y="-37.5" font-family="Helvetica,sans-Serif" font-size="10.00"> func</text>
</g>
<!-- Node10 -->
<g id="node10" class="node">
<title>Node10</title>
<g id="a_node10"><a xlink:title=" ">
<polygon fill="white" stroke="#bfbfbf" points="796.5,-6 796.5,-25 825.5,-25 825.5,-6 796.5,-6"/>
<text text-anchor="middle" x="811" y="-13" font-family="Helvetica,sans-Serif" font-size="10.00">obj</text>
</a>
</g>
</g>
<!-- Node10&#45;&gt;Node9 -->
<g id="edge10" class="edge">
<title>Node10&#45;&gt;Node9</title>
<path fill="none" stroke="#9a32cd" stroke-dasharray="5,2" d="M835.66,-15.5C862.96,-15.5 908.93,-15.5 946.6,-15.5"/>
<polygon fill="#9a32cd" stroke="#9a32cd" points="835.51,-12 825.51,-15.5 835.51,-19 835.51,-12"/>
<text text-anchor="middle" x="907.5" y="-18.5" font-family="Helvetica,sans-Serif" font-size="10.00"> ptr</text>
</g>
</g>
</svg>
