<?xml version="1.0" encoding="UTF-8" standalone="no"?>
<!DOCTYPE svg PUBLIC "-//W3C//DTD SVG 1.1//EN"
 "http://www.w3.org/Graphics/SVG/1.1/DTD/svg11.dtd">
<!-- Generated by graphviz version 2.42.3 ()
 -->
<!-- Title: automaton::core::script::module::implementation_info Pages: 1 -->
<svg width="1305pt" height="221pt"
 viewBox="0.00 0.00 1305.00 220.50" xmlns="http://www.w3.org/2000/svg" xmlns:xlink="http://www.w3.org/1999/xlink">
<g id="graph0" class="graph" transform="scale(1 1) rotate(0) translate(4 216.5)">
<title>automaton::core::script::module::implementation_info</title>
<polygon fill="white" stroke="transparent" points="-4,4 -4,-216.5 1301,-216.5 1301,4 -4,4"/>
<!-- Node1 -->
<g id="node1" class="node">
<title>Node1</title>
<g id="a_node1"><a xlink:title=" ">
<polygon fill="#bfbfbf" stroke="black" points="1153,-68.5 1153,-98.5 1297,-98.5 1297,-68.5 1153,-68.5"/>
<text text-anchor="start" x="1161" y="-86.5" font-family="Helvetica,sans-Serif" font-size="10.00">automaton::core::script</text>
<text text-anchor="middle" x="1225" y="-75.5" font-family="Helvetica,sans-Serif" font-size="10.00">::module::implementation_info</text>
</a>
</g>
</g>
<!-- Node2 -->
<g id="node2" class="node">
<title>Node2</title>
<g id="a_node2"><a xlink:title=" ">
<polygon fill="white" stroke="#bfbfbf" points="953.5,-88 953.5,-129 1069.5,-129 1069.5,-88 953.5,-88"/>
<text text-anchor="start" x="961.5" y="-117" font-family="Helvetica,sans-Serif" font-size="10.00">std::vector&lt; automaton</text>
<text text-anchor="start" x="961.5" y="-106" font-family="Helvetica,sans-Serif" font-size="10.00">::core::script::module</text>
<text text-anchor="middle" x="1011.5" y="-95" font-family="Helvetica,sans-Serif" font-size="10.00">::concept_info &gt;</text>
</a>
</g>
</g>
<!-- Node2&#45;&gt;Node1 -->
<g id="edge1" class="edge">
<title>Node2&#45;&gt;Node1</title>
<path fill="none" stroke="#9a32cd" stroke-dasharray="5,2" d="M1079.85,-100.54C1103.08,-97.79 1129.19,-94.71 1152.73,-91.92"/>
<polygon fill="#9a32cd" stroke="#9a32cd" points="1079.25,-97.08 1069.73,-101.73 1080.08,-104.04 1079.25,-97.08"/>
<text text-anchor="middle" x="1113.5" y="-101.5" font-family="Helvetica,sans-Serif" font-size="10.00"> concepts</text>
</g>
<!-- Node3 -->
<g id="node3" class="node">
<title>Node3</title>
<g id="a_node3"><a xlink:href="../../d5/d19/structautomaton_1_1core_1_1script_1_1module_1_1concept__info.html" target="_top" xlink:title=" ">
<polygon fill="white" stroke="black" points="756,-93.5 756,-123.5 870,-123.5 870,-93.5 756,-93.5"/>
<text text-anchor="start" x="764" y="-111.5" font-family="Helvetica,sans-Serif" font-size="10.00">automaton::core::script</text>
<text text-anchor="middle" x="813" y="-100.5" font-family="Helvetica,sans-Serif" font-size="10.00">::module::concept_info</text>
</a>
</g>
</g>
<!-- Node3&#45;&gt;Node2 -->
<g id="edge2" class="edge">
<title>Node3&#45;&gt;Node2</title>
<path fill="none" stroke="#9a32cd" stroke-dasharray="5,2" d="M880.36,-108.5C904.05,-108.5 930.51,-108.5 953.36,-108.5"/>
<polygon fill="#9a32cd" stroke="#9a32cd" points="880.05,-105 870.05,-108.5 880.05,-112 880.05,-105"/>
<text text-anchor="middle" x="909.5" y="-111.5" font-family="Helvetica,sans-Serif" font-size="10.00"> elements</text>
</g>
<!-- Node4 -->
<g id="node4" class="node">
<title>Node4</title>
<g id="a_node4"><a xlink:title=" ">
<polygon fill="white" stroke="#bfbfbf" points="500,-126 500,-167 616,-167 616,-126 500,-126"/>
<text text-anchor="start" x="508" y="-155" font-family="Helvetica,sans-Serif" font-size="10.00">std::vector&lt; automaton</text>
<text text-anchor="start" x="508" y="-144" font-family="Helvetica,sans-Serif" font-size="10.00">::core::script::module</text>
<text text-anchor="middle" x="558" y="-133" font-family="Helvetica,sans-Serif" font-size="10.00">::method_info &gt;</text>
</a>
</g>
</g>
<!-- Node4&#45;&gt;Node3 -->
<g id="edge3" class="edge">
<title>Node4&#45;&gt;Node3</title>
<path fill="none" stroke="#9a32cd" stroke-dasharray="5,2" d="M626.15,-136.41C666.66,-130.33 717.66,-122.67 755.99,-116.91"/>
<polygon fill="#9a32cd" stroke="#9a32cd" points="625.46,-132.98 616.09,-137.92 626.5,-139.9 625.46,-132.98"/>
<text text-anchor="middle" x="686" y="-136.5" font-family="Helvetica,sans-Serif" font-size="10.00"> methods</text>
</g>
<!-- Node5 -->
<g id="node5" class="node">
<title>Node5</title>
<g id="a_node5"><a xlink:href="../../d9/d6f/structautomaton_1_1core_1_1script_1_1module_1_1method__info.html" target="_top" xlink:title=" ">
<polygon fill="white" stroke="black" points="307,-131.5 307,-161.5 421,-161.5 421,-131.5 307,-131.5"/>
<text text-anchor="start" x="315" y="-149.5" font-family="Helvetica,sans-Serif" font-size="10.00">automaton::core::script</text>
<text text-anchor="middle" x="364" y="-138.5" font-family="Helvetica,sans-Serif" font-size="10.00">::module::method_info</text>
</a>
</g>
</g>
<!-- Node5&#45;&gt;Node4 -->
<g id="edge4" class="edge">
<title>Node5&#45;&gt;Node4</title>
<path fill="none" stroke="#9a32cd" stroke-dasharray="5,2" d="M431.14,-146.5C453.51,-146.5 478.27,-146.5 499.88,-146.5"/>
<polygon fill="#9a32cd" stroke="#9a32cd" points="431.05,-143 421.05,-146.5 431.05,-150 431.05,-143"/>
<text text-anchor="middle" x="460.5" y="-149.5" font-family="Helvetica,sans-Serif" font-size="10.00"> elements</text>
</g>
<!-- Node6 -->
<g id="node6" class="node">
<title>Node6</title>
<g id="a_node6"><a xlink:title=" ">
<polygon fill="white" stroke="#bfbfbf" points="134,-173 134,-192 185,-192 185,-173 134,-173"/>
<text text-anchor="middle" x="159.5" y="-180" font-family="Helvetica,sans-Serif" font-size="10.00">uint32_t</text>
</a>
</g>
</g>
<!-- Node6&#45;&gt;Node1 -->
<g id="edge11" class="edge">
<title>Node6&#45;&gt;Node1</title>
<path fill="none" stroke="#9a32cd" stroke-dasharray="5,2" d="M195.14,-187.74C235.39,-193.36 303.84,-201.5 363,-201.5 363,-201.5 363,-201.5 1012.5,-201.5 1095.75,-201.5 1176.74,-130.91 1209.17,-98.93"/>
<polygon fill="#9a32cd" stroke="#9a32cd" points="195.45,-184.25 185.06,-186.3 194.46,-191.18 195.45,-184.25"/>
<text text-anchor="middle" x="686" y="-204.5" font-family="Helvetica,sans-Serif" font-size="10.00"> constructor_schema_id</text>
</g>
<!-- Node6&#45;&gt;Node5 -->
<g id="edge5" class="edge">
<title>Node6&#45;&gt;Node5</title>
<path fill="none" stroke="#9a32cd" stroke-dasharray="5,2" d="M193.15,-169.5C197.75,-167.99 202.46,-166.59 207,-165.5 239.63,-157.66 276.92,-152.97 306.85,-150.21"/>
<polygon fill="#9a32cd" stroke="#9a32cd" points="191.62,-166.33 183.36,-172.96 193.95,-172.93 191.62,-166.33"/>
<text text-anchor="middle" x="248" y="-179.5" font-family="Helvetica,sans-Serif" font-size="10.00"> output_schema_id</text>
<text text-anchor="middle" x="248" y="-168.5" font-family="Helvetica,sans-Serif" font-size="10.00">input_schema_id</text>
</g>
<!-- Node7 -->
<g id="node7" class="node">
<title>Node7</title>
<g id="a_node7"><a xlink:title="STL class.">
<polygon fill="white" stroke="#bfbfbf" points="130,-88 130,-107 189,-107 189,-88 130,-88"/>
<text text-anchor="middle" x="159.5" y="-95" font-family="Helvetica,sans-Serif" font-size="10.00">std::string</text>
</a>
</g>
</g>
<!-- Node7&#45;&gt;Node1 -->
<g id="edge12" class="edge">
<title>Node7&#45;&gt;Node1</title>
<path fill="none" stroke="#9a32cd" stroke-dasharray="5,2" d="M198.73,-85.94C239.15,-74.76 304.96,-59.5 363,-59.5 363,-59.5 363,-59.5 1012.5,-59.5 1059.43,-59.5 1111.85,-65.41 1152.76,-71.36"/>
<polygon fill="#9a32cd" stroke="#9a32cd" points="197.69,-82.6 189.02,-88.69 199.6,-89.34 197.69,-82.6"/>
<text text-anchor="middle" x="686" y="-62.5" font-family="Helvetica,sans-Serif" font-size="10.00"> name</text>
</g>
<!-- Node7&#45;&gt;Node3 -->
<g id="edge8" class="edge">
<title>Node7&#45;&gt;Node3</title>
<path fill="none" stroke="#9a32cd" stroke-dasharray="5,2" d="M199.38,-98.16C309.93,-100.02 626.44,-105.37 755.84,-107.55"/>
<polygon fill="#9a32cd" stroke="#9a32cd" points="199.39,-94.66 189.33,-97.99 199.27,-101.66 199.39,-94.66"/>
<text text-anchor="middle" x="460.5" y="-105.5" font-family="Helvetica,sans-Serif" font-size="10.00"> name</text>
</g>
<!-- Node7&#45;&gt;Node5 -->
<g id="edge6" class="edge">
<title>Node7&#45;&gt;Node5</title>
<path fill="none" stroke="#9a32cd" stroke-dasharray="5,2" d="M198.89,-106.79C229.33,-114.15 272.29,-124.55 306.63,-132.86"/>
<polygon fill="#9a32cd" stroke="#9a32cd" points="199.63,-103.37 189.08,-104.42 197.98,-110.17 199.63,-103.37"/>
<text text-anchor="middle" x="248" y="-130.5" font-family="Helvetica,sans-Serif" font-size="10.00"> name</text>
</g>
<!-- Node8 -->
<g id="node8" class="node">
<title>Node8</title>
<g id="a_node8"><a xlink:title="STL class.">
<polygon fill="white" stroke="#bfbfbf" points="0,-82.5 0,-112.5 93,-112.5 93,-82.5 0,-82.5"/>
<text text-anchor="start" x="8" y="-100.5" font-family="Helvetica,sans-Serif" font-size="10.00">std::basic_string&lt;</text>
<text text-anchor="middle" x="46.5" y="-89.5" font-family="Helvetica,sans-Serif" font-size="10.00"> char &gt;</text>
</a>
</g>
</g>
<!-- Node8&#45;&gt;Node7 -->
<g id="edge7" class="edge">
<title>Node8&#45;&gt;Node7</title>
<path fill="none" stroke="midnightblue" d="M103.58,-97.5C112.73,-97.5 121.86,-97.5 129.97,-97.5"/>
<polygon fill="midnightblue" stroke="midnightblue" points="103.29,-94 93.29,-97.5 103.29,-101 103.29,-94"/>
</g>
<!-- Node9 -->
<g id="node9" class="node">
<title>Node9</title>
<g id="a_node9"><a xlink:title=" ">
<polygon fill="white" stroke="#bfbfbf" points="949,-0.5 949,-30.5 1074,-30.5 1074,-0.5 949,-0.5"/>
<text text-anchor="start" x="957" y="-18.5" font-family="Helvetica,sans-Serif" font-size="10.00">std::unique_ptr&lt; common</text>
<text text-anchor="middle" x="1011.5" y="-7.5" font-family="Helvetica,sans-Serif" font-size="10.00">::obj &gt;</text>
</a>
</g>
</g>
<!-- Node9&#45;&gt;Node1 -->
<g id="edge9" class="edge">
<title>Node9&#45;&gt;Node1</title>
<path fill="none" stroke="#9a32cd" stroke-dasharray="5,2" d="M1084.6,-22.4C1101.42,-25.18 1119.06,-29.07 1135,-34.5 1159.04,-42.7 1184.2,-57.18 1201.6,-68.28"/>
<polygon fill="#9a32cd" stroke="#9a32cd" points="1084.68,-18.87 1074.26,-20.81 1083.61,-25.79 1084.68,-18.87"/>
<text text-anchor="middle" x="1113.5" y="-37.5" font-family="Helvetica,sans-Serif" font-size="10.00"> func</text>
</g>
<!-- Node10 -->
<g id="node10" class="node">
<title>Node10</title>
<g id="a_node10"><a xlink:title=" ">
<polygon fill="white" stroke="#bfbfbf" points="798.5,-6 798.5,-25 827.5,-25 827.5,-6 798.5,-6"/>
<text text-anchor="middle" x="813" y="-13" font-family="Helvetica,sans-Serif" font-size="10.00">obj</text>
</a>
</g>
</g>
<!-- Node10&#45;&gt;Node9 -->
<g id="edge10" class="edge">
<title>Node10&#45;&gt;Node9</title>
<path fill="none" stroke="#9a32cd" stroke-dasharray="5,2" d="M837.66,-15.5C864.96,-15.5 910.93,-15.5 948.6,-15.5"/>
<polygon fill="#9a32cd" stroke="#9a32cd" points="837.51,-12 827.51,-15.5 837.51,-19 837.51,-12"/>
<text text-anchor="middle" x="909.5" y="-18.5" font-family="Helvetica,sans-Serif" font-size="10.00"> ptr</text>
</g>
</g>
</svg>
