<?xml version="1.0" encoding="UTF-8" standalone="no"?>
<!DOCTYPE svg PUBLIC "-//W3C//DTD SVG 1.1//EN"
 "http://www.w3.org/Graphics/SVG/1.1/DTD/svg11.dtd">
<!-- Generated by graphviz version 2.42.3 ()
 -->
<!-- Title: protobuf_msg.cc Pages: 1 -->
<!--zoomable 419 -->
<svg id="main" version="1.1" xmlns="http://www.w3.org/2000/svg" xmlns:xlink="http://www.w3.org/1999/xlink" xml:space="preserve" onload="init(evt)">
<style type="text/css"><![CDATA[
.edge:hover path { stroke: red; }
.edge:hover polygon { stroke: red; fill: red; }
]]></style>
<script type="text/javascript"><![CDATA[
var edges = document.getElementsByTagName('g');
if (edges && edges.length) {
  for (var i=0;i<edges.length;i++) {
    if (edges[i].id.substr(0,4)=='edge') {
      edges[i].setAttribute('class','edge');
    }
  }
}
]]></script>
        <defs>
                <circle id="rim" cx="0" cy="0" r="7"/>
                <circle id="rim2" cx="0" cy="0" r="3.5"/>
                <g id="zoomPlus">
                        <use xlink:href="#rim" fill="#404040">
                                <set attributeName="fill" to="#808080" begin="zoomplus.mouseover" end="zoomplus.mouseout"/>
                        </use>
                        <path d="M-4,0h8M0,-4v8" fill="none" stroke="white" stroke-width="1.5" pointer-events="none"/>
                </g>
                <g id="zoomMin">
                        <use xlink:href="#rim" fill="#404040">
                                <set attributeName="fill" to="#808080" begin="zoomminus.mouseover" end="zoomminus.mouseout"/>
                        </use>
                        <path d="M-4,0h8" fill="none" stroke="white" stroke-width="1.5" pointer-events="none"/>
                </g>
                <g id="dirArrow">
                        <path fill="none" stroke="white" stroke-width="1.5" d="M0,-3.0v7 M-2.5,-0.5L0,-3.0L2.5,-0.5"/>
                </g>
               <g id="resetDef">
                       <use xlink:href="#rim2" fill="#404040">
                               <set attributeName="fill" to="#808080" begin="reset.mouseover" end="reset.mouseout"/>
                       </use>
               </g>
        </defs>

<script type="text/javascript">
var viewWidth = 2112;
var viewHeight = 419;
var sectionId = 'dynsection-0';
</script>
<script xlink:href="../../svgpan.js"/>
<svg id="graph" class="graph">
<g id="viewport">
<title>protobuf_msg.cc</title>
<polygon fill="white" stroke="transparent" points="-4,4 -4,-415 2108,-415 2108,4 -4,4"/>
<!-- Node1 -->
<g id="node1" class="node">
<title>Node1</title>
<g id="a_node1"><a xlink:title=" ">
<polygon fill="#bfbfbf" stroke="black" points="862.5,-391.5 862.5,-410.5 951.5,-410.5 951.5,-391.5 862.5,-391.5"/>
<text text-anchor="middle" x="907" y="-398.5" font-family="Helvetica,sans-Serif" font-size="10.00">protobuf_msg.cc</text>
</a>
</g>
</g>
<!-- Node2 -->
<g id="node2" class="node">
<title>Node2</title>
<g id="a_node2"><a xlink:href="../../d5/de1/protobuf__msg_8h.html" target="_top" xlink:title=" ">
<polygon fill="white" stroke="black" points="849.5,-257.5 849.5,-287.5 974.5,-287.5 974.5,-257.5 849.5,-257.5"/>
<text text-anchor="start" x="857.5" y="-275.5" font-family="Helvetica,sans-Serif" font-size="10.00">automaton/core/data</text>
<text text-anchor="middle" x="912" y="-264.5" font-family="Helvetica,sans-Serif" font-size="10.00">/protobuf/protobuf_msg.h</text>
</a>
</g>
</g>
<!-- Node1&#45;&gt;Node2 -->
<g id="edge1" class="edge">
<title>Node1&#45;&gt;Node2</title>
<path fill="none" stroke="midnightblue" d="M888.61,-391.47C874.9,-384 857.19,-371.71 849,-355 842.94,-342.63 843.04,-336.42 849,-324 854.95,-311.61 865.57,-301.31 876.43,-293.31"/>
<polygon fill="midnightblue" stroke="midnightblue" points="878.43,-296.18 884.7,-287.64 874.47,-290.41 878.43,-296.18"/>
</g>
<!-- Node14 -->
<g id="node14" class="node">
<title>Node14</title>
<g id="a_node14"><a xlink:title=" ">
<polygon fill="white" stroke="#bfbfbf" points="198.5,-0.5 198.5,-19.5 233.5,-19.5 233.5,-0.5 198.5,-0.5"/>
<text text-anchor="middle" x="216" y="-7.5" font-family="Helvetica,sans-Serif" font-size="10.00">map</text>
</a>
</g>
</g>
<!-- Node1&#45;&gt;Node14 -->
<g id="edge29" class="edge">
<title>Node1&#45;&gt;Node14</title>
<path fill="none" stroke="midnightblue" d="M862.33,-398.53C679.77,-391.97 0,-361.59 0,-273.5 0,-273.5 0,-273.5 0,-137.5 0,-51.18 130.04,-22.65 188.32,-14.21"/>
<polygon fill="midnightblue" stroke="midnightblue" points="188.88,-17.66 198.32,-12.85 187.94,-10.72 188.88,-17.66"/>
</g>
<!-- Node19 -->
<g id="node19" class="node">
<title>Node19</title>
<g id="a_node19"><a xlink:title=" ">
<polygon fill="white" stroke="#bfbfbf" points="857.5,-324.5 857.5,-354.5 956.5,-354.5 956.5,-324.5 857.5,-324.5"/>
<text text-anchor="start" x="865.5" y="-342.5" font-family="Helvetica,sans-Serif" font-size="10.00">google/protobuf/util</text>
<text text-anchor="middle" x="907" y="-331.5" font-family="Helvetica,sans-Serif" font-size="10.00">/json_util.h</text>
</a>
</g>
</g>
<!-- Node1&#45;&gt;Node19 -->
<g id="edge28" class="edge">
<title>Node1&#45;&gt;Node19</title>
<path fill="none" stroke="midnightblue" d="M907,-391.48C907,-384.47 907,-374.19 907,-364.7"/>
<polygon fill="midnightblue" stroke="midnightblue" points="910.5,-364.52 907,-354.52 903.5,-364.52 910.5,-364.52"/>
</g>
<!-- Node20 -->
<g id="node20" class="node">
<title>Node20</title>
<g id="a_node20"><a xlink:href="../../dc/dd5/protobuf__factory_8h.html" target="_top" xlink:title=" ">
<polygon fill="white" stroke="black" points="974.5,-324.5 974.5,-354.5 1109.5,-354.5 1109.5,-324.5 974.5,-324.5"/>
<text text-anchor="start" x="982.5" y="-342.5" font-family="Helvetica,sans-Serif" font-size="10.00">automaton/core/data</text>
<text text-anchor="middle" x="1042" y="-331.5" font-family="Helvetica,sans-Serif" font-size="10.00">/protobuf/protobuf_factory.h</text>
</a>
</g>
</g>
<!-- Node1&#45;&gt;Node20 -->
<g id="edge30" class="edge">
<title>Node1&#45;&gt;Node20</title>
<path fill="none" stroke="midnightblue" d="M926.34,-391.48C945.74,-382.93 976.2,-369.5 1000.99,-358.57"/>
<polygon fill="midnightblue" stroke="midnightblue" points="1002.44,-361.76 1010.18,-354.52 999.62,-355.35 1002.44,-361.76"/>
</g>
<!-- Node24 -->
<g id="node24" class="node">
<title>Node24</title>
<g id="a_node24"><a xlink:href="../../dc/dac/io_8h.html" target="_top" xlink:title=" ">
<polygon fill="white" stroke="black" points="1758.5,-330 1758.5,-349 1871.5,-349 1871.5,-330 1758.5,-330"/>
<text text-anchor="middle" x="1815" y="-337" font-family="Helvetica,sans-Serif" font-size="10.00">automaton/core/io/io.h</text>
</a>
</g>
</g>
<!-- Node1&#45;&gt;Node24 -->
<g id="edge49" class="edge">
<title>Node1&#45;&gt;Node24</title>
<path fill="none" stroke="midnightblue" d="M951.72,-397.07C1099.41,-387.39 1572.17,-356.41 1748.16,-344.88"/>
<polygon fill="midnightblue" stroke="midnightblue" points="1748.57,-348.36 1758.32,-344.21 1748.11,-341.38 1748.57,-348.36"/>
</g>
<!-- Node3 -->
<g id="node3" class="node">
<title>Node3</title>
<g id="a_node3"><a xlink:title=" ">
<polygon fill="white" stroke="#bfbfbf" points="760.5,-190.5 760.5,-220.5 883.5,-220.5 883.5,-190.5 760.5,-190.5"/>
<text text-anchor="start" x="768.5" y="-208.5" font-family="Helvetica,sans-Serif" font-size="10.00">google/protobuf/compiler</text>
<text text-anchor="middle" x="822" y="-197.5" font-family="Helvetica,sans-Serif" font-size="10.00">/parser.h</text>
</a>
</g>
</g>
<!-- Node2&#45;&gt;Node3 -->
<g id="edge2" class="edge">
<title>Node2&#45;&gt;Node3</title>
<path fill="none" stroke="midnightblue" d="M892.47,-257.4C879.97,-248.37 863.56,-236.51 849.72,-226.52"/>
<polygon fill="midnightblue" stroke="midnightblue" points="851.65,-223.59 841.49,-220.58 847.55,-229.27 851.65,-223.59"/>
</g>
<!-- Node4 -->
<g id="node4" class="node">
<title>Node4</title>
<g id="a_node4"><a xlink:title=" ">
<polygon fill="white" stroke="#bfbfbf" points="1447.5,-196 1447.5,-215 1584.5,-215 1584.5,-196 1447.5,-196"/>
<text text-anchor="middle" x="1516" y="-203" font-family="Helvetica,sans-Serif" font-size="10.00">google/protobuf/descriptor.h</text>
</a>
</g>
</g>
<!-- Node2&#45;&gt;Node4 -->
<g id="edge3" class="edge">
<title>Node2&#45;&gt;Node4</title>
<path fill="none" stroke="midnightblue" d="M974.56,-267.29C1073.32,-260.23 1271.3,-244.45 1438,-221 1446.43,-219.81 1455.34,-218.36 1464,-216.82"/>
<polygon fill="midnightblue" stroke="midnightblue" points="1464.8,-220.24 1474.01,-215.01 1463.55,-213.35 1464.8,-220.24"/>
</g>
<!-- Node5 -->
<g id="node5" class="node">
<title>Node5</title>
<g id="a_node5"><a xlink:title=" ">
<polygon fill="white" stroke="#bfbfbf" points="179.5,-196 179.5,-215 328.5,-215 328.5,-196 179.5,-196"/>
<text text-anchor="middle" x="254" y="-203" font-family="Helvetica,sans-Serif" font-size="10.00">google/protobuf/descriptor.pb.h</text>
</a>
</g>
</g>
<!-- Node2&#45;&gt;Node5 -->
<g id="edge4" class="edge">
<title>Node2&#45;&gt;Node5</title>
<path fill="none" stroke="midnightblue" d="M849.42,-267.5C744.32,-260.43 525.82,-244.25 342,-221 332.21,-219.76 321.83,-218.24 311.78,-216.65"/>
<polygon fill="midnightblue" stroke="midnightblue" points="312.29,-213.19 301.86,-215.05 311.18,-220.1 312.29,-213.19"/>
</g>
<!-- Node6 -->
<g id="node6" class="node">
<title>Node6</title>
<g id="a_node6"><a xlink:title=" ">
<polygon fill="white" stroke="#bfbfbf" points="508,-190.5 508,-220.5 630,-220.5 630,-190.5 508,-190.5"/>
<text text-anchor="start" x="516" y="-208.5" font-family="Helvetica,sans-Serif" font-size="10.00">google/protobuf/dynamic</text>
<text text-anchor="middle" x="569" y="-197.5" font-family="Helvetica,sans-Serif" font-size="10.00">_message.h</text>
</a>
</g>
</g>
<!-- Node2&#45;&gt;Node6 -->
<g id="edge5" class="edge">
<title>Node2&#45;&gt;Node6</title>
<path fill="none" stroke="midnightblue" d="M849.31,-260.3C796.2,-250.71 717.77,-236.35 640.04,-221.18"/>
<polygon fill="midnightblue" stroke="midnightblue" points="640.55,-217.72 630.07,-219.23 639.21,-224.59 640.55,-217.72"/>
</g>
<!-- Node7 -->
<g id="node7" class="node">
<title>Node7</title>
<g id="a_node7"><a xlink:title=" ">
<polygon fill="white" stroke="#bfbfbf" points="648,-190.5 648,-220.5 742,-220.5 742,-190.5 648,-190.5"/>
<text text-anchor="start" x="656" y="-208.5" font-family="Helvetica,sans-Serif" font-size="10.00">google/protobuf/io</text>
<text text-anchor="middle" x="695" y="-197.5" font-family="Helvetica,sans-Serif" font-size="10.00">/tokenizer.h</text>
</a>
</g>
</g>
<!-- Node2&#45;&gt;Node7 -->
<g id="edge6" class="edge">
<title>Node2&#45;&gt;Node7</title>
<path fill="none" stroke="midnightblue" d="M865.18,-257.48C831.93,-247.51 787.1,-234.09 751.8,-223.51"/>
<polygon fill="midnightblue" stroke="midnightblue" points="752.69,-220.13 742.11,-220.61 750.68,-226.83 752.69,-220.13"/>
</g>
<!-- Node8 -->
<g id="node8" class="node">
<title>Node8</title>
<g id="a_node8"><a xlink:title=" ">
<polygon fill="white" stroke="#bfbfbf" points="1016.5,-190.5 1016.5,-220.5 1145.5,-220.5 1145.5,-190.5 1016.5,-190.5"/>
<text text-anchor="start" x="1024.5" y="-208.5" font-family="Helvetica,sans-Serif" font-size="10.00">google/protobuf/io</text>
<text text-anchor="middle" x="1081" y="-197.5" font-family="Helvetica,sans-Serif" font-size="10.00">/zero_copy_stream_impl.h</text>
</a>
</g>
</g>
<!-- Node2&#45;&gt;Node8 -->
<g id="edge7" class="edge">
<title>Node2&#45;&gt;Node8</title>
<path fill="none" stroke="midnightblue" d="M948.67,-257.4C973.92,-247.69 1007.66,-234.71 1034.75,-224.29"/>
<polygon fill="midnightblue" stroke="midnightblue" points="1036.32,-227.43 1044.4,-220.58 1033.81,-220.9 1036.32,-227.43"/>
</g>
<!-- Node9 -->
<g id="node9" class="node">
<title>Node9</title>
<g id="a_node9"><a xlink:title=" ">
<polygon fill="white" stroke="#bfbfbf" points="1163.5,-196 1163.5,-215 1276.5,-215 1276.5,-196 1163.5,-196"/>
<text text-anchor="middle" x="1220" y="-203" font-family="Helvetica,sans-Serif" font-size="10.00">google/protobuf/map.h</text>
</a>
</g>
</g>
<!-- Node2&#45;&gt;Node9 -->
<g id="edge8" class="edge">
<title>Node2&#45;&gt;Node9</title>
<path fill="none" stroke="midnightblue" d="M974.74,-258.72C1023.84,-248.66 1093.82,-234.18 1155,-221 1160.65,-219.78 1166.57,-218.49 1172.44,-217.19"/>
<polygon fill="midnightblue" stroke="midnightblue" points="1173.21,-220.61 1182.21,-215.03 1171.69,-213.77 1173.21,-220.61"/>
</g>
<!-- Node10 -->
<g id="node10" class="node">
<title>Node10</title>
<g id="a_node10"><a xlink:title=" ">
<polygon fill="white" stroke="#bfbfbf" points="1295,-196 1295,-215 1429,-215 1429,-196 1295,-196"/>
<text text-anchor="middle" x="1362" y="-203" font-family="Helvetica,sans-Serif" font-size="10.00">google/protobuf/message.h</text>
</a>
</g>
</g>
<!-- Node2&#45;&gt;Node10 -->
<g id="edge9" class="edge">
<title>Node2&#45;&gt;Node10</title>
<path fill="none" stroke="midnightblue" d="M974.69,-264.09C1049.1,-255.05 1176.87,-238.76 1286,-221 1293.64,-219.76 1301.7,-218.34 1309.59,-216.88"/>
<polygon fill="midnightblue" stroke="midnightblue" points="1310.28,-220.32 1319.46,-215.04 1308.99,-213.44 1310.28,-220.32"/>
</g>
<!-- Node11 -->
<g id="node11" class="node">
<title>Node11</title>
<g id="a_node11"><a xlink:title=" ">
<polygon fill="white" stroke="#bfbfbf" points="905.5,-62 905.5,-81 956.5,-81 956.5,-62 905.5,-62"/>
<text text-anchor="middle" x="931" y="-69" font-family="Helvetica,sans-Serif" font-size="10.00">memory</text>
</a>
</g>
</g>
<!-- Node2&#45;&gt;Node11 -->
<g id="edge10" class="edge">
<title>Node2&#45;&gt;Node11</title>
<path fill="none" stroke="midnightblue" d="M913.37,-257.19C916.73,-221.99 925.4,-131.17 929.19,-91.51"/>
<polygon fill="midnightblue" stroke="midnightblue" points="932.69,-91.65 930.15,-81.36 925.72,-90.98 932.69,-91.65"/>
</g>
<!-- Node12 -->
<g id="node12" class="node">
<title>Node12</title>
<g id="a_node12"><a xlink:title=" ">
<polygon fill="white" stroke="#bfbfbf" points="930.5,-0.5 930.5,-19.5 971.5,-19.5 971.5,-0.5 930.5,-0.5"/>
<text text-anchor="middle" x="951" y="-7.5" font-family="Helvetica,sans-Serif" font-size="10.00">string</text>
</a>
</g>
</g>
<!-- Node2&#45;&gt;Node12 -->
<g id="edge11" class="edge">
<title>Node2&#45;&gt;Node12</title>
<path fill="none" stroke="midnightblue" d="M918.28,-257.1C922.5,-247.09 928,-233.38 932,-221 950.91,-162.54 958.39,-147.97 966,-87 967.71,-73.33 968.21,-69.6 966,-56 964.53,-46.96 961.51,-37.28 958.56,-29.22"/>
<polygon fill="midnightblue" stroke="midnightblue" points="961.76,-27.79 954.86,-19.75 955.24,-30.34 961.76,-27.79"/>
</g>
<!-- Node13 -->
<g id="node13" class="node">
<title>Node13</title>
<g id="a_node13"><a xlink:href="../../de/d06/factory_8h.html" target="_top" xlink:title=" ">
<polygon fill="white" stroke="black" points="384,-190.5 384,-220.5 490,-220.5 490,-190.5 384,-190.5"/>
<text text-anchor="start" x="392" y="-208.5" font-family="Helvetica,sans-Serif" font-size="10.00">automaton/core/data</text>
<text text-anchor="middle" x="437" y="-197.5" font-family="Helvetica,sans-Serif" font-size="10.00">/factory.h</text>
</a>
</g>
</g>
<!-- Node2&#45;&gt;Node13 -->
<g id="edge12" class="edge">
<title>Node2&#45;&gt;Node13</title>
<path fill="none" stroke="midnightblue" d="M849.42,-265.97C770.3,-258.51 629.76,-243.69 500.13,-221.08"/>
<polygon fill="midnightblue" stroke="midnightblue" points="500.48,-217.59 490.02,-219.3 499.26,-224.48 500.48,-217.59"/>
</g>
<!-- Node17 -->
<g id="node17" class="node">
<title>Node17</title>
<g id="a_node17"><a xlink:href="../../d1/d71/msg_8h.html" target="_top" xlink:title=" ">
<polygon fill="white" stroke="black" points="778,-123.5 778,-153.5 884,-153.5 884,-123.5 778,-123.5"/>
<text text-anchor="start" x="786" y="-141.5" font-family="Helvetica,sans-Serif" font-size="10.00">automaton/core/data</text>
<text text-anchor="middle" x="831" y="-130.5" font-family="Helvetica,sans-Serif" font-size="10.00">/msg.h</text>
</a>
</g>
</g>
<!-- Node2&#45;&gt;Node17 -->
<g id="edge26" class="edge">
<title>Node2&#45;&gt;Node17</title>
<path fill="none" stroke="midnightblue" d="M911.46,-257.48C910.22,-240.36 906.16,-211.07 893,-190 885.56,-178.08 874.31,-167.7 863.43,-159.49"/>
<polygon fill="midnightblue" stroke="midnightblue" points="865.42,-156.61 855.25,-153.65 861.36,-162.31 865.42,-156.61"/>
</g>
<!-- Node18 -->
<g id="node18" class="node">
<title>Node18</title>
<g id="a_node18"><a xlink:href="../../d7/de3/schema_8h.html" target="_top" xlink:title=" ">
<polygon fill="white" stroke="black" points="422,-56.5 422,-86.5 528,-86.5 528,-56.5 422,-56.5"/>
<text text-anchor="start" x="430" y="-74.5" font-family="Helvetica,sans-Serif" font-size="10.00">automaton/core/data</text>
<text text-anchor="middle" x="475" y="-63.5" font-family="Helvetica,sans-Serif" font-size="10.00">/schema.h</text>
</a>
</g>
</g>
<!-- Node2&#45;&gt;Node18 -->
<g id="edge27" class="edge">
<title>Node2&#45;&gt;Node18</title>
<path fill="none" stroke="midnightblue" d="M849.41,-269.73C715.34,-265.36 409.76,-252.06 375,-221 342.19,-191.68 337,-159.88 361,-123 372.72,-104.99 392.49,-93.36 412.3,-85.86"/>
<polygon fill="midnightblue" stroke="midnightblue" points="413.7,-89.08 422,-82.5 411.4,-82.47 413.7,-89.08"/>
</g>
<!-- Node13&#45;&gt;Node11 -->
<g id="edge14" class="edge">
<title>Node13&#45;&gt;Node11</title>
<path fill="none" stroke="midnightblue" d="M490,-191.59C493.04,-191.01 496.05,-190.48 499,-190 585.79,-175.96 821.08,-204.57 893,-154 913.82,-139.36 923.53,-110.32 927.84,-91.16"/>
<polygon fill="midnightblue" stroke="midnightblue" points="931.3,-91.68 929.8,-81.19 924.44,-90.33 931.3,-91.68"/>
</g>
<!-- Node13&#45;&gt;Node12 -->
<g id="edge15" class="edge">
<title>Node13&#45;&gt;Node12</title>
<path fill="none" stroke="midnightblue" d="M474.38,-190.43C571.81,-153.75 832.13,-55.75 920.87,-22.34"/>
<polygon fill="midnightblue" stroke="midnightblue" points="922.22,-25.57 930.35,-18.77 919.76,-19.02 922.22,-25.57"/>
</g>
<!-- Node13&#45;&gt;Node14 -->
<g id="edge13" class="edge">
<title>Node13&#45;&gt;Node14</title>
<path fill="none" stroke="midnightblue" d="M437.07,-190.38C436.46,-172.88 433.06,-142.94 418,-123 373.15,-63.6 287.14,-31.46 243.24,-18.27"/>
<polygon fill="midnightblue" stroke="midnightblue" points="244.11,-14.88 233.53,-15.46 242.17,-21.61 244.11,-14.88"/>
</g>
<!-- Node15 -->
<g id="node15" class="node">
<title>Node15</title>
<g id="a_node15"><a xlink:title=" ">
<polygon fill="white" stroke="#bfbfbf" points="369.5,-129 369.5,-148 408.5,-148 408.5,-129 369.5,-129"/>
<text text-anchor="middle" x="389" y="-136" font-family="Helvetica,sans-Serif" font-size="10.00">utility</text>
</a>
</g>
</g>
<!-- Node13&#45;&gt;Node15 -->
<g id="edge16" class="edge">
<title>Node13&#45;&gt;Node15</title>
<path fill="none" stroke="midnightblue" d="M426.58,-190.4C419.17,-180.36 409.19,-166.84 401.37,-156.25"/>
<polygon fill="midnightblue" stroke="midnightblue" points="404.18,-154.16 395.42,-148.19 398.55,-158.32 404.18,-154.16"/>
</g>
<!-- Node16 -->
<g id="node16" class="node">
<title>Node16</title>
<g id="a_node16"><a xlink:title=" ">
<polygon fill="white" stroke="#bfbfbf" points="453,-0.5 453,-19.5 497,-19.5 497,-0.5 453,-0.5"/>
<text text-anchor="middle" x="475" y="-7.5" font-family="Helvetica,sans-Serif" font-size="10.00">vector</text>
</a>
</g>
</g>
<!-- Node13&#45;&gt;Node16 -->
<g id="edge17" class="edge">
<title>Node13&#45;&gt;Node16</title>
<path fill="none" stroke="midnightblue" d="M455.42,-190.21C479.56,-170.19 520.72,-131.25 537,-87 541.76,-74.07 543.26,-68.27 537,-56 530,-42.27 516.63,-31.75 504.1,-24.35"/>
<polygon fill="midnightblue" stroke="midnightblue" points="505.68,-21.22 495.22,-19.51 502.33,-27.37 505.68,-21.22"/>
</g>
<!-- Node13&#45;&gt;Node17 -->
<g id="edge18" class="edge">
<title>Node13&#45;&gt;Node17</title>
<path fill="none" stroke="midnightblue" d="M490.04,-191.81C493.07,-191.17 496.07,-190.56 499,-190 592.12,-172.06 700.93,-156.53 767.9,-147.59"/>
<polygon fill="midnightblue" stroke="midnightblue" points="768.43,-151.05 777.88,-146.27 767.51,-144.11 768.43,-151.05"/>
</g>
<!-- Node13&#45;&gt;Node18 -->
<g id="edge25" class="edge">
<title>Node13&#45;&gt;Node18</title>
<path fill="none" stroke="midnightblue" d="M441.07,-190.37C447.52,-167.94 460.2,-123.92 468.1,-96.49"/>
<polygon fill="midnightblue" stroke="midnightblue" points="471.56,-97.1 470.96,-86.52 464.83,-95.17 471.56,-97.1"/>
</g>
<!-- Node17&#45;&gt;Node11 -->
<g id="edge19" class="edge">
<title>Node17&#45;&gt;Node11</title>
<path fill="none" stroke="midnightblue" d="M852.7,-123.4C869.47,-112.5 892.57,-97.48 909.33,-86.58"/>
<polygon fill="midnightblue" stroke="midnightblue" points="911.44,-89.39 917.91,-81.01 907.62,-83.52 911.44,-89.39"/>
</g>
<!-- Node17&#45;&gt;Node12 -->
<g id="edge20" class="edge">
<title>Node17&#45;&gt;Node12</title>
<path fill="none" stroke="midnightblue" d="M841.2,-123.25C853.55,-106.41 875.4,-77.91 897,-56 907.58,-45.27 920.51,-34.43 931.07,-26.07"/>
<polygon fill="midnightblue" stroke="midnightblue" points="933.52,-28.6 939.27,-19.7 929.23,-23.07 933.52,-28.6"/>
</g>
<!-- Node17&#45;&gt;Node18 -->
<g id="edge21" class="edge">
<title>Node17&#45;&gt;Node18</title>
<path fill="none" stroke="midnightblue" d="M777.7,-127.77C713.68,-116.08 606.41,-96.49 538.25,-84.05"/>
<polygon fill="midnightblue" stroke="midnightblue" points="538.54,-80.54 528.08,-82.19 537.29,-87.43 538.54,-80.54"/>
</g>
<!-- Node18&#45;&gt;Node12 -->
<g id="edge23" class="edge">
<title>Node18&#45;&gt;Node12</title>
<path fill="none" stroke="midnightblue" d="M528.22,-63.85C628.08,-51.36 840.65,-24.79 920.15,-14.86"/>
<polygon fill="midnightblue" stroke="midnightblue" points="920.97,-18.28 930.45,-13.57 920.1,-11.34 920.97,-18.28"/>
</g>
<!-- Node18&#45;&gt;Node14 -->
<g id="edge22" class="edge">
<title>Node18&#45;&gt;Node14</title>
<path fill="none" stroke="midnightblue" d="M421.96,-58.32C367.8,-45.87 285.83,-27.04 243.48,-17.31"/>
<polygon fill="midnightblue" stroke="midnightblue" points="244.14,-13.87 233.61,-15.05 242.57,-20.7 244.14,-13.87"/>
</g>
<!-- Node18&#45;&gt;Node16 -->
<g id="edge24" class="edge">
<title>Node18&#45;&gt;Node16</title>
<path fill="none" stroke="midnightblue" d="M475,-56.4C475,-48.47 475,-38.46 475,-29.86"/>
<polygon fill="midnightblue" stroke="midnightblue" points="478.5,-29.66 475,-19.66 471.5,-29.66 478.5,-29.66"/>
</g>
<!-- Node20&#45;&gt;Node2 -->
<g id="edge47" class="edge">
<title>Node20&#45;&gt;Node2</title>
<path fill="none" stroke="midnightblue" d="M1013.79,-324.4C994.88,-314.94 969.78,-302.39 949.23,-292.12"/>
<polygon fill="midnightblue" stroke="midnightblue" points="950.66,-288.92 940.15,-287.58 947.53,-295.18 950.66,-288.92"/>
</g>
<!-- Node20&#45;&gt;Node4 -->
<g id="edge31" class="edge">
<title>Node20&#45;&gt;Node4</title>
<path fill="none" stroke="midnightblue" d="M1071.96,-324.46C1091.1,-315.04 1116.15,-301.85 1137,-288 1155.15,-275.94 1155.01,-265.69 1175,-257 1283.19,-209.95 1321.53,-239.79 1438,-221 1445.74,-219.75 1453.9,-218.34 1461.91,-216.9"/>
<polygon fill="midnightblue" stroke="midnightblue" points="1462.72,-220.31 1471.93,-215.07 1461.46,-213.43 1462.72,-220.31"/>
</g>
<!-- Node20&#45;&gt;Node5 -->
<g id="edge32" class="edge">
<title>Node20&#45;&gt;Node5</title>
<path fill="none" stroke="midnightblue" d="M974.1,-325.21C971.37,-324.78 968.66,-324.38 966,-324 793.64,-299.66 747.56,-317.45 576,-288 471.5,-270.07 351.01,-235.85 291.4,-217.99"/>
<polygon fill="midnightblue" stroke="midnightblue" points="292.27,-214.6 281.68,-215.07 290.25,-221.3 292.27,-214.6"/>
</g>
<!-- Node20&#45;&gt;Node6 -->
<g id="edge33" class="edge">
<title>Node20&#45;&gt;Node6</title>
<path fill="none" stroke="midnightblue" d="M974.46,-325.61C971.6,-325.06 968.77,-324.53 966,-324 881.13,-307.91 857.98,-312 775,-288 715.48,-270.79 649.3,-242.97 608.41,-224.7"/>
<polygon fill="midnightblue" stroke="midnightblue" points="609.63,-221.42 599.08,-220.51 606.76,-227.8 609.63,-221.42"/>
</g>
<!-- Node20&#45;&gt;Node7 -->
<g id="edge34" class="edge">
<title>Node20&#45;&gt;Node7</title>
<path fill="none" stroke="midnightblue" d="M978.57,-324.48C929.49,-313.27 865.83,-297.85 841,-288 798.88,-271.29 753.84,-244.65 725.1,-226.41"/>
<polygon fill="midnightblue" stroke="midnightblue" points="726.67,-223.26 716.37,-220.81 722.89,-229.15 726.67,-223.26"/>
</g>
<!-- Node20&#45;&gt;Node8 -->
<g id="edge35" class="edge">
<title>Node20&#45;&gt;Node8</title>
<path fill="none" stroke="midnightblue" d="M1046.15,-324.36C1050.93,-308.11 1059.01,-280.62 1066,-257 1068.58,-248.27 1071.42,-238.7 1073.93,-230.25"/>
<polygon fill="midnightblue" stroke="midnightblue" points="1077.29,-231.23 1076.79,-220.65 1070.58,-229.23 1077.29,-231.23"/>
</g>
<!-- Node20&#45;&gt;Node9 -->
<g id="edge36" class="edge">
<title>Node20&#45;&gt;Node9</title>
<path fill="none" stroke="midnightblue" d="M1049.7,-324.34C1060,-306.53 1079.81,-275.99 1104,-257 1126.53,-239.32 1156.19,-226.55 1179.89,-218.27"/>
<polygon fill="midnightblue" stroke="midnightblue" points="1181.27,-221.5 1189.64,-215 1179.04,-214.86 1181.27,-221.5"/>
</g>
<!-- Node20&#45;&gt;Node10 -->
<g id="edge37" class="edge">
<title>Node20&#45;&gt;Node10</title>
<path fill="none" stroke="midnightblue" d="M1059.37,-324.18C1087.37,-301.11 1139.65,-258.15 1142,-257 1157.02,-249.66 1249.75,-229.67 1309.93,-217.15"/>
<polygon fill="midnightblue" stroke="midnightblue" points="1310.94,-220.52 1320.03,-215.06 1309.52,-213.66 1310.94,-220.52"/>
</g>
<!-- Node20&#45;&gt;Node11 -->
<g id="edge40" class="edge">
<title>Node20&#45;&gt;Node11</title>
<path fill="none" stroke="midnightblue" d="M1109.63,-326.44C1253.62,-300.44 1578.66,-239.94 1594,-221 1602.67,-210.29 1602.85,-200.56 1594,-190 1512.54,-92.84 1093.07,-75.97 966.93,-73.09"/>
<polygon fill="midnightblue" stroke="midnightblue" points="966.73,-69.58 956.66,-72.87 966.58,-76.58 966.73,-69.58"/>
</g>
<!-- Node20&#45;&gt;Node12 -->
<g id="edge43" class="edge">
<title>Node20&#45;&gt;Node12</title>
<path fill="none" stroke="midnightblue" d="M1109.59,-337.12C1256.16,-333.5 1593.21,-321.58 1632,-288 1660.12,-263.66 1651,-243.69 1651,-206.5 1651,-206.5 1651,-206.5 1651,-137.5 1651,-68.44 1116.53,-23.48 981.63,-13.24"/>
<polygon fill="midnightblue" stroke="midnightblue" points="981.8,-9.74 971.57,-12.48 981.28,-16.72 981.8,-9.74"/>
</g>
<!-- Node20&#45;&gt;Node13 -->
<g id="edge46" class="edge">
<title>Node20&#45;&gt;Node13</title>
<path fill="none" stroke="midnightblue" d="M974.49,-325.4C971.63,-324.91 968.79,-324.44 966,-324 841.22,-304.15 807.23,-315.92 684,-288 611.75,-271.63 530.66,-242.77 481.73,-224.15"/>
<polygon fill="midnightblue" stroke="midnightblue" points="482.98,-220.88 472.39,-220.57 480.47,-227.42 482.98,-220.88"/>
</g>
<!-- Node20&#45;&gt;Node14 -->
<g id="edge39" class="edge">
<title>Node20&#45;&gt;Node14</title>
<path fill="none" stroke="midnightblue" d="M974.12,-325.04C971.38,-324.66 968.67,-324.31 966,-324 869.89,-312.9 181.05,-334.11 96,-288 56.92,-266.81 38,-250.96 38,-206.5 38,-206.5 38,-206.5 38,-137.5 38,-64.59 138.46,-29.83 188.44,-17.05"/>
<polygon fill="midnightblue" stroke="midnightblue" points="189.4,-20.42 198.28,-14.65 187.74,-13.62 189.4,-20.42"/>
</g>
<!-- Node20&#45;&gt;Node15 -->
<g id="edge44" class="edge">
<title>Node20&#45;&gt;Node15</title>
<path fill="none" stroke="midnightblue" d="M974.11,-325.12C971.38,-324.72 968.66,-324.34 966,-324 789.09,-301.28 279.19,-362.03 170,-221 119.33,-155.55 288.53,-142.66 359.32,-140.12"/>
<polygon fill="midnightblue" stroke="midnightblue" points="359.51,-143.62 369.4,-139.81 359.3,-136.62 359.51,-143.62"/>
</g>
<!-- Node20&#45;&gt;Node16 -->
<g id="edge45" class="edge">
<title>Node20&#45;&gt;Node16</title>
<path fill="none" stroke="midnightblue" d="M974.12,-325.05C971.38,-324.67 968.67,-324.31 966,-324 877.3,-313.6 245.3,-322.68 163,-288 114.17,-267.43 76,-259.48 76,-206.5 76,-206.5 76,-206.5 76,-137.5 76,-60.71 347.97,-24.49 442.83,-14.19"/>
<polygon fill="midnightblue" stroke="midnightblue" points="443.4,-17.65 452.98,-13.12 442.67,-10.69 443.4,-17.65"/>
</g>
<!-- Node20&#45;&gt;Node18 -->
<g id="edge48" class="edge">
<title>Node20&#45;&gt;Node18</title>
<path fill="none" stroke="midnightblue" d="M974.12,-325.06C971.38,-324.67 968.67,-324.32 966,-324 882.6,-314.11 285.88,-326.04 211,-288 166.66,-265.48 128.58,-230.81 157,-190 214.35,-107.67 336.34,-82.88 411.45,-75.51"/>
<polygon fill="midnightblue" stroke="midnightblue" points="412.08,-78.97 421.72,-74.58 411.45,-72 412.08,-78.97"/>
</g>
<!-- Node21 -->
<g id="node21" class="node">
<title>Node21</title>
<g id="a_node21"><a xlink:title=" ">
<polygon fill="white" stroke="#bfbfbf" points="1184,-263 1184,-282 1238,-282 1238,-263 1184,-263"/>
<text text-anchor="middle" x="1211" y="-270" font-family="Helvetica,sans-Serif" font-size="10.00">iostream</text>
</a>
</g>
</g>
<!-- Node20&#45;&gt;Node21 -->
<g id="edge38" class="edge">
<title>Node20&#45;&gt;Node21</title>
<path fill="none" stroke="midnightblue" d="M1078.67,-324.4C1108.72,-312.84 1150.79,-296.66 1179.38,-285.66"/>
<polygon fill="midnightblue" stroke="midnightblue" points="1180.8,-288.86 1188.88,-282.01 1178.29,-282.33 1180.8,-288.86"/>
</g>
<!-- Node22 -->
<g id="node22" class="node">
<title>Node22</title>
<g id="a_node22"><a xlink:title=" ">
<polygon fill="white" stroke="#bfbfbf" points="1511,-263 1511,-282 1563,-282 1563,-263 1511,-263"/>
<text text-anchor="middle" x="1537" y="-270" font-family="Helvetica,sans-Serif" font-size="10.00">sstream</text>
</a>
</g>
</g>
<!-- Node20&#45;&gt;Node22 -->
<g id="edge41" class="edge">
<title>Node20&#45;&gt;Node22</title>
<path fill="none" stroke="midnightblue" d="M1109.53,-336C1199.13,-331.56 1361.74,-319.55 1497,-288 1500.07,-287.28 1503.22,-286.41 1506.35,-285.44"/>
<polygon fill="midnightblue" stroke="midnightblue" points="1507.76,-288.65 1516.11,-282.13 1505.51,-282.02 1507.76,-288.65"/>
</g>
<!-- Node23 -->
<g id="node23" class="node">
<title>Node23</title>
<g id="a_node23"><a xlink:title=" ">
<polygon fill="white" stroke="#bfbfbf" points="1581.5,-263 1581.5,-282 1622.5,-282 1622.5,-263 1581.5,-263"/>
<text text-anchor="middle" x="1602" y="-270" font-family="Helvetica,sans-Serif" font-size="10.00">stack</text>
</a>
</g>
</g>
<!-- Node20&#45;&gt;Node23 -->
<g id="edge42" class="edge">
<title>Node20&#45;&gt;Node23</title>
<path fill="none" stroke="midnightblue" d="M1109.75,-335.04C1232.48,-328.27 1486.77,-311.83 1572,-288 1573.88,-287.47 1575.79,-286.84 1577.68,-286.12"/>
<polygon fill="midnightblue" stroke="midnightblue" points="1579.08,-289.33 1586.84,-282.12 1576.28,-282.91 1579.08,-289.33"/>
</g>
<!-- Node24&#45;&gt;Node12 -->
<g id="edge51" class="edge">
<title>Node24&#45;&gt;Node12</title>
<path fill="none" stroke="midnightblue" d="M1778.08,-329.94C1754.65,-322.63 1725.55,-309.73 1708,-288 1684.63,-259.07 1689,-243.69 1689,-206.5 1689,-206.5 1689,-206.5 1689,-137.5 1689,-104.35 1935.25,-157.66 1490,-56 1300.56,-12.75 1065.21,-10.02 981.94,-10.56"/>
<polygon fill="midnightblue" stroke="midnightblue" points="981.85,-7.06 971.88,-10.65 981.91,-14.06 981.85,-7.06"/>
</g>
<!-- Node25 -->
<g id="node25" class="node">
<title>Node25</title>
<g id="a_node25"><a xlink:title=" ">
<polygon fill="white" stroke="#bfbfbf" points="2058,-263 2058,-282 2104,-282 2104,-263 2058,-263"/>
<text text-anchor="middle" x="2081" y="-270" font-family="Helvetica,sans-Serif" font-size="10.00">chrono</text>
</a>
</g>
</g>
<!-- Node24&#45;&gt;Node25 -->
<g id="edge50" class="edge">
<title>Node24&#45;&gt;Node25</title>
<path fill="none" stroke="midnightblue" d="M1870.25,-330C1918.24,-321.81 1989.21,-307.75 2049,-288 2050.87,-287.38 2052.77,-286.69 2054.68,-285.95"/>
<polygon fill="midnightblue" stroke="midnightblue" points="2056.15,-289.13 2064,-282.01 2053.42,-282.68 2056.15,-289.13"/>
</g>
<!-- Node26 -->
<g id="node26" class="node">
<title>Node26</title>
<g id="a_node26"><a xlink:title=" ">
<polygon fill="white" stroke="#bfbfbf" points="1717,-263 1717,-282 1801,-282 1801,-263 1717,-263"/>
<text text-anchor="middle" x="1759" y="-270" font-family="Helvetica,sans-Serif" font-size="10.00">g3log/g3log.hpp</text>
</a>
</g>
</g>
<!-- Node24&#45;&gt;Node26 -->
<g id="edge52" class="edge">
<title>Node24&#45;&gt;Node26</title>
<path fill="none" stroke="midnightblue" d="M1807.45,-329.73C1798.72,-319.6 1784.15,-302.69 1773.26,-290.06"/>
<polygon fill="midnightblue" stroke="midnightblue" points="1775.61,-287.42 1766.43,-282.13 1770.31,-291.99 1775.61,-287.42"/>
</g>
<!-- Node27 -->
<g id="node27" class="node">
<title>Node27</title>
<g id="a_node27"><a xlink:title=" ">
<polygon fill="white" stroke="#bfbfbf" points="1819.5,-263 1819.5,-282 1922.5,-282 1922.5,-263 1819.5,-263"/>
<text text-anchor="middle" x="1871" y="-270" font-family="Helvetica,sans-Serif" font-size="10.00">g3log/logworker.hpp</text>
</a>
</g>
</g>
<!-- Node24&#45;&gt;Node27 -->
<g id="edge53" class="edge">
<title>Node24&#45;&gt;Node27</title>
<path fill="none" stroke="midnightblue" d="M1822.55,-329.73C1831.28,-319.6 1845.85,-302.69 1856.74,-290.06"/>
<polygon fill="midnightblue" stroke="midnightblue" points="1859.69,-291.99 1863.57,-282.13 1854.39,-287.42 1859.69,-291.99"/>
</g>
<!-- Node28 -->
<g id="node28" class="node">
<title>Node28</title>
<g id="a_node28"><a xlink:title=" ">
<polygon fill="white" stroke="#bfbfbf" points="1940.5,-263 1940.5,-282 2039.5,-282 2039.5,-263 1940.5,-263"/>
<text text-anchor="middle" x="1990" y="-270" font-family="Helvetica,sans-Serif" font-size="10.00">g3log/loglevels.hpp</text>
</a>
</g>
</g>
<!-- Node24&#45;&gt;Node28 -->
<g id="edge54" class="edge">
<title>Node24&#45;&gt;Node28</title>
<path fill="none" stroke="midnightblue" d="M1838.24,-329.87C1868.79,-318.52 1922.63,-298.52 1957.28,-285.65"/>
<polygon fill="midnightblue" stroke="midnightblue" points="1958.79,-288.83 1966.94,-282.06 1956.35,-282.26 1958.79,-288.83"/>
</g>
</g>
</svg>
        <g id="navigator" transform="translate(0 0)" fill="#404254">
                <rect fill="#f2f5e9" fill-opacity="0.5" stroke="#606060" stroke-width=".5" x="0" y="0" width="60" height="60"/>
                <use id="zoomplus" xlink:href="#zoomPlus" x="17" y="9" onmousedown="handleZoom(evt,'in')"/>
                <use id="zoomminus" xlink:href="#zoomMin" x="42" y="9" onmousedown="handleZoom(evt,'out')"/>
                <use id="reset" xlink:href="#resetDef" x="30" y="36" onmousedown="handleReset()"/>
                <g id="arrowUp" xlink:href="#dirArrow" transform="translate(30 24)" onmousedown="handlePan(0,-1)">
                  <use xlink:href="#rim" fill="#404040">
                        <set attributeName="fill" to="#808080" begin="arrowUp.mouseover" end="arrowUp.mouseout"/>
                  </use>
                  <path fill="none" stroke="white" stroke-width="1.5" d="M0,-3.0v7 M-2.5,-0.5L0,-3.0L2.5,-0.5"/>
                </g>
                <g id="arrowRight" xlink:href="#dirArrow" transform="rotate(90) translate(36 -43)" onmousedown="handlePan(1,0)">
                  <use xlink:href="#rim" fill="#404040">
                        <set attributeName="fill" to="#808080" begin="arrowRight.mouseover" end="arrowRight.mouseout"/>
                  </use>
                  <path fill="none" stroke="white" stroke-width="1.5" d="M0,-3.0v7 M-2.5,-0.5L0,-3.0L2.5,-0.5"/>
                </g>
                <g id="arrowDown" xlink:href="#dirArrow" transform="rotate(180) translate(-30 -48)" onmousedown="handlePan(0,1)">
                  <use xlink:href="#rim" fill="#404040">
                        <set attributeName="fill" to="#808080" begin="arrowDown.mouseover" end="arrowDown.mouseout"/>
                  </use>
                  <path fill="none" stroke="white" stroke-width="1.5" d="M0,-3.0v7 M-2.5,-0.5L0,-3.0L2.5,-0.5"/>
                </g>
                <g id="arrowLeft" xlink:href="#dirArrow" transform="rotate(270) translate(-36 17)" onmousedown="handlePan(-1,0)">
                  <use xlink:href="#rim" fill="#404040">
                        <set attributeName="fill" to="#808080" begin="arrowLeft.mouseover" end="arrowLeft.mouseout"/>
                  </use>
                  <path fill="none" stroke="white" stroke-width="1.5" d="M0,-3.0v7 M-2.5,-0.5L0,-3.0L2.5,-0.5"/>
                </g>
        </g>
        <svg viewBox="0 0 15 15" width="100%" height="30px" preserveAspectRatio="xMaxYMin meet">
         <g id="arrow_out" transform="scale(0.3 0.3)">
          <a xlink:href="protobuf__msg_8cc__incl_org.svg" target="_base">
           <rect id="button" ry="5" rx="5" y="6" x="6" height="38" width="38"
                fill="#f2f5e9" fill-opacity="0.5" stroke="#606060" stroke-width="1.0"/>
           <path id="arrow"
             d="M 11.500037,31.436501 C 11.940474,20.09759 22.043105,11.32322 32.158766,21.979434 L 37.068811,17.246167 C 37.068811,17.246167 37.088388,32 37.088388,32 L 22.160133,31.978069 C 22.160133,31.978069 26.997745,27.140456 26.997745,27.140456 C 18.528582,18.264221 13.291696,25.230495 11.500037,31.436501 z"
             style="fill:#404040;"/>
          </a>
         </g>
        </svg>
</svg>
