<?xml version="1.0" encoding="UTF-8" standalone="no"?>
<!DOCTYPE svg PUBLIC "-//W3C//DTD SVG 1.1//EN"
 "http://www.w3.org/Graphics/SVG/1.1/DTD/svg11.dtd">
<!-- Generated by graphviz version 2.44.0 ()
 -->
<!-- Title: automaton::core::script::module::static_function_info Pages: 1 -->
<svg width="279pt" height="263pt"
 viewBox="0.00 0.00 279.00 263.00" xmlns="http://www.w3.org/2000/svg" xmlns:xlink="http://www.w3.org/1999/xlink">
<g id="graph0" class="graph" transform="scale(1 1) rotate(0) translate(4 259)">
<title>automaton::core::script::module::static_function_info</title>
<polygon fill="white" stroke="transparent" points="-4,4 -4,-259 275,-259 275,4 -4,4"/>
<!-- Node1 -->
<g id="node1" class="node">
<title>Node1</title>
<g id="a_node1"><a xlink:title=" ">
<polygon fill="#bfbfbf" stroke="black" points="62.5,-0.5 62.5,-30.5 204.5,-30.5 204.5,-0.5 62.5,-0.5"/>
<text text-anchor="start" x="70.5" y="-18.5" font-family="Helvetica,sans-Serif" font-size="10.00">automaton::core::script</text>
<text text-anchor="middle" x="133.5" y="-7.5" font-family="Helvetica,sans-Serif" font-size="10.00">::module::static_function_info</text>
</a>
</g>
</g>
<!-- Node2 -->
<g id="node2" class="node">
<title>Node2</title>
<g id="a_node2"><a xlink:title=" ">
<polygon fill="white" stroke="#bfbfbf" points="0,-95 0,-114 51,-114 51,-95 0,-95"/>
<text text-anchor="middle" x="25.5" y="-102" font-family="Helvetica,sans-Serif" font-size="10.00">uint32_t</text>
</a>
</g>
</g>
<!-- Node2&#45;&gt;Node1 -->
<g id="edge1" class="edge">
<title>Node2&#45;&gt;Node1</title>
<path fill="none" stroke="#9a32cd" stroke-dasharray="5,2" d="M29.76,-84.92C33.3,-73.25 39.42,-58.63 49.5,-49 57.64,-41.22 67.85,-35.25 78.31,-30.68"/>
<polygon fill="#9a32cd" stroke="#9a32cd" points="26.28,-84.38 27.12,-94.95 33.05,-86.17 26.28,-84.38"/>
<text text-anchor="middle" x="89.5" y="-63" font-family="Helvetica,sans-Serif" font-size="10.00"> input_schema_id</text>
<text text-anchor="middle" x="89.5" y="-52" font-family="Helvetica,sans-Serif" font-size="10.00">output_schema_id</text>
</g>
<!-- Node3 -->
<g id="node3" class="node">
<title>Node3</title>
<g id="a_node3"><a xlink:title="STL class.">
<polygon fill="white" stroke="#bfbfbf" points="195,-167.5 195,-186.5 254,-186.5 254,-167.5 195,-167.5"/>
<text text-anchor="middle" x="224.5" y="-174.5" font-family="Helvetica,sans-Serif" font-size="10.00">std::string</text>
</a>
</g>
</g>
<!-- Node3&#45;&gt;Node1 -->
<g id="edge2" class="edge">
<title>Node3&#45;&gt;Node1</title>
<path fill="none" stroke="#9a32cd" stroke-dasharray="5,2" d="M223.74,-157.28C222.3,-138.9 218.18,-110.56 206.5,-89 193.48,-64.97 169.95,-43.77 153.12,-30.6"/>
<polygon fill="#9a32cd" stroke="#9a32cd" points="220.24,-157.51 224.33,-167.29 227.23,-157.1 220.24,-157.51"/>
<text text-anchor="middle" x="231" y="-102" font-family="Helvetica,sans-Serif" font-size="10.00"> name</text>
</g>
<!-- Node5 -->
<g id="node5" class="node">
<title>Node5</title>
<g id="a_node5"><a xlink:href="../../da/d6a/structautomaton_1_1core_1_1common_1_1status.html" target="_top" xlink:title=" ">
<polygon fill="white" stroke="black" points="69.5,-89.5 69.5,-119.5 197.5,-119.5 197.5,-89.5 69.5,-89.5"/>
<text text-anchor="start" x="77.5" y="-107.5" font-family="Helvetica,sans-Serif" font-size="10.00">automaton::core::common</text>
<text text-anchor="middle" x="133.5" y="-96.5" font-family="Helvetica,sans-Serif" font-size="10.00">::status</text>
</a>
</g>
</g>
<!-- Node3&#45;&gt;Node5 -->
<g id="edge6" class="edge">
<title>Node3&#45;&gt;Node5</title>
<path fill="none" stroke="#9a32cd" stroke-dasharray="5,2" d="M205.3,-161.13C189.48,-148.87 167.2,-131.61 151.67,-119.58"/>
<polygon fill="#9a32cd" stroke="#9a32cd" points="203.29,-164 213.34,-167.36 207.58,-158.46 203.29,-164"/>
<text text-anchor="middle" x="197.5" y="-141" font-family="Helvetica,sans-Serif" font-size="10.00"> msg</text>
</g>
<!-- Node4 -->
<g id="node4" class="node">
<title>Node4</title>
<g id="a_node4"><a xlink:title="STL class.">
<polygon fill="white" stroke="#bfbfbf" points="178,-224.5 178,-254.5 271,-254.5 271,-224.5 178,-224.5"/>
<text text-anchor="start" x="186" y="-242.5" font-family="Helvetica,sans-Serif" font-size="10.00">std::basic_string&lt;</text>
<text text-anchor="middle" x="224.5" y="-231.5" font-family="Helvetica,sans-Serif" font-size="10.00"> char &gt;</text>
</a>
</g>
</g>
<!-- Node4&#45;&gt;Node3 -->
<g id="edge3" class="edge">
<title>Node4&#45;&gt;Node3</title>
<path fill="none" stroke="midnightblue" d="M224.5,-214.35C224.5,-204.51 224.5,-193.78 224.5,-186.54"/>
<polygon fill="midnightblue" stroke="midnightblue" points="221,-214.47 224.5,-224.47 228,-214.47 221,-214.47"/>
</g>
<!-- Node5&#45;&gt;Node1 -->
<g id="edge4" class="edge">
<title>Node5&#45;&gt;Node1</title>
<path fill="none" stroke="#9a32cd" stroke-dasharray="5,2" d="M133.5,-79.09C133.5,-63.44 133.5,-43.68 133.5,-30.6"/>
<polygon fill="#9a32cd" stroke="#9a32cd" points="130,-79.13 133.5,-89.13 137,-79.13 130,-79.13"/>
<text text-anchor="middle" x="144.5" y="-57.5" font-family="Helvetica,sans-Serif" font-size="10.00"> func</text>
</g>
<!-- Node6 -->
<g id="node6" class="node">
<title>Node6</title>
<g id="a_node6"><a xlink:title=" ">
<polygon fill="white" stroke="#bfbfbf" points="98.5,-167.5 98.5,-186.5 168.5,-186.5 168.5,-167.5 98.5,-167.5"/>
<text text-anchor="middle" x="133.5" y="-174.5" font-family="Helvetica,sans-Serif" font-size="10.00">status_code</text>
</a>
</g>
</g>
<!-- Node6&#45;&gt;Node5 -->
<g id="edge5" class="edge">
<title>Node6&#45;&gt;Node5</title>
<path fill="none" stroke="#9a32cd" stroke-dasharray="5,2" d="M133.5,-157.24C133.5,-145.41 133.5,-130.38 133.5,-119.58"/>
<polygon fill="#9a32cd" stroke="#9a32cd" points="130,-157.36 133.5,-167.36 137,-157.36 130,-157.36"/>
<text text-anchor="middle" x="145.5" y="-141" font-family="Helvetica,sans-Serif" font-size="10.00"> code</text>
</g>
</g>
</svg>
