<?xml version="1.0" encoding="UTF-8" standalone="no"?>
<!DOCTYPE svg PUBLIC "-//W3C//DTD SVG 1.1//EN"
 "http://www.w3.org/Graphics/SVG/1.1/DTD/svg11.dtd">
<!-- Generated by graphviz version 2.44.0 ()
 -->
<!-- Title: automaton::core::interop::ethereum::curl_struct Pages: 1 -->
<svg width="294pt" height="174pt"
 viewBox="0.00 0.00 294.00 174.00" xmlns="http://www.w3.org/2000/svg" xmlns:xlink="http://www.w3.org/1999/xlink">
<g id="graph0" class="graph" transform="scale(1 1) rotate(0) translate(4 170)">
<title>automaton::core::interop::ethereum::curl_struct</title>
<polygon fill="white" stroke="transparent" points="-4,4 -4,-170 290,-170 290,4 -4,4"/>
<!-- Node1 -->
<g id="node1" class="node">
<title>Node1</title>
<g id="a_node1"><a xlink:title=" ">
<polygon fill="#bfbfbf" stroke="black" points="68,-0.5 68,-30.5 187,-30.5 187,-0.5 68,-0.5"/>
<text text-anchor="start" x="76" y="-18.5" font-family="Helvetica,sans-Serif" font-size="10.00">automaton::core::interop</text>
<text text-anchor="middle" x="127.5" y="-7.5" font-family="Helvetica,sans-Serif" font-size="10.00">::ethereum::curl_struct</text>
</a>
</g>
</g>
<!-- Node2 -->
<g id="node2" class="node">
<title>Node2</title>
<g id="a_node2"><a xlink:title=" ">
<polygon fill="white" stroke="#bfbfbf" points="0,-78.5 0,-97.5 35,-97.5 35,-78.5 0,-78.5"/>
<text text-anchor="middle" x="17.5" y="-85.5" font-family="Helvetica,sans-Serif" font-size="10.00">char</text>
</a>
</g>
</g>
<!-- Node2&#45;&gt;Node1 -->
<g id="edge1" class="edge">
<title>Node2&#45;&gt;Node1</title>
<path fill="none" stroke="#9a32cd" stroke-dasharray="5,2" d="M27.47,-69.39C32.19,-62.29 38.36,-54.5 45.5,-49 55.45,-41.34 67.43,-35.25 79.13,-30.51"/>
<polygon fill="#9a32cd" stroke="#9a32cd" points="24.21,-68 21.98,-78.35 30.18,-71.65 24.21,-68"/>
<text text-anchor="middle" x="72.5" y="-52" font-family="Helvetica,sans-Serif" font-size="10.00"> curl_err_buf</text>
</g>
<!-- Node3 -->
<g id="node3" class="node">
<title>Node3</title>
<g id="a_node3"><a xlink:title=" ">
<polygon fill="white" stroke="#bfbfbf" points="61.5,-78.5 61.5,-97.5 111.5,-97.5 111.5,-78.5 61.5,-78.5"/>
<text text-anchor="middle" x="86.5" y="-85.5" font-family="Helvetica,sans-Serif" font-size="10.00">CURL *</text>
</a>
</g>
</g>
<!-- Node3&#45;&gt;Node1 -->
<g id="edge2" class="edge">
<title>Node3&#45;&gt;Node1</title>
<path fill="none" stroke="#9a32cd" stroke-dasharray="5,2" d="M96.57,-69.68C103.57,-57.65 112.77,-41.83 119.31,-30.58"/>
<polygon fill="#9a32cd" stroke="#9a32cd" points="93.53,-67.95 91.53,-78.36 99.58,-71.47 93.53,-67.95"/>
<text text-anchor="middle" x="118" y="-52" font-family="Helvetica,sans-Serif" font-size="10.00"> curl</text>
</g>
<!-- Node4 -->
<g id="node4" class="node">
<title>Node4</title>
<g id="a_node4"><a xlink:title=" ">
<polygon fill="white" stroke="#bfbfbf" points="129.5,-78.5 129.5,-97.5 191.5,-97.5 191.5,-78.5 129.5,-78.5"/>
<text text-anchor="middle" x="160.5" y="-85.5" font-family="Helvetica,sans-Serif" font-size="10.00">curl_slist *</text>
</a>
</g>
</g>
<!-- Node4&#45;&gt;Node1 -->
<g id="edge3" class="edge">
<title>Node4&#45;&gt;Node1</title>
<path fill="none" stroke="#9a32cd" stroke-dasharray="5,2" d="M152.06,-68.96C146.47,-57.03 139.25,-41.61 134.09,-30.58"/>
<polygon fill="#9a32cd" stroke="#9a32cd" points="149.04,-70.78 156.45,-78.36 155.38,-67.81 149.04,-70.78"/>
<text text-anchor="middle" x="155.5" y="-52" font-family="Helvetica,sans-Serif" font-size="10.00"> list</text>
</g>
<!-- Node5 -->
<g id="node5" class="node">
<title>Node5</title>
<g id="a_node5"><a xlink:title="STL class.">
<polygon fill="white" stroke="#bfbfbf" points="210,-78.5 210,-97.5 269,-97.5 269,-78.5 210,-78.5"/>
<text text-anchor="middle" x="239.5" y="-85.5" font-family="Helvetica,sans-Serif" font-size="10.00">std::string</text>
</a>
</g>
</g>
<!-- Node5&#45;&gt;Node1 -->
<g id="edge4" class="edge">
<title>Node5&#45;&gt;Node1</title>
<path fill="none" stroke="#9a32cd" stroke-dasharray="5,2" d="M217.21,-72.97C197.67,-60.67 169.42,-42.89 149.86,-30.58"/>
<polygon fill="#9a32cd" stroke="#9a32cd" points="215.44,-75.99 225.77,-78.36 219.17,-70.07 215.44,-75.99"/>
<text text-anchor="middle" x="213.5" y="-52" font-family="Helvetica,sans-Serif" font-size="10.00"> msg_buf</text>
</g>
<!-- Node6 -->
<g id="node6" class="node">
<title>Node6</title>
<g id="a_node6"><a xlink:title="STL class.">
<polygon fill="white" stroke="#bfbfbf" points="193,-135.5 193,-165.5 286,-165.5 286,-135.5 193,-135.5"/>
<text text-anchor="start" x="201" y="-153.5" font-family="Helvetica,sans-Serif" font-size="10.00">std::basic_string&lt;</text>
<text text-anchor="middle" x="239.5" y="-142.5" font-family="Helvetica,sans-Serif" font-size="10.00"> char &gt;</text>
</a>
</g>
</g>
<!-- Node6&#45;&gt;Node5 -->
<g id="edge5" class="edge">
<title>Node6&#45;&gt;Node5</title>
<path fill="none" stroke="midnightblue" d="M239.5,-125.35C239.5,-115.51 239.5,-104.78 239.5,-97.54"/>
<polygon fill="midnightblue" stroke="midnightblue" points="236,-125.47 239.5,-135.47 243,-125.47 236,-125.47"/>
</g>
</g>
</svg>
