<?xml version="1.0" encoding="UTF-8" standalone="no"?>
<!DOCTYPE svg PUBLIC "-//W3C//DTD SVG 1.1//EN"
 "http://www.w3.org/Graphics/SVG/1.1/DTD/svg11.dtd">
<!-- Generated by graphviz version 2.44.0 ()
 -->
<!-- Title: connection.h Pages: 1 -->
<svg width="355pt" height="151pt"
 viewBox="0.00 0.00 355.00 151.00" xmlns="http://www.w3.org/2000/svg" xmlns:xlink="http://www.w3.org/1999/xlink">
<g id="graph0" class="graph" transform="scale(1 1) rotate(0) translate(4 147)">
<title>connection.h</title>
<polygon fill="white" stroke="transparent" points="-4,4 -4,-147 351,-147 351,4 -4,4"/>
<!-- Node1 -->
<g id="node1" class="node">
<title>Node1</title>
<g id="a_node1"><a xlink:title=" ">
<polygon fill="#bfbfbf" stroke="black" points="97,-123.5 97,-142.5 168,-142.5 168,-123.5 97,-123.5"/>
<text text-anchor="middle" x="132.5" y="-130.5" font-family="Helvetica,sans-Serif" font-size="10.00">connection.h</text>
</a>
</g>
</g>
<!-- Node2 -->
<g id="node2" class="node">
<title>Node2</title>
<g id="a_node2"><a xlink:title=" ">
<polygon fill="white" stroke="#bfbfbf" points="0,-62 0,-81 35,-81 35,-62 0,-62"/>
<text text-anchor="middle" x="17.5" y="-69" font-family="Helvetica,sans-Serif" font-size="10.00">map</text>
</a>
</g>
</g>
<!-- Node1&#45;&gt;Node2 -->
<g id="edge1" class="edge">
<title>Node1&#45;&gt;Node2</title>
<path fill="none" stroke="midnightblue" d="M115,-123.41C96.97,-114.51 68.12,-100.08 43.5,-87 42.83,-86.65 42.16,-86.28 41.47,-85.92"/>
<polygon fill="midnightblue" stroke="midnightblue" points="43.02,-82.77 32.57,-81.04 39.66,-88.91 43.02,-82.77"/>
</g>
<!-- Node3 -->
<g id="node3" class="node">
<title>Node3</title>
<g id="a_node3"><a xlink:title=" ">
<polygon fill="white" stroke="#bfbfbf" points="53,-62 53,-81 104,-81 104,-62 53,-62"/>
<text text-anchor="middle" x="78.5" y="-69" font-family="Helvetica,sans-Serif" font-size="10.00">memory</text>
</a>
</g>
</g>
<!-- Node1&#45;&gt;Node3 -->
<g id="edge2" class="edge">
<title>Node1&#45;&gt;Node3</title>
<path fill="none" stroke="midnightblue" d="M124.76,-123.48C116.5,-114.37 103.22,-99.74 93.01,-88.48"/>
<polygon fill="midnightblue" stroke="midnightblue" points="95.53,-86.06 86.22,-81.01 90.35,-90.77 95.53,-86.06"/>
</g>
<!-- Node4 -->
<g id="node4" class="node">
<title>Node4</title>
<g id="a_node4"><a xlink:title=" ">
<polygon fill="white" stroke="#bfbfbf" points="155,-0.5 155,-19.5 196,-19.5 196,-0.5 155,-0.5"/>
<text text-anchor="middle" x="175.5" y="-7.5" font-family="Helvetica,sans-Serif" font-size="10.00">string</text>
</a>
</g>
</g>
<!-- Node1&#45;&gt;Node4 -->
<g id="edge3" class="edge">
<title>Node1&#45;&gt;Node4</title>
<path fill="none" stroke="midnightblue" d="M133.95,-123.36C136.5,-109.03 142.41,-79.61 151.5,-56 155.12,-46.6 160.26,-36.67 164.86,-28.54"/>
<polygon fill="midnightblue" stroke="midnightblue" points="168.02,-30.06 170.05,-19.66 161.98,-26.52 168.02,-30.06"/>
</g>
<!-- Node5 -->
<g id="node5" class="node">
<title>Node5</title>
<g id="a_node5"><a xlink:title=" ">
<polygon fill="white" stroke="#bfbfbf" points="160.5,-62 160.5,-81 204.5,-81 204.5,-62 160.5,-62"/>
<text text-anchor="middle" x="182.5" y="-69" font-family="Helvetica,sans-Serif" font-size="10.00">thread</text>
</a>
</g>
</g>
<!-- Node1&#45;&gt;Node5 -->
<g id="edge4" class="edge">
<title>Node1&#45;&gt;Node5</title>
<path fill="none" stroke="midnightblue" d="M139.66,-123.48C147.24,-114.46 159.37,-100.02 168.79,-88.81"/>
<polygon fill="midnightblue" stroke="midnightblue" points="171.6,-90.92 175.35,-81.01 166.24,-86.41 171.6,-90.92"/>
</g>
<!-- Node6 -->
<g id="node6" class="node">
<title>Node6</title>
<g id="a_node6"><a xlink:href="../../d1/d13/status_8h.html" target="_top" xlink:title=" ">
<polygon fill="white" stroke="black" points="222,-56.5 222,-86.5 347,-86.5 347,-56.5 222,-56.5"/>
<text text-anchor="start" x="230" y="-74.5" font-family="Helvetica,sans-Serif" font-size="10.00">automaton/core/common</text>
<text text-anchor="middle" x="284.5" y="-63.5" font-family="Helvetica,sans-Serif" font-size="10.00">/status.h</text>
</a>
</g>
</g>
<!-- Node1&#45;&gt;Node6 -->
<g id="edge5" class="edge">
<title>Node1&#45;&gt;Node6</title>
<path fill="none" stroke="midnightblue" d="M154.28,-123.48C176.31,-114.85 211.02,-101.26 239.07,-90.29"/>
<polygon fill="midnightblue" stroke="midnightblue" points="240.64,-93.43 248.68,-86.52 238.09,-86.91 240.64,-93.43"/>
</g>
<!-- Node6&#45;&gt;Node4 -->
<g id="edge7" class="edge">
<title>Node6&#45;&gt;Node4</title>
<path fill="none" stroke="midnightblue" d="M258.67,-56.4C241.03,-46.77 217.8,-34.09 200.37,-24.58"/>
<polygon fill="midnightblue" stroke="midnightblue" points="201.81,-21.38 191.36,-19.66 198.46,-27.52 201.81,-21.38"/>
</g>
<!-- Node7 -->
<g id="node7" class="node">
<title>Node7</title>
<g id="a_node7"><a xlink:title=" ">
<polygon fill="white" stroke="#bfbfbf" points="222.5,-0.5 222.5,-19.5 274.5,-19.5 274.5,-0.5 222.5,-0.5"/>
<text text-anchor="middle" x="248.5" y="-7.5" font-family="Helvetica,sans-Serif" font-size="10.00">ostream</text>
</a>
</g>
</g>
<!-- Node6&#45;&gt;Node7 -->
<g id="edge6" class="edge">
<title>Node6&#45;&gt;Node7</title>
<path fill="none" stroke="midnightblue" d="M275.97,-56.4C270.9,-48.02 264.43,-37.33 259.04,-28.42"/>
<polygon fill="midnightblue" stroke="midnightblue" points="261.91,-26.4 253.74,-19.66 255.92,-30.03 261.91,-26.4"/>
</g>
<!-- Node8 -->
<g id="node8" class="node">
<title>Node8</title>
<g id="a_node8"><a xlink:title=" ">
<polygon fill="white" stroke="#bfbfbf" points="292.5,-0.5 292.5,-19.5 346.5,-19.5 346.5,-0.5 292.5,-0.5"/>
<text text-anchor="middle" x="319.5" y="-7.5" font-family="Helvetica,sans-Serif" font-size="10.00">iostream</text>
</a>
</g>
</g>
<!-- Node6&#45;&gt;Node8 -->
<g id="edge8" class="edge">
<title>Node6&#45;&gt;Node8</title>
<path fill="none" stroke="midnightblue" d="M292.79,-56.4C297.72,-48.02 304.01,-37.33 309.25,-28.42"/>
<polygon fill="midnightblue" stroke="midnightblue" points="312.35,-30.05 314.41,-19.66 306.32,-26.5 312.35,-30.05"/>
</g>
</g>
</svg>
