<?xml version="1.0" encoding="UTF-8" standalone="no"?>
<!DOCTYPE svg PUBLIC "-//W3C//DTD SVG 1.1//EN"
 "http://www.w3.org/Graphics/SVG/1.1/DTD/svg11.dtd">
<!-- Generated by graphviz version 2.44.0 ()
 -->
<!-- Title: automaton::core::node::luanode::lua_node::process_cmd Pages: 1 -->
<svg width="253pt" height="50pt"
 viewBox="0.00 0.00 253.00 50.00" xmlns="http://www.w3.org/2000/svg" xmlns:xlink="http://www.w3.org/1999/xlink">
<g id="graph0" class="graph" transform="scale(1 1) rotate(0) translate(4 46)">
<title>automaton::core::node::luanode::lua_node::process_cmd</title>
<polygon fill="white" stroke="transparent" points="-4,4 -4,-46 249,-46 249,4 -4,4"/>
<!-- Node1 -->
<g id="node1" class="node">
<title>Node1</title>
<g id="a_node1"><a xlink:title=" ">
<polygon fill="#bfbfbf" stroke="black" points="0,-0.5 0,-41.5 111,-41.5 111,-0.5 0,-0.5"/>
<text text-anchor="start" x="8" y="-29.5" font-family="Helvetica,sans-Serif" font-size="10.00">automaton::core::node</text>
<text text-anchor="start" x="8" y="-18.5" font-family="Helvetica,sans-Serif" font-size="10.00">::luanode::lua_node::</text>
<text text-anchor="middle" x="55.5" y="-7.5" font-family="Helvetica,sans-Serif" font-size="10.00">process_cmd</text>
</a>
</g>
</g>
<!-- Node2 -->
<g id="node2" class="node">
<title>Node2</title>
<g id="a_node2"><a xlink:href="../../da/dd5/namespaceautomaton_1_1core_1_1io.html#ab19202c80dffefe2cd1a87a60d06a0b3" target="_top" xlink:title=" ">
<polygon fill="white" stroke="black" points="147,-6 147,-36 245,-36 245,-6 147,-6"/>
<text text-anchor="start" x="155" y="-24" font-family="Helvetica,sans-Serif" font-size="10.00">automaton::core::io</text>
<text text-anchor="middle" x="196" y="-13" font-family="Helvetica,sans-Serif" font-size="10.00">::bin2hex</text>
</a>
</g>
</g>
<!-- Node1&#45;&gt;Node2 -->
<g id="edge1" class="edge">
<title>Node1&#45;&gt;Node2</title>
<path fill="none" stroke="midnightblue" d="M111.24,-21C119.62,-21 128.31,-21 136.77,-21"/>
<polygon fill="midnightblue" stroke="midnightblue" points="136.94,-24.5 146.94,-21 136.94,-17.5 136.94,-24.5"/>
</g>
</g>
</svg>
