<?xml version="1.0" encoding="UTF-8" standalone="no"?>
<!DOCTYPE svg PUBLIC "-//W3C//DTD SVG 1.1//EN"
 "http://www.w3.org/Graphics/SVG/1.1/DTD/svg11.dtd">
<!-- Generated by graphviz version 2.44.0 ()
 -->
<!-- Title: automaton::core::node::luanode::lua_node::init Pages: 1 -->
<svg width="317pt" height="333pt"
 viewBox="0.00 0.00 317.00 333.00" xmlns="http://www.w3.org/2000/svg" xmlns:xlink="http://www.w3.org/1999/xlink">
<g id="graph0" class="graph" transform="scale(1 1) rotate(0) translate(4 329)">
<title>automaton::core::node::luanode::lua_node::init</title>
<polygon fill="white" stroke="transparent" points="-4,4 -4,-329 313,-329 313,4 -4,4"/>
<!-- Node1 -->
<g id="node1" class="node">
<title>Node1</title>
<g id="a_node1"><a xlink:title=" ">
<polygon fill="#bfbfbf" stroke="black" points="0,-147.5 0,-177.5 116,-177.5 116,-147.5 0,-147.5"/>
<text text-anchor="start" x="8" y="-165.5" font-family="Helvetica,sans-Serif" font-size="10.00">automaton::core::node</text>
<text text-anchor="middle" x="58" y="-154.5" font-family="Helvetica,sans-Serif" font-size="10.00">::luanode::lua_node::init</text>
</a>
</g>
</g>
<!-- Node2 -->
<g id="node2" class="node">
<title>Node2</title>
<g id="a_node2"><a xlink:href="../../d7/db8/classautomaton_1_1core_1_1smartproto_1_1smart__protocol.html#ae0ce9d73a72230168b62c98a24594726" target="_top" xlink:title=" ">
<polygon fill="white" stroke="black" points="152,-294.5 152,-324.5 309,-324.5 309,-294.5 152,-294.5"/>
<text text-anchor="start" x="160" y="-312.5" font-family="Helvetica,sans-Serif" font-size="10.00">automaton::core::smartproto</text>
<text text-anchor="middle" x="230.5" y="-301.5" font-family="Helvetica,sans-Serif" font-size="10.00">::smart_protocol::get_commands</text>
</a>
</g>
</g>
<!-- Node1&#45;&gt;Node2 -->
<g id="edge1" class="edge">
<title>Node1&#45;&gt;Node2</title>
<path fill="none" stroke="midnightblue" d="M66.48,-177.81C79.96,-203.81 110.8,-256.59 152,-285.5 154.12,-286.99 156.33,-288.38 158.62,-289.7"/>
<polygon fill="midnightblue" stroke="midnightblue" points="157.23,-292.92 167.73,-294.35 160.41,-286.68 157.23,-292.92"/>
</g>
<!-- Node3 -->
<g id="node3" class="node">
<title>Node3</title>
<g id="a_node3"><a xlink:href="../../d7/db8/classautomaton_1_1core_1_1smartproto_1_1smart__protocol.html#a807be6e7d21af01c567b6e62dc78a625" target="_top" xlink:title=" ">
<polygon fill="white" stroke="black" points="161.5,-245.5 161.5,-275.5 299.5,-275.5 299.5,-245.5 161.5,-245.5"/>
<text text-anchor="start" x="169.5" y="-263.5" font-family="Helvetica,sans-Serif" font-size="10.00">automaton::core::smartproto</text>
<text text-anchor="middle" x="230.5" y="-252.5" font-family="Helvetica,sans-Serif" font-size="10.00">::smart_protocol::get_factory</text>
</a>
</g>
</g>
<!-- Node1&#45;&gt;Node3 -->
<g id="edge2" class="edge">
<title>Node1&#45;&gt;Node3</title>
<path fill="none" stroke="midnightblue" d="M74.17,-177.57C91.6,-194.13 121.72,-220.49 152,-236.5 155.47,-238.34 159.11,-240.06 162.83,-241.67"/>
<polygon fill="midnightblue" stroke="midnightblue" points="161.64,-244.96 172.22,-245.44 164.24,-238.46 161.64,-244.96"/>
</g>
<!-- Node4 -->
<g id="node4" class="node">
<title>Node4</title>
<g id="a_node4"><a xlink:href="../../d7/db8/classautomaton_1_1core_1_1smartproto_1_1smart__protocol.html#a1c7ff324a7dee2aef2f75a7e52af4d0f" target="_top" xlink:title=" ">
<polygon fill="white" stroke="black" points="162,-196.5 162,-226.5 299,-226.5 299,-196.5 162,-196.5"/>
<text text-anchor="start" x="170" y="-214.5" font-family="Helvetica,sans-Serif" font-size="10.00">automaton::core::smartproto</text>
<text text-anchor="middle" x="230.5" y="-203.5" font-family="Helvetica,sans-Serif" font-size="10.00">::smart_protocol::get_files</text>
</a>
</g>
</g>
<!-- Node1&#45;&gt;Node4 -->
<g id="edge3" class="edge">
<title>Node1&#45;&gt;Node4</title>
<path fill="none" stroke="midnightblue" d="M111.55,-177.6C129.21,-182.68 149.09,-188.39 167.42,-193.66"/>
<polygon fill="midnightblue" stroke="midnightblue" points="166.55,-197.05 177.13,-196.45 168.48,-190.32 166.55,-197.05"/>
</g>
<!-- Node5 -->
<g id="node5" class="node">
<title>Node5</title>
<g id="a_node5"><a xlink:href="../../d7/db8/classautomaton_1_1core_1_1smartproto_1_1smart__protocol.html#ab42aff379d54055799333d7c840c0f35" target="_top" xlink:title=" ">
<polygon fill="white" stroke="black" points="159,-147.5 159,-177.5 302,-177.5 302,-147.5 159,-147.5"/>
<text text-anchor="start" x="167" y="-165.5" font-family="Helvetica,sans-Serif" font-size="10.00">automaton::core::smartproto</text>
<text text-anchor="middle" x="230.5" y="-154.5" font-family="Helvetica,sans-Serif" font-size="10.00">::smart_protocol::get_protocol</text>
</a>
</g>
</g>
<!-- Node1&#45;&gt;Node5 -->
<g id="edge4" class="edge">
<title>Node1&#45;&gt;Node5</title>
<path fill="none" stroke="midnightblue" d="M116.25,-162.5C126.69,-162.5 137.77,-162.5 148.74,-162.5"/>
<polygon fill="midnightblue" stroke="midnightblue" points="148.77,-166 158.77,-162.5 148.77,-159 148.77,-166"/>
</g>
<!-- Node6 -->
<g id="node6" class="node">
<title>Node6</title>
<g id="a_node6"><a xlink:href="../../d7/db8/classautomaton_1_1core_1_1smartproto_1_1smart__protocol.html#aaadb606705f842a1a5cd88120a3714ad" target="_top" xlink:title=" ">
<polygon fill="white" stroke="black" points="156,-98.5 156,-128.5 305,-128.5 305,-98.5 156,-98.5"/>
<text text-anchor="start" x="164" y="-116.5" font-family="Helvetica,sans-Serif" font-size="10.00">automaton::core::smartproto</text>
<text text-anchor="middle" x="230.5" y="-105.5" font-family="Helvetica,sans-Serif" font-size="10.00">::smart_protocol::get_schemas</text>
</a>
</g>
</g>
<!-- Node1&#45;&gt;Node6 -->
<g id="edge5" class="edge">
<title>Node1&#45;&gt;Node6</title>
<path fill="none" stroke="midnightblue" d="M111.55,-147.4C129.21,-142.32 149.09,-136.61 167.42,-131.34"/>
<polygon fill="midnightblue" stroke="midnightblue" points="168.48,-134.68 177.13,-128.55 166.55,-127.95 168.48,-134.68"/>
</g>
<!-- Node7 -->
<g id="node7" class="node">
<title>Node7</title>
<g id="a_node7"><a xlink:href="../../d7/db8/classautomaton_1_1core_1_1smartproto_1_1smart__protocol.html#a585aa56406dcd8a45da9dc4b24807452" target="_top" xlink:title=" ">
<polygon fill="white" stroke="black" points="152.5,-49.5 152.5,-79.5 308.5,-79.5 308.5,-49.5 152.5,-49.5"/>
<text text-anchor="start" x="160.5" y="-67.5" font-family="Helvetica,sans-Serif" font-size="10.00">automaton::core::smartproto</text>
<text text-anchor="middle" x="230.5" y="-56.5" font-family="Helvetica,sans-Serif" font-size="10.00">::smart_protocol::get_wire_msgs</text>
</a>
</g>
</g>
<!-- Node1&#45;&gt;Node7 -->
<g id="edge6" class="edge">
<title>Node1&#45;&gt;Node7</title>
<path fill="none" stroke="midnightblue" d="M74.56,-147.41C92.11,-131.13 122.1,-105.4 152,-89.5 156.15,-87.29 160.53,-85.24 165.01,-83.33"/>
<polygon fill="midnightblue" stroke="midnightblue" points="166.31,-86.58 174.3,-79.63 163.72,-80.08 166.31,-86.58"/>
</g>
<!-- Node8 -->
<g id="node8" class="node">
<title>Node8</title>
<g id="a_node8"><a xlink:href="../../d0/d66/classautomaton_1_1core_1_1script_1_1engine.html#a3f519736ae1f5a492ffa7e0a7412cb18" target="_top" xlink:title=" ">
<polygon fill="white" stroke="black" points="173.5,-0.5 173.5,-30.5 287.5,-30.5 287.5,-0.5 173.5,-0.5"/>
<text text-anchor="start" x="181.5" y="-18.5" font-family="Helvetica,sans-Serif" font-size="10.00">automaton::core::script</text>
<text text-anchor="middle" x="230.5" y="-7.5" font-family="Helvetica,sans-Serif" font-size="10.00">::engine::set_factory</text>
</a>
</g>
</g>
<!-- Node1&#45;&gt;Node8 -->
<g id="edge7" class="edge">
<title>Node1&#45;&gt;Node8</title>
<path fill="none" stroke="midnightblue" d="M66.55,-147.37C80.13,-121.66 111.13,-69.42 152,-40.5 155.74,-37.86 159.77,-35.48 163.96,-33.35"/>
<polygon fill="midnightblue" stroke="midnightblue" points="165.7,-36.4 173.34,-29.06 162.79,-30.04 165.7,-36.4"/>
</g>
</g>
</svg>
