<?xml version="1.0" encoding="UTF-8" standalone="no"?>
<!DOCTYPE svg PUBLIC "-//W3C//DTD SVG 1.1//EN"
 "http://www.w3.org/Graphics/SVG/1.1/DTD/svg11.dtd">
<!-- Generated by graphviz version 2.42.3 ()
 -->
<!-- Title: persistent_blobstore.h Pages: 1 -->
<svg width="278pt" height="151pt"
 viewBox="0.00 0.00 277.79 151.00" xmlns="http://www.w3.org/2000/svg" xmlns:xlink="http://www.w3.org/1999/xlink">
<g id="graph0" class="graph" transform="scale(1 1) rotate(0) translate(4 147)">
<title>persistent_blobstore.h</title>
<polygon fill="white" stroke="transparent" points="-4,4 -4,-147 273.79,-147 273.79,4 -4,4"/>
<!-- Node1 -->
<g id="node1" class="node">
<title>Node1</title>
<g id="a_node1"><a xlink:title=" ">
<polygon fill="#bfbfbf" stroke="black" points="17.29,-123.5 17.29,-142.5 129.29,-142.5 129.29,-123.5 17.29,-123.5"/>
<text text-anchor="middle" x="73.29" y="-130.5" font-family="Helvetica,sans-Serif" font-size="10.00">persistent_blobstore.h</text>
</a>
</g>
</g>
<!-- Node2 -->
<g id="node2" class="node">
<title>Node2</title>
<g id="a_node2"><a xlink:title=" ">
<polygon fill="white" stroke="#bfbfbf" points="77.79,-0.5 77.79,-19.5 118.79,-19.5 118.79,-0.5 77.79,-0.5"/>
<text text-anchor="middle" x="98.29" y="-7.5" font-family="Helvetica,sans-Serif" font-size="10.00">string</text>
</a>
</g>
</g>
<!-- Node1&#45;&gt;Node2 -->
<g id="edge1" class="edge">
<title>Node1&#45;&gt;Node2</title>
<path fill="none" stroke="midnightblue" d="M49.84,-123.41C34.13,-116.28 14.67,-104.46 5.29,-87 -1.23,-74.86 -2.03,-67.67 5.29,-56 18.95,-34.22 46.45,-22.73 68.03,-16.82"/>
<polygon fill="midnightblue" stroke="midnightblue" points="68.88,-20.22 77.75,-14.42 67.21,-13.42 68.88,-20.22"/>
</g>
<!-- Node3 -->
<g id="node3" class="node">
<title>Node3</title>
<g id="a_node3"><a xlink:title=" ">
<polygon fill="white" stroke="#bfbfbf" points="14.29,-56.5 14.29,-86.5 132.29,-86.5 132.29,-56.5 14.29,-56.5"/>
<text text-anchor="start" x="22.29" y="-74.5" font-family="Helvetica,sans-Serif" font-size="10.00">boost/iostreams/device</text>
<text text-anchor="middle" x="73.29" y="-63.5" font-family="Helvetica,sans-Serif" font-size="10.00">/mapped_file.hpp</text>
</a>
</g>
</g>
<!-- Node1&#45;&gt;Node3 -->
<g id="edge2" class="edge">
<title>Node1&#45;&gt;Node3</title>
<path fill="none" stroke="midnightblue" d="M73.29,-123.48C73.29,-116.47 73.29,-106.19 73.29,-96.7"/>
<polygon fill="midnightblue" stroke="midnightblue" points="76.79,-96.52 73.29,-86.52 69.79,-96.52 76.79,-96.52"/>
</g>
<!-- Node4 -->
<g id="node4" class="node">
<title>Node4</title>
<g id="a_node4"><a xlink:href="../../dd/d71/blobstore_8h.html" target="_top" xlink:title=" ">
<polygon fill="white" stroke="black" points="150.79,-56.5 150.79,-86.5 269.79,-86.5 269.79,-56.5 150.79,-56.5"/>
<text text-anchor="start" x="158.79" y="-74.5" font-family="Helvetica,sans-Serif" font-size="10.00">automaton/core/storage</text>
<text text-anchor="middle" x="210.29" y="-63.5" font-family="Helvetica,sans-Serif" font-size="10.00">/blobstore.h</text>
</a>
</g>
</g>
<!-- Node1&#45;&gt;Node4 -->
<g id="edge3" class="edge">
<title>Node1&#45;&gt;Node4</title>
<path fill="none" stroke="midnightblue" d="M92.92,-123.48C112.6,-114.93 143.51,-101.5 168.68,-90.57"/>
<polygon fill="midnightblue" stroke="midnightblue" points="170.22,-93.72 178,-86.52 167.44,-87.3 170.22,-93.72"/>
</g>
<!-- Node4&#45;&gt;Node2 -->
<g id="edge4" class="edge">
<title>Node4&#45;&gt;Node2</title>
<path fill="none" stroke="midnightblue" d="M183.75,-56.4C165.63,-46.77 141.75,-34.09 123.85,-24.58"/>
<polygon fill="midnightblue" stroke="midnightblue" points="125.06,-21.26 114.59,-19.66 121.78,-27.44 125.06,-21.26"/>
</g>
</g>
</svg>
